<?xml version="1.0" encoding="UTF-8" standalone="no"?>
<!DOCTYPE svg PUBLIC "-//W3C//DTD SVG 1.1//EN"
 "http://www.w3.org/Graphics/SVG/1.1/DTD/svg11.dtd">
<!-- Generated by graphviz version 7.1.0 (20230121.1956)
 -->
<!-- Title: insertArrayInternal Pages: 1 -->
<svg width="313pt" height="64pt"
 viewBox="0.00 0.00 313.00 64.00" xmlns="http://www.w3.org/2000/svg" xmlns:xlink="http://www.w3.org/1999/xlink">
<g id="graph0" class="graph" transform="scale(1 1) rotate(0) translate(4 60)">
<title>insertArrayInternal</title>
<!-- Node1 -->
<g id="node1" class="node">
<title>Node1</title>
<g id="a_node1"><a xlink:title=" ">
<polygon fill="#999999" stroke="#666666" points="305,-37 209,-37 209,-18 305,-18 305,-37"/>
<text text-anchor="middle" x="257" y="-25" font-family="Helvetica,sans-Serif" font-size="10.00">insertArrayInternal</text>
</a>
</g>
</g>
<!-- Node2 -->
<g id="node2" class="node">
<title>Node2</title>
<g id="a_node2"><a xlink:href="../../d8/d22/classdoris_1_1_jsonb_updater.html#ac1011568b9742cdd2aaf92c2589fb169" target="_top" xlink:title=" ">
<polygon fill="white" stroke="#666666" points="173,-56 101,-56 101,-37 173,-37 173,-56"/>
<text text-anchor="middle" x="137" y="-44" font-family="Helvetica,sans-Serif" font-size="10.00">appendValue</text>
</a>
</g>
</g>
<!-- Node1&#45;&gt;Node2 -->
<g id="edge1" class="edge">
<title>Node1&#45;&gt;Node2</title>
<path fill="none" stroke="#63b8ff" d="M197.49,-36.92C189.24,-38.25 180.97,-39.58 173.33,-40.81"/>
<polygon fill="#63b8ff" stroke="#63b8ff" points="197.87,-40.4 207.19,-35.36 196.76,-33.49 197.87,-40.4"/>
</g>
<!-- Node3 -->
<g id="node3" class="node">
<title>Node3</title>
<g id="a_node3"><a xlink:href="../../d8/d22/classdoris_1_1_jsonb_updater.html#a80a27233501ddb5122056642c9d30048" target="_top" xlink:title=" ">
<polygon fill="white" stroke="#666666" points="169.5,-19 104.5,-19 104.5,0 169.5,0 169.5,-19"/>
<text text-anchor="middle" x="137" y="-7" font-family="Helvetica,sans-Serif" font-size="10.00">insertValue</text>
</a>
</g>
</g>
<!-- Node1&#45;&gt;Node3 -->
<g id="edge2" class="edge">
<title>Node1&#45;&gt;Node3</title>
<path fill="none" stroke="#63b8ff" d="M197.52,-18.58C187.95,-17.12 178.36,-15.66 169.76,-14.35"/>
<polygon fill="#63b8ff" stroke="#63b8ff" points="196.78,-22.01 207.19,-20.05 197.83,-15.09 196.78,-22.01"/>
</g>
<!-- Node4 -->
<g id="node4" class="node">
<title>Node4</title>
<g id="a_node4"><a xlink:href="../../d8/d22/classdoris_1_1_jsonb_updater.html#a4ca55af3fa5428047122e26e43d0d594" target="_top" xlink:title=" ">
<polygon fill="white" stroke="#666666" points="65,-19 0,-19 0,0 65,0 65,-19"/>
<text text-anchor="middle" x="32.5" y="-7" font-family="Helvetica,sans-Serif" font-size="10.00">insertValue</text>
</a>
</g>
</g>
<!-- Node3&#45;&gt;Node4 -->
<g id="edge3" class="edge">
<title>Node3&#45;&gt;Node4</title>
<path fill="none" stroke="#63b8ff" d="M92.77,-9.5C83.57,-9.5 74.03,-9.5 65.35,-9.5"/>
<polygon fill="#63b8ff" stroke="#63b8ff" points="92.62,-13 102.62,-9.5 92.62,-6 92.62,-13"/>
</g>
</g>
</svg>
