<?xml version="1.0" encoding="UTF-8" standalone="no"?>
<!DOCTYPE svg PUBLIC "-//W3C//DTD SVG 1.1//EN"
 "http://www.w3.org/Graphics/SVG/1.1/DTD/svg11.dtd">
<!-- Generated by graphviz version 7.1.0 (20230121.1956)
 -->
<!-- Title: getElemInArray Pages: 1 -->
<svg width="238pt" height="113pt"
 viewBox="0.00 0.00 238.00 112.50" xmlns="http://www.w3.org/2000/svg" xmlns:xlink="http://www.w3.org/1999/xlink">
<g id="graph0" class="graph" transform="scale(1 1) rotate(0) translate(4 108.5)">
<title>getElemInArray</title>
<!-- Node1 -->
<g id="node1" class="node">
<title>Node1</title>
<g id="a_node1"><a xlink:title=" ">
<polygon fill="#999999" stroke="#666666" points="84,-67.5 0,-67.5 0,-48.5 84,-48.5 84,-67.5"/>
<text text-anchor="middle" x="42" y="-55.5" font-family="Helvetica,sans-Serif" font-size="10.00">getElemInArray</text>
</a>
</g>
</g>
<!-- Node2 -->
<g id="node2" class="node">
<title>Node2</title>
<g id="a_node2"><a xlink:href="../../df/dc9/classdoris_1_1_array_val.html#ad69bd11391be1a1dba5c8202259664f8" target="_top" xlink:title=" ">
<polygon fill="white" stroke="#666666" points="230,-104.5 120,-104.5 120,-85.5 230,-85.5 230,-104.5"/>
<text text-anchor="middle" x="175" y="-92.5" font-family="Helvetica,sans-Serif" font-size="10.00">doris::ArrayVal::begin</text>
</a>
</g>
</g>
<!-- Node1&#45;&gt;Node2 -->
<g id="edge1" class="edge">
<title>Node1&#45;&gt;Node2</title>
<path fill="none" stroke="#63b8ff" d="M78.11,-67.92C93.38,-72.23 111.48,-77.34 127.82,-81.96"/>
<polygon fill="#63b8ff" stroke="#63b8ff" points="126.77,-85.3 137.34,-84.65 128.67,-78.56 126.77,-85.3"/>
</g>
<!-- Node3 -->
<g id="node3" class="node">
<title>Node3</title>
<g id="a_node3"><a xlink:href="../../df/dc9/classdoris_1_1_array_val.html#acad38d52497a975bfb6f2f6acd76631f" target="_top" xlink:title=" ">
<polygon fill="white" stroke="#666666" points="226,-67.5 124,-67.5 124,-48.5 226,-48.5 226,-67.5"/>
<text text-anchor="middle" x="175" y="-55.5" font-family="Helvetica,sans-Serif" font-size="10.00">doris::ArrayVal::end</text>
</a>
</g>
</g>
<!-- Node1&#45;&gt;Node3 -->
<g id="edge2" class="edge">
<title>Node1&#45;&gt;Node3</title>
<path fill="none" stroke="#63b8ff" d="M84.45,-58C93.3,-58 102.82,-58 112.24,-58"/>
<polygon fill="#63b8ff" stroke="#63b8ff" points="112.12,-61.5 122.12,-58 112.12,-54.5 112.12,-61.5"/>
</g>
<!-- Node4 -->
<g id="node4" class="node">
<title>Node4</title>
<g id="a_node4"><a xlink:href="../../de/d5d/classdoris_1_1_jsonb_value.html#aefe7cc24045c3560d7550ba662375ce4" target="_top" xlink:title=" ">
<polygon fill="white" stroke="#666666" points="225,-30 125,-30 125,0 225,0 225,-30"/>
<text text-anchor="start" x="133" y="-18" font-family="Helvetica,sans-Serif" font-size="10.00">doris::JsonbValue::</text>
<text text-anchor="middle" x="175" y="-7" font-family="Helvetica,sans-Serif" font-size="10.00">isArray</text>
</a>
</g>
</g>
<!-- Node1&#45;&gt;Node4 -->
<g id="edge3" class="edge">
<title>Node1&#45;&gt;Node4</title>
<path fill="none" stroke="#63b8ff" d="M73.38,-48.03C86.16,-43.83 101.46,-38.81 116.23,-33.96"/>
<polygon fill="#63b8ff" stroke="#63b8ff" points="117,-37.39 125.41,-30.95 114.81,-30.74 117,-37.39"/>
</g>
</g>
</svg>
