<?xml version="1.0" encoding="UTF-8" standalone="no"?>
<!DOCTYPE svg PUBLIC "-//W3C//DTD SVG 1.1//EN"
 "http://www.w3.org/Graphics/SVG/1.1/DTD/svg11.dtd">
<!-- Generated by graphviz version 7.1.0 (20230121.1956)
 -->
<!-- Title: _delete_compression_ctx Pages: 1 -->
<svg width="391pt" height="64pt"
 viewBox="0.00 0.00 391.00 64.00" xmlns="http://www.w3.org/2000/svg" xmlns:xlink="http://www.w3.org/1999/xlink">
<g id="graph0" class="graph" transform="scale(1 1) rotate(0) translate(4 60)">
<title>_delete_compression_ctx</title>
<!-- Node1 -->
<g id="node1" class="node">
<title>Node1</title>
<g id="a_node1"><a xlink:title=" ">
<polygon fill="#999999" stroke="#666666" points="383,-37 255,-37 255,-18 383,-18 383,-37"/>
<text text-anchor="middle" x="319" y="-25" font-family="Helvetica,sans-Serif" font-size="10.00">_delete_compression_ctx</text>
</a>
</g>
</g>
<!-- Node2 -->
<g id="node2" class="node">
<title>Node2</title>
<g id="a_node2"><a xlink:href="../../d8/d46/classdoris_1_1_lz4f_block_compression.html#a2d34f23f943d70f50571ec26531f2658" target="_top" xlink:title=" ">
<polygon fill="white" stroke="#666666" points="189.5,-56 124.5,-56 124.5,-37 189.5,-37 189.5,-56"/>
<text text-anchor="middle" x="157" y="-44" font-family="Helvetica,sans-Serif" font-size="10.00">_compress</text>
</a>
</g>
</g>
<!-- Node1&#45;&gt;Node2 -->
<g id="edge1" class="edge">
<title>Node1&#45;&gt;Node2</title>
<path fill="none" stroke="#63b8ff" d="M243.38,-36.36C224.43,-38.61 205.09,-40.91 189.61,-42.75"/>
<polygon fill="#63b8ff" stroke="#63b8ff" points="243.74,-39.84 253.26,-35.19 242.92,-32.89 243.74,-39.84"/>
</g>
<!-- Node4 -->
<g id="node4" class="node">
<title>Node4</title>
<g id="a_node4"><a xlink:href="../../d8/d46/classdoris_1_1_lz4f_block_compression.html#a02ceac29883244ed71b79477843ceb02" target="_top" xlink:title=" ">
<polygon fill="white" stroke="#666666" points="219,-19 95,-19 95,0 219,0 219,-19"/>
<text text-anchor="middle" x="157" y="-7" font-family="Helvetica,sans-Serif" font-size="10.00">~Lz4fBlockCompression</text>
</a>
</g>
</g>
<!-- Node1&#45;&gt;Node4 -->
<g id="edge3" class="edge">
<title>Node1&#45;&gt;Node4</title>
<path fill="none" stroke="#63b8ff" d="M243.48,-19.12C235.44,-18.21 227.33,-17.3 219.47,-16.42"/>
<polygon fill="#63b8ff" stroke="#63b8ff" points="242.93,-22.58 253.26,-20.22 243.71,-15.62 242.93,-22.58"/>
</g>
<!-- Node3 -->
<g id="node3" class="node">
<title>Node3</title>
<g id="a_node3"><a xlink:href="../../d8/d46/classdoris_1_1_lz4f_block_compression.html#a1408c8d0e51e1979be1467843a5f886c" target="_top" xlink:title=" ">
<polygon fill="white" stroke="#666666" points="59,-56 0,-56 0,-37 59,-37 59,-56"/>
<text text-anchor="middle" x="29.5" y="-44" font-family="Helvetica,sans-Serif" font-size="10.00">compress</text>
</a>
</g>
</g>
<!-- Node2&#45;&gt;Node3 -->
<g id="edge2" class="edge">
<title>Node2&#45;&gt;Node3</title>
<path fill="none" stroke="#63b8ff" d="M112.56,-46.5C94.99,-46.5 75.18,-46.5 59.43,-46.5"/>
<polygon fill="#63b8ff" stroke="#63b8ff" points="112.49,-50 122.49,-46.5 112.49,-43 112.49,-50"/>
</g>
</g>
</svg>
