<?xml version="1.0" encoding="UTF-8" standalone="no"?>
<!DOCTYPE svg PUBLIC "-//W3C//DTD SVG 1.1//EN"
 "http://www.w3.org/Graphics/SVG/1.1/DTD/svg11.dtd">
<!-- Generated by graphviz version 7.1.0 (20230121.1956)
 -->
<!-- Title: _acquire_decompression_ctx Pages: 1 -->
<svg width="368pt" height="27pt"
 viewBox="0.00 0.00 368.00 27.00" xmlns="http://www.w3.org/2000/svg" xmlns:xlink="http://www.w3.org/1999/xlink">
<g id="graph0" class="graph" transform="scale(1 1) rotate(0) translate(4 23)">
<title>_acquire_decompression_ctx</title>
<!-- Node1 -->
<g id="node1" class="node">
<title>Node1</title>
<g id="a_node1"><a xlink:title=" ">
<polygon fill="#999999" stroke="#666666" points="360,-19 217,-19 217,0 360,0 360,-19"/>
<text text-anchor="middle" x="288.5" y="-7" font-family="Helvetica,sans-Serif" font-size="10.00">_acquire_decompression_ctx</text>
</a>
</g>
</g>
<!-- Node2 -->
<g id="node2" class="node">
<title>Node2</title>
<g id="a_node2"><a xlink:href="../../d8/d46/classdoris_1_1_lz4f_block_compression.html#a7753d1a2389c4d9e1316f77465e81513" target="_top" xlink:title=" ">
<polygon fill="white" stroke="#666666" points="181,-19 106,-19 106,0 181,0 181,-19"/>
<text text-anchor="middle" x="143.5" y="-7" font-family="Helvetica,sans-Serif" font-size="10.00">_decompress</text>
</a>
</g>
</g>
<!-- Node1&#45;&gt;Node2 -->
<g id="edge1" class="edge">
<title>Node1&#45;&gt;Node2</title>
<path fill="none" stroke="#63b8ff" d="M205.39,-9.5C197.06,-9.5 188.92,-9.5 181.45,-9.5"/>
<polygon fill="#63b8ff" stroke="#63b8ff" points="205.32,-13 215.32,-9.5 205.32,-6 205.32,-13"/>
</g>
<!-- Node3 -->
<g id="node3" class="node">
<title>Node3</title>
<g id="a_node3"><a xlink:href="../../d8/d46/classdoris_1_1_lz4f_block_compression.html#a7afd588ecc46b15b6ed4212ddede9c9c" target="_top" xlink:title=" ">
<polygon fill="white" stroke="#666666" points="70,-19 0,-19 0,0 70,0 70,-19"/>
<text text-anchor="middle" x="35" y="-7" font-family="Helvetica,sans-Serif" font-size="10.00">decompress</text>
</a>
</g>
</g>
<!-- Node2&#45;&gt;Node3 -->
<g id="edge2" class="edge">
<title>Node2&#45;&gt;Node3</title>
<path fill="none" stroke="#63b8ff" d="M94.04,-9.5C86.06,-9.5 77.93,-9.5 70.38,-9.5"/>
<polygon fill="#63b8ff" stroke="#63b8ff" points="94.04,-13 104.04,-9.5 94.04,-6 94.04,-13"/>
</g>
</g>
</svg>
