<?xml version="1.0" encoding="UTF-8" standalone="no"?>
<!DOCTYPE svg PUBLIC "-//W3C//DTD SVG 1.1//EN"
 "http://www.w3.org/Graphics/SVG/1.1/DTD/svg11.dtd">
<!-- Generated by graphviz version 7.1.0 (20230121.1956)
 -->
<!-- Title: _close_action Pages: 1 -->
<!--zoomable 457 -->
<svg id="main" version="1.1" xmlns="http://www.w3.org/2000/svg" xmlns:xlink="http://www.w3.org/1999/xlink" xml:space="preserve" onload="init(evt)">
<style type="text/css"><![CDATA[
.edge:hover path { stroke: red; }
.edge:hover polygon { stroke: red; fill: red; }
]]></style>
<script type="text/javascript"><![CDATA[
var edges = document.getElementsByTagName('g');
if (edges && edges.length) {
  for (var i=0;i<edges.length;i++) {
    if (edges[i].id.substr(0,4)=='edge') {
      edges[i].setAttribute('class','edge');
    }
  }
}
]]></script>
        <defs>
                <circle id="rim" cx="0" cy="0" r="7"/>
                <circle id="rim2" cx="0" cy="0" r="3.5"/>
                <g id="zoomPlus">
                        <use xlink:href="#rim" fill="#404040">
                                <set attributeName="fill" to="#808080" begin="zoomplus.mouseover" end="zoomplus.mouseout"/>
                        </use>
                        <path d="M-4,0h8M0,-4v8" fill="none" stroke="white" stroke-width="1.5" pointer-events="none"/>
                </g>
                <g id="zoomMin">
                        <use xlink:href="#rim" fill="#404040">
                                <set attributeName="fill" to="#808080" begin="zoomminus.mouseover" end="zoomminus.mouseout"/>
                        </use>
                        <path d="M-4,0h8" fill="none" stroke="white" stroke-width="1.5" pointer-events="none"/>
                </g>
                <g id="dirArrow">
                        <path fill="none" stroke="white" stroke-width="1.5" d="M0,-3.0v7 M-2.5,-0.5L0,-3.0L2.5,-0.5"/>
                </g>
               <g id="resetDef">
                       <use xlink:href="#rim2" fill="#404040">
                               <set attributeName="fill" to="#808080" begin="reset.mouseover" end="reset.mouseout"/>
                       </use>
               </g>
        </defs>

<script type="text/javascript">
var viewWidth = 1401;
var viewHeight = 457;
var sectionId = 'dynsection-26';
</script>
<script xlink:href="../../svgpan.js"/>
<svg id="graph" class="graph">
<g id="viewport">
<title>_close_action</title>
<!-- Node1 -->
<g id="node1" class="node">
<title>Node1</title>
<g id="a_node1"><a xlink:title=" ">
<polygon fill="#999999" stroke="#666666" points="77,-339 0,-339 0,-320 77,-320 77,-339"/>
<text text-anchor="middle" x="38.5" y="-327" font-family="Helvetica,sans-Serif" font-size="10.00">_close_action</text>
</a>
</g>
</g>
<!-- Node2 -->
<g id="node2" class="node">
<title>Node2</title>
<g id="a_node2"><a xlink:href="../../d7/d16/classdoris_1_1_custom_stop_watch.html#adcda5684f125d03f01912ee2b400fd89" target="_top" xlink:title=" ">
<polygon fill="white" stroke="#666666" points="250.5,-427.5 124.5,-427.5 124.5,-397.5 250.5,-397.5 250.5,-427.5"/>
<text text-anchor="start" x="132.5" y="-415.5" font-family="Helvetica,sans-Serif" font-size="10.00">doris::CustomStopWatch</text>
<text text-anchor="middle" x="187.5" y="-404.5" font-family="Helvetica,sans-Serif" font-size="10.00">::elapsed_time</text>
</a>
</g>
</g>
<!-- Node1&#45;&gt;Node2 -->
<g id="edge1" class="edge">
<title>Node1&#45;&gt;Node2</title>
<path fill="none" stroke="#63b8ff" d="M56.94,-339.35C79.53,-352.1 119.5,-374.67 149.09,-391.38"/>
<polygon fill="#63b8ff" stroke="#63b8ff" points="147.34,-394.41 157.76,-396.27 150.78,-388.31 147.34,-394.41"/>
</g>
<!-- Node5 -->
<g id="node5" class="node">
<title>Node5</title>
<g id="a_node5"><a xlink:href="../../d9/dbd/classdoris_1_1_exec_env.html#ab242c18e94933c747f08b07052d9a0fd" target="_top" xlink:title=" ">
<polygon fill="white" stroke="#666666" points="262,-361 113,-361 113,-342 262,-342 262,-361"/>
<text text-anchor="middle" x="187.5" y="-349" font-family="Helvetica,sans-Serif" font-size="10.00">doris::ExecEnv::fragment_mgr</text>
</a>
</g>
</g>
<!-- Node1&#45;&gt;Node5 -->
<g id="edge4" class="edge">
<title>Node1&#45;&gt;Node5</title>
<path fill="none" stroke="#63b8ff" d="M77.36,-335.17C87.02,-336.61 97.76,-338.22 108.63,-339.85"/>
<polygon fill="#63b8ff" stroke="#63b8ff" points="108.06,-343.3 118.47,-341.32 109.1,-336.38 108.06,-343.3"/>
</g>
<!-- Node6 -->
<g id="node6" class="node">
<title>Node6</title>
<g id="a_node6"><a xlink:href="../../d2/d1a/classdoris_1_1_fragment_mgr.html#ae720ae3d7a7cf44892def2cb73664664" target="_top" xlink:title=" ">
<polygon fill="white" stroke="#666666" points="253,-323.5 122,-323.5 122,-293.5 253,-293.5 253,-323.5"/>
<text text-anchor="start" x="130" y="-311.5" font-family="Helvetica,sans-Serif" font-size="10.00">doris::FragmentMgr</text>
<text text-anchor="middle" x="187.5" y="-300.5" font-family="Helvetica,sans-Serif" font-size="10.00">::remove_pipeline_context</text>
</a>
</g>
</g>
<!-- Node1&#45;&gt;Node6 -->
<g id="edge5" class="edge">
<title>Node1&#45;&gt;Node6</title>
<path fill="none" stroke="#63b8ff" d="M77.36,-324.09C87.61,-322.63 99.08,-320.99 110.63,-319.34"/>
<polygon fill="#63b8ff" stroke="#63b8ff" points="110.78,-322.85 120.19,-317.97 109.79,-315.92 110.78,-322.85"/>
</g>
<!-- Node7 -->
<g id="node7" class="node">
<title>Node7</title>
<g id="a_node7"><a xlink:href="../../d8/d46/classdoris_1_1pipeline_1_1_pipeline_fragment_context.html#aa281e7b97b54f3a89dbe0b01bad4a1ec" target="_top" xlink:title=" ">
<polygon fill="white" stroke="#666666" points="221.5,-238 153.5,-238 153.5,-219 221.5,-219 221.5,-238"/>
<text text-anchor="middle" x="187.5" y="-226" font-family="Helvetica,sans-Serif" font-size="10.00">send_report</text>
</a>
</g>
</g>
<!-- Node1&#45;&gt;Node7 -->
<g id="edge6" class="edge">
<title>Node1&#45;&gt;Node7</title>
<path fill="none" stroke="#63b8ff" d="M53.86,-319.63C79.29,-302.16 132.42,-265.66 163.16,-244.53"/>
<polygon fill="#63b8ff" stroke="#63b8ff" points="164.79,-247.66 171.05,-239.12 160.82,-241.89 164.79,-247.66"/>
</g>
<!-- Node3 -->
<g id="node3" class="node">
<title>Node3</title>
<g id="a_node3"><a xlink:href="../../dc/dd3/clock__gettime_8c.html#a1033612ad5e07b4883265544a5361377" target="_top" xlink:title=" ">
<polygon fill="white" stroke="#666666" points="406.5,-438 329.5,-438 329.5,-419 406.5,-419 406.5,-438"/>
<text text-anchor="middle" x="368" y="-426" font-family="Helvetica,sans-Serif" font-size="10.00">clock_gettime</text>
</a>
</g>
</g>
<!-- Node2&#45;&gt;Node3 -->
<g id="edge2" class="edge">
<title>Node2&#45;&gt;Node3</title>
<path fill="none" stroke="#63b8ff" d="M250.93,-418.1C272.8,-420.06 297.04,-422.23 317.68,-424.08"/>
<polygon fill="#63b8ff" stroke="#63b8ff" points="317.28,-427.56 327.55,-424.96 317.9,-420.59 317.28,-427.56"/>
</g>
<!-- Node4 -->
<g id="node4" class="node">
<title>Node4</title>
<g id="a_node4"><a xlink:href="../../dc/df5/syscall__ret_8c.html#ac5a9fe7bbf4e56db4c22dbb286f18f45" target="_top" xlink:title=" ">
<polygon fill="white" stroke="#666666" points="584,-441 510,-441 510,-422 584,-422 584,-441"/>
<text text-anchor="middle" x="547" y="-429" font-family="Helvetica,sans-Serif" font-size="10.00">__syscall_ret</text>
</a>
</g>
</g>
<!-- Node3&#45;&gt;Node4 -->
<g id="edge3" class="edge">
<title>Node3&#45;&gt;Node4</title>
<path fill="none" stroke="#63b8ff" d="M406.97,-429.14C433.67,-429.6 469.58,-430.2 498.22,-430.69"/>
<polygon fill="#63b8ff" stroke="#63b8ff" points="498.03,-434.19 508.09,-430.86 498.15,-427.19 498.03,-434.19"/>
</g>
<!-- Node8 -->
<g id="node8" class="node">
<title>Node8</title>
<g id="a_node8"><a xlink:href="../../d8/d46/classdoris_1_1pipeline_1_1_pipeline_fragment_context.html#a841e14442a392f25bb8f4f77ba832999" target="_top" xlink:title=" ">
<polygon fill="white" stroke="#666666" points="390.5,-398 345.5,-398 345.5,-379 390.5,-379 390.5,-398"/>
<text text-anchor="middle" x="368" y="-386" font-family="Helvetica,sans-Serif" font-size="10.00">cancel</text>
</a>
</g>
</g>
<!-- Node7&#45;&gt;Node8 -->
<g id="edge7" class="edge">
<title>Node7&#45;&gt;Node8</title>
<path fill="none" stroke="#63b8ff" d="M206.36,-238.41C222.72,-248.26 246.65,-264.73 262,-284.5 287.16,-316.91 267.14,-342.47 298,-369.5 307.95,-378.21 321.55,-382.97 334.05,-385.54"/>
<polygon fill="#63b8ff" stroke="#63b8ff" points="333.15,-388.94 343.58,-387.11 334.28,-382.04 333.15,-388.94"/>
</g>
<!-- Node20 -->
<g id="node20" class="node">
<title>Node20</title>
<g id="a_node20"><a xlink:href="../../d9/dbd/classdoris_1_1_exec_env.html#aedae9ed3323b3d66add196e42a203dd3" target="_top" xlink:title=" ">
<polygon fill="white" stroke="#666666" points="430.5,-360.5 305.5,-360.5 305.5,-330.5 430.5,-330.5 430.5,-360.5"/>
<text text-anchor="start" x="313.5" y="-348.5" font-family="Helvetica,sans-Serif" font-size="10.00">doris::ExecEnv::frontend</text>
<text text-anchor="middle" x="368" y="-337.5" font-family="Helvetica,sans-Serif" font-size="10.00">_client_cache</text>
</a>
</g>
</g>
<!-- Node7&#45;&gt;Node20 -->
<g id="edge23" class="edge">
<title>Node7&#45;&gt;Node20</title>
<path fill="none" stroke="#63b8ff" d="M202.8,-238.44C217.98,-249.2 242.43,-267.16 262,-284.5 279.17,-299.72 278.65,-309.18 298,-321.5 299.96,-322.75 302,-323.95 304.09,-325.09"/>
<polygon fill="#63b8ff" stroke="#63b8ff" points="302.3,-328.1 312.82,-329.36 305.38,-321.82 302.3,-328.1"/>
</g>
<!-- Node21 -->
<g id="node21" class="node">
<title>Node21</title>
<g id="a_node21"><a xlink:href="../../d9/dbd/classdoris_1_1_exec_env.html#ae830cb2cc50dcb65938f9710d02b36f7" target="_top" xlink:title=" ">
<polygon fill="white" stroke="#666666" points="438,-312 298,-312 298,-293 438,-293 438,-312"/>
<text text-anchor="middle" x="368" y="-300" font-family="Helvetica,sans-Serif" font-size="10.00">doris::ExecEnv::master_info</text>
</a>
</g>
</g>
<!-- Node7&#45;&gt;Node21 -->
<g id="edge24" class="edge">
<title>Node7&#45;&gt;Node21</title>
<path fill="none" stroke="#63b8ff" d="M205.05,-238.41C226.05,-250.64 263.68,-271.43 298,-284.5 302.61,-286.26 307.47,-287.91 312.37,-289.43"/>
<polygon fill="#63b8ff" stroke="#63b8ff" points="311.08,-292.7 321.66,-292.16 313.05,-285.99 311.08,-292.7"/>
</g>
<!-- Node22 -->
<g id="node22" class="node">
<title>Node22</title>
<g id="a_node22"><a xlink:href="../../d9/d8d/classdoris_1_1_status.html#a6ec1a217f203269ab53d2290d602db24" target="_top" xlink:title=" ">
<polygon fill="white" stroke="#666666" points="414,-275 322,-275 322,-256 414,-256 414,-275"/>
<text text-anchor="middle" x="368" y="-263" font-family="Helvetica,sans-Serif" font-size="10.00">doris::Status::OK</text>
</a>
</g>
</g>
<!-- Node7&#45;&gt;Node22 -->
<g id="edge25" class="edge">
<title>Node7&#45;&gt;Node22</title>
<path fill="none" stroke="#63b8ff" d="M221.66,-235.37C246.6,-240.54 281.37,-247.75 310.65,-253.82"/>
<polygon fill="#63b8ff" stroke="#63b8ff" points="309.59,-257.17 320.09,-255.78 311.01,-250.32 309.59,-257.17"/>
</g>
<!-- Node24 -->
<g id="node24" class="node">
<title>Node24</title>
<g id="a_node24"><a xlink:href="../../d9/d8d/classdoris_1_1_status.html#a03cb7eaa663dc83af68bc28a596d09e6" target="_top" xlink:title=" ">
<polygon fill="white" stroke="#666666" points="412.5,-238 323.5,-238 323.5,-219 412.5,-219 412.5,-238"/>
<text text-anchor="middle" x="368" y="-226" font-family="Helvetica,sans-Serif" font-size="10.00">doris::Status::ok</text>
</a>
</g>
</g>
<!-- Node7&#45;&gt;Node24 -->
<g id="edge27" class="edge">
<title>Node7&#45;&gt;Node24</title>
<path fill="none" stroke="#63b8ff" d="M221.66,-228.5C246.93,-228.5 282.31,-228.5 311.83,-228.5"/>
<polygon fill="#63b8ff" stroke="#63b8ff" points="311.72,-232 321.72,-228.5 311.72,-225 311.72,-232"/>
</g>
<!-- Node25 -->
<g id="node25" class="node">
<title>Node25</title>
<g id="a_node25"><a xlink:href="../../d6/d94/namespacedoris.html#ab0606cb3935fd04241aef36f19b050fa" target="_top" xlink:title=" ">
<polygon fill="white" stroke="#666666" points="405.5,-201 330.5,-201 330.5,-182 405.5,-182 405.5,-201"/>
<text text-anchor="middle" x="368" y="-189" font-family="Helvetica,sans-Serif" font-size="10.00">doris::print_id</text>
</a>
</g>
</g>
<!-- Node7&#45;&gt;Node25 -->
<g id="edge28" class="edge">
<title>Node7&#45;&gt;Node25</title>
<path fill="none" stroke="#63b8ff" d="M221.66,-221.63C249.04,-215.95 288.28,-207.82 319.09,-201.43"/>
<polygon fill="#63b8ff" stroke="#63b8ff" points="319.45,-204.93 328.54,-199.47 318.03,-198.08 319.45,-204.93"/>
</g>
<!-- Node26 -->
<g id="node26" class="node">
<title>Node26</title>
<g id="a_node26"><a xlink:href="../../d7/d70/classdoris_1_1_client_connection.html#af962d700d7644aefc29ab69452faab0e" target="_top" xlink:title=" ">
<polygon fill="white" stroke="#666666" points="427.5,-163.5 308.5,-163.5 308.5,-133.5 427.5,-133.5 427.5,-163.5"/>
<text text-anchor="start" x="316.5" y="-151.5" font-family="Helvetica,sans-Serif" font-size="10.00">doris::ClientConnection</text>
<text text-anchor="middle" x="368" y="-140.5" font-family="Helvetica,sans-Serif" font-size="10.00">::reopen</text>
</a>
</g>
</g>
<!-- Node7&#45;&gt;Node26 -->
<g id="edge29" class="edge">
<title>Node7&#45;&gt;Node26</title>
<path fill="none" stroke="#63b8ff" d="M206.4,-218.69C227.83,-207.13 264.98,-187.72 298,-173.5 302.34,-171.63 306.88,-169.78 311.46,-167.97"/>
<polygon fill="#63b8ff" stroke="#63b8ff" points="312.66,-171.26 320.74,-164.42 310.15,-164.73 312.66,-171.26"/>
</g>
<!-- Node27 -->
<g id="node27" class="node">
<title>Node27</title>
<g id="a_node27"><a xlink:href="../../d9/d8d/classdoris_1_1_status.html#ab2b8a61610de3180c8318bac250ade8e" target="_top" xlink:title=" ">
<polygon fill="white" stroke="#666666" points="414,-115.5 322,-115.5 322,-85.5 414,-85.5 414,-115.5"/>
<text text-anchor="start" x="330" y="-103.5" font-family="Helvetica,sans-Serif" font-size="10.00">doris::Status::set</text>
<text text-anchor="middle" x="368" y="-92.5" font-family="Helvetica,sans-Serif" font-size="10.00">_t_status</text>
</a>
</g>
</g>
<!-- Node7&#45;&gt;Node27 -->
<g id="edge30" class="edge">
<title>Node7&#45;&gt;Node27</title>
<path fill="none" stroke="#63b8ff" d="M196.24,-218.76C212.83,-198.47 253.89,-151.37 298,-124.5 302.2,-121.94 306.7,-119.61 311.33,-117.49"/>
<polygon fill="#63b8ff" stroke="#63b8ff" points="312.31,-120.88 320.18,-113.78 309.6,-114.42 312.31,-120.88"/>
</g>
<!-- Node29 -->
<g id="node29" class="node">
<title>Node29</title>
<g id="a_node29"><a xlink:href="../../d8/d46/classdoris_1_1pipeline_1_1_pipeline_fragment_context.html#abaff7e2f002c112a2dbae3a87c3e4f8e" target="_top" xlink:title=" ">
<polygon fill="white" stroke="#666666" points="403.5,-19 332.5,-19 332.5,0 403.5,0 403.5,-19"/>
<text text-anchor="middle" x="368" y="-7" font-family="Helvetica,sans-Serif" font-size="10.00">to_http_path</text>
</a>
</g>
</g>
<!-- Node7&#45;&gt;Node29 -->
<g id="edge33" class="edge">
<title>Node7&#45;&gt;Node29</title>
<path fill="none" stroke="#63b8ff" d="M190.89,-218.82C199.39,-186.48 231.25,-81.3 298,-28.5 304.78,-23.14 312.96,-19.29 321.29,-16.53"/>
<polygon fill="#63b8ff" stroke="#63b8ff" points="322.06,-19.94 330.76,-13.89 320.19,-13.2 322.06,-19.94"/>
</g>
<!-- Node32 -->
<g id="node32" class="node">
<title>Node32</title>
<g id="a_node32"><a xlink:href="../../d6/d94/namespacedoris.html#a422b1035e591ddd992533fd58772d993" target="_top" xlink:title=" ">
<polygon fill="white" stroke="#666666" points="418,-67.5 318,-67.5 318,-37.5 418,-37.5 418,-67.5"/>
<text text-anchor="start" x="326" y="-55.5" font-family="Helvetica,sans-Serif" font-size="10.00">doris::to_load_error</text>
<text text-anchor="middle" x="368" y="-44.5" font-family="Helvetica,sans-Serif" font-size="10.00">_http_path</text>
</a>
</g>
</g>
<!-- Node7&#45;&gt;Node32 -->
<g id="edge36" class="edge">
<title>Node7&#45;&gt;Node32</title>
<path fill="none" stroke="#63b8ff" d="M192.89,-218.74C205.37,-192.01 243.76,-116.93 298,-76.5 300.95,-74.3 304.11,-72.29 307.41,-70.46"/>
<polygon fill="#63b8ff" stroke="#63b8ff" points="308.8,-73.68 316.25,-66.14 305.72,-67.39 308.8,-73.68"/>
</g>
<!-- Node9 -->
<g id="node9" class="node">
<title>Node9</title>
<g id="a_node9"><a xlink:href="../../d4/d67/classdoris_1_1vectorized_1_1_v_data_stream_mgr.html#aed0f84ff84a43c68a3d5da99da9cef64" target="_top" xlink:title=" ">
<polygon fill="white" stroke="#666666" points="610.5,-403.5 483.5,-403.5 483.5,-373.5 610.5,-373.5 610.5,-403.5"/>
<text text-anchor="start" x="491.5" y="-391.5" font-family="Helvetica,sans-Serif" font-size="10.00">doris::vectorized::</text>
<text text-anchor="middle" x="547" y="-380.5" font-family="Helvetica,sans-Serif" font-size="10.00">VDataStreamMgr::cancel</text>
</a>
</g>
</g>
<!-- Node8&#45;&gt;Node9 -->
<g id="edge8" class="edge">
<title>Node8&#45;&gt;Node9</title>
<path fill="none" stroke="#63b8ff" d="M390.7,-388.5C411.09,-388.5 442.77,-388.5 472.21,-388.5"/>
<polygon fill="#63b8ff" stroke="#63b8ff" points="471.85,-392 481.85,-388.5 471.85,-385 471.85,-392"/>
</g>
<!-- Node19 -->
<g id="node19" class="node">
<title>Node19</title>
<g id="a_node19"><a xlink:href="../../d9/dbd/classdoris_1_1_exec_env.html#abf3914b1096f70d54a1872e3487ceaf3" target="_top" xlink:title=" ">
<polygon fill="white" stroke="#666666" points="620,-355 474,-355 474,-336 620,-336 620,-355"/>
<text text-anchor="middle" x="547" y="-343" font-family="Helvetica,sans-Serif" font-size="10.00">doris::ExecEnv::vstream_mgr</text>
</a>
</g>
</g>
<!-- Node8&#45;&gt;Node19 -->
<g id="edge22" class="edge">
<title>Node8&#45;&gt;Node19</title>
<path fill="none" stroke="#63b8ff" d="M390.7,-383.23C416.28,-377.01 459.64,-366.48 494.05,-358.12"/>
<polygon fill="#63b8ff" stroke="#63b8ff" points="494.52,-361.61 503.41,-355.85 492.86,-354.81 494.52,-361.61"/>
</g>
<!-- Node10 -->
<g id="node10" class="node">
<title>Node10</title>
<g id="a_node10"><a xlink:href="../../d4/d67/classdoris_1_1vectorized_1_1_v_data_stream_mgr.html#a066c3c4b0730865beccd5f5581d6a9d1" target="_top" xlink:title=" ">
<polygon fill="white" stroke="#666666" points="797,-403.5 656,-403.5 656,-373.5 797,-373.5 797,-403.5"/>
<text text-anchor="start" x="664" y="-391.5" font-family="Helvetica,sans-Serif" font-size="10.00">doris::vectorized::</text>
<text text-anchor="middle" x="726.5" y="-380.5" font-family="Helvetica,sans-Serif" font-size="10.00">VDataStreamMgr::find_recvr</text>
</a>
</g>
</g>
<!-- Node9&#45;&gt;Node10 -->
<g id="edge9" class="edge">
<title>Node9&#45;&gt;Node10</title>
<path fill="none" stroke="#63b8ff" d="M610.58,-388.5C621.51,-388.5 633.02,-388.5 644.36,-388.5"/>
<polygon fill="#63b8ff" stroke="#63b8ff" points="644.11,-392 654.11,-388.5 644.11,-385 644.11,-392"/>
</g>
<!-- Node11 -->
<g id="node11" class="node">
<title>Node11</title>
<g id="a_node11"><a xlink:href="../../d4/d67/classdoris_1_1vectorized_1_1_v_data_stream_mgr.html#a987e325b16366c21e555f376bfb2d6e5" target="_top" xlink:title=" ">
<polygon fill="white" stroke="#666666" points="945,-436 833,-436 833,-395 945,-395 945,-436"/>
<text text-anchor="start" x="841" y="-424" font-family="Helvetica,sans-Serif" font-size="10.00">doris::vectorized::</text>
<text text-anchor="start" x="841" y="-413" font-family="Helvetica,sans-Serif" font-size="10.00">VDataStreamMgr::get</text>
<text text-anchor="middle" x="889" y="-402" font-family="Helvetica,sans-Serif" font-size="10.00">_hash_value</text>
</a>
</g>
</g>
<!-- Node10&#45;&gt;Node11 -->
<g id="edge10" class="edge">
<title>Node10&#45;&gt;Node11</title>
<path fill="none" stroke="#63b8ff" d="M797.43,-400.26C805.47,-401.62 813.65,-402.99 821.64,-404.34"/>
<polygon fill="#63b8ff" stroke="#63b8ff" points="820.84,-407.75 831.28,-405.96 822,-400.85 820.84,-407.75"/>
</g>
<!-- Node13 -->
<g id="node13" class="node">
<title>Node13</title>
<g id="a_node13"><a xlink:href="../../d3/d1e/namespacedoris_1_1vectorized.html#aab612a4ab0658075fb7900a2fa22f077" target="_top" xlink:title=" ">
<polygon fill="white" stroke="#666666" points="936.5,-376.5 841.5,-376.5 841.5,-346.5 936.5,-346.5 936.5,-376.5"/>
<text text-anchor="start" x="849.5" y="-364.5" font-family="Helvetica,sans-Serif" font-size="10.00">doris::vectorized::</text>
<text text-anchor="middle" x="889" y="-353.5" font-family="Helvetica,sans-Serif" font-size="10.00">hash_value</text>
</a>
</g>
</g>
<!-- Node10&#45;&gt;Node13 -->
<g id="edge13" class="edge">
<title>Node10&#45;&gt;Node13</title>
<path fill="none" stroke="#63b8ff" d="M797.43,-376.74C808.35,-374.9 819.53,-373.02 830.14,-371.23"/>
<polygon fill="#63b8ff" stroke="#63b8ff" points="830.61,-374.7 839.9,-369.59 829.45,-367.8 830.61,-374.7"/>
</g>
<!-- Node12 -->
<g id="node12" class="node">
<title>Node12</title>
<g id="a_node12"><a xlink:href="../../d1/dce/classdoris_1_1_raw_value.html#a23823ee984cf0fc19ffe938f565aae5c" target="_top" xlink:title=" ">
<polygon fill="white" stroke="#666666" points="1089,-430.5 982,-430.5 982,-400.5 1089,-400.5 1089,-430.5"/>
<text text-anchor="start" x="990" y="-418.5" font-family="Helvetica,sans-Serif" font-size="10.00">doris::RawValue::get</text>
<text text-anchor="middle" x="1035.5" y="-407.5" font-family="Helvetica,sans-Serif" font-size="10.00">_hash_value</text>
</a>
</g>
</g>
<!-- Node11&#45;&gt;Node12 -->
<g id="edge11" class="edge">
<title>Node11&#45;&gt;Node12</title>
<path fill="none" stroke="#63b8ff" d="M945.45,-415.5C953.66,-415.5 962.18,-415.5 970.54,-415.5"/>
<polygon fill="#63b8ff" stroke="#63b8ff" points="970.29,-419 980.29,-415.5 970.29,-412 970.29,-419"/>
</g>
<!-- Node12&#45;&gt;Node12 -->
<g id="edge12" class="edge">
<title>Node12&#45;&gt;Node12</title>
<path fill="none" stroke="#63b8ff" d="M1009.75,-430.78C1004.03,-439.91 1012.61,-448.5 1035.5,-448.5 1048.02,-448.5 1056.26,-445.93 1060.22,-442.11"/>
<polygon fill="#63b8ff" stroke="#63b8ff" points="1063.69,-442.56 1061.11,-432.28 1056.72,-441.92 1063.69,-442.56"/>
</g>
<!-- Node14 -->
<g id="node14" class="node">
<title>Node14</title>
<g id="a_node14"><a xlink:href="../../d8/d08/classdoris_1_1_hash_util.html#af859ad5532f11b9fb98fed728353cc75" target="_top" xlink:title=" ">
<polygon fill="white" stroke="#666666" points="1090,-371 981,-371 981,-352 1090,-352 1090,-371"/>
<text text-anchor="middle" x="1035.5" y="-359" font-family="Helvetica,sans-Serif" font-size="10.00">doris::HashUtil::hash</text>
</a>
</g>
</g>
<!-- Node13&#45;&gt;Node14 -->
<g id="edge14" class="edge">
<title>Node13&#45;&gt;Node14</title>
<path fill="none" stroke="#63b8ff" d="M936.92,-361.5C947.25,-361.5 958.38,-361.5 969.29,-361.5"/>
<polygon fill="#63b8ff" stroke="#63b8ff" points="969.03,-365 979.03,-361.5 969.03,-358 969.03,-365"/>
</g>
<!-- Node15 -->
<g id="node15" class="node">
<title>Node15</title>
<g id="a_node15"><a xlink:href="../../d8/d08/classdoris_1_1_hash_util.html#a752603dfbd85c37afdb627dc7ff30a34" target="_top" xlink:title=" ">
<polygon fill="white" stroke="#666666" points="1254,-408 1126,-408 1126,-389 1254,-389 1254,-408"/>
<text text-anchor="middle" x="1190" y="-396" font-family="Helvetica,sans-Serif" font-size="10.00">doris::HashUtil::crc_hash</text>
</a>
</g>
</g>
<!-- Node14&#45;&gt;Node15 -->
<g id="edge15" class="edge">
<title>Node14&#45;&gt;Node15</title>
<path fill="none" stroke="#63b8ff" d="M1090.27,-368.06C1112.53,-372.92 1137.6,-379.29 1156.9,-385.09"/>
<polygon fill="#63b8ff" stroke="#63b8ff" points="1155.79,-388.41 1166.38,-388.07 1157.88,-381.73 1155.79,-388.41"/>
</g>
<!-- Node17 -->
<g id="node17" class="node">
<title>Node17</title>
<g id="a_node17"><a xlink:href="../../d8/d08/classdoris_1_1_hash_util.html#a3dddbd7b2e35ca9369f00e777e22506f" target="_top" xlink:title=" ">
<polygon fill="white" stroke="#666666" points="1254,-371 1126,-371 1126,-352 1254,-352 1254,-371"/>
<text text-anchor="middle" x="1190" y="-359" font-family="Helvetica,sans-Serif" font-size="10.00">doris::HashUtil::fnv_hash</text>
</a>
</g>
</g>
<!-- Node14&#45;&gt;Node17 -->
<g id="edge19" class="edge">
<title>Node14&#45;&gt;Node17</title>
<path fill="none" stroke="#63b8ff" d="M1090.27,-355.02C1098.02,-354.83 1106.11,-354.74 1114.18,-354.75"/>
<polygon fill="#63b8ff" stroke="#63b8ff" points="1114,-358.25 1124.03,-354.82 1114.05,-351.25 1114,-358.25"/>
</g>
<!-- Node18 -->
<g id="node18" class="node">
<title>Node18</title>
<g id="a_node18"><a xlink:href="../../d5/dad/classdoris_1_1_cpu_info.html#aea45f507e2255521fd09399856dce532" target="_top" xlink:title="Returns whether of not the cpu supports this flag">
<polygon fill="white" stroke="#666666" points="1236,-333.5 1144,-333.5 1144,-303.5 1236,-303.5 1236,-333.5"/>
<text text-anchor="start" x="1152" y="-321.5" font-family="Helvetica,sans-Serif" font-size="10.00">doris::CpuInfo::is</text>
<text text-anchor="middle" x="1190" y="-310.5" font-family="Helvetica,sans-Serif" font-size="10.00">_supported</text>
</a>
</g>
</g>
<!-- Node14&#45;&gt;Node18 -->
<g id="edge21" class="edge">
<title>Node14&#45;&gt;Node18</title>
<path fill="none" stroke="#63b8ff" d="M1071.87,-351.53C1089.91,-346.44 1112.29,-340.13 1132.63,-334.39"/>
<polygon fill="#63b8ff" stroke="#63b8ff" points="1133.55,-337.77 1142.23,-331.69 1131.65,-331.03 1133.55,-337.77"/>
</g>
<!-- Node15&#45;&gt;Node14 -->
<g id="edge16" class="edge">
<title>Node15&#45;&gt;Node14</title>
<path fill="none" stroke="#63b8ff" d="M1125.82,-389.83C1106.07,-385.31 1085.12,-379.88 1068.47,-374.87"/>
<polygon fill="#63b8ff" stroke="#63b8ff" points="1069.74,-371.6 1059.15,-371.94 1067.64,-378.28 1069.74,-371.6"/>
</g>
<!-- Node16 -->
<g id="node16" class="node">
<title>Node16</title>
<g id="a_node16"><a xlink:href="../../d8/d08/classdoris_1_1_hash_util.html#a67fb8509416d6acc53ca130fd6b80eb7" target="_top" xlink:title=" ">
<polygon fill="white" stroke="#666666" points="1393,-351.5 1290,-351.5 1290,-321.5 1393,-321.5 1393,-351.5"/>
<text text-anchor="start" x="1298" y="-339.5" font-family="Helvetica,sans-Serif" font-size="10.00">doris::HashUtil::zlib</text>
<text text-anchor="middle" x="1341.5" y="-328.5" font-family="Helvetica,sans-Serif" font-size="10.00">_crc_hash</text>
</a>
</g>
</g>
<!-- Node15&#45;&gt;Node16 -->
<g id="edge17" class="edge">
<title>Node15&#45;&gt;Node16</title>
<path fill="none" stroke="#63b8ff" d="M1230.37,-388.51C1238.29,-386.15 1246.48,-383.45 1254,-380.5 1270.69,-373.94 1288.46,-365.23 1303.52,-357.29"/>
<polygon fill="#63b8ff" stroke="#63b8ff" points="1304.97,-360.48 1312.13,-352.67 1301.66,-354.31 1304.97,-360.48"/>
</g>
<!-- Node16&#45;&gt;Node14 -->
<g id="edge18" class="edge">
<title>Node16&#45;&gt;Node14</title>
<path fill="none" stroke="#63b8ff" d="M1316.25,-321.03C1299.49,-311.29 1276.29,-299.63 1254,-294.5 1198.56,-281.75 1179.98,-276.53 1126,-294.5 1096.99,-304.16 1069.79,-327.3 1053.16,-343.68"/>
<polygon fill="#63b8ff" stroke="#63b8ff" points="1051.03,-340.84 1046.53,-350.43 1056.03,-345.74 1051.03,-340.84"/>
</g>
<!-- Node17&#45;&gt;Node14 -->
<g id="edge20" class="edge">
<title>Node17&#45;&gt;Node14</title>
<path fill="none" stroke="#63b8ff" d="M1125.54,-368.16C1117.66,-368.27 1109.59,-368.28 1101.69,-368.19"/>
<polygon fill="#63b8ff" stroke="#63b8ff" points="1101.84,-364.69 1091.78,-368.01 1101.71,-371.69 1101.84,-364.69"/>
</g>
<!-- Node23 -->
<g id="node23" class="node">
<title>Node23</title>
<g id="a_node23"><a xlink:href="../../d9/d8d/classdoris_1_1_status.html#aafde58df1b2a6a91d5b674373be3ffc5" target="_top" xlink:title=" ">
<polygon fill="white" stroke="#666666" points="600.5,-275 493.5,-275 493.5,-256 600.5,-256 600.5,-275"/>
<text text-anchor="middle" x="547" y="-263" font-family="Helvetica,sans-Serif" font-size="10.00">doris::Status::Status</text>
</a>
</g>
</g>
<!-- Node22&#45;&gt;Node23 -->
<g id="edge26" class="edge">
<title>Node22&#45;&gt;Node23</title>
<path fill="none" stroke="#63b8ff" d="M414.12,-265.5C434.62,-265.5 459.24,-265.5 481.63,-265.5"/>
<polygon fill="#63b8ff" stroke="#63b8ff" points="481.59,-269 491.59,-265.5 481.59,-262 481.59,-269"/>
</g>
<!-- Node28 -->
<g id="node28" class="node">
<title>Node28</title>
<g id="a_node28"><a xlink:href="../../d9/d8d/classdoris_1_1_status.html#a5318fa45349a77a34f2287cdffc3e6a4" target="_top" xlink:title=" ">
<polygon fill="white" stroke="#666666" points="602.5,-110 491.5,-110 491.5,-91 602.5,-91 602.5,-110"/>
<text text-anchor="middle" x="547" y="-98" font-family="Helvetica,sans-Serif" font-size="10.00">doris::Status::to_thrift</text>
</a>
</g>
</g>
<!-- Node27&#45;&gt;Node28 -->
<g id="edge31" class="edge">
<title>Node27&#45;&gt;Node28</title>
<path fill="none" stroke="#63b8ff" d="M414.12,-100.5C434.1,-100.5 457.99,-100.5 479.91,-100.5"/>
<polygon fill="#63b8ff" stroke="#63b8ff" points="479.65,-104 489.65,-100.5 479.65,-97 479.65,-104"/>
</g>
<!-- Node28&#45;&gt;Node28 -->
<g id="edge32" class="edge">
<title>Node28&#45;&gt;Node28</title>
<path fill="none" stroke="#63b8ff" d="M518.98,-110.37C506.19,-118.94 515.54,-128 547,-128 564.7,-128 575.4,-125.13 579.1,-121.1"/>
<polygon fill="#63b8ff" stroke="#63b8ff" points="582.38,-119.89 575.56,-111.78 575.84,-122.37 582.38,-119.89"/>
</g>
<!-- Node30 -->
<g id="node30" class="node">
<title>Node30</title>
<g id="a_node30"><a xlink:href="../../db/d5f/classdoris_1_1_backend_options.html#a553a90e8988b8eaff550bcbf52b3909d" target="_top" xlink:title=" ">
<polygon fill="white" stroke="#666666" points="605,-67.5 489,-67.5 489,-37.5 605,-37.5 605,-67.5"/>
<text text-anchor="start" x="497" y="-55.5" font-family="Helvetica,sans-Serif" font-size="10.00">doris::BackendOptions</text>
<text text-anchor="middle" x="547" y="-44.5" font-family="Helvetica,sans-Serif" font-size="10.00">::get_localhost</text>
</a>
</g>
</g>
<!-- Node29&#45;&gt;Node30 -->
<g id="edge34" class="edge">
<title>Node29&#45;&gt;Node30</title>
<path fill="none" stroke="#63b8ff" d="M403.97,-18C425.03,-23.11 452.57,-29.8 477.79,-35.93"/>
<polygon fill="#63b8ff" stroke="#63b8ff" points="476.79,-39.29 487.34,-38.25 478.45,-32.49 476.79,-39.29"/>
</g>
<!-- Node31 -->
<g id="node31" class="node">
<title>Node31</title>
<g id="a_node31"><a xlink:href="../../d9/dbd/classdoris_1_1_exec_env.html#afa29bb2321e06b8e7140ba91c76cb9fc" target="_top" xlink:title=" ">
<polygon fill="white" stroke="#666666" points="603.5,-19 490.5,-19 490.5,0 603.5,0 603.5,-19"/>
<text text-anchor="middle" x="547" y="-7" font-family="Helvetica,sans-Serif" font-size="10.00">doris::ExecEnv::token</text>
</a>
</g>
</g>
<!-- Node29&#45;&gt;Node31 -->
<g id="edge35" class="edge">
<title>Node29&#45;&gt;Node31</title>
<path fill="none" stroke="#63b8ff" d="M403.97,-9.5C425.29,-9.5 453.24,-9.5 478.71,-9.5"/>
<polygon fill="#63b8ff" stroke="#63b8ff" points="478.69,-13 488.69,-9.5 478.69,-6 478.69,-13"/>
</g>
<!-- Node32&#45;&gt;Node30 -->
<g id="edge37" class="edge">
<title>Node32&#45;&gt;Node30</title>
<path fill="none" stroke="#63b8ff" d="M418.3,-52.5C436.52,-52.5 457.51,-52.5 477.14,-52.5"/>
<polygon fill="#63b8ff" stroke="#63b8ff" points="476.99,-56 486.99,-52.5 476.99,-49 476.99,-56"/>
</g>
</g>
</svg>
        <g id="navigator" transform="translate(0 0)" fill="#404254">
                <rect fill="#f2f5e9" fill-opacity="0.5" stroke="#606060" stroke-width=".5" x="0" y="0" width="60" height="60"/>
                <use id="zoomplus" xlink:href="#zoomPlus" x="17" y="9" onmousedown="handleZoom(evt,'in')"/>
                <use id="zoomminus" xlink:href="#zoomMin" x="42" y="9" onmousedown="handleZoom(evt,'out')"/>
                <use id="reset" xlink:href="#resetDef" x="30" y="36" onmousedown="handleReset()"/>
                <g id="arrowUp" xlink:href="#dirArrow" transform="translate(30 24)" onmousedown="handlePan(0,-1)">
                  <use xlink:href="#rim" fill="#404040">
                        <set attributeName="fill" to="#808080" begin="arrowUp.mouseover" end="arrowUp.mouseout"/>
                  </use>
                  <path fill="none" stroke="white" stroke-width="1.5" d="M0,-3.0v7 M-2.5,-0.5L0,-3.0L2.5,-0.5"/>
                </g>
                <g id="arrowRight" xlink:href="#dirArrow" transform="rotate(90) translate(36 -43)" onmousedown="handlePan(1,0)">
                  <use xlink:href="#rim" fill="#404040">
                        <set attributeName="fill" to="#808080" begin="arrowRight.mouseover" end="arrowRight.mouseout"/>
                  </use>
                  <path fill="none" stroke="white" stroke-width="1.5" d="M0,-3.0v7 M-2.5,-0.5L0,-3.0L2.5,-0.5"/>
                </g>
                <g id="arrowDown" xlink:href="#dirArrow" transform="rotate(180) translate(-30 -48)" onmousedown="handlePan(0,1)">
                  <use xlink:href="#rim" fill="#404040">
                        <set attributeName="fill" to="#808080" begin="arrowDown.mouseover" end="arrowDown.mouseout"/>
                  </use>
                  <path fill="none" stroke="white" stroke-width="1.5" d="M0,-3.0v7 M-2.5,-0.5L0,-3.0L2.5,-0.5"/>
                </g>
                <g id="arrowLeft" xlink:href="#dirArrow" transform="rotate(270) translate(-36 17)" onmousedown="handlePan(-1,0)">
                  <use xlink:href="#rim" fill="#404040">
                        <set attributeName="fill" to="#808080" begin="arrowLeft.mouseover" end="arrowLeft.mouseout"/>
                  </use>
                  <path fill="none" stroke="white" stroke-width="1.5" d="M0,-3.0v7 M-2.5,-0.5L0,-3.0L2.5,-0.5"/>
                </g>
        </g>
        <svg viewBox="0 0 15 15" width="100%" height="30px" preserveAspectRatio="xMaxYMin meet">
         <g id="arrow_out" transform="scale(0.3 0.3)">
          <a xlink:href="classdoris_1_1pipeline_1_1_pipeline_fragment_context_a4e1ff7d46110f328533c9463615eec02_cgraph_org.svg" target="_base">
           <rect id="button" ry="5" rx="5" y="6" x="6" height="38" width="38"
                fill="#f2f5e9" fill-opacity="0.5" stroke="#606060" stroke-width="1.0"/>
           <path id="arrow"
             d="M 11.500037,31.436501 C 11.940474,20.09759 22.043105,11.32322 32.158766,21.979434 L 37.068811,17.246167 C 37.068811,17.246167 37.088388,32 37.088388,32 L 22.160133,31.978069 C 22.160133,31.978069 26.997745,27.140456 26.997745,27.140456 C 18.528582,18.264221 13.291696,25.230495 11.500037,31.436501 z"
             style="fill:#404040;"/>
          </a>
         </g>
        </svg>
</svg>
