<?xml version="1.0" encoding="UTF-8" standalone="no"?>
<!DOCTYPE svg PUBLIC "-//W3C//DTD SVG 1.1//EN"
 "http://www.w3.org/Graphics/SVG/1.1/DTD/svg11.dtd">
<!-- Generated by graphviz version 7.1.0 (20230121.1956)
 -->
<!-- Title: _init_arrow_batch_if_necessary Pages: 1 -->
<!--zoomable 631 -->
<svg id="main" version="1.1" xmlns="http://www.w3.org/2000/svg" xmlns:xlink="http://www.w3.org/1999/xlink" xml:space="preserve" onload="init(evt)">
<style type="text/css"><![CDATA[
.edge:hover path { stroke: red; }
.edge:hover polygon { stroke: red; fill: red; }
]]></style>
<script type="text/javascript"><![CDATA[
var edges = document.getElementsByTagName('g');
if (edges && edges.length) {
  for (var i=0;i<edges.length;i++) {
    if (edges[i].id.substr(0,4)=='edge') {
      edges[i].setAttribute('class','edge');
    }
  }
}
]]></script>
        <defs>
                <circle id="rim" cx="0" cy="0" r="7"/>
                <circle id="rim2" cx="0" cy="0" r="3.5"/>
                <g id="zoomPlus">
                        <use xlink:href="#rim" fill="#404040">
                                <set attributeName="fill" to="#808080" begin="zoomplus.mouseover" end="zoomplus.mouseout"/>
                        </use>
                        <path d="M-4,0h8M0,-4v8" fill="none" stroke="white" stroke-width="1.5" pointer-events="none"/>
                </g>
                <g id="zoomMin">
                        <use xlink:href="#rim" fill="#404040">
                                <set attributeName="fill" to="#808080" begin="zoomminus.mouseover" end="zoomminus.mouseout"/>
                        </use>
                        <path d="M-4,0h8" fill="none" stroke="white" stroke-width="1.5" pointer-events="none"/>
                </g>
                <g id="dirArrow">
                        <path fill="none" stroke="white" stroke-width="1.5" d="M0,-3.0v7 M-2.5,-0.5L0,-3.0L2.5,-0.5"/>
                </g>
               <g id="resetDef">
                       <use xlink:href="#rim2" fill="#404040">
                               <set attributeName="fill" to="#808080" begin="reset.mouseover" end="reset.mouseout"/>
                       </use>
               </g>
        </defs>

<script type="text/javascript">
var viewWidth = 843;
var viewHeight = 631;
var sectionId = 'dynsection-13';
</script>
<script xlink:href="../../svgpan.js"/>
<svg id="graph" class="graph">
<g id="viewport">
<title>_init_arrow_batch_if_necessary</title>
<!-- Node1 -->
<g id="node1" class="node">
<title>Node1</title>
<g id="a_node1"><a xlink:title=" ">
<polygon fill="#999999" stroke="#666666" points="104,-622.5 0,-622.5 0,-592.5 104,-592.5 104,-622.5"/>
<text text-anchor="start" x="8" y="-610.5" font-family="Helvetica,sans-Serif" font-size="10.00">_init_arrow_batch_if</text>
<text text-anchor="middle" x="52" y="-599.5" font-family="Helvetica,sans-Serif" font-size="10.00">_necessary</text>
</a>
</g>
</g>
<!-- Node2 -->
<g id="node2" class="node">
<title>Node2</title>
<g id="a_node2"><a xlink:href="../../da/daa/classdoris_1_1vectorized_1_1_v_arrow_scanner.html#a885be2abc6b452a92096ed62155a7376" target="_top" xlink:title=" ">
<polygon fill="white" stroke="#666666" points="239,-598 140,-598 140,-579 239,-579 239,-598"/>
<text text-anchor="middle" x="189.5" y="-586" font-family="Helvetica,sans-Serif" font-size="10.00">_next_arrow_batch</text>
</a>
</g>
</g>
<!-- Node1&#45;&gt;Node2 -->
<g id="edge1" class="edge">
<title>Node1&#45;&gt;Node2</title>
<path fill="none" stroke="#63b8ff" d="M104.23,-600.32C112.17,-599.2 120.44,-598.04 128.56,-596.9"/>
<polygon fill="#63b8ff" stroke="#63b8ff" points="128.97,-600.38 138.39,-595.53 128,-593.45 128.97,-600.38"/>
</g>
<!-- Node6 -->
<g id="node6" class="node">
<title>Node6</title>
<g id="a_node6"><a xlink:href="../../d9/d8d/classdoris_1_1_status.html#a6ec1a217f203269ab53d2290d602db24" target="_top" xlink:title=" ">
<polygon fill="white" stroke="#666666" points="688.5,-581 596.5,-581 596.5,-562 688.5,-562 688.5,-581"/>
<text text-anchor="middle" x="642.5" y="-569" font-family="Helvetica,sans-Serif" font-size="10.00">doris::Status::OK</text>
</a>
</g>
</g>
<!-- Node1&#45;&gt;Node6 -->
<g id="edge22" class="edge">
<title>Node1&#45;&gt;Node6</title>
<path fill="none" stroke="#63b8ff" d="M104.32,-612.27C196.04,-619.58 393.79,-629.84 557,-600.5 574.32,-597.39 592.89,-591.34 608.19,-585.56"/>
<polygon fill="#63b8ff" stroke="#63b8ff" points="609.25,-588.91 617.29,-582.01 606.7,-582.39 609.25,-588.91"/>
</g>
<!-- Node3 -->
<g id="node3" class="node">
<title>Node3</title>
<g id="a_node3"><a xlink:href="../../da/daa/classdoris_1_1vectorized_1_1_v_arrow_scanner.html#ad3ad3f2bd0b1c6091e2e93d5a4cd2d7a" target="_top" xlink:title=" ">
<polygon fill="white" stroke="#666666" points="386,-294 287,-294 287,-275 386,-275 386,-294"/>
<text text-anchor="middle" x="336.5" y="-282" font-family="Helvetica,sans-Serif" font-size="10.00">_open_next_reader</text>
</a>
</g>
</g>
<!-- Node2&#45;&gt;Node3 -->
<g id="edge2" class="edge">
<title>Node2&#45;&gt;Node3</title>
<path fill="none" stroke="#63b8ff" d="M195.16,-578.73C215.61,-535.85 297.64,-363.87 325.89,-304.66"/>
<polygon fill="#63b8ff" stroke="#63b8ff" points="328.99,-306.29 330.13,-295.75 322.67,-303.27 328.99,-306.29"/>
</g>
<!-- Node2&#45;&gt;Node6 -->
<g id="edge21" class="edge">
<title>Node2&#45;&gt;Node6</title>
<path fill="none" stroke="#63b8ff" d="M239.2,-589.85C250.92,-590.12 263.41,-590.36 275,-590.5 400.37,-591.98 432.12,-593.75 557,-582.5 566.11,-581.68 575.76,-580.61 585.14,-579.47"/>
<polygon fill="#63b8ff" stroke="#63b8ff" points="585.42,-582.96 594.9,-578.23 584.54,-576.01 585.42,-582.96"/>
</g>
<!-- Node19 -->
<g id="node19" class="node">
<title>Node19</title>
<g id="a_node19"><a xlink:href="../../d1/d82/classdoris_1_1_arrow_reader_wrap.html#a4f38b37b2ca6336fb7f9ddbba9ab0dbd" target="_top" xlink:title=" ">
<polygon fill="white" stroke="#666666" points="398,-581.5 275,-581.5 275,-551.5 398,-551.5 398,-581.5"/>
<text text-anchor="start" x="283" y="-569.5" font-family="Helvetica,sans-Serif" font-size="10.00">doris::ArrowReaderWrap</text>
<text text-anchor="middle" x="336.5" y="-558.5" font-family="Helvetica,sans-Serif" font-size="10.00">::next_batch</text>
</a>
</g>
</g>
<!-- Node2&#45;&gt;Node19 -->
<g id="edge19" class="edge">
<title>Node2&#45;&gt;Node19</title>
<path fill="none" stroke="#63b8ff" d="M239.19,-581.11C246.99,-579.93 255.21,-578.68 263.42,-577.44"/>
<polygon fill="#63b8ff" stroke="#63b8ff" points="263.72,-580.93 273.08,-575.97 262.67,-574.01 263.72,-580.93"/>
</g>
<!-- Node4 -->
<g id="node4" class="node">
<title>Node4</title>
<g id="a_node4"><a xlink:href="../../da/daa/classdoris_1_1vectorized_1_1_v_arrow_scanner.html#a376b667b316b12f06ac0a5acb36aca80" target="_top" xlink:title=" ">
<polygon fill="white" stroke="#666666" points="546,-543 445,-543 445,-524 546,-524 546,-543"/>
<text text-anchor="middle" x="495.5" y="-531" font-family="Helvetica,sans-Serif" font-size="10.00">_new_arrow_reader</text>
</a>
</g>
</g>
<!-- Node3&#45;&gt;Node4 -->
<g id="edge3" class="edge">
<title>Node3&#45;&gt;Node4</title>
<path fill="none" stroke="#63b8ff" d="M338.93,-294.1C344.52,-328.24 367.89,-445.18 434,-509.5 437.61,-513.01 441.79,-516.02 446.23,-518.61"/>
<polygon fill="#63b8ff" stroke="#63b8ff" points="444.41,-521.61 454.92,-522.93 447.53,-515.34 444.41,-521.61"/>
</g>
<!-- Node5 -->
<g id="node5" class="node">
<title>Node5</title>
<g id="a_node5"><a xlink:href="../../da/db1/classdoris_1_1_file_factory.html#a7e33000f2f9c640e6f8ef49c6d7a1ce9" target="_top" xlink:title=" ">
<polygon fill="white" stroke="#666666" points="545.5,-467.5 445.5,-467.5 445.5,-437.5 545.5,-437.5 545.5,-467.5"/>
<text text-anchor="start" x="453.5" y="-455.5" font-family="Helvetica,sans-Serif" font-size="10.00">doris::FileFactory</text>
<text text-anchor="middle" x="495.5" y="-444.5" font-family="Helvetica,sans-Serif" font-size="10.00">::create_file_reader</text>
</a>
</g>
</g>
<!-- Node3&#45;&gt;Node5 -->
<g id="edge4" class="edge">
<title>Node3&#45;&gt;Node5</title>
<path fill="none" stroke="#63b8ff" d="M341.58,-294.38C352.67,-320.05 385.76,-389.57 434,-428.5 435.14,-429.42 436.31,-430.3 437.52,-431.16"/>
<polygon fill="#63b8ff" stroke="#63b8ff" points="435.67,-434.13 446.03,-436.35 439.32,-428.15 435.67,-434.13"/>
</g>
<!-- Node3&#45;&gt;Node6 -->
<g id="edge13" class="edge">
<title>Node3&#45;&gt;Node6</title>
<path fill="none" stroke="#63b8ff" d="M339.53,-294.13C346.63,-325.33 373.25,-424.7 434,-476.5 477.64,-513.71 505.26,-490.75 557,-515.5 579.83,-526.42 603.67,-542.74 620.18,-554.95"/>
<polygon fill="#63b8ff" stroke="#63b8ff" points="617.7,-557.45 627.79,-560.68 621.91,-551.86 617.7,-557.45"/>
</g>
<!-- Node8 -->
<g id="node8" class="node">
<title>Node8</title>
<g id="a_node8"><a xlink:href="../../d7/dc1/classdoris_1_1_runtime_state.html#a30658623d7910cf0bc08751d2476b2d8" target="_top" xlink:title=" ">
<polygon fill="white" stroke="#666666" points="547.5,-419.5 443.5,-419.5 443.5,-389.5 547.5,-389.5 547.5,-419.5"/>
<text text-anchor="start" x="451.5" y="-407.5" font-family="Helvetica,sans-Serif" font-size="10.00">doris::RuntimeState</text>
<text text-anchor="middle" x="495.5" y="-396.5" font-family="Helvetica,sans-Serif" font-size="10.00">::desc_tbl</text>
</a>
</g>
</g>
<!-- Node3&#45;&gt;Node8 -->
<g id="edge7" class="edge">
<title>Node3&#45;&gt;Node8</title>
<path fill="none" stroke="#63b8ff" d="M344.99,-294.24C360.01,-313.2 395.66,-355.37 434,-380.5 435.81,-381.68 437.68,-382.83 439.6,-383.92"/>
<polygon fill="#63b8ff" stroke="#63b8ff" points="437.68,-386.87 448.17,-388.36 440.9,-380.66 437.68,-386.87"/>
</g>
<!-- Node9 -->
<g id="node9" class="node">
<title>Node9</title>
<g id="a_node9"><a xlink:href="../../d7/dc1/classdoris_1_1_runtime_state.html#a7e0d0163a03ace13113f67bc696d5194" target="_top" xlink:title=" ">
<polygon fill="white" stroke="#666666" points="547.5,-371.5 443.5,-371.5 443.5,-341.5 547.5,-341.5 547.5,-371.5"/>
<text text-anchor="start" x="451.5" y="-359.5" font-family="Helvetica,sans-Serif" font-size="10.00">doris::RuntimeState</text>
<text text-anchor="middle" x="495.5" y="-348.5" font-family="Helvetica,sans-Serif" font-size="10.00">::exec_env</text>
</a>
</g>
</g>
<!-- Node3&#45;&gt;Node9 -->
<g id="edge8" class="edge">
<title>Node3&#45;&gt;Node9</title>
<path fill="none" stroke="#63b8ff" d="M356.14,-294.35C375.41,-304.41 406.49,-320.23 434,-332.5 437.15,-333.9 440.41,-335.32 443.7,-336.71"/>
<polygon fill="#63b8ff" stroke="#63b8ff" points="442.3,-339.92 452.88,-340.51 444.98,-333.45 442.3,-339.92"/>
</g>
<!-- Node10 -->
<g id="node10" class="node">
<title>Node10</title>
<g id="a_node10"><a xlink:href="../../da/d43/classdoris_1_1_descriptor_tbl.html#afe6eb6a823dd3fc7d47f2fd8a43e4f33" target="_top" xlink:title=" ">
<polygon fill="white" stroke="#666666" points="550.5,-323.5 440.5,-323.5 440.5,-293.5 550.5,-293.5 550.5,-323.5"/>
<text text-anchor="start" x="448.5" y="-311.5" font-family="Helvetica,sans-Serif" font-size="10.00">doris::DescriptorTbl</text>
<text text-anchor="middle" x="495.5" y="-300.5" font-family="Helvetica,sans-Serif" font-size="10.00">::get_tuple_descriptor</text>
</a>
</g>
</g>
<!-- Node3&#45;&gt;Node10 -->
<g id="edge9" class="edge">
<title>Node3&#45;&gt;Node10</title>
<path fill="none" stroke="#63b8ff" d="M386.32,-291.96C399.81,-294.03 414.68,-296.3 428.96,-298.48"/>
<polygon fill="#63b8ff" stroke="#63b8ff" points="428.34,-301.93 438.75,-299.98 429.39,-295.01 428.34,-301.93"/>
</g>
<!-- Node11 -->
<g id="node11" class="node">
<title>Node11</title>
<g id="a_node11"><a xlink:href="../../d1/d82/classdoris_1_1_arrow_reader_wrap.html#a2eb961482f22f5724b722967f8a42ea8" target="_top" xlink:title=" ">
<polygon fill="white" stroke="#666666" points="557,-275.5 434,-275.5 434,-245.5 557,-245.5 557,-275.5"/>
<text text-anchor="start" x="442" y="-263.5" font-family="Helvetica,sans-Serif" font-size="10.00">doris::ArrowReaderWrap</text>
<text text-anchor="middle" x="495.5" y="-252.5" font-family="Helvetica,sans-Serif" font-size="10.00">::init_reader</text>
</a>
</g>
</g>
<!-- Node3&#45;&gt;Node11 -->
<g id="edge10" class="edge">
<title>Node3&#45;&gt;Node11</title>
<path fill="none" stroke="#63b8ff" d="M386.32,-277.04C397.76,-275.29 410.18,-273.39 422.4,-271.52"/>
<polygon fill="#63b8ff" stroke="#63b8ff" points="422.68,-275.02 432.03,-270.05 421.62,-268.1 422.68,-275.02"/>
</g>
<!-- Node12 -->
<g id="node12" class="node">
<title>Node12</title>
<g id="a_node12"><a xlink:href="../../d9/d8d/classdoris_1_1_status.html#ace9b93173e591beddd3fdc3de5a49d05" target="_top" xlink:title=" ">
<polygon fill="white" stroke="#666666" points="538.5,-227 452.5,-227 452.5,-208 538.5,-208 538.5,-227"/>
<text text-anchor="middle" x="495.5" y="-215" font-family="Helvetica,sans-Serif" font-size="10.00">doris::Status::is</text>
</a>
</g>
</g>
<!-- Node3&#45;&gt;Node12 -->
<g id="edge11" class="edge">
<title>Node3&#45;&gt;Node12</title>
<path fill="none" stroke="#63b8ff" d="M355.25,-274.61C374.32,-264.24 405.71,-247.9 434,-236.5 438.72,-234.6 443.71,-232.76 448.72,-231.03"/>
<polygon fill="#63b8ff" stroke="#63b8ff" points="449.79,-234.37 458.18,-227.9 447.59,-227.72 449.79,-234.37"/>
</g>
<!-- Node14 -->
<g id="node14" class="node">
<title>Node14</title>
<g id="a_node14"><a xlink:href="../../d9/d8d/classdoris_1_1_status.html#a03cb7eaa663dc83af68bc28a596d09e6" target="_top" xlink:title=" ">
<polygon fill="white" stroke="#666666" points="540,-190 451,-190 451,-171 540,-171 540,-190"/>
<text text-anchor="middle" x="495.5" y="-178" font-family="Helvetica,sans-Serif" font-size="10.00">doris::Status::ok</text>
</a>
</g>
</g>
<!-- Node3&#45;&gt;Node14 -->
<g id="edge14" class="edge">
<title>Node3&#45;&gt;Node14</title>
<path fill="none" stroke="#63b8ff" d="M346.07,-274.62C361.79,-257.06 397.05,-220.33 434,-199.5 437.17,-197.72 440.52,-196.08 443.96,-194.57"/>
<polygon fill="#63b8ff" stroke="#63b8ff" points="445.01,-197.92 453.04,-191.02 442.45,-191.41 445.01,-197.92"/>
</g>
<!-- Node15 -->
<g id="node15" class="node">
<title>Node15</title>
<g id="a_node15"><a xlink:href="../../d1/d82/classdoris_1_1_arrow_reader_wrap.html#af32e925ffe485051746680c2b0f85467" target="_top" xlink:title=" ">
<polygon fill="white" stroke="#666666" points="557,-152.5 434,-152.5 434,-122.5 557,-122.5 557,-152.5"/>
<text text-anchor="start" x="442" y="-140.5" font-family="Helvetica,sans-Serif" font-size="10.00">doris::ArrowReaderWrap</text>
<text text-anchor="middle" x="495.5" y="-129.5" font-family="Helvetica,sans-Serif" font-size="10.00">::statistics</text>
</a>
</g>
</g>
<!-- Node3&#45;&gt;Node15 -->
<g id="edge15" class="edge">
<title>Node3&#45;&gt;Node15</title>
<path fill="none" stroke="#63b8ff" d="M342.95,-274.56C355.9,-251.76 390.68,-195.21 434,-162.5 435.95,-161.03 438.01,-159.62 440.13,-158.29"/>
<polygon fill="#63b8ff" stroke="#63b8ff" points="441.44,-161.56 448.45,-153.62 438.02,-155.46 441.44,-161.56"/>
</g>
<!-- Node16 -->
<g id="node16" class="node">
<title>Node16</title>
<g id="a_node16"><a xlink:href="../../d7/dc1/classdoris_1_1_runtime_state.html#af8ccc0a7639a030bb1cc22e15059f37f" target="_top" xlink:title=" ">
<polygon fill="white" stroke="#666666" points="547.5,-104.5 443.5,-104.5 443.5,-74.5 547.5,-74.5 547.5,-104.5"/>
<text text-anchor="start" x="451.5" y="-92.5" font-family="Helvetica,sans-Serif" font-size="10.00">doris::RuntimeState</text>
<text text-anchor="middle" x="495.5" y="-81.5" font-family="Helvetica,sans-Serif" font-size="10.00">::timezone</text>
</a>
</g>
</g>
<!-- Node3&#45;&gt;Node16 -->
<g id="edge16" class="edge">
<title>Node3&#45;&gt;Node16</title>
<path fill="none" stroke="#63b8ff" d="M340.37,-274.89C349.39,-246.29 379.8,-160.78 434,-113.5 434.94,-112.68 435.9,-111.89 436.9,-111.13"/>
<polygon fill="#63b8ff" stroke="#63b8ff" points="438.72,-114.11 445.19,-105.72 434.9,-108.25 438.72,-114.11"/>
</g>
<!-- Node17 -->
<g id="node17" class="node">
<title>Node17</title>
<g id="a_node17"><a xlink:href="../../d9/d8d/classdoris_1_1_status.html#aac993ecccd3d88aafefb6b8e3caa1dee" target="_top" xlink:title=" ">
<polygon fill="white" stroke="#666666" points="553.5,-56 437.5,-56 437.5,-37 553.5,-37 553.5,-56"/>
<text text-anchor="middle" x="495.5" y="-44" font-family="Helvetica,sans-Serif" font-size="10.00">doris::Status::to_string</text>
</a>
</g>
</g>
<!-- Node3&#45;&gt;Node17 -->
<g id="edge17" class="edge">
<title>Node3&#45;&gt;Node17</title>
<path fill="none" stroke="#63b8ff" d="M338.93,-274.51C344.4,-240.11 367.13,-125.35 434,-65.5 435.28,-64.35 436.63,-63.27 438.04,-62.26"/>
<polygon fill="#63b8ff" stroke="#63b8ff" points="439.8,-65.29 446.68,-57.24 436.28,-59.24 439.8,-65.29"/>
</g>
<!-- Node18 -->
<g id="node18" class="node">
<title>Node18</title>
<g id="a_node18"><a xlink:href="../../da/daa/classdoris_1_1vectorized_1_1_v_arrow_scanner.html#ab5ecbf1da45da88fec431f56b8687809" target="_top" xlink:title=" ">
<polygon fill="white" stroke="#666666" points="534,-19 457,-19 457,0 534,0 534,-19"/>
<text text-anchor="middle" x="495.5" y="-7" font-family="Helvetica,sans-Serif" font-size="10.00">update_profile</text>
</a>
</g>
</g>
<!-- Node3&#45;&gt;Node18 -->
<g id="edge18" class="edge">
<title>Node3&#45;&gt;Node18</title>
<path fill="none" stroke="#63b8ff" d="M338.16,-274.67C341.24,-236.78 357.48,-98.84 434,-27.5 437.56,-24.18 441.71,-21.47 446.13,-19.26"/>
<polygon fill="#63b8ff" stroke="#63b8ff" points="447.44,-22.5 455.41,-15.52 444.82,-16.01 447.44,-22.5"/>
</g>
<!-- Node5&#45;&gt;Node6 -->
<g id="edge5" class="edge">
<title>Node5&#45;&gt;Node6</title>
<path fill="none" stroke="#63b8ff" d="M534.21,-467.91C542.06,-471.84 550.05,-476.41 557,-481.5 585.26,-502.19 611.87,-533.13 627.42,-552.81"/>
<polygon fill="#63b8ff" stroke="#63b8ff" points="624.5,-554.75 633.39,-560.52 630.03,-550.47 624.5,-554.75"/>
</g>
<!-- Node7 -->
<g id="node7" class="node">
<title>Node7</title>
<g id="a_node7"><a xlink:href="../../d9/d8d/classdoris_1_1_status.html#aafde58df1b2a6a91d5b674373be3ffc5" target="_top" xlink:title=" ">
<polygon fill="white" stroke="#666666" points="835,-581 728,-581 728,-562 835,-562 835,-581"/>
<text text-anchor="middle" x="781.5" y="-569" font-family="Helvetica,sans-Serif" font-size="10.00">doris::Status::Status</text>
</a>
</g>
</g>
<!-- Node6&#45;&gt;Node7 -->
<g id="edge6" class="edge">
<title>Node6&#45;&gt;Node7</title>
<path fill="none" stroke="#63b8ff" d="M688.74,-571.5C697.6,-571.5 707.06,-571.5 716.41,-571.5"/>
<polygon fill="#63b8ff" stroke="#63b8ff" points="716.19,-575 726.19,-571.5 716.19,-568 716.19,-575"/>
</g>
<!-- Node13 -->
<g id="node13" class="node">
<title>Node13</title>
<g id="a_node13"><a xlink:href="../../d9/d8d/classdoris_1_1_status.html#a4aebcfaf2368eb240cf5111cc6fc140b" target="_top" xlink:title=" ">
<polygon fill="white" stroke="#666666" points="692,-227 593,-227 593,-208 692,-208 692,-227"/>
<text text-anchor="middle" x="642.5" y="-215" font-family="Helvetica,sans-Serif" font-size="10.00">doris::Status::code</text>
</a>
</g>
</g>
<!-- Node12&#45;&gt;Node13 -->
<g id="edge12" class="edge">
<title>Node12&#45;&gt;Node13</title>
<path fill="none" stroke="#63b8ff" d="M538.83,-217.5C552.15,-217.5 567.13,-217.5 581.44,-217.5"/>
<polygon fill="#63b8ff" stroke="#63b8ff" points="581.22,-221 591.22,-217.5 581.22,-214 581.22,-221"/>
</g>
<!-- Node19&#45;&gt;Node6 -->
<g id="edge20" class="edge">
<title>Node19&#45;&gt;Node6</title>
<path fill="none" stroke="#63b8ff" d="M398.29,-567.5C452.69,-568.39 531.83,-569.7 584.91,-570.57"/>
<polygon fill="#63b8ff" stroke="#63b8ff" points="584.58,-574.06 594.64,-570.73 584.69,-567.07 584.58,-574.06"/>
</g>
</g>
</svg>
        <g id="navigator" transform="translate(0 0)" fill="#404254">
                <rect fill="#f2f5e9" fill-opacity="0.5" stroke="#606060" stroke-width=".5" x="0" y="0" width="60" height="60"/>
                <use id="zoomplus" xlink:href="#zoomPlus" x="17" y="9" onmousedown="handleZoom(evt,'in')"/>
                <use id="zoomminus" xlink:href="#zoomMin" x="42" y="9" onmousedown="handleZoom(evt,'out')"/>
                <use id="reset" xlink:href="#resetDef" x="30" y="36" onmousedown="handleReset()"/>
                <g id="arrowUp" xlink:href="#dirArrow" transform="translate(30 24)" onmousedown="handlePan(0,-1)">
                  <use xlink:href="#rim" fill="#404040">
                        <set attributeName="fill" to="#808080" begin="arrowUp.mouseover" end="arrowUp.mouseout"/>
                  </use>
                  <path fill="none" stroke="white" stroke-width="1.5" d="M0,-3.0v7 M-2.5,-0.5L0,-3.0L2.5,-0.5"/>
                </g>
                <g id="arrowRight" xlink:href="#dirArrow" transform="rotate(90) translate(36 -43)" onmousedown="handlePan(1,0)">
                  <use xlink:href="#rim" fill="#404040">
                        <set attributeName="fill" to="#808080" begin="arrowRight.mouseover" end="arrowRight.mouseout"/>
                  </use>
                  <path fill="none" stroke="white" stroke-width="1.5" d="M0,-3.0v7 M-2.5,-0.5L0,-3.0L2.5,-0.5"/>
                </g>
                <g id="arrowDown" xlink:href="#dirArrow" transform="rotate(180) translate(-30 -48)" onmousedown="handlePan(0,1)">
                  <use xlink:href="#rim" fill="#404040">
                        <set attributeName="fill" to="#808080" begin="arrowDown.mouseover" end="arrowDown.mouseout"/>
                  </use>
                  <path fill="none" stroke="white" stroke-width="1.5" d="M0,-3.0v7 M-2.5,-0.5L0,-3.0L2.5,-0.5"/>
                </g>
                <g id="arrowLeft" xlink:href="#dirArrow" transform="rotate(270) translate(-36 17)" onmousedown="handlePan(-1,0)">
                  <use xlink:href="#rim" fill="#404040">
                        <set attributeName="fill" to="#808080" begin="arrowLeft.mouseover" end="arrowLeft.mouseout"/>
                  </use>
                  <path fill="none" stroke="white" stroke-width="1.5" d="M0,-3.0v7 M-2.5,-0.5L0,-3.0L2.5,-0.5"/>
                </g>
        </g>
        <svg viewBox="0 0 15 15" width="100%" height="30px" preserveAspectRatio="xMaxYMin meet">
         <g id="arrow_out" transform="scale(0.3 0.3)">
          <a xlink:href="classdoris_1_1vectorized_1_1_v_arrow_scanner_a1da9bff0f4504f63710f291e7012bbf6_cgraph_org.svg" target="_base">
           <rect id="button" ry="5" rx="5" y="6" x="6" height="38" width="38"
                fill="#f2f5e9" fill-opacity="0.5" stroke="#606060" stroke-width="1.0"/>
           <path id="arrow"
             d="M 11.500037,31.436501 C 11.940474,20.09759 22.043105,11.32322 32.158766,21.979434 L 37.068811,17.246167 C 37.068811,17.246167 37.088388,32 37.088388,32 L 22.160133,31.978069 C 22.160133,31.978069 26.997745,27.140456 26.997745,27.140456 C 18.528582,18.264221 13.291696,25.230495 11.500037,31.436501 z"
             style="fill:#404040;"/>
          </a>
         </g>
        </svg>
</svg>
