<?xml version="1.0" encoding="UTF-8" standalone="no"?>
<!DOCTYPE svg PUBLIC "-//W3C//DTD SVG 1.1//EN"
 "http://www.w3.org/Graphics/SVG/1.1/DTD/svg11.dtd">
<!-- Generated by graphviz version 7.1.0 (20230121.1956)
 -->
<!-- Title: /Users/dabowang/doris/be/src/gutil/strings/charset.cc Pages: 1 -->
<svg width="186pt" height="214pt"
 viewBox="0.00 0.00 185.50 214.00" xmlns="http://www.w3.org/2000/svg" xmlns:xlink="http://www.w3.org/1999/xlink">
<g id="graph0" class="graph" transform="scale(1 1) rotate(0) translate(4 210)">
<title>/Users/dabowang/doris/be/src/gutil/strings/charset.cc</title>
<!-- Node1 -->
<g id="node1" class="node">
<title>Node1</title>
<g id="a_node1"><a xlink:title=" ">
<polygon fill="#999999" stroke="#666666" points="162.5,-206 45.5,-206 45.5,-165 162.5,-165 162.5,-206"/>
<text text-anchor="start" x="53.5" y="-194" font-family="Helvetica,sans-Serif" font-size="10.00">/Users/dabowang/doris</text>
<text text-anchor="start" x="53.5" y="-183" font-family="Helvetica,sans-Serif" font-size="10.00">/be/src/gutil/strings</text>
<text text-anchor="middle" x="104" y="-172" font-family="Helvetica,sans-Serif" font-size="10.00">/charset.cc</text>
</a>
</g>
</g>
<!-- Node2 -->
<g id="node2" class="node">
<title>Node2</title>
<g id="a_node2"><a xlink:href="../../d5/dae/charset_8h.html" target="_top" xlink:title=" ">
<polygon fill="white" stroke="#666666" points="110,-129 0,-129 0,-110 110,-110 110,-129"/>
<text text-anchor="middle" x="55" y="-117" font-family="Helvetica,sans-Serif" font-size="10.00">gutil/strings/charset.h</text>
</a>
</g>
</g>
<!-- Node1&#45;&gt;Node2 -->
<g id="edge1" class="edge">
<title>Node1&#45;&gt;Node2</title>
<path fill="none" stroke="#63b8ff" d="M88.76,-164.6C82.29,-156.15 74.81,-146.38 68.54,-138.18"/>
<polygon fill="#63b8ff" stroke="#63b8ff" points="71.41,-136.18 62.55,-130.36 65.85,-140.43 71.41,-136.18"/>
</g>
<!-- Node5 -->
<g id="node5" class="node">
<title>Node5</title>
<g id="a_node5"><a xlink:title=" ">
<polygon fill="#e0e0e0" stroke="#999999" points="177.5,-129 128.5,-129 128.5,-110 177.5,-110 177.5,-129"/>
<text text-anchor="middle" x="153" y="-117" font-family="Helvetica,sans-Serif" font-size="10.00">string.h</text>
</a>
</g>
</g>
<!-- Node1&#45;&gt;Node5 -->
<g id="edge4" class="edge">
<title>Node1&#45;&gt;Node5</title>
<path fill="none" stroke="#63b8ff" d="M119.24,-164.6C125.71,-156.15 133.19,-146.38 139.46,-138.18"/>
<polygon fill="#63b8ff" stroke="#63b8ff" points="142.15,-140.43 145.45,-130.36 136.59,-136.18 142.15,-140.43"/>
</g>
<!-- Node3 -->
<g id="node3" class="node">
<title>Node3</title>
<g id="a_node3"><a xlink:href="../../df/dbc/integral__types_8h.html" target="_top" xlink:title=" ">
<polygon fill="white" stroke="#666666" points="108.5,-74 1.5,-74 1.5,-55 108.5,-55 108.5,-74"/>
<text text-anchor="middle" x="55" y="-62" font-family="Helvetica,sans-Serif" font-size="10.00">gutil/integral_types.h</text>
</a>
</g>
</g>
<!-- Node2&#45;&gt;Node3 -->
<g id="edge2" class="edge">
<title>Node2&#45;&gt;Node3</title>
<path fill="none" stroke="#63b8ff" d="M55,-109.75C55,-103.27 55,-94.16 55,-85.9"/>
<polygon fill="#63b8ff" stroke="#63b8ff" points="58.5,-85.96 55,-75.96 51.5,-85.96 58.5,-85.96"/>
</g>
<!-- Node4 -->
<g id="node4" class="node">
<title>Node4</title>
<g id="a_node4"><a xlink:title=" ">
<polygon fill="#e0e0e0" stroke="#999999" points="84.5,-19 25.5,-19 25.5,0 84.5,0 84.5,-19"/>
<text text-anchor="middle" x="55" y="-7" font-family="Helvetica,sans-Serif" font-size="10.00">inttypes.h</text>
</a>
</g>
</g>
<!-- Node3&#45;&gt;Node4 -->
<g id="edge3" class="edge">
<title>Node3&#45;&gt;Node4</title>
<path fill="none" stroke="#63b8ff" d="M55,-54.75C55,-48.27 55,-39.16 55,-30.9"/>
<polygon fill="#63b8ff" stroke="#63b8ff" points="58.5,-30.96 55,-20.96 51.5,-30.96 58.5,-30.96"/>
</g>
</g>
</svg>
