<?xml version="1.0" encoding="UTF-8" standalone="no"?>
<!DOCTYPE svg PUBLIC "-//W3C//DTD SVG 1.1//EN"
 "http://www.w3.org/Graphics/SVG/1.1/DTD/svg11.dtd">
<!-- Generated by graphviz version 7.1.0 (20230121.1956)
 -->
<!-- Title: get_columns Pages: 1 -->
<svg width="413pt" height="121pt"
 viewBox="0.00 0.00 413.00 121.00" xmlns="http://www.w3.org/2000/svg" xmlns:xlink="http://www.w3.org/1999/xlink">
<g id="graph0" class="graph" transform="scale(1 1) rotate(0) translate(4 117)">
<title>get_columns</title>
<!-- Node1 -->
<g id="node1" class="node">
<title>Node1</title>
<g id="a_node1"><a xlink:title=" ">
<polygon fill="#999999" stroke="#666666" points="72,-57 0,-57 0,-38 72,-38 72,-57"/>
<text text-anchor="middle" x="36" y="-45" font-family="Helvetica,sans-Serif" font-size="10.00">get_columns</text>
</a>
</g>
</g>
<!-- Node2 -->
<g id="node2" class="node">
<title>Node2</title>
<g id="a_node2"><a xlink:href="../../db/de0/classdoris_1_1vectorized_1_1_orc_reader.html#a6afeae218b743c72c13c3928dab5c635" target="_top" xlink:title=" ">
<polygon fill="white" stroke="#666666" points="226,-95 108,-95 108,-76 226,-76 226,-95"/>
<text text-anchor="middle" x="167" y="-83" font-family="Helvetica,sans-Serif" font-size="10.00">_convert_to_doris_type</text>
</a>
</g>
</g>
<!-- Node1&#45;&gt;Node2 -->
<g id="edge1" class="edge">
<title>Node1&#45;&gt;Node2</title>
<path fill="none" stroke="#63b8ff" d="M70.89,-57.48C86.45,-62.07 105.09,-67.56 121.74,-72.46"/>
<polygon fill="#63b8ff" stroke="#63b8ff" points="120.3,-75.69 130.88,-75.15 122.28,-68.97 120.3,-75.69"/>
</g>
<!-- Node3 -->
<g id="node3" class="node">
<title>Node3</title>
<g id="a_node3"><a xlink:href="../../db/de0/classdoris_1_1vectorized_1_1_orc_reader.html#a2d3a172efa0e3369a408f5f82b51640d" target="_top" xlink:title=" ">
<polygon fill="white" stroke="#666666" points="405,-76 262,-76 262,-57 405,-57 405,-76"/>
<text text-anchor="middle" x="333.5" y="-64" font-family="Helvetica,sans-Serif" font-size="10.00">_get_field_name_lower_case</text>
</a>
</g>
</g>
<!-- Node1&#45;&gt;Node3 -->
<g id="edge4" class="edge">
<title>Node1&#45;&gt;Node3</title>
<path fill="none" stroke="#63b8ff" d="M72.35,-49.77C116.01,-52.58 191.67,-57.45 250.18,-61.21"/>
<polygon fill="#63b8ff" stroke="#63b8ff" points="249.92,-64.7 260.13,-61.85 250.37,-57.71 249.92,-64.7"/>
</g>
<!-- Node4 -->
<g id="node4" class="node">
<title>Node4</title>
<g id="a_node4"><a xlink:href="../../d9/d8d/classdoris_1_1_status.html#a6ec1a217f203269ab53d2290d602db24" target="_top" xlink:title=" ">
<polygon fill="white" stroke="#666666" points="213,-19 121,-19 121,0 213,0 213,-19"/>
<text text-anchor="middle" x="167" y="-7" font-family="Helvetica,sans-Serif" font-size="10.00">doris::Status::OK</text>
</a>
</g>
</g>
<!-- Node1&#45;&gt;Node4 -->
<g id="edge5" class="edge">
<title>Node1&#45;&gt;Node4</title>
<path fill="none" stroke="#63b8ff" d="M70.89,-37.52C86.45,-32.93 105.09,-27.44 121.74,-22.54"/>
<polygon fill="#63b8ff" stroke="#63b8ff" points="122.28,-26.03 130.88,-19.85 120.3,-19.31 122.28,-26.03"/>
</g>
<!-- Node2&#45;&gt;Node2 -->
<g id="edge2" class="edge">
<title>Node2&#45;&gt;Node2</title>
<path fill="none" stroke="#63b8ff" d="M146.49,-95.37C137.14,-103.94 143.97,-113 167,-113 179.59,-113 187.34,-110.29 190.25,-106.43"/>
<polygon fill="#63b8ff" stroke="#63b8ff" points="193.68,-105.7 187.87,-96.84 186.88,-107.39 193.68,-105.7"/>
</g>
<!-- Node2&#45;&gt;Node3 -->
<g id="edge3" class="edge">
<title>Node2&#45;&gt;Node3</title>
<path fill="none" stroke="#63b8ff" d="M226.46,-78.75C234.18,-77.86 242.21,-76.93 250.23,-76"/>
<polygon fill="#63b8ff" stroke="#63b8ff" points="250.51,-79.49 260.05,-74.87 249.71,-72.54 250.51,-79.49"/>
</g>
<!-- Node5 -->
<g id="node5" class="node">
<title>Node5</title>
<g id="a_node5"><a xlink:href="../../d9/d8d/classdoris_1_1_status.html#aafde58df1b2a6a91d5b674373be3ffc5" target="_top" xlink:title=" ">
<polygon fill="white" stroke="#666666" points="387,-19 280,-19 280,0 387,0 387,-19"/>
<text text-anchor="middle" x="333.5" y="-7" font-family="Helvetica,sans-Serif" font-size="10.00">doris::Status::Status</text>
</a>
</g>
</g>
<!-- Node4&#45;&gt;Node5 -->
<g id="edge6" class="edge">
<title>Node4&#45;&gt;Node5</title>
<path fill="none" stroke="#63b8ff" d="M213.39,-9.5C230.32,-9.5 249.87,-9.5 268.19,-9.5"/>
<polygon fill="#63b8ff" stroke="#63b8ff" points="268.18,-13 278.18,-9.5 268.18,-6 268.18,-13"/>
</g>
</g>
</svg>
