<?xml version="1.0" encoding="UTF-8" standalone="no"?>
<!DOCTYPE svg PUBLIC "-//W3C//DTD SVG 1.1//EN"
 "http://www.w3.org/Graphics/SVG/1.1/DTD/svg11.dtd">
<!-- Generated by graphviz version 7.1.0 (20230121.1956)
 -->
<!-- Title: /Users/dabowang/doris/be/src/vec/exec/scan/new_olap_scan_node.h Pages: 1 -->
<svg width="713pt" height="126pt"
 viewBox="0.00 0.00 712.50 126.00" xmlns="http://www.w3.org/2000/svg" xmlns:xlink="http://www.w3.org/1999/xlink">
<g id="graph0" class="graph" transform="scale(1 1) rotate(0) translate(4 122)">
<title>/Users/dabowang/doris/be/src/vec/exec/scan/new_olap_scan_node.h</title>
<!-- Node1 -->
<g id="node1" class="node">
<title>Node1</title>
<g id="a_node1"><a xlink:title=" ">
<polygon fill="#999999" stroke="#666666" points="417,-118 295,-118 295,-77 417,-77 417,-118"/>
<text text-anchor="start" x="303" y="-106" font-family="Helvetica,sans-Serif" font-size="10.00">/Users/dabowang/doris</text>
<text text-anchor="start" x="303" y="-95" font-family="Helvetica,sans-Serif" font-size="10.00">/be/src/vec/exec/scan</text>
<text text-anchor="middle" x="356" y="-84" font-family="Helvetica,sans-Serif" font-size="10.00">/new_olap_scan_node.h</text>
</a>
</g>
</g>
<!-- Node2 -->
<g id="node2" class="node">
<title>Node2</title>
<g id="a_node2"><a xlink:href="../../d2/d5d/exec__node_8cpp.html" target="_top" xlink:title=" ">
<polygon fill="white" stroke="#666666" points="140,-35.5 0,-35.5 0,-5.5 140,-5.5 140,-35.5"/>
<text text-anchor="start" x="8" y="-23.5" font-family="Helvetica,sans-Serif" font-size="10.00">/Users/dabowang/doris</text>
<text text-anchor="middle" x="70" y="-12.5" font-family="Helvetica,sans-Serif" font-size="10.00">/be/src/exec/exec_node.cpp</text>
</a>
</g>
</g>
<!-- Node1&#45;&gt;Node2 -->
<g id="edge1" class="edge">
<title>Node1&#45;&gt;Node2</title>
<path fill="none" stroke="#63b8ff" d="M283.73,-77.55C234.42,-64.62 170.11,-47.75 124.97,-35.91"/>
<polygon fill="#63b8ff" stroke="#63b8ff" points="282.62,-80.88 293.18,-80.03 284.4,-74.1 282.62,-80.88"/>
</g>
<!-- Node3 -->
<g id="node3" class="node">
<title>Node3</title>
<g id="a_node3"><a xlink:href="../../d4/d41/pipeline__fragment__context_8cpp.html" target="_top" xlink:title=" ">
<polygon fill="white" stroke="#666666" points="277.5,-41 158.5,-41 158.5,0 277.5,0 277.5,-41"/>
<text text-anchor="start" x="166.5" y="-29" font-family="Helvetica,sans-Serif" font-size="10.00">/Users/dabowang/doris</text>
<text text-anchor="start" x="166.5" y="-18" font-family="Helvetica,sans-Serif" font-size="10.00">/be/src/pipeline/pipeline</text>
<text text-anchor="middle" x="218" y="-7" font-family="Helvetica,sans-Serif" font-size="10.00">_fragment_context.cpp</text>
</a>
</g>
</g>
<!-- Node1&#45;&gt;Node3 -->
<g id="edge2" class="edge">
<title>Node1&#45;&gt;Node3</title>
<path fill="none" stroke="#63b8ff" d="M309.72,-71.35C291.83,-61.63 271.66,-50.66 254.79,-41.49"/>
<polygon fill="#63b8ff" stroke="#63b8ff" points="307.59,-74.18 318.05,-75.88 310.94,-68.03 307.59,-74.18"/>
</g>
<!-- Node4 -->
<g id="node4" class="node">
<title>Node4</title>
<g id="a_node4"><a xlink:href="../../dd/dfd/plan__fragment__executor_8cpp.html" target="_top" xlink:title=" ">
<polygon fill="white" stroke="#666666" points="416.5,-41 295.5,-41 295.5,0 416.5,0 416.5,-41"/>
<text text-anchor="start" x="303.5" y="-29" font-family="Helvetica,sans-Serif" font-size="10.00">/Users/dabowang/doris</text>
<text text-anchor="start" x="303.5" y="-18" font-family="Helvetica,sans-Serif" font-size="10.00">/be/src/runtime/plan</text>
<text text-anchor="middle" x="356" y="-7" font-family="Helvetica,sans-Serif" font-size="10.00">_fragment_executor.cpp</text>
</a>
</g>
</g>
<!-- Node1&#45;&gt;Node4 -->
<g id="edge3" class="edge">
<title>Node1&#45;&gt;Node4</title>
<path fill="none" stroke="#63b8ff" d="M356,-65.36C356,-57.24 356,-48.7 356,-41.33"/>
<polygon fill="#63b8ff" stroke="#63b8ff" points="352.5,-65.28 356,-75.28 359.5,-65.28 352.5,-65.28"/>
</g>
<!-- Node5 -->
<g id="node5" class="node">
<title>Node5</title>
<g id="a_node5"><a xlink:href="../../d7/dfb/new__olap__scan__node_8cpp.html" target="_top" xlink:title=" ">
<polygon fill="white" stroke="#666666" points="567,-41 435,-41 435,0 567,0 567,-41"/>
<text text-anchor="start" x="443" y="-29" font-family="Helvetica,sans-Serif" font-size="10.00">/Users/dabowang/doris</text>
<text text-anchor="start" x="443" y="-18" font-family="Helvetica,sans-Serif" font-size="10.00">/be/src/vec/exec/scan</text>
<text text-anchor="middle" x="501" y="-7" font-family="Helvetica,sans-Serif" font-size="10.00">/new_olap_scan_node.cpp</text>
</a>
</g>
</g>
<!-- Node1&#45;&gt;Node5 -->
<g id="edge4" class="edge">
<title>Node1&#45;&gt;Node5</title>
<path fill="none" stroke="#63b8ff" d="M404.63,-71.35C423.42,-61.63 444.62,-50.66 462.34,-41.49"/>
<polygon fill="#63b8ff" stroke="#63b8ff" points="403.1,-68.2 395.82,-75.9 406.31,-74.42 403.1,-68.2"/>
</g>
<!-- Node6 -->
<g id="node6" class="node">
<title>Node6</title>
<g id="a_node6"><a xlink:href="../../dd/dc0/new__olap__scanner_8cpp.html" target="_top" xlink:title=" ">
<polygon fill="white" stroke="#666666" points="704.5,-41 585.5,-41 585.5,0 704.5,0 704.5,-41"/>
<text text-anchor="start" x="593.5" y="-29" font-family="Helvetica,sans-Serif" font-size="10.00">/Users/dabowang/doris</text>
<text text-anchor="start" x="593.5" y="-18" font-family="Helvetica,sans-Serif" font-size="10.00">/be/src/vec/exec/scan</text>
<text text-anchor="middle" x="645" y="-7" font-family="Helvetica,sans-Serif" font-size="10.00">/new_olap_scanner.cpp</text>
</a>
</g>
</g>
<!-- Node1&#45;&gt;Node6 -->
<g id="edge5" class="edge">
<title>Node1&#45;&gt;Node6</title>
<path fill="none" stroke="#63b8ff" d="M428.22,-78.83C471.22,-68.17 526.82,-54.15 576,-41 579.01,-40.2 582.08,-39.36 585.19,-38.51"/>
<polygon fill="#63b8ff" stroke="#63b8ff" points="427.62,-75.37 418.76,-81.17 429.31,-82.16 427.62,-75.37"/>
</g>
</g>
</svg>
