<?xml version="1.0" encoding="UTF-8" standalone="no"?>
<!DOCTYPE svg PUBLIC "-//W3C//DTD SVG 1.1//EN"
 "http://www.w3.org/Graphics/SVG/1.1/DTD/svg11.dtd">
<!-- Generated by graphviz version 7.1.0 (20230121.1956)
 -->
<!-- Title: to_string Pages: 1 -->
<svg width="304pt" height="38pt"
 viewBox="0.00 0.00 304.00 38.00" xmlns="http://www.w3.org/2000/svg" xmlns:xlink="http://www.w3.org/1999/xlink">
<g id="graph0" class="graph" transform="scale(1 1) rotate(0) translate(4 34)">
<title>to_string</title>
<!-- Node1 -->
<g id="node1" class="node">
<title>Node1</title>
<g id="a_node1"><a xlink:title=" ">
<polygon fill="#999999" stroke="#666666" points="54,-24.5 0,-24.5 0,-5.5 54,-5.5 54,-24.5"/>
<text text-anchor="middle" x="27" y="-12.5" font-family="Helvetica,sans-Serif" font-size="10.00">to_string</text>
</a>
</g>
</g>
<!-- Node2 -->
<g id="node2" class="node">
<title>Node2</title>
<g id="a_node2"><a xlink:href="../../db/dd0/structdoris_1_1_unique_id.html#aac993ecccd3d88aafefb6b8e3caa1dee" target="_top" xlink:title=" ">
<polygon fill="white" stroke="#666666" points="187,-30 90,-30 90,0 187,0 187,-30"/>
<text text-anchor="start" x="98" y="-18" font-family="Helvetica,sans-Serif" font-size="10.00">doris::UniqueId::to</text>
<text text-anchor="middle" x="138.5" y="-7" font-family="Helvetica,sans-Serif" font-size="10.00">_string</text>
</a>
</g>
</g>
<!-- Node1&#45;&gt;Node2 -->
<g id="edge1" class="edge">
<title>Node1&#45;&gt;Node2</title>
<path fill="none" stroke="#63b8ff" d="M54.23,-15C61.54,-15 69.78,-15 78.18,-15"/>
<polygon fill="#63b8ff" stroke="#63b8ff" points="78.12,-18.5 88.12,-15 78.12,-11.5 78.12,-18.5"/>
</g>
<!-- Node3 -->
<g id="node3" class="node">
<title>Node3</title>
<g id="a_node3"><a xlink:href="../../d6/d94/namespacedoris.html#af963c479be7b2734faf43ffaf53c379b" target="_top" xlink:title=" ">
<polygon fill="white" stroke="#666666" points="296,-24.5 223,-24.5 223,-5.5 296,-5.5 296,-24.5"/>
<text text-anchor="middle" x="259.5" y="-12.5" font-family="Helvetica,sans-Serif" font-size="10.00">doris::to_hex</text>
</a>
</g>
</g>
<!-- Node2&#45;&gt;Node3 -->
<g id="edge2" class="edge">
<title>Node2&#45;&gt;Node3</title>
<path fill="none" stroke="#63b8ff" d="M187.22,-15C195.12,-15 203.32,-15 211.22,-15"/>
<polygon fill="#63b8ff" stroke="#63b8ff" points="210.99,-18.5 220.99,-15 210.99,-11.5 210.99,-18.5"/>
</g>
</g>
</svg>
