<?xml version="1.0" encoding="UTF-8" standalone="no"?>
<!DOCTYPE svg PUBLIC "-//W3C//DTD SVG 1.1//EN"
 "http://www.w3.org/Graphics/SVG/1.1/DTD/svg11.dtd">
<!-- Generated by graphviz version 7.1.0 (20230121.1956)
 -->
<!-- Title: /Users/dabowang/be_all/service/backend_service.h Pages: 1 -->
<svg width="268pt" height="126pt"
 viewBox="0.00 0.00 268.00 126.00" xmlns="http://www.w3.org/2000/svg" xmlns:xlink="http://www.w3.org/1999/xlink">
<g id="graph0" class="graph" transform="scale(1 1) rotate(0) translate(4 122)">
<title>/Users/dabowang/be_all/service/backend_service.h</title>
<!-- Node1 -->
<g id="node1" class="node">
<title>Node1</title>
<g id="a_node1"><a xlink:title=" ">
<polygon fill="#999999" stroke="#666666" points="176,-118 69,-118 69,-77 176,-77 176,-118"/>
<text text-anchor="start" x="77" y="-106" font-family="Helvetica,sans-Serif" font-size="10.00">/Users/dabowang/be</text>
<text text-anchor="start" x="77" y="-95" font-family="Helvetica,sans-Serif" font-size="10.00">_all/service/backend</text>
<text text-anchor="middle" x="122.5" y="-84" font-family="Helvetica,sans-Serif" font-size="10.00">_service.h</text>
</a>
</g>
</g>
<!-- Node2 -->
<g id="node2" class="node">
<title>Node2</title>
<g id="a_node2"><a xlink:href="../../d4/d42/backend__service_8cpp.html" target="_top" xlink:title=" ">
<polygon fill="white" stroke="#666666" points="107,-41 0,-41 0,0 107,0 107,-41"/>
<text text-anchor="start" x="8" y="-29" font-family="Helvetica,sans-Serif" font-size="10.00">/Users/dabowang/be</text>
<text text-anchor="start" x="8" y="-18" font-family="Helvetica,sans-Serif" font-size="10.00">_all/service/backend</text>
<text text-anchor="middle" x="53.5" y="-7" font-family="Helvetica,sans-Serif" font-size="10.00">_service.cpp</text>
</a>
</g>
</g>
<!-- Node1&#45;&gt;Node2 -->
<g id="edge1" class="edge">
<title>Node1&#45;&gt;Node2</title>
<path fill="none" stroke="#63b8ff" d="M96.7,-68.46C88.4,-59.44 79.39,-49.64 71.75,-41.33"/>
<polygon fill="#63b8ff" stroke="#63b8ff" points="94,-70.69 103.35,-75.68 99.15,-65.95 94,-70.69"/>
</g>
<!-- Node3 -->
<g id="node3" class="node">
<title>Node3</title>
<g id="a_node3"><a xlink:href="../../d7/dcc/doris__main_8cpp.html" target="_top" xlink:title=" ">
<polygon fill="white" stroke="#666666" points="260,-35.5 125,-35.5 125,-5.5 260,-5.5 260,-35.5"/>
<text text-anchor="start" x="133" y="-23.5" font-family="Helvetica,sans-Serif" font-size="10.00">/Users/dabowang/be</text>
<text text-anchor="middle" x="192.5" y="-12.5" font-family="Helvetica,sans-Serif" font-size="10.00">_all/service/doris_main.cpp</text>
</a>
</g>
</g>
<!-- Node1&#45;&gt;Node3 -->
<g id="edge2" class="edge">
<title>Node1&#45;&gt;Node3</title>
<path fill="none" stroke="#63b8ff" d="M148.55,-68.59C158.94,-57.46 170.46,-45.12 179.1,-35.86"/>
<polygon fill="#63b8ff" stroke="#63b8ff" points="146.19,-65.99 141.92,-75.69 151.31,-70.77 146.19,-65.99"/>
</g>
</g>
</svg>
