<?xml version="1.0" encoding="UTF-8" standalone="no"?>
<!DOCTYPE svg PUBLIC "-//W3C//DTD SVG 1.1//EN"
 "http://www.w3.org/Graphics/SVG/1.1/DTD/svg11.dtd">
<!-- Generated by graphviz version 7.1.0 (20230121.1956)
 -->
<!-- Title: get_used_cache_size Pages: 1 -->
<svg width="417pt" height="49pt"
 viewBox="0.00 0.00 417.00 49.00" xmlns="http://www.w3.org/2000/svg" xmlns:xlink="http://www.w3.org/1999/xlink">
<g id="graph0" class="graph" transform="scale(1 1) rotate(0) translate(4 45)">
<title>get_used_cache_size</title>
<!-- Node1 -->
<g id="node1" class="node">
<title>Node1</title>
<g id="a_node1"><a xlink:title=" ">
<polygon fill="#999999" stroke="#666666" points="111,-30 0,-30 0,-11 111,-11 111,-30"/>
<text text-anchor="middle" x="55.5" y="-18" font-family="Helvetica,sans-Serif" font-size="10.00">get_used_cache_size</text>
</a>
</g>
</g>
<!-- Node2 -->
<g id="node2" class="node">
<title>Node2</title>
<g id="a_node2"><a xlink:href="../../d2/ddb/classdoris_1_1io_1_1_l_r_u_file_cache.html#af6e665ae416cd0bb806ccc36fd2b414b" target="_top" xlink:title=" ">
<polygon fill="white" stroke="#666666" points="258,-35.5 147,-35.5 147,-5.5 258,-5.5 258,-35.5"/>
<text text-anchor="start" x="155" y="-23.5" font-family="Helvetica,sans-Serif" font-size="10.00">get_used_cache_size</text>
<text text-anchor="middle" x="202.5" y="-12.5" font-family="Helvetica,sans-Serif" font-size="10.00">_unlocked</text>
</a>
</g>
</g>
<!-- Node1&#45;&gt;Node2 -->
<g id="edge1" class="edge">
<title>Node1&#45;&gt;Node2</title>
<path fill="none" stroke="#63b8ff" d="M111.32,-20.5C119.17,-20.5 127.31,-20.5 135.35,-20.5"/>
<polygon fill="#63b8ff" stroke="#63b8ff" points="135.09,-24 145.09,-20.5 135.09,-17 135.09,-24"/>
</g>
<!-- Node3 -->
<g id="node3" class="node">
<title>Node3</title>
<g id="a_node3"><a xlink:href="../../d5/d81/classdoris_1_1io_1_1_i_file_cache_1_1_l_r_u_queue.html#a517d580ef645b61be3087baba3fafb04" target="_top" xlink:title=" ">
<polygon fill="white" stroke="#666666" points="409,-41 294,-41 294,0 409,0 409,-41"/>
<text text-anchor="start" x="302" y="-29" font-family="Helvetica,sans-Serif" font-size="10.00">doris::io::IFileCache</text>
<text text-anchor="start" x="302" y="-18" font-family="Helvetica,sans-Serif" font-size="10.00">::LRUQueue::get_total</text>
<text text-anchor="middle" x="351.5" y="-7" font-family="Helvetica,sans-Serif" font-size="10.00">_cache_size</text>
</a>
</g>
</g>
<!-- Node2&#45;&gt;Node3 -->
<g id="edge2" class="edge">
<title>Node2&#45;&gt;Node3</title>
<path fill="none" stroke="#63b8ff" d="M258.24,-20.5C266.12,-20.5 274.3,-20.5 282.4,-20.5"/>
<polygon fill="#63b8ff" stroke="#63b8ff" points="282.24,-24 292.24,-20.5 282.24,-17 282.24,-24"/>
</g>
</g>
</svg>
