<?xml version="1.0" encoding="UTF-8" standalone="no"?>
<!DOCTYPE svg PUBLIC "-//W3C//DTD SVG 1.1//EN"
 "http://www.w3.org/Graphics/SVG/1.1/DTD/svg11.dtd">
<!-- Generated by graphviz version 7.1.0 (20230121.1956)
 -->
<!-- Title: send_current_block Pages: 1 -->
<svg width="298pt" height="64pt"
 viewBox="0.00 0.00 298.00 64.00" xmlns="http://www.w3.org/2000/svg" xmlns:xlink="http://www.w3.org/1999/xlink">
<g id="graph0" class="graph" transform="scale(1 1) rotate(0) translate(4 60)">
<title>send_current_block</title>
<!-- Node1 -->
<g id="node1" class="node">
<title>Node1</title>
<g id="a_node1"><a xlink:title=" ">
<polygon fill="#999999" stroke="#666666" points="290,-37 189,-37 189,-18 290,-18 290,-37"/>
<text text-anchor="middle" x="239.5" y="-25" font-family="Helvetica,sans-Serif" font-size="10.00">send_current_block</text>
</a>
</g>
</g>
<!-- Node2 -->
<g id="node2" class="node">
<title>Node2</title>
<g id="a_node2"><a xlink:href="../../d9/d08/classdoris_1_1vectorized_1_1_channel.html#a48c290ba2be0c5b3eb2c771cb5b92f0f" target="_top" xlink:title=" ">
<polygon fill="white" stroke="#666666" points="144,-56 85,-56 85,-37 144,-37 144,-56"/>
<text text-anchor="middle" x="114.5" y="-44" font-family="Helvetica,sans-Serif" font-size="10.00">add_rows</text>
</a>
</g>
</g>
<!-- Node1&#45;&gt;Node2 -->
<g id="edge1" class="edge">
<title>Node1&#45;&gt;Node2</title>
<path fill="none" stroke="#63b8ff" d="M177.76,-36.88C166.15,-38.68 154.5,-40.48 144.47,-42.02"/>
<polygon fill="#63b8ff" stroke="#63b8ff" points="177.98,-40.39 187.33,-35.4 176.91,-33.47 177.98,-40.39"/>
</g>
<!-- Node3 -->
<g id="node3" class="node">
<title>Node3</title>
<g id="a_node3"><a xlink:href="../../d9/d08/classdoris_1_1vectorized_1_1_channel.html#a13d55729866c5017614abb0de589237d" target="_top" xlink:title=" ">
<polygon fill="white" stroke="#666666" points="153,-19 76,-19 76,0 153,0 153,-19"/>
<text text-anchor="middle" x="114.5" y="-7" font-family="Helvetica,sans-Serif" font-size="10.00">close_internal</text>
</a>
</g>
</g>
<!-- Node1&#45;&gt;Node3 -->
<g id="edge2" class="edge">
<title>Node1&#45;&gt;Node3</title>
<path fill="none" stroke="#63b8ff" d="M177.58,-18.58C169.28,-17.37 160.97,-16.15 153.25,-15.02"/>
<polygon fill="#63b8ff" stroke="#63b8ff" points="176.93,-22.03 187.33,-20.01 177.94,-15.1 176.93,-22.03"/>
</g>
<!-- Node4 -->
<g id="node4" class="node">
<title>Node4</title>
<g id="a_node4"><a xlink:href="../../d9/d08/classdoris_1_1vectorized_1_1_channel.html#a4cd0274c89d380200b7a409715948fc3" target="_top" xlink:title=" ">
<polygon fill="white" stroke="#666666" points="40,-19 0,-19 0,0 40,0 40,-19"/>
<text text-anchor="middle" x="20" y="-7" font-family="Helvetica,sans-Serif" font-size="10.00">close</text>
</a>
</g>
</g>
<!-- Node3&#45;&gt;Node4 -->
<g id="edge3" class="edge">
<title>Node3&#45;&gt;Node4</title>
<path fill="none" stroke="#63b8ff" d="M64.17,-9.5C55.76,-9.5 47.49,-9.5 40.47,-9.5"/>
<polygon fill="#63b8ff" stroke="#63b8ff" points="64.1,-13 74.1,-9.5 64.1,-6 64.1,-13"/>
</g>
</g>
</svg>
