<?xml version="1.0" encoding="UTF-8" standalone="no"?>
<!DOCTYPE svg PUBLIC "-//W3C//DTD SVG 1.1//EN"
 "http://www.w3.org/Graphics/SVG/1.1/DTD/svg11.dtd">
<!-- Generated by graphviz version 7.1.0 (20230121.1956)
 -->
<!-- Title: /Users/dabowang/doris/be/src/gutil/hash/city.h Pages: 1 -->
<svg width="232pt" height="203pt"
 viewBox="0.00 0.00 231.50 203.00" xmlns="http://www.w3.org/2000/svg" xmlns:xlink="http://www.w3.org/1999/xlink">
<g id="graph0" class="graph" transform="scale(1 1) rotate(0) translate(4 199)">
<title>/Users/dabowang/doris/be/src/gutil/hash/city.h</title>
<!-- Node1 -->
<g id="node1" class="node">
<title>Node1</title>
<g id="a_node1"><a xlink:title=" ">
<polygon fill="#999999" stroke="#666666" points="164.5,-195 47.5,-195 47.5,-165 164.5,-165 164.5,-195"/>
<text text-anchor="start" x="55.5" y="-183" font-family="Helvetica,sans-Serif" font-size="10.00">/Users/dabowang/doris</text>
<text text-anchor="middle" x="106" y="-172" font-family="Helvetica,sans-Serif" font-size="10.00">/be/src/gutil/hash/city.h</text>
</a>
</g>
</g>
<!-- Node2 -->
<g id="node2" class="node">
<title>Node2</title>
<g id="a_node2"><a xlink:title=" ">
<polygon fill="#e0e0e0" stroke="#999999" points="52,-129 0,-129 0,-110 52,-110 52,-129"/>
<text text-anchor="middle" x="26" y="-117" font-family="Helvetica,sans-Serif" font-size="10.00">stddef.h</text>
</a>
</g>
</g>
<!-- Node1&#45;&gt;Node2 -->
<g id="edge1" class="edge">
<title>Node1&#45;&gt;Node2</title>
<path fill="none" stroke="#63b8ff" d="M86.22,-164.54C74.25,-155.78 58.99,-144.63 46.83,-135.73"/>
<polygon fill="#63b8ff" stroke="#63b8ff" points="49.22,-133.15 39.09,-130.07 45.09,-138.8 49.22,-133.15"/>
</g>
<!-- Node3 -->
<g id="node3" class="node">
<title>Node3</title>
<g id="a_node3"><a xlink:href="../../d0/ddd/int128_8h.html" target="_top" xlink:title=" ">
<polygon fill="white" stroke="#666666" points="142,-129 70,-129 70,-110 142,-110 142,-129"/>
<text text-anchor="middle" x="106" y="-117" font-family="Helvetica,sans-Serif" font-size="10.00">gutil/int128.h</text>
</a>
</g>
</g>
<!-- Node1&#45;&gt;Node3 -->
<g id="edge2" class="edge">
<title>Node1&#45;&gt;Node3</title>
<path fill="none" stroke="#63b8ff" d="M106,-164.54C106,-157.34 106,-148.53 106,-140.68"/>
<polygon fill="#63b8ff" stroke="#63b8ff" points="109.5,-140.69 106,-130.69 102.5,-140.69 109.5,-140.69"/>
</g>
<!-- Node5 -->
<g id="node5" class="node">
<title>Node5</title>
<g id="a_node5"><a xlink:href="../../df/dbc/integral__types_8h.html" target="_top" xlink:title=" ">
<polygon fill="white" stroke="#666666" points="223.5,-74 116.5,-74 116.5,-55 223.5,-55 223.5,-74"/>
<text text-anchor="middle" x="170" y="-62" font-family="Helvetica,sans-Serif" font-size="10.00">gutil/integral_types.h</text>
</a>
</g>
</g>
<!-- Node1&#45;&gt;Node5 -->
<g id="edge6" class="edge">
<title>Node1&#45;&gt;Node5</title>
<path fill="none" stroke="#63b8ff" d="M122.13,-164.63C131.72,-155.31 143.45,-142.44 151,-129 158.69,-115.31 163.58,-98.18 166.47,-85.17"/>
<polygon fill="#63b8ff" stroke="#63b8ff" points="169.84,-86.17 168.36,-75.68 162.97,-84.8 169.84,-86.17"/>
</g>
<!-- Node4 -->
<g id="node4" class="node">
<title>Node4</title>
<g id="a_node4"><a xlink:title=" ">
<polygon fill="#e0e0e0" stroke="#999999" points="98.5,-74 53.5,-74 53.5,-55 98.5,-55 98.5,-74"/>
<text text-anchor="middle" x="76" y="-62" font-family="Helvetica,sans-Serif" font-size="10.00">iosfwd</text>
</a>
</g>
</g>
<!-- Node3&#45;&gt;Node4 -->
<g id="edge3" class="edge">
<title>Node3&#45;&gt;Node4</title>
<path fill="none" stroke="#63b8ff" d="M101.05,-109.75C97.16,-102.88 91.61,-93.08 86.72,-84.45"/>
<polygon fill="#63b8ff" stroke="#63b8ff" points="89.78,-82.74 81.81,-75.76 83.69,-86.19 89.78,-82.74"/>
</g>
<!-- Node3&#45;&gt;Node5 -->
<g id="edge4" class="edge">
<title>Node3&#45;&gt;Node5</title>
<path fill="none" stroke="#63b8ff" d="M116.86,-109.51C126.11,-101.85 139.62,-90.66 150.71,-81.47"/>
<polygon fill="#63b8ff" stroke="#63b8ff" points="152.67,-84.4 158.14,-75.32 148.2,-79.01 152.67,-84.4"/>
</g>
<!-- Node6 -->
<g id="node6" class="node">
<title>Node6</title>
<g id="a_node6"><a xlink:title=" ">
<polygon fill="#e0e0e0" stroke="#999999" points="199.5,-19 140.5,-19 140.5,0 199.5,0 199.5,-19"/>
<text text-anchor="middle" x="170" y="-7" font-family="Helvetica,sans-Serif" font-size="10.00">inttypes.h</text>
</a>
</g>
</g>
<!-- Node5&#45;&gt;Node6 -->
<g id="edge5" class="edge">
<title>Node5&#45;&gt;Node6</title>
<path fill="none" stroke="#63b8ff" d="M170,-54.75C170,-48.27 170,-39.16 170,-30.9"/>
<polygon fill="#63b8ff" stroke="#63b8ff" points="173.5,-30.96 170,-20.96 166.5,-30.96 173.5,-30.96"/>
</g>
</g>
</svg>
