<?xml version="1.0" encoding="UTF-8" standalone="no"?>
<!DOCTYPE svg PUBLIC "-//W3C//DTD SVG 1.1//EN"
 "http://www.w3.org/Graphics/SVG/1.1/DTD/svg11.dtd">
<!-- Generated by graphviz version 7.1.0 (20230121.1956)
 -->
<!-- Title: alloc_resource Pages: 1 -->
<svg width="490pt" height="67pt"
 viewBox="0.00 0.00 490.00 67.45" xmlns="http://www.w3.org/2000/svg" xmlns:xlink="http://www.w3.org/1999/xlink">
<g id="graph0" class="graph" transform="scale(1 1) rotate(0) translate(4 63.45)">
<title>alloc_resource</title>
<!-- Node1 -->
<g id="node1" class="node">
<title>Node1</title>
<g id="a_node1"><a xlink:title=" ">
<polygon fill="#999999" stroke="#666666" points="80,-54.5 0,-54.5 0,-35.5 80,-35.5 80,-54.5"/>
<text text-anchor="middle" x="40" y="-42.5" font-family="Helvetica,sans-Serif" font-size="10.00">alloc_resource</text>
</a>
</g>
</g>
<!-- Node2 -->
<g id="node2" class="node">
<title>Node2</title>
<g id="a_node2"><a xlink:href="../../d9/d8d/classdoris_1_1_status.html#a6ec1a217f203269ab53d2290d602db24" target="_top" xlink:title=" ">
<polygon fill="white" stroke="#666666" points="339,-54.5 247,-54.5 247,-35.5 339,-35.5 339,-54.5"/>
<text text-anchor="middle" x="293" y="-42.5" font-family="Helvetica,sans-Serif" font-size="10.00">doris::Status::OK</text>
</a>
</g>
</g>
<!-- Node1&#45;&gt;Node2 -->
<g id="edge1" class="edge">
<title>Node1&#45;&gt;Node2</title>
<path fill="none" stroke="#63b8ff" d="M80.17,-52.47C91.67,-54.34 104.3,-56.07 116,-57 158.09,-60.35 168.89,-60.1 211,-57 218.9,-56.42 227.2,-55.52 235.35,-54.47"/>
<polygon fill="#63b8ff" stroke="#63b8ff" points="235.79,-57.95 245.22,-53.11 234.84,-51.01 235.79,-57.95"/>
</g>
<!-- Node4 -->
<g id="node4" class="node">
<title>Node4</title>
<g id="a_node4"><a xlink:href="../../d0/d2e/classdoris_1_1vectorized_1_1_v_expr.html#a23dd992dfdd884ef1afbc0573712ad5b" target="_top" xlink:title=" ">
<polygon fill="white" stroke="#666666" points="211,-30 116,-30 116,0 211,0 211,-30"/>
<text text-anchor="start" x="124" y="-18" font-family="Helvetica,sans-Serif" font-size="10.00">doris::vectorized::</text>
<text text-anchor="middle" x="163.5" y="-7" font-family="Helvetica,sans-Serif" font-size="10.00">VExpr::open</text>
</a>
</g>
</g>
<!-- Node1&#45;&gt;Node4 -->
<g id="edge3" class="edge">
<title>Node1&#45;&gt;Node4</title>
<path fill="none" stroke="#63b8ff" d="M80.45,-35.26C88.16,-33.35 96.41,-31.32 104.58,-29.3"/>
<polygon fill="#63b8ff" stroke="#63b8ff" points="105.29,-32.73 114.16,-26.94 103.61,-25.94 105.29,-32.73"/>
</g>
<!-- Node3 -->
<g id="node3" class="node">
<title>Node3</title>
<g id="a_node3"><a xlink:href="../../d9/d8d/classdoris_1_1_status.html#aafde58df1b2a6a91d5b674373be3ffc5" target="_top" xlink:title=" ">
<polygon fill="white" stroke="#666666" points="482,-54.5 375,-54.5 375,-35.5 482,-35.5 482,-54.5"/>
<text text-anchor="middle" x="428.5" y="-42.5" font-family="Helvetica,sans-Serif" font-size="10.00">doris::Status::Status</text>
</a>
</g>
</g>
<!-- Node2&#45;&gt;Node3 -->
<g id="edge2" class="edge">
<title>Node2&#45;&gt;Node3</title>
<path fill="none" stroke="#63b8ff" d="M339.2,-45C346.91,-45 355.05,-45 363.15,-45"/>
<polygon fill="#63b8ff" stroke="#63b8ff" points="363,-48.5 373,-45 363,-41.5 363,-48.5"/>
</g>
<!-- Node4&#45;&gt;Node2 -->
<g id="edge4" class="edge">
<title>Node4&#45;&gt;Node2</title>
<path fill="none" stroke="#63b8ff" d="M211.25,-26C220.25,-28.12 229.73,-30.35 238.9,-32.51"/>
<polygon fill="#63b8ff" stroke="#63b8ff" points="237.89,-35.86 248.42,-34.75 239.49,-29.05 237.89,-35.86"/>
</g>
<!-- Node4&#45;&gt;Node4 -->
<g id="edge5" class="edge">
<title>Node4&#45;&gt;Node4</title>
<path fill="none" stroke="#63b8ff" d="M141.79,-30.28C136.97,-39.41 144.2,-48 163.5,-48 174.05,-48 181,-45.43 184.34,-41.61"/>
<polygon fill="#63b8ff" stroke="#63b8ff" points="187.82,-42.02 185.09,-31.78 180.84,-41.49 187.82,-42.02"/>
</g>
</g>
</svg>
