<?xml version="1.0" encoding="UTF-8" standalone="no"?>
<!DOCTYPE svg PUBLIC "-//W3C//DTD SVG 1.1//EN"
 "http://www.w3.org/Graphics/SVG/1.1/DTD/svg11.dtd">
<!-- Generated by graphviz version 7.1.0 (20230121.1956)
 -->
<!-- Title: VExplodeBitmapTableFunction Pages: 1 -->
<svg width="400pt" height="302pt"
 viewBox="0.00 0.00 399.50 302.00" xmlns="http://www.w3.org/2000/svg" xmlns:xlink="http://www.w3.org/1999/xlink">
<g id="graph0" class="graph" transform="scale(1 1) rotate(0) translate(4 298)">
<title>VExplodeBitmapTableFunction</title>
<!-- Node1 -->
<g id="node1" class="node">
<title>Node1</title>
<g id="a_node1"><a xlink:title=" ">
<polygon fill="#999999" stroke="#666666" points="316.5,-19 166.5,-19 166.5,0 316.5,0 316.5,-19"/>
<text text-anchor="middle" x="241.5" y="-7" font-family="Helvetica,sans-Serif" font-size="10.00">VExplodeBitmapTableFunction</text>
</a>
</g>
</g>
<!-- Node2 -->
<g id="node2" class="node">
<title>Node2</title>
<g id="a_node2"><a xlink:href="../../da/d6e/classdoris_1_1vectorized_1_1_table_function.html" target="_top" xlink:title=" ">
<polygon fill="white" stroke="#666666" points="137,-85 60,-85 60,-66 137,-66 137,-85"/>
<text text-anchor="middle" x="98.5" y="-73" font-family="Helvetica,sans-Serif" font-size="10.00">TableFunction</text>
</a>
</g>
</g>
<!-- Node2&#45;&gt;Node1 -->
<g id="edge1" class="edge">
<title>Node2&#45;&gt;Node1</title>
<path fill="none" stroke="#63b8ff" d="M128.81,-60.94C156.86,-48.38 197.75,-30.08 221.79,-19.32"/>
<polygon fill="#63b8ff" stroke="#63b8ff" points="127.46,-57.7 119.77,-64.98 130.32,-64.09 127.46,-57.7"/>
</g>
<!-- Node3 -->
<g id="node3" class="node">
<title>Node3</title>
<g id="a_node3"><a xlink:title=" ">
<polygon fill="white" stroke="#666666" points="41,-156.5 0,-156.5 0,-137.5 41,-137.5 41,-156.5"/>
<text text-anchor="middle" x="20.5" y="-144.5" font-family="Helvetica,sans-Serif" font-size="10.00">string</text>
</a>
</g>
</g>
<!-- Node3&#45;&gt;Node2 -->
<g id="edge2" class="edge">
<title>Node3&#45;&gt;Node2</title>
<path fill="none" stroke="#9a32cd" stroke-dasharray="5,2" d="M30.03,-127.04C34.77,-118.92 41.09,-109.78 48.5,-103 56.48,-95.71 66.83,-89.79 76.05,-85.41"/>
<polygon fill="#9a32cd" stroke="#9a32cd" points="26.96,-125.36 25.29,-135.82 33.12,-128.68 26.96,-125.36"/>
<text text-anchor="middle" x="71.5" y="-106" font-family="Helvetica,sans-Serif" font-size="10.00"> _fn_name</text>
</g>
<!-- Node4 -->
<g id="node4" class="node">
<title>Node4</title>
<g id="a_node4"><a xlink:href="../../d6/daf/classdoris_1_1vectorized_1_1_v_expr_context.html" target="_top" xlink:title=" ">
<polygon fill="white" stroke="#666666" points="137.5,-156.5 59.5,-156.5 59.5,-137.5 137.5,-137.5 137.5,-156.5"/>
<text text-anchor="middle" x="98.5" y="-144.5" font-family="Helvetica,sans-Serif" font-size="10.00">VExprContext</text>
</a>
</g>
</g>
<!-- Node4&#45;&gt;Node2 -->
<g id="edge3" class="edge">
<title>Node4&#45;&gt;Node2</title>
<path fill="none" stroke="#9a32cd" stroke-dasharray="5,2" d="M98.5,-125.8C98.5,-112.44 98.5,-95.59 98.5,-85.45"/>
<polygon fill="#9a32cd" stroke="#9a32cd" points="95,-125.68 98.5,-135.68 102,-125.68 95,-125.68"/>
<text text-anchor="middle" x="133.5" y="-106" font-family="Helvetica,sans-Serif" font-size="10.00"> _vexpr_context</text>
</g>
<!-- Node5 -->
<g id="node5" class="node">
<title>Node5</title>
<g id="a_node5"><a xlink:href="../../d0/d2e/classdoris_1_1vectorized_1_1_v_expr.html" target="_top" xlink:title=" ">
<polygon fill="white" stroke="#666666" points="120.5,-228 76.5,-228 76.5,-209 120.5,-209 120.5,-228"/>
<text text-anchor="middle" x="98.5" y="-216" font-family="Helvetica,sans-Serif" font-size="10.00">VExpr</text>
</a>
</g>
</g>
<!-- Node5&#45;&gt;Node4 -->
<g id="edge4" class="edge">
<title>Node5&#45;&gt;Node4</title>
<path fill="none" stroke="#9a32cd" stroke-dasharray="5,2" d="M98.5,-197.3C98.5,-183.94 98.5,-167.09 98.5,-156.95"/>
<polygon fill="#9a32cd" stroke="#9a32cd" points="95,-197.18 98.5,-207.18 102,-197.18 95,-197.18"/>
<text text-anchor="middle" x="111" y="-183" font-family="Helvetica,sans-Serif" font-size="10.00"> _root</text>
</g>
<!-- Node6 -->
<g id="node6" class="node">
<title>Node6</title>
<g id="a_node6"><a xlink:href="../../dd/dd0/structdoris_1_1_type_descriptor.html" target="_top" xlink:title=" ">
<polygon fill="white" stroke="#666666" points="140,-294 57,-294 57,-275 140,-275 140,-294"/>
<text text-anchor="middle" x="98.5" y="-282" font-family="Helvetica,sans-Serif" font-size="10.00">TypeDescriptor</text>
</a>
</g>
</g>
<!-- Node6&#45;&gt;Node5 -->
<g id="edge5" class="edge">
<title>Node6&#45;&gt;Node5</title>
<path fill="none" stroke="#9a32cd" stroke-dasharray="5,2" d="M98.5,-263.18C98.5,-251.44 98.5,-237.27 98.5,-228.32"/>
<polygon fill="#9a32cd" stroke="#9a32cd" points="95,-263.09 98.5,-273.09 102,-263.09 95,-263.09"/>
<text text-anchor="middle" x="112.5" y="-249" font-family="Helvetica,sans-Serif" font-size="10.00"> _type</text>
</g>
<!-- Node7 -->
<g id="node7" class="node">
<title>Node7</title>
<g id="a_node7"><a xlink:href="../../d0/de2/classdoris_1_1_bitmap_value.html" target="_top" xlink:title=" ">
<polygon fill="white" stroke="#666666" points="387,-156.5 316,-156.5 316,-137.5 387,-137.5 387,-156.5"/>
<text text-anchor="middle" x="351.5" y="-144.5" font-family="Helvetica,sans-Serif" font-size="10.00">BitmapValue</text>
</a>
</g>
</g>
<!-- Node7&#45;&gt;Node1 -->
<g id="edge6" class="edge">
<title>Node7&#45;&gt;Node1</title>
<path fill="none" stroke="#9a32cd" stroke-dasharray="5,2" d="M343.98,-126.88C333.9,-103.27 314.03,-63.03 286.5,-37 278.99,-29.9 269.25,-23.87 260.75,-19.36"/>
<polygon fill="#9a32cd" stroke="#9a32cd" points="340.64,-127.96 347.67,-135.88 347.12,-125.3 340.64,-127.96"/>
<text text-anchor="middle" x="352" y="-73" font-family="Helvetica,sans-Serif" font-size="10.00"> _cur_bitmap</text>
</g>
<!-- Node9 -->
<g id="node9" class="node">
<title>Node9</title>
<g id="a_node9"><a xlink:href="../../d3/d95/classdoris_1_1_bitmap_value_iterator.html" target="_top" xlink:title=" ">
<polygon fill="white" stroke="#666666" points="292.5,-85 190.5,-85 190.5,-66 292.5,-66 292.5,-85"/>
<text text-anchor="middle" x="241.5" y="-73" font-family="Helvetica,sans-Serif" font-size="10.00">BitmapValueIterator</text>
</a>
</g>
</g>
<!-- Node7&#45;&gt;Node9 -->
<g id="edge9" class="edge">
<title>Node7&#45;&gt;Node9</title>
<path fill="none" stroke="#9a32cd" stroke-dasharray="5,2" d="M323.4,-131.77C313.47,-126.48 302.33,-120.24 292.5,-114 278.21,-104.93 262.66,-93.2 252.53,-85.3"/>
<polygon fill="#9a32cd" stroke="#9a32cd" points="321.76,-134.86 332.24,-136.39 325,-128.66 321.76,-134.86"/>
<text text-anchor="middle" x="311.5" y="-106" font-family="Helvetica,sans-Serif" font-size="10.00"> _bitmap</text>
</g>
<!-- Node8 -->
<g id="node8" class="node">
<title>Node8</title>
<g id="a_node8"><a xlink:href="../../d7/d45/classdoris_1_1detail_1_1_roaring64_map.html" target="_top" xlink:title=" ">
<polygon fill="white" stroke="#666666" points="391.5,-228 311.5,-228 311.5,-209 391.5,-209 391.5,-228"/>
<text text-anchor="middle" x="351.5" y="-216" font-family="Helvetica,sans-Serif" font-size="10.00">Roaring64Map</text>
</a>
</g>
</g>
<!-- Node8&#45;&gt;Node7 -->
<g id="edge7" class="edge">
<title>Node8&#45;&gt;Node7</title>
<path fill="none" stroke="#9a32cd" stroke-dasharray="5,2" d="M351.5,-197.3C351.5,-183.94 351.5,-167.09 351.5,-156.95"/>
<polygon fill="#9a32cd" stroke="#9a32cd" points="348,-197.18 351.5,-207.18 355,-197.18 348,-197.18"/>
<text text-anchor="middle" x="370.5" y="-183" font-family="Helvetica,sans-Serif" font-size="10.00"> _bitmap</text>
</g>
<!-- Node9&#45;&gt;Node1 -->
<g id="edge8" class="edge">
<title>Node9&#45;&gt;Node1</title>
<path fill="none" stroke="#9a32cd" stroke-dasharray="5,2" d="M241.5,-54.18C241.5,-42.44 241.5,-28.27 241.5,-19.32"/>
<polygon fill="#9a32cd" stroke="#9a32cd" points="238,-54.09 241.5,-64.09 245,-54.09 238,-54.09"/>
<text text-anchor="middle" x="262" y="-40" font-family="Helvetica,sans-Serif" font-size="10.00"> _cur_iter</text>
</g>
<!-- Node10 -->
<g id="node10" class="node">
<title>Node10</title>
<g id="a_node10"><a xlink:href="../../dd/d55/classdoris_1_1detail_1_1_roaring64_map_set_bit_forward_iterator.html" target="_top" xlink:title=" ">
<polygon fill="white" stroke="#666666" points="297.5,-162 155.5,-162 155.5,-132 297.5,-132 297.5,-162"/>
<text text-anchor="start" x="163.5" y="-150" font-family="Helvetica,sans-Serif" font-size="10.00">Roaring64MapSetBitForward</text>
<text text-anchor="middle" x="226.5" y="-139" font-family="Helvetica,sans-Serif" font-size="10.00">Iterator</text>
</a>
</g>
</g>
<!-- Node10&#45;&gt;Node9 -->
<g id="edge10" class="edge">
<title>Node10&#45;&gt;Node9</title>
<path fill="none" stroke="#9a32cd" stroke-dasharray="5,2" d="M232.01,-120.46C234.69,-108.07 237.72,-93.99 239.63,-85.18"/>
<polygon fill="#9a32cd" stroke="#9a32cd" points="228.62,-119.61 229.93,-130.12 235.46,-121.08 228.62,-119.61"/>
<text text-anchor="middle" x="246.5" y="-106" font-family="Helvetica,sans-Serif" font-size="10.00"> _iter</text>
</g>
</g>
</svg>
