<?xml version="1.0" encoding="UTF-8" standalone="no"?>
<!DOCTYPE svg PUBLIC "-//W3C//DTD SVG 1.1//EN"
 "http://www.w3.org/Graphics/SVG/1.1/DTD/svg11.dtd">
<!-- Generated by graphviz version 7.1.0 (20230121.1956)
 -->
<!-- Title: to_string Pages: 1 -->
<svg width="903pt" height="140pt"
 viewBox="0.00 0.00 903.00 140.00" xmlns="http://www.w3.org/2000/svg" xmlns:xlink="http://www.w3.org/1999/xlink">
<g id="graph0" class="graph" transform="scale(1 1) rotate(0) translate(4 136)">
<title>to_string</title>
<!-- Node1 -->
<g id="node1" class="node">
<title>Node1</title>
<g id="a_node1"><a xlink:title=" ">
<polygon fill="#999999" stroke="#666666" points="54,-75 0,-75 0,-56 54,-56 54,-75"/>
<text text-anchor="middle" x="27" y="-63" font-family="Helvetica,sans-Serif" font-size="10.00">to_string</text>
</a>
</g>
</g>
<!-- Node2 -->
<g id="node2" class="node">
<title>Node2</title>
<g id="a_node2"><a xlink:href="../../df/dcb/namespacestrings.html#a4f3ca92d957daf4bd11169509bdb79ef" target="_top" xlink:title=" ">
<polygon fill="white" stroke="#666666" points="186,-94 90,-94 90,-75 186,-75 186,-94"/>
<text text-anchor="middle" x="138" y="-82" font-family="Helvetica,sans-Serif" font-size="10.00">strings::Substitute</text>
</a>
</g>
</g>
<!-- Node1&#45;&gt;Node2 -->
<g id="edge1" class="edge">
<title>Node1&#45;&gt;Node2</title>
<path fill="none" stroke="#63b8ff" d="M54.39,-70.1C61.75,-71.38 70.05,-72.83 78.48,-74.3"/>
<polygon fill="#63b8ff" stroke="#63b8ff" points="77.62,-77.7 88.08,-75.97 78.83,-70.81 77.62,-77.7"/>
</g>
<!-- Node6 -->
<g id="node6" class="node">
<title>Node6</title>
<g id="a_node6"><a xlink:href="../../d6/d7f/classdoris_1_1_thread.html#ab31a6deb635379ffbcabeac994cb27c2" target="_top" xlink:title=" ">
<polygon fill="white" stroke="#666666" points="152.5,-57 123.5,-57 123.5,-38 152.5,-38 152.5,-57"/>
<text text-anchor="middle" x="138" y="-45" font-family="Helvetica,sans-Serif" font-size="10.00">tid</text>
</a>
</g>
</g>
<!-- Node1&#45;&gt;Node6 -->
<g id="edge6" class="edge">
<title>Node1&#45;&gt;Node6</title>
<path fill="none" stroke="#63b8ff" d="M54.39,-61.14C71.91,-58.25 94.78,-54.47 112.01,-51.63"/>
<polygon fill="#63b8ff" stroke="#63b8ff" points="112.36,-55.12 121.66,-50.03 111.22,-48.21 112.36,-55.12"/>
</g>
<!-- Node2&#45;&gt;Node2 -->
<g id="edge2" class="edge">
<title>Node2&#45;&gt;Node2</title>
<path fill="none" stroke="#63b8ff" d="M120.62,-94.37C112.7,-102.94 118.49,-112 138,-112 148.67,-112 155.24,-109.29 157.7,-105.43"/>
<polygon fill="#63b8ff" stroke="#63b8ff" points="161.17,-104.92 155.69,-95.85 154.32,-106.36 161.17,-104.92"/>
</g>
<!-- Node3 -->
<g id="node3" class="node">
<title>Node3</title>
<g id="a_node3"><a xlink:href="../../df/dcb/namespacestrings.html#ab41a4a9d46a87a619ed25ce45f201137" target="_top" xlink:title=" ">
<polygon fill="white" stroke="#666666" points="368,-95 222,-95 222,-76 368,-76 368,-95"/>
<text text-anchor="middle" x="295" y="-83" font-family="Helvetica,sans-Serif" font-size="10.00">strings::SubstituteAndAppend</text>
</a>
</g>
</g>
<!-- Node2&#45;&gt;Node3 -->
<g id="edge3" class="edge">
<title>Node2&#45;&gt;Node3</title>
<path fill="none" stroke="#63b8ff" d="M186.35,-84.81C193.91,-84.85 201.93,-84.91 210.04,-84.96"/>
<polygon fill="#63b8ff" stroke="#63b8ff" points="210,-88.46 220.02,-85.02 210.05,-81.46 210,-88.46"/>
</g>
<!-- Node4 -->
<g id="node4" class="node">
<title>Node4</title>
<g id="a_node4"><a xlink:href="../../de/de8/stl__util_8h.html#ab0f5d71a968a1a2b9c8a572dad7fb18b" target="_top" xlink:title=" ">
<polygon fill="white" stroke="#666666" points="548,-132 404,-132 404,-113 548,-113 548,-132"/>
<text text-anchor="middle" x="476" y="-120" font-family="Helvetica,sans-Serif" font-size="10.00">STLStringResizeUninitialized</text>
</a>
</g>
</g>
<!-- Node3&#45;&gt;Node4 -->
<g id="edge4" class="edge">
<title>Node3&#45;&gt;Node4</title>
<path fill="none" stroke="#63b8ff" d="M343.97,-95.42C366.04,-99.98 392.44,-105.43 415.74,-110.25"/>
<polygon fill="#63b8ff" stroke="#63b8ff" points="414.92,-113.65 425.42,-112.25 416.33,-106.8 414.92,-113.65"/>
</g>
<!-- Node5 -->
<g id="node5" class="node">
<title>Node5</title>
<g id="a_node5"><a xlink:href="../../de/de8/stl__util_8h.html#a7245ef7ee9fdcf5adcc274e1e71f5fb3" target="_top" xlink:title=" ">
<polygon fill="white" stroke="#666666" points="517.5,-95 434.5,-95 434.5,-76 517.5,-76 517.5,-95"/>
<text text-anchor="middle" x="476" y="-83" font-family="Helvetica,sans-Serif" font-size="10.00">string_as_array</text>
</a>
</g>
</g>
<!-- Node3&#45;&gt;Node5 -->
<g id="edge5" class="edge">
<title>Node3&#45;&gt;Node5</title>
<path fill="none" stroke="#63b8ff" d="M368.29,-85.5C386.5,-85.5 405.7,-85.5 422.72,-85.5"/>
<polygon fill="#63b8ff" stroke="#63b8ff" points="422.59,-89 432.59,-85.5 422.59,-82 422.59,-89"/>
</g>
<!-- Node7 -->
<g id="node7" class="node">
<title>Node7</title>
<g id="a_node7"><a xlink:href="../../dc/d42/namespacebase_1_1subtle.html#af5c61a0416c41ffad86c0f88d259aff8" target="_top" xlink:title=" ">
<polygon fill="white" stroke="#666666" points="719,-38 584,-38 584,-19 719,-19 719,-38"/>
<text text-anchor="middle" x="651.5" y="-26" font-family="Helvetica,sans-Serif" font-size="10.00">base::subtle::Acquire_Load</text>
</a>
</g>
</g>
<!-- Node6&#45;&gt;Node7 -->
<g id="edge7" class="edge">
<title>Node6&#45;&gt;Node7</title>
<path fill="none" stroke="#63b8ff" d="M152.95,-46.98C212.49,-44.77 448.04,-36.02 572.49,-31.4"/>
<polygon fill="#63b8ff" stroke="#63b8ff" points="572.44,-34.9 582.3,-31.03 572.18,-27.91 572.44,-34.9"/>
</g>
<!-- Node9 -->
<g id="node9" class="node">
<title>Node9</title>
<g id="a_node9"><a xlink:href="../../d6/d7f/classdoris_1_1_thread.html#a858d4cdf8f14c9f7bf3936151db145ac" target="_top" xlink:title=" ">
<polygon fill="white" stroke="#666666" points="328.5,-19 261.5,-19 261.5,0 328.5,0 328.5,-19"/>
<text text-anchor="middle" x="295" y="-7" font-family="Helvetica,sans-Serif" font-size="10.00">wait_for_tid</text>
</a>
</g>
</g>
<!-- Node6&#45;&gt;Node9 -->
<g id="edge9" class="edge">
<title>Node6&#45;&gt;Node9</title>
<path fill="none" stroke="#63b8ff" d="M152.76,-44.13C174.36,-38.83 217.18,-28.33 250.03,-20.28"/>
<polygon fill="#63b8ff" stroke="#63b8ff" points="250.84,-23.69 259.71,-17.91 249.17,-16.89 250.84,-23.69"/>
</g>
<!-- Node8 -->
<g id="node8" class="node">
<title>Node8</title>
<g id="a_node8"><a xlink:href="../../dc/d42/namespacebase_1_1subtle.html#a8227003ebda7d9b733c44e106e7ab607" target="_top" xlink:title=" ">
<polygon fill="white" stroke="#666666" points="895,-38 755,-38 755,-19 895,-19 895,-38"/>
<text text-anchor="middle" x="825" y="-26" font-family="Helvetica,sans-Serif" font-size="10.00">base::subtle::MemoryBarrier</text>
</a>
</g>
</g>
<!-- Node7&#45;&gt;Node8 -->
<g id="edge8" class="edge">
<title>Node7&#45;&gt;Node8</title>
<path fill="none" stroke="#63b8ff" d="M719.3,-28.5C727.16,-28.5 735.25,-28.5 743.27,-28.5"/>
<polygon fill="#63b8ff" stroke="#63b8ff" points="743.04,-32 753.04,-28.5 743.04,-25 743.04,-32"/>
</g>
<!-- Node10 -->
<g id="node10" class="node">
<title>Node10</title>
<g id="a_node10"><a xlink:href="../../de/dcd/atomicops_8h.html#af5c61a0416c41ffad86c0f88d259aff8" target="_top" xlink:title=" ">
<polygon fill="white" stroke="#666666" points="514,-19 438,-19 438,0 514,0 514,-19"/>
<text text-anchor="middle" x="476" y="-7" font-family="Helvetica,sans-Serif" font-size="10.00">Acquire_Load</text>
</a>
</g>
</g>
<!-- Node9&#45;&gt;Node10 -->
<g id="edge10" class="edge">
<title>Node9&#45;&gt;Node10</title>
<path fill="none" stroke="#63b8ff" d="M328.83,-9.5C356.13,-9.5 395.37,-9.5 426.32,-9.5"/>
<polygon fill="#63b8ff" stroke="#63b8ff" points="426.22,-13 436.22,-9.5 426.22,-6 426.22,-13"/>
</g>
<!-- Node10&#45;&gt;Node7 -->
<g id="edge11" class="edge">
<title>Node10&#45;&gt;Node7</title>
<path fill="none" stroke="#63b8ff" d="M514.22,-13.58C531.2,-15.43 551.98,-17.71 572.15,-19.92"/>
<polygon fill="#63b8ff" stroke="#63b8ff" points="571.76,-23.4 582.08,-21.01 572.52,-16.44 571.76,-23.4"/>
</g>
</g>
</svg>
