<?xml version="1.0" encoding="UTF-8" standalone="no"?>
<!DOCTYPE svg PUBLIC "-//W3C//DTD SVG 1.1//EN"
 "http://www.w3.org/Graphics/SVG/1.1/DTD/svg11.dtd">
<!-- Generated by graphviz version 7.1.0 (20230121.1956)
 -->
<!-- Title: set_self_name Pages: 1 -->
<!--zoomable 113 -->
<svg id="main" version="1.1" xmlns="http://www.w3.org/2000/svg" xmlns:xlink="http://www.w3.org/1999/xlink" xml:space="preserve" onload="init(evt)">
<style type="text/css"><![CDATA[
.edge:hover path { stroke: red; }
.edge:hover polygon { stroke: red; fill: red; }
]]></style>
<script type="text/javascript"><![CDATA[
var edges = document.getElementsByTagName('g');
if (edges && edges.length) {
  for (var i=0;i<edges.length;i++) {
    if (edges[i].id.substr(0,4)=='edge') {
      edges[i].setAttribute('class','edge');
    }
  }
}
]]></script>
        <defs>
                <circle id="rim" cx="0" cy="0" r="7"/>
                <circle id="rim2" cx="0" cy="0" r="3.5"/>
                <g id="zoomPlus">
                        <use xlink:href="#rim" fill="#404040">
                                <set attributeName="fill" to="#808080" begin="zoomplus.mouseover" end="zoomplus.mouseout"/>
                        </use>
                        <path d="M-4,0h8M0,-4v8" fill="none" stroke="white" stroke-width="1.5" pointer-events="none"/>
                </g>
                <g id="zoomMin">
                        <use xlink:href="#rim" fill="#404040">
                                <set attributeName="fill" to="#808080" begin="zoomminus.mouseover" end="zoomminus.mouseout"/>
                        </use>
                        <path d="M-4,0h8" fill="none" stroke="white" stroke-width="1.5" pointer-events="none"/>
                </g>
                <g id="dirArrow">
                        <path fill="none" stroke="white" stroke-width="1.5" d="M0,-3.0v7 M-2.5,-0.5L0,-3.0L2.5,-0.5"/>
                </g>
               <g id="resetDef">
                       <use xlink:href="#rim2" fill="#404040">
                               <set attributeName="fill" to="#808080" begin="reset.mouseover" end="reset.mouseout"/>
                       </use>
               </g>
        </defs>

<script type="text/javascript">
var viewWidth = 939;
var viewHeight = 113;
var sectionId = 'dynsection-11';
</script>
<script xlink:href="../../svgpan.js"/>
<svg id="graph" class="graph">
<g id="viewport">
<title>set_self_name</title>
<!-- Node1 -->
<g id="node1" class="node">
<title>Node1</title>
<g id="a_node1"><a xlink:title=" ">
<polygon fill="#999999" stroke="#666666" points="80,-67.5 0,-67.5 0,-48.5 80,-48.5 80,-67.5"/>
<text text-anchor="middle" x="40" y="-55.5" font-family="Helvetica,sans-Serif" font-size="10.00">set_self_name</text>
</a>
</g>
</g>
<!-- Node2 -->
<g id="node2" class="node">
<title>Node2</title>
<g id="a_node2"><a xlink:href="../../d6/d7f/classdoris_1_1_thread.html#a2cef1e84c944d396ac5a65f05fb487e7" target="_top" xlink:title=" ">
<polygon fill="white" stroke="#666666" points="217,-104.5 125,-104.5 125,-85.5 217,-85.5 217,-104.5"/>
<text text-anchor="middle" x="171" y="-92.5" font-family="Helvetica,sans-Serif" font-size="10.00">current_thread_id</text>
</a>
</g>
</g>
<!-- Node1&#45;&gt;Node2 -->
<g id="edge1" class="edge">
<title>Node1&#45;&gt;Node2</title>
<path fill="none" stroke="#63b8ff" d="M75.57,-67.92C90.61,-72.23 108.44,-77.34 124.53,-81.96"/>
<polygon fill="#63b8ff" stroke="#63b8ff" points="123.3,-85.25 133.88,-84.64 125.23,-78.52 123.3,-85.25"/>
</g>
<!-- Node8 -->
<g id="node8" class="node">
<title>Node8</title>
<g id="a_node8"><a xlink:href="../../d6/d7f/classdoris_1_1_thread.html#a24dcbf29c0d6cd766009a182a6484e3b" target="_top" xlink:title=" ">
<polygon fill="white" stroke="#666666" points="191.5,-67.5 150.5,-67.5 150.5,-48.5 191.5,-48.5 191.5,-67.5"/>
<text text-anchor="middle" x="171" y="-55.5" font-family="Helvetica,sans-Serif" font-size="10.00">name</text>
</a>
</g>
</g>
<!-- Node1&#45;&gt;Node8 -->
<g id="edge8" class="edge">
<title>Node1&#45;&gt;Node8</title>
<path fill="none" stroke="#63b8ff" d="M80.41,-58C99.19,-58 121.34,-58 138.91,-58"/>
<polygon fill="#63b8ff" stroke="#63b8ff" points="138.74,-61.5 148.74,-58 138.74,-54.5 138.74,-61.5"/>
</g>
<!-- Node9 -->
<g id="node9" class="node">
<title>Node9</title>
<g id="a_node9"><a xlink:href="../../d5/dc0/classdoris_1_1_thread_mgr.html#a694fa3ac7c864b6ed3de071f2a17f4ae" target="_top" xlink:title=" ">
<polygon fill="white" stroke="#666666" points="226,-30 116,-30 116,0 226,0 226,-30"/>
<text text-anchor="start" x="124" y="-18" font-family="Helvetica,sans-Serif" font-size="10.00">doris::ThreadMgr::set</text>
<text text-anchor="middle" x="171" y="-7" font-family="Helvetica,sans-Serif" font-size="10.00">_thread_name</text>
</a>
</g>
</g>
<!-- Node1&#45;&gt;Node9 -->
<g id="edge9" class="edge">
<title>Node1&#45;&gt;Node9</title>
<path fill="none" stroke="#63b8ff" d="M70.92,-48.03C83.37,-43.88 98.27,-38.91 112.69,-34.1"/>
<polygon fill="#63b8ff" stroke="#63b8ff" points="113.75,-37.44 122.13,-30.96 111.54,-30.8 113.75,-37.44"/>
</g>
<!-- Node3 -->
<g id="node3" class="node">
<title>Node3</title>
<g id="a_node3"><a xlink:href="../../d6/d7f/classdoris_1_1_thread.html#ab31a6deb635379ffbcabeac994cb27c2" target="_top" xlink:title=" ">
<polygon fill="white" stroke="#666666" points="330,-104.5 301,-104.5 301,-85.5 330,-85.5 330,-104.5"/>
<text text-anchor="middle" x="315.5" y="-92.5" font-family="Helvetica,sans-Serif" font-size="10.00">tid</text>
</a>
</g>
</g>
<!-- Node2&#45;&gt;Node3 -->
<g id="edge2" class="edge">
<title>Node2&#45;&gt;Node3</title>
<path fill="none" stroke="#63b8ff" d="M217.48,-95C241.25,-95 269.43,-95 289.28,-95"/>
<polygon fill="#63b8ff" stroke="#63b8ff" points="289.21,-98.5 299.21,-95 289.21,-91.5 289.21,-98.5"/>
</g>
<!-- Node4 -->
<g id="node4" class="node">
<title>Node4</title>
<g id="a_node4"><a xlink:href="../../dc/d42/namespacebase_1_1subtle.html#af5c61a0416c41ffad86c0f88d259aff8" target="_top" xlink:title=" ">
<polygon fill="white" stroke="#666666" points="755,-104.5 620,-104.5 620,-85.5 755,-85.5 755,-104.5"/>
<text text-anchor="middle" x="687.5" y="-92.5" font-family="Helvetica,sans-Serif" font-size="10.00">base::subtle::Acquire_Load</text>
</a>
</g>
</g>
<!-- Node3&#45;&gt;Node4 -->
<g id="edge3" class="edge">
<title>Node3&#45;&gt;Node4</title>
<path fill="none" stroke="#63b8ff" d="M330.11,-95C374.49,-95 517.42,-95 608.22,-95"/>
<polygon fill="#63b8ff" stroke="#63b8ff" points="608.06,-98.5 618.06,-95 608.06,-91.5 608.06,-98.5"/>
</g>
<!-- Node6 -->
<g id="node6" class="node">
<title>Node6</title>
<g id="a_node6"><a xlink:href="../../d6/d7f/classdoris_1_1_thread.html#a858d4cdf8f14c9f7bf3936151db145ac" target="_top" xlink:title=" ">
<polygon fill="white" stroke="#666666" points="472,-85.5 405,-85.5 405,-66.5 472,-66.5 472,-85.5"/>
<text text-anchor="middle" x="438.5" y="-73.5" font-family="Helvetica,sans-Serif" font-size="10.00">wait_for_tid</text>
</a>
</g>
</g>
<!-- Node3&#45;&gt;Node6 -->
<g id="edge5" class="edge">
<title>Node3&#45;&gt;Node6</title>
<path fill="none" stroke="#63b8ff" d="M330.38,-92.82C345.71,-90.41 371.17,-86.42 393.43,-82.92"/>
<polygon fill="#63b8ff" stroke="#63b8ff" points="393.87,-86.39 403.21,-81.39 392.78,-79.48 393.87,-86.39"/>
</g>
<!-- Node5 -->
<g id="node5" class="node">
<title>Node5</title>
<g id="a_node5"><a xlink:href="../../dc/d42/namespacebase_1_1subtle.html#a8227003ebda7d9b733c44e106e7ab607" target="_top" xlink:title=" ">
<polygon fill="white" stroke="#666666" points="931,-104.5 791,-104.5 791,-85.5 931,-85.5 931,-104.5"/>
<text text-anchor="middle" x="861" y="-92.5" font-family="Helvetica,sans-Serif" font-size="10.00">base::subtle::MemoryBarrier</text>
</a>
</g>
</g>
<!-- Node4&#45;&gt;Node5 -->
<g id="edge4" class="edge">
<title>Node4&#45;&gt;Node5</title>
<path fill="none" stroke="#63b8ff" d="M755.3,-95C763.16,-95 771.25,-95 779.27,-95"/>
<polygon fill="#63b8ff" stroke="#63b8ff" points="779.04,-98.5 789.04,-95 779.04,-91.5 779.04,-98.5"/>
</g>
<!-- Node7 -->
<g id="node7" class="node">
<title>Node7</title>
<g id="a_node7"><a xlink:href="../../de/dcd/atomicops_8h.html#af5c61a0416c41ffad86c0f88d259aff8" target="_top" xlink:title=" ">
<polygon fill="white" stroke="#666666" points="584,-85.5 508,-85.5 508,-66.5 584,-66.5 584,-85.5"/>
<text text-anchor="middle" x="546" y="-73.5" font-family="Helvetica,sans-Serif" font-size="10.00">Acquire_Load</text>
</a>
</g>
</g>
<!-- Node6&#45;&gt;Node7 -->
<g id="edge6" class="edge">
<title>Node6&#45;&gt;Node7</title>
<path fill="none" stroke="#63b8ff" d="M472.3,-76C479.95,-76 488.25,-76 496.42,-76"/>
<polygon fill="#63b8ff" stroke="#63b8ff" points="496.28,-79.5 506.28,-76 496.28,-72.5 496.28,-79.5"/>
</g>
<!-- Node7&#45;&gt;Node4 -->
<g id="edge7" class="edge">
<title>Node7&#45;&gt;Node4</title>
<path fill="none" stroke="#63b8ff" d="M584.38,-81.09C591.87,-82.11 600,-83.22 608.3,-84.35"/>
<polygon fill="#63b8ff" stroke="#63b8ff" points="607.78,-87.81 618.16,-85.69 608.72,-80.87 607.78,-87.81"/>
</g>
<!-- Node10 -->
<g id="node10" class="node">
<title>Node10</title>
<g id="a_node10"><a xlink:href="../../de/df8/glibc-compatibility_8c.html#aa21465e084e7185bfbb94bb50d60cd08" target="_top" xlink:title="No&#45;ops.">
<polygon fill="white" stroke="#666666" points="369,-24.5 262,-24.5 262,-5.5 369,-5.5 369,-24.5"/>
<text text-anchor="middle" x="315.5" y="-12.5" font-family="Helvetica,sans-Serif" font-size="10.00">pthread_setname_np</text>
</a>
</g>
</g>
<!-- Node9&#45;&gt;Node10 -->
<g id="edge10" class="edge">
<title>Node9&#45;&gt;Node10</title>
<path fill="none" stroke="#63b8ff" d="M226.28,-15C234.19,-15 242.4,-15 250.48,-15"/>
<polygon fill="#63b8ff" stroke="#63b8ff" points="250.27,-18.5 260.27,-15 250.27,-11.5 250.27,-18.5"/>
</g>
</g>
</svg>
        <g id="navigator" transform="translate(0 0)" fill="#404254">
                <rect fill="#f2f5e9" fill-opacity="0.5" stroke="#606060" stroke-width=".5" x="0" y="0" width="60" height="60"/>
                <use id="zoomplus" xlink:href="#zoomPlus" x="17" y="9" onmousedown="handleZoom(evt,'in')"/>
                <use id="zoomminus" xlink:href="#zoomMin" x="42" y="9" onmousedown="handleZoom(evt,'out')"/>
                <use id="reset" xlink:href="#resetDef" x="30" y="36" onmousedown="handleReset()"/>
                <g id="arrowUp" xlink:href="#dirArrow" transform="translate(30 24)" onmousedown="handlePan(0,-1)">
                  <use xlink:href="#rim" fill="#404040">
                        <set attributeName="fill" to="#808080" begin="arrowUp.mouseover" end="arrowUp.mouseout"/>
                  </use>
                  <path fill="none" stroke="white" stroke-width="1.5" d="M0,-3.0v7 M-2.5,-0.5L0,-3.0L2.5,-0.5"/>
                </g>
                <g id="arrowRight" xlink:href="#dirArrow" transform="rotate(90) translate(36 -43)" onmousedown="handlePan(1,0)">
                  <use xlink:href="#rim" fill="#404040">
                        <set attributeName="fill" to="#808080" begin="arrowRight.mouseover" end="arrowRight.mouseout"/>
                  </use>
                  <path fill="none" stroke="white" stroke-width="1.5" d="M0,-3.0v7 M-2.5,-0.5L0,-3.0L2.5,-0.5"/>
                </g>
                <g id="arrowDown" xlink:href="#dirArrow" transform="rotate(180) translate(-30 -48)" onmousedown="handlePan(0,1)">
                  <use xlink:href="#rim" fill="#404040">
                        <set attributeName="fill" to="#808080" begin="arrowDown.mouseover" end="arrowDown.mouseout"/>
                  </use>
                  <path fill="none" stroke="white" stroke-width="1.5" d="M0,-3.0v7 M-2.5,-0.5L0,-3.0L2.5,-0.5"/>
                </g>
                <g id="arrowLeft" xlink:href="#dirArrow" transform="rotate(270) translate(-36 17)" onmousedown="handlePan(-1,0)">
                  <use xlink:href="#rim" fill="#404040">
                        <set attributeName="fill" to="#808080" begin="arrowLeft.mouseover" end="arrowLeft.mouseout"/>
                  </use>
                  <path fill="none" stroke="white" stroke-width="1.5" d="M0,-3.0v7 M-2.5,-0.5L0,-3.0L2.5,-0.5"/>
                </g>
        </g>
        <svg viewBox="0 0 15 15" width="100%" height="30px" preserveAspectRatio="xMaxYMin meet">
         <g id="arrow_out" transform="scale(0.3 0.3)">
          <a xlink:href="classdoris_1_1_thread_a5df167bb648973dd735dda38e8341e76_cgraph_org.svg" target="_base">
           <rect id="button" ry="5" rx="5" y="6" x="6" height="38" width="38"
                fill="#f2f5e9" fill-opacity="0.5" stroke="#606060" stroke-width="1.0"/>
           <path id="arrow"
             d="M 11.500037,31.436501 C 11.940474,20.09759 22.043105,11.32322 32.158766,21.979434 L 37.068811,17.246167 C 37.068811,17.246167 37.088388,32 37.088388,32 L 22.160133,31.978069 C 22.160133,31.978069 26.997745,27.140456 26.997745,27.140456 C 18.528582,18.264221 13.291696,25.230495 11.500037,31.436501 z"
             style="fill:#404040;"/>
          </a>
         </g>
        </svg>
</svg>
