<?xml version="1.0" encoding="UTF-8" standalone="no"?>
<!DOCTYPE svg PUBLIC "-//W3C//DTD SVG 1.1//EN"
 "http://www.w3.org/Graphics/SVG/1.1/DTD/svg11.dtd">
<!-- Generated by graphviz version 7.1.0 (20230121.1956)
 -->
<!-- Title: PageDecoder Pages: 1 -->
<!--zoomable 382 -->
<svg id="main" version="1.1" xmlns="http://www.w3.org/2000/svg" xmlns:xlink="http://www.w3.org/1999/xlink" xml:space="preserve" onload="init(evt)">
<style type="text/css"><![CDATA[
.edge:hover path { stroke: red; }
.edge:hover polygon { stroke: red; fill: red; }
]]></style>
<script type="text/javascript"><![CDATA[
var edges = document.getElementsByTagName('g');
if (edges && edges.length) {
  for (var i=0;i<edges.length;i++) {
    if (edges[i].id.substr(0,4)=='edge') {
      edges[i].setAttribute('class','edge');
    }
  }
}
]]></script>
        <defs>
                <circle id="rim" cx="0" cy="0" r="7"/>
                <circle id="rim2" cx="0" cy="0" r="3.5"/>
                <g id="zoomPlus">
                        <use xlink:href="#rim" fill="#404040">
                                <set attributeName="fill" to="#808080" begin="zoomplus.mouseover" end="zoomplus.mouseout"/>
                        </use>
                        <path d="M-4,0h8M0,-4v8" fill="none" stroke="white" stroke-width="1.5" pointer-events="none"/>
                </g>
                <g id="zoomMin">
                        <use xlink:href="#rim" fill="#404040">
                                <set attributeName="fill" to="#808080" begin="zoomminus.mouseover" end="zoomminus.mouseout"/>
                        </use>
                        <path d="M-4,0h8" fill="none" stroke="white" stroke-width="1.5" pointer-events="none"/>
                </g>
                <g id="dirArrow">
                        <path fill="none" stroke="white" stroke-width="1.5" d="M0,-3.0v7 M-2.5,-0.5L0,-3.0L2.5,-0.5"/>
                </g>
               <g id="resetDef">
                       <use xlink:href="#rim2" fill="#404040">
                               <set attributeName="fill" to="#808080" begin="reset.mouseover" end="reset.mouseout"/>
                       </use>
               </g>
        </defs>

<script type="text/javascript">
var viewWidth = 663;
var viewHeight = 382;
var sectionId = 'dynsection-0';
</script>
<script xlink:href="../../svgpan.js"/>
<svg id="graph" class="graph">
<g id="viewport">
<title>PageDecoder</title>
<!-- Node1 -->
<g id="node1" class="node">
<title>Node1</title>
<g id="a_node1"><a xlink:title=" ">
<polygon fill="#999999" stroke="#666666" points="76,-180 0,-180 0,-161 76,-161 76,-180"/>
<text text-anchor="middle" x="38" y="-168" font-family="Helvetica,sans-Serif" font-size="10.00">PageDecoder</text>
</a>
</g>
</g>
<!-- Node2 -->
<g id="node2" class="node">
<title>Node2</title>
<g id="a_node2"><a xlink:href="../../d4/dd0/classdoris_1_1segment__v2_1_1_binary_plain_page_decoder.html" target="_top" xlink:title=" ">
<polygon fill="white" stroke="#666666" points="655,-343.5 475,-343.5 475,-313.5 655,-313.5 655,-343.5"/>
<text text-anchor="start" x="483" y="-331.5" font-family="Helvetica,sans-Serif" font-size="10.00">BinaryPlainPageDecoder</text>
<text text-anchor="middle" x="565" y="-320.5" font-family="Helvetica,sans-Serif" font-size="10.00">&lt; OLAP_FIELD_TYPE_VARCHAR &gt;</text>
</a>
</g>
</g>
<!-- Node1&#45;&gt;Node2 -->
<g id="edge1" class="edge">
<title>Node1&#45;&gt;Node2</title>
<path fill="none" stroke="#63b8ff" d="M42.13,-191.3C48.54,-225.68 66.67,-293.52 113,-323.5 237.58,-404.11 424.85,-368.12 513.73,-343.98"/>
<polygon fill="#63b8ff" stroke="#63b8ff" points="45.64,-191.05 40.52,-181.78 38.74,-192.22 45.64,-191.05"/>
</g>
<!-- Node3 -->
<g id="node3" class="node">
<title>Node3</title>
<g id="a_node3"><a xlink:href="../../d9/d2a/classdoris_1_1segment__v2_1_1_bit_shuffle_page_decoder.html" target="_top" xlink:title=" ">
<polygon fill="white" stroke="#666666" points="639,-168.5 491,-168.5 491,-138.5 639,-138.5 639,-168.5"/>
<text text-anchor="start" x="499" y="-156.5" font-family="Helvetica,sans-Serif" font-size="10.00">BitShufflePageDecoder</text>
<text text-anchor="middle" x="565" y="-145.5" font-family="Helvetica,sans-Serif" font-size="10.00">&lt; OLAP_FIELD_TYPE_INT &gt;</text>
</a>
</g>
</g>
<!-- Node1&#45;&gt;Node3 -->
<g id="edge2" class="edge">
<title>Node1&#45;&gt;Node3</title>
<path fill="none" stroke="#63b8ff" d="M83.57,-157.85C93.19,-155.62 103.38,-153.65 113,-152.5 245.36,-136.63 401.14,-142.31 490.64,-147.9"/>
<polygon fill="#63b8ff" stroke="#63b8ff" points="82.93,-154.4 74.05,-160.18 84.6,-161.2 82.93,-154.4"/>
</g>
<!-- Node4 -->
<g id="node4" class="node">
<title>Node4</title>
<g id="a_node4"><a xlink:href="../../da/d5b/classdoris_1_1segment__v2_1_1_binary_dict_page_decoder.html" target="_top" xlink:title=" ">
<polygon fill="white" stroke="#666666" points="253.5,-266 131.5,-266 131.5,-247 253.5,-247 253.5,-266"/>
<text text-anchor="middle" x="192.5" y="-254" font-family="Helvetica,sans-Serif" font-size="10.00">BinaryDictPageDecoder</text>
</a>
</g>
</g>
<!-- Node1&#45;&gt;Node4 -->
<g id="edge3" class="edge">
<title>Node1&#45;&gt;Node4</title>
<path fill="none" stroke="#63b8ff" d="M54.54,-188.98C68.36,-204.23 89.91,-225.28 113,-237.5 119.94,-241.17 127.6,-244.15 135.33,-246.55"/>
<polygon fill="#63b8ff" stroke="#63b8ff" points="57.21,-186.71 47.98,-181.5 51.94,-191.33 57.21,-186.71"/>
</g>
<!-- Node5 -->
<g id="node5" class="node">
<title>Node5</title>
<g id="a_node5"><a xlink:href="../../d4/dd0/classdoris_1_1segment__v2_1_1_binary_plain_page_decoder.html" target="_top" xlink:title=" ">
<polygon fill="white" stroke="#666666" points="255,-314.5 130,-314.5 130,-284.5 255,-284.5 255,-314.5"/>
<text text-anchor="start" x="138" y="-302.5" font-family="Helvetica,sans-Serif" font-size="10.00">BinaryPlainPageDecoder</text>
<text text-anchor="middle" x="192.5" y="-291.5" font-family="Helvetica,sans-Serif" font-size="10.00">&lt; Type &gt;</text>
</a>
</g>
</g>
<!-- Node1&#45;&gt;Node5 -->
<g id="edge4" class="edge">
<title>Node1&#45;&gt;Node5</title>
<path fill="none" stroke="#63b8ff" d="M48.01,-190.49C59.7,-214.18 82.27,-253.24 113,-275.5 118.08,-279.18 123.73,-282.3 129.61,-284.95"/>
<polygon fill="#63b8ff" stroke="#63b8ff" points="51.25,-189.15 43.81,-181.61 44.92,-192.14 51.25,-189.15"/>
</g>
<!-- Node6 -->
<g id="node6" class="node">
<title>Node6</title>
<g id="a_node6"><a xlink:href="../../d6/df0/classdoris_1_1segment__v2_1_1_binary_prefix_page_decoder.html" target="_top" xlink:title=" ">
<polygon fill="white" stroke="#666666" points="257,-180 128,-180 128,-161 257,-161 257,-180"/>
<text text-anchor="middle" x="192.5" y="-168" font-family="Helvetica,sans-Serif" font-size="10.00">BinaryPrefixPageDecoder</text>
</a>
</g>
</g>
<!-- Node1&#45;&gt;Node6 -->
<g id="edge6" class="edge">
<title>Node1&#45;&gt;Node6</title>
<path fill="none" stroke="#63b8ff" d="M87.59,-170.5C100.29,-170.5 114.17,-170.5 127.53,-170.5"/>
<polygon fill="#63b8ff" stroke="#63b8ff" points="87.82,-167 77.82,-170.5 87.82,-174 87.82,-167"/>
</g>
<!-- Node7 -->
<g id="node7" class="node">
<title>Node7</title>
<g id="a_node7"><a xlink:href="../../d9/d2a/classdoris_1_1segment__v2_1_1_bit_shuffle_page_decoder.html" target="_top" xlink:title=" ">
<polygon fill="white" stroke="#666666" points="252,-228.5 133,-228.5 133,-198.5 252,-198.5 252,-228.5"/>
<text text-anchor="start" x="141" y="-216.5" font-family="Helvetica,sans-Serif" font-size="10.00">BitShufflePageDecoder</text>
<text text-anchor="middle" x="192.5" y="-205.5" font-family="Helvetica,sans-Serif" font-size="10.00">&lt; Type &gt;</text>
</a>
</g>
</g>
<!-- Node1&#45;&gt;Node7 -->
<g id="edge7" class="edge">
<title>Node1&#45;&gt;Node7</title>
<path fill="none" stroke="#63b8ff" d="M85.2,-183.53C101.4,-188.1 119.76,-193.27 136.61,-198.02"/>
<polygon fill="#63b8ff" stroke="#63b8ff" points="86.4,-180.23 75.83,-180.88 84.5,-186.97 86.4,-180.23"/>
</g>
<!-- Node8 -->
<g id="node8" class="node">
<title>Node8</title>
<g id="a_node8"><a xlink:href="../../d4/d22/classdoris_1_1segment__v2_1_1_frame_of_reference_page_decoder.html" target="_top" xlink:title=" ">
<polygon fill="white" stroke="#666666" points="272,-104.5 113,-104.5 113,-74.5 272,-74.5 272,-104.5"/>
<text text-anchor="start" x="121" y="-92.5" font-family="Helvetica,sans-Serif" font-size="10.00">FrameOfReferencePageDecoder</text>
<text text-anchor="middle" x="192.5" y="-81.5" font-family="Helvetica,sans-Serif" font-size="10.00">&lt; Type &gt;</text>
</a>
</g>
</g>
<!-- Node1&#45;&gt;Node8 -->
<g id="edge9" class="edge">
<title>Node1&#45;&gt;Node8</title>
<path fill="none" stroke="#63b8ff" d="M54.45,-152.02C64.65,-140.89 78.88,-127.22 94,-118.5 103.33,-113.12 113.75,-108.65 124.21,-104.98"/>
<polygon fill="#63b8ff" stroke="#63b8ff" points="51.87,-149.66 47.9,-159.48 57.13,-154.28 51.87,-149.66"/>
</g>
<!-- Node9 -->
<g id="node9" class="node">
<title>Node9</title>
<g id="a_node9"><a xlink:href="../../d9/d0e/classdoris_1_1segment__v2_1_1_plain_page_decoder.html" target="_top" xlink:title=" ">
<polygon fill="white" stroke="#666666" points="261,-56 124,-56 124,-37 261,-37 261,-56"/>
<text text-anchor="middle" x="192.5" y="-44" font-family="Helvetica,sans-Serif" font-size="10.00">PlainPageDecoder&lt; Type &gt;</text>
</a>
</g>
</g>
<!-- Node1&#45;&gt;Node9 -->
<g id="edge10" class="edge">
<title>Node1&#45;&gt;Node9</title>
<path fill="none" stroke="#63b8ff" d="M47.8,-150.2C59.26,-126.2 81.62,-86.84 113,-65.5 118.45,-61.79 124.54,-58.81 130.86,-56.4"/>
<polygon fill="#63b8ff" stroke="#63b8ff" points="44.65,-148.67 43.68,-159.22 51.01,-151.57 44.65,-148.67"/>
</g>
<!-- Node10 -->
<g id="node10" class="node">
<title>Node10</title>
<g id="a_node10"><a xlink:href="../../d8/d31/classdoris_1_1segment__v2_1_1_rle_page_decoder.html" target="_top" xlink:title=" ">
<polygon fill="white" stroke="#666666" points="257.5,-19 127.5,-19 127.5,0 257.5,0 257.5,-19"/>
<text text-anchor="middle" x="192.5" y="-7" font-family="Helvetica,sans-Serif" font-size="10.00">RlePageDecoder&lt; Type &gt;</text>
</a>
</g>
</g>
<!-- Node1&#45;&gt;Node10 -->
<g id="edge11" class="edge">
<title>Node1&#45;&gt;Node10</title>
<path fill="none" stroke="#63b8ff" d="M43.79,-149.76C52.18,-118.28 72.62,-58.79 113,-27.5 117.31,-24.16 122.13,-21.42 127.2,-19.17"/>
<polygon fill="#63b8ff" stroke="#63b8ff" points="40.46,-148.67 41.43,-159.22 47.25,-150.36 40.46,-148.67"/>
</g>
<!-- Node5&#45;&gt;Node2 -->
<g id="edge5" class="edge">
<title>Node5&#45;&gt;Node2</title>
<path fill="none" stroke="orange" stroke-dasharray="5,2" d="M266.61,-303.82C319.52,-307.11 392.73,-312 457,-317.5 462.77,-317.99 468.71,-318.53 474.69,-319.09"/>
<polygon fill="orange" stroke="orange" points="267.01,-300.34 256.82,-303.22 266.58,-307.33 267.01,-300.34"/>
<text text-anchor="middle" x="373.5" y="-320.5" font-family="Helvetica,sans-Serif" font-size="10.00"> &lt; OLAP_FIELD_TYPE_VARCHAR &gt;</text>
</g>
<!-- Node7&#45;&gt;Node3 -->
<g id="edge8" class="edge">
<title>Node7&#45;&gt;Node3</title>
<path fill="none" stroke="orange" stroke-dasharray="5,2" d="M263.55,-202.16C328.45,-191.65 424.63,-176.07 490.59,-165.39"/>
<polygon fill="orange" stroke="orange" points="263.01,-198.7 253.7,-203.75 264.13,-205.61 263.01,-198.7"/>
<text text-anchor="middle" x="373.5" y="-199.5" font-family="Helvetica,sans-Serif" font-size="10.00"> &lt; OLAP_FIELD_TYPE_INT &gt;</text>
</g>
</g>
</svg>
        <g id="navigator" transform="translate(0 0)" fill="#404254">
                <rect fill="#f2f5e9" fill-opacity="0.5" stroke="#606060" stroke-width=".5" x="0" y="0" width="60" height="60"/>
                <use id="zoomplus" xlink:href="#zoomPlus" x="17" y="9" onmousedown="handleZoom(evt,'in')"/>
                <use id="zoomminus" xlink:href="#zoomMin" x="42" y="9" onmousedown="handleZoom(evt,'out')"/>
                <use id="reset" xlink:href="#resetDef" x="30" y="36" onmousedown="handleReset()"/>
                <g id="arrowUp" xlink:href="#dirArrow" transform="translate(30 24)" onmousedown="handlePan(0,-1)">
                  <use xlink:href="#rim" fill="#404040">
                        <set attributeName="fill" to="#808080" begin="arrowUp.mouseover" end="arrowUp.mouseout"/>
                  </use>
                  <path fill="none" stroke="white" stroke-width="1.5" d="M0,-3.0v7 M-2.5,-0.5L0,-3.0L2.5,-0.5"/>
                </g>
                <g id="arrowRight" xlink:href="#dirArrow" transform="rotate(90) translate(36 -43)" onmousedown="handlePan(1,0)">
                  <use xlink:href="#rim" fill="#404040">
                        <set attributeName="fill" to="#808080" begin="arrowRight.mouseover" end="arrowRight.mouseout"/>
                  </use>
                  <path fill="none" stroke="white" stroke-width="1.5" d="M0,-3.0v7 M-2.5,-0.5L0,-3.0L2.5,-0.5"/>
                </g>
                <g id="arrowDown" xlink:href="#dirArrow" transform="rotate(180) translate(-30 -48)" onmousedown="handlePan(0,1)">
                  <use xlink:href="#rim" fill="#404040">
                        <set attributeName="fill" to="#808080" begin="arrowDown.mouseover" end="arrowDown.mouseout"/>
                  </use>
                  <path fill="none" stroke="white" stroke-width="1.5" d="M0,-3.0v7 M-2.5,-0.5L0,-3.0L2.5,-0.5"/>
                </g>
                <g id="arrowLeft" xlink:href="#dirArrow" transform="rotate(270) translate(-36 17)" onmousedown="handlePan(-1,0)">
                  <use xlink:href="#rim" fill="#404040">
                        <set attributeName="fill" to="#808080" begin="arrowLeft.mouseover" end="arrowLeft.mouseout"/>
                  </use>
                  <path fill="none" stroke="white" stroke-width="1.5" d="M0,-3.0v7 M-2.5,-0.5L0,-3.0L2.5,-0.5"/>
                </g>
        </g>
        <svg viewBox="0 0 15 15" width="100%" height="30px" preserveAspectRatio="xMaxYMin meet">
         <g id="arrow_out" transform="scale(0.3 0.3)">
          <a xlink:href="classdoris_1_1segment__v2_1_1_page_decoder__inherit__graph_org.svg" target="_base">
           <rect id="button" ry="5" rx="5" y="6" x="6" height="38" width="38"
                fill="#f2f5e9" fill-opacity="0.5" stroke="#606060" stroke-width="1.0"/>
           <path id="arrow"
             d="M 11.500037,31.436501 C 11.940474,20.09759 22.043105,11.32322 32.158766,21.979434 L 37.068811,17.246167 C 37.068811,17.246167 37.088388,32 37.088388,32 L 22.160133,31.978069 C 22.160133,31.978069 26.997745,27.140456 26.997745,27.140456 C 18.528582,18.264221 13.291696,25.230495 11.500037,31.436501 z"
             style="fill:#404040;"/>
          </a>
         </g>
        </svg>
</svg>
