<?xml version="1.0" encoding="UTF-8" standalone="no"?>
<!DOCTYPE svg PUBLIC "-//W3C//DTD SVG 1.1//EN"
 "http://www.w3.org/Graphics/SVG/1.1/DTD/svg11.dtd">
<!-- Generated by graphviz version 7.1.0 (20230121.1956)
 -->
<!-- Title: is_match_value_range Pages: 1 -->
<svg width="1440pt" height="252pt"
 viewBox="0.00 0.00 1440.00 252.00" xmlns="http://www.w3.org/2000/svg" xmlns:xlink="http://www.w3.org/1999/xlink">
<g id="graph0" class="graph" transform="scale(1 1) rotate(0) translate(4 248)">
<title>is_match_value_range</title>
<!-- Node1 -->
<g id="node1" class="node">
<title>Node1</title>
<g id="a_node1"><a xlink:title=" ">
<polygon fill="#999999" stroke="#666666" points="1432,-161 1318,-161 1318,-142 1432,-142 1432,-161"/>
<text text-anchor="middle" x="1375" y="-149" font-family="Helvetica,sans-Serif" font-size="10.00">is_match_value_range</text>
</a>
</g>
</g>
<!-- Node2 -->
<g id="node2" class="node">
<title>Node2</title>
<g id="a_node2"><a xlink:href="../../d5/d1a/classdoris_1_1_olap_scan_keys.html#a92a776d42cf4f88fe404631284fa1c88" target="_top" xlink:title=" ">
<polygon fill="white" stroke="#666666" points="1282,-228.5 1173,-228.5 1173,-198.5 1282,-198.5 1282,-228.5"/>
<text text-anchor="start" x="1181" y="-216.5" font-family="Helvetica,sans-Serif" font-size="10.00">doris::OlapScanKeys</text>
<text text-anchor="middle" x="1227.5" y="-205.5" font-family="Helvetica,sans-Serif" font-size="10.00">::extend_scan_key</text>
</a>
</g>
</g>
<!-- Node1&#45;&gt;Node2 -->
<g id="edge1" class="edge">
<title>Node1&#45;&gt;Node2</title>
<path fill="none" stroke="#63b8ff" d="M1340.14,-165.93C1317.48,-175.58 1287.71,-188.27 1264.61,-198.11"/>
<polygon fill="#63b8ff" stroke="#63b8ff" points="1341.4,-169.19 1349.23,-162.05 1338.66,-162.76 1341.4,-169.19"/>
</g>
<!-- Node5 -->
<g id="node5" class="node">
<title>Node5</title>
<g id="a_node5"><a xlink:href="../../d5/d96/classdoris_1_1_column_value_range.html#a80595704e067f510ba5c87b15d304a92" target="_top" xlink:title=" ">
<polygon fill="white" stroke="#666666" points="1261,-161 1194,-161 1194,-142 1261,-142 1261,-161"/>
<text text-anchor="middle" x="1227.5" y="-149" font-family="Helvetica,sans-Serif" font-size="10.00">intersection</text>
</a>
</g>
</g>
<!-- Node1&#45;&gt;Node5 -->
<g id="edge4" class="edge">
<title>Node1&#45;&gt;Node5</title>
<path fill="none" stroke="#63b8ff" d="M1306.45,-151.5C1290.81,-151.5 1274.84,-151.5 1261.47,-151.5"/>
<polygon fill="#63b8ff" stroke="#63b8ff" points="1306.23,-155 1316.23,-151.5 1306.23,-148 1306.23,-155"/>
</g>
<!-- Node17 -->
<g id="node17" class="node">
<title>Node17</title>
<g id="a_node17"><a xlink:href="../../d5/d96/classdoris_1_1_column_value_range.html#a7cd9cec2a54a44806b31962e73e46e4d" target="_top" xlink:title=" ">
<polygon fill="white" stroke="#666666" points="1263.5,-124 1191.5,-124 1191.5,-105 1263.5,-105 1263.5,-124"/>
<text text-anchor="middle" x="1227.5" y="-112" font-family="Helvetica,sans-Serif" font-size="10.00">to_olap_filter</text>
</a>
</g>
</g>
<!-- Node1&#45;&gt;Node17 -->
<g id="edge22" class="edge">
<title>Node1&#45;&gt;Node17</title>
<path fill="none" stroke="#63b8ff" d="M1323.96,-138.78C1304.09,-133.72 1281.71,-128.03 1263.62,-123.43"/>
<polygon fill="#63b8ff" stroke="#63b8ff" points="1322.99,-142.14 1333.54,-141.21 1324.71,-135.36 1322.99,-142.14"/>
</g>
<!-- Node3 -->
<g id="node3" class="node">
<title>Node3</title>
<g id="a_node3"><a xlink:href="../../d9/d19/classdoris_1_1vectorized_1_1_new_olap_scan_node.html#a2bf2c1da27d85e118ac8be6223bc339d" target="_top" xlink:title=" ">
<polygon fill="white" stroke="#666666" points="628,-244 494,-244 494,-203 628,-203 628,-244"/>
<text text-anchor="start" x="502" y="-232" font-family="Helvetica,sans-Serif" font-size="10.00">doris::vectorized::</text>
<text text-anchor="start" x="502" y="-221" font-family="Helvetica,sans-Serif" font-size="10.00">NewOlapScanNode::_build</text>
<text text-anchor="middle" x="561" y="-210" font-family="Helvetica,sans-Serif" font-size="10.00">_key_ranges_and_filters</text>
</a>
</g>
</g>
<!-- Node2&#45;&gt;Node3 -->
<g id="edge2" class="edge">
<title>Node2&#45;&gt;Node3</title>
<path fill="none" stroke="#63b8ff" d="M1161.26,-214.48C1034.51,-216.39 756.2,-220.58 628.46,-222.5"/>
<polygon fill="#63b8ff" stroke="#63b8ff" points="1161.22,-217.98 1171.17,-214.33 1161.12,-210.98 1161.22,-217.98"/>
</g>
<!-- Node4 -->
<g id="node4" class="node">
<title>Node4</title>
<g id="a_node4"><a xlink:href="../../d9/d19/classdoris_1_1vectorized_1_1_new_olap_scan_node.html#a542bd4a442f8fa85fd475e783ee7c746" target="_top" xlink:title=" ">
<polygon fill="white" stroke="#666666" points="149,-244 0,-244 0,-203 149,-203 149,-244"/>
<text text-anchor="start" x="8" y="-232" font-family="Helvetica,sans-Serif" font-size="10.00">doris::vectorized::</text>
<text text-anchor="start" x="8" y="-221" font-family="Helvetica,sans-Serif" font-size="10.00">NewOlapScanNode::_process</text>
<text text-anchor="middle" x="74.5" y="-210" font-family="Helvetica,sans-Serif" font-size="10.00">_conjuncts</text>
</a>
</g>
</g>
<!-- Node3&#45;&gt;Node4 -->
<g id="edge3" class="edge">
<title>Node3&#45;&gt;Node4</title>
<path fill="none" stroke="#63b8ff" d="M482.22,-223.5C390.54,-223.5 239.31,-223.5 149.37,-223.5"/>
<polygon fill="#63b8ff" stroke="#63b8ff" points="482.13,-227 492.13,-223.5 482.13,-220 482.13,-227"/>
</g>
<!-- Node6 -->
<g id="node6" class="node">
<title>Node6</title>
<g id="a_node6"><a xlink:href="../../de/dbb/classdoris_1_1vectorized_1_1_v_scan_node.html#a8045add38d6efabcf111e507a0f2739e" target="_top" xlink:title=" ">
<polygon fill="white" stroke="#666666" points="786,-195 664,-195 664,-154 786,-154 786,-195"/>
<text text-anchor="start" x="672" y="-183" font-family="Helvetica,sans-Serif" font-size="10.00">doris::vectorized::</text>
<text text-anchor="start" x="672" y="-172" font-family="Helvetica,sans-Serif" font-size="10.00">VScanNode::_normalize</text>
<text text-anchor="middle" x="725" y="-161" font-family="Helvetica,sans-Serif" font-size="10.00">_in_and_eq_predicate</text>
</a>
</g>
</g>
<!-- Node5&#45;&gt;Node6 -->
<g id="edge5" class="edge">
<title>Node5&#45;&gt;Node6</title>
<path fill="none" stroke="#63b8ff" d="M1182.57,-154.53C1168.06,-155.51 1151.84,-156.58 1137,-157.5 1066.8,-161.85 1049.27,-163.39 979,-166.5 913.15,-169.42 837.6,-171.66 786.34,-173.02"/>
<polygon fill="#63b8ff" stroke="#63b8ff" points="1182.52,-158.04 1192.26,-153.88 1182.05,-151.06 1182.52,-158.04"/>
</g>
<!-- Node13 -->
<g id="node13" class="node">
<title>Node13</title>
<g id="a_node13"><a xlink:href="../../de/dbb/classdoris_1_1vectorized_1_1_v_scan_node.html#a7856b5d634dfe5f278392b51c33c8838" target="_top" xlink:title=" ">
<polygon fill="white" stroke="#666666" points="961.5,-157 839.5,-157 839.5,-116 961.5,-116 961.5,-157"/>
<text text-anchor="start" x="847.5" y="-145" font-family="Helvetica,sans-Serif" font-size="10.00">doris::vectorized::</text>
<text text-anchor="start" x="847.5" y="-134" font-family="Helvetica,sans-Serif" font-size="10.00">VScanNode::_normalize</text>
<text text-anchor="middle" x="900.5" y="-123" font-family="Helvetica,sans-Serif" font-size="10.00">_is_null_predicate</text>
</a>
</g>
</g>
<!-- Node5&#45;&gt;Node13 -->
<g id="edge14" class="edge">
<title>Node5&#45;&gt;Node13</title>
<path fill="none" stroke="#63b8ff" d="M1182.39,-149.46C1125.35,-146.83 1025.76,-142.24 961.78,-139.28"/>
<polygon fill="#63b8ff" stroke="#63b8ff" points="1181.89,-152.94 1192.04,-149.91 1182.21,-145.95 1181.89,-152.94"/>
</g>
<!-- Node14 -->
<g id="node14" class="node">
<title>Node14</title>
<g id="a_node14"><a xlink:href="../../de/dbb/classdoris_1_1vectorized_1_1_v_scan_node.html#aab57252ed752036603793e49597a111b" target="_top" xlink:title=" ">
<polygon fill="white" stroke="#666666" points="1137,-108 1015,-108 1015,-67 1137,-67 1137,-108"/>
<text text-anchor="start" x="1023" y="-96" font-family="Helvetica,sans-Serif" font-size="10.00">doris::vectorized::</text>
<text text-anchor="start" x="1023" y="-85" font-family="Helvetica,sans-Serif" font-size="10.00">VScanNode::_normalize</text>
<text text-anchor="middle" x="1076" y="-74" font-family="Helvetica,sans-Serif" font-size="10.00">_match_predicate</text>
</a>
</g>
</g>
<!-- Node5&#45;&gt;Node14 -->
<g id="edge16" class="edge">
<title>Node5&#45;&gt;Node14</title>
<path fill="none" stroke="#63b8ff" d="M1184.18,-137.8C1180.38,-136.41 1176.6,-134.96 1173,-133.5 1154.51,-125.99 1134.53,-116.63 1117.62,-108.32"/>
<polygon fill="#63b8ff" stroke="#63b8ff" points="1182.84,-141.04 1193.44,-141.07 1185.17,-134.44 1182.84,-141.04"/>
</g>
<!-- Node7 -->
<g id="node7" class="node">
<title>Node7</title>
<g id="a_node7"><a xlink:href="../../de/dbb/classdoris_1_1vectorized_1_1_v_scan_node.html#ac79e0ebd9e6804b899c0337752bf97fe" target="_top" xlink:title=" ">
<polygon fill="white" stroke="#666666" points="622,-136 500,-136 500,-95 622,-95 622,-136"/>
<text text-anchor="start" x="508" y="-124" font-family="Helvetica,sans-Serif" font-size="10.00">doris::vectorized::</text>
<text text-anchor="start" x="508" y="-113" font-family="Helvetica,sans-Serif" font-size="10.00">VScanNode::_normalize</text>
<text text-anchor="middle" x="561" y="-102" font-family="Helvetica,sans-Serif" font-size="10.00">_predicate</text>
</a>
</g>
</g>
<!-- Node6&#45;&gt;Node7 -->
<g id="edge6" class="edge">
<title>Node6&#45;&gt;Node7</title>
<path fill="none" stroke="#63b8ff" d="M655.95,-149.72C643.88,-145.32 631.41,-140.78 619.66,-136.5"/>
<polygon fill="#63b8ff" stroke="#63b8ff" points="654.41,-152.88 665.01,-153.01 656.81,-146.3 654.41,-152.88"/>
</g>
<!-- Node7&#45;&gt;Node7 -->
<g id="edge13" class="edge">
<title>Node7&#45;&gt;Node7</title>
<path fill="none" stroke="#63b8ff" d="M587.99,-147.18C583.33,-151.29 574.33,-154 561,-154 537.94,-154 527.85,-145.88 530.73,-136.49"/>
<polygon fill="#63b8ff" stroke="#63b8ff" points="591.24,-148.52 590.83,-137.94 584.55,-146.47 591.24,-148.52"/>
</g>
<!-- Node8 -->
<g id="node8" class="node">
<title>Node8</title>
<g id="a_node8"><a xlink:href="../../de/dbb/classdoris_1_1vectorized_1_1_v_scan_node.html#a3cf358fea89473aeb40a2605ff8c58d8" target="_top" xlink:title=" ">
<polygon fill="white" stroke="#666666" points="458,-136 336,-136 336,-95 458,-95 458,-136"/>
<text text-anchor="start" x="344" y="-124" font-family="Helvetica,sans-Serif" font-size="10.00">doris::vectorized::</text>
<text text-anchor="start" x="344" y="-113" font-family="Helvetica,sans-Serif" font-size="10.00">VScanNode::_normalize</text>
<text text-anchor="middle" x="397" y="-102" font-family="Helvetica,sans-Serif" font-size="10.00">_conjuncts</text>
</a>
</g>
</g>
<!-- Node7&#45;&gt;Node8 -->
<g id="edge7" class="edge">
<title>Node7&#45;&gt;Node8</title>
<path fill="none" stroke="#63b8ff" d="M488.46,-115.5C478.42,-115.5 468.18,-115.5 458.37,-115.5"/>
<polygon fill="#63b8ff" stroke="#63b8ff" points="488.16,-119 498.16,-115.5 488.16,-112 488.16,-119"/>
</g>
<!-- Node9 -->
<g id="node9" class="node">
<title>Node9</title>
<g id="a_node9"><a xlink:href="../../de/dbb/classdoris_1_1vectorized_1_1_v_scan_node.html#a64cef8a2c5d23e14d1cf4fedbf1466e2" target="_top" xlink:title=" ">
<polygon fill="white" stroke="#666666" points="300,-136 185,-136 185,-95 300,-95 300,-136"/>
<text text-anchor="start" x="193" y="-124" font-family="Helvetica,sans-Serif" font-size="10.00">doris::vectorized::</text>
<text text-anchor="start" x="193" y="-113" font-family="Helvetica,sans-Serif" font-size="10.00">VScanNode::_process</text>
<text text-anchor="middle" x="242.5" y="-102" font-family="Helvetica,sans-Serif" font-size="10.00">_conjuncts</text>
</a>
</g>
</g>
<!-- Node8&#45;&gt;Node9 -->
<g id="edge8" class="edge">
<title>Node8&#45;&gt;Node9</title>
<path fill="none" stroke="#63b8ff" d="M324.41,-115.5C316.34,-115.5 308.2,-115.5 300.35,-115.5"/>
<polygon fill="#63b8ff" stroke="#63b8ff" points="324.21,-119 334.21,-115.5 324.21,-112 324.21,-119"/>
</g>
<!-- Node9&#45;&gt;Node4 -->
<g id="edge11" class="edge">
<title>Node9&#45;&gt;Node4</title>
<path fill="none" stroke="#63b8ff" d="M213.34,-143.88C195.93,-160.28 172.49,-180.38 149,-194.5 144.18,-197.4 139.02,-200.11 133.75,-202.63"/>
<polygon fill="#63b8ff" stroke="#63b8ff" points="215.49,-146.67 220.28,-137.22 210.64,-141.62 215.49,-146.67"/>
</g>
<!-- Node10 -->
<g id="node10" class="node">
<title>Node10</title>
<g id="a_node10"><a xlink:href="../../d2/dc5/classdoris_1_1vectorized_1_1_new_es_scan_node.html#a542bd4a442f8fa85fd475e783ee7c746" target="_top" xlink:title=" ">
<polygon fill="white" stroke="#666666" points="144.5,-185 4.5,-185 4.5,-144 144.5,-144 144.5,-185"/>
<text text-anchor="start" x="12.5" y="-173" font-family="Helvetica,sans-Serif" font-size="10.00">doris::vectorized::</text>
<text text-anchor="start" x="12.5" y="-162" font-family="Helvetica,sans-Serif" font-size="10.00">NewEsScanNode::_process</text>
<text text-anchor="middle" x="74.5" y="-151" font-family="Helvetica,sans-Serif" font-size="10.00">_conjuncts</text>
</a>
</g>
</g>
<!-- Node9&#45;&gt;Node10 -->
<g id="edge9" class="edge">
<title>Node9&#45;&gt;Node10</title>
<path fill="none" stroke="#63b8ff" d="M174.1,-135.4C164.45,-138.24 154.52,-141.18 144.83,-144.03"/>
<polygon fill="#63b8ff" stroke="#63b8ff" points="174.78,-138.84 183.38,-132.65 172.8,-132.13 174.78,-138.84"/>
</g>
<!-- Node11 -->
<g id="node11" class="node">
<title>Node11</title>
<g id="a_node11"><a xlink:href="../../d9/d1c/classdoris_1_1vectorized_1_1_new_file_scan_node.html#a542bd4a442f8fa85fd475e783ee7c746" target="_top" xlink:title=" ">
<polygon fill="white" stroke="#666666" points="146.5,-126 2.5,-126 2.5,-85 146.5,-85 146.5,-126"/>
<text text-anchor="start" x="10.5" y="-114" font-family="Helvetica,sans-Serif" font-size="10.00">doris::vectorized::</text>
<text text-anchor="start" x="10.5" y="-103" font-family="Helvetica,sans-Serif" font-size="10.00">NewFileScanNode::_process</text>
<text text-anchor="middle" x="74.5" y="-92" font-family="Helvetica,sans-Serif" font-size="10.00">_conjuncts</text>
</a>
</g>
</g>
<!-- Node9&#45;&gt;Node11 -->
<g id="edge10" class="edge">
<title>Node9&#45;&gt;Node11</title>
<path fill="none" stroke="#63b8ff" d="M173.47,-111.4C164.7,-110.87 155.7,-110.33 146.88,-109.8"/>
<polygon fill="#63b8ff" stroke="#63b8ff" points="173.13,-114.89 183.33,-112 173.55,-107.9 173.13,-114.89"/>
</g>
<!-- Node12 -->
<g id="node12" class="node">
<title>Node12</title>
<g id="a_node12"><a xlink:href="../../de/dbb/classdoris_1_1vectorized_1_1_v_scan_node.html#a4563a8abb973cbbc4904c263665bb0fe" target="_top" xlink:title=" ">
<polygon fill="white" stroke="#666666" points="143.5,-66.5 5.5,-66.5 5.5,-36.5 143.5,-36.5 143.5,-66.5"/>
<text text-anchor="start" x="13.5" y="-54.5" font-family="Helvetica,sans-Serif" font-size="10.00">doris::vectorized::</text>
<text text-anchor="middle" x="74.5" y="-43.5" font-family="Helvetica,sans-Serif" font-size="10.00">VScanNode::alloc_resource</text>
</a>
</g>
</g>
<!-- Node9&#45;&gt;Node12 -->
<g id="edge12" class="edge">
<title>Node9&#45;&gt;Node12</title>
<path fill="none" stroke="#63b8ff" d="M183.48,-90.3C172.11,-85.57 160.22,-80.77 149,-76.5 140.43,-73.24 131.23,-69.95 122.34,-66.87"/>
<polygon fill="#63b8ff" stroke="#63b8ff" points="181.78,-93.38 192.36,-94.02 184.49,-86.92 181.78,-93.38"/>
</g>
<!-- Node13&#45;&gt;Node7 -->
<g id="edge15" class="edge">
<title>Node13&#45;&gt;Node7</title>
<path fill="none" stroke="#63b8ff" d="M827.69,-132.03C766.62,-128.23 679.93,-122.84 622.38,-119.26"/>
<polygon fill="#63b8ff" stroke="#63b8ff" points="827.45,-135.52 837.65,-132.65 827.89,-128.54 827.45,-135.52"/>
</g>
<!-- Node14&#45;&gt;Node7 -->
<g id="edge21" class="edge">
<title>Node14&#45;&gt;Node7</title>
<path fill="none" stroke="#63b8ff" d="M1003.26,-91.42C901.51,-96.97 717.11,-107.03 622.13,-112.22"/>
<polygon fill="#63b8ff" stroke="#63b8ff" points="1003.34,-94.92 1013.13,-90.88 1002.96,-87.93 1003.34,-94.92"/>
</g>
<!-- Node15 -->
<g id="node15" class="node">
<title>Node15</title>
<g id="a_node15"><a xlink:href="../../de/dbb/classdoris_1_1vectorized_1_1_v_scan_node.html#a441cb1816d5c086398d1123fd4d8a9d7" target="_top" xlink:title=" ">
<polygon fill="white" stroke="#666666" points="979,-50 822,-50 822,-9 979,-9 979,-50"/>
<text text-anchor="start" x="830" y="-38" font-family="Helvetica,sans-Serif" font-size="10.00">doris::vectorized::</text>
<text text-anchor="start" x="830" y="-27" font-family="Helvetica,sans-Serif" font-size="10.00">VScanNode::_normalize</text>
<text text-anchor="middle" x="900.5" y="-16" font-family="Helvetica,sans-Serif" font-size="10.00">_match_in_compound_predicate</text>
</a>
</g>
</g>
<!-- Node14&#45;&gt;Node15 -->
<g id="edge17" class="edge">
<title>Node14&#45;&gt;Node15</title>
<path fill="none" stroke="#63b8ff" d="M1003.91,-63.73C990.76,-59.34 977.12,-54.78 964.24,-50.47"/>
<polygon fill="#63b8ff" stroke="#63b8ff" points="1002.78,-67.05 1013.37,-66.9 1005,-60.41 1002.78,-67.05"/>
</g>
<!-- Node16 -->
<g id="node16" class="node">
<title>Node16</title>
<g id="a_node16"><a xlink:href="../../de/dbb/classdoris_1_1vectorized_1_1_v_scan_node.html#ad14e61ab96b8fd54ad3cc9bcb55958e5" target="_top" xlink:title=" ">
<polygon fill="white" stroke="#666666" points="786,-41 664,-41 664,0 786,0 786,-41"/>
<text text-anchor="start" x="672" y="-29" font-family="Helvetica,sans-Serif" font-size="10.00">doris::vectorized::</text>
<text text-anchor="start" x="672" y="-18" font-family="Helvetica,sans-Serif" font-size="10.00">VScanNode::_normalize</text>
<text text-anchor="middle" x="725" y="-7" font-family="Helvetica,sans-Serif" font-size="10.00">_compound_predicate</text>
</a>
</g>
</g>
<!-- Node15&#45;&gt;Node16 -->
<g id="edge18" class="edge">
<title>Node15&#45;&gt;Node16</title>
<path fill="none" stroke="#63b8ff" d="M810.25,-24.87C802.2,-24.45 794.17,-24.04 786.45,-23.64"/>
<polygon fill="#63b8ff" stroke="#63b8ff" points="809.95,-28.36 820.12,-25.38 810.31,-21.37 809.95,-28.36"/>
</g>
<!-- Node16&#45;&gt;Node7 -->
<g id="edge20" class="edge">
<title>Node16&#45;&gt;Node7</title>
<path fill="none" stroke="#63b8ff" d="M678.61,-47.12C653.04,-62.11 621.55,-80.58 597.75,-94.54"/>
<polygon fill="#63b8ff" stroke="#63b8ff" points="680.29,-50.19 687.14,-42.11 676.75,-44.15 680.29,-50.19"/>
</g>
<!-- Node16&#45;&gt;Node16 -->
<g id="edge19" class="edge">
<title>Node16&#45;&gt;Node16</title>
<path fill="none" stroke="#63b8ff" d="M751.99,-52.18C747.33,-56.29 738.33,-59 725,-59 701.94,-59 691.85,-50.88 694.73,-41.49"/>
<polygon fill="#63b8ff" stroke="#63b8ff" points="755.24,-53.52 754.83,-42.94 748.55,-51.47 755.24,-53.52"/>
</g>
</g>
</svg>
