<?xml version="1.0" encoding="UTF-8" standalone="no"?>
<!DOCTYPE svg PUBLIC "-//W3C//DTD SVG 1.1//EN"
 "http://www.w3.org/Graphics/SVG/1.1/DTD/svg11.dtd">
<!-- Generated by graphviz version 7.1.0 (20230121.1956)
 -->
<!-- Title: can_do_bloom_filter Pages: 1 -->
<svg width="281pt" height="98pt"
 viewBox="0.00 0.00 281.00 97.50" xmlns="http://www.w3.org/2000/svg" xmlns:xlink="http://www.w3.org/1999/xlink">
<g id="graph0" class="graph" transform="scale(1 1) rotate(0) translate(4 93.5)">
<title>can_do_bloom_filter</title>
<!-- Node1 -->
<g id="node1" class="node">
<title>Node1</title>
<g id="a_node1"><a xlink:title=" ">
<polygon fill="#999999" stroke="#666666" points="273,-57 169,-57 169,-38 273,-38 273,-57"/>
<text text-anchor="middle" x="221" y="-45" font-family="Helvetica,sans-Serif" font-size="10.00">can_do_bloom_filter</text>
</a>
</g>
</g>
<!-- Node2 -->
<g id="node2" class="node">
<title>Node2</title>
<g id="a_node2"><a xlink:href="../../d0/d70/classdoris_1_1_accept_null_predicate.html#a36554c6b452251bb0ae9417226ba0c67" target="_top" xlink:title=" ">
<polygon fill="white" stroke="#666666" points="133,-89.5 0,-89.5 0,-59.5 133,-59.5 133,-89.5"/>
<text text-anchor="start" x="8" y="-77.5" font-family="Helvetica,sans-Serif" font-size="10.00">doris::AcceptNullPredicate</text>
<text text-anchor="middle" x="66.5" y="-66.5" font-family="Helvetica,sans-Serif" font-size="10.00">::can_do_bloom_filter</text>
</a>
</g>
</g>
<!-- Node1&#45;&gt;Node2 -->
<g id="edge1" class="edge">
<title>Node1&#45;&gt;Node2</title>
<path fill="none" stroke="#63b8ff" d="M157.69,-58.53C149.7,-59.95 141.5,-61.4 133.46,-62.82"/>
<polygon fill="#63b8ff" stroke="#63b8ff" points="158.07,-62.02 167.31,-56.83 156.85,-55.13 158.07,-62.02"/>
</g>
<!-- Node3 -->
<g id="node3" class="node">
<title>Node3</title>
<g id="a_node3"><a xlink:href="../../d5/d51/classdoris_1_1_single_column_block_predicate.html#a36554c6b452251bb0ae9417226ba0c67" target="_top" xlink:title=" ">
<polygon fill="white" stroke="#666666" points="131,-41 2,-41 2,0 131,0 131,-41"/>
<text text-anchor="start" x="10" y="-29" font-family="Helvetica,sans-Serif" font-size="10.00">doris::SingleColumnBlock</text>
<text text-anchor="start" x="10" y="-18" font-family="Helvetica,sans-Serif" font-size="10.00">Predicate::can_do_bloom</text>
<text text-anchor="middle" x="66.5" y="-7" font-family="Helvetica,sans-Serif" font-size="10.00">_filter</text>
</a>
</g>
</g>
<!-- Node1&#45;&gt;Node3 -->
<g id="edge2" class="edge">
<title>Node1&#45;&gt;Node3</title>
<path fill="none" stroke="#63b8ff" d="M157.58,-36.45C148.91,-34.91 140,-33.34 131.3,-31.8"/>
<polygon fill="#63b8ff" stroke="#63b8ff" points="156.85,-39.87 167.31,-38.17 158.07,-32.98 156.85,-39.87"/>
</g>
</g>
</svg>
