<?xml version="1.0" encoding="UTF-8" standalone="no"?>
<!DOCTYPE svg PUBLIC "-//W3C//DTD SVG 1.1//EN"
 "http://www.w3.org/Graphics/SVG/1.1/DTD/svg11.dtd">
<!-- Generated by graphviz version 7.1.0 (20230121.1956)
 -->
<!-- Title: summarize_thread_descriptor Pages: 1 -->
<!--zoomable 307 -->
<svg id="main" version="1.1" xmlns="http://www.w3.org/2000/svg" xmlns:xlink="http://www.w3.org/1999/xlink" xml:space="preserve" onload="init(evt)">
<style type="text/css"><![CDATA[
.edge:hover path { stroke: red; }
.edge:hover polygon { stroke: red; fill: red; }
]]></style>
<script type="text/javascript"><![CDATA[
var edges = document.getElementsByTagName('g');
if (edges && edges.length) {
  for (var i=0;i<edges.length;i++) {
    if (edges[i].id.substr(0,4)=='edge') {
      edges[i].setAttribute('class','edge');
    }
  }
}
]]></script>
        <defs>
                <circle id="rim" cx="0" cy="0" r="7"/>
                <circle id="rim2" cx="0" cy="0" r="3.5"/>
                <g id="zoomPlus">
                        <use xlink:href="#rim" fill="#404040">
                                <set attributeName="fill" to="#808080" begin="zoomplus.mouseover" end="zoomplus.mouseout"/>
                        </use>
                        <path d="M-4,0h8M0,-4v8" fill="none" stroke="white" stroke-width="1.5" pointer-events="none"/>
                </g>
                <g id="zoomMin">
                        <use xlink:href="#rim" fill="#404040">
                                <set attributeName="fill" to="#808080" begin="zoomminus.mouseover" end="zoomminus.mouseout"/>
                        </use>
                        <path d="M-4,0h8" fill="none" stroke="white" stroke-width="1.5" pointer-events="none"/>
                </g>
                <g id="dirArrow">
                        <path fill="none" stroke="white" stroke-width="1.5" d="M0,-3.0v7 M-2.5,-0.5L0,-3.0L2.5,-0.5"/>
                </g>
               <g id="resetDef">
                       <use xlink:href="#rim2" fill="#404040">
                               <set attributeName="fill" to="#808080" begin="reset.mouseover" end="reset.mouseout"/>
                       </use>
               </g>
        </defs>

<script type="text/javascript">
var viewWidth = 833;
var viewHeight = 307;
var sectionId = 'dynsection-5';
</script>
<script xlink:href="../../svgpan.js"/>
<svg id="graph" class="graph">
<g id="viewport">
<title>summarize_thread_descriptor</title>
<!-- Node1 -->
<g id="node1" class="node">
<title>Node1</title>
<g id="a_node1"><a xlink:title=" ">
<polygon fill="#999999" stroke="#666666" points="145,-123 0,-123 0,-104 145,-104 145,-123"/>
<text text-anchor="middle" x="72.5" y="-111" font-family="Helvetica,sans-Serif" font-size="10.00">summarize_thread_descriptor</text>
</a>
</g>
</g>
<!-- Node2 -->
<g id="node2" class="node">
<title>Node2</title>
<g id="a_node2"><a xlink:href="../../d6/d94/namespacedoris.html#a48784f1be6c81f0f8130f63d11e7b604" target="_top" xlink:title=" ">
<polygon fill="white" stroke="#666666" points="308,-228 192,-228 192,-209 308,-209 308,-228"/>
<text text-anchor="middle" x="250" y="-216" font-family="Helvetica,sans-Serif" font-size="10.00">doris::get_thread_stats</text>
</a>
</g>
</g>
<!-- Node1&#45;&gt;Node2 -->
<g id="edge1" class="edge">
<title>Node1&#45;&gt;Node2</title>
<path fill="none" stroke="#63b8ff" d="M82.91,-123.29C100.53,-141.05 140.37,-178.68 181,-199.5 184.71,-201.4 188.63,-203.13 192.65,-204.7"/>
<polygon fill="#63b8ff" stroke="#63b8ff" points="191.38,-207.97 201.98,-208 193.72,-201.37 191.38,-207.97"/>
</g>
<!-- Node13 -->
<g id="node13" class="node">
<title>Node13</title>
<g id="a_node13"><a xlink:href="../../d0/db0/classdoris_1_1_thread_mgr_1_1_thread_descriptor.html#a24dcbf29c0d6cd766009a182a6484e3b" target="_top" xlink:title=" ">
<polygon fill="white" stroke="#666666" points="313,-190.5 187,-190.5 187,-160.5 313,-160.5 313,-190.5"/>
<text text-anchor="start" x="195" y="-178.5" font-family="Helvetica,sans-Serif" font-size="10.00">doris::ThreadMgr::Thread</text>
<text text-anchor="middle" x="250" y="-167.5" font-family="Helvetica,sans-Serif" font-size="10.00">Descriptor::name</text>
</a>
</g>
</g>
<!-- Node1&#45;&gt;Node13 -->
<g id="edge13" class="edge">
<title>Node1&#45;&gt;Node13</title>
<path fill="none" stroke="#63b8ff" d="M101.7,-123.46C126.75,-132.31 164.05,-145.49 194.85,-156.37"/>
<polygon fill="#63b8ff" stroke="#63b8ff" points="193.43,-159.58 204.02,-159.61 195.76,-152.98 193.43,-159.58"/>
</g>
<!-- Node14 -->
<g id="node14" class="node">
<title>Node14</title>
<g id="a_node14"><a xlink:href="../../d9/d8d/classdoris_1_1_status.html#a03cb7eaa663dc83af68bc28a596d09e6" target="_top" xlink:title=" ">
<polygon fill="white" stroke="#666666" points="294.5,-142 205.5,-142 205.5,-123 294.5,-123 294.5,-142"/>
<text text-anchor="middle" x="250" y="-130" font-family="Helvetica,sans-Serif" font-size="10.00">doris::Status::ok</text>
</a>
</g>
</g>
<!-- Node1&#45;&gt;Node14 -->
<g id="edge14" class="edge">
<title>Node1&#45;&gt;Node14</title>
<path fill="none" stroke="#63b8ff" d="M145.39,-121.28C161.53,-123.03 178.42,-124.86 193.76,-126.52"/>
<polygon fill="#63b8ff" stroke="#63b8ff" points="193.32,-129.99 203.64,-127.59 194.08,-123.03 193.32,-129.99"/>
</g>
<!-- Node15 -->
<g id="node15" class="node">
<title>Node15</title>
<g id="a_node15"><a xlink:href="../../d1/d2d/classdoris_1_1_easy_json.html#ade4f73284b43fd82e24f5c38bcc5ff21" target="_top" xlink:title=" ">
<polygon fill="white" stroke="#666666" points="319,-105 181,-105 181,-86 319,-86 319,-105"/>
<text text-anchor="middle" x="250" y="-93" font-family="Helvetica,sans-Serif" font-size="10.00">doris::EasyJson::PushBack</text>
</a>
</g>
</g>
<!-- Node1&#45;&gt;Node15 -->
<g id="edge15" class="edge">
<title>Node1&#45;&gt;Node15</title>
<path fill="none" stroke="#63b8ff" d="M145.39,-106.13C153.3,-105.32 161.39,-104.49 169.4,-103.66"/>
<polygon fill="#63b8ff" stroke="#63b8ff" points="169.52,-107.17 179.11,-102.67 168.81,-100.21 169.52,-107.17"/>
</g>
<!-- Node16 -->
<g id="node16" class="node">
<title>Node16</title>
<g id="a_node16"><a xlink:href="../../d0/db0/classdoris_1_1_thread_mgr_1_1_thread_descriptor.html#af01d32b620e7ad8de8cd28a84cb44090" target="_top" xlink:title=" ">
<polygon fill="white" stroke="#666666" points="313,-67.5 187,-67.5 187,-37.5 313,-37.5 313,-67.5"/>
<text text-anchor="start" x="195" y="-55.5" font-family="Helvetica,sans-Serif" font-size="10.00">doris::ThreadMgr::Thread</text>
<text text-anchor="middle" x="250" y="-44.5" font-family="Helvetica,sans-Serif" font-size="10.00">Descriptor::thread_id</text>
</a>
</g>
</g>
<!-- Node1&#45;&gt;Node16 -->
<g id="edge16" class="edge">
<title>Node1&#45;&gt;Node16</title>
<path fill="none" stroke="#63b8ff" d="M102.09,-103.56C126.94,-94.93 163.63,-82.17 194.13,-71.57"/>
<polygon fill="#63b8ff" stroke="#63b8ff" points="194.91,-75.01 203.2,-68.42 192.61,-68.39 194.91,-75.01"/>
</g>
<!-- Node17 -->
<g id="node17" class="node">
<title>Node17</title>
<g id="a_node17"><a xlink:href="../../d9/d8d/classdoris_1_1_status.html#aac993ecccd3d88aafefb6b8e3caa1dee" target="_top" xlink:title=" ">
<polygon fill="white" stroke="#666666" points="308,-19 192,-19 192,0 308,0 308,-19"/>
<text text-anchor="middle" x="250" y="-7" font-family="Helvetica,sans-Serif" font-size="10.00">doris::Status::to_string</text>
</a>
</g>
</g>
<!-- Node1&#45;&gt;Node17 -->
<g id="edge17" class="edge">
<title>Node1&#45;&gt;Node17</title>
<path fill="none" stroke="#63b8ff" d="M83.22,-103.55C101.01,-85.89 140.71,-49 181,-28.5 184.88,-26.52 189,-24.73 193.21,-23.11"/>
<polygon fill="#63b8ff" stroke="#63b8ff" points="194.07,-26.51 202.35,-19.91 191.76,-19.9 194.07,-26.51"/>
</g>
<!-- Node3 -->
<g id="node3" class="node">
<title>Node3</title>
<g id="a_node3"><a xlink:href="../../d4/d00/namespacedoris_1_1io.html#ae677fb4a94f6751e37e2a1941bba2f7f" target="_top" xlink:title=" ">
<polygon fill="white" stroke="#666666" points="463,-298.5 355,-298.5 355,-268.5 463,-268.5 463,-298.5"/>
<text text-anchor="start" x="363" y="-286.5" font-family="Helvetica,sans-Serif" font-size="10.00">doris::io::global_local</text>
<text text-anchor="middle" x="409" y="-275.5" font-family="Helvetica,sans-Serif" font-size="10.00">_filesystem</text>
</a>
</g>
</g>
<!-- Node2&#45;&gt;Node3 -->
<g id="edge2" class="edge">
<title>Node2&#45;&gt;Node3</title>
<path fill="none" stroke="#63b8ff" d="M274.84,-228.37C297.44,-237.73 332.02,-252.04 360.27,-263.74"/>
<polygon fill="#63b8ff" stroke="#63b8ff" points="358.78,-266.91 369.36,-267.5 361.46,-260.44 358.78,-266.91"/>
</g>
<!-- Node4 -->
<g id="node4" class="node">
<title>Node4</title>
<g id="a_node4"><a xlink:href="../../d6/d94/namespacedoris.html#afd46a1aa0a2174bae3e5087e98ffcaa2" target="_top" xlink:title=" ">
<polygon fill="white" stroke="#666666" points="453.5,-250 364.5,-250 364.5,-231 453.5,-231 453.5,-250"/>
<text text-anchor="middle" x="409" y="-238" font-family="Helvetica,sans-Serif" font-size="10.00">doris::parse_stat</text>
</a>
</g>
</g>
<!-- Node2&#45;&gt;Node4 -->
<g id="edge3" class="edge">
<title>Node2&#45;&gt;Node4</title>
<path fill="none" stroke="#63b8ff" d="M308.12,-226.5C322.79,-228.56 338.54,-230.77 353.09,-232.81"/>
<polygon fill="#63b8ff" stroke="#63b8ff" points="352.57,-236.27 362.96,-234.19 353.54,-229.33 352.57,-236.27"/>
</g>
<!-- Node8 -->
<g id="node8" class="node">
<title>Node8</title>
<g id="a_node8"><a xlink:href="../../d4/d00/namespacedoris_1_1io.html#a57fd84bcf27e08fbc64825dd17c0d57a" target="_top" xlink:title=" ">
<polygon fill="white" stroke="#666666" points="456,-212.5 362,-212.5 362,-182.5 456,-182.5 456,-212.5"/>
<text text-anchor="start" x="370" y="-200.5" font-family="Helvetica,sans-Serif" font-size="10.00">doris::io::read_file</text>
<text text-anchor="middle" x="409" y="-189.5" font-family="Helvetica,sans-Serif" font-size="10.00">_to_string</text>
</a>
</g>
</g>
<!-- Node2&#45;&gt;Node8 -->
<g id="edge7" class="edge">
<title>Node2&#45;&gt;Node8</title>
<path fill="none" stroke="#63b8ff" d="M308.12,-210.86C321.96,-209.01 336.76,-207.03 350.61,-205.18"/>
<polygon fill="#63b8ff" stroke="#63b8ff" points="351.03,-208.65 360.47,-203.86 350.1,-201.71 351.03,-208.65"/>
</g>
<!-- Node9 -->
<g id="node9" class="node">
<title>Node9</title>
<g id="a_node9"><a xlink:href="../../df/dcb/namespacestrings.html#a4f3ca92d957daf4bd11169509bdb79ef" target="_top" xlink:title=" ">
<polygon fill="white" stroke="#666666" points="457,-146 361,-146 361,-127 457,-127 457,-146"/>
<text text-anchor="middle" x="409" y="-134" font-family="Helvetica,sans-Serif" font-size="10.00">strings::Substitute</text>
</a>
</g>
</g>
<!-- Node2&#45;&gt;Node9 -->
<g id="edge8" class="edge">
<title>Node2&#45;&gt;Node9</title>
<path fill="none" stroke="#63b8ff" d="M295.37,-208.55C303.42,-206.06 311.6,-203.06 319,-199.5 336.78,-190.93 338.91,-184.93 355,-173.5 364.54,-166.72 375.1,-159.33 384.27,-152.94"/>
<polygon fill="#63b8ff" stroke="#63b8ff" points="386.1,-155.93 392.32,-147.35 382.11,-150.19 386.1,-155.93"/>
</g>
<!-- Node5 -->
<g id="node5" class="node">
<title>Node5</title>
<g id="a_node5"><a xlink:href="../../d9/d8d/classdoris_1_1_status.html#a6ec1a217f203269ab53d2290d602db24" target="_top" xlink:title=" ">
<polygon fill="white" stroke="#666666" points="618,-268 526,-268 526,-249 618,-249 618,-268"/>
<text text-anchor="middle" x="572" y="-256" font-family="Helvetica,sans-Serif" font-size="10.00">doris::Status::OK</text>
</a>
</g>
</g>
<!-- Node4&#45;&gt;Node5 -->
<g id="edge4" class="edge">
<title>Node4&#45;&gt;Node5</title>
<path fill="none" stroke="#63b8ff" d="M453.99,-245.42C472.6,-247.5 494.5,-249.95 514.29,-252.16"/>
<polygon fill="#63b8ff" stroke="#63b8ff" points="513.83,-255.63 524.15,-253.26 514.6,-248.67 513.83,-255.63"/>
</g>
<!-- Node7 -->
<g id="node7" class="node">
<title>Node7</title>
<g id="a_node7"><a xlink:href="../../de/d18/numbers_8cc.html#af9842d44ea89815fb81b050c035c2813" target="_top" xlink:title=" ">
<polygon fill="white" stroke="#666666" points="607.5,-231 536.5,-231 536.5,-212 607.5,-212 607.5,-231"/>
<text text-anchor="middle" x="572" y="-219" font-family="Helvetica,sans-Serif" font-size="10.00">safe_strto64</text>
</a>
</g>
</g>
<!-- Node4&#45;&gt;Node7 -->
<g id="edge6" class="edge">
<title>Node4&#45;&gt;Node7</title>
<path fill="none" stroke="#63b8ff" d="M453.99,-235.31C476.03,-232.71 502.71,-229.56 525.02,-226.93"/>
<polygon fill="#63b8ff" stroke="#63b8ff" points="525.21,-230.43 534.74,-225.78 524.39,-223.48 525.21,-230.43"/>
</g>
<!-- Node6 -->
<g id="node6" class="node">
<title>Node6</title>
<g id="a_node6"><a xlink:href="../../d9/d8d/classdoris_1_1_status.html#aafde58df1b2a6a91d5b674373be3ffc5" target="_top" xlink:title=" ">
<polygon fill="white" stroke="#666666" points="806.5,-268 699.5,-268 699.5,-249 806.5,-249 806.5,-268"/>
<text text-anchor="middle" x="753" y="-256" font-family="Helvetica,sans-Serif" font-size="10.00">doris::Status::Status</text>
</a>
</g>
</g>
<!-- Node5&#45;&gt;Node6 -->
<g id="edge5" class="edge">
<title>Node5&#45;&gt;Node6</title>
<path fill="none" stroke="#63b8ff" d="M618.17,-258.5C639.26,-258.5 664.74,-258.5 687.78,-258.5"/>
<polygon fill="#63b8ff" stroke="#63b8ff" points="687.7,-262 697.7,-258.5 687.7,-255 687.7,-262"/>
</g>
<!-- Node9&#45;&gt;Node9 -->
<g id="edge9" class="edge">
<title>Node9&#45;&gt;Node9</title>
<path fill="none" stroke="#63b8ff" d="M384.11,-146.37C372.75,-154.94 381.05,-164 409,-164 424.72,-164 434.22,-161.13 437.51,-157.1"/>
<polygon fill="#63b8ff" stroke="#63b8ff" points="440.89,-156.16 434.38,-147.8 434.25,-158.4 440.89,-156.16"/>
</g>
<!-- Node10 -->
<g id="node10" class="node">
<title>Node10</title>
<g id="a_node10"><a xlink:href="../../df/dcb/namespacestrings.html#ab41a4a9d46a87a619ed25ce45f201137" target="_top" xlink:title=" ">
<polygon fill="white" stroke="#666666" points="645,-146 499,-146 499,-127 645,-127 645,-146"/>
<text text-anchor="middle" x="572" y="-134" font-family="Helvetica,sans-Serif" font-size="10.00">strings::SubstituteAndAppend</text>
</a>
</g>
</g>
<!-- Node9&#45;&gt;Node10 -->
<g id="edge10" class="edge">
<title>Node9&#45;&gt;Node10</title>
<path fill="none" stroke="#63b8ff" d="M457.43,-136.5C466.8,-136.5 476.89,-136.5 487.06,-136.5"/>
<polygon fill="#63b8ff" stroke="#63b8ff" points="487.02,-140 497.02,-136.5 487.02,-133 487.02,-140"/>
</g>
<!-- Node11 -->
<g id="node11" class="node">
<title>Node11</title>
<g id="a_node11"><a xlink:href="../../de/de8/stl__util_8h.html#ab0f5d71a968a1a2b9c8a572dad7fb18b" target="_top" xlink:title=" ">
<polygon fill="white" stroke="#666666" points="825,-165 681,-165 681,-146 825,-146 825,-165"/>
<text text-anchor="middle" x="753" y="-153" font-family="Helvetica,sans-Serif" font-size="10.00">STLStringResizeUninitialized</text>
</a>
</g>
</g>
<!-- Node10&#45;&gt;Node11 -->
<g id="edge11" class="edge">
<title>Node10&#45;&gt;Node11</title>
<path fill="none" stroke="#63b8ff" d="M645.29,-144.17C653.2,-145.01 661.3,-145.87 669.33,-146.73"/>
<polygon fill="#63b8ff" stroke="#63b8ff" points="668.78,-150.19 679.1,-147.76 669.52,-143.23 668.78,-150.19"/>
</g>
<!-- Node12 -->
<g id="node12" class="node">
<title>Node12</title>
<g id="a_node12"><a xlink:href="../../de/de8/stl__util_8h.html#a7245ef7ee9fdcf5adcc274e1e71f5fb3" target="_top" xlink:title=" ">
<polygon fill="white" stroke="#666666" points="794.5,-128 711.5,-128 711.5,-109 794.5,-109 794.5,-128"/>
<text text-anchor="middle" x="753" y="-116" font-family="Helvetica,sans-Serif" font-size="10.00">string_as_array</text>
</a>
</g>
</g>
<!-- Node10&#45;&gt;Node12 -->
<g id="edge12" class="edge">
<title>Node10&#45;&gt;Node12</title>
<path fill="none" stroke="#63b8ff" d="M645.29,-129.23C663.5,-127.4 682.7,-125.47 699.72,-123.76"/>
<polygon fill="#63b8ff" stroke="#63b8ff" points="700,-127.25 709.6,-122.76 699.3,-120.28 700,-127.25"/>
</g>
</g>
</svg>
        <g id="navigator" transform="translate(0 0)" fill="#404254">
                <rect fill="#f2f5e9" fill-opacity="0.5" stroke="#606060" stroke-width=".5" x="0" y="0" width="60" height="60"/>
                <use id="zoomplus" xlink:href="#zoomPlus" x="17" y="9" onmousedown="handleZoom(evt,'in')"/>
                <use id="zoomminus" xlink:href="#zoomMin" x="42" y="9" onmousedown="handleZoom(evt,'out')"/>
                <use id="reset" xlink:href="#resetDef" x="30" y="36" onmousedown="handleReset()"/>
                <g id="arrowUp" xlink:href="#dirArrow" transform="translate(30 24)" onmousedown="handlePan(0,-1)">
                  <use xlink:href="#rim" fill="#404040">
                        <set attributeName="fill" to="#808080" begin="arrowUp.mouseover" end="arrowUp.mouseout"/>
                  </use>
                  <path fill="none" stroke="white" stroke-width="1.5" d="M0,-3.0v7 M-2.5,-0.5L0,-3.0L2.5,-0.5"/>
                </g>
                <g id="arrowRight" xlink:href="#dirArrow" transform="rotate(90) translate(36 -43)" onmousedown="handlePan(1,0)">
                  <use xlink:href="#rim" fill="#404040">
                        <set attributeName="fill" to="#808080" begin="arrowRight.mouseover" end="arrowRight.mouseout"/>
                  </use>
                  <path fill="none" stroke="white" stroke-width="1.5" d="M0,-3.0v7 M-2.5,-0.5L0,-3.0L2.5,-0.5"/>
                </g>
                <g id="arrowDown" xlink:href="#dirArrow" transform="rotate(180) translate(-30 -48)" onmousedown="handlePan(0,1)">
                  <use xlink:href="#rim" fill="#404040">
                        <set attributeName="fill" to="#808080" begin="arrowDown.mouseover" end="arrowDown.mouseout"/>
                  </use>
                  <path fill="none" stroke="white" stroke-width="1.5" d="M0,-3.0v7 M-2.5,-0.5L0,-3.0L2.5,-0.5"/>
                </g>
                <g id="arrowLeft" xlink:href="#dirArrow" transform="rotate(270) translate(-36 17)" onmousedown="handlePan(-1,0)">
                  <use xlink:href="#rim" fill="#404040">
                        <set attributeName="fill" to="#808080" begin="arrowLeft.mouseover" end="arrowLeft.mouseout"/>
                  </use>
                  <path fill="none" stroke="white" stroke-width="1.5" d="M0,-3.0v7 M-2.5,-0.5L0,-3.0L2.5,-0.5"/>
                </g>
        </g>
        <svg viewBox="0 0 15 15" width="100%" height="30px" preserveAspectRatio="xMaxYMin meet">
         <g id="arrow_out" transform="scale(0.3 0.3)">
          <a xlink:href="classdoris_1_1_thread_mgr_ac0a23bc481f2998fffac0628fc8e4e50_cgraph_org.svg" target="_base">
           <rect id="button" ry="5" rx="5" y="6" x="6" height="38" width="38"
                fill="#f2f5e9" fill-opacity="0.5" stroke="#606060" stroke-width="1.0"/>
           <path id="arrow"
             d="M 11.500037,31.436501 C 11.940474,20.09759 22.043105,11.32322 32.158766,21.979434 L 37.068811,17.246167 C 37.068811,17.246167 37.088388,32 37.088388,32 L 22.160133,31.978069 C 22.160133,31.978069 26.997745,27.140456 26.997745,27.140456 C 18.528582,18.264221 13.291696,25.230495 11.500037,31.436501 z"
             style="fill:#404040;"/>
          </a>
         </g>
        </svg>
</svg>
