<?xml version="1.0" encoding="UTF-8" standalone="no"?>
<!DOCTYPE svg PUBLIC "-//W3C//DTD SVG 1.1//EN"
 "http://www.w3.org/Graphics/SVG/1.1/DTD/svg11.dtd">
<!-- Generated by graphviz version 7.1.0 (20230121.1956)
 -->
<!-- Title: PlainBinaryLineReader Pages: 1 -->
<svg width="159pt" height="93pt"
 viewBox="0.00 0.00 159.00 93.00" xmlns="http://www.w3.org/2000/svg" xmlns:xlink="http://www.w3.org/1999/xlink">
<g id="graph0" class="graph" transform="scale(1 1) rotate(0) translate(4 89)">
<title>PlainBinaryLineReader</title>
<!-- Node1 -->
<g id="node1" class="node">
<title>Node1</title>
<g id="a_node1"><a xlink:title=" ">
<polygon fill="#999999" stroke="#666666" points="132,-19 16,-19 16,0 132,0 132,-19"/>
<text text-anchor="middle" x="74" y="-7" font-family="Helvetica,sans-Serif" font-size="10.00">PlainBinaryLineReader</text>
</a>
</g>
</g>
<!-- Node2 -->
<g id="node2" class="node">
<title>Node2</title>
<g id="a_node2"><a xlink:href="../../dd/d59/classdoris_1_1_line_reader.html" target="_top" xlink:title=" ">
<polygon fill="white" stroke="#666666" points="66,-85 0,-85 0,-66 66,-66 66,-85"/>
<text text-anchor="middle" x="33" y="-73" font-family="Helvetica,sans-Serif" font-size="10.00">LineReader</text>
</a>
</g>
</g>
<!-- Node2&#45;&gt;Node1 -->
<g id="edge1" class="edge">
<title>Node2&#45;&gt;Node1</title>
<path fill="none" stroke="#63b8ff" d="M44.83,-56.03C52.56,-43.96 62.31,-28.75 68.35,-19.32"/>
<polygon fill="#63b8ff" stroke="#63b8ff" points="41.96,-54.02 39.52,-64.33 47.86,-57.79 41.96,-54.02"/>
</g>
<!-- Node3 -->
<g id="node3" class="node">
<title>Node3</title>
<g id="a_node3"><a xlink:href="../../d8/d84/classdoris_1_1_file_reader.html" target="_top" xlink:title=" ">
<polygon fill="white" stroke="#666666" points="148,-85 84,-85 84,-66 148,-66 148,-85"/>
<text text-anchor="middle" x="116" y="-73" font-family="Helvetica,sans-Serif" font-size="10.00">FileReader</text>
</a>
</g>
</g>
<!-- Node3&#45;&gt;Node1 -->
<g id="edge2" class="edge">
<title>Node3&#45;&gt;Node1</title>
<path fill="none" stroke="#9a32cd" stroke-dasharray="5,2" d="M103.88,-56.03C95.96,-43.96 85.98,-28.75 79.79,-19.32"/>
<polygon fill="#9a32cd" stroke="#9a32cd" points="100.92,-57.9 109.33,-64.34 106.77,-54.05 100.92,-57.9"/>
<text text-anchor="middle" x="124" y="-40" font-family="Helvetica,sans-Serif" font-size="10.00"> _file_reader</text>
</g>
</g>
</svg>
