<?xml version="1.0" encoding="UTF-8" standalone="no"?>
<!DOCTYPE svg PUBLIC "-//W3C//DTD SVG 1.1//EN"
 "http://www.w3.org/Graphics/SVG/1.1/DTD/svg11.dtd">
<!-- Generated by graphviz version 7.1.0 (20230121.1956)
 -->
<!-- Title: mutate_columns Pages: 1 -->
<!--zoomable 548 -->
<svg id="main" version="1.1" xmlns="http://www.w3.org/2000/svg" xmlns:xlink="http://www.w3.org/1999/xlink" xml:space="preserve" onload="init(evt)">
<style type="text/css"><![CDATA[
.edge:hover path { stroke: red; }
.edge:hover polygon { stroke: red; fill: red; }
]]></style>
<script type="text/javascript"><![CDATA[
var edges = document.getElementsByTagName('g');
if (edges && edges.length) {
  for (var i=0;i<edges.length;i++) {
    if (edges[i].id.substr(0,4)=='edge') {
      edges[i].setAttribute('class','edge');
    }
  }
}
]]></script>
        <defs>
                <circle id="rim" cx="0" cy="0" r="7"/>
                <circle id="rim2" cx="0" cy="0" r="3.5"/>
                <g id="zoomPlus">
                        <use xlink:href="#rim" fill="#404040">
                                <set attributeName="fill" to="#808080" begin="zoomplus.mouseover" end="zoomplus.mouseout"/>
                        </use>
                        <path d="M-4,0h8M0,-4v8" fill="none" stroke="white" stroke-width="1.5" pointer-events="none"/>
                </g>
                <g id="zoomMin">
                        <use xlink:href="#rim" fill="#404040">
                                <set attributeName="fill" to="#808080" begin="zoomminus.mouseover" end="zoomminus.mouseout"/>
                        </use>
                        <path d="M-4,0h8" fill="none" stroke="white" stroke-width="1.5" pointer-events="none"/>
                </g>
                <g id="dirArrow">
                        <path fill="none" stroke="white" stroke-width="1.5" d="M0,-3.0v7 M-2.5,-0.5L0,-3.0L2.5,-0.5"/>
                </g>
               <g id="resetDef">
                       <use xlink:href="#rim2" fill="#404040">
                               <set attributeName="fill" to="#808080" begin="reset.mouseover" end="reset.mouseout"/>
                       </use>
               </g>
        </defs>

<script type="text/javascript">
var viewWidth = 1325;
var viewHeight = 548;
var sectionId = 'dynsection-61';
</script>
<script xlink:href="../../svgpan.js"/>
<svg id="graph" class="graph">
<g id="viewport">
<title>mutate_columns</title>
<!-- Node1 -->
<g id="node1" class="node">
<title>Node1</title>
<g id="a_node1"><a xlink:title=" ">
<polygon fill="#999999" stroke="#666666" points="1317,-263 1228,-263 1228,-244 1317,-244 1317,-263"/>
<text text-anchor="middle" x="1272.5" y="-251" font-family="Helvetica,sans-Serif" font-size="10.00">mutate_columns</text>
</a>
</g>
</g>
<!-- Node2 -->
<g id="node2" class="node">
<title>Node2</title>
<g id="a_node2"><a xlink:href="../../d8/de8/classdoris_1_1vectorized_1_1_block_reader.html#acae4653fb9067f09632c8a06af83789a" target="_top" xlink:title=" ">
<polygon fill="white" stroke="#666666" points="1172,-540 1051,-540 1051,-499 1172,-499 1172,-540"/>
<text text-anchor="start" x="1059" y="-528" font-family="Helvetica,sans-Serif" font-size="10.00">doris::vectorized::</text>
<text text-anchor="start" x="1059" y="-517" font-family="Helvetica,sans-Serif" font-size="10.00">BlockReader::_agg_key</text>
<text text-anchor="middle" x="1111.5" y="-506" font-family="Helvetica,sans-Serif" font-size="10.00">_next_block</text>
</a>
</g>
</g>
<!-- Node1&#45;&gt;Node2 -->
<g id="edge1" class="edge">
<title>Node1&#45;&gt;Node2</title>
<path fill="none" stroke="#63b8ff" d="M1270.39,-274.43C1266.85,-319.92 1252.22,-428.69 1192,-490.5 1186.36,-496.29 1179.48,-500.93 1172.14,-504.64"/>
<polygon fill="#63b8ff" stroke="#63b8ff" points="1273.87,-274.85 1271.03,-264.65 1266.88,-274.39 1273.87,-274.85"/>
</g>
<!-- Node15 -->
<g id="node15" class="node">
<title>Node15</title>
<g id="a_node15"><a xlink:href="../../d2/df6/classdoris_1_1vectorized_1_1_vertical_block_reader.html#acae4653fb9067f09632c8a06af83789a" target="_top" xlink:title=" ">
<polygon fill="white" stroke="#666666" points="1170,-304 1053,-304 1053,-263 1170,-263 1170,-304"/>
<text text-anchor="start" x="1061" y="-292" font-family="Helvetica,sans-Serif" font-size="10.00">doris::vectorized::</text>
<text text-anchor="start" x="1061" y="-281" font-family="Helvetica,sans-Serif" font-size="10.00">VerticalBlockReader</text>
<text text-anchor="middle" x="1111.5" y="-270" font-family="Helvetica,sans-Serif" font-size="10.00">::_agg_key_next_block</text>
</a>
</g>
</g>
<!-- Node1&#45;&gt;Node15 -->
<g id="edge15" class="edge">
<title>Node1&#45;&gt;Node15</title>
<path fill="none" stroke="#63b8ff" d="M1216.49,-263.88C1201.55,-266.7 1185.32,-269.76 1170.23,-272.61"/>
<polygon fill="#63b8ff" stroke="#63b8ff" points="1216.97,-267.35 1226.14,-262.06 1215.67,-260.47 1216.97,-267.35"/>
</g>
<!-- Node19 -->
<g id="node19" class="node">
<title>Node19</title>
<g id="a_node19"><a xlink:href="../../dd/d42/classdoris_1_1vectorized_1_1_v_collect_iterator_1_1_level1_iterator.html#a8aadac46872303a85cfafe0e474908e1" target="_top" xlink:title=" ">
<polygon fill="white" stroke="#666666" points="1186.5,-422 1036.5,-422 1036.5,-381 1186.5,-381 1186.5,-422"/>
<text text-anchor="start" x="1044.5" y="-410" font-family="Helvetica,sans-Serif" font-size="10.00">doris::vectorized::</text>
<text text-anchor="start" x="1044.5" y="-399" font-family="Helvetica,sans-Serif" font-size="10.00">VCollectIterator::Level1Iterator</text>
<text text-anchor="middle" x="1111.5" y="-388" font-family="Helvetica,sans-Serif" font-size="10.00">::_merge_next</text>
</a>
</g>
</g>
<!-- Node1&#45;&gt;Node19 -->
<g id="edge20" class="edge">
<title>Node1&#45;&gt;Node19</title>
<path fill="none" stroke="#63b8ff" d="M1262.95,-273.59C1250.81,-299.85 1226.21,-345.63 1192,-372.5 1188.19,-375.49 1184.04,-378.2 1179.7,-380.64"/>
<polygon fill="#63b8ff" stroke="#63b8ff" points="1266.03,-275.29 1266.89,-264.73 1259.63,-272.44 1266.03,-275.29"/>
</g>
<!-- Node20 -->
<g id="node20" class="node">
<title>Node20</title>
<g id="a_node20"><a xlink:href="../../df/d8d/classdoris_1_1vectorized_1_1_merge_sorter_state.html#aaa09d754e76548f11abcd2f3a35e47db" target="_top" xlink:title=" ">
<polygon fill="white" stroke="#666666" points="1177,-245 1046,-245 1046,-204 1177,-204 1177,-245"/>
<text text-anchor="start" x="1054" y="-233" font-family="Helvetica,sans-Serif" font-size="10.00">doris::vectorized::</text>
<text text-anchor="start" x="1054" y="-222" font-family="Helvetica,sans-Serif" font-size="10.00">MergeSorterState::_merge</text>
<text text-anchor="middle" x="1111.5" y="-211" font-family="Helvetica,sans-Serif" font-size="10.00">_sort_read_not_spilled</text>
</a>
</g>
</g>
<!-- Node1&#45;&gt;Node20 -->
<g id="edge21" class="edge">
<title>Node1&#45;&gt;Node20</title>
<path fill="none" stroke="#63b8ff" d="M1216.37,-243.45C1203.79,-241.15 1190.31,-238.69 1177.37,-236.33"/>
<polygon fill="#63b8ff" stroke="#63b8ff" points="1215.68,-246.88 1226.14,-245.23 1216.93,-239.99 1215.68,-246.88"/>
</g>
<!-- Node23 -->
<g id="node23" class="node">
<title>Node23</title>
<g id="a_node23"><a xlink:href="../../d8/de8/classdoris_1_1vectorized_1_1_block_reader.html#aa3fa5ca4712a97f9a9e1f8684ef4495d" target="_top" xlink:title=" ">
<polygon fill="white" stroke="#666666" points="1168,-481 1055,-481 1055,-440 1168,-440 1168,-481"/>
<text text-anchor="start" x="1063" y="-469" font-family="Helvetica,sans-Serif" font-size="10.00">doris::vectorized::</text>
<text text-anchor="start" x="1063" y="-458" font-family="Helvetica,sans-Serif" font-size="10.00">BlockReader::_unique</text>
<text text-anchor="middle" x="1111.5" y="-447" font-family="Helvetica,sans-Serif" font-size="10.00">_key_next_block</text>
</a>
</g>
</g>
<!-- Node1&#45;&gt;Node23 -->
<g id="edge24" class="edge">
<title>Node1&#45;&gt;Node23</title>
<path fill="none" stroke="#63b8ff" d="M1267.71,-274.36C1259.97,-311.13 1238.95,-387.74 1192,-431.5 1185.23,-437.81 1176.98,-442.77 1168.38,-446.67"/>
<polygon fill="#63b8ff" stroke="#63b8ff" points="1271.13,-275.1 1269.62,-264.62 1264.26,-273.75 1271.13,-275.1"/>
</g>
<!-- Node24 -->
<g id="node24" class="node">
<title>Node24</title>
<g id="a_node24"><a xlink:href="../../d2/df6/classdoris_1_1vectorized_1_1_vertical_block_reader.html#aa3fa5ca4712a97f9a9e1f8684ef4495d" target="_top" xlink:title=" ">
<polygon fill="white" stroke="#666666" points="1176.5,-363 1046.5,-363 1046.5,-322 1176.5,-322 1176.5,-363"/>
<text text-anchor="start" x="1054.5" y="-351" font-family="Helvetica,sans-Serif" font-size="10.00">doris::vectorized::</text>
<text text-anchor="start" x="1054.5" y="-340" font-family="Helvetica,sans-Serif" font-size="10.00">VerticalBlockReader</text>
<text text-anchor="middle" x="1111.5" y="-329" font-family="Helvetica,sans-Serif" font-size="10.00">::_unique_key_next_block</text>
</a>
</g>
</g>
<!-- Node1&#45;&gt;Node24 -->
<g id="edge26" class="edge">
<title>Node1&#45;&gt;Node24</title>
<path fill="none" stroke="#63b8ff" d="M1252.02,-270.82C1236.58,-283.88 1214.01,-301.53 1192,-313.5 1186.71,-316.38 1181.07,-319.08 1175.34,-321.58"/>
<polygon fill="#63b8ff" stroke="#63b8ff" points="1254.22,-273.55 1259.5,-264.37 1249.64,-268.25 1254.22,-273.55"/>
</g>
<!-- Node25 -->
<g id="node25" class="node">
<title>Node25</title>
<g id="a_node25"><a xlink:href="../../df/dc1/classdoris_1_1vectorized_1_1_v_sorted_run_merger.html#af968feb955ccd293acd7908cbe512a20" target="_top" xlink:title=" ">
<polygon fill="white" stroke="#666666" points="1183,-185.5 1040,-185.5 1040,-155.5 1183,-155.5 1183,-185.5"/>
<text text-anchor="start" x="1048" y="-173.5" font-family="Helvetica,sans-Serif" font-size="10.00">doris::vectorized::</text>
<text text-anchor="middle" x="1111.5" y="-162.5" font-family="Helvetica,sans-Serif" font-size="10.00">VSortedRunMerger::get_next</text>
</a>
</g>
</g>
<!-- Node1&#45;&gt;Node25 -->
<g id="edge28" class="edge">
<title>Node1&#45;&gt;Node25</title>
<path fill="none" stroke="#63b8ff" d="M1252.16,-236.13C1236.79,-223.12 1214.25,-205.69 1192,-194.5 1185.69,-191.33 1178.88,-188.49 1172,-185.97"/>
<polygon fill="#63b8ff" stroke="#63b8ff" points="1249.74,-238.67 1259.59,-242.58 1254.33,-233.39 1249.74,-238.67"/>
</g>
<!-- Node26 -->
<g id="node26" class="node">
<title>Node26</title>
<g id="a_node26"><a xlink:href="../../d0/de7/classdoris_1_1vectorized_1_1_csv_reader.html#af165bb4c8e53de264286bd80974083a4" target="_top" xlink:title=" ">
<polygon fill="white" stroke="#666666" points="1180.5,-137.5 1042.5,-137.5 1042.5,-107.5 1180.5,-107.5 1180.5,-137.5"/>
<text text-anchor="start" x="1050.5" y="-125.5" font-family="Helvetica,sans-Serif" font-size="10.00">doris::vectorized::</text>
<text text-anchor="middle" x="1111.5" y="-114.5" font-family="Helvetica,sans-Serif" font-size="10.00">CsvReader::get_next_block</text>
</a>
</g>
</g>
<!-- Node1&#45;&gt;Node26 -->
<g id="edge29" class="edge">
<title>Node1&#45;&gt;Node26</title>
<path fill="none" stroke="#63b8ff" d="M1261.72,-233.44C1248.95,-209.32 1224.37,-169.24 1192,-146.5 1187.28,-143.18 1182.1,-140.32 1176.71,-137.84"/>
<polygon fill="#63b8ff" stroke="#63b8ff" points="1258.54,-234.9 1266.19,-242.22 1264.77,-231.72 1258.54,-234.9"/>
</g>
<!-- Node27 -->
<g id="node27" class="node">
<title>Node27</title>
<g id="a_node27"><a xlink:href="../../de/d4e/classdoris_1_1vectorized_1_1_new_json_reader.html#af165bb4c8e53de264286bd80974083a4" target="_top" xlink:title=" ">
<polygon fill="white" stroke="#666666" points="1192,-89.5 1031,-89.5 1031,-59.5 1192,-59.5 1192,-89.5"/>
<text text-anchor="start" x="1039" y="-77.5" font-family="Helvetica,sans-Serif" font-size="10.00">doris::vectorized::</text>
<text text-anchor="middle" x="1111.5" y="-66.5" font-family="Helvetica,sans-Serif" font-size="10.00">NewJsonReader::get_next_block</text>
</a>
</g>
</g>
<!-- Node1&#45;&gt;Node27 -->
<g id="edge30" class="edge">
<title>Node1&#45;&gt;Node27</title>
<path fill="none" stroke="#63b8ff" d="M1266.51,-232.79C1257.43,-199.55 1235.05,-134.39 1192,-98.5 1188.01,-95.18 1183.58,-92.31 1178.89,-89.85"/>
<polygon fill="#63b8ff" stroke="#63b8ff" points="1263.09,-233.56 1268.98,-242.37 1269.87,-231.82 1263.09,-233.56"/>
</g>
<!-- Node28 -->
<g id="node28" class="node">
<title>Node28</title>
<g id="a_node28"><a xlink:href="../../d1/de2/classdoris_1_1vectorized_1_1_v_statistics_iterator.html#a2dfce20ac655e0c232480a2ccdb6d8d4" target="_top" xlink:title=" ">
<polygon fill="white" stroke="#666666" points="1159,-41 1064,-41 1064,0 1159,0 1159,-41"/>
<text text-anchor="start" x="1072" y="-29" font-family="Helvetica,sans-Serif" font-size="10.00">doris::vectorized::</text>
<text text-anchor="start" x="1072" y="-18" font-family="Helvetica,sans-Serif" font-size="10.00">VStatisticsIterator</text>
<text text-anchor="middle" x="1111.5" y="-7" font-family="Helvetica,sans-Serif" font-size="10.00">::next_batch</text>
</a>
</g>
</g>
<!-- Node1&#45;&gt;Node28 -->
<g id="edge31" class="edge">
<title>Node1&#45;&gt;Node28</title>
<path fill="none" stroke="#63b8ff" d="M1268.96,-232.63C1262.96,-192.07 1244.24,-102.1 1192,-50.5 1182.97,-41.59 1171.04,-35.27 1159.17,-30.82"/>
<polygon fill="#63b8ff" stroke="#63b8ff" points="1265.48,-233.01 1270.29,-242.45 1272.42,-232.07 1265.48,-233.01"/>
</g>
<!-- Node3 -->
<g id="node3" class="node">
<title>Node3</title>
<g id="a_node3"><a xlink:href="../../d8/de8/classdoris_1_1vectorized_1_1_block_reader.html#a3f1f86fa24c99e22f80d344c2be65d00" target="_top" xlink:title=" ">
<polygon fill="white" stroke="#666666" points="979.5,-479.5 884.5,-479.5 884.5,-449.5 979.5,-449.5 979.5,-479.5"/>
<text text-anchor="start" x="892.5" y="-467.5" font-family="Helvetica,sans-Serif" font-size="10.00">doris::vectorized::</text>
<text text-anchor="middle" x="932" y="-456.5" font-family="Helvetica,sans-Serif" font-size="10.00">BlockReader::init</text>
</a>
</g>
</g>
<!-- Node2&#45;&gt;Node3 -->
<g id="edge2" class="edge">
<title>Node2&#45;&gt;Node3</title>
<path fill="none" stroke="#63b8ff" d="M1040.13,-497.7C1019.87,-491.42 998.28,-484.73 979.82,-479.01"/>
<polygon fill="#63b8ff" stroke="#63b8ff" points="1038.87,-500.97 1049.46,-500.58 1040.94,-494.28 1038.87,-500.97"/>
</g>
<!-- Node4 -->
<g id="node4" class="node">
<title>Node4</title>
<g id="a_node4"><a xlink:href="../../db/d49/classdoris_1_1_engine_checksum_task.html#a34202032b81502590f792b71f76ca630" target="_top" xlink:title=" ">
<polygon fill="white" stroke="#666666" points="833,-487.5 691,-487.5 691,-457.5 833,-457.5 833,-487.5"/>
<text text-anchor="start" x="699" y="-475.5" font-family="Helvetica,sans-Serif" font-size="10.00">doris::EngineChecksumTask</text>
<text text-anchor="middle" x="762" y="-464.5" font-family="Helvetica,sans-Serif" font-size="10.00">::_compute_checksum</text>
</a>
</g>
</g>
<!-- Node3&#45;&gt;Node4 -->
<g id="edge3" class="edge">
<title>Node3&#45;&gt;Node4</title>
<path fill="none" stroke="#63b8ff" d="M872.82,-467.27C860.12,-467.88 846.55,-468.52 833.43,-469.15"/>
<polygon fill="#63b8ff" stroke="#63b8ff" points="872.87,-470.77 882.69,-466.8 872.54,-463.78 872.87,-470.77"/>
</g>
<!-- Node11 -->
<g id="node11" class="node">
<title>Node11</title>
<g id="a_node11"><a xlink:href="../../de/de1/classdoris_1_1_merger.html#aee6df6a97ec4fdb2b2ea7e4782b064c5" target="_top" xlink:title=" ">
<polygon fill="white" stroke="#666666" points="818,-439.5 706,-439.5 706,-409.5 818,-409.5 818,-439.5"/>
<text text-anchor="start" x="714" y="-427.5" font-family="Helvetica,sans-Serif" font-size="10.00">doris::Merger::vmerge</text>
<text text-anchor="middle" x="762" y="-416.5" font-family="Helvetica,sans-Serif" font-size="10.00">_rowsets</text>
</a>
</g>
</g>
<!-- Node3&#45;&gt;Node11 -->
<g id="edge10" class="edge">
<title>Node3&#45;&gt;Node11</title>
<path fill="none" stroke="#63b8ff" d="M873.15,-450.73C855.44,-446.51 836.02,-441.89 818.48,-437.71"/>
<polygon fill="#63b8ff" stroke="#63b8ff" points="872.19,-454.1 882.73,-453.01 873.81,-447.29 872.19,-454.1"/>
</g>
<!-- Node5 -->
<g id="node5" class="node">
<title>Node5</title>
<g id="a_node5"><a xlink:href="../../db/d49/classdoris_1_1_engine_checksum_task.html#a288fb86e2f2bfd41128d4766a01cebad" target="_top" xlink:title=" ">
<polygon fill="white" stroke="#666666" points="655,-487.5 513,-487.5 513,-457.5 655,-457.5 655,-487.5"/>
<text text-anchor="start" x="521" y="-475.5" font-family="Helvetica,sans-Serif" font-size="10.00">doris::EngineChecksumTask</text>
<text text-anchor="middle" x="584" y="-464.5" font-family="Helvetica,sans-Serif" font-size="10.00">::execute</text>
</a>
</g>
</g>
<!-- Node4&#45;&gt;Node5 -->
<g id="edge4" class="edge">
<title>Node4&#45;&gt;Node5</title>
<path fill="none" stroke="#63b8ff" d="M679.17,-472.5C671.26,-472.5 663.28,-472.5 655.49,-472.5"/>
<polygon fill="#63b8ff" stroke="#63b8ff" points="679.17,-476 689.17,-472.5 679.17,-469 679.17,-476"/>
</g>
<!-- Node6 -->
<g id="node6" class="node">
<title>Node6</title>
<g id="a_node6"><a xlink:href="../../d4/d70/classdoris_1_1_checksum_action.html#aaf8d0cd7b14cd6966e1cc36f8afad162" target="_top" xlink:title=" ">
<polygon fill="white" stroke="#666666" points="466.5,-525.5 347.5,-525.5 347.5,-495.5 466.5,-495.5 466.5,-525.5"/>
<text text-anchor="start" x="355.5" y="-513.5" font-family="Helvetica,sans-Serif" font-size="10.00">doris::ChecksumAction</text>
<text text-anchor="middle" x="407" y="-502.5" font-family="Helvetica,sans-Serif" font-size="10.00">::do_checksum</text>
</a>
</g>
</g>
<!-- Node5&#45;&gt;Node6 -->
<g id="edge5" class="edge">
<title>Node5&#45;&gt;Node6</title>
<path fill="none" stroke="#63b8ff" d="M501.44,-490.21C489.75,-492.75 477.91,-495.32 466.77,-497.74"/>
<polygon fill="#63b8ff" stroke="#63b8ff" points="502.07,-493.66 511.1,-488.11 500.58,-486.81 502.07,-493.66"/>
</g>
<!-- Node8 -->
<g id="node8" class="node">
<title>Node8</title>
<g id="a_node8"><a xlink:href="../../d9/d16/classdoris_1_1_compaction.html#af4d371f173fc2dd11ca37abc1796a806" target="_top" xlink:title=" ">
<polygon fill="white" stroke="#666666" points="292.5,-434.5 190.5,-434.5 190.5,-404.5 292.5,-404.5 292.5,-434.5"/>
<text text-anchor="start" x="198.5" y="-422.5" font-family="Helvetica,sans-Serif" font-size="10.00">doris::Compaction::</text>
<text text-anchor="middle" x="241.5" y="-411.5" font-family="Helvetica,sans-Serif" font-size="10.00">do_compaction</text>
</a>
</g>
</g>
<!-- Node5&#45;&gt;Node8 -->
<g id="edge7" class="edge">
<title>Node5&#45;&gt;Node8</title>
<path fill="none" stroke="#63b8ff" d="M501.42,-468.65C453.24,-465.36 391.24,-459.35 337,-448.5 320.17,-445.13 302.07,-439.97 286.26,-434.93"/>
<polygon fill="#63b8ff" stroke="#63b8ff" points="501.02,-472.13 511.22,-469.3 501.47,-465.15 501.02,-472.13"/>
</g>
<!-- Node7 -->
<g id="node7" class="node">
<title>Node7</title>
<g id="a_node7"><a xlink:href="../../d4/d70/classdoris_1_1_checksum_action.html#ac19cf1dfbfc14c0169018218471fd806" target="_top" xlink:title=" ">
<polygon fill="white" stroke="#666666" points="301,-525.5 182,-525.5 182,-495.5 301,-495.5 301,-525.5"/>
<text text-anchor="start" x="190" y="-513.5" font-family="Helvetica,sans-Serif" font-size="10.00">doris::ChecksumAction</text>
<text text-anchor="middle" x="241.5" y="-502.5" font-family="Helvetica,sans-Serif" font-size="10.00">::handle</text>
</a>
</g>
</g>
<!-- Node6&#45;&gt;Node7 -->
<g id="edge6" class="edge">
<title>Node6&#45;&gt;Node7</title>
<path fill="none" stroke="#63b8ff" d="M336.06,-510.5C324.54,-510.5 312.7,-510.5 301.48,-510.5"/>
<polygon fill="#63b8ff" stroke="#63b8ff" points="335.92,-514 345.92,-510.5 335.92,-507 335.92,-514"/>
</g>
<!-- Node9 -->
<g id="node9" class="node">
<title>Node9</title>
<g id="a_node9"><a xlink:href="../../d9/dea/classdoris_1_1_base_compaction.html#aa2151b92841744ba0bef4239dad7a2ad" target="_top" xlink:title=" ">
<polygon fill="white" stroke="#666666" points="134.5,-458.5 11.5,-458.5 11.5,-428.5 134.5,-428.5 134.5,-458.5"/>
<text text-anchor="start" x="19.5" y="-446.5" font-family="Helvetica,sans-Serif" font-size="10.00">doris::BaseCompaction</text>
<text text-anchor="middle" x="73" y="-435.5" font-family="Helvetica,sans-Serif" font-size="10.00">::execute_compact_impl</text>
</a>
</g>
</g>
<!-- Node8&#45;&gt;Node9 -->
<g id="edge8" class="edge">
<title>Node8&#45;&gt;Node9</title>
<path fill="none" stroke="#63b8ff" d="M178.8,-428.39C164.43,-430.47 149.14,-432.67 134.8,-434.74"/>
<polygon fill="#63b8ff" stroke="#63b8ff" points="179.2,-431.87 188.59,-426.98 178.2,-424.94 179.2,-431.87"/>
</g>
<!-- Node10 -->
<g id="node10" class="node">
<title>Node10</title>
<g id="a_node10"><a xlink:href="../../db/dfe/classdoris_1_1_cumulative_compaction.html#aa2151b92841744ba0bef4239dad7a2ad" target="_top" xlink:title=" ">
<polygon fill="white" stroke="#666666" points="146,-410.5 0,-410.5 0,-380.5 146,-380.5 146,-410.5"/>
<text text-anchor="start" x="8" y="-398.5" font-family="Helvetica,sans-Serif" font-size="10.00">doris::CumulativeCompaction</text>
<text text-anchor="middle" x="73" y="-387.5" font-family="Helvetica,sans-Serif" font-size="10.00">::execute_compact_impl</text>
</a>
</g>
</g>
<!-- Node8&#45;&gt;Node10 -->
<g id="edge9" class="edge">
<title>Node8&#45;&gt;Node10</title>
<path fill="none" stroke="#63b8ff" d="M178.84,-410.61C168.26,-409.09 157.18,-407.49 146.35,-405.93"/>
<polygon fill="#63b8ff" stroke="#63b8ff" points="178.2,-414.06 188.59,-412.02 179.2,-407.13 178.2,-414.06"/>
</g>
<!-- Node12 -->
<g id="node12" class="node">
<title>Node12</title>
<g id="a_node12"><a xlink:href="../../dc/d38/classdoris_1_1_v_schema_change_with_sorting.html#a572b14f05da72b0ad62ba76ab3cef526" target="_top" xlink:title=" ">
<polygon fill="white" stroke="#666666" points="654,-439.5 514,-439.5 514,-409.5 654,-409.5 654,-439.5"/>
<text text-anchor="start" x="522" y="-427.5" font-family="Helvetica,sans-Serif" font-size="10.00">doris::VSchemaChangeWith</text>
<text text-anchor="middle" x="584" y="-416.5" font-family="Helvetica,sans-Serif" font-size="10.00">Sorting::_external_sorting</text>
</a>
</g>
</g>
<!-- Node11&#45;&gt;Node12 -->
<g id="edge11" class="edge">
<title>Node11&#45;&gt;Node12</title>
<path fill="none" stroke="#63b8ff" d="M694.46,-424.5C681.32,-424.5 667.5,-424.5 654.27,-424.5"/>
<polygon fill="#63b8ff" stroke="#63b8ff" points="694.28,-428 704.28,-424.5 694.28,-421 694.28,-428"/>
</g>
<!-- Node14 -->
<g id="node14" class="node">
<title>Node14</title>
<g id="a_node14"><a xlink:href="../../d9/d16/classdoris_1_1_compaction.html#a94a969afaf193818f03d204665aa6e9a" target="_top" xlink:title=" ">
<polygon fill="white" stroke="#666666" points="460,-391.5 354,-391.5 354,-361.5 460,-361.5 460,-391.5"/>
<text text-anchor="start" x="362" y="-379.5" font-family="Helvetica,sans-Serif" font-size="10.00">doris::Compaction::</text>
<text text-anchor="middle" x="407" y="-368.5" font-family="Helvetica,sans-Serif" font-size="10.00">do_compaction_impl</text>
</a>
</g>
</g>
<!-- Node11&#45;&gt;Node14 -->
<g id="edge13" class="edge">
<title>Node11&#45;&gt;Node14</title>
<path fill="none" stroke="#63b8ff" d="M694.83,-408.17C681.69,-405.31 667.95,-402.59 655,-400.5 588.22,-389.74 510.45,-383.15 460.29,-379.66"/>
<polygon fill="#63b8ff" stroke="#63b8ff" points="693.69,-411.5 704.22,-410.27 695.22,-404.67 693.69,-411.5"/>
</g>
<!-- Node13 -->
<g id="node13" class="node">
<title>Node13</title>
<g id="a_node13"><a xlink:href="../../dc/d38/classdoris_1_1_v_schema_change_with_sorting.html#a0d8656af3adfb25b565ff4c3e0fe9fc5" target="_top" xlink:title=" ">
<polygon fill="white" stroke="#666666" points="477,-439.5 337,-439.5 337,-409.5 477,-409.5 477,-439.5"/>
<text text-anchor="start" x="345" y="-427.5" font-family="Helvetica,sans-Serif" font-size="10.00">doris::VSchemaChangeWith</text>
<text text-anchor="middle" x="407" y="-416.5" font-family="Helvetica,sans-Serif" font-size="10.00">Sorting::_inner_process</text>
</a>
</g>
</g>
<!-- Node12&#45;&gt;Node13 -->
<g id="edge12" class="edge">
<title>Node12&#45;&gt;Node13</title>
<path fill="none" stroke="#63b8ff" d="M502.29,-424.5C493.95,-424.5 485.53,-424.5 477.33,-424.5"/>
<polygon fill="#63b8ff" stroke="#63b8ff" points="502.07,-428 512.07,-424.5 502.07,-421 502.07,-428"/>
</g>
<!-- Node14&#45;&gt;Node8 -->
<g id="edge14" class="edge">
<title>Node14&#45;&gt;Node8</title>
<path fill="none" stroke="#63b8ff" d="M343.07,-393.05C326.42,-397.43 308.67,-402.1 292.79,-406.27"/>
<polygon fill="#63b8ff" stroke="#63b8ff" points="343.57,-396.54 352.35,-390.61 341.79,-389.77 343.57,-396.54"/>
</g>
<!-- Node16 -->
<g id="node16" class="node">
<title>Node16</title>
<g id="a_node16"><a xlink:href="../../d2/df6/classdoris_1_1vectorized_1_1_vertical_block_reader.html#a3f1f86fa24c99e22f80d344c2be65d00" target="_top" xlink:title=" ">
<polygon fill="white" stroke="#666666" points="994.5,-353.5 869.5,-353.5 869.5,-323.5 994.5,-323.5 994.5,-353.5"/>
<text text-anchor="start" x="877.5" y="-341.5" font-family="Helvetica,sans-Serif" font-size="10.00">doris::vectorized::</text>
<text text-anchor="middle" x="932" y="-330.5" font-family="Helvetica,sans-Serif" font-size="10.00">VerticalBlockReader::init</text>
</a>
</g>
</g>
<!-- Node15&#45;&gt;Node16 -->
<g id="edge16" class="edge">
<title>Node15&#45;&gt;Node16</title>
<path fill="none" stroke="#63b8ff" d="M1042.09,-304.7C1022.38,-310.81 1001.25,-317.35 982.88,-323.04"/>
<polygon fill="#63b8ff" stroke="#63b8ff" points="1042.91,-308.11 1051.43,-301.8 1040.84,-301.42 1042.91,-308.11"/>
</g>
<!-- Node17 -->
<g id="node17" class="node">
<title>Node17</title>
<g id="a_node17"><a xlink:href="../../de/de1/classdoris_1_1_merger.html#a7752630601617eda4e35135467276a60" target="_top" xlink:title=" ">
<polygon fill="white" stroke="#666666" points="817.5,-353.5 706.5,-353.5 706.5,-323.5 817.5,-323.5 817.5,-353.5"/>
<text text-anchor="start" x="714.5" y="-341.5" font-family="Helvetica,sans-Serif" font-size="10.00">doris::Merger::vertical</text>
<text text-anchor="middle" x="762" y="-330.5" font-family="Helvetica,sans-Serif" font-size="10.00">_compact_one_group</text>
</a>
</g>
</g>
<!-- Node16&#45;&gt;Node17 -->
<g id="edge17" class="edge">
<title>Node16&#45;&gt;Node17</title>
<path fill="none" stroke="#63b8ff" d="M858.18,-338.5C844.68,-338.5 830.79,-338.5 817.93,-338.5"/>
<polygon fill="#63b8ff" stroke="#63b8ff" points="857.88,-342 867.88,-338.5 857.88,-335 857.88,-342"/>
</g>
<!-- Node18 -->
<g id="node18" class="node">
<title>Node18</title>
<g id="a_node18"><a xlink:href="../../de/de1/classdoris_1_1_merger.html#a34622084aa56f64fc3119e9699712684" target="_top" xlink:title=" ">
<polygon fill="white" stroke="#666666" points="639.5,-353.5 528.5,-353.5 528.5,-323.5 639.5,-323.5 639.5,-353.5"/>
<text text-anchor="start" x="536.5" y="-341.5" font-family="Helvetica,sans-Serif" font-size="10.00">doris::Merger::vertical</text>
<text text-anchor="middle" x="584" y="-330.5" font-family="Helvetica,sans-Serif" font-size="10.00">_merge_rowsets</text>
</a>
</g>
</g>
<!-- Node17&#45;&gt;Node18 -->
<g id="edge18" class="edge">
<title>Node17&#45;&gt;Node18</title>
<path fill="none" stroke="#63b8ff" d="M694.91,-338.5C676.81,-338.5 657.4,-338.5 639.99,-338.5"/>
<polygon fill="#63b8ff" stroke="#63b8ff" points="694.76,-342 704.76,-338.5 694.76,-335 694.76,-342"/>
</g>
<!-- Node18&#45;&gt;Node14 -->
<g id="edge19" class="edge">
<title>Node18&#45;&gt;Node14</title>
<path fill="none" stroke="#63b8ff" d="M516.97,-352.84C498.23,-356.91 478.1,-361.28 460.31,-365.14"/>
<polygon fill="#63b8ff" stroke="#63b8ff" points="517.6,-356.28 526.63,-350.74 516.11,-349.44 517.6,-356.28"/>
</g>
<!-- Node21 -->
<g id="node21" class="node">
<title>Node21</title>
<g id="a_node21"><a xlink:href="../../df/d8d/classdoris_1_1vectorized_1_1_merge_sorter_state.html#a7bfe89c4e1ec0f343b9289e73cd25033" target="_top" xlink:title=" ">
<polygon fill="white" stroke="#666666" points="991.5,-269 872.5,-269 872.5,-228 991.5,-228 991.5,-269"/>
<text text-anchor="start" x="880.5" y="-257" font-family="Helvetica,sans-Serif" font-size="10.00">doris::vectorized::</text>
<text text-anchor="start" x="880.5" y="-246" font-family="Helvetica,sans-Serif" font-size="10.00">MergeSorterState::build</text>
<text text-anchor="middle" x="932" y="-235" font-family="Helvetica,sans-Serif" font-size="10.00">_merge_tree</text>
</a>
</g>
</g>
<!-- Node20&#45;&gt;Node21 -->
<g id="edge22" class="edge">
<title>Node20&#45;&gt;Node21</title>
<path fill="none" stroke="#63b8ff" d="M1034.36,-234.8C1020.1,-236.72 1005.41,-238.71 991.78,-240.55"/>
<polygon fill="#63b8ff" stroke="#63b8ff" points="1034.72,-238.28 1044.17,-233.47 1033.79,-231.34 1034.72,-238.28"/>
</g>
<!-- Node22 -->
<g id="node22" class="node">
<title>Node22</title>
<g id="a_node22"><a xlink:href="../../df/d8d/classdoris_1_1vectorized_1_1_merge_sorter_state.html#a03c95932da6534b3087f7cd7a7fd8bc0" target="_top" xlink:title=" ">
<polygon fill="white" stroke="#666666" points="995,-210 869,-210 869,-169 995,-169 995,-210"/>
<text text-anchor="start" x="877" y="-198" font-family="Helvetica,sans-Serif" font-size="10.00">doris::vectorized::</text>
<text text-anchor="start" x="877" y="-187" font-family="Helvetica,sans-Serif" font-size="10.00">MergeSorterState::merge</text>
<text text-anchor="middle" x="932" y="-176" font-family="Helvetica,sans-Serif" font-size="10.00">_sort_read</text>
</a>
</g>
</g>
<!-- Node20&#45;&gt;Node22 -->
<g id="edge23" class="edge">
<title>Node20&#45;&gt;Node22</title>
<path fill="none" stroke="#63b8ff" d="M1034.73,-209.56C1021.58,-206.97 1008.03,-204.3 995.29,-201.78"/>
<polygon fill="#63b8ff" stroke="#63b8ff" points="1033.69,-212.92 1044.18,-211.42 1035.05,-206.05 1033.69,-212.92"/>
</g>
<!-- Node23&#45;&gt;Node3 -->
<g id="edge25" class="edge">
<title>Node23&#45;&gt;Node3</title>
<path fill="none" stroke="#63b8ff" d="M1043.58,-462.01C1022.34,-462.49 999.33,-463.01 979.83,-463.44"/>
<polygon fill="#63b8ff" stroke="#63b8ff" points="1043.39,-465.51 1053.31,-461.79 1043.24,-458.52 1043.39,-465.51"/>
</g>
<!-- Node24&#45;&gt;Node16 -->
<g id="edge27" class="edge">
<title>Node24&#45;&gt;Node16</title>
<path fill="none" stroke="#63b8ff" d="M1035.01,-340.8C1021.58,-340.5 1007.73,-340.18 994.74,-339.89"/>
<polygon fill="#63b8ff" stroke="#63b8ff" points="1034.58,-344.29 1044.65,-341.02 1034.74,-337.29 1034.58,-344.29"/>
</g>
</g>
</svg>
        <g id="navigator" transform="translate(0 0)" fill="#404254">
                <rect fill="#f2f5e9" fill-opacity="0.5" stroke="#606060" stroke-width=".5" x="0" y="0" width="60" height="60"/>
                <use id="zoomplus" xlink:href="#zoomPlus" x="17" y="9" onmousedown="handleZoom(evt,'in')"/>
                <use id="zoomminus" xlink:href="#zoomMin" x="42" y="9" onmousedown="handleZoom(evt,'out')"/>
                <use id="reset" xlink:href="#resetDef" x="30" y="36" onmousedown="handleReset()"/>
                <g id="arrowUp" xlink:href="#dirArrow" transform="translate(30 24)" onmousedown="handlePan(0,-1)">
                  <use xlink:href="#rim" fill="#404040">
                        <set attributeName="fill" to="#808080" begin="arrowUp.mouseover" end="arrowUp.mouseout"/>
                  </use>
                  <path fill="none" stroke="white" stroke-width="1.5" d="M0,-3.0v7 M-2.5,-0.5L0,-3.0L2.5,-0.5"/>
                </g>
                <g id="arrowRight" xlink:href="#dirArrow" transform="rotate(90) translate(36 -43)" onmousedown="handlePan(1,0)">
                  <use xlink:href="#rim" fill="#404040">
                        <set attributeName="fill" to="#808080" begin="arrowRight.mouseover" end="arrowRight.mouseout"/>
                  </use>
                  <path fill="none" stroke="white" stroke-width="1.5" d="M0,-3.0v7 M-2.5,-0.5L0,-3.0L2.5,-0.5"/>
                </g>
                <g id="arrowDown" xlink:href="#dirArrow" transform="rotate(180) translate(-30 -48)" onmousedown="handlePan(0,1)">
                  <use xlink:href="#rim" fill="#404040">
                        <set attributeName="fill" to="#808080" begin="arrowDown.mouseover" end="arrowDown.mouseout"/>
                  </use>
                  <path fill="none" stroke="white" stroke-width="1.5" d="M0,-3.0v7 M-2.5,-0.5L0,-3.0L2.5,-0.5"/>
                </g>
                <g id="arrowLeft" xlink:href="#dirArrow" transform="rotate(270) translate(-36 17)" onmousedown="handlePan(-1,0)">
                  <use xlink:href="#rim" fill="#404040">
                        <set attributeName="fill" to="#808080" begin="arrowLeft.mouseover" end="arrowLeft.mouseout"/>
                  </use>
                  <path fill="none" stroke="white" stroke-width="1.5" d="M0,-3.0v7 M-2.5,-0.5L0,-3.0L2.5,-0.5"/>
                </g>
        </g>
        <svg viewBox="0 0 15 15" width="100%" height="30px" preserveAspectRatio="xMaxYMin meet">
         <g id="arrow_out" transform="scale(0.3 0.3)">
          <a xlink:href="classdoris_1_1vectorized_1_1_block_a963242fa2d82bde322a616d901812075_icgraph_org.svg" target="_base">
           <rect id="button" ry="5" rx="5" y="6" x="6" height="38" width="38"
                fill="#f2f5e9" fill-opacity="0.5" stroke="#606060" stroke-width="1.0"/>
           <path id="arrow"
             d="M 11.500037,31.436501 C 11.940474,20.09759 22.043105,11.32322 32.158766,21.979434 L 37.068811,17.246167 C 37.068811,17.246167 37.088388,32 37.088388,32 L 22.160133,31.978069 C 22.160133,31.978069 26.997745,27.140456 26.997745,27.140456 C 18.528582,18.264221 13.291696,25.230495 11.500037,31.436501 z"
             style="fill:#404040;"/>
          </a>
         </g>
        </svg>
</svg>
