<?xml version="1.0" encoding="UTF-8" standalone="no"?>
<!DOCTYPE svg PUBLIC "-//W3C//DTD SVG 1.1//EN"
 "http://www.w3.org/Graphics/SVG/1.1/DTD/svg11.dtd">
<!-- Generated by graphviz version 7.1.0 (20230121.1956)
 -->
<!-- Title: init_with_fixed_length Pages: 1 -->
<svg width="183pt" height="45pt"
 viewBox="0.00 0.00 183.00 45.00" xmlns="http://www.w3.org/2000/svg" xmlns:xlink="http://www.w3.org/1999/xlink">
<g id="graph0" class="graph" transform="scale(1 1) rotate(0) translate(4 41)">
<title>init_with_fixed_length</title>
<!-- Node1 -->
<g id="node1" class="node">
<title>Node1</title>
<g id="a_node1"><a xlink:title=" ">
<polygon fill="#999999" stroke="#666666" points="175,-19 65,-19 65,0 175,0 175,-19"/>
<text text-anchor="middle" x="120" y="-7" font-family="Helvetica,sans-Serif" font-size="10.00">init_with_fixed_length</text>
</a>
</g>
</g>
<!-- Node1&#45;&gt;Node1 -->
<g id="edge2" class="edge">
<title>Node1&#45;&gt;Node1</title>
<path fill="none" stroke="#63b8ff" d="M138.73,-30.43C136.38,-34.29 130.14,-37 120,-37 101.46,-37 95.95,-27.94 103.48,-19.37"/>
<polygon fill="#63b8ff" stroke="#63b8ff" points="142.2,-29.97 136.81,-20.85 135.34,-31.34 142.2,-29.97"/>
</g>
<!-- Node2 -->
<g id="node2" class="node">
<title>Node2</title>
<g id="a_node2"><a xlink:href="../../de/dfa/classdoris_1_1_bloom_filter_func_base.html#a953f0440be59a766619f23a9322fe079" target="_top" xlink:title=" ">
<polygon fill="white" stroke="#666666" points="29,-19 0,-19 0,0 29,0 29,-19"/>
<text text-anchor="middle" x="14.5" y="-7" font-family="Helvetica,sans-Serif" font-size="10.00">init</text>
</a>
</g>
</g>
<!-- Node1&#45;&gt;Node2 -->
<g id="edge1" class="edge">
<title>Node1&#45;&gt;Node2</title>
<path fill="none" stroke="#63b8ff" d="M53.05,-9.5C44.17,-9.5 35.9,-9.5 29.4,-9.5"/>
<polygon fill="#63b8ff" stroke="#63b8ff" points="53.01,-13 63.01,-9.5 53.01,-6 53.01,-13"/>
</g>
</g>
</svg>
