<?xml version="1.0" encoding="UTF-8" standalone="no"?>
<!DOCTYPE svg PUBLIC "-//W3C//DTD SVG 1.1//EN"
 "http://www.w3.org/Graphics/SVG/1.1/DTD/svg11.dtd">
<!-- Generated by graphviz version 7.1.0 (20230121.1956)
 -->
<!-- Title: get_next Pages: 1 -->
<svg width="371pt" height="316pt"
 viewBox="0.00 0.00 371.00 316.00" xmlns="http://www.w3.org/2000/svg" xmlns:xlink="http://www.w3.org/1999/xlink">
<g id="graph0" class="graph" transform="scale(1 1) rotate(0) translate(4 312)">
<title>get_next</title>
<!-- Node1 -->
<g id="node1" class="node">
<title>Node1</title>
<g id="a_node1"><a xlink:title=" ">
<polygon fill="#999999" stroke="#666666" points="54,-158.5 0,-158.5 0,-139.5 54,-139.5 54,-158.5"/>
<text text-anchor="middle" x="27" y="-146.5" font-family="Helvetica,sans-Serif" font-size="10.00">get_next</text>
</a>
</g>
</g>
<!-- Node2 -->
<g id="node2" class="node">
<title>Node2</title>
<g id="a_node2"><a xlink:href="../../d2/d12/classdoris_1_1vectorized_1_1_block.html#a9d6412d01018cbe3a62047e8cda05507" target="_top" xlink:title="remove the column at the specified position">
<polygon fill="white" stroke="#666666" points="202.5,-308 107.5,-308 107.5,-278 202.5,-278 202.5,-308"/>
<text text-anchor="start" x="115.5" y="-296" font-family="Helvetica,sans-Serif" font-size="10.00">doris::vectorized::</text>
<text text-anchor="middle" x="155" y="-285" font-family="Helvetica,sans-Serif" font-size="10.00">Block::erase</text>
</a>
</g>
</g>
<!-- Node1&#45;&gt;Node2 -->
<g id="edge1" class="edge">
<title>Node1&#45;&gt;Node2</title>
<path fill="none" stroke="#63b8ff" d="M30.48,-158.9C36.64,-181.57 54.76,-237.7 90,-269 92.29,-271.04 94.77,-272.9 97.38,-274.62"/>
<polygon fill="#63b8ff" stroke="#63b8ff" points="95.52,-277.59 105.95,-279.44 98.95,-271.49 95.52,-277.59"/>
</g>
<!-- Node4 -->
<g id="node4" class="node">
<title>Node4</title>
<g id="a_node4"><a xlink:href="../../d2/d12/classdoris_1_1vectorized_1_1_block.html#a4b218adfc4c76b14589bf33fd41b1a57" target="_top" xlink:title=" ">
<polygon fill="white" stroke="#666666" points="202.5,-260 107.5,-260 107.5,-230 202.5,-230 202.5,-260"/>
<text text-anchor="start" x="115.5" y="-248" font-family="Helvetica,sans-Serif" font-size="10.00">doris::vectorized::</text>
<text text-anchor="middle" x="155" y="-237" font-family="Helvetica,sans-Serif" font-size="10.00">Block::get_names</text>
</a>
</g>
</g>
<!-- Node1&#45;&gt;Node4 -->
<g id="edge3" class="edge">
<title>Node1&#45;&gt;Node4</title>
<path fill="none" stroke="#63b8ff" d="M34.05,-158.76C43.97,-174.03 65.11,-203.63 90,-221 92.22,-222.55 94.55,-224.01 96.95,-225.39"/>
<polygon fill="#63b8ff" stroke="#63b8ff" points="95.31,-228.48 105.81,-229.91 98.5,-222.25 95.31,-228.48"/>
</g>
<!-- Node6 -->
<g id="node6" class="node">
<title>Node6</title>
<g id="a_node6"><a xlink:href="../../d7/dc1/classdoris_1_1_runtime_state.html#a4a2dd8e32dc1500754bee926d272cbc0" target="_top" xlink:title=" ">
<polygon fill="white" stroke="#666666" points="207,-212 103,-212 103,-182 207,-182 207,-212"/>
<text text-anchor="start" x="111" y="-200" font-family="Helvetica,sans-Serif" font-size="10.00">doris::RuntimeState</text>
<text text-anchor="middle" x="155" y="-189" font-family="Helvetica,sans-Serif" font-size="10.00">::get_tracer</text>
</a>
</g>
</g>
<!-- Node1&#45;&gt;Node6 -->
<g id="edge5" class="edge">
<title>Node1&#45;&gt;Node6</title>
<path fill="none" stroke="#63b8ff" d="M53.62,-158.99C64.78,-163.32 78.03,-168.44 90,-173 93.89,-174.48 97.91,-176.01 101.96,-177.54"/>
<polygon fill="#63b8ff" stroke="#63b8ff" points="100.65,-180.79 111.25,-181.04 103.12,-174.24 100.65,-180.79"/>
</g>
<!-- Node7 -->
<g id="node7" class="node">
<title>Node7</title>
<g id="a_node7"><a xlink:href="../../d7/dc1/classdoris_1_1_runtime_state.html#a9ef43f36907b9f91b98160638621d8d2" target="_top" xlink:title=" ">
<polygon fill="white" stroke="#666666" points="207,-164 103,-164 103,-134 207,-134 207,-164"/>
<text text-anchor="start" x="111" y="-152" font-family="Helvetica,sans-Serif" font-size="10.00">doris::RuntimeState</text>
<text text-anchor="middle" x="155" y="-141" font-family="Helvetica,sans-Serif" font-size="10.00">::is_cancelled</text>
</a>
</g>
</g>
<!-- Node1&#45;&gt;Node7 -->
<g id="edge6" class="edge">
<title>Node1&#45;&gt;Node7</title>
<path fill="none" stroke="#63b8ff" d="M54.41,-149C65.24,-149 78.28,-149 91.29,-149"/>
<polygon fill="#63b8ff" stroke="#63b8ff" points="91.16,-152.5 101.16,-149 91.16,-145.5 91.16,-152.5"/>
</g>
<!-- Node8 -->
<g id="node8" class="node">
<title>Node8</title>
<g id="a_node8"><a xlink:href="../../d9/d8d/classdoris_1_1_status.html#a6ec1a217f203269ab53d2290d602db24" target="_top" xlink:title=" ">
<polygon fill="white" stroke="#666666" points="201,-115.5 109,-115.5 109,-96.5 201,-96.5 201,-115.5"/>
<text text-anchor="middle" x="155" y="-103.5" font-family="Helvetica,sans-Serif" font-size="10.00">doris::Status::OK</text>
</a>
</g>
</g>
<!-- Node1&#45;&gt;Node8 -->
<g id="edge7" class="edge">
<title>Node1&#45;&gt;Node8</title>
<path fill="none" stroke="#63b8ff" d="M52.27,-139.08C63.65,-134.57 77.44,-129.29 90,-125 95.76,-123.03 101.85,-121.08 107.89,-119.2"/>
<polygon fill="#63b8ff" stroke="#63b8ff" points="108.63,-122.64 117.18,-116.39 106.59,-115.94 108.63,-122.64"/>
</g>
<!-- Node10 -->
<g id="node10" class="node">
<title>Node10</title>
<g id="a_node10"><a xlink:href="../../d2/d49/classdoris_1_1_exec_node.html#a7461ef94acf3f095f8643ddf9c680de9" target="_top" xlink:title=" ">
<polygon fill="white" stroke="#666666" points="220,-78 90,-78 90,-48 220,-48 220,-78"/>
<text text-anchor="start" x="98" y="-66" font-family="Helvetica,sans-Serif" font-size="10.00">doris::ExecNode::reached</text>
<text text-anchor="middle" x="155" y="-55" font-family="Helvetica,sans-Serif" font-size="10.00">_limit</text>
</a>
</g>
</g>
<!-- Node1&#45;&gt;Node10 -->
<g id="edge9" class="edge">
<title>Node1&#45;&gt;Node10</title>
<path fill="none" stroke="#63b8ff" d="M35.42,-139.33C46.14,-125.91 67.22,-101.67 90,-87 91.87,-85.8 93.81,-84.64 95.8,-83.53"/>
<polygon fill="#63b8ff" stroke="#63b8ff" points="97.35,-86.67 104.71,-79.05 94.2,-80.41 97.35,-86.67"/>
</g>
<!-- Node11 -->
<g id="node11" class="node">
<title>Node11</title>
<g id="a_node11"><a xlink:href="../../d2/d12/classdoris_1_1vectorized_1_1_block.html#a7c22bac5327618d6ac842348fe2a3780" target="_top" xlink:title=" ">
<polygon fill="white" stroke="#666666" points="202.5,-30 107.5,-30 107.5,0 202.5,0 202.5,-30"/>
<text text-anchor="start" x="115.5" y="-18" font-family="Helvetica,sans-Serif" font-size="10.00">doris::vectorized::</text>
<text text-anchor="middle" x="155" y="-7" font-family="Helvetica,sans-Serif" font-size="10.00">Block::swap</text>
</a>
</g>
</g>
<!-- Node1&#45;&gt;Node11 -->
<g id="edge10" class="edge">
<title>Node1&#45;&gt;Node11</title>
<path fill="none" stroke="#63b8ff" d="M30.92,-139.29C37.78,-118.1 56.86,-67.37 90,-39 92.21,-37.11 94.58,-35.36 97.06,-33.74"/>
<polygon fill="#63b8ff" stroke="#63b8ff" points="98.75,-36.81 105.77,-28.88 95.33,-30.7 98.75,-36.81"/>
</g>
<!-- Node3 -->
<g id="node3" class="node">
<title>Node3</title>
<g id="a_node3"><a xlink:href="../../d2/d12/classdoris_1_1vectorized_1_1_block.html#a77876dcf62594f5de42179964e5bbda0" target="_top" xlink:title=" ">
<polygon fill="white" stroke="#666666" points="357,-308 262,-308 262,-278 357,-278 357,-308"/>
<text text-anchor="start" x="270" y="-296" font-family="Helvetica,sans-Serif" font-size="10.00">doris::vectorized::</text>
<text text-anchor="middle" x="309.5" y="-285" font-family="Helvetica,sans-Serif" font-size="10.00">Block::erase_impl</text>
</a>
</g>
</g>
<!-- Node2&#45;&gt;Node3 -->
<g id="edge2" class="edge">
<title>Node2&#45;&gt;Node3</title>
<path fill="none" stroke="#63b8ff" d="M203,-293C218,-293 234.78,-293 250.47,-293"/>
<polygon fill="#63b8ff" stroke="#63b8ff" points="250.14,-296.5 260.14,-293 250.14,-289.5 250.14,-296.5"/>
</g>
<!-- Node5 -->
<g id="node5" class="node">
<title>Node5</title>
<g id="a_node5"><a xlink:href="../../d2/d12/classdoris_1_1vectorized_1_1_block.html#a08f559e5612203aeedf927d660e77b67" target="_top" xlink:title=" ">
<polygon fill="white" stroke="#666666" points="357,-260 262,-260 262,-230 357,-230 357,-260"/>
<text text-anchor="start" x="270" y="-248" font-family="Helvetica,sans-Serif" font-size="10.00">doris::vectorized::</text>
<text text-anchor="middle" x="309.5" y="-237" font-family="Helvetica,sans-Serif" font-size="10.00">Block::columns</text>
</a>
</g>
</g>
<!-- Node4&#45;&gt;Node5 -->
<g id="edge4" class="edge">
<title>Node4&#45;&gt;Node5</title>
<path fill="none" stroke="#63b8ff" d="M203,-245C218,-245 234.78,-245 250.47,-245"/>
<polygon fill="#63b8ff" stroke="#63b8ff" points="250.14,-248.5 260.14,-245 250.14,-241.5 250.14,-248.5"/>
</g>
<!-- Node9 -->
<g id="node9" class="node">
<title>Node9</title>
<g id="a_node9"><a xlink:href="../../d9/d8d/classdoris_1_1_status.html#aafde58df1b2a6a91d5b674373be3ffc5" target="_top" xlink:title=" ">
<polygon fill="white" stroke="#666666" points="363,-115.5 256,-115.5 256,-96.5 363,-96.5 363,-115.5"/>
<text text-anchor="middle" x="309.5" y="-103.5" font-family="Helvetica,sans-Serif" font-size="10.00">doris::Status::Status</text>
</a>
</g>
</g>
<!-- Node8&#45;&gt;Node9 -->
<g id="edge8" class="edge">
<title>Node8&#45;&gt;Node9</title>
<path fill="none" stroke="#63b8ff" d="M201.34,-106C214.78,-106 229.76,-106 244.17,-106"/>
<polygon fill="#63b8ff" stroke="#63b8ff" points="244.04,-109.5 254.04,-106 244.04,-102.5 244.04,-109.5"/>
</g>
</g>
</svg>
