<?xml version="1.0" encoding="UTF-8" standalone="no"?>
<!DOCTYPE svg PUBLIC "-//W3C//DTD SVG 1.1//EN"
 "http://www.w3.org/Graphics/SVG/1.1/DTD/svg11.dtd">
<!-- Generated by graphviz version 7.1.0 (20230121.1956)
 -->
<!-- Title: _append_rf_into_conjuncts Pages: 1 -->
<svg width="441pt" height="199pt"
 viewBox="0.00 0.00 441.00 199.00" xmlns="http://www.w3.org/2000/svg" xmlns:xlink="http://www.w3.org/1999/xlink">
<g id="graph0" class="graph" transform="scale(1 1) rotate(0) translate(4 195)">
<title>_append_rf_into_conjuncts</title>
<!-- Node1 -->
<g id="node1" class="node">
<title>Node1</title>
<g id="a_node1"><a xlink:title=" ">
<polygon fill="#999999" stroke="#666666" points="133,-105 0,-105 0,-86 133,-86 133,-105"/>
<text text-anchor="middle" x="66.5" y="-93" font-family="Helvetica,sans-Serif" font-size="10.00">_append_rf_into_conjuncts</text>
</a>
</g>
</g>
<!-- Node2 -->
<g id="node2" class="node">
<title>Node2</title>
<g id="a_node2"><a xlink:href="../../d8/da1/classdoris_1_1_object_pool.html#a034148f79c9a093574ce5b6a020283f8" target="_top" xlink:title=" ">
<polygon fill="white" stroke="#666666" points="286,-191 173,-191 173,-172 286,-172 286,-191"/>
<text text-anchor="middle" x="229.5" y="-179" font-family="Helvetica,sans-Serif" font-size="10.00">doris::ObjectPool::add</text>
</a>
</g>
</g>
<!-- Node1&#45;&gt;Node2 -->
<g id="edge1" class="edge">
<title>Node1&#45;&gt;Node2</title>
<path fill="none" stroke="#63b8ff" d="M79.96,-105.37C98.46,-119.64 134.72,-146.1 169,-162.5 172.96,-164.39 177.15,-166.16 181.41,-167.8"/>
<polygon fill="#63b8ff" stroke="#63b8ff" points="180,-171.01 190.59,-171.09 182.35,-164.42 180,-171.01"/>
</g>
<!-- Node3 -->
<g id="node3" class="node">
<title>Node3</title>
<g id="a_node3"><a xlink:href="../../d0/d2e/classdoris_1_1vectorized_1_1_v_expr.html#a40ac99f1686eb5bf5fa8818ae01c5c27" target="_top" xlink:title=" ">
<polygon fill="white" stroke="#666666" points="277,-153.5 182,-153.5 182,-123.5 277,-123.5 277,-153.5"/>
<text text-anchor="start" x="190" y="-141.5" font-family="Helvetica,sans-Serif" font-size="10.00">doris::vectorized::</text>
<text text-anchor="middle" x="229.5" y="-130.5" font-family="Helvetica,sans-Serif" font-size="10.00">VExpr::add_child</text>
</a>
</g>
</g>
<!-- Node1&#45;&gt;Node3 -->
<g id="edge2" class="edge">
<title>Node1&#45;&gt;Node3</title>
<path fill="none" stroke="#63b8ff" d="M104.84,-105.47C124.39,-110.69 148.76,-117.2 170.69,-123.06"/>
<polygon fill="#63b8ff" stroke="#63b8ff" points="169.53,-126.37 180.09,-125.57 171.33,-119.61 169.53,-126.37"/>
</g>
<!-- Node4 -->
<g id="node4" class="node">
<title>Node4</title>
<g id="a_node4"><a xlink:href="../../d6/d94/namespacedoris.html#a9b399cb5a590c099f962710e64754e8c" target="_top" xlink:title=" ">
<polygon fill="white" stroke="#666666" points="290,-105 169,-105 169,-86 290,-86 290,-105"/>
<text text-anchor="middle" x="229.5" y="-93" font-family="Helvetica,sans-Serif" font-size="10.00">doris::create_type_desc</text>
</a>
</g>
</g>
<!-- Node1&#45;&gt;Node4 -->
<g id="edge3" class="edge">
<title>Node1&#45;&gt;Node4</title>
<path fill="none" stroke="#63b8ff" d="M133.45,-95.5C141.27,-95.5 149.28,-95.5 157.16,-95.5"/>
<polygon fill="#63b8ff" stroke="#63b8ff" points="157.09,-99 167.09,-95.5 157.09,-92 157.09,-99"/>
</g>
<!-- Node6 -->
<g id="node6" class="node">
<title>Node6</title>
<g id="a_node6"><a xlink:href="../../d0/d2e/classdoris_1_1vectorized_1_1_v_expr.html#a383b4bf9fa5747435372f741fd1747f3" target="_top" xlink:title=" ">
<polygon fill="white" stroke="#666666" points="277,-67.5 182,-67.5 182,-37.5 277,-37.5 277,-67.5"/>
<text text-anchor="start" x="190" y="-55.5" font-family="Helvetica,sans-Serif" font-size="10.00">doris::vectorized::</text>
<text text-anchor="middle" x="229.5" y="-44.5" font-family="Helvetica,sans-Serif" font-size="10.00">VExpr::is_nullable</text>
</a>
</g>
</g>
<!-- Node1&#45;&gt;Node6 -->
<g id="edge5" class="edge">
<title>Node1&#45;&gt;Node6</title>
<path fill="none" stroke="#63b8ff" d="M104.84,-85.53C124.39,-80.31 148.76,-73.8 170.69,-67.94"/>
<polygon fill="#63b8ff" stroke="#63b8ff" points="171.33,-71.39 180.09,-65.43 169.53,-64.63 171.33,-71.39"/>
</g>
<!-- Node7 -->
<g id="node7" class="node">
<title>Node7</title>
<g id="a_node7"><a xlink:href="../../d9/d8d/classdoris_1_1_status.html#a6ec1a217f203269ab53d2290d602db24" target="_top" xlink:title=" ">
<polygon fill="white" stroke="#666666" points="275.5,-19 183.5,-19 183.5,0 275.5,0 275.5,-19"/>
<text text-anchor="middle" x="229.5" y="-7" font-family="Helvetica,sans-Serif" font-size="10.00">doris::Status::OK</text>
</a>
</g>
</g>
<!-- Node1&#45;&gt;Node7 -->
<g id="edge6" class="edge">
<title>Node1&#45;&gt;Node7</title>
<path fill="none" stroke="#63b8ff" d="M79.96,-85.63C98.46,-71.36 134.72,-44.9 169,-28.5 172.96,-26.61 177.15,-24.84 181.41,-23.2"/>
<polygon fill="#63b8ff" stroke="#63b8ff" points="182.35,-26.58 190.59,-19.91 180,-19.99 182.35,-26.58"/>
</g>
<!-- Node5 -->
<g id="node5" class="node">
<title>Node5</title>
<g id="a_node5"><a xlink:href="../../d6/d94/namespacedoris.html#a0fca4c5e3db9f8ad7c02fad2854bf97e" target="_top" xlink:title=" ">
<polygon fill="white" stroke="#666666" points="418,-105 341,-105 341,-86 418,-86 418,-105"/>
<text text-anchor="middle" x="379.5" y="-93" font-family="Helvetica,sans-Serif" font-size="10.00">doris::to_thrift</text>
</a>
</g>
</g>
<!-- Node4&#45;&gt;Node5 -->
<g id="edge4" class="edge">
<title>Node4&#45;&gt;Node5</title>
<path fill="none" stroke="#63b8ff" d="M290.27,-95.5C303.29,-95.5 316.92,-95.5 329.47,-95.5"/>
<polygon fill="#63b8ff" stroke="#63b8ff" points="329.13,-99 339.13,-95.5 329.13,-92 329.13,-99"/>
</g>
<!-- Node8 -->
<g id="node8" class="node">
<title>Node8</title>
<g id="a_node8"><a xlink:href="../../d9/d8d/classdoris_1_1_status.html#aafde58df1b2a6a91d5b674373be3ffc5" target="_top" xlink:title=" ">
<polygon fill="white" stroke="#666666" points="433,-19 326,-19 326,0 433,0 433,-19"/>
<text text-anchor="middle" x="379.5" y="-7" font-family="Helvetica,sans-Serif" font-size="10.00">doris::Status::Status</text>
</a>
</g>
</g>
<!-- Node7&#45;&gt;Node8 -->
<g id="edge7" class="edge">
<title>Node7&#45;&gt;Node8</title>
<path fill="none" stroke="#63b8ff" d="M275.71,-9.5C287.87,-9.5 301.27,-9.5 314.25,-9.5"/>
<polygon fill="#63b8ff" stroke="#63b8ff" points="314,-13 324,-9.5 314,-6 314,-13"/>
</g>
</g>
</svg>
