<?xml version="1.0" encoding="UTF-8" standalone="no"?>
<!DOCTYPE svg PUBLIC "-//W3C//DTD SVG 1.1//EN"
 "http://www.w3.org/Graphics/SVG/1.1/DTD/svg11.dtd">
<!-- Generated by graphviz version 7.1.0 (20230121.1956)
 -->
<!-- Title: _normalize_compound_predicate Pages: 1 -->
<svg width="1095pt" height="1319pt"
 viewBox="0.00 0.00 1095.00 1319.38" xmlns="http://www.w3.org/2000/svg" xmlns:xlink="http://www.w3.org/1999/xlink">
<g id="graph0" class="graph" transform="scale(1 1) rotate(0) translate(4 1315.38)">
<title>_normalize_compound_predicate</title>
<!-- Node1 -->
<g id="node1" class="node">
<title>Node1</title>
<g id="a_node1"><a xlink:title=" ">
<polygon fill="#999999" stroke="#666666" points="114,-874.38 0,-874.38 0,-844.38 114,-844.38 114,-874.38"/>
<text text-anchor="start" x="8" y="-862.38" font-family="Helvetica,sans-Serif" font-size="10.00">_normalize_compound</text>
<text text-anchor="middle" x="57" y="-851.38" font-family="Helvetica,sans-Serif" font-size="10.00">_predicate</text>
</a>
</g>
</g>
<!-- Node1&#45;&gt;Node1 -->
<g id="edge25" class="edge">
<title>Node1&#45;&gt;Node1</title>
<path fill="none" stroke="#63b8ff" d="M30.81,-874.66C24.99,-883.79 33.72,-892.38 57,-892.38 69.73,-892.38 78.11,-889.81 82.14,-885.99"/>
<polygon fill="#63b8ff" stroke="#63b8ff" points="85.61,-886.45 83.05,-876.17 78.64,-885.8 85.61,-886.45"/>
</g>
<!-- Node2 -->
<g id="node2" class="node">
<title>Node2</title>
<g id="a_node2"><a xlink:href="../../de/dbb/classdoris_1_1vectorized_1_1_v_scan_node.html#a5cf05331229485508b98a11e672c510e" target="_top" xlink:title=" ">
<polygon fill="white" stroke="#666666" points="259,-1124.38 153,-1124.38 153,-1094.38 259,-1094.38 259,-1124.38"/>
<text text-anchor="start" x="161" y="-1112.38" font-family="Helvetica,sans-Serif" font-size="10.00">_is_predicate_acting</text>
<text text-anchor="middle" x="206" y="-1101.38" font-family="Helvetica,sans-Serif" font-size="10.00">_on_slot</text>
</a>
</g>
</g>
<!-- Node1&#45;&gt;Node2 -->
<g id="edge1" class="edge">
<title>Node1&#45;&gt;Node2</title>
<path fill="none" stroke="#63b8ff" d="M66.97,-874.65C91.53,-916.4 159.98,-1032.82 190.27,-1084.33"/>
<polygon fill="#63b8ff" stroke="#63b8ff" points="187.1,-1085.85 195.19,-1092.7 193.14,-1082.3 187.1,-1085.85"/>
</g>
<!-- Node3 -->
<g id="node3" class="node">
<title>Node3</title>
<g id="a_node3"><a xlink:href="../../d0/d2e/classdoris_1_1vectorized_1_1_v_expr.html#ab97a619c5a505a18ec99eb14f2e40084" target="_top" xlink:title=" ">
<polygon fill="white" stroke="#666666" points="760.5,-884.38 665.5,-884.38 665.5,-854.38 760.5,-854.38 760.5,-884.38"/>
<text text-anchor="start" x="673.5" y="-872.38" font-family="Helvetica,sans-Serif" font-size="10.00">doris::vectorized::</text>
<text text-anchor="middle" x="713" y="-861.38" font-family="Helvetica,sans-Serif" font-size="10.00">VExpr::children</text>
</a>
</g>
</g>
<!-- Node1&#45;&gt;Node3 -->
<g id="edge52" class="edge">
<title>Node1&#45;&gt;Node3</title>
<path fill="none" stroke="#63b8ff" d="M114.34,-868.72C126.1,-870.45 138.44,-872.11 150,-873.38 354.12,-895.77 407.02,-890.56 612,-878.38 625.59,-877.58 640.2,-876.42 653.94,-875.21"/>
<polygon fill="#63b8ff" stroke="#63b8ff" points="654.09,-878.71 663.73,-874.32 653.46,-871.74 654.09,-878.71"/>
</g>
<!-- Node11 -->
<g id="node11" class="node">
<title>Node11</title>
<g id="a_node11"><a xlink:href="../../d0/d2e/classdoris_1_1vectorized_1_1_v_expr.html#a2e71dadbaa465160e9d8e6225ab6ff1e" target="_top" xlink:title=" ">
<polygon fill="white" stroke="#666666" points="926.5,-864.38 831.5,-864.38 831.5,-834.38 926.5,-834.38 926.5,-864.38"/>
<text text-anchor="start" x="839.5" y="-852.38" font-family="Helvetica,sans-Serif" font-size="10.00">doris::vectorized::</text>
<text text-anchor="middle" x="879" y="-841.38" font-family="Helvetica,sans-Serif" font-size="10.00">VExpr::node_type</text>
</a>
</g>
</g>
<!-- Node1&#45;&gt;Node11 -->
<g id="edge54" class="edge">
<title>Node1&#45;&gt;Node11</title>
<path fill="none" stroke="#63b8ff" d="M79.29,-874.83C127.83,-908.48 251.47,-985.38 367.5,-985.38 367.5,-985.38 367.5,-985.38 544.5,-985.38 663.95,-985.38 790.83,-909.65 847.54,-871.22"/>
<polygon fill="#63b8ff" stroke="#63b8ff" points="849.48,-874.13 855.73,-865.58 845.51,-868.36 849.48,-874.13"/>
</g>
<!-- Node13 -->
<g id="node13" class="node">
<title>Node13</title>
<g id="a_node13"><a xlink:href="../../de/dbb/classdoris_1_1vectorized_1_1_v_scan_node.html#a112ae421293aee691191ffbf924962f4" target="_top" xlink:title=" ">
<polygon fill="white" stroke="#666666" points="424.5,-874.38 312.5,-874.38 312.5,-844.38 424.5,-844.38 424.5,-874.38"/>
<text text-anchor="start" x="320.5" y="-862.38" font-family="Helvetica,sans-Serif" font-size="10.00">_normalize_binary_in</text>
<text text-anchor="middle" x="368.5" y="-851.38" font-family="Helvetica,sans-Serif" font-size="10.00">_compound_predicate</text>
</a>
</g>
</g>
<!-- Node1&#45;&gt;Node13 -->
<g id="edge13" class="edge">
<title>Node1&#45;&gt;Node13</title>
<path fill="none" stroke="#63b8ff" d="M114.41,-859.38C166.82,-859.38 244.94,-859.38 300.5,-859.38"/>
<polygon fill="#63b8ff" stroke="#63b8ff" points="300.49,-862.88 310.49,-859.38 300.49,-855.88 300.49,-862.88"/>
</g>
<!-- Node16 -->
<g id="node16" class="node">
<title>Node16</title>
<g id="a_node16"><a xlink:href="../../d0/d2e/classdoris_1_1vectorized_1_1_v_expr.html#ad9f74ac08bd891d3119d45a7479cd8c6" target="_top" xlink:title=" ">
<polygon fill="white" stroke="#666666" points="760.5,-833.38 665.5,-833.38 665.5,-803.38 760.5,-803.38 760.5,-833.38"/>
<text text-anchor="start" x="673.5" y="-821.38" font-family="Helvetica,sans-Serif" font-size="10.00">doris::vectorized::</text>
<text text-anchor="middle" x="713" y="-810.38" font-family="Helvetica,sans-Serif" font-size="10.00">VExpr::fn</text>
</a>
</g>
</g>
<!-- Node1&#45;&gt;Node16 -->
<g id="edge53" class="edge">
<title>Node1&#45;&gt;Node16</title>
<path fill="none" stroke="#63b8ff" d="M114.17,-852.83C162.76,-847.38 234.93,-839.83 298,-835.38 424.7,-826.45 573.57,-821.75 653.75,-819.7"/>
<polygon fill="#63b8ff" stroke="#63b8ff" points="653.65,-823.2 663.56,-819.45 653.48,-816.2 653.65,-823.2"/>
</g>
<!-- Node17 -->
<g id="node17" class="node">
<title>Node17</title>
<g id="a_node17"><a xlink:href="../../d9/d8d/classdoris_1_1_status.html#a6ec1a217f203269ab53d2290d602db24" target="_top" xlink:title=" ">
<polygon fill="white" stroke="#666666" points="925,-502.88 833,-502.88 833,-483.88 925,-483.88 925,-502.88"/>
<text text-anchor="middle" x="879" y="-490.88" font-family="Helvetica,sans-Serif" font-size="10.00">doris::Status::OK</text>
</a>
</g>
</g>
<!-- Node1&#45;&gt;Node17 -->
<g id="edge55" class="edge">
<title>Node1&#45;&gt;Node17</title>
<path fill="none" stroke="#63b8ff" d="M60,-844.14C75.53,-729.16 181.03,-2.38 367.5,-2.38 367.5,-2.38 367.5,-2.38 544.5,-2.38 651.33,-2.38 702.95,16.64 778,-59.38 837.43,-119.59 868.32,-393.96 876.05,-472.39"/>
<polygon fill="#63b8ff" stroke="#63b8ff" points="872.54,-472.47 876.98,-482.09 879.5,-471.8 872.54,-472.47"/>
</g>
<!-- Node19 -->
<g id="node19" class="node">
<title>Node19</title>
<g id="a_node19"><a xlink:href="../../de/dbb/classdoris_1_1vectorized_1_1_v_scan_node.html#a441cb1816d5c086398d1123fd4d8a9d7" target="_top" xlink:title=" ">
<polygon fill="white" stroke="#666666" points="262,-686.38 150,-686.38 150,-656.38 262,-656.38 262,-686.38"/>
<text text-anchor="start" x="158" y="-674.38" font-family="Helvetica,sans-Serif" font-size="10.00">_normalize_match_in</text>
<text text-anchor="middle" x="206" y="-663.38" font-family="Helvetica,sans-Serif" font-size="10.00">_compound_predicate</text>
</a>
</g>
</g>
<!-- Node1&#45;&gt;Node19 -->
<g id="edge26" class="edge">
<title>Node1&#45;&gt;Node19</title>
<path fill="none" stroke="#63b8ff" d="M70.03,-844C95.61,-811.28 155.58,-734.59 186.24,-695.38"/>
<polygon fill="#63b8ff" stroke="#63b8ff" points="188.68,-697.94 192.08,-687.91 183.16,-693.63 188.68,-697.94"/>
</g>
<!-- Node2&#45;&gt;Node3 -->
<g id="edge2" class="edge">
<title>Node2&#45;&gt;Node3</title>
<path fill="none" stroke="#63b8ff" d="M224.83,-1093.96C242.49,-1079.25 270.77,-1057.2 298,-1042.38 429.08,-971.04 476.26,-985.42 612,-923.38 633.65,-913.49 657.11,-900.92 675.86,-890.41"/>
<polygon fill="#63b8ff" stroke="#63b8ff" points="677.46,-893.52 684.43,-885.55 674.01,-887.43 677.46,-893.52"/>
</g>
<!-- Node4 -->
<g id="node4" class="node">
<title>Node4</title>
<g id="a_node4"><a xlink:href="../../d3/d1e/namespacedoris_1_1vectorized.html#abc685b02cbe398acdce64676dfa9b73a" target="_top" xlink:title=" ">
<polygon fill="white" stroke="#666666" points="416,-1167.38 321,-1167.38 321,-1137.38 416,-1137.38 416,-1167.38"/>
<text text-anchor="start" x="329" y="-1155.38" font-family="Helvetica,sans-Serif" font-size="10.00">doris::vectorized::</text>
<text text-anchor="middle" x="368.5" y="-1144.38" font-family="Helvetica,sans-Serif" font-size="10.00">ignore_cast</text>
</a>
</g>
</g>
<!-- Node2&#45;&gt;Node4 -->
<g id="edge3" class="edge">
<title>Node2&#45;&gt;Node4</title>
<path fill="none" stroke="#63b8ff" d="M259.11,-1123.34C275.33,-1127.69 293.3,-1132.5 309.88,-1136.94"/>
<polygon fill="#63b8ff" stroke="#63b8ff" points="308.5,-1140.2 319.07,-1139.41 310.31,-1133.44 308.5,-1140.2"/>
</g>
<!-- Node8 -->
<g id="node8" class="node">
<title>Node8</title>
<g id="a_node8"><a xlink:href="../../d0/d2e/classdoris_1_1vectorized_1_1_v_expr.html#abc12921e2ba5a98e2d792b496cecbc58" target="_top" xlink:title=" ">
<polygon fill="white" stroke="#666666" points="591,-1311.38 496,-1311.38 496,-1281.38 591,-1281.38 591,-1311.38"/>
<text text-anchor="start" x="504" y="-1299.38" font-family="Helvetica,sans-Serif" font-size="10.00">doris::vectorized::</text>
<text text-anchor="middle" x="543.5" y="-1288.38" font-family="Helvetica,sans-Serif" font-size="10.00">VExpr::type</text>
</a>
</g>
</g>
<!-- Node2&#45;&gt;Node8 -->
<g id="edge12" class="edge">
<title>Node2&#45;&gt;Node8</title>
<path fill="none" stroke="#63b8ff" d="M223.86,-1124.83C241.24,-1139.99 269.72,-1162.76 298,-1176.38 356.47,-1204.55 386.91,-1175.66 439,-1214.38 463.35,-1232.48 451.38,-1253.34 475,-1272.38 478.24,-1275 481.79,-1277.33 485.51,-1279.43"/>
<polygon fill="#63b8ff" stroke="#63b8ff" points="483.78,-1282.48 494.3,-1283.75 486.86,-1276.2 483.78,-1282.48"/>
</g>
<!-- Node10 -->
<g id="node10" class="node">
<title>Node10</title>
<g id="a_node10"><a xlink:href="../../dd/dd0/structdoris_1_1_type_descriptor.html#a2c92b96353881e52fe1d687cf07bb706" target="_top" xlink:title=" ">
<polygon fill="white" stroke="#666666" points="423.5,-1081.38 313.5,-1081.38 313.5,-1051.38 423.5,-1051.38 423.5,-1081.38"/>
<text text-anchor="start" x="321.5" y="-1069.38" font-family="Helvetica,sans-Serif" font-size="10.00">doris::TypeDescriptor</text>
<text text-anchor="middle" x="368.5" y="-1058.38" font-family="Helvetica,sans-Serif" font-size="10.00">::is_datetime_type</text>
</a>
</g>
</g>
<!-- Node2&#45;&gt;Node10 -->
<g id="edge9" class="edge">
<title>Node2&#45;&gt;Node10</title>
<path fill="none" stroke="#63b8ff" d="M259.11,-1095.42C272.9,-1091.73 287.95,-1087.7 302.33,-1083.84"/>
<polygon fill="#63b8ff" stroke="#63b8ff" points="302.95,-1087.3 311.71,-1081.33 301.14,-1080.54 302.95,-1087.3"/>
</g>
<!-- Node2&#45;&gt;Node11 -->
<g id="edge10" class="edge">
<title>Node2&#45;&gt;Node11</title>
<path fill="none" stroke="#63b8ff" d="M259.42,-1107.92C306.68,-1105.93 377.93,-1101.26 439,-1090.38 455.35,-1087.47 458.98,-1084.75 475,-1080.38 609.49,-1043.73 664.71,-1080.6 778,-999.38 822.56,-967.43 852.97,-908.96 867.72,-875.23"/>
<polygon fill="#63b8ff" stroke="#63b8ff" points="870.86,-876.78 871.53,-866.21 864.42,-874.06 870.86,-876.78"/>
</g>
<!-- Node12 -->
<g id="node12" class="node">
<title>Node12</title>
<g id="a_node12"><a xlink:href="../../d7/d32/classdoris_1_1vectorized_1_1_v_slot_ref.html#aa940822f2433b05eb6c1a855306a8771" target="_top" xlink:title=" ">
<polygon fill="white" stroke="#666666" points="416,-1253.38 321,-1253.38 321,-1223.38 416,-1223.38 416,-1253.38"/>
<text text-anchor="start" x="329" y="-1241.38" font-family="Helvetica,sans-Serif" font-size="10.00">doris::vectorized::</text>
<text text-anchor="middle" x="368.5" y="-1230.38" font-family="Helvetica,sans-Serif" font-size="10.00">VSlotRef::slot_id</text>
</a>
</g>
</g>
<!-- Node2&#45;&gt;Node12 -->
<g id="edge11" class="edge">
<title>Node2&#45;&gt;Node12</title>
<path fill="none" stroke="#63b8ff" d="M217.68,-1124.87C233.19,-1146.37 263.85,-1185.31 298,-1209.38 302.38,-1212.47 307.14,-1215.31 312.04,-1217.9"/>
<polygon fill="#63b8ff" stroke="#63b8ff" points="310.35,-1220.97 320.87,-1222.22 313.42,-1214.69 310.35,-1220.97"/>
</g>
<!-- Node5 -->
<g id="node5" class="node">
<title>Node5</title>
<g id="a_node5"><a xlink:href="../../dd/dd0/structdoris_1_1_type_descriptor.html#a159a7105e668428f99419cf1ba7b0e87" target="_top" xlink:title=" ">
<polygon fill="white" stroke="#666666" points="598.5,-1263.38 488.5,-1263.38 488.5,-1233.38 598.5,-1233.38 598.5,-1263.38"/>
<text text-anchor="start" x="496.5" y="-1251.38" font-family="Helvetica,sans-Serif" font-size="10.00">doris::TypeDescriptor</text>
<text text-anchor="middle" x="543.5" y="-1240.38" font-family="Helvetica,sans-Serif" font-size="10.00">::is_array_type</text>
</a>
</g>
</g>
<!-- Node4&#45;&gt;Node5 -->
<g id="edge4" class="edge">
<title>Node4&#45;&gt;Node5</title>
<path fill="none" stroke="#63b8ff" d="M415.31,-1167.8C423.58,-1171.6 431.84,-1176.11 439,-1181.38 459.07,-1196.16 454.54,-1210.15 475,-1224.38 476.76,-1225.61 478.59,-1226.78 480.47,-1227.89"/>
<polygon fill="#63b8ff" stroke="#63b8ff" points="478.42,-1230.76 488.9,-1232.32 481.67,-1224.57 478.42,-1230.76"/>
</g>
<!-- Node6 -->
<g id="node6" class="node">
<title>Node6</title>
<g id="a_node6"><a xlink:href="../../dd/dd0/structdoris_1_1_type_descriptor.html#ab2c1315152e5008101f1abf90bfd58a9" target="_top" xlink:title=" ">
<polygon fill="white" stroke="#666666" points="598.5,-1215.38 488.5,-1215.38 488.5,-1185.38 598.5,-1185.38 598.5,-1215.38"/>
<text text-anchor="start" x="496.5" y="-1203.38" font-family="Helvetica,sans-Serif" font-size="10.00">doris::TypeDescriptor</text>
<text text-anchor="middle" x="543.5" y="-1192.38" font-family="Helvetica,sans-Serif" font-size="10.00">::is_date_type</text>
</a>
</g>
</g>
<!-- Node4&#45;&gt;Node6 -->
<g id="edge5" class="edge">
<title>Node4&#45;&gt;Node6</title>
<path fill="none" stroke="#63b8ff" d="M416.32,-1165.37C435.06,-1170.57 456.98,-1176.65 477.24,-1182.28"/>
<polygon fill="#63b8ff" stroke="#63b8ff" points="476.26,-1185.64 486.84,-1184.94 478.14,-1178.89 476.26,-1185.64"/>
</g>
<!-- Node7 -->
<g id="node7" class="node">
<title>Node7</title>
<g id="a_node7"><a xlink:href="../../dd/dd0/structdoris_1_1_type_descriptor.html#a659ea41ae61fac1c9a78db44b494f206" target="_top" xlink:title=" ">
<polygon fill="white" stroke="#666666" points="598.5,-1167.38 488.5,-1167.38 488.5,-1137.38 598.5,-1137.38 598.5,-1167.38"/>
<text text-anchor="start" x="496.5" y="-1155.38" font-family="Helvetica,sans-Serif" font-size="10.00">doris::TypeDescriptor</text>
<text text-anchor="middle" x="543.5" y="-1144.38" font-family="Helvetica,sans-Serif" font-size="10.00">::is_string_type</text>
</a>
</g>
</g>
<!-- Node4&#45;&gt;Node7 -->
<g id="edge6" class="edge">
<title>Node4&#45;&gt;Node7</title>
<path fill="none" stroke="#63b8ff" d="M416.32,-1152.38C434.97,-1152.38 456.78,-1152.38 476.96,-1152.38"/>
<polygon fill="#63b8ff" stroke="#63b8ff" points="476.78,-1155.88 486.78,-1152.38 476.78,-1148.88 476.78,-1155.88"/>
</g>
<!-- Node4&#45;&gt;Node8 -->
<g id="edge7" class="edge">
<title>Node4&#45;&gt;Node8</title>
<path fill="none" stroke="#63b8ff" d="M416.46,-1165.89C424.72,-1169.87 432.68,-1174.94 439,-1181.38 469.47,-1212.42 443.71,-1242.17 475,-1272.38 478.18,-1275.45 481.78,-1278.13 485.62,-1280.47"/>
<polygon fill="#63b8ff" stroke="#63b8ff" points="483.72,-1283.43 494.21,-1284.92 486.94,-1277.22 483.72,-1283.43"/>
</g>
<!-- Node9 -->
<g id="node9" class="node">
<title>Node9</title>
<g id="a_node9"><a xlink:href="../../da/da1/classdoris_1_1_slot_descriptor.html#ad6d5d0b735809da757c5e8b828b9a5cf" target="_top" xlink:title=" ">
<polygon fill="white" stroke="#666666" points="596.5,-1119.38 490.5,-1119.38 490.5,-1089.38 596.5,-1089.38 596.5,-1119.38"/>
<text text-anchor="start" x="498.5" y="-1107.38" font-family="Helvetica,sans-Serif" font-size="10.00">doris::SlotDescriptor</text>
<text text-anchor="middle" x="543.5" y="-1096.38" font-family="Helvetica,sans-Serif" font-size="10.00">::type</text>
</a>
</g>
</g>
<!-- Node4&#45;&gt;Node9 -->
<g id="edge8" class="edge">
<title>Node4&#45;&gt;Node9</title>
<path fill="none" stroke="#63b8ff" d="M416.32,-1139.39C435.66,-1134.03 458.37,-1127.72 479.17,-1121.96"/>
<polygon fill="#63b8ff" stroke="#63b8ff" points="480,-1125.36 488.7,-1119.31 478.13,-1118.61 480,-1125.36"/>
</g>
<!-- Node13&#45;&gt;Node3 -->
<g id="edge22" class="edge">
<title>Node13&#45;&gt;Node3</title>
<path fill="none" stroke="#63b8ff" d="M424.91,-861C487.74,-862.83 589.72,-865.81 653.72,-867.68"/>
<polygon fill="#63b8ff" stroke="#63b8ff" points="653.59,-871.18 663.69,-867.97 653.8,-864.18 653.59,-871.18"/>
</g>
<!-- Node13&#45;&gt;Node11 -->
<g id="edge23" class="edge">
<title>Node13&#45;&gt;Node11</title>
<path fill="none" stroke="#63b8ff" d="M424.97,-874.03C504.13,-892.68 653.69,-919.52 778,-893.38 799.98,-888.76 823.02,-879 841.44,-869.84"/>
<polygon fill="#63b8ff" stroke="#63b8ff" points="842.79,-873.08 850.09,-865.4 839.59,-866.86 842.79,-873.08"/>
</g>
<!-- Node14 -->
<g id="node14" class="node">
<title>Node14</title>
<g id="a_node14"><a xlink:href="../../de/dbb/classdoris_1_1vectorized_1_1_v_scan_node.html#a140118c787026b10301d9fce01789e6f" target="_top" xlink:title=" ">
<polygon fill="white" stroke="#666666" points="612,-729.38 475,-729.38 475,-699.38 612,-699.38 612,-729.38"/>
<text text-anchor="start" x="483" y="-717.38" font-family="Helvetica,sans-Serif" font-size="10.00">_should_push_down_binary</text>
<text text-anchor="middle" x="543.5" y="-706.38" font-family="Helvetica,sans-Serif" font-size="10.00">_predicate</text>
</a>
</g>
</g>
<!-- Node13&#45;&gt;Node14 -->
<g id="edge14" class="edge">
<title>Node13&#45;&gt;Node14</title>
<path fill="none" stroke="#63b8ff" d="M387.69,-844.14C418.24,-818.53 480,-766.77 515.59,-736.94"/>
<polygon fill="#63b8ff" stroke="#63b8ff" points="517.46,-739.94 522.88,-730.83 512.96,-734.57 517.46,-739.94"/>
</g>
<!-- Node13&#45;&gt;Node17 -->
<g id="edge24" class="edge">
<title>Node13&#45;&gt;Node17</title>
<path fill="none" stroke="#63b8ff" d="M375.46,-844.35C388.84,-812.26 424.14,-736.24 475,-690.38 505.23,-663.13 754.78,-549.04 845.33,-508.09"/>
<polygon fill="#63b8ff" stroke="#63b8ff" points="846.75,-511.29 854.43,-503.98 843.87,-504.91 846.75,-511.29"/>
</g>
<!-- Node14&#45;&gt;Node3 -->
<g id="edge15" class="edge">
<title>Node14&#45;&gt;Node3</title>
<path fill="none" stroke="#63b8ff" d="M593.72,-729.75C600.46,-733.42 606.83,-737.91 612,-743.38 644.15,-777.42 615.74,-808.45 648,-842.38 650.26,-844.76 652.76,-846.93 655.43,-848.93"/>
<polygon fill="#63b8ff" stroke="#63b8ff" points="653.42,-851.8 663.74,-854.2 657.17,-845.89 653.42,-851.8"/>
</g>
<!-- Node15 -->
<g id="node15" class="node">
<title>Node15</title>
<g id="a_node15"><a xlink:href="../../d0/d2e/classdoris_1_1vectorized_1_1_v_expr.html#ad24965328db1a88822f2749f2c4c5447" target="_top" xlink:title=" ">
<polygon fill="white" stroke="#666666" points="777.5,-767.38 648.5,-767.38 648.5,-737.38 777.5,-737.38 777.5,-767.38"/>
<text text-anchor="start" x="656.5" y="-755.38" font-family="Helvetica,sans-Serif" font-size="10.00">doris::vectorized::</text>
<text text-anchor="middle" x="713" y="-744.38" font-family="Helvetica,sans-Serif" font-size="10.00">VExpr::expr_without_cast</text>
</a>
</g>
</g>
<!-- Node14&#45;&gt;Node15 -->
<g id="edge16" class="edge">
<title>Node14&#45;&gt;Node15</title>
<path fill="none" stroke="#63b8ff" d="M612.15,-729.73C620.32,-731.58 628.71,-733.49 636.99,-735.37"/>
<polygon fill="#63b8ff" stroke="#63b8ff" points="636.17,-738.77 646.69,-737.57 637.72,-731.94 636.17,-738.77"/>
</g>
<!-- Node14&#45;&gt;Node16 -->
<g id="edge19" class="edge">
<title>Node14&#45;&gt;Node16</title>
<path fill="none" stroke="#63b8ff" d="M590.05,-729.84C597.8,-733.59 605.46,-738.08 612,-743.38 633.56,-760.85 626.04,-777.43 648,-794.38 650.26,-796.13 652.66,-797.76 655.16,-799.28"/>
<polygon fill="#63b8ff" stroke="#63b8ff" points="653.34,-802.28 663.81,-803.89 656.64,-796.1 653.34,-802.28"/>
</g>
<!-- Node14&#45;&gt;Node17 -->
<g id="edge20" class="edge">
<title>Node14&#45;&gt;Node17</title>
<path fill="none" stroke="#63b8ff" d="M612.49,-707.72C662.35,-699.96 729.52,-683.26 778,-647.38 825.7,-612.08 856.9,-546.7 870.38,-513.64"/>
<polygon fill="#63b8ff" stroke="#63b8ff" points="873.59,-515.04 873.99,-504.45 867.08,-512.48 873.59,-515.04"/>
</g>
<!-- Node15&#45;&gt;Node11 -->
<g id="edge18" class="edge">
<title>Node15&#45;&gt;Node11</title>
<path fill="none" stroke="#63b8ff" d="M739.99,-767.75C767.61,-784.09 811.49,-810.05 842.34,-828.29"/>
<polygon fill="#63b8ff" stroke="#63b8ff" points="840.17,-831.08 850.56,-833.15 843.74,-825.05 840.17,-831.08"/>
</g>
<!-- Node15&#45;&gt;Node15 -->
<g id="edge17" class="edge">
<title>Node15&#45;&gt;Node15</title>
<path fill="none" stroke="#63b8ff" d="M683.82,-767.66C677.34,-776.79 687.06,-785.38 713,-785.38 727.18,-785.38 736.52,-782.81 741.01,-778.99"/>
<polygon fill="#63b8ff" stroke="#63b8ff" points="744.48,-779.47 742.02,-769.16 737.51,-778.75 744.48,-779.47"/>
</g>
<!-- Node18 -->
<g id="node18" class="node">
<title>Node18</title>
<g id="a_node18"><a xlink:href="../../d9/d8d/classdoris_1_1_status.html#aafde58df1b2a6a91d5b674373be3ffc5" target="_top" xlink:title=" ">
<polygon fill="white" stroke="#666666" points="1087,-502.88 980,-502.88 980,-483.88 1087,-483.88 1087,-502.88"/>
<text text-anchor="middle" x="1033.5" y="-490.88" font-family="Helvetica,sans-Serif" font-size="10.00">doris::Status::Status</text>
</a>
</g>
</g>
<!-- Node17&#45;&gt;Node18 -->
<g id="edge21" class="edge">
<title>Node17&#45;&gt;Node18</title>
<path fill="none" stroke="#63b8ff" d="M925.34,-493.38C938.78,-493.38 953.76,-493.38 968.17,-493.38"/>
<polygon fill="#63b8ff" stroke="#63b8ff" points="968.04,-496.88 978.04,-493.38 968.04,-489.88 968.04,-496.88"/>
</g>
<!-- Node19&#45;&gt;Node3 -->
<g id="edge49" class="edge">
<title>Node19&#45;&gt;Node3</title>
<path fill="none" stroke="#63b8ff" d="M238.29,-686.87C287.82,-711.07 387.63,-758.58 475,-792.38 535.27,-815.7 605.89,-838.02 654.26,-852.57"/>
<polygon fill="#63b8ff" stroke="#63b8ff" points="653.12,-855.88 663.7,-855.39 655.12,-849.17 653.12,-855.88"/>
</g>
<!-- Node19&#45;&gt;Node11 -->
<g id="edge50" class="edge">
<title>Node19&#45;&gt;Node11</title>
<path fill="none" stroke="#63b8ff" d="M262.31,-661.94C370.4,-646.51 613.49,-626.94 778,-728.38 816.67,-752.23 847.38,-796.33 864.1,-824.19"/>
<polygon fill="#63b8ff" stroke="#63b8ff" points="860.99,-825.81 869.05,-832.69 867.04,-822.29 860.99,-825.81"/>
</g>
<!-- Node19&#45;&gt;Node17 -->
<g id="edge51" class="edge">
<title>Node19&#45;&gt;Node17</title>
<path fill="none" stroke="#63b8ff" d="M211.78,-655.91C231.68,-594.57 314.57,-367.94 475,-289.38 529.69,-262.61 554.34,-269.82 612,-289.38 723.18,-327.11 824.32,-432.06 862.2,-474.86"/>
<polygon fill="#63b8ff" stroke="#63b8ff" points="859.48,-477.07 868.69,-482.31 864.76,-472.47 859.48,-477.07"/>
</g>
<!-- Node20 -->
<g id="node20" class="node">
<title>Node20</title>
<g id="a_node20"><a xlink:href="../../de/dbb/classdoris_1_1vectorized_1_1_v_scan_node.html#aab57252ed752036603793e49597a111b" target="_top" xlink:title=" ">
<polygon fill="white" stroke="#666666" points="439,-545.88 298,-545.88 298,-526.88 439,-526.88 439,-545.88"/>
<text text-anchor="middle" x="368.5" y="-533.88" font-family="Helvetica,sans-Serif" font-size="10.00">_normalize_match_predicate</text>
</a>
</g>
</g>
<!-- Node19&#45;&gt;Node20 -->
<g id="edge27" class="edge">
<title>Node19&#45;&gt;Node20</title>
<path fill="none" stroke="#63b8ff" d="M225.41,-655.9C255.69,-630.43 315.76,-579.9 347.22,-553.44"/>
<polygon fill="#63b8ff" stroke="#63b8ff" points="349.08,-556.45 354.48,-547.33 344.58,-551.09 349.08,-556.45"/>
</g>
<!-- Node20&#45;&gt;Node3 -->
<g id="edge32" class="edge">
<title>Node20&#45;&gt;Node3</title>
<path fill="none" stroke="#63b8ff" d="M372.38,-545.95C382.16,-577.07 416.73,-676.96 475,-738.38 523.68,-789.7 551.74,-782.34 612,-819.38 628.17,-829.33 631.19,-833.55 648,-842.38 652.63,-844.81 657.52,-847.2 662.46,-849.48"/>
<polygon fill="#63b8ff" stroke="#63b8ff" points="660.65,-852.5 671.21,-853.38 663.5,-846.11 660.65,-852.5"/>
</g>
<!-- Node20&#45;&gt;Node9 -->
<g id="edge48" class="edge">
<title>Node20&#45;&gt;Node9</title>
<path fill="none" stroke="#63b8ff" d="M372.5,-546.24C392.25,-611.07 503.64,-976.8 534.55,-1078.27"/>
<polygon fill="#63b8ff" stroke="#63b8ff" points="531.13,-1079.05 537.39,-1087.6 537.82,-1077.01 531.13,-1079.05"/>
</g>
<!-- Node20&#45;&gt;Node11 -->
<g id="edge44" class="edge">
<title>Node20&#45;&gt;Node11</title>
<path fill="none" stroke="#63b8ff" d="M394.43,-546.32C415.67,-554.61 447.1,-566.47 475,-575.38 607.9,-617.83 669.3,-569.94 778,-657.38 831.97,-700.8 860.06,-781.22 871.56,-822.86"/>
<polygon fill="#63b8ff" stroke="#63b8ff" points="868.18,-823.74 874.11,-832.52 874.94,-821.96 868.18,-823.74"/>
</g>
<!-- Node20&#45;&gt;Node14 -->
<g id="edge28" class="edge">
<title>Node20&#45;&gt;Node14</title>
<path fill="none" stroke="#63b8ff" d="M379.05,-546.21C405.76,-573.7 481.82,-651.95 520.02,-691.26"/>
<polygon fill="#63b8ff" stroke="#63b8ff" points="517.04,-693.2 526.52,-697.94 522.06,-688.33 517.04,-693.2"/>
</g>
<!-- Node20&#45;&gt;Node17 -->
<g id="edge45" class="edge">
<title>Node20&#45;&gt;Node17</title>
<path fill="none" stroke="#63b8ff" d="M386.32,-526.44C406.55,-515.12 441.94,-497.28 475,-490.38 596.43,-465.06 742.94,-476.25 821.56,-485.52"/>
<polygon fill="#63b8ff" stroke="#63b8ff" points="820.81,-488.96 831.16,-486.69 821.65,-482.01 820.81,-488.96"/>
</g>
<!-- Node21 -->
<g id="node21" class="node">
<title>Node21</title>
<g id="a_node21"><a xlink:href="../../d5/d96/classdoris_1_1_column_value_range.html#aa87482c23f85a737c96ed5708b264ae5" target="_top" xlink:title=" ">
<polygon fill="white" stroke="#666666" points="608.5,-529.38 478.5,-529.38 478.5,-499.38 608.5,-499.38 608.5,-529.38"/>
<text text-anchor="start" x="486.5" y="-517.38" font-family="Helvetica,sans-Serif" font-size="10.00">doris::ColumnValueRange</text>
<text text-anchor="middle" x="543.5" y="-506.38" font-family="Helvetica,sans-Serif" font-size="10.00">::add_match_value_range</text>
</a>
</g>
</g>
<!-- Node20&#45;&gt;Node21 -->
<g id="edge29" class="edge">
<title>Node20&#45;&gt;Node21</title>
<path fill="none" stroke="#63b8ff" d="M439.37,-527.5C448.5,-526.34 457.89,-525.14 467.11,-523.97"/>
<polygon fill="#63b8ff" stroke="#63b8ff" points="467.26,-527.48 476.74,-522.75 466.38,-520.53 467.26,-527.48"/>
</g>
<!-- Node23 -->
<g id="node23" class="node">
<title>Node23</title>
<g id="a_node23"><a xlink:href="../../d5/d96/classdoris_1_1_column_value_range.html#a7c787bf42893bfbcea57cf7d1e417544" target="_top" xlink:title=" ">
<polygon fill="white" stroke="#666666" points="608.5,-424.88 478.5,-424.88 478.5,-383.88 608.5,-383.88 608.5,-424.88"/>
<text text-anchor="start" x="486.5" y="-412.88" font-family="Helvetica,sans-Serif" font-size="10.00">doris::ColumnValueRange</text>
<text text-anchor="start" x="486.5" y="-401.88" font-family="Helvetica,sans-Serif" font-size="10.00">::create_empty_column</text>
<text text-anchor="middle" x="543.5" y="-390.88" font-family="Helvetica,sans-Serif" font-size="10.00">_value_range</text>
</a>
</g>
</g>
<!-- Node20&#45;&gt;Node23 -->
<g id="edge33" class="edge">
<title>Node20&#45;&gt;Node23</title>
<path fill="none" stroke="#63b8ff" d="M382.5,-526.46C408.47,-506.65 467.58,-461.54 506.23,-432.06"/>
<polygon fill="#63b8ff" stroke="#63b8ff" points="508.07,-435.05 513.9,-426.21 503.82,-429.49 508.07,-435.05"/>
</g>
<!-- Node24 -->
<g id="node24" class="node">
<title>Node24</title>
<g id="a_node24"><a xlink:href="../../d5/d96/classdoris_1_1_column_value_range.html#a80595704e067f510ba5c87b15d304a92" target="_top" xlink:title=" ">
<polygon fill="white" stroke="#666666" points="608.5,-194.38 478.5,-194.38 478.5,-164.38 608.5,-164.38 608.5,-194.38"/>
<text text-anchor="start" x="486.5" y="-182.38" font-family="Helvetica,sans-Serif" font-size="10.00">doris::ColumnValueRange</text>
<text text-anchor="middle" x="543.5" y="-171.38" font-family="Helvetica,sans-Serif" font-size="10.00">::intersection</text>
</a>
</g>
</g>
<!-- Node20&#45;&gt;Node24 -->
<g id="edge35" class="edge">
<title>Node20&#45;&gt;Node24</title>
<path fill="none" stroke="#63b8ff" d="M373.04,-526.73C385.44,-493.19 428.76,-378.86 475,-289.38 490.63,-259.14 511.48,-226.05 525.86,-204.14"/>
<polygon fill="#63b8ff" stroke="#63b8ff" points="528.71,-206.17 531.31,-195.89 522.88,-202.3 528.71,-206.17"/>
</g>
<!-- Node31 -->
<g id="node31" class="node">
<title>Node31</title>
<g id="a_node31"><a xlink:href="../../d6/d94/namespacedoris.html#a88effa507574b4214b1250baf417606f" target="_top" xlink:title=" ">
<polygon fill="white" stroke="#666666" points="607.5,-365.88 479.5,-365.88 479.5,-346.88 607.5,-346.88 607.5,-365.88"/>
<text text-anchor="middle" x="543.5" y="-353.88" font-family="Helvetica,sans-Serif" font-size="10.00">doris::is_match_condition</text>
</a>
</g>
</g>
<!-- Node20&#45;&gt;Node31 -->
<g id="edge43" class="edge">
<title>Node20&#45;&gt;Node31</title>
<path fill="none" stroke="#63b8ff" d="M372.97,-526.58C383.5,-498.26 417.93,-415.74 475,-374.38 476.55,-373.26 478.17,-372.2 479.84,-371.21"/>
<polygon fill="#63b8ff" stroke="#63b8ff" points="481.11,-374.49 488.52,-366.91 478,-368.22 481.11,-374.49"/>
</g>
<!-- Node32 -->
<g id="node32" class="node">
<title>Node32</title>
<g id="a_node32"><a xlink:href="../../d0/d2e/classdoris_1_1vectorized_1_1_v_expr.html#a5ce9a1ef6a738bd4c7a8646205336de9" target="_top" xlink:title=" ">
<polygon fill="white" stroke="#666666" points="591,-328.38 496,-328.38 496,-298.38 591,-298.38 591,-328.38"/>
<text text-anchor="start" x="504" y="-316.38" font-family="Helvetica,sans-Serif" font-size="10.00">doris::vectorized::</text>
<text text-anchor="middle" x="543.5" y="-305.38" font-family="Helvetica,sans-Serif" font-size="10.00">VExpr::op</text>
</a>
</g>
</g>
<!-- Node20&#45;&gt;Node32 -->
<g id="edge46" class="edge">
<title>Node20&#45;&gt;Node32</title>
<path fill="none" stroke="#63b8ff" d="M371.97,-526.49C380.5,-494.39 411.67,-392.09 475,-337.38 478.2,-334.62 481.74,-332.17 485.48,-329.99"/>
<polygon fill="#63b8ff" stroke="#63b8ff" points="486.99,-333.14 494.36,-325.53 483.85,-326.89 486.99,-333.14"/>
</g>
<!-- Node33 -->
<g id="node33" class="node">
<title>Node33</title>
<g id="a_node33"><a xlink:href="../../d6/d94/namespacedoris.html#a936919a2e0c2a3f003474d6e182351a6" target="_top" xlink:title=" ">
<polygon fill="white" stroke="#666666" points="597.5,-566.88 489.5,-566.88 489.5,-547.88 597.5,-547.88 597.5,-566.88"/>
<text text-anchor="middle" x="543.5" y="-554.88" font-family="Helvetica,sans-Serif" font-size="10.00">doris::to_match_type</text>
</a>
</g>
</g>
<!-- Node20&#45;&gt;Node33 -->
<g id="edge47" class="edge">
<title>Node20&#45;&gt;Node33</title>
<path fill="none" stroke="#63b8ff" d="M439.37,-544.86C452.08,-546.41 465.28,-548.01 477.83,-549.53"/>
<polygon fill="#63b8ff" stroke="#63b8ff" points="477.29,-552.99 487.64,-550.72 478.13,-546.04 477.29,-552.99"/>
</g>
<!-- Node22 -->
<g id="node22" class="node">
<title>Node22</title>
<g id="a_node22"><a xlink:href="../../d5/d96/classdoris_1_1_column_value_range.html#adb06ae72f31671023bc30683fd53bbbc" target="_top" xlink:title=" ">
<polygon fill="white" stroke="#666666" points="778,-529.38 648,-529.38 648,-499.38 778,-499.38 778,-529.38"/>
<text text-anchor="start" x="656" y="-517.38" font-family="Helvetica,sans-Serif" font-size="10.00">doris::ColumnValueRange</text>
<text text-anchor="middle" x="713" y="-506.38" font-family="Helvetica,sans-Serif" font-size="10.00">::add_match_value</text>
</a>
</g>
</g>
<!-- Node21&#45;&gt;Node22 -->
<g id="edge30" class="edge">
<title>Node21&#45;&gt;Node22</title>
<path fill="none" stroke="#63b8ff" d="M608.78,-514.38C617.73,-514.38 627,-514.38 636.14,-514.38"/>
<polygon fill="#63b8ff" stroke="#63b8ff" points="636.1,-517.88 646.1,-514.38 636.1,-510.88 636.1,-517.88"/>
</g>
<!-- Node22&#45;&gt;Node17 -->
<g id="edge31" class="edge">
<title>Node22&#45;&gt;Node17</title>
<path fill="none" stroke="#63b8ff" d="M778.35,-506.14C792.51,-504.33 807.41,-502.42 821.24,-500.65"/>
<polygon fill="#63b8ff" stroke="#63b8ff" points="821.6,-504.13 831.08,-499.39 820.71,-497.19 821.6,-504.13"/>
</g>
<!-- Node23&#45;&gt;Node23 -->
<g id="edge34" class="edge">
<title>Node23&#45;&gt;Node23</title>
<path fill="none" stroke="#63b8ff" d="M512.22,-425.37C509.24,-434.76 519.66,-442.88 543.5,-442.88 557.28,-442.88 566.58,-440.17 571.4,-436.06"/>
<polygon fill="#63b8ff" stroke="#63b8ff" points="574.64,-437.4 574.33,-426.81 567.97,-435.29 574.64,-437.4"/>
</g>
<!-- Node25 -->
<g id="node25" class="node">
<title>Node25</title>
<g id="a_node25"><a xlink:href="../../d5/d96/classdoris_1_1_column_value_range.html#a015df52a487aa3fcfdbfec1e202d7203" target="_top" xlink:title=" ">
<polygon fill="white" stroke="#666666" points="944,-77.38 814,-77.38 814,-47.38 944,-47.38 944,-77.38"/>
<text text-anchor="start" x="822" y="-65.38" font-family="Helvetica,sans-Serif" font-size="10.00">doris::ColumnValueRange</text>
<text text-anchor="middle" x="879" y="-54.38" font-family="Helvetica,sans-Serif" font-size="10.00">::contain_null</text>
</a>
</g>
</g>
<!-- Node24&#45;&gt;Node25 -->
<g id="edge36" class="edge">
<title>Node24&#45;&gt;Node25</title>
<path fill="none" stroke="#63b8ff" d="M552.11,-163.91C566.48,-136.71 600.48,-81.15 648,-59.38 696.05,-37.37 755.88,-38.92 802.48,-45.55"/>
<polygon fill="#63b8ff" stroke="#63b8ff" points="801.81,-48.99 812.22,-47.06 802.87,-42.07 801.81,-48.99"/>
</g>
<!-- Node26 -->
<g id="node26" class="node">
<title>Node26</title>
<g id="a_node26"><a xlink:href="../../d5/d96/classdoris_1_1_column_value_range.html#a717a0be827acdd318b76b220176765dc" target="_top" xlink:title=" ">
<polygon fill="white" stroke="#666666" points="778,-146.38 648,-146.38 648,-116.38 778,-116.38 778,-146.38"/>
<text text-anchor="start" x="656" y="-134.38" font-family="Helvetica,sans-Serif" font-size="10.00">doris::ColumnValueRange</text>
<text text-anchor="middle" x="713" y="-123.38" font-family="Helvetica,sans-Serif" font-size="10.00">::is_empty_value_range</text>
</a>
</g>
</g>
<!-- Node24&#45;&gt;Node26 -->
<g id="edge37" class="edge">
<title>Node24&#45;&gt;Node26</title>
<path fill="none" stroke="#63b8ff" d="M598.42,-163.93C613.96,-159.48 631.08,-154.57 647.21,-149.95"/>
<polygon fill="#63b8ff" stroke="#63b8ff" points="648.08,-153.34 656.73,-147.22 646.15,-146.61 648.08,-153.34"/>
</g>
<!-- Node27 -->
<g id="node27" class="node">
<title>Node27</title>
<g id="a_node27"><a xlink:href="../../d5/d96/classdoris_1_1_column_value_range.html#ab5f4f3a81c5d7a9c3da4a45ab19ccfbf" target="_top" xlink:title=" ">
<polygon fill="white" stroke="#666666" points="778,-290.38 648,-290.38 648,-260.38 778,-260.38 778,-290.38"/>
<text text-anchor="start" x="656" y="-278.38" font-family="Helvetica,sans-Serif" font-size="10.00">doris::ColumnValueRange</text>
<text text-anchor="middle" x="713" y="-267.38" font-family="Helvetica,sans-Serif" font-size="10.00">::is_fixed_value_range</text>
</a>
</g>
</g>
<!-- Node24&#45;&gt;Node27 -->
<g id="edge38" class="edge">
<title>Node24&#45;&gt;Node27</title>
<path fill="none" stroke="#63b8ff" d="M563.42,-194.71C583.49,-210.45 616.6,-234.9 648,-251.38 650.67,-252.78 653.43,-254.14 656.25,-255.45"/>
<polygon fill="#63b8ff" stroke="#63b8ff" points="654.67,-258.58 665.24,-259.37 657.47,-252.16 654.67,-258.58"/>
</g>
<!-- Node28 -->
<g id="node28" class="node">
<title>Node28</title>
<g id="a_node28"><a xlink:href="../../d5/d96/classdoris_1_1_column_value_range.html#a72ae48ddba564394ea531801c478b0ca" target="_top" xlink:title=" ">
<polygon fill="white" stroke="#666666" points="778,-242.38 648,-242.38 648,-212.38 778,-212.38 778,-242.38"/>
<text text-anchor="start" x="656" y="-230.38" font-family="Helvetica,sans-Serif" font-size="10.00">doris::ColumnValueRange</text>
<text text-anchor="middle" x="713" y="-219.38" font-family="Helvetica,sans-Serif" font-size="10.00">::is_in_range</text>
</a>
</g>
</g>
<!-- Node24&#45;&gt;Node28 -->
<g id="edge39" class="edge">
<title>Node24&#45;&gt;Node28</title>
<path fill="none" stroke="#63b8ff" d="M598.42,-194.83C613.96,-199.29 631.08,-204.19 647.21,-208.81"/>
<polygon fill="#63b8ff" stroke="#63b8ff" points="646.15,-212.15 656.73,-211.54 648.08,-205.42 646.15,-212.15"/>
</g>
<!-- Node29 -->
<g id="node29" class="node">
<title>Node29</title>
<g id="a_node29"><a xlink:href="../../d5/d96/classdoris_1_1_column_value_range.html#aeb25ea17f9d76b6d93414485cce7689a" target="_top" xlink:title=" ">
<polygon fill="white" stroke="#666666" points="778,-194.38 648,-194.38 648,-164.38 778,-164.38 778,-194.38"/>
<text text-anchor="start" x="656" y="-182.38" font-family="Helvetica,sans-Serif" font-size="10.00">doris::ColumnValueRange</text>
<text text-anchor="middle" x="713" y="-171.38" font-family="Helvetica,sans-Serif" font-size="10.00">::is_match_value_range</text>
</a>
</g>
</g>
<!-- Node24&#45;&gt;Node29 -->
<g id="edge40" class="edge">
<title>Node24&#45;&gt;Node29</title>
<path fill="none" stroke="#63b8ff" d="M608.78,-179.38C617.73,-179.38 627,-179.38 636.14,-179.38"/>
<polygon fill="#63b8ff" stroke="#63b8ff" points="636.1,-182.88 646.1,-179.38 636.1,-175.88 636.1,-182.88"/>
</g>
<!-- Node30 -->
<g id="node30" class="node">
<title>Node30</title>
<g id="a_node30"><a xlink:href="../../d5/d96/classdoris_1_1_column_value_range.html#ab37da06d4b77f5ab6ebf61f61f112311" target="_top" xlink:title=" ">
<polygon fill="white" stroke="#666666" points="778,-98.38 648,-98.38 648,-68.38 778,-68.38 778,-98.38"/>
<text text-anchor="start" x="656" y="-86.38" font-family="Helvetica,sans-Serif" font-size="10.00">doris::ColumnValueRange</text>
<text text-anchor="middle" x="713" y="-75.38" font-family="Helvetica,sans-Serif" font-size="10.00">::is_whole_value_range</text>
</a>
</g>
</g>
<!-- Node24&#45;&gt;Node30 -->
<g id="edge41" class="edge">
<title>Node24&#45;&gt;Node30</title>
<path fill="none" stroke="#63b8ff" d="M563.42,-164.05C583.49,-148.32 616.6,-123.86 648,-107.38 650.67,-105.98 653.43,-104.63 656.25,-103.32"/>
<polygon fill="#63b8ff" stroke="#63b8ff" points="657.47,-106.6 665.24,-99.39 654.67,-100.19 657.47,-106.6"/>
</g>
<!-- Node30&#45;&gt;Node25 -->
<g id="edge42" class="edge">
<title>Node30&#45;&gt;Node25</title>
<path fill="none" stroke="#63b8ff" d="M778.35,-75.14C786.21,-74.14 794.31,-73.1 802.33,-72.07"/>
<polygon fill="#63b8ff" stroke="#63b8ff" points="802.59,-75.57 812.07,-70.83 801.71,-68.62 802.59,-75.57"/>
</g>
</g>
</svg>
