<?xml version="1.0" encoding="UTF-8" standalone="no"?>
<!DOCTYPE svg PUBLIC "-//W3C//DTD SVG 1.1//EN"
 "http://www.w3.org/Graphics/SVG/1.1/DTD/svg11.dtd">
<!-- Generated by graphviz version 7.1.0 (20230121.1956)
 -->
<!-- Title: properties Pages: 1 -->
<svg width="603pt" height="167pt"
 viewBox="0.00 0.00 603.00 167.00" xmlns="http://www.w3.org/2000/svg" xmlns:xlink="http://www.w3.org/1999/xlink">
<g id="graph0" class="graph" transform="scale(1 1) rotate(0) translate(4 163)">
<title>properties</title>
<!-- Node1 -->
<g id="node1" class="node">
<title>Node1</title>
<g id="a_node1"><a xlink:title=" ">
<polygon fill="#999999" stroke="#666666" points="595,-89 536,-89 536,-70 595,-70 595,-89"/>
<text text-anchor="middle" x="565.5" y="-77" font-family="Helvetica,sans-Serif" font-size="10.00">properties</text>
</a>
</g>
</g>
<!-- Node2 -->
<g id="node2" class="node">
<title>Node2</title>
<g id="a_node2"><a xlink:href="../../d3/d99/classdoris_1_1segment__v2_1_1_column_reader.html#a3327caa827c537e1f09698df859e27fd" target="_top" xlink:title=" ">
<polygon fill="white" stroke="#666666" points="476.5,-159 363.5,-159 363.5,-118 476.5,-118 476.5,-159"/>
<text text-anchor="start" x="371.5" y="-147" font-family="Helvetica,sans-Serif" font-size="10.00">doris::segment_v2::</text>
<text text-anchor="start" x="371.5" y="-136" font-family="Helvetica,sans-Serif" font-size="10.00">ColumnReader::_load</text>
<text text-anchor="middle" x="420" y="-125" font-family="Helvetica,sans-Serif" font-size="10.00">_inverted_index_index</text>
</a>
</g>
</g>
<!-- Node1&#45;&gt;Node2 -->
<g id="edge1" class="edge">
<title>Node1&#45;&gt;Node2</title>
<path fill="none" stroke="#63b8ff" d="M534.22,-94.22C523.5,-99.26 511.29,-104.81 500,-109.5 492.58,-112.58 484.7,-115.68 476.9,-118.64"/>
<polygon fill="#63b8ff" stroke="#63b8ff" points="535.46,-97.5 542.99,-90.05 532.46,-91.18 535.46,-97.5"/>
</g>
<!-- Node5 -->
<g id="node5" class="node">
<title>Node5</title>
<g id="a_node5"><a xlink:href="../../dd/d5c/classdoris_1_1segment__v2_1_1_inverted_index_column_writer_impl.html#abb0d5da7a46571fa521469bf3394e8a6" target="_top" xlink:title=" ">
<polygon fill="white" stroke="#666666" points="500,-100 340,-100 340,-59 500,-59 500,-100"/>
<text text-anchor="start" x="348" y="-88" font-family="Helvetica,sans-Serif" font-size="10.00">doris::segment_v2::</text>
<text text-anchor="start" x="348" y="-77" font-family="Helvetica,sans-Serif" font-size="10.00">InvertedIndexColumnWriterImpl</text>
<text text-anchor="middle" x="420" y="-66" font-family="Helvetica,sans-Serif" font-size="10.00">::InvertedIndexColumnWriterImpl</text>
</a>
</g>
</g>
<!-- Node1&#45;&gt;Node5 -->
<g id="edge4" class="edge">
<title>Node1&#45;&gt;Node5</title>
<path fill="none" stroke="#63b8ff" d="M524.48,-79.5C516.92,-79.5 508.78,-79.5 500.5,-79.5"/>
<polygon fill="#63b8ff" stroke="#63b8ff" points="524.29,-83 534.29,-79.5 524.29,-76 524.29,-83"/>
</g>
<!-- Node6 -->
<g id="node6" class="node">
<title>Node6</title>
<g id="a_node6"><a xlink:href="../../da/d3e/classdoris_1_1segment__v2_1_1_inverted_index_iterator.html#a2b4566cb35e37a4e918d5fb80416157d" target="_top" xlink:title=" ">
<polygon fill="white" stroke="#666666" points="476.5,-41 363.5,-41 363.5,0 476.5,0 476.5,-41"/>
<text text-anchor="start" x="371.5" y="-29" font-family="Helvetica,sans-Serif" font-size="10.00">doris::segment_v2::</text>
<text text-anchor="start" x="371.5" y="-18" font-family="Helvetica,sans-Serif" font-size="10.00">InvertedIndexIterator</text>
<text text-anchor="middle" x="420" y="-7" font-family="Helvetica,sans-Serif" font-size="10.00">::InvertedIndexIterator</text>
</a>
</g>
</g>
<!-- Node1&#45;&gt;Node6 -->
<g id="edge5" class="edge">
<title>Node1&#45;&gt;Node6</title>
<path fill="none" stroke="#63b8ff" d="M532.84,-64.81C522.44,-60.11 510.78,-54.96 500,-50.5 492.55,-47.41 484.65,-44.27 476.84,-41.23"/>
<polygon fill="#63b8ff" stroke="#63b8ff" points="531.21,-67.92 541.76,-68.88 534.12,-61.55 531.21,-67.92"/>
</g>
<!-- Node3 -->
<g id="node3" class="node">
<title>Node3</title>
<g id="a_node3"><a xlink:href="../../d3/d99/classdoris_1_1segment__v2_1_1_column_reader.html#a68b741c7afa643ba17eae52e37857dde" target="_top" xlink:title=" ">
<polygon fill="white" stroke="#666666" points="304,-159 182,-159 182,-118 304,-118 304,-159"/>
<text text-anchor="start" x="190" y="-147" font-family="Helvetica,sans-Serif" font-size="10.00">doris::segment_v2::</text>
<text text-anchor="start" x="190" y="-136" font-family="Helvetica,sans-Serif" font-size="10.00">ColumnReader::_ensure</text>
<text text-anchor="middle" x="243" y="-125" font-family="Helvetica,sans-Serif" font-size="10.00">_inverted_index_loaded</text>
</a>
</g>
</g>
<!-- Node2&#45;&gt;Node3 -->
<g id="edge2" class="edge">
<title>Node2&#45;&gt;Node3</title>
<path fill="none" stroke="#63b8ff" d="M351.96,-138.5C336.34,-138.5 319.79,-138.5 304.47,-138.5"/>
<polygon fill="#63b8ff" stroke="#63b8ff" points="351.63,-142 361.63,-138.5 351.63,-135 351.63,-142"/>
</g>
<!-- Node4 -->
<g id="node4" class="node">
<title>Node4</title>
<g id="a_node4"><a xlink:href="../../d3/d99/classdoris_1_1segment__v2_1_1_column_reader.html#a67e55bf0935be37004a31c461bf258d0" target="_top" xlink:title=" ">
<polygon fill="white" stroke="#666666" points="146,-159 0,-159 0,-118 146,-118 146,-159"/>
<text text-anchor="start" x="8" y="-147" font-family="Helvetica,sans-Serif" font-size="10.00">doris::segment_v2::</text>
<text text-anchor="start" x="8" y="-136" font-family="Helvetica,sans-Serif" font-size="10.00">ColumnReader::new_inverted</text>
<text text-anchor="middle" x="73" y="-125" font-family="Helvetica,sans-Serif" font-size="10.00">_index_iterator</text>
</a>
</g>
</g>
<!-- Node3&#45;&gt;Node4 -->
<g id="edge3" class="edge">
<title>Node3&#45;&gt;Node4</title>
<path fill="none" stroke="#63b8ff" d="M170.34,-138.5C162.41,-138.5 154.32,-138.5 146.38,-138.5"/>
<polygon fill="#63b8ff" stroke="#63b8ff" points="170.31,-142 180.31,-138.5 170.31,-135 170.31,-142"/>
</g>
</g>
</svg>
