<?xml version="1.0" encoding="UTF-8" standalone="no"?>
<!DOCTYPE svg PUBLIC "-//W3C//DTD SVG 1.1//EN"
 "http://www.w3.org/Graphics/SVG/1.1/DTD/svg11.dtd">
<!-- Generated by graphviz version 7.1.0 (20230121.1956)
 -->
<!-- Title: init_from_thrift Pages: 1 -->
<svg width="229pt" height="124pt"
 viewBox="0.00 0.00 229.00 123.50" xmlns="http://www.w3.org/2000/svg" xmlns:xlink="http://www.w3.org/1999/xlink">
<g id="graph0" class="graph" transform="scale(1 1) rotate(0) translate(4 119.5)">
<title>init_from_thrift</title>
<!-- Node1 -->
<g id="node1" class="node">
<title>Node1</title>
<g id="a_node1"><a xlink:title=" ">
<polygon fill="#999999" stroke="#666666" points="79,-72.5 0,-72.5 0,-53.5 79,-53.5 79,-72.5"/>
<text text-anchor="middle" x="39.5" y="-60.5" font-family="Helvetica,sans-Serif" font-size="10.00">init_from_thrift</text>
</a>
</g>
</g>
<!-- Node2 -->
<g id="node2" class="node">
<title>Node2</title>
<g id="a_node2"><a xlink:href="../../d1/da0/classdoris_1_1_tablet_index.html#af82a062368ed19d27c7c3299aa7e2130" target="_top" xlink:title=" ">
<polygon fill="white" stroke="#666666" points="208.5,-115.5 127.5,-115.5 127.5,-96.5 208.5,-96.5 208.5,-115.5"/>
<text text-anchor="middle" x="168" y="-103.5" font-family="Helvetica,sans-Serif" font-size="10.00">col_unique_ids</text>
</a>
</g>
</g>
<!-- Node1&#45;&gt;Node2 -->
<g id="edge1" class="edge">
<title>Node1&#45;&gt;Node2</title>
<path fill="none" stroke="#63b8ff" d="M69.84,-72.97C86.84,-78.75 108.49,-86.11 127.03,-92.41"/>
<polygon fill="#63b8ff" stroke="#63b8ff" points="125.79,-95.69 136.39,-95.59 128.04,-89.06 125.79,-95.69"/>
</g>
<!-- Node3 -->
<g id="node3" class="node">
<title>Node3</title>
<g id="a_node3"><a xlink:href="../../d7/daf/classdoris_1_1_tablet_schema.html#a8daecfa95e6b8c67b15fb5c6264a3af3" target="_top" xlink:title=" ">
<polygon fill="white" stroke="#666666" points="221,-78 115,-78 115,-48 221,-48 221,-78"/>
<text text-anchor="start" x="123" y="-66" font-family="Helvetica,sans-Serif" font-size="10.00">doris::TabletSchema</text>
<text text-anchor="middle" x="168" y="-55" font-family="Helvetica,sans-Serif" font-size="10.00">::column</text>
</a>
</g>
</g>
<!-- Node1&#45;&gt;Node3 -->
<g id="edge2" class="edge">
<title>Node1&#45;&gt;Node3</title>
<path fill="none" stroke="#63b8ff" d="M79.49,-63C87.09,-63 95.23,-63 103.39,-63"/>
<polygon fill="#63b8ff" stroke="#63b8ff" points="103.36,-66.5 113.36,-63 103.36,-59.5 103.36,-66.5"/>
</g>
<!-- Node4 -->
<g id="node4" class="node">
<title>Node4</title>
<g id="a_node4"><a xlink:href="../../d8/d28/classdoris_1_1_tablet_column.html#a35f8b8faec87048cd5072a673e911fd4" target="_top" xlink:title=" ">
<polygon fill="white" stroke="#666666" points="220,-30 116,-30 116,0 220,0 220,-30"/>
<text text-anchor="start" x="124" y="-18" font-family="Helvetica,sans-Serif" font-size="10.00">doris::TabletColumn</text>
<text text-anchor="middle" x="168" y="-7" font-family="Helvetica,sans-Serif" font-size="10.00">::unique_id</text>
</a>
</g>
</g>
<!-- Node1&#45;&gt;Node4 -->
<g id="edge3" class="edge">
<title>Node1&#45;&gt;Node4</title>
<path fill="none" stroke="#63b8ff" d="M66.71,-53.05C80.97,-47.64 99.12,-40.76 116.04,-34.34"/>
<polygon fill="#63b8ff" stroke="#63b8ff" points="116.85,-37.77 124.96,-30.95 114.37,-31.23 116.85,-37.77"/>
</g>
</g>
</svg>
