<?xml version="1.0" encoding="UTF-8" standalone="no"?>
<!DOCTYPE svg PUBLIC "-//W3C//DTD SVG 1.1//EN"
 "http://www.w3.org/Graphics/SVG/1.1/DTD/svg11.dtd">
<!-- Generated by graphviz version 7.1.0 (20230121.1956)
 -->
<!-- Title: ColumnConst Pages: 1 -->
<svg width="253pt" height="216pt"
 viewBox="0.00 0.00 252.50 216.00" xmlns="http://www.w3.org/2000/svg" xmlns:xlink="http://www.w3.org/1999/xlink">
<g id="graph0" class="graph" transform="scale(1 1) rotate(0) translate(4 212)">
<title>ColumnConst</title>
<!-- Node1 -->
<g id="node1" class="node">
<title>Node1</title>
<g id="a_node1"><a xlink:title=" ">
<polygon fill="#999999" stroke="#666666" points="98,-19 21,-19 21,0 98,0 98,-19"/>
<text text-anchor="middle" x="59.5" y="-7" font-family="Helvetica,sans-Serif" font-size="10.00">ColumnConst</text>
</a>
</g>
</g>
<!-- Node2 -->
<g id="node2" class="node">
<title>Node2</title>
<g id="a_node2"><a xlink:href="../../da/d30/class_c_o_w_helper.html" target="_top" xlink:title=" ">
<polygon fill="white" stroke="#666666" points="119,-86 0,-86 0,-56 119,-56 119,-86"/>
<text text-anchor="start" x="8" y="-74" font-family="Helvetica,sans-Serif" font-size="10.00">COWHelper&lt; IColumn,</text>
<text text-anchor="middle" x="59.5" y="-63" font-family="Helvetica,sans-Serif" font-size="10.00"> ColumnConst &gt;</text>
</a>
</g>
</g>
<!-- Node2&#45;&gt;Node1 -->
<g id="edge1" class="edge">
<title>Node2&#45;&gt;Node1</title>
<path fill="none" stroke="#63b8ff" d="M59.5,-44.13C59.5,-35.29 59.5,-25.99 59.5,-19.42"/>
<polygon fill="#63b8ff" stroke="#63b8ff" points="56,-44.08 59.5,-54.08 63,-44.08 56,-44.08"/>
</g>
<!-- Node3 -->
<g id="node3" class="node">
<title>Node3</title>
<g id="a_node3"><a xlink:title=" ">
<polygon fill="white" stroke="#666666" points="70,-152 17,-152 17,-133 70,-133 70,-152"/>
<text text-anchor="middle" x="43.5" y="-140" font-family="Helvetica,sans-Serif" font-size="10.00">IColumn</text>
</a>
</g>
</g>
<!-- Node3&#45;&gt;Node2 -->
<g id="edge2" class="edge">
<title>Node3&#45;&gt;Node2</title>
<path fill="none" stroke="#63b8ff" d="M48.05,-121.76C50.65,-110.45 53.86,-96.52 56.21,-86.27"/>
<polygon fill="#63b8ff" stroke="#63b8ff" points="44.7,-120.69 45.87,-131.22 51.52,-122.26 44.7,-120.69"/>
</g>
<!-- Node4 -->
<g id="node4" class="node">
<title>Node4</title>
<g id="a_node4"><a xlink:href="../../da/d30/class_c_o_w_helper.html" target="_top" xlink:title=" ">
<polygon fill="white" stroke="#666666" points="238.5,-152 88.5,-152 88.5,-133 238.5,-133 238.5,-152"/>
<text text-anchor="middle" x="163.5" y="-140" font-family="Helvetica,sans-Serif" font-size="10.00">COWHelper&lt; Base, Derived &gt;</text>
</a>
</g>
</g>
<!-- Node4&#45;&gt;Node2 -->
<g id="edge3" class="edge">
<title>Node4&#45;&gt;Node2</title>
<path fill="none" stroke="orange" stroke-dasharray="5,2" d="M140.97,-126.45C123.14,-114.53 98.39,-97.99 80.86,-86.27"/>
<polygon fill="orange" stroke="orange" points="138.81,-129.21 149.07,-131.86 142.7,-123.39 138.81,-129.21"/>
<text text-anchor="middle" x="182.5" y="-107" font-family="Helvetica,sans-Serif" font-size="10.00"> &lt; IColumn, ColumnConst &gt;</text>
</g>
<!-- Node5 -->
<g id="node5" class="node">
<title>Node5</title>
<g id="a_node5"><a xlink:title=" ">
<polygon fill="white" stroke="#666666" points="183,-208 144,-208 144,-189 183,-189 183,-208"/>
<text text-anchor="middle" x="163.5" y="-196" font-family="Helvetica,sans-Serif" font-size="10.00">Base</text>
</a>
</g>
</g>
<!-- Node5&#45;&gt;Node4 -->
<g id="edge4" class="edge">
<title>Node5&#45;&gt;Node4</title>
<path fill="none" stroke="#63b8ff" d="M163.5,-177.11C163.5,-168.52 163.5,-158.97 163.5,-152.25"/>
<polygon fill="#63b8ff" stroke="#63b8ff" points="160,-177.07 163.5,-187.07 167,-177.07 160,-177.07"/>
</g>
</g>
</svg>
