<?xml version="1.0" encoding="UTF-8" standalone="no"?>
<!DOCTYPE svg PUBLIC "-//W3C//DTD SVG 1.1//EN"
 "http://www.w3.org/Graphics/SVG/1.1/DTD/svg11.dtd">
<!-- Generated by graphviz version 7.1.0 (20230121.1956)
 -->
<!-- Title: execute_impl Pages: 1 -->
<svg width="573pt" height="260pt"
 viewBox="0.00 0.00 573.00 260.00" xmlns="http://www.w3.org/2000/svg" xmlns:xlink="http://www.w3.org/1999/xlink">
<g id="graph0" class="graph" transform="scale(1 1) rotate(0) translate(4 256)">
<title>execute_impl</title>
<!-- Node1 -->
<g id="node1" class="node">
<title>Node1</title>
<g id="a_node1"><a xlink:title="TODO: make const">
<polygon fill="#999999" stroke="#666666" points="74,-160.5 0,-160.5 0,-141.5 74,-141.5 74,-160.5"/>
<text text-anchor="middle" x="37" y="-148.5" font-family="Helvetica,sans-Serif" font-size="10.00">execute_impl</text>
</a>
</g>
</g>
<!-- Node2 -->
<g id="node2" class="node">
<title>Node2</title>
<g id="a_node2"><a xlink:href="../../da/d30/class_c_o_w_helper.html#aa14023f47995d24ce0ea777e90a4cb23" target="_top" xlink:title=" ">
<polygon fill="white" stroke="#666666" points="282,-252 110,-252 110,-222 282,-222 282,-252"/>
<text text-anchor="start" x="118" y="-240" font-family="Helvetica,sans-Serif" font-size="10.00">COWHelper&lt; ColumnVectorHelper,</text>
<text text-anchor="middle" x="196" y="-229" font-family="Helvetica,sans-Serif" font-size="10.00"> ColumnVector&lt; T &gt; &gt;::create</text>
</a>
</g>
</g>
<!-- Node1&#45;&gt;Node2 -->
<g id="edge1" class="edge">
<title>Node1&#45;&gt;Node2</title>
<path fill="none" stroke="#63b8ff" d="M47.93,-160.71C61.14,-173.16 85.64,-194.72 110,-208 116.44,-211.51 123.38,-214.71 130.42,-217.59"/>
<polygon fill="#63b8ff" stroke="#63b8ff" points="128.76,-220.71 139.35,-221.05 131.29,-214.18 128.76,-220.71"/>
</g>
<!-- Node3 -->
<g id="node3" class="node">
<title>Node3</title>
<g id="a_node3"><a xlink:href="../../d2/d12/classdoris_1_1vectorized_1_1_block.html#a54f8f7eae676dfa49029fff7c7ce8f05" target="_top" xlink:title="References are invalidated after calling functions above.">
<polygon fill="white" stroke="#666666" points="434,-188 318,-188 318,-158 434,-158 434,-188"/>
<text text-anchor="start" x="326" y="-176" font-family="Helvetica,sans-Serif" font-size="10.00">doris::vectorized::</text>
<text text-anchor="middle" x="376" y="-165" font-family="Helvetica,sans-Serif" font-size="10.00">Block::get_by_position</text>
</a>
</g>
</g>
<!-- Node1&#45;&gt;Node3 -->
<g id="edge2" class="edge">
<title>Node1&#45;&gt;Node3</title>
<path fill="none" stroke="#63b8ff" d="M61.51,-160.97C75.35,-166.3 93.35,-172.3 110,-175 176,-185.71 252.47,-183.62 306.25,-179.8"/>
<polygon fill="#63b8ff" stroke="#63b8ff" points="306.5,-183.29 316.2,-179.05 305.97,-176.31 306.5,-183.29"/>
</g>
<!-- Node4 -->
<g id="node4" class="node">
<title>Node4</title>
<g id="a_node4"><a xlink:href="../../d9/d8d/classdoris_1_1_status.html#a6ec1a217f203269ab53d2290d602db24" target="_top" xlink:title=" ">
<polygon fill="white" stroke="#666666" points="242,-117.5 150,-117.5 150,-98.5 242,-98.5 242,-117.5"/>
<text text-anchor="middle" x="196" y="-105.5" font-family="Helvetica,sans-Serif" font-size="10.00">doris::Status::OK</text>
</a>
</g>
</g>
<!-- Node1&#45;&gt;Node4 -->
<g id="edge3" class="edge">
<title>Node1&#45;&gt;Node4</title>
<path fill="none" stroke="#63b8ff" d="M65.49,-141.1C78.83,-136.49 95.15,-131.12 110,-127 119.22,-124.44 129.07,-121.99 138.68,-119.74"/>
<polygon fill="#63b8ff" stroke="#63b8ff" points="139.34,-123.18 148.32,-117.55 137.79,-116.35 139.34,-123.18"/>
</g>
<!-- Node6 -->
<g id="node6" class="node">
<title>Node6</title>
<g id="a_node6"><a xlink:href="../../d2/d12/classdoris_1_1vectorized_1_1_block.html#a0f83afb1e34b7b73db116622fa569508" target="_top" xlink:title=" ">
<polygon fill="white" stroke="#666666" points="263,-166 129,-166 129,-136 263,-136 263,-166"/>
<text text-anchor="start" x="137" y="-154" font-family="Helvetica,sans-Serif" font-size="10.00">doris::vectorized::</text>
<text text-anchor="middle" x="196" y="-143" font-family="Helvetica,sans-Serif" font-size="10.00">Block::replace_by_position</text>
</a>
</g>
</g>
<!-- Node1&#45;&gt;Node6 -->
<g id="edge5" class="edge">
<title>Node1&#45;&gt;Node6</title>
<path fill="none" stroke="#63b8ff" d="M74.41,-151C87.26,-151 102.25,-151 117.2,-151"/>
<polygon fill="#63b8ff" stroke="#63b8ff" points="117.08,-154.5 127.08,-151 117.07,-147.5 117.08,-154.5"/>
</g>
<!-- Node7 -->
<g id="node7" class="node">
<title>Node7</title>
<g id="a_node7"><a xlink:href="../../d4/d48/classdoris_1_1vectorized_1_1_vectorized_utils.html#ac4259bd03926909fe68afe8e1592ebf9" target="_top" xlink:title=" ">
<polygon fill="white" stroke="#666666" points="255.5,-80.5 136.5,-80.5 136.5,-39.5 255.5,-39.5 255.5,-80.5"/>
<text text-anchor="start" x="144.5" y="-68.5" font-family="Helvetica,sans-Serif" font-size="10.00">doris::vectorized::</text>
<text text-anchor="start" x="144.5" y="-57.5" font-family="Helvetica,sans-Serif" font-size="10.00">VectorizedUtils::update</text>
<text text-anchor="middle" x="196" y="-46.5" font-family="Helvetica,sans-Serif" font-size="10.00">_null_map</text>
</a>
</g>
</g>
<!-- Node1&#45;&gt;Node7 -->
<g id="edge7" class="edge">
<title>Node1&#45;&gt;Node7</title>
<path fill="none" stroke="#63b8ff" d="M47.37,-141.06C60.34,-127.8 84.99,-104.35 110,-90 114.96,-87.15 120.24,-84.5 125.64,-82.06"/>
<polygon fill="#63b8ff" stroke="#63b8ff" points="126.91,-85.33 134.75,-78.2 124.17,-78.88 126.91,-85.33"/>
</g>
<!-- Node5 -->
<g id="node5" class="node">
<title>Node5</title>
<g id="a_node5"><a xlink:href="../../d9/d8d/classdoris_1_1_status.html#aafde58df1b2a6a91d5b674373be3ffc5" target="_top" xlink:title=" ">
<polygon fill="white" stroke="#666666" points="429.5,-117.5 322.5,-117.5 322.5,-98.5 429.5,-98.5 429.5,-117.5"/>
<text text-anchor="middle" x="376" y="-105.5" font-family="Helvetica,sans-Serif" font-size="10.00">doris::Status::Status</text>
</a>
</g>
</g>
<!-- Node4&#45;&gt;Node5 -->
<g id="edge4" class="edge">
<title>Node4&#45;&gt;Node5</title>
<path fill="none" stroke="#63b8ff" d="M242.38,-108C263.17,-108 288.19,-108 310.86,-108"/>
<polygon fill="#63b8ff" stroke="#63b8ff" points="310.61,-111.5 320.61,-108 310.61,-104.5 310.61,-111.5"/>
</g>
<!-- Node6&#45;&gt;Node3 -->
<g id="edge6" class="edge">
<title>Node6&#45;&gt;Node3</title>
<path fill="none" stroke="#63b8ff" d="M263.28,-159.19C277.4,-160.94 292.33,-162.78 306.53,-164.54"/>
<polygon fill="#63b8ff" stroke="#63b8ff" points="305.87,-167.98 316.22,-165.74 306.73,-161.04 305.87,-167.98"/>
</g>
<!-- Node8 -->
<g id="node8" class="node">
<title>Node8</title>
<g id="a_node8"><a xlink:href="../../df/db2/classdoris_1_1vectorized_1_1_p_o_d_array.html#adc1e16b293a89a9ccc9541058b5ca560" target="_top" xlink:title=" ">
<polygon fill="white" stroke="#666666" points="423.5,-78 328.5,-78 328.5,-48 423.5,-48 423.5,-78"/>
<text text-anchor="start" x="336.5" y="-66" font-family="Helvetica,sans-Serif" font-size="10.00">doris::vectorized::</text>
<text text-anchor="middle" x="376" y="-55" font-family="Helvetica,sans-Serif" font-size="10.00">PODArray::data</text>
</a>
</g>
</g>
<!-- Node7&#45;&gt;Node8 -->
<g id="edge8" class="edge">
<title>Node7&#45;&gt;Node8</title>
<path fill="none" stroke="#63b8ff" d="M255.78,-60.99C275.32,-61.32 297.08,-61.69 316.6,-62.02"/>
<polygon fill="#63b8ff" stroke="#63b8ff" points="316.54,-65.52 326.6,-62.18 316.66,-58.52 316.54,-65.52"/>
</g>
<!-- Node10 -->
<g id="node10" class="node">
<title>Node10</title>
<g id="a_node10"><a xlink:href="../../d5/d9d/classdoris_1_1vectorized_1_1_p_o_d_array_base.html#a259cb5a711406a8c3e5d937eb9350cca" target="_top" xlink:title=" ">
<polygon fill="white" stroke="#666666" points="430,-30 322,-30 322,0 430,0 430,-30"/>
<text text-anchor="start" x="330" y="-18" font-family="Helvetica,sans-Serif" font-size="10.00">doris::vectorized::</text>
<text text-anchor="middle" x="376" y="-7" font-family="Helvetica,sans-Serif" font-size="10.00">PODArrayBase::size</text>
</a>
</g>
</g>
<!-- Node7&#45;&gt;Node10 -->
<g id="edge10" class="edge">
<title>Node7&#45;&gt;Node10</title>
<path fill="none" stroke="#63b8ff" d="M255.78,-45.14C273.39,-40.69 292.79,-35.78 310.73,-31.25"/>
<polygon fill="#63b8ff" stroke="#63b8ff" points="311.39,-34.69 320.22,-28.85 309.67,-27.91 311.39,-34.69"/>
</g>
<!-- Node9 -->
<g id="node9" class="node">
<title>Node9</title>
<g id="a_node9"><a xlink:href="../../df/db2/classdoris_1_1vectorized_1_1_p_o_d_array.html#a8e612adde07f46d3398ac6962d676a66" target="_top" xlink:title=" ">
<polygon fill="white" stroke="#666666" points="565,-78 470,-78 470,-48 565,-48 565,-78"/>
<text text-anchor="start" x="478" y="-66" font-family="Helvetica,sans-Serif" font-size="10.00">doris::vectorized::</text>
<text text-anchor="middle" x="517.5" y="-55" font-family="Helvetica,sans-Serif" font-size="10.00">PODArray::t_start</text>
</a>
</g>
</g>
<!-- Node8&#45;&gt;Node9 -->
<g id="edge9" class="edge">
<title>Node8&#45;&gt;Node9</title>
<path fill="none" stroke="#63b8ff" d="M423.84,-63C434.88,-63 446.78,-63 458.26,-63"/>
<polygon fill="#63b8ff" stroke="#63b8ff" points="458.03,-66.5 468.03,-63 458.03,-59.5 458.03,-66.5"/>
</g>
</g>
</svg>
