<?xml version="1.0" encoding="UTF-8" standalone="no"?>
<!DOCTYPE svg PUBLIC "-//W3C//DTD SVG 1.1//EN"
 "http://www.w3.org/Graphics/SVG/1.1/DTD/svg11.dtd">
<!-- Generated by graphviz version 7.1.0 (20230121.1956)
 -->
<!-- Title: Hash32PointerWithSeed Pages: 1 -->
<svg width="350pt" height="27pt"
 viewBox="0.00 0.00 350.00 27.00" xmlns="http://www.w3.org/2000/svg" xmlns:xlink="http://www.w3.org/1999/xlink">
<g id="graph0" class="graph" transform="scale(1 1) rotate(0) translate(4 23)">
<title>Hash32PointerWithSeed</title>
<!-- Node1 -->
<g id="node1" class="node">
<title>Node1</title>
<g id="a_node1"><a xlink:title=" ">
<polygon fill="#999999" stroke="#666666" points="124,-19 0,-19 0,0 124,0 124,-19"/>
<text text-anchor="middle" x="62" y="-7" font-family="Helvetica,sans-Serif" font-size="10.00">Hash32PointerWithSeed</text>
</a>
</g>
</g>
<!-- Node2 -->
<g id="node2" class="node">
<title>Node2</title>
<g id="a_node2"><a xlink:href="../../d4/d10/builtin__type__hash_8h.html#aaf7d0a24a8e32d63eebc60e663ff42e4" target="_top" xlink:title=" ">
<polygon fill="white" stroke="#666666" points="274,-19 160,-19 160,0 274,0 274,-19"/>
<text text-anchor="middle" x="217" y="-7" font-family="Helvetica,sans-Serif" font-size="10.00">Hash32NumWithSeed</text>
</a>
</g>
</g>
<!-- Node1&#45;&gt;Node2 -->
<g id="edge1" class="edge">
<title>Node1&#45;&gt;Node2</title>
<path fill="none" stroke="#63b8ff" d="M124.35,-9.5C132.17,-9.5 140.21,-9.5 148.12,-9.5"/>
<polygon fill="#63b8ff" stroke="#63b8ff" points="148.08,-13 158.08,-9.5 148.08,-6 148.08,-13"/>
</g>
<!-- Node3 -->
<g id="node3" class="node">
<title>Node3</title>
<g id="a_node3"><a xlink:href="../../d4/da6/jenkins__lookup2_8h.html#af1266f1a262fb4ce37900bfc9dd38b9d" target="_top" xlink:title=" ">
<polygon fill="white" stroke="#666666" points="342,-19 310,-19 310,0 342,0 342,-19"/>
<text text-anchor="middle" x="326" y="-7" font-family="Helvetica,sans-Serif" font-size="10.00">mix</text>
</a>
</g>
</g>
<!-- Node2&#45;&gt;Node3 -->
<g id="edge2" class="edge">
<title>Node2&#45;&gt;Node3</title>
<path fill="none" stroke="#63b8ff" d="M274.32,-9.5C282.71,-9.5 291,-9.5 298.37,-9.5"/>
<polygon fill="#63b8ff" stroke="#63b8ff" points="298.25,-13 308.25,-9.5 298.25,-6 298.25,-13"/>
</g>
</g>
</svg>
