<?xml version="1.0" encoding="UTF-8" standalone="no"?>
<!DOCTYPE svg PUBLIC "-//W3C//DTD SVG 1.1//EN"
 "http://www.w3.org/Graphics/SVG/1.1/DTD/svg11.dtd">
<!-- Generated by graphviz version 7.1.0 (20230121.1956)
 -->
<!-- Title: fill_columns Pages: 1 -->
<svg width="771pt" height="581pt"
 viewBox="0.00 0.00 771.00 580.50" xmlns="http://www.w3.org/2000/svg" xmlns:xlink="http://www.w3.org/1999/xlink">
<g id="graph0" class="graph" transform="scale(1 1) rotate(0) translate(4 576.5)">
<title>fill_columns</title>
<!-- Node1 -->
<g id="node1" class="node">
<title>Node1</title>
<g id="a_node1"><a xlink:title=" ">
<polygon fill="#999999" stroke="#666666" points="68,-310 0,-310 0,-291 68,-291 68,-310"/>
<text text-anchor="middle" x="34" y="-298" font-family="Helvetica,sans-Serif" font-size="10.00">fill_columns</text>
</a>
</g>
</g>
<!-- Node2 -->
<g id="node2" class="node">
<title>Node2</title>
<g id="a_node2"><a xlink:href="../../da/da1/classdoris_1_1_slot_descriptor.html#a4b411cf9d926e28a97ac5d7e5b89bc6c" target="_top" xlink:title=" ">
<polygon fill="white" stroke="#666666" points="227,-572.5 121,-572.5 121,-542.5 227,-542.5 227,-572.5"/>
<text text-anchor="start" x="129" y="-560.5" font-family="Helvetica,sans-Serif" font-size="10.00">doris::SlotDescriptor</text>
<text text-anchor="middle" x="174" y="-549.5" font-family="Helvetica,sans-Serif" font-size="10.00">::col_name</text>
</a>
</g>
</g>
<!-- Node1&#45;&gt;Node2 -->
<g id="edge1" class="edge">
<title>Node1&#45;&gt;Node2</title>
<path fill="none" stroke="#63b8ff" d="M35.13,-310.12C36.12,-344.36 43.93,-461.83 104,-528.5 106.48,-531.25 109.26,-533.75 112.25,-536.02"/>
<polygon fill="#63b8ff" stroke="#63b8ff" points="110.16,-538.83 120.46,-541.33 113.96,-532.96 110.16,-538.83"/>
</g>
<!-- Node3 -->
<g id="node3" class="node">
<title>Node3</title>
<g id="a_node3"><a xlink:href="../../d6/d94/namespacedoris.html#ab5de975bb662ca69e6ca8a8b8d2be5c2" target="_top" xlink:title=" ">
<polygon fill="white" stroke="#666666" points="220.5,-486 127.5,-486 127.5,-467 220.5,-467 220.5,-486"/>
<text text-anchor="middle" x="174" y="-474" font-family="Helvetica,sans-Serif" font-size="10.00">doris::fill_date_int</text>
</a>
</g>
</g>
<!-- Node1&#45;&gt;Node3 -->
<g id="edge2" class="edge">
<title>Node1&#45;&gt;Node3</title>
<path fill="none" stroke="#63b8ff" d="M36.31,-310.41C40.55,-338.27 56.44,-417.86 104,-458.5 107.81,-461.75 112.14,-464.43 116.73,-466.63"/>
<polygon fill="#63b8ff" stroke="#63b8ff" points="115.09,-469.75 125.68,-470.16 117.66,-463.24 115.09,-469.75"/>
</g>
<!-- Node5 -->
<g id="node5" class="node">
<title>Node5</title>
<g id="a_node5"><a xlink:href="../../d9/d8d/classdoris_1_1_status.html#a6ec1a217f203269ab53d2290d602db24" target="_top" xlink:title=" ">
<polygon fill="white" stroke="#666666" points="399,-529 307,-529 307,-510 399,-510 399,-529"/>
<text text-anchor="middle" x="353" y="-517" font-family="Helvetica,sans-Serif" font-size="10.00">doris::Status::OK</text>
</a>
</g>
</g>
<!-- Node1&#45;&gt;Node5 -->
<g id="edge21" class="edge">
<title>Node1&#45;&gt;Node5</title>
<path fill="none" stroke="#63b8ff" d="M35.06,-310.24C35.85,-342.73 43.18,-447.94 104,-495.5 132.75,-517.98 231.36,-521.25 295.23,-520.87"/>
<polygon fill="#63b8ff" stroke="#63b8ff" points="295.25,-524.37 305.22,-520.78 295.18,-517.37 295.25,-524.37"/>
</g>
<!-- Node7 -->
<g id="node7" class="node">
<title>Node7</title>
<g id="a_node7"><a xlink:href="../../d6/d94/namespacedoris.html#a15f0dd1ab7d7af7dc2cc52fc23315bb3" target="_top" xlink:title=" ">
<polygon fill="white" stroke="#666666" points="222.5,-449 125.5,-449 125.5,-430 222.5,-430 222.5,-449"/>
<text text-anchor="middle" x="174" y="-437" font-family="Helvetica,sans-Serif" font-size="10.00">doris::get_date_int</text>
</a>
</g>
</g>
<!-- Node1&#45;&gt;Node7 -->
<g id="edge6" class="edge">
<title>Node1&#45;&gt;Node7</title>
<path fill="none" stroke="#63b8ff" d="M37.79,-310.3C44.85,-333.25 65.62,-390.78 104,-420.5 107.29,-423.05 110.9,-425.25 114.68,-427.16"/>
<polygon fill="#63b8ff" stroke="#63b8ff" points="113.07,-430.28 123.64,-430.97 115.8,-423.83 113.07,-430.28"/>
</g>
<!-- Node8 -->
<g id="node8" class="node">
<title>Node8</title>
<g id="a_node8"><a xlink:href="../../d4/d41/classdoris_1_1vectorized_1_1_column_nullable.html#a3ddb0d39331caa0f2f8014c9019500ed" target="_top" xlink:title="Will insert null value if pos=nullptr">
<polygon fill="white" stroke="#666666" points="244,-411.5 104,-411.5 104,-381.5 244,-381.5 244,-411.5"/>
<text text-anchor="start" x="112" y="-399.5" font-family="Helvetica,sans-Serif" font-size="10.00">doris::vectorized::</text>
<text text-anchor="middle" x="174" y="-388.5" font-family="Helvetica,sans-Serif" font-size="10.00">ColumnNullable::insert_data</text>
</a>
</g>
</g>
<!-- Node1&#45;&gt;Node8 -->
<g id="edge7" class="edge">
<title>Node1&#45;&gt;Node8</title>
<path fill="none" stroke="#63b8ff" d="M41.94,-310.3C53.28,-325.62 77.19,-355.29 104,-372.5 105.96,-373.76 107.99,-374.96 110.08,-376.1"/>
<polygon fill="#63b8ff" stroke="#63b8ff" points="108.28,-379.12 118.8,-380.4 111.37,-372.84 108.28,-379.12"/>
</g>
<!-- Node18 -->
<g id="node18" class="node">
<title>Node18</title>
<g id="a_node18"><a xlink:href="../../da/da1/classdoris_1_1_slot_descriptor.html#a0c8dbe500133a710bfb3655be3aabd79" target="_top" xlink:title=" ">
<polygon fill="white" stroke="#666666" points="227,-363.5 121,-363.5 121,-333.5 227,-333.5 227,-363.5"/>
<text text-anchor="start" x="129" y="-351.5" font-family="Helvetica,sans-Serif" font-size="10.00">doris::SlotDescriptor</text>
<text text-anchor="middle" x="174" y="-340.5" font-family="Helvetica,sans-Serif" font-size="10.00">::is_materialized</text>
</a>
</g>
</g>
<!-- Node1&#45;&gt;Node18 -->
<g id="edge18" class="edge">
<title>Node1&#45;&gt;Node18</title>
<path fill="none" stroke="#63b8ff" d="M63.59,-310.45C79.3,-315.91 99.32,-322.87 117.93,-329.35"/>
<polygon fill="#63b8ff" stroke="#63b8ff" points="116.66,-332.61 127.25,-332.59 118.96,-326 116.66,-332.61"/>
</g>
<!-- Node19 -->
<g id="node19" class="node">
<title>Node19</title>
<g id="a_node19"><a xlink:href="../../da/da1/classdoris_1_1_slot_descriptor.html#a383b4bf9fa5747435372f741fd1747f3" target="_top" xlink:title=" ">
<polygon fill="white" stroke="#666666" points="227,-315.5 121,-315.5 121,-285.5 227,-285.5 227,-315.5"/>
<text text-anchor="start" x="129" y="-303.5" font-family="Helvetica,sans-Serif" font-size="10.00">doris::SlotDescriptor</text>
<text text-anchor="middle" x="174" y="-292.5" font-family="Helvetica,sans-Serif" font-size="10.00">::is_nullable</text>
</a>
</g>
</g>
<!-- Node1&#45;&gt;Node19 -->
<g id="edge19" class="edge">
<title>Node1&#45;&gt;Node19</title>
<path fill="none" stroke="#63b8ff" d="M68.41,-300.5C80.74,-300.5 95.17,-300.5 109.3,-300.5"/>
<polygon fill="#63b8ff" stroke="#63b8ff" points="109.01,-304 119.01,-300.5 109.01,-297 109.01,-304"/>
</g>
<!-- Node20 -->
<g id="node20" class="node">
<title>Node20</title>
<g id="a_node20"><a xlink:href="../../d6/d94/namespacedoris.html#aea0b3a3cb5c445aad5739744e7509883" target="_top" xlink:title=" ">
<polygon fill="white" stroke="#666666" points="226,-267.5 122,-267.5 122,-237.5 226,-237.5 226,-267.5"/>
<text text-anchor="start" x="130" y="-255.5" font-family="Helvetica,sans-Serif" font-size="10.00">doris::json_value_to</text>
<text text-anchor="middle" x="174" y="-244.5" font-family="Helvetica,sans-Serif" font-size="10.00">_string</text>
</a>
</g>
</g>
<!-- Node1&#45;&gt;Node20 -->
<g id="edge20" class="edge">
<title>Node1&#45;&gt;Node20</title>
<path fill="none" stroke="#63b8ff" d="M63.59,-290.55C79.3,-285.09 99.32,-278.13 117.93,-271.65"/>
<polygon fill="#63b8ff" stroke="#63b8ff" points="118.96,-275 127.25,-268.41 116.66,-268.39 118.96,-275"/>
</g>
<!-- Node21 -->
<g id="node21" class="node">
<title>Node21</title>
<g id="a_node21"><a xlink:href="../../d6/d50/classdoris_1_1_tuple_descriptor.html#ad440a6362417a001b2e0a11fb0fc54e9" target="_top" xlink:title=" ">
<polygon fill="white" stroke="#666666" points="230.5,-219.5 117.5,-219.5 117.5,-189.5 230.5,-189.5 230.5,-219.5"/>
<text text-anchor="start" x="125.5" y="-207.5" font-family="Helvetica,sans-Serif" font-size="10.00">doris::TupleDescriptor</text>
<text text-anchor="middle" x="174" y="-196.5" font-family="Helvetica,sans-Serif" font-size="10.00">::slots</text>
</a>
</g>
</g>
<!-- Node1&#45;&gt;Node21 -->
<g id="edge22" class="edge">
<title>Node1&#45;&gt;Node21</title>
<path fill="none" stroke="#63b8ff" d="M41.94,-290.7C53.28,-275.38 77.19,-245.71 104,-228.5 105.96,-227.24 107.99,-226.04 110.08,-224.9"/>
<polygon fill="#63b8ff" stroke="#63b8ff" points="111.37,-228.16 118.8,-220.6 108.28,-221.88 111.37,-228.16"/>
</g>
<!-- Node22 -->
<g id="node22" class="node">
<title>Node22</title>
<g id="a_node22"><a xlink:href="../../df/d24/classdoris_1_1_string_parser.html#a1b2ed61e80085b73ee2b20c92c7aea7c" target="_top" xlink:title=" ">
<polygon fill="white" stroke="#666666" points="223,-171.5 125,-171.5 125,-141.5 223,-141.5 223,-171.5"/>
<text text-anchor="start" x="133" y="-159.5" font-family="Helvetica,sans-Serif" font-size="10.00">doris::StringParser</text>
<text text-anchor="middle" x="174" y="-148.5" font-family="Helvetica,sans-Serif" font-size="10.00">::string_to_bool</text>
</a>
</g>
</g>
<!-- Node1&#45;&gt;Node22 -->
<g id="edge23" class="edge">
<title>Node1&#45;&gt;Node22</title>
<path fill="none" stroke="#63b8ff" d="M38.04,-290.53C45.48,-267.72 66.8,-211.32 104,-180.5 107.22,-177.83 110.75,-175.46 114.46,-173.34"/>
<polygon fill="#63b8ff" stroke="#63b8ff" points="115.85,-176.56 123.26,-168.99 112.74,-170.29 115.85,-176.56"/>
</g>
<!-- Node27 -->
<g id="node27" class="node">
<title>Node27</title>
<g id="a_node27"><a xlink:href="../../df/dcb/namespacestrings.html#a4f3ca92d957daf4bd11169509bdb79ef" target="_top" xlink:title=" ">
<polygon fill="white" stroke="#666666" points="222,-105 126,-105 126,-86 222,-86 222,-105"/>
<text text-anchor="middle" x="174" y="-93" font-family="Helvetica,sans-Serif" font-size="10.00">strings::Substitute</text>
</a>
</g>
</g>
<!-- Node1&#45;&gt;Node27 -->
<g id="edge29" class="edge">
<title>Node1&#45;&gt;Node27</title>
<path fill="none" stroke="#63b8ff" d="M36.66,-290.54C41.8,-262.44 59.85,-181.42 104,-132.5 112.28,-123.32 123.39,-116 134.26,-110.37"/>
<polygon fill="#63b8ff" stroke="#63b8ff" points="135.63,-113.59 143.16,-106.13 132.62,-107.27 135.63,-113.59"/>
</g>
<!-- Node31 -->
<g id="node31" class="node">
<title>Node31</title>
<g id="a_node31"><a xlink:href="../../da/da1/classdoris_1_1_slot_descriptor.html#ad6d5d0b735809da757c5e8b828b9a5cf" target="_top" xlink:title=" ">
<polygon fill="white" stroke="#666666" points="227,-67.5 121,-67.5 121,-37.5 227,-37.5 227,-67.5"/>
<text text-anchor="start" x="129" y="-55.5" font-family="Helvetica,sans-Serif" font-size="10.00">doris::SlotDescriptor</text>
<text text-anchor="middle" x="174" y="-44.5" font-family="Helvetica,sans-Serif" font-size="10.00">::type</text>
</a>
</g>
</g>
<!-- Node1&#45;&gt;Node31 -->
<g id="edge34" class="edge">
<title>Node1&#45;&gt;Node31</title>
<path fill="none" stroke="#63b8ff" d="M35.05,-290.91C35.74,-256.81 42.69,-140.05 104,-76.5 106.15,-74.27 108.53,-72.24 111.06,-70.4"/>
<polygon fill="#63b8ff" stroke="#63b8ff" points="112.74,-73.48 119.5,-65.32 109.13,-67.48 112.74,-73.48"/>
</g>
<!-- Node32 -->
<g id="node32" class="node">
<title>Node32</title>
<g id="a_node32"><a xlink:href="../../d6/d94/namespacedoris.html#a66421d0e4ffabe98bf2e77cdaeabdee0" target="_top" xlink:title=" ">
<polygon fill="white" stroke="#666666" points="226.5,-19 121.5,-19 121.5,0 226.5,0 226.5,-19"/>
<text text-anchor="middle" x="174" y="-7" font-family="Helvetica,sans-Serif" font-size="10.00">doris::type_to_string</text>
</a>
</g>
</g>
<!-- Node1&#45;&gt;Node32 -->
<g id="edge35" class="edge">
<title>Node1&#45;&gt;Node32</title>
<path fill="none" stroke="#63b8ff" d="M36.17,-290.64C41.62,-246.49 65.81,-67.47 104,-28.5 106.17,-26.29 108.57,-24.33 111.13,-22.59"/>
<polygon fill="#63b8ff" stroke="#63b8ff" points="112.58,-25.79 119.7,-17.94 109.24,-19.63 112.58,-25.79"/>
</g>
<!-- Node4 -->
<g id="node4" class="node">
<title>Node4</title>
<g id="a_node4"><a xlink:href="../../da/dde/classdoris_1_1vectorized_1_1_i_column.html#a44cded43f89608d9e4202c649e7e5498" target="_top" xlink:title=" ">
<polygon fill="white" stroke="#666666" points="406.5,-491.5 299.5,-491.5 299.5,-461.5 406.5,-461.5 406.5,-491.5"/>
<text text-anchor="start" x="307.5" y="-479.5" font-family="Helvetica,sans-Serif" font-size="10.00">doris::vectorized::</text>
<text text-anchor="middle" x="353" y="-468.5" font-family="Helvetica,sans-Serif" font-size="10.00">IColumn::insert_data</text>
</a>
</g>
</g>
<!-- Node3&#45;&gt;Node4 -->
<g id="edge3" class="edge">
<title>Node3&#45;&gt;Node4</title>
<path fill="none" stroke="#63b8ff" d="M220.58,-476.5C240.99,-476.5 265.42,-476.5 287.65,-476.5"/>
<polygon fill="#63b8ff" stroke="#63b8ff" points="287.53,-480 297.53,-476.5 287.53,-473 287.53,-480"/>
</g>
<!-- Node3&#45;&gt;Node5 -->
<g id="edge4" class="edge">
<title>Node3&#45;&gt;Node5</title>
<path fill="none" stroke="#63b8ff" d="M216.05,-486.47C240.98,-492.53 273.05,-500.32 299.77,-506.81"/>
<polygon fill="#63b8ff" stroke="#63b8ff" points="298.85,-510.19 309.39,-509.15 300.5,-503.39 298.85,-510.19"/>
</g>
<!-- Node6 -->
<g id="node6" class="node">
<title>Node6</title>
<g id="a_node6"><a xlink:href="../../d9/d8d/classdoris_1_1_status.html#aafde58df1b2a6a91d5b674373be3ffc5" target="_top" xlink:title=" ">
<polygon fill="white" stroke="#666666" points="599,-529 492,-529 492,-510 599,-510 599,-529"/>
<text text-anchor="middle" x="545.5" y="-517" font-family="Helvetica,sans-Serif" font-size="10.00">doris::Status::Status</text>
</a>
</g>
</g>
<!-- Node5&#45;&gt;Node6 -->
<g id="edge5" class="edge">
<title>Node5&#45;&gt;Node6</title>
<path fill="none" stroke="#63b8ff" d="M399.15,-519.5C423.41,-519.5 453.73,-519.5 480.39,-519.5"/>
<polygon fill="#63b8ff" stroke="#63b8ff" points="480.06,-523 490.06,-519.5 480.06,-516 480.06,-523"/>
</g>
<!-- Node8&#45;&gt;Node4 -->
<g id="edge12" class="edge">
<title>Node8&#45;&gt;Node4</title>
<path fill="none" stroke="#63b8ff" d="M224.63,-411.99C231.32,-414.79 237.95,-417.96 244,-421.5 262.23,-432.16 261.64,-442.08 280,-452.5 282.79,-454.09 285.71,-455.59 288.69,-457.01"/>
<polygon fill="#63b8ff" stroke="#63b8ff" points="287.1,-460.13 297.67,-460.91 289.89,-453.71 287.1,-460.13"/>
</g>
<!-- Node9 -->
<g id="node9" class="node">
<title>Node9</title>
<g id="a_node9"><a xlink:href="../../d4/d41/classdoris_1_1vectorized_1_1_column_nullable.html#a0f8865d89784bb302f7fd4792ab7d8c1" target="_top" xlink:title=" ">
<polygon fill="white" stroke="#666666" points="408,-443 298,-443 298,-402 408,-402 408,-443"/>
<text text-anchor="start" x="306" y="-431" font-family="Helvetica,sans-Serif" font-size="10.00">doris::vectorized::</text>
<text text-anchor="start" x="306" y="-420" font-family="Helvetica,sans-Serif" font-size="10.00">ColumnNullable::_get</text>
<text text-anchor="middle" x="353" y="-409" font-family="Helvetica,sans-Serif" font-size="10.00">_null_map_data</text>
</a>
</g>
</g>
<!-- Node8&#45;&gt;Node9 -->
<g id="edge8" class="edge">
<title>Node8&#45;&gt;Node9</title>
<path fill="none" stroke="#63b8ff" d="M244.45,-406.7C258.22,-408.72 272.64,-410.84 286.28,-412.85"/>
<polygon fill="#63b8ff" stroke="#63b8ff" points="285.62,-416.29 296.03,-414.28 286.64,-409.36 285.62,-416.29"/>
</g>
<!-- Node12 -->
<g id="node12" class="node">
<title>Node12</title>
<g id="a_node12"><a xlink:href="../../d4/d41/classdoris_1_1vectorized_1_1_column_nullable.html#aa9e5d9e2d52e72e8d397e1f7f6ac943a" target="_top" xlink:title="Return the column that represents values.">
<polygon fill="white" stroke="#666666" points="405.5,-384 300.5,-384 300.5,-343 405.5,-343 405.5,-384"/>
<text text-anchor="start" x="308.5" y="-372" font-family="Helvetica,sans-Serif" font-size="10.00">doris::vectorized::</text>
<text text-anchor="start" x="308.5" y="-361" font-family="Helvetica,sans-Serif" font-size="10.00">ColumnNullable::get</text>
<text text-anchor="middle" x="353" y="-350" font-family="Helvetica,sans-Serif" font-size="10.00">_nested_column</text>
</a>
</g>
</g>
<!-- Node8&#45;&gt;Node12 -->
<g id="edge11" class="edge">
<title>Node8&#45;&gt;Node12</title>
<path fill="none" stroke="#63b8ff" d="M244.45,-383.55C259.27,-380.79 274.83,-377.89 289.38,-375.18"/>
<polygon fill="#63b8ff" stroke="#63b8ff" points="289.59,-378.7 298.78,-373.42 288.31,-371.81 289.59,-378.7"/>
</g>
<!-- Node13 -->
<g id="node13" class="node">
<title>Node13</title>
<g id="a_node13"><a xlink:href="../../da/dde/classdoris_1_1vectorized_1_1_i_column.html#a63c25b8c7843d76d95e1654d52fc76fc" target="_top" xlink:title=" ">
<polygon fill="white" stroke="#666666" points="412,-324.5 294,-324.5 294,-294.5 412,-294.5 412,-324.5"/>
<text text-anchor="start" x="302" y="-312.5" font-family="Helvetica,sans-Serif" font-size="10.00">doris::vectorized::</text>
<text text-anchor="middle" x="353" y="-301.5" font-family="Helvetica,sans-Serif" font-size="10.00">IColumn::insert_default</text>
</a>
</g>
</g>
<!-- Node8&#45;&gt;Node13 -->
<g id="edge13" class="edge">
<title>Node8&#45;&gt;Node13</title>
<path fill="none" stroke="#63b8ff" d="M227.86,-381.1C233.5,-378.59 238.99,-375.73 244,-372.5 263.54,-359.88 260.46,-347.12 280,-334.5 282.57,-332.84 285.26,-331.28 288.03,-329.81"/>
<polygon fill="#63b8ff" stroke="#63b8ff" points="289.46,-333 296.98,-325.53 286.44,-326.69 289.46,-333"/>
</g>
<!-- Node14 -->
<g id="node14" class="node">
<title>Node14</title>
<g id="a_node14"><a xlink:href="../../df/db2/classdoris_1_1vectorized_1_1_p_o_d_array.html#a4fe88e30f68ec72ad91dee2dcf5fc1b8" target="_top" xlink:title=" ">
<polygon fill="white" stroke="#666666" points="410.5,-276.5 295.5,-276.5 295.5,-246.5 410.5,-246.5 410.5,-276.5"/>
<text text-anchor="start" x="303.5" y="-264.5" font-family="Helvetica,sans-Serif" font-size="10.00">doris::vectorized::</text>
<text text-anchor="middle" x="353" y="-253.5" font-family="Helvetica,sans-Serif" font-size="10.00">PODArray::push_back</text>
</a>
</g>
</g>
<!-- Node8&#45;&gt;Node14 -->
<g id="edge14" class="edge">
<title>Node8&#45;&gt;Node14</title>
<path fill="none" stroke="#63b8ff" d="M232.27,-381.13C236.51,-378.66 240.5,-375.81 244,-372.5 274.43,-343.77 249.38,-314.03 280,-285.5 281.8,-283.82 283.72,-282.26 285.74,-280.81"/>
<polygon fill="#63b8ff" stroke="#63b8ff" points="287.08,-284.09 293.8,-275.9 283.44,-278.11 287.08,-284.09"/>
</g>
<!-- Node10 -->
<g id="node10" class="node">
<title>Node10</title>
<g id="a_node10"><a xlink:href="../../d4/d41/classdoris_1_1vectorized_1_1_column_nullable.html#a8e1fb6e9e0cb5708c3ad8f557bf2cc14" target="_top" xlink:title=" ">
<polygon fill="white" stroke="#666666" points="600.5,-487 490.5,-487 490.5,-446 600.5,-446 600.5,-487"/>
<text text-anchor="start" x="498.5" y="-475" font-family="Helvetica,sans-Serif" font-size="10.00">doris::vectorized::</text>
<text text-anchor="start" x="498.5" y="-464" font-family="Helvetica,sans-Serif" font-size="10.00">ColumnNullable::_get</text>
<text text-anchor="middle" x="545.5" y="-453" font-family="Helvetica,sans-Serif" font-size="10.00">_null_map_column</text>
</a>
</g>
</g>
<!-- Node9&#45;&gt;Node10 -->
<g id="edge9" class="edge">
<title>Node9&#45;&gt;Node10</title>
<path fill="none" stroke="#63b8ff" d="M408.33,-435.05C430.36,-440.14 455.98,-446.05 479.02,-451.38"/>
<polygon fill="#63b8ff" stroke="#63b8ff" points="478.09,-454.75 488.62,-453.59 479.66,-447.93 478.09,-454.75"/>
</g>
<!-- Node11 -->
<g id="node11" class="node">
<title>Node11</title>
<g id="a_node11"><a xlink:href="../../df/d15/classdoris_1_1vectorized_1_1_column_vector.html#a3206c08675c03058605f3a6e5a452b5c" target="_top" xlink:title=" ">
<polygon fill="white" stroke="#666666" points="606.5,-427.5 484.5,-427.5 484.5,-397.5 606.5,-397.5 606.5,-427.5"/>
<text text-anchor="start" x="492.5" y="-415.5" font-family="Helvetica,sans-Serif" font-size="10.00">doris::vectorized::</text>
<text text-anchor="middle" x="545.5" y="-404.5" font-family="Helvetica,sans-Serif" font-size="10.00">ColumnVector::get_data</text>
</a>
</g>
</g>
<!-- Node9&#45;&gt;Node11 -->
<g id="edge10" class="edge">
<title>Node9&#45;&gt;Node11</title>
<path fill="none" stroke="#63b8ff" d="M408.33,-419.65C428.38,-418.6 451.4,-417.39 472.75,-416.27"/>
<polygon fill="#63b8ff" stroke="#63b8ff" points="472.76,-419.77 482.56,-415.75 472.39,-412.78 472.76,-419.77"/>
</g>
<!-- Node15 -->
<g id="node15" class="node">
<title>Node15</title>
<g id="a_node15"><a xlink:href="../../d5/d9d/classdoris_1_1vectorized_1_1_p_o_d_array_base.html#a4fd871ea772d3f22957ed8dd6a0aebb6" target="_top" xlink:title="Does not include pad_right.">
<polygon fill="white" stroke="#666666" points="629,-369.5 462,-369.5 462,-317.5 629,-317.5 629,-369.5"/>
<text text-anchor="start" x="470" y="-357.5" font-family="Helvetica,sans-Serif" font-size="10.00">doris::vectorized::</text>
<text text-anchor="start" x="470" y="-346.5" font-family="Helvetica,sans-Serif" font-size="10.00">PODArrayBase&lt; sizeof</text>
<text text-anchor="start" x="470" y="-335.5" font-family="Helvetica,sans-Serif" font-size="10.00">(T), initial_bytes, TAllocator,</text>
<text text-anchor="middle" x="545.5" y="-324.5" font-family="Helvetica,sans-Serif" font-size="10.00"> pad_right_, pad_left_ &gt;::byte_size</text>
</a>
</g>
</g>
<!-- Node14&#45;&gt;Node15 -->
<g id="edge15" class="edge">
<title>Node14&#45;&gt;Node15</title>
<path fill="none" stroke="#63b8ff" d="M405.36,-276.88C412.41,-279.49 419.46,-282.38 426,-285.5 443.14,-293.68 445.2,-299.65 462,-308.5 464.38,-309.75 466.82,-311 469.29,-312.23"/>
<polygon fill="#63b8ff" stroke="#63b8ff" points="467.72,-315.36 478.25,-316.54 470.76,-309.05 467.72,-315.36"/>
</g>
<!-- Node16 -->
<g id="node16" class="node">
<title>Node16</title>
<g id="a_node16"><a xlink:href="../../d5/d9d/classdoris_1_1vectorized_1_1_p_o_d_array_base.html#a2598e4e0d6a05dd2650267b7a78e56aa" target="_top" xlink:title=" ">
<polygon fill="white" stroke="#666666" points="624.5,-299 466.5,-299 466.5,-236 624.5,-236 624.5,-299"/>
<text text-anchor="start" x="474.5" y="-287" font-family="Helvetica,sans-Serif" font-size="10.00">doris::vectorized::</text>
<text text-anchor="start" x="474.5" y="-276" font-family="Helvetica,sans-Serif" font-size="10.00">PODArrayBase&lt; sizeof</text>
<text text-anchor="start" x="474.5" y="-265" font-family="Helvetica,sans-Serif" font-size="10.00">(T), initial_bytes, TAllocator,</text>
<text text-anchor="start" x="474.5" y="-254" font-family="Helvetica,sans-Serif" font-size="10.00"> pad_right_, pad_left_ &gt;::reserve</text>
<text text-anchor="middle" x="545.5" y="-243" font-family="Helvetica,sans-Serif" font-size="10.00">_for_next_size</text>
</a>
</g>
</g>
<!-- Node14&#45;&gt;Node16 -->
<g id="edge16" class="edge">
<title>Node14&#45;&gt;Node16</title>
<path fill="none" stroke="#63b8ff" d="M410.9,-263.29C424.7,-263.73 439.8,-264.2 454.71,-264.67"/>
<polygon fill="#63b8ff" stroke="#63b8ff" points="454.44,-268.17 464.54,-264.98 454.66,-261.17 454.44,-268.17"/>
</g>
<!-- Node17 -->
<g id="node17" class="node">
<title>Node17</title>
<g id="a_node17"><a xlink:href="../../df/db2/classdoris_1_1vectorized_1_1_p_o_d_array.html#a23330edc945b54dbc26dbfde57ae3be7" target="_top" xlink:title=" ">
<polygon fill="white" stroke="#666666" points="593,-217.5 498,-217.5 498,-187.5 593,-187.5 593,-217.5"/>
<text text-anchor="start" x="506" y="-205.5" font-family="Helvetica,sans-Serif" font-size="10.00">doris::vectorized::</text>
<text text-anchor="middle" x="545.5" y="-194.5" font-family="Helvetica,sans-Serif" font-size="10.00">PODArray::t_end</text>
</a>
</g>
</g>
<!-- Node14&#45;&gt;Node17 -->
<g id="edge17" class="edge">
<title>Node14&#45;&gt;Node17</title>
<path fill="none" stroke="#63b8ff" d="M402.62,-246.07C421.19,-240.21 442.56,-233.5 462,-227.5 470.05,-225.01 478.56,-222.41 486.92,-219.86"/>
<polygon fill="#63b8ff" stroke="#63b8ff" points="487.79,-223.26 496.34,-217 485.76,-216.56 487.79,-223.26"/>
</g>
<!-- Node23 -->
<g id="node23" class="node">
<title>Node23</title>
<g id="a_node23"><a xlink:href="../../df/d24/classdoris_1_1_string_parser.html#aaa645f72cfd57b55de070d1d966c2124" target="_top" xlink:title=" ">
<polygon fill="white" stroke="#666666" points="418.5,-179.5 287.5,-179.5 287.5,-149.5 418.5,-149.5 418.5,-179.5"/>
<text text-anchor="start" x="295.5" y="-167.5" font-family="Helvetica,sans-Serif" font-size="10.00">doris::StringParser</text>
<text text-anchor="middle" x="353" y="-156.5" font-family="Helvetica,sans-Serif" font-size="10.00">::skip_leading_whitespace</text>
</a>
</g>
</g>
<!-- Node22&#45;&gt;Node23 -->
<g id="edge24" class="edge">
<title>Node22&#45;&gt;Node23</title>
<path fill="none" stroke="#63b8ff" d="M223.37,-158.69C239.56,-159.42 258.04,-160.25 275.83,-161.06"/>
<polygon fill="#63b8ff" stroke="#63b8ff" points="275.44,-164.54 285.58,-161.5 275.75,-157.55 275.44,-164.54"/>
</g>
<!-- Node25 -->
<g id="node25" class="node">
<title>Node25</title>
<g id="a_node25"><a xlink:href="../../df/d24/classdoris_1_1_string_parser.html#a93569b3ed686520ed837aa05300f8b43" target="_top" xlink:title=" ">
<polygon fill="white" stroke="#666666" points="413,-131.5 293,-131.5 293,-101.5 413,-101.5 413,-131.5"/>
<text text-anchor="start" x="301" y="-119.5" font-family="Helvetica,sans-Serif" font-size="10.00">doris::StringParser</text>
<text text-anchor="middle" x="353" y="-108.5" font-family="Helvetica,sans-Serif" font-size="10.00">::string_to_bool_internal</text>
</a>
</g>
</g>
<!-- Node22&#45;&gt;Node25 -->
<g id="edge26" class="edge">
<title>Node22&#45;&gt;Node25</title>
<path fill="none" stroke="#63b8ff" d="M223.37,-145.57C241.33,-141.51 262.1,-136.82 281.63,-132.4"/>
<polygon fill="#63b8ff" stroke="#63b8ff" points="282.19,-135.87 291.17,-130.25 280.64,-129.04 282.19,-135.87"/>
</g>
<!-- Node24 -->
<g id="node24" class="node">
<title>Node24</title>
<g id="a_node24"><a xlink:href="../../df/d24/classdoris_1_1_string_parser.html#a6d453cae9636acd4bdf7642569e3286b" target="_top" xlink:title=" ">
<polygon fill="white" stroke="#666666" points="763,-152.5 665,-152.5 665,-122.5 763,-122.5 763,-152.5"/>
<text text-anchor="start" x="673" y="-140.5" font-family="Helvetica,sans-Serif" font-size="10.00">doris::StringParser</text>
<text text-anchor="middle" x="714" y="-129.5" font-family="Helvetica,sans-Serif" font-size="10.00">::is_whitespace</text>
</a>
</g>
</g>
<!-- Node23&#45;&gt;Node24 -->
<g id="edge25" class="edge">
<title>Node23&#45;&gt;Node24</title>
<path fill="none" stroke="#63b8ff" d="M418.6,-159.64C485.35,-154.62 588.66,-146.85 653.48,-141.98"/>
<polygon fill="#63b8ff" stroke="#63b8ff" points="653.5,-145.48 663.21,-141.24 652.98,-138.5 653.5,-145.48"/>
</g>
<!-- Node26 -->
<g id="node26" class="node">
<title>Node26</title>
<g id="a_node26"><a xlink:href="../../df/d24/classdoris_1_1_string_parser.html#a763bc9f0bbdf23fc59c66ad241046160" target="_top" xlink:title=" ">
<polygon fill="white" stroke="#666666" points="595.5,-131.5 495.5,-131.5 495.5,-101.5 595.5,-101.5 595.5,-131.5"/>
<text text-anchor="start" x="503.5" y="-119.5" font-family="Helvetica,sans-Serif" font-size="10.00">doris::StringParser</text>
<text text-anchor="middle" x="545.5" y="-108.5" font-family="Helvetica,sans-Serif" font-size="10.00">::is_all_whitespace</text>
</a>
</g>
</g>
<!-- Node25&#45;&gt;Node26 -->
<g id="edge27" class="edge">
<title>Node25&#45;&gt;Node26</title>
<path fill="none" stroke="#63b8ff" d="M413.49,-116.5C435.8,-116.5 461.18,-116.5 483.61,-116.5"/>
<polygon fill="#63b8ff" stroke="#63b8ff" points="483.53,-120 493.53,-116.5 483.53,-113 483.53,-120"/>
</g>
<!-- Node26&#45;&gt;Node24 -->
<g id="edge28" class="edge">
<title>Node26&#45;&gt;Node24</title>
<path fill="none" stroke="#63b8ff" d="M595.55,-122.69C613.67,-124.97 634.4,-127.59 653.36,-129.98"/>
<polygon fill="#63b8ff" stroke="#63b8ff" points="652.72,-133.42 663.08,-131.2 653.6,-126.48 652.72,-133.42"/>
</g>
<!-- Node27&#45;&gt;Node27 -->
<g id="edge30" class="edge">
<title>Node27&#45;&gt;Node27</title>
<path fill="none" stroke="#63b8ff" d="M152.08,-105.37C142.08,-113.94 149.39,-123 174,-123 187.46,-123 195.74,-120.29 198.85,-116.43"/>
<polygon fill="#63b8ff" stroke="#63b8ff" points="202.25,-115.6 196.31,-106.83 195.48,-117.39 202.25,-115.6"/>
</g>
<!-- Node28 -->
<g id="node28" class="node">
<title>Node28</title>
<g id="a_node28"><a xlink:href="../../df/dcb/namespacestrings.html#ab41a4a9d46a87a619ed25ce45f201137" target="_top" xlink:title=" ">
<polygon fill="white" stroke="#666666" points="426,-83 280,-83 280,-64 426,-64 426,-83"/>
<text text-anchor="middle" x="353" y="-71" font-family="Helvetica,sans-Serif" font-size="10.00">strings::SubstituteAndAppend</text>
</a>
</g>
</g>
<!-- Node27&#45;&gt;Node28 -->
<g id="edge31" class="edge">
<title>Node27&#45;&gt;Node28</title>
<path fill="none" stroke="#63b8ff" d="M222.43,-89.6C236.61,-87.84 252.58,-85.86 268.36,-83.9"/>
<polygon fill="#63b8ff" stroke="#63b8ff" points="268.78,-87.37 278.27,-82.66 267.92,-80.42 268.78,-87.37"/>
</g>
<!-- Node29 -->
<g id="node29" class="node">
<title>Node29</title>
<g id="a_node29"><a xlink:href="../../de/de8/stl__util_8h.html#ab0f5d71a968a1a2b9c8a572dad7fb18b" target="_top" xlink:title=" ">
<polygon fill="white" stroke="#666666" points="617.5,-83 473.5,-83 473.5,-64 617.5,-64 617.5,-83"/>
<text text-anchor="middle" x="545.5" y="-71" font-family="Helvetica,sans-Serif" font-size="10.00">STLStringResizeUninitialized</text>
</a>
</g>
</g>
<!-- Node28&#45;&gt;Node29 -->
<g id="edge32" class="edge">
<title>Node28&#45;&gt;Node29</title>
<path fill="none" stroke="#63b8ff" d="M426.29,-73.5C437.94,-73.5 450.07,-73.5 461.93,-73.5"/>
<polygon fill="#63b8ff" stroke="#63b8ff" points="461.69,-77 471.69,-73.5 461.69,-70 461.69,-77"/>
</g>
<!-- Node30 -->
<g id="node30" class="node">
<title>Node30</title>
<g id="a_node30"><a xlink:href="../../de/de8/stl__util_8h.html#a7245ef7ee9fdcf5adcc274e1e71f5fb3" target="_top" xlink:title=" ">
<polygon fill="white" stroke="#666666" points="587,-46 504,-46 504,-27 587,-27 587,-46"/>
<text text-anchor="middle" x="545.5" y="-34" font-family="Helvetica,sans-Serif" font-size="10.00">string_as_array</text>
</a>
</g>
</g>
<!-- Node28&#45;&gt;Node30 -->
<g id="edge33" class="edge">
<title>Node28&#45;&gt;Node30</title>
<path fill="none" stroke="#63b8ff" d="M405.3,-63.54C432.3,-58.29 465.33,-51.88 492.44,-46.61"/>
<polygon fill="#63b8ff" stroke="#63b8ff" points="493.03,-50.06 502.18,-44.72 491.7,-43.19 493.03,-50.06"/>
</g>
</g>
</svg>
