<?xml version="1.0" encoding="UTF-8" standalone="no"?>
<!DOCTYPE svg PUBLIC "-//W3C//DTD SVG 1.1//EN"
 "http://www.w3.org/Graphics/SVG/1.1/DTD/svg11.dtd">
<!-- Generated by graphviz version 7.1.0 (20230121.1956)
 -->
<!-- Title: prepare Pages: 1 -->
<svg width="356pt" height="124pt"
 viewBox="0.00 0.00 356.00 123.50" xmlns="http://www.w3.org/2000/svg" xmlns:xlink="http://www.w3.org/1999/xlink">
<g id="graph0" class="graph" transform="scale(1 1) rotate(0) translate(4 119.5)">
<title>prepare</title>
<!-- Node1 -->
<g id="node1" class="node">
<title>Node1</title>
<g id="a_node1"><a xlink:title=" ">
<polygon fill="#999999" stroke="#666666" points="49,-62 0,-62 0,-43 49,-43 49,-62"/>
<text text-anchor="middle" x="24.5" y="-50" font-family="Helvetica,sans-Serif" font-size="10.00">prepare</text>
</a>
</g>
</g>
<!-- Node2 -->
<g id="node2" class="node">
<title>Node2</title>
<g id="a_node2"><a xlink:href="../../d5/d58/classdoris_1_1pipeline_1_1_operator_builder_base.html#a0789ba541bd61b1b394ff4d411a40790" target="_top" xlink:title=" ">
<polygon fill="white" stroke="#666666" points="205,-115.5 85,-115.5 85,-85.5 205,-85.5 205,-115.5"/>
<text text-anchor="start" x="93" y="-103.5" font-family="Helvetica,sans-Serif" font-size="10.00">doris::pipeline::Operator</text>
<text text-anchor="middle" x="145" y="-92.5" font-family="Helvetica,sans-Serif" font-size="10.00">BuilderBase::get_name</text>
</a>
</g>
</g>
<!-- Node1&#45;&gt;Node2 -->
<g id="edge1" class="edge">
<title>Node1&#45;&gt;Node2</title>
<path fill="none" stroke="#63b8ff" d="M49.48,-62.21C62.79,-67.61 79.85,-74.51 95.79,-80.97"/>
<polygon fill="#63b8ff" stroke="#63b8ff" points="94.07,-84.05 104.65,-84.56 96.7,-77.56 94.07,-84.05"/>
</g>
<!-- Node3 -->
<g id="node3" class="node">
<title>Node3</title>
<g id="a_node3"><a xlink:href="../../d5/d58/classdoris_1_1pipeline_1_1_operator_builder_base.html#aac11c894c6298b5440426d8528237a9c" target="_top" xlink:title=" ">
<polygon fill="white" stroke="#666666" points="205,-67.5 85,-67.5 85,-37.5 205,-37.5 205,-67.5"/>
<text text-anchor="start" x="93" y="-55.5" font-family="Helvetica,sans-Serif" font-size="10.00">doris::pipeline::Operator</text>
<text text-anchor="middle" x="145" y="-44.5" font-family="Helvetica,sans-Serif" font-size="10.00">BuilderBase::id</text>
</a>
</g>
</g>
<!-- Node1&#45;&gt;Node3 -->
<g id="edge2" class="edge">
<title>Node1&#45;&gt;Node3</title>
<path fill="none" stroke="#63b8ff" d="M49.48,-52.5C56.63,-52.5 64.85,-52.5 73.4,-52.5"/>
<polygon fill="#63b8ff" stroke="#63b8ff" points="73.26,-56 83.26,-52.5 73.26,-49 73.26,-56"/>
</g>
<!-- Node4 -->
<g id="node4" class="node">
<title>Node4</title>
<g id="a_node4"><a xlink:href="../../d9/d8d/classdoris_1_1_status.html#a6ec1a217f203269ab53d2290d602db24" target="_top" xlink:title=" ">
<polygon fill="white" stroke="#666666" points="191,-19 99,-19 99,0 191,0 191,-19"/>
<text text-anchor="middle" x="145" y="-7" font-family="Helvetica,sans-Serif" font-size="10.00">doris::Status::OK</text>
</a>
</g>
</g>
<!-- Node1&#45;&gt;Node4 -->
<g id="edge3" class="edge">
<title>Node1&#45;&gt;Node4</title>
<path fill="none" stroke="#63b8ff" d="M49.09,-42.53C59.96,-38.06 73.06,-32.82 85,-28.5 90.11,-26.65 95.49,-24.79 100.85,-23"/>
<polygon fill="#63b8ff" stroke="#63b8ff" points="101.86,-26.35 110.27,-19.91 99.67,-19.7 101.86,-26.35"/>
</g>
<!-- Node5 -->
<g id="node5" class="node">
<title>Node5</title>
<g id="a_node5"><a xlink:href="../../d9/d8d/classdoris_1_1_status.html#aafde58df1b2a6a91d5b674373be3ffc5" target="_top" xlink:title=" ">
<polygon fill="white" stroke="#666666" points="348,-19 241,-19 241,0 348,0 348,-19"/>
<text text-anchor="middle" x="294.5" y="-7" font-family="Helvetica,sans-Serif" font-size="10.00">doris::Status::Status</text>
</a>
</g>
</g>
<!-- Node4&#45;&gt;Node5 -->
<g id="edge4" class="edge">
<title>Node4&#45;&gt;Node5</title>
<path fill="none" stroke="#63b8ff" d="M191.46,-9.5C203.5,-9.5 216.74,-9.5 229.57,-9.5"/>
<polygon fill="#63b8ff" stroke="#63b8ff" points="229.18,-13 239.18,-9.5 229.18,-6 229.18,-13"/>
</g>
</g>
</svg>
