<?xml version="1.0" encoding="UTF-8" standalone="no"?>
<!DOCTYPE svg PUBLIC "-//W3C//DTD SVG 1.1//EN"
 "http://www.w3.org/Graphics/SVG/1.1/DTD/svg11.dtd">
<!-- Generated by graphviz version 7.1.0 (20230121.1956)
 -->
<!-- Title: _get_txn_map_lock Pages: 1 -->
<svg width="732pt" height="335pt"
 viewBox="0.00 0.00 732.00 334.50" xmlns="http://www.w3.org/2000/svg" xmlns:xlink="http://www.w3.org/1999/xlink">
<g id="graph0" class="graph" transform="scale(1 1) rotate(0) translate(4 330.5)">
<title>_get_txn_map_lock</title>
<!-- Node1 -->
<g id="node1" class="node">
<title>Node1</title>
<g id="a_node1"><a xlink:title=" ">
<polygon fill="#999999" stroke="#666666" points="724,-178.5 623,-178.5 623,-159.5 724,-159.5 724,-178.5"/>
<text text-anchor="middle" x="673.5" y="-166.5" font-family="Helvetica,sans-Serif" font-size="10.00">_get_txn_map_lock</text>
</a>
</g>
</g>
<!-- Node2 -->
<g id="node2" class="node">
<title>Node2</title>
<g id="a_node2"><a xlink:href="../../d2/df8/classdoris_1_1_txn_manager.html#a41e24ed81e2ae11e767faa7418a19bb0" target="_top" xlink:title=" ">
<polygon fill="white" stroke="#666666" points="562,-326.5 494,-326.5 494,-307.5 562,-307.5 562,-326.5"/>
<text text-anchor="middle" x="528" y="-314.5" font-family="Helvetica,sans-Serif" font-size="10.00">commit_txn</text>
</a>
</g>
</g>
<!-- Node1&#45;&gt;Node2 -->
<g id="edge1" class="edge">
<title>Node1&#45;&gt;Node2</title>
<path fill="none" stroke="#63b8ff" d="M664.5,-189.18C652.13,-217.78 625.7,-269.88 587,-299 579.84,-304.39 571.04,-308.18 562.48,-310.85"/>
<polygon fill="#63b8ff" stroke="#63b8ff" points="667.62,-190.79 668.22,-180.21 661.15,-188.1 667.62,-190.79"/>
</g>
<!-- Node3 -->
<g id="node3" class="node">
<title>Node3</title>
<g id="a_node3"><a xlink:href="../../d2/df8/classdoris_1_1_txn_manager.html#a1333f79f1b3440ff7047f5dd9ced13eb" target="_top" xlink:title=" ">
<polygon fill="white" stroke="#666666" points="559,-289.5 497,-289.5 497,-270.5 559,-270.5 559,-289.5"/>
<text text-anchor="middle" x="528" y="-277.5" font-family="Helvetica,sans-Serif" font-size="10.00">delete_txn</text>
</a>
</g>
</g>
<!-- Node1&#45;&gt;Node3 -->
<g id="edge2" class="edge">
<title>Node1&#45;&gt;Node3</title>
<path fill="none" stroke="#63b8ff" d="M659.83,-187.91C644.81,-208.92 617.9,-242.45 587,-262 578.63,-267.3 568.58,-271.13 559.22,-273.86"/>
<polygon fill="#63b8ff" stroke="#63b8ff" points="662.52,-190.17 665.35,-179.96 656.77,-186.18 662.52,-190.17"/>
</g>
<!-- Node4 -->
<g id="node4" class="node">
<title>Node4</title>
<g id="a_node4"><a xlink:href="../../d2/df8/classdoris_1_1_txn_manager.html#a017d1b36e870898f5cd3716fea9b0ce4" target="_top" xlink:title=" ">
<polygon fill="white" stroke="#666666" points="572,-252.5 484,-252.5 484,-233.5 572,-233.5 572,-252.5"/>
<text text-anchor="middle" x="528" y="-240.5" font-family="Helvetica,sans-Serif" font-size="10.00">get_partition_ids</text>
</a>
</g>
</g>
<!-- Node1&#45;&gt;Node4 -->
<g id="edge3" class="edge">
<title>Node1&#45;&gt;Node4</title>
<path fill="none" stroke="#63b8ff" d="M650.92,-185.58C634.2,-197.8 610.08,-214.12 587,-225 580.51,-228.06 573.38,-230.76 566.4,-233.08"/>
<polygon fill="#63b8ff" stroke="#63b8ff" points="652.7,-188.62 658.63,-179.83 648.52,-183 652.7,-188.62"/>
</g>
<!-- Node5 -->
<g id="node5" class="node">
<title>Node5</title>
<g id="a_node5"><a xlink:href="../../d2/df8/classdoris_1_1_txn_manager.html#ac9d347956c68b44803d58668d83a8dee" target="_top" xlink:title=" ">
<polygon fill="white" stroke="#666666" points="587,-215.5 469,-215.5 469,-196.5 587,-196.5 587,-215.5"/>
<text text-anchor="middle" x="528" y="-203.5" font-family="Helvetica,sans-Serif" font-size="10.00">get_txn_related_tablets</text>
</a>
</g>
</g>
<!-- Node1&#45;&gt;Node5 -->
<g id="edge4" class="edge">
<title>Node1&#45;&gt;Node5</title>
<path fill="none" stroke="#63b8ff" d="M623.06,-181.75C604.9,-186.43 584.63,-191.66 567.56,-196.06"/>
<polygon fill="#63b8ff" stroke="#63b8ff" points="623.77,-185.18 632.58,-179.29 622.02,-178.4 623.77,-185.18"/>
</g>
<!-- Node7 -->
<g id="node7" class="node">
<title>Node7</title>
<g id="a_node7"><a xlink:href="../../d2/df8/classdoris_1_1_txn_manager.html#a7f0b39824007fe6056cbed275e6fc3b1" target="_top" xlink:title=" ">
<polygon fill="white" stroke="#666666" points="553.5,-178.5 502.5,-178.5 502.5,-159.5 553.5,-159.5 553.5,-178.5"/>
<text text-anchor="middle" x="528" y="-166.5" font-family="Helvetica,sans-Serif" font-size="10.00">has_txn</text>
</a>
</g>
</g>
<!-- Node1&#45;&gt;Node7 -->
<g id="edge6" class="edge">
<title>Node1&#45;&gt;Node7</title>
<path fill="none" stroke="#63b8ff" d="M611.29,-169C591.04,-169 569.63,-169 553.73,-169"/>
<polygon fill="#63b8ff" stroke="#63b8ff" points="611.2,-172.5 621.2,-169 611.2,-165.5 611.2,-172.5"/>
</g>
<!-- Node8 -->
<g id="node8" class="node">
<title>Node8</title>
<g id="a_node8"><a xlink:href="../../d2/df8/classdoris_1_1_txn_manager.html#afca8e9a8fe9915870cb57c42c43cab90" target="_top" xlink:title=" ">
<polygon fill="white" stroke="#666666" points="562,-141.5 494,-141.5 494,-122.5 562,-122.5 562,-141.5"/>
<text text-anchor="middle" x="528" y="-129.5" font-family="Helvetica,sans-Serif" font-size="10.00">prepare_txn</text>
</a>
</g>
</g>
<!-- Node1&#45;&gt;Node8 -->
<g id="edge7" class="edge">
<title>Node1&#45;&gt;Node8</title>
<path fill="none" stroke="#63b8ff" d="M622.9,-156.21C602.83,-151.04 580.21,-145.2 562.2,-140.56"/>
<polygon fill="#63b8ff" stroke="#63b8ff" points="622.02,-159.6 632.58,-158.71 623.77,-152.82 622.02,-159.6"/>
</g>
<!-- Node9 -->
<g id="node9" class="node">
<title>Node9</title>
<g id="a_node9"><a xlink:href="../../d2/df8/classdoris_1_1_txn_manager.html#a46535e045da463157863b21bfd60eace" target="_top" xlink:title=" ">
<polygon fill="white" stroke="#666666" points="561,-104.5 495,-104.5 495,-85.5 561,-85.5 561,-104.5"/>
<text text-anchor="middle" x="528" y="-92.5" font-family="Helvetica,sans-Serif" font-size="10.00">publish_txn</text>
</a>
</g>
</g>
<!-- Node1&#45;&gt;Node9 -->
<g id="edge8" class="edge">
<title>Node1&#45;&gt;Node9</title>
<path fill="none" stroke="#63b8ff" d="M650.53,-152.64C633.78,-140.72 609.78,-124.84 587,-114 578.96,-110.18 569.96,-106.82 561.48,-104.03"/>
<polygon fill="#63b8ff" stroke="#63b8ff" points="648.12,-155.21 658.27,-158.24 652.22,-149.54 648.12,-155.21"/>
</g>
<!-- Node10 -->
<g id="node10" class="node">
<title>Node10</title>
<g id="a_node10"><a xlink:href="../../d2/df8/classdoris_1_1_txn_manager.html#ac52e89f2dff009c3e21d70b89f43f4c7" target="_top" xlink:title=" ">
<polygon fill="white" stroke="#666666" points="562.5,-67.5 493.5,-67.5 493.5,-48.5 562.5,-48.5 562.5,-67.5"/>
<text text-anchor="middle" x="528" y="-55.5" font-family="Helvetica,sans-Serif" font-size="10.00">rollback_txn</text>
</a>
</g>
</g>
<!-- Node1&#45;&gt;Node10 -->
<g id="edge9" class="edge">
<title>Node1&#45;&gt;Node10</title>
<path fill="none" stroke="#63b8ff" d="M659.29,-149.78C644.1,-129.05 617.32,-96.41 587,-77 579.68,-72.32 571.1,-68.68 562.82,-65.91"/>
<polygon fill="#63b8ff" stroke="#63b8ff" points="656.43,-151.8 665.08,-157.92 662.13,-147.74 656.43,-151.8"/>
</g>
<!-- Node11 -->
<g id="node11" class="node">
<title>Node11</title>
<g id="a_node11"><a xlink:href="../../d2/df8/classdoris_1_1_txn_manager.html#a6654fe110ce6507b3297c4f6e8bd1f2d" target="_top" xlink:title=" ">
<polygon fill="white" stroke="#666666" points="585.5,-30 470.5,-30 470.5,0 585.5,0 585.5,-30"/>
<text text-anchor="start" x="478.5" y="-18" font-family="Helvetica,sans-Serif" font-size="10.00">set_txn_related_delete</text>
<text text-anchor="middle" x="528" y="-7" font-family="Helvetica,sans-Serif" font-size="10.00">_bitmap</text>
</a>
</g>
</g>
<!-- Node1&#45;&gt;Node11 -->
<g id="edge10" class="edge">
<title>Node1&#45;&gt;Node11</title>
<path fill="none" stroke="#63b8ff" d="M663.94,-148.88C651.05,-120.76 624.15,-69.7 587,-39 583.05,-35.74 578.6,-32.86 573.96,-30.35"/>
<polygon fill="#63b8ff" stroke="#63b8ff" points="660.6,-149.97 667.85,-157.7 667,-147.14 660.6,-149.97"/>
</g>
<!-- Node6 -->
<g id="node6" class="node">
<title>Node6</title>
<g id="a_node6"><a xlink:href="../../d3/db0/classdoris_1_1_engine_publish_version_task.html#ad040292e932cc1c1ff2043dfc48c864d" target="_top" xlink:title=" ">
<polygon fill="white" stroke="#666666" points="433,-221 294,-221 294,-191 433,-191 433,-221"/>
<text text-anchor="start" x="302" y="-209" font-family="Helvetica,sans-Serif" font-size="10.00">doris::EnginePublishVersion</text>
<text text-anchor="middle" x="363.5" y="-198" font-family="Helvetica,sans-Serif" font-size="10.00">Task::finish</text>
</a>
</g>
</g>
<!-- Node5&#45;&gt;Node6 -->
<g id="edge5" class="edge">
<title>Node5&#45;&gt;Node6</title>
<path fill="none" stroke="#63b8ff" d="M457.32,-206C449.39,-206 441.31,-206 433.39,-206"/>
<polygon fill="#63b8ff" stroke="#63b8ff" points="457.28,-209.5 467.28,-206 457.28,-202.5 457.28,-209.5"/>
</g>
<!-- Node12 -->
<g id="node12" class="node">
<title>Node12</title>
<g id="a_node12"><a xlink:href="../../d7/d75/classdoris_1_1_delta_writer.html#a6070c348e98f03af8f75c15e6dceaa60" target="_top" xlink:title=" ">
<polygon fill="white" stroke="#666666" points="409.5,-30 317.5,-30 317.5,0 409.5,0 409.5,-30"/>
<text text-anchor="start" x="325.5" y="-18" font-family="Helvetica,sans-Serif" font-size="10.00">doris::DeltaWriter</text>
<text text-anchor="middle" x="363.5" y="-7" font-family="Helvetica,sans-Serif" font-size="10.00">::close_wait</text>
</a>
</g>
</g>
<!-- Node11&#45;&gt;Node12 -->
<g id="edge11" class="edge">
<title>Node11&#45;&gt;Node12</title>
<path fill="none" stroke="#63b8ff" d="M458.86,-15C442.3,-15 424.99,-15 409.79,-15"/>
<polygon fill="#63b8ff" stroke="#63b8ff" points="458.65,-18.5 468.65,-15 458.65,-11.5 458.65,-18.5"/>
</g>
<!-- Node13 -->
<g id="node13" class="node">
<title>Node13</title>
<g id="a_node13"><a xlink:href="../../df/dd9/classdoris_1_1_tablets_channel.html#adbc5b6814795668cbab92813505f3276" target="_top" xlink:title=" ">
<polygon fill="white" stroke="#666666" points="258,-30 147,-30 147,0 258,0 258,-30"/>
<text text-anchor="start" x="155" y="-18" font-family="Helvetica,sans-Serif" font-size="10.00">doris::TabletsChannel</text>
<text text-anchor="middle" x="202.5" y="-7" font-family="Helvetica,sans-Serif" font-size="10.00">::_close_wait</text>
</a>
</g>
</g>
<!-- Node12&#45;&gt;Node13 -->
<g id="edge12" class="edge">
<title>Node12&#45;&gt;Node13</title>
<path fill="none" stroke="#63b8ff" d="M306.3,-15C290.73,-15 273.85,-15 258.36,-15"/>
<polygon fill="#63b8ff" stroke="#63b8ff" points="305.85,-18.5 315.85,-15 305.85,-11.5 305.85,-18.5"/>
</g>
<!-- Node14 -->
<g id="node14" class="node">
<title>Node14</title>
<g id="a_node14"><a xlink:href="../../df/dd9/classdoris_1_1_tablets_channel.html#a3cbbc1ac11ff5b58de619e3d6369a7ba" target="_top" xlink:title=" ">
<polygon fill="white" stroke="#666666" points="111,-30 0,-30 0,0 111,0 111,-30"/>
<text text-anchor="start" x="8" y="-18" font-family="Helvetica,sans-Serif" font-size="10.00">doris::TabletsChannel</text>
<text text-anchor="middle" x="55.5" y="-7" font-family="Helvetica,sans-Serif" font-size="10.00">::close</text>
</a>
</g>
</g>
<!-- Node13&#45;&gt;Node14 -->
<g id="edge13" class="edge">
<title>Node13&#45;&gt;Node14</title>
<path fill="none" stroke="#63b8ff" d="M135.43,-15C127.39,-15 119.25,-15 111.4,-15"/>
<polygon fill="#63b8ff" stroke="#63b8ff" points="135.17,-18.5 145.17,-15 135.17,-11.5 135.17,-18.5"/>
</g>
</g>
</svg>
