<?xml version="1.0" encoding="UTF-8" standalone="no"?>
<!DOCTYPE svg PUBLIC "-//W3C//DTD SVG 1.1//EN"
 "http://www.w3.org/Graphics/SVG/1.1/DTD/svg11.dtd">
<!-- Generated by graphviz version 7.1.0 (20230121.1956)
 -->
<!-- Title: FilePathDescStream Pages: 1 -->
<svg width="222pt" height="104pt"
 viewBox="0.00 0.00 221.50 104.00" xmlns="http://www.w3.org/2000/svg" xmlns:xlink="http://www.w3.org/1999/xlink">
<g id="graph0" class="graph" transform="scale(1 1) rotate(0) translate(4 100)">
<title>FilePathDescStream</title>
<!-- Node1 -->
<g id="node1" class="node">
<title>Node1</title>
<g id="a_node1"><a xlink:title=" ">
<polygon fill="#999999" stroke="#666666" points="148,-19 41,-19 41,0 148,0 148,-19"/>
<text text-anchor="middle" x="94.5" y="-7" font-family="Helvetica,sans-Serif" font-size="10.00">FilePathDescStream</text>
</a>
</g>
</g>
<!-- Node2 -->
<g id="node2" class="node">
<title>Node2</title>
<g id="a_node2"><a xlink:title=" ">
<polygon fill="white" stroke="#666666" points="71,-96 0,-96 0,-77 71,-77 71,-96"/>
<text text-anchor="middle" x="35.5" y="-84" font-family="Helvetica,sans-Serif" font-size="10.00">stringstream</text>
</a>
</g>
</g>
<!-- Node2&#45;&gt;Node1 -->
<g id="edge1" class="edge">
<title>Node2&#45;&gt;Node1</title>
<path fill="none" stroke="#9a32cd" stroke-dasharray="5,2" d="M31.31,-65.7C30.4,-56.3 31.03,-45.32 36.5,-37 41.79,-28.95 50.18,-23.31 58.96,-19.38"/>
<polygon fill="#9a32cd" stroke="#9a32cd" points="27.81,-66 32.86,-75.31 34.72,-64.88 27.81,-66"/>
<text text-anchor="middle" x="84" y="-51" font-family="Helvetica,sans-Serif" font-size="10.00"> _filepath_stream</text>
<text text-anchor="middle" x="84" y="-40" font-family="Helvetica,sans-Serif" font-size="10.00">_remote_path_stream</text>
</g>
<!-- Node3 -->
<g id="node3" class="node">
<title>Node3</title>
<g id="a_node3"><a xlink:title=" ">
<polygon fill="white" stroke="#666666" points="174,-96 133,-96 133,-77 174,-77 174,-96"/>
<text text-anchor="middle" x="153.5" y="-84" font-family="Helvetica,sans-Serif" font-size="10.00">string</text>
</a>
</g>
</g>
<!-- Node3&#45;&gt;Node1 -->
<g id="edge2" class="edge">
<title>Node3&#45;&gt;Node1</title>
<path fill="none" stroke="#9a32cd" stroke-dasharray="5,2" d="M147.26,-65.79C143.65,-56.42 138.43,-45.44 131.5,-37 125.78,-30.04 117.82,-24.02 110.75,-19.49"/>
<polygon fill="#9a32cd" stroke="#9a32cd" points="143.9,-66.78 150.49,-75.07 150.51,-64.48 143.9,-66.78"/>
<text text-anchor="middle" x="178.5" y="-45.5" font-family="Helvetica,sans-Serif" font-size="10.00"> _storage_name</text>
</g>
</g>
</svg>
