<?xml version="1.0" encoding="UTF-8" standalone="no"?>
<!DOCTYPE svg PUBLIC "-//W3C//DTD SVG 1.1//EN"
 "http://www.w3.org/Graphics/SVG/1.1/DTD/svg11.dtd">
<!-- Generated by graphviz version 7.1.0 (20230121.1956)
 -->
<!-- Title: add_batch Pages: 1 -->
<svg width="486pt" height="129pt"
 viewBox="0.00 0.00 486.00 129.00" xmlns="http://www.w3.org/2000/svg" xmlns:xlink="http://www.w3.org/1999/xlink">
<g id="graph0" class="graph" transform="scale(1 1) rotate(0) translate(4 125)">
<title>add_batch</title>
<!-- Node1 -->
<g id="node1" class="node">
<title>Node1</title>
<g id="a_node1"><a xlink:title=" ">
<polygon fill="#999999" stroke="#666666" points="62,-74 0,-74 0,-55 62,-55 62,-74"/>
<text text-anchor="middle" x="31" y="-62" font-family="Helvetica,sans-Serif" font-size="10.00">add_batch</text>
</a>
</g>
</g>
<!-- Node2 -->
<g id="node2" class="node">
<title>Node2</title>
<g id="a_node2"><a xlink:href="../../d9/d83/classdoris_1_1_load_channel.html#a09183fdf1a57199c608ca2a51edf7a97" target="_top" xlink:title=" ">
<polygon fill="white" stroke="#666666" points="207,-93 98,-93 98,-74 207,-74 207,-93"/>
<text text-anchor="middle" x="152.5" y="-81" font-family="Helvetica,sans-Serif" font-size="10.00">_get_tablets_channel</text>
</a>
</g>
</g>
<!-- Node1&#45;&gt;Node2 -->
<g id="edge1" class="edge">
<title>Node1&#45;&gt;Node2</title>
<path fill="none" stroke="#63b8ff" d="M62.46,-69.34C69.96,-70.54 78.28,-71.86 86.74,-73.2"/>
<polygon fill="#63b8ff" stroke="#63b8ff" points="85.95,-76.62 96.38,-74.74 87.05,-69.71 85.95,-76.62"/>
</g>
<!-- Node3 -->
<g id="node3" class="node">
<title>Node3</title>
<g id="a_node3"><a xlink:href="../../d9/d83/classdoris_1_1_load_channel.html#a98cfe7c3f27a7cd113555d1641708932" target="_top" xlink:title=" ">
<polygon fill="white" stroke="#666666" points="320.5,-121 257.5,-121 257.5,-102 320.5,-102 320.5,-121"/>
<text text-anchor="middle" x="289" y="-109" font-family="Helvetica,sans-Serif" font-size="10.00">is_finished</text>
</a>
</g>
</g>
<!-- Node1&#45;&gt;Node3 -->
<g id="edge7" class="edge">
<title>Node1&#45;&gt;Node3</title>
<path fill="none" stroke="#63b8ff" d="M44.8,-74.36C57.51,-83.53 77.95,-96.63 98,-102.5 147.26,-116.92 206.74,-117.15 245.87,-115.1"/>
<polygon fill="#63b8ff" stroke="#63b8ff" points="246.05,-118.6 255.82,-114.5 245.62,-111.61 246.05,-118.6"/>
</g>
<!-- Node6 -->
<g id="node6" class="node">
<title>Node6</title>
<g id="a_node6"><a xlink:href="../../d9/d83/classdoris_1_1_load_channel.html#a64bb376b27ac82825b9fd342f0029e61" target="_top" xlink:title=" ">
<polygon fill="white" stroke="#666666" points="188,-56 117,-56 117,-37 188,-37 188,-56"/>
<text text-anchor="middle" x="152.5" y="-44" font-family="Helvetica,sans-Serif" font-size="10.00">_handle_eos</text>
</a>
</g>
</g>
<!-- Node1&#45;&gt;Node6 -->
<g id="edge5" class="edge">
<title>Node1&#45;&gt;Node6</title>
<path fill="none" stroke="#63b8ff" d="M62.46,-59.91C75.56,-57.94 91.15,-55.59 105.59,-53.41"/>
<polygon fill="#63b8ff" stroke="#63b8ff" points="106,-56.89 115.37,-51.94 104.96,-49.97 106,-56.89"/>
</g>
<!-- Node7 -->
<g id="node7" class="node">
<title>Node7</title>
<g id="a_node7"><a xlink:href="../../d9/d8d/classdoris_1_1_status.html#a03cb7eaa663dc83af68bc28a596d09e6" target="_top" xlink:title=" ">
<polygon fill="white" stroke="#666666" points="197,-19 108,-19 108,0 197,0 197,-19"/>
<text text-anchor="middle" x="152.5" y="-7" font-family="Helvetica,sans-Serif" font-size="10.00">doris::Status::ok</text>
</a>
</g>
</g>
<!-- Node1&#45;&gt;Node7 -->
<g id="edge8" class="edge">
<title>Node1&#45;&gt;Node7</title>
<path fill="none" stroke="#63b8ff" d="M47.84,-54.51C60.95,-46.52 80.23,-35.39 98,-27.5 101.17,-26.09 104.48,-24.73 107.84,-23.43"/>
<polygon fill="#63b8ff" stroke="#63b8ff" points="108.98,-26.74 117.17,-20.01 106.58,-20.17 108.98,-26.74"/>
</g>
<!-- Node2&#45;&gt;Node3 -->
<g id="edge2" class="edge">
<title>Node2&#45;&gt;Node3</title>
<path fill="none" stroke="#63b8ff" d="M201.3,-93.45C215.95,-96.5 231.96,-99.83 246.18,-102.79"/>
<polygon fill="#63b8ff" stroke="#63b8ff" points="245.17,-106.16 255.67,-104.77 246.59,-99.3 245.17,-106.16"/>
</g>
<!-- Node4 -->
<g id="node4" class="node">
<title>Node4</title>
<g id="a_node4"><a xlink:href="../../d9/d8d/classdoris_1_1_status.html#a6ec1a217f203269ab53d2290d602db24" target="_top" xlink:title=" ">
<polygon fill="white" stroke="#666666" points="335,-74 243,-74 243,-55 335,-55 335,-74"/>
<text text-anchor="middle" x="289" y="-62" font-family="Helvetica,sans-Serif" font-size="10.00">doris::Status::OK</text>
</a>
</g>
</g>
<!-- Node2&#45;&gt;Node4 -->
<g id="edge3" class="edge">
<title>Node2&#45;&gt;Node4</title>
<path fill="none" stroke="#63b8ff" d="M207.43,-75.88C215.29,-74.77 223.4,-73.63 231.31,-72.51"/>
<polygon fill="#63b8ff" stroke="#63b8ff" points="231.79,-75.98 241.2,-71.11 230.81,-69.04 231.79,-75.98"/>
</g>
<!-- Node5 -->
<g id="node5" class="node">
<title>Node5</title>
<g id="a_node5"><a xlink:href="../../d9/d8d/classdoris_1_1_status.html#aafde58df1b2a6a91d5b674373be3ffc5" target="_top" xlink:title=" ">
<polygon fill="white" stroke="#666666" points="478,-74 371,-74 371,-55 478,-55 478,-74"/>
<text text-anchor="middle" x="424.5" y="-62" font-family="Helvetica,sans-Serif" font-size="10.00">doris::Status::Status</text>
</a>
</g>
</g>
<!-- Node4&#45;&gt;Node5 -->
<g id="edge4" class="edge">
<title>Node4&#45;&gt;Node5</title>
<path fill="none" stroke="#63b8ff" d="M335.2,-64.5C342.91,-64.5 351.05,-64.5 359.15,-64.5"/>
<polygon fill="#63b8ff" stroke="#63b8ff" points="359,-68 369,-64.5 359,-61 359,-68"/>
</g>
<!-- Node6&#45;&gt;Node4 -->
<g id="edge6" class="edge">
<title>Node6&#45;&gt;Node4</title>
<path fill="none" stroke="#63b8ff" d="M188.49,-51.18C201.64,-52.94 216.94,-54.99 231.55,-56.95"/>
<polygon fill="#63b8ff" stroke="#63b8ff" points="230.66,-60.36 241.04,-58.22 231.59,-53.42 230.66,-60.36"/>
</g>
</g>
</svg>
