<?xml version="1.0" encoding="UTF-8" standalone="no"?>
<!DOCTYPE svg PUBLIC "-//W3C//DTD SVG 1.1//EN"
 "http://www.w3.org/Graphics/SVG/1.1/DTD/svg11.dtd">
<!-- Generated by graphviz version 7.1.0 (20230121.1956)
 -->
<!-- Title: _write_raw_data Pages: 1 -->
<svg width="373pt" height="76pt"
 viewBox="0.00 0.00 373.00 75.50" xmlns="http://www.w3.org/2000/svg" xmlns:xlink="http://www.w3.org/1999/xlink">
<g id="graph0" class="graph" transform="scale(1 1) rotate(0) translate(4 71.5)">
<title>_write_raw_data</title>
<!-- Node1 -->
<g id="node1" class="node">
<title>Node1</title>
<g id="a_node1"><a xlink:title=" ">
<polygon fill="#999999" stroke="#666666" points="88,-40 0,-40 0,-21 88,-21 88,-40"/>
<text text-anchor="middle" x="44" y="-28" font-family="Helvetica,sans-Serif" font-size="10.00">_write_raw_data</text>
</a>
</g>
</g>
<!-- Node2 -->
<g id="node2" class="node">
<title>Node2</title>
<g id="a_node2"><a xlink:href="../../d4/d4b/classdoris_1_1io_1_1_file_writer.html#ad3cbe0a7c67fab749f7d7476987fcb68" target="_top" xlink:title=" ">
<polygon fill="white" stroke="#666666" points="222,-67.5 124,-67.5 124,-37.5 222,-37.5 222,-67.5"/>
<text text-anchor="start" x="132" y="-55.5" font-family="Helvetica,sans-Serif" font-size="10.00">doris::io::FileWriter</text>
<text text-anchor="middle" x="173" y="-44.5" font-family="Helvetica,sans-Serif" font-size="10.00">::appendv</text>
</a>
</g>
</g>
<!-- Node1&#45;&gt;Node2 -->
<g id="edge1" class="edge">
<title>Node1&#45;&gt;Node2</title>
<path fill="none" stroke="#63b8ff" d="M88.35,-38.01C96.07,-39.35 104.23,-40.76 112.3,-42.16"/>
<polygon fill="#63b8ff" stroke="#63b8ff" points="111.67,-45.6 122.12,-43.86 112.87,-38.7 111.67,-45.6"/>
</g>
<!-- Node3 -->
<g id="node3" class="node">
<title>Node3</title>
<g id="a_node3"><a xlink:href="../../d9/d8d/classdoris_1_1_status.html#a6ec1a217f203269ab53d2290d602db24" target="_top" xlink:title=" ">
<polygon fill="white" stroke="#666666" points="219,-19 127,-19 127,0 219,0 219,-19"/>
<text text-anchor="middle" x="173" y="-7" font-family="Helvetica,sans-Serif" font-size="10.00">doris::Status::OK</text>
</a>
</g>
</g>
<!-- Node1&#45;&gt;Node3 -->
<g id="edge2" class="edge">
<title>Node1&#45;&gt;Node3</title>
<path fill="none" stroke="#63b8ff" d="M88.35,-23.33C97.04,-21.89 106.29,-20.36 115.36,-18.87"/>
<polygon fill="#63b8ff" stroke="#63b8ff" points="115.89,-22.33 125.19,-17.24 114.75,-15.42 115.89,-22.33"/>
</g>
<!-- Node4 -->
<g id="node4" class="node">
<title>Node4</title>
<g id="a_node4"><a xlink:href="../../d9/d8d/classdoris_1_1_status.html#aafde58df1b2a6a91d5b674373be3ffc5" target="_top" xlink:title=" ">
<polygon fill="white" stroke="#666666" points="365,-19 258,-19 258,0 365,0 365,-19"/>
<text text-anchor="middle" x="311.5" y="-7" font-family="Helvetica,sans-Serif" font-size="10.00">doris::Status::Status</text>
</a>
</g>
</g>
<!-- Node3&#45;&gt;Node4 -->
<g id="edge3" class="edge">
<title>Node3&#45;&gt;Node4</title>
<path fill="none" stroke="#63b8ff" d="M219.45,-9.5C228.07,-9.5 237.23,-9.5 246.3,-9.5"/>
<polygon fill="#63b8ff" stroke="#63b8ff" points="246.17,-13 256.17,-9.5 246.17,-6 246.17,-13"/>
</g>
</g>
</svg>
