<?xml version="1.0" encoding="UTF-8" standalone="no"?>
<!DOCTYPE svg PUBLIC "-//W3C//DTD SVG 1.1//EN"
 "http://www.w3.org/Graphics/SVG/1.1/DTD/svg11.dtd">
<!-- Generated by graphviz version 7.1.0 (20230121.1956)
 -->
<!-- Title: finalize_footer Pages: 1 -->
<!--zoomable 360 -->
<svg id="main" version="1.1" xmlns="http://www.w3.org/2000/svg" xmlns:xlink="http://www.w3.org/1999/xlink" xml:space="preserve" onload="init(evt)">
<style type="text/css"><![CDATA[
.edge:hover path { stroke: red; }
.edge:hover polygon { stroke: red; fill: red; }
]]></style>
<script type="text/javascript"><![CDATA[
var edges = document.getElementsByTagName('g');
if (edges && edges.length) {
  for (var i=0;i<edges.length;i++) {
    if (edges[i].id.substr(0,4)=='edge') {
      edges[i].setAttribute('class','edge');
    }
  }
}
]]></script>
        <defs>
                <circle id="rim" cx="0" cy="0" r="7"/>
                <circle id="rim2" cx="0" cy="0" r="3.5"/>
                <g id="zoomPlus">
                        <use xlink:href="#rim" fill="#404040">
                                <set attributeName="fill" to="#808080" begin="zoomplus.mouseover" end="zoomplus.mouseout"/>
                        </use>
                        <path d="M-4,0h8M0,-4v8" fill="none" stroke="white" stroke-width="1.5" pointer-events="none"/>
                </g>
                <g id="zoomMin">
                        <use xlink:href="#rim" fill="#404040">
                                <set attributeName="fill" to="#808080" begin="zoomminus.mouseover" end="zoomminus.mouseout"/>
                        </use>
                        <path d="M-4,0h8" fill="none" stroke="white" stroke-width="1.5" pointer-events="none"/>
                </g>
                <g id="dirArrow">
                        <path fill="none" stroke="white" stroke-width="1.5" d="M0,-3.0v7 M-2.5,-0.5L0,-3.0L2.5,-0.5"/>
                </g>
               <g id="resetDef">
                       <use xlink:href="#rim2" fill="#404040">
                               <set attributeName="fill" to="#808080" begin="reset.mouseover" end="reset.mouseout"/>
                       </use>
               </g>
        </defs>

<script type="text/javascript">
var viewWidth = 1047;
var viewHeight = 360;
var sectionId = 'dynsection-15';
</script>
<script xlink:href="../../svgpan.js"/>
<svg id="graph" class="graph">
<g id="viewport">
<title>finalize_footer</title>
<!-- Node1 -->
<g id="node1" class="node">
<title>Node1</title>
<g id="a_node1"><a xlink:title=" ">
<polygon fill="#999999" stroke="#666666" points="77,-93.5 0,-93.5 0,-74.5 77,-74.5 77,-93.5"/>
<text text-anchor="middle" x="38.5" y="-81.5" font-family="Helvetica,sans-Serif" font-size="10.00">finalize_footer</text>
</a>
</g>
</g>
<!-- Node2 -->
<g id="node2" class="node">
<title>Node2</title>
<g id="a_node2"><a xlink:href="../../dd/db2/classdoris_1_1segment__v2_1_1_segment_writer.html#ae61ad759280c6b05f139a6f20c0a030b" target="_top" xlink:title=" ">
<polygon fill="white" stroke="#666666" points="198.5,-208.5 125.5,-208.5 125.5,-189.5 198.5,-189.5 198.5,-208.5"/>
<text text-anchor="middle" x="162" y="-196.5" font-family="Helvetica,sans-Serif" font-size="10.00">_write_footer</text>
</a>
</g>
</g>
<!-- Node1&#45;&gt;Node2 -->
<g id="edge1" class="edge">
<title>Node1&#45;&gt;Node2</title>
<path fill="none" stroke="#63b8ff" d="M49.86,-93.8C70.39,-113.24 116.51,-156.89 142.42,-181.41"/>
<polygon fill="#63b8ff" stroke="#63b8ff" points="139.9,-183.85 149.57,-188.18 144.71,-178.76 139.9,-183.85"/>
</g>
<!-- Node5 -->
<g id="node5" class="node">
<title>Node5</title>
<g id="a_node5"><a xlink:href="../../d9/d8d/classdoris_1_1_status.html#a6ec1a217f203269ab53d2290d602db24" target="_top" xlink:title=" ">
<polygon fill="white" stroke="#666666" points="497.5,-128.5 405.5,-128.5 405.5,-109.5 497.5,-109.5 497.5,-128.5"/>
<text text-anchor="middle" x="451.5" y="-116.5" font-family="Helvetica,sans-Serif" font-size="10.00">doris::Status::OK</text>
</a>
</g>
</g>
<!-- Node1&#45;&gt;Node5 -->
<g id="edge22" class="edge">
<title>Node1&#45;&gt;Node5</title>
<path fill="none" stroke="#63b8ff" d="M77.43,-87.23C150.01,-93.41 308.86,-106.94 393.99,-114.19"/>
<polygon fill="#63b8ff" stroke="#63b8ff" points="393.47,-117.66 403.73,-115.02 394.07,-110.68 393.47,-117.66"/>
</g>
<!-- Node19 -->
<g id="node19" class="node">
<title>Node19</title>
<g id="a_node19"><a xlink:href="../../d4/d4b/classdoris_1_1io_1_1_file_writer.html#ad87b49eda56deb2aeb71da33654482fc" target="_top" xlink:title=" ">
<polygon fill="white" stroke="#666666" points="211,-78 113,-78 113,-48 211,-48 211,-78"/>
<text text-anchor="start" x="121" y="-66" font-family="Helvetica,sans-Serif" font-size="10.00">doris::io::FileWriter</text>
<text text-anchor="middle" x="162" y="-55" font-family="Helvetica,sans-Serif" font-size="10.00">::bytes_appended</text>
</a>
</g>
</g>
<!-- Node1&#45;&gt;Node19 -->
<g id="edge20" class="edge">
<title>Node1&#45;&gt;Node19</title>
<path fill="none" stroke="#63b8ff" d="M77.28,-77.47C85.04,-76.13 93.38,-74.69 101.69,-73.25"/>
<polygon fill="#63b8ff" stroke="#63b8ff" points="102.19,-76.72 111.45,-71.56 101,-69.82 102.19,-76.72"/>
</g>
<!-- Node20 -->
<g id="node20" class="node">
<title>Node20</title>
<g id="a_node20"><a xlink:href="../../d4/d4b/classdoris_1_1io_1_1_file_writer.html#aa75e1a61c2fdb3821c3944f4364b2d2b" target="_top" xlink:title=" ">
<polygon fill="white" stroke="#666666" points="211,-30 113,-30 113,0 211,0 211,-30"/>
<text text-anchor="start" x="121" y="-18" font-family="Helvetica,sans-Serif" font-size="10.00">doris::io::FileWriter</text>
<text text-anchor="middle" x="162" y="-7" font-family="Helvetica,sans-Serif" font-size="10.00">::finalize</text>
</a>
</g>
</g>
<!-- Node1&#45;&gt;Node20 -->
<g id="edge21" class="edge">
<title>Node1&#45;&gt;Node20</title>
<path fill="none" stroke="#63b8ff" d="M54.76,-74.13C69.47,-64.74 92.46,-50.4 113,-39 114.92,-37.93 116.9,-36.86 118.91,-35.79"/>
<polygon fill="#63b8ff" stroke="#63b8ff" points="120.45,-38.93 127.7,-31.2 117.22,-32.72 120.45,-38.93"/>
</g>
<!-- Node3 -->
<g id="node3" class="node">
<title>Node3</title>
<g id="a_node3"><a xlink:href="../../dd/db2/classdoris_1_1segment__v2_1_1_segment_writer.html#a99199bfad2db881256031675e2025119" target="_top" xlink:title=" ">
<polygon fill="white" stroke="#666666" points="345,-190.5 257,-190.5 257,-171.5 345,-171.5 345,-190.5"/>
<text text-anchor="middle" x="301" y="-178.5" font-family="Helvetica,sans-Serif" font-size="10.00">_write_raw_data</text>
</a>
</g>
</g>
<!-- Node2&#45;&gt;Node3 -->
<g id="edge2" class="edge">
<title>Node2&#45;&gt;Node3</title>
<path fill="none" stroke="#63b8ff" d="M199,-194.27C213.22,-192.4 229.88,-190.21 245.52,-188.16"/>
<polygon fill="#63b8ff" stroke="#63b8ff" points="245.73,-191.66 255.18,-186.89 244.81,-184.72 245.73,-191.66"/>
</g>
<!-- Node7 -->
<g id="node7" class="node">
<title>Node7</title>
<g id="a_node7"><a xlink:href="../../db/dc2/classdoris_1_1faststring.html#ac070d7c3fba9cb4396b2af8b2619c824" target="_top" xlink:title=" ">
<polygon fill="white" stroke="#666666" points="346,-276 256,-276 256,-246 346,-246 346,-276"/>
<text text-anchor="start" x="264" y="-264" font-family="Helvetica,sans-Serif" font-size="10.00">doris::faststring::</text>
<text text-anchor="middle" x="301" y="-253" font-family="Helvetica,sans-Serif" font-size="10.00">append</text>
</a>
</g>
</g>
<!-- Node2&#45;&gt;Node7 -->
<g id="edge6" class="edge">
<title>Node2&#45;&gt;Node7</title>
<path fill="none" stroke="#63b8ff" d="M185.01,-208.96C203.97,-217.54 231.92,-230.19 255.51,-240.87"/>
<polygon fill="#63b8ff" stroke="#63b8ff" points="254.07,-244.06 264.62,-244.99 256.96,-237.68 254.07,-244.06"/>
</g>
<!-- Node14 -->
<g id="node14" class="node">
<title>Node14</title>
<g id="a_node14"><a xlink:href="../../d6/d94/namespacedoris.html#ae4b159cd667e97f52562617ca1b83671" target="_top" xlink:title=" ">
<polygon fill="white" stroke="#666666" points="354.5,-227.5 247.5,-227.5 247.5,-208.5 354.5,-208.5 354.5,-227.5"/>
<text text-anchor="middle" x="301" y="-215.5" font-family="Helvetica,sans-Serif" font-size="10.00">doris::put_fixed32_le</text>
</a>
</g>
</g>
<!-- Node2&#45;&gt;Node14 -->
<g id="edge14" class="edge">
<title>Node2&#45;&gt;Node14</title>
<path fill="none" stroke="#63b8ff" d="M199,-203.99C210.4,-205.57 223.37,-207.37 236.13,-209.14"/>
<polygon fill="#63b8ff" stroke="#63b8ff" points="235.35,-212.57 245.74,-210.47 236.31,-205.63 235.35,-212.57"/>
</g>
<!-- Node16 -->
<g id="node16" class="node">
<title>Node16</title>
<g id="a_node16"><a xlink:href="../../db/dc2/classdoris_1_1faststring.html#a259cb5a711406a8c3e5d937eb9350cca" target="_top" xlink:title=" ">
<polygon fill="white" stroke="#666666" points="355,-153.5 247,-153.5 247,-134.5 355,-134.5 355,-153.5"/>
<text text-anchor="middle" x="301" y="-141.5" font-family="Helvetica,sans-Serif" font-size="10.00">doris::faststring::size</text>
</a>
</g>
</g>
<!-- Node2&#45;&gt;Node16 -->
<g id="edge17" class="edge">
<title>Node2&#45;&gt;Node16</title>
<path fill="none" stroke="#63b8ff" d="M184.19,-189.05C201.05,-181.29 225.32,-170.44 247,-162 250.69,-160.56 254.55,-159.13 258.42,-157.73"/>
<polygon fill="#63b8ff" stroke="#63b8ff" points="259.58,-161.04 267.86,-154.42 257.26,-154.43 259.58,-161.04"/>
</g>
<!-- Node17 -->
<g id="node17" class="node">
<title>Node17</title>
<g id="a_node17"><a xlink:href="../../d6/d45/namespacedoris_1_1crc32c.html#a7b41a12744649aa424b4fcc440ff51a5" target="_top" xlink:title=" ">
<polygon fill="white" stroke="#666666" points="352.5,-332.5 249.5,-332.5 249.5,-313.5 352.5,-313.5 352.5,-332.5"/>
<text text-anchor="middle" x="301" y="-320.5" font-family="Helvetica,sans-Serif" font-size="10.00">doris::crc32c::Value</text>
</a>
</g>
</g>
<!-- Node2&#45;&gt;Node17 -->
<g id="edge18" class="edge">
<title>Node2&#45;&gt;Node17</title>
<path fill="none" stroke="#63b8ff" d="M171.56,-208.83C186.22,-225.4 217.39,-259.57 247,-285 255.83,-292.58 266.12,-300.21 275.27,-306.61"/>
<polygon fill="#63b8ff" stroke="#63b8ff" points="273.15,-309.4 283.37,-312.17 277.1,-303.63 273.15,-309.4"/>
</g>
<!-- Node4 -->
<g id="node4" class="node">
<title>Node4</title>
<g id="a_node4"><a xlink:href="../../d4/d4b/classdoris_1_1io_1_1_file_writer.html#ad3cbe0a7c67fab749f7d7476987fcb68" target="_top" xlink:title=" ">
<polygon fill="white" stroke="#666666" points="500.5,-190 402.5,-190 402.5,-160 500.5,-160 500.5,-190"/>
<text text-anchor="start" x="410.5" y="-178" font-family="Helvetica,sans-Serif" font-size="10.00">doris::io::FileWriter</text>
<text text-anchor="middle" x="451.5" y="-167" font-family="Helvetica,sans-Serif" font-size="10.00">::appendv</text>
</a>
</g>
</g>
<!-- Node3&#45;&gt;Node4 -->
<g id="edge3" class="edge">
<title>Node3&#45;&gt;Node4</title>
<path fill="none" stroke="#63b8ff" d="M345.35,-179.25C359.54,-178.68 375.56,-178.03 390.74,-177.41"/>
<polygon fill="#63b8ff" stroke="#63b8ff" points="390.78,-180.92 400.63,-177.01 390.5,-173.92 390.78,-180.92"/>
</g>
<!-- Node3&#45;&gt;Node5 -->
<g id="edge4" class="edge">
<title>Node3&#45;&gt;Node5</title>
<path fill="none" stroke="#63b8ff" d="M331.04,-171.06C338.86,-168.25 347.3,-165.11 355,-162 376.85,-153.18 401.04,-142.27 419.61,-133.65"/>
<polygon fill="#63b8ff" stroke="#63b8ff" points="420.89,-136.92 428.47,-129.51 417.93,-130.58 420.89,-136.92"/>
</g>
<!-- Node6 -->
<g id="node6" class="node">
<title>Node6</title>
<g id="a_node6"><a xlink:href="../../d9/d8d/classdoris_1_1_status.html#aafde58df1b2a6a91d5b674373be3ffc5" target="_top" xlink:title=" ">
<polygon fill="white" stroke="#666666" points="664,-128.5 557,-128.5 557,-109.5 664,-109.5 664,-128.5"/>
<text text-anchor="middle" x="610.5" y="-116.5" font-family="Helvetica,sans-Serif" font-size="10.00">doris::Status::Status</text>
</a>
</g>
</g>
<!-- Node5&#45;&gt;Node6 -->
<g id="edge5" class="edge">
<title>Node5&#45;&gt;Node6</title>
<path fill="none" stroke="#63b8ff" d="M497.91,-119C512.7,-119 529.42,-119 545.32,-119"/>
<polygon fill="#63b8ff" stroke="#63b8ff" points="545.2,-122.5 555.2,-119 545.2,-115.5 545.2,-122.5"/>
</g>
<!-- Node8 -->
<g id="node8" class="node">
<title>Node8</title>
<g id="a_node8"><a xlink:href="../../db/dc2/classdoris_1_1faststring.html#a51829f11dcf2a478a3276b3b01ba687d" target="_top" xlink:title=" ">
<polygon fill="white" stroke="#666666" points="512,-276 391,-276 391,-246 512,-246 512,-276"/>
<text text-anchor="start" x="399" y="-264" font-family="Helvetica,sans-Serif" font-size="10.00">doris::faststring::</text>
<text text-anchor="middle" x="451.5" y="-253" font-family="Helvetica,sans-Serif" font-size="10.00">EnsureRoomForAppend</text>
</a>
</g>
</g>
<!-- Node7&#45;&gt;Node8 -->
<g id="edge7" class="edge">
<title>Node7&#45;&gt;Node8</title>
<path fill="none" stroke="#63b8ff" d="M346.15,-261C356.6,-261 368.01,-261 379.33,-261"/>
<polygon fill="#63b8ff" stroke="#63b8ff" points="379.06,-264.5 389.06,-261 379.06,-257.5 379.06,-264.5"/>
</g>
<!-- Node13 -->
<g id="node13" class="node">
<title>Node13</title>
<g id="a_node13"><a xlink:href="../../df/dcb/namespacestrings.html#ab6713088a134914e4c475a08589b5dff" target="_top" xlink:title=" ">
<polygon fill="white" stroke="#666666" points="831,-313.5 709,-313.5 709,-294.5 831,-294.5 831,-313.5"/>
<text text-anchor="middle" x="770" y="-301.5" font-family="Helvetica,sans-Serif" font-size="10.00">strings::memcpy_inlined</text>
</a>
</g>
</g>
<!-- Node7&#45;&gt;Node13 -->
<g id="edge12" class="edge">
<title>Node7&#45;&gt;Node13</title>
<path fill="none" stroke="#63b8ff" d="M346.42,-274.97C360.53,-278.87 376.3,-282.68 391,-285 496.72,-301.71 620.94,-304.85 697.31,-304.92"/>
<polygon fill="#63b8ff" stroke="#63b8ff" points="697.18,-308.42 707.18,-304.91 697.17,-301.42 697.18,-308.42"/>
</g>
<!-- Node9 -->
<g id="node9" class="node">
<title>Node9</title>
<g id="a_node9"><a xlink:href="../../db/dc2/classdoris_1_1faststring.html#a4d97df7ee706d0d96a290d3b52bece1f" target="_top" xlink:title=" ">
<polygon fill="white" stroke="#666666" points="655.5,-276 565.5,-276 565.5,-246 655.5,-246 655.5,-276"/>
<text text-anchor="start" x="573.5" y="-264" font-family="Helvetica,sans-Serif" font-size="10.00">doris::faststring::</text>
<text text-anchor="middle" x="610.5" y="-253" font-family="Helvetica,sans-Serif" font-size="10.00">GrowToAtLeast</text>
</a>
</g>
</g>
<!-- Node8&#45;&gt;Node9 -->
<g id="edge8" class="edge">
<title>Node8&#45;&gt;Node9</title>
<path fill="none" stroke="#63b8ff" d="M512.3,-261C525.84,-261 540.17,-261 553.54,-261"/>
<polygon fill="#63b8ff" stroke="#63b8ff" points="553.49,-264.5 563.49,-261 553.49,-257.5 553.49,-264.5"/>
</g>
<!-- Node10 -->
<g id="node10" class="node">
<title>Node10</title>
<g id="a_node10"><a xlink:href="../../db/dc2/classdoris_1_1faststring.html#af25ac981cc86105cbd8b296be7462739" target="_top" xlink:title=" ">
<polygon fill="white" stroke="#666666" points="815,-276 725,-276 725,-246 815,-246 815,-276"/>
<text text-anchor="start" x="733" y="-264" font-family="Helvetica,sans-Serif" font-size="10.00">doris::faststring::</text>
<text text-anchor="middle" x="770" y="-253" font-family="Helvetica,sans-Serif" font-size="10.00">GrowArray</text>
</a>
</g>
</g>
<!-- Node9&#45;&gt;Node10 -->
<g id="edge9" class="edge">
<title>Node9&#45;&gt;Node10</title>
<path fill="none" stroke="#63b8ff" d="M655.79,-261C673.65,-261 694.45,-261 713.32,-261"/>
<polygon fill="#63b8ff" stroke="#63b8ff" points="713.25,-264.5 723.25,-261 713.25,-257.5 713.25,-264.5"/>
</g>
<!-- Node11 -->
<g id="node11" class="node">
<title>Node11</title>
<g id="a_node11"><a xlink:href="../../d9/d1e/memcpy__aarch64_8cpp.html#a156c5821f16ed93be8c7d315303f7b2a" target="_top" xlink:title=" ">
<polygon fill="white" stroke="#666666" points="921,-270.5 867,-270.5 867,-251.5 921,-251.5 921,-270.5"/>
<text text-anchor="middle" x="894" y="-258.5" font-family="Helvetica,sans-Serif" font-size="10.00">memcpy</text>
</a>
</g>
</g>
<!-- Node10&#45;&gt;Node11 -->
<g id="edge10" class="edge">
<title>Node10&#45;&gt;Node11</title>
<path fill="none" stroke="#63b8ff" d="M815.39,-261C828.4,-261 842.5,-261 855.07,-261"/>
<polygon fill="#63b8ff" stroke="#63b8ff" points="855.05,-264.5 865.05,-261 855.05,-257.5 855.05,-264.5"/>
</g>
<!-- Node12 -->
<g id="node12" class="node">
<title>Node12</title>
<g id="a_node12"><a xlink:href="../../d9/d1e/memcpy__aarch64_8cpp.html#a11ebdd343428c466f2f35c376d7db6d0" target="_top" xlink:title=" ">
<polygon fill="white" stroke="#666666" points="1039,-270.5 957,-270.5 957,-251.5 1039,-251.5 1039,-270.5"/>
<text text-anchor="middle" x="998" y="-258.5" font-family="Helvetica,sans-Serif" font-size="10.00">inline_memcpy</text>
</a>
</g>
</g>
<!-- Node11&#45;&gt;Node12 -->
<g id="edge11" class="edge">
<title>Node11&#45;&gt;Node12</title>
<path fill="none" stroke="#63b8ff" d="M921.27,-261C928.65,-261 936.95,-261 945.28,-261"/>
<polygon fill="#63b8ff" stroke="#63b8ff" points="945.05,-264.5 955.05,-261 945.05,-257.5 945.05,-264.5"/>
</g>
<!-- Node13&#45;&gt;Node11 -->
<g id="edge13" class="edge">
<title>Node13&#45;&gt;Node11</title>
<path fill="none" stroke="#63b8ff" d="M803.82,-294.02C812.68,-291.21 822.24,-288.08 831,-285 839.73,-281.93 849.07,-278.43 857.78,-275.07"/>
<polygon fill="#63b8ff" stroke="#63b8ff" points="858.94,-278.38 866.98,-271.48 856.39,-271.86 858.94,-278.38"/>
</g>
<!-- Node15 -->
<g id="node15" class="node">
<title>Node15</title>
<g id="a_node15"><a xlink:href="../../d6/d94/namespacedoris.html#a343764117c996fb2e87e2eff6d19774c" target="_top" xlink:title=" ">
<polygon fill="white" stroke="#666666" points="673,-227.5 548,-227.5 548,-208.5 673,-208.5 673,-227.5"/>
<text text-anchor="middle" x="610.5" y="-215.5" font-family="Helvetica,sans-Serif" font-size="10.00">doris::encode_fixed32_le</text>
</a>
</g>
</g>
<!-- Node14&#45;&gt;Node15 -->
<g id="edge15" class="edge">
<title>Node14&#45;&gt;Node15</title>
<path fill="none" stroke="#63b8ff" d="M354.86,-218C404.9,-218 480.47,-218 536.3,-218"/>
<polygon fill="#63b8ff" stroke="#63b8ff" points="536.03,-221.5 546.03,-218 536.03,-214.5 536.03,-221.5"/>
</g>
<!-- Node15&#45;&gt;Node11 -->
<g id="edge16" class="edge">
<title>Node15&#45;&gt;Node11</title>
<path fill="none" stroke="#63b8ff" d="M673.25,-218.7C717.64,-220.32 778.65,-224.86 831,-237 841.02,-239.32 851.58,-242.94 861.09,-246.66"/>
<polygon fill="#63b8ff" stroke="#63b8ff" points="859.69,-249.87 870.27,-250.44 862.35,-243.4 859.69,-249.87"/>
</g>
<!-- Node18 -->
<g id="node18" class="node">
<title>Node18</title>
<g id="a_node18"><a xlink:href="../../d6/d45/namespacedoris_1_1crc32c.html#a616c7bbe1cb19253f0edcec89794271a" target="_top" xlink:title=" ">
<polygon fill="white" stroke="#666666" points="506.5,-351.5 396.5,-351.5 396.5,-332.5 506.5,-332.5 506.5,-351.5"/>
<text text-anchor="middle" x="451.5" y="-339.5" font-family="Helvetica,sans-Serif" font-size="10.00">doris::crc32c::Extend</text>
</a>
</g>
</g>
<!-- Node17&#45;&gt;Node18 -->
<g id="edge19" class="edge">
<title>Node17&#45;&gt;Node18</title>
<path fill="none" stroke="#63b8ff" d="M352.69,-329.49C363.1,-330.82 374.21,-332.24 385.06,-333.63"/>
<polygon fill="#63b8ff" stroke="#63b8ff" points="384.37,-337.07 394.73,-334.86 385.26,-330.12 384.37,-337.07"/>
</g>
</g>
</svg>
        <g id="navigator" transform="translate(0 0)" fill="#404254">
                <rect fill="#f2f5e9" fill-opacity="0.5" stroke="#606060" stroke-width=".5" x="0" y="0" width="60" height="60"/>
                <use id="zoomplus" xlink:href="#zoomPlus" x="17" y="9" onmousedown="handleZoom(evt,'in')"/>
                <use id="zoomminus" xlink:href="#zoomMin" x="42" y="9" onmousedown="handleZoom(evt,'out')"/>
                <use id="reset" xlink:href="#resetDef" x="30" y="36" onmousedown="handleReset()"/>
                <g id="arrowUp" xlink:href="#dirArrow" transform="translate(30 24)" onmousedown="handlePan(0,-1)">
                  <use xlink:href="#rim" fill="#404040">
                        <set attributeName="fill" to="#808080" begin="arrowUp.mouseover" end="arrowUp.mouseout"/>
                  </use>
                  <path fill="none" stroke="white" stroke-width="1.5" d="M0,-3.0v7 M-2.5,-0.5L0,-3.0L2.5,-0.5"/>
                </g>
                <g id="arrowRight" xlink:href="#dirArrow" transform="rotate(90) translate(36 -43)" onmousedown="handlePan(1,0)">
                  <use xlink:href="#rim" fill="#404040">
                        <set attributeName="fill" to="#808080" begin="arrowRight.mouseover" end="arrowRight.mouseout"/>
                  </use>
                  <path fill="none" stroke="white" stroke-width="1.5" d="M0,-3.0v7 M-2.5,-0.5L0,-3.0L2.5,-0.5"/>
                </g>
                <g id="arrowDown" xlink:href="#dirArrow" transform="rotate(180) translate(-30 -48)" onmousedown="handlePan(0,1)">
                  <use xlink:href="#rim" fill="#404040">
                        <set attributeName="fill" to="#808080" begin="arrowDown.mouseover" end="arrowDown.mouseout"/>
                  </use>
                  <path fill="none" stroke="white" stroke-width="1.5" d="M0,-3.0v7 M-2.5,-0.5L0,-3.0L2.5,-0.5"/>
                </g>
                <g id="arrowLeft" xlink:href="#dirArrow" transform="rotate(270) translate(-36 17)" onmousedown="handlePan(-1,0)">
                  <use xlink:href="#rim" fill="#404040">
                        <set attributeName="fill" to="#808080" begin="arrowLeft.mouseover" end="arrowLeft.mouseout"/>
                  </use>
                  <path fill="none" stroke="white" stroke-width="1.5" d="M0,-3.0v7 M-2.5,-0.5L0,-3.0L2.5,-0.5"/>
                </g>
        </g>
        <svg viewBox="0 0 15 15" width="100%" height="30px" preserveAspectRatio="xMaxYMin meet">
         <g id="arrow_out" transform="scale(0.3 0.3)">
          <a xlink:href="classdoris_1_1segment__v2_1_1_segment_writer_a3a784daeb7c5d330a68686ace5754bf2_cgraph_org.svg" target="_base">
           <rect id="button" ry="5" rx="5" y="6" x="6" height="38" width="38"
                fill="#f2f5e9" fill-opacity="0.5" stroke="#606060" stroke-width="1.0"/>
           <path id="arrow"
             d="M 11.500037,31.436501 C 11.940474,20.09759 22.043105,11.32322 32.158766,21.979434 L 37.068811,17.246167 C 37.068811,17.246167 37.088388,32 37.088388,32 L 22.160133,31.978069 C 22.160133,31.978069 26.997745,27.140456 26.997745,27.140456 C 18.528582,18.264221 13.291696,25.230495 11.500037,31.436501 z"
             style="fill:#404040;"/>
          </a>
         </g>
        </svg>
</svg>
