<?xml version="1.0" encoding="UTF-8" standalone="no"?>
<!DOCTYPE svg PUBLIC "-//W3C//DTD SVG 1.1//EN"
 "http://www.w3.org/Graphics/SVG/1.1/DTD/svg11.dtd">
<!-- Generated by graphviz version 7.1.0 (20230121.1956)
 -->
<!-- Title: execute_impl Pages: 1 -->
<svg width="1188pt" height="606pt"
 viewBox="0.00 0.00 1188.00 606.25" xmlns="http://www.w3.org/2000/svg" xmlns:xlink="http://www.w3.org/1999/xlink">
<g id="graph0" class="graph" transform="scale(1 1) rotate(0) translate(4 602.25)">
<title>execute_impl</title>
<!-- Node1 -->
<g id="node1" class="node">
<title>Node1</title>
<g id="a_node1"><a xlink:title="TODO: make const">
<polygon fill="#999999" stroke="#666666" points="74,-425.5 0,-425.5 0,-406.5 74,-406.5 74,-425.5"/>
<text text-anchor="middle" x="37" y="-413.5" font-family="Helvetica,sans-Serif" font-size="10.00">execute_impl</text>
</a>
</g>
</g>
<!-- Node2 -->
<g id="node2" class="node">
<title>Node2</title>
<g id="a_node2"><a xlink:href="../../da/d30/class_c_o_w_helper.html#aa14023f47995d24ce0ea777e90a4cb23" target="_top" xlink:title=" ">
<polygon fill="white" stroke="#666666" points="483,-592 311,-592 311,-562 483,-562 483,-592"/>
<text text-anchor="start" x="319" y="-580" font-family="Helvetica,sans-Serif" font-size="10.00">COWHelper&lt; ColumnVectorHelper,</text>
<text text-anchor="middle" x="397" y="-569" font-family="Helvetica,sans-Serif" font-size="10.00"> ColumnVector&lt; T &gt; &gt;::create</text>
</a>
</g>
</g>
<!-- Node1&#45;&gt;Node2 -->
<g id="edge1" class="edge">
<title>Node1&#45;&gt;Node2</title>
<path fill="none" stroke="#63b8ff" d="M41.26,-425.96C48.3,-450.61 67.78,-511.97 110,-540 165.15,-576.62 239.97,-582.8 299.25,-581.51"/>
<polygon fill="#63b8ff" stroke="#63b8ff" points="299.11,-585.01 309,-581.22 298.9,-578.02 299.11,-585.01"/>
</g>
<!-- Node1&#45;&gt;Node2 -->
<g id="edge2" class="edge">
<title>Node1&#45;&gt;Node2</title>
<path fill="none" stroke="#63b8ff" d="M39.2,-425.64C43.8,-452.83 62.53,-526.48 110,-558 175.15,-601.25 267.74,-602.04 329.74,-594.08"/>
<polygon fill="#63b8ff" stroke="#63b8ff" points="330.04,-597.57 339.45,-592.71 329.06,-590.64 330.04,-597.57"/>
</g>
<!-- Node3 -->
<g id="node3" class="node">
<title>Node3</title>
<g id="a_node3"><a xlink:href="../../d4/d41/classdoris_1_1vectorized_1_1_column_nullable.html#aa56bff67215caba11a6411e09b739913" target="_top" xlink:title=" ">
<polygon fill="white" stroke="#666666" points="252,-474 133,-474 133,-444 252,-444 252,-474"/>
<text text-anchor="start" x="141" y="-462" font-family="Helvetica,sans-Serif" font-size="10.00">doris::vectorized::</text>
<text text-anchor="middle" x="192.5" y="-451" font-family="Helvetica,sans-Serif" font-size="10.00">ColumnNullable::create</text>
</a>
</g>
</g>
<!-- Node1&#45;&gt;Node3 -->
<g id="edge3" class="edge">
<title>Node1&#45;&gt;Node3</title>
<path fill="none" stroke="#63b8ff" d="M73.6,-425.97C89,-430.29 107.54,-435.48 125.32,-440.46"/>
<polygon fill="#63b8ff" stroke="#63b8ff" points="124.21,-443.79 134.79,-443.11 126.1,-437.05 124.21,-443.79"/>
</g>
<!-- Node4 -->
<g id="node4" class="node">
<title>Node4</title>
<g id="a_node4"><a xlink:href="../../d2/d12/classdoris_1_1vectorized_1_1_block.html#a54f8f7eae676dfa49029fff7c7ce8f05" target="_top" xlink:title="References are invalidated after calling functions above.">
<polygon fill="white" stroke="#666666" points="455,-410 339,-410 339,-380 455,-380 455,-410"/>
<text text-anchor="start" x="347" y="-398" font-family="Helvetica,sans-Serif" font-size="10.00">doris::vectorized::</text>
<text text-anchor="middle" x="397" y="-387" font-family="Helvetica,sans-Serif" font-size="10.00">Block::get_by_position</text>
</a>
</g>
</g>
<!-- Node1&#45;&gt;Node4 -->
<g id="edge5" class="edge">
<title>Node1&#45;&gt;Node4</title>
<path fill="none" stroke="#63b8ff" d="M74.3,-413.87C133.56,-410.39 252.04,-403.44 327.5,-399.02"/>
<polygon fill="#63b8ff" stroke="#63b8ff" points="327.48,-402.53 337.25,-398.45 327.07,-395.54 327.48,-402.53"/>
</g>
<!-- Node5 -->
<g id="node5" class="node">
<title>Node5</title>
<g id="a_node5"><a xlink:href="../../d9/d8d/classdoris_1_1_status.html#a6ec1a217f203269ab53d2290d602db24" target="_top" xlink:title=" ">
<polygon fill="white" stroke="#666666" points="238.5,-339.5 146.5,-339.5 146.5,-320.5 238.5,-320.5 238.5,-339.5"/>
<text text-anchor="middle" x="192.5" y="-327.5" font-family="Helvetica,sans-Serif" font-size="10.00">doris::Status::OK</text>
</a>
</g>
</g>
<!-- Node1&#45;&gt;Node5 -->
<g id="edge6" class="edge">
<title>Node1&#45;&gt;Node5</title>
<path fill="none" stroke="#63b8ff" d="M45.69,-406.1C57.75,-391.31 82.57,-363.6 110,-349 117.75,-344.87 126.39,-341.63 135.07,-339.09"/>
<polygon fill="#63b8ff" stroke="#63b8ff" points="135.75,-342.53 144.54,-336.62 133.98,-335.76 135.75,-342.53"/>
</g>
<!-- Node7 -->
<g id="node7" class="node">
<title>Node7</title>
<g id="a_node7"><a xlink:href="../../d3/d1e/namespacedoris_1_1vectorized.html#a174d35d751f410a19f4bfe649d3cc3a4" target="_top" xlink:title=" ">
<polygon fill="white" stroke="#666666" points="240,-540 145,-540 145,-510 240,-510 240,-540"/>
<text text-anchor="start" x="153" y="-528" font-family="Helvetica,sans-Serif" font-size="10.00">doris::vectorized::</text>
<text text-anchor="middle" x="192.5" y="-517" font-family="Helvetica,sans-Serif" font-size="10.00">remove_nullable</text>
</a>
</g>
</g>
<!-- Node1&#45;&gt;Node7 -->
<g id="edge8" class="edge">
<title>Node1&#45;&gt;Node7</title>
<path fill="none" stroke="#63b8ff" d="M43.58,-425.76C54.2,-443.45 79.05,-480.84 110,-501 117.3,-505.75 125.57,-509.59 133.97,-512.68"/>
<polygon fill="#63b8ff" stroke="#63b8ff" points="132.6,-515.91 143.19,-515.74 134.8,-509.27 132.6,-515.91"/>
</g>
<!-- Node10 -->
<g id="node10" class="node">
<title>Node10</title>
<g id="a_node10"><a xlink:href="../../d2/d12/classdoris_1_1vectorized_1_1_block.html#a0f83afb1e34b7b73db116622fa569508" target="_top" xlink:title=" ">
<polygon fill="white" stroke="#666666" points="259.5,-388 125.5,-388 125.5,-358 259.5,-358 259.5,-388"/>
<text text-anchor="start" x="133.5" y="-376" font-family="Helvetica,sans-Serif" font-size="10.00">doris::vectorized::</text>
<text text-anchor="middle" x="192.5" y="-365" font-family="Helvetica,sans-Serif" font-size="10.00">Block::replace_by_position</text>
</a>
</g>
</g>
<!-- Node1&#45;&gt;Node10 -->
<g id="edge12" class="edge">
<title>Node1&#45;&gt;Node10</title>
<path fill="none" stroke="#63b8ff" d="M73.6,-406.03C89,-401.71 107.54,-396.52 125.32,-391.54"/>
<polygon fill="#63b8ff" stroke="#63b8ff" points="126.1,-394.95 134.79,-388.89 124.21,-388.21 126.1,-394.95"/>
</g>
<!-- Node11 -->
<g id="node11" class="node">
<title>Node11</title>
<g id="a_node11"><a xlink:href="../../d4/d48/classdoris_1_1vectorized_1_1_vectorized_utils.html#ac4259bd03926909fe68afe8e1592ebf9" target="_top" xlink:title=" ">
<polygon fill="white" stroke="#666666" points="252,-302.5 133,-302.5 133,-261.5 252,-261.5 252,-302.5"/>
<text text-anchor="start" x="141" y="-290.5" font-family="Helvetica,sans-Serif" font-size="10.00">doris::vectorized::</text>
<text text-anchor="start" x="141" y="-279.5" font-family="Helvetica,sans-Serif" font-size="10.00">VectorizedUtils::update</text>
<text text-anchor="middle" x="192.5" y="-268.5" font-family="Helvetica,sans-Serif" font-size="10.00">_null_map</text>
</a>
</g>
</g>
<!-- Node1&#45;&gt;Node11 -->
<g id="edge14" class="edge">
<title>Node1&#45;&gt;Node11</title>
<path fill="none" stroke="#63b8ff" d="M42.26,-406.2C51.6,-385.8 75.8,-338.49 110,-312 113.93,-308.96 118.2,-306.2 122.65,-303.71"/>
<polygon fill="#63b8ff" stroke="#63b8ff" points="123.94,-306.98 131.29,-299.34 120.78,-300.73 123.94,-306.98"/>
</g>
<!-- Node15 -->
<g id="node15" class="node">
<title>Node15</title>
<g id="a_node15"><a xlink:href="../../d0/d52/structdoris_1_1vectorized_1_1_transformer_to_string_one_argument.html#a04fe3e37490d348be4273b0ba28ceb1f" target="_top" xlink:title=" ">
<polygon fill="white" stroke="#666666" points="275,-243.5 110,-243.5 110,-202.5 275,-202.5 275,-243.5"/>
<text text-anchor="start" x="118" y="-231.5" font-family="Helvetica,sans-Serif" font-size="10.00">doris::vectorized::</text>
<text text-anchor="start" x="118" y="-220.5" font-family="Helvetica,sans-Serif" font-size="10.00">TransformerToStringOneArgument</text>
<text text-anchor="middle" x="192.5" y="-209.5" font-family="Helvetica,sans-Serif" font-size="10.00">::vector</text>
</a>
</g>
</g>
<!-- Node1&#45;&gt;Node15 -->
<g id="edge18" class="edge">
<title>Node1&#45;&gt;Node15</title>
<path fill="none" stroke="#63b8ff" d="M39.62,-406.01C44.7,-377.89 62.86,-297.25 110,-253 110.91,-252.15 111.84,-251.32 112.8,-250.52"/>
<polygon fill="#63b8ff" stroke="#63b8ff" points="114.69,-253.46 120.75,-244.77 110.59,-247.79 114.69,-253.46"/>
</g>
<!-- Node3&#45;&gt;Node3 -->
<g id="edge4" class="edge">
<title>Node3&#45;&gt;Node3</title>
<path fill="none" stroke="#63b8ff" d="M165.17,-474.28C159.09,-483.41 168.2,-492 192.5,-492 205.79,-492 214.53,-489.43 218.74,-485.61"/>
<polygon fill="#63b8ff" stroke="#63b8ff" points="222.21,-486.07 219.69,-475.78 215.24,-485.4 222.21,-486.07"/>
</g>
<!-- Node6 -->
<g id="node6" class="node">
<title>Node6</title>
<g id="a_node6"><a xlink:href="../../d9/d8d/classdoris_1_1_status.html#aafde58df1b2a6a91d5b674373be3ffc5" target="_top" xlink:title=" ">
<polygon fill="white" stroke="#666666" points="450.5,-339.5 343.5,-339.5 343.5,-320.5 450.5,-320.5 450.5,-339.5"/>
<text text-anchor="middle" x="397" y="-327.5" font-family="Helvetica,sans-Serif" font-size="10.00">doris::Status::Status</text>
</a>
</g>
</g>
<!-- Node5&#45;&gt;Node6 -->
<g id="edge7" class="edge">
<title>Node5&#45;&gt;Node6</title>
<path fill="none" stroke="#63b8ff" d="M238.94,-330C266.35,-330 301.68,-330 331.89,-330"/>
<polygon fill="#63b8ff" stroke="#63b8ff" points="331.67,-333.5 341.67,-330 331.67,-326.5 331.67,-333.5"/>
</g>
<!-- Node7&#45;&gt;Node2 -->
<g id="edge9" class="edge">
<title>Node7&#45;&gt;Node2</title>
<path fill="none" stroke="#63b8ff" d="M240.47,-537.06C265.53,-543.5 296.9,-551.55 324.88,-558.74"/>
<polygon fill="#63b8ff" stroke="#63b8ff" points="323.8,-562.07 334.36,-561.17 325.54,-555.29 323.8,-562.07"/>
</g>
<!-- Node8 -->
<g id="node8" class="node">
<title>Node8</title>
<g id="a_node8"><a xlink:href="../../d3/d1e/namespacedoris_1_1vectorized.html#a85dfa9ef8ec5a8555e00a9314d3a7f4d" target="_top" xlink:title="True if column&#39;s an ColumnConst instance. It&#39;s just a syntax sugar for type check.">
<polygon fill="white" stroke="#666666" points="444.5,-542 349.5,-542 349.5,-512 444.5,-512 444.5,-542"/>
<text text-anchor="start" x="357.5" y="-530" font-family="Helvetica,sans-Serif" font-size="10.00">doris::vectorized::</text>
<text text-anchor="middle" x="397" y="-519" font-family="Helvetica,sans-Serif" font-size="10.00">is_column_const</text>
</a>
</g>
</g>
<!-- Node7&#45;&gt;Node8 -->
<g id="edge10" class="edge">
<title>Node7&#45;&gt;Node8</title>
<path fill="none" stroke="#63b8ff" d="M240.47,-525.46C269.47,-525.75 306.92,-526.12 337.81,-526.43"/>
<polygon fill="#63b8ff" stroke="#63b8ff" points="337.74,-529.92 347.77,-526.52 337.81,-522.93 337.74,-529.92"/>
</g>
<!-- Node9 -->
<g id="node9" class="node">
<title>Node9</title>
<g id="a_node9"><a xlink:href="../../d3/d1e/namespacedoris_1_1vectorized.html#a53ba59a5e2f4e69160fec1ee139ff8df" target="_top" xlink:title="True if column&#39;s an ColumnNullable instance. It&#39;s just a syntax sugar for type check.">
<polygon fill="white" stroke="#666666" points="446.5,-494 347.5,-494 347.5,-464 446.5,-464 446.5,-494"/>
<text text-anchor="start" x="355.5" y="-482" font-family="Helvetica,sans-Serif" font-size="10.00">doris::vectorized::</text>
<text text-anchor="middle" x="397" y="-471" font-family="Helvetica,sans-Serif" font-size="10.00">is_column_nullable</text>
</a>
</g>
</g>
<!-- Node7&#45;&gt;Node9 -->
<g id="edge11" class="edge">
<title>Node7&#45;&gt;Node9</title>
<path fill="none" stroke="#63b8ff" d="M240.47,-514.33C268.98,-507.85 305.64,-499.53 336.21,-492.58"/>
<polygon fill="#63b8ff" stroke="#63b8ff" points="336.72,-496.05 345.7,-490.43 335.17,-489.23 336.72,-496.05"/>
</g>
<!-- Node10&#45;&gt;Node4 -->
<g id="edge13" class="edge">
<title>Node10&#45;&gt;Node4</title>
<path fill="none" stroke="#63b8ff" d="M259.81,-380.2C281.51,-382.56 305.66,-385.19 327.53,-387.56"/>
<polygon fill="#63b8ff" stroke="#63b8ff" points="326.9,-391.01 337.22,-388.61 327.66,-384.05 326.9,-391.01"/>
</g>
<!-- Node12 -->
<g id="node12" class="node">
<title>Node12</title>
<g id="a_node12"><a xlink:href="../../df/db2/classdoris_1_1vectorized_1_1_p_o_d_array.html#adc1e16b293a89a9ccc9541058b5ca560" target="_top" xlink:title=" ">
<polygon fill="white" stroke="#666666" points="444.5,-300 349.5,-300 349.5,-270 444.5,-270 444.5,-300"/>
<text text-anchor="start" x="357.5" y="-288" font-family="Helvetica,sans-Serif" font-size="10.00">doris::vectorized::</text>
<text text-anchor="middle" x="397" y="-277" font-family="Helvetica,sans-Serif" font-size="10.00">PODArray::data</text>
</a>
</g>
</g>
<!-- Node11&#45;&gt;Node12 -->
<g id="edge15" class="edge">
<title>Node11&#45;&gt;Node12</title>
<path fill="none" stroke="#63b8ff" d="M252.34,-282.87C279.32,-283.27 311.19,-283.74 338.06,-284.14"/>
<polygon fill="#63b8ff" stroke="#63b8ff" points="337.67,-287.64 347.72,-284.28 337.78,-280.64 337.67,-287.64"/>
</g>
<!-- Node14 -->
<g id="node14" class="node">
<title>Node14</title>
<g id="a_node14"><a xlink:href="../../d5/d9d/classdoris_1_1vectorized_1_1_p_o_d_array_base.html#a259cb5a711406a8c3e5d937eb9350cca" target="_top" xlink:title=" ">
<polygon fill="white" stroke="#666666" points="451,-252 343,-252 343,-222 451,-222 451,-252"/>
<text text-anchor="start" x="351" y="-240" font-family="Helvetica,sans-Serif" font-size="10.00">doris::vectorized::</text>
<text text-anchor="middle" x="397" y="-229" font-family="Helvetica,sans-Serif" font-size="10.00">PODArrayBase::size</text>
</a>
</g>
</g>
<!-- Node11&#45;&gt;Node14 -->
<g id="edge17" class="edge">
<title>Node11&#45;&gt;Node14</title>
<path fill="none" stroke="#63b8ff" d="M252.34,-268.92C277.16,-263.41 306.13,-256.97 331.53,-251.33"/>
<polygon fill="#63b8ff" stroke="#63b8ff" points="332.07,-254.79 341.07,-249.21 330.55,-247.96 332.07,-254.79"/>
</g>
<!-- Node13 -->
<g id="node13" class="node">
<title>Node13</title>
<g id="a_node13"><a xlink:href="../../df/db2/classdoris_1_1vectorized_1_1_p_o_d_array.html#a8e612adde07f46d3398ac6962d676a66" target="_top" xlink:title=" ">
<polygon fill="white" stroke="#666666" points="627.5,-300 532.5,-300 532.5,-270 627.5,-270 627.5,-300"/>
<text text-anchor="start" x="540.5" y="-288" font-family="Helvetica,sans-Serif" font-size="10.00">doris::vectorized::</text>
<text text-anchor="middle" x="580" y="-277" font-family="Helvetica,sans-Serif" font-size="10.00">PODArray::t_start</text>
</a>
</g>
</g>
<!-- Node12&#45;&gt;Node13 -->
<g id="edge16" class="edge">
<title>Node12&#45;&gt;Node13</title>
<path fill="none" stroke="#63b8ff" d="M444.61,-285C467.85,-285 496.18,-285 520.83,-285"/>
<polygon fill="#63b8ff" stroke="#63b8ff" points="520.72,-288.5 530.72,-285 520.72,-281.5 520.72,-288.5"/>
</g>
<!-- Node15&#45;&gt;Node14 -->
<g id="edge36" class="edge">
<title>Node15&#45;&gt;Node14</title>
<path fill="none" stroke="#63b8ff" d="M275.28,-228.65C293.92,-229.94 313.47,-231.29 331.29,-232.53"/>
<polygon fill="#63b8ff" stroke="#63b8ff" points="330.98,-236.01 341.2,-233.21 331.47,-229.03 330.98,-236.01"/>
</g>
<!-- Node16 -->
<g id="node16" class="node">
<title>Node16</title>
<g id="a_node16"><a xlink:href="../../d5/d9d/classdoris_1_1vectorized_1_1_p_o_d_array_base.html#a0c895d2dd381326acf54873d9d3a5aa5" target="_top" xlink:title=" ">
<polygon fill="white" stroke="#666666" points="455,-204 339,-204 339,-174 455,-174 455,-204"/>
<text text-anchor="start" x="347" y="-192" font-family="Helvetica,sans-Serif" font-size="10.00">doris::vectorized::</text>
<text text-anchor="middle" x="397" y="-181" font-family="Helvetica,sans-Serif" font-size="10.00">PODArrayBase::resize</text>
</a>
</g>
</g>
<!-- Node15&#45;&gt;Node16 -->
<g id="edge19" class="edge">
<title>Node15&#45;&gt;Node16</title>
<path fill="none" stroke="#63b8ff" d="M275.28,-209.27C292.75,-206.34 311.02,-203.27 327.91,-200.43"/>
<polygon fill="#63b8ff" stroke="#63b8ff" points="328.01,-203.96 337.29,-198.86 326.85,-197.06 328.01,-203.96"/>
</g>
<!-- Node17 -->
<g id="node17" class="node">
<title>Node17</title>
<g id="a_node17"><a xlink:href="../../d5/d9d/classdoris_1_1vectorized_1_1_p_o_d_array_base.html#aa5a2bd4e24261d8f10f2f4e5d82fccf6" target="_top" xlink:title=" ">
<polygon fill="white" stroke="#666666" points="641,-174 519,-174 519,-144 641,-144 641,-174"/>
<text text-anchor="start" x="527" y="-162" font-family="Helvetica,sans-Serif" font-size="10.00">doris::vectorized::</text>
<text text-anchor="middle" x="580" y="-151" font-family="Helvetica,sans-Serif" font-size="10.00">PODArrayBase::reserve</text>
</a>
</g>
</g>
<!-- Node16&#45;&gt;Node17 -->
<g id="edge20" class="edge">
<title>Node16&#45;&gt;Node17</title>
<path fill="none" stroke="#63b8ff" d="M455.27,-179.51C471.84,-176.76 490.13,-173.73 507.45,-170.86"/>
<polygon fill="#63b8ff" stroke="#63b8ff" points="507.88,-174.34 517.17,-169.25 506.74,-167.43 507.88,-174.34"/>
</g>
<!-- Node28 -->
<g id="node28" class="node">
<title>Node28</title>
<g id="a_node28"><a xlink:href="../../d5/d9d/classdoris_1_1vectorized_1_1_p_o_d_array_base.html#afa97d17a5fedae2da8191c2c52aa6025" target="_top" xlink:title=" ">
<polygon fill="white" stroke="#666666" points="800,-292.5 684,-292.5 684,-251.5 800,-251.5 800,-292.5"/>
<text text-anchor="start" x="692" y="-280.5" font-family="Helvetica,sans-Serif" font-size="10.00">doris::vectorized::</text>
<text text-anchor="start" x="692" y="-269.5" font-family="Helvetica,sans-Serif" font-size="10.00">PODArrayBase::resize</text>
<text text-anchor="middle" x="742" y="-258.5" font-family="Helvetica,sans-Serif" font-size="10.00">_assume_reserved</text>
</a>
</g>
</g>
<!-- Node16&#45;&gt;Node28 -->
<g id="edge32" class="edge">
<title>Node16&#45;&gt;Node28</title>
<path fill="none" stroke="#63b8ff" d="M455.41,-202.89C515.23,-217.37 608.94,-240.04 672.57,-255.44"/>
<polygon fill="#63b8ff" stroke="#63b8ff" points="671.67,-258.83 682.22,-257.78 673.32,-252.02 671.67,-258.83"/>
</g>
<!-- Node18 -->
<g id="node18" class="node">
<title>Node18</title>
<g id="a_node18"><a xlink:href="../../d5/d9d/classdoris_1_1vectorized_1_1_p_o_d_array_base.html#a7223528283cd4e5872e0cc716bf9bd9d" target="_top" xlink:title=" ">
<polygon fill="white" stroke="#666666" points="805.5,-174 678.5,-174 678.5,-144 805.5,-144 805.5,-174"/>
<text text-anchor="start" x="686.5" y="-162" font-family="Helvetica,sans-Serif" font-size="10.00">doris::vectorized::</text>
<text text-anchor="middle" x="742" y="-151" font-family="Helvetica,sans-Serif" font-size="10.00">PODArrayBase::capacity</text>
</a>
</g>
</g>
<!-- Node17&#45;&gt;Node18 -->
<g id="edge21" class="edge">
<title>Node17&#45;&gt;Node18</title>
<path fill="none" stroke="#63b8ff" d="M641.49,-159C649.7,-159 658.21,-159 666.63,-159"/>
<polygon fill="#63b8ff" stroke="#63b8ff" points="666.51,-162.5 676.51,-159 666.51,-155.5 666.51,-162.5"/>
</g>
<!-- Node19 -->
<g id="node19" class="node">
<title>Node19</title>
<g id="a_node19"><a xlink:href="../../d5/d9d/classdoris_1_1vectorized_1_1_p_o_d_array_base.html#aa0ed9240c71cb15ddd75f2ebfae30c69" target="_top" xlink:title="Minimum amount of memory to allocate for num_elements, including padding.">
<polygon fill="white" stroke="#666666" points="807,-233.5 677,-233.5 677,-192.5 807,-192.5 807,-233.5"/>
<text text-anchor="start" x="685" y="-221.5" font-family="Helvetica,sans-Serif" font-size="10.00">doris::vectorized::</text>
<text text-anchor="start" x="685" y="-210.5" font-family="Helvetica,sans-Serif" font-size="10.00">PODArrayBase::minimum</text>
<text text-anchor="middle" x="742" y="-199.5" font-family="Helvetica,sans-Serif" font-size="10.00">_memory_for_elements</text>
</a>
</g>
</g>
<!-- Node17&#45;&gt;Node19 -->
<g id="edge22" class="edge">
<title>Node17&#45;&gt;Node19</title>
<path fill="none" stroke="#63b8ff" d="M626.85,-174.47C639.8,-178.85 654.22,-183.71 668.34,-188.48"/>
<polygon fill="#63b8ff" stroke="#63b8ff" points="667.01,-191.72 677.61,-191.6 669.25,-185.09 667.01,-191.72"/>
</g>
<!-- Node21 -->
<g id="node21" class="node">
<title>Node21</title>
<g id="a_node21"><a xlink:href="../../d5/d9d/classdoris_1_1vectorized_1_1_p_o_d_array_base.html#a9001e08f14a42d556978c322450da2f7" target="_top" xlink:title=" ">
<polygon fill="white" stroke="#666666" points="801.5,-78 682.5,-78 682.5,-48 801.5,-48 801.5,-78"/>
<text text-anchor="start" x="690.5" y="-66" font-family="Helvetica,sans-Serif" font-size="10.00">doris::vectorized::</text>
<text text-anchor="middle" x="742" y="-55" font-family="Helvetica,sans-Serif" font-size="10.00">PODArrayBase::realloc</text>
</a>
</g>
</g>
<!-- Node17&#45;&gt;Node21 -->
<g id="edge24" class="edge">
<title>Node17&#45;&gt;Node21</title>
<path fill="none" stroke="#63b8ff" d="M598.35,-143.56C616.82,-127.74 647.4,-103.21 677,-87 679.46,-85.65 682.01,-84.35 684.61,-83.1"/>
<polygon fill="#63b8ff" stroke="#63b8ff" points="685.77,-86.41 693.46,-79.12 682.9,-80.03 685.77,-86.41"/>
</g>
<!-- Node27 -->
<g id="node27" class="node">
<title>Node27</title>
<g id="a_node27"><a xlink:href="../../dc/da2/bit__helpers_8h.html#ae2948c0075b86f9ca20fc36610b4aca8" target="_top" xlink:title=" ">
<polygon fill="white" stroke="#666666" points="799.5,-126 684.5,-126 684.5,-96 799.5,-96 799.5,-126"/>
<text text-anchor="start" x="692.5" y="-114" font-family="Helvetica,sans-Serif" font-size="10.00">round_up_to_power_of</text>
<text text-anchor="middle" x="742" y="-103" font-family="Helvetica,sans-Serif" font-size="10.00">_two_or_zero</text>
</a>
</g>
</g>
<!-- Node17&#45;&gt;Node27 -->
<g id="edge31" class="edge">
<title>Node17&#45;&gt;Node27</title>
<path fill="none" stroke="#63b8ff" d="M632.51,-143.55C647.21,-139.14 663.39,-134.28 678.66,-129.7"/>
<polygon fill="#63b8ff" stroke="#63b8ff" points="679.57,-133.08 688.14,-126.86 677.56,-126.38 679.57,-133.08"/>
</g>
<!-- Node20 -->
<g id="node20" class="node">
<title>Node20</title>
<g id="a_node20"><a xlink:href="../../d5/d9d/classdoris_1_1vectorized_1_1_p_o_d_array_base.html#a4fd871ea772d3f22957ed8dd6a0aebb6" target="_top" xlink:title="The amount of memory occupied by the num_elements of the elements.">
<polygon fill="white" stroke="#666666" points="988,-231 856,-231 856,-201 988,-201 988,-231"/>
<text text-anchor="start" x="864" y="-219" font-family="Helvetica,sans-Serif" font-size="10.00">doris::vectorized::</text>
<text text-anchor="middle" x="922" y="-208" font-family="Helvetica,sans-Serif" font-size="10.00">PODArrayBase::byte_size</text>
</a>
</g>
</g>
<!-- Node19&#45;&gt;Node20 -->
<g id="edge23" class="edge">
<title>Node19&#45;&gt;Node20</title>
<path fill="none" stroke="#63b8ff" d="M807.26,-214.08C819.31,-214.29 832.01,-214.5 844.39,-214.71"/>
<polygon fill="#63b8ff" stroke="#63b8ff" points="844.06,-218.2 854.12,-214.87 844.18,-211.2 844.06,-218.2"/>
</g>
<!-- Node22 -->
<g id="node22" class="node">
<title>Node22</title>
<g id="a_node22"><a xlink:href="../../d5/d9d/classdoris_1_1vectorized_1_1_p_o_d_array_base.html#a0e716713ea1a6de012c8830d8ef03ca9" target="_top" xlink:title=" ">
<polygon fill="white" stroke="#666666" points="977,-126 867,-126 867,-96 977,-96 977,-126"/>
<text text-anchor="start" x="875" y="-114" font-family="Helvetica,sans-Serif" font-size="10.00">doris::vectorized::</text>
<text text-anchor="middle" x="922" y="-103" font-family="Helvetica,sans-Serif" font-size="10.00">PODArrayBase::alloc</text>
</a>
</g>
</g>
<!-- Node21&#45;&gt;Node22 -->
<g id="edge25" class="edge">
<title>Node21&#45;&gt;Node22</title>
<path fill="none" stroke="#63b8ff" d="M800.3,-78.45C817.89,-83.2 837.38,-88.45 855.48,-93.33"/>
<polygon fill="#63b8ff" stroke="#63b8ff" points="854.51,-96.69 865.07,-95.92 856.33,-89.94 854.51,-96.69"/>
</g>
<!-- Node23 -->
<g id="node23" class="node">
<title>Node23</title>
<g id="a_node23"><a xlink:href="../../d9/dbd/classdoris_1_1_exec_env.html#a920023e1afb35093f05bf7b69cc5e889" target="_top" xlink:title=" ">
<polygon fill="white" stroke="#666666" points="1180,-163.5 1037,-163.5 1037,-144.5 1180,-144.5 1180,-163.5"/>
<text text-anchor="middle" x="1108.5" y="-151.5" font-family="Helvetica,sans-Serif" font-size="10.00">doris::ExecEnv::GetInstance</text>
</a>
</g>
</g>
<!-- Node21&#45;&gt;Node23 -->
<g id="edge28" class="edge">
<title>Node21&#45;&gt;Node23</title>
<path fill="none" stroke="#63b8ff" d="M792.72,-78.35C797.77,-80.86 802.63,-83.73 807,-87 828.34,-102.99 819.59,-122.23 843,-135 899.52,-165.84 973.24,-168.66 1028.48,-164.86"/>
<polygon fill="#63b8ff" stroke="#63b8ff" points="1028.42,-168.38 1038.12,-164.11 1027.88,-161.4 1028.42,-168.38"/>
</g>
<!-- Node24 -->
<g id="node24" class="node">
<title>Node24</title>
<g id="a_node24"><a xlink:href="../../d5/d9d/classdoris_1_1vectorized_1_1_p_o_d_array_base.html#acd47db4f184c2a88c3c8eee3406d13db" target="_top" xlink:title="This method is safe to use only for information about memory usage.">
<polygon fill="white" stroke="#666666" points="1001,-78 843,-78 843,-48 1001,-48 1001,-78"/>
<text text-anchor="start" x="851" y="-66" font-family="Helvetica,sans-Serif" font-size="10.00">doris::vectorized::</text>
<text text-anchor="middle" x="922" y="-55" font-family="Helvetica,sans-Serif" font-size="10.00">PODArrayBase::allocated_bytes</text>
</a>
</g>
</g>
<!-- Node21&#45;&gt;Node24 -->
<g id="edge27" class="edge">
<title>Node21&#45;&gt;Node24</title>
<path fill="none" stroke="#63b8ff" d="M801.78,-63C811.27,-63 821.28,-63 831.3,-63"/>
<polygon fill="#63b8ff" stroke="#63b8ff" points="831.08,-66.5 841.08,-63 831.08,-59.5 831.08,-66.5"/>
</g>
<!-- Node25 -->
<g id="node25" class="node">
<title>Node25</title>
<g id="a_node25"><a xlink:href="../../d5/d9d/classdoris_1_1vectorized_1_1_p_o_d_array_base.html#a41d7b4a7908cc8905970d3d601d8634c" target="_top" xlink:title=" ">
<polygon fill="white" stroke="#666666" points="987.5,-30 856.5,-30 856.5,0 987.5,0 987.5,-30"/>
<text text-anchor="start" x="864.5" y="-18" font-family="Helvetica,sans-Serif" font-size="10.00">doris::vectorized::</text>
<text text-anchor="middle" x="922" y="-7" font-family="Helvetica,sans-Serif" font-size="10.00">PODArrayBase::unprotect</text>
</a>
</g>
</g>
<!-- Node21&#45;&gt;Node25 -->
<g id="edge29" class="edge">
<title>Node21&#45;&gt;Node25</title>
<path fill="none" stroke="#63b8ff" d="M800.3,-47.55C817.13,-43.01 835.71,-38 853.13,-33.3"/>
<polygon fill="#63b8ff" stroke="#63b8ff" points="853.6,-36.8 862.35,-30.82 851.78,-30.04 853.6,-36.8"/>
</g>
<!-- Node22&#45;&gt;Node23 -->
<g id="edge26" class="edge">
<title>Node22&#45;&gt;Node23</title>
<path fill="none" stroke="#63b8ff" d="M977.36,-123.67C1001.4,-129.27 1029.6,-135.84 1053.59,-141.44"/>
<polygon fill="#63b8ff" stroke="#63b8ff" points="1052.63,-144.81 1063.16,-143.67 1054.22,-137.99 1052.63,-144.81"/>
</g>
<!-- Node26 -->
<g id="node26" class="node">
<title>Node26</title>
<g id="a_node26"><a xlink:href="../../d5/d9d/classdoris_1_1vectorized_1_1_p_o_d_array_base.html#aabb38ffefd0c3a618756a9150e27a97a" target="_top" xlink:title=" ">
<polygon fill="white" stroke="#666666" points="1180,-30 1037,-30 1037,0 1180,0 1180,-30"/>
<text text-anchor="start" x="1045" y="-18" font-family="Helvetica,sans-Serif" font-size="10.00">doris::vectorized::</text>
<text text-anchor="middle" x="1108.5" y="-7" font-family="Helvetica,sans-Serif" font-size="10.00">PODArrayBase::protect_impl</text>
</a>
</g>
</g>
<!-- Node25&#45;&gt;Node26 -->
<g id="edge30" class="edge">
<title>Node25&#45;&gt;Node26</title>
<path fill="none" stroke="#63b8ff" d="M987.79,-15C999.87,-15 1012.65,-15 1025.17,-15"/>
<polygon fill="#63b8ff" stroke="#63b8ff" points="1025.07,-18.5 1035.07,-15 1025.07,-11.5 1025.07,-18.5"/>
</g>
<!-- Node28&#45;&gt;Node20 -->
<g id="edge33" class="edge">
<title>Node28&#45;&gt;Node20</title>
<path fill="none" stroke="#63b8ff" d="M800.3,-253.97C819.68,-247.88 841.36,-241.06 860.94,-234.9"/>
<polygon fill="#63b8ff" stroke="#63b8ff" points="861.95,-238.25 870.44,-231.91 859.85,-231.57 861.95,-238.25"/>
</g>
<!-- Node29 -->
<g id="node29" class="node">
<title>Node29</title>
<g id="a_node29"><a xlink:href="../../d5/d9d/classdoris_1_1vectorized_1_1_p_o_d_array_base.html#a20432b443b7527c0e50d859593839d3d" target="_top" xlink:title=" ">
<polygon fill="white" stroke="#666666" points="991,-284 853,-284 853,-254 991,-254 991,-284"/>
<text text-anchor="start" x="861" y="-272" font-family="Helvetica,sans-Serif" font-size="10.00">doris::vectorized::</text>
<text text-anchor="middle" x="922" y="-261" font-family="Helvetica,sans-Serif" font-size="10.00">PODArrayBase::reset_peak</text>
</a>
</g>
</g>
<!-- Node28&#45;&gt;Node29 -->
<g id="edge34" class="edge">
<title>Node28&#45;&gt;Node29</title>
<path fill="none" stroke="#63b8ff" d="M800.3,-271.03C813.32,-270.81 827.38,-270.58 841.15,-270.35"/>
<polygon fill="#63b8ff" stroke="#63b8ff" points="841.17,-273.85 851.1,-270.18 841.05,-266.85 841.17,-273.85"/>
</g>
<!-- Node29&#45;&gt;Node23 -->
<g id="edge35" class="edge">
<title>Node29&#45;&gt;Node23</title>
<path fill="none" stroke="#63b8ff" d="M971.95,-253.57C981.84,-249.69 991.96,-245.15 1001,-240 1035.03,-220.62 1069.37,-190.56 1089.53,-171.6"/>
<polygon fill="#63b8ff" stroke="#63b8ff" points="1091.84,-174.23 1096.64,-164.79 1087,-169.18 1091.84,-174.23"/>
</g>
</g>
</svg>
