<?xml version="1.0" encoding="UTF-8" standalone="no"?>
<!DOCTYPE svg PUBLIC "-//W3C//DTD SVG 1.1//EN"
 "http://www.w3.org/Graphics/SVG/1.1/DTD/svg11.dtd">
<!-- Generated by graphviz version 7.1.0 (20230121.1956)
 -->
<!-- Title: item_type_info Pages: 1 -->
<!--zoomable 194 -->
<svg id="main" version="1.1" xmlns="http://www.w3.org/2000/svg" xmlns:xlink="http://www.w3.org/1999/xlink" xml:space="preserve" onload="init(evt)">
<style type="text/css"><![CDATA[
.edge:hover path { stroke: red; }
.edge:hover polygon { stroke: red; fill: red; }
]]></style>
<script type="text/javascript"><![CDATA[
var edges = document.getElementsByTagName('g');
if (edges && edges.length) {
  for (var i=0;i<edges.length;i++) {
    if (edges[i].id.substr(0,4)=='edge') {
      edges[i].setAttribute('class','edge');
    }
  }
}
]]></script>
        <defs>
                <circle id="rim" cx="0" cy="0" r="7"/>
                <circle id="rim2" cx="0" cy="0" r="3.5"/>
                <g id="zoomPlus">
                        <use xlink:href="#rim" fill="#404040">
                                <set attributeName="fill" to="#808080" begin="zoomplus.mouseover" end="zoomplus.mouseout"/>
                        </use>
                        <path d="M-4,0h8M0,-4v8" fill="none" stroke="white" stroke-width="1.5" pointer-events="none"/>
                </g>
                <g id="zoomMin">
                        <use xlink:href="#rim" fill="#404040">
                                <set attributeName="fill" to="#808080" begin="zoomminus.mouseover" end="zoomminus.mouseout"/>
                        </use>
                        <path d="M-4,0h8" fill="none" stroke="white" stroke-width="1.5" pointer-events="none"/>
                </g>
                <g id="dirArrow">
                        <path fill="none" stroke="white" stroke-width="1.5" d="M0,-3.0v7 M-2.5,-0.5L0,-3.0L2.5,-0.5"/>
                </g>
               <g id="resetDef">
                       <use xlink:href="#rim2" fill="#404040">
                               <set attributeName="fill" to="#808080" begin="reset.mouseover" end="reset.mouseout"/>
                       </use>
               </g>
        </defs>

<script type="text/javascript">
var viewWidth = 667;
var viewHeight = 194;
var sectionId = 'dynsection-8';
</script>
<script xlink:href="../../svgpan.js"/>
<svg id="graph" class="graph">
<g id="viewport">
<title>item_type_info</title>
<!-- Node1 -->
<g id="node1" class="node">
<title>Node1</title>
<g id="a_node1"><a xlink:title=" ">
<polygon fill="#999999" stroke="#666666" points="659,-105.5 579,-105.5 579,-86.5 659,-86.5 659,-105.5"/>
<text text-anchor="middle" x="619" y="-93.5" font-family="Helvetica,sans-Serif" font-size="10.00">item_type_info</text>
</a>
</g>
</g>
<!-- Node2 -->
<g id="node2" class="node">
<title>Node2</title>
<g id="a_node2"><a xlink:href="../../d9/d85/classdoris_1_1segment__v2_1_1_inverted_index_column_writer.html#a0cdb9a9494753a55e25a1b8180172a67" target="_top" xlink:title=" ">
<polygon fill="white" stroke="#666666" points="543,-116.5 408,-116.5 408,-75.5 543,-75.5 543,-116.5"/>
<text text-anchor="start" x="416" y="-104.5" font-family="Helvetica,sans-Serif" font-size="10.00">doris::segment_v2::</text>
<text text-anchor="start" x="416" y="-93.5" font-family="Helvetica,sans-Serif" font-size="10.00">InvertedIndexColumnWriter</text>
<text text-anchor="middle" x="475.5" y="-82.5" font-family="Helvetica,sans-Serif" font-size="10.00">::create</text>
</a>
</g>
</g>
<!-- Node1&#45;&gt;Node2 -->
<g id="edge1" class="edge">
<title>Node1&#45;&gt;Node2</title>
<path fill="none" stroke="#63b8ff" d="M567.17,-96C559.44,-96 551.36,-96 543.35,-96"/>
<polygon fill="#63b8ff" stroke="#63b8ff" points="567.07,-99.5 577.07,-96 567.07,-92.5 567.07,-99.5"/>
</g>
<!-- Node3 -->
<g id="node3" class="node">
<title>Node3</title>
<g id="a_node3"><a xlink:href="../../d0/dc7/classdoris_1_1segment__v2_1_1_scalar_column_writer.html#a0142844ee6c98e6bdd1e728c48f1445e" target="_top" xlink:title=" ">
<polygon fill="white" stroke="#666666" points="351.5,-186 229.5,-186 229.5,-156 351.5,-156 351.5,-186"/>
<text text-anchor="start" x="237.5" y="-174" font-family="Helvetica,sans-Serif" font-size="10.00">doris::segment_v2::</text>
<text text-anchor="middle" x="290.5" y="-163" font-family="Helvetica,sans-Serif" font-size="10.00">ScalarColumnWriter::init</text>
</a>
</g>
</g>
<!-- Node2&#45;&gt;Node3 -->
<g id="edge2" class="edge">
<title>Node2&#45;&gt;Node3</title>
<path fill="none" stroke="#63b8ff" d="M426.12,-122.21C409.28,-130.76 390.07,-139.87 372,-147 364.27,-150.05 355.99,-152.93 347.79,-155.57"/>
<polygon fill="#63b8ff" stroke="#63b8ff" points="427.64,-125.36 434.93,-117.67 424.44,-119.14 427.64,-125.36"/>
</g>
<!-- Node4 -->
<g id="node4" class="node">
<title>Node4</title>
<g id="a_node4"><a xlink:href="../../d8/d16/classdoris_1_1segment__v2_1_1_array_column_writer.html#a0142844ee6c98e6bdd1e728c48f1445e" target="_top" xlink:title=" ">
<polygon fill="white" stroke="#666666" points="349.5,-138 231.5,-138 231.5,-108 349.5,-108 349.5,-138"/>
<text text-anchor="start" x="239.5" y="-126" font-family="Helvetica,sans-Serif" font-size="10.00">doris::segment_v2::</text>
<text text-anchor="middle" x="290.5" y="-115" font-family="Helvetica,sans-Serif" font-size="10.00">ArrayColumnWriter::init</text>
</a>
</g>
</g>
<!-- Node2&#45;&gt;Node4 -->
<g id="edge3" class="edge">
<title>Node2&#45;&gt;Node4</title>
<path fill="none" stroke="#63b8ff" d="M396.38,-107.53C380.73,-109.84 364.54,-112.22 349.71,-114.41"/>
<polygon fill="#63b8ff" stroke="#63b8ff" points="396.78,-111.01 406.16,-106.08 395.75,-104.08 396.78,-111.01"/>
</g>
<!-- Node5 -->
<g id="node5" class="node">
<title>Node5</title>
<g id="a_node5"><a xlink:href="../../dd/d5c/classdoris_1_1segment__v2_1_1_inverted_index_column_writer_impl.html#a0b6b7deadf42c609d922575d0d9691fa" target="_top" xlink:title=" ">
<polygon fill="white" stroke="#666666" points="367.5,-89.5 213.5,-89.5 213.5,-48.5 367.5,-48.5 367.5,-89.5"/>
<text text-anchor="start" x="221.5" y="-77.5" font-family="Helvetica,sans-Serif" font-size="10.00">doris::segment_v2::</text>
<text text-anchor="start" x="221.5" y="-66.5" font-family="Helvetica,sans-Serif" font-size="10.00">InvertedIndexColumnWriterImpl</text>
<text text-anchor="middle" x="290.5" y="-55.5" font-family="Helvetica,sans-Serif" font-size="10.00">::init_fulltext_index</text>
</a>
</g>
</g>
<!-- Node2&#45;&gt;Node5 -->
<g id="edge4" class="edge">
<title>Node2&#45;&gt;Node5</title>
<path fill="none" stroke="#63b8ff" d="M396.57,-84.5C387.03,-83.09 377.28,-81.66 367.77,-80.25"/>
<polygon fill="#63b8ff" stroke="#63b8ff" points="395.75,-87.92 406.16,-85.92 396.78,-80.99 395.75,-87.92"/>
</g>
<!-- Node7 -->
<g id="node7" class="node">
<title>Node7</title>
<g id="a_node7"><a xlink:href="../../d5/d8e/classdoris_1_1_schema_change_for_inverted_index.html#a3da2dd115c5ed49f4a1d58419406f566" target="_top" xlink:title=" ">
<polygon fill="white" stroke="#666666" points="372,-30 209,-30 209,0 372,0 372,-30"/>
<text text-anchor="start" x="217" y="-18" font-family="Helvetica,sans-Serif" font-size="10.00">doris::SchemaChangeForInverted</text>
<text text-anchor="middle" x="290.5" y="-7" font-family="Helvetica,sans-Serif" font-size="10.00">Index::process</text>
</a>
</g>
</g>
<!-- Node2&#45;&gt;Node7 -->
<g id="edge6" class="edge">
<title>Node2&#45;&gt;Node7</title>
<path fill="none" stroke="#63b8ff" d="M430.71,-69.57C412.89,-59.49 391.85,-48.41 372,-40 363.78,-36.52 354.91,-33.28 346.16,-30.36"/>
<polygon fill="#63b8ff" stroke="#63b8ff" points="428.52,-72.35 438.94,-74.3 432.01,-66.28 428.52,-72.35"/>
</g>
<!-- Node6 -->
<g id="node6" class="node">
<title>Node6</title>
<g id="a_node6"><a xlink:href="../../dd/d5c/classdoris_1_1segment__v2_1_1_inverted_index_column_writer_impl.html#a0142844ee6c98e6bdd1e728c48f1445e" target="_top" xlink:title=" ">
<polygon fill="white" stroke="#666666" points="173,-84 0,-84 0,-54 173,-54 173,-84"/>
<text text-anchor="start" x="8" y="-72" font-family="Helvetica,sans-Serif" font-size="10.00">doris::segment_v2::</text>
<text text-anchor="middle" x="86.5" y="-61" font-family="Helvetica,sans-Serif" font-size="10.00">InvertedIndexColumnWriterImpl::init</text>
</a>
</g>
</g>
<!-- Node5&#45;&gt;Node6 -->
<g id="edge5" class="edge">
<title>Node5&#45;&gt;Node6</title>
<path fill="none" stroke="#63b8ff" d="M201.77,-69C192.38,-69 182.82,-69 173.45,-69"/>
<polygon fill="#63b8ff" stroke="#63b8ff" points="201.62,-72.5 211.62,-69 201.62,-65.5 201.62,-72.5"/>
</g>
</g>
</svg>
        <g id="navigator" transform="translate(0 0)" fill="#404254">
                <rect fill="#f2f5e9" fill-opacity="0.5" stroke="#606060" stroke-width=".5" x="0" y="0" width="60" height="60"/>
                <use id="zoomplus" xlink:href="#zoomPlus" x="17" y="9" onmousedown="handleZoom(evt,'in')"/>
                <use id="zoomminus" xlink:href="#zoomMin" x="42" y="9" onmousedown="handleZoom(evt,'out')"/>
                <use id="reset" xlink:href="#resetDef" x="30" y="36" onmousedown="handleReset()"/>
                <g id="arrowUp" xlink:href="#dirArrow" transform="translate(30 24)" onmousedown="handlePan(0,-1)">
                  <use xlink:href="#rim" fill="#404040">
                        <set attributeName="fill" to="#808080" begin="arrowUp.mouseover" end="arrowUp.mouseout"/>
                  </use>
                  <path fill="none" stroke="white" stroke-width="1.5" d="M0,-3.0v7 M-2.5,-0.5L0,-3.0L2.5,-0.5"/>
                </g>
                <g id="arrowRight" xlink:href="#dirArrow" transform="rotate(90) translate(36 -43)" onmousedown="handlePan(1,0)">
                  <use xlink:href="#rim" fill="#404040">
                        <set attributeName="fill" to="#808080" begin="arrowRight.mouseover" end="arrowRight.mouseout"/>
                  </use>
                  <path fill="none" stroke="white" stroke-width="1.5" d="M0,-3.0v7 M-2.5,-0.5L0,-3.0L2.5,-0.5"/>
                </g>
                <g id="arrowDown" xlink:href="#dirArrow" transform="rotate(180) translate(-30 -48)" onmousedown="handlePan(0,1)">
                  <use xlink:href="#rim" fill="#404040">
                        <set attributeName="fill" to="#808080" begin="arrowDown.mouseover" end="arrowDown.mouseout"/>
                  </use>
                  <path fill="none" stroke="white" stroke-width="1.5" d="M0,-3.0v7 M-2.5,-0.5L0,-3.0L2.5,-0.5"/>
                </g>
                <g id="arrowLeft" xlink:href="#dirArrow" transform="rotate(270) translate(-36 17)" onmousedown="handlePan(-1,0)">
                  <use xlink:href="#rim" fill="#404040">
                        <set attributeName="fill" to="#808080" begin="arrowLeft.mouseover" end="arrowLeft.mouseout"/>
                  </use>
                  <path fill="none" stroke="white" stroke-width="1.5" d="M0,-3.0v7 M-2.5,-0.5L0,-3.0L2.5,-0.5"/>
                </g>
        </g>
        <svg viewBox="0 0 15 15" width="100%" height="30px" preserveAspectRatio="xMaxYMin meet">
         <g id="arrow_out" transform="scale(0.3 0.3)">
          <a xlink:href="classdoris_1_1_array_type_info_a8ca16a95cf2be9c268544fb01eba4f26_icgraph_org.svg" target="_base">
           <rect id="button" ry="5" rx="5" y="6" x="6" height="38" width="38"
                fill="#f2f5e9" fill-opacity="0.5" stroke="#606060" stroke-width="1.0"/>
           <path id="arrow"
             d="M 11.500037,31.436501 C 11.940474,20.09759 22.043105,11.32322 32.158766,21.979434 L 37.068811,17.246167 C 37.068811,17.246167 37.088388,32 37.088388,32 L 22.160133,31.978069 C 22.160133,31.978069 26.997745,27.140456 26.997745,27.140456 C 18.528582,18.264221 13.291696,25.230495 11.500037,31.436501 z"
             style="fill:#404040;"/>
          </a>
         </g>
        </svg>
</svg>
