<?xml version="1.0" encoding="UTF-8" standalone="no"?>
<!DOCTYPE svg PUBLIC "-//W3C//DTD SVG 1.1//EN"
 "http://www.w3.org/Graphics/SVG/1.1/DTD/svg11.dtd">
<!-- Generated by graphviz version 7.1.0 (20230121.1956)
 -->
<!-- Title: pop_out_runnable_queue Pages: 1 -->
<svg width="680pt" height="38pt"
 viewBox="0.00 0.00 680.00 38.00" xmlns="http://www.w3.org/2000/svg" xmlns:xlink="http://www.w3.org/1999/xlink">
<g id="graph0" class="graph" transform="scale(1 1) rotate(0) translate(4 34)">
<title>pop_out_runnable_queue</title>
<!-- Node1 -->
<g id="node1" class="node">
<title>Node1</title>
<g id="a_node1"><a xlink:title=" ">
<polygon fill="#999999" stroke="#666666" points="125,-24.5 0,-24.5 0,-5.5 125,-5.5 125,-24.5"/>
<text text-anchor="middle" x="62.5" y="-12.5" font-family="Helvetica,sans-Serif" font-size="10.00">pop_out_runnable_queue</text>
</a>
</g>
</g>
<!-- Node2 -->
<g id="node2" class="node">
<title>Node2</title>
<g id="a_node2"><a xlink:href="../../d7/d16/classdoris_1_1_custom_stop_watch.html#a8c528baf37154d347366083f0f816846" target="_top" xlink:title=" ">
<polygon fill="white" stroke="#666666" points="287,-30 161,-30 161,0 287,0 287,-30"/>
<text text-anchor="start" x="169" y="-18" font-family="Helvetica,sans-Serif" font-size="10.00">doris::CustomStopWatch</text>
<text text-anchor="middle" x="224" y="-7" font-family="Helvetica,sans-Serif" font-size="10.00">::stop</text>
</a>
</g>
</g>
<!-- Node1&#45;&gt;Node2 -->
<g id="edge1" class="edge">
<title>Node1&#45;&gt;Node2</title>
<path fill="none" stroke="#63b8ff" d="M125.17,-15C133.09,-15 141.27,-15 149.36,-15"/>
<polygon fill="#63b8ff" stroke="#63b8ff" points="149.19,-18.5 159.19,-15 149.19,-11.5 149.19,-18.5"/>
</g>
<!-- Node3 -->
<g id="node3" class="node">
<title>Node3</title>
<g id="a_node3"><a xlink:href="../../d7/d16/classdoris_1_1_custom_stop_watch.html#adcda5684f125d03f01912ee2b400fd89" target="_top" xlink:title=" ">
<polygon fill="white" stroke="#666666" points="449,-30 323,-30 323,0 449,0 449,-30"/>
<text text-anchor="start" x="331" y="-18" font-family="Helvetica,sans-Serif" font-size="10.00">doris::CustomStopWatch</text>
<text text-anchor="middle" x="386" y="-7" font-family="Helvetica,sans-Serif" font-size="10.00">::elapsed_time</text>
</a>
</g>
</g>
<!-- Node2&#45;&gt;Node3 -->
<g id="edge2" class="edge">
<title>Node2&#45;&gt;Node3</title>
<path fill="none" stroke="#63b8ff" d="M287.32,-15C295.19,-15 303.3,-15 311.33,-15"/>
<polygon fill="#63b8ff" stroke="#63b8ff" points="311.08,-18.5 321.08,-15 311.07,-11.5 311.08,-18.5"/>
</g>
<!-- Node4 -->
<g id="node4" class="node">
<title>Node4</title>
<g id="a_node4"><a xlink:href="../../dc/dd3/clock__gettime_8c.html#a1033612ad5e07b4883265544a5361377" target="_top" xlink:title=" ">
<polygon fill="white" stroke="#666666" points="562,-24.5 485,-24.5 485,-5.5 562,-5.5 562,-24.5"/>
<text text-anchor="middle" x="523.5" y="-12.5" font-family="Helvetica,sans-Serif" font-size="10.00">clock_gettime</text>
</a>
</g>
</g>
<!-- Node3&#45;&gt;Node4 -->
<g id="edge3" class="edge">
<title>Node3&#45;&gt;Node4</title>
<path fill="none" stroke="#63b8ff" d="M449.2,-15C457.24,-15 465.38,-15 473.17,-15"/>
<polygon fill="#63b8ff" stroke="#63b8ff" points="473.15,-18.5 483.15,-15 473.15,-11.5 473.15,-18.5"/>
</g>
<!-- Node5 -->
<g id="node5" class="node">
<title>Node5</title>
<g id="a_node5"><a xlink:href="../../dc/df5/syscall__ret_8c.html#ac5a9fe7bbf4e56db4c22dbb286f18f45" target="_top" xlink:title=" ">
<polygon fill="white" stroke="#666666" points="672,-24.5 598,-24.5 598,-5.5 672,-5.5 672,-24.5"/>
<text text-anchor="middle" x="635" y="-12.5" font-family="Helvetica,sans-Serif" font-size="10.00">__syscall_ret</text>
</a>
</g>
</g>
<!-- Node4&#45;&gt;Node5 -->
<g id="edge4" class="edge">
<title>Node4&#45;&gt;Node5</title>
<path fill="none" stroke="#63b8ff" d="M562.49,-15C570.13,-15 578.24,-15 586.17,-15"/>
<polygon fill="#63b8ff" stroke="#63b8ff" points="586.04,-18.5 596.04,-15 586.04,-11.5 586.04,-18.5"/>
</g>
</g>
</svg>
