<?xml version="1.0" encoding="UTF-8" standalone="no"?>
<!DOCTYPE svg PUBLIC "-//W3C//DTD SVG 1.1//EN"
 "http://www.w3.org/Graphics/SVG/1.1/DTD/svg11.dtd">
<!-- Generated by graphviz version 7.1.0 (20230121.1956)
 -->
<!-- Title: VDataGenFunctionInf Pages: 1 -->
<svg width="120pt" height="236pt"
 viewBox="0.00 0.00 119.50 236.00" xmlns="http://www.w3.org/2000/svg" xmlns:xlink="http://www.w3.org/1999/xlink">
<g id="graph0" class="graph" transform="scale(1 1) rotate(0) translate(4 232)">
<title>VDataGenFunctionInf</title>
<!-- Node1 -->
<g id="node1" class="node">
<title>Node1</title>
<g id="a_node1"><a xlink:title=" ">
<polygon fill="#999999" stroke="#666666" points="111,-19 0,-19 0,0 111,0 111,-19"/>
<text text-anchor="middle" x="55.5" y="-7" font-family="Helvetica,sans-Serif" font-size="10.00">VDataGenFunctionInf</text>
</a>
</g>
</g>
<!-- Node2 -->
<g id="node2" class="node">
<title>Node2</title>
<g id="a_node2"><a xlink:href="../../d6/d50/classdoris_1_1_tuple_descriptor.html" target="_top" xlink:title=" ">
<polygon fill="white" stroke="#666666" points="98.5,-85 12.5,-85 12.5,-66 98.5,-66 98.5,-85"/>
<text text-anchor="middle" x="55.5" y="-73" font-family="Helvetica,sans-Serif" font-size="10.00">TupleDescriptor</text>
</a>
</g>
</g>
<!-- Node2&#45;&gt;Node1 -->
<g id="edge1" class="edge">
<title>Node2&#45;&gt;Node1</title>
<path fill="none" stroke="#9a32cd" stroke-dasharray="5,2" d="M55.5,-54.18C55.5,-42.44 55.5,-28.27 55.5,-19.32"/>
<polygon fill="#9a32cd" stroke="#9a32cd" points="52,-54.09 55.5,-64.09 59,-54.09 52,-54.09"/>
<text text-anchor="middle" x="83.5" y="-40" font-family="Helvetica,sans-Serif" font-size="10.00"> _tuple_desc</text>
</g>
<!-- Node3 -->
<g id="node3" class="node">
<title>Node3</title>
<g id="a_node3"><a xlink:href="../../db/de8/classdoris_1_1_table_descriptor.html" target="_top" xlink:title=" ">
<polygon fill="white" stroke="#666666" points="98,-151 13,-151 13,-132 98,-132 98,-151"/>
<text text-anchor="middle" x="55.5" y="-139" font-family="Helvetica,sans-Serif" font-size="10.00">TableDescriptor</text>
</a>
</g>
</g>
<!-- Node3&#45;&gt;Node2 -->
<g id="edge2" class="edge">
<title>Node3&#45;&gt;Node2</title>
<path fill="none" stroke="#9a32cd" stroke-dasharray="5,2" d="M55.5,-120.18C55.5,-108.44 55.5,-94.27 55.5,-85.32"/>
<polygon fill="#9a32cd" stroke="#9a32cd" points="52,-120.09 55.5,-130.09 59,-120.09 52,-120.09"/>
<text text-anchor="middle" x="83.5" y="-106" font-family="Helvetica,sans-Serif" font-size="10.00"> _table_desc</text>
</g>
<!-- Node4 -->
<g id="node4" class="node">
<title>Node4</title>
<g id="a_node4"><a xlink:title=" ">
<polygon fill="white" stroke="#666666" points="76,-228 35,-228 35,-209 76,-209 76,-228"/>
<text text-anchor="middle" x="55.5" y="-216" font-family="Helvetica,sans-Serif" font-size="10.00">string</text>
</a>
</g>
</g>
<!-- Node4&#45;&gt;Node3 -->
<g id="edge3" class="edge">
<title>Node4&#45;&gt;Node3</title>
<path fill="none" stroke="#9a32cd" stroke-dasharray="5,2" d="M55.5,-197.42C55.5,-182.43 55.5,-162.66 55.5,-151.39"/>
<polygon fill="#9a32cd" stroke="#9a32cd" points="52,-197.09 55.5,-207.09 59,-197.09 52,-197.09"/>
<text text-anchor="middle" x="80" y="-183" font-family="Helvetica,sans-Serif" font-size="10.00"> _database</text>
<text text-anchor="middle" x="80" y="-172" font-family="Helvetica,sans-Serif" font-size="10.00">_name</text>
</g>
</g>
</svg>
