<?xml version="1.0" encoding="UTF-8" standalone="no"?>
<!DOCTYPE svg PUBLIC "-//W3C//DTD SVG 1.1//EN"
 "http://www.w3.org/Graphics/SVG/1.1/DTD/svg11.dtd">
<!-- Generated by graphviz version 7.1.0 (20230121.1956)
 -->
<!-- Title: /Users/dabowang/doris/be/src/runtime/routine_load/data_consumer_pool.h Pages: 1 -->
<svg width="536pt" height="225pt"
 viewBox="0.00 0.00 536.00 225.00" xmlns="http://www.w3.org/2000/svg" xmlns:xlink="http://www.w3.org/1999/xlink">
<g id="graph0" class="graph" transform="scale(1 1) rotate(0) translate(4 221)">
<title>/Users/dabowang/doris/be/src/runtime/routine_load/data_consumer_pool.h</title>
<!-- Node1 -->
<g id="node1" class="node">
<title>Node1</title>
<g id="a_node1"><a xlink:title=" ">
<polygon fill="#999999" stroke="#666666" points="257,-217 116,-217 116,-176 257,-176 257,-217"/>
<text text-anchor="start" x="124" y="-205" font-family="Helvetica,sans-Serif" font-size="10.00">/Users/dabowang/doris</text>
<text text-anchor="start" x="124" y="-194" font-family="Helvetica,sans-Serif" font-size="10.00">/be/src/runtime/routine</text>
<text text-anchor="middle" x="186.5" y="-183" font-family="Helvetica,sans-Serif" font-size="10.00">_load/data_consumer_pool.h</text>
</a>
</g>
</g>
<!-- Node2 -->
<g id="node2" class="node">
<title>Node2</title>
<g id="a_node2"><a xlink:href="../../dd/d6e/data__consumer__pool_8cpp.html" target="_top" xlink:title=" ">
<polygon fill="white" stroke="#666666" points="185.5,-134.5 33.5,-134.5 33.5,-93.5 185.5,-93.5 185.5,-134.5"/>
<text text-anchor="start" x="41.5" y="-122.5" font-family="Helvetica,sans-Serif" font-size="10.00">/Users/dabowang/doris</text>
<text text-anchor="start" x="41.5" y="-111.5" font-family="Helvetica,sans-Serif" font-size="10.00">/be/src/runtime/routine</text>
<text text-anchor="middle" x="109.5" y="-100.5" font-family="Helvetica,sans-Serif" font-size="10.00">_load/data_consumer_pool.cpp</text>
</a>
</g>
</g>
<!-- Node1&#45;&gt;Node2 -->
<g id="edge1" class="edge">
<title>Node1&#45;&gt;Node2</title>
<path fill="none" stroke="#63b8ff" d="M159.59,-167.36C149.36,-156.67 137.94,-144.73 128.58,-134.95"/>
<polygon fill="#63b8ff" stroke="#63b8ff" points="156.98,-169.7 166.42,-174.51 162.04,-164.86 156.98,-169.7"/>
</g>
<!-- Node3 -->
<g id="node3" class="node">
<title>Node3</title>
<g id="a_node3"><a xlink:href="../../d9/dce/routine__load__task__executor_8h.html" target="_top" xlink:title=" ">
<polygon fill="white" stroke="#666666" points="323,-140 204,-140 204,-88 323,-88 323,-140"/>
<text text-anchor="start" x="212" y="-128" font-family="Helvetica,sans-Serif" font-size="10.00">/Users/dabowang/doris</text>
<text text-anchor="start" x="212" y="-117" font-family="Helvetica,sans-Serif" font-size="10.00">/be/src/runtime/routine</text>
<text text-anchor="start" x="212" y="-106" font-family="Helvetica,sans-Serif" font-size="10.00">_load/routine_load_task</text>
<text text-anchor="middle" x="263.5" y="-95" font-family="Helvetica,sans-Serif" font-size="10.00">_executor.h</text>
</a>
</g>
</g>
<!-- Node1&#45;&gt;Node3 -->
<g id="edge2" class="edge">
<title>Node1&#45;&gt;Node3</title>
<path fill="none" stroke="#63b8ff" d="M213.28,-167.5C221.69,-158.71 230.92,-149.06 239.15,-140.45"/>
<polygon fill="#63b8ff" stroke="#63b8ff" points="210.96,-164.86 206.58,-174.51 216.02,-169.7 210.96,-164.86"/>
</g>
<!-- Node4 -->
<g id="node4" class="node">
<title>Node4</title>
<g id="a_node4"><a xlink:href="../../d8/d0a/exec__env__init_8cpp.html" target="_top" xlink:title=" ">
<polygon fill="white" stroke="#666666" points="117,-46.5 0,-46.5 0,-5.5 117,-5.5 117,-46.5"/>
<text text-anchor="start" x="8" y="-34.5" font-family="Helvetica,sans-Serif" font-size="10.00">/Users/dabowang/doris</text>
<text text-anchor="start" x="8" y="-23.5" font-family="Helvetica,sans-Serif" font-size="10.00">/be/src/runtime/exec</text>
<text text-anchor="middle" x="58.5" y="-12.5" font-family="Helvetica,sans-Serif" font-size="10.00">_env_init.cpp</text>
</a>
</g>
</g>
<!-- Node3&#45;&gt;Node4 -->
<g id="edge3" class="edge">
<title>Node3&#45;&gt;Node4</title>
<path fill="none" stroke="#63b8ff" d="M193.25,-83.53C164.48,-71.46 131.94,-57.81 106.05,-46.95"/>
<polygon fill="#63b8ff" stroke="#63b8ff" points="191.68,-86.67 202.26,-87.31 194.39,-80.21 191.68,-86.67"/>
</g>
<!-- Node5 -->
<g id="node5" class="node">
<title>Node5</title>
<g id="a_node5"><a xlink:href="../../da/df0/routine__load__task__executor_8cpp.html" target="_top" xlink:title=" ">
<polygon fill="white" stroke="#666666" points="254,-52 135,-52 135,0 254,0 254,-52"/>
<text text-anchor="start" x="143" y="-40" font-family="Helvetica,sans-Serif" font-size="10.00">/Users/dabowang/doris</text>
<text text-anchor="start" x="143" y="-29" font-family="Helvetica,sans-Serif" font-size="10.00">/be/src/runtime/routine</text>
<text text-anchor="start" x="143" y="-18" font-family="Helvetica,sans-Serif" font-size="10.00">_load/routine_load_task</text>
<text text-anchor="middle" x="194.5" y="-7" font-family="Helvetica,sans-Serif" font-size="10.00">_executor.cpp</text>
</a>
</g>
</g>
<!-- Node3&#45;&gt;Node5 -->
<g id="edge4" class="edge">
<title>Node3&#45;&gt;Node5</title>
<path fill="none" stroke="#63b8ff" d="M236.03,-78.76C228.99,-69.99 221.54,-60.7 214.92,-52.45"/>
<polygon fill="#63b8ff" stroke="#63b8ff" points="233.24,-80.87 242.22,-86.48 238.7,-76.49 233.24,-80.87"/>
</g>
<!-- Node6 -->
<g id="node6" class="node">
<title>Node6</title>
<g id="a_node6"><a xlink:href="../../d4/d42/backend__service_8cpp.html" target="_top" xlink:title=" ">
<polygon fill="white" stroke="#666666" points="393,-46.5 272,-46.5 272,-5.5 393,-5.5 393,-46.5"/>
<text text-anchor="start" x="280" y="-34.5" font-family="Helvetica,sans-Serif" font-size="10.00">/Users/dabowang/doris</text>
<text text-anchor="start" x="280" y="-23.5" font-family="Helvetica,sans-Serif" font-size="10.00">/be/src/service/backend</text>
<text text-anchor="middle" x="332.5" y="-12.5" font-family="Helvetica,sans-Serif" font-size="10.00">_service.cpp</text>
</a>
</g>
</g>
<!-- Node3&#45;&gt;Node6 -->
<g id="edge5" class="edge">
<title>Node3&#45;&gt;Node6</title>
<path fill="none" stroke="#63b8ff" d="M290.91,-78.83C299.58,-68.03 308.87,-56.45 316.47,-46.98"/>
<polygon fill="#63b8ff" stroke="#63b8ff" points="288.3,-76.49 284.78,-86.48 293.76,-80.87 288.3,-76.49"/>
</g>
<!-- Node7 -->
<g id="node7" class="node">
<title>Node7</title>
<g id="a_node7"><a xlink:href="../../d3/deb/internal__service_8cpp.html" target="_top" xlink:title=" ">
<polygon fill="white" stroke="#666666" points="528,-46.5 411,-46.5 411,-5.5 528,-5.5 528,-46.5"/>
<text text-anchor="start" x="419" y="-34.5" font-family="Helvetica,sans-Serif" font-size="10.00">/Users/dabowang/doris</text>
<text text-anchor="start" x="419" y="-23.5" font-family="Helvetica,sans-Serif" font-size="10.00">/be/src/service/internal</text>
<text text-anchor="middle" x="469.5" y="-12.5" font-family="Helvetica,sans-Serif" font-size="10.00">_service.cpp</text>
</a>
</g>
</g>
<!-- Node3&#45;&gt;Node7 -->
<g id="edge6" class="edge">
<title>Node3&#45;&gt;Node7</title>
<path fill="none" stroke="#63b8ff" d="M333.82,-83.64C362.75,-71.57 395.51,-57.89 421.59,-47"/>
<polygon fill="#63b8ff" stroke="#63b8ff" points="332.64,-80.34 324.76,-87.43 335.33,-86.8 332.64,-80.34"/>
</g>
</g>
</svg>
