<?xml version="1.0" encoding="UTF-8" standalone="no"?>
<!DOCTYPE svg PUBLIC "-//W3C//DTD SVG 1.1//EN"
 "http://www.w3.org/Graphics/SVG/1.1/DTD/svg11.dtd">
<!-- Generated by graphviz version 7.1.0 (20230121.1956)
 -->
<!-- Title: evaluate_and Pages: 1 -->
<svg width="795pt" height="174pt"
 viewBox="0.00 0.00 795.00 173.50" xmlns="http://www.w3.org/2000/svg" xmlns:xlink="http://www.w3.org/1999/xlink">
<g id="graph0" class="graph" transform="scale(1 1) rotate(0) translate(4 169.5)">
<title>evaluate_and</title>
<!-- Node1 -->
<g id="node1" class="node">
<title>Node1</title>
<g id="a_node1"><a xlink:title=" ">
<polygon fill="#999999" stroke="#666666" points="787,-67.5 713,-67.5 713,-48.5 787,-48.5 787,-67.5"/>
<text text-anchor="middle" x="750" y="-55.5" font-family="Helvetica,sans-Serif" font-size="10.00">evaluate_and</text>
</a>
</g>
</g>
<!-- Node2 -->
<g id="node2" class="node">
<title>Node2</title>
<g id="a_node2"><a xlink:href="../../d3/d99/classdoris_1_1segment__v2_1_1_column_reader.html#a9a9a98c6e90744d1472a2101c83c270a" target="_top" xlink:title=" ">
<polygon fill="white" stroke="#666666" points="674.5,-111.5 557.5,-111.5 557.5,-70.5 674.5,-70.5 674.5,-111.5"/>
<text text-anchor="start" x="565.5" y="-99.5" font-family="Helvetica,sans-Serif" font-size="10.00">doris::segment_v2::</text>
<text text-anchor="start" x="565.5" y="-88.5" font-family="Helvetica,sans-Serif" font-size="10.00">ColumnReader::_zone</text>
<text text-anchor="middle" x="616" y="-77.5" font-family="Helvetica,sans-Serif" font-size="10.00">_map_match_condition</text>
</a>
</g>
</g>
<!-- Node1&#45;&gt;Node2 -->
<g id="edge1" class="edge">
<title>Node1&#45;&gt;Node2</title>
<path fill="none" stroke="#63b8ff" d="M701.53,-69.87C692.88,-72.03 683.77,-74.31 674.86,-76.54"/>
<polygon fill="#63b8ff" stroke="#63b8ff" points="702.26,-73.29 711.11,-67.47 700.56,-66.5 702.26,-73.29"/>
</g>
<!-- Node7 -->
<g id="node7" class="node">
<title>Node7</title>
<g id="a_node7"><a xlink:href="../../d3/d99/classdoris_1_1segment__v2_1_1_column_reader.html#ae540577aa7df4ce063265637f431d788" target="_top" xlink:title=" ">
<polygon fill="white" stroke="#666666" points="677,-49.5 555,-49.5 555,-8.5 677,-8.5 677,-49.5"/>
<text text-anchor="start" x="563" y="-37.5" font-family="Helvetica,sans-Serif" font-size="10.00">doris::segment_v2::</text>
<text text-anchor="start" x="563" y="-26.5" font-family="Helvetica,sans-Serif" font-size="10.00">ColumnReader::get_row</text>
<text text-anchor="middle" x="616" y="-15.5" font-family="Helvetica,sans-Serif" font-size="10.00">_ranges_by_bloom_filter</text>
</a>
</g>
</g>
<!-- Node1&#45;&gt;Node7 -->
<g id="edge6" class="edge">
<title>Node1&#45;&gt;Node7</title>
<path fill="none" stroke="#63b8ff" d="M701.46,-47.55C693.64,-45.84 685.45,-44.04 677.37,-42.26"/>
<polygon fill="#63b8ff" stroke="#63b8ff" points="700.58,-50.95 711.1,-49.67 702.09,-44.11 700.58,-50.95"/>
</g>
<!-- Node3 -->
<g id="node3" class="node">
<title>Node3</title>
<g id="a_node3"><a xlink:href="../../d3/d99/classdoris_1_1segment__v2_1_1_column_reader.html#aa28b6a4816a1c94faa83c5c6fa3e7179" target="_top" xlink:title=" ">
<polygon fill="white" stroke="#666666" points="519,-160 346,-160 346,-130 519,-130 519,-160"/>
<text text-anchor="start" x="354" y="-148" font-family="Helvetica,sans-Serif" font-size="10.00">doris::segment_v2::</text>
<text text-anchor="middle" x="432.5" y="-137" font-family="Helvetica,sans-Serif" font-size="10.00">ColumnReader::_get_filtered_pages</text>
</a>
</g>
</g>
<!-- Node2&#45;&gt;Node3 -->
<g id="edge2" class="edge">
<title>Node2&#45;&gt;Node3</title>
<path fill="none" stroke="#63b8ff" d="M546.42,-111.8C537.21,-114.57 527.88,-117.36 519,-120 508.47,-123.13 497.21,-126.44 486.43,-129.6"/>
<polygon fill="#63b8ff" stroke="#63b8ff" points="547.14,-115.24 555.7,-109 545.12,-108.53 547.14,-115.24"/>
</g>
<!-- Node6 -->
<g id="node6" class="node">
<title>Node6</title>
<g id="a_node6"><a xlink:href="../../d3/d99/classdoris_1_1segment__v2_1_1_column_reader.html#a60c4ab567bb211f822488b8233478c5c" target="_top" xlink:title=" ">
<polygon fill="white" stroke="#666666" points="490,-111.5 375,-111.5 375,-70.5 490,-70.5 490,-111.5"/>
<text text-anchor="start" x="383" y="-99.5" font-family="Helvetica,sans-Serif" font-size="10.00">doris::segment_v2::</text>
<text text-anchor="start" x="383" y="-88.5" font-family="Helvetica,sans-Serif" font-size="10.00">ColumnReader::match</text>
<text text-anchor="middle" x="432.5" y="-77.5" font-family="Helvetica,sans-Serif" font-size="10.00">_condition</text>
</a>
</g>
</g>
<!-- Node2&#45;&gt;Node6 -->
<g id="edge5" class="edge">
<title>Node2&#45;&gt;Node6</title>
<path fill="none" stroke="#63b8ff" d="M545.57,-91C527.29,-91 507.79,-91 490.26,-91"/>
<polygon fill="#63b8ff" stroke="#63b8ff" points="545.56,-94.5 555.56,-91 545.56,-87.5 545.56,-94.5"/>
</g>
<!-- Node4 -->
<g id="node4" class="node">
<title>Node4</title>
<g id="a_node4"><a xlink:href="../../d3/d99/classdoris_1_1segment__v2_1_1_column_reader.html#a24fc23a930a69913b5ca8b1d0e4ddecd" target="_top" xlink:title=" ">
<polygon fill="white" stroke="#666666" points="310,-165.5 188,-165.5 188,-124.5 310,-124.5 310,-165.5"/>
<text text-anchor="start" x="196" y="-153.5" font-family="Helvetica,sans-Serif" font-size="10.00">doris::segment_v2::</text>
<text text-anchor="start" x="196" y="-142.5" font-family="Helvetica,sans-Serif" font-size="10.00">ColumnReader::get_row</text>
<text text-anchor="middle" x="249" y="-131.5" font-family="Helvetica,sans-Serif" font-size="10.00">_ranges_by_zone_map</text>
</a>
</g>
</g>
<!-- Node3&#45;&gt;Node4 -->
<g id="edge3" class="edge">
<title>Node3&#45;&gt;Node4</title>
<path fill="none" stroke="#63b8ff" d="M334.08,-145C325.99,-145 317.98,-145 310.29,-145"/>
<polygon fill="#63b8ff" stroke="#63b8ff" points="334.02,-148.5 344.02,-145 334.02,-141.5 334.02,-148.5"/>
</g>
<!-- Node5 -->
<g id="node5" class="node">
<title>Node5</title>
<g id="a_node5"><a xlink:href="../../df/df3/classdoris_1_1segment__v2_1_1_file_column_iterator.html#a8cb95d1eec97c95c65ca73c35be817ac" target="_top" xlink:title=" ">
<polygon fill="white" stroke="#666666" points="152,-165.5 0,-165.5 0,-124.5 152,-124.5 152,-165.5"/>
<text text-anchor="start" x="8" y="-153.5" font-family="Helvetica,sans-Serif" font-size="10.00">doris::segment_v2::</text>
<text text-anchor="start" x="8" y="-142.5" font-family="Helvetica,sans-Serif" font-size="10.00">FileColumnIterator::</text>
<text text-anchor="middle" x="76" y="-131.5" font-family="Helvetica,sans-Serif" font-size="10.00">get_row_ranges_by_zone_map</text>
</a>
</g>
</g>
<!-- Node4&#45;&gt;Node5 -->
<g id="edge4" class="edge">
<title>Node4&#45;&gt;Node5</title>
<path fill="none" stroke="#63b8ff" d="M176.27,-145C168.35,-145 160.28,-145 152.32,-145"/>
<polygon fill="#63b8ff" stroke="#63b8ff" points="176.2,-148.5 186.2,-145 176.2,-141.5 176.2,-148.5"/>
</g>
<!-- Node8 -->
<g id="node8" class="node">
<title>Node8</title>
<g id="a_node8"><a xlink:href="../../df/df3/classdoris_1_1segment__v2_1_1_file_column_iterator.html#ae87d41d1473507031232db91c676aa3e" target="_top" xlink:title=" ">
<polygon fill="white" stroke="#666666" points="499,-52 366,-52 366,0 499,0 499,-52"/>
<text text-anchor="start" x="374" y="-40" font-family="Helvetica,sans-Serif" font-size="10.00">doris::segment_v2::</text>
<text text-anchor="start" x="374" y="-29" font-family="Helvetica,sans-Serif" font-size="10.00">FileColumnIterator::</text>
<text text-anchor="start" x="374" y="-18" font-family="Helvetica,sans-Serif" font-size="10.00">get_row_ranges_by_bloom</text>
<text text-anchor="middle" x="432.5" y="-7" font-family="Helvetica,sans-Serif" font-size="10.00">_filter</text>
</a>
</g>
</g>
<!-- Node7&#45;&gt;Node8 -->
<g id="edge7" class="edge">
<title>Node7&#45;&gt;Node8</title>
<path fill="none" stroke="#63b8ff" d="M543.14,-27.81C528.67,-27.57 513.54,-27.32 499.29,-27.09"/>
<polygon fill="#63b8ff" stroke="#63b8ff" points="542.99,-31.31 553.05,-27.98 543.11,-24.31 542.99,-31.31"/>
</g>
</g>
</svg>
