<?xml version="1.0" encoding="UTF-8" standalone="no"?>
<!DOCTYPE svg PUBLIC "-//W3C//DTD SVG 1.1//EN"
 "http://www.w3.org/Graphics/SVG/1.1/DTD/svg11.dtd">
<!-- Generated by graphviz version 7.1.0 (20230121.1956)
 -->
<!-- Title: /Users/dabowang/be_all/gutil/cpu.cc Pages: 1 -->
<svg width="542pt" height="148pt"
 viewBox="0.00 0.00 541.50 148.00" xmlns="http://www.w3.org/2000/svg" xmlns:xlink="http://www.w3.org/1999/xlink">
<g id="graph0" class="graph" transform="scale(1 1) rotate(0) translate(4 144)">
<title>/Users/dabowang/be_all/gutil/cpu.cc</title>
<!-- Node1 -->
<g id="node1" class="node">
<title>Node1</title>
<g id="a_node1"><a xlink:title=" ">
<polygon fill="#999999" stroke="#666666" points="307,-140 200,-140 200,-110 307,-110 307,-140"/>
<text text-anchor="start" x="208" y="-128" font-family="Helvetica,sans-Serif" font-size="10.00">/Users/dabowang/be</text>
<text text-anchor="middle" x="253.5" y="-117" font-family="Helvetica,sans-Serif" font-size="10.00">_all/gutil/cpu.cc</text>
</a>
</g>
</g>
<!-- Node2 -->
<g id="node2" class="node">
<title>Node2</title>
<g id="a_node2"><a xlink:href="../../dc/da7/cpu_8h.html" target="_top" xlink:title=" ">
<polygon fill="white" stroke="#666666" points="109.5,-74 47.5,-74 47.5,-55 109.5,-55 109.5,-74"/>
<text text-anchor="middle" x="78.5" y="-62" font-family="Helvetica,sans-Serif" font-size="10.00">gutil/cpu.h</text>
</a>
</g>
</g>
<!-- Node1&#45;&gt;Node2 -->
<g id="edge1" class="edge">
<title>Node1&#45;&gt;Node2</title>
<path fill="none" stroke="#63b8ff" d="M210.24,-109.54C181.33,-99.87 143.67,-87.29 116.03,-78.04"/>
<polygon fill="#63b8ff" stroke="#63b8ff" points="117.25,-74.76 106.66,-74.91 115.03,-81.4 117.25,-74.76"/>
</g>
<!-- Node3 -->
<g id="node3" class="node">
<title>Node3</title>
<g id="a_node3"><a xlink:title=" ">
<polygon fill="#e0e0e0" stroke="#999999" points="41,-19 0,-19 0,0 41,0 41,-19"/>
<text text-anchor="middle" x="20.5" y="-7" font-family="Helvetica,sans-Serif" font-size="10.00">string</text>
</a>
</g>
</g>
<!-- Node1&#45;&gt;Node3 -->
<g id="edge10" class="edge">
<title>Node1&#45;&gt;Node3</title>
<path fill="none" stroke="#63b8ff" d="M199.73,-117.77C143.83,-110.24 61.35,-95.78 38.5,-74 26.82,-62.86 22.54,-44.75 21.06,-30.72"/>
<polygon fill="#63b8ff" stroke="#63b8ff" points="24.56,-30.57 20.44,-20.8 17.57,-31 24.56,-30.57"/>
</g>
<!-- Node5 -->
<g id="node5" class="node">
<title>Node5</title>
<g id="a_node5"><a xlink:title=" ">
<polygon fill="#e0e0e0" stroke="#999999" points="175.5,-74 127.5,-74 127.5,-55 175.5,-55 175.5,-74"/>
<text text-anchor="middle" x="151.5" y="-62" font-family="Helvetica,sans-Serif" font-size="10.00">stdlib.h</text>
</a>
</g>
</g>
<!-- Node1&#45;&gt;Node5 -->
<g id="edge4" class="edge">
<title>Node1&#45;&gt;Node5</title>
<path fill="none" stroke="#63b8ff" d="M228.29,-109.54C212.51,-100.49 192.27,-88.88 176.53,-79.85"/>
<polygon fill="#63b8ff" stroke="#63b8ff" points="178.65,-77.04 168.24,-75.1 175.17,-83.11 178.65,-77.04"/>
</g>
<!-- Node6 -->
<g id="node6" class="node">
<title>Node6</title>
<g id="a_node6"><a xlink:title=" ">
<polygon fill="#e0e0e0" stroke="#999999" points="243,-74 194,-74 194,-55 243,-55 243,-74"/>
<text text-anchor="middle" x="218.5" y="-62" font-family="Helvetica,sans-Serif" font-size="10.00">string.h</text>
</a>
</g>
</g>
<!-- Node1&#45;&gt;Node6 -->
<g id="edge5" class="edge">
<title>Node1&#45;&gt;Node6</title>
<path fill="none" stroke="#63b8ff" d="M244.85,-109.54C240.23,-101.82 234.5,-92.24 229.56,-83.99"/>
<polygon fill="#63b8ff" stroke="#63b8ff" points="232.61,-82.26 224.47,-75.47 226.6,-85.85 232.61,-82.26"/>
</g>
<!-- Node7 -->
<g id="node7" class="node">
<title>Node7</title>
<g id="a_node7"><a xlink:title=" ">
<polygon fill="#e0e0e0" stroke="#999999" points="317.5,-74 261.5,-74 261.5,-55 317.5,-55 317.5,-74"/>
<text text-anchor="middle" x="289.5" y="-62" font-family="Helvetica,sans-Serif" font-size="10.00">algorithm</text>
</a>
</g>
</g>
<!-- Node1&#45;&gt;Node7 -->
<g id="edge6" class="edge">
<title>Node1&#45;&gt;Node7</title>
<path fill="none" stroke="#63b8ff" d="M262.4,-109.54C267.2,-101.74 273.18,-92.03 278.29,-83.71"/>
<polygon fill="#63b8ff" stroke="#63b8ff" points="281.11,-85.82 283.37,-75.46 275.15,-82.15 281.11,-85.82"/>
</g>
<!-- Node8 -->
<g id="node8" class="node">
<title>Node8</title>
<g id="a_node8"><a xlink:title=" ">
<polygon fill="#e0e0e0" stroke="#999999" points="385.5,-74 335.5,-74 335.5,-55 385.5,-55 385.5,-74"/>
<text text-anchor="middle" x="360.5" y="-62" font-family="Helvetica,sans-Serif" font-size="10.00">fstream</text>
</a>
</g>
</g>
<!-- Node1&#45;&gt;Node8 -->
<g id="edge7" class="edge">
<title>Node1&#45;&gt;Node8</title>
<path fill="none" stroke="#63b8ff" d="M279.95,-109.54C296.5,-100.49 317.74,-88.88 334.25,-79.85"/>
<polygon fill="#63b8ff" stroke="#63b8ff" points="335.9,-82.94 342.99,-75.07 332.54,-76.8 335.9,-82.94"/>
</g>
<!-- Node9 -->
<g id="node9" class="node">
<title>Node9</title>
<g id="a_node9"><a xlink:title=" ">
<polygon fill="#e0e0e0" stroke="#999999" points="455.5,-74 403.5,-74 403.5,-55 455.5,-55 455.5,-74"/>
<text text-anchor="middle" x="429.5" y="-62" font-family="Helvetica,sans-Serif" font-size="10.00">sstream</text>
</a>
</g>
</g>
<!-- Node1&#45;&gt;Node9 -->
<g id="edge8" class="edge">
<title>Node1&#45;&gt;Node9</title>
<path fill="none" stroke="#63b8ff" d="M297.01,-109.54C326.26,-99.82 364.42,-87.13 392.27,-77.87"/>
<polygon fill="#63b8ff" stroke="#63b8ff" points="393.32,-81.21 401.71,-74.74 391.11,-74.57 393.32,-81.21"/>
</g>
<!-- Node10 -->
<g id="node10" class="node">
<title>Node10</title>
<g id="a_node10"><a xlink:title=" ">
<polygon fill="#e0e0e0" stroke="#999999" points="533.5,-74 473.5,-74 473.5,-55 533.5,-55 533.5,-74"/>
<text text-anchor="middle" x="503.5" y="-62" font-family="Helvetica,sans-Serif" font-size="10.00">streambuf</text>
</a>
</g>
</g>
<!-- Node1&#45;&gt;Node10 -->
<g id="edge9" class="edge">
<title>Node1&#45;&gt;Node10</title>
<path fill="none" stroke="#63b8ff" d="M307.44,-111.38C353.85,-100.52 419.84,-85.08 462.17,-75.17"/>
<polygon fill="#63b8ff" stroke="#63b8ff" points="462.77,-78.63 471.71,-72.94 461.17,-71.81 462.77,-78.63"/>
</g>
<!-- Node2&#45;&gt;Node3 -->
<g id="edge2" class="edge">
<title>Node2&#45;&gt;Node3</title>
<path fill="none" stroke="#63b8ff" d="M68.66,-54.51C60.45,-47 48.52,-36.1 38.59,-27.03"/>
<polygon fill="#63b8ff" stroke="#63b8ff" points="41.05,-24.54 31.31,-20.38 36.33,-29.71 41.05,-24.54"/>
</g>
<!-- Node4 -->
<g id="node4" class="node">
<title>Node4</title>
<g id="a_node4"><a xlink:title=" ">
<polygon fill="#e0e0e0" stroke="#999999" points="97.5,-19 59.5,-19 59.5,0 97.5,0 97.5,-19"/>
<text text-anchor="middle" x="78.5" y="-7" font-family="Helvetica,sans-Serif" font-size="10.00">tuple</text>
</a>
</g>
</g>
<!-- Node2&#45;&gt;Node4 -->
<g id="edge3" class="edge">
<title>Node2&#45;&gt;Node4</title>
<path fill="none" stroke="#63b8ff" d="M78.5,-54.75C78.5,-48.27 78.5,-39.16 78.5,-30.9"/>
<polygon fill="#63b8ff" stroke="#63b8ff" points="82,-30.96 78.5,-20.96 75,-30.96 82,-30.96"/>
</g>
</g>
</svg>
