<?xml version="1.0" encoding="UTF-8" standalone="no"?>
<!DOCTYPE svg PUBLIC "-//W3C//DTD SVG 1.1//EN"
 "http://www.w3.org/Graphics/SVG/1.1/DTD/svg11.dtd">
<!-- Generated by graphviz version 7.1.0 (20230121.1956)
 -->
<!-- Title: row_size Pages: 1 -->
<svg width="204pt" height="76pt"
 viewBox="0.00 0.00 204.00 75.50" xmlns="http://www.w3.org/2000/svg" xmlns:xlink="http://www.w3.org/1999/xlink">
<g id="graph0" class="graph" transform="scale(1 1) rotate(0) translate(4 71.5)">
<title>row_size</title>
<!-- Node1 -->
<g id="node1" class="node">
<title>Node1</title>
<g id="a_node1"><a xlink:title=" ">
<polygon fill="#999999" stroke="#666666" points="56,-45.5 0,-45.5 0,-26.5 56,-26.5 56,-45.5"/>
<text text-anchor="middle" x="28" y="-33.5" font-family="Helvetica,sans-Serif" font-size="10.00">row_size</text>
</a>
</g>
</g>
<!-- Node2 -->
<g id="node2" class="node">
<title>Node2</title>
<g id="a_node2"><a xlink:href="../../d7/daf/classdoris_1_1_tablet_schema.html#a8daecfa95e6b8c67b15fb5c6264a3af3" target="_top" xlink:title=" ">
<polygon fill="white" stroke="#666666" points="168,-67.5 120,-67.5 120,-48.5 168,-48.5 168,-67.5"/>
<text text-anchor="middle" x="144" y="-55.5" font-family="Helvetica,sans-Serif" font-size="10.00">column</text>
</a>
</g>
</g>
<!-- Node1&#45;&gt;Node2 -->
<g id="edge1" class="edge">
<title>Node1&#45;&gt;Node2</title>
<path fill="none" stroke="#63b8ff" d="M56.31,-41.27C72.04,-44.31 91.96,-48.15 108.74,-51.39"/>
<polygon fill="#63b8ff" stroke="#63b8ff" points="107.8,-54.77 118.28,-53.23 109.12,-47.9 107.8,-54.77"/>
</g>
<!-- Node3 -->
<g id="node3" class="node">
<title>Node3</title>
<g id="a_node3"><a xlink:href="../../d8/d28/classdoris_1_1_tablet_column.html#a71beef478599935add531a7866ad9908" target="_top" xlink:title=" ">
<polygon fill="white" stroke="#666666" points="196,-30 92,-30 92,0 196,0 196,-30"/>
<text text-anchor="start" x="100" y="-18" font-family="Helvetica,sans-Serif" font-size="10.00">doris::TabletColumn</text>
<text text-anchor="middle" x="144" y="-7" font-family="Helvetica,sans-Serif" font-size="10.00">::length</text>
</a>
</g>
</g>
<!-- Node1&#45;&gt;Node3 -->
<g id="edge2" class="edge">
<title>Node1&#45;&gt;Node3</title>
<path fill="none" stroke="#63b8ff" d="M56.31,-30.97C63.73,-29.6 72.08,-28.06 80.59,-26.5"/>
<polygon fill="#63b8ff" stroke="#63b8ff" points="81.12,-29.96 90.32,-24.7 79.85,-23.07 81.12,-29.96"/>
</g>
</g>
</svg>
