<?xml version="1.0" encoding="UTF-8" standalone="no"?>
<!DOCTYPE svg PUBLIC "-//W3C//DTD SVG 1.1//EN"
 "http://www.w3.org/Graphics/SVG/1.1/DTD/svg11.dtd">
<!-- Generated by graphviz version 7.1.0 (20230121.1956)
 -->
<!-- Title: to_schema_pb Pages: 1 -->
<!--zoomable 95 -->
<svg id="main" version="1.1" xmlns="http://www.w3.org/2000/svg" xmlns:xlink="http://www.w3.org/1999/xlink" xml:space="preserve" onload="init(evt)">
<style type="text/css"><![CDATA[
.edge:hover path { stroke: red; }
.edge:hover polygon { stroke: red; fill: red; }
]]></style>
<script type="text/javascript"><![CDATA[
var edges = document.getElementsByTagName('g');
if (edges && edges.length) {
  for (var i=0;i<edges.length;i++) {
    if (edges[i].id.substr(0,4)=='edge') {
      edges[i].setAttribute('class','edge');
    }
  }
}
]]></script>
        <defs>
                <circle id="rim" cx="0" cy="0" r="7"/>
                <circle id="rim2" cx="0" cy="0" r="3.5"/>
                <g id="zoomPlus">
                        <use xlink:href="#rim" fill="#404040">
                                <set attributeName="fill" to="#808080" begin="zoomplus.mouseover" end="zoomplus.mouseout"/>
                        </use>
                        <path d="M-4,0h8M0,-4v8" fill="none" stroke="white" stroke-width="1.5" pointer-events="none"/>
                </g>
                <g id="zoomMin">
                        <use xlink:href="#rim" fill="#404040">
                                <set attributeName="fill" to="#808080" begin="zoomminus.mouseover" end="zoomminus.mouseout"/>
                        </use>
                        <path d="M-4,0h8" fill="none" stroke="white" stroke-width="1.5" pointer-events="none"/>
                </g>
                <g id="dirArrow">
                        <path fill="none" stroke="white" stroke-width="1.5" d="M0,-3.0v7 M-2.5,-0.5L0,-3.0L2.5,-0.5"/>
                </g>
               <g id="resetDef">
                       <use xlink:href="#rim2" fill="#404040">
                               <set attributeName="fill" to="#808080" begin="reset.mouseover" end="reset.mouseout"/>
                       </use>
               </g>
        </defs>

<script type="text/javascript">
var viewWidth = 1025;
var viewHeight = 95;
var sectionId = 'dynsection-3';
</script>
<script xlink:href="../../svgpan.js"/>
<svg id="graph" class="graph">
<g id="viewport">
<title>to_schema_pb</title>
<!-- Node1 -->
<g id="node1" class="node">
<title>Node1</title>
<g id="a_node1"><a xlink:title=" ">
<polygon fill="#999999" stroke="#666666" points="1017,-37 937,-37 937,-18 1017,-18 1017,-37"/>
<text text-anchor="middle" x="977" y="-25" font-family="Helvetica,sans-Serif" font-size="10.00">to_schema_pb</text>
</a>
</g>
</g>
<!-- Node2 -->
<g id="node2" class="node">
<title>Node2</title>
<g id="a_node2"><a xlink:href="../../d7/daf/classdoris_1_1_tablet_schema.html#adc4b75ee050562a0c6a22774357b8c81" target="_top" xlink:title=" ">
<polygon fill="white" stroke="#666666" points="901,-56 839,-56 839,-37 901,-37 901,-56"/>
<text text-anchor="middle" x="870" y="-44" font-family="Helvetica,sans-Serif" font-size="10.00">copy_from</text>
</a>
</g>
</g>
<!-- Node1&#45;&gt;Node2 -->
<g id="edge1" class="edge">
<title>Node1&#45;&gt;Node2</title>
<path fill="none" stroke="#63b8ff" d="M925.5,-36.64C917.27,-38.13 908.98,-39.63 901.43,-40.99"/>
<polygon fill="#63b8ff" stroke="#63b8ff" points="925.9,-40.12 935.11,-34.9 924.65,-33.24 925.9,-40.12"/>
</g>
<!-- Node9 -->
<g id="node9" class="node">
<title>Node9</title>
<g id="a_node9"><a xlink:href="../../d7/daf/classdoris_1_1_tablet_schema.html#aadebbf12658060a4a3b79732e358d62e" target="_top" xlink:title=" ">
<polygon fill="white" stroke="#666666" points="893,-19 847,-19 847,0 893,0 893,-19"/>
<text text-anchor="middle" x="870" y="-7" font-family="Helvetica,sans-Serif" font-size="10.00">to_key</text>
</a>
</g>
</g>
<!-- Node1&#45;&gt;Node9 -->
<g id="edge9" class="edge">
<title>Node1&#45;&gt;Node9</title>
<path fill="none" stroke="#63b8ff" d="M925.41,-18.83C914.1,-16.89 902.67,-14.93 893.23,-13.31"/>
<polygon fill="#63b8ff" stroke="#63b8ff" points="924.66,-22.25 935.11,-20.49 925.85,-15.35 924.66,-22.25"/>
</g>
<!-- Node3 -->
<g id="node3" class="node">
<title>Node3</title>
<g id="a_node3"><a xlink:href="../../df/d30/classdoris_1_1_push_handler.html#a56e6bc53f2e0cfa8bd66962339269f87" target="_top" xlink:title=" ">
<polygon fill="white" stroke="#666666" points="803,-61.5 672,-61.5 672,-31.5 803,-31.5 803,-61.5"/>
<text text-anchor="start" x="680" y="-49.5" font-family="Helvetica,sans-Serif" font-size="10.00">doris::PushHandler</text>
<text text-anchor="middle" x="737.5" y="-38.5" font-family="Helvetica,sans-Serif" font-size="10.00">::_do_streaming_ingestion</text>
</a>
</g>
</g>
<!-- Node2&#45;&gt;Node3 -->
<g id="edge2" class="edge">
<title>Node2&#45;&gt;Node3</title>
<path fill="none" stroke="#63b8ff" d="M827.23,-46.5C819.61,-46.5 811.5,-46.5 803.39,-46.5"/>
<polygon fill="#63b8ff" stroke="#63b8ff" points="827.22,-50 837.22,-46.5 827.22,-43 827.22,-50"/>
</g>
<!-- Node4 -->
<g id="node4" class="node">
<title>Node4</title>
<g id="a_node4"><a xlink:href="../../df/d30/classdoris_1_1_push_handler.html#a093f783d0e0f3a1fc43ab02a1b2e5a4f" target="_top" xlink:title=" ">
<polygon fill="white" stroke="#666666" points="636,-67 531,-67 531,-26 636,-26 636,-67"/>
<text text-anchor="start" x="539" y="-55" font-family="Helvetica,sans-Serif" font-size="10.00">doris::PushHandler</text>
<text text-anchor="start" x="539" y="-44" font-family="Helvetica,sans-Serif" font-size="10.00">::process_streaming</text>
<text text-anchor="middle" x="583.5" y="-33" font-family="Helvetica,sans-Serif" font-size="10.00">_ingestion</text>
</a>
</g>
</g>
<!-- Node3&#45;&gt;Node4 -->
<g id="edge3" class="edge">
<title>Node3&#45;&gt;Node4</title>
<path fill="none" stroke="#63b8ff" d="M660.2,-46.5C652.12,-46.5 644.04,-46.5 636.33,-46.5"/>
<polygon fill="#63b8ff" stroke="#63b8ff" points="660.08,-50 670.08,-46.5 660.08,-43 660.08,-50"/>
</g>
<!-- Node5 -->
<g id="node5" class="node">
<title>Node5</title>
<g id="a_node5"><a xlink:href="../../d0/d6e/classdoris_1_1_engine_batch_load_task.html#a01c3c5b08cfdc4b77dcc8fa126eae1ae" target="_top" xlink:title=" ">
<polygon fill="white" stroke="#666666" points="318,-86.5 177,-86.5 177,-56.5 318,-56.5 318,-86.5"/>
<text text-anchor="start" x="185" y="-74.5" font-family="Helvetica,sans-Serif" font-size="10.00">doris::EngineBatchLoadTask</text>
<text text-anchor="middle" x="247.5" y="-63.5" font-family="Helvetica,sans-Serif" font-size="10.00">::_delete_data</text>
</a>
</g>
</g>
<!-- Node4&#45;&gt;Node5 -->
<g id="edge4" class="edge">
<title>Node4&#45;&gt;Node5</title>
<path fill="none" stroke="#63b8ff" d="M519.24,-51.23C461.97,-55.52 377.74,-61.83 318.47,-66.26"/>
<polygon fill="#63b8ff" stroke="#63b8ff" points="519.46,-54.73 529.17,-50.49 518.94,-47.75 519.46,-54.73"/>
</g>
<!-- Node7 -->
<g id="node7" class="node">
<title>Node7</title>
<g id="a_node7"><a xlink:href="../../d0/d6e/classdoris_1_1_engine_batch_load_task.html#accc233a9466a0352a29f0f584c8a8750" target="_top" xlink:title=" ">
<polygon fill="white" stroke="#666666" points="495,-40.5 354,-40.5 354,-10.5 495,-10.5 495,-40.5"/>
<text text-anchor="start" x="362" y="-28.5" font-family="Helvetica,sans-Serif" font-size="10.00">doris::EngineBatchLoadTask</text>
<text text-anchor="middle" x="424.5" y="-17.5" font-family="Helvetica,sans-Serif" font-size="10.00">::_push</text>
</a>
</g>
</g>
<!-- Node4&#45;&gt;Node7 -->
<g id="edge6" class="edge">
<title>Node4&#45;&gt;Node7</title>
<path fill="none" stroke="#63b8ff" d="M519.35,-38.05C511.5,-37 503.44,-35.93 495.5,-34.86"/>
<polygon fill="#63b8ff" stroke="#63b8ff" points="518.78,-41.51 529.16,-39.36 519.71,-34.57 518.78,-41.51"/>
</g>
<!-- Node6 -->
<g id="node6" class="node">
<title>Node6</title>
<g id="a_node6"><a xlink:href="../../d0/d6e/classdoris_1_1_engine_batch_load_task.html#a288fb86e2f2bfd41128d4766a01cebad" target="_top" xlink:title=" ">
<polygon fill="white" stroke="#666666" points="141,-62.5 0,-62.5 0,-32.5 141,-32.5 141,-62.5"/>
<text text-anchor="start" x="8" y="-50.5" font-family="Helvetica,sans-Serif" font-size="10.00">doris::EngineBatchLoadTask</text>
<text text-anchor="middle" x="70.5" y="-39.5" font-family="Helvetica,sans-Serif" font-size="10.00">::execute</text>
</a>
</g>
</g>
<!-- Node5&#45;&gt;Node6 -->
<g id="edge5" class="edge">
<title>Node5&#45;&gt;Node6</title>
<path fill="none" stroke="#63b8ff" d="M165.32,-60.37C157.29,-59.27 149.2,-58.16 141.31,-57.07"/>
<polygon fill="#63b8ff" stroke="#63b8ff" points="164.7,-63.81 175.08,-61.71 165.65,-56.88 164.7,-63.81"/>
</g>
<!-- Node8 -->
<g id="node8" class="node">
<title>Node8</title>
<g id="a_node8"><a xlink:href="../../d0/d6e/classdoris_1_1_engine_batch_load_task.html#a5963ed6b82b6adf653c253cfa6f81c21" target="_top" xlink:title=" ">
<polygon fill="white" stroke="#666666" points="318,-38.5 177,-38.5 177,-8.5 318,-8.5 318,-38.5"/>
<text text-anchor="start" x="185" y="-26.5" font-family="Helvetica,sans-Serif" font-size="10.00">doris::EngineBatchLoadTask</text>
<text text-anchor="middle" x="247.5" y="-15.5" font-family="Helvetica,sans-Serif" font-size="10.00">::_process</text>
</a>
</g>
</g>
<!-- Node7&#45;&gt;Node8 -->
<g id="edge7" class="edge">
<title>Node7&#45;&gt;Node8</title>
<path fill="none" stroke="#63b8ff" d="M342.32,-24.57C334.29,-24.48 326.2,-24.39 318.31,-24.3"/>
<polygon fill="#63b8ff" stroke="#63b8ff" points="342.03,-28.07 352.07,-24.68 342.11,-21.07 342.03,-28.07"/>
</g>
<!-- Node8&#45;&gt;Node6 -->
<g id="edge8" class="edge">
<title>Node8&#45;&gt;Node6</title>
<path fill="none" stroke="#63b8ff" d="M165.32,-34.63C157.29,-35.73 149.2,-36.84 141.31,-37.93"/>
<polygon fill="#63b8ff" stroke="#63b8ff" points="165.65,-38.12 175.08,-33.29 164.7,-31.19 165.65,-38.12"/>
</g>
</g>
</svg>
        <g id="navigator" transform="translate(0 0)" fill="#404254">
                <rect fill="#f2f5e9" fill-opacity="0.5" stroke="#606060" stroke-width=".5" x="0" y="0" width="60" height="60"/>
                <use id="zoomplus" xlink:href="#zoomPlus" x="17" y="9" onmousedown="handleZoom(evt,'in')"/>
                <use id="zoomminus" xlink:href="#zoomMin" x="42" y="9" onmousedown="handleZoom(evt,'out')"/>
                <use id="reset" xlink:href="#resetDef" x="30" y="36" onmousedown="handleReset()"/>
                <g id="arrowUp" xlink:href="#dirArrow" transform="translate(30 24)" onmousedown="handlePan(0,-1)">
                  <use xlink:href="#rim" fill="#404040">
                        <set attributeName="fill" to="#808080" begin="arrowUp.mouseover" end="arrowUp.mouseout"/>
                  </use>
                  <path fill="none" stroke="white" stroke-width="1.5" d="M0,-3.0v7 M-2.5,-0.5L0,-3.0L2.5,-0.5"/>
                </g>
                <g id="arrowRight" xlink:href="#dirArrow" transform="rotate(90) translate(36 -43)" onmousedown="handlePan(1,0)">
                  <use xlink:href="#rim" fill="#404040">
                        <set attributeName="fill" to="#808080" begin="arrowRight.mouseover" end="arrowRight.mouseout"/>
                  </use>
                  <path fill="none" stroke="white" stroke-width="1.5" d="M0,-3.0v7 M-2.5,-0.5L0,-3.0L2.5,-0.5"/>
                </g>
                <g id="arrowDown" xlink:href="#dirArrow" transform="rotate(180) translate(-30 -48)" onmousedown="handlePan(0,1)">
                  <use xlink:href="#rim" fill="#404040">
                        <set attributeName="fill" to="#808080" begin="arrowDown.mouseover" end="arrowDown.mouseout"/>
                  </use>
                  <path fill="none" stroke="white" stroke-width="1.5" d="M0,-3.0v7 M-2.5,-0.5L0,-3.0L2.5,-0.5"/>
                </g>
                <g id="arrowLeft" xlink:href="#dirArrow" transform="rotate(270) translate(-36 17)" onmousedown="handlePan(-1,0)">
                  <use xlink:href="#rim" fill="#404040">
                        <set attributeName="fill" to="#808080" begin="arrowLeft.mouseover" end="arrowLeft.mouseout"/>
                  </use>
                  <path fill="none" stroke="white" stroke-width="1.5" d="M0,-3.0v7 M-2.5,-0.5L0,-3.0L2.5,-0.5"/>
                </g>
        </g>
        <svg viewBox="0 0 15 15" width="100%" height="30px" preserveAspectRatio="xMaxYMin meet">
         <g id="arrow_out" transform="scale(0.3 0.3)">
          <a xlink:href="classdoris_1_1_tablet_schema_ade39c620400698a0f2827e4b7a965df2_icgraph_org.svg" target="_base">
           <rect id="button" ry="5" rx="5" y="6" x="6" height="38" width="38"
                fill="#f2f5e9" fill-opacity="0.5" stroke="#606060" stroke-width="1.0"/>
           <path id="arrow"
             d="M 11.500037,31.436501 C 11.940474,20.09759 22.043105,11.32322 32.158766,21.979434 L 37.068811,17.246167 C 37.068811,17.246167 37.088388,32 37.088388,32 L 22.160133,31.978069 C 22.160133,31.978069 26.997745,27.140456 26.997745,27.140456 C 18.528582,18.264221 13.291696,25.230495 11.500037,31.436501 z"
             style="fill:#404040;"/>
          </a>
         </g>
        </svg>
</svg>
