<?xml version="1.0" encoding="UTF-8" standalone="no"?>
<!DOCTYPE svg PUBLIC "-//W3C//DTD SVG 1.1//EN"
 "http://www.w3.org/Graphics/SVG/1.1/DTD/svg11.dtd">
<!-- Generated by graphviz version 7.1.0 (20230121.1956)
 -->
<!-- Title: materialize_child_block Pages: 1 -->
<svg width="653pt" height="513pt"
 viewBox="0.00 0.00 653.00 513.00" xmlns="http://www.w3.org/2000/svg" xmlns:xlink="http://www.w3.org/1999/xlink">
<g id="graph0" class="graph" transform="scale(1 1) rotate(0) translate(4 509)">
<title>materialize_child_block</title>
<!-- Node1 -->
<g id="node1" class="node">
<title>Node1</title>
<g id="a_node1"><a xlink:title=" ">
<polygon fill="#999999" stroke="#666666" points="118,-290 0,-290 0,-271 118,-271 118,-290"/>
<text text-anchor="middle" x="59" y="-278" font-family="Helvetica,sans-Serif" font-size="10.00">materialize_child_block</text>
</a>
</g>
</g>
<!-- Node2 -->
<g id="node2" class="node">
<title>Node2</title>
<g id="a_node2"><a xlink:href="../../d2/dfe/classdoris_1_1vectorized_1_1_mutable_block.html#abdc2d45beb620e7a284ee22bbaf21115" target="_top" xlink:title=" ">
<polygon fill="white" stroke="#666666" points="283,-505 181,-505 181,-464 283,-464 283,-505"/>
<text text-anchor="start" x="189" y="-493" font-family="Helvetica,sans-Serif" font-size="10.00">doris::vectorized::</text>
<text text-anchor="start" x="189" y="-482" font-family="Helvetica,sans-Serif" font-size="10.00">MutableBlock::build</text>
<text text-anchor="middle" x="232" y="-471" font-family="Helvetica,sans-Serif" font-size="10.00">_mutable_block</text>
</a>
</g>
</g>
<!-- Node1&#45;&gt;Node2 -->
<g id="edge1" class="edge">
<title>Node1&#45;&gt;Node2</title>
<path fill="none" stroke="#63b8ff" d="M62.62,-290.38C70.89,-319.77 99.25,-407.57 154,-455.5 158.96,-459.84 164.63,-463.56 170.59,-466.74"/>
<polygon fill="#63b8ff" stroke="#63b8ff" points="168.94,-469.82 179.47,-470.94 171.93,-463.5 168.94,-469.82"/>
</g>
<!-- Node4 -->
<g id="node4" class="node">
<title>Node4</title>
<g id="a_node4"><a xlink:href="../../d4/d48/classdoris_1_1vectorized_1_1_vectorized_utils.html#a722858fbb20af5a3f3792db90a705609" target="_top" xlink:title=" ">
<polygon fill="white" stroke="#666666" points="310,-446 154,-446 154,-405 310,-405 310,-446"/>
<text text-anchor="start" x="162" y="-434" font-family="Helvetica,sans-Serif" font-size="10.00">doris::vectorized::</text>
<text text-anchor="start" x="162" y="-423" font-family="Helvetica,sans-Serif" font-size="10.00">VectorizedUtils::create</text>
<text text-anchor="middle" x="232" y="-412" font-family="Helvetica,sans-Serif" font-size="10.00">_columns_with_type_and_name</text>
</a>
</g>
</g>
<!-- Node1&#45;&gt;Node4 -->
<g id="edge3" class="edge">
<title>Node1&#45;&gt;Node4</title>
<path fill="none" stroke="#63b8ff" d="M65.49,-290.37C78.23,-312.43 111.96,-366.17 154,-396.5 155.01,-397.23 156.05,-397.95 157.1,-398.65"/>
<polygon fill="#63b8ff" stroke="#63b8ff" points="155.3,-401.65 165.69,-403.75 158.88,-395.63 155.3,-401.65"/>
</g>
<!-- Node6 -->
<g id="node6" class="node">
<title>Node6</title>
<g id="a_node6"><a xlink:href="../../d5/d4d/classdoris_1_1vectorized_1_1_v_union_node.html#a0064d16c6f60bf7a382967bc95715e04" target="_top" xlink:title="Returns true if the child at &#39;child_idx&#39; can be passed through.">
<polygon fill="white" stroke="#666666" points="286,-387 178,-387 178,-368 286,-368 286,-387"/>
<text text-anchor="middle" x="232" y="-375" font-family="Helvetica,sans-Serif" font-size="10.00">is_child_passthrough</text>
</a>
</g>
</g>
<!-- Node1&#45;&gt;Node6 -->
<g id="edge5" class="edge">
<title>Node1&#45;&gt;Node6</title>
<path fill="none" stroke="#63b8ff" d="M68.79,-290.46C84.27,-307.36 118.17,-341.55 154,-359.5 158.14,-361.57 162.53,-363.42 167.03,-365.05"/>
<polygon fill="#63b8ff" stroke="#63b8ff" points="165.63,-368.27 176.22,-368.02 167.78,-361.61 165.63,-368.27"/>
</g>
<!-- Node7 -->
<g id="node7" class="node">
<title>Node7</title>
<g id="a_node7"><a xlink:href="../../d5/d4d/classdoris_1_1vectorized_1_1_v_union_node.html#aa7b8cbf942e858dc6d63b14cdba6bfb1" target="_top" xlink:title=" ">
<polygon fill="white" stroke="#666666" points="278,-350 186,-350 186,-331 278,-331 278,-350"/>
<text text-anchor="middle" x="232" y="-338" font-family="Helvetica,sans-Serif" font-size="10.00">materialize_block</text>
</a>
</g>
</g>
<!-- Node1&#45;&gt;Node7 -->
<g id="edge6" class="edge">
<title>Node1&#45;&gt;Node7</title>
<path fill="none" stroke="#63b8ff" d="M84.58,-290.41C103.46,-297.89 130.23,-308.25 154,-316.5 164.51,-320.14 175.9,-323.84 186.63,-327.2"/>
<polygon fill="#63b8ff" stroke="#63b8ff" points="185.46,-330.5 196.05,-330.12 187.53,-323.81 185.46,-330.5"/>
</g>
<!-- Node9 -->
<g id="node9" class="node">
<title>Node9</title>
<g id="a_node9"><a xlink:href="../../d2/d12/classdoris_1_1vectorized_1_1_block.html#a9be86262d8ec3739dba5e0910c2339ad" target="_top" xlink:title="Returns number of rows from first column in block, not equal to nullptr. If no columns,...">
<polygon fill="white" stroke="#666666" points="464,-350.5 369,-350.5 369,-320.5 464,-320.5 464,-350.5"/>
<text text-anchor="start" x="377" y="-338.5" font-family="Helvetica,sans-Serif" font-size="10.00">doris::vectorized::</text>
<text text-anchor="middle" x="416.5" y="-327.5" font-family="Helvetica,sans-Serif" font-size="10.00">Block::rows</text>
</a>
</g>
</g>
<!-- Node1&#45;&gt;Node9 -->
<g id="edge25" class="edge">
<title>Node1&#45;&gt;Node9</title>
<path fill="none" stroke="#63b8ff" d="M118.31,-289.52C184.41,-299.75 291.53,-316.32 357.51,-326.53"/>
<polygon fill="#63b8ff" stroke="#63b8ff" points="356.62,-329.93 367.03,-328 357.69,-323.01 356.62,-329.93"/>
</g>
<!-- Node10 -->
<g id="node10" class="node">
<title>Node10</title>
<g id="a_node10"><a xlink:href="../../d2/d12/classdoris_1_1vectorized_1_1_block.html#ad6aa07b95a35c43b05efc1fe5832a7db" target="_top" xlink:title=" ">
<polygon fill="white" stroke="#666666" points="281,-274.5 183,-274.5 183,-244.5 281,-244.5 281,-274.5"/>
<text text-anchor="start" x="191" y="-262.5" font-family="Helvetica,sans-Serif" font-size="10.00">doris::vectorized::</text>
<text text-anchor="middle" x="232" y="-251.5" font-family="Helvetica,sans-Serif" font-size="10.00">Block::mem_reuse</text>
</a>
</g>
</g>
<!-- Node1&#45;&gt;Node10 -->
<g id="edge9" class="edge">
<title>Node1&#45;&gt;Node10</title>
<path fill="none" stroke="#63b8ff" d="M118.37,-273.33C135.51,-271.23 154.28,-268.92 171.49,-266.81"/>
<polygon fill="#63b8ff" stroke="#63b8ff" points="171.55,-270.33 181.05,-265.63 170.69,-263.38 171.55,-270.33"/>
</g>
<!-- Node11 -->
<g id="node11" class="node">
<title>Node11</title>
<g id="a_node11"><a xlink:href="../../d2/dfe/classdoris_1_1vectorized_1_1_mutable_block.html#aa834c6de5d853333110f8332db159344" target="_top" xlink:title=" ">
<polygon fill="white" stroke="#666666" points="286.5,-226.5 177.5,-226.5 177.5,-196.5 286.5,-196.5 286.5,-226.5"/>
<text text-anchor="start" x="185.5" y="-214.5" font-family="Helvetica,sans-Serif" font-size="10.00">doris::vectorized::</text>
<text text-anchor="middle" x="232" y="-203.5" font-family="Helvetica,sans-Serif" font-size="10.00">MutableBlock::merge</text>
</a>
</g>
</g>
<!-- Node1&#45;&gt;Node11 -->
<g id="edge10" class="edge">
<title>Node1&#45;&gt;Node11</title>
<path fill="none" stroke="#63b8ff" d="M78.73,-270.54C97.45,-260.83 127.22,-246.02 154,-235.5 158.33,-233.8 162.82,-232.14 167.38,-230.53"/>
<polygon fill="#63b8ff" stroke="#63b8ff" points="168.28,-233.92 176.61,-227.39 166.02,-227.3 168.28,-233.92"/>
</g>
<!-- Node20 -->
<g id="node20" class="node">
<title>Node20</title>
<g id="a_node20"><a xlink:href="../../d9/d8d/classdoris_1_1_status.html#a6ec1a217f203269ab53d2290d602db24" target="_top" xlink:title=" ">
<polygon fill="white" stroke="#666666" points="462.5,-91 370.5,-91 370.5,-72 462.5,-72 462.5,-91"/>
<text text-anchor="middle" x="416.5" y="-79" font-family="Helvetica,sans-Serif" font-size="10.00">doris::Status::OK</text>
</a>
</g>
</g>
<!-- Node1&#45;&gt;Node20 -->
<g id="edge24" class="edge">
<title>Node1&#45;&gt;Node20</title>
<path fill="none" stroke="#63b8ff" d="M67.03,-270.6C81.19,-251.43 115.12,-209.22 154,-187.5 216.3,-152.69 250.63,-189.09 310,-149.5 332.48,-134.51 323.73,-115.8 346,-100.5 350.17,-97.63 354.76,-95.2 359.53,-93.13"/>
<polygon fill="#63b8ff" stroke="#63b8ff" points="360.61,-96.46 368.76,-89.69 358.17,-89.9 360.61,-96.46"/>
</g>
<!-- Node22 -->
<g id="node22" class="node">
<title>Node22</title>
<g id="a_node22"><a xlink:href="../../d2/d12/classdoris_1_1vectorized_1_1_block.html#a7c22bac5327618d6ac842348fe2a3780" target="_top" xlink:title=" ">
<polygon fill="white" stroke="#666666" points="279.5,-140.5 184.5,-140.5 184.5,-110.5 279.5,-110.5 279.5,-140.5"/>
<text text-anchor="start" x="192.5" y="-128.5" font-family="Helvetica,sans-Serif" font-size="10.00">doris::vectorized::</text>
<text text-anchor="middle" x="232" y="-117.5" font-family="Helvetica,sans-Serif" font-size="10.00">Block::swap</text>
</a>
</g>
</g>
<!-- Node1&#45;&gt;Node22 -->
<g id="edge26" class="edge">
<title>Node1&#45;&gt;Node22</title>
<path fill="none" stroke="#63b8ff" d="M64.73,-270.82C76.56,-247.52 109.73,-187.81 154,-154.5 159.98,-150 166.74,-146.13 173.71,-142.81"/>
<polygon fill="#63b8ff" stroke="#63b8ff" points="174.83,-146.14 182.61,-138.95 172.05,-139.72 174.83,-146.14"/>
</g>
<!-- Node23 -->
<g id="node23" class="node">
<title>Node23</title>
<g id="a_node23"><a xlink:href="../../d2/dfe/classdoris_1_1vectorized_1_1_mutable_block.html#a0a4af389bbb4d5df4512d66a4531c02a" target="_top" xlink:title=" ">
<polygon fill="white" stroke="#666666" points="291.5,-74.5 172.5,-74.5 172.5,-44.5 291.5,-44.5 291.5,-74.5"/>
<text text-anchor="start" x="180.5" y="-62.5" font-family="Helvetica,sans-Serif" font-size="10.00">doris::vectorized::</text>
<text text-anchor="middle" x="232" y="-51.5" font-family="Helvetica,sans-Serif" font-size="10.00">MutableBlock::to_block</text>
</a>
</g>
</g>
<!-- Node1&#45;&gt;Node23 -->
<g id="edge27" class="edge">
<title>Node1&#45;&gt;Node23</title>
<path fill="none" stroke="#63b8ff" d="M62.88,-270.74C71.88,-241.66 102.04,-154.28 154,-101.5 162.09,-93.28 172.14,-86.25 182.27,-80.42"/>
<polygon fill="#63b8ff" stroke="#63b8ff" points="183.88,-83.53 191.03,-75.71 180.57,-77.36 183.88,-83.53"/>
</g>
<!-- Node3 -->
<g id="node3" class="node">
<title>Node3</title>
<g id="a_node3"><a xlink:href="../../d2/dfe/classdoris_1_1vectorized_1_1_mutable_block.html#a2a1761c4be5ad83486536ee9617f9ee9" target="_top" xlink:title=" ">
<polygon fill="white" stroke="#666666" points="487,-499.5 346,-499.5 346,-469.5 487,-469.5 487,-499.5"/>
<text text-anchor="start" x="354" y="-487.5" font-family="Helvetica,sans-Serif" font-size="10.00">doris::vectorized::</text>
<text text-anchor="middle" x="416.5" y="-476.5" font-family="Helvetica,sans-Serif" font-size="10.00">MutableBlock::MutableBlock</text>
</a>
</g>
</g>
<!-- Node2&#45;&gt;Node3 -->
<g id="edge2" class="edge">
<title>Node2&#45;&gt;Node3</title>
<path fill="none" stroke="#63b8ff" d="M283.35,-484.5C299.1,-484.5 316.91,-484.5 334.22,-484.5"/>
<polygon fill="#63b8ff" stroke="#63b8ff" points="333.99,-488 343.99,-484.5 333.99,-481 333.99,-488"/>
</g>
<!-- Node5 -->
<g id="node5" class="node">
<title>Node5</title>
<g id="a_node5"><a xlink:href="../../d4/d87/classdoris_1_1_row_descriptor.html#a4b16257219c9bf7b0f4a1ae54566e188" target="_top" xlink:title=" ">
<polygon fill="white" stroke="#666666" points="471,-446.5 362,-446.5 362,-416.5 471,-416.5 471,-446.5"/>
<text text-anchor="start" x="370" y="-434.5" font-family="Helvetica,sans-Serif" font-size="10.00">doris::RowDescriptor</text>
<text text-anchor="middle" x="416.5" y="-423.5" font-family="Helvetica,sans-Serif" font-size="10.00">::tuple_descriptors</text>
</a>
</g>
</g>
<!-- Node4&#45;&gt;Node5 -->
<g id="edge4" class="edge">
<title>Node4&#45;&gt;Node5</title>
<path fill="none" stroke="#63b8ff" d="M310.4,-428.04C323.77,-428.48 337.55,-428.94 350.55,-429.36"/>
<polygon fill="#63b8ff" stroke="#63b8ff" points="350.13,-432.85 360.24,-429.68 350.36,-425.86 350.13,-432.85"/>
</g>
<!-- Node8 -->
<g id="node8" class="node">
<title>Node8</title>
<g id="a_node8"><a xlink:href="../../d2/d12/classdoris_1_1vectorized_1_1_block.html#a54f8f7eae676dfa49029fff7c7ce8f05" target="_top" xlink:title="References are invalidated after calling functions above.">
<polygon fill="white" stroke="#666666" points="474.5,-398.5 358.5,-398.5 358.5,-368.5 474.5,-368.5 474.5,-398.5"/>
<text text-anchor="start" x="366.5" y="-386.5" font-family="Helvetica,sans-Serif" font-size="10.00">doris::vectorized::</text>
<text text-anchor="middle" x="416.5" y="-375.5" font-family="Helvetica,sans-Serif" font-size="10.00">Block::get_by_position</text>
</a>
</g>
</g>
<!-- Node7&#45;&gt;Node8 -->
<g id="edge7" class="edge">
<title>Node7&#45;&gt;Node8</title>
<path fill="none" stroke="#63b8ff" d="M275.33,-350.47C296.7,-355.51 323.14,-361.74 347.29,-367.43"/>
<polygon fill="#63b8ff" stroke="#63b8ff" points="346.18,-370.76 356.72,-369.65 347.79,-363.95 346.18,-370.76"/>
</g>
<!-- Node7&#45;&gt;Node9 -->
<g id="edge8" class="edge">
<title>Node7&#45;&gt;Node9</title>
<path fill="none" stroke="#63b8ff" d="M278.11,-339.26C302,-338.61 331.62,-337.8 357.23,-337.1"/>
<polygon fill="#63b8ff" stroke="#63b8ff" points="357.27,-340.6 367.17,-336.82 357.08,-333.6 357.27,-340.6"/>
</g>
<!-- Node12 -->
<g id="node12" class="node">
<title>Node12</title>
<g id="a_node12"><a xlink:href="../../d2/dfe/classdoris_1_1vectorized_1_1_mutable_block.html#a7922bada6e0c6090f43afafdf9eae1de" target="_top" xlink:title=" ">
<polygon fill="white" stroke="#666666" points="484,-302.5 349,-302.5 349,-272.5 484,-272.5 484,-302.5"/>
<text text-anchor="start" x="357" y="-290.5" font-family="Helvetica,sans-Serif" font-size="10.00">doris::vectorized::</text>
<text text-anchor="middle" x="416.5" y="-279.5" font-family="Helvetica,sans-Serif" font-size="10.00">MutableBlock::dump_types</text>
</a>
</g>
</g>
<!-- Node11&#45;&gt;Node12 -->
<g id="edge11" class="edge">
<title>Node11&#45;&gt;Node12</title>
<path fill="none" stroke="#63b8ff" d="M286.61,-225.47C294.64,-228.34 302.68,-231.67 310,-235.5 327.96,-244.89 328.18,-253.84 346,-263.5 348.64,-264.93 351.39,-266.31 354.2,-267.62"/>
<polygon fill="#63b8ff" stroke="#63b8ff" points="352.6,-270.74 363.17,-271.49 355.38,-264.31 352.6,-270.74"/>
</g>
<!-- Node13 -->
<g id="node13" class="node">
<title>Node13</title>
<g id="a_node13"><a xlink:href="../../d3/d1e/namespacedoris_1_1vectorized.html#a15491adacffd97f9c5b6efe5dd58f657" target="_top" xlink:title=" ">
<polygon fill="white" stroke="#666666" points="470.5,-254 362.5,-254 362.5,-235 470.5,-235 470.5,-254"/>
<text text-anchor="middle" x="416.5" y="-242" font-family="Helvetica,sans-Serif" font-size="10.00">doris::vectorized::get</text>
</a>
</g>
</g>
<!-- Node11&#45;&gt;Node13 -->
<g id="edge12" class="edge">
<title>Node11&#45;&gt;Node13</title>
<path fill="none" stroke="#63b8ff" d="M286.77,-221.22C306.91,-224.86 330,-229.04 351.02,-232.84"/>
<polygon fill="#63b8ff" stroke="#63b8ff" points="350.16,-236.24 360.63,-234.58 351.41,-229.35 350.16,-236.24"/>
</g>
<!-- Node14 -->
<g id="node14" class="node">
<title>Node14</title>
<g id="a_node14"><a xlink:href="../../d2/dfe/classdoris_1_1vectorized_1_1_mutable_block.html#a58a4d1be629f650e56e65128893b2540" target="_top" xlink:title=" ">
<polygon fill="white" stroke="#666666" points="475,-217 358,-217 358,-176 475,-176 475,-217"/>
<text text-anchor="start" x="366" y="-205" font-family="Helvetica,sans-Serif" font-size="10.00">doris::vectorized::</text>
<text text-anchor="start" x="366" y="-194" font-family="Helvetica,sans-Serif" font-size="10.00">MutableBlock::initialize</text>
<text text-anchor="middle" x="416.5" y="-183" font-family="Helvetica,sans-Serif" font-size="10.00">_index_by_name</text>
</a>
</g>
</g>
<!-- Node11&#45;&gt;Node14 -->
<g id="edge13" class="edge">
<title>Node11&#45;&gt;Node14</title>
<path fill="none" stroke="#63b8ff" d="M286.77,-207.08C305.4,-205.55 326.56,-203.81 346.26,-202.19"/>
<polygon fill="#63b8ff" stroke="#63b8ff" points="346.47,-205.69 356.15,-201.38 345.9,-198.71 346.47,-205.69"/>
</g>
<!-- Node15 -->
<g id="node15" class="node">
<title>Node15</title>
<g id="a_node15"><a xlink:href="../../d3/d1e/namespacedoris_1_1vectorized.html#aac8e73eaa6aee54ea37e6d3fbfc970b6" target="_top" xlink:title=" ">
<polygon fill="white" stroke="#666666" points="464,-139.5 369,-139.5 369,-109.5 464,-109.5 464,-139.5"/>
<text text-anchor="start" x="377" y="-127.5" font-family="Helvetica,sans-Serif" font-size="10.00">doris::vectorized::</text>
<text text-anchor="middle" x="416.5" y="-116.5" font-family="Helvetica,sans-Serif" font-size="10.00">make_nullable</text>
</a>
</g>
</g>
<!-- Node11&#45;&gt;Node15 -->
<g id="edge14" class="edge">
<title>Node11&#45;&gt;Node15</title>
<path fill="none" stroke="#63b8ff" d="M277.42,-196C288.21,-191.9 299.62,-187.28 310,-182.5 334.04,-171.43 360.1,-157.13 380.31,-145.49"/>
<polygon fill="#63b8ff" stroke="#63b8ff" points="381.82,-148.66 388.71,-140.61 378.3,-142.61 381.82,-148.66"/>
</g>
<!-- Node11&#45;&gt;Node20 -->
<g id="edge22" class="edge">
<title>Node11&#45;&gt;Node20</title>
<path fill="none" stroke="#63b8ff" d="M286.77,-197.64C295.23,-193.75 303.36,-188.79 310,-182.5 338.89,-155.12 315.87,-126.5 346,-100.5 350.1,-96.96 354.81,-94.07 359.8,-91.72"/>
<polygon fill="#63b8ff" stroke="#63b8ff" points="360.88,-95.05 368.92,-88.15 358.33,-88.53 360.88,-95.05"/>
</g>
<!-- Node15&#45;&gt;Node15 -->
<g id="edge21" class="edge">
<title>Node15&#45;&gt;Node15</title>
<path fill="none" stroke="#63b8ff" d="M387.06,-139.78C380.51,-148.91 390.33,-157.5 416.5,-157.5 430.81,-157.5 440.23,-154.93 444.76,-151.11"/>
<polygon fill="#63b8ff" stroke="#63b8ff" points="448.23,-151.59 445.79,-141.28 441.27,-150.86 448.23,-151.59"/>
</g>
<!-- Node16 -->
<g id="node16" class="node">
<title>Node16</title>
<g id="a_node16"><a xlink:href="../../da/d30/class_c_o_w_helper.html#aa14023f47995d24ce0ea777e90a4cb23" target="_top" xlink:title=" ">
<polygon fill="white" stroke="#666666" points="645,-229.5 523,-229.5 523,-199.5 645,-199.5 645,-229.5"/>
<text text-anchor="start" x="531" y="-217.5" font-family="Helvetica,sans-Serif" font-size="10.00">COWHelper&lt; IColumn,</text>
<text text-anchor="middle" x="584" y="-206.5" font-family="Helvetica,sans-Serif" font-size="10.00"> ColumnConst &gt;::create</text>
</a>
</g>
</g>
<!-- Node15&#45;&gt;Node16 -->
<g id="edge15" class="edge">
<title>Node15&#45;&gt;Node16</title>
<path fill="none" stroke="#63b8ff" d="M456.53,-139.8C466.48,-145.67 477.15,-152.31 487,-158.5 503.07,-168.61 506.11,-172.82 523,-181.5 531.89,-186.07 541.87,-190.37 551.09,-194.4"/>
<polygon fill="#63b8ff" stroke="#63b8ff" points="549.52,-197.54 560.08,-198.41 552.37,-191.14 549.52,-197.54"/>
</g>
<!-- Node15&#45;&gt;Node16 -->
<g id="edge16" class="edge">
<title>Node15&#45;&gt;Node16</title>
<path fill="none" stroke="#63b8ff" d="M431.38,-139.81C445.44,-150.64 467.78,-164.42 487,-176.5 499.09,-184.1 503.8,-188.37 512.58,-193.71"/>
<polygon fill="#63b8ff" stroke="#63b8ff" points="510.85,-196.75 521.28,-198.56 514.25,-190.64 510.85,-196.75"/>
</g>
<!-- Node17 -->
<g id="node17" class="node">
<title>Node17</title>
<g id="a_node17"><a xlink:href="../../d4/d41/classdoris_1_1vectorized_1_1_column_nullable.html#aa56bff67215caba11a6411e09b739913" target="_top" xlink:title=" ">
<polygon fill="white" stroke="#666666" points="643.5,-163.5 524.5,-163.5 524.5,-133.5 643.5,-133.5 643.5,-163.5"/>
<text text-anchor="start" x="532.5" y="-151.5" font-family="Helvetica,sans-Serif" font-size="10.00">doris::vectorized::</text>
<text text-anchor="middle" x="584" y="-140.5" font-family="Helvetica,sans-Serif" font-size="10.00">ColumnNullable::create</text>
</a>
</g>
</g>
<!-- Node15&#45;&gt;Node17 -->
<g id="edge17" class="edge">
<title>Node15&#45;&gt;Node17</title>
<path fill="none" stroke="#63b8ff" d="M464.48,-131.31C479.55,-133.5 496.57,-135.97 512.91,-138.34"/>
<polygon fill="#63b8ff" stroke="#63b8ff" points="512.19,-141.77 522.59,-139.74 513.2,-134.84 512.19,-141.77"/>
</g>
<!-- Node18 -->
<g id="node18" class="node">
<title>Node18</title>
<g id="a_node18"><a xlink:href="../../d3/d1e/namespacedoris_1_1vectorized.html#a85dfa9ef8ec5a8555e00a9314d3a7f4d" target="_top" xlink:title="True if column&#39;s an ColumnConst instance. It&#39;s just a syntax sugar for type check.">
<polygon fill="white" stroke="#666666" points="631.5,-115.5 536.5,-115.5 536.5,-85.5 631.5,-85.5 631.5,-115.5"/>
<text text-anchor="start" x="544.5" y="-103.5" font-family="Helvetica,sans-Serif" font-size="10.00">doris::vectorized::</text>
<text text-anchor="middle" x="584" y="-92.5" font-family="Helvetica,sans-Serif" font-size="10.00">is_column_const</text>
</a>
</g>
</g>
<!-- Node15&#45;&gt;Node18 -->
<g id="edge19" class="edge">
<title>Node15&#45;&gt;Node18</title>
<path fill="none" stroke="#63b8ff" d="M464.48,-117.69C483.26,-114.96 505.07,-111.8 524.83,-108.94"/>
<polygon fill="#63b8ff" stroke="#63b8ff" points="525.29,-112.4 534.69,-107.51 524.29,-105.48 525.29,-112.4"/>
</g>
<!-- Node19 -->
<g id="node19" class="node">
<title>Node19</title>
<g id="a_node19"><a xlink:href="../../d3/d1e/namespacedoris_1_1vectorized.html#a53ba59a5e2f4e69160fec1ee139ff8df" target="_top" xlink:title="True if column&#39;s an ColumnNullable instance. It&#39;s just a syntax sugar for type check.">
<polygon fill="white" stroke="#666666" points="633.5,-67.5 534.5,-67.5 534.5,-37.5 633.5,-37.5 633.5,-67.5"/>
<text text-anchor="start" x="542.5" y="-55.5" font-family="Helvetica,sans-Serif" font-size="10.00">doris::vectorized::</text>
<text text-anchor="middle" x="584" y="-44.5" font-family="Helvetica,sans-Serif" font-size="10.00">is_column_nullable</text>
</a>
</g>
</g>
<!-- Node15&#45;&gt;Node19 -->
<g id="edge20" class="edge">
<title>Node15&#45;&gt;Node19</title>
<path fill="none" stroke="#63b8ff" d="M464.45,-109.23C472.11,-106.28 479.87,-103.01 487,-99.5 504.04,-91.12 506.11,-85.18 523,-76.5 525.67,-75.13 528.43,-73.78 531.25,-72.47"/>
<polygon fill="#63b8ff" stroke="#63b8ff" points="532.45,-75.77 540.17,-68.51 529.61,-69.37 532.45,-75.77"/>
</g>
<!-- Node17&#45;&gt;Node17 -->
<g id="edge18" class="edge">
<title>Node17&#45;&gt;Node17</title>
<path fill="none" stroke="#63b8ff" d="M554.56,-163.78C548.01,-172.91 557.83,-181.5 584,-181.5 598.31,-181.5 607.73,-178.93 612.26,-175.11"/>
<polygon fill="#63b8ff" stroke="#63b8ff" points="615.73,-175.59 613.29,-165.28 608.77,-174.86 615.73,-175.59"/>
</g>
<!-- Node21 -->
<g id="node21" class="node">
<title>Node21</title>
<g id="a_node21"><a xlink:href="../../d9/d8d/classdoris_1_1_status.html#aafde58df1b2a6a91d5b674373be3ffc5" target="_top" xlink:title=" ">
<polygon fill="white" stroke="#666666" points="637.5,-19 530.5,-19 530.5,0 637.5,0 637.5,-19"/>
<text text-anchor="middle" x="584" y="-7" font-family="Helvetica,sans-Serif" font-size="10.00">doris::Status::Status</text>
</a>
</g>
</g>
<!-- Node20&#45;&gt;Node21 -->
<g id="edge23" class="edge">
<title>Node20&#45;&gt;Node21</title>
<path fill="none" stroke="#63b8ff" d="M435.02,-71.61C455.63,-60.24 491.1,-41.47 523,-28.5 527.68,-26.6 532.63,-24.76 537.6,-23.03"/>
<polygon fill="#63b8ff" stroke="#63b8ff" points="538.58,-26.39 546.96,-19.9 536.37,-19.75 538.58,-26.39"/>
</g>
<!-- Node23&#45;&gt;Node23 -->
<g id="edge28" class="edge">
<title>Node23&#45;&gt;Node23</title>
<path fill="none" stroke="#63b8ff" d="M201.59,-74.78C194.83,-83.91 204.97,-92.5 232,-92.5 246.78,-92.5 256.51,-89.93 261.19,-86.11"/>
<polygon fill="#63b8ff" stroke="#63b8ff" points="264.66,-86.6 262.25,-76.28 257.7,-85.85 264.66,-86.6"/>
</g>
</g>
</svg>
