<?xml version="1.0" encoding="UTF-8" standalone="no"?>
<!DOCTYPE svg PUBLIC "-//W3C//DTD SVG 1.1//EN"
 "http://www.w3.org/Graphics/SVG/1.1/DTD/svg11.dtd">
<!-- Generated by graphviz version 7.1.0 (20230121.1956)
 -->
<!-- Title: open_file Pages: 1 -->
<svg width="438pt" height="128pt"
 viewBox="0.00 0.00 438.00 128.00" xmlns="http://www.w3.org/2000/svg" xmlns:xlink="http://www.w3.org/1999/xlink">
<g id="graph0" class="graph" transform="scale(1 1) rotate(0) translate(4 124)">
<title>open_file</title>
<!-- Node1 -->
<g id="node1" class="node">
<title>Node1</title>
<g id="a_node1"><a xlink:title=" ">
<polygon fill="#999999" stroke="#666666" points="56,-56 0,-56 0,-37 56,-37 56,-56"/>
<text text-anchor="middle" x="28" y="-44" font-family="Helvetica,sans-Serif" font-size="10.00">open_file</text>
</a>
</g>
</g>
<!-- Node2 -->
<g id="node2" class="node">
<title>Node2</title>
<g id="a_node2"><a xlink:href="../../df/d5c/classdoris_1_1io_1_1_s3_file_system.html#ae5152883a3cad0a4808571544dc989e3" target="_top" xlink:title=" ">
<polygon fill="white" stroke="#666666" points="145,-56 92,-56 92,-37 145,-37 145,-56"/>
<text text-anchor="middle" x="118.5" y="-44" font-family="Helvetica,sans-Serif" font-size="10.00">file_size</text>
</a>
</g>
</g>
<!-- Node1&#45;&gt;Node2 -->
<g id="edge1" class="edge">
<title>Node1&#45;&gt;Node2</title>
<path fill="none" stroke="#63b8ff" d="M56.03,-46.5C63.62,-46.5 72,-46.5 80.07,-46.5"/>
<polygon fill="#63b8ff" stroke="#63b8ff" points="80.03,-50 90.03,-46.5 80.03,-43 80.03,-50"/>
</g>
<!-- Node4 -->
<g id="node4" class="node">
<title>Node4</title>
<g id="a_node4"><a xlink:href="../../df/d5c/classdoris_1_1io_1_1_s3_file_system.html#a72db69b6bdcad26a71e0162c5e706037" target="_top" xlink:title=" ">
<polygon fill="white" stroke="#666666" points="252.5,-102 201.5,-102 201.5,-83 252.5,-83 252.5,-102"/>
<text text-anchor="middle" x="227" y="-90" font-family="Helvetica,sans-Serif" font-size="10.00">get_key</text>
</a>
</g>
</g>
<!-- Node1&#45;&gt;Node4 -->
<g id="edge9" class="edge">
<title>Node1&#45;&gt;Node4</title>
<path fill="none" stroke="#63b8ff" d="M41.67,-56.36C53.83,-65.21 73.09,-77.67 92,-83.5 124.03,-93.37 162.33,-95 189.77,-94.52"/>
<polygon fill="#63b8ff" stroke="#63b8ff" points="189.77,-98.02 199.67,-94.24 189.57,-91.03 189.77,-98.02"/>
</g>
<!-- Node7 -->
<g id="node7" class="node">
<title>Node7</title>
<g id="a_node7"><a xlink:href="../../d9/d8d/classdoris_1_1_status.html#a6ec1a217f203269ab53d2290d602db24" target="_top" xlink:title=" ">
<polygon fill="white" stroke="#666666" points="273,-19 181,-19 181,0 273,0 273,-19"/>
<text text-anchor="middle" x="227" y="-7" font-family="Helvetica,sans-Serif" font-size="10.00">doris::Status::OK</text>
</a>
</g>
</g>
<!-- Node1&#45;&gt;Node7 -->
<g id="edge10" class="edge">
<title>Node1&#45;&gt;Node7</title>
<path fill="none" stroke="#63b8ff" d="M56.35,-37.21C67.33,-33.76 80.16,-30.06 92,-27.5 117.14,-22.06 145.3,-17.98 169.3,-15.09"/>
<polygon fill="#63b8ff" stroke="#63b8ff" points="169.68,-18.57 179.21,-13.94 168.88,-11.61 169.68,-18.57"/>
</g>
<!-- Node2&#45;&gt;Node2 -->
<g id="edge2" class="edge">
<title>Node2&#45;&gt;Node2</title>
<path fill="none" stroke="#63b8ff" d="M104.33,-56.37C97.87,-64.94 102.59,-74 118.5,-74 127.2,-74 132.55,-71.29 134.56,-67.43"/>
<polygon fill="#63b8ff" stroke="#63b8ff" points="138.06,-67.13 132.92,-57.86 131.16,-68.31 138.06,-67.13"/>
</g>
<!-- Node3 -->
<g id="node3" class="node">
<title>Node3</title>
<g id="a_node3"><a xlink:href="../../df/d5c/classdoris_1_1io_1_1_s3_file_system.html#ac6f1dc10dcae5522c4b7335ad7dcdead" target="_top" xlink:title=" ">
<polygon fill="white" stroke="#666666" points="256.5,-56 197.5,-56 197.5,-37 256.5,-37 256.5,-56"/>
<text text-anchor="middle" x="227" y="-44" font-family="Helvetica,sans-Serif" font-size="10.00">get_client</text>
</a>
</g>
</g>
<!-- Node2&#45;&gt;Node3 -->
<g id="edge3" class="edge">
<title>Node2&#45;&gt;Node3</title>
<path fill="none" stroke="#63b8ff" d="M145.28,-46.5C157.37,-46.5 172.07,-46.5 185.59,-46.5"/>
<polygon fill="#63b8ff" stroke="#63b8ff" points="185.57,-50 195.57,-46.5 185.57,-43 185.57,-50"/>
</g>
<!-- Node2&#45;&gt;Node4 -->
<g id="edge4" class="edge">
<title>Node2&#45;&gt;Node4</title>
<path fill="none" stroke="#63b8ff" d="M142.61,-56.48C157.26,-62.81 176.46,-71.1 192.74,-78.13"/>
<polygon fill="#63b8ff" stroke="#63b8ff" points="190.98,-81.19 201.55,-81.94 193.75,-74.76 190.98,-81.19"/>
</g>
<!-- Node2&#45;&gt;Node7 -->
<g id="edge7" class="edge">
<title>Node2&#45;&gt;Node7</title>
<path fill="none" stroke="#63b8ff" d="M145.28,-37.54C157.72,-33.22 172.9,-27.95 186.74,-23.14"/>
<polygon fill="#63b8ff" stroke="#63b8ff" points="187.73,-26.5 196.03,-19.91 185.44,-19.89 187.73,-26.5"/>
</g>
<!-- Node5 -->
<g id="node5" class="node">
<title>Node5</title>
<g id="a_node5"><a xlink:href="../../d4/d96/class_string_piece.html#aa3affb1becdd976aba1036a161a3134d" target="_top" xlink:title=" ">
<polygon fill="white" stroke="#666666" points="415.5,-83 323.5,-83 323.5,-64 415.5,-64 415.5,-83"/>
<text text-anchor="middle" x="369.5" y="-71" font-family="Helvetica,sans-Serif" font-size="10.00">StringPiece::data</text>
</a>
</g>
</g>
<!-- Node4&#45;&gt;Node5 -->
<g id="edge5" class="edge">
<title>Node4&#45;&gt;Node5</title>
<path fill="none" stroke="#63b8ff" d="M252.8,-89.15C269.21,-86.93 291.44,-83.92 312.02,-81.14"/>
<polygon fill="#63b8ff" stroke="#63b8ff" points="312.3,-84.63 321.74,-79.82 311.36,-77.7 312.3,-84.63"/>
</g>
<!-- Node6 -->
<g id="node6" class="node">
<title>Node6</title>
<g id="a_node6"><a xlink:href="../../d4/d96/class_string_piece.html#a05ce2fff30e5bfc47d683a02b40d6829" target="_top" xlink:title=" ">
<polygon fill="white" stroke="#666666" points="430,-120 309,-120 309,-101 430,-101 430,-120"/>
<text text-anchor="middle" x="369.5" y="-108" font-family="Helvetica,sans-Serif" font-size="10.00">StringPiece::starts_with</text>
</a>
</g>
</g>
<!-- Node4&#45;&gt;Node6 -->
<g id="edge6" class="edge">
<title>Node4&#45;&gt;Node6</title>
<path fill="none" stroke="#63b8ff" d="M252.8,-95.68C265.4,-97.29 281.44,-99.35 297.52,-101.41"/>
<polygon fill="#63b8ff" stroke="#63b8ff" points="296.76,-104.84 307.12,-102.64 297.65,-97.89 296.76,-104.84"/>
</g>
<!-- Node8 -->
<g id="node8" class="node">
<title>Node8</title>
<g id="a_node8"><a xlink:href="../../d9/d8d/classdoris_1_1_status.html#aafde58df1b2a6a91d5b674373be3ffc5" target="_top" xlink:title=" ">
<polygon fill="white" stroke="#666666" points="423,-19 316,-19 316,0 423,0 423,-19"/>
<text text-anchor="middle" x="369.5" y="-7" font-family="Helvetica,sans-Serif" font-size="10.00">doris::Status::Status</text>
</a>
</g>
</g>
<!-- Node7&#45;&gt;Node8 -->
<g id="edge8" class="edge">
<title>Node7&#45;&gt;Node8</title>
<path fill="none" stroke="#63b8ff" d="M273.23,-9.5C283.13,-9.5 293.78,-9.5 304.26,-9.5"/>
<polygon fill="#63b8ff" stroke="#63b8ff" points="304.01,-13 314.01,-9.5 304.01,-6 304.01,-13"/>
</g>
</g>
</svg>
