<?xml version="1.0" encoding="UTF-8" standalone="no"?>
<!DOCTYPE svg PUBLIC "-//W3C//DTD SVG 1.1//EN"
 "http://www.w3.org/Graphics/SVG/1.1/DTD/svg11.dtd">
<!-- Generated by graphviz version 7.1.0 (20230121.1956)
 -->
<!-- Title: operator[] Pages: 1 -->
<svg width="676pt" height="101pt"
 viewBox="0.00 0.00 676.00 101.00" xmlns="http://www.w3.org/2000/svg" xmlns:xlink="http://www.w3.org/1999/xlink">
<g id="graph0" class="graph" transform="scale(1 1) rotate(0) translate(4 97)">
<title>operator[]</title>
<!-- Node1 -->
<g id="node1" class="node">
<title>Node1</title>
<g id="a_node1"><a xlink:title=" ">
<polygon fill="#999999" stroke="#666666" points="58,-56 0,-56 0,-37 58,-37 58,-56"/>
<text text-anchor="middle" x="29" y="-44" font-family="Helvetica,sans-Serif" font-size="10.00">operator[]</text>
</a>
</g>
</g>
<!-- Node2 -->
<g id="node2" class="node">
<title>Node2</title>
<g id="a_node2"><a xlink:href="../../dc/d5e/class_string_hash_table.html#a129c4582c39f1121609be23f4dcc27ee" target="_top" xlink:title=" ">
<polygon fill="white" stroke="#666666" points="225,-56 94,-56 94,-37 225,-37 225,-56"/>
<text text-anchor="middle" x="159.5" y="-44" font-family="Helvetica,sans-Serif" font-size="10.00">StringHashTable::emplace</text>
</a>
</g>
</g>
<!-- Node1&#45;&gt;Node2 -->
<g id="edge1" class="edge">
<title>Node1&#45;&gt;Node2</title>
<path fill="none" stroke="#63b8ff" d="M58.2,-46.5C65.49,-46.5 73.71,-46.5 82.21,-46.5"/>
<polygon fill="#63b8ff" stroke="#63b8ff" points="81.99,-50 91.99,-46.5 81.99,-43 81.99,-50"/>
</g>
<!-- Node3 -->
<g id="node3" class="node">
<title>Node3</title>
<g id="a_node3"><a xlink:href="../../dc/d5e/class_string_hash_table.html#ac40b4c136071fbdafe827e8dd8f97a7c" target="_top" xlink:title=" ">
<polygon fill="white" stroke="#666666" points="392,-56 261,-56 261,-37 392,-37 392,-56"/>
<text text-anchor="middle" x="326.5" y="-44" font-family="Helvetica,sans-Serif" font-size="10.00">StringHashTable::dispatch</text>
</a>
</g>
</g>
<!-- Node2&#45;&gt;Node3 -->
<g id="edge2" class="edge">
<title>Node2&#45;&gt;Node3</title>
<path fill="none" stroke="#63b8ff" d="M225.24,-46.5C233.15,-46.5 241.3,-46.5 249.36,-46.5"/>
<polygon fill="#63b8ff" stroke="#63b8ff" points="249.16,-50 259.16,-46.5 249.16,-43 249.16,-50"/>
</g>
<!-- Node4 -->
<g id="node4" class="node">
<title>Node4</title>
<g id="a_node4"><a xlink:href="../../db/d36/hash__table__key__holder_8h.html#a75c6314958473c22b1aebf8a9f9bef90" target="_top" xlink:title=" ">
<polygon fill="white" stroke="#666666" points="550,-93 428,-93 428,-74 550,-74 550,-93"/>
<text text-anchor="middle" x="489" y="-81" font-family="Helvetica,sans-Serif" font-size="10.00">key_holder_discard_key</text>
</a>
</g>
</g>
<!-- Node3&#45;&gt;Node4 -->
<g id="edge3" class="edge">
<title>Node3&#45;&gt;Node4</title>
<path fill="none" stroke="#63b8ff" d="M370.51,-56.42C389.94,-60.89 413.11,-66.24 433.72,-70.99"/>
<polygon fill="#63b8ff" stroke="#63b8ff" points="432.86,-74.38 443.4,-73.22 434.44,-67.56 432.86,-74.38"/>
</g>
<!-- Node5 -->
<g id="node5" class="node">
<title>Node5</title>
<g id="a_node5"><a xlink:href="../../db/d36/hash__table__key__holder_8h.html#a4fac8bfd05ae4013aa33bd42a824f9eb" target="_top" xlink:title=" ">
<polygon fill="white" stroke="#666666" points="541,-56 437,-56 437,-37 541,-37 541,-56"/>
<text text-anchor="middle" x="489" y="-44" font-family="Helvetica,sans-Serif" font-size="10.00">key_holder_get_key</text>
</a>
</g>
</g>
<!-- Node3&#45;&gt;Node5 -->
<g id="edge4" class="edge">
<title>Node3&#45;&gt;Node5</title>
<path fill="none" stroke="#63b8ff" d="M392.32,-46.5C403.3,-46.5 414.67,-46.5 425.59,-46.5"/>
<polygon fill="#63b8ff" stroke="#63b8ff" points="425.24,-50 435.24,-46.5 425.24,-43 425.24,-50"/>
</g>
<!-- Node6 -->
<g id="node6" class="node">
<title>Node6</title>
<g id="a_node6"><a xlink:href="../../d9/d1e/memcpy__aarch64_8cpp.html#a156c5821f16ed93be8c7d315303f7b2a" target="_top" xlink:title=" ">
<polygon fill="white" stroke="#666666" points="516,-19 462,-19 462,0 516,0 516,-19"/>
<text text-anchor="middle" x="489" y="-7" font-family="Helvetica,sans-Serif" font-size="10.00">memcpy</text>
</a>
</g>
</g>
<!-- Node3&#45;&gt;Node6 -->
<g id="edge5" class="edge">
<title>Node3&#45;&gt;Node6</title>
<path fill="none" stroke="#63b8ff" d="M370.51,-36.58C395.57,-30.81 426.85,-23.6 450.83,-18.07"/>
<polygon fill="#63b8ff" stroke="#63b8ff" points="451.53,-21.5 460.48,-15.84 449.95,-14.68 451.53,-21.5"/>
</g>
<!-- Node7 -->
<g id="node7" class="node">
<title>Node7</title>
<g id="a_node7"><a xlink:href="../../d9/d1e/memcpy__aarch64_8cpp.html#a11ebdd343428c466f2f35c376d7db6d0" target="_top" xlink:title=" ">
<polygon fill="white" stroke="#666666" points="668,-19 586,-19 586,0 668,0 668,-19"/>
<text text-anchor="middle" x="627" y="-7" font-family="Helvetica,sans-Serif" font-size="10.00">inline_memcpy</text>
</a>
</g>
</g>
<!-- Node6&#45;&gt;Node7 -->
<g id="edge6" class="edge">
<title>Node6&#45;&gt;Node7</title>
<path fill="none" stroke="#63b8ff" d="M516.22,-9.5C532.68,-9.5 554.46,-9.5 574.28,-9.5"/>
<polygon fill="#63b8ff" stroke="#63b8ff" points="574.15,-13 584.15,-9.5 574.15,-6 574.15,-13"/>
</g>
</g>
</svg>
