<?xml version="1.0" encoding="UTF-8" standalone="no"?>
<!DOCTYPE svg PUBLIC "-//W3C//DTD SVG 1.1//EN"
 "http://www.w3.org/Graphics/SVG/1.1/DTD/svg11.dtd">
<!-- Generated by graphviz version 7.1.0 (20230121.1956)
 -->
<!-- Title: merge Pages: 1 -->
<svg width="334pt" height="64pt"
 viewBox="0.00 0.00 334.00 64.00" xmlns="http://www.w3.org/2000/svg" xmlns:xlink="http://www.w3.org/1999/xlink">
<g id="graph0" class="graph" transform="scale(1 1) rotate(0) translate(4 60)">
<title>merge</title>
<!-- Node1 -->
<g id="node1" class="node">
<title>Node1</title>
<g id="a_node1"><a xlink:title=" ">
<polygon fill="#999999" stroke="#666666" points="44,-37 0,-37 0,-18 44,-18 44,-37"/>
<text text-anchor="middle" x="22" y="-25" font-family="Helvetica,sans-Serif" font-size="10.00">merge</text>
</a>
</g>
</g>
<!-- Node2 -->
<g id="node2" class="node">
<title>Node2</title>
<g id="a_node2"><a xlink:href="../../da/dae/class_hash_table.html#a129c4582c39f1121609be23f4dcc27ee" target="_top" xlink:title=" ">
<polygon fill="white" stroke="#666666" points="186,-37 80,-37 80,-18 186,-18 186,-37"/>
<text text-anchor="middle" x="133" y="-25" font-family="Helvetica,sans-Serif" font-size="10.00">HashTable::emplace</text>
</a>
</g>
</g>
<!-- Node1&#45;&gt;Node2 -->
<g id="edge1" class="edge">
<title>Node1&#45;&gt;Node2</title>
<path fill="none" stroke="#63b8ff" d="M44.28,-27.5C51.34,-27.5 59.61,-27.5 68.2,-27.5"/>
<polygon fill="#63b8ff" stroke="#63b8ff" points="68.08,-31 78.08,-27.5 68.08,-24 68.08,-31"/>
</g>
<!-- Node2&#45;&gt;Node2 -->
<g id="edge2" class="edge">
<title>Node2&#45;&gt;Node2</title>
<path fill="none" stroke="#63b8ff" d="M115.62,-37.37C107.7,-45.94 113.49,-55 133,-55 143.67,-55 150.24,-52.29 152.7,-48.43"/>
<polygon fill="#63b8ff" stroke="#63b8ff" points="156.17,-47.92 150.69,-38.85 149.32,-49.36 156.17,-47.92"/>
</g>
<!-- Node3 -->
<g id="node3" class="node">
<title>Node3</title>
<g id="a_node3"><a xlink:href="../../da/dae/class_hash_table.html#a0902d3327344aca5739605fd268a2481" target="_top" xlink:title=" ">
<polygon fill="white" stroke="#666666" points="319,-56 229,-56 229,-37 319,-37 319,-56"/>
<text text-anchor="middle" x="274" y="-44" font-family="Helvetica,sans-Serif" font-size="10.00">HashTable::hash</text>
</a>
</g>
</g>
<!-- Node2&#45;&gt;Node3 -->
<g id="edge3" class="edge">
<title>Node2&#45;&gt;Node3</title>
<path fill="none" stroke="#63b8ff" d="M186.15,-34.63C196.34,-36.02 207.06,-37.49 217.35,-38.89"/>
<polygon fill="#63b8ff" stroke="#63b8ff" points="216.86,-42.36 227.25,-40.25 217.81,-35.42 216.86,-42.36"/>
</g>
<!-- Node4 -->
<g id="node4" class="node">
<title>Node4</title>
<g id="a_node4"><a xlink:href="../../db/d36/hash__table__key__holder_8h.html#a928f207f55160e77313c49feb25fc211" target="_top" xlink:title=" ">
<polygon fill="white" stroke="#666666" points="326,-19 222,-19 222,0 326,0 326,-19"/>
<text text-anchor="middle" x="274" y="-7" font-family="Helvetica,sans-Serif" font-size="10.00">key_holder_get_key</text>
</a>
</g>
</g>
<!-- Node2&#45;&gt;Node4 -->
<g id="edge4" class="edge">
<title>Node2&#45;&gt;Node4</title>
<path fill="none" stroke="#63b8ff" d="M186.15,-20.75C194.11,-19.72 202.4,-18.64 210.55,-17.59"/>
<polygon fill="#63b8ff" stroke="#63b8ff" points="210.97,-21.06 220.44,-16.31 210.07,-14.12 210.97,-21.06"/>
</g>
</g>
</svg>
