<?xml version="1.0" encoding="UTF-8" standalone="no"?>
<!DOCTYPE svg PUBLIC "-//W3C//DTD SVG 1.1//EN"
 "http://www.w3.org/Graphics/SVG/1.1/DTD/svg11.dtd">
<!-- Generated by graphviz version 7.1.0 (20230121.1956)
 -->
<!-- Title: EngineBatchLoadTask Pages: 1 -->
<svg width="178pt" height="104pt"
 viewBox="0.00 0.00 178.00 104.00" xmlns="http://www.w3.org/2000/svg" xmlns:xlink="http://www.w3.org/1999/xlink">
<g id="graph0" class="graph" transform="scale(1 1) rotate(0) translate(4 100)">
<title>EngineBatchLoadTask</title>
<!-- Node1 -->
<g id="node1" class="node">
<title>Node1</title>
<g id="a_node1"><a xlink:title=" ">
<polygon fill="#999999" stroke="#666666" points="127,-19 13,-19 13,0 127,0 127,-19"/>
<text text-anchor="middle" x="70" y="-7" font-family="Helvetica,sans-Serif" font-size="10.00">EngineBatchLoadTask</text>
</a>
</g>
</g>
<!-- Node2 -->
<g id="node2" class="node">
<title>Node2</title>
<g id="a_node2"><a xlink:href="../../dd/dba/classdoris_1_1_engine_task.html" target="_top" xlink:title=" ">
<polygon fill="white" stroke="#666666" points="68,-96 0,-96 0,-77 68,-77 68,-96"/>
<text text-anchor="middle" x="34" y="-84" font-family="Helvetica,sans-Serif" font-size="10.00">EngineTask</text>
</a>
</g>
</g>
<!-- Node2&#45;&gt;Node1 -->
<g id="edge1" class="edge">
<title>Node2&#45;&gt;Node1</title>
<path fill="none" stroke="#63b8ff" d="M43.21,-66.32C50.45,-51.22 60.22,-30.88 65.73,-19.39"/>
<polygon fill="#63b8ff" stroke="#63b8ff" points="40.1,-64.71 38.93,-75.24 46.41,-67.74 40.1,-64.71"/>
</g>
<!-- Node3 -->
<g id="node3" class="node">
<title>Node3</title>
<g id="a_node3"><a xlink:title=" ">
<polygon fill="white" stroke="#666666" points="127.5,-96 86.5,-96 86.5,-77 127.5,-77 127.5,-96"/>
<text text-anchor="middle" x="107" y="-84" font-family="Helvetica,sans-Serif" font-size="10.00">string</text>
</a>
</g>
</g>
<!-- Node3&#45;&gt;Node1 -->
<g id="edge2" class="edge">
<title>Node3&#45;&gt;Node1</title>
<path fill="none" stroke="#9a32cd" stroke-dasharray="5,2" d="M97.54,-66.32C90.09,-51.22 80.06,-30.88 74.38,-19.39"/>
<polygon fill="#9a32cd" stroke="#9a32cd" points="94.38,-67.83 101.94,-75.24 100.66,-64.73 94.38,-67.83"/>
<text text-anchor="middle" x="131" y="-51" font-family="Helvetica,sans-Serif" font-size="10.00"> _local_file_path</text>
<text text-anchor="middle" x="131" y="-40" font-family="Helvetica,sans-Serif" font-size="10.00">_remote_file_path</text>
</g>
</g>
</svg>
