<?xml version="1.0" encoding="UTF-8" standalone="no"?>
<!DOCTYPE svg PUBLIC "-//W3C//DTD SVG 1.1//EN"
 "http://www.w3.org/Graphics/SVG/1.1/DTD/svg11.dtd">
<!-- Generated by graphviz version 7.1.0 (20230121.1956)
 -->
<!-- Title: parse_wkt Pages: 1 -->
<svg width="404pt" height="38pt"
 viewBox="0.00 0.00 404.00 38.00" xmlns="http://www.w3.org/2000/svg" xmlns:xlink="http://www.w3.org/1999/xlink">
<g id="graph0" class="graph" transform="scale(1 1) rotate(0) translate(4 34)">
<title>parse_wkt</title>
<!-- Node1 -->
<g id="node1" class="node">
<title>Node1</title>
<g id="a_node1"><a xlink:title=" ">
<polygon fill="#999999" stroke="#666666" points="396,-24.5 334,-24.5 334,-5.5 396,-5.5 396,-24.5"/>
<text text-anchor="middle" x="365" y="-12.5" font-family="Helvetica,sans-Serif" font-size="10.00">parse_wkt</text>
</a>
</g>
</g>
<!-- Node2 -->
<g id="node2" class="node">
<title>Node2</title>
<g id="a_node2"><a xlink:href="../../df/d37/classdoris_1_1_geo_shape.html#a892f20c883ad5a9b990bc6630cabd989" target="_top" xlink:title=" ">
<polygon fill="white" stroke="#666666" points="298,-24.5 162,-24.5 162,-5.5 298,-5.5 298,-24.5"/>
<text text-anchor="middle" x="230" y="-12.5" font-family="Helvetica,sans-Serif" font-size="10.00">doris::GeoShape::from_wkt</text>
</a>
</g>
</g>
<!-- Node1&#45;&gt;Node2 -->
<g id="edge1" class="edge">
<title>Node1&#45;&gt;Node2</title>
<path fill="none" stroke="#63b8ff" d="M322.54,-15C314.8,-15 306.53,-15 298.24,-15"/>
<polygon fill="#63b8ff" stroke="#63b8ff" points="322.31,-18.5 332.31,-15 322.31,-11.5 322.31,-18.5"/>
</g>
<!-- Node3 -->
<g id="node3" class="node">
<title>Node3</title>
<g id="a_node3"><a xlink:href="../../df/d1a/structdoris_1_1vectorized_1_1_st_geo_from_text.html#a667c39a44cc6e4e7c3ee22d9a8721bec" target="_top" xlink:title=" ">
<polygon fill="white" stroke="#666666" points="126,-30 0,-30 0,0 126,0 126,-30"/>
<text text-anchor="start" x="8" y="-18" font-family="Helvetica,sans-Serif" font-size="10.00">doris::vectorized::</text>
<text text-anchor="middle" x="63" y="-7" font-family="Helvetica,sans-Serif" font-size="10.00">StGeoFromText::execute</text>
</a>
</g>
</g>
<!-- Node2&#45;&gt;Node3 -->
<g id="edge2" class="edge">
<title>Node2&#45;&gt;Node3</title>
<path fill="none" stroke="#63b8ff" d="M150.47,-15C142.35,-15 134.17,-15 126.26,-15"/>
<polygon fill="#63b8ff" stroke="#63b8ff" points="150.37,-18.5 160.37,-15 150.37,-11.5 150.37,-18.5"/>
</g>
</g>
</svg>
