<?xml version="1.0" encoding="UTF-8" standalone="no"?>
<!DOCTYPE svg PUBLIC "-//W3C//DTD SVG 1.1//EN"
 "http://www.w3.org/Graphics/SVG/1.1/DTD/svg11.dtd">
<!-- Generated by graphviz version 7.1.0 (20230121.1956)
 -->
<!-- Title: filter Pages: 1 -->
<svg width="476pt" height="110pt"
 viewBox="0.00 0.00 476.00 110.00" xmlns="http://www.w3.org/2000/svg" xmlns:xlink="http://www.w3.org/1999/xlink">
<g id="graph0" class="graph" transform="scale(1 1) rotate(0) translate(4 106)">
<title>filter</title>
<!-- Node1 -->
<g id="node1" class="node">
<title>Node1</title>
<g id="a_node1"><a xlink:title=" ">
<polygon fill="#999999" stroke="#666666" points="35,-48.5 0,-48.5 0,-29.5 35,-29.5 35,-48.5"/>
<text text-anchor="middle" x="17.5" y="-36.5" font-family="Helvetica,sans-Serif" font-size="10.00">filter</text>
</a>
</g>
</g>
<!-- Node2 -->
<g id="node2" class="node">
<title>Node2</title>
<g id="a_node2"><a xlink:href="../../d3/d1e/namespacedoris_1_1vectorized.html#a1952d57dfc68098f43bf4d015f74ddca" target="_top" xlink:title="Counts how many bytes of filt are greater than zero.">
<polygon fill="white" stroke="#666666" points="185.5,-78 78.5,-78 78.5,-48 185.5,-48 185.5,-78"/>
<text text-anchor="start" x="86.5" y="-66" font-family="Helvetica,sans-Serif" font-size="10.00">doris::vectorized::</text>
<text text-anchor="middle" x="132" y="-55" font-family="Helvetica,sans-Serif" font-size="10.00">count_bytes_in_filter</text>
</a>
</g>
</g>
<!-- Node1&#45;&gt;Node2 -->
<g id="edge1" class="edge">
<title>Node1&#45;&gt;Node2</title>
<path fill="none" stroke="#63b8ff" d="M35.1,-42.54C43.9,-44.42 55.33,-46.86 67.22,-49.39"/>
<polygon fill="#63b8ff" stroke="#63b8ff" points="66.21,-52.76 76.72,-51.42 67.67,-45.91 66.21,-52.76"/>
</g>
<!-- Node6 -->
<g id="node6" class="node">
<title>Node6</title>
<g id="a_node6"><a xlink:href="../../da/d30/class_c_o_w_helper.html#aa14023f47995d24ce0ea777e90a4cb23" target="_top" xlink:title=" ">
<polygon fill="white" stroke="#666666" points="193,-30 71,-30 71,0 193,0 193,-30"/>
<text text-anchor="start" x="79" y="-18" font-family="Helvetica,sans-Serif" font-size="10.00">COWHelper&lt; IColumn,</text>
<text text-anchor="middle" x="132" y="-7" font-family="Helvetica,sans-Serif" font-size="10.00"> ColumnConst &gt;::create</text>
</a>
</g>
</g>
<!-- Node1&#45;&gt;Node6 -->
<g id="edge5" class="edge">
<title>Node1&#45;&gt;Node6</title>
<path fill="none" stroke="#63b8ff" d="M35.1,-35.46C41.97,-33.99 50.43,-32.19 59.47,-30.26"/>
<polygon fill="#63b8ff" stroke="#63b8ff" points="60.18,-33.69 69.23,-28.18 58.72,-26.84 60.18,-33.69"/>
</g>
<!-- Node3 -->
<g id="node3" class="node">
<title>Node3</title>
<g id="a_node3"><a xlink:href="../../df/db2/classdoris_1_1vectorized_1_1_p_o_d_array.html#adc1e16b293a89a9ccc9541058b5ca560" target="_top" xlink:title=" ">
<polygon fill="white" stroke="#666666" points="330.5,-102 235.5,-102 235.5,-72 330.5,-72 330.5,-102"/>
<text text-anchor="start" x="243.5" y="-90" font-family="Helvetica,sans-Serif" font-size="10.00">doris::vectorized::</text>
<text text-anchor="middle" x="283" y="-79" font-family="Helvetica,sans-Serif" font-size="10.00">PODArray::data</text>
</a>
</g>
</g>
<!-- Node2&#45;&gt;Node3 -->
<g id="edge2" class="edge">
<title>Node2&#45;&gt;Node3</title>
<path fill="none" stroke="#63b8ff" d="M185.95,-71.53C198.25,-73.51 211.4,-75.63 223.9,-77.64"/>
<polygon fill="#63b8ff" stroke="#63b8ff" points="223.24,-81.08 233.67,-79.21 224.35,-74.17 223.24,-81.08"/>
</g>
<!-- Node5 -->
<g id="node5" class="node">
<title>Node5</title>
<g id="a_node5"><a xlink:href="../../d5/d9d/classdoris_1_1vectorized_1_1_p_o_d_array_base.html#a259cb5a711406a8c3e5d937eb9350cca" target="_top" xlink:title=" ">
<polygon fill="white" stroke="#666666" points="337,-54 229,-54 229,-24 337,-24 337,-54"/>
<text text-anchor="start" x="237" y="-42" font-family="Helvetica,sans-Serif" font-size="10.00">doris::vectorized::</text>
<text text-anchor="middle" x="283" y="-31" font-family="Helvetica,sans-Serif" font-size="10.00">PODArrayBase::size</text>
</a>
</g>
</g>
<!-- Node2&#45;&gt;Node5 -->
<g id="edge4" class="edge">
<title>Node2&#45;&gt;Node5</title>
<path fill="none" stroke="#63b8ff" d="M185.95,-54.47C196.15,-52.83 206.93,-51.09 217.45,-49.4"/>
<polygon fill="#63b8ff" stroke="#63b8ff" points="217.91,-52.87 227.22,-47.82 216.79,-45.96 217.91,-52.87"/>
</g>
<!-- Node4 -->
<g id="node4" class="node">
<title>Node4</title>
<g id="a_node4"><a xlink:href="../../df/db2/classdoris_1_1vectorized_1_1_p_o_d_array.html#a8e612adde07f46d3398ac6962d676a66" target="_top" xlink:title=" ">
<polygon fill="white" stroke="#666666" points="468,-102 373,-102 373,-72 468,-72 468,-102"/>
<text text-anchor="start" x="381" y="-90" font-family="Helvetica,sans-Serif" font-size="10.00">doris::vectorized::</text>
<text text-anchor="middle" x="420.5" y="-79" font-family="Helvetica,sans-Serif" font-size="10.00">PODArray::t_start</text>
</a>
</g>
</g>
<!-- Node3&#45;&gt;Node4 -->
<g id="edge3" class="edge">
<title>Node3&#45;&gt;Node4</title>
<path fill="none" stroke="#63b8ff" d="M330.63,-87C340.53,-87 351.1,-87 361.37,-87"/>
<polygon fill="#63b8ff" stroke="#63b8ff" points="361.27,-90.5 371.27,-87 361.27,-83.5 361.27,-90.5"/>
</g>
</g>
</svg>
