<?xml version="1.0" encoding="UTF-8" standalone="no"?>
<!DOCTYPE svg PUBLIC "-//W3C//DTD SVG 1.1//EN"
 "http://www.w3.org/Graphics/SVG/1.1/DTD/svg11.dtd">
<!-- Generated by graphviz version 7.1.0 (20230121.1956)
 -->
<!-- Title: writeStartString Pages: 1 -->
<svg width="412pt" height="49pt"
 viewBox="0.00 0.00 412.00 49.00" xmlns="http://www.w3.org/2000/svg" xmlns:xlink="http://www.w3.org/1999/xlink">
<g id="graph0" class="graph" transform="scale(1 1) rotate(0) translate(4 45)">
<title>writeStartString</title>
<!-- Node1 -->
<g id="node1" class="node">
<title>Node1</title>
<g id="a_node1"><a xlink:title=" ">
<polygon fill="#999999" stroke="#666666" points="404,-30 320,-30 320,-11 404,-11 404,-30"/>
<text text-anchor="middle" x="362" y="-18" font-family="Helvetica,sans-Serif" font-size="10.00">writeStartString</text>
</a>
</g>
</g>
<!-- Node2 -->
<g id="node2" class="node">
<title>Node2</title>
<g id="a_node2"><a xlink:href="../../de/d8a/structdoris_1_1vectorized_1_1_convert_impl_generic_to_jsonb.html#a53ab000f377b9fcbac183d2aa917b354" target="_top" xlink:title=" ">
<polygon fill="white" stroke="#666666" points="284,-41 144,-41 144,0 284,0 284,-41"/>
<text text-anchor="start" x="152" y="-29" font-family="Helvetica,sans-Serif" font-size="10.00">doris::vectorized::</text>
<text text-anchor="start" x="152" y="-18" font-family="Helvetica,sans-Serif" font-size="10.00">ConvertImplGenericToJsonb</text>
<text text-anchor="middle" x="214" y="-7" font-family="Helvetica,sans-Serif" font-size="10.00">::execute</text>
</a>
</g>
</g>
<!-- Node1&#45;&gt;Node2 -->
<g id="edge1" class="edge">
<title>Node1&#45;&gt;Node2</title>
<path fill="none" stroke="#63b8ff" d="M308.16,-20.5C300.45,-20.5 292.43,-20.5 284.45,-20.5"/>
<polygon fill="#63b8ff" stroke="#63b8ff" points="308.04,-24 318.04,-20.5 308.04,-17 308.04,-24"/>
</g>
<!-- Node3 -->
<g id="node3" class="node">
<title>Node3</title>
<g id="a_node3"><a xlink:href="../../d1/d1a/classdoris_1_1vectorized_1_1_function_cast.html#ac15cc5b581f5da1a95d7da4df1cee95a" target="_top" xlink:title=" ">
<polygon fill="white" stroke="#666666" points="108,-41 0,-41 0,0 108,0 108,-41"/>
<text text-anchor="start" x="8" y="-29" font-family="Helvetica,sans-Serif" font-size="10.00">doris::vectorized::</text>
<text text-anchor="start" x="8" y="-18" font-family="Helvetica,sans-Serif" font-size="10.00">FunctionCast::create</text>
<text text-anchor="middle" x="54" y="-7" font-family="Helvetica,sans-Serif" font-size="10.00">_jsonb_wrapper</text>
</a>
</g>
</g>
<!-- Node2&#45;&gt;Node3 -->
<g id="edge2" class="edge">
<title>Node2&#45;&gt;Node3</title>
<path fill="none" stroke="#63b8ff" d="M132.45,-20.5C124.19,-20.5 115.95,-20.5 108.09,-20.5"/>
<polygon fill="#63b8ff" stroke="#63b8ff" points="132.19,-24 142.19,-20.5 132.19,-17 132.19,-24"/>
</g>
</g>
</svg>
