<?xml version="1.0" encoding="UTF-8" standalone="no"?>
<!DOCTYPE svg PUBLIC "-//W3C//DTD SVG 1.1//EN"
 "http://www.w3.org/Graphics/SVG/1.1/DTD/svg11.dtd">
<!-- Generated by graphviz version 7.1.0 (20230121.1956)
 -->
<!-- Title: _topn_next Pages: 1 -->
<!--zoomable 1031 -->
<svg id="main" version="1.1" xmlns="http://www.w3.org/2000/svg" xmlns:xlink="http://www.w3.org/1999/xlink" xml:space="preserve" onload="init(evt)">
<style type="text/css"><![CDATA[
.edge:hover path { stroke: red; }
.edge:hover polygon { stroke: red; fill: red; }
]]></style>
<script type="text/javascript"><![CDATA[
var edges = document.getElementsByTagName('g');
if (edges && edges.length) {
  for (var i=0;i<edges.length;i++) {
    if (edges[i].id.substr(0,4)=='edge') {
      edges[i].setAttribute('class','edge');
    }
  }
}
]]></script>
        <defs>
                <circle id="rim" cx="0" cy="0" r="7"/>
                <circle id="rim2" cx="0" cy="0" r="3.5"/>
                <g id="zoomPlus">
                        <use xlink:href="#rim" fill="#404040">
                                <set attributeName="fill" to="#808080" begin="zoomplus.mouseover" end="zoomplus.mouseout"/>
                        </use>
                        <path d="M-4,0h8M0,-4v8" fill="none" stroke="white" stroke-width="1.5" pointer-events="none"/>
                </g>
                <g id="zoomMin">
                        <use xlink:href="#rim" fill="#404040">
                                <set attributeName="fill" to="#808080" begin="zoomminus.mouseover" end="zoomminus.mouseout"/>
                        </use>
                        <path d="M-4,0h8" fill="none" stroke="white" stroke-width="1.5" pointer-events="none"/>
                </g>
                <g id="dirArrow">
                        <path fill="none" stroke="white" stroke-width="1.5" d="M0,-3.0v7 M-2.5,-0.5L0,-3.0L2.5,-0.5"/>
                </g>
               <g id="resetDef">
                       <use xlink:href="#rim2" fill="#404040">
                               <set attributeName="fill" to="#808080" begin="reset.mouseover" end="reset.mouseout"/>
                       </use>
               </g>
        </defs>

<script type="text/javascript">
var viewWidth = 865;
var viewHeight = 1031;
var sectionId = 'dynsection-15';
</script>
<script xlink:href="../../svgpan.js"/>
<svg id="graph" class="graph">
<g id="viewport">
<title>_topn_next</title>
<!-- Node1 -->
<g id="node1" class="node">
<title>Node1</title>
<g id="a_node1"><a xlink:title=" ">
<polygon fill="#999999" stroke="#666666" points="65,-552.5 0,-552.5 0,-533.5 65,-533.5 65,-552.5"/>
<text text-anchor="middle" x="32.5" y="-540.5" font-family="Helvetica,sans-Serif" font-size="10.00">_topn_next</text>
</a>
</g>
</g>
<!-- Node2 -->
<g id="node2" class="node">
<title>Node2</title>
<g id="a_node2"><a xlink:href="../../d2/dfe/classdoris_1_1vectorized_1_1_mutable_block.html#a133347ffddf2fc651b17d73f9d2eafd4" target="_top" xlink:title=" ">
<polygon fill="white" stroke="#666666" points="232,-1017 108,-1017 108,-987 232,-987 232,-1017"/>
<text text-anchor="start" x="116" y="-1005" font-family="Helvetica,sans-Serif" font-size="10.00">doris::vectorized::</text>
<text text-anchor="middle" x="170" y="-994" font-family="Helvetica,sans-Serif" font-size="10.00">MutableBlock::add_rows</text>
</a>
</g>
</g>
<!-- Node1&#45;&gt;Node2 -->
<g id="edge1" class="edge">
<title>Node1&#45;&gt;Node2</title>
<path fill="none" stroke="#63b8ff" d="M33.69,-552.69C35.03,-610.55 44.63,-910.08 101,-978 101.34,-978.41 101.69,-978.81 102.04,-979.21"/>
<polygon fill="#63b8ff" stroke="#63b8ff" points="99.45,-981.59 109.27,-985.55 104.06,-976.32 99.45,-981.59"/>
</g>
<!-- Node4 -->
<g id="node4" class="node">
<title>Node4</title>
<g id="a_node4"><a xlink:href="../../d2/dfe/classdoris_1_1vectorized_1_1_mutable_block.html#abdc2d45beb620e7a284ee22bbaf21115" target="_top" xlink:title=" ">
<polygon fill="white" stroke="#666666" points="221,-968.5 119,-968.5 119,-927.5 221,-927.5 221,-968.5"/>
<text text-anchor="start" x="127" y="-956.5" font-family="Helvetica,sans-Serif" font-size="10.00">doris::vectorized::</text>
<text text-anchor="start" x="127" y="-945.5" font-family="Helvetica,sans-Serif" font-size="10.00">MutableBlock::build</text>
<text text-anchor="middle" x="170" y="-934.5" font-family="Helvetica,sans-Serif" font-size="10.00">_mutable_block</text>
</a>
</g>
</g>
<!-- Node1&#45;&gt;Node4 -->
<g id="edge3" class="edge">
<title>Node1&#45;&gt;Node4</title>
<path fill="none" stroke="#63b8ff" d="M34.05,-553C37.18,-606.48 54.26,-858.61 101,-918 103.43,-921.08 106.24,-923.86 109.31,-926.36"/>
<polygon fill="#63b8ff" stroke="#63b8ff" points="107.06,-929.06 117.29,-931.82 111.01,-923.28 107.06,-929.06"/>
</g>
<!-- Node6 -->
<g id="node6" class="node">
<title>Node6</title>
<g id="a_node6"><a xlink:href="../../d2/d12/classdoris_1_1vectorized_1_1_block.html#a5383028d98be36cc4b09611b8ee0fa5a" target="_top" xlink:title=" ">
<polygon fill="white" stroke="#666666" points="234.5,-909 105.5,-909 105.5,-879 234.5,-879 234.5,-909"/>
<text text-anchor="start" x="113.5" y="-897" font-family="Helvetica,sans-Serif" font-size="10.00">doris::vectorized::</text>
<text text-anchor="middle" x="170" y="-886" font-family="Helvetica,sans-Serif" font-size="10.00">Block::clear_column_data</text>
</a>
</g>
</g>
<!-- Node1&#45;&gt;Node6 -->
<g id="edge5" class="edge">
<title>Node1&#45;&gt;Node6</title>
<path fill="none" stroke="#63b8ff" d="M34.24,-552.73C38.13,-601.66 57.74,-820.43 101,-870 101.36,-870.41 101.73,-870.82 102.1,-871.22"/>
<polygon fill="#63b8ff" stroke="#63b8ff" points="99.84,-873.88 109.75,-877.63 104.34,-868.52 99.84,-873.88"/>
</g>
<!-- Node7 -->
<g id="node7" class="node">
<title>Node7</title>
<g id="a_node7"><a xlink:href="../../d2/d12/classdoris_1_1vectorized_1_1_block.html#af762d68b759dacc1dbcd030e61b9c941" target="_top" xlink:title=" ">
<polygon fill="white" stroke="#666666" points="221.5,-861 118.5,-861 118.5,-831 221.5,-831 221.5,-861"/>
<text text-anchor="start" x="126.5" y="-849" font-family="Helvetica,sans-Serif" font-size="10.00">doris::vectorized::</text>
<text text-anchor="middle" x="170" y="-838" font-family="Helvetica,sans-Serif" font-size="10.00">Block::clone_empty</text>
</a>
</g>
</g>
<!-- Node1&#45;&gt;Node7 -->
<g id="edge6" class="edge">
<title>Node1&#45;&gt;Node7</title>
<path fill="none" stroke="#63b8ff" d="M34.61,-552.75C39.86,-597.22 63.51,-780.48 101,-822 103.24,-824.48 105.76,-826.71 108.46,-828.7"/>
<polygon fill="#63b8ff" stroke="#63b8ff" points="106.62,-831.68 116.99,-833.86 110.24,-825.69 106.62,-831.68"/>
</g>
<!-- Node9 -->
<g id="node9" class="node">
<title>Node9</title>
<g id="a_node9"><a xlink:href="../../d9/db8/structdoris_1_1vectorized_1_1_column_with_type_and_name.html#a552dd44c56c8f0f06507cfeddaa93d94" target="_top" xlink:title=" ">
<polygon fill="white" stroke="#666666" points="237.5,-812.5 102.5,-812.5 102.5,-771.5 237.5,-771.5 237.5,-812.5"/>
<text text-anchor="start" x="110.5" y="-800.5" font-family="Helvetica,sans-Serif" font-size="10.00">doris::vectorized::</text>
<text text-anchor="start" x="110.5" y="-789.5" font-family="Helvetica,sans-Serif" font-size="10.00">ColumnWithTypeAndName</text>
<text text-anchor="middle" x="170" y="-778.5" font-family="Helvetica,sans-Serif" font-size="10.00">::clone_empty</text>
</a>
</g>
</g>
<!-- Node1&#45;&gt;Node9 -->
<g id="edge8" class="edge">
<title>Node1&#45;&gt;Node9</title>
<path fill="none" stroke="#63b8ff" d="M33.98,-552.78C36.1,-585.55 47.01,-692.97 101,-757 103.13,-759.52 105.48,-761.88 108,-764.09"/>
<polygon fill="#63b8ff" stroke="#63b8ff" points="105.82,-766.83 115.89,-770.11 110.06,-761.26 105.82,-766.83"/>
</g>
<!-- Node10 -->
<g id="node10" class="node">
<title>Node10</title>
<g id="a_node10"><a xlink:href="../../d2/d12/classdoris_1_1vectorized_1_1_block.html#a08f559e5612203aeedf927d660e77b67" target="_top" xlink:title=" ">
<polygon fill="white" stroke="#666666" points="715.5,-738 620.5,-738 620.5,-708 715.5,-708 715.5,-738"/>
<text text-anchor="start" x="628.5" y="-726" font-family="Helvetica,sans-Serif" font-size="10.00">doris::vectorized::</text>
<text text-anchor="middle" x="668" y="-715" font-family="Helvetica,sans-Serif" font-size="10.00">Block::columns</text>
</a>
</g>
</g>
<!-- Node1&#45;&gt;Node10 -->
<g id="edge9" class="edge">
<title>Node1&#45;&gt;Node10</title>
<path fill="none" stroke="#63b8ff" d="M35.13,-552.91C39.91,-578.52 56.49,-647.03 101,-677 182.68,-732 481.53,-729.17 608.89,-725.28"/>
<polygon fill="#63b8ff" stroke="#63b8ff" points="608.9,-728.78 618.79,-724.96 608.68,-721.78 608.9,-728.78"/>
</g>
<!-- Node11 -->
<g id="node11" class="node">
<title>Node11</title>
<g id="a_node11"><a xlink:href="../../d2/dfe/classdoris_1_1vectorized_1_1_mutable_block.html#a08f559e5612203aeedf927d660e77b67" target="_top" xlink:title=" ">
<polygon fill="white" stroke="#666666" points="229.5,-515 110.5,-515 110.5,-485 229.5,-485 229.5,-515"/>
<text text-anchor="start" x="118.5" y="-503" font-family="Helvetica,sans-Serif" font-size="10.00">doris::vectorized::</text>
<text text-anchor="middle" x="170" y="-492" font-family="Helvetica,sans-Serif" font-size="10.00">MutableBlock::columns</text>
</a>
</g>
</g>
<!-- Node1&#45;&gt;Node11 -->
<g id="edge10" class="edge">
<title>Node1&#45;&gt;Node11</title>
<path fill="none" stroke="#63b8ff" d="M64.93,-533.03C78.27,-528.79 94.27,-523.71 109.69,-518.82"/>
<polygon fill="#63b8ff" stroke="#63b8ff" points="110.31,-522.3 118.78,-515.94 108.19,-515.63 110.31,-522.3"/>
</g>
<!-- Node12 -->
<g id="node12" class="node">
<title>Node12</title>
<g id="a_node12"><a xlink:href="../../d2/dfe/classdoris_1_1vectorized_1_1_mutable_block.html#a623979ed6ea6b2e1af58ed6a88799449" target="_top" xlink:title=" ">
<polygon fill="white" stroke="#666666" points="235,-467 105,-467 105,-437 235,-437 235,-467"/>
<text text-anchor="start" x="113" y="-455" font-family="Helvetica,sans-Serif" font-size="10.00">doris::vectorized::</text>
<text text-anchor="middle" x="170" y="-444" font-family="Helvetica,sans-Serif" font-size="10.00">MutableBlock::data_types</text>
</a>
</g>
</g>
<!-- Node1&#45;&gt;Node12 -->
<g id="edge11" class="edge">
<title>Node1&#45;&gt;Node12</title>
<path fill="none" stroke="#63b8ff" d="M40.78,-533.45C52.17,-519.1 75.55,-491.98 101,-476 102.99,-474.75 105.05,-473.56 107.16,-472.42"/>
<polygon fill="#63b8ff" stroke="#63b8ff" points="108.53,-475.64 115.99,-468.12 105.47,-469.35 108.53,-475.64"/>
</g>
<!-- Node13 -->
<g id="node13" class="node">
<title>Node13</title>
<g id="a_node13"><a xlink:href="../../d6/daf/classdoris_1_1vectorized_1_1_v_expr_context.html#a6a24e26899b094fddc3d4e393b24e3f7" target="_top" xlink:title=" ">
<polygon fill="white" stroke="#666666" points="235.5,-639 104.5,-639 104.5,-609 235.5,-609 235.5,-639"/>
<text text-anchor="start" x="112.5" y="-627" font-family="Helvetica,sans-Serif" font-size="10.00">doris::vectorized::</text>
<text text-anchor="middle" x="170" y="-616" font-family="Helvetica,sans-Serif" font-size="10.00">VExprContext::filter_block</text>
</a>
</g>
</g>
<!-- Node1&#45;&gt;Node13 -->
<g id="edge12" class="edge">
<title>Node1&#45;&gt;Node13</title>
<path fill="none" stroke="#63b8ff" d="M44.34,-552.76C57.19,-563.97 79.55,-582.44 101,-595 106.33,-598.12 112.06,-601.09 117.85,-603.86"/>
<polygon fill="#63b8ff" stroke="#63b8ff" points="116.34,-607.02 126.89,-607.99 119.24,-600.65 116.34,-607.02"/>
</g>
<!-- Node24 -->
<g id="node24" class="node">
<title>Node24</title>
<g id="a_node24"><a xlink:href="../../d2/d12/classdoris_1_1vectorized_1_1_block.html#a54f8f7eae676dfa49029fff7c7ce8f05" target="_top" xlink:title="References are invalidated after calling functions above.">
<polygon fill="white" stroke="#666666" points="726,-417 610,-417 610,-387 726,-387 726,-417"/>
<text text-anchor="start" x="618" y="-405" font-family="Helvetica,sans-Serif" font-size="10.00">doris::vectorized::</text>
<text text-anchor="middle" x="668" y="-394" font-family="Helvetica,sans-Serif" font-size="10.00">Block::get_by_position</text>
</a>
</g>
</g>
<!-- Node1&#45;&gt;Node24 -->
<g id="edge35" class="edge">
<title>Node1&#45;&gt;Node24</title>
<path fill="none" stroke="#63b8ff" d="M65.45,-548.31C108.35,-553.71 185.36,-557.16 239,-524 264.81,-508.05 254.44,-488.31 275,-466 341.32,-394.03 359.06,-365.65 452,-335 503.49,-318.02 522.4,-318.35 574,-335 600.77,-343.64 626.33,-363.17 643.86,-378.92"/>
<polygon fill="#63b8ff" stroke="#63b8ff" points="641.44,-381.46 651.15,-385.71 646.21,-376.33 641.44,-381.46"/>
</g>
<!-- Node27 -->
<g id="node27" class="node">
<title>Node27</title>
<g id="a_node27"><a xlink:href="../../d9/d8d/classdoris_1_1_status.html#a6ec1a217f203269ab53d2290d602db24" target="_top" xlink:title=" ">
<polygon fill="white" stroke="#666666" points="559,-692.5 467,-692.5 467,-673.5 559,-673.5 559,-692.5"/>
<text text-anchor="middle" x="513" y="-680.5" font-family="Helvetica,sans-Serif" font-size="10.00">doris::Status::OK</text>
</a>
</g>
</g>
<!-- Node1&#45;&gt;Node27 -->
<g id="edge43" class="edge">
<title>Node1&#45;&gt;Node27</title>
<path fill="none" stroke="#63b8ff" d="M36.55,-552.99C43.76,-574.64 64.06,-625.75 101,-648 159.13,-683.02 356.5,-685.37 455.04,-684.23"/>
<polygon fill="#63b8ff" stroke="#63b8ff" points="455.09,-687.73 465.04,-684.09 455,-680.73 455.09,-687.73"/>
</g>
<!-- Node29 -->
<g id="node29" class="node">
<title>Node29</title>
<g id="a_node29"><a xlink:href="../../d2/d12/classdoris_1_1vectorized_1_1_block.html#a9be86262d8ec3739dba5e0910c2339ad" target="_top" xlink:title="Returns number of rows from first column in block, not equal to nullptr. If no columns,...">
<polygon fill="white" stroke="#666666" points="393,-505 298,-505 298,-475 393,-475 393,-505"/>
<text text-anchor="start" x="306" y="-493" font-family="Helvetica,sans-Serif" font-size="10.00">doris::vectorized::</text>
<text text-anchor="middle" x="345.5" y="-482" font-family="Helvetica,sans-Serif" font-size="10.00">Block::rows</text>
</a>
</g>
</g>
<!-- Node1&#45;&gt;Node29 -->
<g id="edge44" class="edge">
<title>Node1&#45;&gt;Node29</title>
<path fill="none" stroke="#63b8ff" d="M60.98,-552.95C101.91,-566.05 180.35,-584.39 239,-557 261.58,-546.45 254.47,-528.14 275,-514 278.84,-511.35 283.01,-508.97 287.32,-506.84"/>
<polygon fill="#63b8ff" stroke="#63b8ff" points="288.47,-510.15 296.19,-502.9 285.63,-503.75 288.47,-510.15"/>
</g>
<!-- Node30 -->
<g id="node30" class="node">
<title>Node30</title>
<g id="a_node30"><a xlink:href="../../d6/d34/classdoris_1_1vectorized_1_1_field.html#a2fdabfe471eadbf8dc5f2b55786e1289" target="_top" xlink:title=" ">
<polygon fill="white" stroke="#666666" points="217.5,-419 122.5,-419 122.5,-389 217.5,-389 217.5,-419"/>
<text text-anchor="start" x="130.5" y="-407" font-family="Helvetica,sans-Serif" font-size="10.00">doris::vectorized::</text>
<text text-anchor="middle" x="170" y="-396" font-family="Helvetica,sans-Serif" font-size="10.00">Field::get</text>
</a>
</g>
</g>
<!-- Node1&#45;&gt;Node30 -->
<g id="edge34" class="edge">
<title>Node1&#45;&gt;Node30</title>
<path fill="none" stroke="#63b8ff" d="M36.65,-533.13C44.17,-511.08 65.28,-457.46 101,-428 104.38,-425.21 108.11,-422.74 112.02,-420.54"/>
<polygon fill="#63b8ff" stroke="#63b8ff" points="113.24,-423.84 120.7,-416.31 110.17,-417.55 113.24,-423.84"/>
</g>
<!-- Node31 -->
<g id="node31" class="node">
<title>Node31</title>
<g id="a_node31"><a xlink:href="../../d2/dfe/classdoris_1_1vectorized_1_1_mutable_block.html#a86e0889612603889e3936994fb9b87f9" target="_top" xlink:title=" ">
<polygon fill="white" stroke="#666666" points="236,-370.5 104,-370.5 104,-329.5 236,-329.5 236,-370.5"/>
<text text-anchor="start" x="112" y="-358.5" font-family="Helvetica,sans-Serif" font-size="10.00">doris::vectorized::</text>
<text text-anchor="start" x="112" y="-347.5" font-family="Helvetica,sans-Serif" font-size="10.00">MutableBlock::get_column</text>
<text text-anchor="middle" x="170" y="-336.5" font-family="Helvetica,sans-Serif" font-size="10.00">_by_position</text>
</a>
</g>
</g>
<!-- Node1&#45;&gt;Node31 -->
<g id="edge36" class="edge">
<title>Node1&#45;&gt;Node31</title>
<path fill="none" stroke="#63b8ff" d="M34.97,-533.16C39.58,-505.45 56.26,-425.78 101,-380 101.73,-379.25 102.48,-378.52 103.25,-377.81"/>
<polygon fill="#63b8ff" stroke="#63b8ff" points="105.28,-380.67 110.99,-371.74 100.96,-375.16 105.28,-380.67"/>
</g>
<!-- Node32 -->
<g id="node32" class="node">
<title>Node32</title>
<g id="a_node32"><a xlink:href="../../d2/dfe/classdoris_1_1vectorized_1_1_mutable_block.html#a97fb340f8974c844ef5a4e2f7691153f" target="_top" xlink:title=" ">
<polygon fill="white" stroke="#666666" points="239,-311.5 101,-311.5 101,-270.5 239,-270.5 239,-311.5"/>
<text text-anchor="start" x="109" y="-299.5" font-family="Helvetica,sans-Serif" font-size="10.00">doris::vectorized::</text>
<text text-anchor="start" x="109" y="-288.5" font-family="Helvetica,sans-Serif" font-size="10.00">MutableBlock::get_datatype</text>
<text text-anchor="middle" x="170" y="-277.5" font-family="Helvetica,sans-Serif" font-size="10.00">_by_position</text>
</a>
</g>
</g>
<!-- Node1&#45;&gt;Node32 -->
<g id="edge37" class="edge">
<title>Node1&#45;&gt;Node32</title>
<path fill="none" stroke="#63b8ff" d="M33.66,-533.13C34.72,-499.09 42.68,-385.06 101,-320 101.17,-319.81 101.33,-319.63 101.5,-319.45"/>
<polygon fill="#63b8ff" stroke="#63b8ff" points="103.64,-322.23 108.77,-312.97 98.98,-317.01 103.64,-322.23"/>
</g>
<!-- Node33 -->
<g id="node33" class="node">
<title>Node33</title>
<g id="a_node33"><a xlink:href="../../d2/dfe/classdoris_1_1vectorized_1_1_mutable_block.html#adc15a64ed53b320b16764c96d5b84b01" target="_top" xlink:title=" ">
<polygon fill="white" stroke="#666666" points="235,-252 105,-252 105,-222 235,-222 235,-252"/>
<text text-anchor="start" x="113" y="-240" font-family="Helvetica,sans-Serif" font-size="10.00">doris::vectorized::</text>
<text text-anchor="middle" x="170" y="-229" font-family="Helvetica,sans-Serif" font-size="10.00">MutableBlock::get_names</text>
</a>
</g>
</g>
<!-- Node1&#45;&gt;Node33 -->
<g id="edge38" class="edge">
<title>Node1&#45;&gt;Node33</title>
<path fill="none" stroke="#63b8ff" d="M34.6,-533.15C39.78,-488.2 63.18,-302.99 101,-261 101.37,-260.59 101.74,-260.19 102.12,-259.8"/>
<polygon fill="#63b8ff" stroke="#63b8ff" points="104.34,-262.51 109.85,-253.46 99.9,-257.09 104.34,-262.51"/>
</g>
<!-- Node34 -->
<g id="node34" class="node">
<title>Node34</title>
<g id="a_node34"><a xlink:href="../../d2/d12/classdoris_1_1vectorized_1_1_block.html#a4b218adfc4c76b14589bf33fd41b1a57" target="_top" xlink:title=" ">
<polygon fill="white" stroke="#666666" points="560.5,-779 465.5,-779 465.5,-749 560.5,-749 560.5,-779"/>
<text text-anchor="start" x="473.5" y="-767" font-family="Helvetica,sans-Serif" font-size="10.00">doris::vectorized::</text>
<text text-anchor="middle" x="513" y="-756" font-family="Helvetica,sans-Serif" font-size="10.00">Block::get_names</text>
</a>
</g>
</g>
<!-- Node1&#45;&gt;Node34 -->
<g id="edge39" class="edge">
<title>Node1&#45;&gt;Node34</title>
<path fill="none" stroke="#63b8ff" d="M33.9,-552.63C35.73,-582.86 45.8,-676.44 101,-719 154.79,-760.47 353.68,-765.22 453.73,-764.88"/>
<polygon fill="#63b8ff" stroke="#63b8ff" points="453.64,-768.38 463.62,-764.82 453.6,-761.38 453.64,-768.38"/>
</g>
<!-- Node35 -->
<g id="node35" class="node">
<title>Node35</title>
<g id="a_node35"><a xlink:href="../../d7/dc1/classdoris_1_1_runtime_state.html#adad238592f73789e2f687989e53746f9" target="_top" xlink:title=" ">
<polygon fill="white" stroke="#666666" points="236.5,-204 103.5,-204 103.5,-174 236.5,-174 236.5,-204"/>
<text text-anchor="start" x="111.5" y="-192" font-family="Helvetica,sans-Serif" font-size="10.00">doris::RuntimeState</text>
<text text-anchor="middle" x="170" y="-181" font-family="Helvetica,sans-Serif" font-size="10.00">::get_query_fragments_ctx</text>
</a>
</g>
</g>
<!-- Node1&#45;&gt;Node35 -->
<g id="edge41" class="edge">
<title>Node1&#45;&gt;Node35</title>
<path fill="none" stroke="#63b8ff" d="M34.22,-533.18C38.05,-483.81 57.4,-263.05 101,-213 101.36,-212.59 101.73,-212.18 102.1,-211.78"/>
<polygon fill="#63b8ff" stroke="#63b8ff" points="104.34,-214.48 109.74,-205.36 99.83,-209.12 104.34,-214.48"/>
</g>
<!-- Node36 -->
<g id="node36" class="node">
<title>Node36</title>
<g id="a_node36"><a xlink:href="../../d2/dfe/classdoris_1_1vectorized_1_1_mutable_block.html#aeb23bab6dc837fedc89a6c62ed84a161" target="_top" xlink:title=" ">
<polygon fill="white" stroke="#666666" points="228,-155.5 112,-155.5 112,-114.5 228,-114.5 228,-155.5"/>
<text text-anchor="start" x="120" y="-143.5" font-family="Helvetica,sans-Serif" font-size="10.00">doris::vectorized::</text>
<text text-anchor="start" x="120" y="-132.5" font-family="Helvetica,sans-Serif" font-size="10.00">MutableBlock::mutable</text>
<text text-anchor="middle" x="170" y="-121.5" font-family="Helvetica,sans-Serif" font-size="10.00">_columns</text>
</a>
</g>
</g>
<!-- Node1&#45;&gt;Node36 -->
<g id="edge42" class="edge">
<title>Node1&#45;&gt;Node36</title>
<path fill="none" stroke="#63b8ff" d="M34.02,-533.28C37.04,-480.13 53.84,-225.02 101,-165 101.76,-164.04 102.55,-163.1 103.38,-162.2"/>
<polygon fill="#63b8ff" stroke="#63b8ff" points="105.38,-165.1 110.51,-155.83 100.72,-159.88 105.38,-165.1"/>
</g>
<!-- Node37 -->
<g id="node37" class="node">
<title>Node37</title>
<g id="a_node37"><a xlink:href="../../d2/dfe/classdoris_1_1vectorized_1_1_mutable_block.html#a9be86262d8ec3739dba5e0910c2339ad" target="_top" xlink:title=" ">
<polygon fill="white" stroke="#666666" points="221.5,-96 118.5,-96 118.5,-66 221.5,-66 221.5,-96"/>
<text text-anchor="start" x="126.5" y="-84" font-family="Helvetica,sans-Serif" font-size="10.00">doris::vectorized::</text>
<text text-anchor="middle" x="170" y="-73" font-family="Helvetica,sans-Serif" font-size="10.00">MutableBlock::rows</text>
</a>
</g>
</g>
<!-- Node1&#45;&gt;Node37 -->
<g id="edge45" class="edge">
<title>Node1&#45;&gt;Node37</title>
<path fill="none" stroke="#63b8ff" d="M33.68,-533.24C34.96,-474.99 44.28,-173.41 101,-105 103.24,-102.29 105.82,-99.89 108.61,-97.76"/>
<polygon fill="#63b8ff" stroke="#63b8ff" points="110.25,-100.86 116.92,-92.63 106.57,-94.91 110.25,-100.86"/>
</g>
<!-- Node38 -->
<g id="node38" class="node">
<title>Node38</title>
<g id="a_node38"><a xlink:href="../../d2/dfe/classdoris_1_1vectorized_1_1_mutable_block.html#a0a4af389bbb4d5df4512d66a4531c02a" target="_top" xlink:title=" ">
<polygon fill="white" stroke="#666666" points="229.5,-30 110.5,-30 110.5,0 229.5,0 229.5,-30"/>
<text text-anchor="start" x="118.5" y="-18" font-family="Helvetica,sans-Serif" font-size="10.00">doris::vectorized::</text>
<text text-anchor="middle" x="170" y="-7" font-family="Helvetica,sans-Serif" font-size="10.00">MutableBlock::to_block</text>
</a>
</g>
</g>
<!-- Node1&#45;&gt;Node38 -->
<g id="edge46" class="edge">
<title>Node1&#45;&gt;Node38</title>
<path fill="none" stroke="#63b8ff" d="M33.75,-533.17C35.44,-471.67 47.03,-139.78 101,-57 106.28,-48.9 113.73,-42.09 121.78,-36.48"/>
<polygon fill="#63b8ff" stroke="#63b8ff" points="123.51,-39.52 130.12,-31.24 119.79,-33.6 123.51,-39.52"/>
</g>
<!-- Node3 -->
<g id="node3" class="node">
<title>Node3</title>
<g id="a_node3"><a xlink:href="../../d2/d12/classdoris_1_1vectorized_1_1_block.html#a79a5eaccd78c58ebaacb39fe0d6d70eb" target="_top" xlink:title=" ">
<polygon fill="white" stroke="#666666" points="408.5,-1022.5 282.5,-1022.5 282.5,-981.5 408.5,-981.5 408.5,-1022.5"/>
<text text-anchor="start" x="290.5" y="-1010.5" font-family="Helvetica,sans-Serif" font-size="10.00">doris::vectorized::</text>
<text text-anchor="start" x="290.5" y="-999.5" font-family="Helvetica,sans-Serif" font-size="10.00">Block::get_columns_with</text>
<text text-anchor="middle" x="345.5" y="-988.5" font-family="Helvetica,sans-Serif" font-size="10.00">_type_and_name</text>
</a>
</g>
</g>
<!-- Node2&#45;&gt;Node3 -->
<g id="edge2" class="edge">
<title>Node2&#45;&gt;Node3</title>
<path fill="none" stroke="#63b8ff" d="M232.17,-1002C244.7,-1002 258,-1002 270.91,-1002"/>
<polygon fill="#63b8ff" stroke="#63b8ff" points="270.61,-1005.5 280.61,-1002 270.61,-998.5 270.61,-1005.5"/>
</g>
<!-- Node5 -->
<g id="node5" class="node">
<title>Node5</title>
<g id="a_node5"><a xlink:href="../../d2/dfe/classdoris_1_1vectorized_1_1_mutable_block.html#a2a1761c4be5ad83486536ee9617f9ee9" target="_top" xlink:title=" ">
<polygon fill="white" stroke="#666666" points="416,-963 275,-963 275,-933 416,-933 416,-963"/>
<text text-anchor="start" x="283" y="-951" font-family="Helvetica,sans-Serif" font-size="10.00">doris::vectorized::</text>
<text text-anchor="middle" x="345.5" y="-940" font-family="Helvetica,sans-Serif" font-size="10.00">MutableBlock::MutableBlock</text>
</a>
</g>
</g>
<!-- Node4&#45;&gt;Node5 -->
<g id="edge4" class="edge">
<title>Node4&#45;&gt;Node5</title>
<path fill="none" stroke="#63b8ff" d="M221.18,-948C234.37,-948 248.94,-948 263.3,-948"/>
<polygon fill="#63b8ff" stroke="#63b8ff" points="263.24,-951.5 273.24,-948 263.24,-944.5 263.24,-951.5"/>
</g>
<!-- Node8 -->
<g id="node8" class="node">
<title>Node8</title>
<g id="a_node8"><a xlink:href="../../d2/d12/classdoris_1_1vectorized_1_1_block.html#a77f369726854ebacb96fb49e7146e980" target="_top" xlink:title="insert the column at the specified position">
<polygon fill="white" stroke="#666666" points="393,-861 298,-861 298,-831 393,-831 393,-861"/>
<text text-anchor="start" x="306" y="-849" font-family="Helvetica,sans-Serif" font-size="10.00">doris::vectorized::</text>
<text text-anchor="middle" x="345.5" y="-838" font-family="Helvetica,sans-Serif" font-size="10.00">Block::insert</text>
</a>
</g>
</g>
<!-- Node7&#45;&gt;Node8 -->
<g id="edge7" class="edge">
<title>Node7&#45;&gt;Node8</title>
<path fill="none" stroke="#63b8ff" d="M221.65,-846C241.9,-846 265.35,-846 286.3,-846"/>
<polygon fill="#63b8ff" stroke="#63b8ff" points="286.13,-849.5 296.13,-846 286.13,-842.5 286.13,-849.5"/>
</g>
<!-- Node14 -->
<g id="node14" class="node">
<title>Node14</title>
<g id="a_node14"><a xlink:href="../../d6/daf/classdoris_1_1vectorized_1_1_v_expr_context.html#a9ff611a768daebb3147dfcc87d0ddf35" target="_top" xlink:title=" ">
<polygon fill="white" stroke="#666666" points="405,-553 286,-553 286,-523 405,-523 405,-553"/>
<text text-anchor="start" x="294" y="-541" font-family="Helvetica,sans-Serif" font-size="10.00">doris::vectorized::</text>
<text text-anchor="middle" x="345.5" y="-530" font-family="Helvetica,sans-Serif" font-size="10.00">VExprContext::execute</text>
</a>
</g>
</g>
<!-- Node13&#45;&gt;Node14 -->
<g id="edge13" class="edge">
<title>Node13&#45;&gt;Node14</title>
<path fill="none" stroke="#63b8ff" d="M213.49,-608.51C222.21,-604.61 231.13,-600.08 239,-595 257.24,-583.24 256.35,-573.11 275,-562 277.18,-560.7 279.45,-559.46 281.77,-558.27"/>
<polygon fill="#63b8ff" stroke="#63b8ff" points="283.24,-561.44 290.83,-554.06 280.29,-555.1 283.24,-561.44"/>
</g>
<!-- Node16 -->
<g id="node16" class="node">
<title>Node16</title>
<g id="a_node16"><a xlink:href="../../d2/d12/classdoris_1_1vectorized_1_1_block.html#a7eb80c38778d1cf2cf2cf25fcbd30eaf" target="_top" xlink:title=" ">
<polygon fill="white" stroke="#666666" points="393,-601 298,-601 298,-571 393,-571 393,-601"/>
<text text-anchor="start" x="306" y="-589" font-family="Helvetica,sans-Serif" font-size="10.00">doris::vectorized::</text>
<text text-anchor="middle" x="345.5" y="-578" font-family="Helvetica,sans-Serif" font-size="10.00">Block::filter_block</text>
</a>
</g>
</g>
<!-- Node13&#45;&gt;Node16 -->
<g id="edge15" class="edge">
<title>Node13&#45;&gt;Node16</title>
<path fill="none" stroke="#63b8ff" d="M235.6,-609.85C252.36,-606.18 270.29,-602.25 286.67,-598.67"/>
<polygon fill="#63b8ff" stroke="#63b8ff" points="287.23,-602.13 296.25,-596.57 285.73,-595.29 287.23,-602.13"/>
</g>
<!-- Node13&#45;&gt;Node27 -->
<g id="edge32" class="edge">
<title>Node13&#45;&gt;Node27</title>
<path fill="none" stroke="#63b8ff" d="M235.76,-628.38C285.46,-632.53 355.58,-640.1 416,-653 418.87,-653.61 445.19,-661.85 469.55,-669.54"/>
<polygon fill="#63b8ff" stroke="#63b8ff" points="468.47,-672.87 479.06,-672.55 470.58,-666.2 468.47,-672.87"/>
</g>
<!-- Node13&#45;&gt;Node29 -->
<g id="edge33" class="edge">
<title>Node13&#45;&gt;Node29</title>
<path fill="none" stroke="#63b8ff" d="M219.9,-608.54C226.86,-604.87 233.51,-600.4 239,-595 267.07,-567.35 245.98,-540.64 275,-514 278.75,-510.56 283.02,-507.6 287.56,-505.07"/>
<polygon fill="#63b8ff" stroke="#63b8ff" points="288.93,-508.3 296.45,-500.83 285.91,-501.98 288.93,-508.3"/>
</g>
<!-- Node15 -->
<g id="node15" class="node">
<title>Node15</title>
<g id="a_node15"><a xlink:href="../../d0/d2e/classdoris_1_1vectorized_1_1_v_expr.html#a1373c921466e4b47184c64a1df57ebbe" target="_top" xlink:title=" ">
<polygon fill="white" stroke="#666666" points="560.5,-374 465.5,-374 465.5,-344 560.5,-344 560.5,-374"/>
<text text-anchor="start" x="473.5" y="-362" font-family="Helvetica,sans-Serif" font-size="10.00">doris::vectorized::</text>
<text text-anchor="middle" x="513" y="-351" font-family="Helvetica,sans-Serif" font-size="10.00">VExpr::execute</text>
</a>
</g>
</g>
<!-- Node14&#45;&gt;Node15 -->
<g id="edge14" class="edge">
<title>Node14&#45;&gt;Node15</title>
<path fill="none" stroke="#63b8ff" d="M405.26,-522.68C409.19,-520.21 412.84,-517.34 416,-514 456.05,-471.72 414.51,-432.57 452,-388 454.13,-385.47 456.53,-383.14 459.12,-381"/>
<polygon fill="#63b8ff" stroke="#63b8ff" points="461.07,-383.91 467.26,-375.31 457.06,-378.17 461.07,-383.91"/>
</g>
<!-- Node17 -->
<g id="node17" class="node">
<title>Node17</title>
<g id="a_node17"><a xlink:href="../../df/db2/classdoris_1_1vectorized_1_1_p_o_d_array.html#adc1e16b293a89a9ccc9541058b5ca560" target="_top" xlink:title=" ">
<polygon fill="white" stroke="#666666" points="715.5,-524 620.5,-524 620.5,-494 715.5,-494 715.5,-524"/>
<text text-anchor="start" x="628.5" y="-512" font-family="Helvetica,sans-Serif" font-size="10.00">doris::vectorized::</text>
<text text-anchor="middle" x="668" y="-501" font-family="Helvetica,sans-Serif" font-size="10.00">PODArray::data</text>
</a>
</g>
</g>
<!-- Node16&#45;&gt;Node17 -->
<g id="edge16" class="edge">
<title>Node16&#45;&gt;Node17</title>
<path fill="none" stroke="#63b8ff" d="M393.45,-574.72C450.65,-560.98 547.3,-537.76 609.08,-522.92"/>
<polygon fill="#63b8ff" stroke="#63b8ff" points="609.81,-526.34 618.72,-520.6 608.18,-519.53 609.81,-526.34"/>
</g>
<!-- Node19 -->
<g id="node19" class="node">
<title>Node19</title>
<g id="a_node19"><a xlink:href="../../d2/d12/classdoris_1_1vectorized_1_1_block.html#ac792f9b07de8cc5cf44c1cddcb3889e3" target="_top" xlink:title=" ">
<polygon fill="white" stroke="#666666" points="568,-655.5 458,-655.5 458,-614.5 568,-614.5 568,-655.5"/>
<text text-anchor="start" x="466" y="-643.5" font-family="Helvetica,sans-Serif" font-size="10.00">doris::vectorized::</text>
<text text-anchor="start" x="466" y="-632.5" font-family="Helvetica,sans-Serif" font-size="10.00">Block::erase_useless</text>
<text text-anchor="middle" x="513" y="-621.5" font-family="Helvetica,sans-Serif" font-size="10.00">_column</text>
</a>
</g>
</g>
<!-- Node16&#45;&gt;Node19 -->
<g id="edge18" class="edge">
<title>Node16&#45;&gt;Node19</title>
<path fill="none" stroke="#63b8ff" d="M393.48,-599.91C410.02,-604.81 428.92,-610.4 446.7,-615.67"/>
<polygon fill="#63b8ff" stroke="#63b8ff" points="445.56,-618.98 456.14,-618.46 447.54,-612.27 445.56,-618.98"/>
</g>
<!-- Node22 -->
<g id="node22" class="node">
<title>Node22</title>
<g id="a_node22"><a xlink:href="../../d2/d12/classdoris_1_1vectorized_1_1_block.html#aa070952cbe0b73fb1bb7f44f8ad14f82" target="_top" xlink:title=" ">
<polygon fill="white" stroke="#666666" points="560.5,-471.5 465.5,-471.5 465.5,-430.5 560.5,-430.5 560.5,-471.5"/>
<text text-anchor="start" x="473.5" y="-459.5" font-family="Helvetica,sans-Serif" font-size="10.00">doris::vectorized::</text>
<text text-anchor="start" x="473.5" y="-448.5" font-family="Helvetica,sans-Serif" font-size="10.00">Block::filter_block</text>
<text text-anchor="middle" x="513" y="-437.5" font-family="Helvetica,sans-Serif" font-size="10.00">_internal</text>
</a>
</g>
</g>
<!-- Node16&#45;&gt;Node22 -->
<g id="edge22" class="edge">
<title>Node16&#45;&gt;Node22</title>
<path fill="none" stroke="#63b8ff" d="M393.19,-575.82C401.47,-572.44 409.51,-567.96 416,-562 445.02,-535.36 424.78,-509.48 452,-481 453.33,-479.61 454.73,-478.28 456.2,-476.99"/>
<polygon fill="#63b8ff" stroke="#63b8ff" points="458.09,-479.95 463.98,-471.14 453.88,-474.36 458.09,-479.95"/>
</g>
<!-- Node16&#45;&gt;Node24 -->
<g id="edge27" class="edge">
<title>Node16&#45;&gt;Node24</title>
<path fill="none" stroke="#63b8ff" d="M393.31,-576.96C401.78,-573.48 409.86,-568.67 416,-562 459.81,-514.42 402.72,-462.89 452,-421 491.83,-387.15 552.09,-384.55 598.69,-389.19"/>
<polygon fill="#63b8ff" stroke="#63b8ff" points="598.08,-392.64 608.42,-390.3 598.88,-385.69 598.08,-392.64"/>
</g>
<!-- Node25 -->
<g id="node25" class="node">
<title>Node25</title>
<g id="a_node25"><a xlink:href="../../d5/d9d/classdoris_1_1vectorized_1_1_p_o_d_array_base.html#a259cb5a711406a8c3e5d937eb9350cca" target="_top" xlink:title=" ">
<polygon fill="white" stroke="#666666" points="722,-582 614,-582 614,-552 722,-552 722,-582"/>
<text text-anchor="start" x="622" y="-570" font-family="Helvetica,sans-Serif" font-size="10.00">doris::vectorized::</text>
<text text-anchor="middle" x="668" y="-559" font-family="Helvetica,sans-Serif" font-size="10.00">PODArrayBase::size</text>
</a>
</g>
</g>
<!-- Node16&#45;&gt;Node25 -->
<g id="edge31" class="edge">
<title>Node16&#45;&gt;Node25</title>
<path fill="none" stroke="#63b8ff" d="M393.45,-583.22C448.61,-579.95 540.44,-574.5 602.32,-570.83"/>
<polygon fill="#63b8ff" stroke="#63b8ff" points="602.22,-574.35 612,-570.26 601.81,-567.36 602.22,-574.35"/>
</g>
<!-- Node26 -->
<g id="node26" class="node">
<title>Node26</title>
<g id="a_node26"><a xlink:href="../../df/d15/classdoris_1_1vectorized_1_1_column_vector.html#a3206c08675c03058605f3a6e5a452b5c" target="_top" xlink:title=" ">
<polygon fill="white" stroke="#666666" points="574,-520 452,-520 452,-490 574,-490 574,-520"/>
<text text-anchor="start" x="460" y="-508" font-family="Helvetica,sans-Serif" font-size="10.00">doris::vectorized::</text>
<text text-anchor="middle" x="513" y="-497" font-family="Helvetica,sans-Serif" font-size="10.00">ColumnVector::get_data</text>
</a>
</g>
</g>
<!-- Node16&#45;&gt;Node26 -->
<g id="edge28" class="edge">
<title>Node16&#45;&gt;Node26</title>
<path fill="none" stroke="#63b8ff" d="M393.39,-572.18C401.13,-569.23 408.93,-565.83 416,-562 433.82,-552.34 434.78,-544.69 452,-534 456.79,-531.02 461.93,-528.13 467.12,-525.4"/>
<polygon fill="#63b8ff" stroke="#63b8ff" points="468.38,-528.68 475.72,-521.04 465.21,-522.44 468.38,-528.68"/>
</g>
<!-- Node16&#45;&gt;Node27 -->
<g id="edge29" class="edge">
<title>Node16&#45;&gt;Node27</title>
<path fill="none" stroke="#63b8ff" d="M393.31,-601.4C401.31,-605.16 409.22,-609.67 416,-615 437.24,-631.7 430.04,-648.26 452,-664 454.17,-665.56 456.48,-666.99 458.87,-668.31"/>
<polygon fill="#63b8ff" stroke="#63b8ff" points="457.18,-671.38 467.72,-672.47 460.16,-665.05 457.18,-671.38"/>
</g>
<!-- Node18 -->
<g id="node18" class="node">
<title>Node18</title>
<g id="a_node18"><a xlink:href="../../df/db2/classdoris_1_1vectorized_1_1_p_o_d_array.html#a8e612adde07f46d3398ac6962d676a66" target="_top" xlink:title=" ">
<polygon fill="white" stroke="#666666" points="857,-524 762,-524 762,-494 857,-494 857,-524"/>
<text text-anchor="start" x="770" y="-512" font-family="Helvetica,sans-Serif" font-size="10.00">doris::vectorized::</text>
<text text-anchor="middle" x="809.5" y="-501" font-family="Helvetica,sans-Serif" font-size="10.00">PODArray::t_start</text>
</a>
</g>
</g>
<!-- Node17&#45;&gt;Node18 -->
<g id="edge17" class="edge">
<title>Node17&#45;&gt;Node18</title>
<path fill="none" stroke="#63b8ff" d="M715.84,-509C726.88,-509 738.78,-509 750.26,-509"/>
<polygon fill="#63b8ff" stroke="#63b8ff" points="750.03,-512.5 760.03,-509 750.03,-505.5 750.03,-512.5"/>
</g>
<!-- Node19&#45;&gt;Node10 -->
<g id="edge19" class="edge">
<title>Node19&#45;&gt;Node10</title>
<path fill="none" stroke="#63b8ff" d="M560.98,-655.96C565.49,-658.48 569.9,-661.18 574,-664 592.12,-676.49 591.65,-685.85 610,-698 612.24,-699.49 614.59,-700.92 616.99,-702.29"/>
<polygon fill="#63b8ff" stroke="#63b8ff" points="615.31,-705.36 625.79,-706.92 618.57,-699.17 615.31,-705.36"/>
</g>
<!-- Node20 -->
<g id="node20" class="node">
<title>Node20</title>
<g id="a_node20"><a xlink:href="../../d2/d12/classdoris_1_1vectorized_1_1_block.html#a9d6412d01018cbe3a62047e8cda05507" target="_top" xlink:title="remove the column at the specified position">
<polygon fill="white" stroke="#666666" points="715.5,-650 620.5,-650 620.5,-620 715.5,-620 715.5,-650"/>
<text text-anchor="start" x="628.5" y="-638" font-family="Helvetica,sans-Serif" font-size="10.00">doris::vectorized::</text>
<text text-anchor="middle" x="668" y="-627" font-family="Helvetica,sans-Serif" font-size="10.00">Block::erase</text>
</a>
</g>
</g>
<!-- Node19&#45;&gt;Node20 -->
<g id="edge20" class="edge">
<title>Node19&#45;&gt;Node20</title>
<path fill="none" stroke="#63b8ff" d="M568.37,-635C581.53,-635 595.63,-635 608.95,-635"/>
<polygon fill="#63b8ff" stroke="#63b8ff" points="608.89,-638.5 618.89,-635 608.89,-631.5 608.89,-638.5"/>
</g>
<!-- Node21 -->
<g id="node21" class="node">
<title>Node21</title>
<g id="a_node21"><a xlink:href="../../d2/d12/classdoris_1_1vectorized_1_1_block.html#a77876dcf62594f5de42179964e5bbda0" target="_top" xlink:title=" ">
<polygon fill="white" stroke="#666666" points="857,-650 762,-650 762,-620 857,-620 857,-650"/>
<text text-anchor="start" x="770" y="-638" font-family="Helvetica,sans-Serif" font-size="10.00">doris::vectorized::</text>
<text text-anchor="middle" x="809.5" y="-627" font-family="Helvetica,sans-Serif" font-size="10.00">Block::erase_impl</text>
</a>
</g>
</g>
<!-- Node20&#45;&gt;Node21 -->
<g id="edge21" class="edge">
<title>Node20&#45;&gt;Node21</title>
<path fill="none" stroke="#63b8ff" d="M715.84,-635C726.88,-635 738.78,-635 750.26,-635"/>
<polygon fill="#63b8ff" stroke="#63b8ff" points="750.03,-638.5 760.03,-635 750.03,-631.5 750.03,-638.5"/>
</g>
<!-- Node22&#45;&gt;Node17 -->
<g id="edge24" class="edge">
<title>Node22&#45;&gt;Node17</title>
<path fill="none" stroke="#63b8ff" d="M560.74,-468.72C578.06,-475.28 597.79,-482.76 615.51,-489.48"/>
<polygon fill="#63b8ff" stroke="#63b8ff" points="614.24,-492.74 624.83,-493.01 616.72,-486.2 614.24,-492.74"/>
</g>
<!-- Node23 -->
<g id="node23" class="node">
<title>Node23</title>
<g id="a_node23"><a xlink:href="../../d1/d97/namespacedoris_1_1simd.html#a654cb15803d4b93a304e5c59142922ce" target="_top" xlink:title=" ">
<polygon fill="white" stroke="#666666" points="715.5,-466 620.5,-466 620.5,-436 715.5,-436 715.5,-466"/>
<text text-anchor="start" x="628.5" y="-454" font-family="Helvetica,sans-Serif" font-size="10.00">doris::simd::count</text>
<text text-anchor="middle" x="668" y="-443" font-family="Helvetica,sans-Serif" font-size="10.00">_zero_num</text>
</a>
</g>
</g>
<!-- Node22&#45;&gt;Node23 -->
<g id="edge23" class="edge">
<title>Node22&#45;&gt;Node23</title>
<path fill="none" stroke="#63b8ff" d="M560.74,-451C575.87,-451 592.84,-451 608.71,-451"/>
<polygon fill="#63b8ff" stroke="#63b8ff" points="608.51,-454.5 618.51,-451 608.51,-447.5 608.51,-454.5"/>
</g>
<!-- Node22&#45;&gt;Node24 -->
<g id="edge25" class="edge">
<title>Node22&#45;&gt;Node24</title>
<path fill="none" stroke="#63b8ff" d="M560.74,-436.03C575.66,-431.25 592.37,-425.9 608.05,-420.88"/>
<polygon fill="#63b8ff" stroke="#63b8ff" points="608.8,-424.31 617.26,-417.93 606.67,-417.65 608.8,-424.31"/>
</g>
<!-- Node22&#45;&gt;Node25 -->
<g id="edge26" class="edge">
<title>Node22&#45;&gt;Node25</title>
<path fill="none" stroke="#63b8ff" d="M560.71,-471.36C565.42,-474.27 569.95,-477.49 574,-481 595.24,-499.42 589.46,-513.81 610,-533 614.85,-537.54 620.41,-541.75 626.11,-545.57"/>
<polygon fill="#63b8ff" stroke="#63b8ff" points="624.12,-548.45 634.46,-550.78 627.83,-542.51 624.12,-548.45"/>
</g>
<!-- Node28 -->
<g id="node28" class="node">
<title>Node28</title>
<g id="a_node28"><a xlink:href="../../d9/d8d/classdoris_1_1_status.html#aafde58df1b2a6a91d5b674373be3ffc5" target="_top" xlink:title=" ">
<polygon fill="white" stroke="#666666" points="721.5,-689.5 614.5,-689.5 614.5,-670.5 721.5,-670.5 721.5,-689.5"/>
<text text-anchor="middle" x="668" y="-677.5" font-family="Helvetica,sans-Serif" font-size="10.00">doris::Status::Status</text>
</a>
</g>
</g>
<!-- Node27&#45;&gt;Node28 -->
<g id="edge30" class="edge">
<title>Node27&#45;&gt;Node28</title>
<path fill="none" stroke="#63b8ff" d="M559.49,-682.11C573.04,-681.84 588.16,-681.55 602.68,-681.26"/>
<polygon fill="#63b8ff" stroke="#63b8ff" points="602.71,-684.76 612.64,-681.07 602.57,-677.76 602.71,-684.76"/>
</g>
<!-- Node34&#45;&gt;Node10 -->
<g id="edge40" class="edge">
<title>Node34&#45;&gt;Node10</title>
<path fill="none" stroke="#63b8ff" d="M560.74,-751.48C576.02,-747.38 593.17,-742.78 609.17,-738.5"/>
<polygon fill="#63b8ff" stroke="#63b8ff" points="609.81,-741.95 618.56,-735.98 608,-735.19 609.81,-741.95"/>
</g>
<!-- Node38&#45;&gt;Node38 -->
<g id="edge47" class="edge">
<title>Node38&#45;&gt;Node38</title>
<path fill="none" stroke="#63b8ff" d="M145.83,-30.28C140.46,-39.41 148.52,-48 170,-48 181.75,-48 189.48,-45.43 193.2,-41.61"/>
<polygon fill="#63b8ff" stroke="#63b8ff" points="196.68,-42.05 194.04,-31.78 189.7,-41.45 196.68,-42.05"/>
</g>
</g>
</svg>
        <g id="navigator" transform="translate(0 0)" fill="#404254">
                <rect fill="#f2f5e9" fill-opacity="0.5" stroke="#606060" stroke-width=".5" x="0" y="0" width="60" height="60"/>
                <use id="zoomplus" xlink:href="#zoomPlus" x="17" y="9" onmousedown="handleZoom(evt,'in')"/>
                <use id="zoomminus" xlink:href="#zoomMin" x="42" y="9" onmousedown="handleZoom(evt,'out')"/>
                <use id="reset" xlink:href="#resetDef" x="30" y="36" onmousedown="handleReset()"/>
                <g id="arrowUp" xlink:href="#dirArrow" transform="translate(30 24)" onmousedown="handlePan(0,-1)">
                  <use xlink:href="#rim" fill="#404040">
                        <set attributeName="fill" to="#808080" begin="arrowUp.mouseover" end="arrowUp.mouseout"/>
                  </use>
                  <path fill="none" stroke="white" stroke-width="1.5" d="M0,-3.0v7 M-2.5,-0.5L0,-3.0L2.5,-0.5"/>
                </g>
                <g id="arrowRight" xlink:href="#dirArrow" transform="rotate(90) translate(36 -43)" onmousedown="handlePan(1,0)">
                  <use xlink:href="#rim" fill="#404040">
                        <set attributeName="fill" to="#808080" begin="arrowRight.mouseover" end="arrowRight.mouseout"/>
                  </use>
                  <path fill="none" stroke="white" stroke-width="1.5" d="M0,-3.0v7 M-2.5,-0.5L0,-3.0L2.5,-0.5"/>
                </g>
                <g id="arrowDown" xlink:href="#dirArrow" transform="rotate(180) translate(-30 -48)" onmousedown="handlePan(0,1)">
                  <use xlink:href="#rim" fill="#404040">
                        <set attributeName="fill" to="#808080" begin="arrowDown.mouseover" end="arrowDown.mouseout"/>
                  </use>
                  <path fill="none" stroke="white" stroke-width="1.5" d="M0,-3.0v7 M-2.5,-0.5L0,-3.0L2.5,-0.5"/>
                </g>
                <g id="arrowLeft" xlink:href="#dirArrow" transform="rotate(270) translate(-36 17)" onmousedown="handlePan(-1,0)">
                  <use xlink:href="#rim" fill="#404040">
                        <set attributeName="fill" to="#808080" begin="arrowLeft.mouseover" end="arrowLeft.mouseout"/>
                  </use>
                  <path fill="none" stroke="white" stroke-width="1.5" d="M0,-3.0v7 M-2.5,-0.5L0,-3.0L2.5,-0.5"/>
                </g>
        </g>
        <svg viewBox="0 0 15 15" width="100%" height="30px" preserveAspectRatio="xMaxYMin meet">
         <g id="arrow_out" transform="scale(0.3 0.3)">
          <a xlink:href="classdoris_1_1vectorized_1_1_v_collect_iterator_abae1f5cbad845d5f1c4fa16b128aec3d_cgraph_org.svg" target="_base">
           <rect id="button" ry="5" rx="5" y="6" x="6" height="38" width="38"
                fill="#f2f5e9" fill-opacity="0.5" stroke="#606060" stroke-width="1.0"/>
           <path id="arrow"
             d="M 11.500037,31.436501 C 11.940474,20.09759 22.043105,11.32322 32.158766,21.979434 L 37.068811,17.246167 C 37.068811,17.246167 37.088388,32 37.088388,32 L 22.160133,31.978069 C 22.160133,31.978069 26.997745,27.140456 26.997745,27.140456 C 18.528582,18.264221 13.291696,25.230495 11.500037,31.436501 z"
             style="fill:#404040;"/>
          </a>
         </g>
        </svg>
</svg>
