<?xml version="1.0" encoding="UTF-8" standalone="no"?>
<!DOCTYPE svg PUBLIC "-//W3C//DTD SVG 1.1//EN"
 "http://www.w3.org/Graphics/SVG/1.1/DTD/svg11.dtd">
<!-- Generated by graphviz version 7.1.0 (20230121.1956)
 -->
<!-- Title: _open_file Pages: 1 -->
<!--zoomable 167 -->
<svg id="main" version="1.1" xmlns="http://www.w3.org/2000/svg" xmlns:xlink="http://www.w3.org/1999/xlink" xml:space="preserve" onload="init(evt)">
<style type="text/css"><![CDATA[
.edge:hover path { stroke: red; }
.edge:hover polygon { stroke: red; fill: red; }
]]></style>
<script type="text/javascript"><![CDATA[
var edges = document.getElementsByTagName('g');
if (edges && edges.length) {
  for (var i=0;i<edges.length;i++) {
    if (edges[i].id.substr(0,4)=='edge') {
      edges[i].setAttribute('class','edge');
    }
  }
}
]]></script>
        <defs>
                <circle id="rim" cx="0" cy="0" r="7"/>
                <circle id="rim2" cx="0" cy="0" r="3.5"/>
                <g id="zoomPlus">
                        <use xlink:href="#rim" fill="#404040">
                                <set attributeName="fill" to="#808080" begin="zoomplus.mouseover" end="zoomplus.mouseout"/>
                        </use>
                        <path d="M-4,0h8M0,-4v8" fill="none" stroke="white" stroke-width="1.5" pointer-events="none"/>
                </g>
                <g id="zoomMin">
                        <use xlink:href="#rim" fill="#404040">
                                <set attributeName="fill" to="#808080" begin="zoomminus.mouseover" end="zoomminus.mouseout"/>
                        </use>
                        <path d="M-4,0h8" fill="none" stroke="white" stroke-width="1.5" pointer-events="none"/>
                </g>
                <g id="dirArrow">
                        <path fill="none" stroke="white" stroke-width="1.5" d="M0,-3.0v7 M-2.5,-0.5L0,-3.0L2.5,-0.5"/>
                </g>
               <g id="resetDef">
                       <use xlink:href="#rim2" fill="#404040">
                               <set attributeName="fill" to="#808080" begin="reset.mouseover" end="reset.mouseout"/>
                       </use>
               </g>
        </defs>

<script type="text/javascript">
var viewWidth = 667;
var viewHeight = 167;
var sectionId = 'dynsection-21';
</script>
<script xlink:href="../../svgpan.js"/>
<svg id="graph" class="graph">
<g id="viewport">
<title>_open_file</title>
<!-- Node1 -->
<g id="node1" class="node">
<title>Node1</title>
<g id="a_node1"><a xlink:title=" ">
<polygon fill="#999999" stroke="#666666" points="61,-40.41 0,-40.41 0,-21.41 61,-21.41 61,-40.41"/>
<text text-anchor="middle" x="30.5" y="-28.41" font-family="Helvetica,sans-Serif" font-size="10.00">_open_file</text>
</a>
</g>
</g>
<!-- Node2 -->
<g id="node2" class="node">
<title>Node2</title>
<g id="a_node2"><a xlink:href="../../da/db1/classdoris_1_1_file_factory.html#a7e33000f2f9c640e6f8ef49c6d7a1ce9" target="_top" xlink:title=" ">
<polygon fill="white" stroke="#666666" points="197,-45.91 97,-45.91 97,-15.91 197,-15.91 197,-45.91"/>
<text text-anchor="start" x="105" y="-33.91" font-family="Helvetica,sans-Serif" font-size="10.00">doris::FileFactory</text>
<text text-anchor="middle" x="147" y="-22.91" font-family="Helvetica,sans-Serif" font-size="10.00">::create_file_reader</text>
</a>
</g>
</g>
<!-- Node1&#45;&gt;Node2 -->
<g id="edge1" class="edge">
<title>Node1&#45;&gt;Node2</title>
<path fill="none" stroke="#63b8ff" d="M61.28,-30.91C68.76,-30.91 77.04,-30.91 85.43,-30.91"/>
<polygon fill="#63b8ff" stroke="#63b8ff" points="85.34,-34.41 95.34,-30.91 85.34,-27.41 85.34,-34.41"/>
</g>
<!-- Node3 -->
<g id="node3" class="node">
<title>Node3</title>
<g id="a_node3"><a xlink:href="../../d9/d8d/classdoris_1_1_status.html#a6ec1a217f203269ab53d2290d602db24" target="_top" xlink:title=" ">
<polygon fill="white" stroke="#666666" points="501,-54.41 409,-54.41 409,-35.41 501,-35.41 501,-54.41"/>
<text text-anchor="middle" x="455" y="-42.41" font-family="Helvetica,sans-Serif" font-size="10.00">doris::Status::OK</text>
</a>
</g>
</g>
<!-- Node1&#45;&gt;Node3 -->
<g id="edge4" class="edge">
<title>Node1&#45;&gt;Node3</title>
<path fill="none" stroke="#63b8ff" d="M52.8,-20.94C65.36,-15.61 81.74,-9.61 97,-6.91 208.33,12.85 341.14,-14.47 409.08,-32.07"/>
<polygon fill="#63b8ff" stroke="#63b8ff" points="407.79,-35.35 418.35,-34.53 409.58,-28.58 407.79,-35.35"/>
</g>
<!-- Node5 -->
<g id="node5" class="node">
<title>Node5</title>
<g id="a_node5"><a xlink:href="../../d3/d1e/namespacedoris_1_1vectorized.html#ada1fb10798e987d20d62ffad8887c775" target="_top" xlink:title=" ">
<polygon fill="white" stroke="#666666" points="194.5,-107.91 99.5,-107.91 99.5,-77.91 194.5,-77.91 194.5,-107.91"/>
<text text-anchor="start" x="107.5" y="-95.91" font-family="Helvetica,sans-Serif" font-size="10.00">doris::vectorized::</text>
<text text-anchor="middle" x="147" y="-84.91" font-family="Helvetica,sans-Serif" font-size="10.00">parse_thrift_footer</text>
</a>
</g>
</g>
<!-- Node1&#45;&gt;Node5 -->
<g id="edge5" class="edge">
<title>Node1&#45;&gt;Node5</title>
<path fill="none" stroke="#63b8ff" d="M49.9,-40.87C65.44,-49.28 88.21,-61.61 107.68,-72.16"/>
<polygon fill="#63b8ff" stroke="#63b8ff" points="106.01,-75.23 116.47,-76.92 109.35,-69.08 106.01,-75.23"/>
</g>
<!-- Node2&#45;&gt;Node3 -->
<g id="edge2" class="edge">
<title>Node2&#45;&gt;Node3</title>
<path fill="none" stroke="#63b8ff" d="M197.16,-33.15C251.85,-35.66 340.05,-39.69 397.53,-42.32"/>
<polygon fill="#63b8ff" stroke="#63b8ff" points="397.28,-45.81 407.43,-42.77 397.6,-38.82 397.28,-45.81"/>
</g>
<!-- Node4 -->
<g id="node4" class="node">
<title>Node4</title>
<g id="a_node4"><a xlink:href="../../d9/d8d/classdoris_1_1_status.html#aafde58df1b2a6a91d5b674373be3ffc5" target="_top" xlink:title=" ">
<polygon fill="white" stroke="#666666" points="659,-54.41 552,-54.41 552,-35.41 659,-35.41 659,-54.41"/>
<text text-anchor="middle" x="605.5" y="-42.41" font-family="Helvetica,sans-Serif" font-size="10.00">doris::Status::Status</text>
</a>
</g>
</g>
<!-- Node3&#45;&gt;Node4 -->
<g id="edge3" class="edge">
<title>Node3&#45;&gt;Node4</title>
<path fill="none" stroke="#63b8ff" d="M501.36,-44.91C513.63,-44.91 527.15,-44.91 540.24,-44.91"/>
<polygon fill="#63b8ff" stroke="#63b8ff" points="540.09,-48.41 550.09,-44.91 540.09,-41.41 540.09,-48.41"/>
</g>
<!-- Node5&#45;&gt;Node3 -->
<g id="edge12" class="edge">
<title>Node5&#45;&gt;Node3</title>
<path fill="none" stroke="#63b8ff" d="M194.81,-85.56C249.27,-77.02 339.16,-62.92 397.47,-53.77"/>
<polygon fill="#63b8ff" stroke="#63b8ff" points="397.86,-57.25 407.2,-52.25 396.78,-50.34 397.86,-57.25"/>
</g>
<!-- Node6 -->
<g id="node6" class="node">
<title>Node6</title>
<g id="a_node6"><a xlink:href="../../d6/d94/namespacedoris.html#a927ce65d9f547abdfc0ac9f473bee2ce" target="_top" xlink:title=" ">
<polygon fill="white" stroke="#666666" points="358,-159.41 233,-159.41 233,-140.41 358,-140.41 358,-159.41"/>
<text text-anchor="middle" x="295.5" y="-147.41" font-family="Helvetica,sans-Serif" font-size="10.00">doris::decode_fixed32_le</text>
</a>
</g>
</g>
<!-- Node5&#45;&gt;Node6 -->
<g id="edge6" class="edge">
<title>Node5&#45;&gt;Node6</title>
<path fill="none" stroke="#63b8ff" d="M179.91,-108.27C195.69,-115.59 215.15,-124.19 233,-130.91 238.09,-132.82 243.47,-134.7 248.85,-136.48"/>
<polygon fill="#63b8ff" stroke="#63b8ff" points="247.74,-139.8 258.33,-139.52 249.88,-133.13 247.74,-139.8"/>
</g>
<!-- Node9 -->
<g id="node9" class="node">
<title>Node9</title>
<g id="a_node9"><a xlink:href="../../d6/d94/namespacedoris.html#a18be6f872c1833ef2e5ce8674e50ead3" target="_top" xlink:title=" ">
<polygon fill="white" stroke="#666666" points="340.5,-121.91 250.5,-121.91 250.5,-91.91 340.5,-91.91 340.5,-121.91"/>
<text text-anchor="start" x="258.5" y="-109.91" font-family="Helvetica,sans-Serif" font-size="10.00">doris::deserialize</text>
<text text-anchor="middle" x="295.5" y="-98.91" font-family="Helvetica,sans-Serif" font-size="10.00">_thrift_msg</text>
</a>
</g>
</g>
<!-- Node5&#45;&gt;Node9 -->
<g id="edge9" class="edge">
<title>Node5&#45;&gt;Node9</title>
<path fill="none" stroke="#63b8ff" d="M194.76,-97.37C208.76,-98.71 224.27,-100.19 238.79,-101.58"/>
<polygon fill="#63b8ff" stroke="#63b8ff" points="238.39,-105.06 248.68,-102.53 239.05,-98.09 238.39,-105.06"/>
</g>
<!-- Node7 -->
<g id="node7" class="node">
<title>Node7</title>
<g id="a_node7"><a xlink:href="../../d9/d1e/memcpy__aarch64_8cpp.html#a156c5821f16ed93be8c7d315303f7b2a" target="_top" xlink:title=" ">
<polygon fill="white" stroke="#666666" points="482,-159.41 428,-159.41 428,-140.41 482,-140.41 482,-159.41"/>
<text text-anchor="middle" x="455" y="-147.41" font-family="Helvetica,sans-Serif" font-size="10.00">memcpy</text>
</a>
</g>
</g>
<!-- Node6&#45;&gt;Node7 -->
<g id="edge7" class="edge">
<title>Node6&#45;&gt;Node7</title>
<path fill="none" stroke="#63b8ff" d="M358.3,-149.91C377.9,-149.91 398.98,-149.91 416.35,-149.91"/>
<polygon fill="#63b8ff" stroke="#63b8ff" points="416.21,-153.41 426.21,-149.91 416.21,-146.41 416.21,-153.41"/>
</g>
<!-- Node8 -->
<g id="node8" class="node">
<title>Node8</title>
<g id="a_node8"><a xlink:href="../../d9/d1e/memcpy__aarch64_8cpp.html#a11ebdd343428c466f2f35c376d7db6d0" target="_top" xlink:title=" ">
<polygon fill="white" stroke="#666666" points="646.5,-159.41 564.5,-159.41 564.5,-140.41 646.5,-140.41 646.5,-159.41"/>
<text text-anchor="middle" x="605.5" y="-147.41" font-family="Helvetica,sans-Serif" font-size="10.00">inline_memcpy</text>
</a>
</g>
</g>
<!-- Node7&#45;&gt;Node8 -->
<g id="edge8" class="edge">
<title>Node7&#45;&gt;Node8</title>
<path fill="none" stroke="#63b8ff" d="M482.21,-149.91C501.67,-149.91 528.85,-149.91 552.65,-149.91"/>
<polygon fill="#63b8ff" stroke="#63b8ff" points="552.49,-153.41 562.49,-149.91 552.49,-146.41 552.49,-153.41"/>
</g>
<!-- Node9&#45;&gt;Node3 -->
<g id="edge11" class="edge">
<title>Node9&#45;&gt;Node3</title>
<path fill="none" stroke="#63b8ff" d="M335.84,-91.42C361.12,-81.47 393.71,-68.64 418.26,-58.98"/>
<polygon fill="#63b8ff" stroke="#63b8ff" points="419.48,-62.25 427.5,-55.34 416.92,-55.74 419.48,-62.25"/>
</g>
<!-- Node10 -->
<g id="node10" class="node">
<title>Node10</title>
<g id="a_node10"><a xlink:href="../../d6/d94/namespacedoris.html#aa600fc623de24f873a91489a2831db37" target="_top" xlink:title=" ">
<polygon fill="white" stroke="#666666" points="516,-121.91 394,-121.91 394,-91.91 516,-91.91 516,-121.91"/>
<text text-anchor="start" x="402" y="-109.91" font-family="Helvetica,sans-Serif" font-size="10.00">doris::create_deserialize</text>
<text text-anchor="middle" x="455" y="-98.91" font-family="Helvetica,sans-Serif" font-size="10.00">_protocol</text>
</a>
</g>
</g>
<!-- Node9&#45;&gt;Node10 -->
<g id="edge10" class="edge">
<title>Node9&#45;&gt;Node10</title>
<path fill="none" stroke="#63b8ff" d="M340.79,-106.91C353.71,-106.91 368.18,-106.91 382.34,-106.91"/>
<polygon fill="#63b8ff" stroke="#63b8ff" points="382.07,-110.41 392.07,-106.91 382.07,-103.41 382.07,-110.41"/>
</g>
</g>
</svg>
        <g id="navigator" transform="translate(0 0)" fill="#404254">
                <rect fill="#f2f5e9" fill-opacity="0.5" stroke="#606060" stroke-width=".5" x="0" y="0" width="60" height="60"/>
                <use id="zoomplus" xlink:href="#zoomPlus" x="17" y="9" onmousedown="handleZoom(evt,'in')"/>
                <use id="zoomminus" xlink:href="#zoomMin" x="42" y="9" onmousedown="handleZoom(evt,'out')"/>
                <use id="reset" xlink:href="#resetDef" x="30" y="36" onmousedown="handleReset()"/>
                <g id="arrowUp" xlink:href="#dirArrow" transform="translate(30 24)" onmousedown="handlePan(0,-1)">
                  <use xlink:href="#rim" fill="#404040">
                        <set attributeName="fill" to="#808080" begin="arrowUp.mouseover" end="arrowUp.mouseout"/>
                  </use>
                  <path fill="none" stroke="white" stroke-width="1.5" d="M0,-3.0v7 M-2.5,-0.5L0,-3.0L2.5,-0.5"/>
                </g>
                <g id="arrowRight" xlink:href="#dirArrow" transform="rotate(90) translate(36 -43)" onmousedown="handlePan(1,0)">
                  <use xlink:href="#rim" fill="#404040">
                        <set attributeName="fill" to="#808080" begin="arrowRight.mouseover" end="arrowRight.mouseout"/>
                  </use>
                  <path fill="none" stroke="white" stroke-width="1.5" d="M0,-3.0v7 M-2.5,-0.5L0,-3.0L2.5,-0.5"/>
                </g>
                <g id="arrowDown" xlink:href="#dirArrow" transform="rotate(180) translate(-30 -48)" onmousedown="handlePan(0,1)">
                  <use xlink:href="#rim" fill="#404040">
                        <set attributeName="fill" to="#808080" begin="arrowDown.mouseover" end="arrowDown.mouseout"/>
                  </use>
                  <path fill="none" stroke="white" stroke-width="1.5" d="M0,-3.0v7 M-2.5,-0.5L0,-3.0L2.5,-0.5"/>
                </g>
                <g id="arrowLeft" xlink:href="#dirArrow" transform="rotate(270) translate(-36 17)" onmousedown="handlePan(-1,0)">
                  <use xlink:href="#rim" fill="#404040">
                        <set attributeName="fill" to="#808080" begin="arrowLeft.mouseover" end="arrowLeft.mouseout"/>
                  </use>
                  <path fill="none" stroke="white" stroke-width="1.5" d="M0,-3.0v7 M-2.5,-0.5L0,-3.0L2.5,-0.5"/>
                </g>
        </g>
        <svg viewBox="0 0 15 15" width="100%" height="30px" preserveAspectRatio="xMaxYMin meet">
         <g id="arrow_out" transform="scale(0.3 0.3)">
          <a xlink:href="classdoris_1_1vectorized_1_1_parquet_reader_aafc0d350472bbc813d55fb6b8b01d819_cgraph_org.svg" target="_base">
           <rect id="button" ry="5" rx="5" y="6" x="6" height="38" width="38"
                fill="#f2f5e9" fill-opacity="0.5" stroke="#606060" stroke-width="1.0"/>
           <path id="arrow"
             d="M 11.500037,31.436501 C 11.940474,20.09759 22.043105,11.32322 32.158766,21.979434 L 37.068811,17.246167 C 37.068811,17.246167 37.088388,32 37.088388,32 L 22.160133,31.978069 C 22.160133,31.978069 26.997745,27.140456 26.997745,27.140456 C 18.528582,18.264221 13.291696,25.230495 11.500037,31.436501 z"
             style="fill:#404040;"/>
          </a>
         </g>
        </svg>
</svg>
