<?xml version="1.0" encoding="UTF-8" standalone="no"?>
<!DOCTYPE svg PUBLIC "-//W3C//DTD SVG 1.1//EN"
 "http://www.w3.org/Graphics/SVG/1.1/DTD/svg11.dtd">
<!-- Generated by graphviz version 7.1.0 (20230121.1956)
 -->
<!-- Title: _set_tablet_info Pages: 1 -->
<svg width="278pt" height="27pt"
 viewBox="0.00 0.00 278.00 27.00" xmlns="http://www.w3.org/2000/svg" xmlns:xlink="http://www.w3.org/1999/xlink">
<g id="graph0" class="graph" transform="scale(1 1) rotate(0) translate(4 23)">
<title>_set_tablet_info</title>
<!-- Node1 -->
<g id="node1" class="node">
<title>Node1</title>
<g id="a_node1"><a xlink:title=" ">
<polygon fill="#999999" stroke="#666666" points="270,-19 184,-19 184,0 270,0 270,-19"/>
<text text-anchor="middle" x="227" y="-7" font-family="Helvetica,sans-Serif" font-size="10.00">_set_tablet_info</text>
</a>
</g>
</g>
<!-- Node2 -->
<g id="node2" class="node">
<title>Node2</title>
<g id="a_node2"><a xlink:href="../../de/d98/classdoris_1_1_engine_clone_task.html#ad62d5a677bae76abee7b6a94a9b62a94" target="_top" xlink:title=" ">
<polygon fill="white" stroke="#666666" points="148,-19 87,-19 87,0 148,0 148,-19"/>
<text text-anchor="middle" x="117.5" y="-7" font-family="Helvetica,sans-Serif" font-size="10.00">_do_clone</text>
</a>
</g>
</g>
<!-- Node1&#45;&gt;Node2 -->
<g id="edge1" class="edge">
<title>Node1&#45;&gt;Node2</title>
<path fill="none" stroke="#63b8ff" d="M172.08,-9.5C163.94,-9.5 155.81,-9.5 148.43,-9.5"/>
<polygon fill="#63b8ff" stroke="#63b8ff" points="172,-13 182,-9.5 172,-6 172,-13"/>
</g>
<!-- Node3 -->
<g id="node3" class="node">
<title>Node3</title>
<g id="a_node3"><a xlink:href="../../de/d98/classdoris_1_1_engine_clone_task.html#a288fb86e2f2bfd41128d4766a01cebad" target="_top" xlink:title=" ">
<polygon fill="white" stroke="#666666" points="51,-19 0,-19 0,0 51,0 51,-19"/>
<text text-anchor="middle" x="25.5" y="-7" font-family="Helvetica,sans-Serif" font-size="10.00">execute</text>
</a>
</g>
</g>
<!-- Node2&#45;&gt;Node3 -->
<g id="edge2" class="edge">
<title>Node2&#45;&gt;Node3</title>
<path fill="none" stroke="#63b8ff" d="M75.19,-9.5C67,-9.5 58.66,-9.5 51.24,-9.5"/>
<polygon fill="#63b8ff" stroke="#63b8ff" points="75.02,-13 85.02,-9.5 75.02,-6 75.02,-13"/>
</g>
</g>
</svg>
