<?xml version="1.0" encoding="UTF-8" standalone="no"?>
<!DOCTYPE svg PUBLIC "-//W3C//DTD SVG 1.1//EN"
 "http://www.w3.org/Graphics/SVG/1.1/DTD/svg11.dtd">
<!-- Generated by graphviz version 7.1.0 (20230121.1956)
 -->
<!-- Title: /Users/dabowang/be_all/vec/aggregate_functions/aggregate_function_min_max.h Pages: 1 -->
<!--zoomable 214 -->
<svg id="main" version="1.1" xmlns="http://www.w3.org/2000/svg" xmlns:xlink="http://www.w3.org/1999/xlink" xml:space="preserve" onload="init(evt)">
<style type="text/css"><![CDATA[
.edge:hover path { stroke: red; }
.edge:hover polygon { stroke: red; fill: red; }
]]></style>
<script type="text/javascript"><![CDATA[
var edges = document.getElementsByTagName('g');
if (edges && edges.length) {
  for (var i=0;i<edges.length;i++) {
    if (edges[i].id.substr(0,4)=='edge') {
      edges[i].setAttribute('class','edge');
    }
  }
}
]]></script>
        <defs>
                <circle id="rim" cx="0" cy="0" r="7"/>
                <circle id="rim2" cx="0" cy="0" r="3.5"/>
                <g id="zoomPlus">
                        <use xlink:href="#rim" fill="#404040">
                                <set attributeName="fill" to="#808080" begin="zoomplus.mouseover" end="zoomplus.mouseout"/>
                        </use>
                        <path d="M-4,0h8M0,-4v8" fill="none" stroke="white" stroke-width="1.5" pointer-events="none"/>
                </g>
                <g id="zoomMin">
                        <use xlink:href="#rim" fill="#404040">
                                <set attributeName="fill" to="#808080" begin="zoomminus.mouseover" end="zoomminus.mouseout"/>
                        </use>
                        <path d="M-4,0h8" fill="none" stroke="white" stroke-width="1.5" pointer-events="none"/>
                </g>
                <g id="dirArrow">
                        <path fill="none" stroke="white" stroke-width="1.5" d="M0,-3.0v7 M-2.5,-0.5L0,-3.0L2.5,-0.5"/>
                </g>
               <g id="resetDef">
                       <use xlink:href="#rim2" fill="#404040">
                               <set attributeName="fill" to="#808080" begin="reset.mouseover" end="reset.mouseout"/>
                       </use>
               </g>
        </defs>

<script type="text/javascript">
var viewWidth = 1025;
var viewHeight = 214;
var sectionId = 'dynsection-1';
</script>
<script xlink:href="../../svgpan.js"/>
<svg id="graph" class="graph">
<g id="viewport">
<title>/Users/dabowang/be_all/vec/aggregate_functions/aggregate_function_min_max.h</title>
<!-- Node1 -->
<g id="node1" class="node">
<title>Node1</title>
<g id="a_node1"><a xlink:title=" ">
<polygon fill="#999999" stroke="#666666" points="519,-206 364,-206 364,-165 519,-165 519,-206"/>
<text text-anchor="start" x="372" y="-194" font-family="Helvetica,sans-Serif" font-size="10.00">/Users/dabowang/be</text>
<text text-anchor="start" x="372" y="-183" font-family="Helvetica,sans-Serif" font-size="10.00">_all/vec/aggregate_functions</text>
<text text-anchor="middle" x="441.5" y="-172" font-family="Helvetica,sans-Serif" font-size="10.00">/aggregate_function_min_max.h</text>
</a>
</g>
</g>
<!-- Node2 -->
<g id="node2" class="node">
<title>Node2</title>
<g id="a_node2"><a xlink:href="../../da/dff/aggregate__function__min__max_8cpp.html" target="_top" xlink:title=" ">
<polygon fill="white" stroke="#666666" points="244.5,-129 78.5,-129 78.5,-88 244.5,-88 244.5,-129"/>
<text text-anchor="start" x="86.5" y="-117" font-family="Helvetica,sans-Serif" font-size="10.00">/Users/dabowang/be</text>
<text text-anchor="start" x="86.5" y="-106" font-family="Helvetica,sans-Serif" font-size="10.00">_all/vec/aggregate_functions</text>
<text text-anchor="middle" x="161.5" y="-95" font-family="Helvetica,sans-Serif" font-size="10.00">/aggregate_function_min_max.cpp</text>
</a>
</g>
</g>
<!-- Node1&#45;&gt;Node2 -->
<g id="edge1" class="edge">
<title>Node1&#45;&gt;Node2</title>
<path fill="none" stroke="#63b8ff" d="M356.56,-161.75C318.17,-151.47 273.22,-139.42 236.15,-129.49"/>
<polygon fill="#63b8ff" stroke="#63b8ff" points="355.17,-165 365.74,-164.21 356.98,-158.24 355.17,-165"/>
</g>
<!-- Node3 -->
<g id="node3" class="node">
<title>Node3</title>
<g id="a_node3"><a xlink:href="../../d8/d62/aggregate__function__min__max__by_8cpp.html" target="_top" xlink:title=" ">
<polygon fill="white" stroke="#666666" points="442.5,-129 262.5,-129 262.5,-88 442.5,-88 442.5,-129"/>
<text text-anchor="start" x="270.5" y="-117" font-family="Helvetica,sans-Serif" font-size="10.00">/Users/dabowang/be</text>
<text text-anchor="start" x="270.5" y="-106" font-family="Helvetica,sans-Serif" font-size="10.00">_all/vec/aggregate_functions</text>
<text text-anchor="middle" x="352.5" y="-95" font-family="Helvetica,sans-Serif" font-size="10.00">/aggregate_function_min_max_by.cpp</text>
</a>
</g>
</g>
<!-- Node1&#45;&gt;Node3 -->
<g id="edge2" class="edge">
<title>Node1&#45;&gt;Node3</title>
<path fill="none" stroke="#63b8ff" d="M409.55,-157.57C398.48,-148.25 386.3,-137.98 376.04,-129.33"/>
<polygon fill="#63b8ff" stroke="#63b8ff" points="407.06,-160.05 416.96,-163.82 411.57,-154.7 407.06,-160.05"/>
</g>
<!-- Node4 -->
<g id="node4" class="node">
<title>Node4</title>
<g id="a_node4"><a xlink:href="../../d9/d86/aggregate__function__reader_8h.html" target="_top" xlink:title=" ">
<polygon fill="white" stroke="#666666" points="602.5,-129 460.5,-129 460.5,-88 602.5,-88 602.5,-129"/>
<text text-anchor="start" x="468.5" y="-117" font-family="Helvetica,sans-Serif" font-size="10.00">/Users/dabowang/be</text>
<text text-anchor="start" x="468.5" y="-106" font-family="Helvetica,sans-Serif" font-size="10.00">_all/vec/aggregate_functions</text>
<text text-anchor="middle" x="531.5" y="-95" font-family="Helvetica,sans-Serif" font-size="10.00">/aggregate_function_reader.h</text>
</a>
</g>
</g>
<!-- Node1&#45;&gt;Node4 -->
<g id="edge3" class="edge">
<title>Node1&#45;&gt;Node4</title>
<path fill="none" stroke="#63b8ff" d="M473.81,-157.57C485,-148.25 497.32,-137.98 507.7,-129.33"/>
<polygon fill="#63b8ff" stroke="#63b8ff" points="471.75,-154.74 466.31,-163.83 476.23,-160.11 471.75,-154.74"/>
</g>
<!-- Node12 -->
<g id="node12" class="node">
<title>Node12</title>
<g id="a_node12"><a xlink:href="../../da/d52/function__array__aggregation_8cpp.html" target="_top" xlink:title=" ">
<polygon fill="white" stroke="#666666" points="776,-129 621,-129 621,-88 776,-88 776,-129"/>
<text text-anchor="start" x="629" y="-117" font-family="Helvetica,sans-Serif" font-size="10.00">/Users/dabowang/be</text>
<text text-anchor="start" x="629" y="-106" font-family="Helvetica,sans-Serif" font-size="10.00">_all/vec/functions/array</text>
<text text-anchor="middle" x="698.5" y="-95" font-family="Helvetica,sans-Serif" font-size="10.00">/function_array_aggregation.cpp</text>
</a>
</g>
</g>
<!-- Node1&#45;&gt;Node12 -->
<g id="edge11" class="edge">
<title>Node1&#45;&gt;Node12</title>
<path fill="none" stroke="#63b8ff" d="M520.37,-161.48C555.4,-151.26 596.25,-139.34 629.98,-129.49"/>
<polygon fill="#63b8ff" stroke="#63b8ff" points="519.77,-158.01 511.15,-164.17 521.73,-164.73 519.77,-158.01"/>
</g>
<!-- Node5 -->
<g id="node5" class="node">
<title>Node5</title>
<g id="a_node5"><a xlink:href="../../d0/dc9/memtable_8cpp.html" target="_top" xlink:title=" ">
<polygon fill="white" stroke="#666666" points="117,-41 0,-41 0,-11 117,-11 117,-41"/>
<text text-anchor="start" x="8" y="-29" font-family="Helvetica,sans-Serif" font-size="10.00">/Users/dabowang/be</text>
<text text-anchor="middle" x="58.5" y="-18" font-family="Helvetica,sans-Serif" font-size="10.00">_all/olap/memtable.cpp</text>
</a>
</g>
</g>
<!-- Node4&#45;&gt;Node5 -->
<g id="edge4" class="edge">
<title>Node4&#45;&gt;Node5</title>
<path fill="none" stroke="#63b8ff" d="M448.72,-87.65C306.27,-63.85 264.37,-84.47 126.5,-52 115.36,-49.38 103.55,-45.46 92.95,-41.5"/>
<polygon fill="#63b8ff" stroke="#63b8ff" points="448.13,-91.1 458.58,-89.35 449.31,-84.2 448.13,-91.1"/>
</g>
<!-- Node6 -->
<g id="node6" class="node">
<title>Node6</title>
<g id="a_node6"><a xlink:href="../../d3/dc1/schema__change_8cpp.html" target="_top" xlink:title=" ">
<polygon fill="white" stroke="#666666" points="281.5,-41 135.5,-41 135.5,-11 281.5,-11 281.5,-41"/>
<text text-anchor="start" x="143.5" y="-29" font-family="Helvetica,sans-Serif" font-size="10.00">/Users/dabowang/be</text>
<text text-anchor="middle" x="208.5" y="-18" font-family="Helvetica,sans-Serif" font-size="10.00">_all/olap/schema_change.cpp</text>
</a>
</g>
</g>
<!-- Node4&#45;&gt;Node6 -->
<g id="edge5" class="edge">
<title>Node4&#45;&gt;Node6</title>
<path fill="none" stroke="#63b8ff" d="M449.52,-87.57C378.23,-71.22 358.07,-69.83 290.5,-52 278.41,-48.81 265.43,-45.02 253.44,-41.37"/>
<polygon fill="#63b8ff" stroke="#63b8ff" points="448.41,-90.91 458.94,-89.76 449.99,-84.09 448.41,-90.91"/>
</g>
<!-- Node7 -->
<g id="node7" class="node">
<title>Node7</title>
<g id="a_node7"><a xlink:href="../../d4/d7c/tablet__schema_8cpp.html" target="_top" xlink:title=" ">
<polygon fill="white" stroke="#666666" points="437.5,-41 299.5,-41 299.5,-11 437.5,-11 437.5,-41"/>
<text text-anchor="start" x="307.5" y="-29" font-family="Helvetica,sans-Serif" font-size="10.00">/Users/dabowang/be</text>
<text text-anchor="middle" x="368.5" y="-18" font-family="Helvetica,sans-Serif" font-size="10.00">_all/olap/tablet_schema.cpp</text>
</a>
</g>
</g>
<!-- Node4&#45;&gt;Node7 -->
<g id="edge6" class="edge">
<title>Node4&#45;&gt;Node7</title>
<path fill="none" stroke="#63b8ff" d="M481.04,-82.58C453.73,-69.09 420.96,-52.91 397.84,-41.49"/>
<polygon fill="#63b8ff" stroke="#63b8ff" points="479.33,-85.64 489.85,-86.93 482.43,-79.36 479.33,-85.64"/>
</g>
<!-- Node8 -->
<g id="node8" class="node">
<title>Node8</title>
<g id="a_node8"><a xlink:href="../../d4/d8d/aggregate__function__reader_8cpp.html" target="_top" xlink:title=" ">
<polygon fill="white" stroke="#666666" points="607.5,-46.5 455.5,-46.5 455.5,-5.5 607.5,-5.5 607.5,-46.5"/>
<text text-anchor="start" x="463.5" y="-34.5" font-family="Helvetica,sans-Serif" font-size="10.00">/Users/dabowang/be</text>
<text text-anchor="start" x="463.5" y="-23.5" font-family="Helvetica,sans-Serif" font-size="10.00">_all/vec/aggregate_functions</text>
<text text-anchor="middle" x="531.5" y="-12.5" font-family="Helvetica,sans-Serif" font-size="10.00">/aggregate_function_reader.cpp</text>
</a>
</g>
</g>
<!-- Node4&#45;&gt;Node8 -->
<g id="edge7" class="edge">
<title>Node4&#45;&gt;Node8</title>
<path fill="none" stroke="#63b8ff" d="M531.5,-76.16C531.5,-66.33 531.5,-55.76 531.5,-46.95"/>
<polygon fill="#63b8ff" stroke="#63b8ff" points="528,-76.09 531.5,-86.09 535,-76.09 528,-76.09"/>
</g>
<!-- Node9 -->
<g id="node9" class="node">
<title>Node9</title>
<g id="a_node9"><a xlink:href="../../df/d1b/aggregate__function__simple__factory_8cpp.html" target="_top" xlink:title=" ">
<polygon fill="white" stroke="#666666" points="767,-52 626,-52 626,0 767,0 767,-52"/>
<text text-anchor="start" x="634" y="-40" font-family="Helvetica,sans-Serif" font-size="10.00">/Users/dabowang/be</text>
<text text-anchor="start" x="634" y="-29" font-family="Helvetica,sans-Serif" font-size="10.00">_all/vec/aggregate_functions</text>
<text text-anchor="start" x="634" y="-18" font-family="Helvetica,sans-Serif" font-size="10.00">/aggregate_function_simple</text>
<text text-anchor="middle" x="696.5" y="-7" font-family="Helvetica,sans-Serif" font-size="10.00">_factory.cpp</text>
</a>
</g>
</g>
<!-- Node4&#45;&gt;Node9 -->
<g id="edge8" class="edge">
<title>Node4&#45;&gt;Node9</title>
<path fill="none" stroke="#63b8ff" d="M582.56,-82.59C602.19,-73.01 624.6,-62.08 644.33,-52.45"/>
<polygon fill="#63b8ff" stroke="#63b8ff" points="581.1,-79.41 573.65,-86.94 584.17,-85.7 581.1,-79.41"/>
</g>
<!-- Node10 -->
<g id="node10" class="node">
<title>Node10</title>
<g id="a_node10"><a xlink:href="../../da/ddb/block__reader_8cpp.html" target="_top" xlink:title=" ">
<polygon fill="white" stroke="#666666" points="892,-46.5 785,-46.5 785,-5.5 892,-5.5 892,-46.5"/>
<text text-anchor="start" x="793" y="-34.5" font-family="Helvetica,sans-Serif" font-size="10.00">/Users/dabowang/be</text>
<text text-anchor="start" x="793" y="-23.5" font-family="Helvetica,sans-Serif" font-size="10.00">_all/vec/olap/block</text>
<text text-anchor="middle" x="838.5" y="-12.5" font-family="Helvetica,sans-Serif" font-size="10.00">_reader.cpp</text>
</a>
</g>
</g>
<!-- Node4&#45;&gt;Node10 -->
<g id="edge9" class="edge">
<title>Node4&#45;&gt;Node10</title>
<path fill="none" stroke="#63b8ff" d="M613.82,-87.76C687.21,-71.47 708.54,-73 776.5,-52 781.38,-50.49 786.41,-48.76 791.4,-46.94"/>
<polygon fill="#63b8ff" stroke="#63b8ff" points="613.06,-84.34 604.08,-89.96 614.6,-91.17 613.06,-84.34"/>
</g>
<!-- Node11 -->
<g id="node11" class="node">
<title>Node11</title>
<g id="a_node11"><a xlink:href="../../d3/dc4/vertical__block__reader_8cpp.html" target="_top" xlink:title=" ">
<polygon fill="white" stroke="#666666" points="1017,-46.5 910,-46.5 910,-5.5 1017,-5.5 1017,-46.5"/>
<text text-anchor="start" x="918" y="-34.5" font-family="Helvetica,sans-Serif" font-size="10.00">/Users/dabowang/be</text>
<text text-anchor="start" x="918" y="-23.5" font-family="Helvetica,sans-Serif" font-size="10.00">_all/vec/olap/vertical</text>
<text text-anchor="middle" x="963.5" y="-12.5" font-family="Helvetica,sans-Serif" font-size="10.00">_block_reader.cpp</text>
</a>
</g>
</g>
<!-- Node4&#45;&gt;Node11 -->
<g id="edge10" class="edge">
<title>Node4&#45;&gt;Node11</title>
<path fill="none" stroke="#63b8ff" d="M613.97,-87.88C741.9,-65.85 779.63,-83.59 901.5,-52 906.89,-50.6 912.44,-48.85 917.9,-46.92"/>
<polygon fill="#63b8ff" stroke="#63b8ff" points="613.69,-84.38 604.45,-89.57 614.91,-91.27 613.69,-84.38"/>
</g>
</g>
</svg>
        <g id="navigator" transform="translate(0 0)" fill="#404254">
                <rect fill="#f2f5e9" fill-opacity="0.5" stroke="#606060" stroke-width=".5" x="0" y="0" width="60" height="60"/>
                <use id="zoomplus" xlink:href="#zoomPlus" x="17" y="9" onmousedown="handleZoom(evt,'in')"/>
                <use id="zoomminus" xlink:href="#zoomMin" x="42" y="9" onmousedown="handleZoom(evt,'out')"/>
                <use id="reset" xlink:href="#resetDef" x="30" y="36" onmousedown="handleReset()"/>
                <g id="arrowUp" xlink:href="#dirArrow" transform="translate(30 24)" onmousedown="handlePan(0,-1)">
                  <use xlink:href="#rim" fill="#404040">
                        <set attributeName="fill" to="#808080" begin="arrowUp.mouseover" end="arrowUp.mouseout"/>
                  </use>
                  <path fill="none" stroke="white" stroke-width="1.5" d="M0,-3.0v7 M-2.5,-0.5L0,-3.0L2.5,-0.5"/>
                </g>
                <g id="arrowRight" xlink:href="#dirArrow" transform="rotate(90) translate(36 -43)" onmousedown="handlePan(1,0)">
                  <use xlink:href="#rim" fill="#404040">
                        <set attributeName="fill" to="#808080" begin="arrowRight.mouseover" end="arrowRight.mouseout"/>
                  </use>
                  <path fill="none" stroke="white" stroke-width="1.5" d="M0,-3.0v7 M-2.5,-0.5L0,-3.0L2.5,-0.5"/>
                </g>
                <g id="arrowDown" xlink:href="#dirArrow" transform="rotate(180) translate(-30 -48)" onmousedown="handlePan(0,1)">
                  <use xlink:href="#rim" fill="#404040">
                        <set attributeName="fill" to="#808080" begin="arrowDown.mouseover" end="arrowDown.mouseout"/>
                  </use>
                  <path fill="none" stroke="white" stroke-width="1.5" d="M0,-3.0v7 M-2.5,-0.5L0,-3.0L2.5,-0.5"/>
                </g>
                <g id="arrowLeft" xlink:href="#dirArrow" transform="rotate(270) translate(-36 17)" onmousedown="handlePan(-1,0)">
                  <use xlink:href="#rim" fill="#404040">
                        <set attributeName="fill" to="#808080" begin="arrowLeft.mouseover" end="arrowLeft.mouseout"/>
                  </use>
                  <path fill="none" stroke="white" stroke-width="1.5" d="M0,-3.0v7 M-2.5,-0.5L0,-3.0L2.5,-0.5"/>
                </g>
        </g>
        <svg viewBox="0 0 15 15" width="100%" height="30px" preserveAspectRatio="xMaxYMin meet">
         <g id="arrow_out" transform="scale(0.3 0.3)">
          <a xlink:href="aggregate__function__min__max_8h__dep__incl_org.svg" target="_base">
           <rect id="button" ry="5" rx="5" y="6" x="6" height="38" width="38"
                fill="#f2f5e9" fill-opacity="0.5" stroke="#606060" stroke-width="1.0"/>
           <path id="arrow"
             d="M 11.500037,31.436501 C 11.940474,20.09759 22.043105,11.32322 32.158766,21.979434 L 37.068811,17.246167 C 37.068811,17.246167 37.088388,32 37.088388,32 L 22.160133,31.978069 C 22.160133,31.978069 26.997745,27.140456 26.997745,27.140456 C 18.528582,18.264221 13.291696,25.230495 11.500037,31.436501 z"
             style="fill:#404040;"/>
          </a>
         </g>
        </svg>
</svg>
