<?xml version="1.0" encoding="UTF-8" standalone="no"?>
<!DOCTYPE svg PUBLIC "-//W3C//DTD SVG 1.1//EN"
 "http://www.w3.org/Graphics/SVG/1.1/DTD/svg11.dtd">
<!-- Generated by graphviz version 7.1.0 (20230121.1956)
 -->
<!-- Title: forward Pages: 1 -->
<svg width="335pt" height="76pt"
 viewBox="0.00 0.00 335.00 75.50" xmlns="http://www.w3.org/2000/svg" xmlns:xlink="http://www.w3.org/1999/xlink">
<g id="graph0" class="graph" transform="scale(1 1) rotate(0) translate(4 71.5)">
<title>forward</title>
<!-- Node1 -->
<g id="node1" class="node">
<title>Node1</title>
<g id="a_node1"><a xlink:title=" ">
<polygon fill="#999999" stroke="#666666" points="49,-40 0,-40 0,-21 49,-21 49,-40"/>
<text text-anchor="middle" x="24.5" y="-28" font-family="Helvetica,sans-Serif" font-size="10.00">forward</text>
</a>
</g>
</g>
<!-- Node2 -->
<g id="node2" class="node">
<title>Node2</title>
<g id="a_node2"><a xlink:href="../../da/d6e/classdoris_1_1vectorized_1_1_table_function.html#afe78713c42c03ee6498128b307b6f8f4" target="_top" xlink:title=" ">
<polygon fill="white" stroke="#666666" points="184,-67.5 85,-67.5 85,-37.5 184,-37.5 184,-67.5"/>
<text text-anchor="start" x="93" y="-55.5" font-family="Helvetica,sans-Serif" font-size="10.00">doris::vectorized::</text>
<text text-anchor="middle" x="134.5" y="-44.5" font-family="Helvetica,sans-Serif" font-size="10.00">TableFunction::eos</text>
</a>
</g>
</g>
<!-- Node1&#45;&gt;Node2 -->
<g id="edge1" class="edge">
<title>Node1&#45;&gt;Node2</title>
<path fill="none" stroke="#63b8ff" d="M49.47,-35.38C56.73,-36.86 65.05,-38.56 73.57,-40.29"/>
<polygon fill="#63b8ff" stroke="#63b8ff" points="72.83,-43.71 83.33,-42.28 74.23,-36.85 72.83,-43.71"/>
</g>
<!-- Node3 -->
<g id="node3" class="node">
<title>Node3</title>
<g id="a_node3"><a xlink:href="../../d9/d8d/classdoris_1_1_status.html#a6ec1a217f203269ab53d2290d602db24" target="_top" xlink:title=" ">
<polygon fill="white" stroke="#666666" points="180.5,-19 88.5,-19 88.5,0 180.5,0 180.5,-19"/>
<text text-anchor="middle" x="134.5" y="-7" font-family="Helvetica,sans-Serif" font-size="10.00">doris::Status::OK</text>
</a>
</g>
</g>
<!-- Node1&#45;&gt;Node3 -->
<g id="edge2" class="edge">
<title>Node1&#45;&gt;Node3</title>
<path fill="none" stroke="#63b8ff" d="M49.47,-25.84C57.78,-24.22 67.47,-22.34 77.27,-20.43"/>
<polygon fill="#63b8ff" stroke="#63b8ff" points="77.67,-23.92 86.82,-18.58 76.33,-17.05 77.67,-23.92"/>
</g>
<!-- Node4 -->
<g id="node4" class="node">
<title>Node4</title>
<g id="a_node4"><a xlink:href="../../d9/d8d/classdoris_1_1_status.html#aafde58df1b2a6a91d5b674373be3ffc5" target="_top" xlink:title=" ">
<polygon fill="white" stroke="#666666" points="327,-19 220,-19 220,0 327,0 327,-19"/>
<text text-anchor="middle" x="273.5" y="-7" font-family="Helvetica,sans-Serif" font-size="10.00">doris::Status::Status</text>
</a>
</g>
</g>
<!-- Node3&#45;&gt;Node4 -->
<g id="edge3" class="edge">
<title>Node3&#45;&gt;Node4</title>
<path fill="none" stroke="#63b8ff" d="M180.74,-9.5C189.6,-9.5 199.06,-9.5 208.41,-9.5"/>
<polygon fill="#63b8ff" stroke="#63b8ff" points="208.19,-13 218.19,-9.5 208.19,-6 208.19,-13"/>
</g>
</g>
</svg>
