<?xml version="1.0" encoding="UTF-8" standalone="no"?>
<!DOCTYPE svg PUBLIC "-//W3C//DTD SVG 1.1//EN"
 "http://www.w3.org/Graphics/SVG/1.1/DTD/svg11.dtd">
<!-- Generated by graphviz version 7.1.0 (20230121.1956)
 -->
<!-- Title: get_precision Pages: 1 -->
<svg width="1029pt" height="211pt"
 viewBox="0.00 0.00 1029.00 210.50" xmlns="http://www.w3.org/2000/svg" xmlns:xlink="http://www.w3.org/1999/xlink">
<g id="graph0" class="graph" transform="scale(1 1) rotate(0) translate(4 206.5)">
<title>get_precision</title>
<!-- Node1 -->
<g id="node1" class="node">
<title>Node1</title>
<g id="a_node1"><a xlink:title="Decimal specific">
<polygon fill="#999999" stroke="#666666" points="1021,-105.5 947,-105.5 947,-86.5 1021,-86.5 1021,-105.5"/>
<text text-anchor="middle" x="984" y="-93.5" font-family="Helvetica,sans-Serif" font-size="10.00">get_precision</text>
</a>
</g>
</g>
<!-- Node2 -->
<g id="node2" class="node">
<title>Node2</title>
<g id="a_node2"><a xlink:href="../../d1/d1a/classdoris_1_1vectorized_1_1_function_cast.html#ae6599dc88b1e13c8efc68c6919e77f8e" target="_top" xlink:title=" ">
<polygon fill="white" stroke="#666666" points="911,-143.5 803,-143.5 803,-102.5 911,-102.5 911,-143.5"/>
<text text-anchor="start" x="811" y="-131.5" font-family="Helvetica,sans-Serif" font-size="10.00">doris::vectorized::</text>
<text text-anchor="start" x="811" y="-120.5" font-family="Helvetica,sans-Serif" font-size="10.00">FunctionCast::create</text>
<text text-anchor="middle" x="857" y="-109.5" font-family="Helvetica,sans-Serif" font-size="10.00">_decimal_wrapper</text>
</a>
</g>
</g>
<!-- Node1&#45;&gt;Node2 -->
<g id="edge1" class="edge">
<title>Node1&#45;&gt;Node2</title>
<path fill="none" stroke="#63b8ff" d="M935.37,-106.29C927.56,-107.97 919.43,-109.73 911.49,-111.45"/>
<polygon fill="#63b8ff" stroke="#63b8ff" points="935.99,-109.73 945.03,-104.2 934.52,-102.89 935.99,-109.73"/>
</g>
<!-- Node10 -->
<g id="node10" class="node">
<title>Node10</title>
<g id="a_node10"><a xlink:href="../../d3/d1e/namespacedoris_1_1vectorized.html#aca4a40cf7898fcf4185e9c42ba9e2aba" target="_top" xlink:title=" ">
<polygon fill="white" stroke="#666666" points="909,-84 805,-84 805,-54 909,-54 909,-84"/>
<text text-anchor="start" x="813" y="-72" font-family="Helvetica,sans-Serif" font-size="10.00">doris::vectorized::</text>
<text text-anchor="middle" x="857" y="-61" font-family="Helvetica,sans-Serif" font-size="10.00">decimal_result_type</text>
</a>
</g>
</g>
<!-- Node1&#45;&gt;Node10 -->
<g id="edge11" class="edge">
<title>Node1&#45;&gt;Node10</title>
<path fill="none" stroke="#63b8ff" d="M935.49,-85.74C926.88,-83.88 917.87,-81.93 909.17,-80.05"/>
<polygon fill="#63b8ff" stroke="#63b8ff" points="934.52,-89.11 945.03,-87.8 935.99,-82.27 934.52,-89.11"/>
</g>
<!-- Node3 -->
<g id="node3" class="node">
<title>Node3</title>
<g id="a_node3"><a xlink:href="../../d1/d1a/classdoris_1_1vectorized_1_1_function_cast.html#ab575d330a437aeff6d56629c513fc8e8" target="_top" xlink:title=" ">
<polygon fill="white" stroke="#666666" points="758,-138 621,-138 621,-108 758,-108 758,-138"/>
<text text-anchor="start" x="629" y="-126" font-family="Helvetica,sans-Serif" font-size="10.00">doris::vectorized::</text>
<text text-anchor="middle" x="689.5" y="-115" font-family="Helvetica,sans-Serif" font-size="10.00">FunctionCast::prepare_impl</text>
</a>
</g>
</g>
<!-- Node2&#45;&gt;Node3 -->
<g id="edge2" class="edge">
<title>Node2&#45;&gt;Node3</title>
<path fill="none" stroke="#63b8ff" d="M791.53,-123C780.6,-123 769.22,-123 758.21,-123"/>
<polygon fill="#63b8ff" stroke="#63b8ff" points="791.21,-126.5 801.21,-123 791.21,-119.5 791.21,-126.5"/>
</g>
<!-- Node4 -->
<g id="node4" class="node">
<title>Node4</title>
<g id="a_node4"><a xlink:href="../../d1/d1a/classdoris_1_1vectorized_1_1_function_cast.html#a2cf40ff8750205832d9ee83e748d136e" target="_top" xlink:title=" ">
<polygon fill="white" stroke="#666666" points="576,-143.5 463,-143.5 463,-102.5 576,-102.5 576,-143.5"/>
<text text-anchor="start" x="471" y="-131.5" font-family="Helvetica,sans-Serif" font-size="10.00">doris::vectorized::</text>
<text text-anchor="start" x="471" y="-120.5" font-family="Helvetica,sans-Serif" font-size="10.00">FunctionCast::prepare</text>
<text text-anchor="middle" x="519.5" y="-109.5" font-family="Helvetica,sans-Serif" font-size="10.00">_remove_nullable</text>
</a>
</g>
</g>
<!-- Node3&#45;&gt;Node4 -->
<g id="edge3" class="edge">
<title>Node3&#45;&gt;Node4</title>
<path fill="none" stroke="#63b8ff" d="M609.21,-123C598.16,-123 587,-123 576.5,-123"/>
<polygon fill="#63b8ff" stroke="#63b8ff" points="609.14,-126.5 619.14,-123 609.14,-119.5 609.14,-126.5"/>
</g>
<!-- Node5 -->
<g id="node5" class="node">
<title>Node5</title>
<g id="a_node5"><a xlink:href="../../d1/d1a/classdoris_1_1vectorized_1_1_function_cast.html#a6d1f7d24e39e3551057334c4434e3eaf" target="_top" xlink:title=" ">
<polygon fill="white" stroke="#666666" points="427,-143.5 314,-143.5 314,-102.5 427,-102.5 427,-143.5"/>
<text text-anchor="start" x="322" y="-131.5" font-family="Helvetica,sans-Serif" font-size="10.00">doris::vectorized::</text>
<text text-anchor="start" x="322" y="-120.5" font-family="Helvetica,sans-Serif" font-size="10.00">FunctionCast::prepare</text>
<text text-anchor="middle" x="370.5" y="-109.5" font-family="Helvetica,sans-Serif" font-size="10.00">_unpack_dictionaries</text>
</a>
</g>
</g>
<!-- Node4&#45;&gt;Node5 -->
<g id="edge4" class="edge">
<title>Node4&#45;&gt;Node5</title>
<path fill="none" stroke="#63b8ff" d="M451.01,-123C443.09,-123 435.08,-123 427.34,-123"/>
<polygon fill="#63b8ff" stroke="#63b8ff" points="450.99,-126.5 460.99,-123 450.99,-119.5 450.99,-126.5"/>
</g>
<!-- Node6 -->
<g id="node6" class="node">
<title>Node6</title>
<g id="a_node6"><a xlink:href="../../d1/d1a/classdoris_1_1vectorized_1_1_function_cast.html#a18af675244dcbbeb16b11a4c7c1c4055" target="_top" xlink:title=" ">
<polygon fill="white" stroke="#666666" points="265,-202.5 157,-202.5 157,-161.5 265,-161.5 265,-202.5"/>
<text text-anchor="start" x="165" y="-190.5" font-family="Helvetica,sans-Serif" font-size="10.00">doris::vectorized::</text>
<text text-anchor="start" x="165" y="-179.5" font-family="Helvetica,sans-Serif" font-size="10.00">FunctionCast::create</text>
<text text-anchor="middle" x="211" y="-168.5" font-family="Helvetica,sans-Serif" font-size="10.00">_array_wrapper</text>
</a>
</g>
</g>
<!-- Node5&#45;&gt;Node6 -->
<g id="edge5" class="edge">
<title>Node5&#45;&gt;Node6</title>
<path fill="none" stroke="#63b8ff" d="M303.1,-147.87C290.53,-152.58 277.52,-157.45 265.42,-161.99"/>
<polygon fill="#63b8ff" stroke="#63b8ff" points="303.97,-151.28 312.11,-144.5 301.52,-144.73 303.97,-151.28"/>
</g>
<!-- Node7 -->
<g id="node7" class="node">
<title>Node7</title>
<g id="a_node7"><a xlink:href="../../d1/d1a/classdoris_1_1vectorized_1_1_function_cast.html#a7b9a0727f239f297e8e59d993f933369" target="_top" xlink:title=" ">
<polygon fill="white" stroke="#666666" points="278,-143.5 144,-143.5 144,-102.5 278,-102.5 278,-143.5"/>
<text text-anchor="start" x="152" y="-131.5" font-family="Helvetica,sans-Serif" font-size="10.00">doris::vectorized::</text>
<text text-anchor="start" x="152" y="-120.5" font-family="Helvetica,sans-Serif" font-size="10.00">FunctionCast::get_element</text>
<text text-anchor="middle" x="211" y="-109.5" font-family="Helvetica,sans-Serif" font-size="10.00">_wrappers</text>
</a>
</g>
</g>
<!-- Node5&#45;&gt;Node7 -->
<g id="edge7" class="edge">
<title>Node5&#45;&gt;Node7</title>
<path fill="none" stroke="#63b8ff" d="M302.11,-123C294.22,-123 286.17,-123 278.29,-123"/>
<polygon fill="#63b8ff" stroke="#63b8ff" points="302.01,-126.5 312.01,-123 302.01,-119.5 302.01,-126.5"/>
</g>
<!-- Node9 -->
<g id="node9" class="node">
<title>Node9</title>
<g id="a_node9"><a xlink:href="../../d1/d1a/classdoris_1_1vectorized_1_1_function_cast.html#a54df05f03fe6fffefb668e7084780de1" target="_top" xlink:title=" ">
<polygon fill="white" stroke="#666666" points="267.5,-84 154.5,-84 154.5,-54 267.5,-54 267.5,-84"/>
<text text-anchor="start" x="162.5" y="-72" font-family="Helvetica,sans-Serif" font-size="10.00">doris::vectorized::</text>
<text text-anchor="middle" x="211" y="-61" font-family="Helvetica,sans-Serif" font-size="10.00">FunctionCast::prepare</text>
</a>
</g>
</g>
<!-- Node5&#45;&gt;Node9 -->
<g id="edge10" class="edge">
<title>Node5&#45;&gt;Node9</title>
<path fill="none" stroke="#63b8ff" d="M302.97,-100.19C287.53,-94.9 271.44,-89.38 257.17,-84.49"/>
<polygon fill="#63b8ff" stroke="#63b8ff" points="301.5,-103.39 312.1,-103.32 303.77,-96.76 301.5,-103.39"/>
</g>
<!-- Node6&#45;&gt;Node3 -->
<g id="edge6" class="edge">
<title>Node6&#45;&gt;Node3</title>
<path fill="none" stroke="#63b8ff" d="M276.73,-180.38C349.86,-177.73 472.21,-170.82 576,-153 596.62,-149.46 618.95,-143.88 638.25,-138.48"/>
<polygon fill="#63b8ff" stroke="#63b8ff" points="276.81,-176.87 266.94,-180.71 277.05,-183.87 276.81,-176.87"/>
</g>
<!-- Node8 -->
<g id="node8" class="node">
<title>Node8</title>
<g id="a_node8"><a xlink:href="../../d1/d1a/classdoris_1_1vectorized_1_1_function_cast.html#a86ca07c7d3689fa6eb8d4d65f986482f" target="_top" xlink:title=" ">
<polygon fill="white" stroke="#666666" points="108,-94.5 0,-94.5 0,-53.5 108,-53.5 108,-94.5"/>
<text text-anchor="start" x="8" y="-82.5" font-family="Helvetica,sans-Serif" font-size="10.00">doris::vectorized::</text>
<text text-anchor="start" x="8" y="-71.5" font-family="Helvetica,sans-Serif" font-size="10.00">FunctionCast::create</text>
<text text-anchor="middle" x="54" y="-60.5" font-family="Helvetica,sans-Serif" font-size="10.00">_struct_wrapper</text>
</a>
</g>
</g>
<!-- Node7&#45;&gt;Node8 -->
<g id="edge8" class="edge">
<title>Node7&#45;&gt;Node8</title>
<path fill="none" stroke="#63b8ff" d="M132.92,-98.63C124.6,-96 116.28,-93.37 108.33,-90.86"/>
<polygon fill="#63b8ff" stroke="#63b8ff" points="131.78,-101.94 142.37,-101.62 133.89,-95.27 131.78,-101.94"/>
</g>
<!-- Node8&#45;&gt;Node3 -->
<g id="edge9" class="edge">
<title>Node8&#45;&gt;Node3</title>
<path fill="none" stroke="#63b8ff" d="M119.46,-50.39C127.63,-48.17 135.94,-46.28 144,-45 334.84,-14.69 386.92,-54.17 576,-94 594.55,-97.91 614.65,-102.86 632.65,-107.55"/>
<polygon fill="#63b8ff" stroke="#63b8ff" points="118.54,-47.01 109.91,-53.16 120.49,-53.73 118.54,-47.01"/>
</g>
<!-- Node11 -->
<g id="node11" class="node">
<title>Node11</title>
<g id="a_node11"><a xlink:href="../../d0/d90/classdoris_1_1vectorized_1_1_function_binary_arithmetic.html#ada848f55845a18e2d7317a5f43d0aa9d" target="_top" xlink:title=" ">
<polygon fill="white" stroke="#666666" points="752.5,-89.5 626.5,-89.5 626.5,-48.5 752.5,-48.5 752.5,-89.5"/>
<text text-anchor="start" x="634.5" y="-77.5" font-family="Helvetica,sans-Serif" font-size="10.00">doris::vectorized::</text>
<text text-anchor="start" x="634.5" y="-66.5" font-family="Helvetica,sans-Serif" font-size="10.00">FunctionBinaryArithmetic</text>
<text text-anchor="middle" x="689.5" y="-55.5" font-family="Helvetica,sans-Serif" font-size="10.00">::get_return_type_impl</text>
</a>
</g>
</g>
<!-- Node10&#45;&gt;Node11 -->
<g id="edge12" class="edge">
<title>Node10&#45;&gt;Node11</title>
<path fill="none" stroke="#63b8ff" d="M793.19,-69C780.03,-69 766.14,-69 752.99,-69"/>
<polygon fill="#63b8ff" stroke="#63b8ff" points="793.03,-72.5 803.03,-69 793.03,-65.5 793.03,-72.5"/>
</g>
<!-- Node12 -->
<g id="node12" class="node">
<title>Node12</title>
<g id="a_node12"><a xlink:href="../../d6/d42/classdoris_1_1vectorized_1_1_decimal_comparison.html#a4e91add6e48767e257a36f798cea615e" target="_top" xlink:title=" ">
<polygon fill="white" stroke="#666666" points="767,-30 612,-30 612,0 767,0 767,-30"/>
<text text-anchor="start" x="620" y="-18" font-family="Helvetica,sans-Serif" font-size="10.00">doris::vectorized::</text>
<text text-anchor="middle" x="689.5" y="-7" font-family="Helvetica,sans-Serif" font-size="10.00">DecimalComparison::getScales</text>
</a>
</g>
</g>
<!-- Node10&#45;&gt;Node12 -->
<g id="edge13" class="edge">
<title>Node10&#45;&gt;Node12</title>
<path fill="none" stroke="#63b8ff" d="M797.64,-49.96C778.09,-43.58 756.54,-36.55 737.93,-30.48"/>
<polygon fill="#63b8ff" stroke="#63b8ff" points="796.54,-53.28 807.14,-53.06 798.71,-46.63 796.54,-53.28"/>
</g>
</g>
</svg>
