<?xml version="1.0" encoding="UTF-8" standalone="no"?>
<!DOCTYPE svg PUBLIC "-//W3C//DTD SVG 1.1//EN"
 "http://www.w3.org/Graphics/SVG/1.1/DTD/svg11.dtd">
<!-- Generated by graphviz version 7.1.0 (20230121.1956)
 -->
<!-- Title: lookup_result_get_mapped Pages: 1 -->
<svg width="306pt" height="124pt"
 viewBox="0.00 0.00 306.00 123.50" xmlns="http://www.w3.org/2000/svg" xmlns:xlink="http://www.w3.org/1999/xlink">
<g id="graph0" class="graph" transform="scale(1 1) rotate(0) translate(4 119.5)">
<title>lookup_result_get_mapped</title>
<!-- Node1 -->
<g id="node1" class="node">
<title>Node1</title>
<g id="a_node1"><a xlink:title=" ">
<polygon fill="#999999" stroke="#666666" points="298,-62 165,-62 165,-43 298,-43 298,-62"/>
<text text-anchor="middle" x="231.5" y="-50" font-family="Helvetica,sans-Serif" font-size="10.00">lookup_result_get_mapped</text>
</a>
</g>
</g>
<!-- Node2 -->
<g id="node2" class="node">
<title>Node2</title>
<g id="a_node2"><a xlink:href="../../dd/d0c/class_hash_map_table.html#ac49ea447e4a3896df0bf1a7fe2b04418" target="_top" xlink:title=" ">
<polygon fill="white" stroke="#666666" points="122,-115.5 7,-115.5 7,-85.5 122,-85.5 122,-115.5"/>
<text text-anchor="start" x="15" y="-103.5" font-family="Helvetica,sans-Serif" font-size="10.00">HashMapTable::merge</text>
<text text-anchor="middle" x="64.5" y="-92.5" font-family="Helvetica,sans-Serif" font-size="10.00">_to_via_emplace</text>
</a>
</g>
</g>
<!-- Node1&#45;&gt;Node2 -->
<g id="edge1" class="edge">
<title>Node1&#45;&gt;Node2</title>
<path fill="none" stroke="#63b8ff" d="M185.29,-65.65C164.63,-71.66 140.01,-78.82 118.49,-85.08"/>
<polygon fill="#63b8ff" stroke="#63b8ff" points="186.23,-69.02 194.86,-62.87 184.28,-62.3 186.23,-69.02"/>
</g>
<!-- Node3 -->
<g id="node3" class="node">
<title>Node3</title>
<g id="a_node3"><a xlink:href="../../dd/d0c/class_hash_map_table.html#a346cdfec5c11d8891441b6e253fe73bb" target="_top" xlink:title=" ">
<polygon fill="white" stroke="#666666" points="122,-67.5 7,-67.5 7,-37.5 122,-37.5 122,-67.5"/>
<text text-anchor="start" x="15" y="-55.5" font-family="Helvetica,sans-Serif" font-size="10.00">HashMapTable::merge</text>
<text text-anchor="middle" x="64.5" y="-44.5" font-family="Helvetica,sans-Serif" font-size="10.00">_to_via_find</text>
</a>
</g>
</g>
<!-- Node1&#45;&gt;Node3 -->
<g id="edge2" class="edge">
<title>Node1&#45;&gt;Node3</title>
<path fill="none" stroke="#63b8ff" d="M153.53,-52.5C143.06,-52.5 132.47,-52.5 122.44,-52.5"/>
<polygon fill="#63b8ff" stroke="#63b8ff" points="153.3,-56 163.3,-52.5 153.3,-49 153.3,-56"/>
</g>
<!-- Node4 -->
<g id="node4" class="node">
<title>Node4</title>
<g id="a_node4"><a xlink:href="../../dd/d0c/class_hash_map_table.html#a1f3e6c7d0ad535de078be8f35ad58318" target="_top" xlink:title=" ">
<polygon fill="white" stroke="#666666" points="129,-19 0,-19 0,0 129,0 129,-19"/>
<text text-anchor="middle" x="64.5" y="-7" font-family="Helvetica,sans-Serif" font-size="10.00">HashMapTable::operator[]</text>
</a>
</g>
</g>
<!-- Node1&#45;&gt;Node4 -->
<g id="edge3" class="edge">
<title>Node1&#45;&gt;Node4</title>
<path fill="none" stroke="#63b8ff" d="M181.23,-39.66C156.46,-33.2 126.89,-25.5 103.85,-19.49"/>
<polygon fill="#63b8ff" stroke="#63b8ff" points="180.21,-43.01 190.77,-42.15 181.97,-36.24 180.21,-43.01"/>
</g>
</g>
</svg>
