<?xml version="1.0" encoding="UTF-8" standalone="no"?>
<!DOCTYPE svg PUBLIC "-//W3C//DTD SVG 1.1//EN"
 "http://www.w3.org/Graphics/SVG/1.1/DTD/svg11.dtd">
<!-- Generated by graphviz version 7.1.0 (20230121.1956)
 -->
<!-- Title: upload_to Pages: 1 -->
<svg width="870pt" height="629pt"
 viewBox="0.00 0.00 870.00 629.00" xmlns="http://www.w3.org/2000/svg" xmlns:xlink="http://www.w3.org/1999/xlink">
<g id="graph0" class="graph" transform="scale(1 1) rotate(0) translate(4 625)">
<title>upload_to</title>
<!-- Node1 -->
<g id="node1" class="node">
<title>Node1</title>
<g id="a_node1"><a xlink:title=" ">
<polygon fill="#999999" stroke="#666666" points="59,-298.5 0,-298.5 0,-279.5 59,-279.5 59,-298.5"/>
<text text-anchor="middle" x="29.5" y="-286.5" font-family="Helvetica,sans-Serif" font-size="10.00">upload_to</text>
</a>
</g>
</g>
<!-- Node2 -->
<g id="node2" class="node">
<title>Node2</title>
<g id="a_node2"><a xlink:href="../../df/d48/classdoris_1_1io_1_1_remote_file_system.html#a8d65edab9432d01296a61f54cf31d5c6" target="_top" xlink:title=" ">
<polygon fill="white" stroke="#666666" points="236,-579 95,-579 95,-549 236,-549 236,-579"/>
<text text-anchor="start" x="103" y="-567" font-family="Helvetica,sans-Serif" font-size="10.00">doris::io::RemoteFileSystem</text>
<text text-anchor="middle" x="165.5" y="-556" font-family="Helvetica,sans-Serif" font-size="10.00">::batch_upload</text>
</a>
</g>
</g>
<!-- Node1&#45;&gt;Node2 -->
<g id="edge1" class="edge">
<title>Node1&#45;&gt;Node2</title>
<path fill="none" stroke="#63b8ff" d="M29.96,-298.93C28.49,-335.98 28.36,-467.73 95,-540 95.47,-540.51 95.96,-541.02 96.45,-541.51"/>
<polygon fill="#63b8ff" stroke="#63b8ff" points="94.13,-544.13 104.13,-547.62 98.49,-538.65 94.13,-544.13"/>
</g>
<!-- Node5 -->
<g id="node5" class="node">
<title>Node5</title>
<g id="a_node5"><a xlink:href="../../da/d4c/classdoris_1_1_rowset.html#aba1b14295a61bd98908f0b91878b1515" target="_top" xlink:title=" ">
<polygon fill="white" stroke="#666666" points="393.5,-358 291.5,-358 291.5,-328 393.5,-328 393.5,-358"/>
<text text-anchor="start" x="299.5" y="-346" font-family="Helvetica,sans-Serif" font-size="10.00">doris::Rowset::data</text>
<text text-anchor="middle" x="342.5" y="-335" font-family="Helvetica,sans-Serif" font-size="10.00">_disk_size</text>
</a>
</g>
</g>
<!-- Node1&#45;&gt;Node5 -->
<g id="edge4" class="edge">
<title>Node1&#45;&gt;Node5</title>
<path fill="none" stroke="#63b8ff" d="M31.11,-298.8C33.47,-327.01 44.56,-408.53 95,-442 147.21,-476.65 177.73,-465.06 236,-442 273.73,-427.07 305.86,-391.56 324.42,-367.38"/>
<polygon fill="#63b8ff" stroke="#63b8ff" points="327.02,-369.76 330.18,-359.65 321.4,-365.58 327.02,-369.76"/>
</g>
<!-- Node7 -->
<g id="node7" class="node">
<title>Node7</title>
<g id="a_node7"><a xlink:href="../../df/d82/classdoris_1_1segment__v2_1_1_inverted_index_descriptor.html#a3ba481409ef57782985d7258e965549f" target="_top" xlink:title=" ">
<polygon fill="white" stroke="#666666" points="226,-530.5 105,-530.5 105,-489.5 226,-489.5 226,-530.5"/>
<text text-anchor="start" x="113" y="-518.5" font-family="Helvetica,sans-Serif" font-size="10.00">doris::segment_v2::</text>
<text text-anchor="start" x="113" y="-507.5" font-family="Helvetica,sans-Serif" font-size="10.00">InvertedIndexDescriptor</text>
<text text-anchor="middle" x="165.5" y="-496.5" font-family="Helvetica,sans-Serif" font-size="10.00">::get_index_file_name</text>
</a>
</g>
</g>
<!-- Node1&#45;&gt;Node7 -->
<g id="edge6" class="edge">
<title>Node1&#45;&gt;Node7</title>
<path fill="none" stroke="#63b8ff" d="M31.33,-298.76C34.36,-328.7 47.28,-420.48 95,-475 97.28,-477.61 99.81,-480.05 102.5,-482.32"/>
<polygon fill="#63b8ff" stroke="#63b8ff" points="100.26,-485.02 110.38,-488.14 104.42,-479.39 100.26,-485.02"/>
</g>
<!-- Node16 -->
<g id="node16" class="node">
<title>Node16</title>
<g id="a_node16"><a xlink:href="../../db/de2/classdoris_1_1_atomic_metric.html#a6c7e8662093760ffbf15dfa08ef03eb2" target="_top" xlink:title=" ">
<polygon fill="white" stroke="#666666" points="216,-433 115,-433 115,-403 216,-403 216,-433"/>
<text text-anchor="start" x="123" y="-421" font-family="Helvetica,sans-Serif" font-size="10.00">doris::AtomicMetric</text>
<text text-anchor="middle" x="165.5" y="-410" font-family="Helvetica,sans-Serif" font-size="10.00">::increment</text>
</a>
</g>
</g>
<!-- Node1&#45;&gt;Node16 -->
<g id="edge15" class="edge">
<title>Node1&#45;&gt;Node16</title>
<path fill="none" stroke="#63b8ff" d="M33.96,-298.96C41.65,-319.66 62.13,-367.62 95,-394 98.03,-396.43 101.32,-398.62 104.77,-400.6"/>
<polygon fill="#63b8ff" stroke="#63b8ff" points="102.94,-403.6 113.45,-404.93 106.07,-397.34 102.94,-403.6"/>
</g>
<!-- Node17 -->
<g id="node17" class="node">
<title>Node17</title>
<g id="a_node17"><a xlink:href="../../db/d40/classdoris_1_1_core_local_counter.html#a6c7e8662093760ffbf15dfa08ef03eb2" target="_top" xlink:title=" ">
<polygon fill="white" stroke="#666666" points="226.5,-385 104.5,-385 104.5,-355 226.5,-355 226.5,-385"/>
<text text-anchor="start" x="112.5" y="-373" font-family="Helvetica,sans-Serif" font-size="10.00">doris::CoreLocalCounter</text>
<text text-anchor="middle" x="165.5" y="-362" font-family="Helvetica,sans-Serif" font-size="10.00">::increment</text>
</a>
</g>
</g>
<!-- Node1&#45;&gt;Node17 -->
<g id="edge16" class="edge">
<title>Node1&#45;&gt;Node17</title>
<path fill="none" stroke="#63b8ff" d="M39.2,-298.76C50.81,-311.27 72.54,-332.9 95,-346 97.33,-347.36 99.74,-348.65 102.21,-349.89"/>
<polygon fill="#63b8ff" stroke="#63b8ff" points="100.7,-353.05 111.25,-354.01 103.6,-346.68 100.7,-353.05"/>
</g>
<!-- Node18 -->
<g id="node18" class="node">
<title>Node18</title>
<g id="a_node18"><a xlink:href="../../d1/da0/classdoris_1_1_tablet_index.html#a94fe0a62ff6bc40b5bde405234a8dc39" target="_top" xlink:title=" ">
<polygon fill="white" stroke="#666666" points="212.5,-337 118.5,-337 118.5,-307 212.5,-307 212.5,-337"/>
<text text-anchor="start" x="126.5" y="-325" font-family="Helvetica,sans-Serif" font-size="10.00">doris::TabletIndex</text>
<text text-anchor="middle" x="165.5" y="-314" font-family="Helvetica,sans-Serif" font-size="10.00">::index_id</text>
</a>
</g>
</g>
<!-- Node1&#45;&gt;Node18 -->
<g id="edge17" class="edge">
<title>Node1&#45;&gt;Node18</title>
<path fill="none" stroke="#63b8ff" d="M59.25,-296.08C73.31,-299.54 90.77,-303.84 107.39,-307.93"/>
<polygon fill="#63b8ff" stroke="#63b8ff" points="106.13,-311.23 116.68,-310.22 107.8,-304.43 106.13,-311.23"/>
</g>
<!-- Node19 -->
<g id="node19" class="node">
<title>Node19</title>
<g id="a_node19"><a xlink:href="../../d3/d7b/classdoris_1_1_doris_metrics.html#a4d0ce88513091aec833045b4eddeee8b" target="_top" xlink:title=" ">
<polygon fill="white" stroke="#666666" points="215,-271 116,-271 116,-241 215,-241 215,-271"/>
<text text-anchor="start" x="124" y="-259" font-family="Helvetica,sans-Serif" font-size="10.00">doris::DorisMetrics</text>
<text text-anchor="middle" x="165.5" y="-248" font-family="Helvetica,sans-Serif" font-size="10.00">::instance</text>
</a>
</g>
</g>
<!-- Node1&#45;&gt;Node19 -->
<g id="edge18" class="edge">
<title>Node1&#45;&gt;Node19</title>
<path fill="none" stroke="#63b8ff" d="M59.25,-281.92C72.62,-278.63 89.05,-274.58 104.91,-270.67"/>
<polygon fill="#63b8ff" stroke="#63b8ff" points="105.42,-274.15 114.29,-268.36 103.75,-267.36 105.42,-274.15"/>
</g>
<!-- Node20 -->
<g id="node20" class="node">
<title>Node20</title>
<g id="a_node20"><a xlink:href="../../da/d4c/classdoris_1_1_rowset.html#aef8e753cccabd64207d9ca9e8e034133" target="_top" xlink:title=" ">
<polygon fill="white" stroke="#666666" points="223.5,-222.5 107.5,-222.5 107.5,-203.5 223.5,-203.5 223.5,-222.5"/>
<text text-anchor="middle" x="165.5" y="-210.5" font-family="Helvetica,sans-Serif" font-size="10.00">doris::Rowset::is_local</text>
</a>
</g>
</g>
<!-- Node1&#45;&gt;Node20 -->
<g id="edge20" class="edge">
<title>Node1&#45;&gt;Node20</title>
<path fill="none" stroke="#63b8ff" d="M39.07,-279.01C50.55,-266.25 72.12,-244.36 95,-232 98.46,-230.13 102.12,-228.43 105.88,-226.89"/>
<polygon fill="#63b8ff" stroke="#63b8ff" points="107.03,-230.2 115.22,-223.48 104.63,-223.62 107.03,-230.2"/>
</g>
<!-- Node21 -->
<g id="node21" class="node">
<title>Node21</title>
<g id="a_node21"><a xlink:href="../../da/d4c/classdoris_1_1_rowset.html#aa5e435ac1546bb31f145ad5a0c0f62aa" target="_top" xlink:title=" ">
<polygon fill="white" stroke="#666666" points="393.5,-153 291.5,-153 291.5,-123 393.5,-123 393.5,-153"/>
<text text-anchor="start" x="299.5" y="-141" font-family="Helvetica,sans-Serif" font-size="10.00">doris::Rowset::num</text>
<text text-anchor="middle" x="342.5" y="-130" font-family="Helvetica,sans-Serif" font-size="10.00">_segments</text>
</a>
</g>
</g>
<!-- Node1&#45;&gt;Node21 -->
<g id="edge21" class="edge">
<title>Node1&#45;&gt;Node21</title>
<path fill="none" stroke="#63b8ff" d="M31.98,-279.32C36.37,-254.29 51.81,-187.36 95,-158 149.25,-121.12 226.55,-121.13 280.06,-127.15"/>
<polygon fill="#63b8ff" stroke="#63b8ff" points="279.58,-130.61 289.93,-128.37 280.44,-123.67 279.58,-130.61"/>
</g>
<!-- Node22 -->
<g id="node22" class="node">
<title>Node22</title>
<g id="a_node22"><a xlink:href="../../d9/d8d/classdoris_1_1_status.html#a6ec1a217f203269ab53d2290d602db24" target="_top" xlink:title=" ">
<polygon fill="white" stroke="#666666" points="211.5,-185.5 119.5,-185.5 119.5,-166.5 211.5,-166.5 211.5,-185.5"/>
<text text-anchor="middle" x="165.5" y="-173.5" font-family="Helvetica,sans-Serif" font-size="10.00">doris::Status::OK</text>
</a>
</g>
</g>
<!-- Node1&#45;&gt;Node22 -->
<g id="edge23" class="edge">
<title>Node1&#45;&gt;Node22</title>
<path fill="none" stroke="#63b8ff" d="M34.51,-279.05C42.8,-259.76 63.71,-217.25 95,-195 99.13,-192.07 103.68,-189.59 108.43,-187.49"/>
<polygon fill="#63b8ff" stroke="#63b8ff" points="109.51,-190.82 117.63,-184.01 107.04,-184.27 109.51,-190.82"/>
</g>
<!-- Node24 -->
<g id="node24" class="node">
<title>Node24</title>
<g id="a_node24"><a xlink:href="../../de/d50/classdoris_1_1_beta_rowset.html#a249be4c7d44ea5eb1352c1ddb045367d" target="_top" xlink:title=" ">
<polygon fill="white" stroke="#666666" points="222,-36.5 109,-36.5 109,-17.5 222,-17.5 222,-36.5"/>
<text text-anchor="middle" x="165.5" y="-24.5" font-family="Helvetica,sans-Serif" font-size="10.00">remote_segment_path</text>
</a>
</g>
</g>
<!-- Node1&#45;&gt;Node24 -->
<g id="edge25" class="edge">
<title>Node1&#45;&gt;Node24</title>
<path fill="none" stroke="#63b8ff" d="M30.65,-279.17C31.65,-245.21 39.21,-131.23 95,-63 102.35,-54.01 112.55,-47 122.87,-41.67"/>
<polygon fill="#63b8ff" stroke="#63b8ff" points="124.17,-44.92 131.75,-37.51 121.21,-38.58 124.17,-44.92"/>
</g>
<!-- Node28 -->
<g id="node28" class="node">
<title>Node28</title>
<g id="a_node28"><a xlink:href="../../de/d50/classdoris_1_1_beta_rowset.html#a0f5a898dfc72168d44f29f5d0e3cd269" target="_top" xlink:title=" ">
<polygon fill="white" stroke="#666666" points="213.5,-91.5 117.5,-91.5 117.5,-72.5 213.5,-72.5 213.5,-91.5"/>
<text text-anchor="middle" x="165.5" y="-79.5" font-family="Helvetica,sans-Serif" font-size="10.00">segment_file_path</text>
</a>
</g>
</g>
<!-- Node1&#45;&gt;Node28 -->
<g id="edge31" class="edge">
<title>Node1&#45;&gt;Node28</title>
<path fill="none" stroke="#63b8ff" d="M32.04,-279.33C36.81,-252.03 53.59,-173.17 95,-124 104.37,-112.88 117.46,-103.9 129.77,-97.15"/>
<polygon fill="#63b8ff" stroke="#63b8ff" points="131.17,-100.36 138.47,-92.69 127.97,-94.13 131.17,-100.36"/>
</g>
<!-- Node3 -->
<g id="node3" class="node">
<title>Node3</title>
<g id="a_node3"><a xlink:href="../../df/d9d/classdoris_1_1io_1_1_file_system.html#af614d44d5076423e5465511146cfd6fd" target="_top" xlink:title=" ">
<polygon fill="white" stroke="#666666" points="396,-573 289,-573 289,-543 396,-543 396,-573"/>
<text text-anchor="start" x="297" y="-561" font-family="Helvetica,sans-Serif" font-size="10.00">doris::io::FileSystem</text>
<text text-anchor="middle" x="342.5" y="-550" font-family="Helvetica,sans-Serif" font-size="10.00">::absolute_path</text>
</a>
</g>
</g>
<!-- Node2&#45;&gt;Node3 -->
<g id="edge2" class="edge">
<title>Node2&#45;&gt;Node3</title>
<path fill="none" stroke="#63b8ff" d="M236.42,-561.6C249.89,-561.14 263.95,-560.66 277.23,-560.2"/>
<polygon fill="#63b8ff" stroke="#63b8ff" points="277.29,-563.7 287.16,-559.86 277.05,-556.71 277.29,-563.7"/>
</g>
<!-- Node4 -->
<g id="node4" class="node">
<title>Node4</title>
<g id="a_node4"><a xlink:href="../../df/d48/classdoris_1_1io_1_1_remote_file_system.html#aba7fb580a264c138207f8477c7803cf6" target="_top" xlink:title=" ">
<polygon fill="white" stroke="#666666" points="413,-621 272,-621 272,-591 413,-591 413,-621"/>
<text text-anchor="start" x="280" y="-609" font-family="Helvetica,sans-Serif" font-size="10.00">doris::io::RemoteFileSystem</text>
<text text-anchor="middle" x="342.5" y="-598" font-family="Helvetica,sans-Serif" font-size="10.00">::batch_upload_impl</text>
</a>
</g>
</g>
<!-- Node2&#45;&gt;Node4 -->
<g id="edge3" class="edge">
<title>Node2&#45;&gt;Node4</title>
<path fill="none" stroke="#63b8ff" d="M230.67,-579.4C242.13,-582.15 254.16,-585.04 265.9,-587.86"/>
<polygon fill="#63b8ff" stroke="#63b8ff" points="265.03,-591.25 275.57,-590.18 266.67,-584.44 265.03,-591.25"/>
</g>
<!-- Node6 -->
<g id="node6" class="node">
<title>Node6</title>
<g id="a_node6"><a xlink:href="../../da/d4c/classdoris_1_1_rowset.html#acc853122cc0085dc53b44babe3ef8979" target="_top" xlink:title=" ">
<polygon fill="white" stroke="#666666" points="589,-125.5 449,-125.5 449,-106.5 589,-106.5 589,-125.5"/>
<text text-anchor="middle" x="519" y="-113.5" font-family="Helvetica,sans-Serif" font-size="10.00">doris::Rowset::rowset_meta</text>
</a>
</g>
</g>
<!-- Node5&#45;&gt;Node6 -->
<g id="edge5" class="edge">
<title>Node5&#45;&gt;Node6</title>
<path fill="none" stroke="#63b8ff" d="M355.22,-327.75C386.13,-287.54 469.8,-178.7 503.57,-134.77"/>
<polygon fill="#63b8ff" stroke="#63b8ff" points="506.27,-137.01 509.58,-126.95 500.72,-132.74 506.27,-137.01"/>
</g>
<!-- Node8 -->
<g id="node8" class="node">
<title>Node8</title>
<g id="a_node8"><a xlink:href="../../db/d07/strip_8cc.html#a7db721acd92e4d4500371b9f87c72085" target="_top" xlink:title=" ">
<polygon fill="white" stroke="#666666" points="386.5,-519.5 298.5,-519.5 298.5,-500.5 386.5,-500.5 386.5,-519.5"/>
<text text-anchor="middle" x="342.5" y="-507.5" font-family="Helvetica,sans-Serif" font-size="10.00">StripSuffixString</text>
</a>
</g>
</g>
<!-- Node7&#45;&gt;Node8 -->
<g id="edge7" class="edge">
<title>Node7&#45;&gt;Node8</title>
<path fill="none" stroke="#63b8ff" d="M226.24,-510C245.84,-510 267.53,-510 286.75,-510"/>
<polygon fill="#63b8ff" stroke="#63b8ff" points="286.53,-513.5 296.53,-510 286.53,-506.5 286.53,-513.5"/>
</g>
<!-- Node9 -->
<g id="node9" class="node">
<title>Node9</title>
<g id="a_node9"><a xlink:href="../../d4/d96/class_string_piece.html#a0698d0765918aa8b19515f77cff649e1" target="_top" xlink:title=" ">
<polygon fill="white" stroke="#666666" points="575.5,-497.5 462.5,-497.5 462.5,-478.5 575.5,-478.5 575.5,-497.5"/>
<text text-anchor="middle" x="519" y="-485.5" font-family="Helvetica,sans-Serif" font-size="10.00">StringPiece::as_string</text>
</a>
</g>
</g>
<!-- Node8&#45;&gt;Node9 -->
<g id="edge8" class="edge">
<title>Node8&#45;&gt;Node9</title>
<path fill="none" stroke="#63b8ff" d="M386.63,-504.56C405.97,-502.12 429.23,-499.19 450.76,-496.48"/>
<polygon fill="#63b8ff" stroke="#63b8ff" points="451.19,-499.95 460.67,-495.23 450.32,-493.01 451.19,-499.95"/>
</g>
<!-- Node13 -->
<g id="node13" class="node">
<title>Node13</title>
<g id="a_node13"><a xlink:href="../../d4/d96/class_string_piece.html#a7487e6ececb6cc57698b94e97409b175" target="_top" xlink:title=" ">
<polygon fill="white" stroke="#666666" points="577.5,-460.5 460.5,-460.5 460.5,-441.5 577.5,-441.5 577.5,-460.5"/>
<text text-anchor="middle" x="519" y="-448.5" font-family="Helvetica,sans-Serif" font-size="10.00">StringPiece::ends_with</text>
</a>
</g>
</g>
<!-- Node8&#45;&gt;Node13 -->
<g id="edge12" class="edge">
<title>Node8&#45;&gt;Node13</title>
<path fill="none" stroke="#63b8ff" d="M367.57,-500.13C388.81,-491.61 420.7,-479.24 449,-470 455.28,-467.95 461.93,-465.93 468.52,-464.02"/>
<polygon fill="#63b8ff" stroke="#63b8ff" points="469.36,-467.42 478.03,-461.33 467.46,-460.68 469.36,-467.42"/>
</g>
<!-- Node14 -->
<g id="node14" class="node">
<title>Node14</title>
<g id="a_node14"><a xlink:href="../../d4/d96/class_string_piece.html#a91213974fa3ac3959b1c355a9e588f8d" target="_top" xlink:title=" ">
<polygon fill="white" stroke="#666666" points="568.5,-583.5 469.5,-583.5 469.5,-564.5 568.5,-564.5 568.5,-583.5"/>
<text text-anchor="middle" x="519" y="-571.5" font-family="Helvetica,sans-Serif" font-size="10.00">StringPiece::length</text>
</a>
</g>
</g>
<!-- Node8&#45;&gt;Node14 -->
<g id="edge13" class="edge">
<title>Node8&#45;&gt;Node14</title>
<path fill="none" stroke="#63b8ff" d="M376.55,-519.94C388.26,-523.85 401.4,-528.68 413,-534 429.83,-541.73 431.93,-547.81 449,-555 453.9,-557.06 459.08,-558.96 464.32,-560.7"/>
<polygon fill="#63b8ff" stroke="#63b8ff" points="463.05,-563.97 473.64,-563.59 465.12,-557.29 463.05,-563.97"/>
</g>
<!-- Node15 -->
<g id="node15" class="node">
<title>Node15</title>
<g id="a_node15"><a xlink:href="../../d4/d96/class_string_piece.html#a63be252f1ef4e181e3f878ed0c178311" target="_top" xlink:title=" ">
<polygon fill="white" stroke="#666666" points="571.5,-546 466.5,-546 466.5,-516 571.5,-516 571.5,-546"/>
<text text-anchor="start" x="474.5" y="-534" font-family="Helvetica,sans-Serif" font-size="10.00">StringPiece::remove</text>
<text text-anchor="middle" x="519" y="-523" font-family="Helvetica,sans-Serif" font-size="10.00">_suffix</text>
</a>
</g>
</g>
<!-- Node8&#45;&gt;Node15 -->
<g id="edge14" class="edge">
<title>Node8&#45;&gt;Node15</title>
<path fill="none" stroke="#63b8ff" d="M386.63,-515.19C407.18,-517.66 432.16,-520.67 454.8,-523.39"/>
<polygon fill="#63b8ff" stroke="#63b8ff" points="454.19,-526.85 464.54,-524.57 455.03,-519.9 454.19,-526.85"/>
</g>
<!-- Node10 -->
<g id="node10" class="node">
<title>Node10</title>
<g id="a_node10"><a xlink:href="../../d4/d96/class_string_piece.html#a19c380b03cea21d7ac7325136a131ff0" target="_top" xlink:title=" ">
<polygon fill="white" stroke="#666666" points="734,-497.5 625,-497.5 625,-478.5 734,-478.5 734,-497.5"/>
<text text-anchor="middle" x="679.5" y="-485.5" font-family="Helvetica,sans-Serif" font-size="10.00">StringPiece::ToString</text>
</a>
</g>
</g>
<!-- Node9&#45;&gt;Node10 -->
<g id="edge9" class="edge">
<title>Node9&#45;&gt;Node10</title>
<path fill="none" stroke="#63b8ff" d="M575.88,-488C588.03,-488 600.98,-488 613.44,-488"/>
<polygon fill="#63b8ff" stroke="#63b8ff" points="613.21,-491.5 623.21,-488 613.21,-484.5 613.21,-491.5"/>
</g>
<!-- Node11 -->
<g id="node11" class="node">
<title>Node11</title>
<g id="a_node11"><a xlink:href="../../d4/d96/class_string_piece.html#aa3affb1becdd976aba1036a161a3134d" target="_top" xlink:title=" ">
<polygon fill="white" stroke="#666666" points="862,-516.5 770,-516.5 770,-497.5 862,-497.5 862,-516.5"/>
<text text-anchor="middle" x="816" y="-504.5" font-family="Helvetica,sans-Serif" font-size="10.00">StringPiece::data</text>
</a>
</g>
</g>
<!-- Node10&#45;&gt;Node11 -->
<g id="edge10" class="edge">
<title>Node10&#45;&gt;Node11</title>
<path fill="none" stroke="#63b8ff" d="M734.43,-495.62C742.29,-496.73 750.4,-497.87 758.31,-498.99"/>
<polygon fill="#63b8ff" stroke="#63b8ff" points="757.81,-502.46 768.2,-500.39 758.79,-495.52 757.81,-502.46"/>
</g>
<!-- Node12 -->
<g id="node12" class="node">
<title>Node12</title>
<g id="a_node12"><a xlink:href="../../d4/d96/class_string_piece.html#af9593d4a5ff4274efaf429cb4f9e57cc" target="_top" xlink:title=" ">
<polygon fill="white" stroke="#666666" points="861.5,-479.5 770.5,-479.5 770.5,-460.5 861.5,-460.5 861.5,-479.5"/>
<text text-anchor="middle" x="816" y="-467.5" font-family="Helvetica,sans-Serif" font-size="10.00">StringPiece::size</text>
</a>
</g>
</g>
<!-- Node10&#45;&gt;Node12 -->
<g id="edge11" class="edge">
<title>Node10&#45;&gt;Node12</title>
<path fill="none" stroke="#63b8ff" d="M734.43,-480.78C742.48,-479.71 750.79,-478.59 758.88,-477.51"/>
<polygon fill="#63b8ff" stroke="#63b8ff" points="759.18,-481 768.62,-476.21 758.25,-474.06 759.18,-481"/>
</g>
<!-- Node19&#45;&gt;Node19 -->
<g id="edge19" class="edge">
<title>Node19&#45;&gt;Node19</title>
<path fill="none" stroke="#63b8ff" d="M141.59,-271.28C136.28,-280.41 144.25,-289 165.5,-289 177.12,-289 184.77,-286.43 188.45,-282.61"/>
<polygon fill="#63b8ff" stroke="#63b8ff" points="191.92,-283.04 189.28,-272.78 184.95,-282.45 191.92,-283.04"/>
</g>
<!-- Node21&#45;&gt;Node6 -->
<g id="edge22" class="edge">
<title>Node21&#45;&gt;Node6</title>
<path fill="none" stroke="#63b8ff" d="M393.97,-131.64C407.61,-129.92 422.71,-128.01 437.55,-126.14"/>
<polygon fill="#63b8ff" stroke="#63b8ff" points="437.83,-129.63 447.32,-124.91 436.96,-122.69 437.83,-129.63"/>
</g>
<!-- Node23 -->
<g id="node23" class="node">
<title>Node23</title>
<g id="a_node23"><a xlink:href="../../d9/d8d/classdoris_1_1_status.html#aafde58df1b2a6a91d5b674373be3ffc5" target="_top" xlink:title=" ">
<polygon fill="white" stroke="#666666" points="396,-190.5 289,-190.5 289,-171.5 396,-171.5 396,-190.5"/>
<text text-anchor="middle" x="342.5" y="-178.5" font-family="Helvetica,sans-Serif" font-size="10.00">doris::Status::Status</text>
</a>
</g>
</g>
<!-- Node22&#45;&gt;Node23 -->
<g id="edge24" class="edge">
<title>Node22&#45;&gt;Node23</title>
<path fill="none" stroke="#63b8ff" d="M211.57,-177.29C231.48,-177.86 255.27,-178.54 277.01,-179.16"/>
<polygon fill="#63b8ff" stroke="#63b8ff" points="276.9,-182.66 286.99,-179.44 277.1,-175.66 276.9,-182.66"/>
</g>
<!-- Node24&#45;&gt;Node24 -->
<g id="edge26" class="edge">
<title>Node24&#45;&gt;Node24</title>
<path fill="none" stroke="#63b8ff" d="M144.21,-36.87C134.5,-45.44 141.59,-54.5 165.5,-54.5 178.57,-54.5 186.62,-51.79 189.64,-47.93"/>
<polygon fill="#63b8ff" stroke="#63b8ff" points="193.05,-47.15 187.17,-38.33 186.27,-48.89 193.05,-47.15"/>
</g>
<!-- Node25 -->
<g id="node25" class="node">
<title>Node25</title>
<g id="a_node25"><a xlink:href="../../da/d4c/classdoris_1_1_rowset.html#a154068040e19040b8e2468c080e00e05" target="_top" xlink:title=" ">
<polygon fill="white" stroke="#666666" points="405,-67.5 280,-67.5 280,-48.5 405,-48.5 405,-67.5"/>
<text text-anchor="middle" x="342.5" y="-55.5" font-family="Helvetica,sans-Serif" font-size="10.00">doris::Rowset::rowset_id</text>
</a>
</g>
</g>
<!-- Node24&#45;&gt;Node25 -->
<g id="edge27" class="edge">
<title>Node24&#45;&gt;Node25</title>
<path fill="none" stroke="#63b8ff" d="M222.35,-36.89C238.85,-39.82 257.07,-43.04 274.21,-46.08"/>
<polygon fill="#63b8ff" stroke="#63b8ff" points="273.33,-49.48 283.79,-47.78 274.55,-42.59 273.33,-49.48"/>
</g>
<!-- Node26 -->
<g id="node26" class="node">
<title>Node26</title>
<g id="a_node26"><a xlink:href="../../dc/de2/structdoris_1_1_rowset_id.html#aac993ecccd3d88aafefb6b8e3caa1dee" target="_top" xlink:title=" ">
<polygon fill="white" stroke="#666666" points="392.5,-30 292.5,-30 292.5,0 392.5,0 392.5,-30"/>
<text text-anchor="start" x="300.5" y="-18" font-family="Helvetica,sans-Serif" font-size="10.00">doris::RowsetId::to</text>
<text text-anchor="middle" x="342.5" y="-7" font-family="Helvetica,sans-Serif" font-size="10.00">_string</text>
</a>
</g>
</g>
<!-- Node24&#45;&gt;Node26 -->
<g id="edge29" class="edge">
<title>Node24&#45;&gt;Node26</title>
<path fill="none" stroke="#63b8ff" d="M222.35,-23.17C241,-21.89 261.85,-20.46 280.84,-19.16"/>
<polygon fill="#63b8ff" stroke="#63b8ff" points="280.84,-22.67 290.57,-18.49 280.36,-15.68 280.84,-22.67"/>
</g>
<!-- Node25&#45;&gt;Node6 -->
<g id="edge28" class="edge">
<title>Node25&#45;&gt;Node6</title>
<path fill="none" stroke="#63b8ff" d="M384.88,-67.91C394.18,-70.37 403.98,-73.12 413,-76 436.84,-83.6 463.14,-93.63 483.46,-101.74"/>
<polygon fill="#63b8ff" stroke="#63b8ff" points="482.09,-104.96 492.68,-105.45 484.71,-98.47 482.09,-104.96"/>
</g>
<!-- Node27 -->
<g id="node27" class="node">
<title>Node27</title>
<g id="a_node27"><a xlink:href="../../d6/d94/namespacedoris.html#af963c479be7b2734faf43ffaf53c379b" target="_top" xlink:title=" ">
<polygon fill="white" stroke="#666666" points="555.5,-24.5 482.5,-24.5 482.5,-5.5 555.5,-5.5 555.5,-24.5"/>
<text text-anchor="middle" x="519" y="-12.5" font-family="Helvetica,sans-Serif" font-size="10.00">doris::to_hex</text>
</a>
</g>
</g>
<!-- Node26&#45;&gt;Node27 -->
<g id="edge30" class="edge">
<title>Node26&#45;&gt;Node27</title>
<path fill="none" stroke="#63b8ff" d="M392.57,-15C417,-15 446.41,-15 470.6,-15"/>
<polygon fill="#63b8ff" stroke="#63b8ff" points="470.5,-18.5 480.5,-15 470.5,-11.5 470.5,-18.5"/>
</g>
<!-- Node28&#45;&gt;Node25 -->
<g id="edge34" class="edge">
<title>Node28&#45;&gt;Node25</title>
<path fill="none" stroke="#63b8ff" d="M213.86,-75.51C230.62,-73.21 249.9,-70.56 268.31,-68.04"/>
<polygon fill="#63b8ff" stroke="#63b8ff" points="268.69,-71.52 278.13,-66.69 267.74,-64.58 268.69,-71.52"/>
</g>
<!-- Node28&#45;&gt;Node28 -->
<g id="edge35" class="edge">
<title>Node28&#45;&gt;Node28</title>
<path fill="none" stroke="#63b8ff" d="M144.21,-91.87C134.5,-100.44 141.59,-109.5 165.5,-109.5 178.57,-109.5 186.62,-106.79 189.64,-102.93"/>
<polygon fill="#63b8ff" stroke="#63b8ff" points="193.05,-102.15 187.17,-93.33 186.27,-103.89 193.05,-102.15"/>
</g>
<!-- Node29 -->
<g id="node29" class="node">
<title>Node29</title>
<g id="a_node29"><a xlink:href="../../da/d4c/classdoris_1_1_rowset.html#a644718bb2fb240de962dc3c9a1fdf0dc" target="_top" xlink:title=" ">
<polygon fill="white" stroke="#666666" points="397.5,-104.5 287.5,-104.5 287.5,-85.5 397.5,-85.5 397.5,-104.5"/>
<text text-anchor="middle" x="342.5" y="-92.5" font-family="Helvetica,sans-Serif" font-size="10.00">doris::Rowset::empty</text>
</a>
</g>
</g>
<!-- Node28&#45;&gt;Node29 -->
<g id="edge32" class="edge">
<title>Node28&#45;&gt;Node29</title>
<path fill="none" stroke="#63b8ff" d="M213.86,-85.52C232.99,-86.94 255.39,-88.6 276.04,-90.14"/>
<polygon fill="#63b8ff" stroke="#63b8ff" points="275.56,-93.61 285.79,-90.86 276.07,-86.63 275.56,-93.61"/>
</g>
<!-- Node29&#45;&gt;Node6 -->
<g id="edge33" class="edge">
<title>Node29&#45;&gt;Node6</title>
<path fill="none" stroke="#63b8ff" d="M397.76,-101.53C410.34,-103.04 424,-104.69 437.44,-106.31"/>
<polygon fill="#63b8ff" stroke="#63b8ff" points="436.81,-109.75 447.16,-107.47 437.65,-102.8 436.81,-109.75"/>
</g>
</g>
</svg>
