<?xml version="1.0" encoding="UTF-8" standalone="no"?>
<!DOCTYPE svg PUBLIC "-//W3C//DTD SVG 1.1//EN"
 "http://www.w3.org/Graphics/SVG/1.1/DTD/svg11.dtd">
<!-- Generated by graphviz version 7.1.0 (20230121.1956)
 -->
<!-- Title: HashStringThoroughly Pages: 1 -->
<!--zoomable 434 -->
<svg id="main" version="1.1" xmlns="http://www.w3.org/2000/svg" xmlns:xlink="http://www.w3.org/1999/xlink" xml:space="preserve" onload="init(evt)">
<style type="text/css"><![CDATA[
.edge:hover path { stroke: red; }
.edge:hover polygon { stroke: red; fill: red; }
]]></style>
<script type="text/javascript"><![CDATA[
var edges = document.getElementsByTagName('g');
if (edges && edges.length) {
  for (var i=0;i<edges.length;i++) {
    if (edges[i].id.substr(0,4)=='edge') {
      edges[i].setAttribute('class','edge');
    }
  }
}
]]></script>
        <defs>
                <circle id="rim" cx="0" cy="0" r="7"/>
                <circle id="rim2" cx="0" cy="0" r="3.5"/>
                <g id="zoomPlus">
                        <use xlink:href="#rim" fill="#404040">
                                <set attributeName="fill" to="#808080" begin="zoomplus.mouseover" end="zoomplus.mouseout"/>
                        </use>
                        <path d="M-4,0h8M0,-4v8" fill="none" stroke="white" stroke-width="1.5" pointer-events="none"/>
                </g>
                <g id="zoomMin">
                        <use xlink:href="#rim" fill="#404040">
                                <set attributeName="fill" to="#808080" begin="zoomminus.mouseover" end="zoomminus.mouseout"/>
                        </use>
                        <path d="M-4,0h8" fill="none" stroke="white" stroke-width="1.5" pointer-events="none"/>
                </g>
                <g id="dirArrow">
                        <path fill="none" stroke="white" stroke-width="1.5" d="M0,-3.0v7 M-2.5,-0.5L0,-3.0L2.5,-0.5"/>
                </g>
               <g id="resetDef">
                       <use xlink:href="#rim2" fill="#404040">
                               <set attributeName="fill" to="#808080" begin="reset.mouseover" end="reset.mouseout"/>
                       </use>
               </g>
        </defs>

<script type="text/javascript">
var viewWidth = 1016;
var viewHeight = 434;
var sectionId = 'dynsection-3';
</script>
<script xlink:href="../../svgpan.js"/>
<svg id="graph" class="graph">
<g id="viewport">
<title>HashStringThoroughly</title>
<!-- Node1 -->
<g id="node1" class="node">
<title>Node1</title>
<g id="a_node1"><a xlink:title=" ">
<polygon fill="#999999" stroke="#666666" points="113,-74 0,-74 0,-55 113,-55 113,-74"/>
<text text-anchor="middle" x="56.5" y="-62" font-family="Helvetica,sans-Serif" font-size="10.00">HashStringThoroughly</text>
</a>
</g>
</g>
<!-- Node2 -->
<g id="node2" class="node">
<title>Node2</title>
<g id="a_node2"><a xlink:href="../../dd/d62/namespaceutil__hash.html#ad0ba022ddd9dae3ad8f79eadc9568c76" target="_top" xlink:title=" ">
<polygon fill="white" stroke="#666666" points="265,-255 152,-255 152,-236 265,-236 265,-255"/>
<text text-anchor="middle" x="208.5" y="-243" font-family="Helvetica,sans-Serif" font-size="10.00">util_hash::CityHash64</text>
</a>
</g>
</g>
<!-- Node1&#45;&gt;Node2 -->
<g id="edge1" class="edge">
<title>Node1&#45;&gt;Node2</title>
<path fill="none" stroke="#63b8ff" d="M65.78,-74.49C90.01,-103.73 161.06,-189.46 192.38,-227.25"/>
<polygon fill="#63b8ff" stroke="#63b8ff" points="189.39,-229.13 198.46,-234.6 194.78,-224.66 189.39,-229.13"/>
</g>
<!-- Node20 -->
<g id="node20" class="node">
<title>Node20</title>
<g id="a_node20"><a xlink:href="../../dd/d08/jenkins_8cc.html#acdc62f6ffbf1ae3613e12eb15e7516c0" target="_top" xlink:title=" ">
<polygon fill="white" stroke="#666666" points="268,-74 149,-74 149,-55 268,-55 268,-74"/>
<text text-anchor="middle" x="208.5" y="-62" font-family="Helvetica,sans-Serif" font-size="10.00">Hash32StringWithSeed</text>
</a>
</g>
</g>
<!-- Node1&#45;&gt;Node20 -->
<g id="edge30" class="edge">
<title>Node1&#45;&gt;Node20</title>
<path fill="none" stroke="#63b8ff" d="M113.35,-64.5C121.17,-64.5 129.28,-64.5 137.31,-64.5"/>
<polygon fill="#63b8ff" stroke="#63b8ff" points="137.07,-68 147.07,-64.5 137.07,-61 137.07,-68"/>
</g>
<!-- Node24 -->
<g id="node24" class="node">
<title>Node24</title>
<g id="a_node24"><a xlink:href="../../df/df1/gutil_2hash_2hash_8h.html#aca01dee17b4ee121cd4484b4d3a84547" target="_top" xlink:title=" ">
<polygon fill="white" stroke="#666666" points="268,-19 149,-19 149,0 268,0 268,-19"/>
<text text-anchor="middle" x="208.5" y="-7" font-family="Helvetica,sans-Serif" font-size="10.00">Hash64StringWithSeed</text>
</a>
</g>
</g>
<!-- Node1&#45;&gt;Node24 -->
<g id="edge34" class="edge">
<title>Node1&#45;&gt;Node24</title>
<path fill="none" stroke="#63b8ff" d="M84.66,-54.54C108.38,-45.85 143.04,-33.14 169.5,-23.43"/>
<polygon fill="#63b8ff" stroke="#63b8ff" points="170.68,-26.73 178.86,-20 168.27,-20.16 170.68,-26.73"/>
</g>
<!-- Node3 -->
<g id="node3" class="node">
<title>Node3</title>
<g id="a_node3"><a xlink:href="../../dd/d62/namespaceutil__hash.html#ad97a52e6478913f15f5d4330553f3955" target="_top" xlink:title=" ">
<polygon fill="white" stroke="#666666" points="434.5,-368 309.5,-368 309.5,-349 434.5,-349 434.5,-368"/>
<text text-anchor="middle" x="372" y="-356" font-family="Helvetica,sans-Serif" font-size="10.00">util_hash::HashLen0to16</text>
</a>
</g>
</g>
<!-- Node2&#45;&gt;Node3 -->
<g id="edge2" class="edge">
<title>Node2&#45;&gt;Node3</title>
<path fill="none" stroke="#63b8ff" d="M216.35,-255.24C230.47,-274.54 264.75,-317.75 304,-340.5 306.33,-341.85 308.76,-343.1 311.27,-344.26"/>
<polygon fill="#63b8ff" stroke="#63b8ff" points="309.86,-347.47 320.44,-347.97 312.48,-340.98 309.86,-347.47"/>
</g>
<!-- Node4 -->
<g id="node4" class="node">
<title>Node4</title>
<g id="a_node4"><a xlink:href="../../dd/d62/namespaceutil__hash.html#a6b04ce5568f91cae31cd97c5cec1b7f5" target="_top" xlink:title=" ">
<polygon fill="white" stroke="#666666" points="602.5,-405 491.5,-405 491.5,-386 602.5,-386 602.5,-405"/>
<text text-anchor="middle" x="547" y="-393" font-family="Helvetica,sans-Serif" font-size="10.00">util_hash::HashLen16</text>
</a>
</g>
</g>
<!-- Node2&#45;&gt;Node4 -->
<g id="edge16" class="edge">
<title>Node2&#45;&gt;Node4</title>
<path fill="none" stroke="#63b8ff" d="M213.11,-255.38C223.04,-280.92 253.38,-349.06 304,-377.5 357.61,-407.62 428.76,-409.24 480.02,-405.08"/>
<polygon fill="#63b8ff" stroke="#63b8ff" points="480.14,-408.58 489.78,-404.18 479.5,-401.61 480.14,-408.58"/>
</g>
<!-- Node12 -->
<g id="node12" class="node">
<title>Node12</title>
<g id="a_node12"><a xlink:href="../../d8/dc2/class_little_endian.html#a3b70917239430efa567bab4cc472695f" target="_top" xlink:title=" ">
<polygon fill="white" stroke="#666666" points="599.5,-294 494.5,-294 494.5,-275 599.5,-275 599.5,-294"/>
<text text-anchor="middle" x="547" y="-282" font-family="Helvetica,sans-Serif" font-size="10.00">LittleEndian::Load64</text>
</a>
</g>
</g>
<!-- Node2&#45;&gt;Node12 -->
<g id="edge25" class="edge">
<title>Node2&#45;&gt;Node12</title>
<path fill="none" stroke="#63b8ff" d="M253.55,-255.46C269.39,-258.75 287.43,-262.16 304,-264.5 364.48,-273.05 434.01,-278.33 482.98,-281.3"/>
<polygon fill="#63b8ff" stroke="#63b8ff" points="482.65,-284.79 492.84,-281.88 483.06,-277.8 482.65,-284.79"/>
</g>
<!-- Node15 -->
<g id="node15" class="node">
<title>Node15</title>
<g id="a_node15"><a xlink:href="../../dd/d62/namespaceutil__hash.html#a29ffac454b61445d188c0cdb024674ab" target="_top" xlink:title=" ">
<polygon fill="white" stroke="#666666" points="596,-255 498,-255 498,-236 596,-236 596,-255"/>
<text text-anchor="middle" x="547" y="-243" font-family="Helvetica,sans-Serif" font-size="10.00">util_hash::ShiftMix</text>
</a>
</g>
</g>
<!-- Node2&#45;&gt;Node15 -->
<g id="edge27" class="edge">
<title>Node2&#45;&gt;Node15</title>
<path fill="none" stroke="#63b8ff" d="M252.54,-235.53C268.59,-232.28 287.04,-229.1 304,-227.5 364.18,-221.82 379.77,-222.42 440,-227.5 455.12,-228.77 471.32,-231.05 486.4,-233.57"/>
<polygon fill="#63b8ff" stroke="#63b8ff" points="485.73,-237.01 496.18,-235.27 486.93,-230.11 485.73,-237.01"/>
</g>
<!-- Node16 -->
<g id="node16" class="node">
<title>Node16</title>
<g id="a_node16"><a xlink:href="../../dd/d62/namespaceutil__hash.html#a81339f4a93276e38bf3cfa97b4437509" target="_top" xlink:title=" ">
<polygon fill="white" stroke="#666666" points="437,-331 307,-331 307,-312 437,-312 437,-331"/>
<text text-anchor="middle" x="372" y="-319" font-family="Helvetica,sans-Serif" font-size="10.00">util_hash::HashLen17to32</text>
</a>
</g>
</g>
<!-- Node2&#45;&gt;Node16 -->
<g id="edge17" class="edge">
<title>Node2&#45;&gt;Node16</title>
<path fill="none" stroke="#63b8ff" d="M225.49,-255.32C243.96,-266.44 275.49,-284.65 304,-297.5 311.99,-301.1 320.69,-304.55 329.1,-307.65"/>
<polygon fill="#63b8ff" stroke="#63b8ff" points="327.89,-310.93 338.48,-311.01 330.24,-304.34 327.89,-310.93"/>
</g>
<!-- Node17 -->
<g id="node17" class="node">
<title>Node17</title>
<g id="a_node17"><a xlink:href="../../dd/d62/namespaceutil__hash.html#abff583bd4718081f427dd4f46a411b7f" target="_top" xlink:title=" ">
<polygon fill="white" stroke="#666666" points="592.5,-199 501.5,-199 501.5,-180 592.5,-180 592.5,-199"/>
<text text-anchor="middle" x="547" y="-187" font-family="Helvetica,sans-Serif" font-size="10.00">util_hash::Rotate</text>
</a>
</g>
</g>
<!-- Node2&#45;&gt;Node17 -->
<g id="edge26" class="edge">
<title>Node2&#45;&gt;Node17</title>
<path fill="none" stroke="#63b8ff" d="M239.42,-235.63C257.86,-229.88 282.09,-222.91 304,-218.5 366.98,-205.81 440.38,-197.97 489.68,-193.7"/>
<polygon fill="#63b8ff" stroke="#63b8ff" points="489.88,-197.19 499.55,-192.86 489.29,-190.22 489.88,-197.19"/>
</g>
<!-- Node18 -->
<g id="node18" class="node">
<title>Node18</title>
<g id="a_node18"><a xlink:href="../../dd/d62/namespaceutil__hash.html#a4576c118f6462a3e7dee68efeb9c2921" target="_top" xlink:title=" ">
<polygon fill="white" stroke="#666666" points="437,-255 307,-255 307,-236 437,-236 437,-255"/>
<text text-anchor="middle" x="372" y="-243" font-family="Helvetica,sans-Serif" font-size="10.00">util_hash::HashLen33to64</text>
</a>
</g>
</g>
<!-- Node2&#45;&gt;Node18 -->
<g id="edge21" class="edge">
<title>Node2&#45;&gt;Node18</title>
<path fill="none" stroke="#63b8ff" d="M265.08,-245.5C274.82,-245.5 285.11,-245.5 295.29,-245.5"/>
<polygon fill="#63b8ff" stroke="#63b8ff" points="295.2,-249 305.2,-245.5 295.2,-242 295.2,-249"/>
</g>
<!-- Node19 -->
<g id="node19" class="node">
<title>Node19</title>
<g id="a_node19"><a xlink:href="../../dd/d62/namespaceutil__hash.html#af201d746e44269dd155d94ecc1c6961c" target="_top" xlink:title=" ">
<polygon fill="white" stroke="#666666" points="440,-141.5 304,-141.5 304,-111.5 440,-111.5 440,-141.5"/>
<text text-anchor="start" x="312" y="-129.5" font-family="Helvetica,sans-Serif" font-size="10.00">util_hash::WeakHashLen32</text>
<text text-anchor="middle" x="372" y="-118.5" font-family="Helvetica,sans-Serif" font-size="10.00">WithSeeds</text>
</a>
</g>
</g>
<!-- Node2&#45;&gt;Node19 -->
<g id="edge28" class="edge">
<title>Node2&#45;&gt;Node19</title>
<path fill="none" stroke="#63b8ff" d="M217.7,-235.66C233.07,-217.73 267.92,-179.39 304,-155.5 308.7,-152.39 313.79,-149.48 318.99,-146.8"/>
<polygon fill="#63b8ff" stroke="#63b8ff" points="320.22,-150.1 327.7,-142.6 317.17,-143.8 320.22,-150.1"/>
</g>
<!-- Node3&#45;&gt;Node4 -->
<g id="edge3" class="edge">
<title>Node3&#45;&gt;Node4</title>
<path fill="none" stroke="#63b8ff" d="M419.36,-368.42C440.59,-372.96 465.98,-378.38 488.42,-383.19"/>
<polygon fill="#63b8ff" stroke="#63b8ff" points="487.52,-386.57 498.03,-385.24 488.98,-379.73 487.52,-386.57"/>
</g>
<!-- Node8 -->
<g id="node8" class="node">
<title>Node8</title>
<g id="a_node8"><a xlink:href="../../d8/dc2/class_little_endian.html#ae69089533065daf1c72b4e614dc6d591" target="_top" xlink:title=" ">
<polygon fill="white" stroke="#666666" points="599.5,-368 494.5,-368 494.5,-349 599.5,-349 599.5,-368"/>
<text text-anchor="middle" x="547" y="-356" font-family="Helvetica,sans-Serif" font-size="10.00">LittleEndian::Load32</text>
</a>
</g>
</g>
<!-- Node3&#45;&gt;Node8 -->
<g id="edge7" class="edge">
<title>Node3&#45;&gt;Node8</title>
<path fill="none" stroke="#63b8ff" d="M434.97,-358.5C450.57,-358.5 467.34,-358.5 482.99,-358.5"/>
<polygon fill="#63b8ff" stroke="#63b8ff" points="482.65,-362 492.65,-358.5 482.65,-355 482.65,-362"/>
</g>
<!-- Node3&#45;&gt;Node12 -->
<g id="edge11" class="edge">
<title>Node3&#45;&gt;Node12</title>
<path fill="none" stroke="#63b8ff" d="M422.19,-348.59C428.4,-346.4 434.49,-343.73 440,-340.5 459.79,-328.89 456.23,-315.14 476,-303.5 479,-301.74 482.16,-300.13 485.42,-298.67"/>
<polygon fill="#63b8ff" stroke="#63b8ff" points="486.64,-301.96 494.67,-295.05 484.08,-295.44 486.64,-301.96"/>
</g>
<!-- Node14 -->
<g id="node14" class="node">
<title>Node14</title>
<g id="a_node14"><a xlink:href="../../dd/d62/namespaceutil__hash.html#a59e3c2d10d4aaa543de187033b473fb4" target="_top" xlink:title=" ">
<polygon fill="white" stroke="#666666" points="618,-331 476,-331 476,-312 618,-312 618,-331"/>
<text text-anchor="middle" x="547" y="-319" font-family="Helvetica,sans-Serif" font-size="10.00">util_hash::RotateByAtLeast1</text>
</a>
</g>
</g>
<!-- Node3&#45;&gt;Node14 -->
<g id="edge14" class="edge">
<title>Node3&#45;&gt;Node14</title>
<path fill="none" stroke="#63b8ff" d="M419.36,-348.58C440.59,-344.04 465.98,-338.62 488.42,-333.81"/>
<polygon fill="#63b8ff" stroke="#63b8ff" points="488.98,-337.27 498.03,-331.76 487.52,-330.43 488.98,-337.27"/>
</g>
<!-- Node3&#45;&gt;Node15 -->
<g id="edge15" class="edge">
<title>Node3&#45;&gt;Node15</title>
<path fill="none" stroke="#63b8ff" d="M427,-348.55C431.68,-346.37 436.1,-343.72 440,-340.5 468.2,-317.21 448.14,-290.19 476,-266.5 479.44,-263.58 483.27,-261.06 487.32,-258.9"/>
<polygon fill="#63b8ff" stroke="#63b8ff" points="488.68,-262.12 496.36,-254.83 485.8,-255.74 488.68,-262.12"/>
</g>
<!-- Node5 -->
<g id="node5" class="node">
<title>Node5</title>
<g id="a_node5"><a xlink:href="../../d7/d16/hash128to64_8h.html#a277d7697b63b8321e906beccd0ce3339" target="_top" xlink:title=" ">
<polygon fill="white" stroke="#666666" points="750.5,-405 676.5,-405 676.5,-386 750.5,-386 750.5,-405"/>
<text text-anchor="middle" x="713.5" y="-393" font-family="Helvetica,sans-Serif" font-size="10.00">Hash128to64</text>
</a>
</g>
</g>
<!-- Node4&#45;&gt;Node5 -->
<g id="edge4" class="edge">
<title>Node4&#45;&gt;Node5</title>
<path fill="none" stroke="#63b8ff" d="M602.78,-395.5C622.84,-395.5 645.37,-395.5 664.76,-395.5"/>
<polygon fill="#63b8ff" stroke="#63b8ff" points="664.57,-399 674.57,-395.5 664.57,-392 664.57,-399"/>
</g>
<!-- Node6 -->
<g id="node6" class="node">
<title>Node6</title>
<g id="a_node6"><a xlink:href="../../d0/ddd/int128_8h.html#abc1e892277f80edfa1feb97e4340b2d1" target="_top" xlink:title=" ">
<polygon fill="white" stroke="#666666" points="890,-426 809,-426 809,-407 890,-407 890,-426"/>
<text text-anchor="middle" x="849.5" y="-414" font-family="Helvetica,sans-Serif" font-size="10.00">Uint128High64</text>
</a>
</g>
</g>
<!-- Node5&#45;&gt;Node6 -->
<g id="edge5" class="edge">
<title>Node5&#45;&gt;Node6</title>
<path fill="none" stroke="#63b8ff" d="M750.76,-401.18C765.23,-403.45 782.14,-406.1 797.79,-408.55"/>
<polygon fill="#63b8ff" stroke="#63b8ff" points="797,-411.97 807.42,-410.06 798.08,-405.06 797,-411.97"/>
</g>
<!-- Node7 -->
<g id="node7" class="node">
<title>Node7</title>
<g id="a_node7"><a xlink:href="../../d0/ddd/int128_8h.html#af972e99c0bf638c7bbe70fee5e43b99d" target="_top" xlink:title=" ">
<polygon fill="white" stroke="#666666" points="889,-389 810,-389 810,-370 889,-370 889,-389"/>
<text text-anchor="middle" x="849.5" y="-377" font-family="Helvetica,sans-Serif" font-size="10.00">Uint128Low64</text>
</a>
</g>
</g>
<!-- Node5&#45;&gt;Node7 -->
<g id="edge6" class="edge">
<title>Node5&#45;&gt;Node7</title>
<path fill="none" stroke="#63b8ff" d="M750.76,-391.17C765.48,-389.41 782.73,-387.35 798.6,-385.46"/>
<polygon fill="#63b8ff" stroke="#63b8ff" points="798.85,-388.95 808.36,-384.29 798.02,-382 798.85,-388.95"/>
</g>
<!-- Node9 -->
<g id="node9" class="node">
<title>Node9</title>
<g id="a_node9"><a xlink:href="../../da/d00/port_8h.html#ad884cef0ba43acd21be6e109d6a79ea4" target="_top" xlink:title=" ">
<polygon fill="white" stroke="#666666" points="773,-364 654,-364 654,-345 773,-345 773,-364"/>
<text text-anchor="middle" x="713.5" y="-352" font-family="Helvetica,sans-Serif" font-size="10.00">UNALIGNED_LOAD32</text>
</a>
</g>
</g>
<!-- Node8&#45;&gt;Node9 -->
<g id="edge8" class="edge">
<title>Node8&#45;&gt;Node9</title>
<path fill="none" stroke="#63b8ff" d="M599.6,-357.25C613.13,-356.92 627.95,-356.56 642.28,-356.21"/>
<polygon fill="#63b8ff" stroke="#63b8ff" points="642.2,-359.71 652.11,-355.97 642.03,-352.71 642.2,-359.71"/>
</g>
<!-- Node10 -->
<g id="node10" class="node">
<title>Node10</title>
<g id="a_node10"><a xlink:href="../../d9/d1e/memcpy__aarch64_8cpp.html#a156c5821f16ed93be8c7d315303f7b2a" target="_top" xlink:title=" ">
<polygon fill="white" stroke="#666666" points="876.5,-336 822.5,-336 822.5,-317 876.5,-317 876.5,-336"/>
<text text-anchor="middle" x="849.5" y="-324" font-family="Helvetica,sans-Serif" font-size="10.00">memcpy</text>
</a>
</g>
</g>
<!-- Node9&#45;&gt;Node10 -->
<g id="edge9" class="edge">
<title>Node9&#45;&gt;Node10</title>
<path fill="none" stroke="#63b8ff" d="M762.12,-344.55C778.19,-341.19 795.88,-337.5 811.04,-334.33"/>
<polygon fill="#63b8ff" stroke="#63b8ff" points="811.53,-337.8 820.6,-332.33 810.09,-330.95 811.53,-337.8"/>
</g>
<!-- Node11 -->
<g id="node11" class="node">
<title>Node11</title>
<g id="a_node11"><a xlink:href="../../d9/d1e/memcpy__aarch64_8cpp.html#a11ebdd343428c466f2f35c376d7db6d0" target="_top" xlink:title=" ">
<polygon fill="white" stroke="#666666" points="1008,-336 926,-336 926,-317 1008,-317 1008,-336"/>
<text text-anchor="middle" x="967" y="-324" font-family="Helvetica,sans-Serif" font-size="10.00">inline_memcpy</text>
</a>
</g>
</g>
<!-- Node10&#45;&gt;Node11 -->
<g id="edge10" class="edge">
<title>Node10&#45;&gt;Node11</title>
<path fill="none" stroke="#63b8ff" d="M877,-326.5C888.12,-326.5 901.47,-326.5 914.39,-326.5"/>
<polygon fill="#63b8ff" stroke="#63b8ff" points="914.06,-330 924.06,-326.5 914.06,-323 914.06,-330"/>
</g>
<!-- Node13 -->
<g id="node13" class="node">
<title>Node13</title>
<g id="a_node13"><a xlink:href="../../da/d00/port_8h.html#abb0e53621af3acd6d7a67319ffb5d541" target="_top" xlink:title=" ">
<polygon fill="white" stroke="#666666" points="773,-318 654,-318 654,-299 773,-299 773,-318"/>
<text text-anchor="middle" x="713.5" y="-306" font-family="Helvetica,sans-Serif" font-size="10.00">UNALIGNED_LOAD64</text>
</a>
</g>
</g>
<!-- Node12&#45;&gt;Node13 -->
<g id="edge12" class="edge">
<title>Node12&#45;&gt;Node13</title>
<path fill="none" stroke="#63b8ff" d="M599.6,-292.03C613.13,-294 627.95,-296.16 642.28,-298.25"/>
<polygon fill="#63b8ff" stroke="#63b8ff" points="641.73,-301.71 652.13,-299.69 642.74,-294.78 641.73,-301.71"/>
</g>
<!-- Node13&#45;&gt;Node10 -->
<g id="edge13" class="edge">
<title>Node13&#45;&gt;Node10</title>
<path fill="none" stroke="#63b8ff" d="M773.27,-316.4C786.04,-318.11 799.21,-319.88 810.89,-321.45"/>
<polygon fill="#63b8ff" stroke="#63b8ff" points="810.13,-324.88 820.5,-322.74 811.06,-317.94 810.13,-324.88"/>
</g>
<!-- Node16&#45;&gt;Node4 -->
<g id="edge18" class="edge">
<title>Node16&#45;&gt;Node4</title>
<path fill="none" stroke="#63b8ff" d="M420.08,-331.45C427.01,-333.87 433.87,-336.85 440,-340.5 459.71,-352.25 456.15,-365.99 476,-377.5 478.34,-378.85 480.77,-380.11 483.28,-381.27"/>
<polygon fill="#63b8ff" stroke="#63b8ff" points="481.89,-384.48 492.47,-384.97 484.5,-377.99 481.89,-384.48"/>
</g>
<!-- Node16&#45;&gt;Node12 -->
<g id="edge19" class="edge">
<title>Node16&#45;&gt;Node12</title>
<path fill="none" stroke="#63b8ff" d="M419.36,-311.58C440.59,-307.04 465.98,-301.62 488.42,-296.81"/>
<polygon fill="#63b8ff" stroke="#63b8ff" points="488.98,-300.27 498.03,-294.76 487.52,-293.43 488.98,-300.27"/>
</g>
<!-- Node16&#45;&gt;Node17 -->
<g id="edge20" class="edge">
<title>Node16&#45;&gt;Node17</title>
<path fill="none" stroke="#63b8ff" d="M385.16,-311.74C398.81,-300.64 421.49,-281.82 440,-264.5 456.76,-248.83 457.71,-241.35 476,-227.5 487.51,-218.78 501.28,-210.85 513.54,-204.52"/>
<polygon fill="#63b8ff" stroke="#63b8ff" points="515.1,-207.66 522.49,-200.06 511.98,-201.39 515.1,-207.66"/>
</g>
<!-- Node18&#45;&gt;Node12 -->
<g id="edge22" class="edge">
<title>Node18&#45;&gt;Node12</title>
<path fill="none" stroke="#63b8ff" d="M417.1,-255.44C439.49,-260.49 466.9,-266.67 490.68,-272.03"/>
<polygon fill="#63b8ff" stroke="#63b8ff" points="489.68,-275.39 500.2,-274.18 491.22,-268.56 489.68,-275.39"/>
</g>
<!-- Node18&#45;&gt;Node15 -->
<g id="edge24" class="edge">
<title>Node18&#45;&gt;Node15</title>
<path fill="none" stroke="#63b8ff" d="M437.42,-245.5C453.5,-245.5 470.67,-245.5 486.5,-245.5"/>
<polygon fill="#63b8ff" stroke="#63b8ff" points="486.24,-249 496.24,-245.5 486.24,-242 486.24,-249"/>
</g>
<!-- Node18&#45;&gt;Node17 -->
<g id="edge23" class="edge">
<title>Node18&#45;&gt;Node17</title>
<path fill="none" stroke="#63b8ff" d="M403.53,-235.62C431.52,-226.56 473.22,-213.06 504.28,-203.01"/>
<polygon fill="#63b8ff" stroke="#63b8ff" points="505.32,-206.35 513.75,-199.94 503.16,-199.69 505.32,-206.35"/>
</g>
<!-- Node19&#45;&gt;Node17 -->
<g id="edge29" class="edge">
<title>Node19&#45;&gt;Node17</title>
<path fill="none" stroke="#63b8ff" d="M415.32,-141.91C443.63,-152.22 480.57,-165.67 507.95,-175.64"/>
<polygon fill="#63b8ff" stroke="#63b8ff" points="506.66,-178.9 517.25,-179.03 509.05,-172.32 506.66,-178.9"/>
</g>
<!-- Node21 -->
<g id="node21" class="node">
<title>Node21</title>
<g id="a_node21"><a xlink:href="../../dd/d08/jenkins_8cc.html#a2bcf78dbf2059755ec3025ca8f24eb52" target="_top" xlink:title=" ">
<polygon fill="white" stroke="#666666" points="412,-93 332,-93 332,-74 412,-74 412,-93"/>
<text text-anchor="middle" x="372" y="-81" font-family="Helvetica,sans-Serif" font-size="10.00">char2unsigned</text>
</a>
</g>
</g>
<!-- Node20&#45;&gt;Node21 -->
<g id="edge31" class="edge">
<title>Node20&#45;&gt;Node21</title>
<path fill="none" stroke="#63b8ff" d="M268.26,-71.41C285.41,-73.43 303.99,-75.62 320.57,-77.57"/>
<polygon fill="#63b8ff" stroke="#63b8ff" points="319.85,-81.01 330.19,-78.7 320.67,-74.05 319.85,-81.01"/>
</g>
<!-- Node22 -->
<g id="node22" class="node">
<title>Node22</title>
<g id="a_node22"><a xlink:href="../../d4/da6/jenkins__lookup2_8h.html#ad19203a05285e78bff6fea328d8f7d17" target="_top" xlink:title=" ">
<polygon fill="white" stroke="#666666" points="403,-56 341,-56 341,-37 403,-37 403,-56"/>
<text text-anchor="middle" x="372" y="-44" font-family="Helvetica,sans-Serif" font-size="10.00">Google1At</text>
</a>
</g>
</g>
<!-- Node20&#45;&gt;Node22 -->
<g id="edge32" class="edge">
<title>Node20&#45;&gt;Node22</title>
<path fill="none" stroke="#63b8ff" d="M268.26,-57.95C288.48,-55.7 310.69,-53.22 329.27,-51.15"/>
<polygon fill="#63b8ff" stroke="#63b8ff" points="329.56,-54.64 339.11,-50.05 328.78,-47.68 329.56,-54.64"/>
</g>
<!-- Node23 -->
<g id="node23" class="node">
<title>Node23</title>
<g id="a_node23"><a xlink:href="../../d4/da6/jenkins__lookup2_8h.html#af1266f1a262fb4ce37900bfc9dd38b9d" target="_top" xlink:title=" ">
<polygon fill="white" stroke="#666666" points="388,-19 356,-19 356,0 388,0 388,-19"/>
<text text-anchor="middle" x="372" y="-7" font-family="Helvetica,sans-Serif" font-size="10.00">mix</text>
</a>
</g>
</g>
<!-- Node20&#45;&gt;Node23 -->
<g id="edge33" class="edge">
<title>Node20&#45;&gt;Node23</title>
<path fill="none" stroke="#63b8ff" d="M242.92,-54.6C251.2,-51.89 260,-48.78 268,-45.5 284.55,-38.72 287.28,-33.85 304,-27.5 317.05,-22.54 332.03,-18.38 344.5,-15.31"/>
<polygon fill="#63b8ff" stroke="#63b8ff" points="345.15,-18.76 354.08,-13.06 343.55,-11.94 345.15,-18.76"/>
</g>
<!-- Node24&#45;&gt;Node24 -->
<g id="edge35" class="edge">
<title>Node24&#45;&gt;Node24</title>
<path fill="none" stroke="#63b8ff" d="M184.7,-19.37C173.85,-27.94 181.78,-37 208.5,-37 223.11,-37 232.11,-34.29 235.48,-30.43"/>
<polygon fill="#63b8ff" stroke="#63b8ff" points="238.84,-29.46 232.71,-20.82 232.12,-31.4 238.84,-29.46"/>
</g>
</g>
</svg>
        <g id="navigator" transform="translate(0 0)" fill="#404254">
                <rect fill="#f2f5e9" fill-opacity="0.5" stroke="#606060" stroke-width=".5" x="0" y="0" width="60" height="60"/>
                <use id="zoomplus" xlink:href="#zoomPlus" x="17" y="9" onmousedown="handleZoom(evt,'in')"/>
                <use id="zoomminus" xlink:href="#zoomMin" x="42" y="9" onmousedown="handleZoom(evt,'out')"/>
                <use id="reset" xlink:href="#resetDef" x="30" y="36" onmousedown="handleReset()"/>
                <g id="arrowUp" xlink:href="#dirArrow" transform="translate(30 24)" onmousedown="handlePan(0,-1)">
                  <use xlink:href="#rim" fill="#404040">
                        <set attributeName="fill" to="#808080" begin="arrowUp.mouseover" end="arrowUp.mouseout"/>
                  </use>
                  <path fill="none" stroke="white" stroke-width="1.5" d="M0,-3.0v7 M-2.5,-0.5L0,-3.0L2.5,-0.5"/>
                </g>
                <g id="arrowRight" xlink:href="#dirArrow" transform="rotate(90) translate(36 -43)" onmousedown="handlePan(1,0)">
                  <use xlink:href="#rim" fill="#404040">
                        <set attributeName="fill" to="#808080" begin="arrowRight.mouseover" end="arrowRight.mouseout"/>
                  </use>
                  <path fill="none" stroke="white" stroke-width="1.5" d="M0,-3.0v7 M-2.5,-0.5L0,-3.0L2.5,-0.5"/>
                </g>
                <g id="arrowDown" xlink:href="#dirArrow" transform="rotate(180) translate(-30 -48)" onmousedown="handlePan(0,1)">
                  <use xlink:href="#rim" fill="#404040">
                        <set attributeName="fill" to="#808080" begin="arrowDown.mouseover" end="arrowDown.mouseout"/>
                  </use>
                  <path fill="none" stroke="white" stroke-width="1.5" d="M0,-3.0v7 M-2.5,-0.5L0,-3.0L2.5,-0.5"/>
                </g>
                <g id="arrowLeft" xlink:href="#dirArrow" transform="rotate(270) translate(-36 17)" onmousedown="handlePan(-1,0)">
                  <use xlink:href="#rim" fill="#404040">
                        <set attributeName="fill" to="#808080" begin="arrowLeft.mouseover" end="arrowLeft.mouseout"/>
                  </use>
                  <path fill="none" stroke="white" stroke-width="1.5" d="M0,-3.0v7 M-2.5,-0.5L0,-3.0L2.5,-0.5"/>
                </g>
        </g>
        <svg viewBox="0 0 15 15" width="100%" height="30px" preserveAspectRatio="xMaxYMin meet">
         <g id="arrow_out" transform="scale(0.3 0.3)">
          <a xlink:href="string__hash_8h_aecac3bad837de66ece785932ccea778d_cgraph_org.svg" target="_base">
           <rect id="button" ry="5" rx="5" y="6" x="6" height="38" width="38"
                fill="#f2f5e9" fill-opacity="0.5" stroke="#606060" stroke-width="1.0"/>
           <path id="arrow"
             d="M 11.500037,31.436501 C 11.940474,20.09759 22.043105,11.32322 32.158766,21.979434 L 37.068811,17.246167 C 37.068811,17.246167 37.088388,32 37.088388,32 L 22.160133,31.978069 C 22.160133,31.978069 26.997745,27.140456 26.997745,27.140456 C 18.528582,18.264221 13.291696,25.230495 11.500037,31.436501 z"
             style="fill:#404040;"/>
          </a>
         </g>
        </svg>
</svg>
