<?xml version="1.0" encoding="UTF-8" standalone="no"?>
<!DOCTYPE svg PUBLIC "-//W3C//DTD SVG 1.1//EN"
 "http://www.w3.org/Graphics/SVG/1.1/DTD/svg11.dtd">
<!-- Generated by graphviz version 7.1.0 (20230121.1956)
 -->
<!-- Title: RleEncoder&lt; T &gt; Pages: 1 -->
<svg width="256pt" height="93pt"
 viewBox="0.00 0.00 255.50 93.00" xmlns="http://www.w3.org/2000/svg" xmlns:xlink="http://www.w3.org/1999/xlink">
<g id="graph0" class="graph" transform="scale(1 1) rotate(0) translate(4 89)">
<title>RleEncoder&lt; T &gt;</title>
<!-- Node1 -->
<g id="node1" class="node">
<title>Node1</title>
<g id="a_node1"><a xlink:title=" ">
<polygon fill="#999999" stroke="#666666" points="164,-85 72,-85 72,-66 164,-66 164,-85"/>
<text text-anchor="middle" x="118" y="-73" font-family="Helvetica,sans-Serif" font-size="10.00">RleEncoder&lt; T &gt;</text>
</a>
</g>
</g>
<!-- Node2 -->
<g id="node2" class="node">
<title>Node2</title>
<g id="a_node2"><a xlink:href="../../d8/d53/classdoris_1_1_rle_encoder.html" target="_top" xlink:title=" ">
<polygon fill="white" stroke="#666666" points="104,-19 0,-19 0,0 104,0 104,-19"/>
<text text-anchor="middle" x="52" y="-7" font-family="Helvetica,sans-Serif" font-size="10.00">RleEncoder&lt; bool &gt;</text>
</a>
</g>
</g>
<!-- Node1&#45;&gt;Node2 -->
<g id="edge1" class="edge">
<title>Node1&#45;&gt;Node2</title>
<path fill="none" stroke="orange" stroke-dasharray="5,2" d="M100.81,-57.83C88.11,-45.52 71.31,-29.23 61.1,-19.32"/>
<polygon fill="orange" stroke="orange" points="98.12,-60.1 107.74,-64.55 102.99,-55.07 98.12,-60.1"/>
<text text-anchor="middle" x="109" y="-40" font-family="Helvetica,sans-Serif" font-size="10.00"> &lt; bool &gt;</text>
</g>
<!-- Node3 -->
<g id="node3" class="node">
<title>Node3</title>
<g id="a_node3"><a xlink:href="../../d8/d53/classdoris_1_1_rle_encoder.html" target="_top" xlink:title=" ">
<polygon fill="white" stroke="#666666" points="247.5,-19 122.5,-19 122.5,0 247.5,0 247.5,-19"/>
<text text-anchor="middle" x="185" y="-7" font-family="Helvetica,sans-Serif" font-size="10.00">RleEncoder&lt; CppType &gt;</text>
</a>
</g>
</g>
<!-- Node1&#45;&gt;Node3 -->
<g id="edge2" class="edge">
<title>Node1&#45;&gt;Node3</title>
<path fill="none" stroke="orange" stroke-dasharray="5,2" d="M135.45,-57.83C148.34,-45.52 165.4,-29.23 175.76,-19.32"/>
<polygon fill="orange" stroke="orange" points="133.22,-55.12 128.41,-64.56 138.06,-60.18 133.22,-55.12"/>
<text text-anchor="middle" x="185.5" y="-40" font-family="Helvetica,sans-Serif" font-size="10.00"> &lt; CppType &gt;</text>
</g>
</g>
</svg>
