<?xml version="1.0" encoding="UTF-8" standalone="no"?>
<!DOCTYPE svg PUBLIC "-//W3C//DTD SVG 1.1//EN"
 "http://www.w3.org/Graphics/SVG/1.1/DTD/svg11.dtd">
<!-- Generated by graphviz version 7.1.0 (20230121.1956)
 -->
<!-- Title: PODArray Pages: 1 -->
<svg width="279pt" height="212pt"
 viewBox="0.00 0.00 279.00 211.50" xmlns="http://www.w3.org/2000/svg" xmlns:xlink="http://www.w3.org/1999/xlink">
<g id="graph0" class="graph" transform="scale(1 1) rotate(0) translate(4 207.5)">
<title>PODArray</title>
<!-- Node1 -->
<g id="node1" class="node">
<title>Node1</title>
<g id="a_node1"><a xlink:title=" ">
<polygon fill="#999999" stroke="#666666" points="62,-105.5 0,-105.5 0,-86.5 62,-86.5 62,-105.5"/>
<text text-anchor="middle" x="31" y="-93.5" font-family="Helvetica,sans-Serif" font-size="10.00">PODArray</text>
</a>
</g>
</g>
<!-- Node2 -->
<g id="node2" class="node">
<title>Node2</title>
<g id="a_node2"><a xlink:href="../../d5/d9d/classdoris_1_1vectorized_1_1_p_o_d_array_base.html#a6ef04789e9968dc4bd448dcf7865c58b" target="_top" xlink:title=" ">
<polygon fill="white" stroke="#666666" points="257.5,-203.5 111.5,-203.5 111.5,-140.5 257.5,-140.5 257.5,-203.5"/>
<text text-anchor="start" x="119.5" y="-191.5" font-family="Helvetica,sans-Serif" font-size="10.00">doris::vectorized::</text>
<text text-anchor="start" x="119.5" y="-180.5" font-family="Helvetica,sans-Serif" font-size="10.00">PODArrayBase&lt; sizeof</text>
<text text-anchor="start" x="119.5" y="-169.5" font-family="Helvetica,sans-Serif" font-size="10.00">(T), initial_bytes, TAllocator,</text>
<text text-anchor="start" x="119.5" y="-158.5" font-family="Helvetica,sans-Serif" font-size="10.00"> pad_right_, pad_left_ &gt;::alloc</text>
<text text-anchor="middle" x="184.5" y="-147.5" font-family="Helvetica,sans-Serif" font-size="10.00">_for_num_elements</text>
</a>
</g>
</g>
<!-- Node1&#45;&gt;Node2 -->
<g id="edge1" class="edge">
<title>Node1&#45;&gt;Node2</title>
<path fill="none" stroke="#63b8ff" d="M50.11,-105.86C63.31,-112.98 81.67,-122.76 98,-131 100.66,-132.34 103.38,-133.7 106.12,-135.07"/>
<polygon fill="#63b8ff" stroke="#63b8ff" points="104.29,-138.07 114.81,-139.36 107.39,-131.79 104.29,-138.07"/>
</g>
<!-- Node3 -->
<g id="node3" class="node">
<title>Node3</title>
<g id="a_node3"><a xlink:href="../../d5/d9d/classdoris_1_1vectorized_1_1_p_o_d_array_base.html#a4fd871ea772d3f22957ed8dd6a0aebb6" target="_top" xlink:title="The amount of memory occupied by the num_elements of the elements.">
<polygon fill="white" stroke="#666666" points="268,-122 101,-122 101,-70 268,-70 268,-122"/>
<text text-anchor="start" x="109" y="-110" font-family="Helvetica,sans-Serif" font-size="10.00">doris::vectorized::</text>
<text text-anchor="start" x="109" y="-99" font-family="Helvetica,sans-Serif" font-size="10.00">PODArrayBase&lt; sizeof</text>
<text text-anchor="start" x="109" y="-88" font-family="Helvetica,sans-Serif" font-size="10.00">(T), initial_bytes, TAllocator,</text>
<text text-anchor="middle" x="184.5" y="-77" font-family="Helvetica,sans-Serif" font-size="10.00"> pad_right_, pad_left_ &gt;::byte_size</text>
</a>
</g>
</g>
<!-- Node1&#45;&gt;Node3 -->
<g id="edge2" class="edge">
<title>Node1&#45;&gt;Node3</title>
<path fill="none" stroke="#63b8ff" d="M62.29,-96C70.36,-96 79.52,-96 89.11,-96"/>
<polygon fill="#63b8ff" stroke="#63b8ff" points="89,-99.5 99,-96 89,-92.5 89,-99.5"/>
</g>
<!-- Node4 -->
<g id="node4" class="node">
<title>Node4</title>
<g id="a_node4"><a xlink:href="../../d5/d9d/classdoris_1_1vectorized_1_1_p_o_d_array_base.html#a20432b443b7527c0e50d859593839d3d" target="_top" xlink:title=" ">
<polygon fill="white" stroke="#666666" points="271,-52 98,-52 98,0 271,0 271,-52"/>
<text text-anchor="start" x="106" y="-40" font-family="Helvetica,sans-Serif" font-size="10.00">doris::vectorized::</text>
<text text-anchor="start" x="106" y="-29" font-family="Helvetica,sans-Serif" font-size="10.00">PODArrayBase&lt; sizeof</text>
<text text-anchor="start" x="106" y="-18" font-family="Helvetica,sans-Serif" font-size="10.00">(T), initial_bytes, TAllocator,</text>
<text text-anchor="middle" x="184.5" y="-7" font-family="Helvetica,sans-Serif" font-size="10.00"> pad_right_, pad_left_ &gt;::reset_peak</text>
</a>
</g>
</g>
<!-- Node1&#45;&gt;Node4 -->
<g id="edge3" class="edge">
<title>Node1&#45;&gt;Node4</title>
<path fill="none" stroke="#63b8ff" d="M49.69,-86.01C62.84,-78.73 81.32,-68.81 98,-61 100.76,-59.71 103.59,-58.41 106.45,-57.12"/>
<polygon fill="#63b8ff" stroke="#63b8ff" points="107.82,-60.34 115.55,-53.1 104.99,-53.94 107.82,-60.34"/>
</g>
</g>
</svg>
