<?xml version="1.0" encoding="UTF-8" standalone="no"?>
<!DOCTYPE svg PUBLIC "-//W3C//DTD SVG 1.1//EN"
 "http://www.w3.org/Graphics/SVG/1.1/DTD/svg11.dtd">
<!-- Generated by graphviz version 7.1.0 (20230121.1956)
 -->
<!-- Title: insert Pages: 1 -->
<svg width="535pt" height="426pt"
 viewBox="0.00 0.00 535.00 426.00" xmlns="http://www.w3.org/2000/svg" xmlns:xlink="http://www.w3.org/1999/xlink">
<g id="graph0" class="graph" transform="scale(1 1) rotate(0) translate(4 422)">
<title>insert</title>
<!-- Node1 -->
<g id="node1" class="node">
<title>Node1</title>
<g id="a_node1"><a xlink:title="Do not insert into the array a piece of itself. Because with the resize, the iterators on themselves ...">
<polygon fill="#999999" stroke="#666666" points="41,-223.5 0,-223.5 0,-204.5 41,-204.5 41,-223.5"/>
<text text-anchor="middle" x="20.5" y="-211.5" font-family="Helvetica,sans-Serif" font-size="10.00">insert</text>
</a>
</g>
</g>
<!-- Node2 -->
<g id="node2" class="node">
<title>Node2</title>
<g id="a_node2"><a xlink:href="../../df/db2/classdoris_1_1vectorized_1_1_p_o_d_array.html#af086f54d243991804a340607d96bea69" target="_top" xlink:title=" ">
<polygon fill="white" stroke="#666666" points="200,-320.5 77,-320.5 77,-301.5 200,-301.5 200,-320.5"/>
<text text-anchor="middle" x="138.5" y="-308.5" font-family="Helvetica,sans-Serif" font-size="10.00">insert_assume_reserved</text>
</a>
</g>
</g>
<!-- Node1&#45;&gt;Node2 -->
<g id="edge1" class="edge">
<title>Node1&#45;&gt;Node2</title>
<path fill="none" stroke="#63b8ff" d="M33.05,-223.66C52.66,-240.06 92.73,-273.56 117.14,-293.98"/>
<polygon fill="#63b8ff" stroke="#63b8ff" points="114.58,-296.39 124.49,-300.12 119.07,-291.02 114.58,-296.39"/>
</g>
<!-- Node7 -->
<g id="node7" class="node">
<title>Node7</title>
<g id="a_node7"><a xlink:href="../../df/db2/classdoris_1_1vectorized_1_1_p_o_d_array.html#ae0e37f5c07632a6cb78b8ec6f30c5941" target="_top" xlink:title="Do not insert into the array a piece of itself. Because with the resize, the iterators on themselves ...">
<polygon fill="white" stroke="#666666" points="177.5,-153.5 99.5,-153.5 99.5,-134.5 177.5,-134.5 177.5,-153.5"/>
<text text-anchor="middle" x="138.5" y="-141.5" font-family="Helvetica,sans-Serif" font-size="10.00">insert_prepare</text>
</a>
</g>
</g>
<!-- Node1&#45;&gt;Node7 -->
<g id="edge6" class="edge">
<title>Node1&#45;&gt;Node7</title>
<path fill="none" stroke="#63b8ff" d="M37.63,-204.27C56.74,-192.73 88.84,-173.37 111.48,-159.7"/>
<polygon fill="#63b8ff" stroke="#63b8ff" points="113.08,-162.82 119.84,-154.66 109.47,-156.83 113.08,-162.82"/>
</g>
<!-- Node3 -->
<g id="node3" class="node">
<title>Node3</title>
<g id="a_node3"><a xlink:href="../../d5/d9d/classdoris_1_1vectorized_1_1_p_o_d_array_base.html#a4fd871ea772d3f22957ed8dd6a0aebb6" target="_top" xlink:title="The amount of memory occupied by the num_elements of the elements.">
<polygon fill="white" stroke="#666666" points="406,-418 239,-418 239,-366 406,-366 406,-418"/>
<text text-anchor="start" x="247" y="-406" font-family="Helvetica,sans-Serif" font-size="10.00">doris::vectorized::</text>
<text text-anchor="start" x="247" y="-395" font-family="Helvetica,sans-Serif" font-size="10.00">PODArrayBase&lt; sizeof</text>
<text text-anchor="start" x="247" y="-384" font-family="Helvetica,sans-Serif" font-size="10.00">(T), initial_bytes, TAllocator,</text>
<text text-anchor="middle" x="322.5" y="-373" font-family="Helvetica,sans-Serif" font-size="10.00"> pad_right_, pad_left_ &gt;::byte_size</text>
</a>
</g>
</g>
<!-- Node2&#45;&gt;Node3 -->
<g id="edge2" class="edge">
<title>Node2&#45;&gt;Node3</title>
<path fill="none" stroke="#63b8ff" d="M159.31,-320.84C178.71,-330.39 209.18,-345.13 236,-357 239.13,-358.38 242.32,-359.78 245.56,-361.18"/>
<polygon fill="#63b8ff" stroke="#63b8ff" points="244.02,-364.32 254.59,-365.03 246.77,-357.89 244.02,-364.32"/>
</g>
<!-- Node4 -->
<g id="node4" class="node">
<title>Node4</title>
<g id="a_node4"><a xlink:href="../../d9/d1e/memcpy__aarch64_8cpp.html#a156c5821f16ed93be8c7d315303f7b2a" target="_top" xlink:title=" ">
<polygon fill="white" stroke="#666666" points="349.5,-347.5 295.5,-347.5 295.5,-328.5 349.5,-328.5 349.5,-347.5"/>
<text text-anchor="middle" x="322.5" y="-335.5" font-family="Helvetica,sans-Serif" font-size="10.00">memcpy</text>
</a>
</g>
</g>
<!-- Node2&#45;&gt;Node4 -->
<g id="edge3" class="edge">
<title>Node2&#45;&gt;Node4</title>
<path fill="none" stroke="#63b8ff" d="M200.36,-320.03C228.06,-324.14 259.97,-328.87 284.09,-332.45"/>
<polygon fill="#63b8ff" stroke="#63b8ff" points="283.34,-335.88 293.75,-333.88 284.37,-328.95 283.34,-335.88"/>
</g>
<!-- Node6 -->
<g id="node6" class="node">
<title>Node6</title>
<g id="a_node6"><a xlink:href="../../d5/d9d/classdoris_1_1vectorized_1_1_p_o_d_array_base.html#a20432b443b7527c0e50d859593839d3d" target="_top" xlink:title=" ">
<polygon fill="white" stroke="#666666" points="409,-310 236,-310 236,-258 409,-258 409,-310"/>
<text text-anchor="start" x="244" y="-298" font-family="Helvetica,sans-Serif" font-size="10.00">doris::vectorized::</text>
<text text-anchor="start" x="244" y="-287" font-family="Helvetica,sans-Serif" font-size="10.00">PODArrayBase&lt; sizeof</text>
<text text-anchor="start" x="244" y="-276" font-family="Helvetica,sans-Serif" font-size="10.00">(T), initial_bytes, TAllocator,</text>
<text text-anchor="middle" x="322.5" y="-265" font-family="Helvetica,sans-Serif" font-size="10.00"> pad_right_, pad_left_ &gt;::reset_peak</text>
</a>
</g>
</g>
<!-- Node2&#45;&gt;Node6 -->
<g id="edge5" class="edge">
<title>Node2&#45;&gt;Node6</title>
<path fill="none" stroke="#63b8ff" d="M200.36,-301.97C208.17,-300.81 216.32,-299.6 224.53,-298.38"/>
<polygon fill="#63b8ff" stroke="#63b8ff" points="224.88,-301.87 234.25,-296.94 223.85,-294.95 224.88,-301.87"/>
</g>
<!-- Node5 -->
<g id="node5" class="node">
<title>Node5</title>
<g id="a_node5"><a xlink:href="../../d9/d1e/memcpy__aarch64_8cpp.html#a11ebdd343428c466f2f35c376d7db6d0" target="_top" xlink:title=" ">
<polygon fill="white" stroke="#666666" points="527,-347.5 445,-347.5 445,-328.5 527,-328.5 527,-347.5"/>
<text text-anchor="middle" x="486" y="-335.5" font-family="Helvetica,sans-Serif" font-size="10.00">inline_memcpy</text>
</a>
</g>
</g>
<!-- Node4&#45;&gt;Node5 -->
<g id="edge4" class="edge">
<title>Node4&#45;&gt;Node5</title>
<path fill="none" stroke="#63b8ff" d="M349.81,-338C372.43,-338 405.73,-338 433.62,-338"/>
<polygon fill="#63b8ff" stroke="#63b8ff" points="433.28,-341.5 443.28,-338 433.28,-334.5 433.28,-341.5"/>
</g>
<!-- Node8 -->
<g id="node8" class="node">
<title>Node8</title>
<g id="a_node8"><a xlink:href="../../d5/d9d/classdoris_1_1vectorized_1_1_p_o_d_array_base.html#a7223528283cd4e5872e0cc716bf9bd9d" target="_top" xlink:title=" ">
<polygon fill="white" stroke="#666666" points="403.5,-240 241.5,-240 241.5,-188 403.5,-188 403.5,-240"/>
<text text-anchor="start" x="249.5" y="-228" font-family="Helvetica,sans-Serif" font-size="10.00">doris::vectorized::</text>
<text text-anchor="start" x="249.5" y="-217" font-family="Helvetica,sans-Serif" font-size="10.00">PODArrayBase&lt; sizeof</text>
<text text-anchor="start" x="249.5" y="-206" font-family="Helvetica,sans-Serif" font-size="10.00">(T), initial_bytes, TAllocator,</text>
<text text-anchor="middle" x="322.5" y="-195" font-family="Helvetica,sans-Serif" font-size="10.00"> pad_right_, pad_left_ &gt;::capacity</text>
</a>
</g>
</g>
<!-- Node7&#45;&gt;Node8 -->
<g id="edge7" class="edge">
<title>Node7&#45;&gt;Node8</title>
<path fill="none" stroke="#63b8ff" d="M165.19,-153.88C185.35,-161.63 214.54,-172.86 242.26,-183.52"/>
<polygon fill="#63b8ff" stroke="#63b8ff" points="240.78,-186.7 251.37,-187.03 243.29,-180.17 240.78,-186.7"/>
</g>
<!-- Node9 -->
<g id="node9" class="node">
<title>Node9</title>
<g id="a_node9"><a xlink:href="../../d5/d9d/classdoris_1_1vectorized_1_1_p_o_d_array_base.html#aa5a2bd4e24261d8f10f2f4e5d82fccf6" target="_top" xlink:title=" ">
<polygon fill="white" stroke="#666666" points="401.5,-170 243.5,-170 243.5,-118 401.5,-118 401.5,-170"/>
<text text-anchor="start" x="251.5" y="-158" font-family="Helvetica,sans-Serif" font-size="10.00">doris::vectorized::</text>
<text text-anchor="start" x="251.5" y="-147" font-family="Helvetica,sans-Serif" font-size="10.00">PODArrayBase&lt; sizeof</text>
<text text-anchor="start" x="251.5" y="-136" font-family="Helvetica,sans-Serif" font-size="10.00">(T), initial_bytes, TAllocator,</text>
<text text-anchor="middle" x="322.5" y="-125" font-family="Helvetica,sans-Serif" font-size="10.00"> pad_right_, pad_left_ &gt;::reserve</text>
</a>
</g>
</g>
<!-- Node7&#45;&gt;Node9 -->
<g id="edge8" class="edge">
<title>Node7&#45;&gt;Node9</title>
<path fill="none" stroke="#63b8ff" d="M177.65,-144C193.6,-144 212.86,-144 232.03,-144"/>
<polygon fill="#63b8ff" stroke="#63b8ff" points="231.76,-147.5 241.76,-144 231.76,-140.5 231.76,-147.5"/>
</g>
<!-- Node10 -->
<g id="node10" class="node">
<title>Node10</title>
<g id="a_node10"><a xlink:href="../../dc/da2/bit__helpers_8h.html#ae2948c0075b86f9ca20fc36610b4aca8" target="_top" xlink:title=" ">
<polygon fill="white" stroke="#666666" points="380,-100 265,-100 265,-70 380,-70 380,-100"/>
<text text-anchor="start" x="273" y="-88" font-family="Helvetica,sans-Serif" font-size="10.00">round_up_to_power_of</text>
<text text-anchor="middle" x="322.5" y="-77" font-family="Helvetica,sans-Serif" font-size="10.00">_two_or_zero</text>
</a>
</g>
</g>
<!-- Node7&#45;&gt;Node10 -->
<g id="edge9" class="edge">
<title>Node7&#45;&gt;Node10</title>
<path fill="none" stroke="#63b8ff" d="M165.12,-134.12C184.47,-126.8 211.74,-116.79 236,-109 241.78,-107.14 247.8,-105.29 253.86,-103.48"/>
<polygon fill="#63b8ff" stroke="#63b8ff" points="254.69,-106.89 263.3,-100.72 252.72,-100.17 254.69,-106.89"/>
</g>
<!-- Node11 -->
<g id="node11" class="node">
<title>Node11</title>
<g id="a_node11"><a xlink:href="../../d5/d9d/classdoris_1_1vectorized_1_1_p_o_d_array_base.html#a259cb5a711406a8c3e5d937eb9350cca" target="_top" xlink:title=" ">
<polygon fill="white" stroke="#666666" points="394,-52 251,-52 251,0 394,0 394,-52"/>
<text text-anchor="start" x="259" y="-40" font-family="Helvetica,sans-Serif" font-size="10.00">doris::vectorized::</text>
<text text-anchor="start" x="259" y="-29" font-family="Helvetica,sans-Serif" font-size="10.00">PODArrayBase&lt; sizeof</text>
<text text-anchor="start" x="259" y="-18" font-family="Helvetica,sans-Serif" font-size="10.00">(T), initial_bytes, TAllocator,</text>
<text text-anchor="middle" x="322.5" y="-7" font-family="Helvetica,sans-Serif" font-size="10.00"> pad_right_, pad_left_ &gt;::size</text>
</a>
</g>
</g>
<!-- Node7&#45;&gt;Node11 -->
<g id="edge10" class="edge">
<title>Node7&#45;&gt;Node11</title>
<path fill="none" stroke="#63b8ff" d="M148.81,-134.13C165.13,-117.29 200.57,-82.69 236,-61 237.85,-59.87 239.74,-58.76 241.66,-57.67"/>
<polygon fill="#63b8ff" stroke="#63b8ff" points="242.98,-60.93 250.17,-53.15 239.7,-54.75 242.98,-60.93"/>
</g>
</g>
</svg>
