<?xml version="1.0" encoding="UTF-8" standalone="no"?>
<!DOCTYPE svg PUBLIC "-//W3C//DTD SVG 1.1//EN"
 "http://www.w3.org/Graphics/SVG/1.1/DTD/svg11.dtd">
<!-- Generated by graphviz version 7.1.0 (20230121.1956)
 -->
<!-- Title: push_back_without_reserve Pages: 1 -->
<svg width="355pt" height="168pt"
 viewBox="0.00 0.00 355.00 167.50" xmlns="http://www.w3.org/2000/svg" xmlns:xlink="http://www.w3.org/1999/xlink">
<g id="graph0" class="graph" transform="scale(1 1) rotate(0) translate(4 163.5)">
<title>push_back_without_reserve</title>
<!-- Node1 -->
<g id="node1" class="node">
<title>Node1</title>
<g id="a_node1"><a xlink:title=" ">
<polygon fill="#999999" stroke="#666666" points="138,-73 0,-73 0,-54 138,-54 138,-73"/>
<text text-anchor="middle" x="69" y="-61" font-family="Helvetica,sans-Serif" font-size="10.00">push_back_without_reserve</text>
</a>
</g>
</g>
<!-- Node2 -->
<g id="node2" class="node">
<title>Node2</title>
<g id="a_node2"><a xlink:href="../../d5/d9d/classdoris_1_1vectorized_1_1_p_o_d_array_base.html#a4fd871ea772d3f22957ed8dd6a0aebb6" target="_top" xlink:title="The amount of memory occupied by the num_elements of the elements.">
<polygon fill="white" stroke="#666666" points="344,-159.5 177,-159.5 177,-107.5 344,-107.5 344,-159.5"/>
<text text-anchor="start" x="185" y="-147.5" font-family="Helvetica,sans-Serif" font-size="10.00">doris::vectorized::</text>
<text text-anchor="start" x="185" y="-136.5" font-family="Helvetica,sans-Serif" font-size="10.00">PODArrayBase&lt; sizeof</text>
<text text-anchor="start" x="185" y="-125.5" font-family="Helvetica,sans-Serif" font-size="10.00">(T), initial_bytes, TAllocator,</text>
<text text-anchor="middle" x="260.5" y="-114.5" font-family="Helvetica,sans-Serif" font-size="10.00"> pad_right_, pad_left_ &gt;::byte_size</text>
</a>
</g>
</g>
<!-- Node1&#45;&gt;Node2 -->
<g id="edge1" class="edge">
<title>Node1&#45;&gt;Node2</title>
<path fill="none" stroke="#63b8ff" d="M96.75,-73.38C117.83,-81.17 148.4,-92.46 177.37,-103.16"/>
<polygon fill="#63b8ff" stroke="#63b8ff" points="175.94,-106.36 186.53,-106.55 178.36,-99.8 175.94,-106.36"/>
</g>
<!-- Node3 -->
<g id="node3" class="node">
<title>Node3</title>
<g id="a_node3"><a xlink:href="../../d5/d9d/classdoris_1_1vectorized_1_1_p_o_d_array_base.html#a20432b443b7527c0e50d859593839d3d" target="_top" xlink:title=" ">
<polygon fill="white" stroke="#666666" points="347,-89.5 174,-89.5 174,-37.5 347,-37.5 347,-89.5"/>
<text text-anchor="start" x="182" y="-77.5" font-family="Helvetica,sans-Serif" font-size="10.00">doris::vectorized::</text>
<text text-anchor="start" x="182" y="-66.5" font-family="Helvetica,sans-Serif" font-size="10.00">PODArrayBase&lt; sizeof</text>
<text text-anchor="start" x="182" y="-55.5" font-family="Helvetica,sans-Serif" font-size="10.00">(T), initial_bytes, TAllocator,</text>
<text text-anchor="middle" x="260.5" y="-44.5" font-family="Helvetica,sans-Serif" font-size="10.00"> pad_right_, pad_left_ &gt;::reset_peak</text>
</a>
</g>
</g>
<!-- Node1&#45;&gt;Node3 -->
<g id="edge2" class="edge">
<title>Node1&#45;&gt;Node3</title>
<path fill="none" stroke="#63b8ff" d="M138.41,-63.5C146.2,-63.5 154.24,-63.5 162.3,-63.5"/>
<polygon fill="#63b8ff" stroke="#63b8ff" points="162.18,-67 172.18,-63.5 162.18,-60 162.18,-67"/>
</g>
<!-- Node4 -->
<g id="node4" class="node">
<title>Node4</title>
<g id="a_node4"><a xlink:href="../../df/db2/classdoris_1_1vectorized_1_1_p_o_d_array.html#a23330edc945b54dbc26dbfde57ae3be7" target="_top" xlink:title=" ">
<polygon fill="white" stroke="#666666" points="281,-19 240,-19 240,0 281,0 281,-19"/>
<text text-anchor="middle" x="260.5" y="-7" font-family="Helvetica,sans-Serif" font-size="10.00">t_end</text>
</a>
</g>
</g>
<!-- Node1&#45;&gt;Node4 -->
<g id="edge3" class="edge">
<title>Node1&#45;&gt;Node4</title>
<path fill="none" stroke="#63b8ff" d="M96.69,-53.65C117.56,-46.16 147.39,-35.91 174,-28.5 191.92,-23.51 212.23,-18.95 228.56,-15.55"/>
<polygon fill="#63b8ff" stroke="#63b8ff" points="229.07,-19.02 238.17,-13.59 227.68,-12.16 229.07,-19.02"/>
</g>
</g>
</svg>
