<?xml version="1.0" encoding="UTF-8" standalone="no"?>
<!DOCTYPE svg PUBLIC "-//W3C//DTD SVG 1.1//EN"
 "http://www.w3.org/Graphics/SVG/1.1/DTD/svg11.dtd">
<!-- Generated by graphviz version 7.1.0 (20230121.1956)
 -->
<!-- Title: swap Pages: 1 -->
<svg width="410pt" height="273pt"
 viewBox="0.00 0.00 410.00 273.00" xmlns="http://www.w3.org/2000/svg" xmlns:xlink="http://www.w3.org/1999/xlink">
<g id="graph0" class="graph" transform="scale(1 1) rotate(0) translate(4 269)">
<title>swap</title>
<!-- Node1 -->
<g id="node1" class="node">
<title>Node1</title>
<g id="a_node1"><a xlink:title=" ">
<polygon fill="#999999" stroke="#666666" points="402,-117 362,-117 362,-98 402,-98 402,-117"/>
<text text-anchor="middle" x="382" y="-105" font-family="Helvetica,sans-Serif" font-size="10.00">swap</text>
</a>
</g>
</g>
<!-- Node2 -->
<g id="node2" class="node">
<title>Node2</title>
<g id="a_node2"><a xlink:href="../../d7/d71/classdoris_1_1vectorized_1_1_aggregation_node.html#a245b5be18a877b191a3a531a80270e08" target="_top" xlink:title=" ">
<polygon fill="white" stroke="#666666" points="326,-259.5 165,-259.5 165,-229.5 326,-229.5 326,-259.5"/>
<text text-anchor="start" x="173" y="-247.5" font-family="Helvetica,sans-Serif" font-size="10.00">doris::vectorized::</text>
<text text-anchor="middle" x="245.5" y="-236.5" font-family="Helvetica,sans-Serif" font-size="10.00">AggregationNode::_release_mem</text>
</a>
</g>
</g>
<!-- Node1&#45;&gt;Node2 -->
<g id="edge1" class="edge">
<title>Node1&#45;&gt;Node2</title>
<path fill="none" stroke="#63b8ff" d="M376.33,-128.21C369.55,-153.58 354.55,-196.18 326,-220.5 322.16,-223.77 317.88,-226.6 313.36,-229.04"/>
<polygon fill="#63b8ff" stroke="#63b8ff" points="379.67,-129.31 378.66,-118.76 372.87,-127.64 379.67,-129.31"/>
</g>
<!-- Node4 -->
<g id="node4" class="node">
<title>Node4</title>
<g id="a_node4"><a xlink:href="../../dd/dd5/classdoris_1_1vectorized_1_1_decimal_padded_p_o_d_array.html#a6423a92d569a06c986846c7ae76a8201" target="_top" xlink:title=" ">
<polygon fill="white" stroke="#666666" points="314,-211 177,-211 177,-170 314,-170 314,-211"/>
<text text-anchor="start" x="185" y="-199" font-family="Helvetica,sans-Serif" font-size="10.00">doris::vectorized::</text>
<text text-anchor="start" x="185" y="-188" font-family="Helvetica,sans-Serif" font-size="10.00">DecimalPaddedPODArray</text>
<text text-anchor="middle" x="245.5" y="-177" font-family="Helvetica,sans-Serif" font-size="10.00">::DecimalPaddedPODArray</text>
</a>
</g>
</g>
<!-- Node1&#45;&gt;Node4 -->
<g id="edge3" class="edge">
<title>Node1&#45;&gt;Node4</title>
<path fill="none" stroke="#63b8ff" d="M366.16,-125.64C355.89,-137.21 341.36,-151.81 326,-161.5 321.4,-164.4 316.47,-167.07 311.41,-169.51"/>
<polygon fill="#63b8ff" stroke="#63b8ff" points="368.59,-128.18 372.42,-118.31 363.27,-123.64 368.59,-128.18"/>
</g>
<!-- Node5 -->
<g id="node5" class="node">
<title>Node5</title>
<g id="a_node5"><a xlink:href="../../dd/dd5/classdoris_1_1vectorized_1_1_decimal_padded_p_o_d_array.html#a78806dc67cea389dc9138c92a508bff4" target="_top" xlink:title=" ">
<polygon fill="white" stroke="#666666" points="311,-152 180,-152 180,-111 311,-111 311,-152"/>
<text text-anchor="start" x="188" y="-140" font-family="Helvetica,sans-Serif" font-size="10.00">doris::vectorized::</text>
<text text-anchor="start" x="188" y="-129" font-family="Helvetica,sans-Serif" font-size="10.00">DecimalPaddedPODArray</text>
<text text-anchor="middle" x="245.5" y="-118" font-family="Helvetica,sans-Serif" font-size="10.00">::operator=</text>
</a>
</g>
</g>
<!-- Node1&#45;&gt;Node5 -->
<g id="edge4" class="edge">
<title>Node1&#45;&gt;Node5</title>
<path fill="none" stroke="#63b8ff" d="M350.43,-112.95C338.77,-115.04 324.98,-117.5 311.32,-119.93"/>
<polygon fill="#63b8ff" stroke="#63b8ff" points="351.01,-116.41 360.24,-111.2 349.78,-109.52 351.01,-116.41"/>
</g>
<!-- Node6 -->
<g id="node6" class="node">
<title>Node6</title>
<g id="a_node6"><a xlink:href="../../df/db2/classdoris_1_1vectorized_1_1_p_o_d_array.html#a0f617695f70b0f9bb4a5960314e91ccc" target="_top" xlink:title=" ">
<polygon fill="white" stroke="#666666" points="274.5,-93 216.5,-93 216.5,-74 274.5,-74 274.5,-93"/>
<text text-anchor="middle" x="245.5" y="-81" font-family="Helvetica,sans-Serif" font-size="10.00">operator=</text>
</a>
</g>
</g>
<!-- Node1&#45;&gt;Node6 -->
<g id="edge5" class="edge">
<title>Node1&#45;&gt;Node6</title>
<path fill="none" stroke="#63b8ff" d="M350.65,-102.08C327.85,-98.02 296.87,-92.49 274.64,-88.52"/>
<polygon fill="#63b8ff" stroke="#63b8ff" points="349.78,-105.48 360.24,-103.8 351.01,-98.59 349.78,-105.48"/>
</g>
<!-- Node7 -->
<g id="node7" class="node">
<title>Node7</title>
<g id="a_node7"><a xlink:href="../../df/db2/classdoris_1_1vectorized_1_1_p_o_d_array.html#aa26fbc7867a0bfaaca8e27d6822d68ce" target="_top" xlink:title=" ">
<polygon fill="white" stroke="#666666" points="276.5,-56 214.5,-56 214.5,-37 276.5,-37 276.5,-56"/>
<text text-anchor="middle" x="245.5" y="-44" font-family="Helvetica,sans-Serif" font-size="10.00">PODArray</text>
</a>
</g>
</g>
<!-- Node1&#45;&gt;Node7 -->
<g id="edge6" class="edge">
<title>Node1&#45;&gt;Node7</title>
<path fill="none" stroke="#63b8ff" d="M362.57,-90.3C352.46,-81.7 339.29,-71.81 326,-65.5 310.62,-58.19 292.19,-53.56 276.95,-50.7"/>
<polygon fill="#63b8ff" stroke="#63b8ff" points="359.98,-92.68 369.79,-96.69 364.62,-87.44 359.98,-92.68"/>
</g>
<!-- Node8 -->
<g id="node8" class="node">
<title>Node8</title>
<g id="a_node8"><a xlink:href="../../d3/d1e/namespacedoris_1_1vectorized.html#a217fd99d5025e44dfb6eb6e364c70460" target="_top" xlink:title=" ">
<polygon fill="white" stroke="#666666" points="304.5,-19 186.5,-19 186.5,0 304.5,0 304.5,-19"/>
<text text-anchor="middle" x="245.5" y="-7" font-family="Helvetica,sans-Serif" font-size="10.00">doris::vectorized::swap</text>
</a>
</g>
</g>
<!-- Node1&#45;&gt;Node8 -->
<g id="edge7" class="edge">
<title>Node1&#45;&gt;Node8</title>
<path fill="none" stroke="#63b8ff" d="M372.2,-87.4C363.2,-69.24 347.51,-43.17 326,-28.5 319.55,-24.1 312.21,-20.72 304.64,-18.11"/>
<polygon fill="#63b8ff" stroke="#63b8ff" points="368.99,-88.8 376.39,-96.38 375.33,-85.84 368.99,-88.8"/>
</g>
<!-- Node3 -->
<g id="node3" class="node">
<title>Node3</title>
<g id="a_node3"><a xlink:href="../../d7/d71/classdoris_1_1vectorized_1_1_aggregation_node.html#a2313d4299d3fa11834e3516fb942c8cf" target="_top" xlink:title=" ">
<polygon fill="white" stroke="#666666" points="129,-265 0,-265 0,-224 129,-224 129,-265"/>
<text text-anchor="start" x="8" y="-253" font-family="Helvetica,sans-Serif" font-size="10.00">doris::vectorized::</text>
<text text-anchor="start" x="8" y="-242" font-family="Helvetica,sans-Serif" font-size="10.00">AggregationNode::release</text>
<text text-anchor="middle" x="64.5" y="-231" font-family="Helvetica,sans-Serif" font-size="10.00">_resource</text>
</a>
</g>
</g>
<!-- Node2&#45;&gt;Node3 -->
<g id="edge2" class="edge">
<title>Node2&#45;&gt;Node3</title>
<path fill="none" stroke="#63b8ff" d="M153.26,-244.5C145.18,-244.5 137.11,-244.5 129.32,-244.5"/>
<polygon fill="#63b8ff" stroke="#63b8ff" points="153.17,-248 163.17,-244.5 153.17,-241 153.17,-248"/>
</g>
</g>
</svg>
