<?xml version="1.0" encoding="UTF-8" standalone="no"?>
<!DOCTYPE svg PUBLIC "-//W3C//DTD SVG 1.1//EN"
 "http://www.w3.org/Graphics/SVG/1.1/DTD/svg11.dtd">
<!-- Generated by graphviz version 7.1.0 (20230121.1956)
 -->
<!-- Title: _get_controller_shard_idx Pages: 1 -->
<!--zoomable 124 -->
<svg id="main" version="1.1" xmlns="http://www.w3.org/2000/svg" xmlns:xlink="http://www.w3.org/1999/xlink" xml:space="preserve" onload="init(evt)">
<style type="text/css"><![CDATA[
.edge:hover path { stroke: red; }
.edge:hover polygon { stroke: red; fill: red; }
]]></style>
<script type="text/javascript"><![CDATA[
var edges = document.getElementsByTagName('g');
if (edges && edges.length) {
  for (var i=0;i<edges.length;i++) {
    if (edges[i].id.substr(0,4)=='edge') {
      edges[i].setAttribute('class','edge');
    }
  }
}
]]></script>
        <defs>
                <circle id="rim" cx="0" cy="0" r="7"/>
                <circle id="rim2" cx="0" cy="0" r="3.5"/>
                <g id="zoomPlus">
                        <use xlink:href="#rim" fill="#404040">
                                <set attributeName="fill" to="#808080" begin="zoomplus.mouseover" end="zoomplus.mouseout"/>
                        </use>
                        <path d="M-4,0h8M0,-4v8" fill="none" stroke="white" stroke-width="1.5" pointer-events="none"/>
                </g>
                <g id="zoomMin">
                        <use xlink:href="#rim" fill="#404040">
                                <set attributeName="fill" to="#808080" begin="zoomminus.mouseover" end="zoomminus.mouseout"/>
                        </use>
                        <path d="M-4,0h8" fill="none" stroke="white" stroke-width="1.5" pointer-events="none"/>
                </g>
                <g id="dirArrow">
                        <path fill="none" stroke="white" stroke-width="1.5" d="M0,-3.0v7 M-2.5,-0.5L0,-3.0L2.5,-0.5"/>
                </g>
               <g id="resetDef">
                       <use xlink:href="#rim2" fill="#404040">
                               <set attributeName="fill" to="#808080" begin="reset.mouseover" end="reset.mouseout"/>
                       </use>
               </g>
        </defs>

<script type="text/javascript">
var viewWidth = 709;
var viewHeight = 124;
var sectionId = 'dynsection-7';
</script>
<script xlink:href="../../svgpan.js"/>
<svg id="graph" class="graph">
<g id="viewport">
<title>_get_controller_shard_idx</title>
<!-- Node1 -->
<g id="node1" class="node">
<title>Node1</title>
<g id="a_node1"><a xlink:title=" ">
<polygon fill="#999999" stroke="#666666" points="701,-67.5 573,-67.5 573,-48.5 701,-48.5 701,-67.5"/>
<text text-anchor="middle" x="637" y="-55.5" font-family="Helvetica,sans-Serif" font-size="10.00">_get_controller_shard_idx</text>
</a>
</g>
</g>
<!-- Node2 -->
<g id="node2" class="node">
<title>Node2</title>
<g id="a_node2"><a xlink:href="../../d5/d37/classdoris_1_1_runtime_filter_merge_controller.html#ad0ca2570bcf68832491066c83e231e3b" target="_top" xlink:title=" ">
<polygon fill="white" stroke="#666666" points="522,-107.5 474,-107.5 474,-88.5 522,-88.5 522,-107.5"/>
<text text-anchor="middle" x="498" y="-95.5" font-family="Helvetica,sans-Serif" font-size="10.00">acquire</text>
</a>
</g>
</g>
<!-- Node1&#45;&gt;Node2 -->
<g id="edge1" class="edge">
<title>Node1&#45;&gt;Node2</title>
<path fill="none" stroke="#63b8ff" d="M590.93,-71.16C568.06,-77.84 541.23,-85.67 522.48,-91.15"/>
<polygon fill="#63b8ff" stroke="#63b8ff" points="591.71,-74.58 600.33,-68.41 589.75,-67.86 591.71,-74.58"/>
</g>
<!-- Node5 -->
<g id="node5" class="node">
<title>Node5</title>
<g id="a_node5"><a xlink:href="../../d5/d37/classdoris_1_1_runtime_filter_merge_controller.html#ae0c33139e6bad0b932f747a3f396b803" target="_top" xlink:title=" ">
<polygon fill="white" stroke="#666666" points="244,-46.5 182,-46.5 182,-27.5 244,-27.5 244,-46.5"/>
<text text-anchor="middle" x="213" y="-34.5" font-family="Helvetica,sans-Serif" font-size="10.00">add_entity</text>
</a>
</g>
</g>
<!-- Node1&#45;&gt;Node5 -->
<g id="edge4" class="edge">
<title>Node1&#45;&gt;Node5</title>
<path fill="none" stroke="#63b8ff" d="M561.39,-54.29C467.34,-49.61 310,-41.78 244.28,-38.51"/>
<polygon fill="#63b8ff" stroke="#63b8ff" points="561.15,-57.78 571.31,-54.78 561.5,-50.79 561.15,-57.78"/>
</g>
<!-- Node7 -->
<g id="node7" class="node">
<title>Node7</title>
<g id="a_node7"><a xlink:href="../../d5/d37/classdoris_1_1_runtime_filter_merge_controller.html#a1290c5bf8bdca0e71f37a916fe98d051" target="_top" xlink:title=" ">
<polygon fill="white" stroke="#666666" points="537,-27.5 459,-27.5 459,-8.5 537,-8.5 537,-27.5"/>
<text text-anchor="middle" x="498" y="-15.5" font-family="Helvetica,sans-Serif" font-size="10.00">remove_entity</text>
</a>
</g>
</g>
<!-- Node1&#45;&gt;Node7 -->
<g id="edge6" class="edge">
<title>Node1&#45;&gt;Node7</title>
<path fill="none" stroke="#63b8ff" d="M590.99,-44.86C572.03,-39.32 550.34,-32.99 532.78,-27.86"/>
<polygon fill="#63b8ff" stroke="#63b8ff" points="589.75,-48.14 600.33,-47.59 591.71,-41.42 589.75,-48.14"/>
</g>
<!-- Node3 -->
<g id="node3" class="node">
<title>Node3</title>
<g id="a_node3"><a xlink:href="../../d2/d1a/classdoris_1_1_fragment_mgr.html#a2c4dc965697ef8c85a08d3ab9e2c067e" target="_top" xlink:title=" ">
<polygon fill="white" stroke="#666666" points="420,-116 319,-116 319,-86 420,-86 420,-116"/>
<text text-anchor="start" x="327" y="-104" font-family="Helvetica,sans-Serif" font-size="10.00">doris::FragmentMgr</text>
<text text-anchor="middle" x="369.5" y="-93" font-family="Helvetica,sans-Serif" font-size="10.00">::merge_filter</text>
</a>
</g>
</g>
<!-- Node2&#45;&gt;Node3 -->
<g id="edge2" class="edge">
<title>Node2&#45;&gt;Node3</title>
<path fill="none" stroke="#63b8ff" d="M462.27,-98.82C449.33,-99.13 434.37,-99.49 420.34,-99.82"/>
<polygon fill="#63b8ff" stroke="#63b8ff" points="462.08,-102.33 471.99,-98.59 461.91,-95.33 462.08,-102.33"/>
</g>
<!-- Node4 -->
<g id="node4" class="node">
<title>Node4</title>
<g id="a_node4"><a xlink:href="../../d3/de9/classdoris_1_1_p_internal_service_impl.html#a794d34bfa007c6271d8f0a9d9bc21902" target="_top" xlink:title=" ">
<polygon fill="white" stroke="#666666" points="280,-116 146,-116 146,-86 280,-86 280,-116"/>
<text text-anchor="start" x="154" y="-104" font-family="Helvetica,sans-Serif" font-size="10.00">doris::PInternalServiceImpl</text>
<text text-anchor="middle" x="213" y="-93" font-family="Helvetica,sans-Serif" font-size="10.00">::merge_filter</text>
</a>
</g>
</g>
<!-- Node3&#45;&gt;Node4 -->
<g id="edge3" class="edge">
<title>Node3&#45;&gt;Node4</title>
<path fill="none" stroke="#63b8ff" d="M307.3,-101C298.42,-101 289.24,-101 280.27,-101"/>
<polygon fill="#63b8ff" stroke="#63b8ff" points="307.25,-104.5 317.25,-101 307.25,-97.5 307.25,-104.5"/>
</g>
<!-- Node6 -->
<g id="node6" class="node">
<title>Node6</title>
<g id="a_node6"><a xlink:href="../../d2/d1a/classdoris_1_1_fragment_mgr.html#a6b4345bc5e86ca7bc7205da97dec12c9" target="_top" xlink:title=" ">
<polygon fill="white" stroke="#666666" points="110,-52 0,-52 0,-22 110,-22 110,-52"/>
<text text-anchor="start" x="8" y="-40" font-family="Helvetica,sans-Serif" font-size="10.00">doris::FragmentMgr</text>
<text text-anchor="middle" x="55" y="-29" font-family="Helvetica,sans-Serif" font-size="10.00">::exec_plan_fragment</text>
</a>
</g>
</g>
<!-- Node5&#45;&gt;Node6 -->
<g id="edge5" class="edge">
<title>Node5&#45;&gt;Node6</title>
<path fill="none" stroke="#63b8ff" d="M170.04,-37C151.7,-37 129.94,-37 110.37,-37"/>
<polygon fill="#63b8ff" stroke="#63b8ff" points="170.04,-40.5 180.04,-37 170.04,-33.5 170.04,-40.5"/>
</g>
<!-- Node8 -->
<g id="node8" class="node">
<title>Node8</title>
<g id="a_node8"><a xlink:href="../../d6/d94/namespacedoris.html#a963896937851b4e15997e7c4df318f84" target="_top" xlink:title=" ">
<polygon fill="white" stroke="#666666" points="423,-30 316,-30 316,0 423,0 423,-30"/>
<text text-anchor="start" x="324" y="-18" font-family="Helvetica,sans-Serif" font-size="10.00">doris::runtime_filter</text>
<text text-anchor="middle" x="369.5" y="-7" font-family="Helvetica,sans-Serif" font-size="10.00">_merge_entity_close</text>
</a>
</g>
</g>
<!-- Node7&#45;&gt;Node8 -->
<g id="edge7" class="edge">
<title>Node7&#45;&gt;Node8</title>
<path fill="none" stroke="#63b8ff" d="M447.34,-16.82C439.39,-16.63 431.15,-16.44 423.14,-16.25"/>
<polygon fill="#63b8ff" stroke="#63b8ff" points="447.11,-20.32 457.19,-17.06 447.28,-13.32 447.11,-20.32"/>
</g>
<!-- Node8&#45;&gt;Node5 -->
<g id="edge8" class="edge">
<title>Node8&#45;&gt;Node5</title>
<path fill="none" stroke="#63b8ff" d="M304.4,-24.13C283.64,-27.08 261.58,-30.23 244.44,-32.66"/>
<polygon fill="#63b8ff" stroke="#63b8ff" points="304.86,-27.6 314.26,-22.72 303.87,-20.67 304.86,-27.6"/>
</g>
</g>
</svg>
        <g id="navigator" transform="translate(0 0)" fill="#404254">
                <rect fill="#f2f5e9" fill-opacity="0.5" stroke="#606060" stroke-width=".5" x="0" y="0" width="60" height="60"/>
                <use id="zoomplus" xlink:href="#zoomPlus" x="17" y="9" onmousedown="handleZoom(evt,'in')"/>
                <use id="zoomminus" xlink:href="#zoomMin" x="42" y="9" onmousedown="handleZoom(evt,'out')"/>
                <use id="reset" xlink:href="#resetDef" x="30" y="36" onmousedown="handleReset()"/>
                <g id="arrowUp" xlink:href="#dirArrow" transform="translate(30 24)" onmousedown="handlePan(0,-1)">
                  <use xlink:href="#rim" fill="#404040">
                        <set attributeName="fill" to="#808080" begin="arrowUp.mouseover" end="arrowUp.mouseout"/>
                  </use>
                  <path fill="none" stroke="white" stroke-width="1.5" d="M0,-3.0v7 M-2.5,-0.5L0,-3.0L2.5,-0.5"/>
                </g>
                <g id="arrowRight" xlink:href="#dirArrow" transform="rotate(90) translate(36 -43)" onmousedown="handlePan(1,0)">
                  <use xlink:href="#rim" fill="#404040">
                        <set attributeName="fill" to="#808080" begin="arrowRight.mouseover" end="arrowRight.mouseout"/>
                  </use>
                  <path fill="none" stroke="white" stroke-width="1.5" d="M0,-3.0v7 M-2.5,-0.5L0,-3.0L2.5,-0.5"/>
                </g>
                <g id="arrowDown" xlink:href="#dirArrow" transform="rotate(180) translate(-30 -48)" onmousedown="handlePan(0,1)">
                  <use xlink:href="#rim" fill="#404040">
                        <set attributeName="fill" to="#808080" begin="arrowDown.mouseover" end="arrowDown.mouseout"/>
                  </use>
                  <path fill="none" stroke="white" stroke-width="1.5" d="M0,-3.0v7 M-2.5,-0.5L0,-3.0L2.5,-0.5"/>
                </g>
                <g id="arrowLeft" xlink:href="#dirArrow" transform="rotate(270) translate(-36 17)" onmousedown="handlePan(-1,0)">
                  <use xlink:href="#rim" fill="#404040">
                        <set attributeName="fill" to="#808080" begin="arrowLeft.mouseover" end="arrowLeft.mouseout"/>
                  </use>
                  <path fill="none" stroke="white" stroke-width="1.5" d="M0,-3.0v7 M-2.5,-0.5L0,-3.0L2.5,-0.5"/>
                </g>
        </g>
        <svg viewBox="0 0 15 15" width="100%" height="30px" preserveAspectRatio="xMaxYMin meet">
         <g id="arrow_out" transform="scale(0.3 0.3)">
          <a xlink:href="classdoris_1_1_runtime_filter_merge_controller_a783c1bc080eab4a2de255a63db27e336_icgraph_org.svg" target="_base">
           <rect id="button" ry="5" rx="5" y="6" x="6" height="38" width="38"
                fill="#f2f5e9" fill-opacity="0.5" stroke="#606060" stroke-width="1.0"/>
           <path id="arrow"
             d="M 11.500037,31.436501 C 11.940474,20.09759 22.043105,11.32322 32.158766,21.979434 L 37.068811,17.246167 C 37.068811,17.246167 37.088388,32 37.088388,32 L 22.160133,31.978069 C 22.160133,31.978069 26.997745,27.140456 26.997745,27.140456 C 18.528582,18.264221 13.291696,25.230495 11.500037,31.436501 z"
             style="fill:#404040;"/>
          </a>
         </g>
        </svg>
</svg>
