<?xml version="1.0" encoding="UTF-8" standalone="no"?>
<!DOCTYPE svg PUBLIC "-//W3C//DTD SVG 1.1//EN"
 "http://www.w3.org/Graphics/SVG/1.1/DTD/svg11.dtd">
<!-- Generated by graphviz version 7.1.0 (20230121.1956)
 -->
<!-- Title: calculate_cell Pages: 1 -->
<!--zoomable 331 -->
<svg id="main" version="1.1" xmlns="http://www.w3.org/2000/svg" xmlns:xlink="http://www.w3.org/1999/xlink" xml:space="preserve" onload="init(evt)">
<style type="text/css"><![CDATA[
.edge:hover path { stroke: red; }
.edge:hover polygon { stroke: red; fill: red; }
]]></style>
<script type="text/javascript"><![CDATA[
var edges = document.getElementsByTagName('g');
if (edges && edges.length) {
  for (var i=0;i<edges.length;i++) {
    if (edges[i].id.substr(0,4)=='edge') {
      edges[i].setAttribute('class','edge');
    }
  }
}
]]></script>
        <defs>
                <circle id="rim" cx="0" cy="0" r="7"/>
                <circle id="rim2" cx="0" cy="0" r="3.5"/>
                <g id="zoomPlus">
                        <use xlink:href="#rim" fill="#404040">
                                <set attributeName="fill" to="#808080" begin="zoomplus.mouseover" end="zoomplus.mouseout"/>
                        </use>
                        <path d="M-4,0h8M0,-4v8" fill="none" stroke="white" stroke-width="1.5" pointer-events="none"/>
                </g>
                <g id="zoomMin">
                        <use xlink:href="#rim" fill="#404040">
                                <set attributeName="fill" to="#808080" begin="zoomminus.mouseover" end="zoomminus.mouseout"/>
                        </use>
                        <path d="M-4,0h8" fill="none" stroke="white" stroke-width="1.5" pointer-events="none"/>
                </g>
                <g id="dirArrow">
                        <path fill="none" stroke="white" stroke-width="1.5" d="M0,-3.0v7 M-2.5,-0.5L0,-3.0L2.5,-0.5"/>
                </g>
               <g id="resetDef">
                       <use xlink:href="#rim2" fill="#404040">
                               <set attributeName="fill" to="#808080" begin="reset.mouseover" end="reset.mouseout"/>
                       </use>
               </g>
        </defs>

<script type="text/javascript">
var viewWidth = 1115;
var viewHeight = 331;
var sectionId = 'dynsection-0';
</script>
<script xlink:href="../../svgpan.js"/>
<svg id="graph" class="graph">
<g id="viewport">
<title>calculate_cell</title>
<!-- Node1 -->
<g id="node1" class="node">
<title>Node1</title>
<g id="a_node1"><a xlink:title=" ">
<polygon fill="#999999" stroke="#666666" points="76,-156 0,-156 0,-137 76,-137 76,-156"/>
<text text-anchor="middle" x="38" y="-144" font-family="Helvetica,sans-Serif" font-size="10.00">calculate_cell</text>
</a>
</g>
</g>
<!-- Node2 -->
<g id="node2" class="node">
<title>Node2</title>
<g id="a_node2"><a xlink:href="../../dd/d8d/classdoris_1_1_math_functions.html#aa0d410cf630d4c0408f1ce04de31d68a" target="_top" xlink:title=" ">
<polygon fill="white" stroke="#666666" points="235.5,-323 126.5,-323 126.5,-282 235.5,-282 235.5,-323"/>
<text text-anchor="start" x="134.5" y="-311" font-family="Helvetica,sans-Serif" font-size="10.00">doris::MathFunctions</text>
<text text-anchor="start" x="134.5" y="-300" font-family="Helvetica,sans-Serif" font-size="10.00">::decimal_in_base_to</text>
<text text-anchor="middle" x="181" y="-289" font-family="Helvetica,sans-Serif" font-size="10.00">_decimal</text>
</a>
</g>
</g>
<!-- Node1&#45;&gt;Node2 -->
<g id="edge1" class="edge">
<title>Node1&#45;&gt;Node2</title>
<path fill="none" stroke="#63b8ff" d="M42.3,-156.4C50.5,-179.67 73.97,-238.42 112,-272.5 113.45,-273.8 114.97,-275.06 116.54,-276.26"/>
<polygon fill="#63b8ff" stroke="#63b8ff" points="114.53,-279.12 124.78,-281.8 118.44,-273.32 114.53,-279.12"/>
</g>
<!-- Node3 -->
<g id="node3" class="node">
<title>Node3</title>
<g id="a_node3"><a xlink:href="../../dd/d8d/classdoris_1_1_math_functions.html#af5f1339f2dfebd25f941cad11c5d78ae" target="_top" xlink:title=" ">
<polygon fill="white" stroke="#666666" points="235,-263.5 127,-263.5 127,-233.5 235,-233.5 235,-263.5"/>
<text text-anchor="start" x="135" y="-251.5" font-family="Helvetica,sans-Serif" font-size="10.00">doris::MathFunctions</text>
<text text-anchor="middle" x="181" y="-240.5" font-family="Helvetica,sans-Serif" font-size="10.00">::decimal_to_base</text>
</a>
</g>
</g>
<!-- Node1&#45;&gt;Node3 -->
<g id="edge2" class="edge">
<title>Node1&#45;&gt;Node3</title>
<path fill="none" stroke="#63b8ff" d="M52.78,-156.47C75.04,-172.57 119.44,-204.69 149.45,-226.4"/>
<polygon fill="#63b8ff" stroke="#63b8ff" points="147.26,-229.13 157.41,-232.16 151.36,-223.46 147.26,-229.13"/>
</g>
<!-- Node7 -->
<g id="node7" class="node">
<title>Node7</title>
<g id="a_node7"><a xlink:href="../../df/d15/classdoris_1_1vectorized_1_1_column_vector.html#a09230e0da400bb4b65270dd9d1a19a9b" target="_top" xlink:title=" ">
<polygon fill="white" stroke="#666666" points="250,-80.5 112,-80.5 112,-50.5 250,-50.5 250,-80.5"/>
<text text-anchor="start" x="120" y="-68.5" font-family="Helvetica,sans-Serif" font-size="10.00">doris::vectorized::</text>
<text text-anchor="middle" x="181" y="-57.5" font-family="Helvetica,sans-Serif" font-size="10.00">ColumnVector::get_element</text>
</a>
</g>
</g>
<!-- Node1&#45;&gt;Node7 -->
<g id="edge6" class="edge">
<title>Node1&#45;&gt;Node7</title>
<path fill="none" stroke="#63b8ff" d="M49.12,-136.84C62.56,-124.44 87.46,-102.94 112,-89.5 114.5,-88.13 117.09,-86.82 119.74,-85.56"/>
<polygon fill="#63b8ff" stroke="#63b8ff" points="121.03,-88.81 128.77,-81.58 118.21,-82.41 121.03,-88.81"/>
</g>
<!-- Node8 -->
<g id="node8" class="node">
<title>Node8</title>
<g id="a_node8"><a xlink:href="../../dd/d8d/classdoris_1_1_math_functions.html#aab1c3bbbb9465114ad5397845d0751ef" target="_top" xlink:title=" ">
<polygon fill="white" stroke="#666666" points="236,-32.5 126,-32.5 126,-2.5 236,-2.5 236,-32.5"/>
<text text-anchor="start" x="134" y="-20.5" font-family="Helvetica,sans-Serif" font-size="10.00">doris::MathFunctions</text>
<text text-anchor="middle" x="181" y="-9.5" font-family="Helvetica,sans-Serif" font-size="10.00">::handle_parse_result</text>
</a>
</g>
</g>
<!-- Node1&#45;&gt;Node8 -->
<g id="edge7" class="edge">
<title>Node1&#45;&gt;Node8</title>
<path fill="none" stroke="#63b8ff" d="M43.3,-136.56C52.74,-115.9 77.22,-68.01 112,-41.5 113.34,-40.48 114.72,-39.5 116.15,-38.56"/>
<polygon fill="#63b8ff" stroke="#63b8ff" points="117.75,-41.68 124.69,-33.67 114.27,-35.6 117.75,-41.68"/>
</g>
<!-- Node9 -->
<g id="node9" class="node">
<title>Node9</title>
<g id="a_node9"><a xlink:href="../../d7/d3c/classdoris_1_1vectorized_1_1_column_string.html#a3ddb0d39331caa0f2f8014c9019500ed" target="_top" xlink:title=" ">
<polygon fill="white" stroke="#666666" points="246,-188.5 116,-188.5 116,-158.5 246,-158.5 246,-188.5"/>
<text text-anchor="start" x="124" y="-176.5" font-family="Helvetica,sans-Serif" font-size="10.00">doris::vectorized::</text>
<text text-anchor="middle" x="181" y="-165.5" font-family="Helvetica,sans-Serif" font-size="10.00">ColumnString::insert_data</text>
</a>
</g>
</g>
<!-- Node1&#45;&gt;Node9 -->
<g id="edge8" class="edge">
<title>Node1&#45;&gt;Node9</title>
<path fill="none" stroke="#63b8ff" d="M76.42,-153.66C85.19,-155.34 94.85,-157.19 104.63,-159.07"/>
<polygon fill="#63b8ff" stroke="#63b8ff" points="103.72,-162.46 114.2,-160.9 105.04,-155.58 103.72,-162.46"/>
</g>
<!-- Node26 -->
<g id="node26" class="node">
<title>Node26</title>
<g id="a_node26"><a xlink:href="../../d7/d3c/classdoris_1_1vectorized_1_1_column_string.html#a6df2ecbab548a51440ef47a89d5950a7" target="_top" xlink:title=" ">
<polygon fill="white" stroke="#666666" points="234,-140 128,-140 128,-99 234,-99 234,-140"/>
<text text-anchor="start" x="136" y="-128" font-family="Helvetica,sans-Serif" font-size="10.00">doris::vectorized::</text>
<text text-anchor="start" x="136" y="-117" font-family="Helvetica,sans-Serif" font-size="10.00">ColumnString::insert</text>
<text text-anchor="middle" x="181" y="-106" font-family="Helvetica,sans-Serif" font-size="10.00">_default</text>
</a>
</g>
</g>
<!-- Node1&#45;&gt;Node26 -->
<g id="edge27" class="edge">
<title>Node1&#45;&gt;Node26</title>
<path fill="none" stroke="#63b8ff" d="M76.42,-139.34C88.78,-136.97 102.89,-134.27 116.64,-131.63"/>
<polygon fill="#63b8ff" stroke="#63b8ff" points="116.9,-135.15 126.06,-129.83 115.58,-128.27 116.9,-135.15"/>
</g>
<!-- Node4 -->
<g id="node4" class="node">
<title>Node4</title>
<g id="a_node4"><a xlink:href="../../db/de7/classdoris_1_1_function_context.html#a0b7169fc70410321f9ab7b3c90ba08a1" target="_top" xlink:title=" ">
<polygon fill="white" stroke="#666666" points="410,-306.5 286,-306.5 286,-276.5 410,-276.5 410,-306.5"/>
<text text-anchor="start" x="294" y="-294.5" font-family="Helvetica,sans-Serif" font-size="10.00">doris::FunctionContext</text>
<text text-anchor="middle" x="348" y="-283.5" font-family="Helvetica,sans-Serif" font-size="10.00">::create_temp_string_val</text>
</a>
</g>
</g>
<!-- Node3&#45;&gt;Node4 -->
<g id="edge3" class="edge">
<title>Node3&#45;&gt;Node4</title>
<path fill="none" stroke="#63b8ff" d="M235.12,-262.34C248.35,-265.79 262.74,-269.54 276.66,-273.17"/>
<polygon fill="#63b8ff" stroke="#63b8ff" points="275.67,-276.53 286.23,-275.66 277.43,-269.75 275.67,-276.53"/>
</g>
<!-- Node5 -->
<g id="node5" class="node">
<title>Node5</title>
<g id="a_node5"><a xlink:href="../../d9/d1e/memcpy__aarch64_8cpp.html#a156c5821f16ed93be8c7d315303f7b2a" target="_top" xlink:title=" ">
<polygon fill="white" stroke="#666666" points="375,-258 321,-258 321,-239 375,-239 375,-258"/>
<text text-anchor="middle" x="348" y="-246" font-family="Helvetica,sans-Serif" font-size="10.00">memcpy</text>
</a>
</g>
</g>
<!-- Node3&#45;&gt;Node5 -->
<g id="edge4" class="edge">
<title>Node3&#45;&gt;Node5</title>
<path fill="none" stroke="#63b8ff" d="M235.12,-248.5C259.28,-248.5 287.31,-248.5 309.27,-248.5"/>
<polygon fill="#63b8ff" stroke="#63b8ff" points="309.27,-252 319.27,-248.5 309.27,-245 309.27,-252"/>
</g>
<!-- Node6 -->
<g id="node6" class="node">
<title>Node6</title>
<g id="a_node6"><a xlink:href="../../d9/d1e/memcpy__aarch64_8cpp.html#a11ebdd343428c466f2f35c376d7db6d0" target="_top" xlink:title=" ">
<polygon fill="white" stroke="#666666" points="548,-258 466,-258 466,-239 548,-239 548,-258"/>
<text text-anchor="middle" x="507" y="-246" font-family="Helvetica,sans-Serif" font-size="10.00">inline_memcpy</text>
</a>
</g>
</g>
<!-- Node5&#45;&gt;Node6 -->
<g id="edge5" class="edge">
<title>Node5&#45;&gt;Node6</title>
<path fill="none" stroke="#63b8ff" d="M375.28,-248.5C396.8,-248.5 427.9,-248.5 454.37,-248.5"/>
<polygon fill="#63b8ff" stroke="#63b8ff" points="454.25,-252 464.25,-248.5 454.25,-245 454.25,-252"/>
</g>
<!-- Node9&#45;&gt;Node5 -->
<g id="edge12" class="edge">
<title>Node9&#45;&gt;Node5</title>
<path fill="none" stroke="#63b8ff" d="M206.47,-188.87C227.09,-201.34 257.67,-218.72 286,-230.5 293.55,-233.64 301.84,-236.47 309.81,-238.91"/>
<polygon fill="#63b8ff" stroke="#63b8ff" points="308.72,-242.24 319.3,-241.66 310.67,-235.51 308.72,-242.24"/>
</g>
<!-- Node10 -->
<g id="node10" class="node">
<title>Node10</title>
<g id="a_node10"><a xlink:href="../../d7/d3c/classdoris_1_1vectorized_1_1_column_string.html#ab15ae3a50f8d1fbc7b1986af77263e2c" target="_top" xlink:title=" ">
<polygon fill="white" stroke="#666666" points="402,-221 294,-221 294,-180 402,-180 402,-221"/>
<text text-anchor="start" x="302" y="-209" font-family="Helvetica,sans-Serif" font-size="10.00">doris::vectorized::</text>
<text text-anchor="start" x="302" y="-198" font-family="Helvetica,sans-Serif" font-size="10.00">ColumnString::check</text>
<text text-anchor="middle" x="348" y="-187" font-family="Helvetica,sans-Serif" font-size="10.00">_chars_length</text>
</a>
</g>
</g>
<!-- Node9&#45;&gt;Node10 -->
<g id="edge9" class="edge">
<title>Node9&#45;&gt;Node10</title>
<path fill="none" stroke="#63b8ff" d="M246.27,-184.02C258.13,-185.96 270.52,-187.99 282.39,-189.93"/>
<polygon fill="#63b8ff" stroke="#63b8ff" points="281.66,-193.35 292.09,-191.51 282.79,-186.45 281.66,-193.35"/>
</g>
<!-- Node11 -->
<g id="node11" class="node">
<title>Node11</title>
<g id="a_node11"><a xlink:href="../../df/db2/classdoris_1_1vectorized_1_1_p_o_d_array.html#adc1e16b293a89a9ccc9541058b5ca560" target="_top" xlink:title=" ">
<polygon fill="white" stroke="#666666" points="395.5,-161.5 300.5,-161.5 300.5,-131.5 395.5,-131.5 395.5,-161.5"/>
<text text-anchor="start" x="308.5" y="-149.5" font-family="Helvetica,sans-Serif" font-size="10.00">doris::vectorized::</text>
<text text-anchor="middle" x="348" y="-138.5" font-family="Helvetica,sans-Serif" font-size="10.00">PODArray::data</text>
</a>
</g>
</g>
<!-- Node9&#45;&gt;Node11 -->
<g id="edge10" class="edge">
<title>Node9&#45;&gt;Node11</title>
<path fill="none" stroke="#63b8ff" d="M246.27,-162.98C260.26,-160.69 275,-158.28 288.75,-156.03"/>
<polygon fill="#63b8ff" stroke="#63b8ff" points="289.23,-159.5 298.53,-154.43 288.1,-152.59 289.23,-159.5"/>
</g>
<!-- Node13 -->
<g id="node13" class="node">
<title>Node13</title>
<g id="a_node13"><a xlink:href="../../d5/d9d/classdoris_1_1vectorized_1_1_p_o_d_array_base.html#a0c895d2dd381326acf54873d9d3a5aa5" target="_top" xlink:title=" ">
<polygon fill="white" stroke="#666666" points="406,-113.5 290,-113.5 290,-83.5 406,-83.5 406,-113.5"/>
<text text-anchor="start" x="298" y="-101.5" font-family="Helvetica,sans-Serif" font-size="10.00">doris::vectorized::</text>
<text text-anchor="middle" x="348" y="-90.5" font-family="Helvetica,sans-Serif" font-size="10.00">PODArrayBase::resize</text>
</a>
</g>
</g>
<!-- Node9&#45;&gt;Node13 -->
<g id="edge13" class="edge">
<title>Node9&#45;&gt;Node13</title>
<path fill="none" stroke="#63b8ff" d="M229.19,-158.06C236.3,-155.19 243.45,-151.99 250,-148.5 267.42,-139.23 268.68,-131.97 286,-122.5 288.36,-121.21 290.8,-119.95 293.29,-118.74"/>
<polygon fill="#63b8ff" stroke="#63b8ff" points="294.71,-121.94 302.34,-114.59 291.79,-115.57 294.71,-121.94"/>
</g>
<!-- Node25 -->
<g id="node25" class="node">
<title>Node25</title>
<g id="a_node25"><a xlink:href="../../d5/d9d/classdoris_1_1vectorized_1_1_p_o_d_array_base.html#a259cb5a711406a8c3e5d937eb9350cca" target="_top" xlink:title=" ">
<polygon fill="white" stroke="#666666" points="402,-65.5 294,-65.5 294,-35.5 402,-35.5 402,-65.5"/>
<text text-anchor="start" x="302" y="-53.5" font-family="Helvetica,sans-Serif" font-size="10.00">doris::vectorized::</text>
<text text-anchor="middle" x="348" y="-42.5" font-family="Helvetica,sans-Serif" font-size="10.00">PODArrayBase::size</text>
</a>
</g>
</g>
<!-- Node9&#45;&gt;Node25 -->
<g id="edge26" class="edge">
<title>Node9&#45;&gt;Node25</title>
<path fill="none" stroke="#63b8ff" d="M236.22,-158.1C241.19,-155.39 245.9,-152.21 250,-148.5 277.13,-123.97 259.15,-99.33 286,-74.5 286.77,-73.79 287.56,-73.1 288.37,-72.43"/>
<polygon fill="#63b8ff" stroke="#63b8ff" points="290.25,-75.39 296.5,-66.83 286.28,-69.62 290.25,-75.39"/>
</g>
<!-- Node12 -->
<g id="node12" class="node">
<title>Node12</title>
<g id="a_node12"><a xlink:href="../../df/db2/classdoris_1_1vectorized_1_1_p_o_d_array.html#a8e612adde07f46d3398ac6962d676a66" target="_top" xlink:title=" ">
<polygon fill="white" stroke="#666666" points="554.5,-161.5 459.5,-161.5 459.5,-131.5 554.5,-131.5 554.5,-161.5"/>
<text text-anchor="start" x="467.5" y="-149.5" font-family="Helvetica,sans-Serif" font-size="10.00">doris::vectorized::</text>
<text text-anchor="middle" x="507" y="-138.5" font-family="Helvetica,sans-Serif" font-size="10.00">PODArray::t_start</text>
</a>
</g>
</g>
<!-- Node11&#45;&gt;Node12 -->
<g id="edge11" class="edge">
<title>Node11&#45;&gt;Node12</title>
<path fill="none" stroke="#63b8ff" d="M395.68,-146.5C412.14,-146.5 430.85,-146.5 448.12,-146.5"/>
<polygon fill="#63b8ff" stroke="#63b8ff" points="447.72,-150 457.72,-146.5 447.72,-143 447.72,-150"/>
</g>
<!-- Node14 -->
<g id="node14" class="node">
<title>Node14</title>
<g id="a_node14"><a xlink:href="../../d5/d9d/classdoris_1_1vectorized_1_1_p_o_d_array_base.html#aa5a2bd4e24261d8f10f2f4e5d82fccf6" target="_top" xlink:title=" ">
<polygon fill="white" stroke="#666666" points="568,-113.5 446,-113.5 446,-83.5 568,-83.5 568,-113.5"/>
<text text-anchor="start" x="454" y="-101.5" font-family="Helvetica,sans-Serif" font-size="10.00">doris::vectorized::</text>
<text text-anchor="middle" x="507" y="-90.5" font-family="Helvetica,sans-Serif" font-size="10.00">PODArrayBase::reserve</text>
</a>
</g>
</g>
<!-- Node13&#45;&gt;Node14 -->
<g id="edge14" class="edge">
<title>Node13&#45;&gt;Node14</title>
<path fill="none" stroke="#63b8ff" d="M406.12,-98.5C415.29,-98.5 424.87,-98.5 434.32,-98.5"/>
<polygon fill="#63b8ff" stroke="#63b8ff" points="434.23,-102 444.23,-98.5 434.23,-95 434.23,-102"/>
</g>
<!-- Node24 -->
<g id="node24" class="node">
<title>Node24</title>
<g id="a_node24"><a xlink:href="../../d5/d9d/classdoris_1_1vectorized_1_1_p_o_d_array_base.html#afa97d17a5fedae2da8191c2c52aa6025" target="_top" xlink:title=" ">
<polygon fill="white" stroke="#666666" points="565,-41 449,-41 449,0 565,0 565,-41"/>
<text text-anchor="start" x="457" y="-29" font-family="Helvetica,sans-Serif" font-size="10.00">doris::vectorized::</text>
<text text-anchor="start" x="457" y="-18" font-family="Helvetica,sans-Serif" font-size="10.00">PODArrayBase::resize</text>
<text text-anchor="middle" x="507" y="-7" font-family="Helvetica,sans-Serif" font-size="10.00">_assume_reserved</text>
</a>
</g>
</g>
<!-- Node13&#45;&gt;Node24 -->
<g id="edge24" class="edge">
<title>Node13&#45;&gt;Node24</title>
<path fill="none" stroke="#63b8ff" d="M390.35,-83.13C396.98,-80.4 403.73,-77.48 410,-74.5 427.31,-66.28 445.77,-56.22 461.84,-47.02"/>
<polygon fill="#63b8ff" stroke="#63b8ff" points="463.29,-50.22 470.19,-42.19 459.78,-44.17 463.29,-50.22"/>
</g>
<!-- Node15 -->
<g id="node15" class="node">
<title>Node15</title>
<g id="a_node15"><a xlink:href="../../d5/d9d/classdoris_1_1vectorized_1_1_p_o_d_array_base.html#a7223528283cd4e5872e0cc716bf9bd9d" target="_top" xlink:title=" ">
<polygon fill="white" stroke="#666666" points="732.5,-113.5 605.5,-113.5 605.5,-83.5 732.5,-83.5 732.5,-113.5"/>
<text text-anchor="start" x="613.5" y="-101.5" font-family="Helvetica,sans-Serif" font-size="10.00">doris::vectorized::</text>
<text text-anchor="middle" x="669" y="-90.5" font-family="Helvetica,sans-Serif" font-size="10.00">PODArrayBase::capacity</text>
</a>
</g>
</g>
<!-- Node14&#45;&gt;Node15 -->
<g id="edge15" class="edge">
<title>Node14&#45;&gt;Node15</title>
<path fill="none" stroke="#63b8ff" d="M568.49,-98.5C576.7,-98.5 585.21,-98.5 593.63,-98.5"/>
<polygon fill="#63b8ff" stroke="#63b8ff" points="593.51,-102 603.51,-98.5 593.51,-95 593.51,-102"/>
</g>
<!-- Node16 -->
<g id="node16" class="node">
<title>Node16</title>
<g id="a_node16"><a xlink:href="../../d5/d9d/classdoris_1_1vectorized_1_1_p_o_d_array_base.html#aa0ed9240c71cb15ddd75f2ebfae30c69" target="_top" xlink:title="Minimum amount of memory to allocate for num_elements, including padding.">
<polygon fill="white" stroke="#666666" points="734,-65 604,-65 604,-24 734,-24 734,-65"/>
<text text-anchor="start" x="612" y="-53" font-family="Helvetica,sans-Serif" font-size="10.00">doris::vectorized::</text>
<text text-anchor="start" x="612" y="-42" font-family="Helvetica,sans-Serif" font-size="10.00">PODArrayBase::minimum</text>
<text text-anchor="middle" x="669" y="-31" font-family="Helvetica,sans-Serif" font-size="10.00">_memory_for_elements</text>
</a>
</g>
</g>
<!-- Node14&#45;&gt;Node16 -->
<g id="edge16" class="edge">
<title>Node14&#45;&gt;Node16</title>
<path fill="none" stroke="#63b8ff" d="M553.85,-83.03C566.8,-78.65 581.22,-73.79 595.34,-69.02"/>
<polygon fill="#63b8ff" stroke="#63b8ff" points="596.25,-72.41 604.61,-65.9 594.01,-65.78 596.25,-72.41"/>
</g>
<!-- Node18 -->
<g id="node18" class="node">
<title>Node18</title>
<g id="a_node18"><a xlink:href="../../d5/d9d/classdoris_1_1vectorized_1_1_p_o_d_array_base.html#a9001e08f14a42d556978c322450da2f7" target="_top" xlink:title=" ">
<polygon fill="white" stroke="#666666" points="728.5,-209.5 609.5,-209.5 609.5,-179.5 728.5,-179.5 728.5,-209.5"/>
<text text-anchor="start" x="617.5" y="-197.5" font-family="Helvetica,sans-Serif" font-size="10.00">doris::vectorized::</text>
<text text-anchor="middle" x="669" y="-186.5" font-family="Helvetica,sans-Serif" font-size="10.00">PODArrayBase::realloc</text>
</a>
</g>
</g>
<!-- Node14&#45;&gt;Node18 -->
<g id="edge18" class="edge">
<title>Node14&#45;&gt;Node18</title>
<path fill="none" stroke="#63b8ff" d="M554.31,-113.96C559.14,-116.45 563.81,-119.29 568,-122.5 589.17,-138.72 582.66,-154.51 604,-170.5 605.5,-171.63 607.06,-172.7 608.67,-173.73"/>
<polygon fill="#63b8ff" stroke="#63b8ff" points="606.53,-176.55 616.96,-178.41 609.97,-170.45 606.53,-176.55"/>
</g>
<!-- Node23 -->
<g id="node23" class="node">
<title>Node23</title>
<g id="a_node23"><a xlink:href="../../dc/da2/bit__helpers_8h.html#ae2948c0075b86f9ca20fc36610b4aca8" target="_top" xlink:title=" ">
<polygon fill="white" stroke="#666666" points="726.5,-161.5 611.5,-161.5 611.5,-131.5 726.5,-131.5 726.5,-161.5"/>
<text text-anchor="start" x="619.5" y="-149.5" font-family="Helvetica,sans-Serif" font-size="10.00">round_up_to_power_of</text>
<text text-anchor="middle" x="669" y="-138.5" font-family="Helvetica,sans-Serif" font-size="10.00">_two_or_zero</text>
</a>
</g>
</g>
<!-- Node14&#45;&gt;Node23 -->
<g id="edge23" class="edge">
<title>Node14&#45;&gt;Node23</title>
<path fill="none" stroke="#63b8ff" d="M559.51,-113.95C574.21,-118.36 590.39,-123.22 605.66,-127.8"/>
<polygon fill="#63b8ff" stroke="#63b8ff" points="604.56,-131.12 615.14,-130.64 606.57,-124.42 604.56,-131.12"/>
</g>
<!-- Node17 -->
<g id="node17" class="node">
<title>Node17</title>
<g id="a_node17"><a xlink:href="../../d5/d9d/classdoris_1_1vectorized_1_1_p_o_d_array_base.html#a4fd871ea772d3f22957ed8dd6a0aebb6" target="_top" xlink:title="Does not include pad_right.">
<polygon fill="white" stroke="#666666" points="915,-35.5 783,-35.5 783,-5.5 915,-5.5 915,-35.5"/>
<text text-anchor="start" x="791" y="-23.5" font-family="Helvetica,sans-Serif" font-size="10.00">doris::vectorized::</text>
<text text-anchor="middle" x="849" y="-12.5" font-family="Helvetica,sans-Serif" font-size="10.00">PODArrayBase::byte_size</text>
</a>
</g>
</g>
<!-- Node16&#45;&gt;Node17 -->
<g id="edge17" class="edge">
<title>Node16&#45;&gt;Node17</title>
<path fill="none" stroke="#63b8ff" d="M734.26,-35.84C746.31,-34.21 759.01,-32.5 771.39,-30.83"/>
<polygon fill="#63b8ff" stroke="#63b8ff" points="771.69,-34.32 781.14,-29.52 770.76,-27.38 771.69,-34.32"/>
</g>
<!-- Node19 -->
<g id="node19" class="node">
<title>Node19</title>
<g id="a_node19"><a xlink:href="../../d5/d9d/classdoris_1_1vectorized_1_1_p_o_d_array_base.html#a0e716713ea1a6de012c8830d8ef03ca9" target="_top" xlink:title=" ">
<polygon fill="white" stroke="#666666" points="904,-209.5 794,-209.5 794,-179.5 904,-179.5 904,-209.5"/>
<text text-anchor="start" x="802" y="-197.5" font-family="Helvetica,sans-Serif" font-size="10.00">doris::vectorized::</text>
<text text-anchor="middle" x="849" y="-186.5" font-family="Helvetica,sans-Serif" font-size="10.00">PODArrayBase::alloc</text>
</a>
</g>
</g>
<!-- Node18&#45;&gt;Node19 -->
<g id="edge19" class="edge">
<title>Node18&#45;&gt;Node19</title>
<path fill="none" stroke="#63b8ff" d="M728.78,-194.5C745.89,-194.5 764.69,-194.5 782.21,-194.5"/>
<polygon fill="#63b8ff" stroke="#63b8ff" points="781.99,-198 791.99,-194.5 781.99,-191 781.99,-198"/>
</g>
<!-- Node20 -->
<g id="node20" class="node">
<title>Node20</title>
<g id="a_node20"><a xlink:href="../../d5/d9d/classdoris_1_1vectorized_1_1_p_o_d_array_base.html#acd47db4f184c2a88c3c8eee3406d13db" target="_top" xlink:title="This method is safe to use only for information about memory usage.">
<polygon fill="white" stroke="#666666" points="928,-161.5 770,-161.5 770,-131.5 928,-131.5 928,-161.5"/>
<text text-anchor="start" x="778" y="-149.5" font-family="Helvetica,sans-Serif" font-size="10.00">doris::vectorized::</text>
<text text-anchor="middle" x="849" y="-138.5" font-family="Helvetica,sans-Serif" font-size="10.00">PODArrayBase::allocated_bytes</text>
</a>
</g>
</g>
<!-- Node18&#45;&gt;Node20 -->
<g id="edge20" class="edge">
<title>Node18&#45;&gt;Node20</title>
<path fill="none" stroke="#63b8ff" d="M727.3,-179.05C744.13,-174.51 762.71,-169.5 780.13,-164.8"/>
<polygon fill="#63b8ff" stroke="#63b8ff" points="780.6,-168.3 789.35,-162.32 778.78,-161.54 780.6,-168.3"/>
</g>
<!-- Node21 -->
<g id="node21" class="node">
<title>Node21</title>
<g id="a_node21"><a xlink:href="../../d5/d9d/classdoris_1_1vectorized_1_1_p_o_d_array_base.html#a41d7b4a7908cc8905970d3d601d8634c" target="_top" xlink:title=" ">
<polygon fill="white" stroke="#666666" points="914.5,-257.5 783.5,-257.5 783.5,-227.5 914.5,-227.5 914.5,-257.5"/>
<text text-anchor="start" x="791.5" y="-245.5" font-family="Helvetica,sans-Serif" font-size="10.00">doris::vectorized::</text>
<text text-anchor="middle" x="849" y="-234.5" font-family="Helvetica,sans-Serif" font-size="10.00">PODArrayBase::unprotect</text>
</a>
</g>
</g>
<!-- Node18&#45;&gt;Node21 -->
<g id="edge21" class="edge">
<title>Node18&#45;&gt;Node21</title>
<path fill="none" stroke="#63b8ff" d="M727.3,-209.95C744.13,-214.49 762.71,-219.5 780.13,-224.2"/>
<polygon fill="#63b8ff" stroke="#63b8ff" points="778.78,-227.46 789.35,-226.68 780.6,-220.7 778.78,-227.46"/>
</g>
<!-- Node22 -->
<g id="node22" class="node">
<title>Node22</title>
<g id="a_node22"><a xlink:href="../../d5/d9d/classdoris_1_1vectorized_1_1_p_o_d_array_base.html#aabb38ffefd0c3a618756a9150e27a97a" target="_top" xlink:title=" ">
<polygon fill="white" stroke="#666666" points="1107,-257.5 964,-257.5 964,-227.5 1107,-227.5 1107,-257.5"/>
<text text-anchor="start" x="972" y="-245.5" font-family="Helvetica,sans-Serif" font-size="10.00">doris::vectorized::</text>
<text text-anchor="middle" x="1035.5" y="-234.5" font-family="Helvetica,sans-Serif" font-size="10.00">PODArrayBase::protect_impl</text>
</a>
</g>
</g>
<!-- Node21&#45;&gt;Node22 -->
<g id="edge22" class="edge">
<title>Node21&#45;&gt;Node22</title>
<path fill="none" stroke="#63b8ff" d="M914.79,-242.5C926.87,-242.5 939.65,-242.5 952.17,-242.5"/>
<polygon fill="#63b8ff" stroke="#63b8ff" points="952.07,-246 962.07,-242.5 952.07,-239 952.07,-246"/>
</g>
<!-- Node24&#45;&gt;Node17 -->
<g id="edge25" class="edge">
<title>Node24&#45;&gt;Node17</title>
<path fill="none" stroke="#63b8ff" d="M565.34,-16.33C578.06,-15.57 591.48,-14.89 604,-14.5 661.75,-12.7 676.24,-12.98 734,-14.5 746.06,-14.82 758.83,-15.32 771.29,-15.91"/>
<polygon fill="#63b8ff" stroke="#63b8ff" points="770.94,-19.4 781.1,-16.39 771.29,-12.4 770.94,-19.4"/>
</g>
<!-- Node26&#45;&gt;Node25 -->
<g id="edge28" class="edge">
<title>Node26&#45;&gt;Node25</title>
<path fill="none" stroke="#63b8ff" d="M229.49,-98.55C247.17,-90.86 267.45,-82.16 286,-74.5 289.53,-73.04 293.17,-71.56 296.85,-70.07"/>
<polygon fill="#63b8ff" stroke="#63b8ff" points="297.83,-73.45 305.81,-66.49 295.23,-66.95 297.83,-73.45"/>
</g>
</g>
</svg>
        <g id="navigator" transform="translate(0 0)" fill="#404254">
                <rect fill="#f2f5e9" fill-opacity="0.5" stroke="#606060" stroke-width=".5" x="0" y="0" width="60" height="60"/>
                <use id="zoomplus" xlink:href="#zoomPlus" x="17" y="9" onmousedown="handleZoom(evt,'in')"/>
                <use id="zoomminus" xlink:href="#zoomMin" x="42" y="9" onmousedown="handleZoom(evt,'out')"/>
                <use id="reset" xlink:href="#resetDef" x="30" y="36" onmousedown="handleReset()"/>
                <g id="arrowUp" xlink:href="#dirArrow" transform="translate(30 24)" onmousedown="handlePan(0,-1)">
                  <use xlink:href="#rim" fill="#404040">
                        <set attributeName="fill" to="#808080" begin="arrowUp.mouseover" end="arrowUp.mouseout"/>
                  </use>
                  <path fill="none" stroke="white" stroke-width="1.5" d="M0,-3.0v7 M-2.5,-0.5L0,-3.0L2.5,-0.5"/>
                </g>
                <g id="arrowRight" xlink:href="#dirArrow" transform="rotate(90) translate(36 -43)" onmousedown="handlePan(1,0)">
                  <use xlink:href="#rim" fill="#404040">
                        <set attributeName="fill" to="#808080" begin="arrowRight.mouseover" end="arrowRight.mouseout"/>
                  </use>
                  <path fill="none" stroke="white" stroke-width="1.5" d="M0,-3.0v7 M-2.5,-0.5L0,-3.0L2.5,-0.5"/>
                </g>
                <g id="arrowDown" xlink:href="#dirArrow" transform="rotate(180) translate(-30 -48)" onmousedown="handlePan(0,1)">
                  <use xlink:href="#rim" fill="#404040">
                        <set attributeName="fill" to="#808080" begin="arrowDown.mouseover" end="arrowDown.mouseout"/>
                  </use>
                  <path fill="none" stroke="white" stroke-width="1.5" d="M0,-3.0v7 M-2.5,-0.5L0,-3.0L2.5,-0.5"/>
                </g>
                <g id="arrowLeft" xlink:href="#dirArrow" transform="rotate(270) translate(-36 17)" onmousedown="handlePan(-1,0)">
                  <use xlink:href="#rim" fill="#404040">
                        <set attributeName="fill" to="#808080" begin="arrowLeft.mouseover" end="arrowLeft.mouseout"/>
                  </use>
                  <path fill="none" stroke="white" stroke-width="1.5" d="M0,-3.0v7 M-2.5,-0.5L0,-3.0L2.5,-0.5"/>
                </g>
        </g>
        <svg viewBox="0 0 15 15" width="100%" height="30px" preserveAspectRatio="xMaxYMin meet">
         <g id="arrow_out" transform="scale(0.3 0.3)">
          <a xlink:href="structdoris_1_1vectorized_1_1_conv_int64_impl_aab25b428d1bc4ba57cebc5b24008694d_cgraph_org.svg" target="_base">
           <rect id="button" ry="5" rx="5" y="6" x="6" height="38" width="38"
                fill="#f2f5e9" fill-opacity="0.5" stroke="#606060" stroke-width="1.0"/>
           <path id="arrow"
             d="M 11.500037,31.436501 C 11.940474,20.09759 22.043105,11.32322 32.158766,21.979434 L 37.068811,17.246167 C 37.068811,17.246167 37.088388,32 37.088388,32 L 22.160133,31.978069 C 22.160133,31.978069 26.997745,27.140456 26.997745,27.140456 C 18.528582,18.264221 13.291696,25.230495 11.500037,31.436501 z"
             style="fill:#404040;"/>
          </a>
         </g>
        </svg>
</svg>
