<?xml version="1.0" encoding="UTF-8" standalone="no"?>
<!DOCTYPE svg PUBLIC "-//W3C//DTD SVG 1.1//EN"
 "http://www.w3.org/Graphics/SVG/1.1/DTD/svg11.dtd">
<!-- Generated by graphviz version 7.1.0 (20230121.1956)
 -->
<!-- Title: _add_one_column Pages: 1 -->
<svg width="733pt" height="491pt"
 viewBox="0.00 0.00 733.00 490.50" xmlns="http://www.w3.org/2000/svg" xmlns:xlink="http://www.w3.org/1999/xlink">
<g id="graph0" class="graph" transform="scale(1 1) rotate(0) translate(4 486.5)">
<title>_add_one_column</title>
<!-- Node1 -->
<g id="node1" class="node">
<title>Node1</title>
<g id="a_node1"><a xlink:title=" ">
<polygon fill="#999999" stroke="#666666" points="95,-304.5 0,-304.5 0,-285.5 95,-285.5 95,-304.5"/>
<text text-anchor="middle" x="47.5" y="-292.5" font-family="Helvetica,sans-Serif" font-size="10.00">_add_one_column</text>
</a>
</g>
</g>
<!-- Node2 -->
<g id="node2" class="node">
<title>Node2</title>
<g id="a_node2"><a xlink:href="../../dd/d4a/classdoris_1_1vectorized_1_1_column_complex_type.html#a09230e0da400bb4b65270dd9d1a19a9b" target="_top" xlink:title=" ">
<polygon fill="white" stroke="#666666" points="261,-482.5 131,-482.5 131,-441.5 261,-441.5 261,-482.5"/>
<text text-anchor="start" x="139" y="-470.5" font-family="Helvetica,sans-Serif" font-size="10.00">doris::vectorized::</text>
<text text-anchor="start" x="139" y="-459.5" font-family="Helvetica,sans-Serif" font-size="10.00">ColumnComplexType::get</text>
<text text-anchor="middle" x="196" y="-448.5" font-family="Helvetica,sans-Serif" font-size="10.00">_element</text>
</a>
</g>
</g>
<!-- Node1&#45;&gt;Node2 -->
<g id="edge1" class="edge">
<title>Node1&#45;&gt;Node2</title>
<path fill="none" stroke="#63b8ff" d="M52.12,-304.97C61.52,-329.6 88.93,-394.08 131,-432 132.05,-432.95 133.14,-433.87 134.25,-434.77"/>
<polygon fill="#63b8ff" stroke="#63b8ff" points="131.89,-437.38 142.07,-440.31 135.94,-431.67 131.89,-437.38"/>
</g>
<!-- Node3 -->
<g id="node3" class="node">
<title>Node3</title>
<g id="a_node3"><a xlink:href="../../d2/d24/structdoris_1_1vectorized_1_1_which_data_type.html#a4293e6e4ab9eedb048557be4900aa3af" target="_top" xlink:title=" ">
<polygon fill="white" stroke="#666666" points="260.5,-423 131.5,-423 131.5,-393 260.5,-393 260.5,-423"/>
<text text-anchor="start" x="139.5" y="-411" font-family="Helvetica,sans-Serif" font-size="10.00">doris::vectorized::</text>
<text text-anchor="middle" x="196" y="-400" font-family="Helvetica,sans-Serif" font-size="10.00">WhichDataType::is_string</text>
</a>
</g>
</g>
<!-- Node1&#45;&gt;Node3 -->
<g id="edge2" class="edge">
<title>Node1&#45;&gt;Node3</title>
<path fill="none" stroke="#63b8ff" d="M55.29,-304.96C68.11,-323.07 97.58,-361.58 131,-384 132.77,-385.19 134.61,-386.33 136.5,-387.43"/>
<polygon fill="#63b8ff" stroke="#63b8ff" points="134.44,-390.3 144.93,-391.8 137.67,-384.09 134.44,-390.3"/>
</g>
<!-- Node4 -->
<g id="node4" class="node">
<title>Node4</title>
<g id="a_node4"><a xlink:href="../../d3/dfe/classdoris_1_1_jsonb_to_json.html#a54c6b55e0bf144712eb6817af88409e1" target="_top" xlink:title=" ">
<polygon fill="white" stroke="#666666" points="252,-375 140,-375 140,-345 252,-345 252,-375"/>
<text text-anchor="start" x="148" y="-363" font-family="Helvetica,sans-Serif" font-size="10.00">doris::JsonbToJson</text>
<text text-anchor="middle" x="196" y="-352" font-family="Helvetica,sans-Serif" font-size="10.00">::jsonb_to_json_string</text>
</a>
</g>
</g>
<!-- Node1&#45;&gt;Node4 -->
<g id="edge3" class="edge">
<title>Node1&#45;&gt;Node4</title>
<path fill="none" stroke="#63b8ff" d="M66.92,-304.83C83.47,-313.51 108.56,-326.25 131,-336 134.37,-337.47 137.87,-338.93 141.41,-340.37"/>
<polygon fill="#63b8ff" stroke="#63b8ff" points="140.08,-343.61 150.66,-344.04 142.65,-337.1 140.08,-343.61"/>
</g>
<!-- Node9 -->
<g id="node9" class="node">
<title>Node9</title>
<g id="a_node9"><a xlink:href="../../d9/d8d/classdoris_1_1_status.html#a6ec1a217f203269ab53d2290d602db24" target="_top" xlink:title=" ">
<polygon fill="white" stroke="#666666" points="242,-326.5 150,-326.5 150,-307.5 242,-307.5 242,-326.5"/>
<text text-anchor="middle" x="196" y="-314.5" font-family="Helvetica,sans-Serif" font-size="10.00">doris::Status::OK</text>
</a>
</g>
</g>
<!-- Node1&#45;&gt;Node9 -->
<g id="edge9" class="edge">
<title>Node1&#45;&gt;Node9</title>
<path fill="none" stroke="#63b8ff" d="M95.26,-302.02C109,-304.09 124.18,-306.37 138.47,-308.51"/>
<polygon fill="#63b8ff" stroke="#63b8ff" points="137.78,-311.95 148.19,-309.97 138.82,-305.02 137.78,-311.95"/>
</g>
<!-- Node11 -->
<g id="node11" class="node">
<title>Node11</title>
<g id="a_node11"><a xlink:href="../../d3/d1e/namespacedoris_1_1vectorized.html#a174d35d751f410a19f4bfe649d3cc3a4" target="_top" xlink:title=" ">
<polygon fill="white" stroke="#666666" points="243.5,-289 148.5,-289 148.5,-259 243.5,-259 243.5,-289"/>
<text text-anchor="start" x="156.5" y="-277" font-family="Helvetica,sans-Serif" font-size="10.00">doris::vectorized::</text>
<text text-anchor="middle" x="196" y="-266" font-family="Helvetica,sans-Serif" font-size="10.00">remove_nullable</text>
</a>
</g>
</g>
<!-- Node1&#45;&gt;Node11 -->
<g id="edge11" class="edge">
<title>Node1&#45;&gt;Node11</title>
<path fill="none" stroke="#63b8ff" d="M95.26,-288.3C108.47,-286.4 123.02,-284.32 136.82,-282.34"/>
<polygon fill="#63b8ff" stroke="#63b8ff" points="137.29,-285.81 146.69,-280.93 136.29,-278.88 137.29,-285.81"/>
</g>
<!-- Node15 -->
<g id="node15" class="node">
<title>Node15</title>
<g id="a_node15"><a xlink:href="../../de/d1a/classdoris_1_1_large_int_value.html#ab6dcccb9bf36c5e9495eb615ced93f31" target="_top" xlink:title=" ">
<polygon fill="white" stroke="#666666" points="247.5,-241 144.5,-241 144.5,-211 247.5,-211 247.5,-241"/>
<text text-anchor="start" x="152.5" y="-229" font-family="Helvetica,sans-Serif" font-size="10.00">doris::LargeIntValue</text>
<text text-anchor="middle" x="196" y="-218" font-family="Helvetica,sans-Serif" font-size="10.00">::to_string</text>
</a>
</g>
</g>
<!-- Node1&#45;&gt;Node15 -->
<g id="edge15" class="edge">
<title>Node1&#45;&gt;Node15</title>
<path fill="none" stroke="#63b8ff" d="M64.9,-285.16C81.3,-275.54 107.41,-260.79 131,-250 134.14,-248.57 137.39,-247.15 140.68,-245.76"/>
<polygon fill="#63b8ff" stroke="#63b8ff" points="141.93,-249.03 149.88,-242.02 139.3,-242.54 141.93,-249.03"/>
</g>
<!-- Node16 -->
<g id="node16" class="node">
<title>Node16</title>
<g id="a_node16"><a xlink:href="../../d8/d34/classdoris_1_1vectorized_1_1_date_v2_value.html#aa617837bf77776c2adc36efa5403dbfb" target="_top" xlink:title=" ">
<polygon fill="white" stroke="#666666" points="254.5,-193 137.5,-193 137.5,-163 254.5,-163 254.5,-193"/>
<text text-anchor="start" x="145.5" y="-181" font-family="Helvetica,sans-Serif" font-size="10.00">doris::vectorized::</text>
<text text-anchor="middle" x="196" y="-170" font-family="Helvetica,sans-Serif" font-size="10.00">DateV2Value::to_string</text>
</a>
</g>
</g>
<!-- Node1&#45;&gt;Node16 -->
<g id="edge16" class="edge">
<title>Node1&#45;&gt;Node16</title>
<path fill="none" stroke="#63b8ff" d="M54.79,-285.16C67.21,-266.47 96.67,-225.59 131,-202 132.76,-200.79 134.59,-199.63 136.47,-198.52"/>
<polygon fill="#63b8ff" stroke="#63b8ff" points="137.65,-201.86 144.86,-194.1 134.39,-195.67 137.65,-201.86"/>
</g>
<!-- Node17 -->
<g id="node17" class="node">
<title>Node17</title>
<g id="a_node17"><a xlink:href="../../d1/d52/classdoris_1_1_decimal_v2_value.html#a2f8c615ad682e3bb1ceb8eb97d51fc4c" target="_top" xlink:title=" ">
<polygon fill="white" stroke="#666666" points="254,-126 138,-126 138,-96 254,-96 254,-126"/>
<text text-anchor="start" x="146" y="-114" font-family="Helvetica,sans-Serif" font-size="10.00">doris::DecimalV2Value</text>
<text text-anchor="middle" x="196" y="-103" font-family="Helvetica,sans-Serif" font-size="10.00">::to_string</text>
</a>
</g>
</g>
<!-- Node1&#45;&gt;Node17 -->
<g id="edge17" class="edge">
<title>Node1&#45;&gt;Node17</title>
<path fill="none" stroke="#63b8ff" d="M52.42,-285.13C62.52,-260.67 91.38,-196.16 131,-154 138.55,-145.96 147.87,-138.65 157.04,-132.42"/>
<polygon fill="#63b8ff" stroke="#63b8ff" points="158.68,-135.52 165.18,-127.16 154.88,-129.64 158.68,-135.52"/>
</g>
<!-- Node5 -->
<g id="node5" class="node">
<title>Node5</title>
<g id="a_node5"><a xlink:href="../../d3/dfe/classdoris_1_1_jsonb_to_json.html#a268019d7ad5af5acf02a160f3b3eedba" target="_top" xlink:title=" ">
<polygon fill="white" stroke="#666666" points="408.5,-394 307.5,-394 307.5,-364 408.5,-364 408.5,-394"/>
<text text-anchor="start" x="315.5" y="-382" font-family="Helvetica,sans-Serif" font-size="10.00">doris::JsonbToJson</text>
<text text-anchor="middle" x="358" y="-371" font-family="Helvetica,sans-Serif" font-size="10.00">::to_json_string</text>
</a>
</g>
</g>
<!-- Node4&#45;&gt;Node5 -->
<g id="edge4" class="edge">
<title>Node4&#45;&gt;Node5</title>
<path fill="none" stroke="#63b8ff" d="M252.06,-366.54C266.19,-368.22 281.46,-370.03 295.87,-371.74"/>
<polygon fill="#63b8ff" stroke="#63b8ff" points="295.35,-375.2 305.7,-372.91 296.18,-368.25 295.35,-375.2"/>
</g>
<!-- Node5&#45;&gt;Node5 -->
<g id="edge8" class="edge">
<title>Node5&#45;&gt;Node5</title>
<path fill="none" stroke="#63b8ff" d="M330.84,-394.28C324.81,-403.41 333.86,-412 358,-412 371.2,-412 379.89,-409.43 384.07,-405.61"/>
<polygon fill="#63b8ff" stroke="#63b8ff" points="387.54,-406.07 385.01,-395.78 380.57,-405.4 387.54,-406.07"/>
</g>
<!-- Node6 -->
<g id="node6" class="node">
<title>Node6</title>
<g id="a_node6"><a xlink:href="../../d5/d0f/classdoris_1_1_jsonb_document.html#a6f3d6d8641e307033b92fc8a13385afb" target="_top" xlink:title=" ">
<polygon fill="white" stroke="#666666" points="570,-394 455,-394 455,-364 570,-364 570,-394"/>
<text text-anchor="start" x="463" y="-382" font-family="Helvetica,sans-Serif" font-size="10.00">doris::JsonbDocument</text>
<text text-anchor="middle" x="512.5" y="-371" font-family="Helvetica,sans-Serif" font-size="10.00">::createDocument</text>
</a>
</g>
</g>
<!-- Node5&#45;&gt;Node6 -->
<g id="edge5" class="edge">
<title>Node5&#45;&gt;Node6</title>
<path fill="none" stroke="#63b8ff" d="M408.93,-379C419.88,-379 431.65,-379 443.17,-379"/>
<polygon fill="#63b8ff" stroke="#63b8ff" points="443.07,-382.5 453.07,-379 443.07,-375.5 443.07,-382.5"/>
</g>
<!-- Node7 -->
<g id="node7" class="node">
<title>Node7</title>
<g id="a_node7"><a xlink:href="../../de/d5d/classdoris_1_1_jsonb_value.html#a5783222a97e0bef6b23ff66a1c23e357" target="_top" xlink:title=" ">
<polygon fill="white" stroke="#666666" points="715.5,-416 615.5,-416 615.5,-386 715.5,-386 715.5,-416"/>
<text text-anchor="start" x="623.5" y="-404" font-family="Helvetica,sans-Serif" font-size="10.00">doris::JsonbValue::</text>
<text text-anchor="middle" x="665.5" y="-393" font-family="Helvetica,sans-Serif" font-size="10.00">numPackedBytes</text>
</a>
</g>
</g>
<!-- Node6&#45;&gt;Node7 -->
<g id="edge6" class="edge">
<title>Node6&#45;&gt;Node7</title>
<path fill="none" stroke="#63b8ff" d="M570.16,-387.25C581.33,-388.88 593.09,-390.6 604.37,-392.24"/>
<polygon fill="#63b8ff" stroke="#63b8ff" points="603.56,-395.66 613.96,-393.64 604.56,-388.73 603.56,-395.66"/>
</g>
<!-- Node8 -->
<g id="node8" class="node">
<title>Node8</title>
<g id="a_node8"><a xlink:href="../../de/d5d/classdoris_1_1_jsonb_value.html#a552abcd9b973a92d97588cacbe8da1e3" target="_top" xlink:title=" ">
<polygon fill="white" stroke="#666666" points="725,-367.5 606,-367.5 606,-348.5 725,-348.5 725,-367.5"/>
<text text-anchor="middle" x="665.5" y="-355.5" font-family="Helvetica,sans-Serif" font-size="10.00">doris::JsonbValue::type</text>
</a>
</g>
</g>
<!-- Node6&#45;&gt;Node8 -->
<g id="edge7" class="edge">
<title>Node6&#45;&gt;Node8</title>
<path fill="none" stroke="#63b8ff" d="M570.16,-371.12C578.01,-370.03 586.15,-368.9 594.21,-367.78"/>
<polygon fill="#63b8ff" stroke="#63b8ff" points="594.59,-371.26 604.01,-366.41 593.62,-364.32 594.59,-371.26"/>
</g>
<!-- Node10 -->
<g id="node10" class="node">
<title>Node10</title>
<g id="a_node10"><a xlink:href="../../d9/d8d/classdoris_1_1_status.html#aafde58df1b2a6a91d5b674373be3ffc5" target="_top" xlink:title=" ">
<polygon fill="white" stroke="#666666" points="411.5,-345.5 304.5,-345.5 304.5,-326.5 411.5,-326.5 411.5,-345.5"/>
<text text-anchor="middle" x="358" y="-333.5" font-family="Helvetica,sans-Serif" font-size="10.00">doris::Status::Status</text>
</a>
</g>
</g>
<!-- Node9&#45;&gt;Node10 -->
<g id="edge10" class="edge">
<title>Node9&#45;&gt;Node10</title>
<path fill="none" stroke="#63b8ff" d="M242.42,-322.39C258.19,-324.27 276.17,-326.4 293.14,-328.42"/>
<polygon fill="#63b8ff" stroke="#63b8ff" points="292.27,-331.84 302.61,-329.54 293.09,-324.89 292.27,-331.84"/>
</g>
<!-- Node12 -->
<g id="node12" class="node">
<title>Node12</title>
<g id="a_node12"><a xlink:href="../../da/d30/class_c_o_w_helper.html#aa14023f47995d24ce0ea777e90a4cb23" target="_top" xlink:title=" ">
<polygon fill="white" stroke="#666666" points="419,-308 297,-308 297,-278 419,-278 419,-308"/>
<text text-anchor="start" x="305" y="-296" font-family="Helvetica,sans-Serif" font-size="10.00">COWHelper&lt; IColumn,</text>
<text text-anchor="middle" x="358" y="-285" font-family="Helvetica,sans-Serif" font-size="10.00"> ColumnConst &gt;::create</text>
</a>
</g>
</g>
<!-- Node11&#45;&gt;Node12 -->
<g id="edge12" class="edge">
<title>Node11&#45;&gt;Node12</title>
<path fill="none" stroke="#63b8ff" d="M243.71,-279.55C256.74,-281.09 271.2,-282.81 285.31,-284.49"/>
<polygon fill="#63b8ff" stroke="#63b8ff" points="284.67,-287.94 295.02,-285.64 285.5,-280.98 284.67,-287.94"/>
</g>
<!-- Node13 -->
<g id="node13" class="node">
<title>Node13</title>
<g id="a_node13"><a xlink:href="../../d3/d1e/namespacedoris_1_1vectorized.html#a85dfa9ef8ec5a8555e00a9314d3a7f4d" target="_top" xlink:title="True if column&#39;s an ColumnConst instance. It&#39;s just a syntax sugar for type check.">
<polygon fill="white" stroke="#666666" points="405.5,-260 310.5,-260 310.5,-230 405.5,-230 405.5,-260"/>
<text text-anchor="start" x="318.5" y="-248" font-family="Helvetica,sans-Serif" font-size="10.00">doris::vectorized::</text>
<text text-anchor="middle" x="358" y="-237" font-family="Helvetica,sans-Serif" font-size="10.00">is_column_const</text>
</a>
</g>
</g>
<!-- Node11&#45;&gt;Node13 -->
<g id="edge13" class="edge">
<title>Node11&#45;&gt;Node13</title>
<path fill="none" stroke="#63b8ff" d="M243.71,-265.53C261.05,-262.39 280.93,-258.79 299.14,-255.49"/>
<polygon fill="#63b8ff" stroke="#63b8ff" points="299.53,-258.97 308.74,-253.75 298.28,-252.09 299.53,-258.97"/>
</g>
<!-- Node14 -->
<g id="node14" class="node">
<title>Node14</title>
<g id="a_node14"><a xlink:href="../../d3/d1e/namespacedoris_1_1vectorized.html#a53ba59a5e2f4e69160fec1ee139ff8df" target="_top" xlink:title="True if column&#39;s an ColumnNullable instance. It&#39;s just a syntax sugar for type check.">
<polygon fill="white" stroke="#666666" points="407.5,-212 308.5,-212 308.5,-182 407.5,-182 407.5,-212"/>
<text text-anchor="start" x="316.5" y="-200" font-family="Helvetica,sans-Serif" font-size="10.00">doris::vectorized::</text>
<text text-anchor="middle" x="358" y="-189" font-family="Helvetica,sans-Serif" font-size="10.00">is_column_nullable</text>
</a>
</g>
</g>
<!-- Node11&#45;&gt;Node14 -->
<g id="edge14" class="edge">
<title>Node11&#45;&gt;Node14</title>
<path fill="none" stroke="#63b8ff" d="M243.6,-258.54C249.59,-255.97 255.54,-253.12 261,-250 278.85,-239.82 279.27,-231.37 297,-221 299.16,-219.73 301.41,-218.51 303.7,-217.32"/>
<polygon fill="#63b8ff" stroke="#63b8ff" points="305.1,-220.53 312.6,-213.05 302.07,-214.22 305.1,-220.53"/>
</g>
<!-- Node18 -->
<g id="node18" class="node">
<title>Node18</title>
<g id="a_node18"><a xlink:href="../../d6/d94/namespacedoris.html#a3e185a7a7ef1c3bff626a322b64986fb" target="_top" xlink:title=" ">
<polygon fill="white" stroke="#666666" points="387.5,-163.5 328.5,-163.5 328.5,-144.5 387.5,-144.5 387.5,-163.5"/>
<text text-anchor="middle" x="358" y="-151.5" font-family="Helvetica,sans-Serif" font-size="10.00">doris::abs</text>
</a>
</g>
</g>
<!-- Node17&#45;&gt;Node18 -->
<g id="edge18" class="edge">
<title>Node17&#45;&gt;Node18</title>
<path fill="none" stroke="#63b8ff" d="M254.31,-126.4C275.2,-132.02 298.34,-138.24 317.36,-143.35"/>
<polygon fill="#63b8ff" stroke="#63b8ff" points="316.29,-146.68 326.86,-145.9 318.11,-139.92 316.29,-146.68"/>
</g>
<!-- Node19 -->
<g id="node19" class="node">
<title>Node19</title>
<g id="a_node19"><a xlink:href="../../d1/d52/classdoris_1_1_decimal_v2_value.html#a89b910ab631c4066a9f2ecbdfa7e0a21" target="_top" xlink:title=" ">
<polygon fill="white" stroke="#666666" points="416,-126 300,-126 300,-96 416,-96 416,-126"/>
<text text-anchor="start" x="308" y="-114" font-family="Helvetica,sans-Serif" font-size="10.00">doris::DecimalV2Value</text>
<text text-anchor="middle" x="358" y="-103" font-family="Helvetica,sans-Serif" font-size="10.00">::frac_value</text>
</a>
</g>
</g>
<!-- Node17&#45;&gt;Node19 -->
<g id="edge19" class="edge">
<title>Node17&#45;&gt;Node19</title>
<path fill="none" stroke="#63b8ff" d="M254.31,-111C265.34,-111 277,-111 288.34,-111"/>
<polygon fill="#63b8ff" stroke="#63b8ff" points="288.04,-114.5 298.04,-111 288.04,-107.5 288.04,-114.5"/>
</g>
<!-- Node20 -->
<g id="node20" class="node">
<title>Node20</title>
<g id="a_node20"><a xlink:href="../../d1/d52/classdoris_1_1_decimal_v2_value.html#af2a6aa61c1849d3228b6bc659a7b0919" target="_top" xlink:title=" ">
<polygon fill="white" stroke="#666666" points="416,-78 300,-78 300,-48 416,-48 416,-78"/>
<text text-anchor="start" x="308" y="-66" font-family="Helvetica,sans-Serif" font-size="10.00">doris::DecimalV2Value</text>
<text text-anchor="middle" x="358" y="-55" font-family="Helvetica,sans-Serif" font-size="10.00">::int_value</text>
</a>
</g>
</g>
<!-- Node17&#45;&gt;Node20 -->
<g id="edge20" class="edge">
<title>Node17&#45;&gt;Node20</title>
<path fill="none" stroke="#63b8ff" d="M248.51,-95.55C263.21,-91.14 279.39,-86.28 294.66,-81.7"/>
<polygon fill="#63b8ff" stroke="#63b8ff" points="295.57,-85.08 304.14,-78.86 293.56,-78.38 295.57,-85.08"/>
</g>
<!-- Node21 -->
<g id="node21" class="node">
<title>Node21</title>
<g id="a_node21"><a xlink:href="../../d1/d52/classdoris_1_1_decimal_v2_value.html#a2a17b66cf1f72b4d254b41617322ce61" target="_top" xlink:title=" ">
<polygon fill="white" stroke="#666666" points="416,-30 300,-30 300,0 416,0 416,-30"/>
<text text-anchor="start" x="308" y="-18" font-family="Helvetica,sans-Serif" font-size="10.00">doris::DecimalV2Value</text>
<text text-anchor="middle" x="358" y="-7" font-family="Helvetica,sans-Serif" font-size="10.00">::scale</text>
</a>
</g>
</g>
<!-- Node17&#45;&gt;Node21 -->
<g id="edge21" class="edge">
<title>Node17&#45;&gt;Node21</title>
<path fill="none" stroke="#63b8ff" d="M215.26,-95.75C234.65,-80.08 266.62,-55.68 297,-39 299.36,-37.7 301.81,-36.43 304.31,-35.21"/>
<polygon fill="#63b8ff" stroke="#63b8ff" points="305.78,-38.39 313.39,-31.01 302.84,-32.03 305.78,-38.39"/>
</g>
</g>
</svg>
