<?xml version="1.0" encoding="UTF-8" standalone="no"?>
<!DOCTYPE svg PUBLIC "-//W3C//DTD SVG 1.1//EN"
 "http://www.w3.org/Graphics/SVG/1.1/DTD/svg11.dtd">
<!-- Generated by graphviz version 7.1.0 (20230121.1956)
 -->
<!-- Title: starts_with Pages: 1 -->
<svg width="993pt" height="538pt"
 viewBox="0.00 0.00 993.00 538.00" xmlns="http://www.w3.org/2000/svg" xmlns:xlink="http://www.w3.org/1999/xlink">
<g id="graph0" class="graph" transform="scale(1 1) rotate(0) translate(4 534)">
<title>starts_with</title>
<!-- Node1 -->
<g id="node1" class="node">
<title>Node1</title>
<g id="a_node1"><a xlink:title=" ">
<polygon fill="#999999" stroke="#666666" points="985,-128.5 920,-128.5 920,-109.5 985,-109.5 985,-128.5"/>
<text text-anchor="middle" x="952.5" y="-116.5" font-family="Helvetica,sans-Serif" font-size="10.00">starts_with</text>
</a>
</g>
</g>
<!-- Node2 -->
<g id="node2" class="node">
<title>Node2</title>
<g id="a_node2"><a xlink:href="../../df/d5c/classdoris_1_1io_1_1_s3_file_system.html#a72db69b6bdcad26a71e0162c5e706037" target="_top" xlink:title=" ">
<polygon fill="white" stroke="#666666" points="884,-338 765,-338 765,-308 884,-308 884,-338"/>
<text text-anchor="start" x="773" y="-326" font-family="Helvetica,sans-Serif" font-size="10.00">doris::io::S3FileSystem</text>
<text text-anchor="middle" x="824.5" y="-315" font-family="Helvetica,sans-Serif" font-size="10.00">::get_key</text>
</a>
</g>
</g>
<!-- Node1&#45;&gt;Node2 -->
<g id="edge1" class="edge">
<title>Node1&#45;&gt;Node2</title>
<path fill="none" stroke="#63b8ff" d="M939.4,-138.59C914.39,-179.08 857.48,-271.23 834.94,-307.72"/>
<polygon fill="#63b8ff" stroke="#63b8ff" points="942.35,-140.47 944.63,-130.13 936.39,-136.8 942.35,-140.47"/>
</g>
<!-- Node11 -->
<g id="node11" class="node">
<title>Node11</title>
<g id="a_node11"><a xlink:href="../../d8/d3c/util_8h.html#a42dd1552add86d9d48893a266c511408" target="_top" xlink:title=" ">
<polygon fill="white" stroke="#666666" points="867.5,-147.5 781.5,-147.5 781.5,-128.5 867.5,-128.5 867.5,-147.5"/>
<text text-anchor="middle" x="824.5" y="-135.5" font-family="Helvetica,sans-Serif" font-size="10.00">HasPrefixString</text>
</a>
</g>
</g>
<!-- Node1&#45;&gt;Node11 -->
<g id="edge13" class="edge">
<title>Node1&#45;&gt;Node11</title>
<path fill="none" stroke="#63b8ff" d="M908.53,-125.48C895.36,-127.47 880.89,-129.65 867.76,-131.63"/>
<polygon fill="#63b8ff" stroke="#63b8ff" points="908.84,-128.97 918.21,-124.02 907.8,-122.05 908.84,-128.97"/>
</g>
<!-- Node13 -->
<g id="node13" class="node">
<title>Node13</title>
<g id="a_node13"><a xlink:href="../../db/d07/strip_8cc.html#aa928c167a7d224076b2d57b53ba4f5cb" target="_top" xlink:title=" ">
<polygon fill="white" stroke="#666666" points="868.5,-110.5 780.5,-110.5 780.5,-91.5 868.5,-91.5 868.5,-110.5"/>
<text text-anchor="middle" x="824.5" y="-98.5" font-family="Helvetica,sans-Serif" font-size="10.00">StripPrefixString</text>
</a>
</g>
</g>
<!-- Node1&#45;&gt;Node13 -->
<g id="edge15" class="edge">
<title>Node1&#45;&gt;Node13</title>
<path fill="none" stroke="#63b8ff" d="M908.36,-112.84C895.55,-111.01 881.52,-109 868.71,-107.17"/>
<polygon fill="#63b8ff" stroke="#63b8ff" points="907.81,-116.29 918.21,-114.24 908.8,-109.36 907.81,-116.29"/>
</g>
<!-- Node21 -->
<g id="node21" class="node">
<title>Node21</title>
<g id="a_node21"><a xlink:href="../../db/d07/strip_8cc.html#a11033c8e47b1a848740d59345e1a9d59" target="_top" xlink:title=" ">
<polygon fill="white" stroke="#666666" points="875.5,-73.5 773.5,-73.5 773.5,-54.5 875.5,-54.5 875.5,-73.5"/>
<text text-anchor="middle" x="824.5" y="-61.5" font-family="Helvetica,sans-Serif" font-size="10.00">TryStripPrefixString</text>
</a>
</g>
</g>
<!-- Node1&#45;&gt;Node21 -->
<g id="edge24" class="edge">
<title>Node1&#45;&gt;Node21</title>
<path fill="none" stroke="#63b8ff" d="M925,-103.47C912.76,-96.67 897.9,-88.91 884,-83 876.24,-79.7 867.69,-76.63 859.59,-73.96"/>
<polygon fill="#63b8ff" stroke="#63b8ff" points="923.24,-106.5 933.66,-108.39 926.69,-100.41 923.24,-106.5"/>
</g>
<!-- Node3 -->
<g id="node3" class="node">
<title>Node3</title>
<g id="a_node3"><a xlink:href="../../df/d5c/classdoris_1_1io_1_1_s3_file_system.html#a7a5bc7075f6847e928b18c57acc89c2b" target="_top" xlink:title=" ">
<polygon fill="white" stroke="#666666" points="725,-530 606,-530 606,-500 725,-500 725,-530"/>
<text text-anchor="start" x="614" y="-518" font-family="Helvetica,sans-Serif" font-size="10.00">doris::io::S3FileSystem</text>
<text text-anchor="middle" x="665.5" y="-507" font-family="Helvetica,sans-Serif" font-size="10.00">::batch_upload</text>
</a>
</g>
</g>
<!-- Node2&#45;&gt;Node3 -->
<g id="edge2" class="edge">
<title>Node2&#45;&gt;Node3</title>
<path fill="none" stroke="#63b8ff" d="M815.22,-349.03C802.36,-385.56 774.24,-451.91 729,-491 725.22,-494.27 720.94,-497.11 716.45,-499.59"/>
<polygon fill="#63b8ff" stroke="#63b8ff" points="818.48,-350.32 818.38,-339.73 811.85,-348.07 818.48,-350.32"/>
</g>
<!-- Node4 -->
<g id="node4" class="node">
<title>Node4</title>
<g id="a_node4"><a xlink:href="../../df/d5c/classdoris_1_1io_1_1_s3_file_system.html#a3e5d8c5e578102d7515053cccd4b93af" target="_top" xlink:title=" ">
<polygon fill="white" stroke="#666666" points="725,-482 606,-482 606,-452 725,-452 725,-482"/>
<text text-anchor="start" x="614" y="-470" font-family="Helvetica,sans-Serif" font-size="10.00">doris::io::S3FileSystem</text>
<text text-anchor="middle" x="665.5" y="-459" font-family="Helvetica,sans-Serif" font-size="10.00">::create_file</text>
</a>
</g>
</g>
<!-- Node2&#45;&gt;Node4 -->
<g id="edge3" class="edge">
<title>Node2&#45;&gt;Node4</title>
<path fill="none" stroke="#63b8ff" d="M809.28,-348.26C793.02,-375.1 764.05,-417.16 729,-443 724.6,-446.24 719.71,-449.1 714.66,-451.61"/>
<polygon fill="#63b8ff" stroke="#63b8ff" points="812.24,-350.14 814.3,-339.75 806.21,-346.58 812.24,-350.14"/>
</g>
<!-- Node5 -->
<g id="node5" class="node">
<title>Node5</title>
<g id="a_node5"><a xlink:href="../../df/d5c/classdoris_1_1io_1_1_s3_file_system.html#a81f3aed3aeb4ce811c5ebf6baac12e33" target="_top" xlink:title=" ">
<polygon fill="white" stroke="#666666" points="725,-434 606,-434 606,-404 725,-404 725,-434"/>
<text text-anchor="start" x="614" y="-422" font-family="Helvetica,sans-Serif" font-size="10.00">doris::io::S3FileSystem</text>
<text text-anchor="middle" x="665.5" y="-411" font-family="Helvetica,sans-Serif" font-size="10.00">::delete_directory</text>
</a>
</g>
</g>
<!-- Node2&#45;&gt;Node5 -->
<g id="edge4" class="edge">
<title>Node2&#45;&gt;Node5</title>
<path fill="none" stroke="#63b8ff" d="M797.85,-345.76C779.59,-361.13 753.96,-381.07 729,-395 723.42,-398.11 717.35,-401 711.26,-403.61"/>
<polygon fill="#63b8ff" stroke="#63b8ff" points="799.96,-348.55 805.29,-339.39 795.41,-343.24 799.96,-348.55"/>
</g>
<!-- Node6 -->
<g id="node6" class="node">
<title>Node6</title>
<g id="a_node6"><a xlink:href="../../df/d5c/classdoris_1_1io_1_1_s3_file_system.html#a5645284b88bae1688d89452b5d23c4c4" target="_top" xlink:title=" ">
<polygon fill="white" stroke="#666666" points="725,-386 606,-386 606,-356 725,-356 725,-386"/>
<text text-anchor="start" x="614" y="-374" font-family="Helvetica,sans-Serif" font-size="10.00">doris::io::S3FileSystem</text>
<text text-anchor="middle" x="665.5" y="-363" font-family="Helvetica,sans-Serif" font-size="10.00">::delete_file</text>
</a>
</g>
</g>
<!-- Node2&#45;&gt;Node6 -->
<g id="edge5" class="edge">
<title>Node2&#45;&gt;Node6</title>
<path fill="none" stroke="#63b8ff" d="M762.23,-341.73C747.24,-346.32 731.37,-351.17 716.95,-355.58"/>
<polygon fill="#63b8ff" stroke="#63b8ff" points="762.97,-345.17 771.51,-338.89 760.93,-338.47 762.97,-345.17"/>
</g>
<!-- Node7 -->
<g id="node7" class="node">
<title>Node7</title>
<g id="a_node7"><a xlink:href="../../df/d5c/classdoris_1_1io_1_1_s3_file_system.html#ad382022cc5337b07835a83e91852f7be" target="_top" xlink:title=" ">
<polygon fill="white" stroke="#666666" points="725,-338 606,-338 606,-308 725,-308 725,-338"/>
<text text-anchor="start" x="614" y="-326" font-family="Helvetica,sans-Serif" font-size="10.00">doris::io::S3FileSystem</text>
<text text-anchor="middle" x="665.5" y="-315" font-family="Helvetica,sans-Serif" font-size="10.00">::exists</text>
</a>
</g>
</g>
<!-- Node2&#45;&gt;Node7 -->
<g id="edge6" class="edge">
<title>Node2&#45;&gt;Node7</title>
<path fill="none" stroke="#63b8ff" d="M753.35,-323C744.04,-323 734.57,-323 725.48,-323"/>
<polygon fill="#63b8ff" stroke="#63b8ff" points="753.08,-326.5 763.08,-323 753.08,-319.5 753.08,-326.5"/>
</g>
<!-- Node8 -->
<g id="node8" class="node">
<title>Node8</title>
<g id="a_node8"><a xlink:href="../../df/d5c/classdoris_1_1io_1_1_s3_file_system.html#ae5152883a3cad0a4808571544dc989e3" target="_top" xlink:title=" ">
<polygon fill="white" stroke="#666666" points="725,-234 606,-234 606,-204 725,-204 725,-234"/>
<text text-anchor="start" x="614" y="-222" font-family="Helvetica,sans-Serif" font-size="10.00">doris::io::S3FileSystem</text>
<text text-anchor="middle" x="665.5" y="-211" font-family="Helvetica,sans-Serif" font-size="10.00">::file_size</text>
</a>
</g>
</g>
<!-- Node2&#45;&gt;Node8 -->
<g id="edge7" class="edge">
<title>Node2&#45;&gt;Node8</title>
<path fill="none" stroke="#63b8ff" d="M791.06,-301.51C760.86,-281.51 716.59,-252.18 689.76,-234.41"/>
<polygon fill="#63b8ff" stroke="#63b8ff" points="788.8,-304.21 799.07,-306.82 792.67,-298.38 788.8,-304.21"/>
</g>
<!-- Node9 -->
<g id="node9" class="node">
<title>Node9</title>
<g id="a_node9"><a xlink:href="../../df/d5c/classdoris_1_1io_1_1_s3_file_system.html#a7b46c1935bb6442ba8a3f51a3d4f9c3b" target="_top" xlink:title=" ">
<polygon fill="white" stroke="#666666" points="566,-283 447,-283 447,-253 566,-253 566,-283"/>
<text text-anchor="start" x="455" y="-271" font-family="Helvetica,sans-Serif" font-size="10.00">doris::io::S3FileSystem</text>
<text text-anchor="middle" x="506.5" y="-260" font-family="Helvetica,sans-Serif" font-size="10.00">::open_file</text>
</a>
</g>
</g>
<!-- Node2&#45;&gt;Node9 -->
<g id="edge11" class="edge">
<title>Node2&#45;&gt;Node9</title>
<path fill="none" stroke="#63b8ff" d="M755.58,-304.8C746.68,-302.7 737.64,-300.7 729,-299 674.13,-288.23 610.91,-279.77 566.09,-274.42"/>
<polygon fill="#63b8ff" stroke="#63b8ff" points="754.75,-308.2 765.29,-307.16 756.4,-301.4 754.75,-308.2"/>
</g>
<!-- Node10 -->
<g id="node10" class="node">
<title>Node10</title>
<g id="a_node10"><a xlink:href="../../df/d5c/classdoris_1_1io_1_1_s3_file_system.html#af857fc593d85e508e005500659e7eb0a" target="_top" xlink:title=" ">
<polygon fill="white" stroke="#666666" points="566,-223 447,-223 447,-193 566,-193 566,-223"/>
<text text-anchor="start" x="455" y="-211" font-family="Helvetica,sans-Serif" font-size="10.00">doris::io::S3FileSystem</text>
<text text-anchor="middle" x="506.5" y="-200" font-family="Helvetica,sans-Serif" font-size="10.00">::upload</text>
</a>
</g>
</g>
<!-- Node2&#45;&gt;Node10 -->
<g id="edge12" class="edge">
<title>Node2&#45;&gt;Node10</title>
<path fill="none" stroke="#63b8ff" d="M813.33,-297.56C799.46,-266.77 771.39,-216.39 729,-195 673.46,-166.97 599.84,-179.48 553.06,-192.53"/>
<polygon fill="#63b8ff" stroke="#63b8ff" points="810.02,-298.74 817.2,-306.53 816.45,-295.97 810.02,-298.74"/>
</g>
<!-- Node8&#45;&gt;Node8 -->
<g id="edge8" class="edge">
<title>Node8&#45;&gt;Node8</title>
<path fill="none" stroke="#63b8ff" d="M692.33,-245.61C688.03,-249.43 679.09,-252 665.5,-252 640.66,-252 631.34,-243.41 637.55,-234.28"/>
<polygon fill="#63b8ff" stroke="#63b8ff" points="695.8,-246.08 693.3,-235.78 688.83,-245.39 695.8,-246.08"/>
</g>
<!-- Node8&#45;&gt;Node9 -->
<g id="edge9" class="edge">
<title>Node8&#45;&gt;Node9</title>
<path fill="none" stroke="#63b8ff" d="M604.6,-237.69C588.92,-242.59 572.19,-247.81 557.11,-252.52"/>
<polygon fill="#63b8ff" stroke="#63b8ff" points="605.31,-241.14 613.81,-234.82 603.22,-234.46 605.31,-241.14"/>
</g>
<!-- Node8&#45;&gt;Node10 -->
<g id="edge10" class="edge">
<title>Node8&#45;&gt;Node10</title>
<path fill="none" stroke="#63b8ff" d="M594.35,-214.09C585.04,-213.43 575.57,-212.77 566.48,-212.13"/>
<polygon fill="#63b8ff" stroke="#63b8ff" points="593.86,-217.56 604.08,-214.77 594.35,-210.58 593.86,-217.56"/>
</g>
<!-- Node12 -->
<g id="node12" class="node">
<title>Node12</title>
<g id="a_node12"><a xlink:href="../../d6/d94/namespacedoris.html#ad907ef2e6ccf0f207ff05f691b827851" target="_top" xlink:title=" ">
<polygon fill="white" stroke="#666666" points="729,-147.5 602,-147.5 602,-128.5 729,-128.5 729,-147.5"/>
<text text-anchor="middle" x="665.5" y="-135.5" font-family="Helvetica,sans-Serif" font-size="10.00">doris::is_being_debugged</text>
</a>
</g>
</g>
<!-- Node11&#45;&gt;Node12 -->
<g id="edge14" class="edge">
<title>Node11&#45;&gt;Node12</title>
<path fill="none" stroke="#63b8ff" d="M769.87,-138C756.84,-138 742.79,-138 729.37,-138"/>
<polygon fill="#63b8ff" stroke="#63b8ff" points="769.5,-141.5 779.5,-138 769.5,-134.5 769.5,-141.5"/>
</g>
<!-- Node14 -->
<g id="node14" class="node">
<title>Node14</title>
<g id="a_node14"><a xlink:href="../../d0/d3f/namespacedoris_1_1path__util.html#ac1094589a77418de52f6b8b20f8f3469" target="_top" xlink:title=" ">
<polygon fill="white" stroke="#666666" points="716,-110 615,-110 615,-80 716,-80 716,-110"/>
<text text-anchor="start" x="623" y="-98" font-family="Helvetica,sans-Serif" font-size="10.00">doris::path_util::join</text>
<text text-anchor="middle" x="665.5" y="-87" font-family="Helvetica,sans-Serif" font-size="10.00">_path_segments</text>
</a>
</g>
</g>
<!-- Node13&#45;&gt;Node14 -->
<g id="edge16" class="edge">
<title>Node13&#45;&gt;Node14</title>
<path fill="none" stroke="#63b8ff" d="M768.7,-98.91C751.67,-98.26 733,-97.54 716.33,-96.9"/>
<polygon fill="#63b8ff" stroke="#63b8ff" points="768.54,-102.4 778.67,-99.29 768.81,-95.41 768.54,-102.4"/>
</g>
<!-- Node15 -->
<g id="node15" class="node">
<title>Node15</title>
<g id="a_node15"><a xlink:href="../../d5/d7e/classdoris_1_1_tablet_manager.html#a2fd2409e22ebb0c874acaf4ff6c9ad3c" target="_top" xlink:title=" ">
<polygon fill="white" stroke="#666666" points="411,-145.5 300,-145.5 300,-104.5 411,-104.5 411,-145.5"/>
<text text-anchor="start" x="308" y="-133.5" font-family="Helvetica,sans-Serif" font-size="10.00">doris::TabletManager</text>
<text text-anchor="start" x="308" y="-122.5" font-family="Helvetica,sans-Serif" font-size="10.00">::_create_tablet_meta</text>
<text text-anchor="middle" x="355.5" y="-111.5" font-family="Helvetica,sans-Serif" font-size="10.00">_and_dir_unlocked</text>
</a>
</g>
</g>
<!-- Node14&#45;&gt;Node15 -->
<g id="edge17" class="edge">
<title>Node14&#45;&gt;Node15</title>
<path fill="none" stroke="#63b8ff" d="M612.87,-113.85C597.95,-118.44 581.51,-122.69 566,-125 513.84,-132.77 453.55,-131.74 411.08,-129.38"/>
<polygon fill="#63b8ff" stroke="#63b8ff" points="613.53,-117.32 621.99,-110.94 611.4,-110.65 613.53,-117.32"/>
</g>
<!-- Node18 -->
<g id="node18" class="node">
<title>Node18</title>
<g id="a_node18"><a xlink:href="../../d6/d94/namespacedoris.html#a32f700e102a107580ac2bbcd81da670b" target="_top" xlink:title=" ">
<polygon fill="white" stroke="#666666" points="561.5,-115.5 451.5,-115.5 451.5,-96.5 561.5,-96.5 561.5,-115.5"/>
<text text-anchor="middle" x="506.5" y="-103.5" font-family="Helvetica,sans-Serif" font-size="10.00">doris::_gen_tablet_dir</text>
</a>
</g>
</g>
<!-- Node14&#45;&gt;Node18 -->
<g id="edge20" class="edge">
<title>Node14&#45;&gt;Node18</title>
<path fill="none" stroke="#63b8ff" d="M603.48,-99.28C589.72,-100.24 575.21,-101.26 561.75,-102.2"/>
<polygon fill="#63b8ff" stroke="#63b8ff" points="603.58,-102.78 613.31,-98.59 603.09,-95.79 603.58,-102.78"/>
</g>
<!-- Node19 -->
<g id="node19" class="node">
<title>Node19</title>
<g id="a_node19"><a xlink:href="../../d0/d3f/namespacedoris_1_1path__util.html#af393819def46aee4b2d012b72e832a36" target="_top" xlink:title=" ">
<polygon fill="white" stroke="#666666" points="564,-78 449,-78 449,-48 564,-48 564,-78"/>
<text text-anchor="start" x="457" y="-66" font-family="Helvetica,sans-Serif" font-size="10.00">doris::path_util::join</text>
<text text-anchor="middle" x="506.5" y="-55" font-family="Helvetica,sans-Serif" font-size="10.00">_path_desc_segments</text>
</a>
</g>
</g>
<!-- Node14&#45;&gt;Node19 -->
<g id="edge22" class="edge">
<title>Node14&#45;&gt;Node19</title>
<path fill="none" stroke="#63b8ff" d="M603.64,-82.6C590.68,-79.95 577.04,-77.17 564.24,-74.56"/>
<polygon fill="#63b8ff" stroke="#63b8ff" points="602.84,-86 613.34,-84.57 604.24,-79.15 602.84,-86"/>
</g>
<!-- Node20 -->
<g id="node20" class="node">
<title>Node20</title>
<g id="a_node20"><a xlink:href="../../d0/d3f/namespacedoris_1_1path__util.html#a0383c4617cd6cbb9a93fd2a59cdf7c3f" target="_top" xlink:title=" ">
<polygon fill="white" stroke="#666666" points="557,-30 456,-30 456,0 557,0 557,-30"/>
<text text-anchor="start" x="464" y="-18" font-family="Helvetica,sans-Serif" font-size="10.00">doris::path_util::join</text>
<text text-anchor="middle" x="506.5" y="-7" font-family="Helvetica,sans-Serif" font-size="10.00">_path_segments_v</text>
</a>
</g>
</g>
<!-- Node14&#45;&gt;Node20 -->
<g id="edge23" class="edge">
<title>Node14&#45;&gt;Node20</title>
<path fill="none" stroke="#63b8ff" d="M629.68,-73.76C611.09,-62.79 587.64,-49.54 566,-39 559.98,-36.07 553.51,-33.17 547.14,-30.46"/>
<polygon fill="#63b8ff" stroke="#63b8ff" points="627.78,-76.7 638.17,-78.81 631.37,-70.69 627.78,-76.7"/>
</g>
<!-- Node16 -->
<g id="node16" class="node">
<title>Node16</title>
<g id="a_node16"><a xlink:href="../../d5/d7e/classdoris_1_1_tablet_manager.html#af437770578d2d9dcdf67ec471b133920" target="_top" xlink:title=" ">
<polygon fill="white" stroke="#666666" points="264,-145.5 143,-145.5 143,-104.5 264,-104.5 264,-145.5"/>
<text text-anchor="start" x="151" y="-133.5" font-family="Helvetica,sans-Serif" font-size="10.00">doris::TabletManager</text>
<text text-anchor="start" x="151" y="-122.5" font-family="Helvetica,sans-Serif" font-size="10.00">::_internal_create_tablet</text>
<text text-anchor="middle" x="203.5" y="-111.5" font-family="Helvetica,sans-Serif" font-size="10.00">_unlocked</text>
</a>
</g>
</g>
<!-- Node15&#45;&gt;Node16 -->
<g id="edge18" class="edge">
<title>Node15&#45;&gt;Node16</title>
<path fill="none" stroke="#63b8ff" d="M288.64,-125C280.56,-125 272.34,-125 264.36,-125"/>
<polygon fill="#63b8ff" stroke="#63b8ff" points="288.41,-128.5 298.41,-125 288.41,-121.5 288.41,-128.5"/>
</g>
<!-- Node17 -->
<g id="node17" class="node">
<title>Node17</title>
<g id="a_node17"><a xlink:href="../../d5/d7e/classdoris_1_1_tablet_manager.html#acaef6cee5df07ed609d4c6ea89b9afaa" target="_top" xlink:title=" ">
<polygon fill="white" stroke="#666666" points="107,-140 0,-140 0,-110 107,-110 107,-140"/>
<text text-anchor="start" x="8" y="-128" font-family="Helvetica,sans-Serif" font-size="10.00">doris::TabletManager</text>
<text text-anchor="middle" x="53.5" y="-117" font-family="Helvetica,sans-Serif" font-size="10.00">::create_tablet</text>
</a>
</g>
</g>
<!-- Node16&#45;&gt;Node17 -->
<g id="edge19" class="edge">
<title>Node16&#45;&gt;Node17</title>
<path fill="none" stroke="#63b8ff" d="M131.36,-125C123.27,-125 115.14,-125 107.34,-125"/>
<polygon fill="#63b8ff" stroke="#63b8ff" points="131.22,-128.5 141.22,-125 131.22,-121.5 131.22,-128.5"/>
</g>
<!-- Node18&#45;&gt;Node15 -->
<g id="edge21" class="edge">
<title>Node18&#45;&gt;Node15</title>
<path fill="none" stroke="#63b8ff" d="M440.16,-114.33C430.57,-115.55 420.78,-116.8 411.42,-118"/>
<polygon fill="#63b8ff" stroke="#63b8ff" points="440.31,-117.84 449.78,-113.1 439.42,-110.9 440.31,-117.84"/>
</g>
</g>
</svg>
