<?xml version="1.0" encoding="UTF-8" standalone="no"?>
<!DOCTYPE svg PUBLIC "-//W3C//DTD SVG 1.1//EN"
 "http://www.w3.org/Graphics/SVG/1.1/DTD/svg11.dtd">
<!-- Generated by graphviz version 7.1.0 (20230121.1956)
 -->
<!-- Title: end Pages: 1 -->
<svg width="555pt" height="167pt"
 viewBox="0.00 0.00 555.00 166.50" xmlns="http://www.w3.org/2000/svg" xmlns:xlink="http://www.w3.org/1999/xlink">
<g id="graph0" class="graph" transform="scale(1 1) rotate(0) translate(4 162.5)">
<title>end</title>
<!-- Node1 -->
<g id="node1" class="node">
<title>Node1</title>
<g id="a_node1"><a xlink:title=" ">
<polygon fill="#999999" stroke="#666666" points="547,-72.5 515,-72.5 515,-53.5 547,-53.5 547,-72.5"/>
<text text-anchor="middle" x="531" y="-60.5" font-family="Helvetica,sans-Serif" font-size="10.00">end</text>
</a>
</g>
</g>
<!-- Node2 -->
<g id="node2" class="node">
<title>Node2</title>
<g id="a_node2"><a xlink:href="../../df/dcb/namespacestrings.html#a18de720780c5fda28ec3e8116406a5af" target="_top" xlink:title=" ">
<polygon fill="white" stroke="#666666" points="479,-115.5 343,-115.5 343,-96.5 479,-96.5 479,-115.5"/>
<text text-anchor="middle" x="411" y="-103.5" font-family="Helvetica,sans-Serif" font-size="10.00">strings::CUnescapeInternal</text>
</a>
</g>
</g>
<!-- Node1&#45;&gt;Node2 -->
<g id="edge1" class="edge">
<title>Node1&#45;&gt;Node2</title>
<path fill="none" stroke="#63b8ff" d="M504.44,-76.03C496.41,-79.85 487.44,-83.84 479,-87 470.17,-90.31 460.5,-93.36 451.32,-96.01"/>
<polygon fill="#63b8ff" stroke="#63b8ff" points="505.86,-79.23 513.3,-71.69 502.78,-72.94 505.86,-79.23"/>
</g>
<!-- Node8 -->
<g id="node8" class="node">
<title>Node8</title>
<g id="a_node8"><a xlink:href="../../dd/d68/classstrings_1_1delimiter_1_1_limit_impl.html#a5941e73a3788e55bf89198f57dffb10d" target="_top" xlink:title=" ">
<polygon fill="white" stroke="#666666" points="455.5,-78 366.5,-78 366.5,-48 455.5,-48 455.5,-78"/>
<text text-anchor="start" x="374.5" y="-66" font-family="Helvetica,sans-Serif" font-size="10.00">strings::delimiter</text>
<text text-anchor="middle" x="411" y="-55" font-family="Helvetica,sans-Serif" font-size="10.00">::LimitImpl::Find</text>
</a>
</g>
</g>
<!-- Node1&#45;&gt;Node8 -->
<g id="edge7" class="edge">
<title>Node1&#45;&gt;Node8</title>
<path fill="none" stroke="#63b8ff" d="M503.31,-63C489.32,-63 471.83,-63 455.91,-63"/>
<polygon fill="#63b8ff" stroke="#63b8ff" points="503.06,-66.5 513.06,-63 503.06,-59.5 503.06,-66.5"/>
</g>
<!-- Node9 -->
<g id="node9" class="node">
<title>Node9</title>
<g id="a_node9"><a xlink:href="../../db/d4a/classstrings_1_1internal_1_1_split_iterator.html#afef940d5d6b52dbbb1321c23ae786df6" target="_top" xlink:title=" ">
<polygon fill="white" stroke="#666666" points="471,-30 351,-30 351,0 471,0 471,-30"/>
<text text-anchor="start" x="359" y="-18" font-family="Helvetica,sans-Serif" font-size="10.00">strings::internal::</text>
<text text-anchor="middle" x="411" y="-7" font-family="Helvetica,sans-Serif" font-size="10.00">SplitIterator::operator++</text>
</a>
</g>
</g>
<!-- Node1&#45;&gt;Node9 -->
<g id="edge8" class="edge">
<title>Node1&#45;&gt;Node9</title>
<path fill="none" stroke="#63b8ff" d="M504.3,-50.32C496.27,-46.52 487.33,-42.44 479,-39 471.92,-36.07 464.34,-33.16 456.92,-30.42"/>
<polygon fill="#63b8ff" stroke="#63b8ff" points="502.66,-53.41 513.18,-54.6 505.69,-47.11 502.66,-53.41"/>
</g>
<!-- Node3 -->
<g id="node3" class="node">
<title>Node3</title>
<g id="a_node3"><a xlink:href="../../df/dcb/namespacestrings.html#a2394a8880abfe9af166a2e2f14afbe09" target="_top" xlink:title=" ">
<polygon fill="white" stroke="#666666" points="291,-158.5 187,-158.5 187,-139.5 291,-139.5 291,-158.5"/>
<text text-anchor="middle" x="239" y="-146.5" font-family="Helvetica,sans-Serif" font-size="10.00">strings::CUnescape</text>
</a>
</g>
</g>
<!-- Node2&#45;&gt;Node3 -->
<g id="edge2" class="edge">
<title>Node2&#45;&gt;Node3</title>
<path fill="none" stroke="#63b8ff" d="M359.58,-118.75C333.99,-125.23 303.36,-132.97 279.51,-139.01"/>
<polygon fill="#63b8ff" stroke="#63b8ff" points="360.27,-122.19 369.1,-116.34 358.55,-115.4 360.27,-122.19"/>
</g>
<!-- Node5 -->
<g id="node5" class="node">
<title>Node5</title>
<g id="a_node5"><a xlink:href="../../df/dcb/namespacestrings.html#a179c3a6899ceac7b71f6e490cfe1b489" target="_top" xlink:title=" ">
<polygon fill="white" stroke="#666666" points="306.5,-121 171.5,-121 171.5,-91 306.5,-91 306.5,-121"/>
<text text-anchor="start" x="179.5" y="-109" font-family="Helvetica,sans-Serif" font-size="10.00">strings::CUnescapeForNull</text>
<text text-anchor="middle" x="239" y="-98" font-family="Helvetica,sans-Serif" font-size="10.00">TerminatedString</text>
</a>
</g>
</g>
<!-- Node2&#45;&gt;Node5 -->
<g id="edge4" class="edge">
<title>Node2&#45;&gt;Node5</title>
<path fill="none" stroke="#63b8ff" d="M331.37,-106C323.22,-106 314.99,-106 306.98,-106"/>
<polygon fill="#63b8ff" stroke="#63b8ff" points="331.3,-109.5 341.3,-106 331.3,-102.5 331.3,-109.5"/>
</g>
<!-- Node7 -->
<g id="node7" class="node">
<title>Node7</title>
<g id="a_node7"><a xlink:href="../../df/dcb/namespacestrings.html#abe8932a940ed92ee27e35cf4a766e10f" target="_top" xlink:title=" ">
<polygon fill="white" stroke="#666666" points="307,-72.5 171,-72.5 171,-53.5 307,-53.5 307,-72.5"/>
<text text-anchor="middle" x="239" y="-60.5" font-family="Helvetica,sans-Serif" font-size="10.00">strings::CUnescapeInternal</text>
</a>
</g>
</g>
<!-- Node2&#45;&gt;Node7 -->
<g id="edge6" class="edge">
<title>Node2&#45;&gt;Node7</title>
<path fill="none" stroke="#63b8ff" d="M359.58,-93.25C333.99,-86.77 303.36,-79.03 279.51,-72.99"/>
<polygon fill="#63b8ff" stroke="#63b8ff" points="358.55,-96.6 369.1,-95.66 360.27,-89.81 358.55,-96.6"/>
</g>
<!-- Node4 -->
<g id="node4" class="node">
<title>Node4</title>
<g id="a_node4"><a xlink:href="../../df/dcb/namespacestrings.html#aec6e4266b185f5da95dfad33d2262c8f" target="_top" xlink:title=" ">
<polygon fill="white" stroke="#666666" points="119.5,-158.5 15.5,-158.5 15.5,-139.5 119.5,-139.5 119.5,-158.5"/>
<text text-anchor="middle" x="67.5" y="-146.5" font-family="Helvetica,sans-Serif" font-size="10.00">strings::CUnescape</text>
</a>
</g>
</g>
<!-- Node3&#45;&gt;Node4 -->
<g id="edge3" class="edge">
<title>Node3&#45;&gt;Node4</title>
<path fill="none" stroke="#63b8ff" d="M175.26,-149C157.05,-149 137.37,-149 119.93,-149"/>
<polygon fill="#63b8ff" stroke="#63b8ff" points="175.17,-152.5 185.17,-149 175.17,-145.5 175.17,-152.5"/>
</g>
<!-- Node6 -->
<g id="node6" class="node">
<title>Node6</title>
<g id="a_node6"><a xlink:href="../../df/dcb/namespacestrings.html#a8bf2723de3643dccc7c2ee87ed5bb176" target="_top" xlink:title=" ">
<polygon fill="white" stroke="#666666" points="135,-121 0,-121 0,-91 135,-91 135,-121"/>
<text text-anchor="start" x="8" y="-109" font-family="Helvetica,sans-Serif" font-size="10.00">strings::CUnescapeForNull</text>
<text text-anchor="middle" x="67.5" y="-98" font-family="Helvetica,sans-Serif" font-size="10.00">TerminatedString</text>
</a>
</g>
</g>
<!-- Node5&#45;&gt;Node6 -->
<g id="edge5" class="edge">
<title>Node5&#45;&gt;Node6</title>
<path fill="none" stroke="#63b8ff" d="M159.6,-106C151.47,-106 143.27,-106 135.28,-106"/>
<polygon fill="#63b8ff" stroke="#63b8ff" points="159.5,-109.5 169.5,-106 159.5,-102.5 159.5,-109.5"/>
</g>
</g>
</svg>
