<?xml version="1.0" encoding="UTF-8" standalone="no"?>
<!DOCTYPE svg PUBLIC "-//W3C//DTD SVG 1.1//EN"
 "http://www.w3.org/Graphics/SVG/1.1/DTD/svg11.dtd">
<!-- Generated by graphviz version 7.1.0 (20230121.1956)
 -->
<!-- Title: parse_column_index Pages: 1 -->
<svg width="541pt" height="76pt"
 viewBox="0.00 0.00 541.00 75.50" xmlns="http://www.w3.org/2000/svg" xmlns:xlink="http://www.w3.org/1999/xlink">
<g id="graph0" class="graph" transform="scale(1 1) rotate(0) translate(4 71.5)">
<title>parse_column_index</title>
<!-- Node1 -->
<g id="node1" class="node">
<title>Node1</title>
<g id="a_node1"><a xlink:title=" ">
<polygon fill="#999999" stroke="#666666" points="106,-40 0,-40 0,-21 106,-21 106,-40"/>
<text text-anchor="middle" x="53" y="-28" font-family="Helvetica,sans-Serif" font-size="10.00">parse_column_index</text>
</a>
</g>
</g>
<!-- Node2 -->
<g id="node2" class="node">
<title>Node2</title>
<g id="a_node2"><a xlink:href="../../d6/d94/namespacedoris.html#a18be6f872c1833ef2e5ce8674e50ead3" target="_top" xlink:title=" ">
<polygon fill="white" stroke="#666666" points="232,-67.5 142,-67.5 142,-37.5 232,-37.5 232,-67.5"/>
<text text-anchor="start" x="150" y="-55.5" font-family="Helvetica,sans-Serif" font-size="10.00">doris::deserialize</text>
<text text-anchor="middle" x="187" y="-44.5" font-family="Helvetica,sans-Serif" font-size="10.00">_thrift_msg</text>
</a>
</g>
</g>
<!-- Node1&#45;&gt;Node2 -->
<g id="edge1" class="edge">
<title>Node1&#45;&gt;Node2</title>
<path fill="none" stroke="#63b8ff" d="M106.17,-39.19C114.2,-40.53 122.52,-41.92 130.62,-43.27"/>
<polygon fill="#63b8ff" stroke="#63b8ff" points="129.94,-46.71 140.38,-44.9 131.09,-39.8 129.94,-46.71"/>
</g>
<!-- Node4 -->
<g id="node4" class="node">
<title>Node4</title>
<g id="a_node4"><a xlink:href="../../d9/d8d/classdoris_1_1_status.html#a6ec1a217f203269ab53d2290d602db24" target="_top" xlink:title=" ">
<polygon fill="white" stroke="#666666" points="375,-19 283,-19 283,0 375,0 375,-19"/>
<text text-anchor="middle" x="329" y="-7" font-family="Helvetica,sans-Serif" font-size="10.00">doris::Status::OK</text>
</a>
</g>
</g>
<!-- Node1&#45;&gt;Node4 -->
<g id="edge5" class="edge">
<title>Node1&#45;&gt;Node4</title>
<path fill="none" stroke="#63b8ff" d="M106.18,-26.5C153.47,-22.88 223,-17.55 271.57,-13.83"/>
<polygon fill="#63b8ff" stroke="#63b8ff" points="271.61,-17.33 281.31,-13.08 271.08,-10.35 271.61,-17.33"/>
</g>
<!-- Node3 -->
<g id="node3" class="node">
<title>Node3</title>
<g id="a_node3"><a xlink:href="../../d6/d94/namespacedoris.html#aa600fc623de24f873a91489a2831db37" target="_top" xlink:title=" ">
<polygon fill="white" stroke="#666666" points="390,-67.5 268,-67.5 268,-37.5 390,-37.5 390,-67.5"/>
<text text-anchor="start" x="276" y="-55.5" font-family="Helvetica,sans-Serif" font-size="10.00">doris::create_deserialize</text>
<text text-anchor="middle" x="329" y="-44.5" font-family="Helvetica,sans-Serif" font-size="10.00">_protocol</text>
</a>
</g>
</g>
<!-- Node2&#45;&gt;Node3 -->
<g id="edge2" class="edge">
<title>Node2&#45;&gt;Node3</title>
<path fill="none" stroke="#63b8ff" d="M232.3,-52.5C239.92,-52.5 248.01,-52.5 256.14,-52.5"/>
<polygon fill="#63b8ff" stroke="#63b8ff" points="256.1,-56 266.1,-52.5 256.1,-49 256.1,-56"/>
</g>
<!-- Node2&#45;&gt;Node4 -->
<g id="edge3" class="edge">
<title>Node2&#45;&gt;Node4</title>
<path fill="none" stroke="#63b8ff" d="M232.3,-38.89C249.12,-33.73 268.24,-27.85 284.95,-22.72"/>
<polygon fill="#63b8ff" stroke="#63b8ff" points="285.55,-26.2 294.08,-19.92 283.5,-19.51 285.55,-26.2"/>
</g>
<!-- Node5 -->
<g id="node5" class="node">
<title>Node5</title>
<g id="a_node5"><a xlink:href="../../d9/d8d/classdoris_1_1_status.html#aafde58df1b2a6a91d5b674373be3ffc5" target="_top" xlink:title=" ">
<polygon fill="white" stroke="#666666" points="533,-19 426,-19 426,0 533,0 533,-19"/>
<text text-anchor="middle" x="479.5" y="-7" font-family="Helvetica,sans-Serif" font-size="10.00">doris::Status::Status</text>
</a>
</g>
</g>
<!-- Node4&#45;&gt;Node5 -->
<g id="edge4" class="edge">
<title>Node4&#45;&gt;Node5</title>
<path fill="none" stroke="#63b8ff" d="M375.36,-9.5C387.63,-9.5 401.15,-9.5 414.24,-9.5"/>
<polygon fill="#63b8ff" stroke="#63b8ff" points="414.09,-13 424.09,-9.5 414.09,-6 414.09,-13"/>
</g>
</g>
</svg>
