<?xml version="1.0" encoding="UTF-8" standalone="no"?>
<!DOCTYPE svg PUBLIC "-//W3C//DTD SVG 1.1//EN"
 "http://www.w3.org/Graphics/SVG/1.1/DTD/svg11.dtd">
<!-- Generated by graphviz version 7.1.0 (20230121.1956)
 -->
<!-- Title: collect_skipped_page_range Pages: 1 -->
<svg width="1260pt" height="49pt"
 viewBox="0.00 0.00 1260.00 49.00" xmlns="http://www.w3.org/2000/svg" xmlns:xlink="http://www.w3.org/1999/xlink">
<g id="graph0" class="graph" transform="scale(1 1) rotate(0) translate(4 45)">
<title>collect_skipped_page_range</title>
<!-- Node1 -->
<g id="node1" class="node">
<title>Node1</title>
<g id="a_node1"><a xlink:title=" ">
<polygon fill="#999999" stroke="#666666" points="1252,-35.5 1142,-35.5 1142,-5.5 1252,-5.5 1252,-35.5"/>
<text text-anchor="start" x="1150" y="-23.5" font-family="Helvetica,sans-Serif" font-size="10.00">collect_skipped_page</text>
<text text-anchor="middle" x="1197" y="-12.5" font-family="Helvetica,sans-Serif" font-size="10.00">_range</text>
</a>
</g>
</g>
<!-- Node2 -->
<g id="node2" class="node">
<title>Node2</title>
<g id="a_node2"><a xlink:href="../../d9/dbc/classdoris_1_1vectorized_1_1_parquet_reader.html#ab33192756ba30d22031e999c6d4f2e1e" target="_top" xlink:title=" ">
<polygon fill="white" stroke="#666666" points="1106,-41 978,-41 978,0 1106,0 1106,-41"/>
<text text-anchor="start" x="986" y="-29" font-family="Helvetica,sans-Serif" font-size="10.00">doris::vectorized::</text>
<text text-anchor="start" x="986" y="-18" font-family="Helvetica,sans-Serif" font-size="10.00">ParquetReader::_process</text>
<text text-anchor="middle" x="1042" y="-7" font-family="Helvetica,sans-Serif" font-size="10.00">_page_index</text>
</a>
</g>
</g>
<!-- Node1&#45;&gt;Node2 -->
<g id="edge1" class="edge">
<title>Node1&#45;&gt;Node2</title>
<path fill="none" stroke="#63b8ff" d="M1130.19,-20.5C1122.28,-20.5 1114.21,-20.5 1106.34,-20.5"/>
<polygon fill="#63b8ff" stroke="#63b8ff" points="1130.11,-24 1140.11,-20.5 1130.11,-17 1130.11,-24"/>
</g>
<!-- Node3 -->
<g id="node3" class="node">
<title>Node3</title>
<g id="a_node3"><a xlink:href="../../d9/dbc/classdoris_1_1vectorized_1_1_parquet_reader.html#ad8c452348d5ce523d4baca3c0b26fed9" target="_top" xlink:title=" ">
<polygon fill="white" stroke="#666666" points="942,-41 830,-41 830,0 942,0 942,-41"/>
<text text-anchor="start" x="838" y="-29" font-family="Helvetica,sans-Serif" font-size="10.00">doris::vectorized::</text>
<text text-anchor="start" x="838" y="-18" font-family="Helvetica,sans-Serif" font-size="10.00">ParquetReader::_next</text>
<text text-anchor="middle" x="886" y="-7" font-family="Helvetica,sans-Serif" font-size="10.00">_row_group_reader</text>
</a>
</g>
</g>
<!-- Node2&#45;&gt;Node3 -->
<g id="edge2" class="edge">
<title>Node2&#45;&gt;Node3</title>
<path fill="none" stroke="#63b8ff" d="M966.48,-20.5C958.35,-20.5 950.18,-20.5 942.34,-20.5"/>
<polygon fill="#63b8ff" stroke="#63b8ff" points="966.4,-24 976.4,-20.5 966.4,-17 966.4,-24"/>
</g>
<!-- Node4 -->
<g id="node4" class="node">
<title>Node4</title>
<g id="a_node4"><a xlink:href="../../d9/dbc/classdoris_1_1vectorized_1_1_parquet_reader.html#af165bb4c8e53de264286bd80974083a4" target="_top" xlink:title=" ">
<polygon fill="white" stroke="#666666" points="794,-35.5 640,-35.5 640,-5.5 794,-5.5 794,-35.5"/>
<text text-anchor="start" x="648" y="-23.5" font-family="Helvetica,sans-Serif" font-size="10.00">doris::vectorized::</text>
<text text-anchor="middle" x="717" y="-12.5" font-family="Helvetica,sans-Serif" font-size="10.00">ParquetReader::get_next_block</text>
</a>
</g>
</g>
<!-- Node3&#45;&gt;Node4 -->
<g id="edge3" class="edge">
<title>Node3&#45;&gt;Node4</title>
<path fill="none" stroke="#63b8ff" d="M818.41,-20.5C810.47,-20.5 802.32,-20.5 794.25,-20.5"/>
<polygon fill="#63b8ff" stroke="#63b8ff" points="818.34,-24 828.34,-20.5 818.34,-17 818.34,-24"/>
</g>
<!-- Node5 -->
<g id="node5" class="node">
<title>Node5</title>
<g id="a_node5"><a xlink:href="../../d8/d31/classdoris_1_1vectorized_1_1_iceberg_table_reader.html#a941f875bf576c971aa18d7b5e99f3f14" target="_top" xlink:title=" ">
<polygon fill="white" stroke="#666666" points="604,-41 494,-41 494,0 604,0 604,-41"/>
<text text-anchor="start" x="502" y="-29" font-family="Helvetica,sans-Serif" font-size="10.00">doris::vectorized::</text>
<text text-anchor="start" x="502" y="-18" font-family="Helvetica,sans-Serif" font-size="10.00">IcebergTableReader::</text>
<text text-anchor="middle" x="549" y="-7" font-family="Helvetica,sans-Serif" font-size="10.00">_position_delete</text>
</a>
</g>
</g>
<!-- Node4&#45;&gt;Node5 -->
<g id="edge4" class="edge">
<title>Node4&#45;&gt;Node5</title>
<path fill="none" stroke="#63b8ff" d="M628.31,-20.5C620.19,-20.5 612.12,-20.5 604.43,-20.5"/>
<polygon fill="#63b8ff" stroke="#63b8ff" points="628.29,-24 638.29,-20.5 628.29,-17 628.29,-24"/>
</g>
<!-- Node6 -->
<g id="node6" class="node">
<title>Node6</title>
<g id="a_node6"><a xlink:href="../../d8/d31/classdoris_1_1vectorized_1_1_iceberg_table_reader.html#a21c3b95d2ae9cc928ea5af7abca15b5c" target="_top" xlink:title=" ">
<polygon fill="white" stroke="#666666" points="458,-41 348,-41 348,0 458,0 458,-41"/>
<text text-anchor="start" x="356" y="-29" font-family="Helvetica,sans-Serif" font-size="10.00">doris::vectorized::</text>
<text text-anchor="start" x="356" y="-18" font-family="Helvetica,sans-Serif" font-size="10.00">IcebergTableReader::</text>
<text text-anchor="middle" x="403" y="-7" font-family="Helvetica,sans-Serif" font-size="10.00">init_row_filters</text>
</a>
</g>
</g>
<!-- Node5&#45;&gt;Node6 -->
<g id="edge5" class="edge">
<title>Node5&#45;&gt;Node6</title>
<path fill="none" stroke="#63b8ff" d="M482.23,-20.5C474.13,-20.5 465.93,-20.5 458.04,-20.5"/>
<polygon fill="#63b8ff" stroke="#63b8ff" points="482.05,-24 492.05,-20.5 482.05,-17 482.05,-24"/>
</g>
<!-- Node7 -->
<g id="node7" class="node">
<title>Node7</title>
<g id="a_node7"><a xlink:href="../../db/dc6/classdoris_1_1vectorized_1_1_v_file_scanner.html#a09a15c6f9ac825028e713e8f2c33aeb4" target="_top" xlink:title=" ">
<polygon fill="white" stroke="#666666" points="312,-41 188,-41 188,0 312,0 312,-41"/>
<text text-anchor="start" x="196" y="-29" font-family="Helvetica,sans-Serif" font-size="10.00">doris::vectorized::</text>
<text text-anchor="start" x="196" y="-18" font-family="Helvetica,sans-Serif" font-size="10.00">VFileScanner::_get_next</text>
<text text-anchor="middle" x="250" y="-7" font-family="Helvetica,sans-Serif" font-size="10.00">_reader</text>
</a>
</g>
</g>
<!-- Node6&#45;&gt;Node7 -->
<g id="edge6" class="edge">
<title>Node6&#45;&gt;Node7</title>
<path fill="none" stroke="#63b8ff" d="M336.67,-20.5C328.62,-20.5 320.4,-20.5 312.41,-20.5"/>
<polygon fill="#63b8ff" stroke="#63b8ff" points="336.4,-24 346.4,-20.5 336.4,-17 336.4,-24"/>
</g>
<!-- Node8 -->
<g id="node8" class="node">
<title>Node8</title>
<g id="a_node8"><a xlink:href="../../db/dc6/classdoris_1_1vectorized_1_1_v_file_scanner.html#a20a1a7a021ac29e1f43fe0f6d1773460" target="_top" xlink:title=" ">
<polygon fill="white" stroke="#666666" points="152,-35.5 0,-35.5 0,-5.5 152,-5.5 152,-35.5"/>
<text text-anchor="start" x="8" y="-23.5" font-family="Helvetica,sans-Serif" font-size="10.00">doris::vectorized::</text>
<text text-anchor="middle" x="76" y="-12.5" font-family="Helvetica,sans-Serif" font-size="10.00">VFileScanner::_get_block_impl</text>
</a>
</g>
</g>
<!-- Node7&#45;&gt;Node8 -->
<g id="edge7" class="edge">
<title>Node7&#45;&gt;Node8</title>
<path fill="none" stroke="#63b8ff" d="M176.39,-20.5C168.45,-20.5 160.35,-20.5 152.38,-20.5"/>
<polygon fill="#63b8ff" stroke="#63b8ff" points="176.36,-24 186.36,-20.5 176.36,-17 176.36,-24"/>
</g>
</g>
</svg>
