<?xml version="1.0" encoding="UTF-8" standalone="no"?>
<!DOCTYPE svg PUBLIC "-//W3C//DTD SVG 1.1//EN"
 "http://www.w3.org/Graphics/SVG/1.1/DTD/svg11.dtd">
<!-- Generated by graphviz version 7.1.0 (20230121.1956)
 -->
<!-- Title: gscoped_ptr&lt; T[], D &gt; Pages: 1 -->
<svg width="244pt" height="303pt"
 viewBox="0.00 0.00 243.50 303.00" xmlns="http://www.w3.org/2000/svg" xmlns:xlink="http://www.w3.org/1999/xlink">
<g id="graph0" class="graph" transform="scale(1 1) rotate(0) translate(4 299)">
<title>gscoped_ptr&lt; T[], D &gt;</title>
<!-- Node1 -->
<g id="node1" class="node">
<title>Node1</title>
<g id="a_node1"><a xlink:title=" ">
<polygon fill="#999999" stroke="#666666" points="125,-19 12,-19 12,0 125,0 125,-19"/>
<text text-anchor="middle" x="68.5" y="-7" font-family="Helvetica,sans-Serif" font-size="10.00">gscoped_ptr&lt; T[], D &gt;</text>
</a>
</g>
</g>
<!-- Node2 -->
<g id="node2" class="node">
<title>Node2</title>
<g id="a_node2"><a xlink:href="../../da/dc3/classdoris_1_1internal_1_1gscoped__ptr__impl.html" target="_top" xlink:title=" ">
<polygon fill="white" stroke="#666666" points="137,-96 0,-96 0,-66 137,-66 137,-96"/>
<text text-anchor="start" x="8" y="-84" font-family="Helvetica,sans-Serif" font-size="10.00">gscoped_ptr_impl&lt; element</text>
<text text-anchor="middle" x="68.5" y="-73" font-family="Helvetica,sans-Serif" font-size="10.00">_type, deleter_type &gt;</text>
</a>
</g>
</g>
<!-- Node2&#45;&gt;Node1 -->
<g id="edge1" class="edge">
<title>Node2&#45;&gt;Node1</title>
<path fill="none" stroke="#9a32cd" stroke-dasharray="5,2" d="M68.5,-54.46C68.5,-42.07 68.5,-27.99 68.5,-19.18"/>
<polygon fill="#9a32cd" stroke="#9a32cd" points="65,-54.09 68.5,-64.09 72,-54.09 65,-54.09"/>
<text text-anchor="middle" x="82" y="-40" font-family="Helvetica,sans-Serif" font-size="10.00"> impl_</text>
</g>
<!-- Node3 -->
<g id="node3" class="node">
<title>Node3</title>
<g id="a_node3"><a xlink:href="../../db/d13/structdoris_1_1internal_1_1gscoped__ptr__impl_1_1_data.html" target="_top" xlink:title=" ">
<polygon fill="white" stroke="#666666" points="87.5,-239 49.5,-239 49.5,-220 87.5,-220 87.5,-239"/>
<text text-anchor="middle" x="68.5" y="-227" font-family="Helvetica,sans-Serif" font-size="10.00">Data</text>
</a>
</g>
</g>
<!-- Node3&#45;&gt;Node2 -->
<g id="edge2" class="edge">
<title>Node3&#45;&gt;Node2</title>
<path fill="none" stroke="#9a32cd" stroke-dasharray="5,2" d="M65.37,-208.59C63.87,-198.04 62.24,-184.85 61.5,-173 59.8,-145.96 63.5,-114.44 66.14,-96.49"/>
<polygon fill="#9a32cd" stroke="#9a32cd" points="61.9,-209.01 66.85,-218.38 68.82,-207.97 61.9,-209.01"/>
<text text-anchor="middle" x="75.5" y="-161" font-family="Helvetica,sans-Serif" font-size="10.00"> data_</text>
</g>
<!-- Node5 -->
<g id="node5" class="node">
<title>Node5</title>
<g id="a_node5"><a xlink:href="../../da/dc3/classdoris_1_1internal_1_1gscoped__ptr__impl.html" target="_top" xlink:title=" ">
<polygon fill="white" stroke="#666666" points="228,-173 99,-173 99,-154 228,-154 228,-173"/>
<text text-anchor="middle" x="163.5" y="-161" font-family="Helvetica,sans-Serif" font-size="10.00">gscoped_ptr_impl&lt; T, D &gt;</text>
</a>
</g>
</g>
<!-- Node3&#45;&gt;Node5 -->
<g id="edge5" class="edge">
<title>Node3&#45;&gt;Node5</title>
<path fill="none" stroke="#9a32cd" stroke-dasharray="5,2" d="M91.16,-213.24C109.65,-200.78 135.14,-183.61 150.4,-173.32"/>
<polygon fill="#9a32cd" stroke="#9a32cd" points="89.3,-210.27 82.96,-218.76 93.21,-216.07 89.3,-210.27"/>
<text text-anchor="middle" x="135.5" y="-194" font-family="Helvetica,sans-Serif" font-size="10.00"> data_</text>
</g>
<!-- Node4 -->
<g id="node4" class="node">
<title>Node4</title>
<g id="a_node4"><a xlink:title=" ">
<polygon fill="white" stroke="#666666" points="83,-295 54,-295 54,-276 83,-276 83,-295"/>
<text text-anchor="middle" x="68.5" y="-283" font-family="Helvetica,sans-Serif" font-size="10.00">D</text>
</a>
</g>
</g>
<!-- Node4&#45;&gt;Node3 -->
<g id="edge3" class="edge">
<title>Node4&#45;&gt;Node3</title>
<path fill="none" stroke="#63b8ff" d="M68.5,-264.11C68.5,-255.52 68.5,-245.97 68.5,-239.25"/>
<polygon fill="#63b8ff" stroke="#63b8ff" points="65,-264.07 68.5,-274.07 72,-264.07 65,-264.07"/>
</g>
<!-- Node5&#45;&gt;Node2 -->
<g id="edge4" class="edge">
<title>Node5&#45;&gt;Node2</title>
<path fill="none" stroke="orange" stroke-dasharray="5,2" d="M144.3,-146.23C127.07,-131.63 102,-110.39 85.48,-96.39"/>
<polygon fill="orange" stroke="orange" points="141.92,-148.8 151.82,-152.6 146.45,-143.46 141.92,-148.8"/>
<text text-anchor="start" x="129.5" y="-128" font-family="Helvetica,sans-Serif" font-size="10.00"> &lt; element_type, deleter</text>
<text text-anchor="middle" x="182.5" y="-117" font-family="Helvetica,sans-Serif" font-size="10.00">_type &gt;</text>
</g>
</g>
</svg>
