<?xml version="1.0" encoding="UTF-8" standalone="no"?>
<!DOCTYPE svg PUBLIC "-//W3C//DTD SVG 1.1//EN"
 "http://www.w3.org/Graphics/SVG/1.1/DTD/svg11.dtd">
<!-- Generated by graphviz version 7.1.0 (20230121.1956)
 -->
<!-- Title: to_string Pages: 1 -->
<svg width="281pt" height="27pt"
 viewBox="0.00 0.00 281.00 27.00" xmlns="http://www.w3.org/2000/svg" xmlns:xlink="http://www.w3.org/1999/xlink">
<g id="graph0" class="graph" transform="scale(1 1) rotate(0) translate(4 23)">
<title>to_string</title>
<!-- Node1 -->
<g id="node1" class="node">
<title>Node1</title>
<g id="a_node1"><a xlink:title=" ">
<polygon fill="#999999" stroke="#666666" points="54,-19 0,-19 0,0 54,0 54,-19"/>
<text text-anchor="middle" x="27" y="-7" font-family="Helvetica,sans-Serif" font-size="10.00">to_string</text>
</a>
</g>
</g>
<!-- Node2 -->
<g id="node2" class="node">
<title>Node2</title>
<g id="a_node2"><a xlink:href="../../d5/d5b/classdoris_1_1_geo_point.html#ad0e3cd20d6b698f00485a2e5ce046f3c" target="_top" xlink:title=" ">
<polygon fill="white" stroke="#666666" points="138,-19 90,-19 90,0 138,0 138,-19"/>
<text text-anchor="middle" x="114" y="-7" font-family="Helvetica,sans-Serif" font-size="10.00">as_wkt</text>
</a>
</g>
</g>
<!-- Node1&#45;&gt;Node2 -->
<g id="edge1" class="edge">
<title>Node1&#45;&gt;Node2</title>
<path fill="none" stroke="#63b8ff" d="M54.43,-9.5C62.03,-9.5 70.42,-9.5 78.43,-9.5"/>
<polygon fill="#63b8ff" stroke="#63b8ff" points="78.24,-13 88.24,-9.5 78.24,-6 78.24,-13"/>
</g>
<!-- Node3 -->
<g id="node3" class="node">
<title>Node3</title>
<g id="a_node3"><a xlink:href="../../d6/d94/namespacedoris.html#a4b202dff7cc6f452dd054e2f93b16474" target="_top" xlink:title=" ">
<polygon fill="white" stroke="#666666" points="273,-19 174,-19 174,0 273,0 273,-19"/>
<text text-anchor="middle" x="223.5" y="-7" font-family="Helvetica,sans-Serif" font-size="10.00">doris::print_s2point</text>
</a>
</g>
</g>
<!-- Node2&#45;&gt;Node3 -->
<g id="edge2" class="edge">
<title>Node2&#45;&gt;Node3</title>
<path fill="none" stroke="#63b8ff" d="M138.33,-9.5C145.54,-9.5 153.84,-9.5 162.36,-9.5"/>
<polygon fill="#63b8ff" stroke="#63b8ff" points="162.1,-13 172.1,-9.5 162.1,-6 162.1,-13"/>
</g>
</g>
</svg>
