<?xml version="1.0" encoding="UTF-8" standalone="no"?>
<!DOCTYPE svg PUBLIC "-//W3C//DTD SVG 1.1//EN"
 "http://www.w3.org/Graphics/SVG/1.1/DTD/svg11.dtd">
<!-- Generated by graphviz version 7.1.0 (20230121.1956)
 -->
<!-- Title: is_sink Pages: 1 -->
<svg width="546pt" height="38pt"
 viewBox="0.00 0.00 546.00 38.00" xmlns="http://www.w3.org/2000/svg" xmlns:xlink="http://www.w3.org/1999/xlink">
<g id="graph0" class="graph" transform="scale(1 1) rotate(0) translate(4 34)">
<title>is_sink</title>
<!-- Node1 -->
<g id="node1" class="node">
<title>Node1</title>
<g id="a_node1"><a xlink:title=" ">
<polygon fill="#999999" stroke="#666666" points="538,-24.5 491,-24.5 491,-5.5 538,-5.5 538,-24.5"/>
<text text-anchor="middle" x="514.5" y="-12.5" font-family="Helvetica,sans-Serif" font-size="10.00">is_sink</text>
</a>
</g>
</g>
<!-- Node2 -->
<g id="node2" class="node">
<title>Node2</title>
<g id="a_node2"><a xlink:href="../../d5/d04/classdoris_1_1pipeline_1_1_operator_base.html#a4613bd1e920dc2d58ec8709c31e943f8" target="_top" xlink:title=" ">
<polygon fill="white" stroke="#666666" points="455,-30 335,-30 335,0 455,0 455,-30"/>
<text text-anchor="start" x="343" y="-18" font-family="Helvetica,sans-Serif" font-size="10.00">doris::pipeline::Operator</text>
<text text-anchor="middle" x="395" y="-7" font-family="Helvetica,sans-Serif" font-size="10.00">Base::is_sink</text>
</a>
</g>
</g>
<!-- Node1&#45;&gt;Node2 -->
<g id="edge1" class="edge">
<title>Node1&#45;&gt;Node2</title>
<path fill="none" stroke="#63b8ff" d="M479.1,-15C471.65,-15 463.56,-15 455.45,-15"/>
<polygon fill="#63b8ff" stroke="#63b8ff" points="479.05,-18.5 489.05,-15 479.05,-11.5 479.05,-18.5"/>
</g>
<!-- Node3 -->
<g id="node3" class="node">
<title>Node3</title>
<g id="a_node3"><a xlink:href="../../d5/d04/classdoris_1_1pipeline_1_1_operator_base.html#ae21c3e223fb1aec0439964d01e5e0282" target="_top" xlink:title=" ">
<polygon fill="white" stroke="#666666" points="299,-30 179,-30 179,0 299,0 299,-30"/>
<text text-anchor="start" x="187" y="-18" font-family="Helvetica,sans-Serif" font-size="10.00">doris::pipeline::Operator</text>
<text text-anchor="middle" x="239" y="-7" font-family="Helvetica,sans-Serif" font-size="10.00">Base::debug_string</text>
</a>
</g>
</g>
<!-- Node2&#45;&gt;Node3 -->
<g id="edge2" class="edge">
<title>Node2&#45;&gt;Node3</title>
<path fill="none" stroke="#63b8ff" d="M323.59,-15C315.52,-15 307.36,-15 299.45,-15"/>
<polygon fill="#63b8ff" stroke="#63b8ff" points="323.39,-18.5 333.39,-15 323.39,-11.5 323.39,-18.5"/>
</g>
<!-- Node4 -->
<g id="node4" class="node">
<title>Node4</title>
<g id="a_node4"><a xlink:href="../../d5/dab/classdoris_1_1pipeline_1_1_scan_operator.html#a442541f2312d3818e236c160c575ea52" target="_top" xlink:title=" ">
<polygon fill="white" stroke="#666666" points="143,-30 0,-30 0,0 143,0 143,-30"/>
<text text-anchor="start" x="8" y="-18" font-family="Helvetica,sans-Serif" font-size="10.00">doris::pipeline::ScanOperator</text>
<text text-anchor="middle" x="71.5" y="-7" font-family="Helvetica,sans-Serif" font-size="10.00">::debug_string</text>
</a>
</g>
</g>
<!-- Node3&#45;&gt;Node4 -->
<g id="edge3" class="edge">
<title>Node3&#45;&gt;Node4</title>
<path fill="none" stroke="#63b8ff" d="M167.22,-15C159.27,-15 151.18,-15 143.23,-15"/>
<polygon fill="#63b8ff" stroke="#63b8ff" points="167.2,-18.5 177.2,-15 167.2,-11.5 167.2,-18.5"/>
</g>
</g>
</svg>
