<?xml version="1.0" encoding="UTF-8" standalone="no"?>
<!DOCTYPE svg PUBLIC "-//W3C//DTD SVG 1.1//EN"
 "http://www.w3.org/Graphics/SVG/1.1/DTD/svg11.dtd">
<!-- Generated by graphviz version 7.1.0 (20230121.1956)
 -->
<!-- Title: get Pages: 1 -->
<!--zoomable 410 -->
<svg id="main" version="1.1" xmlns="http://www.w3.org/2000/svg" xmlns:xlink="http://www.w3.org/1999/xlink" xml:space="preserve" onload="init(evt)">
<style type="text/css"><![CDATA[
.edge:hover path { stroke: red; }
.edge:hover polygon { stroke: red; fill: red; }
]]></style>
<script type="text/javascript"><![CDATA[
var edges = document.getElementsByTagName('g');
if (edges && edges.length) {
  for (var i=0;i<edges.length;i++) {
    if (edges[i].id.substr(0,4)=='edge') {
      edges[i].setAttribute('class','edge');
    }
  }
}
]]></script>
        <defs>
                <circle id="rim" cx="0" cy="0" r="7"/>
                <circle id="rim2" cx="0" cy="0" r="3.5"/>
                <g id="zoomPlus">
                        <use xlink:href="#rim" fill="#404040">
                                <set attributeName="fill" to="#808080" begin="zoomplus.mouseover" end="zoomplus.mouseout"/>
                        </use>
                        <path d="M-4,0h8M0,-4v8" fill="none" stroke="white" stroke-width="1.5" pointer-events="none"/>
                </g>
                <g id="zoomMin">
                        <use xlink:href="#rim" fill="#404040">
                                <set attributeName="fill" to="#808080" begin="zoomminus.mouseover" end="zoomminus.mouseout"/>
                        </use>
                        <path d="M-4,0h8" fill="none" stroke="white" stroke-width="1.5" pointer-events="none"/>
                </g>
                <g id="dirArrow">
                        <path fill="none" stroke="white" stroke-width="1.5" d="M0,-3.0v7 M-2.5,-0.5L0,-3.0L2.5,-0.5"/>
                </g>
               <g id="resetDef">
                       <use xlink:href="#rim2" fill="#404040">
                               <set attributeName="fill" to="#808080" begin="reset.mouseover" end="reset.mouseout"/>
                       </use>
               </g>
        </defs>

<script type="text/javascript">
var viewWidth = 715;
var viewHeight = 410;
var sectionId = 'dynsection-1';
</script>
<script xlink:href="../../svgpan.js"/>
<svg id="graph" class="graph">
<g id="viewport">
<title>get</title>
<!-- Node1 -->
<g id="node1" class="node">
<title>Node1</title>
<g id="a_node1"><a xlink:title=" ">
<polygon fill="#999999" stroke="#666666" points="30,-229.5 0,-229.5 0,-210.5 30,-210.5 30,-229.5"/>
<text text-anchor="middle" x="15" y="-217.5" font-family="Helvetica,sans-Serif" font-size="10.00">get</text>
</a>
</g>
</g>
<!-- Node2 -->
<g id="node2" class="node">
<title>Node2</title>
<g id="a_node2"><a xlink:href="../../d3/d1e/namespacedoris_1_1vectorized.html#a4e592fb8f273a28c9551a0aeae4e54f1" target="_top" xlink:title=" ">
<polygon fill="white" stroke="#666666" points="198,-402 67,-402 67,-372 198,-372 198,-402"/>
<text text-anchor="start" x="75" y="-390" font-family="Helvetica,sans-Serif" font-size="10.00">doris::vectorized::</text>
<text text-anchor="middle" x="132.5" y="-379" font-family="Helvetica,sans-Serif" font-size="10.00">check_and_get_data_type</text>
</a>
</g>
</g>
<!-- Node1&#45;&gt;Node2 -->
<g id="edge1" class="edge">
<title>Node1&#45;&gt;Node2</title>
<path fill="none" stroke="#63b8ff" d="M16.63,-229.82C18.77,-255.33 27.98,-324.41 66,-363 66.61,-363.61 67.23,-364.21 67.87,-364.8"/>
<polygon fill="#63b8ff" stroke="#63b8ff" points="65.61,-367.48 75.71,-370.66 69.79,-361.87 65.61,-367.48"/>
</g>
<!-- Node3 -->
<g id="node3" class="node">
<title>Node3</title>
<g id="a_node3"><a xlink:href="../../d9/de2/structdoris_1_1vectorized_1_1_to_number_monotonicity.html#ad93683d0ff95e4ae2c4832c1a7764819" target="_top" xlink:title=" ">
<polygon fill="white" stroke="#666666" points="195,-353.5 70,-353.5 70,-334.5 195,-334.5 195,-353.5"/>
<text text-anchor="middle" x="132.5" y="-341.5" font-family="Helvetica,sans-Serif" font-size="10.00">divide_by_range_of_type</text>
</a>
</g>
</g>
<!-- Node1&#45;&gt;Node3 -->
<g id="edge2" class="edge">
<title>Node1&#45;&gt;Node3</title>
<path fill="none" stroke="#63b8ff" d="M17.85,-229.74C22.29,-250.46 35.54,-299.11 66,-325 67.49,-326.27 69.06,-327.45 70.69,-328.55"/>
<polygon fill="#63b8ff" stroke="#63b8ff" points="68.85,-331.53 79.3,-333.31 72.24,-325.41 68.85,-331.53"/>
</g>
<!-- Node4 -->
<g id="node4" class="node">
<title>Node4</title>
<g id="a_node4"><a xlink:href="../../d6/d34/classdoris_1_1vectorized_1_1_field.html#a2fdabfe471eadbf8dc5f2b55786e1289" target="_top" xlink:title=" ">
<polygon fill="white" stroke="#666666" points="180,-316 85,-316 85,-286 180,-286 180,-316"/>
<text text-anchor="start" x="93" y="-304" font-family="Helvetica,sans-Serif" font-size="10.00">doris::vectorized::</text>
<text text-anchor="middle" x="132.5" y="-293" font-family="Helvetica,sans-Serif" font-size="10.00">Field::get</text>
</a>
</g>
</g>
<!-- Node1&#45;&gt;Node4 -->
<g id="edge3" class="edge">
<title>Node1&#45;&gt;Node4</title>
<path fill="none" stroke="#63b8ff" d="M22.29,-229.81C30.8,-242.37 47.11,-264.05 66,-277 68.67,-278.83 71.49,-280.54 74.41,-282.13"/>
<polygon fill="#63b8ff" stroke="#63b8ff" points="72.74,-285.21 83.26,-286.45 75.81,-278.92 72.74,-285.21"/>
</g>
<!-- Node5 -->
<g id="node5" class="node">
<title>Node5</title>
<g id="a_node5"><a xlink:href="../../da/ddf/classdoris_1_1vectorized_1_1_i_data_type.html#a7cb2de3bfea2df438195b9f4e12dc6af" target="_top" xlink:title=" ">
<polygon fill="white" stroke="#666666" points="188.5,-267.5 76.5,-267.5 76.5,-226.5 188.5,-226.5 188.5,-267.5"/>
<text text-anchor="start" x="84.5" y="-255.5" font-family="Helvetica,sans-Serif" font-size="10.00">doris::vectorized::</text>
<text text-anchor="start" x="84.5" y="-244.5" font-family="Helvetica,sans-Serif" font-size="10.00">IDataType::get_size</text>
<text text-anchor="middle" x="132.5" y="-233.5" font-family="Helvetica,sans-Serif" font-size="10.00">_of_value_in_memory</text>
</a>
</g>
</g>
<!-- Node1&#45;&gt;Node5 -->
<g id="edge4" class="edge">
<title>Node1&#45;&gt;Node5</title>
<path fill="none" stroke="#63b8ff" d="M30.16,-223.31C39.25,-225.43 51.77,-228.36 64.91,-231.43"/>
<polygon fill="#63b8ff" stroke="#63b8ff" points="64.04,-234.82 74.57,-233.69 65.63,-228.01 64.04,-234.82"/>
</g>
<!-- Node9 -->
<g id="node9" class="node">
<title>Node9</title>
<g id="a_node9"><a xlink:href="../../d3/d1e/namespacedoris_1_1vectorized.html#ae0c1f6d795f0a065e9b39c829ecfdfdc" target="_top" xlink:title=" ">
<polygon fill="white" stroke="#666666" points="180,-208 85,-208 85,-178 180,-178 180,-208"/>
<text text-anchor="start" x="93" y="-196" font-family="Helvetica,sans-Serif" font-size="10.00">doris::vectorized::</text>
<text text-anchor="middle" x="132.5" y="-185" font-family="Helvetica,sans-Serif" font-size="10.00">is_float</text>
</a>
</g>
</g>
<!-- Node1&#45;&gt;Node9 -->
<g id="edge8" class="edge">
<title>Node1&#45;&gt;Node9</title>
<path fill="none" stroke="#63b8ff" d="M30.16,-216.69C41.22,-214.1 57.39,-210.33 73.57,-206.54"/>
<polygon fill="#63b8ff" stroke="#63b8ff" points="74.29,-209.97 83.24,-204.28 72.7,-203.15 74.29,-209.97"/>
</g>
<!-- Node13 -->
<g id="node13" class="node">
<title>Node13</title>
<g id="a_node13"><a xlink:href="../../d6/d34/classdoris_1_1vectorized_1_1_field.html#a54e61d2bb6c2a58d7b98180555af09e4" target="_top" xlink:title=" ">
<polygon fill="white" stroke="#666666" points="180,-160 85,-160 85,-130 180,-130 180,-160"/>
<text text-anchor="start" x="93" y="-148" font-family="Helvetica,sans-Serif" font-size="10.00">doris::vectorized::</text>
<text text-anchor="middle" x="132.5" y="-137" font-family="Helvetica,sans-Serif" font-size="10.00">Field::is_null</text>
</a>
</g>
</g>
<!-- Node1&#45;&gt;Node13 -->
<g id="edge12" class="edge">
<title>Node1&#45;&gt;Node13</title>
<path fill="none" stroke="#63b8ff" d="M23.46,-210.07C32.43,-198.73 48.5,-180.3 66,-169 68.72,-167.24 71.58,-165.59 74.53,-164.05"/>
<polygon fill="#63b8ff" stroke="#63b8ff" points="75.91,-167.27 83.44,-159.82 72.91,-160.94 75.91,-167.27"/>
</g>
<!-- Node14 -->
<g id="node14" class="node">
<title>Node14</title>
<g id="a_node14"><a xlink:href="../../da/ddf/classdoris_1_1vectorized_1_1_i_data_type.html#a581d027435abbf8dd03b6889a2cfee8e" target="_top" xlink:title=" ">
<polygon fill="white" stroke="#666666" points="195.5,-111.5 69.5,-111.5 69.5,-70.5 195.5,-70.5 195.5,-111.5"/>
<text text-anchor="start" x="77.5" y="-99.5" font-family="Helvetica,sans-Serif" font-size="10.00">doris::vectorized::</text>
<text text-anchor="start" x="77.5" y="-88.5" font-family="Helvetica,sans-Serif" font-size="10.00">IDataType::is_value</text>
<text text-anchor="middle" x="132.5" y="-77.5" font-family="Helvetica,sans-Serif" font-size="10.00">_represented_by_number</text>
</a>
</g>
</g>
<!-- Node1&#45;&gt;Node14 -->
<g id="edge13" class="edge">
<title>Node1&#45;&gt;Node14</title>
<path fill="none" stroke="#63b8ff" d="M18.56,-210.25C24.1,-190.85 38.95,-147.04 66,-121 66.88,-120.15 67.79,-119.33 68.72,-118.53"/>
<polygon fill="#63b8ff" stroke="#63b8ff" points="70.55,-121.53 76.46,-112.74 66.36,-115.92 70.55,-121.53"/>
</g>
<!-- Node15 -->
<g id="node15" class="node">
<title>Node15</title>
<g id="a_node15"><a xlink:href="../../da/ddf/classdoris_1_1vectorized_1_1_i_data_type.html#a2905380802423ce574f9b8aa413716c3" target="_top" xlink:title=" ">
<polygon fill="white" stroke="#666666" points="199,-52 66,-52 66,0 199,0 199,-52"/>
<text text-anchor="start" x="74" y="-40" font-family="Helvetica,sans-Serif" font-size="10.00">doris::vectorized::</text>
<text text-anchor="start" x="74" y="-29" font-family="Helvetica,sans-Serif" font-size="10.00">IDataType::is_value</text>
<text text-anchor="start" x="74" y="-18" font-family="Helvetica,sans-Serif" font-size="10.00">_represented_by_unsigned</text>
<text text-anchor="middle" x="132.5" y="-7" font-family="Helvetica,sans-Serif" font-size="10.00">_integer</text>
</a>
</g>
</g>
<!-- Node1&#45;&gt;Node15 -->
<g id="edge14" class="edge">
<title>Node1&#45;&gt;Node15</title>
<path fill="none" stroke="#63b8ff" d="M16.56,-210.21C18.58,-183.34 27.58,-107.33 66,-61 66.16,-60.81 66.32,-60.62 66.48,-60.43"/>
<polygon fill="#63b8ff" stroke="#63b8ff" points="68.82,-63.03 73.48,-53.52 63.91,-58.05 68.82,-63.03"/>
</g>
<!-- Node6 -->
<g id="node6" class="node">
<title>Node6</title>
<g id="a_node6"><a xlink:href="../../da/ddf/classdoris_1_1vectorized_1_1_i_data_type.html#a85572d16a2b625d19b71c76bd135dc99" target="_top" xlink:title="Name of data type (examples: UInt64, Array(String)).">
<polygon fill="white" stroke="#666666" points="352,-262 242,-262 242,-232 352,-232 352,-262"/>
<text text-anchor="start" x="250" y="-250" font-family="Helvetica,sans-Serif" font-size="10.00">doris::vectorized::</text>
<text text-anchor="middle" x="297" y="-239" font-family="Helvetica,sans-Serif" font-size="10.00">IDataType::get_name</text>
</a>
</g>
</g>
<!-- Node5&#45;&gt;Node6 -->
<g id="edge5" class="edge">
<title>Node5&#45;&gt;Node6</title>
<path fill="none" stroke="#63b8ff" d="M188.97,-247C202.26,-247 216.57,-247 230.28,-247"/>
<polygon fill="#63b8ff" stroke="#63b8ff" points="230.09,-250.5 240.09,-247 230.09,-243.5 230.09,-250.5"/>
</g>
<!-- Node7 -->
<g id="node7" class="node">
<title>Node7</title>
<g id="a_node7"><a xlink:href="../../da/ddf/classdoris_1_1vectorized_1_1_i_data_type.html#a9065e669d8e05d5522c43130494b14f9" target="_top" xlink:title=" ">
<polygon fill="white" stroke="#666666" points="525,-262 399,-262 399,-232 525,-232 525,-262"/>
<text text-anchor="start" x="407" y="-250" font-family="Helvetica,sans-Serif" font-size="10.00">doris::vectorized::</text>
<text text-anchor="middle" x="462" y="-239" font-family="Helvetica,sans-Serif" font-size="10.00">IDataType::do_get_name</text>
</a>
</g>
</g>
<!-- Node6&#45;&gt;Node7 -->
<g id="edge6" class="edge">
<title>Node6&#45;&gt;Node7</title>
<path fill="none" stroke="#63b8ff" d="M352.28,-247C363.51,-247 375.51,-247 387.3,-247"/>
<polygon fill="#63b8ff" stroke="#63b8ff" points="386.99,-250.5 396.99,-247 386.99,-243.5 386.99,-250.5"/>
</g>
<!-- Node8 -->
<g id="node8" class="node">
<title>Node8</title>
<g id="a_node8"><a xlink:href="../../da/ddf/classdoris_1_1vectorized_1_1_i_data_type.html#aabc840d95ae450e1408c6f14f70c8bf9" target="_top" xlink:title="Name of data type family (example: FixedString, Array).">
<polygon fill="white" stroke="#666666" points="707,-262 565,-262 565,-232 707,-232 707,-262"/>
<text text-anchor="start" x="573" y="-250" font-family="Helvetica,sans-Serif" font-size="10.00">doris::vectorized::</text>
<text text-anchor="middle" x="636" y="-239" font-family="Helvetica,sans-Serif" font-size="10.00">IDataType::get_family_name</text>
</a>
</g>
</g>
<!-- Node7&#45;&gt;Node8 -->
<g id="edge7" class="edge">
<title>Node7&#45;&gt;Node8</title>
<path fill="none" stroke="#63b8ff" d="M525.1,-247C534.19,-247 543.68,-247 553.1,-247"/>
<polygon fill="#63b8ff" stroke="#63b8ff" points="553.02,-250.5 563.02,-247 553.02,-243.5 553.02,-250.5"/>
</g>
<!-- Node10 -->
<g id="node10" class="node">
<title>Node10</title>
<g id="a_node10"><a xlink:href="../../d2/d24/structdoris_1_1vectorized_1_1_which_data_type.html#a3641932c4007a1756b722db9a45c3293" target="_top" xlink:title=" ">
<polygon fill="white" stroke="#666666" points="359,-208 235,-208 235,-178 359,-178 359,-208"/>
<text text-anchor="start" x="243" y="-196" font-family="Helvetica,sans-Serif" font-size="10.00">doris::vectorized::</text>
<text text-anchor="middle" x="297" y="-185" font-family="Helvetica,sans-Serif" font-size="10.00">WhichDataType::is_float</text>
</a>
</g>
</g>
<!-- Node9&#45;&gt;Node10 -->
<g id="edge9" class="edge">
<title>Node9&#45;&gt;Node10</title>
<path fill="none" stroke="#63b8ff" d="M180.07,-193C193.59,-193 208.7,-193 223.42,-193"/>
<polygon fill="#63b8ff" stroke="#63b8ff" points="223.06,-196.5 233.06,-193 223.06,-189.5 223.06,-196.5"/>
</g>
<!-- Node11 -->
<g id="node11" class="node">
<title>Node11</title>
<g id="a_node11"><a xlink:href="../../d2/d24/structdoris_1_1vectorized_1_1_which_data_type.html#a22202dba2e675e9081c8c6593cd38d99" target="_top" xlink:title=" ">
<polygon fill="white" stroke="#666666" points="529,-211 395,-211 395,-181 529,-181 529,-211"/>
<text text-anchor="start" x="403" y="-199" font-family="Helvetica,sans-Serif" font-size="10.00">doris::vectorized::</text>
<text text-anchor="middle" x="462" y="-188" font-family="Helvetica,sans-Serif" font-size="10.00">WhichDataType::is_float32</text>
</a>
</g>
</g>
<!-- Node10&#45;&gt;Node11 -->
<g id="edge10" class="edge">
<title>Node10&#45;&gt;Node11</title>
<path fill="none" stroke="#63b8ff" d="M359.16,-194.13C367.02,-194.27 375.15,-194.42 383.23,-194.57"/>
<polygon fill="#63b8ff" stroke="#63b8ff" points="383.01,-198.07 393.07,-194.75 383.14,-191.07 383.01,-198.07"/>
</g>
<!-- Node12 -->
<g id="node12" class="node">
<title>Node12</title>
<g id="a_node12"><a xlink:href="../../d2/d24/structdoris_1_1vectorized_1_1_which_data_type.html#a7ab956911daf17b69370926c677b543b" target="_top" xlink:title=" ">
<polygon fill="white" stroke="#666666" points="529,-163 395,-163 395,-133 529,-133 529,-163"/>
<text text-anchor="start" x="403" y="-151" font-family="Helvetica,sans-Serif" font-size="10.00">doris::vectorized::</text>
<text text-anchor="middle" x="462" y="-140" font-family="Helvetica,sans-Serif" font-size="10.00">WhichDataType::is_float64</text>
</a>
</g>
</g>
<!-- Node10&#45;&gt;Node12 -->
<g id="edge11" class="edge">
<title>Node10&#45;&gt;Node12</title>
<path fill="none" stroke="#63b8ff" d="M354.1,-177.51C366.97,-173.96 380.79,-170.14 394.08,-166.48"/>
<polygon fill="#63b8ff" stroke="#63b8ff" points="394.91,-169.88 403.62,-163.84 393.05,-163.13 394.91,-169.88"/>
</g>
</g>
</svg>
        <g id="navigator" transform="translate(0 0)" fill="#404254">
                <rect fill="#f2f5e9" fill-opacity="0.5" stroke="#606060" stroke-width=".5" x="0" y="0" width="60" height="60"/>
                <use id="zoomplus" xlink:href="#zoomPlus" x="17" y="9" onmousedown="handleZoom(evt,'in')"/>
                <use id="zoomminus" xlink:href="#zoomMin" x="42" y="9" onmousedown="handleZoom(evt,'out')"/>
                <use id="reset" xlink:href="#resetDef" x="30" y="36" onmousedown="handleReset()"/>
                <g id="arrowUp" xlink:href="#dirArrow" transform="translate(30 24)" onmousedown="handlePan(0,-1)">
                  <use xlink:href="#rim" fill="#404040">
                        <set attributeName="fill" to="#808080" begin="arrowUp.mouseover" end="arrowUp.mouseout"/>
                  </use>
                  <path fill="none" stroke="white" stroke-width="1.5" d="M0,-3.0v7 M-2.5,-0.5L0,-3.0L2.5,-0.5"/>
                </g>
                <g id="arrowRight" xlink:href="#dirArrow" transform="rotate(90) translate(36 -43)" onmousedown="handlePan(1,0)">
                  <use xlink:href="#rim" fill="#404040">
                        <set attributeName="fill" to="#808080" begin="arrowRight.mouseover" end="arrowRight.mouseout"/>
                  </use>
                  <path fill="none" stroke="white" stroke-width="1.5" d="M0,-3.0v7 M-2.5,-0.5L0,-3.0L2.5,-0.5"/>
                </g>
                <g id="arrowDown" xlink:href="#dirArrow" transform="rotate(180) translate(-30 -48)" onmousedown="handlePan(0,1)">
                  <use xlink:href="#rim" fill="#404040">
                        <set attributeName="fill" to="#808080" begin="arrowDown.mouseover" end="arrowDown.mouseout"/>
                  </use>
                  <path fill="none" stroke="white" stroke-width="1.5" d="M0,-3.0v7 M-2.5,-0.5L0,-3.0L2.5,-0.5"/>
                </g>
                <g id="arrowLeft" xlink:href="#dirArrow" transform="rotate(270) translate(-36 17)" onmousedown="handlePan(-1,0)">
                  <use xlink:href="#rim" fill="#404040">
                        <set attributeName="fill" to="#808080" begin="arrowLeft.mouseover" end="arrowLeft.mouseout"/>
                  </use>
                  <path fill="none" stroke="white" stroke-width="1.5" d="M0,-3.0v7 M-2.5,-0.5L0,-3.0L2.5,-0.5"/>
                </g>
        </g>
        <svg viewBox="0 0 15 15" width="100%" height="30px" preserveAspectRatio="xMaxYMin meet">
         <g id="arrow_out" transform="scale(0.3 0.3)">
          <a xlink:href="structdoris_1_1vectorized_1_1_to_number_monotonicity_a3736f0c98c0c5ad33ef4637b61031684_cgraph_org.svg" target="_base">
           <rect id="button" ry="5" rx="5" y="6" x="6" height="38" width="38"
                fill="#f2f5e9" fill-opacity="0.5" stroke="#606060" stroke-width="1.0"/>
           <path id="arrow"
             d="M 11.500037,31.436501 C 11.940474,20.09759 22.043105,11.32322 32.158766,21.979434 L 37.068811,17.246167 C 37.068811,17.246167 37.088388,32 37.088388,32 L 22.160133,31.978069 C 22.160133,31.978069 26.997745,27.140456 26.997745,27.140456 C 18.528582,18.264221 13.291696,25.230495 11.500037,31.436501 z"
             style="fill:#404040;"/>
          </a>
         </g>
        </svg>
</svg>
