<?xml version="1.0" encoding="UTF-8" standalone="no"?>
<!DOCTYPE svg PUBLIC "-//W3C//DTD SVG 1.1//EN"
 "http://www.w3.org/Graphics/SVG/1.1/DTD/svg11.dtd">
<!-- Generated by graphviz version 7.1.0 (20230121.1956)
 -->
<!-- Title: execute_without_low_cardinality_columns Pages: 1 -->
<svg width="962pt" height="638pt"
 viewBox="0.00 0.00 962.00 638.27" xmlns="http://www.w3.org/2000/svg" xmlns:xlink="http://www.w3.org/1999/xlink">
<g id="graph0" class="graph" transform="scale(1 1) rotate(0) translate(4 634.27)">
<title>execute_without_low_cardinality_columns</title>
<!-- Node1 -->
<g id="node1" class="node">
<title>Node1</title>
<g id="a_node1"><a xlink:title=" ">
<polygon fill="#999999" stroke="#666666" points="108,-461.69 0,-461.69 0,-431.69 108,-431.69 108,-461.69"/>
<text text-anchor="start" x="8" y="-449.69" font-family="Helvetica,sans-Serif" font-size="10.00">execute_without_low</text>
<text text-anchor="middle" x="54" y="-438.69" font-family="Helvetica,sans-Serif" font-size="10.00">_cardinality_columns</text>
</a>
</g>
</g>
<!-- Node2 -->
<g id="node2" class="node">
<title>Node2</title>
<g id="a_node2"><a xlink:href="../../d8/dad/classdoris_1_1vectorized_1_1_prepared_function_impl.html#ac97d50f3f0f3ae478984997095efc972" target="_top" xlink:title=" ">
<polygon fill="white" stroke="#666666" points="468,-573.19 307,-573.19 307,-554.19 468,-554.19 468,-573.19"/>
<text text-anchor="middle" x="387.5" y="-561.19" font-family="Helvetica,sans-Serif" font-size="10.00">_execute_skipped_constant_deal</text>
</a>
</g>
</g>
<!-- Node1&#45;&gt;Node2 -->
<g id="edge1" class="edge">
<title>Node1&#45;&gt;Node2</title>
<path fill="none" stroke="#63b8ff" d="M64.55,-462.12C78.85,-483.69 108.03,-522.18 144,-539.69 190.47,-562.32 247.82,-568.81 295.08,-569.42"/>
<polygon fill="#63b8ff" stroke="#63b8ff" points="295.03,-572.92 305.04,-569.45 295.05,-565.92 295.03,-572.92"/>
</g>
<!-- Node11 -->
<g id="node11" class="node">
<title>Node11</title>
<g id="a_node11"><a xlink:href="../../d9/d8d/classdoris_1_1_status.html#a6ec1a217f203269ab53d2290d602db24" target="_top" xlink:title=" ">
<polygon fill="white" stroke="#666666" points="772.5,-516.19 680.5,-516.19 680.5,-497.19 772.5,-497.19 772.5,-516.19"/>
<text text-anchor="middle" x="726.5" y="-504.19" font-family="Helvetica,sans-Serif" font-size="10.00">doris::Status::OK</text>
</a>
</g>
</g>
<!-- Node1&#45;&gt;Node11 -->
<g id="edge37" class="edge">
<title>Node1&#45;&gt;Node11</title>
<path fill="none" stroke="#63b8ff" d="M108.35,-458.14C159.19,-468.69 238.01,-484.13 307,-493.69 445.46,-512.89 481.26,-515.03 621,-511.69 636.63,-511.32 653.57,-510.63 669.17,-509.88"/>
<polygon fill="#63b8ff" stroke="#63b8ff" points="668.93,-513.4 678.74,-509.41 668.58,-506.41 668.93,-513.4"/>
</g>
<!-- Node18 -->
<g id="node18" class="node">
<title>Node18</title>
<g id="a_node18"><a xlink:href="../../d8/dad/classdoris_1_1vectorized_1_1_prepared_function_impl.html#aa949391233695c581a1077401ea117d2" target="_top" xlink:title=" ">
<polygon fill="white" stroke="#666666" points="271,-361.69 144,-361.69 144,-331.69 271,-331.69 271,-361.69"/>
<text text-anchor="start" x="152" y="-349.69" font-family="Helvetica,sans-Serif" font-size="10.00">default_implementation</text>
<text text-anchor="middle" x="207.5" y="-338.69" font-family="Helvetica,sans-Serif" font-size="10.00">_for_constant_arguments</text>
</a>
</g>
</g>
<!-- Node1&#45;&gt;Node18 -->
<g id="edge23" class="edge">
<title>Node1&#45;&gt;Node18</title>
<path fill="none" stroke="#63b8ff" d="M78.34,-431.29C103.92,-414.4 145.13,-387.2 173.9,-368.21"/>
<polygon fill="#63b8ff" stroke="#63b8ff" points="175.45,-371.38 181.87,-362.95 171.6,-365.54 175.45,-371.38"/>
</g>
<!-- Node3 -->
<g id="node3" class="node">
<title>Node3</title>
<g id="a_node3"><a xlink:href="../../d8/dad/classdoris_1_1vectorized_1_1_prepared_function_impl.html#abbfabb5eaeace4b4f2febc1312a6cdbb" target="_top" xlink:title=" ">
<polygon fill="white" stroke="#666666" points="621,-263.69 504,-263.69 504,-233.69 621,-233.69 621,-263.69"/>
<text text-anchor="start" x="512" y="-251.69" font-family="Helvetica,sans-Serif" font-size="10.00">default_implementation</text>
<text text-anchor="middle" x="562.5" y="-240.69" font-family="Helvetica,sans-Serif" font-size="10.00">_for_nulls</text>
</a>
</g>
</g>
<!-- Node2&#45;&gt;Node3 -->
<g id="edge2" class="edge">
<title>Node2&#45;&gt;Node3</title>
<path fill="none" stroke="#63b8ff" d="M393.87,-553.92C417.42,-511.03 512.05,-338.73 547.77,-273.7"/>
<polygon fill="#63b8ff" stroke="#63b8ff" points="550.68,-275.66 552.43,-265.21 544.55,-272.29 550.68,-275.66"/>
</g>
<!-- Node2&#45;&gt;Node11 -->
<g id="edge22" class="edge">
<title>Node2&#45;&gt;Node11</title>
<path fill="none" stroke="#63b8ff" d="M468.47,-559.46C513.6,-556.07 570.84,-550.09 621,-539.69 643.84,-534.96 668.78,-527.19 688.56,-520.38"/>
<polygon fill="#63b8ff" stroke="#63b8ff" points="689.56,-523.73 697.84,-517.11 687.24,-517.13 689.56,-523.73"/>
</g>
<!-- Node16 -->
<g id="node16" class="node">
<title>Node16</title>
<g id="a_node16"><a xlink:href="../../d8/dad/classdoris_1_1vectorized_1_1_prepared_function_impl.html#a659a1b4e2076578f5d25a8eccf752cfa" target="_top" xlink:title=" ">
<polygon fill="white" stroke="#666666" points="763.5,-630.19 689.5,-630.19 689.5,-611.19 763.5,-611.19 763.5,-630.19"/>
<text text-anchor="middle" x="726.5" y="-618.19" font-family="Helvetica,sans-Serif" font-size="10.00">execute_impl</text>
</a>
</g>
</g>
<!-- Node2&#45;&gt;Node16 -->
<g id="edge19" class="edge">
<title>Node2&#45;&gt;Node16</title>
<path fill="none" stroke="#63b8ff" d="M403.37,-573.62C424.61,-587.16 465.36,-610.73 504,-619.69 562.76,-633.32 632.66,-630.63 678,-626.49"/>
<polygon fill="#63b8ff" stroke="#63b8ff" points="678.14,-630 687.75,-625.54 677.45,-623.03 678.14,-630"/>
</g>
<!-- Node17 -->
<g id="node17" class="node">
<title>Node17</title>
<g id="a_node17"><a xlink:href="../../d8/dad/classdoris_1_1vectorized_1_1_prepared_function_impl.html#ad1e89acff9d7d8b1d196bb6323465a53" target="_top" xlink:title=" ">
<polygon fill="white" stroke="#666666" points="618.5,-611.19 506.5,-611.19 506.5,-592.19 618.5,-592.19 618.5,-611.19"/>
<text text-anchor="middle" x="562.5" y="-599.19" font-family="Helvetica,sans-Serif" font-size="10.00">execute_impl_dry_run</text>
</a>
</g>
</g>
<!-- Node2&#45;&gt;Node17 -->
<g id="edge20" class="edge">
<title>Node2&#45;&gt;Node17</title>
<path fill="none" stroke="#63b8ff" d="M433.95,-573.68C455.72,-578.46 482,-584.23 505.04,-589.29"/>
<polygon fill="#63b8ff" stroke="#63b8ff" points="504.05,-592.66 514.57,-591.38 505.56,-585.82 504.05,-592.66"/>
</g>
<!-- Node3&#45;&gt;Node1 -->
<g id="edge9" class="edge">
<title>Node3&#45;&gt;Node1</title>
<path fill="none" stroke="#63b8ff" d="M550.67,-233.23C535.14,-212.56 504.37,-176.88 468,-162.69 401.33,-136.7 373.24,-135.62 307,-162.69 183.5,-213.18 97.76,-361.36 67.27,-421.2"/>
<polygon fill="#63b8ff" stroke="#63b8ff" points="64.24,-419.43 62.9,-429.94 70.5,-422.56 64.24,-419.43"/>
</g>
<!-- Node4 -->
<g id="node4" class="node">
<title>Node4</title>
<g id="a_node4"><a xlink:href="../../d3/d1e/namespacedoris_1_1vectorized.html#ad97e4eaf0cb543bc62ba6576f811fcde" target="_top" xlink:title=" ">
<polygon fill="white" stroke="#666666" points="791.5,-153.19 661.5,-153.19 661.5,-112.19 791.5,-112.19 791.5,-153.19"/>
<text text-anchor="start" x="669.5" y="-141.19" font-family="Helvetica,sans-Serif" font-size="10.00">doris::vectorized::</text>
<text text-anchor="start" x="669.5" y="-130.19" font-family="Helvetica,sans-Serif" font-size="10.00">create_block_with_nested</text>
<text text-anchor="middle" x="726.5" y="-119.19" font-family="Helvetica,sans-Serif" font-size="10.00">_columns</text>
</a>
</g>
</g>
<!-- Node3&#45;&gt;Node4 -->
<g id="edge3" class="edge">
<title>Node3&#45;&gt;Node4</title>
<path fill="none" stroke="#63b8ff" d="M578.76,-233.4C596.53,-216.1 627.26,-187.74 657,-167.69 661.41,-164.72 666.1,-161.83 670.88,-159.06"/>
<polygon fill="#63b8ff" stroke="#63b8ff" points="672.39,-162.23 679.43,-154.31 668.99,-156.11 672.39,-162.23"/>
</g>
<!-- Node7 -->
<g id="node7" class="node">
<title>Node7</title>
<g id="a_node7"><a xlink:href="../../d2/d12/classdoris_1_1vectorized_1_1_block.html#a54f8f7eae676dfa49029fff7c7ce8f05" target="_top" xlink:title="References are invalidated after calling functions above.">
<polygon fill="white" stroke="#666666" points="951,-287.69 835,-287.69 835,-257.69 951,-257.69 951,-287.69"/>
<text text-anchor="start" x="843" y="-275.69" font-family="Helvetica,sans-Serif" font-size="10.00">doris::vectorized::</text>
<text text-anchor="middle" x="893" y="-264.69" font-family="Helvetica,sans-Serif" font-size="10.00">Block::get_by_position</text>
</a>
</g>
</g>
<!-- Node3&#45;&gt;Node7 -->
<g id="edge10" class="edge">
<title>Node3&#45;&gt;Node7</title>
<path fill="none" stroke="#63b8ff" d="M585.74,-233.42C603.97,-221.89 630.93,-206.99 657,-200.69 717.05,-186.18 737.39,-181.16 796,-200.69 824.7,-210.26 851.74,-232.15 869.76,-249.29"/>
<polygon fill="#63b8ff" stroke="#63b8ff" points="867.19,-251.67 876.77,-256.19 872.1,-246.68 867.19,-251.67"/>
</g>
<!-- Node10 -->
<g id="node10" class="node">
<title>Node10</title>
<g id="a_node10"><a xlink:href="../../d3/d1e/namespacedoris_1_1vectorized.html#a73c3e0cab032bb2e0d0a4946f2216cd3" target="_top" xlink:title=" ">
<polygon fill="white" stroke="#666666" points="774,-239.69 679,-239.69 679,-209.69 774,-209.69 774,-239.69"/>
<text text-anchor="start" x="687" y="-227.69" font-family="Helvetica,sans-Serif" font-size="10.00">doris::vectorized::</text>
<text text-anchor="middle" x="726.5" y="-216.69" font-family="Helvetica,sans-Serif" font-size="10.00">get_null_presence</text>
</a>
</g>
</g>
<!-- Node3&#45;&gt;Node10 -->
<g id="edge11" class="edge">
<title>Node3&#45;&gt;Node10</title>
<path fill="none" stroke="#63b8ff" d="M621.07,-240.16C636.07,-237.94 652.25,-235.54 667.28,-233.32"/>
<polygon fill="#63b8ff" stroke="#63b8ff" points="667.64,-236.8 677.02,-231.87 666.62,-229.88 667.64,-236.8"/>
</g>
<!-- Node3&#45;&gt;Node11 -->
<g id="edge13" class="edge">
<title>Node3&#45;&gt;Node11</title>
<path fill="none" stroke="#63b8ff" d="M569.78,-264.06C583.31,-296.37 617.25,-373.1 657,-430.69 672.01,-452.45 692.72,-474.59 707.42,-489.32"/>
<polygon fill="#63b8ff" stroke="#63b8ff" points="704.64,-491.49 714.22,-496.01 709.55,-486.5 704.64,-491.49"/>
</g>
<!-- Node13 -->
<g id="node13" class="node">
<title>Node13</title>
<g id="a_node13"><a xlink:href="../../d8/dad/classdoris_1_1vectorized_1_1_prepared_function_impl.html#aabd6d84c74b7af8dc7c6703fb9320965" target="_top" xlink:title=" ">
<polygon fill="white" stroke="#666666" points="795.5,-287.69 657.5,-287.69 657.5,-257.69 795.5,-257.69 795.5,-287.69"/>
<text text-anchor="start" x="665.5" y="-275.69" font-family="Helvetica,sans-Serif" font-size="10.00">use_default_implementation</text>
<text text-anchor="middle" x="726.5" y="-264.69" font-family="Helvetica,sans-Serif" font-size="10.00">_for_nulls</text>
</a>
</g>
</g>
<!-- Node3&#45;&gt;Node13 -->
<g id="edge15" class="edge">
<title>Node3&#45;&gt;Node13</title>
<path fill="none" stroke="#63b8ff" d="M621.07,-257.22C629.07,-258.41 637.41,-259.64 645.73,-260.87"/>
<polygon fill="#63b8ff" stroke="#63b8ff" points="645.13,-264.32 655.54,-262.33 646.16,-257.4 645.13,-264.32"/>
</g>
<!-- Node14 -->
<g id="node14" class="node">
<title>Node14</title>
<g id="a_node14"><a xlink:href="../../d3/d1e/namespacedoris_1_1vectorized.html#a2077e3a9b64b95275d5cb2cd7e3de8d6" target="_top" xlink:title=" ">
<polygon fill="white" stroke="#666666" points="774,-335.69 679,-335.69 679,-305.69 774,-305.69 774,-335.69"/>
<text text-anchor="start" x="687" y="-323.69" font-family="Helvetica,sans-Serif" font-size="10.00">doris::vectorized::</text>
<text text-anchor="middle" x="726.5" y="-312.69" font-family="Helvetica,sans-Serif" font-size="10.00">wrap_in_nullable</text>
</a>
</g>
</g>
<!-- Node3&#45;&gt;Node14 -->
<g id="edge16" class="edge">
<title>Node3&#45;&gt;Node14</title>
<path fill="none" stroke="#63b8ff" d="M590.84,-263.99C609.24,-273.97 634.2,-286.9 657,-296.69 660.58,-298.23 664.3,-299.75 668.07,-301.23"/>
<polygon fill="#63b8ff" stroke="#63b8ff" points="666.74,-304.46 677.33,-304.74 669.22,-297.92 666.74,-304.46"/>
</g>
<!-- Node5 -->
<g id="node5" class="node">
<title>Node5</title>
<g id="a_node5"><a xlink:href="../../d2/d12/classdoris_1_1vectorized_1_1_block.html#a08f559e5612203aeedf927d660e77b67" target="_top" xlink:title=" ">
<polygon fill="white" stroke="#666666" points="940.5,-147.69 845.5,-147.69 845.5,-117.69 940.5,-117.69 940.5,-147.69"/>
<text text-anchor="start" x="853.5" y="-135.69" font-family="Helvetica,sans-Serif" font-size="10.00">doris::vectorized::</text>
<text text-anchor="middle" x="893" y="-124.69" font-family="Helvetica,sans-Serif" font-size="10.00">Block::columns</text>
</a>
</g>
</g>
<!-- Node4&#45;&gt;Node5 -->
<g id="edge4" class="edge">
<title>Node4&#45;&gt;Node5</title>
<path fill="none" stroke="#63b8ff" d="M791.57,-132.69C805.53,-132.69 820.22,-132.69 833.92,-132.69"/>
<polygon fill="#63b8ff" stroke="#63b8ff" points="833.65,-136.19 843.65,-132.69 833.65,-129.19 833.65,-136.19"/>
</g>
<!-- Node6 -->
<g id="node6" class="node">
<title>Node6</title>
<g id="a_node6"><a xlink:href="../../da/d30/class_c_o_w_helper.html#aa14023f47995d24ce0ea777e90a4cb23" target="_top" xlink:title=" ">
<polygon fill="white" stroke="#666666" points="954,-51.69 832,-51.69 832,-21.69 954,-21.69 954,-51.69"/>
<text text-anchor="start" x="840" y="-39.69" font-family="Helvetica,sans-Serif" font-size="10.00">COWHelper&lt; IColumn,</text>
<text text-anchor="middle" x="893" y="-28.69" font-family="Helvetica,sans-Serif" font-size="10.00"> ColumnConst &gt;::create</text>
</a>
</g>
</g>
<!-- Node4&#45;&gt;Node6 -->
<g id="edge5" class="edge">
<title>Node4&#45;&gt;Node6</title>
<path fill="none" stroke="#63b8ff" d="M753.95,-112.01C774.47,-96.58 804.04,-75.68 832,-60.69 834.38,-59.42 836.84,-58.17 839.35,-56.96"/>
<polygon fill="#63b8ff" stroke="#63b8ff" points="840.8,-60.14 848.44,-52.81 837.89,-53.78 840.8,-60.14"/>
</g>
<!-- Node4&#45;&gt;Node7 -->
<g id="edge6" class="edge">
<title>Node4&#45;&gt;Node7</title>
<path fill="none" stroke="#63b8ff" d="M774.19,-153.68C781.76,-157.88 789.31,-162.59 796,-167.69 826.94,-191.27 856.15,-225.58 874.04,-248.49"/>
<polygon fill="#63b8ff" stroke="#63b8ff" points="871.2,-250.55 880.07,-256.35 876.76,-246.29 871.2,-250.55"/>
</g>
<!-- Node8 -->
<g id="node8" class="node">
<title>Node8</title>
<g id="a_node8"><a xlink:href="../../d2/d12/classdoris_1_1vectorized_1_1_block.html#a77f369726854ebacb96fb49e7146e980" target="_top" xlink:title="insert the column at the specified position">
<polygon fill="white" stroke="#666666" points="940.5,-99.69 845.5,-99.69 845.5,-69.69 940.5,-69.69 940.5,-99.69"/>
<text text-anchor="start" x="853.5" y="-87.69" font-family="Helvetica,sans-Serif" font-size="10.00">doris::vectorized::</text>
<text text-anchor="middle" x="893" y="-76.69" font-family="Helvetica,sans-Serif" font-size="10.00">Block::insert</text>
</a>
</g>
</g>
<!-- Node4&#45;&gt;Node8 -->
<g id="edge7" class="edge">
<title>Node4&#45;&gt;Node8</title>
<path fill="none" stroke="#63b8ff" d="M791.57,-114C805.67,-109.88 820.51,-105.55 834.33,-101.52"/>
<polygon fill="#63b8ff" stroke="#63b8ff" points="835.09,-104.94 843.71,-98.78 833.13,-98.22 835.09,-104.94"/>
</g>
<!-- Node9 -->
<g id="node9" class="node">
<title>Node9</title>
<g id="a_node9"><a xlink:href="../../d6/d94/namespacedoris.html#a7c244e69b56143b81e369d4a1e334be7" target="_top" xlink:title=" ">
<polygon fill="white" stroke="#666666" points="939,-185.19 847,-185.19 847,-166.19 939,-166.19 939,-185.19"/>
<text text-anchor="middle" x="893" y="-173.19" font-family="Helvetica,sans-Serif" font-size="10.00">doris::starts_with</text>
</a>
</g>
</g>
<!-- Node4&#45;&gt;Node9 -->
<g id="edge8" class="edge">
<title>Node4&#45;&gt;Node9</title>
<path fill="none" stroke="#63b8ff" d="M791.57,-149.44C808.72,-153.92 826.98,-158.7 843.17,-162.93"/>
<polygon fill="#63b8ff" stroke="#63b8ff" points="841.97,-166.23 852.53,-165.38 843.74,-159.46 841.97,-166.23"/>
</g>
<!-- Node10&#45;&gt;Node7 -->
<g id="edge12" class="edge">
<title>Node10&#45;&gt;Node7</title>
<path fill="none" stroke="#63b8ff" d="M774.2,-238.32C790.95,-243.21 810.15,-248.81 828.11,-254.05"/>
<polygon fill="#63b8ff" stroke="#63b8ff" points="827.07,-257.39 837.65,-256.83 829.03,-250.67 827.07,-257.39"/>
</g>
<!-- Node12 -->
<g id="node12" class="node">
<title>Node12</title>
<g id="a_node12"><a xlink:href="../../d9/d8d/classdoris_1_1_status.html#aafde58df1b2a6a91d5b674373be3ffc5" target="_top" xlink:title=" ">
<polygon fill="white" stroke="#666666" points="946.5,-516.19 839.5,-516.19 839.5,-497.19 946.5,-497.19 946.5,-516.19"/>
<text text-anchor="middle" x="893" y="-504.19" font-family="Helvetica,sans-Serif" font-size="10.00">doris::Status::Status</text>
</a>
</g>
</g>
<!-- Node11&#45;&gt;Node12 -->
<g id="edge14" class="edge">
<title>Node11&#45;&gt;Node12</title>
<path fill="none" stroke="#63b8ff" d="M772.89,-506.69C789.82,-506.69 809.37,-506.69 827.69,-506.69"/>
<polygon fill="#63b8ff" stroke="#63b8ff" points="827.68,-510.19 837.68,-506.69 827.68,-503.19 827.68,-510.19"/>
</g>
<!-- Node14&#45;&gt;Node7 -->
<g id="edge17" class="edge">
<title>Node14&#45;&gt;Node7</title>
<path fill="none" stroke="#63b8ff" d="M774.2,-307.07C790.95,-302.18 810.15,-296.58 828.11,-291.34"/>
<polygon fill="#63b8ff" stroke="#63b8ff" points="829.03,-294.71 837.65,-288.55 827.07,-287.99 829.03,-294.71"/>
</g>
<!-- Node15 -->
<g id="node15" class="node">
<title>Node15</title>
<g id="a_node15"><a xlink:href="../../d3/d1e/namespacedoris_1_1vectorized.html#a85dfa9ef8ec5a8555e00a9314d3a7f4d" target="_top" xlink:title="True if column&#39;s an ColumnConst instance. It&#39;s just a syntax sugar for type check.">
<polygon fill="white" stroke="#666666" points="940.5,-421.69 845.5,-421.69 845.5,-391.69 940.5,-391.69 940.5,-421.69"/>
<text text-anchor="start" x="853.5" y="-409.69" font-family="Helvetica,sans-Serif" font-size="10.00">doris::vectorized::</text>
<text text-anchor="middle" x="893" y="-398.69" font-family="Helvetica,sans-Serif" font-size="10.00">is_column_const</text>
</a>
</g>
</g>
<!-- Node14&#45;&gt;Node15 -->
<g id="edge18" class="edge">
<title>Node14&#45;&gt;Node15</title>
<path fill="none" stroke="#63b8ff" d="M756.91,-336.07C783.61,-350.03 823.2,-370.72 852.62,-386.11"/>
<polygon fill="#63b8ff" stroke="#63b8ff" points="850.74,-389.07 861.23,-390.6 853.99,-382.87 850.74,-389.07"/>
</g>
<!-- Node17&#45;&gt;Node16 -->
<g id="edge21" class="edge">
<title>Node17&#45;&gt;Node16</title>
<path fill="none" stroke="#63b8ff" d="M618.8,-608.18C637.99,-610.43 659.32,-612.93 677.84,-615.1"/>
<polygon fill="#63b8ff" stroke="#63b8ff" points="677.42,-618.58 687.76,-616.27 678.23,-611.62 677.42,-618.58"/>
</g>
<!-- Node18&#45;&gt;Node2 -->
<g id="edge24" class="edge">
<title>Node18&#45;&gt;Node2</title>
<path fill="none" stroke="#63b8ff" d="M215.94,-361.96C230.65,-391.17 265.63,-456.14 307,-501.69 323.23,-519.56 345.05,-536.18 361.72,-547.7"/>
<polygon fill="#63b8ff" stroke="#63b8ff" points="359.36,-550.33 369.61,-553.02 363.28,-544.52 359.36,-550.33"/>
</g>
<!-- Node18&#45;&gt;Node6 -->
<g id="edge28" class="edge">
<title>Node18&#45;&gt;Node6</title>
<path fill="none" stroke="#63b8ff" d="M209.14,-331.28C211.93,-285.57 226.92,-150.07 307,-87.69 457.56,29.6 700.77,2.61 820.6,-20.35"/>
<polygon fill="#63b8ff" stroke="#63b8ff" points="819.83,-23.77 830.32,-22.27 821.18,-16.9 819.83,-23.77"/>
</g>
<!-- Node18&#45;&gt;Node7 -->
<g id="edge30" class="edge">
<title>Node18&#45;&gt;Node7</title>
<path fill="none" stroke="#63b8ff" d="M271.29,-345.23C283.15,-345 295.46,-344.81 307,-344.69 307,-344.69 796,-344.69 796,-344.69 824.7,-335.12 851.74,-313.24 869.76,-296.09"/>
<polygon fill="#63b8ff" stroke="#63b8ff" points="872.1,-298.7 876.77,-289.19 867.19,-293.71 872.1,-298.7"/>
</g>
<!-- Node18&#45;&gt;Node8 -->
<g id="edge32" class="edge">
<title>Node18&#45;&gt;Node8</title>
<path fill="none" stroke="#63b8ff" d="M211.87,-331.3C220.62,-295.31 247.62,-205.49 307,-162.69 468.32,-46.41 721.28,-61.61 834.2,-75.77"/>
<polygon fill="#63b8ff" stroke="#63b8ff" points="833.46,-79.2 843.83,-77.02 834.37,-72.26 833.46,-79.2"/>
</g>
<!-- Node18&#45;&gt;Node11 -->
<g id="edge34" class="edge">
<title>Node18&#45;&gt;Node11</title>
<path fill="none" stroke="#63b8ff" d="M216.32,-362.13C230.44,-388.19 262.88,-440.34 307,-463.69 368.4,-496.18 569.61,-504.13 668.97,-506.07"/>
<polygon fill="#63b8ff" stroke="#63b8ff" points="668.7,-509.57 678.76,-506.25 668.82,-502.57 668.7,-509.57"/>
</g>
<!-- Node18&#45;&gt;Node15 -->
<g id="edge33" class="edge">
<title>Node18&#45;&gt;Node15</title>
<path fill="none" stroke="#63b8ff" d="M223.92,-362.18C242.03,-379.25 273.84,-405.86 307,-417.69 511.77,-490.75 580.22,-457.26 796,-430.69 808.4,-429.17 821.51,-426.57 833.91,-423.63"/>
<polygon fill="#63b8ff" stroke="#63b8ff" points="834.74,-427.04 843.6,-421.23 833.05,-420.24 834.74,-427.04"/>
</g>
<!-- Node19 -->
<g id="node19" class="node">
<title>Node19</title>
<g id="a_node19"><a xlink:href="../../d3/d1e/namespacedoris_1_1vectorized.html#a732cf9b5f443ccf1c500a246d8e239dc" target="_top" xlink:title=" ">
<polygon fill="white" stroke="#666666" points="796,-421.69 657,-421.69 657,-391.69 796,-391.69 796,-421.69"/>
<text text-anchor="start" x="665" y="-409.69" font-family="Helvetica,sans-Serif" font-size="10.00">doris::vectorized::</text>
<text text-anchor="middle" x="726.5" y="-398.69" font-family="Helvetica,sans-Serif" font-size="10.00">all_arguments_are_constant</text>
</a>
</g>
</g>
<!-- Node18&#45;&gt;Node19 -->
<g id="edge25" class="edge">
<title>Node18&#45;&gt;Node19</title>
<path fill="none" stroke="#63b8ff" d="M233.79,-361.99C253.09,-372.79 280.75,-386.4 307,-392.69 422.07,-420.26 560,-418.43 645.2,-413.44"/>
<polygon fill="#63b8ff" stroke="#63b8ff" points="645.33,-416.94 655.09,-412.83 644.9,-409.96 645.33,-416.94"/>
</g>
<!-- Node20 -->
<g id="node20" class="node">
<title>Node20</title>
<g id="a_node20"><a xlink:href="../../d8/dad/classdoris_1_1vectorized_1_1_prepared_function_impl.html#a6e0ad3145df999ace25d4477467c537c" target="_top" xlink:title=" ">
<polygon fill="white" stroke="#666666" points="444.5,-383.69 330.5,-383.69 330.5,-353.69 444.5,-353.69 444.5,-383.69"/>
<text text-anchor="start" x="338.5" y="-371.69" font-family="Helvetica,sans-Serif" font-size="10.00">get_arguments_that</text>
<text text-anchor="middle" x="387.5" y="-360.69" font-family="Helvetica,sans-Serif" font-size="10.00">_are_always_constant</text>
</a>
</g>
</g>
<!-- Node18&#45;&gt;Node20 -->
<g id="edge29" class="edge">
<title>Node18&#45;&gt;Node20</title>
<path fill="none" stroke="#63b8ff" d="M271.26,-354.45C286.72,-356.36 303.35,-358.41 319.02,-360.35"/>
<polygon fill="#63b8ff" stroke="#63b8ff" points="318.38,-363.8 328.74,-361.55 319.24,-356.85 318.38,-363.8"/>
</g>
<!-- Node21 -->
<g id="node21" class="node">
<title>Node21</title>
<g id="a_node21"><a xlink:href="../../da/d5d/classdoris_1_1vectorized_1_1_i_prepared_function.html#ae55496cfafdf6017b737081fe0d7316b" target="_top" xlink:title="Get the main function name.">
<polygon fill="white" stroke="#666666" points="460,-297.69 315,-297.69 315,-267.69 460,-267.69 460,-297.69"/>
<text text-anchor="start" x="323" y="-285.69" font-family="Helvetica,sans-Serif" font-size="10.00">doris::vectorized::</text>
<text text-anchor="middle" x="387.5" y="-274.69" font-family="Helvetica,sans-Serif" font-size="10.00">IPreparedFunction::get_name</text>
</a>
</g>
</g>
<!-- Node18&#45;&gt;Node21 -->
<g id="edge31" class="edge">
<title>Node18&#45;&gt;Node21</title>
<path fill="none" stroke="#63b8ff" d="M251.59,-331.2C275.99,-322.43 306.72,-311.38 332.69,-302.04"/>
<polygon fill="#63b8ff" stroke="#63b8ff" points="333.85,-305.34 342.08,-298.67 331.48,-298.76 333.85,-305.34"/>
</g>
<!-- Node22 -->
<g id="node22" class="node">
<title>Node22</title>
<g id="a_node22"><a xlink:href="../../d2/d12/classdoris_1_1vectorized_1_1_block.html#a9be86262d8ec3739dba5e0910c2339ad" target="_top" xlink:title="Returns number of rows from first column in block, not equal to nullptr. If no columns,...">
<polygon fill="white" stroke="#666666" points="435,-249.69 340,-249.69 340,-219.69 435,-219.69 435,-249.69"/>
<text text-anchor="start" x="348" y="-237.69" font-family="Helvetica,sans-Serif" font-size="10.00">doris::vectorized::</text>
<text text-anchor="middle" x="387.5" y="-226.69" font-family="Helvetica,sans-Serif" font-size="10.00">Block::rows</text>
</a>
</g>
</g>
<!-- Node18&#45;&gt;Node22 -->
<g id="edge35" class="edge">
<title>Node18&#45;&gt;Node22</title>
<path fill="none" stroke="#63b8ff" d="M221.63,-331.4C239.2,-311.85 272.2,-278.21 307,-258.69 313.84,-254.86 321.36,-251.57 328.96,-248.77"/>
<polygon fill="#63b8ff" stroke="#63b8ff" points="329.92,-252.14 338.27,-245.61 327.68,-245.51 329.92,-252.14"/>
</g>
<!-- Node23 -->
<g id="node23" class="node">
<title>Node23</title>
<g id="a_node23"><a xlink:href="../../d8/dad/classdoris_1_1vectorized_1_1_prepared_function_impl.html#a4cadc29e839a79174bc7e7c9814e2888" target="_top" xlink:title=" ">
<polygon fill="white" stroke="#666666" points="456.5,-201.69 318.5,-201.69 318.5,-171.69 456.5,-171.69 456.5,-201.69"/>
<text text-anchor="start" x="326.5" y="-189.69" font-family="Helvetica,sans-Serif" font-size="10.00">use_default_implementation</text>
<text text-anchor="middle" x="387.5" y="-178.69" font-family="Helvetica,sans-Serif" font-size="10.00">_for_constants</text>
</a>
</g>
</g>
<!-- Node18&#45;&gt;Node23 -->
<g id="edge36" class="edge">
<title>Node18&#45;&gt;Node23</title>
<path fill="none" stroke="#63b8ff" d="M215.34,-331.53C228.79,-303.42 261.4,-243.15 307,-210.69 308.57,-209.57 310.2,-208.5 311.87,-207.48"/>
<polygon fill="#63b8ff" stroke="#63b8ff" points="313.34,-210.67 320.51,-202.88 310.04,-204.49 313.34,-210.67"/>
</g>
<!-- Node19&#45;&gt;Node7 -->
<g id="edge26" class="edge">
<title>Node19&#45;&gt;Node7</title>
<path fill="none" stroke="#63b8ff" d="M771.75,-391.28C780.15,-387.44 788.62,-382.91 796,-377.69 827.77,-355.24 856.78,-320.67 874.41,-297.39"/>
<polygon fill="#63b8ff" stroke="#63b8ff" points="877.2,-299.51 880.34,-289.39 871.57,-295.34 877.2,-299.51"/>
</g>
<!-- Node19&#45;&gt;Node15 -->
<g id="edge27" class="edge">
<title>Node19&#45;&gt;Node15</title>
<path fill="none" stroke="#63b8ff" d="M796.31,-406.69C808.85,-406.69 821.82,-406.69 834.02,-406.69"/>
<polygon fill="#63b8ff" stroke="#63b8ff" points="833.91,-410.19 843.91,-406.69 833.91,-403.19 833.91,-410.19"/>
</g>
</g>
</svg>
