<?xml version="1.0" encoding="UTF-8" standalone="no"?>
<!DOCTYPE svg PUBLIC "-//W3C//DTD SVG 1.1//EN"
 "http://www.w3.org/Graphics/SVG/1.1/DTD/svg11.dtd">
<!-- Generated by graphviz version 7.1.0 (20230121.1956)
 -->
<!-- Title: use_default_implementation_for_nulls Pages: 1 -->
<!--zoomable 100 -->
<svg id="main" version="1.1" xmlns="http://www.w3.org/2000/svg" xmlns:xlink="http://www.w3.org/1999/xlink" xml:space="preserve" onload="init(evt)">
<style type="text/css"><![CDATA[
.edge:hover path { stroke: red; }
.edge:hover polygon { stroke: red; fill: red; }
]]></style>
<script type="text/javascript"><![CDATA[
var edges = document.getElementsByTagName('g');
if (edges && edges.length) {
  for (var i=0;i<edges.length;i++) {
    if (edges[i].id.substr(0,4)=='edge') {
      edges[i].setAttribute('class','edge');
    }
  }
}
]]></script>
        <defs>
                <circle id="rim" cx="0" cy="0" r="7"/>
                <circle id="rim2" cx="0" cy="0" r="3.5"/>
                <g id="zoomPlus">
                        <use xlink:href="#rim" fill="#404040">
                                <set attributeName="fill" to="#808080" begin="zoomplus.mouseover" end="zoomplus.mouseout"/>
                        </use>
                        <path d="M-4,0h8M0,-4v8" fill="none" stroke="white" stroke-width="1.5" pointer-events="none"/>
                </g>
                <g id="zoomMin">
                        <use xlink:href="#rim" fill="#404040">
                                <set attributeName="fill" to="#808080" begin="zoomminus.mouseover" end="zoomminus.mouseout"/>
                        </use>
                        <path d="M-4,0h8" fill="none" stroke="white" stroke-width="1.5" pointer-events="none"/>
                </g>
                <g id="dirArrow">
                        <path fill="none" stroke="white" stroke-width="1.5" d="M0,-3.0v7 M-2.5,-0.5L0,-3.0L2.5,-0.5"/>
                </g>
               <g id="resetDef">
                       <use xlink:href="#rim2" fill="#404040">
                               <set attributeName="fill" to="#808080" begin="reset.mouseover" end="reset.mouseout"/>
                       </use>
               </g>
        </defs>

<script type="text/javascript">
var viewWidth = 890;
var viewHeight = 100;
var sectionId = 'dynsection-6';
</script>
<script xlink:href="../../svgpan.js"/>
<svg id="graph" class="graph">
<g id="viewport">
<title>use_default_implementation_for_nulls</title>
<!-- Node1 -->
<g id="node1" class="node">
<title>Node1</title>
<g id="a_node1"><a xlink:title=" ">
<polygon fill="#999999" stroke="#666666" points="882,-30 744,-30 744,0 882,0 882,-30"/>
<text text-anchor="start" x="752" y="-18" font-family="Helvetica,sans-Serif" font-size="10.00">use_default_implementation</text>
<text text-anchor="middle" x="813" y="-7" font-family="Helvetica,sans-Serif" font-size="10.00">_for_nulls</text>
</a>
</g>
</g>
<!-- Node2 -->
<g id="node2" class="node">
<title>Node2</title>
<g id="a_node2"><a xlink:href="../../d8/dad/classdoris_1_1vectorized_1_1_prepared_function_impl.html#abbfabb5eaeace4b4f2febc1312a6cdbb" target="_top" xlink:title=" ">
<polygon fill="white" stroke="#666666" points="708,-30 591,-30 591,0 708,0 708,-30"/>
<text text-anchor="start" x="599" y="-18" font-family="Helvetica,sans-Serif" font-size="10.00">default_implementation</text>
<text text-anchor="middle" x="649.5" y="-7" font-family="Helvetica,sans-Serif" font-size="10.00">_for_nulls</text>
</a>
</g>
</g>
<!-- Node1&#45;&gt;Node2 -->
<g id="edge1" class="edge">
<title>Node1&#45;&gt;Node2</title>
<path fill="none" stroke="#63b8ff" d="M732.2,-15C724.17,-15 716.13,-15 708.39,-15"/>
<polygon fill="#63b8ff" stroke="#63b8ff" points="732,-18.5 742,-15 732,-11.5 732,-18.5"/>
</g>
<!-- Node3 -->
<g id="node3" class="node">
<title>Node3</title>
<g id="a_node3"><a xlink:href="../../d8/dad/classdoris_1_1vectorized_1_1_prepared_function_impl.html#ac97d50f3f0f3ae478984997095efc972" target="_top" xlink:title=" ">
<polygon fill="white" stroke="#666666" points="555,-43.5 394,-43.5 394,-24.5 555,-24.5 555,-43.5"/>
<text text-anchor="middle" x="474.5" y="-31.5" font-family="Helvetica,sans-Serif" font-size="10.00">_execute_skipped_constant_deal</text>
</a>
</g>
</g>
<!-- Node2&#45;&gt;Node3 -->
<g id="edge2" class="edge">
<title>Node2&#45;&gt;Node3</title>
<path fill="none" stroke="#63b8ff" d="M579.46,-22.58C571.53,-23.45 563.4,-24.35 555.35,-25.23"/>
<polygon fill="#63b8ff" stroke="#63b8ff" points="579.83,-26.06 589.39,-21.49 579.07,-19.1 579.83,-26.06"/>
</g>
<!-- Node4 -->
<g id="node4" class="node">
<title>Node4</title>
<g id="a_node4"><a xlink:href="../../d8/dad/classdoris_1_1vectorized_1_1_prepared_function_impl.html#aa949391233695c581a1077401ea117d2" target="_top" xlink:title=" ">
<polygon fill="white" stroke="#666666" points="358,-92 231,-92 231,-62 358,-62 358,-92"/>
<text text-anchor="start" x="239" y="-80" font-family="Helvetica,sans-Serif" font-size="10.00">default_implementation</text>
<text text-anchor="middle" x="294.5" y="-69" font-family="Helvetica,sans-Serif" font-size="10.00">_for_constant_arguments</text>
</a>
</g>
</g>
<!-- Node3&#45;&gt;Node4 -->
<g id="edge3" class="edge">
<title>Node3&#45;&gt;Node4</title>
<path fill="none" stroke="#63b8ff" d="M421.27,-46.62C401.51,-51.39 378.82,-56.87 358.19,-61.85"/>
<polygon fill="#63b8ff" stroke="#63b8ff" points="421.85,-50.08 430.74,-44.33 420.2,-43.27 421.85,-50.08"/>
</g>
<!-- Node5 -->
<g id="node5" class="node">
<title>Node5</title>
<g id="a_node5"><a xlink:href="../../d8/dad/classdoris_1_1vectorized_1_1_prepared_function_impl.html#a57449f5703cb3575a4368bddf9ed51b3" target="_top" xlink:title=" ">
<polygon fill="white" stroke="#666666" points="195,-49 87,-49 87,-19 195,-19 195,-49"/>
<text text-anchor="start" x="95" y="-37" font-family="Helvetica,sans-Serif" font-size="10.00">execute_without_low</text>
<text text-anchor="middle" x="141" y="-26" font-family="Helvetica,sans-Serif" font-size="10.00">_cardinality_columns</text>
</a>
</g>
</g>
<!-- Node3&#45;&gt;Node5 -->
<g id="edge7" class="edge">
<title>Node3&#45;&gt;Node5</title>
<path fill="none" stroke="#63b8ff" d="M382.28,-34C322.2,-34 245.62,-34 195.27,-34"/>
<polygon fill="#63b8ff" stroke="#63b8ff" points="382.16,-37.5 392.16,-34 382.16,-30.5 382.16,-37.5"/>
</g>
<!-- Node4&#45;&gt;Node5 -->
<g id="edge4" class="edge">
<title>Node4&#45;&gt;Node5</title>
<path fill="none" stroke="#63b8ff" d="M228.36,-58.51C217.36,-55.39 206.04,-52.18 195.38,-49.15"/>
<polygon fill="#63b8ff" stroke="#63b8ff" points="227.2,-61.82 237.78,-61.18 229.11,-55.09 227.2,-61.82"/>
</g>
<!-- Node5&#45;&gt;Node2 -->
<g id="edge5" class="edge">
<title>Node5&#45;&gt;Node2</title>
<path fill="none" stroke="#63b8ff" d="M206.18,-27.82C257.07,-23.25 330.01,-17.41 394,-15 461.44,-12.46 539.01,-12.95 590.61,-13.76"/>
<polygon fill="#63b8ff" stroke="#63b8ff" points="206.18,-24.31 196.54,-28.7 206.81,-31.28 206.18,-24.31"/>
</g>
<!-- Node6 -->
<g id="node6" class="node">
<title>Node6</title>
<g id="a_node6"><a xlink:href="../../d8/dad/classdoris_1_1vectorized_1_1_prepared_function_impl.html#a40932ff3d5066d512d7e649443b73dec" target="_top" xlink:title=" ">
<polygon fill="white" stroke="#666666" points="51,-43.5 0,-43.5 0,-24.5 51,-24.5 51,-43.5"/>
<text text-anchor="middle" x="25.5" y="-31.5" font-family="Helvetica,sans-Serif" font-size="10.00">execute</text>
</a>
</g>
</g>
<!-- Node5&#45;&gt;Node6 -->
<g id="edge6" class="edge">
<title>Node5&#45;&gt;Node6</title>
<path fill="none" stroke="#63b8ff" d="M75.33,-34C66.84,-34 58.59,-34 51.36,-34"/>
<polygon fill="#63b8ff" stroke="#63b8ff" points="75.06,-37.5 85.06,-34 75.06,-30.5 75.06,-37.5"/>
</g>
</g>
</svg>
        <g id="navigator" transform="translate(0 0)" fill="#404254">
                <rect fill="#f2f5e9" fill-opacity="0.5" stroke="#606060" stroke-width=".5" x="0" y="0" width="60" height="60"/>
                <use id="zoomplus" xlink:href="#zoomPlus" x="17" y="9" onmousedown="handleZoom(evt,'in')"/>
                <use id="zoomminus" xlink:href="#zoomMin" x="42" y="9" onmousedown="handleZoom(evt,'out')"/>
                <use id="reset" xlink:href="#resetDef" x="30" y="36" onmousedown="handleReset()"/>
                <g id="arrowUp" xlink:href="#dirArrow" transform="translate(30 24)" onmousedown="handlePan(0,-1)">
                  <use xlink:href="#rim" fill="#404040">
                        <set attributeName="fill" to="#808080" begin="arrowUp.mouseover" end="arrowUp.mouseout"/>
                  </use>
                  <path fill="none" stroke="white" stroke-width="1.5" d="M0,-3.0v7 M-2.5,-0.5L0,-3.0L2.5,-0.5"/>
                </g>
                <g id="arrowRight" xlink:href="#dirArrow" transform="rotate(90) translate(36 -43)" onmousedown="handlePan(1,0)">
                  <use xlink:href="#rim" fill="#404040">
                        <set attributeName="fill" to="#808080" begin="arrowRight.mouseover" end="arrowRight.mouseout"/>
                  </use>
                  <path fill="none" stroke="white" stroke-width="1.5" d="M0,-3.0v7 M-2.5,-0.5L0,-3.0L2.5,-0.5"/>
                </g>
                <g id="arrowDown" xlink:href="#dirArrow" transform="rotate(180) translate(-30 -48)" onmousedown="handlePan(0,1)">
                  <use xlink:href="#rim" fill="#404040">
                        <set attributeName="fill" to="#808080" begin="arrowDown.mouseover" end="arrowDown.mouseout"/>
                  </use>
                  <path fill="none" stroke="white" stroke-width="1.5" d="M0,-3.0v7 M-2.5,-0.5L0,-3.0L2.5,-0.5"/>
                </g>
                <g id="arrowLeft" xlink:href="#dirArrow" transform="rotate(270) translate(-36 17)" onmousedown="handlePan(-1,0)">
                  <use xlink:href="#rim" fill="#404040">
                        <set attributeName="fill" to="#808080" begin="arrowLeft.mouseover" end="arrowLeft.mouseout"/>
                  </use>
                  <path fill="none" stroke="white" stroke-width="1.5" d="M0,-3.0v7 M-2.5,-0.5L0,-3.0L2.5,-0.5"/>
                </g>
        </g>
        <svg viewBox="0 0 15 15" width="100%" height="30px" preserveAspectRatio="xMaxYMin meet">
         <g id="arrow_out" transform="scale(0.3 0.3)">
          <a xlink:href="classdoris_1_1vectorized_1_1_prepared_function_impl_aabd6d84c74b7af8dc7c6703fb9320965_icgraph_org.svg" target="_base">
           <rect id="button" ry="5" rx="5" y="6" x="6" height="38" width="38"
                fill="#f2f5e9" fill-opacity="0.5" stroke="#606060" stroke-width="1.0"/>
           <path id="arrow"
             d="M 11.500037,31.436501 C 11.940474,20.09759 22.043105,11.32322 32.158766,21.979434 L 37.068811,17.246167 C 37.068811,17.246167 37.088388,32 37.088388,32 L 22.160133,31.978069 C 22.160133,31.978069 26.997745,27.140456 26.997745,27.140456 C 18.528582,18.264221 13.291696,25.230495 11.500037,31.436501 z"
             style="fill:#404040;"/>
          </a>
         </g>
        </svg>
</svg>
