<?xml version="1.0" encoding="UTF-8" standalone="no"?>
<!DOCTYPE svg PUBLIC "-//W3C//DTD SVG 1.1//EN"
 "http://www.w3.org/Graphics/SVG/1.1/DTD/svg11.dtd">
<!-- Generated by graphviz version 7.1.0 (20230121.1956)
 -->
<!-- Title: Rowset Pages: 1 -->
<svg width="112pt" height="148pt"
 viewBox="0.00 0.00 112.00 148.00" xmlns="http://www.w3.org/2000/svg" xmlns:xlink="http://www.w3.org/1999/xlink">
<g id="graph0" class="graph" transform="scale(1 1) rotate(0) translate(4 144)">
<title>Rowset</title>
<!-- Node1 -->
<g id="node1" class="node">
<title>Node1</title>
<g id="a_node1"><a xlink:title=" ">
<polygon fill="#999999" stroke="#666666" points="77,-74 27,-74 27,-55 77,-55 77,-74"/>
<text text-anchor="middle" x="52" y="-62" font-family="Helvetica,sans-Serif" font-size="10.00">Rowset</text>
</a>
</g>
</g>
<!-- Node3 -->
<g id="node3" class="node">
<title>Node3</title>
<g id="a_node3"><a xlink:href="../../de/d50/classdoris_1_1_beta_rowset.html" target="_top" xlink:title=" ">
<polygon fill="white" stroke="#666666" points="87.5,-19 16.5,-19 16.5,0 87.5,0 87.5,-19"/>
<text text-anchor="middle" x="52" y="-7" font-family="Helvetica,sans-Serif" font-size="10.00">BetaRowset</text>
</a>
</g>
</g>
<!-- Node1&#45;&gt;Node3 -->
<g id="edge2" class="edge">
<title>Node1&#45;&gt;Node3</title>
<path fill="none" stroke="#63b8ff" d="M52,-43.35C52,-35.1 52,-25.97 52,-19.44"/>
<polygon fill="#63b8ff" stroke="#63b8ff" points="48.5,-43.23 52,-53.23 55.5,-43.23 48.5,-43.23"/>
</g>
<!-- Node2 -->
<g id="node2" class="node">
<title>Node2</title>
<g id="a_node2"><a xlink:title=" ">
<polygon fill="white" stroke="#666666" points="104,-140 0,-140 0,-110 104,-110 104,-140"/>
<text text-anchor="start" x="8" y="-128" font-family="Helvetica,sans-Serif" font-size="10.00">enable_shared_from</text>
<text text-anchor="middle" x="52" y="-117" font-family="Helvetica,sans-Serif" font-size="10.00">_this&lt; Rowset &gt;</text>
</a>
</g>
</g>
<!-- Node2&#45;&gt;Node1 -->
<g id="edge1" class="edge">
<title>Node2&#45;&gt;Node1</title>
<path fill="none" stroke="#63b8ff" d="M52,-98.3C52,-89.65 52,-80.58 52,-74.18"/>
<polygon fill="#63b8ff" stroke="#63b8ff" points="48.5,-98.03 52,-108.03 55.5,-98.03 48.5,-98.03"/>
</g>
</g>
</svg>
