<?xml version="1.0" encoding="UTF-8" standalone="no"?>
<!DOCTYPE svg PUBLIC "-//W3C//DTD SVG 1.1//EN"
 "http://www.w3.org/Graphics/SVG/1.1/DTD/svg11.dtd">
<!-- Generated by graphviz version 7.1.0 (20230121.1956)
 -->
<!-- Title: Release Pages: 1 -->
<svg width="557pt" height="76pt"
 viewBox="0.00 0.00 557.00 75.50" xmlns="http://www.w3.org/2000/svg" xmlns:xlink="http://www.w3.org/1999/xlink">
<g id="graph0" class="graph" transform="scale(1 1) rotate(0) translate(4 71.5)">
<title>Release</title>
<!-- Node1 -->
<g id="node1" class="node">
<title>Node1</title>
<g id="a_node1"><a xlink:title=" ">
<polygon fill="#999999" stroke="#666666" points="53,-41 0,-41 0,-22 53,-22 53,-41"/>
<text text-anchor="middle" x="26.5" y="-29" font-family="Helvetica,sans-Serif" font-size="10.00">Release</text>
</a>
</g>
</g>
<!-- Node2 -->
<g id="node2" class="node">
<title>Node2</title>
<g id="a_node2"><a xlink:href="../../d2/dc5/namespacebase.html#a6e3119250618f888bdff079a40a9bc6e" target="_top" xlink:title=" ">
<polygon fill="white" stroke="#666666" points="197.5,-61 93.5,-61 93.5,-42 197.5,-42 197.5,-61"/>
<text text-anchor="middle" x="145.5" y="-49" font-family="Helvetica,sans-Serif" font-size="10.00">base::RefCountDec</text>
</a>
</g>
</g>
<!-- Node1&#45;&gt;Node2 -->
<g id="edge1" class="edge">
<title>Node1&#45;&gt;Node2</title>
<path fill="none" stroke="#63b8ff" d="M53.47,-35.94C61.98,-37.39 71.84,-39.08 81.86,-40.79"/>
<polygon fill="#63b8ff" stroke="#63b8ff" points="81.24,-44.24 91.68,-42.47 82.42,-37.34 81.24,-44.24"/>
</g>
<!-- Node5 -->
<g id="node5" class="node">
<title>Node5</title>
<g id="a_node5"><a xlink:href="../../d2/dc5/namespacebase.html#a60a3a4872762efa98af927132d1bf90f" target="_top" xlink:title=" ">
<polygon fill="white" stroke="#666666" points="202,-23 89,-23 89,-4 202,-4 202,-23"/>
<text text-anchor="middle" x="145.5" y="-11" font-family="Helvetica,sans-Serif" font-size="10.00">base::RefCountIsZero</text>
</a>
</g>
</g>
<!-- Node1&#45;&gt;Node5 -->
<g id="edge4" class="edge">
<title>Node1&#45;&gt;Node5</title>
<path fill="none" stroke="#63b8ff" d="M53.47,-27.51C60.77,-26.38 69.06,-25.11 77.6,-23.79"/>
<polygon fill="#63b8ff" stroke="#63b8ff" points="78.05,-27.26 87.41,-22.28 76.99,-20.35 78.05,-27.26"/>
</g>
<!-- Node3 -->
<g id="node3" class="node">
<title>Node3</title>
<g id="a_node3"><a xlink:href="../../d2/dc5/namespacebase.html#af920fc644d372858d1442afe6744bfa4" target="_top" xlink:title=" ">
<polygon fill="white" stroke="#666666" points="361,-61 250,-61 250,-42 361,-42 361,-61"/>
<text text-anchor="middle" x="305.5" y="-49" font-family="Helvetica,sans-Serif" font-size="10.00">base::RefCountDecN</text>
</a>
</g>
</g>
<!-- Node2&#45;&gt;Node3 -->
<g id="edge2" class="edge">
<title>Node2&#45;&gt;Node3</title>
<path fill="none" stroke="#63b8ff" d="M197.8,-51.5C210.75,-51.5 224.84,-51.5 238.41,-51.5"/>
<polygon fill="#63b8ff" stroke="#63b8ff" points="238.13,-55 248.13,-51.5 238.13,-48 238.13,-55"/>
</g>
<!-- Node4 -->
<g id="node4" class="node">
<title>Node4</title>
<g id="a_node4"><a xlink:href="../../dc/d42/namespacebase_1_1subtle.html#ad79514e8ecd776445eca569256801441" target="_top" xlink:title=" ">
<polygon fill="white" stroke="#666666" points="531,-67.5 427,-67.5 427,-37.5 531,-37.5 531,-67.5"/>
<text text-anchor="start" x="435" y="-55.5" font-family="Helvetica,sans-Serif" font-size="10.00">base::subtle::Barrier</text>
<text text-anchor="middle" x="479" y="-44.5" font-family="Helvetica,sans-Serif" font-size="10.00">_AtomicIncrement</text>
</a>
</g>
</g>
<!-- Node3&#45;&gt;Node4 -->
<g id="edge3" class="edge">
<title>Node3&#45;&gt;Node4</title>
<path fill="none" stroke="#63b8ff" d="M361.24,-51.82C378.44,-51.92 397.58,-52.03 415.3,-52.13"/>
<polygon fill="#63b8ff" stroke="#63b8ff" points="415.16,-55.63 425.19,-52.19 415.21,-48.63 415.16,-55.63"/>
</g>
<!-- Node6 -->
<g id="node6" class="node">
<title>Node6</title>
<g id="a_node6"><a xlink:href="../../dc/d42/namespacebase_1_1subtle.html#af5c61a0416c41ffad86c0f88d259aff8" target="_top" xlink:title=" ">
<polygon fill="white" stroke="#666666" points="373,-22 238,-22 238,-3 373,-3 373,-22"/>
<text text-anchor="middle" x="305.5" y="-10" font-family="Helvetica,sans-Serif" font-size="10.00">base::subtle::Acquire_Load</text>
</a>
</g>
</g>
<!-- Node5&#45;&gt;Node6 -->
<g id="edge5" class="edge">
<title>Node5&#45;&gt;Node6</title>
<path fill="none" stroke="#63b8ff" d="M202.2,-13.15C209.99,-13.1 218.12,-13.05 226.23,-13"/>
<polygon fill="#63b8ff" stroke="#63b8ff" points="226.16,-16.5 236.14,-12.93 226.12,-9.5 226.16,-16.5"/>
</g>
<!-- Node7 -->
<g id="node7" class="node">
<title>Node7</title>
<g id="a_node7"><a xlink:href="../../dc/d42/namespacebase_1_1subtle.html#a8227003ebda7d9b733c44e106e7ab607" target="_top" xlink:title=" ">
<polygon fill="white" stroke="#666666" points="549,-19 409,-19 409,0 549,0 549,-19"/>
<text text-anchor="middle" x="479" y="-7" font-family="Helvetica,sans-Serif" font-size="10.00">base::subtle::MemoryBarrier</text>
</a>
</g>
</g>
<!-- Node6&#45;&gt;Node7 -->
<g id="edge6" class="edge">
<title>Node6&#45;&gt;Node7</title>
<path fill="none" stroke="#63b8ff" d="M373.3,-11.33C381.16,-11.19 389.25,-11.05 397.27,-10.91"/>
<polygon fill="#63b8ff" stroke="#63b8ff" points="397.1,-14.42 407.04,-10.74 396.98,-7.42 397.1,-14.42"/>
</g>
</g>
</svg>
