<?xml version="1.0" encoding="UTF-8" standalone="no"?>
<!DOCTYPE svg PUBLIC "-//W3C//DTD SVG 1.1//EN"
 "http://www.w3.org/Graphics/SVG/1.1/DTD/svg11.dtd">
<!-- Generated by graphviz version 7.1.0 (20230121.1956)
 -->
<!-- Title: setup Pages: 1 -->
<!--zoomable 285 -->
<svg id="main" version="1.1" xmlns="http://www.w3.org/2000/svg" xmlns:xlink="http://www.w3.org/1999/xlink" xml:space="preserve" onload="init(evt)">
<style type="text/css"><![CDATA[
.edge:hover path { stroke: red; }
.edge:hover polygon { stroke: red; fill: red; }
]]></style>
<script type="text/javascript"><![CDATA[
var edges = document.getElementsByTagName('g');
if (edges && edges.length) {
  for (var i=0;i<edges.length;i++) {
    if (edges[i].id.substr(0,4)=='edge') {
      edges[i].setAttribute('class','edge');
    }
  }
}
]]></script>
        <defs>
                <circle id="rim" cx="0" cy="0" r="7"/>
                <circle id="rim2" cx="0" cy="0" r="3.5"/>
                <g id="zoomPlus">
                        <use xlink:href="#rim" fill="#404040">
                                <set attributeName="fill" to="#808080" begin="zoomplus.mouseover" end="zoomplus.mouseout"/>
                        </use>
                        <path d="M-4,0h8M0,-4v8" fill="none" stroke="white" stroke-width="1.5" pointer-events="none"/>
                </g>
                <g id="zoomMin">
                        <use xlink:href="#rim" fill="#404040">
                                <set attributeName="fill" to="#808080" begin="zoomminus.mouseover" end="zoomminus.mouseout"/>
                        </use>
                        <path d="M-4,0h8" fill="none" stroke="white" stroke-width="1.5" pointer-events="none"/>
                </g>
                <g id="dirArrow">
                        <path fill="none" stroke="white" stroke-width="1.5" d="M0,-3.0v7 M-2.5,-0.5L0,-3.0L2.5,-0.5"/>
                </g>
               <g id="resetDef">
                       <use xlink:href="#rim2" fill="#404040">
                               <set attributeName="fill" to="#808080" begin="reset.mouseover" end="reset.mouseout"/>
                       </use>
               </g>
        </defs>

<script type="text/javascript">
var viewWidth = 668;
var viewHeight = 285;
var sectionId = 'dynsection-0';
</script>
<script xlink:href="../../svgpan.js"/>
<svg id="graph" class="graph">
<g id="viewport">
<title>setup</title>
<!-- Node1 -->
<g id="node1" class="node">
<title>Node1</title>
<g id="a_node1"><a xlink:title=" ">
<polygon fill="#999999" stroke="#666666" points="41,-211.5 0,-211.5 0,-192.5 41,-192.5 41,-211.5"/>
<text text-anchor="middle" x="20.5" y="-199.5" font-family="Helvetica,sans-Serif" font-size="10.00">setup</text>
</a>
</g>
</g>
<!-- Node2 -->
<g id="node2" class="node">
<title>Node2</title>
<g id="a_node2"><a xlink:href="../../d8/da1/classdoris_1_1_object_pool.html#a034148f79c9a093574ce5b6a020283f8" target="_top" xlink:title=" ">
<polygon fill="white" stroke="#666666" points="190,-276.5 77,-276.5 77,-257.5 190,-257.5 190,-276.5"/>
<text text-anchor="middle" x="133.5" y="-264.5" font-family="Helvetica,sans-Serif" font-size="10.00">doris::ObjectPool::add</text>
</a>
</g>
</g>
<!-- Node1&#45;&gt;Node2 -->
<g id="edge1" class="edge">
<title>Node1&#45;&gt;Node2</title>
<path fill="none" stroke="#63b8ff" d="M30.92,-211.66C41.36,-221.91 59.1,-237.96 77,-248 80.01,-249.69 83.2,-251.26 86.46,-252.72"/>
<polygon fill="#63b8ff" stroke="#63b8ff" points="85.04,-255.92 95.63,-256.44 87.67,-249.44 85.04,-255.92"/>
</g>
<!-- Node3 -->
<g id="node3" class="node">
<title>Node3</title>
<g id="a_node3"><a xlink:href="../../d4/d00/namespacedoris_1_1io.html#ae677fb4a94f6751e37e2a1941bba2f7f" target="_top" xlink:title=" ">
<polygon fill="white" stroke="#666666" points="187.5,-239 79.5,-239 79.5,-209 187.5,-209 187.5,-239"/>
<text text-anchor="start" x="87.5" y="-227" font-family="Helvetica,sans-Serif" font-size="10.00">doris::io::global_local</text>
<text text-anchor="middle" x="133.5" y="-216" font-family="Helvetica,sans-Serif" font-size="10.00">_filesystem</text>
</a>
</g>
</g>
<!-- Node1&#45;&gt;Node3 -->
<g id="edge2" class="edge">
<title>Node1&#45;&gt;Node3</title>
<path fill="none" stroke="#63b8ff" d="M41.34,-205.93C49.05,-207.46 58.34,-209.3 68,-211.22"/>
<polygon fill="#63b8ff" stroke="#63b8ff" points="67.03,-214.59 77.52,-213.1 68.4,-207.73 67.03,-214.59"/>
</g>
<!-- Node4 -->
<g id="node4" class="node">
<title>Node4</title>
<g id="a_node4"><a xlink:href="../../d9/d8d/classdoris_1_1_status.html#a6ec1a217f203269ab53d2290d602db24" target="_top" xlink:title=" ">
<polygon fill="white" stroke="#666666" points="179.5,-190.5 87.5,-190.5 87.5,-171.5 179.5,-171.5 179.5,-190.5"/>
<text text-anchor="middle" x="133.5" y="-178.5" font-family="Helvetica,sans-Serif" font-size="10.00">doris::Status::OK</text>
</a>
</g>
</g>
<!-- Node1&#45;&gt;Node4 -->
<g id="edge3" class="edge">
<title>Node1&#45;&gt;Node4</title>
<path fill="none" stroke="#63b8ff" d="M41.34,-198.25C51.08,-196.4 63.36,-194.08 75.73,-191.74"/>
<polygon fill="#63b8ff" stroke="#63b8ff" points="76.37,-195.18 85.55,-189.88 75.07,-188.3 76.37,-195.18"/>
</g>
<!-- Node6 -->
<g id="node6" class="node">
<title>Node6</title>
<g id="a_node6"><a xlink:href="../../d0/d8d/classdoris_1_1_ev_http_server.html#a0f55ba1b60aec89c0bca2dfe28b2de4d" target="_top" xlink:title=" ">
<polygon fill="white" stroke="#666666" points="185,-153 82,-153 82,-123 185,-123 185,-153"/>
<text text-anchor="start" x="90" y="-141" font-family="Helvetica,sans-Serif" font-size="10.00">doris::EvHttpServer</text>
<text text-anchor="middle" x="133.5" y="-130" font-family="Helvetica,sans-Serif" font-size="10.00">::register_handler</text>
</a>
</g>
</g>
<!-- Node1&#45;&gt;Node6 -->
<g id="edge5" class="edge">
<title>Node1&#45;&gt;Node6</title>
<path fill="none" stroke="#63b8ff" d="M33.84,-192.31C44.8,-183.95 61.45,-171.86 77,-163 79.75,-161.43 82.63,-159.89 85.55,-158.38"/>
<polygon fill="#63b8ff" stroke="#63b8ff" points="86.8,-161.67 94.23,-154.11 83.71,-155.38 86.8,-161.67"/>
</g>
<!-- Node5 -->
<g id="node5" class="node">
<title>Node5</title>
<g id="a_node5"><a xlink:href="../../d9/d8d/classdoris_1_1_status.html#aafde58df1b2a6a91d5b674373be3ffc5" target="_top" xlink:title=" ">
<polygon fill="white" stroke="#666666" points="334.5,-190.5 227.5,-190.5 227.5,-171.5 334.5,-171.5 334.5,-190.5"/>
<text text-anchor="middle" x="281" y="-178.5" font-family="Helvetica,sans-Serif" font-size="10.00">doris::Status::Status</text>
</a>
</g>
</g>
<!-- Node4&#45;&gt;Node5 -->
<g id="edge4" class="edge">
<title>Node4&#45;&gt;Node5</title>
<path fill="none" stroke="#63b8ff" d="M179.74,-181C191.12,-181 203.55,-181 215.67,-181"/>
<polygon fill="#63b8ff" stroke="#63b8ff" points="215.63,-184.5 225.63,-181 215.63,-177.5 215.63,-184.5"/>
</g>
<!-- Node7 -->
<g id="node7" class="node">
<title>Node7</title>
<g id="a_node7"><a xlink:href="../../d1/d31/classdoris_1_1_path_trie.html#a2baecdf3211c76b63113941a3d3b6302" target="_top" xlink:title=" ">
<polygon fill="white" stroke="#666666" points="336,-147.5 226,-147.5 226,-128.5 336,-128.5 336,-147.5"/>
<text text-anchor="middle" x="281" y="-135.5" font-family="Helvetica,sans-Serif" font-size="10.00">doris::PathTrie::insert</text>
</a>
</g>
</g>
<!-- Node6&#45;&gt;Node7 -->
<g id="edge6" class="edge">
<title>Node6&#45;&gt;Node7</title>
<path fill="none" stroke="#63b8ff" d="M185.39,-138C194.81,-138 204.78,-138 214.56,-138"/>
<polygon fill="#63b8ff" stroke="#63b8ff" points="214.41,-141.5 224.41,-138 214.41,-134.5 214.41,-141.5"/>
</g>
<!-- Node8 -->
<g id="node8" class="node">
<title>Node8</title>
<g id="a_node8"><a xlink:href="../../d0/dac/classdoris_1_1_path_trie_1_1_allocator.html#a9d1749aefabce48b9e87e0df53964b99" target="_top" xlink:title=" ">
<polygon fill="white" stroke="#666666" points="659.5,-222 534.5,-222 534.5,-192 659.5,-192 659.5,-222"/>
<text text-anchor="start" x="542.5" y="-210" font-family="Helvetica,sans-Serif" font-size="10.00">doris::PathTrie::Allocator</text>
<text text-anchor="middle" x="597" y="-199" font-family="Helvetica,sans-Serif" font-size="10.00">::allocate</text>
</a>
</g>
</g>
<!-- Node7&#45;&gt;Node8 -->
<g id="edge7" class="edge">
<title>Node7&#45;&gt;Node8</title>
<path fill="none" stroke="#63b8ff" d="M309.69,-147.99C327.35,-154.1 350.81,-161.72 372,-167 421.9,-179.43 478.96,-189.56 523.01,-196.52"/>
<polygon fill="#63b8ff" stroke="#63b8ff" points="522.29,-199.95 532.71,-198.03 523.37,-193.03 522.29,-199.95"/>
</g>
<!-- Node9 -->
<g id="node9" class="node">
<title>Node9</title>
<g id="a_node9"><a xlink:href="../../d0/dac/classdoris_1_1_path_trie_1_1_allocator.html#af44528f03290619105c2ff7d3c835ac5" target="_top" xlink:title=" ">
<polygon fill="white" stroke="#666666" points="659.5,-174 534.5,-174 534.5,-144 659.5,-144 659.5,-174"/>
<text text-anchor="start" x="542.5" y="-162" font-family="Helvetica,sans-Serif" font-size="10.00">doris::PathTrie::Allocator</text>
<text text-anchor="middle" x="597" y="-151" font-family="Helvetica,sans-Serif" font-size="10.00">::construct</text>
</a>
</g>
</g>
<!-- Node7&#45;&gt;Node9 -->
<g id="edge8" class="edge">
<title>Node7&#45;&gt;Node9</title>
<path fill="none" stroke="#63b8ff" d="M336.17,-146.05C347.96,-147.57 360.38,-148.99 372,-150 422.19,-154.34 478.89,-156.6 522.68,-157.76"/>
<polygon fill="#63b8ff" stroke="#63b8ff" points="522.5,-161.26 532.59,-158.01 522.68,-154.26 522.5,-161.26"/>
</g>
<!-- Node10 -->
<g id="node10" class="node">
<title>Node10</title>
<g id="a_node10"><a xlink:href="../../d2/d92/classdoris_1_1_path_trie_1_1_trie_node.html#a4f2c3a9ea37358f6818129f597a0be7b" target="_top" xlink:title=" ">
<polygon fill="white" stroke="#666666" points="498,-123 372,-123 372,-93 498,-93 498,-123"/>
<text text-anchor="start" x="380" y="-111" font-family="Helvetica,sans-Serif" font-size="10.00">doris::PathTrie::TrieNode</text>
<text text-anchor="middle" x="435" y="-100" font-family="Helvetica,sans-Serif" font-size="10.00">::insert</text>
</a>
</g>
</g>
<!-- Node7&#45;&gt;Node10 -->
<g id="edge9" class="edge">
<title>Node7&#45;&gt;Node10</title>
<path fill="none" stroke="#63b8ff" d="M332.61,-128.01C341.61,-126.23 351.15,-124.35 360.63,-122.48"/>
<polygon fill="#63b8ff" stroke="#63b8ff" points="361.09,-125.96 370.22,-120.59 359.73,-119.09 361.09,-125.96"/>
</g>
<!-- Node14 -->
<g id="node14" class="node">
<title>Node14</title>
<g id="a_node14"><a xlink:href="../../d1/d31/classdoris_1_1_path_trie.html#a7bbe3dff62a799dc736b43589a39a63a" target="_top" xlink:title=" ">
<polygon fill="white" stroke="#666666" points="487,-74.5 383,-74.5 383,-55.5 487,-55.5 487,-74.5"/>
<text text-anchor="middle" x="435" y="-62.5" font-family="Helvetica,sans-Serif" font-size="10.00">doris::PathTrie::split</text>
</a>
</g>
</g>
<!-- Node7&#45;&gt;Node14 -->
<g id="edge16" class="edge">
<title>Node7&#45;&gt;Node14</title>
<path fill="none" stroke="#63b8ff" d="M296.07,-128.08C313.3,-116.28 343.7,-96.6 372,-84 376.34,-82.07 380.93,-80.26 385.58,-78.58"/>
<polygon fill="#63b8ff" stroke="#63b8ff" points="386.63,-81.92 394.98,-75.4 384.39,-75.29 386.63,-81.92"/>
</g>
<!-- Node10&#45;&gt;Node8 -->
<g id="edge10" class="edge">
<title>Node10&#45;&gt;Node8</title>
<path fill="none" stroke="#63b8ff" d="M453,-123.44C471.76,-139.86 503.36,-165.81 534,-183 536.34,-184.31 538.76,-185.58 541.23,-186.81"/>
<polygon fill="#63b8ff" stroke="#63b8ff" points="539.67,-189.94 550.22,-190.96 542.61,-183.59 539.67,-189.94"/>
</g>
<!-- Node10&#45;&gt;Node9 -->
<g id="edge11" class="edge">
<title>Node10&#45;&gt;Node9</title>
<path fill="none" stroke="#63b8ff" d="M484.44,-123.44C500.97,-128.71 519.64,-134.66 536.91,-140.16"/>
<polygon fill="#63b8ff" stroke="#63b8ff" points="535.42,-143.36 546.01,-143.06 537.54,-136.69 535.42,-143.36"/>
</g>
<!-- Node10&#45;&gt;Node10 -->
<g id="edge14" class="edge">
<title>Node10&#45;&gt;Node10</title>
<path fill="none" stroke="#63b8ff" d="M407.93,-123.28C401.91,-132.41 410.94,-141 435,-141 448.16,-141 456.82,-138.43 460.98,-134.61"/>
<polygon fill="#63b8ff" stroke="#63b8ff" points="464.46,-135.07 461.93,-124.78 457.49,-134.4 464.46,-135.07"/>
</g>
<!-- Node11 -->
<g id="node11" class="node">
<title>Node11</title>
<g id="a_node11"><a xlink:href="../../d2/d92/classdoris_1_1_path_trie_1_1_trie_node.html#a4c4c90d0aa5662fe62d6691a06c7f383" target="_top" xlink:title=" ">
<polygon fill="white" stroke="#666666" points="660,-126 534,-126 534,-96 660,-96 660,-126"/>
<text text-anchor="start" x="542" y="-114" font-family="Helvetica,sans-Serif" font-size="10.00">doris::PathTrie::TrieNode</text>
<text text-anchor="middle" x="597" y="-103" font-family="Helvetica,sans-Serif" font-size="10.00">::extract_template</text>
</a>
</g>
</g>
<!-- Node10&#45;&gt;Node11 -->
<g id="edge12" class="edge">
<title>Node10&#45;&gt;Node11</title>
<path fill="none" stroke="#63b8ff" d="M498.32,-109.17C506.19,-109.32 514.3,-109.47 522.33,-109.62"/>
<polygon fill="#63b8ff" stroke="#63b8ff" points="522.01,-113.11 532.08,-109.8 522.14,-106.11 522.01,-113.11"/>
</g>
<!-- Node12 -->
<g id="node12" class="node">
<title>Node12</title>
<g id="a_node12"><a xlink:href="../../d2/d92/classdoris_1_1_path_trie_1_1_trie_node.html#a2978ffb92d17051a6e4a8d3635c125eb" target="_top" xlink:title=" ">
<polygon fill="white" stroke="#666666" points="660,-78 534,-78 534,-48 660,-48 660,-78"/>
<text text-anchor="start" x="542" y="-66" font-family="Helvetica,sans-Serif" font-size="10.00">doris::PathTrie::TrieNode</text>
<text text-anchor="middle" x="597" y="-55" font-family="Helvetica,sans-Serif" font-size="10.00">::get_child</text>
</a>
</g>
</g>
<!-- Node10&#45;&gt;Node12 -->
<g id="edge13" class="edge">
<title>Node10&#45;&gt;Node12</title>
<path fill="none" stroke="#63b8ff" d="M491.06,-92.51C503.7,-88.96 517.27,-85.14 530.31,-81.48"/>
<polygon fill="#63b8ff" stroke="#63b8ff" points="530.97,-84.93 539.65,-78.85 529.08,-78.19 530.97,-84.93"/>
</g>
<!-- Node13 -->
<g id="node13" class="node">
<title>Node13</title>
<g id="a_node13"><a xlink:href="../../d2/d92/classdoris_1_1_path_trie_1_1_trie_node.html#a915cc742c16ef43d121209e529c10ff9" target="_top" xlink:title=" ">
<polygon fill="white" stroke="#666666" points="660,-30 534,-30 534,0 660,0 660,-30"/>
<text text-anchor="start" x="542" y="-18" font-family="Helvetica,sans-Serif" font-size="10.00">doris::PathTrie::TrieNode</text>
<text text-anchor="middle" x="597" y="-7" font-family="Helvetica,sans-Serif" font-size="10.00">::is_named_wildcard</text>
</a>
</g>
</g>
<!-- Node10&#45;&gt;Node13 -->
<g id="edge15" class="edge">
<title>Node10&#45;&gt;Node13</title>
<path fill="none" stroke="#63b8ff" d="M483.75,-92.54C488.77,-90.05 493.63,-87.21 498,-84 518.65,-68.85 513.35,-54.15 534,-39 535.37,-38 536.78,-37.03 538.23,-36.1"/>
<polygon fill="#63b8ff" stroke="#63b8ff" points="539.94,-39.16 546.93,-31.2 536.5,-33.06 539.94,-39.16"/>
</g>
</g>
</svg>
        <g id="navigator" transform="translate(0 0)" fill="#404254">
                <rect fill="#f2f5e9" fill-opacity="0.5" stroke="#606060" stroke-width=".5" x="0" y="0" width="60" height="60"/>
                <use id="zoomplus" xlink:href="#zoomPlus" x="17" y="9" onmousedown="handleZoom(evt,'in')"/>
                <use id="zoomminus" xlink:href="#zoomMin" x="42" y="9" onmousedown="handleZoom(evt,'out')"/>
                <use id="reset" xlink:href="#resetDef" x="30" y="36" onmousedown="handleReset()"/>
                <g id="arrowUp" xlink:href="#dirArrow" transform="translate(30 24)" onmousedown="handlePan(0,-1)">
                  <use xlink:href="#rim" fill="#404040">
                        <set attributeName="fill" to="#808080" begin="arrowUp.mouseover" end="arrowUp.mouseout"/>
                  </use>
                  <path fill="none" stroke="white" stroke-width="1.5" d="M0,-3.0v7 M-2.5,-0.5L0,-3.0L2.5,-0.5"/>
                </g>
                <g id="arrowRight" xlink:href="#dirArrow" transform="rotate(90) translate(36 -43)" onmousedown="handlePan(1,0)">
                  <use xlink:href="#rim" fill="#404040">
                        <set attributeName="fill" to="#808080" begin="arrowRight.mouseover" end="arrowRight.mouseout"/>
                  </use>
                  <path fill="none" stroke="white" stroke-width="1.5" d="M0,-3.0v7 M-2.5,-0.5L0,-3.0L2.5,-0.5"/>
                </g>
                <g id="arrowDown" xlink:href="#dirArrow" transform="rotate(180) translate(-30 -48)" onmousedown="handlePan(0,1)">
                  <use xlink:href="#rim" fill="#404040">
                        <set attributeName="fill" to="#808080" begin="arrowDown.mouseover" end="arrowDown.mouseout"/>
                  </use>
                  <path fill="none" stroke="white" stroke-width="1.5" d="M0,-3.0v7 M-2.5,-0.5L0,-3.0L2.5,-0.5"/>
                </g>
                <g id="arrowLeft" xlink:href="#dirArrow" transform="rotate(270) translate(-36 17)" onmousedown="handlePan(-1,0)">
                  <use xlink:href="#rim" fill="#404040">
                        <set attributeName="fill" to="#808080" begin="arrowLeft.mouseover" end="arrowLeft.mouseout"/>
                  </use>
                  <path fill="none" stroke="white" stroke-width="1.5" d="M0,-3.0v7 M-2.5,-0.5L0,-3.0L2.5,-0.5"/>
                </g>
        </g>
        <svg viewBox="0 0 15 15" width="100%" height="30px" preserveAspectRatio="xMaxYMin meet">
         <g id="arrow_out" transform="scale(0.3 0.3)">
          <a xlink:href="classdoris_1_1_jeprofile_actions_a832af4f58c3e9a9f713eb93d4a558dcc_cgraph_org.svg" target="_base">
           <rect id="button" ry="5" rx="5" y="6" x="6" height="38" width="38"
                fill="#f2f5e9" fill-opacity="0.5" stroke="#606060" stroke-width="1.0"/>
           <path id="arrow"
             d="M 11.500037,31.436501 C 11.940474,20.09759 22.043105,11.32322 32.158766,21.979434 L 37.068811,17.246167 C 37.068811,17.246167 37.088388,32 37.088388,32 L 22.160133,31.978069 C 22.160133,31.978069 26.997745,27.140456 26.997745,27.140456 C 18.528582,18.264221 13.291696,25.230495 11.500037,31.436501 z"
             style="fill:#404040;"/>
          </a>
         </g>
        </svg>
</svg>
