<?xml version="1.0" encoding="UTF-8" standalone="no"?>
<!DOCTYPE svg PUBLIC "-//W3C//DTD SVG 1.1//EN"
 "http://www.w3.org/Graphics/SVG/1.1/DTD/svg11.dtd">
<!-- Generated by graphviz version 7.1.0 (20230121.1956)
 -->
<!-- Title: update Pages: 1 -->
<!--zoomable 450 -->
<svg id="main" version="1.1" xmlns="http://www.w3.org/2000/svg" xmlns:xlink="http://www.w3.org/1999/xlink" xml:space="preserve" onload="init(evt)">
<style type="text/css"><![CDATA[
.edge:hover path { stroke: red; }
.edge:hover polygon { stroke: red; fill: red; }
]]></style>
<script type="text/javascript"><![CDATA[
var edges = document.getElementsByTagName('g');
if (edges && edges.length) {
  for (var i=0;i<edges.length;i++) {
    if (edges[i].id.substr(0,4)=='edge') {
      edges[i].setAttribute('class','edge');
    }
  }
}
]]></script>
        <defs>
                <circle id="rim" cx="0" cy="0" r="7"/>
                <circle id="rim2" cx="0" cy="0" r="3.5"/>
                <g id="zoomPlus">
                        <use xlink:href="#rim" fill="#404040">
                                <set attributeName="fill" to="#808080" begin="zoomplus.mouseover" end="zoomplus.mouseout"/>
                        </use>
                        <path d="M-4,0h8M0,-4v8" fill="none" stroke="white" stroke-width="1.5" pointer-events="none"/>
                </g>
                <g id="zoomMin">
                        <use xlink:href="#rim" fill="#404040">
                                <set attributeName="fill" to="#808080" begin="zoomminus.mouseover" end="zoomminus.mouseout"/>
                        </use>
                        <path d="M-4,0h8" fill="none" stroke="white" stroke-width="1.5" pointer-events="none"/>
                </g>
                <g id="dirArrow">
                        <path fill="none" stroke="white" stroke-width="1.5" d="M0,-3.0v7 M-2.5,-0.5L0,-3.0L2.5,-0.5"/>
                </g>
               <g id="resetDef">
                       <use xlink:href="#rim2" fill="#404040">
                               <set attributeName="fill" to="#808080" begin="reset.mouseover" end="reset.mouseout"/>
                       </use>
               </g>
        </defs>

<script type="text/javascript">
var viewWidth = 634;
var viewHeight = 450;
var sectionId = 'dynsection-1';
</script>
<script xlink:href="../../svgpan.js"/>
<svg id="graph" class="graph">
<g id="viewport">
<title>update</title>
<!-- Node1 -->
<g id="node1" class="node">
<title>Node1</title>
<g id="a_node1"><a xlink:title=" ">
<polygon fill="#999999" stroke="#666666" points="626,-255 580,-255 580,-236 626,-236 626,-255"/>
<text text-anchor="middle" x="603" y="-243" font-family="Helvetica,sans-Serif" font-size="10.00">update</text>
</a>
</g>
</g>
<!-- Node2 -->
<g id="node2" class="node">
<title>Node2</title>
<g id="a_node2"><a xlink:href="../../dc/d28/structdoris_1_1vectorized_1_1_aggregate_function_uniq_exact_data.html#a9367373a329ed5021240e3a49ac8f535" target="_top" xlink:title=" ">
<polygon fill="white" stroke="#666666" points="544,-442 400,-442 400,-401 544,-401 544,-442"/>
<text text-anchor="start" x="408" y="-430" font-family="Helvetica,sans-Serif" font-size="10.00">doris::vectorized::</text>
<text text-anchor="start" x="408" y="-419" font-family="Helvetica,sans-Serif" font-size="10.00">AggregateFunctionUniqExact</text>
<text text-anchor="middle" x="472" y="-408" font-family="Helvetica,sans-Serif" font-size="10.00">Data::get_key</text>
</a>
</g>
</g>
<!-- Node1&#45;&gt;Node2 -->
<g id="edge1" class="edge">
<title>Node1&#45;&gt;Node2</title>
<path fill="none" stroke="#63b8ff" d="M598.88,-266.64C593.23,-297.81 578.54,-356.21 544,-391.5 540.72,-394.85 537.02,-397.84 533.06,-400.51"/>
<polygon fill="#63b8ff" stroke="#63b8ff" points="602.31,-267.37 600.48,-256.93 595.4,-266.23 602.31,-267.37"/>
</g>
<!-- Node3 -->
<g id="node3" class="node">
<title>Node3</title>
<g id="a_node3"><a xlink:href="../../d2/dc3/classdoris_1_1vectorized_1_1_path_in_data.html#a21220ec160182851cf1545f08f68b128" target="_top" xlink:title=" ">
<polygon fill="white" stroke="#666666" points="541.5,-382.5 402.5,-382.5 402.5,-352.5 541.5,-352.5 541.5,-382.5"/>
<text text-anchor="start" x="410.5" y="-370.5" font-family="Helvetica,sans-Serif" font-size="10.00">doris::vectorized::</text>
<text text-anchor="middle" x="472" y="-359.5" font-family="Helvetica,sans-Serif" font-size="10.00">PathInData::get_parts_hash</text>
</a>
</g>
</g>
<!-- Node1&#45;&gt;Node3 -->
<g id="edge2" class="edge">
<title>Node1&#45;&gt;Node3</title>
<path fill="none" stroke="#63b8ff" d="M593.83,-265.84C584.55,-286.63 567.58,-318.62 544,-338.5 537.59,-343.91 530.03,-348.41 522.28,-352.12"/>
<polygon fill="#63b8ff" stroke="#63b8ff" points="597.02,-267.29 597.7,-256.72 590.57,-264.56 597.02,-267.29"/>
</g>
<!-- Node6 -->
<g id="node6" class="node">
<title>Node6</title>
<g id="a_node6"><a xlink:href="../../d6/dfd/sip__hash_8h.html#a72fd8f6c9eab7d7a495434dcfe5444bb" target="_top" xlink:title=" ">
<polygon fill="white" stroke="#666666" points="507.5,-329 436.5,-329 436.5,-310 507.5,-310 507.5,-329"/>
<text text-anchor="middle" x="472" y="-317" font-family="Helvetica,sans-Serif" font-size="10.00">sip_hash128</text>
</a>
</g>
</g>
<!-- Node1&#45;&gt;Node6 -->
<g id="edge5" class="edge">
<title>Node1&#45;&gt;Node6</title>
<path fill="none" stroke="#63b8ff" d="M587.2,-263.65C576.41,-275.75 560.79,-291.1 544,-300.5 532.98,-306.67 519.86,-310.91 507.92,-313.79"/>
<polygon fill="#63b8ff" stroke="#63b8ff" points="589.62,-266.21 593.46,-256.33 584.3,-261.65 589.62,-266.21"/>
</g>
<!-- Node9 -->
<g id="node9" class="node">
<title>Node9</title>
<g id="a_node9"><a xlink:href="../../d6/dfd/sip__hash_8h.html#a538a5c70354393bec1cb1475030d3095" target="_top" xlink:title=" ">
<polygon fill="white" stroke="#666666" points="505,-292 439,-292 439,-273 505,-273 505,-292"/>
<text text-anchor="middle" x="472" y="-280" font-family="Helvetica,sans-Serif" font-size="10.00">sip_hash64</text>
</a>
</g>
</g>
<!-- Node1&#45;&gt;Node9 -->
<g id="edge8" class="edge">
<title>Node1&#45;&gt;Node9</title>
<path fill="none" stroke="#63b8ff" d="M568.8,-256.05C560.7,-258.56 552.06,-261.17 544,-263.5 531.37,-267.15 517.41,-270.94 505.24,-274.16"/>
<polygon fill="#63b8ff" stroke="#63b8ff" points="569.81,-259.4 578.31,-253.08 567.72,-252.72 569.81,-259.4"/>
</g>
<!-- Node11 -->
<g id="node11" class="node">
<title>Node11</title>
<g id="a_node11"><a xlink:href="../../d4/d37/class_sip_hash.html#a9a122f2ad1f4f07e6d020af8efde0508" target="_top" xlink:title="NOTE: std::has_unique_object_representations is only available since clang 6. As of Mar 2017 we still...">
<polygon fill="white" stroke="#666666" points="495,-255 449,-255 449,-236 495,-236 495,-255"/>
<text text-anchor="middle" x="472" y="-243" font-family="Helvetica,sans-Serif" font-size="10.00">update</text>
</a>
</g>
</g>
<!-- Node1&#45;&gt;Node11 -->
<g id="edge10" class="edge">
<title>Node1&#45;&gt;Node11</title>
<path fill="none" stroke="#63b8ff" d="M568.19,-245.5C545.15,-245.5 515.29,-245.5 495.21,-245.5"/>
<polygon fill="#63b8ff" stroke="#63b8ff" points="568.02,-249 578.02,-245.5 568.02,-242 568.02,-249"/>
</g>
<!-- Node12 -->
<g id="node12" class="node">
<title>Node12</title>
<g id="a_node12"><a xlink:href="../../da/d55/classdoris_1_1vectorized_1_1_column_decimal.html#aa128e997d4fc36361166ee0e250d9288" target="_top" xlink:title=" ">
<polygon fill="white" stroke="#666666" points="533,-218 411,-218 411,-177 533,-177 533,-218"/>
<text text-anchor="start" x="419" y="-206" font-family="Helvetica,sans-Serif" font-size="10.00">doris::vectorized::</text>
<text text-anchor="start" x="419" y="-195" font-family="Helvetica,sans-Serif" font-size="10.00">ColumnDecimal::update</text>
<text text-anchor="middle" x="472" y="-184" font-family="Helvetica,sans-Serif" font-size="10.00">_hash_with_value</text>
</a>
</g>
</g>
<!-- Node1&#45;&gt;Node12 -->
<g id="edge11" class="edge">
<title>Node1&#45;&gt;Node12</title>
<path fill="none" stroke="#63b8ff" d="M569.04,-233.24C556.94,-228.73 542.88,-223.5 529.31,-218.45"/>
<polygon fill="#63b8ff" stroke="#63b8ff" points="567.52,-236.4 578.11,-236.61 569.96,-229.84 567.52,-236.4"/>
</g>
<!-- Node13 -->
<g id="node13" class="node">
<title>Node13</title>
<g id="a_node13"><a xlink:href="../../d4/d41/classdoris_1_1vectorized_1_1_column_nullable.html#aa128e997d4fc36361166ee0e250d9288" target="_top" xlink:title=" ">
<polygon fill="white" stroke="#666666" points="532.5,-159 411.5,-159 411.5,-118 532.5,-118 532.5,-159"/>
<text text-anchor="start" x="419.5" y="-147" font-family="Helvetica,sans-Serif" font-size="10.00">doris::vectorized::</text>
<text text-anchor="start" x="419.5" y="-136" font-family="Helvetica,sans-Serif" font-size="10.00">ColumnNullable::update</text>
<text text-anchor="middle" x="472" y="-125" font-family="Helvetica,sans-Serif" font-size="10.00">_hash_with_value</text>
</a>
</g>
</g>
<!-- Node1&#45;&gt;Node13 -->
<g id="edge12" class="edge">
<title>Node1&#45;&gt;Node13</title>
<path fill="none" stroke="#63b8ff" d="M591.5,-225.81C581.36,-208.43 564.54,-183.43 544,-167.5 540.21,-164.56 536.09,-161.88 531.79,-159.43"/>
<polygon fill="#63b8ff" stroke="#63b8ff" points="588.25,-227.17 596.19,-234.19 594.36,-223.75 588.25,-227.17"/>
</g>
<!-- Node14 -->
<g id="node14" class="node">
<title>Node14</title>
<g id="a_node14"><a xlink:href="../../d7/d3c/classdoris_1_1vectorized_1_1_column_string.html#aa128e997d4fc36361166ee0e250d9288" target="_top" xlink:title=" ">
<polygon fill="white" stroke="#666666" points="527.5,-100 416.5,-100 416.5,-59 527.5,-59 527.5,-100"/>
<text text-anchor="start" x="424.5" y="-88" font-family="Helvetica,sans-Serif" font-size="10.00">doris::vectorized::</text>
<text text-anchor="start" x="424.5" y="-77" font-family="Helvetica,sans-Serif" font-size="10.00">ColumnString::update</text>
<text text-anchor="middle" x="472" y="-66" font-family="Helvetica,sans-Serif" font-size="10.00">_hash_with_value</text>
</a>
</g>
</g>
<!-- Node1&#45;&gt;Node14 -->
<g id="edge13" class="edge">
<title>Node1&#45;&gt;Node14</title>
<path fill="none" stroke="#63b8ff" d="M598.38,-224.77C592.21,-195.25 576.97,-141.05 544,-108.5 539.26,-103.82 533.67,-99.87 527.73,-96.53"/>
<polygon fill="#63b8ff" stroke="#63b8ff" points="594.89,-225.14 600.21,-234.3 601.76,-223.82 594.89,-225.14"/>
</g>
<!-- Node15 -->
<g id="node15" class="node">
<title>Node15</title>
<g id="a_node15"><a xlink:href="../../df/d15/classdoris_1_1vectorized_1_1_column_vector.html#aa128e997d4fc36361166ee0e250d9288" target="_top" xlink:title=" ">
<polygon fill="white" stroke="#666666" points="529,-41 415,-41 415,0 529,0 529,-41"/>
<text text-anchor="start" x="423" y="-29" font-family="Helvetica,sans-Serif" font-size="10.00">doris::vectorized::</text>
<text text-anchor="start" x="423" y="-18" font-family="Helvetica,sans-Serif" font-size="10.00">ColumnVector::update</text>
<text text-anchor="middle" x="472" y="-7" font-family="Helvetica,sans-Serif" font-size="10.00">_hash_with_value</text>
</a>
</g>
</g>
<!-- Node1&#45;&gt;Node15 -->
<g id="edge14" class="edge">
<title>Node1&#45;&gt;Node15</title>
<path fill="none" stroke="#63b8ff" d="M601.5,-224.22C599.46,-184.82 589.66,-99.97 544,-49.5 539.8,-44.86 534.75,-40.94 529.3,-37.65"/>
<polygon fill="#63b8ff" stroke="#63b8ff" points="598,-224.14 601.87,-234 604.99,-223.87 598,-224.14"/>
</g>
<!-- Node4 -->
<g id="node4" class="node">
<title>Node4</title>
<g id="a_node4"><a xlink:href="../../dd/d25/structdoris_1_1vectorized_1_1_path_in_data_1_1_hash.html#adfc8c3efe7cbe194d0365374f1bbb517" target="_top" xlink:title=" ">
<polygon fill="white" stroke="#666666" points="356.5,-439.5 213.5,-439.5 213.5,-409.5 356.5,-409.5 356.5,-439.5"/>
<text text-anchor="start" x="221.5" y="-427.5" font-family="Helvetica,sans-Serif" font-size="10.00">doris::vectorized::</text>
<text text-anchor="middle" x="285" y="-416.5" font-family="Helvetica,sans-Serif" font-size="10.00">PathInData::Hash::operator()</text>
</a>
</g>
</g>
<!-- Node3&#45;&gt;Node4 -->
<g id="edge3" class="edge">
<title>Node3&#45;&gt;Node4</title>
<path fill="none" stroke="#63b8ff" d="M410.16,-386.27C395.07,-390.92 378.95,-395.89 364,-400.5 355.06,-403.25 345.55,-406.18 336.35,-409.01"/>
<polygon fill="#63b8ff" stroke="#63b8ff" points="410.95,-389.69 419.48,-383.4 408.89,-383 410.95,-389.69"/>
</g>
<!-- Node5 -->
<g id="node5" class="node">
<title>Node5</title>
<g id="a_node5"><a xlink:href="../../d9/dfa/classdoris_1_1vectorized_1_1_j_s_o_n_data_parser.html#abfe841cd4637c73013686061887d9498" target="_top" xlink:title=" ">
<polygon fill="white" stroke="#666666" points="364,-391 206,-391 206,-350 364,-350 364,-391"/>
<text text-anchor="start" x="214" y="-379" font-family="Helvetica,sans-Serif" font-size="10.00">doris::vectorized::</text>
<text text-anchor="start" x="214" y="-368" font-family="Helvetica,sans-Serif" font-size="10.00">JSONDataParser::traverseArray</text>
<text text-anchor="middle" x="285" y="-357" font-family="Helvetica,sans-Serif" font-size="10.00">Element</text>
</a>
</g>
</g>
<!-- Node3&#45;&gt;Node5 -->
<g id="edge4" class="edge">
<title>Node3&#45;&gt;Node5</title>
<path fill="none" stroke="#63b8ff" d="M390.7,-368.8C381.94,-368.94 373.03,-369.09 364.29,-369.23"/>
<polygon fill="#63b8ff" stroke="#63b8ff" points="390.66,-372.3 400.6,-368.64 390.54,-365.3 390.66,-372.3"/>
</g>
<!-- Node7 -->
<g id="node7" class="node">
<title>Node7</title>
<g id="a_node7"><a xlink:href="../../df/dc4/classdoris_1_1io_1_1_i_file_cache.html#af618e53b20e5e19b7b976dac4620a216" target="_top" xlink:title=" ">
<polygon fill="white" stroke="#666666" points="337,-331.5 233,-331.5 233,-301.5 337,-301.5 337,-331.5"/>
<text text-anchor="start" x="241" y="-319.5" font-family="Helvetica,sans-Serif" font-size="10.00">doris::io::IFileCache</text>
<text text-anchor="middle" x="285" y="-308.5" font-family="Helvetica,sans-Serif" font-size="10.00">::hash</text>
</a>
</g>
</g>
<!-- Node6&#45;&gt;Node7 -->
<g id="edge6" class="edge">
<title>Node6&#45;&gt;Node7</title>
<path fill="none" stroke="#63b8ff" d="M424.9,-318.75C398.32,-318.32 364.85,-317.78 337.42,-317.33"/>
<polygon fill="#63b8ff" stroke="#63b8ff" points="424.63,-322.25 434.69,-318.91 424.75,-315.25 424.63,-322.25"/>
</g>
<!-- Node8 -->
<g id="node8" class="node">
<title>Node8</title>
<g id="a_node8"><a xlink:href="../../d8/dd9/classdoris_1_1io_1_1_cached_remote_file_reader.html#aad080fc5ead0c04227109e513fa4f4c3" target="_top" xlink:title=" ">
<polygon fill="white" stroke="#666666" points="170,-331.5 0,-331.5 0,-301.5 170,-301.5 170,-331.5"/>
<text text-anchor="start" x="8" y="-319.5" font-family="Helvetica,sans-Serif" font-size="10.00">doris::io::CachedRemoteFile</text>
<text text-anchor="middle" x="85" y="-308.5" font-family="Helvetica,sans-Serif" font-size="10.00">Reader::CachedRemoteFileReader</text>
</a>
</g>
</g>
<!-- Node7&#45;&gt;Node8 -->
<g id="edge7" class="edge">
<title>Node7&#45;&gt;Node8</title>
<path fill="none" stroke="#63b8ff" d="M221.28,-316.5C205.13,-316.5 187.48,-316.5 170.42,-316.5"/>
<polygon fill="#63b8ff" stroke="#63b8ff" points="221.24,-320 231.24,-316.5 221.24,-313 221.24,-320"/>
</g>
<!-- Node10 -->
<g id="node10" class="node">
<title>Node10</title>
<g id="a_node10"><a xlink:href="../../d6/dfd/sip__hash_8h.html#a7f14239087ceb93875008ddd88e4c831" target="_top" xlink:title=" ">
<polygon fill="white" stroke="#666666" points="318,-283 252,-283 252,-264 318,-264 318,-283"/>
<text text-anchor="middle" x="285" y="-271" font-family="Helvetica,sans-Serif" font-size="10.00">sip_hash64</text>
</a>
</g>
</g>
<!-- Node9&#45;&gt;Node10 -->
<g id="edge9" class="edge">
<title>Node9&#45;&gt;Node10</title>
<path fill="none" stroke="#63b8ff" d="M427.51,-280.38C394.12,-278.76 348.75,-276.55 318.48,-275.08"/>
<polygon fill="#63b8ff" stroke="#63b8ff" points="427.11,-283.87 437.26,-280.86 427.45,-276.88 427.11,-283.87"/>
</g>
</g>
</svg>
        <g id="navigator" transform="translate(0 0)" fill="#404254">
                <rect fill="#f2f5e9" fill-opacity="0.5" stroke="#606060" stroke-width=".5" x="0" y="0" width="60" height="60"/>
                <use id="zoomplus" xlink:href="#zoomPlus" x="17" y="9" onmousedown="handleZoom(evt,'in')"/>
                <use id="zoomminus" xlink:href="#zoomMin" x="42" y="9" onmousedown="handleZoom(evt,'out')"/>
                <use id="reset" xlink:href="#resetDef" x="30" y="36" onmousedown="handleReset()"/>
                <g id="arrowUp" xlink:href="#dirArrow" transform="translate(30 24)" onmousedown="handlePan(0,-1)">
                  <use xlink:href="#rim" fill="#404040">
                        <set attributeName="fill" to="#808080" begin="arrowUp.mouseover" end="arrowUp.mouseout"/>
                  </use>
                  <path fill="none" stroke="white" stroke-width="1.5" d="M0,-3.0v7 M-2.5,-0.5L0,-3.0L2.5,-0.5"/>
                </g>
                <g id="arrowRight" xlink:href="#dirArrow" transform="rotate(90) translate(36 -43)" onmousedown="handlePan(1,0)">
                  <use xlink:href="#rim" fill="#404040">
                        <set attributeName="fill" to="#808080" begin="arrowRight.mouseover" end="arrowRight.mouseout"/>
                  </use>
                  <path fill="none" stroke="white" stroke-width="1.5" d="M0,-3.0v7 M-2.5,-0.5L0,-3.0L2.5,-0.5"/>
                </g>
                <g id="arrowDown" xlink:href="#dirArrow" transform="rotate(180) translate(-30 -48)" onmousedown="handlePan(0,1)">
                  <use xlink:href="#rim" fill="#404040">
                        <set attributeName="fill" to="#808080" begin="arrowDown.mouseover" end="arrowDown.mouseout"/>
                  </use>
                  <path fill="none" stroke="white" stroke-width="1.5" d="M0,-3.0v7 M-2.5,-0.5L0,-3.0L2.5,-0.5"/>
                </g>
                <g id="arrowLeft" xlink:href="#dirArrow" transform="rotate(270) translate(-36 17)" onmousedown="handlePan(-1,0)">
                  <use xlink:href="#rim" fill="#404040">
                        <set attributeName="fill" to="#808080" begin="arrowLeft.mouseover" end="arrowLeft.mouseout"/>
                  </use>
                  <path fill="none" stroke="white" stroke-width="1.5" d="M0,-3.0v7 M-2.5,-0.5L0,-3.0L2.5,-0.5"/>
                </g>
        </g>
        <svg viewBox="0 0 15 15" width="100%" height="30px" preserveAspectRatio="xMaxYMin meet">
         <g id="arrow_out" transform="scale(0.3 0.3)">
          <a xlink:href="class_sip_hash_a67fa6128a47509a3c050f2372e3cc51e_icgraph_org.svg" target="_base">
           <rect id="button" ry="5" rx="5" y="6" x="6" height="38" width="38"
                fill="#f2f5e9" fill-opacity="0.5" stroke="#606060" stroke-width="1.0"/>
           <path id="arrow"
             d="M 11.500037,31.436501 C 11.940474,20.09759 22.043105,11.32322 32.158766,21.979434 L 37.068811,17.246167 C 37.068811,17.246167 37.088388,32 37.088388,32 L 22.160133,31.978069 C 22.160133,31.978069 26.997745,27.140456 26.997745,27.140456 C 18.528582,18.264221 13.291696,25.230495 11.500037,31.436501 z"
             style="fill:#404040;"/>
          </a>
         </g>
        </svg>
</svg>
