<?xml version="1.0" encoding="UTF-8" standalone="no"?>
<!DOCTYPE svg PUBLIC "-//W3C//DTD SVG 1.1//EN"
 "http://www.w3.org/Graphics/SVG/1.1/DTD/svg11.dtd">
<!-- Generated by graphviz version 7.1.0 (20230121.1956)
 -->
<!-- Title: hash Pages: 1 -->
<svg width="405pt" height="64pt"
 viewBox="0.00 0.00 405.00 64.00" xmlns="http://www.w3.org/2000/svg" xmlns:xlink="http://www.w3.org/1999/xlink">
<g id="graph0" class="graph" transform="scale(1 1) rotate(0) translate(4 60)">
<title>hash</title>
<!-- Node1 -->
<g id="node1" class="node">
<title>Node1</title>
<g id="a_node1"><a xlink:title=" ">
<polygon fill="#999999" stroke="#666666" points="38,-37 0,-37 0,-18 38,-18 38,-37"/>
<text text-anchor="middle" x="19" y="-25" font-family="Helvetica,sans-Serif" font-size="10.00">hash</text>
</a>
</g>
</g>
<!-- Node2 -->
<g id="node2" class="node">
<title>Node2</title>
<g id="a_node2"><a xlink:href="../../d6/dfd/sip__hash_8h.html#a72fd8f6c9eab7d7a495434dcfe5444bb" target="_top" xlink:title=" ">
<polygon fill="white" stroke="#666666" points="145,-37 74,-37 74,-18 145,-18 145,-37"/>
<text text-anchor="middle" x="109.5" y="-25" font-family="Helvetica,sans-Serif" font-size="10.00">sip_hash128</text>
</a>
</g>
</g>
<!-- Node1&#45;&gt;Node2 -->
<g id="edge1" class="edge">
<title>Node1&#45;&gt;Node2</title>
<path fill="none" stroke="#63b8ff" d="M38.34,-27.5C45.37,-27.5 53.75,-27.5 62.23,-27.5"/>
<polygon fill="#63b8ff" stroke="#63b8ff" points="62.22,-31 72.22,-27.5 62.22,-24 62.22,-31"/>
</g>
<!-- Node3 -->
<g id="node3" class="node">
<title>Node3</title>
<g id="a_node3"><a xlink:href="../../d4/d37/class_sip_hash.html#a64bae5e3103c171c37305840842e8a80" target="_top" xlink:title="Get the result in some form. This can only be done once!">
<polygon fill="white" stroke="#666666" points="270,-56 181,-56 181,-37 270,-37 270,-56"/>
<text text-anchor="middle" x="225.5" y="-44" font-family="Helvetica,sans-Serif" font-size="10.00">SipHash::get128</text>
</a>
</g>
</g>
<!-- Node2&#45;&gt;Node3 -->
<g id="edge2" class="edge">
<title>Node2&#45;&gt;Node3</title>
<path fill="none" stroke="#63b8ff" d="M145.32,-33.3C152.98,-34.58 161.26,-35.96 169.49,-37.33"/>
<polygon fill="#63b8ff" stroke="#63b8ff" points="168.68,-40.75 179.12,-38.94 169.83,-33.84 168.68,-40.75"/>
</g>
<!-- Node5 -->
<g id="node5" class="node">
<title>Node5</title>
<g id="a_node5"><a xlink:href="../../d4/d37/class_sip_hash.html#a67fa6128a47509a3c050f2372e3cc51e" target="_top" xlink:title=" ">
<polygon fill="white" stroke="#666666" points="270,-19 181,-19 181,0 270,0 270,-19"/>
<text text-anchor="middle" x="225.5" y="-7" font-family="Helvetica,sans-Serif" font-size="10.00">SipHash::update</text>
</a>
</g>
</g>
<!-- Node2&#45;&gt;Node5 -->
<g id="edge4" class="edge">
<title>Node2&#45;&gt;Node5</title>
<path fill="none" stroke="#63b8ff" d="M145.32,-22C152.98,-20.79 161.26,-19.49 169.49,-18.19"/>
<polygon fill="#63b8ff" stroke="#63b8ff" points="169.79,-21.68 179.12,-16.67 168.69,-14.77 169.79,-21.68"/>
</g>
<!-- Node4 -->
<g id="node4" class="node">
<title>Node4</title>
<g id="a_node4"><a xlink:href="../../d4/d37/class_sip_hash.html#aa953f3de1b4f5f2d8529d8942e1f36b1" target="_top" xlink:title=" ">
<polygon fill="white" stroke="#666666" points="397,-56 306,-56 306,-37 397,-37 397,-56"/>
<text text-anchor="middle" x="351.5" y="-44" font-family="Helvetica,sans-Serif" font-size="10.00">SipHash::finalize</text>
</a>
</g>
</g>
<!-- Node3&#45;&gt;Node4 -->
<g id="edge3" class="edge">
<title>Node3&#45;&gt;Node4</title>
<path fill="none" stroke="#63b8ff" d="M270.22,-46.5C277.99,-46.5 286.18,-46.5 294.25,-46.5"/>
<polygon fill="#63b8ff" stroke="#63b8ff" points="293.99,-50 303.99,-46.5 293.99,-43 293.99,-50"/>
</g>
</g>
</svg>
