<?xml version="1.0" encoding="UTF-8" standalone="no"?>
<!DOCTYPE svg PUBLIC "-//W3C//DTD SVG 1.1//EN"
 "http://www.w3.org/Graphics/SVG/1.1/DTD/svg11.dtd">
<!-- Generated by graphviz version 7.1.0 (20230121.1956)
 -->
<!-- Title: get_return_type Pages: 1 -->
<svg width="446pt" height="134pt"
 viewBox="0.00 0.00 446.00 134.00" xmlns="http://www.w3.org/2000/svg" xmlns:xlink="http://www.w3.org/1999/xlink">
<g id="graph0" class="graph" transform="scale(1 1) rotate(0) translate(4 130)">
<title>get_return_type</title>
<!-- Node1 -->
<g id="node1" class="node">
<title>Node1</title>
<g id="a_node1"><a xlink:title=" ">
<polygon fill="#999999" stroke="#666666" points="84,-96.5 0,-96.5 0,-77.5 84,-77.5 84,-96.5"/>
<text text-anchor="middle" x="42" y="-84.5" font-family="Helvetica,sans-Serif" font-size="10.00">get_return_type</text>
</a>
</g>
</g>
<!-- Node2 -->
<g id="node2" class="node">
<title>Node2</title>
<g id="a_node2"><a xlink:href="../../de/d17/classdoris_1_1vectorized_1_1_data_type_array.html#a7ae98d4d0317822b218f270f93fcae75" target="_top" xlink:title=" ">
<polygon fill="white" stroke="#666666" points="280,-126 120,-126 120,-96 280,-96 280,-126"/>
<text text-anchor="start" x="128" y="-114" font-family="Helvetica,sans-Serif" font-size="10.00">doris::vectorized::</text>
<text text-anchor="middle" x="200" y="-103" font-family="Helvetica,sans-Serif" font-size="10.00">DataTypeArray::get_nested_type</text>
</a>
</g>
</g>
<!-- Node1&#45;&gt;Node2 -->
<g id="edge1" class="edge">
<title>Node1&#45;&gt;Node2</title>
<path fill="none" stroke="#63b8ff" d="M84.4,-93.37C91.99,-94.54 100.18,-95.8 108.57,-97.09"/>
<polygon fill="#63b8ff" stroke="#63b8ff" points="107.77,-100.51 118.19,-98.57 108.83,-93.59 107.77,-100.51"/>
</g>
<!-- Node3 -->
<g id="node3" class="node">
<title>Node3</title>
<g id="a_node3"><a xlink:href="../../d3/d1e/namespacedoris_1_1vectorized.html#a174d35d751f410a19f4bfe649d3cc3a4" target="_top" xlink:title=" ">
<polygon fill="white" stroke="#666666" points="247.5,-78 152.5,-78 152.5,-48 247.5,-48 247.5,-78"/>
<text text-anchor="start" x="160.5" y="-66" font-family="Helvetica,sans-Serif" font-size="10.00">doris::vectorized::</text>
<text text-anchor="middle" x="200" y="-55" font-family="Helvetica,sans-Serif" font-size="10.00">remove_nullable</text>
</a>
</g>
</g>
<!-- Node1&#45;&gt;Node3 -->
<g id="edge2" class="edge">
<title>Node1&#45;&gt;Node3</title>
<path fill="none" stroke="#63b8ff" d="M84.4,-80.63C101.74,-77.96 122.22,-74.81 141.03,-71.92"/>
<polygon fill="#63b8ff" stroke="#63b8ff" points="141.33,-75.41 150.68,-70.43 140.26,-68.5 141.33,-75.41"/>
</g>
<!-- Node4 -->
<g id="node4" class="node">
<title>Node4</title>
<g id="a_node4"><a xlink:href="../../da/d30/class_c_o_w_helper.html#aa14023f47995d24ce0ea777e90a4cb23" target="_top" xlink:title=" ">
<polygon fill="white" stroke="#666666" points="438,-126 316,-126 316,-96 438,-96 438,-126"/>
<text text-anchor="start" x="324" y="-114" font-family="Helvetica,sans-Serif" font-size="10.00">COWHelper&lt; IColumn,</text>
<text text-anchor="middle" x="377" y="-103" font-family="Helvetica,sans-Serif" font-size="10.00"> ColumnConst &gt;::create</text>
</a>
</g>
</g>
<!-- Node3&#45;&gt;Node4 -->
<g id="edge3" class="edge">
<title>Node3&#45;&gt;Node4</title>
<path fill="none" stroke="#63b8ff" d="M247.9,-75.86C266.52,-80.97 288.29,-86.94 308.55,-92.5"/>
<polygon fill="#63b8ff" stroke="#63b8ff" points="307.59,-95.87 318.16,-95.14 309.45,-89.12 307.59,-95.87"/>
</g>
<!-- Node5 -->
<g id="node5" class="node">
<title>Node5</title>
<g id="a_node5"><a xlink:href="../../d3/d1e/namespacedoris_1_1vectorized.html#a85dfa9ef8ec5a8555e00a9314d3a7f4d" target="_top" xlink:title="True if column&#39;s an ColumnConst instance. It&#39;s just a syntax sugar for type check.">
<polygon fill="white" stroke="#666666" points="424.5,-78 329.5,-78 329.5,-48 424.5,-48 424.5,-78"/>
<text text-anchor="start" x="337.5" y="-66" font-family="Helvetica,sans-Serif" font-size="10.00">doris::vectorized::</text>
<text text-anchor="middle" x="377" y="-55" font-family="Helvetica,sans-Serif" font-size="10.00">is_column_const</text>
</a>
</g>
</g>
<!-- Node3&#45;&gt;Node5 -->
<g id="edge4" class="edge">
<title>Node3&#45;&gt;Node5</title>
<path fill="none" stroke="#63b8ff" d="M247.9,-63C269.46,-63 295.26,-63 318.03,-63"/>
<polygon fill="#63b8ff" stroke="#63b8ff" points="317.76,-66.5 327.76,-63 317.76,-59.5 317.76,-66.5"/>
</g>
<!-- Node6 -->
<g id="node6" class="node">
<title>Node6</title>
<g id="a_node6"><a xlink:href="../../d3/d1e/namespacedoris_1_1vectorized.html#a53ba59a5e2f4e69160fec1ee139ff8df" target="_top" xlink:title="True if column&#39;s an ColumnNullable instance. It&#39;s just a syntax sugar for type check.">
<polygon fill="white" stroke="#666666" points="426.5,-30 327.5,-30 327.5,0 426.5,0 426.5,-30"/>
<text text-anchor="start" x="335.5" y="-18" font-family="Helvetica,sans-Serif" font-size="10.00">doris::vectorized::</text>
<text text-anchor="middle" x="377" y="-7" font-family="Helvetica,sans-Serif" font-size="10.00">is_column_nullable</text>
</a>
</g>
</g>
<!-- Node3&#45;&gt;Node6 -->
<g id="edge5" class="edge">
<title>Node3&#45;&gt;Node6</title>
<path fill="none" stroke="#63b8ff" d="M247.9,-50.14C268.86,-44.39 293.81,-37.54 316.1,-31.43"/>
<polygon fill="#63b8ff" stroke="#63b8ff" points="316.96,-34.82 325.68,-28.8 315.11,-28.07 316.96,-34.82"/>
</g>
</g>
</svg>
