<?xml version="1.0" encoding="UTF-8" standalone="no"?>
<!DOCTYPE svg PUBLIC "-//W3C//DTD SVG 1.1//EN"
 "http://www.w3.org/Graphics/SVG/1.1/DTD/svg11.dtd">
<!-- Generated by graphviz version 7.1.0 (20230121.1956)
 -->
<!-- Title: Chunk Pages: 1 -->
<!--zoomable 789 -->
<svg id="main" version="1.1" xmlns="http://www.w3.org/2000/svg" xmlns:xlink="http://www.w3.org/1999/xlink" xml:space="preserve" onload="init(evt)">
<style type="text/css"><![CDATA[
.edge:hover path { stroke: red; }
.edge:hover polygon { stroke: red; fill: red; }
]]></style>
<script type="text/javascript"><![CDATA[
var edges = document.getElementsByTagName('g');
if (edges && edges.length) {
  for (var i=0;i<edges.length;i++) {
    if (edges[i].id.substr(0,4)=='edge') {
      edges[i].setAttribute('class','edge');
    }
  }
}
]]></script>
        <defs>
                <circle id="rim" cx="0" cy="0" r="7"/>
                <circle id="rim2" cx="0" cy="0" r="3.5"/>
                <g id="zoomPlus">
                        <use xlink:href="#rim" fill="#404040">
                                <set attributeName="fill" to="#808080" begin="zoomplus.mouseover" end="zoomplus.mouseout"/>
                        </use>
                        <path d="M-4,0h8M0,-4v8" fill="none" stroke="white" stroke-width="1.5" pointer-events="none"/>
                </g>
                <g id="zoomMin">
                        <use xlink:href="#rim" fill="#404040">
                                <set attributeName="fill" to="#808080" begin="zoomminus.mouseover" end="zoomminus.mouseout"/>
                        </use>
                        <path d="M-4,0h8" fill="none" stroke="white" stroke-width="1.5" pointer-events="none"/>
                </g>
                <g id="dirArrow">
                        <path fill="none" stroke="white" stroke-width="1.5" d="M0,-3.0v7 M-2.5,-0.5L0,-3.0L2.5,-0.5"/>
                </g>
               <g id="resetDef">
                       <use xlink:href="#rim2" fill="#404040">
                               <set attributeName="fill" to="#808080" begin="reset.mouseover" end="reset.mouseout"/>
                       </use>
               </g>
        </defs>

<script type="text/javascript">
var viewWidth = 1399;
var viewHeight = 789;
var sectionId = 'dynsection-2';
</script>
<script xlink:href="../../svgpan.js"/>
<svg id="graph" class="graph">
<g id="viewport">
<title>Chunk</title>
<!-- Node1 -->
<g id="node1" class="node">
<title>Node1</title>
<g id="a_node1"><a xlink:title=" ">
<polygon fill="#999999" stroke="#666666" points="45,-325.5 0,-325.5 0,-306.5 45,-306.5 45,-325.5"/>
<text text-anchor="middle" x="22.5" y="-313.5" font-family="Helvetica,sans-Serif" font-size="10.00">Chunk</text>
</a>
</g>
</g>
<!-- Node2 -->
<g id="node2" class="node">
<title>Node2</title>
<g id="a_node2"><a xlink:href="../../d0/dc1/class_allocator.html#a35677db523083f8c3a508d75cd9bb77b" target="_top" xlink:title="Allocate memory range.">
<polygon fill="white" stroke="#666666" points="162,-325.5 81,-325.5 81,-306.5 162,-306.5 162,-325.5"/>
<text text-anchor="middle" x="121.5" y="-313.5" font-family="Helvetica,sans-Serif" font-size="10.00">Allocator::alloc</text>
</a>
</g>
</g>
<!-- Node1&#45;&gt;Node2 -->
<g id="edge1" class="edge">
<title>Node1&#45;&gt;Node2</title>
<path fill="none" stroke="#63b8ff" d="M45.03,-316C52.32,-316 60.81,-316 69.41,-316"/>
<polygon fill="#63b8ff" stroke="#63b8ff" points="69.17,-319.5 79.17,-316 69.17,-312.5 69.17,-319.5"/>
</g>
<!-- Node3 -->
<g id="node3" class="node">
<title>Node3</title>
<g id="a_node3"><a xlink:href="../../d4/dc8/jemalloc__hook_8cpp.html#a3eac804d3f29b9a9531ff17544ffe3a6" target="_top" xlink:title=" ">
<polygon fill="white" stroke="#666666" points="283,-427.5 241,-427.5 241,-408.5 283,-408.5 283,-427.5"/>
<text text-anchor="middle" x="262" y="-415.5" font-family="Helvetica,sans-Serif" font-size="10.00">calloc</text>
</a>
</g>
</g>
<!-- Node2&#45;&gt;Node3 -->
<g id="edge2" class="edge">
<title>Node2&#45;&gt;Node3</title>
<path fill="none" stroke="#63b8ff" d="M128.67,-325.93C140.12,-343.55 166.4,-380.26 198,-400 207.49,-405.93 219,-409.96 229.56,-412.68"/>
<polygon fill="#63b8ff" stroke="#63b8ff" points="228.52,-416.03 239.04,-414.8 230.05,-409.2 228.52,-416.03"/>
</g>
<!-- Node4 -->
<g id="node4" class="node">
<title>Node4</title>
<g id="a_node4"><a xlink:href="../../d0/dc1/class_allocator.html#a2e4223e7158b40f4e4c5cc08216f0a56" target="_top" xlink:title=" ">
<polygon fill="white" stroke="#666666" points="326,-390.5 198,-390.5 198,-371.5 326,-371.5 326,-390.5"/>
<text text-anchor="middle" x="262" y="-378.5" font-family="Helvetica,sans-Serif" font-size="10.00">Allocator::get_mmap_hint</text>
</a>
</g>
</g>
<!-- Node2&#45;&gt;Node4 -->
<g id="edge3" class="edge">
<title>Node2&#45;&gt;Node4</title>
<path fill="none" stroke="#63b8ff" d="M136.38,-325.95C151.09,-336.13 175.3,-351.86 198,-362 202.34,-363.94 206.94,-365.75 211.59,-367.42"/>
<polygon fill="#63b8ff" stroke="#63b8ff" points="210.42,-370.72 221.02,-370.59 212.65,-364.09 210.42,-370.72"/>
</g>
<!-- Node5 -->
<g id="node5" class="node">
<title>Node5</title>
<g id="a_node5"><a xlink:href="../../d8/d12/classdoris_1_1_chunk_allocator.html#a9a9dc08dc3ea9ce6c54cec1361ea7f7c" target="_top" xlink:title=" ">
<polygon fill="white" stroke="#666666" points="317,-353 207,-353 207,-323 317,-323 317,-353"/>
<text text-anchor="start" x="215" y="-341" font-family="Helvetica,sans-Serif" font-size="10.00">doris::ChunkAllocator</text>
<text text-anchor="middle" x="262" y="-330" font-family="Helvetica,sans-Serif" font-size="10.00">::instance</text>
</a>
</g>
</g>
<!-- Node2&#45;&gt;Node5 -->
<g id="edge4" class="edge">
<title>Node2&#45;&gt;Node5</title>
<path fill="none" stroke="#63b8ff" d="M162.19,-322.3C172.56,-323.95 184.02,-325.77 195.35,-327.57"/>
<polygon fill="#63b8ff" stroke="#63b8ff" points="194.68,-331.01 205.1,-329.12 195.77,-324.1 194.68,-331.01"/>
</g>
<!-- Node6 -->
<g id="node6" class="node">
<title>Node6</title>
<g id="a_node6"><a xlink:href="../../d4/dc8/jemalloc__hook_8cpp.html#a2e6ceaa596afe51437d06b577da8d4f4" target="_top" xlink:title=" ">
<polygon fill="white" stroke="#666666" points="284.5,-304.5 239.5,-304.5 239.5,-285.5 284.5,-285.5 284.5,-304.5"/>
<text text-anchor="middle" x="262" y="-292.5" font-family="Helvetica,sans-Serif" font-size="10.00">malloc</text>
</a>
</g>
</g>
<!-- Node2&#45;&gt;Node6 -->
<g id="edge5" class="edge">
<title>Node2&#45;&gt;Node6</title>
<path fill="none" stroke="#63b8ff" d="M162.19,-309.98C183.07,-306.82 208.37,-302.98 228.14,-299.98"/>
<polygon fill="#63b8ff" stroke="#63b8ff" points="228.5,-303.47 237.86,-298.51 227.45,-296.55 228.5,-303.47"/>
</g>
<!-- Node7 -->
<g id="node7" class="node">
<title>Node7</title>
<g id="a_node7"><a xlink:href="../../d4/dc8/jemalloc__hook_8cpp.html#ad58e19194f27b04ec472424be6304197" target="_top" xlink:title=" ">
<polygon fill="white" stroke="#666666" points="305.5,-267.5 218.5,-267.5 218.5,-248.5 305.5,-248.5 305.5,-267.5"/>
<text text-anchor="middle" x="262" y="-255.5" font-family="Helvetica,sans-Serif" font-size="10.00">posix_memalign</text>
</a>
</g>
</g>
<!-- Node2&#45;&gt;Node7 -->
<g id="edge6" class="edge">
<title>Node2&#45;&gt;Node7</title>
<path fill="none" stroke="#63b8ff" d="M138.81,-306.07C153.79,-297.27 176.81,-284.53 198,-276 202.04,-274.37 206.28,-272.83 210.57,-271.38"/>
<polygon fill="#63b8ff" stroke="#63b8ff" points="211.34,-274.81 219.81,-268.45 209.22,-268.14 211.34,-274.81"/>
</g>
<!-- Node8 -->
<g id="node8" class="node">
<title>Node8</title>
<g id="a_node8"><a xlink:href="../../d0/dc1/class_allocator.html#a8e08404b2e8bf6a8e9720622eec19e64" target="_top" xlink:title=" ">
<polygon fill="white" stroke="#666666" points="320.5,-230 203.5,-230 203.5,-200 320.5,-200 320.5,-230"/>
<text text-anchor="start" x="211.5" y="-218" font-family="Helvetica,sans-Serif" font-size="10.00">Allocator::sys_memory</text>
<text text-anchor="middle" x="262" y="-207" font-family="Helvetica,sans-Serif" font-size="10.00">_check</text>
</a>
</g>
</g>
<!-- Node2&#45;&gt;Node8 -->
<g id="edge7" class="edge">
<title>Node2&#45;&gt;Node8</title>
<path fill="none" stroke="#63b8ff" d="M129.81,-306.16C142.21,-290.08 168.86,-258.07 198,-239 199.84,-237.8 201.74,-236.64 203.7,-235.54"/>
<polygon fill="#63b8ff" stroke="#63b8ff" points="205.12,-238.74 212.43,-231.07 201.94,-232.5 205.12,-238.74"/>
</g>
<!-- Node9 -->
<g id="node9" class="node">
<title>Node9</title>
<g id="a_node9"><a xlink:href="../../de/d1e/classdoris_1_1_mem_tracker_limiter.html#aa01fe0798862ed910892f328d56d0b83" target="_top" xlink:title=" ">
<polygon fill="white" stroke="#666666" points="1023.5,-652.5 895.5,-652.5 895.5,-611.5 1023.5,-611.5 1023.5,-652.5"/>
<text text-anchor="start" x="903.5" y="-640.5" font-family="Helvetica,sans-Serif" font-size="10.00">doris::MemTrackerLimiter</text>
<text text-anchor="start" x="903.5" y="-629.5" font-family="Helvetica,sans-Serif" font-size="10.00">::process_limit_exceeded</text>
<text text-anchor="middle" x="959.5" y="-618.5" font-family="Helvetica,sans-Serif" font-size="10.00">_errmsg_str</text>
</a>
</g>
</g>
<!-- Node8&#45;&gt;Node9 -->
<g id="edge8" class="edge">
<title>Node8&#45;&gt;Node9</title>
<path fill="none" stroke="#63b8ff" d="M306.85,-230.45C313.36,-233.11 319.92,-235.99 326,-239 562.31,-356.07 823.63,-536.11 920.05,-604.43"/>
<polygon fill="#63b8ff" stroke="#63b8ff" points="917.98,-607.25 928.16,-610.19 922.04,-601.54 917.98,-607.25"/>
</g>
<!-- Node16 -->
<g id="node16" class="node">
<title>Node16</title>
<g id="a_node16"><a xlink:href="../../de/d1e/classdoris_1_1_mem_tracker_limiter.html#a200fbcfa5718b35dcb5c42834653cfcb" target="_top" xlink:title=" ">
<polygon fill="white" stroke="#666666" points="519,-230 362,-230 362,-200 519,-200 519,-230"/>
<text text-anchor="start" x="370" y="-218" font-family="Helvetica,sans-Serif" font-size="10.00">doris::MemTrackerLimiter</text>
<text text-anchor="middle" x="440.5" y="-207" font-family="Helvetica,sans-Serif" font-size="10.00">::sys_mem_exceed_limit_check</text>
</a>
</g>
</g>
<!-- Node8&#45;&gt;Node16 -->
<g id="edge16" class="edge">
<title>Node8&#45;&gt;Node16</title>
<path fill="none" stroke="#63b8ff" d="M320.79,-215C330.29,-215 340.32,-215 350.37,-215"/>
<polygon fill="#63b8ff" stroke="#63b8ff" points="350.18,-218.5 360.18,-215 350.18,-211.5 350.18,-218.5"/>
</g>
<!-- Node42 -->
<g id="node42" class="node">
<title>Node42</title>
<g id="a_node42"><a xlink:href="../../d6/d94/namespacedoris.html#aac6d54871694470911d08aaf876eccf3" target="_top" xlink:title=" ">
<polygon fill="white" stroke="#666666" points="494.5,-131.5 386.5,-131.5 386.5,-112.5 494.5,-112.5 494.5,-131.5"/>
<text text-anchor="middle" x="440.5" y="-119.5" font-family="Helvetica,sans-Serif" font-size="10.00">doris::thread_context</text>
</a>
</g>
</g>
<!-- Node8&#45;&gt;Node42 -->
<g id="edge53" class="edge">
<title>Node8&#45;&gt;Node42</title>
<path fill="none" stroke="#63b8ff" d="M292.15,-199.64C325.01,-182.33 378.12,-154.34 410.8,-137.12"/>
<polygon fill="#63b8ff" stroke="#63b8ff" points="412.09,-140.4 419.3,-132.64 408.83,-134.21 412.09,-140.4"/>
</g>
<!-- Node10 -->
<g id="node10" class="node">
<title>Node10</title>
<g id="a_node10"><a xlink:href="../../d6/d2f/classdoris_1_1_perf_counters.html#a558d49056acbc3eb10480c0e0261a4ec" target="_top" xlink:title=" ">
<polygon fill="white" stroke="#666666" points="1199.5,-695 1098.5,-695 1098.5,-665 1199.5,-665 1199.5,-695"/>
<text text-anchor="start" x="1106.5" y="-683" font-family="Helvetica,sans-Serif" font-size="10.00">doris::PerfCounters</text>
<text text-anchor="middle" x="1149" y="-672" font-family="Helvetica,sans-Serif" font-size="10.00">::get_vm_rss_str</text>
</a>
</g>
</g>
<!-- Node9&#45;&gt;Node10 -->
<g id="edge9" class="edge">
<title>Node9&#45;&gt;Node10</title>
<path fill="none" stroke="#63b8ff" d="M1023.98,-648.25C1044.42,-653.48 1067.01,-659.27 1087.24,-664.45"/>
<polygon fill="#63b8ff" stroke="#63b8ff" points="1086.19,-667.79 1096.75,-666.88 1087.93,-661.01 1086.19,-667.79"/>
</g>
<!-- Node11 -->
<g id="node11" class="node">
<title>Node11</title>
<g id="a_node11"><a xlink:href="../../d7/ded/classdoris_1_1_mem_info.html#a0afb80b48044dc2bf2d8e37dcbbb626c" target="_top" xlink:title=" ">
<polygon fill="white" stroke="#666666" points="1204,-647 1094,-647 1094,-617 1204,-617 1204,-647"/>
<text text-anchor="start" x="1102" y="-635" font-family="Helvetica,sans-Serif" font-size="10.00">doris::MemInfo::mem</text>
<text text-anchor="middle" x="1149" y="-624" font-family="Helvetica,sans-Serif" font-size="10.00">_limit_str</text>
</a>
</g>
</g>
<!-- Node9&#45;&gt;Node11 -->
<g id="edge10" class="edge">
<title>Node9&#45;&gt;Node11</title>
<path fill="none" stroke="#63b8ff" d="M1023.98,-632C1042.72,-632 1063.27,-632 1082.15,-632"/>
<polygon fill="#63b8ff" stroke="#63b8ff" points="1082.15,-635.5 1092.15,-632 1082.15,-628.5 1082.15,-635.5"/>
</g>
<!-- Node12 -->
<g id="node12" class="node">
<title>Node12</title>
<g id="a_node12"><a xlink:href="../../d4/db8/classdoris_1_1_pretty_printer.html#aaa3ce08858081586e0f1e563733cadf2" target="_top" xlink:title=" ">
<polygon fill="white" stroke="#666666" points="1378,-738 1280,-738 1280,-708 1378,-708 1378,-738"/>
<text text-anchor="start" x="1288" y="-726" font-family="Helvetica,sans-Serif" font-size="10.00">doris::PrettyPrinter</text>
<text text-anchor="middle" x="1329" y="-715" font-family="Helvetica,sans-Serif" font-size="10.00">::print</text>
</a>
</g>
</g>
<!-- Node9&#45;&gt;Node12 -->
<g id="edge11" class="edge">
<title>Node9&#45;&gt;Node12</title>
<path fill="none" stroke="#63b8ff" d="M993.36,-652.98C1005.29,-660.72 1018.83,-669.64 1031,-678 1047.27,-689.17 1048.45,-697.25 1067,-704 1132.83,-727.96 1214.04,-729.95 1268.22,-727.74"/>
<polygon fill="#63b8ff" stroke="#63b8ff" points="1268.36,-731.24 1278.19,-727.27 1268.03,-724.25 1268.36,-731.24"/>
</g>
<!-- Node13 -->
<g id="node13" class="node">
<title>Node13</title>
<g id="a_node13"><a xlink:href="../../d4/d22/classdoris_1_1_mem_tracker.html#afddbd1c6484c2068e82258ab23478339" target="_top" xlink:title=" ">
<polygon fill="white" stroke="#666666" points="1201,-781 1097,-781 1097,-751 1201,-751 1201,-781"/>
<text text-anchor="start" x="1105" y="-769" font-family="Helvetica,sans-Serif" font-size="10.00">doris::MemTracker::</text>
<text text-anchor="middle" x="1149" y="-758" font-family="Helvetica,sans-Serif" font-size="10.00">print_bytes</text>
</a>
</g>
</g>
<!-- Node9&#45;&gt;Node13 -->
<g id="edge12" class="edge">
<title>Node9&#45;&gt;Node13</title>
<path fill="none" stroke="#63b8ff" d="M999.07,-652.8C1010.15,-659.88 1021.74,-668.45 1031,-678 1052.39,-700.05 1043.18,-717.6 1067,-737 1072.84,-741.75 1079.51,-745.76 1086.47,-749.13"/>
<polygon fill="#63b8ff" stroke="#63b8ff" points="1084.86,-752.24 1095.42,-753.01 1087.65,-745.82 1084.86,-752.24"/>
</g>
<!-- Node14 -->
<g id="node14" class="node">
<title>Node14</title>
<g id="a_node14"><a xlink:href="../../d7/ded/classdoris_1_1_mem_info.html#a84034ffabc1dd7efc2facd45dd17bb67" target="_top" xlink:title=" ">
<polygon fill="white" stroke="#666666" points="1231,-513 1067,-513 1067,-483 1231,-483 1231,-513"/>
<text text-anchor="start" x="1075" y="-501" font-family="Helvetica,sans-Serif" font-size="10.00">doris::MemInfo::sys</text>
<text text-anchor="middle" x="1149" y="-490" font-family="Helvetica,sans-Serif" font-size="10.00">_mem_available_low_water_mark</text>
</a>
</g>
</g>
<!-- Node9&#45;&gt;Node14 -->
<g id="edge14" class="edge">
<title>Node9&#45;&gt;Node14</title>
<path fill="none" stroke="#63b8ff" d="M989.8,-611.06C1024.44,-586.3 1081.85,-545.28 1117.16,-520.04"/>
<polygon fill="#63b8ff" stroke="#63b8ff" points="1119.16,-522.91 1125.26,-514.25 1115.09,-517.22 1119.16,-522.91"/>
</g>
<!-- Node15 -->
<g id="node15" class="node">
<title>Node15</title>
<g id="a_node15"><a xlink:href="../../d7/ded/classdoris_1_1_mem_info.html#a9ac043c4ed2ea3881376025340d1fcf2" target="_top" xlink:title=" ">
<polygon fill="white" stroke="#666666" points="1201,-599 1097,-599 1097,-569 1201,-569 1201,-599"/>
<text text-anchor="start" x="1105" y="-587" font-family="Helvetica,sans-Serif" font-size="10.00">doris::MemInfo::sys</text>
<text text-anchor="middle" x="1149" y="-576" font-family="Helvetica,sans-Serif" font-size="10.00">_mem_available_str</text>
</a>
</g>
</g>
<!-- Node9&#45;&gt;Node15 -->
<g id="edge15" class="edge">
<title>Node9&#45;&gt;Node15</title>
<path fill="none" stroke="#63b8ff" d="M1023.98,-615.75C1043.88,-610.66 1065.81,-605.04 1085.63,-599.97"/>
<polygon fill="#63b8ff" stroke="#63b8ff" points="1086.42,-603.38 1095.24,-597.51 1084.69,-596.59 1086.42,-603.38"/>
</g>
<!-- Node13&#45;&gt;Node12 -->
<g id="edge13" class="edge">
<title>Node13&#45;&gt;Node12</title>
<path fill="none" stroke="#63b8ff" d="M1201.48,-753.56C1222.47,-748.49 1246.86,-742.6 1268.59,-737.35"/>
<polygon fill="#63b8ff" stroke="#63b8ff" points="1269.31,-740.78 1278.21,-735.03 1267.67,-733.97 1269.31,-740.78"/>
</g>
<!-- Node16&#45;&gt;Node14 -->
<g id="edge52" class="edge">
<title>Node16&#45;&gt;Node14</title>
<path fill="none" stroke="#63b8ff" d="M507.56,-230.47C523.06,-233.68 539.55,-236.76 555,-239 660.02,-254.23 952.27,-205.85 1031,-277 1097.04,-336.68 1007.53,-407.78 1067,-474 1067.37,-474.41 1067.74,-474.81 1068.12,-475.21"/>
<polygon fill="#63b8ff" stroke="#63b8ff" points="1065.87,-477.88 1075.79,-481.6 1070.35,-472.51 1065.87,-477.88"/>
</g>
<!-- Node17 -->
<g id="node17" class="node">
<title>Node17</title>
<g id="a_node17"><a xlink:href="../../d7/ded/classdoris_1_1_mem_info.html#a4f3fb17cb00c0d5dbb05901d2922d1e6" target="_top" xlink:title=" ">
<polygon fill="white" stroke="#666666" points="676.5,-230 566.5,-230 566.5,-200 676.5,-200 676.5,-230"/>
<text text-anchor="start" x="574.5" y="-218" font-family="Helvetica,sans-Serif" font-size="10.00">doris::MemInfo::mem</text>
<text text-anchor="middle" x="621.5" y="-207" font-family="Helvetica,sans-Serif" font-size="10.00">_limit</text>
</a>
</g>
</g>
<!-- Node16&#45;&gt;Node17 -->
<g id="edge17" class="edge">
<title>Node16&#45;&gt;Node17</title>
<path fill="none" stroke="#63b8ff" d="M519.49,-215C531.29,-215 543.36,-215 554.87,-215"/>
<polygon fill="#63b8ff" stroke="#63b8ff" points="554.64,-218.5 564.64,-215 554.64,-211.5 554.64,-218.5"/>
</g>
<!-- Node18 -->
<g id="node18" class="node">
<title>Node18</title>
<g id="a_node18"><a xlink:href="../../de/d1e/classdoris_1_1_mem_tracker_limiter.html#a5cdf8645265cb95dd8d7263a3a75959a" target="_top" xlink:title=" ">
<polygon fill="white" stroke="#666666" points="687,-356 556,-356 556,-326 687,-326 687,-356"/>
<text text-anchor="start" x="564" y="-344" font-family="Helvetica,sans-Serif" font-size="10.00">doris::MemTrackerLimiter</text>
<text text-anchor="middle" x="621.5" y="-333" font-family="Helvetica,sans-Serif" font-size="10.00">::print_log_process_usage</text>
</a>
</g>
</g>
<!-- Node16&#45;&gt;Node18 -->
<g id="edge18" class="edge">
<title>Node16&#45;&gt;Node18</title>
<path fill="none" stroke="#63b8ff" d="M463.45,-230.45C495.07,-252.71 553.59,-293.9 589.58,-319.23"/>
<polygon fill="#63b8ff" stroke="#63b8ff" points="587.22,-321.86 597.41,-324.75 591.25,-316.13 587.22,-321.86"/>
</g>
<!-- Node40 -->
<g id="node40" class="node">
<title>Node40</title>
<g id="a_node40"><a xlink:href="../../d7/ded/classdoris_1_1_mem_info.html#aa3b58bac22eebc50b25bddfd49f32d01" target="_top" xlink:title=" ">
<polygon fill="white" stroke="#666666" points="688,-182 555,-182 555,-152 688,-152 688,-182"/>
<text text-anchor="start" x="563" y="-170" font-family="Helvetica,sans-Serif" font-size="10.00">doris::MemInfo::proc</text>
<text text-anchor="middle" x="621.5" y="-159" font-family="Helvetica,sans-Serif" font-size="10.00">_mem_no_allocator_cache</text>
</a>
</g>
</g>
<!-- Node16&#45;&gt;Node40 -->
<g id="edge50" class="edge">
<title>Node16&#45;&gt;Node40</title>
<path fill="none" stroke="#63b8ff" d="M499.12,-199.55C516.05,-195.01 534.73,-190 552.25,-185.3"/>
<polygon fill="#63b8ff" stroke="#63b8ff" points="552.77,-188.79 561.52,-182.81 550.96,-182.02 552.77,-188.79"/>
</g>
<!-- Node41 -->
<g id="node41" class="node">
<title>Node41</title>
<g id="a_node41"><a xlink:href="../../d7/ded/classdoris_1_1_mem_info.html#a6736611bf5253fad5d3ea7ba518b318e" target="_top" xlink:title=" ">
<polygon fill="white" stroke="#666666" points="673.5,-134 569.5,-134 569.5,-104 673.5,-104 673.5,-134"/>
<text text-anchor="start" x="577.5" y="-122" font-family="Helvetica,sans-Serif" font-size="10.00">doris::MemInfo::sys</text>
<text text-anchor="middle" x="621.5" y="-111" font-family="Helvetica,sans-Serif" font-size="10.00">_mem_available</text>
</a>
</g>
</g>
<!-- Node16&#45;&gt;Node41 -->
<g id="edge51" class="edge">
<title>Node16&#45;&gt;Node41</title>
<path fill="none" stroke="#63b8ff" d="M462.46,-199.77C484.65,-184.11 521.1,-159.72 555,-143 557.9,-141.57 560.91,-140.17 563.98,-138.83"/>
<polygon fill="#63b8ff" stroke="#63b8ff" points="565.24,-142.09 573.12,-135.01 562.55,-135.63 565.24,-142.09"/>
</g>
<!-- Node19 -->
<g id="node19" class="node">
<title>Node19</title>
<g id="a_node19"><a xlink:href="../../de/d1e/classdoris_1_1_mem_tracker_limiter.html#a33c5a2d928b7b22bf6ed04c3b4eb29fe" target="_top" xlink:title=" ">
<polygon fill="white" stroke="#666666" points="852,-396 724,-396 724,-366 852,-366 852,-396"/>
<text text-anchor="start" x="732" y="-384" font-family="Helvetica,sans-Serif" font-size="10.00">doris::MemTrackerLimiter</text>
<text text-anchor="middle" x="788" y="-373" font-family="Helvetica,sans-Serif" font-size="10.00">::log_process_usage_str</text>
</a>
</g>
</g>
<!-- Node18&#45;&gt;Node19 -->
<g id="edge19" class="edge">
<title>Node18&#45;&gt;Node19</title>
<path fill="none" stroke="#63b8ff" d="M686.1,-356.47C694.75,-358.57 703.68,-360.74 712.5,-362.88"/>
<polygon fill="#63b8ff" stroke="#63b8ff" points="711.55,-366.26 722.1,-365.22 713.21,-359.45 711.55,-366.26"/>
</g>
<!-- Node20 -->
<g id="node20" class="node">
<title>Node20</title>
<g id="a_node20"><a xlink:href="../../d6/d94/namespacedoris.html#a569b7d25c8a4cf16d59e460946e7103e" target="_top" xlink:title=" ">
<polygon fill="white" stroke="#666666" points="1016,-446.5 903,-446.5 903,-427.5 1016,-427.5 1016,-446.5"/>
<text text-anchor="middle" x="959.5" y="-434.5" font-family="Helvetica,sans-Serif" font-size="10.00">doris::get_stack_trace</text>
</a>
</g>
</g>
<!-- Node19&#45;&gt;Node20 -->
<g id="edge20" class="edge">
<title>Node19&#45;&gt;Node20</title>
<path fill="none" stroke="#63b8ff" d="M826.24,-396.48C844.65,-403.82 867.3,-412.41 888,-419 893.5,-420.75 899.29,-422.45 905.08,-424.06"/>
<polygon fill="#63b8ff" stroke="#63b8ff" points="904.12,-427.43 914.68,-426.65 905.94,-420.67 904.12,-427.43"/>
</g>
<!-- Node22 -->
<g id="node22" class="node">
<title>Node22</title>
<g id="a_node22"><a xlink:href="../../d9/dbd/classdoris_1_1_exec_env.html#a920023e1afb35093f05bf7b69cc5e889" target="_top" xlink:title=" ">
<polygon fill="white" stroke="#666666" points="1031,-409.5 888,-409.5 888,-390.5 1031,-390.5 1031,-409.5"/>
<text text-anchor="middle" x="959.5" y="-397.5" font-family="Helvetica,sans-Serif" font-size="10.00">doris::ExecEnv::GetInstance</text>
</a>
</g>
</g>
<!-- Node19&#45;&gt;Node22 -->
<g id="edge22" class="edge">
<title>Node19&#45;&gt;Node22</title>
<path fill="none" stroke="#63b8ff" d="M852.12,-388.07C859.98,-388.96 868.12,-389.87 876.23,-390.78"/>
<polygon fill="#63b8ff" stroke="#63b8ff" points="875.8,-394.25 886.13,-391.89 876.58,-387.3 875.8,-394.25"/>
</g>
<!-- Node23 -->
<g id="node23" class="node">
<title>Node23</title>
<g id="a_node23"><a xlink:href="../../de/d1e/classdoris_1_1_mem_tracker_limiter.html#a868de8c6686b6d0f5012278a621801fc" target="_top" xlink:title=" ">
<polygon fill="white" stroke="#666666" points="1023.5,-316 895.5,-316 895.5,-286 1023.5,-286 1023.5,-316"/>
<text text-anchor="start" x="903.5" y="-304" font-family="Helvetica,sans-Serif" font-size="10.00">doris::MemTrackerLimiter</text>
<text text-anchor="middle" x="959.5" y="-293" font-family="Helvetica,sans-Serif" font-size="10.00">::log_usage</text>
</a>
</g>
</g>
<!-- Node19&#45;&gt;Node23 -->
<g id="edge23" class="edge">
<title>Node19&#45;&gt;Node23</title>
<path fill="none" stroke="#63b8ff" d="M821.68,-365.58C848.41,-352.96 886.43,-335.02 915.61,-321.24"/>
<polygon fill="#63b8ff" stroke="#63b8ff" points="917,-324.46 924.55,-317.02 914.01,-318.13 917,-324.46"/>
</g>
<!-- Node24 -->
<g id="node24" class="node">
<title>Node24</title>
<g id="a_node24"><a xlink:href="../../de/d1e/classdoris_1_1_mem_tracker_limiter.html#aeddc99121d36fa595f59d581d504a041" target="_top" xlink:title=" ">
<polygon fill="white" stroke="#666666" points="1213,-260 1085,-260 1085,-230 1213,-230 1213,-260"/>
<text text-anchor="start" x="1093" y="-248" font-family="Helvetica,sans-Serif" font-size="10.00">doris::MemTrackerLimiter</text>
<text text-anchor="middle" x="1149" y="-237" font-family="Helvetica,sans-Serif" font-size="10.00">::make_snapshot</text>
</a>
</g>
</g>
<!-- Node19&#45;&gt;Node24 -->
<g id="edge32" class="edge">
<title>Node19&#45;&gt;Node24</title>
<path fill="none" stroke="#63b8ff" d="M852.3,-377.64C914.3,-373.2 1003.39,-363.42 1031,-343 1060.4,-321.25 1039.1,-292.65 1067,-269 1069.38,-266.98 1071.93,-265.13 1074.6,-263.44"/>
<polygon fill="#63b8ff" stroke="#63b8ff" points="1076.25,-266.52 1083.37,-258.68 1072.91,-260.37 1076.25,-266.52"/>
</g>
<!-- Node25 -->
<g id="node25" class="node">
<title>Node25</title>
<g id="a_node25"><a xlink:href="../../d4/d22/classdoris_1_1_mem_tracker.html#a374c86955dec8be60a072d81ab2143aa" target="_top" xlink:title=" ">
<polygon fill="white" stroke="#666666" points="1011.5,-773 907.5,-773 907.5,-743 1011.5,-743 1011.5,-773"/>
<text text-anchor="start" x="915.5" y="-761" font-family="Helvetica,sans-Serif" font-size="10.00">doris::MemTracker::</text>
<text text-anchor="middle" x="959.5" y="-750" font-family="Helvetica,sans-Serif" font-size="10.00">log_usage</text>
</a>
</g>
</g>
<!-- Node19&#45;&gt;Node25 -->
<g id="edge26" class="edge">
<title>Node19&#45;&gt;Node25</title>
<path fill="none" stroke="#63b8ff" d="M789.05,-396.17C790.04,-448.55 800.05,-624.11 888,-726 891.49,-730.05 895.6,-733.61 900.06,-736.74"/>
<polygon fill="#63b8ff" stroke="#63b8ff" points="897.94,-739.55 908.29,-741.79 901.59,-733.58 897.94,-739.55"/>
</g>
<!-- Node26 -->
<g id="node26" class="node">
<title>Node26</title>
<g id="a_node26"><a xlink:href="../../de/d1e/classdoris_1_1_mem_tracker_limiter.html#a301820e1c9928410eb0460a81fee0529" target="_top" xlink:title=" ">
<polygon fill="white" stroke="#666666" points="1028,-212 891,-212 891,-182 1028,-182 1028,-212"/>
<text text-anchor="start" x="899" y="-200" font-family="Helvetica,sans-Serif" font-size="10.00">doris::MemTrackerLimiter</text>
<text text-anchor="middle" x="959.5" y="-189" font-family="Helvetica,sans-Serif" font-size="10.00">::make_process_snapshots</text>
</a>
</g>
</g>
<!-- Node19&#45;&gt;Node26 -->
<g id="edge28" class="edge">
<title>Node19&#45;&gt;Node26</title>
<path fill="none" stroke="#63b8ff" d="M803.16,-365.63C832.82,-333.43 901.65,-258.72 936.88,-220.47"/>
<polygon fill="#63b8ff" stroke="#63b8ff" points="939.03,-223.3 943.24,-213.57 933.89,-218.55 939.03,-223.3"/>
</g>
<!-- Node30 -->
<g id="node30" class="node">
<title>Node30</title>
<g id="a_node30"><a xlink:href="../../de/d1e/classdoris_1_1_mem_tracker_limiter.html#a54e8138f31d2372d986015fe251c4977" target="_top" xlink:title=" ">
<polygon fill="white" stroke="#666666" points="1023.5,-100 895.5,-100 895.5,-70 1023.5,-70 1023.5,-100"/>
<text text-anchor="start" x="903.5" y="-88" font-family="Helvetica,sans-Serif" font-size="10.00">doris::MemTrackerLimiter</text>
<text text-anchor="middle" x="959.5" y="-77" font-family="Helvetica,sans-Serif" font-size="10.00">::make_type_snapshots</text>
</a>
</g>
</g>
<!-- Node19&#45;&gt;Node30 -->
<g id="edge33" class="edge">
<title>Node19&#45;&gt;Node30</title>
<path fill="none" stroke="#63b8ff" d="M794.83,-365.75C808.63,-330.49 845.31,-241.11 888,-173 902.52,-149.83 922.18,-125.75 937.05,-108.65"/>
<polygon fill="#63b8ff" stroke="#63b8ff" points="939.35,-111.34 943.33,-101.52 934.1,-106.71 939.35,-111.34"/>
</g>
<!-- Node35 -->
<g id="node35" class="node">
<title>Node35</title>
<g id="a_node35"><a xlink:href="../../de/d1e/classdoris_1_1_mem_tracker_limiter.html#a89e4569f4c08a4c06f8912ec2a9a861c" target="_top" xlink:title=" ">
<polygon fill="white" stroke="#666666" points="1023.5,-513 895.5,-513 895.5,-483 1023.5,-483 1023.5,-513"/>
<text text-anchor="start" x="903.5" y="-501" font-family="Helvetica,sans-Serif" font-size="10.00">doris::MemTrackerLimiter</text>
<text text-anchor="middle" x="959.5" y="-490" font-family="Helvetica,sans-Serif" font-size="10.00">::process_mem_log_str</text>
</a>
</g>
</g>
<!-- Node19&#45;&gt;Node35 -->
<g id="edge39" class="edge">
<title>Node19&#45;&gt;Node35</title>
<path fill="none" stroke="#63b8ff" d="M807.89,-396.31C827.47,-411.94 859.21,-436.6 888,-456 898.58,-463.13 910.39,-470.41 921.27,-476.87"/>
<polygon fill="#63b8ff" stroke="#63b8ff" points="919.24,-479.73 929.64,-481.77 922.78,-473.69 919.24,-479.73"/>
</g>
<!-- Node39 -->
<g id="node39" class="node">
<title>Node39</title>
<g id="a_node39"><a xlink:href="../../de/d1e/classdoris_1_1_mem_tracker_limiter.html#abfc36faaf4c2d29bb6b19807f5e54309" target="_top" xlink:title=" ">
<polygon fill="white" stroke="#666666" points="1023.5,-717 895.5,-717 895.5,-687 1023.5,-687 1023.5,-717"/>
<text text-anchor="start" x="903.5" y="-705" font-family="Helvetica,sans-Serif" font-size="10.00">doris::MemTrackerLimiter</text>
<text text-anchor="middle" x="959.5" y="-694" font-family="Helvetica,sans-Serif" font-size="10.00">::type_log_usage</text>
</a>
</g>
</g>
<!-- Node19&#45;&gt;Node39 -->
<g id="edge48" class="edge">
<title>Node19&#45;&gt;Node39</title>
<path fill="none" stroke="#63b8ff" d="M790.61,-396.24C796.12,-441.68 817.97,-578.3 888,-662 894.17,-669.37 902.06,-675.65 910.32,-680.91"/>
<polygon fill="#63b8ff" stroke="#63b8ff" points="908.39,-683.83 918.79,-685.84 911.91,-677.78 908.39,-683.83"/>
</g>
<!-- Node21 -->
<g id="node21" class="node">
<title>Node21</title>
<g id="a_node21"><a xlink:href="../../d4/d46/namespacegoogle_1_1glog__internal__namespace__.html#a07cf4471662221986927d079727609d8" target="_top" xlink:title=" ">
<polygon fill="white" stroke="#666666" points="1229,-319.5 1069,-319.5 1069,-278.5 1229,-278.5 1229,-319.5"/>
<text text-anchor="start" x="1077" y="-307.5" font-family="Helvetica,sans-Serif" font-size="10.00">google::glog_internal</text>
<text text-anchor="start" x="1077" y="-296.5" font-family="Helvetica,sans-Serif" font-size="10.00">_namespace_::DumpStackTrace</text>
<text text-anchor="middle" x="1149" y="-285.5" font-family="Helvetica,sans-Serif" font-size="10.00">ToString</text>
</a>
</g>
</g>
<!-- Node20&#45;&gt;Node21 -->
<g id="edge21" class="edge">
<title>Node20&#45;&gt;Node21</title>
<path fill="none" stroke="#63b8ff" d="M1016.19,-428.29C1021.57,-425.88 1026.64,-422.84 1031,-419 1063.64,-390.25 1035.74,-358.24 1067,-328 1067.39,-327.62 1067.78,-327.25 1068.18,-326.88"/>
<polygon fill="#63b8ff" stroke="#63b8ff" points="1070.28,-329.69 1076.03,-320.79 1065.99,-324.16 1070.28,-329.69"/>
</g>
<!-- Node23&#45;&gt;Node23 -->
<g id="edge24" class="edge">
<title>Node23&#45;&gt;Node23</title>
<path fill="none" stroke="#63b8ff" d="M929.35,-316.28C922.65,-325.41 932.7,-334 959.5,-334 974.15,-334 983.8,-331.43 988.44,-327.61"/>
<polygon fill="#63b8ff" stroke="#63b8ff" points="991.9,-328.1 989.49,-317.78 984.94,-327.35 991.9,-328.1"/>
</g>
<!-- Node23&#45;&gt;Node24 -->
<g id="edge25" class="edge">
<title>Node23&#45;&gt;Node24</title>
<path fill="none" stroke="#63b8ff" d="M1011.68,-285.58C1029.22,-280.31 1048.96,-274.38 1067,-269 1072.8,-267.27 1078.83,-265.47 1084.87,-263.68"/>
<polygon fill="#63b8ff" stroke="#63b8ff" points="1085.66,-267.1 1094.25,-260.89 1083.67,-260.38 1085.66,-267.1"/>
</g>
<!-- Node25&#45;&gt;Node13 -->
<g id="edge27" class="edge">
<title>Node25&#45;&gt;Node13</title>
<path fill="none" stroke="#63b8ff" d="M1011.74,-760.19C1034.38,-761.15 1061.22,-762.3 1085.07,-763.31"/>
<polygon fill="#63b8ff" stroke="#63b8ff" points="1084.85,-766.81 1094.99,-763.74 1085.15,-759.82 1084.85,-766.81"/>
</g>
<!-- Node27 -->
<g id="node27" class="node">
<title>Node27</title>
<g id="a_node27"><a xlink:href="../../d7/ded/classdoris_1_1_mem_info.html#a0e6eed9375699189b741331fb4417847" target="_top" xlink:title=" ">
<polygon fill="white" stroke="#666666" points="1211.5,-212 1086.5,-212 1086.5,-182 1211.5,-182 1211.5,-212"/>
<text text-anchor="start" x="1094.5" y="-200" font-family="Helvetica,sans-Serif" font-size="10.00">doris::MemInfo::allocator</text>
<text text-anchor="middle" x="1149" y="-189" font-family="Helvetica,sans-Serif" font-size="10.00">_cache_mem</text>
</a>
</g>
</g>
<!-- Node26&#45;&gt;Node27 -->
<g id="edge29" class="edge">
<title>Node26&#45;&gt;Node27</title>
<path fill="none" stroke="#63b8ff" d="M1028.46,-197C1043.49,-197 1059.48,-197 1074.72,-197"/>
<polygon fill="#63b8ff" stroke="#63b8ff" points="1074.68,-200.5 1084.68,-197 1074.68,-193.5 1074.68,-200.5"/>
</g>
<!-- Node28 -->
<g id="node28" class="node">
<title>Node28</title>
<g id="a_node28"><a xlink:href="../../de/d1e/classdoris_1_1_mem_tracker_limiter.html#a25c116c96eef3840564a15e52bffca30" target="_top" xlink:title=" ">
<polygon fill="white" stroke="#666666" points="1213,-164 1085,-164 1085,-134 1213,-134 1213,-164"/>
<text text-anchor="start" x="1093" y="-152" font-family="Helvetica,sans-Serif" font-size="10.00">doris::MemTrackerLimiter</text>
<text text-anchor="middle" x="1149" y="-141" font-family="Helvetica,sans-Serif" font-size="10.00">::refresh_global_counter</text>
</a>
</g>
</g>
<!-- Node26&#45;&gt;Node28 -->
<g id="edge30" class="edge">
<title>Node26&#45;&gt;Node28</title>
<path fill="none" stroke="#63b8ff" d="M1020.86,-181.55C1038.67,-176.99 1058.34,-171.95 1076.77,-167.24"/>
<polygon fill="#63b8ff" stroke="#63b8ff" points="1077.47,-170.67 1086.29,-164.8 1075.73,-163.89 1077.47,-170.67"/>
</g>
<!-- Node29 -->
<g id="node29" class="node">
<title>Node29</title>
<g id="a_node29"><a xlink:href="../../d6/d94/namespacedoris.html#a588658db90ff5f877ae53623fd1d1ad2" target="_top" xlink:title=" ">
<polygon fill="white" stroke="#666666" points="1379.5,-142 1278.5,-142 1278.5,-112 1379.5,-112 1379.5,-142"/>
<text text-anchor="start" x="1286.5" y="-130" font-family="Helvetica,sans-Serif" font-size="10.00">doris::mem_tracker</text>
<text text-anchor="middle" x="1329" y="-119" font-family="Helvetica,sans-Serif" font-size="10.00">_limiter_pool</text>
</a>
</g>
</g>
<!-- Node28&#45;&gt;Node29 -->
<g id="edge31" class="edge">
<title>Node28&#45;&gt;Node29</title>
<path fill="none" stroke="#63b8ff" d="M1213.26,-141.18C1230.72,-139.02 1249.62,-136.69 1266.95,-134.54"/>
<polygon fill="#63b8ff" stroke="#63b8ff" points="1267.09,-138.06 1276.58,-133.35 1266.23,-131.11 1267.09,-138.06"/>
</g>
<!-- Node30&#45;&gt;Node29 -->
<g id="edge37" class="edge">
<title>Node30&#45;&gt;Node29</title>
<path fill="none" stroke="#63b8ff" d="M1023.68,-92.22C1091.77,-100 1199.41,-112.3 1266.75,-120"/>
<polygon fill="#63b8ff" stroke="#63b8ff" points="1266.18,-123.46 1276.51,-121.12 1266.98,-116.5 1266.18,-123.46"/>
</g>
<!-- Node31 -->
<g id="node31" class="node">
<title>Node31</title>
<g id="a_node31"><a xlink:href="../../d4/d22/classdoris_1_1_mem_tracker.html#a18b642e639c010850b724cb42d632646" target="_top" xlink:title=" ">
<polygon fill="white" stroke="#666666" points="1206.5,-78 1091.5,-78 1091.5,-48 1206.5,-48 1206.5,-78"/>
<text text-anchor="start" x="1099.5" y="-66" font-family="Helvetica,sans-Serif" font-size="10.00">doris::MemTracker::</text>
<text text-anchor="middle" x="1149" y="-55" font-family="Helvetica,sans-Serif" font-size="10.00">make_group_snapshot</text>
</a>
</g>
</g>
<!-- Node30&#45;&gt;Node31 -->
<g id="edge34" class="edge">
<title>Node30&#45;&gt;Node31</title>
<path fill="none" stroke="#63b8ff" d="M1023.98,-77.55C1042.01,-75.44 1061.73,-73.12 1080.02,-70.98"/>
<polygon fill="#63b8ff" stroke="#63b8ff" points="1080.17,-74.48 1089.69,-69.84 1079.35,-67.53 1080.17,-74.48"/>
</g>
<!-- Node34 -->
<g id="node34" class="node">
<title>Node34</title>
<g id="a_node34"><a xlink:href="../../de/d1e/classdoris_1_1_mem_tracker_limiter.html#adf4a6727c689e0038cf2cdd158d5ed2c" target="_top" xlink:title=" ">
<polygon fill="white" stroke="#666666" points="1213,-30 1085,-30 1085,0 1213,0 1213,-30"/>
<text text-anchor="start" x="1093" y="-18" font-family="Helvetica,sans-Serif" font-size="10.00">doris::MemTrackerLimiter</text>
<text text-anchor="middle" x="1149" y="-7" font-family="Helvetica,sans-Serif" font-size="10.00">::type</text>
</a>
</g>
</g>
<!-- Node30&#45;&gt;Node34 -->
<g id="edge38" class="edge">
<title>Node30&#45;&gt;Node34</title>
<path fill="none" stroke="#63b8ff" d="M993.19,-69.67C1014.06,-60.19 1041.82,-48.13 1067,-39 1071.91,-37.22 1077.03,-35.47 1082.19,-33.77"/>
<polygon fill="#63b8ff" stroke="#63b8ff" points="1082.91,-37.22 1091.37,-30.85 1080.78,-30.55 1082.91,-37.22"/>
</g>
<!-- Node32 -->
<g id="node32" class="node">
<title>Node32</title>
<g id="a_node32"><a xlink:href="../../d6/d94/namespacedoris.html#ac76c7411e355c45eda4c98fbdcc00118" target="_top" xlink:title=" ">
<polygon fill="white" stroke="#666666" points="1391,-93.5 1267,-93.5 1267,-74.5 1391,-74.5 1391,-93.5"/>
<text text-anchor="middle" x="1329" y="-81.5" font-family="Helvetica,sans-Serif" font-size="10.00">doris::mem_tracker_pool</text>
</a>
</g>
</g>
<!-- Node31&#45;&gt;Node32 -->
<g id="edge35" class="edge">
<title>Node31&#45;&gt;Node32</title>
<path fill="none" stroke="#63b8ff" d="M1206.81,-69.7C1222.35,-71.54 1239.41,-73.55 1255.69,-75.47"/>
<polygon fill="#63b8ff" stroke="#63b8ff" points="1254.96,-78.91 1265.31,-76.6 1255.78,-71.96 1254.96,-78.91"/>
</g>
<!-- Node33 -->
<g id="node33" class="node">
<title>Node33</title>
<g id="a_node33"><a xlink:href="../../d4/d22/classdoris_1_1_mem_tracker.html#a31e5b0c760f409926eea2b113da097d6" target="_top" xlink:title=" ">
<polygon fill="white" stroke="#666666" points="1381,-56 1277,-56 1277,-26 1381,-26 1381,-56"/>
<text text-anchor="start" x="1285" y="-44" font-family="Helvetica,sans-Serif" font-size="10.00">doris::MemTracker::</text>
<text text-anchor="middle" x="1329" y="-33" font-family="Helvetica,sans-Serif" font-size="10.00">parent_label</text>
</a>
</g>
</g>
<!-- Node31&#45;&gt;Node33 -->
<g id="edge36" class="edge">
<title>Node31&#45;&gt;Node33</title>
<path fill="none" stroke="#63b8ff" d="M1206.81,-55.98C1225.43,-53.68 1246.23,-51.11 1265.27,-48.75"/>
<polygon fill="#63b8ff" stroke="#63b8ff" points="1265.55,-52.25 1275.05,-47.54 1264.69,-45.3 1265.55,-52.25"/>
</g>
<!-- Node35&#45;&gt;Node10 -->
<g id="edge40" class="edge">
<title>Node35&#45;&gt;Node10</title>
<path fill="none" stroke="#63b8ff" d="M970.81,-513.37C997.37,-552.95 1066.14,-655.37 1067,-656 1073.2,-660.55 1080.25,-664.24 1087.55,-667.23"/>
<polygon fill="#63b8ff" stroke="#63b8ff" points="1086.34,-670.51 1096.93,-670.63 1088.72,-663.93 1086.34,-670.51"/>
</g>
<!-- Node35&#45;&gt;Node11 -->
<g id="edge41" class="edge">
<title>Node35&#45;&gt;Node11</title>
<path fill="none" stroke="#63b8ff" d="M971.11,-513.19C988.45,-536.92 1025.17,-582.65 1067,-608 1072.1,-611.09 1077.61,-613.8 1083.29,-616.18"/>
<polygon fill="#63b8ff" stroke="#63b8ff" points="1081.62,-619.29 1092.21,-619.57 1084.11,-612.74 1081.62,-619.29"/>
</g>
<!-- Node35&#45;&gt;Node12 -->
<g id="edge43" class="edge">
<title>Node35&#45;&gt;Node12</title>
<path fill="none" stroke="#63b8ff" d="M1023.94,-512.38C1103.56,-530.45 1229.93,-559.22 1231,-560 1278.55,-594.65 1306.98,-660.33 1319.81,-696.85"/>
<polygon fill="#63b8ff" stroke="#63b8ff" points="1316.44,-697.81 1322.95,-706.17 1323.08,-695.57 1316.44,-697.81"/>
</g>
<!-- Node35&#45;&gt;Node14 -->
<g id="edge45" class="edge">
<title>Node35&#45;&gt;Node14</title>
<path fill="none" stroke="#63b8ff" d="M1023.98,-498C1034.04,-498 1044.63,-498 1055.2,-498"/>
<polygon fill="#63b8ff" stroke="#63b8ff" points="1055.12,-501.5 1065.12,-498 1055.12,-494.5 1055.12,-501.5"/>
</g>
<!-- Node35&#45;&gt;Node15 -->
<g id="edge46" class="edge">
<title>Node35&#45;&gt;Node15</title>
<path fill="none" stroke="#63b8ff" d="M986.66,-513.4C1007.89,-525.56 1038.82,-542.5 1067,-555 1074.51,-558.33 1082.53,-561.57 1090.5,-564.6"/>
<polygon fill="#63b8ff" stroke="#63b8ff" points="1089.26,-567.88 1099.86,-568.07 1091.7,-561.31 1089.26,-567.88"/>
</g>
<!-- Node36 -->
<g id="node36" class="node">
<title>Node36</title>
<g id="a_node36"><a xlink:href="../../d7/ded/classdoris_1_1_mem_info.html#ab8d2cc6e5ffd9a18b4f7323a84055335" target="_top" xlink:title=" ">
<polygon fill="white" stroke="#666666" points="1224.5,-464.5 1073.5,-464.5 1073.5,-445.5 1224.5,-445.5 1224.5,-464.5"/>
<text text-anchor="middle" x="1149" y="-452.5" font-family="Helvetica,sans-Serif" font-size="10.00">doris::MemInfo::physical_mem</text>
</a>
</g>
</g>
<!-- Node35&#45;&gt;Node36 -->
<g id="edge42" class="edge">
<title>Node35&#45;&gt;Node36</title>
<path fill="none" stroke="#63b8ff" d="M1023.98,-483.44C1046.6,-478.26 1071.85,-472.46 1093.63,-467.47"/>
<polygon fill="#63b8ff" stroke="#63b8ff" points="1094.23,-470.92 1103.2,-465.27 1092.67,-464.1 1094.23,-470.92"/>
</g>
<!-- Node37 -->
<g id="node37" class="node">
<title>Node37</title>
<g id="a_node37"><a xlink:href="../../d7/ded/classdoris_1_1_mem_info.html#a79c701a854889cd4b468020b78dde22e" target="_top" xlink:title=" ">
<polygon fill="white" stroke="#666666" points="1201,-427 1097,-427 1097,-397 1201,-397 1201,-427"/>
<text text-anchor="start" x="1105" y="-415" font-family="Helvetica,sans-Serif" font-size="10.00">doris::MemInfo::soft</text>
<text text-anchor="middle" x="1149" y="-404" font-family="Helvetica,sans-Serif" font-size="10.00">_mem_limit_str</text>
</a>
</g>
</g>
<!-- Node35&#45;&gt;Node37 -->
<g id="edge44" class="edge">
<title>Node35&#45;&gt;Node37</title>
<path fill="none" stroke="#63b8ff" d="M985.67,-482.72C1011.77,-467.04 1050.97,-443.96 1067,-437 1073.05,-434.37 1079.47,-431.9 1085.94,-429.6"/>
<polygon fill="#63b8ff" stroke="#63b8ff" points="1087.04,-432.92 1095.39,-426.4 1084.79,-426.29 1087.04,-432.92"/>
</g>
<!-- Node38 -->
<g id="node38" class="node">
<title>Node38</title>
<g id="a_node38"><a xlink:href="../../d7/ded/classdoris_1_1_mem_info.html#ae06d7c467503760ee753ea3825ba5c47" target="_top" xlink:title=" ">
<polygon fill="white" stroke="#666666" points="1212,-378.5 1086,-378.5 1086,-337.5 1212,-337.5 1212,-378.5"/>
<text text-anchor="start" x="1094" y="-366.5" font-family="Helvetica,sans-Serif" font-size="10.00">doris::MemInfo::sys</text>
<text text-anchor="start" x="1094" y="-355.5" font-family="Helvetica,sans-Serif" font-size="10.00">_mem_available_warning</text>
<text text-anchor="middle" x="1149" y="-344.5" font-family="Helvetica,sans-Serif" font-size="10.00">_water_mark</text>
</a>
</g>
</g>
<!-- Node35&#45;&gt;Node38 -->
<g id="edge47" class="edge">
<title>Node35&#45;&gt;Node38</title>
<path fill="none" stroke="#63b8ff" d="M994.75,-482.52C1007.24,-475.68 1020.79,-466.74 1031,-456 1054.56,-431.22 1041.28,-410.53 1067,-388 1069.76,-385.58 1072.74,-383.35 1075.86,-381.29"/>
<polygon fill="#63b8ff" stroke="#63b8ff" points="1077.41,-384.44 1084.3,-376.39 1073.9,-378.39 1077.41,-384.44"/>
</g>
<!-- Node39&#45;&gt;Node13 -->
<g id="edge49" class="edge">
<title>Node39&#45;&gt;Node13</title>
<path fill="none" stroke="#63b8ff" d="M1005.89,-717.49C1031.82,-726.34 1064.54,-737.51 1092.05,-746.9"/>
<polygon fill="#63b8ff" stroke="#63b8ff" points="1090.68,-750.13 1101.27,-750.05 1092.94,-743.51 1090.68,-750.13"/>
</g>
<!-- Node43 -->
<g id="node43" class="node">
<title>Node43</title>
<g id="a_node43"><a xlink:href="../../d6/d94/namespacedoris.html#acdf6d015bf6270fe1af78c95cf27ab78" target="_top" xlink:title=" ">
<polygon fill="white" stroke="#666666" points="675.5,-86 567.5,-86 567.5,-56 675.5,-56 675.5,-86"/>
<text text-anchor="start" x="575.5" y="-74" font-family="Helvetica,sans-Serif" font-size="10.00">doris::pthread_attach</text>
<text text-anchor="middle" x="621.5" y="-63" font-family="Helvetica,sans-Serif" font-size="10.00">_bthread</text>
</a>
</g>
</g>
<!-- Node42&#45;&gt;Node43 -->
<g id="edge54" class="edge">
<title>Node42&#45;&gt;Node43</title>
<path fill="none" stroke="#63b8ff" d="M476.44,-112.05C499.15,-105.57 529.45,-96.94 556.39,-89.27"/>
<polygon fill="#63b8ff" stroke="#63b8ff" points="557.2,-92.68 565.86,-86.57 555.28,-85.94 557.2,-92.68"/>
</g>
</g>
</svg>
        <g id="navigator" transform="translate(0 0)" fill="#404254">
                <rect fill="#f2f5e9" fill-opacity="0.5" stroke="#606060" stroke-width=".5" x="0" y="0" width="60" height="60"/>
                <use id="zoomplus" xlink:href="#zoomPlus" x="17" y="9" onmousedown="handleZoom(evt,'in')"/>
                <use id="zoomminus" xlink:href="#zoomMin" x="42" y="9" onmousedown="handleZoom(evt,'out')"/>
                <use id="reset" xlink:href="#resetDef" x="30" y="36" onmousedown="handleReset()"/>
                <g id="arrowUp" xlink:href="#dirArrow" transform="translate(30 24)" onmousedown="handlePan(0,-1)">
                  <use xlink:href="#rim" fill="#404040">
                        <set attributeName="fill" to="#808080" begin="arrowUp.mouseover" end="arrowUp.mouseout"/>
                  </use>
                  <path fill="none" stroke="white" stroke-width="1.5" d="M0,-3.0v7 M-2.5,-0.5L0,-3.0L2.5,-0.5"/>
                </g>
                <g id="arrowRight" xlink:href="#dirArrow" transform="rotate(90) translate(36 -43)" onmousedown="handlePan(1,0)">
                  <use xlink:href="#rim" fill="#404040">
                        <set attributeName="fill" to="#808080" begin="arrowRight.mouseover" end="arrowRight.mouseout"/>
                  </use>
                  <path fill="none" stroke="white" stroke-width="1.5" d="M0,-3.0v7 M-2.5,-0.5L0,-3.0L2.5,-0.5"/>
                </g>
                <g id="arrowDown" xlink:href="#dirArrow" transform="rotate(180) translate(-30 -48)" onmousedown="handlePan(0,1)">
                  <use xlink:href="#rim" fill="#404040">
                        <set attributeName="fill" to="#808080" begin="arrowDown.mouseover" end="arrowDown.mouseout"/>
                  </use>
                  <path fill="none" stroke="white" stroke-width="1.5" d="M0,-3.0v7 M-2.5,-0.5L0,-3.0L2.5,-0.5"/>
                </g>
                <g id="arrowLeft" xlink:href="#dirArrow" transform="rotate(270) translate(-36 17)" onmousedown="handlePan(-1,0)">
                  <use xlink:href="#rim" fill="#404040">
                        <set attributeName="fill" to="#808080" begin="arrowLeft.mouseover" end="arrowLeft.mouseout"/>
                  </use>
                  <path fill="none" stroke="white" stroke-width="1.5" d="M0,-3.0v7 M-2.5,-0.5L0,-3.0L2.5,-0.5"/>
                </g>
        </g>
        <svg viewBox="0 0 15 15" width="100%" height="30px" preserveAspectRatio="xMaxYMin meet">
         <g id="arrow_out" transform="scale(0.3 0.3)">
          <a xlink:href="structdoris_1_1vectorized_1_1_arena_1_1_chunk_a8cb8b955856744c831f48accf17c4907_cgraph_org.svg" target="_base">
           <rect id="button" ry="5" rx="5" y="6" x="6" height="38" width="38"
                fill="#f2f5e9" fill-opacity="0.5" stroke="#606060" stroke-width="1.0"/>
           <path id="arrow"
             d="M 11.500037,31.436501 C 11.940474,20.09759 22.043105,11.32322 32.158766,21.979434 L 37.068811,17.246167 C 37.068811,17.246167 37.088388,32 37.088388,32 L 22.160133,31.978069 C 22.160133,31.978069 26.997745,27.140456 26.997745,27.140456 C 18.528582,18.264221 13.291696,25.230495 11.500037,31.436501 z"
             style="fill:#404040;"/>
          </a>
         </g>
        </svg>
</svg>
