<?xml version="1.0" encoding="UTF-8" standalone="no"?>
<!DOCTYPE svg PUBLIC "-//W3C//DTD SVG 1.1//EN"
 "http://www.w3.org/Graphics/SVG/1.1/DTD/svg11.dtd">
<!-- Generated by graphviz version 7.1.0 (20230121.1956)
 -->
<!-- Title: size Pages: 1 -->
<!--zoomable 721 -->
<svg id="main" version="1.1" xmlns="http://www.w3.org/2000/svg" xmlns:xlink="http://www.w3.org/1999/xlink" xml:space="preserve" onload="init(evt)">
<style type="text/css"><![CDATA[
.edge:hover path { stroke: red; }
.edge:hover polygon { stroke: red; fill: red; }
]]></style>
<script type="text/javascript"><![CDATA[
var edges = document.getElementsByTagName('g');
if (edges && edges.length) {
  for (var i=0;i<edges.length;i++) {
    if (edges[i].id.substr(0,4)=='edge') {
      edges[i].setAttribute('class','edge');
    }
  }
}
]]></script>
        <defs>
                <circle id="rim" cx="0" cy="0" r="7"/>
                <circle id="rim2" cx="0" cy="0" r="3.5"/>
                <g id="zoomPlus">
                        <use xlink:href="#rim" fill="#404040">
                                <set attributeName="fill" to="#808080" begin="zoomplus.mouseover" end="zoomplus.mouseout"/>
                        </use>
                        <path d="M-4,0h8M0,-4v8" fill="none" stroke="white" stroke-width="1.5" pointer-events="none"/>
                </g>
                <g id="zoomMin">
                        <use xlink:href="#rim" fill="#404040">
                                <set attributeName="fill" to="#808080" begin="zoomminus.mouseover" end="zoomminus.mouseout"/>
                        </use>
                        <path d="M-4,0h8" fill="none" stroke="white" stroke-width="1.5" pointer-events="none"/>
                </g>
                <g id="dirArrow">
                        <path fill="none" stroke="white" stroke-width="1.5" d="M0,-3.0v7 M-2.5,-0.5L0,-3.0L2.5,-0.5"/>
                </g>
               <g id="resetDef">
                       <use xlink:href="#rim2" fill="#404040">
                               <set attributeName="fill" to="#808080" begin="reset.mouseover" end="reset.mouseout"/>
                       </use>
               </g>
        </defs>

<script type="text/javascript">
var viewWidth = 1577;
var viewHeight = 721;
var sectionId = 'dynsection-4';
</script>
<script xlink:href="../../svgpan.js"/>
<svg id="graph" class="graph">
<g id="viewport">
<title>size</title>
<!-- Node1 -->
<g id="node1" class="node">
<title>Node1</title>
<g id="a_node1"><a xlink:title=" ">
<polygon fill="#999999" stroke="#666666" points="1569,-339 1534,-339 1534,-320 1569,-320 1569,-339"/>
<text text-anchor="middle" x="1551.5" y="-327" font-family="Helvetica,sans-Serif" font-size="10.00">size</text>
</a>
</g>
</g>
<!-- Node2 -->
<g id="node2" class="node">
<title>Node2</title>
<g id="a_node2"><a xlink:href="../../d8/dc2/classdoris_1_1vectorized_1_1_arena.html#a21541f1fef5f7191182d945a65deb819" target="_top" xlink:title="Add next contiguous chunk of memory with size not less than specified.">
<polygon fill="white" stroke="#666666" points="1367,-365.5 1272,-365.5 1272,-335.5 1367,-335.5 1367,-365.5"/>
<text text-anchor="start" x="1280" y="-353.5" font-family="Helvetica,sans-Serif" font-size="10.00">doris::vectorized::</text>
<text text-anchor="middle" x="1319.5" y="-342.5" font-family="Helvetica,sans-Serif" font-size="10.00">Arena::add_chunk</text>
</a>
</g>
</g>
<!-- Node1&#45;&gt;Node2 -->
<g id="edge1" class="edge">
<title>Node1&#45;&gt;Node2</title>
<path fill="none" stroke="#63b8ff" d="M1523.48,-344.52C1515.51,-348.2 1506.62,-351.62 1498,-353.5 1454.48,-362.97 1403.54,-360.8 1367.42,-357.1"/>
<polygon fill="#63b8ff" stroke="#63b8ff" points="1524.9,-347.72 1532.3,-340.13 1521.78,-341.45 1524.9,-347.72"/>
</g>
<!-- Node35 -->
<g id="node35" class="node">
<title>Node35</title>
<g id="a_node35"><a xlink:href="../../d8/dc2/classdoris_1_1vectorized_1_1_arena.html#a1a9c7b2d340ab77e9684bab78edab105" target="_top" xlink:title=" ">
<polygon fill="white" stroke="#666666" points="1498,-344.5 1403,-344.5 1403,-314.5 1498,-314.5 1498,-344.5"/>
<text text-anchor="start" x="1411" y="-332.5" font-family="Helvetica,sans-Serif" font-size="10.00">doris::vectorized::</text>
<text text-anchor="middle" x="1450.5" y="-321.5" font-family="Helvetica,sans-Serif" font-size="10.00">Arena::next_size</text>
</a>
</g>
</g>
<!-- Node1&#45;&gt;Node35 -->
<g id="edge37" class="edge">
<title>Node1&#45;&gt;Node35</title>
<path fill="none" stroke="#63b8ff" d="M1522.34,-329.5C1514.83,-329.5 1506.5,-329.5 1498.27,-329.5"/>
<polygon fill="#63b8ff" stroke="#63b8ff" points="1522.19,-333 1532.19,-329.5 1522.19,-326 1522.19,-333"/>
</g>
<!-- Node36 -->
<g id="node36" class="node">
<title>Node36</title>
<g id="a_node36"><a xlink:href="../../d8/d39/structdoris_1_1vectorized_1_1_arena_1_1_chunk.html#a5aab0c1f2cbca353b840193d9d54cdd7" target="_top" xlink:title=" ">
<polygon fill="white" stroke="#666666" points="1476,-296 1425,-296 1425,-277 1476,-277 1476,-296"/>
<text text-anchor="middle" x="1450.5" y="-284" font-family="Helvetica,sans-Serif" font-size="10.00">~Chunk</text>
</a>
</g>
</g>
<!-- Node1&#45;&gt;Node36 -->
<g id="edge39" class="edge">
<title>Node1&#45;&gt;Node36</title>
<path fill="none" stroke="#63b8ff" d="M1523.18,-316.75C1515.1,-313.06 1506.22,-309.06 1498,-305.5 1490.96,-302.45 1483.26,-299.26 1476.19,-296.37"/>
<polygon fill="#63b8ff" stroke="#63b8ff" points="1521.63,-319.9 1532.18,-320.91 1524.57,-313.54 1521.63,-319.9"/>
</g>
<!-- Node3 -->
<g id="node3" class="node">
<title>Node3</title>
<g id="a_node3"><a xlink:href="../../d8/dc2/classdoris_1_1vectorized_1_1_arena.html#ae6c7a06a0d6c88f10fccfc5b72cf42d1" target="_top" xlink:title="Get piece of memory with alignment">
<polygon fill="white" stroke="#666666" points="1236,-503.5 1132,-503.5 1132,-473.5 1236,-473.5 1236,-503.5"/>
<text text-anchor="start" x="1140" y="-491.5" font-family="Helvetica,sans-Serif" font-size="10.00">doris::vectorized::</text>
<text text-anchor="middle" x="1184" y="-480.5" font-family="Helvetica,sans-Serif" font-size="10.00">Arena::aligned_alloc</text>
</a>
</g>
</g>
<!-- Node2&#45;&gt;Node3 -->
<g id="edge2" class="edge">
<title>Node2&#45;&gt;Node3</title>
<path fill="none" stroke="#63b8ff" d="M1295.82,-373.94C1268.44,-402.25 1223.16,-449.05 1199.86,-473.14"/>
<polygon fill="#63b8ff" stroke="#63b8ff" points="1298.21,-376.5 1302.65,-366.88 1293.18,-371.64 1298.21,-376.5"/>
</g>
<!-- Node18 -->
<g id="node18" class="node">
<title>Node18</title>
<g id="a_node18"><a xlink:href="../../d8/dc2/classdoris_1_1vectorized_1_1_arena.html#aeb27080055c9e3a4b7844ccabbd6b823" target="_top" xlink:title="Get piece of memory, without alignment.">
<polygon fill="white" stroke="#666666" points="1231.5,-249.5 1136.5,-249.5 1136.5,-219.5 1231.5,-219.5 1231.5,-249.5"/>
<text text-anchor="start" x="1144.5" y="-237.5" font-family="Helvetica,sans-Serif" font-size="10.00">doris::vectorized::</text>
<text text-anchor="middle" x="1184" y="-226.5" font-family="Helvetica,sans-Serif" font-size="10.00">Arena::alloc</text>
</a>
</g>
</g>
<!-- Node2&#45;&gt;Node18 -->
<g id="edge18" class="edge">
<title>Node2&#45;&gt;Node18</title>
<path fill="none" stroke="#63b8ff" d="M1292.38,-327.8C1265.94,-304.83 1225.78,-269.93 1202.8,-249.97"/>
<polygon fill="#63b8ff" stroke="#63b8ff" points="1289.79,-330.19 1299.63,-334.1 1294.38,-324.9 1289.79,-330.19"/>
</g>
<!-- Node4 -->
<g id="node4" class="node">
<title>Node4</title>
<g id="a_node4"><a xlink:href="../../d8/dc2/classdoris_1_1vectorized_1_1_arena.html#a24ae368e10c4bde6519a2f134455281b" target="_top" xlink:title=" ">
<polygon fill="white" stroke="#666666" points="1088,-616.5 980,-616.5 980,-586.5 1088,-586.5 1088,-616.5"/>
<text text-anchor="start" x="988" y="-604.5" font-family="Helvetica,sans-Serif" font-size="10.00">doris::vectorized::</text>
<text text-anchor="middle" x="1034" y="-593.5" font-family="Helvetica,sans-Serif" font-size="10.00">Arena::aligned_insert</text>
</a>
</g>
</g>
<!-- Node3&#45;&gt;Node4 -->
<g id="edge3" class="edge">
<title>Node3&#45;&gt;Node4</title>
<path fill="none" stroke="#63b8ff" d="M1164.28,-512.68C1148.01,-532.34 1122.89,-559.66 1096,-577.5 1091.26,-580.65 1086.04,-583.48 1080.72,-586"/>
<polygon fill="#63b8ff" stroke="#63b8ff" points="1166.8,-515.14 1170.37,-505.16 1161.36,-510.73 1166.8,-515.14"/>
</g>
<!-- Node5 -->
<g id="node5" class="node">
<title>Node5</title>
<g id="a_node5"><a xlink:href="../../d8/dc2/classdoris_1_1vectorized_1_1_arena.html#a3cbfd92e46c1e28d2b8045e60e8df7bf" target="_top" xlink:title=" ">
<polygon fill="white" stroke="#666666" points="1090.5,-568.5 977.5,-568.5 977.5,-538.5 1090.5,-538.5 1090.5,-568.5"/>
<text text-anchor="start" x="985.5" y="-556.5" font-family="Helvetica,sans-Serif" font-size="10.00">doris::vectorized::</text>
<text text-anchor="middle" x="1034" y="-545.5" font-family="Helvetica,sans-Serif" font-size="10.00">Arena::aligned_realloc</text>
</a>
</g>
</g>
<!-- Node3&#45;&gt;Node5 -->
<g id="edge4" class="edge">
<title>Node3&#45;&gt;Node5</title>
<path fill="none" stroke="#63b8ff" d="M1137.62,-508.43C1115.89,-517.97 1090.28,-529.22 1070.08,-538.09"/>
<polygon fill="#63b8ff" stroke="#63b8ff" points="1138.79,-511.74 1146.54,-504.51 1135.98,-505.33 1138.79,-511.74"/>
</g>
<!-- Node6 -->
<g id="node6" class="node">
<title>Node6</title>
<g id="a_node6"><a xlink:href="../../d8/dc2/classdoris_1_1vectorized_1_1_arena.html#a08b8c07226ca80037dc9b2c0f0ca3fa0" target="_top" xlink:title=" ">
<polygon fill="white" stroke="#666666" points="1081.5,-482.5 986.5,-482.5 986.5,-452.5 1081.5,-452.5 1081.5,-482.5"/>
<text text-anchor="start" x="994.5" y="-470.5" font-family="Helvetica,sans-Serif" font-size="10.00">doris::vectorized::</text>
<text text-anchor="middle" x="1034" y="-459.5" font-family="Helvetica,sans-Serif" font-size="10.00">Arena::alloc</text>
</a>
</g>
</g>
<!-- Node3&#45;&gt;Node6 -->
<g id="edge5" class="edge">
<title>Node3&#45;&gt;Node6</title>
<path fill="none" stroke="#63b8ff" d="M1120.44,-479.62C1107.49,-477.79 1094.06,-475.88 1081.79,-474.14"/>
<polygon fill="#63b8ff" stroke="#63b8ff" points="1119.76,-483.06 1130.15,-481 1120.74,-476.13 1119.76,-483.06"/>
</g>
<!-- Node7 -->
<g id="node7" class="node">
<title>Node7</title>
<g id="a_node7"><a xlink:href="../../d8/dc2/classdoris_1_1vectorized_1_1_arena.html#acebebc9124717f160fe71e7042dddcd2" target="_top" xlink:title=" ">
<polygon fill="white" stroke="#666666" points="926,-530.5 816,-530.5 816,-500.5 926,-500.5 926,-530.5"/>
<text text-anchor="start" x="824" y="-518.5" font-family="Helvetica,sans-Serif" font-size="10.00">doris::vectorized::</text>
<text text-anchor="middle" x="871" y="-507.5" font-family="Helvetica,sans-Serif" font-size="10.00">Arena::alloc_continue</text>
</a>
</g>
</g>
<!-- Node3&#45;&gt;Node7 -->
<g id="edge16" class="edge">
<title>Node3&#45;&gt;Node7</title>
<path fill="none" stroke="#63b8ff" d="M1120.28,-493.95C1063.4,-498.88 980.41,-506.09 926.31,-510.79"/>
<polygon fill="#63b8ff" stroke="#63b8ff" points="1120.48,-497.44 1130.14,-493.09 1119.87,-490.47 1120.48,-497.44"/>
</g>
<!-- Node17 -->
<g id="node17" class="node">
<title>Node17</title>
<g id="a_node17"><a xlink:href="../../d3/d1e/namespacedoris_1_1vectorized.html#a4451c3600ff37d8f68ba10814f9977b4" target="_top" xlink:title="Copy keys to the pool. Then put into pool StringRefs to them and return the pointer to the first.">
<polygon fill="white" stroke="#666666" points="1085,-434.5 983,-434.5 983,-404.5 1085,-404.5 1085,-434.5"/>
<text text-anchor="start" x="991" y="-422.5" font-family="Helvetica,sans-Serif" font-size="10.00">doris::vectorized::</text>
<text text-anchor="middle" x="1034" y="-411.5" font-family="Helvetica,sans-Serif" font-size="10.00">place_keys_in_pool</text>
</a>
</g>
</g>
<!-- Node3&#45;&gt;Node17 -->
<g id="edge17" class="edge">
<title>Node3&#45;&gt;Node17</title>
<path fill="none" stroke="#63b8ff" d="M1145.14,-467.84C1130.03,-459.88 1112.36,-450.92 1096,-443.5 1089.57,-440.58 1082.68,-437.67 1075.93,-434.93"/>
<polygon fill="#63b8ff" stroke="#63b8ff" points="1143.34,-470.85 1153.81,-472.46 1146.63,-464.67 1143.34,-470.85"/>
</g>
<!-- Node6&#45;&gt;Node7 -->
<g id="edge6" class="edge">
<title>Node6&#45;&gt;Node7</title>
<path fill="none" stroke="#63b8ff" d="M975.59,-484.62C958.7,-489.65 940.34,-495.13 923.83,-500.05"/>
<polygon fill="#63b8ff" stroke="#63b8ff" points="976.4,-488.03 984.98,-481.82 974.4,-481.32 976.4,-488.03"/>
</g>
<!-- Node14 -->
<g id="node14" class="node">
<title>Node14</title>
<g id="a_node14"><a xlink:href="../../d8/dc2/classdoris_1_1vectorized_1_1_arena.html#a2b340a5aedf62b51f88311648fb0a77b" target="_top" xlink:title="Insert string without alignment.">
<polygon fill="white" stroke="#666666" points="918.5,-482.5 823.5,-482.5 823.5,-452.5 918.5,-452.5 918.5,-482.5"/>
<text text-anchor="start" x="831.5" y="-470.5" font-family="Helvetica,sans-Serif" font-size="10.00">doris::vectorized::</text>
<text text-anchor="middle" x="871" y="-459.5" font-family="Helvetica,sans-Serif" font-size="10.00">Arena::insert</text>
</a>
</g>
</g>
<!-- Node6&#45;&gt;Node14 -->
<g id="edge13" class="edge">
<title>Node6&#45;&gt;Node14</title>
<path fill="none" stroke="#63b8ff" d="M975.16,-467.5C956.64,-467.5 936.37,-467.5 918.74,-467.5"/>
<polygon fill="#63b8ff" stroke="#63b8ff" points="974.92,-471 984.92,-467.5 974.92,-464 974.92,-471"/>
</g>
<!-- Node16 -->
<g id="node16" class="node">
<title>Node16</title>
<g id="a_node16"><a xlink:href="../../d8/dc2/classdoris_1_1vectorized_1_1_arena.html#a6278c933b5bb9dd528ee678c725787c8" target="_top" xlink:title="NOTE Old memory region is wasted.">
<polygon fill="white" stroke="#666666" points="918.5,-434.5 823.5,-434.5 823.5,-404.5 918.5,-404.5 918.5,-434.5"/>
<text text-anchor="start" x="831.5" y="-422.5" font-family="Helvetica,sans-Serif" font-size="10.00">doris::vectorized::</text>
<text text-anchor="middle" x="871" y="-411.5" font-family="Helvetica,sans-Serif" font-size="10.00">Arena::realloc</text>
</a>
</g>
</g>
<!-- Node6&#45;&gt;Node16 -->
<g id="edge15" class="edge">
<title>Node6&#45;&gt;Node16</title>
<path fill="none" stroke="#63b8ff" d="M975.42,-450.33C956.83,-444.79 936.45,-438.72 918.74,-433.44"/>
<polygon fill="#63b8ff" stroke="#63b8ff" points="974.4,-453.68 984.98,-453.18 976.4,-446.97 974.4,-453.68"/>
</g>
<!-- Node8 -->
<g id="node8" class="node">
<title>Node8</title>
<g id="a_node8"><a xlink:href="../../d9/d99/classdoris_1_1vectorized_1_1_column_array.html#a4ea3b659d53436dfbf08594bdbc2cb87" target="_top" xlink:title=" ">
<polygon fill="white" stroke="#666666" points="762.5,-713 646.5,-713 646.5,-672 762.5,-672 762.5,-713"/>
<text text-anchor="start" x="654.5" y="-701" font-family="Helvetica,sans-Serif" font-size="10.00">doris::vectorized::</text>
<text text-anchor="start" x="654.5" y="-690" font-family="Helvetica,sans-Serif" font-size="10.00">ColumnArray::serialize</text>
<text text-anchor="middle" x="704.5" y="-679" font-family="Helvetica,sans-Serif" font-size="10.00">_value_into_arena</text>
</a>
</g>
</g>
<!-- Node7&#45;&gt;Node8 -->
<g id="edge7" class="edge">
<title>Node7&#45;&gt;Node8</title>
<path fill="none" stroke="#63b8ff" d="M858.34,-540.97C842.43,-573.26 811.14,-628.88 770,-663.5 766.52,-666.42 762.71,-669.11 758.72,-671.56"/>
<polygon fill="#63b8ff" stroke="#63b8ff" points="861.3,-542.87 862.48,-532.34 854.99,-539.84 861.3,-542.87"/>
</g>
<!-- Node9 -->
<g id="node9" class="node">
<title>Node9</title>
<g id="a_node9"><a xlink:href="../../da/d55/classdoris_1_1vectorized_1_1_column_decimal.html#a4ea3b659d53436dfbf08594bdbc2cb87" target="_top" xlink:title=" ">
<polygon fill="white" stroke="#666666" points="768.5,-654 640.5,-654 640.5,-613 768.5,-613 768.5,-654"/>
<text text-anchor="start" x="648.5" y="-642" font-family="Helvetica,sans-Serif" font-size="10.00">doris::vectorized::</text>
<text text-anchor="start" x="648.5" y="-631" font-family="Helvetica,sans-Serif" font-size="10.00">ColumnDecimal::serialize</text>
<text text-anchor="middle" x="704.5" y="-620" font-family="Helvetica,sans-Serif" font-size="10.00">_value_into_arena</text>
</a>
</g>
</g>
<!-- Node7&#45;&gt;Node9 -->
<g id="edge8" class="edge">
<title>Node7&#45;&gt;Node9</title>
<path fill="none" stroke="#63b8ff" d="M847.75,-538.96C828.49,-558.31 799.22,-585.57 770,-604.5 765.57,-607.37 760.81,-610.1 755.95,-612.64"/>
<polygon fill="#63b8ff" stroke="#63b8ff" points="850.05,-541.61 854.54,-532.02 845.04,-536.71 850.05,-541.61"/>
</g>
<!-- Node10 -->
<g id="node10" class="node">
<title>Node10</title>
<g id="a_node10"><a xlink:href="../../d4/d41/classdoris_1_1vectorized_1_1_column_nullable.html#a4ea3b659d53436dfbf08594bdbc2cb87" target="_top" xlink:title=" ">
<polygon fill="white" stroke="#666666" points="768.5,-595 640.5,-595 640.5,-554 768.5,-554 768.5,-595"/>
<text text-anchor="start" x="648.5" y="-583" font-family="Helvetica,sans-Serif" font-size="10.00">doris::vectorized::</text>
<text text-anchor="start" x="648.5" y="-572" font-family="Helvetica,sans-Serif" font-size="10.00">ColumnNullable::serialize</text>
<text text-anchor="middle" x="704.5" y="-561" font-family="Helvetica,sans-Serif" font-size="10.00">_value_into_arena</text>
</a>
</g>
</g>
<!-- Node7&#45;&gt;Node10 -->
<g id="edge9" class="edge">
<title>Node7&#45;&gt;Node10</title>
<path fill="none" stroke="#63b8ff" d="M816.46,-534.7C799.64,-540.73 781,-547.42 763.87,-553.57"/>
<polygon fill="#63b8ff" stroke="#63b8ff" points="817.55,-538.03 825.78,-531.36 815.19,-531.44 817.55,-538.03"/>
</g>
<!-- Node11 -->
<g id="node11" class="node">
<title>Node11</title>
<g id="a_node11"><a xlink:href="../../d7/d3c/classdoris_1_1vectorized_1_1_column_string.html#a4ea3b659d53436dfbf08594bdbc2cb87" target="_top" xlink:title=" ">
<polygon fill="white" stroke="#666666" points="763.5,-536 645.5,-536 645.5,-495 763.5,-495 763.5,-536"/>
<text text-anchor="start" x="653.5" y="-524" font-family="Helvetica,sans-Serif" font-size="10.00">doris::vectorized::</text>
<text text-anchor="start" x="653.5" y="-513" font-family="Helvetica,sans-Serif" font-size="10.00">ColumnString::serialize</text>
<text text-anchor="middle" x="704.5" y="-502" font-family="Helvetica,sans-Serif" font-size="10.00">_value_into_arena</text>
</a>
</g>
</g>
<!-- Node7&#45;&gt;Node11 -->
<g id="edge10" class="edge">
<title>Node7&#45;&gt;Node11</title>
<path fill="none" stroke="#63b8ff" d="M804.53,-515.5C791.05,-515.5 776.93,-515.5 763.72,-515.5"/>
<polygon fill="#63b8ff" stroke="#63b8ff" points="804.17,-519 814.17,-515.5 804.17,-512 804.17,-519"/>
</g>
<!-- Node12 -->
<g id="node12" class="node">
<title>Node12</title>
<g id="a_node12"><a xlink:href="../../df/d15/classdoris_1_1vectorized_1_1_column_vector.html#a4ea3b659d53436dfbf08594bdbc2cb87" target="_top" xlink:title=" ">
<polygon fill="white" stroke="#666666" points="765,-477 644,-477 644,-436 765,-436 765,-477"/>
<text text-anchor="start" x="652" y="-465" font-family="Helvetica,sans-Serif" font-size="10.00">doris::vectorized::</text>
<text text-anchor="start" x="652" y="-454" font-family="Helvetica,sans-Serif" font-size="10.00">ColumnVector::serialize</text>
<text text-anchor="middle" x="704.5" y="-443" font-family="Helvetica,sans-Serif" font-size="10.00">_value_into_arena</text>
</a>
</g>
</g>
<!-- Node7&#45;&gt;Node12 -->
<g id="edge11" class="edge">
<title>Node7&#45;&gt;Node12</title>
<path fill="none" stroke="#63b8ff" d="M816.46,-496.3C799.64,-490.27 781,-483.58 763.87,-477.43"/>
<polygon fill="#63b8ff" stroke="#63b8ff" points="815.19,-499.56 825.78,-499.64 817.55,-492.97 815.19,-499.56"/>
</g>
<!-- Node13 -->
<g id="node13" class="node">
<title>Node13</title>
<g id="a_node13"><a xlink:href="../../df/d0c/classdoris_1_1vectorized_1_1_i_column_dummy.html#ace87f14ef53ecf8124d2bdfc6ad9adfd" target="_top" xlink:title=" ">
<polygon fill="white" stroke="#666666" points="769.5,-418 639.5,-418 639.5,-377 769.5,-377 769.5,-418"/>
<text text-anchor="start" x="647.5" y="-406" font-family="Helvetica,sans-Serif" font-size="10.00">doris::vectorized::</text>
<text text-anchor="start" x="647.5" y="-395" font-family="Helvetica,sans-Serif" font-size="10.00">IColumnDummy::serialize</text>
<text text-anchor="middle" x="704.5" y="-384" font-family="Helvetica,sans-Serif" font-size="10.00">_value_into_arena</text>
</a>
</g>
</g>
<!-- Node7&#45;&gt;Node13 -->
<g id="edge12" class="edge">
<title>Node7&#45;&gt;Node13</title>
<path fill="none" stroke="#63b8ff" d="M808.92,-493.85C807.92,-493.1 806.95,-492.31 806,-491.5 781.22,-470.26 793.95,-449.67 770,-427.5 766.37,-424.14 762.31,-421.1 758.03,-418.36"/>
<polygon fill="#63b8ff" stroke="#63b8ff" points="806.96,-496.75 817.26,-499.21 810.74,-490.86 806.96,-496.75"/>
</g>
<!-- Node15 -->
<g id="node15" class="node">
<title>Node15</title>
<g id="a_node15"><a xlink:href="../../db/d36/hash__table__key__holder_8h.html#a3c08711adb56c1deb398d8a4d53d7706" target="_top" xlink:title=" ">
<polygon fill="white" stroke="#666666" points="764,-359 645,-359 645,-340 764,-340 764,-359"/>
<text text-anchor="middle" x="704.5" y="-347" font-family="Helvetica,sans-Serif" font-size="10.00">key_holder_persist_key</text>
</a>
</g>
</g>
<!-- Node14&#45;&gt;Node15 -->
<g id="edge14" class="edge">
<title>Node14&#45;&gt;Node15</title>
<path fill="none" stroke="#63b8ff" d="M813.29,-449.22C810.71,-447.48 808.26,-445.57 806,-443.5 778.49,-418.2 798.58,-391.59 770,-367.5 766.18,-364.28 761.82,-361.63 757.21,-359.46"/>
<polygon fill="#63b8ff" stroke="#63b8ff" points="811.4,-452.16 821.82,-454.09 814.87,-446.09 811.4,-452.16"/>
</g>
<!-- Node18&#45;&gt;Node17 -->
<g id="edge27" class="edge">
<title>Node18&#45;&gt;Node17</title>
<path fill="none" stroke="#63b8ff" d="M1175.28,-260.38C1163.56,-295.52 1138.09,-358.21 1096,-395.5 1092.34,-398.75 1088.18,-401.58 1083.81,-404.04"/>
<polygon fill="#63b8ff" stroke="#63b8ff" points="1178.56,-261.63 1178.27,-251.04 1171.89,-259.5 1178.56,-261.63"/>
</g>
<!-- Node19 -->
<g id="node19" class="node">
<title>Node19</title>
<g id="a_node19"><a xlink:href="../../d2/da4/structdoris_1_1vectorized_1_1_aggregate_data_container.html#aaf9525ed3994f6bde57db6e3c2dd9ad5" target="_top" xlink:title=" ">
<polygon fill="white" stroke="#666666" points="1096,-386 972,-386 972,-345 1096,-345 1096,-386"/>
<text text-anchor="start" x="980" y="-374" font-family="Helvetica,sans-Serif" font-size="10.00">doris::vectorized::</text>
<text text-anchor="start" x="980" y="-363" font-family="Helvetica,sans-Serif" font-size="10.00">AggregateDataContainer</text>
<text text-anchor="middle" x="1034" y="-352" font-family="Helvetica,sans-Serif" font-size="10.00">::_expand</text>
</a>
</g>
</g>
<!-- Node18&#45;&gt;Node19 -->
<g id="edge19" class="edge">
<title>Node18&#45;&gt;Node19</title>
<path fill="none" stroke="#63b8ff" d="M1166.11,-259.28C1150.07,-281.42 1124.26,-313.64 1096,-335.5 1091.8,-338.75 1087.19,-341.78 1082.45,-344.58"/>
<polygon fill="#63b8ff" stroke="#63b8ff" points="1168.96,-261.31 1171.89,-251.13 1163.25,-257.26 1168.96,-261.31"/>
</g>
<!-- Node22 -->
<g id="node22" class="node">
<title>Node22</title>
<g id="a_node22"><a xlink:href="../../dc/d78/structdoris_1_1vectorized_1_1_row_ref_list_with_flag.html#aeb164a2a2564d4ae7f074913268ab10a" target="_top" xlink:title="insert element after current one">
<polygon fill="white" stroke="#666666" points="1090.5,-327 977.5,-327 977.5,-286 1090.5,-286 1090.5,-327"/>
<text text-anchor="start" x="985.5" y="-315" font-family="Helvetica,sans-Serif" font-size="10.00">doris::vectorized::</text>
<text text-anchor="start" x="985.5" y="-304" font-family="Helvetica,sans-Serif" font-size="10.00">RowRefListWithFlag::</text>
<text text-anchor="middle" x="1034" y="-293" font-family="Helvetica,sans-Serif" font-size="10.00">insert</text>
</a>
</g>
</g>
<!-- Node18&#45;&gt;Node22 -->
<g id="edge22" class="edge">
<title>Node18&#45;&gt;Node22</title>
<path fill="none" stroke="#63b8ff" d="M1141.02,-254.92C1121.28,-264.53 1097.78,-275.96 1077.93,-285.62"/>
<polygon fill="#63b8ff" stroke="#63b8ff" points="1142.43,-258.13 1149.89,-250.61 1139.37,-251.84 1142.43,-258.13"/>
</g>
<!-- Node23 -->
<g id="node23" class="node">
<title>Node23</title>
<g id="a_node23"><a xlink:href="../../d2/d91/structdoris_1_1vectorized_1_1_batch.html#a238276c46f3ae8a479bc7cca5bdbee55" target="_top" xlink:title=" ">
<polygon fill="white" stroke="#666666" points="1081.5,-249.5 986.5,-249.5 986.5,-219.5 1081.5,-219.5 1081.5,-249.5"/>
<text text-anchor="start" x="994.5" y="-237.5" font-family="Helvetica,sans-Serif" font-size="10.00">doris::vectorized::</text>
<text text-anchor="middle" x="1034" y="-226.5" font-family="Helvetica,sans-Serif" font-size="10.00">Batch::insert</text>
</a>
</g>
</g>
<!-- Node18&#45;&gt;Node23 -->
<g id="edge23" class="edge">
<title>Node18&#45;&gt;Node23</title>
<path fill="none" stroke="#63b8ff" d="M1124.92,-234.5C1110.61,-234.5 1095.47,-234.5 1081.78,-234.5"/>
<polygon fill="#63b8ff" stroke="#63b8ff" points="1124.66,-238 1134.66,-234.5 1124.66,-231 1124.66,-238"/>
</g>
<!-- Node24 -->
<g id="node24" class="node">
<title>Node24</title>
<g id="a_node24"><a xlink:href="../../dd/d29/structdoris_1_1vectorized_1_1_row_ref_list.html#a3cfb5ae9d466d362b5536a69181322e3" target="_top" xlink:title="insert element after current one">
<polygon fill="white" stroke="#666666" points="1083,-201.5 985,-201.5 985,-171.5 1083,-171.5 1083,-201.5"/>
<text text-anchor="start" x="993" y="-189.5" font-family="Helvetica,sans-Serif" font-size="10.00">doris::vectorized::</text>
<text text-anchor="middle" x="1034" y="-178.5" font-family="Helvetica,sans-Serif" font-size="10.00">RowRefList::insert</text>
</a>
</g>
</g>
<!-- Node18&#45;&gt;Node24 -->
<g id="edge25" class="edge">
<title>Node18&#45;&gt;Node24</title>
<path fill="none" stroke="#63b8ff" d="M1125.51,-215.85C1111.29,-211.24 1096.22,-206.36 1082.54,-201.92"/>
<polygon fill="#63b8ff" stroke="#63b8ff" points="1124.14,-219.09 1134.73,-218.85 1126.3,-212.43 1124.14,-219.09"/>
</g>
<!-- Node25 -->
<g id="node25" class="node">
<title>Node25</title>
<g id="a_node25"><a xlink:href="../../dd/d75/structdoris_1_1vectorized_1_1_row_ref_list_with_flags.html#a36e43e21109c5b80c442b83432a1e6b8" target="_top" xlink:title="insert element after current one">
<polygon fill="white" stroke="#666666" points="1090.5,-153 977.5,-153 977.5,-112 1090.5,-112 1090.5,-153"/>
<text text-anchor="start" x="985.5" y="-141" font-family="Helvetica,sans-Serif" font-size="10.00">doris::vectorized::</text>
<text text-anchor="start" x="985.5" y="-130" font-family="Helvetica,sans-Serif" font-size="10.00">RowRefListWithFlags</text>
<text text-anchor="middle" x="1034" y="-119" font-family="Helvetica,sans-Serif" font-size="10.00">::insert</text>
</a>
</g>
</g>
<!-- Node18&#45;&gt;Node25 -->
<g id="edge26" class="edge">
<title>Node18&#45;&gt;Node25</title>
<path fill="none" stroke="#63b8ff" d="M1158.74,-211.78C1141.92,-196.71 1118.57,-177.1 1096,-162.5 1091.14,-159.36 1085.91,-156.32 1080.63,-153.46"/>
<polygon fill="#63b8ff" stroke="#63b8ff" points="1156.02,-214.04 1165.78,-218.18 1160.73,-208.86 1156.02,-214.04"/>
</g>
<!-- Node26 -->
<g id="node26" class="node">
<title>Node26</title>
<g id="a_node26"><a xlink:href="../../d3/d1e/namespacedoris_1_1vectorized.html#a773373406d804bfc9e4a31426e10f655" target="_top" xlink:title=" ">
<polygon fill="white" stroke="#666666" points="1092.5,-93.5 975.5,-93.5 975.5,-63.5 1092.5,-63.5 1092.5,-93.5"/>
<text text-anchor="start" x="983.5" y="-81.5" font-family="Helvetica,sans-Serif" font-size="10.00">doris::vectorized::</text>
<text text-anchor="middle" x="1034" y="-70.5" font-family="Helvetica,sans-Serif" font-size="10.00">read_string_binary_into</text>
</a>
</g>
</g>
<!-- Node18&#45;&gt;Node26 -->
<g id="edge28" class="edge">
<title>Node18&#45;&gt;Node26</title>
<path fill="none" stroke="#63b8ff" d="M1172.04,-208.98C1158.24,-179.59 1131.91,-131.63 1096,-102.5 1092.02,-99.27 1087.56,-96.44 1082.9,-93.96"/>
<polygon fill="#63b8ff" stroke="#63b8ff" points="1168.76,-210.22 1176.08,-217.88 1175.13,-207.32 1168.76,-210.22"/>
</g>
<!-- Node27 -->
<g id="node27" class="node">
<title>Node27</title>
<g id="a_node27"><a xlink:href="../../d3/d1e/namespacedoris_1_1vectorized.html#a67fc9db9a48666b66150ee06aab438c8" target="_top" xlink:title=" ">
<polygon fill="white" stroke="#666666" points="1081.5,-45.5 986.5,-45.5 986.5,-15.5 1081.5,-15.5 1081.5,-45.5"/>
<text text-anchor="start" x="994.5" y="-33.5" font-family="Helvetica,sans-Serif" font-size="10.00">doris::vectorized::</text>
<text text-anchor="middle" x="1034" y="-22.5" font-family="Helvetica,sans-Serif" font-size="10.00">serialize_column</text>
</a>
</g>
</g>
<!-- Node18&#45;&gt;Node27 -->
<g id="edge29" class="edge">
<title>Node18&#45;&gt;Node27</title>
<path fill="none" stroke="#63b8ff" d="M1176.81,-208.11C1166.44,-169.4 1142.03,-97.18 1096,-54.5 1091.83,-50.63 1086.96,-47.36 1081.82,-44.6"/>
<polygon fill="#63b8ff" stroke="#63b8ff" points="1173.4,-208.91 1179.27,-217.74 1180.19,-207.18 1173.4,-208.91"/>
</g>
<!-- Node20 -->
<g id="node20" class="node">
<title>Node20</title>
<g id="a_node20"><a xlink:href="../../d2/da4/structdoris_1_1vectorized_1_1_aggregate_data_container.html#abe7486f93fdf461a7ed09b3bb1130f6e" target="_top" xlink:title=" ">
<polygon fill="white" stroke="#666666" points="936,-386 806,-386 806,-345 936,-345 936,-386"/>
<text text-anchor="start" x="814" y="-374" font-family="Helvetica,sans-Serif" font-size="10.00">doris::vectorized::</text>
<text text-anchor="start" x="814" y="-363" font-family="Helvetica,sans-Serif" font-size="10.00">AggregateDataContainer</text>
<text text-anchor="middle" x="871" y="-352" font-family="Helvetica,sans-Serif" font-size="10.00">::AggregateDataContainer</text>
</a>
</g>
</g>
<!-- Node19&#45;&gt;Node20 -->
<g id="edge20" class="edge">
<title>Node19&#45;&gt;Node20</title>
<path fill="none" stroke="#63b8ff" d="M960.43,-365.5C952.41,-365.5 944.28,-365.5 936.37,-365.5"/>
<polygon fill="#63b8ff" stroke="#63b8ff" points="960.16,-369 970.16,-365.5 960.16,-362 960.16,-369"/>
</g>
<!-- Node21 -->
<g id="node21" class="node">
<title>Node21</title>
<g id="a_node21"><a xlink:href="../../d2/da4/structdoris_1_1vectorized_1_1_aggregate_data_container.html#a9dc6755c2ea84ddc469742bb4300cd85" target="_top" xlink:title=" ">
<polygon fill="white" stroke="#666666" points="933,-327 809,-327 809,-286 933,-286 933,-327"/>
<text text-anchor="start" x="817" y="-315" font-family="Helvetica,sans-Serif" font-size="10.00">doris::vectorized::</text>
<text text-anchor="start" x="817" y="-304" font-family="Helvetica,sans-Serif" font-size="10.00">AggregateDataContainer</text>
<text text-anchor="middle" x="871" y="-293" font-family="Helvetica,sans-Serif" font-size="10.00">::append_data</text>
</a>
</g>
</g>
<!-- Node19&#45;&gt;Node21 -->
<g id="edge21" class="edge">
<title>Node19&#45;&gt;Node21</title>
<path fill="none" stroke="#63b8ff" d="M965,-340.58C953.12,-336.23 940.86,-331.74 929.3,-327.5"/>
<polygon fill="#63b8ff" stroke="#63b8ff" points="963.77,-343.86 974.36,-344.01 966.18,-337.28 963.77,-343.86"/>
</g>
<!-- Node23&#45;&gt;Node23 -->
<g id="edge24" class="edge">
<title>Node23&#45;&gt;Node23</title>
<path fill="none" stroke="#63b8ff" d="M1059.31,-261.11C1055.25,-264.93 1046.82,-267.5 1034,-267.5 1010.56,-267.5 1001.77,-258.91 1007.63,-249.78"/>
<polygon fill="#63b8ff" stroke="#63b8ff" points="1062.78,-261.56 1060.23,-251.28 1055.81,-260.91 1062.78,-261.56"/>
</g>
<!-- Node28 -->
<g id="node28" class="node">
<title>Node28</title>
<g id="a_node28"><a xlink:href="../../d0/d10/classdoris_1_1vectorized_1_1_jsonb_serialize_util.html#aa5692fad6ab42f5b2455617c63555000" target="_top" xlink:title=" ">
<polygon fill="white" stroke="#666666" points="921.5,-51 820.5,-51 820.5,-10 921.5,-10 921.5,-51"/>
<text text-anchor="start" x="828.5" y="-39" font-family="Helvetica,sans-Serif" font-size="10.00">doris::vectorized::</text>
<text text-anchor="start" x="828.5" y="-28" font-family="Helvetica,sans-Serif" font-size="10.00">JsonbSerializeUtil::</text>
<text text-anchor="middle" x="871" y="-17" font-family="Helvetica,sans-Serif" font-size="10.00">block_to_jsonb</text>
</a>
</g>
</g>
<!-- Node27&#45;&gt;Node28 -->
<g id="edge30" class="edge">
<title>Node27&#45;&gt;Node28</title>
<path fill="none" stroke="#63b8ff" d="M975.22,-30.5C957.75,-30.5 938.73,-30.5 921.84,-30.5"/>
<polygon fill="#63b8ff" stroke="#63b8ff" points="974.92,-34 984.92,-30.5 974.92,-27 974.92,-34"/>
</g>
<!-- Node29 -->
<g id="node29" class="node">
<title>Node29</title>
<g id="a_node29"><a xlink:href="../../d2/dc2/classdoris_1_1_mem_table.html#a77a654af3d731c4ac975097780594557" target="_top" xlink:title=" ">
<polygon fill="white" stroke="#666666" points="770,-45.5 639,-45.5 639,-15.5 770,-15.5 770,-45.5"/>
<text text-anchor="start" x="647" y="-33.5" font-family="Helvetica,sans-Serif" font-size="10.00">doris::MemTable::serialize</text>
<text text-anchor="middle" x="704.5" y="-22.5" font-family="Helvetica,sans-Serif" font-size="10.00">_block_to_row_column</text>
</a>
</g>
</g>
<!-- Node28&#45;&gt;Node29 -->
<g id="edge31" class="edge">
<title>Node28&#45;&gt;Node29</title>
<path fill="none" stroke="#63b8ff" d="M808.89,-30.5C796.32,-30.5 783.04,-30.5 770.34,-30.5"/>
<polygon fill="#63b8ff" stroke="#63b8ff" points="808.68,-34 818.68,-30.5 808.68,-27 808.68,-34"/>
</g>
<!-- Node30 -->
<g id="node30" class="node">
<title>Node30</title>
<g id="a_node30"><a xlink:href="../../d2/dc2/classdoris_1_1_mem_table.html#a65c273aab0df0fe51d5d068947c97ed7" target="_top" xlink:title=" ">
<polygon fill="white" stroke="#666666" points="603,-45.5 493,-45.5 493,-15.5 603,-15.5 603,-45.5"/>
<text text-anchor="start" x="501" y="-33.5" font-family="Helvetica,sans-Serif" font-size="10.00">doris::MemTable::_do</text>
<text text-anchor="middle" x="548" y="-22.5" font-family="Helvetica,sans-Serif" font-size="10.00">_flush</text>
</a>
</g>
</g>
<!-- Node29&#45;&gt;Node30 -->
<g id="edge32" class="edge">
<title>Node29&#45;&gt;Node30</title>
<path fill="none" stroke="#63b8ff" d="M627.63,-30.5C619.34,-30.5 611.04,-30.5 603.09,-30.5"/>
<polygon fill="#63b8ff" stroke="#63b8ff" points="627.36,-34 637.36,-30.5 627.36,-27 627.36,-34"/>
</g>
<!-- Node31 -->
<g id="node31" class="node">
<title>Node31</title>
<g id="a_node31"><a xlink:href="../../d2/dc2/classdoris_1_1_mem_table.html#a9538544d9aeadf8c4ea33231fe825eb2" target="_top" xlink:title="Flush">
<polygon fill="white" stroke="#666666" points="457,-40 341,-40 341,-21 457,-21 457,-40"/>
<text text-anchor="middle" x="399" y="-28" font-family="Helvetica,sans-Serif" font-size="10.00">doris::MemTable::flush</text>
</a>
</g>
</g>
<!-- Node30&#45;&gt;Node31 -->
<g id="edge33" class="edge">
<title>Node30&#45;&gt;Node31</title>
<path fill="none" stroke="#63b8ff" d="M481.35,-30.5C473.25,-30.5 465.01,-30.5 457.05,-30.5"/>
<polygon fill="#63b8ff" stroke="#63b8ff" points="481.17,-34 491.17,-30.5 481.17,-27 481.17,-34"/>
</g>
<!-- Node32 -->
<g id="node32" class="node">
<title>Node32</title>
<g id="a_node32"><a xlink:href="../../df/d21/classdoris_1_1_flush_token.html#a8f3185822d60093e3616b6dd2c8ad5e7" target="_top" xlink:title=" ">
<polygon fill="white" stroke="#666666" points="296,-67.5 196,-67.5 196,-37.5 296,-37.5 296,-67.5"/>
<text text-anchor="start" x="204" y="-55.5" font-family="Helvetica,sans-Serif" font-size="10.00">doris::FlushToken::</text>
<text text-anchor="middle" x="246" y="-44.5" font-family="Helvetica,sans-Serif" font-size="10.00">_flush_memtable</text>
</a>
</g>
</g>
<!-- Node31&#45;&gt;Node32 -->
<g id="edge34" class="edge">
<title>Node31&#45;&gt;Node32</title>
<path fill="none" stroke="#63b8ff" d="M329.74,-40.45C318.46,-42.09 306.96,-43.76 296.26,-45.32"/>
<polygon fill="#63b8ff" stroke="#63b8ff" points="330.02,-43.94 339.42,-39.04 329.02,-37.01 330.02,-43.94"/>
</g>
<!-- Node34 -->
<g id="node34" class="node">
<title>Node34</title>
<g id="a_node34"><a xlink:href="../../d2/dc2/classdoris_1_1_mem_table.html#aee1c6f7d85af14d039dec07dc31ae862" target="_top" xlink:title=" ">
<polygon fill="white" stroke="#666666" points="305,-19 187,-19 187,0 305,0 305,-19"/>
<text text-anchor="middle" x="246" y="-7" font-family="Helvetica,sans-Serif" font-size="10.00">doris::MemTable::close</text>
</a>
</g>
</g>
<!-- Node31&#45;&gt;Node34 -->
<g id="edge36" class="edge">
<title>Node31&#45;&gt;Node34</title>
<path fill="none" stroke="#63b8ff" d="M329.61,-20.99C321.53,-19.87 313.34,-18.73 305.42,-17.63"/>
<polygon fill="#63b8ff" stroke="#63b8ff" points="329.03,-24.44 339.41,-22.35 329.99,-17.51 329.03,-24.44"/>
</g>
<!-- Node33 -->
<g id="node33" class="node">
<title>Node33</title>
<g id="a_node33"><a xlink:href="../../d8/de6/classdoris_1_1_memtable_flush_task.html#ad1717410afd0be936c6213a63c8005fb" target="_top" xlink:title=" ">
<polygon fill="white" stroke="#666666" points="151,-62 0,-62 0,-43 151,-43 151,-62"/>
<text text-anchor="middle" x="75.5" y="-50" font-family="Helvetica,sans-Serif" font-size="10.00">doris::MemtableFlushTask::run</text>
</a>
</g>
</g>
<!-- Node32&#45;&gt;Node33 -->
<g id="edge35" class="edge">
<title>Node32&#45;&gt;Node33</title>
<path fill="none" stroke="#63b8ff" d="M184.45,-52.5C173.75,-52.5 162.49,-52.5 151.44,-52.5"/>
<polygon fill="#63b8ff" stroke="#63b8ff" points="184.3,-56 194.3,-52.5 184.3,-49 184.3,-56"/>
</g>
<!-- Node35&#45;&gt;Node2 -->
<g id="edge38" class="edge">
<title>Node35&#45;&gt;Node2</title>
<path fill="none" stroke="#63b8ff" d="M1391.29,-338.98C1383.22,-340.29 1375.01,-341.63 1367.19,-342.9"/>
<polygon fill="#63b8ff" stroke="#63b8ff" points="1391.76,-342.45 1401.07,-337.38 1390.64,-335.54 1391.76,-342.45"/>
</g>
</g>
</svg>
        <g id="navigator" transform="translate(0 0)" fill="#404254">
                <rect fill="#f2f5e9" fill-opacity="0.5" stroke="#606060" stroke-width=".5" x="0" y="0" width="60" height="60"/>
                <use id="zoomplus" xlink:href="#zoomPlus" x="17" y="9" onmousedown="handleZoom(evt,'in')"/>
                <use id="zoomminus" xlink:href="#zoomMin" x="42" y="9" onmousedown="handleZoom(evt,'out')"/>
                <use id="reset" xlink:href="#resetDef" x="30" y="36" onmousedown="handleReset()"/>
                <g id="arrowUp" xlink:href="#dirArrow" transform="translate(30 24)" onmousedown="handlePan(0,-1)">
                  <use xlink:href="#rim" fill="#404040">
                        <set attributeName="fill" to="#808080" begin="arrowUp.mouseover" end="arrowUp.mouseout"/>
                  </use>
                  <path fill="none" stroke="white" stroke-width="1.5" d="M0,-3.0v7 M-2.5,-0.5L0,-3.0L2.5,-0.5"/>
                </g>
                <g id="arrowRight" xlink:href="#dirArrow" transform="rotate(90) translate(36 -43)" onmousedown="handlePan(1,0)">
                  <use xlink:href="#rim" fill="#404040">
                        <set attributeName="fill" to="#808080" begin="arrowRight.mouseover" end="arrowRight.mouseout"/>
                  </use>
                  <path fill="none" stroke="white" stroke-width="1.5" d="M0,-3.0v7 M-2.5,-0.5L0,-3.0L2.5,-0.5"/>
                </g>
                <g id="arrowDown" xlink:href="#dirArrow" transform="rotate(180) translate(-30 -48)" onmousedown="handlePan(0,1)">
                  <use xlink:href="#rim" fill="#404040">
                        <set attributeName="fill" to="#808080" begin="arrowDown.mouseover" end="arrowDown.mouseout"/>
                  </use>
                  <path fill="none" stroke="white" stroke-width="1.5" d="M0,-3.0v7 M-2.5,-0.5L0,-3.0L2.5,-0.5"/>
                </g>
                <g id="arrowLeft" xlink:href="#dirArrow" transform="rotate(270) translate(-36 17)" onmousedown="handlePan(-1,0)">
                  <use xlink:href="#rim" fill="#404040">
                        <set attributeName="fill" to="#808080" begin="arrowLeft.mouseover" end="arrowLeft.mouseout"/>
                  </use>
                  <path fill="none" stroke="white" stroke-width="1.5" d="M0,-3.0v7 M-2.5,-0.5L0,-3.0L2.5,-0.5"/>
                </g>
        </g>
        <svg viewBox="0 0 15 15" width="100%" height="30px" preserveAspectRatio="xMaxYMin meet">
         <g id="arrow_out" transform="scale(0.3 0.3)">
          <a xlink:href="structdoris_1_1vectorized_1_1_arena_1_1_chunk_a259cb5a711406a8c3e5d937eb9350cca_icgraph_org.svg" target="_base">
           <rect id="button" ry="5" rx="5" y="6" x="6" height="38" width="38"
                fill="#f2f5e9" fill-opacity="0.5" stroke="#606060" stroke-width="1.0"/>
           <path id="arrow"
             d="M 11.500037,31.436501 C 11.940474,20.09759 22.043105,11.32322 32.158766,21.979434 L 37.068811,17.246167 C 37.068811,17.246167 37.088388,32 37.088388,32 L 22.160133,31.978069 C 22.160133,31.978069 26.997745,27.140456 26.997745,27.140456 C 18.528582,18.264221 13.291696,25.230495 11.500037,31.436501 z"
             style="fill:#404040;"/>
          </a>
         </g>
        </svg>
</svg>
