<?xml version="1.0" encoding="UTF-8" standalone="no"?>
<!DOCTYPE svg PUBLIC "-//W3C//DTD SVG 1.1//EN"
 "http://www.w3.org/Graphics/SVG/1.1/DTD/svg11.dtd">
<!-- Generated by graphviz version 7.1.0 (20230121.1956)
 -->
<!-- Title: string_to_bool_internal Pages: 1 -->
<!--zoomable 210 -->
<svg id="main" version="1.1" xmlns="http://www.w3.org/2000/svg" xmlns:xlink="http://www.w3.org/1999/xlink" xml:space="preserve" onload="init(evt)">
<style type="text/css"><![CDATA[
.edge:hover path { stroke: red; }
.edge:hover polygon { stroke: red; fill: red; }
]]></style>
<script type="text/javascript"><![CDATA[
var edges = document.getElementsByTagName('g');
if (edges && edges.length) {
  for (var i=0;i<edges.length;i++) {
    if (edges[i].id.substr(0,4)=='edge') {
      edges[i].setAttribute('class','edge');
    }
  }
}
]]></script>
        <defs>
                <circle id="rim" cx="0" cy="0" r="7"/>
                <circle id="rim2" cx="0" cy="0" r="3.5"/>
                <g id="zoomPlus">
                        <use xlink:href="#rim" fill="#404040">
                                <set attributeName="fill" to="#808080" begin="zoomplus.mouseover" end="zoomplus.mouseout"/>
                        </use>
                        <path d="M-4,0h8M0,-4v8" fill="none" stroke="white" stroke-width="1.5" pointer-events="none"/>
                </g>
                <g id="zoomMin">
                        <use xlink:href="#rim" fill="#404040">
                                <set attributeName="fill" to="#808080" begin="zoomminus.mouseover" end="zoomminus.mouseout"/>
                        </use>
                        <path d="M-4,0h8" fill="none" stroke="white" stroke-width="1.5" pointer-events="none"/>
                </g>
                <g id="dirArrow">
                        <path fill="none" stroke="white" stroke-width="1.5" d="M0,-3.0v7 M-2.5,-0.5L0,-3.0L2.5,-0.5"/>
                </g>
               <g id="resetDef">
                       <use xlink:href="#rim2" fill="#404040">
                               <set attributeName="fill" to="#808080" begin="reset.mouseover" end="reset.mouseout"/>
                       </use>
               </g>
        </defs>

<script type="text/javascript">
var viewWidth = 1707;
var viewHeight = 210;
var sectionId = 'dynsection-13';
</script>
<script xlink:href="../../svgpan.js"/>
<svg id="graph" class="graph">
<g id="viewport">
<title>string_to_bool_internal</title>
<!-- Node1 -->
<g id="node1" class="node">
<title>Node1</title>
<g id="a_node1"><a xlink:title=" ">
<polygon fill="#999999" stroke="#666666" points="1699,-110.5 1585,-110.5 1585,-91.5 1699,-91.5 1699,-110.5"/>
<text text-anchor="middle" x="1642" y="-98.5" font-family="Helvetica,sans-Serif" font-size="10.00">string_to_bool_internal</text>
</a>
</g>
</g>
<!-- Node2 -->
<g id="node2" class="node">
<title>Node2</title>
<g id="a_node2"><a xlink:href="../../df/d24/classdoris_1_1_string_parser.html#a1b2ed61e80085b73ee2b20c92c7aea7c" target="_top" xlink:title=" ">
<polygon fill="white" stroke="#666666" points="1549,-110.5 1472,-110.5 1472,-91.5 1549,-91.5 1549,-110.5"/>
<text text-anchor="middle" x="1510.5" y="-98.5" font-family="Helvetica,sans-Serif" font-size="10.00">string_to_bool</text>
</a>
</g>
</g>
<!-- Node1&#45;&gt;Node2 -->
<g id="edge1" class="edge">
<title>Node1&#45;&gt;Node2</title>
<path fill="none" stroke="#63b8ff" d="M1573.12,-101C1565,-101 1556.96,-101 1549.49,-101"/>
<polygon fill="#63b8ff" stroke="#63b8ff" points="1573.06,-104.5 1583.06,-101 1573.06,-97.5 1573.06,-104.5"/>
</g>
<!-- Node3 -->
<g id="node3" class="node">
<title>Node3</title>
<g id="a_node3"><a xlink:href="../../dc/d0f/classdoris_1_1_scroll_parser.html#a804c5658607debd8ec4688a8b77fceb9" target="_top" xlink:title=" ">
<polygon fill="white" stroke="#666666" points="1432,-202 1335,-202 1335,-172 1432,-172 1432,-202"/>
<text text-anchor="start" x="1343" y="-190" font-family="Helvetica,sans-Serif" font-size="10.00">doris::ScrollParser</text>
<text text-anchor="middle" x="1383.5" y="-179" font-family="Helvetica,sans-Serif" font-size="10.00">::fill_columns</text>
</a>
</g>
</g>
<!-- Node2&#45;&gt;Node3 -->
<g id="edge2" class="edge">
<title>Node2&#45;&gt;Node3</title>
<path fill="none" stroke="#63b8ff" d="M1491.75,-118.31C1477.49,-131.62 1456.51,-149.9 1436,-163 1431.26,-166.03 1426.08,-168.9 1420.89,-171.53"/>
<polygon fill="#63b8ff" stroke="#63b8ff" points="1493.77,-121.22 1498.61,-111.79 1488.95,-116.14 1493.77,-121.22"/>
</g>
<!-- Node4 -->
<g id="node4" class="node">
<title>Node4</title>
<g id="a_node4"><a xlink:href="../../d6/d94/namespacedoris.html#aa42b77350fa9a1508edb707b4b4d72b8" target="_top" xlink:title=" ">
<polygon fill="white" stroke="#666666" points="1429.5,-153.5 1337.5,-153.5 1337.5,-134.5 1429.5,-134.5 1429.5,-153.5"/>
<text text-anchor="middle" x="1383.5" y="-141.5" font-family="Helvetica,sans-Serif" font-size="10.00">doris::get_creator</text>
</a>
</g>
</g>
<!-- Node2&#45;&gt;Node4 -->
<g id="edge3" class="edge">
<title>Node2&#45;&gt;Node4</title>
<path fill="none" stroke="#63b8ff" d="M1469.83,-114.64C1451.49,-120.95 1430.11,-128.31 1413.33,-134.08"/>
<polygon fill="#63b8ff" stroke="#63b8ff" points="1470.76,-118.03 1479.08,-111.47 1468.48,-111.41 1470.76,-118.03"/>
</g>
<!-- Node5 -->
<g id="node5" class="node">
<title>Node5</title>
<g id="a_node5"><a xlink:href="../../d3/d1e/namespacedoris_1_1vectorized.html#a4ac2989368e460f9ff218eccbca2ec7e" target="_top" xlink:title=" ">
<polygon fill="white" stroke="#666666" points="1432,-116 1335,-116 1335,-86 1432,-86 1432,-116"/>
<text text-anchor="start" x="1343" y="-104" font-family="Helvetica,sans-Serif" font-size="10.00">doris::vectorized::</text>
<text text-anchor="middle" x="1383.5" y="-93" font-family="Helvetica,sans-Serif" font-size="10.00">try_read_bool_text</text>
</a>
</g>
</g>
<!-- Node2&#45;&gt;Node5 -->
<g id="edge4" class="edge">
<title>Node2&#45;&gt;Node5</title>
<path fill="none" stroke="#63b8ff" d="M1460.31,-101C1451.13,-101 1441.55,-101 1432.41,-101"/>
<polygon fill="#63b8ff" stroke="#63b8ff" points="1460.14,-104.5 1470.14,-101 1460.14,-97.5 1460.14,-104.5"/>
</g>
<!-- Node7 -->
<g id="node7" class="node">
<title>Node7</title>
<g id="a_node7"><a xlink:href="../../d6/d94/namespacedoris.html#aa19dc05eaef3654cee4892eee0ef35bd" target="_top" xlink:title=" ">
<polygon fill="white" stroke="#666666" points="1427,-67.5 1340,-67.5 1340,-48.5 1427,-48.5 1427,-67.5"/>
<text text-anchor="middle" x="1383.5" y="-55.5" font-family="Helvetica,sans-Serif" font-size="10.00">doris::valid_bool</text>
</a>
</g>
</g>
<!-- Node2&#45;&gt;Node7 -->
<g id="edge6" class="edge">
<title>Node2&#45;&gt;Node7</title>
<path fill="none" stroke="#63b8ff" d="M1469.83,-87.36C1451.49,-81.05 1430.11,-73.69 1413.33,-67.92"/>
<polygon fill="#63b8ff" stroke="#63b8ff" points="1468.48,-90.59 1479.08,-90.53 1470.76,-83.97 1468.48,-90.59"/>
</g>
<!-- Node17 -->
<g id="node17" class="node">
<title>Node17</title>
<g id="a_node17"><a xlink:href="../../d7/dfa/classdoris_1_1_text_converter.html#aeb63498228b02f3372e0a337f8a8c574" target="_top" xlink:title="Write consecutive rows of the same data.">
<polygon fill="white" stroke="#666666" points="1436,-30 1331,-30 1331,0 1436,0 1436,-30"/>
<text text-anchor="start" x="1339" y="-18" font-family="Helvetica,sans-Serif" font-size="10.00">doris::TextConverter</text>
<text text-anchor="middle" x="1383.5" y="-7" font-family="Helvetica,sans-Serif" font-size="10.00">::write_vec_column</text>
</a>
</g>
</g>
<!-- Node2&#45;&gt;Node17 -->
<g id="edge17" class="edge">
<title>Node2&#45;&gt;Node17</title>
<path fill="none" stroke="#63b8ff" d="M1491.75,-83.69C1477.49,-70.38 1456.51,-52.1 1436,-39 1431.26,-35.97 1426.08,-33.1 1420.89,-30.47"/>
<polygon fill="#63b8ff" stroke="#63b8ff" points="1488.95,-85.86 1498.61,-90.21 1493.77,-80.78 1488.95,-85.86"/>
</g>
<!-- Node6 -->
<g id="node6" class="node">
<title>Node6</title>
<g id="a_node6"><a xlink:href="../../d3/d1e/namespacedoris_1_1vectorized.html#a9b49cdf891eaccef6b04cc4edd9fc9b4" target="_top" xlink:title=" ">
<polygon fill="white" stroke="#666666" points="1278.5,-119 1183.5,-119 1183.5,-89 1278.5,-89 1278.5,-119"/>
<text text-anchor="start" x="1191.5" y="-107" font-family="Helvetica,sans-Serif" font-size="10.00">doris::vectorized::</text>
<text text-anchor="middle" x="1231" y="-96" font-family="Helvetica,sans-Serif" font-size="10.00">try_parse_impl</text>
</a>
</g>
</g>
<!-- Node5&#45;&gt;Node6 -->
<g id="edge5" class="edge">
<title>Node5&#45;&gt;Node6</title>
<path fill="none" stroke="#63b8ff" d="M1323.71,-102.17C1308.81,-102.47 1293.01,-102.78 1278.79,-103.07"/>
<polygon fill="#63b8ff" stroke="#63b8ff" points="1323.44,-105.68 1333.37,-101.98 1323.3,-98.68 1323.44,-105.68"/>
</g>
<!-- Node8 -->
<g id="node8" class="node">
<title>Node8</title>
<g id="a_node8"><a xlink:href="../../d6/d23/classdoris_1_1_delete_handler.html#af82bea045f4799694eee38255fd6d107" target="_top" xlink:title=" ">
<polygon fill="white" stroke="#666666" points="1295,-71 1167,-71 1167,-41 1295,-41 1295,-71"/>
<text text-anchor="start" x="1175" y="-59" font-family="Helvetica,sans-Serif" font-size="10.00">doris::DeleteHandler</text>
<text text-anchor="middle" x="1231" y="-48" font-family="Helvetica,sans-Serif" font-size="10.00">::is_condition_value_valid</text>
</a>
</g>
</g>
<!-- Node7&#45;&gt;Node8 -->
<g id="edge7" class="edge">
<title>Node7&#45;&gt;Node8</title>
<path fill="none" stroke="#63b8ff" d="M1328.43,-57.28C1317.7,-57.14 1306.35,-56.99 1295.35,-56.84"/>
<polygon fill="#63b8ff" stroke="#63b8ff" points="1328.22,-60.78 1338.26,-57.41 1328.31,-53.78 1328.22,-60.78"/>
</g>
<!-- Node9 -->
<g id="node9" class="node">
<title>Node9</title>
<g id="a_node9"><a xlink:href="../../d6/d23/classdoris_1_1_delete_handler.html#afb922547b3d7b31d944edc3e8d635f2f" target="_top" xlink:title=" ">
<polygon fill="white" stroke="#666666" points="1131,-71 1012,-71 1012,-41 1131,-41 1131,-71"/>
<text text-anchor="start" x="1020" y="-59" font-family="Helvetica,sans-Serif" font-size="10.00">doris::DeleteHandler</text>
<text text-anchor="middle" x="1071.5" y="-48" font-family="Helvetica,sans-Serif" font-size="10.00">::check_condition_valid</text>
</a>
</g>
</g>
<!-- Node8&#45;&gt;Node9 -->
<g id="edge8" class="edge">
<title>Node8&#45;&gt;Node9</title>
<path fill="none" stroke="#63b8ff" d="M1155.47,-56C1147.37,-56 1139.2,-56 1131.33,-56"/>
<polygon fill="#63b8ff" stroke="#63b8ff" points="1155.33,-59.5 1165.33,-56 1155.33,-52.5 1155.33,-59.5"/>
</g>
<!-- Node10 -->
<g id="node10" class="node">
<title>Node10</title>
<g id="a_node10"><a xlink:href="../../d6/d23/classdoris_1_1_delete_handler.html#aef38ff39c766ac9521dd6d226bbd2687" target="_top" xlink:title=" ">
<polygon fill="white" stroke="#666666" points="976,-71 839,-71 839,-41 976,-41 976,-71"/>
<text text-anchor="start" x="847" y="-59" font-family="Helvetica,sans-Serif" font-size="10.00">doris::DeleteHandler</text>
<text text-anchor="middle" x="907.5" y="-48" font-family="Helvetica,sans-Serif" font-size="10.00">::generate_delete_predicate</text>
</a>
</g>
</g>
<!-- Node9&#45;&gt;Node10 -->
<g id="edge9" class="edge">
<title>Node9&#45;&gt;Node10</title>
<path fill="none" stroke="#63b8ff" d="M1000.17,-56C992.3,-56 984.3,-56 976.47,-56"/>
<polygon fill="#63b8ff" stroke="#63b8ff" points="1000.04,-59.5 1010.04,-56 1000.04,-52.5 1000.04,-59.5"/>
</g>
<!-- Node11 -->
<g id="node11" class="node">
<title>Node11</title>
<g id="a_node11"><a xlink:href="../../df/d30/classdoris_1_1_push_handler.html#a56e6bc53f2e0cfa8bd66962339269f87" target="_top" xlink:title=" ">
<polygon fill="white" stroke="#666666" points="803,-71 672,-71 672,-41 803,-41 803,-71"/>
<text text-anchor="start" x="680" y="-59" font-family="Helvetica,sans-Serif" font-size="10.00">doris::PushHandler</text>
<text text-anchor="middle" x="737.5" y="-48" font-family="Helvetica,sans-Serif" font-size="10.00">::_do_streaming_ingestion</text>
</a>
</g>
</g>
<!-- Node10&#45;&gt;Node11 -->
<g id="edge10" class="edge">
<title>Node10&#45;&gt;Node11</title>
<path fill="none" stroke="#63b8ff" d="M827.35,-56C819.3,-56 811.2,-56 803.33,-56"/>
<polygon fill="#63b8ff" stroke="#63b8ff" points="827.14,-59.5 837.14,-56 827.14,-52.5 827.14,-59.5"/>
</g>
<!-- Node12 -->
<g id="node12" class="node">
<title>Node12</title>
<g id="a_node12"><a xlink:href="../../df/d30/classdoris_1_1_push_handler.html#a093f783d0e0f3a1fc43ab02a1b2e5a4f" target="_top" xlink:title=" ">
<polygon fill="white" stroke="#666666" points="636,-76.5 531,-76.5 531,-35.5 636,-35.5 636,-76.5"/>
<text text-anchor="start" x="539" y="-64.5" font-family="Helvetica,sans-Serif" font-size="10.00">doris::PushHandler</text>
<text text-anchor="start" x="539" y="-53.5" font-family="Helvetica,sans-Serif" font-size="10.00">::process_streaming</text>
<text text-anchor="middle" x="583.5" y="-42.5" font-family="Helvetica,sans-Serif" font-size="10.00">_ingestion</text>
</a>
</g>
</g>
<!-- Node11&#45;&gt;Node12 -->
<g id="edge11" class="edge">
<title>Node11&#45;&gt;Node12</title>
<path fill="none" stroke="#63b8ff" d="M660.2,-56C652.12,-56 644.04,-56 636.33,-56"/>
<polygon fill="#63b8ff" stroke="#63b8ff" points="660.08,-59.5 670.08,-56 660.08,-52.5 660.08,-59.5"/>
</g>
<!-- Node13 -->
<g id="node13" class="node">
<title>Node13</title>
<g id="a_node13"><a xlink:href="../../d0/d6e/classdoris_1_1_engine_batch_load_task.html#a01c3c5b08cfdc4b77dcc8fa126eae1ae" target="_top" xlink:title=" ">
<polygon fill="white" stroke="#666666" points="318,-96 177,-96 177,-66 318,-66 318,-96"/>
<text text-anchor="start" x="185" y="-84" font-family="Helvetica,sans-Serif" font-size="10.00">doris::EngineBatchLoadTask</text>
<text text-anchor="middle" x="247.5" y="-73" font-family="Helvetica,sans-Serif" font-size="10.00">::_delete_data</text>
</a>
</g>
</g>
<!-- Node12&#45;&gt;Node13 -->
<g id="edge12" class="edge">
<title>Node12&#45;&gt;Node13</title>
<path fill="none" stroke="#63b8ff" d="M519.24,-60.73C461.97,-65.02 377.74,-71.33 318.47,-75.76"/>
<polygon fill="#63b8ff" stroke="#63b8ff" points="519.46,-64.23 529.17,-59.99 518.94,-57.25 519.46,-64.23"/>
</g>
<!-- Node15 -->
<g id="node15" class="node">
<title>Node15</title>
<g id="a_node15"><a xlink:href="../../d0/d6e/classdoris_1_1_engine_batch_load_task.html#accc233a9466a0352a29f0f584c8a8750" target="_top" xlink:title=" ">
<polygon fill="white" stroke="#666666" points="495,-50 354,-50 354,-20 495,-20 495,-50"/>
<text text-anchor="start" x="362" y="-38" font-family="Helvetica,sans-Serif" font-size="10.00">doris::EngineBatchLoadTask</text>
<text text-anchor="middle" x="424.5" y="-27" font-family="Helvetica,sans-Serif" font-size="10.00">::_push</text>
</a>
</g>
</g>
<!-- Node12&#45;&gt;Node15 -->
<g id="edge14" class="edge">
<title>Node12&#45;&gt;Node15</title>
<path fill="none" stroke="#63b8ff" d="M519.35,-47.55C511.5,-46.5 503.44,-45.43 495.5,-44.36"/>
<polygon fill="#63b8ff" stroke="#63b8ff" points="518.78,-51.01 529.16,-48.86 519.71,-44.07 518.78,-51.01"/>
</g>
<!-- Node14 -->
<g id="node14" class="node">
<title>Node14</title>
<g id="a_node14"><a xlink:href="../../d0/d6e/classdoris_1_1_engine_batch_load_task.html#a288fb86e2f2bfd41128d4766a01cebad" target="_top" xlink:title=" ">
<polygon fill="white" stroke="#666666" points="141,-72 0,-72 0,-42 141,-42 141,-72"/>
<text text-anchor="start" x="8" y="-60" font-family="Helvetica,sans-Serif" font-size="10.00">doris::EngineBatchLoadTask</text>
<text text-anchor="middle" x="70.5" y="-49" font-family="Helvetica,sans-Serif" font-size="10.00">::execute</text>
</a>
</g>
</g>
<!-- Node13&#45;&gt;Node14 -->
<g id="edge13" class="edge">
<title>Node13&#45;&gt;Node14</title>
<path fill="none" stroke="#63b8ff" d="M165.32,-69.87C157.29,-68.77 149.2,-67.66 141.31,-66.57"/>
<polygon fill="#63b8ff" stroke="#63b8ff" points="164.7,-73.31 175.08,-71.21 165.65,-66.38 164.7,-73.31"/>
</g>
<!-- Node16 -->
<g id="node16" class="node">
<title>Node16</title>
<g id="a_node16"><a xlink:href="../../d0/d6e/classdoris_1_1_engine_batch_load_task.html#a5963ed6b82b6adf653c253cfa6f81c21" target="_top" xlink:title=" ">
<polygon fill="white" stroke="#666666" points="318,-48 177,-48 177,-18 318,-18 318,-48"/>
<text text-anchor="start" x="185" y="-36" font-family="Helvetica,sans-Serif" font-size="10.00">doris::EngineBatchLoadTask</text>
<text text-anchor="middle" x="247.5" y="-25" font-family="Helvetica,sans-Serif" font-size="10.00">::_process</text>
</a>
</g>
</g>
<!-- Node15&#45;&gt;Node16 -->
<g id="edge15" class="edge">
<title>Node15&#45;&gt;Node16</title>
<path fill="none" stroke="#63b8ff" d="M342.32,-34.07C334.29,-33.98 326.2,-33.89 318.31,-33.8"/>
<polygon fill="#63b8ff" stroke="#63b8ff" points="342.03,-37.57 352.07,-34.18 342.11,-30.57 342.03,-37.57"/>
</g>
<!-- Node16&#45;&gt;Node14 -->
<g id="edge16" class="edge">
<title>Node16&#45;&gt;Node14</title>
<path fill="none" stroke="#63b8ff" d="M165.32,-44.13C157.29,-45.23 149.2,-46.34 141.31,-47.43"/>
<polygon fill="#63b8ff" stroke="#63b8ff" points="165.65,-47.62 175.08,-42.79 164.7,-40.69 165.65,-47.62"/>
</g>
</g>
</svg>
        <g id="navigator" transform="translate(0 0)" fill="#404254">
                <rect fill="#f2f5e9" fill-opacity="0.5" stroke="#606060" stroke-width=".5" x="0" y="0" width="60" height="60"/>
                <use id="zoomplus" xlink:href="#zoomPlus" x="17" y="9" onmousedown="handleZoom(evt,'in')"/>
                <use id="zoomminus" xlink:href="#zoomMin" x="42" y="9" onmousedown="handleZoom(evt,'out')"/>
                <use id="reset" xlink:href="#resetDef" x="30" y="36" onmousedown="handleReset()"/>
                <g id="arrowUp" xlink:href="#dirArrow" transform="translate(30 24)" onmousedown="handlePan(0,-1)">
                  <use xlink:href="#rim" fill="#404040">
                        <set attributeName="fill" to="#808080" begin="arrowUp.mouseover" end="arrowUp.mouseout"/>
                  </use>
                  <path fill="none" stroke="white" stroke-width="1.5" d="M0,-3.0v7 M-2.5,-0.5L0,-3.0L2.5,-0.5"/>
                </g>
                <g id="arrowRight" xlink:href="#dirArrow" transform="rotate(90) translate(36 -43)" onmousedown="handlePan(1,0)">
                  <use xlink:href="#rim" fill="#404040">
                        <set attributeName="fill" to="#808080" begin="arrowRight.mouseover" end="arrowRight.mouseout"/>
                  </use>
                  <path fill="none" stroke="white" stroke-width="1.5" d="M0,-3.0v7 M-2.5,-0.5L0,-3.0L2.5,-0.5"/>
                </g>
                <g id="arrowDown" xlink:href="#dirArrow" transform="rotate(180) translate(-30 -48)" onmousedown="handlePan(0,1)">
                  <use xlink:href="#rim" fill="#404040">
                        <set attributeName="fill" to="#808080" begin="arrowDown.mouseover" end="arrowDown.mouseout"/>
                  </use>
                  <path fill="none" stroke="white" stroke-width="1.5" d="M0,-3.0v7 M-2.5,-0.5L0,-3.0L2.5,-0.5"/>
                </g>
                <g id="arrowLeft" xlink:href="#dirArrow" transform="rotate(270) translate(-36 17)" onmousedown="handlePan(-1,0)">
                  <use xlink:href="#rim" fill="#404040">
                        <set attributeName="fill" to="#808080" begin="arrowLeft.mouseover" end="arrowLeft.mouseout"/>
                  </use>
                  <path fill="none" stroke="white" stroke-width="1.5" d="M0,-3.0v7 M-2.5,-0.5L0,-3.0L2.5,-0.5"/>
                </g>
        </g>
        <svg viewBox="0 0 15 15" width="100%" height="30px" preserveAspectRatio="xMaxYMin meet">
         <g id="arrow_out" transform="scale(0.3 0.3)">
          <a xlink:href="classdoris_1_1_string_parser_a93569b3ed686520ed837aa05300f8b43_icgraph_org.svg" target="_base">
           <rect id="button" ry="5" rx="5" y="6" x="6" height="38" width="38"
                fill="#f2f5e9" fill-opacity="0.5" stroke="#606060" stroke-width="1.0"/>
           <path id="arrow"
             d="M 11.500037,31.436501 C 11.940474,20.09759 22.043105,11.32322 32.158766,21.979434 L 37.068811,17.246167 C 37.068811,17.246167 37.088388,32 37.088388,32 L 22.160133,31.978069 C 22.160133,31.978069 26.997745,27.140456 26.997745,27.140456 C 18.528582,18.264221 13.291696,25.230495 11.500037,31.436501 z"
             style="fill:#404040;"/>
          </a>
         </g>
        </svg>
</svg>
