<?xml version="1.0" encoding="UTF-8" standalone="no"?>
<!DOCTYPE svg PUBLIC "-//W3C//DTD SVG 1.1//EN"
 "http://www.w3.org/Graphics/SVG/1.1/DTD/svg11.dtd">
<!-- Generated by graphviz version 7.1.0 (20230121.1956)
 -->
<!-- Title: string_to_int Pages: 1 -->
<svg width="354pt" height="27pt"
 viewBox="0.00 0.00 354.00 27.00" xmlns="http://www.w3.org/2000/svg" xmlns:xlink="http://www.w3.org/1999/xlink">
<g id="graph0" class="graph" transform="scale(1 1) rotate(0) translate(4 23)">
<title>string_to_int</title>
<!-- Node1 -->
<g id="node1" class="node">
<title>Node1</title>
<g id="a_node1"><a xlink:title=" ">
<polygon fill="#999999" stroke="#666666" points="70,-19 0,-19 0,0 70,0 70,-19"/>
<text text-anchor="middle" x="35" y="-7" font-family="Helvetica,sans-Serif" font-size="10.00">string_to_int</text>
</a>
</g>
</g>
<!-- Node2 -->
<g id="node2" class="node">
<title>Node2</title>
<g id="a_node2"><a xlink:href="../../df/d24/classdoris_1_1_string_parser.html#aaa645f72cfd57b55de070d1d966c2124" target="_top" xlink:title=" ">
<polygon fill="white" stroke="#666666" points="231,-19 106,-19 106,0 231,0 231,-19"/>
<text text-anchor="middle" x="168.5" y="-7" font-family="Helvetica,sans-Serif" font-size="10.00">skip_leading_whitespace</text>
</a>
</g>
</g>
<!-- Node1&#45;&gt;Node2 -->
<g id="edge1" class="edge">
<title>Node1&#45;&gt;Node2</title>
<path fill="none" stroke="#63b8ff" d="M70.21,-9.5C77.69,-9.5 85.88,-9.5 94.24,-9.5"/>
<polygon fill="#63b8ff" stroke="#63b8ff" points="94.18,-13 104.18,-9.5 94.18,-6 94.18,-13"/>
</g>
<!-- Node3 -->
<g id="node3" class="node">
<title>Node3</title>
<g id="a_node3"><a xlink:href="../../df/d24/classdoris_1_1_string_parser.html#a6d453cae9636acd4bdf7642569e3286b" target="_top" xlink:title=" ">
<polygon fill="white" stroke="#666666" points="346,-19 267,-19 267,0 346,0 346,-19"/>
<text text-anchor="middle" x="306.5" y="-7" font-family="Helvetica,sans-Serif" font-size="10.00">is_whitespace</text>
</a>
</g>
</g>
<!-- Node2&#45;&gt;Node3 -->
<g id="edge2" class="edge">
<title>Node2&#45;&gt;Node3</title>
<path fill="none" stroke="#63b8ff" d="M231.13,-9.5C239.26,-9.5 247.5,-9.5 255.4,-9.5"/>
<polygon fill="#63b8ff" stroke="#63b8ff" points="255.15,-13 265.15,-9.5 255.15,-6 255.15,-13"/>
</g>
</g>
</svg>
