<?xml version="1.0" encoding="UTF-8" standalone="no"?>
<!DOCTYPE svg PUBLIC "-//W3C//DTD SVG 1.1//EN"
 "http://www.w3.org/Graphics/SVG/1.1/DTD/svg11.dtd">
<!-- Generated by graphviz version 7.1.0 (20230121.1956)
 -->
<!-- Title: init Pages: 1 -->
<svg width="465pt" height="151pt"
 viewBox="0.00 0.00 465.00 151.00" xmlns="http://www.w3.org/2000/svg" xmlns:xlink="http://www.w3.org/1999/xlink">
<g id="graph0" class="graph" transform="scale(1 1) rotate(0) translate(4 147)">
<title>init</title>
<!-- Node1 -->
<g id="node1" class="node">
<title>Node1</title>
<g id="a_node1"><a xlink:title=" ">
<polygon fill="#999999" stroke="#666666" points="29,-74 0,-74 0,-55 29,-55 29,-74"/>
<text text-anchor="middle" x="14.5" y="-62" font-family="Helvetica,sans-Serif" font-size="10.00">init</text>
</a>
</g>
</g>
<!-- Node2 -->
<g id="node2" class="node">
<title>Node2</title>
<g id="a_node2"><a xlink:href="../../db/d5f/classdoris_1_1_backend_options.html#a40e64e8043926430a70784e50d1693f6" target="_top" xlink:title=" ">
<polygon fill="white" stroke="#666666" points="176,-93 65,-93 65,-74 176,-74 176,-93"/>
<text text-anchor="middle" x="120.5" y="-81" font-family="Helvetica,sans-Serif" font-size="10.00">analyze_priority_cidrs</text>
</a>
</g>
</g>
<!-- Node1&#45;&gt;Node2 -->
<g id="edge1" class="edge">
<title>Node1&#45;&gt;Node2</title>
<path fill="none" stroke="#63b8ff" d="M29.1,-66.98C35.82,-68.21 44.49,-69.8 53.78,-71.49"/>
<polygon fill="#63b8ff" stroke="#63b8ff" points="52.95,-74.9 63.42,-73.25 54.21,-68.01 52.95,-74.9"/>
</g>
<!-- Node6 -->
<g id="node6" class="node">
<title>Node6</title>
<g id="a_node6"><a xlink:href="../../d6/d94/namespacedoris.html#a0a49b4f2b21082f819912e291aa0d280" target="_top" xlink:title=" ">
<polygon fill="white" stroke="#666666" points="163.5,-56 77.5,-56 77.5,-37 163.5,-37 163.5,-56"/>
<text text-anchor="middle" x="120.5" y="-44" font-family="Helvetica,sans-Serif" font-size="10.00">doris::get_hosts</text>
</a>
</g>
</g>
<!-- Node1&#45;&gt;Node6 -->
<g id="edge6" class="edge">
<title>Node1&#45;&gt;Node6</title>
<path fill="none" stroke="#63b8ff" d="M29.1,-62.15C38.74,-60.48 52.37,-58.12 66.12,-55.74"/>
<polygon fill="#63b8ff" stroke="#63b8ff" points="66.36,-59.25 75.62,-54.09 65.17,-52.35 66.36,-59.25"/>
</g>
<!-- Node9 -->
<g id="node9" class="node">
<title>Node9</title>
<g id="a_node9"><a xlink:href="../../db/d5f/classdoris_1_1_backend_options.html#adf695fa2feb6ba27ffcbb7ab08a37aed" target="_top" xlink:title=" ">
<polygon fill="white" stroke="#666666" points="171,-134 70,-134 70,-115 171,-115 171,-134"/>
<text text-anchor="middle" x="120.5" y="-122" font-family="Helvetica,sans-Serif" font-size="10.00">is_in_prior_network</text>
</a>
</g>
</g>
<!-- Node1&#45;&gt;Node9 -->
<g id="edge9" class="edge">
<title>Node1&#45;&gt;Node9</title>
<path fill="none" stroke="#63b8ff" d="M26.29,-74.17C35.93,-82.46 50.7,-94.33 65,-102.5 69.91,-105.31 75.25,-107.93 80.61,-110.32"/>
<polygon fill="#63b8ff" stroke="#63b8ff" points="78.84,-113.37 89.42,-114.02 81.55,-106.92 78.84,-113.37"/>
</g>
<!-- Node10 -->
<g id="node10" class="node">
<title>Node10</title>
<g id="a_node10"><a xlink:href="../../d9/d8d/classdoris_1_1_status.html#a03cb7eaa663dc83af68bc28a596d09e6" target="_top" xlink:title=" ">
<polygon fill="white" stroke="#666666" points="165,-19 76,-19 76,0 165,0 165,-19"/>
<text text-anchor="middle" x="120.5" y="-7" font-family="Helvetica,sans-Serif" font-size="10.00">doris::Status::ok</text>
</a>
</g>
</g>
<!-- Node1&#45;&gt;Node10 -->
<g id="edge11" class="edge">
<title>Node1&#45;&gt;Node10</title>
<path fill="none" stroke="#63b8ff" d="M26.59,-54.55C36.19,-46.36 50.73,-34.94 65,-27.5 67.68,-26.1 70.5,-24.78 73.37,-23.54"/>
<polygon fill="#63b8ff" stroke="#63b8ff" points="74.49,-26.86 82.52,-19.95 71.93,-20.35 74.49,-26.86"/>
</g>
<!-- Node3 -->
<g id="node3" class="node">
<title>Node3</title>
<g id="a_node3"><a xlink:href="../../d8/de4/classdoris_1_1_c_i_d_r.html#ad20897c5c8bd47f5d4005989bead0e55" target="_top" xlink:title=" ">
<polygon fill="white" stroke="#666666" points="309,-143 212,-143 212,-124 309,-124 309,-143"/>
<text text-anchor="middle" x="260.5" y="-131" font-family="Helvetica,sans-Serif" font-size="10.00">doris::CIDR::reset</text>
</a>
</g>
</g>
<!-- Node2&#45;&gt;Node3 -->
<g id="edge2" class="edge">
<title>Node2&#45;&gt;Node3</title>
<path fill="none" stroke="#63b8ff" d="M149.09,-93.5C169.78,-100.99 198.34,-111.34 221.23,-119.63"/>
<polygon fill="#63b8ff" stroke="#63b8ff" points="219.94,-122.89 230.53,-123 222.32,-116.31 219.94,-122.89"/>
</g>
<!-- Node5 -->
<g id="node5" class="node">
<title>Node5</title>
<g id="a_node5"><a xlink:href="../../df/dcb/namespacestrings.html#a8390ba830c1679e1c19a93a151425139" target="_top" xlink:title=" ">
<polygon fill="white" stroke="#666666" points="296,-88 225,-88 225,-69 296,-69 296,-88"/>
<text text-anchor="middle" x="260.5" y="-76" font-family="Helvetica,sans-Serif" font-size="10.00">strings::Split</text>
</a>
</g>
</g>
<!-- Node2&#45;&gt;Node5 -->
<g id="edge4" class="edge">
<title>Node2&#45;&gt;Node5</title>
<path fill="none" stroke="#63b8ff" d="M176.44,-81.51C188.61,-81.07 201.4,-80.61 213.19,-80.18"/>
<polygon fill="#63b8ff" stroke="#63b8ff" points="213.21,-83.68 223.08,-79.82 212.96,-76.68 213.21,-83.68"/>
</g>
<!-- Node4 -->
<g id="node4" class="node">
<title>Node4</title>
<g id="a_node4"><a xlink:href="../../d8/de4/classdoris_1_1_c_i_d_r.html#a6b9f1d2dd96f8b1db9e63dd429a4b4e1" target="_top" xlink:title=" ">
<polygon fill="white" stroke="#666666" points="457,-143 345,-143 345,-124 457,-124 457,-143"/>
<text text-anchor="middle" x="401" y="-131" font-family="Helvetica,sans-Serif" font-size="10.00">doris::CIDR::contains</text>
</a>
</g>
</g>
<!-- Node3&#45;&gt;Node4 -->
<g id="edge3" class="edge">
<title>Node3&#45;&gt;Node4</title>
<path fill="none" stroke="#63b8ff" d="M309.16,-133.5C316.93,-133.5 325.1,-133.5 333.22,-133.5"/>
<polygon fill="#63b8ff" stroke="#63b8ff" points="333.11,-137 343.11,-133.5 333.11,-130 333.11,-137"/>
</g>
<!-- Node5&#45;&gt;Node5 -->
<g id="edge5" class="edge">
<title>Node5&#45;&gt;Node5</title>
<path fill="none" stroke="#63b8ff" d="M238.58,-88.37C228.58,-96.94 235.89,-106 260.5,-106 273.96,-106 282.24,-103.29 285.35,-99.43"/>
<polygon fill="#63b8ff" stroke="#63b8ff" points="288.75,-98.6 282.81,-89.83 281.98,-100.39 288.75,-98.6"/>
</g>
<!-- Node7 -->
<g id="node7" class="node">
<title>Node7</title>
<g id="a_node7"><a xlink:href="../../d9/d8d/classdoris_1_1_status.html#a6ec1a217f203269ab53d2290d602db24" target="_top" xlink:title=" ">
<polygon fill="white" stroke="#666666" points="306.5,-51 214.5,-51 214.5,-32 306.5,-32 306.5,-51"/>
<text text-anchor="middle" x="260.5" y="-39" font-family="Helvetica,sans-Serif" font-size="10.00">doris::Status::OK</text>
</a>
</g>
</g>
<!-- Node6&#45;&gt;Node7 -->
<g id="edge7" class="edge">
<title>Node6&#45;&gt;Node7</title>
<path fill="none" stroke="#63b8ff" d="M163.65,-44.97C176.04,-44.52 189.79,-44.03 202.92,-43.55"/>
<polygon fill="#63b8ff" stroke="#63b8ff" points="202.87,-47.05 212.74,-43.19 202.62,-40.06 202.87,-47.05"/>
</g>
<!-- Node8 -->
<g id="node8" class="node">
<title>Node8</title>
<g id="a_node8"><a xlink:href="../../d9/d8d/classdoris_1_1_status.html#aafde58df1b2a6a91d5b674373be3ffc5" target="_top" xlink:title=" ">
<polygon fill="white" stroke="#666666" points="454.5,-51 347.5,-51 347.5,-32 454.5,-32 454.5,-51"/>
<text text-anchor="middle" x="401" y="-39" font-family="Helvetica,sans-Serif" font-size="10.00">doris::Status::Status</text>
</a>
</g>
</g>
<!-- Node7&#45;&gt;Node8 -->
<g id="edge8" class="edge">
<title>Node7&#45;&gt;Node8</title>
<path fill="none" stroke="#63b8ff" d="M306.85,-41.5C316.15,-41.5 326.1,-41.5 335.92,-41.5"/>
<polygon fill="#63b8ff" stroke="#63b8ff" points="335.82,-45 345.82,-41.5 335.82,-38 335.82,-45"/>
</g>
<!-- Node9&#45;&gt;Node3 -->
<g id="edge10" class="edge">
<title>Node9&#45;&gt;Node3</title>
<path fill="none" stroke="#63b8ff" d="M171.32,-127.75C180.75,-128.36 190.71,-129.01 200.39,-129.65"/>
<polygon fill="#63b8ff" stroke="#63b8ff" points="199.88,-133.12 210.09,-130.28 200.34,-126.13 199.88,-133.12"/>
</g>
</g>
</svg>
