<?xml version="1.0" encoding="UTF-8" standalone="no"?>
<!DOCTYPE svg PUBLIC "-//W3C//DTD SVG 1.1//EN"
 "http://www.w3.org/Graphics/SVG/1.1/DTD/svg11.dtd">
<!-- Generated by graphviz version 7.1.0 (20230121.1956)
 -->
<!-- Title: FastUInt64ToBufferLeft Pages: 1 -->
<!--zoomable 165 -->
<svg id="main" version="1.1" xmlns="http://www.w3.org/2000/svg" xmlns:xlink="http://www.w3.org/1999/xlink" xml:space="preserve" onload="init(evt)">
<style type="text/css"><![CDATA[
.edge:hover path { stroke: red; }
.edge:hover polygon { stroke: red; fill: red; }
]]></style>
<script type="text/javascript"><![CDATA[
var edges = document.getElementsByTagName('g');
if (edges && edges.length) {
  for (var i=0;i<edges.length;i++) {
    if (edges[i].id.substr(0,4)=='edge') {
      edges[i].setAttribute('class','edge');
    }
  }
}
]]></script>
        <defs>
                <circle id="rim" cx="0" cy="0" r="7"/>
                <circle id="rim2" cx="0" cy="0" r="3.5"/>
                <g id="zoomPlus">
                        <use xlink:href="#rim" fill="#404040">
                                <set attributeName="fill" to="#808080" begin="zoomplus.mouseover" end="zoomplus.mouseout"/>
                        </use>
                        <path d="M-4,0h8M0,-4v8" fill="none" stroke="white" stroke-width="1.5" pointer-events="none"/>
                </g>
                <g id="zoomMin">
                        <use xlink:href="#rim" fill="#404040">
                                <set attributeName="fill" to="#808080" begin="zoomminus.mouseover" end="zoomminus.mouseout"/>
                        </use>
                        <path d="M-4,0h8" fill="none" stroke="white" stroke-width="1.5" pointer-events="none"/>
                </g>
                <g id="dirArrow">
                        <path fill="none" stroke="white" stroke-width="1.5" d="M0,-3.0v7 M-2.5,-0.5L0,-3.0L2.5,-0.5"/>
                </g>
               <g id="resetDef">
                       <use xlink:href="#rim2" fill="#404040">
                               <set attributeName="fill" to="#808080" begin="reset.mouseover" end="reset.mouseout"/>
                       </use>
               </g>
        </defs>

<script type="text/javascript">
var viewWidth = 525;
var viewHeight = 165;
var sectionId = 'dynsection-40';
</script>
<script xlink:href="../../svgpan.js"/>
<svg id="graph" class="graph">
<g id="viewport">
<title>FastUInt64ToBufferLeft</title>
<!-- Node1 -->
<g id="node1" class="node">
<title>Node1</title>
<g id="a_node1"><a xlink:title=" ">
<polygon fill="#999999" stroke="#666666" points="517,-56 398,-56 398,-37 517,-37 517,-56"/>
<text text-anchor="middle" x="457.5" y="-44" font-family="Helvetica,sans-Serif" font-size="10.00">FastUInt64ToBufferLeft</text>
</a>
</g>
</g>
<!-- Node1&#45;&gt;Node1 -->
<g id="edge8" class="edge">
<title>Node1&#45;&gt;Node1</title>
<path fill="none" stroke="#63b8ff" d="M484.3,-67.43C480.95,-71.29 472.02,-74 457.5,-74 430.96,-74 423.08,-64.94 433.86,-56.37"/>
<polygon fill="#63b8ff" stroke="#63b8ff" points="487.67,-66.48 481.56,-57.82 480.94,-68.4 487.67,-66.48"/>
</g>
<!-- Node2 -->
<g id="node2" class="node">
<title>Node2</title>
<g id="a_node2"><a xlink:href="../../de/d18/numbers_8cc.html#ac81124216aa92e2544aa67e8bf09d625" target="_top" xlink:title=" ">
<polygon fill="white" stroke="#666666" points="362,-102 251,-102 251,-83 362,-83 362,-102"/>
<text text-anchor="middle" x="306.5" y="-90" font-family="Helvetica,sans-Serif" font-size="10.00">FastInt64ToBufferLeft</text>
</a>
</g>
</g>
<!-- Node1&#45;&gt;Node2 -->
<g id="edge1" class="edge">
<title>Node1&#45;&gt;Node2</title>
<path fill="none" stroke="#63b8ff" d="M413.44,-59.79C389.94,-67.05 361.33,-75.88 339.77,-82.54"/>
<polygon fill="#63b8ff" stroke="#63b8ff" points="414.2,-63.22 422.72,-56.93 412.14,-56.53 414.2,-63.22"/>
</g>
<!-- Node7 -->
<g id="node7" class="node">
<title>Node7</title>
<g id="a_node7"><a xlink:href="../../df/d01/numbers_8h.html#ae87764efcc41a64f8468a97cdbf20aef" target="_top" xlink:title=" ">
<polygon fill="white" stroke="#666666" points="357.5,-56 255.5,-56 255.5,-37 357.5,-37 357.5,-56"/>
<text text-anchor="middle" x="306.5" y="-44" font-family="Helvetica,sans-Serif" font-size="10.00">FastUInt64ToBuffer</text>
</a>
</g>
</g>
<!-- Node1&#45;&gt;Node7 -->
<g id="edge6" class="edge">
<title>Node1&#45;&gt;Node7</title>
<path fill="none" stroke="#63b8ff" d="M386.37,-46.5C376.72,-46.5 366.98,-46.5 357.78,-46.5"/>
<polygon fill="#63b8ff" stroke="#63b8ff" points="386.1,-50 396.1,-46.5 386.1,-43 386.1,-50"/>
</g>
<!-- Node9 -->
<g id="node9" class="node">
<title>Node9</title>
<g id="a_node9"><a xlink:href="../../df/d01/numbers_8h.html#a4b3822941fd0e0c5c2bfeb3271c746df" target="_top" xlink:title=" ">
<polygon fill="white" stroke="#666666" points="338,-19 275,-19 275,0 338,0 338,-19"/>
<text text-anchor="middle" x="306.5" y="-7" font-family="Helvetica,sans-Serif" font-size="10.00">SimpleItoa</text>
</a>
</g>
</g>
<!-- Node1&#45;&gt;Node9 -->
<g id="edge9" class="edge">
<title>Node1&#45;&gt;Node9</title>
<path fill="none" stroke="#63b8ff" d="M405.52,-33.84C383.09,-28.27 357.49,-21.91 338.08,-17.09"/>
<polygon fill="#63b8ff" stroke="#63b8ff" points="404.55,-37.21 415.1,-36.22 406.24,-30.41 404.55,-37.21"/>
</g>
<!-- Node3 -->
<g id="node3" class="node">
<title>Node3</title>
<g id="a_node3"><a xlink:href="../../de/d18/numbers_8cc.html#ab98e6ef7f42c7b40b587469095a55308" target="_top" xlink:title=" ">
<polygon fill="white" stroke="#666666" points="215,-157 120,-157 120,-138 215,-138 215,-157"/>
<text text-anchor="middle" x="167.5" y="-145" font-family="Helvetica,sans-Serif" font-size="10.00">FastInt64ToBuffer</text>
</a>
</g>
</g>
<!-- Node2&#45;&gt;Node3 -->
<g id="edge2" class="edge">
<title>Node2&#45;&gt;Node3</title>
<path fill="none" stroke="#63b8ff" d="M270.16,-106.69C246.01,-116.38 214.6,-128.99 193.13,-137.61"/>
<polygon fill="#63b8ff" stroke="#63b8ff" points="271.31,-110 279.29,-103.02 268.7,-103.5 271.31,-110"/>
</g>
<!-- Node5 -->
<g id="node5" class="node">
<title>Node5</title>
<g id="a_node5"><a xlink:href="../../d9/d6f/util_8cc.html#a8e18545c5e36e6560309743b52677470" target="_top" xlink:title=" ">
<polygon fill="white" stroke="#666666" points="215,-120 120,-120 120,-101 215,-101 215,-120"/>
<text text-anchor="middle" x="167.5" y="-108" font-family="Helvetica,sans-Serif" font-size="10.00">FastTimeToBuffer</text>
</a>
</g>
</g>
<!-- Node2&#45;&gt;Node5 -->
<g id="edge4" class="edge">
<title>Node2&#45;&gt;Node5</title>
<path fill="none" stroke="#63b8ff" d="M239.42,-101.18C231.19,-102.26 222.92,-103.35 215.08,-104.38"/>
<polygon fill="#63b8ff" stroke="#63b8ff" points="239.61,-104.69 249.07,-99.91 238.69,-97.75 239.61,-104.69"/>
</g>
<!-- Node6 -->
<g id="node6" class="node">
<title>Node6</title>
<g id="a_node6"><a xlink:href="../../df/d01/numbers_8h.html#a72fac15fe1dbe89aa517a00f26101481" target="_top" xlink:title=" ">
<polygon fill="white" stroke="#666666" points="199,-83 136,-83 136,-64 199,-64 199,-83"/>
<text text-anchor="middle" x="167.5" y="-71" font-family="Helvetica,sans-Serif" font-size="10.00">SimpleItoa</text>
</a>
</g>
</g>
<!-- Node2&#45;&gt;Node6 -->
<g id="edge5" class="edge">
<title>Node2&#45;&gt;Node6</title>
<path fill="none" stroke="#63b8ff" d="M239.42,-83.34C225.44,-81.4 211.32,-79.44 199.4,-77.79"/>
<polygon fill="#63b8ff" stroke="#63b8ff" points="238.68,-86.77 249.07,-84.67 239.64,-79.83 238.68,-86.77"/>
</g>
<!-- Node4 -->
<g id="node4" class="node">
<title>Node4</title>
<g id="a_node4"><a xlink:href="../../df/d01/numbers_8h.html#ab091e7344b0e4567b44415d22b36180c" target="_top" xlink:title=" ">
<polygon fill="white" stroke="#666666" points="84,-157 0,-157 0,-138 84,-138 84,-157"/>
<text text-anchor="middle" x="42" y="-145" font-family="Helvetica,sans-Serif" font-size="10.00">FastIntToBuffer</text>
</a>
</g>
</g>
<!-- Node3&#45;&gt;Node4 -->
<g id="edge3" class="edge">
<title>Node3&#45;&gt;Node4</title>
<path fill="none" stroke="#63b8ff" d="M108.48,-147.5C100.38,-147.5 92.2,-147.5 84.49,-147.5"/>
<polygon fill="#63b8ff" stroke="#63b8ff" points="108.3,-151 118.3,-147.5 108.3,-144 108.3,-151"/>
</g>
<!-- Node8 -->
<g id="node8" class="node">
<title>Node8</title>
<g id="a_node8"><a xlink:href="../../df/d01/numbers_8h.html#a81236f1136e0d8009f8a4888127f665e" target="_top" xlink:title=" ">
<polygon fill="white" stroke="#666666" points="213.5,-46 121.5,-46 121.5,-27 213.5,-27 213.5,-46"/>
<text text-anchor="middle" x="167.5" y="-34" font-family="Helvetica,sans-Serif" font-size="10.00">FastUIntToBuffer</text>
</a>
</g>
</g>
<!-- Node7&#45;&gt;Node8 -->
<g id="edge7" class="edge">
<title>Node7&#45;&gt;Node8</title>
<path fill="none" stroke="#63b8ff" d="M243.93,-42.01C233.77,-41.26 223.41,-40.51 213.74,-39.8"/>
<polygon fill="#63b8ff" stroke="#63b8ff" points="243.53,-45.49 253.75,-42.72 244.04,-38.5 243.53,-45.49"/>
</g>
</g>
</svg>
        <g id="navigator" transform="translate(0 0)" fill="#404254">
                <rect fill="#f2f5e9" fill-opacity="0.5" stroke="#606060" stroke-width=".5" x="0" y="0" width="60" height="60"/>
                <use id="zoomplus" xlink:href="#zoomPlus" x="17" y="9" onmousedown="handleZoom(evt,'in')"/>
                <use id="zoomminus" xlink:href="#zoomMin" x="42" y="9" onmousedown="handleZoom(evt,'out')"/>
                <use id="reset" xlink:href="#resetDef" x="30" y="36" onmousedown="handleReset()"/>
                <g id="arrowUp" xlink:href="#dirArrow" transform="translate(30 24)" onmousedown="handlePan(0,-1)">
                  <use xlink:href="#rim" fill="#404040">
                        <set attributeName="fill" to="#808080" begin="arrowUp.mouseover" end="arrowUp.mouseout"/>
                  </use>
                  <path fill="none" stroke="white" stroke-width="1.5" d="M0,-3.0v7 M-2.5,-0.5L0,-3.0L2.5,-0.5"/>
                </g>
                <g id="arrowRight" xlink:href="#dirArrow" transform="rotate(90) translate(36 -43)" onmousedown="handlePan(1,0)">
                  <use xlink:href="#rim" fill="#404040">
                        <set attributeName="fill" to="#808080" begin="arrowRight.mouseover" end="arrowRight.mouseout"/>
                  </use>
                  <path fill="none" stroke="white" stroke-width="1.5" d="M0,-3.0v7 M-2.5,-0.5L0,-3.0L2.5,-0.5"/>
                </g>
                <g id="arrowDown" xlink:href="#dirArrow" transform="rotate(180) translate(-30 -48)" onmousedown="handlePan(0,1)">
                  <use xlink:href="#rim" fill="#404040">
                        <set attributeName="fill" to="#808080" begin="arrowDown.mouseover" end="arrowDown.mouseout"/>
                  </use>
                  <path fill="none" stroke="white" stroke-width="1.5" d="M0,-3.0v7 M-2.5,-0.5L0,-3.0L2.5,-0.5"/>
                </g>
                <g id="arrowLeft" xlink:href="#dirArrow" transform="rotate(270) translate(-36 17)" onmousedown="handlePan(-1,0)">
                  <use xlink:href="#rim" fill="#404040">
                        <set attributeName="fill" to="#808080" begin="arrowLeft.mouseover" end="arrowLeft.mouseout"/>
                  </use>
                  <path fill="none" stroke="white" stroke-width="1.5" d="M0,-3.0v7 M-2.5,-0.5L0,-3.0L2.5,-0.5"/>
                </g>
        </g>
        <svg viewBox="0 0 15 15" width="100%" height="30px" preserveAspectRatio="xMaxYMin meet">
         <g id="arrow_out" transform="scale(0.3 0.3)">
          <a xlink:href="numbers_8h_a8dd0fcbe13e95a26142862cb156603f6_icgraph_org.svg" target="_base">
           <rect id="button" ry="5" rx="5" y="6" x="6" height="38" width="38"
                fill="#f2f5e9" fill-opacity="0.5" stroke="#606060" stroke-width="1.0"/>
           <path id="arrow"
             d="M 11.500037,31.436501 C 11.940474,20.09759 22.043105,11.32322 32.158766,21.979434 L 37.068811,17.246167 C 37.068811,17.246167 37.088388,32 37.088388,32 L 22.160133,31.978069 C 22.160133,31.978069 26.997745,27.140456 26.997745,27.140456 C 18.528582,18.264221 13.291696,25.230495 11.500037,31.436501 z"
             style="fill:#404040;"/>
          </a>
         </g>
        </svg>
</svg>
