<?xml version="1.0" encoding="UTF-8" standalone="no"?>
<!DOCTYPE svg PUBLIC "-//W3C//DTD SVG 1.1//EN"
 "http://www.w3.org/Graphics/SVG/1.1/DTD/svg11.dtd">
<!-- Generated by graphviz version 7.1.0 (20230121.1956)
 -->
<!-- Title: UniqueRowsetIdGenerator Pages: 1 -->
<svg width="261pt" height="93pt"
 viewBox="0.00 0.00 260.50 93.00" xmlns="http://www.w3.org/2000/svg" xmlns:xlink="http://www.w3.org/1999/xlink">
<g id="graph0" class="graph" transform="scale(1 1) rotate(0) translate(4 89)">
<title>UniqueRowsetIdGenerator</title>
<!-- Node1 -->
<g id="node1" class="node">
<title>Node1</title>
<g id="a_node1"><a xlink:title=" ">
<polygon fill="#999999" stroke="#666666" points="213.5,-19 81.5,-19 81.5,0 213.5,0 213.5,-19"/>
<text text-anchor="middle" x="147.5" y="-7" font-family="Helvetica,sans-Serif" font-size="10.00">UniqueRowsetIdGenerator</text>
</a>
</g>
</g>
<!-- Node2 -->
<g id="node2" class="node">
<title>Node2</title>
<g id="a_node2"><a xlink:href="../../d8/d40/classdoris_1_1_rowset_id_generator.html" target="_top" xlink:title=" ">
<polygon fill="white" stroke="#666666" points="101,-85 0,-85 0,-66 101,-66 101,-85"/>
<text text-anchor="middle" x="50.5" y="-73" font-family="Helvetica,sans-Serif" font-size="10.00">RowsetIdGenerator</text>
</a>
</g>
</g>
<!-- Node2&#45;&gt;Node1 -->
<g id="edge1" class="edge">
<title>Node2&#45;&gt;Node1</title>
<path fill="none" stroke="#63b8ff" d="M73.37,-59.41C92.28,-46.94 118.47,-29.65 134.13,-19.32"/>
<polygon fill="#63b8ff" stroke="#63b8ff" points="71.67,-56.34 65.25,-64.77 75.53,-62.18 71.67,-56.34"/>
</g>
<!-- Node3 -->
<g id="node3" class="node">
<title>Node3</title>
<g id="a_node3"><a xlink:href="../../d0/d82/classdoris_1_1_spin_lock.html" target="_top" xlink:title=" ">
<polygon fill="white" stroke="#666666" points="176,-85 119,-85 119,-66 176,-66 176,-85"/>
<text text-anchor="middle" x="147.5" y="-73" font-family="Helvetica,sans-Serif" font-size="10.00">SpinLock</text>
</a>
</g>
</g>
<!-- Node3&#45;&gt;Node1 -->
<g id="edge2" class="edge">
<title>Node3&#45;&gt;Node1</title>
<path fill="none" stroke="#9a32cd" stroke-dasharray="5,2" d="M147.5,-54.18C147.5,-42.44 147.5,-28.27 147.5,-19.32"/>
<polygon fill="#9a32cd" stroke="#9a32cd" points="144,-54.09 147.5,-64.09 151,-54.09 144,-54.09"/>
<text text-anchor="middle" x="161" y="-40" font-family="Helvetica,sans-Serif" font-size="10.00"> _lock</text>
</g>
<!-- Node4 -->
<g id="node4" class="node">
<title>Node4</title>
<g id="a_node4"><a xlink:href="../../db/dd0/structdoris_1_1_unique_id.html" target="_top" xlink:title=" ">
<polygon fill="white" stroke="#666666" points="250.5,-85 194.5,-85 194.5,-66 250.5,-66 250.5,-85"/>
<text text-anchor="middle" x="222.5" y="-73" font-family="Helvetica,sans-Serif" font-size="10.00">UniqueId</text>
</a>
</g>
</g>
<!-- Node4&#45;&gt;Node1 -->
<g id="edge3" class="edge">
<title>Node4&#45;&gt;Node1</title>
<path fill="none" stroke="#9a32cd" stroke-dasharray="5,2" d="M203.38,-58.19C188.9,-45.83 169.56,-29.32 157.84,-19.32"/>
<polygon fill="#9a32cd" stroke="#9a32cd" points="201.04,-60.79 210.92,-64.62 205.59,-55.46 201.04,-60.79"/>
<text text-anchor="middle" x="220.5" y="-40" font-family="Helvetica,sans-Serif" font-size="10.00"> _backend_uid</text>
</g>
</g>
</svg>
