<?xml version="1.0" encoding="UTF-8" standalone="no"?>
<!DOCTYPE svg PUBLIC "-//W3C//DTD SVG 1.1//EN"
 "http://www.w3.org/Graphics/SVG/1.1/DTD/svg11.dtd">
<!-- Generated by graphviz version 7.1.0 (20230121.1956)
 -->
<!-- Title: filter_block Pages: 1 -->
<svg width="644pt" height="358pt"
 viewBox="0.00 0.00 644.00 357.50" xmlns="http://www.w3.org/2000/svg" xmlns:xlink="http://www.w3.org/1999/xlink">
<g id="graph0" class="graph" transform="scale(1 1) rotate(0) translate(4 353.5)">
<title>filter_block</title>
<!-- Node1 -->
<g id="node1" class="node">
<title>Node1</title>
<g id="a_node1"><a xlink:title=" ">
<polygon fill="#999999" stroke="#666666" points="64,-143 0,-143 0,-124 64,-124 64,-143"/>
<text text-anchor="middle" x="32" y="-131" font-family="Helvetica,sans-Serif" font-size="10.00">filter_block</text>
</a>
</g>
</g>
<!-- Node2 -->
<g id="node2" class="node">
<title>Node2</title>
<g id="a_node2"><a xlink:href="../../d6/daf/classdoris_1_1vectorized_1_1_v_expr_context.html#a9ff611a768daebb3147dfcc87d0ddf35" target="_top" xlink:title=" ">
<polygon fill="white" stroke="#666666" points="173,-276 122,-276 122,-257 173,-257 173,-276"/>
<text text-anchor="middle" x="147.5" y="-264" font-family="Helvetica,sans-Serif" font-size="10.00">execute</text>
</a>
</g>
</g>
<!-- Node1&#45;&gt;Node2 -->
<g id="edge1" class="edge">
<title>Node1&#45;&gt;Node2</title>
<path fill="none" stroke="#63b8ff" d="M41.53,-143.5C60.52,-165.75 106.52,-219.65 130.83,-248.14"/>
<polygon fill="#63b8ff" stroke="#63b8ff" points="128.04,-250.26 137.2,-255.6 133.37,-245.72 128.04,-250.26"/>
</g>
<!-- Node4 -->
<g id="node4" class="node">
<title>Node4</title>
<g id="a_node4"><a xlink:href="../../d2/d12/classdoris_1_1vectorized_1_1_block.html#a7eb80c38778d1cf2cf2cf25fcbd30eaf" target="_top" xlink:title=" ">
<polygon fill="white" stroke="#666666" points="195,-170.5 100,-170.5 100,-140.5 195,-140.5 195,-170.5"/>
<text text-anchor="start" x="108" y="-158.5" font-family="Helvetica,sans-Serif" font-size="10.00">doris::vectorized::</text>
<text text-anchor="middle" x="147.5" y="-147.5" font-family="Helvetica,sans-Serif" font-size="10.00">Block::filter_block</text>
</a>
</g>
</g>
<!-- Node1&#45;&gt;Node4 -->
<g id="edge3" class="edge">
<title>Node1&#45;&gt;Node4</title>
<path fill="none" stroke="#63b8ff" d="M64.31,-139.57C71.8,-141.02 80.04,-142.62 88.31,-144.22"/>
<polygon fill="#63b8ff" stroke="#63b8ff" points="87.58,-147.65 98.07,-146.11 88.92,-140.77 87.58,-147.65"/>
</g>
<!-- Node16 -->
<g id="node16" class="node">
<title>Node16</title>
<g id="a_node16"><a xlink:href="../../d9/d8d/classdoris_1_1_status.html#a6ec1a217f203269ab53d2290d602db24" target="_top" xlink:title=" ">
<polygon fill="white" stroke="#666666" points="338,-19 246,-19 246,0 338,0 338,-19"/>
<text text-anchor="middle" x="292" y="-7" font-family="Helvetica,sans-Serif" font-size="10.00">doris::Status::OK</text>
</a>
</g>
</g>
<!-- Node1&#45;&gt;Node16 -->
<g id="edge20" class="edge">
<title>Node1&#45;&gt;Node16</title>
<path fill="none" stroke="#63b8ff" d="M64.2,-133.02C99.35,-130.97 156.59,-122.91 195,-93.5 221.22,-73.42 205.44,-49.41 231,-28.5 232.68,-27.12 234.46,-25.85 236.32,-24.66"/>
<polygon fill="#63b8ff" stroke="#63b8ff" points="237.57,-27.96 244.77,-20.18 234.29,-21.78 237.57,-27.96"/>
</g>
<!-- Node18 -->
<g id="node18" class="node">
<title>Node18</title>
<g id="a_node18"><a xlink:href="../../d2/d12/classdoris_1_1vectorized_1_1_block.html#a9be86262d8ec3739dba5e0910c2339ad" target="_top" xlink:title="Returns number of rows from first column in block, not equal to nullptr. If no columns,...">
<polygon fill="white" stroke="#666666" points="195,-84.5 100,-84.5 100,-54.5 195,-54.5 195,-84.5"/>
<text text-anchor="start" x="108" y="-72.5" font-family="Helvetica,sans-Serif" font-size="10.00">doris::vectorized::</text>
<text text-anchor="middle" x="147.5" y="-61.5" font-family="Helvetica,sans-Serif" font-size="10.00">Block::rows</text>
</a>
</g>
</g>
<!-- Node1&#45;&gt;Node18 -->
<g id="edge21" class="edge">
<title>Node1&#45;&gt;Node18</title>
<path fill="none" stroke="#63b8ff" d="M50.73,-123.5C66.34,-114.7 89.59,-101.59 109.26,-90.5"/>
<polygon fill="#63b8ff" stroke="#63b8ff" points="110.86,-93.61 117.85,-85.65 107.42,-87.52 110.86,-93.61"/>
</g>
<!-- Node3 -->
<g id="node3" class="node">
<title>Node3</title>
<g id="a_node3"><a xlink:href="../../d0/d2e/classdoris_1_1vectorized_1_1_v_expr.html#a1373c921466e4b47184c64a1df57ebbe" target="_top" xlink:title=" ">
<polygon fill="white" stroke="#666666" points="339.5,-349.5 244.5,-349.5 244.5,-319.5 339.5,-319.5 339.5,-349.5"/>
<text text-anchor="start" x="252.5" y="-337.5" font-family="Helvetica,sans-Serif" font-size="10.00">doris::vectorized::</text>
<text text-anchor="middle" x="292" y="-326.5" font-family="Helvetica,sans-Serif" font-size="10.00">VExpr::execute</text>
</a>
</g>
</g>
<!-- Node2&#45;&gt;Node3 -->
<g id="edge2" class="edge">
<title>Node2&#45;&gt;Node3</title>
<path fill="none" stroke="#63b8ff" d="M169.22,-276.39C189.94,-286.27 222.39,-301.76 248.59,-314.26"/>
<polygon fill="#63b8ff" stroke="#63b8ff" points="246.75,-317.26 257.29,-318.41 249.77,-310.95 246.75,-317.26"/>
</g>
<!-- Node5 -->
<g id="node5" class="node">
<title>Node5</title>
<g id="a_node5"><a xlink:href="../../df/db2/classdoris_1_1vectorized_1_1_p_o_d_array.html#adc1e16b293a89a9ccc9541058b5ca560" target="_top" xlink:title=" ">
<polygon fill="white" stroke="#666666" points="494.5,-313.5 399.5,-313.5 399.5,-283.5 494.5,-283.5 494.5,-313.5"/>
<text text-anchor="start" x="407.5" y="-301.5" font-family="Helvetica,sans-Serif" font-size="10.00">doris::vectorized::</text>
<text text-anchor="middle" x="447" y="-290.5" font-family="Helvetica,sans-Serif" font-size="10.00">PODArray::data</text>
</a>
</g>
</g>
<!-- Node4&#45;&gt;Node5 -->
<g id="edge4" class="edge">
<title>Node4&#45;&gt;Node5</title>
<path fill="none" stroke="#63b8ff" d="M154.38,-170.81C165.2,-196.67 190.89,-248.54 231,-272.5 278.46,-300.85 342.33,-305.21 388.1,-303.79"/>
<polygon fill="#63b8ff" stroke="#63b8ff" points="387.97,-307.3 397.82,-303.38 387.68,-300.3 387.97,-307.3"/>
</g>
<!-- Node7 -->
<g id="node7" class="node">
<title>Node7</title>
<g id="a_node7"><a xlink:href="../../d2/d12/classdoris_1_1vectorized_1_1_block.html#ac792f9b07de8cc5cf44c1cddcb3889e3" target="_top" xlink:title=" ">
<polygon fill="white" stroke="#666666" points="347,-127 237,-127 237,-86 347,-86 347,-127"/>
<text text-anchor="start" x="245" y="-115" font-family="Helvetica,sans-Serif" font-size="10.00">doris::vectorized::</text>
<text text-anchor="start" x="245" y="-104" font-family="Helvetica,sans-Serif" font-size="10.00">Block::erase_useless</text>
<text text-anchor="middle" x="292" y="-93" font-family="Helvetica,sans-Serif" font-size="10.00">_column</text>
</a>
</g>
</g>
<!-- Node4&#45;&gt;Node7 -->
<g id="edge6" class="edge">
<title>Node4&#45;&gt;Node7</title>
<path fill="none" stroke="#63b8ff" d="M193.2,-140.13C203.65,-136.54 214.99,-132.64 226.13,-128.81"/>
<polygon fill="#63b8ff" stroke="#63b8ff" points="226.95,-132.22 235.27,-125.66 224.68,-125.61 226.95,-132.22"/>
</g>
<!-- Node11 -->
<g id="node11" class="node">
<title>Node11</title>
<g id="a_node11"><a xlink:href="../../d2/d12/classdoris_1_1vectorized_1_1_block.html#aa070952cbe0b73fb1bb7f44f8ad14f82" target="_top" xlink:title=" ">
<polygon fill="white" stroke="#666666" points="339.5,-263 244.5,-263 244.5,-222 339.5,-222 339.5,-263"/>
<text text-anchor="start" x="252.5" y="-251" font-family="Helvetica,sans-Serif" font-size="10.00">doris::vectorized::</text>
<text text-anchor="start" x="252.5" y="-240" font-family="Helvetica,sans-Serif" font-size="10.00">Block::filter_block</text>
<text text-anchor="middle" x="292" y="-229" font-family="Helvetica,sans-Serif" font-size="10.00">_internal</text>
</a>
</g>
</g>
<!-- Node4&#45;&gt;Node11 -->
<g id="edge10" class="edge">
<title>Node4&#45;&gt;Node11</title>
<path fill="none" stroke="#63b8ff" d="M172.55,-170.96C188.94,-181.42 211.17,-195.47 231,-207.5 235.53,-210.25 240.27,-213.08 245.02,-215.9"/>
<polygon fill="#63b8ff" stroke="#63b8ff" points="243.01,-218.78 253.41,-220.83 246.57,-212.74 243.01,-218.78"/>
</g>
<!-- Node13 -->
<g id="node13" class="node">
<title>Node13</title>
<g id="a_node13"><a xlink:href="../../d2/d12/classdoris_1_1vectorized_1_1_block.html#a54f8f7eae676dfa49029fff7c7ce8f05" target="_top" xlink:title="References are invalidated after calling functions above.">
<polygon fill="white" stroke="#666666" points="505,-217.5 389,-217.5 389,-187.5 505,-187.5 505,-217.5"/>
<text text-anchor="start" x="397" y="-205.5" font-family="Helvetica,sans-Serif" font-size="10.00">doris::vectorized::</text>
<text text-anchor="middle" x="447" y="-194.5" font-family="Helvetica,sans-Serif" font-size="10.00">Block::get_by_position</text>
</a>
</g>
</g>
<!-- Node4&#45;&gt;Node13 -->
<g id="edge15" class="edge">
<title>Node4&#45;&gt;Node13</title>
<path fill="none" stroke="#63b8ff" d="M195.31,-162.9C244.22,-170.62 321.47,-182.83 377.29,-191.65"/>
<polygon fill="#63b8ff" stroke="#63b8ff" points="376.59,-195.08 387.01,-193.18 377.68,-188.16 376.59,-195.08"/>
</g>
<!-- Node14 -->
<g id="node14" class="node">
<title>Node14</title>
<g id="a_node14"><a xlink:href="../../d5/d9d/classdoris_1_1vectorized_1_1_p_o_d_array_base.html#a259cb5a711406a8c3e5d937eb9350cca" target="_top" xlink:title=" ">
<polygon fill="white" stroke="#666666" points="501,-169.5 393,-169.5 393,-139.5 501,-139.5 501,-169.5"/>
<text text-anchor="start" x="401" y="-157.5" font-family="Helvetica,sans-Serif" font-size="10.00">doris::vectorized::</text>
<text text-anchor="middle" x="447" y="-146.5" font-family="Helvetica,sans-Serif" font-size="10.00">PODArrayBase::size</text>
</a>
</g>
</g>
<!-- Node4&#45;&gt;Node14 -->
<g id="edge19" class="edge">
<title>Node4&#45;&gt;Node14</title>
<path fill="none" stroke="#63b8ff" d="M195.31,-155.34C245.45,-155.17 325.35,-154.91 381.44,-154.72"/>
<polygon fill="#63b8ff" stroke="#63b8ff" points="381.18,-158.22 391.17,-154.68 381.15,-151.22 381.18,-158.22"/>
</g>
<!-- Node15 -->
<g id="node15" class="node">
<title>Node15</title>
<g id="a_node15"><a xlink:href="../../df/d15/classdoris_1_1vectorized_1_1_column_vector.html#a3206c08675c03058605f3a6e5a452b5c" target="_top" xlink:title=" ">
<polygon fill="white" stroke="#666666" points="353,-67.5 231,-67.5 231,-37.5 353,-37.5 353,-67.5"/>
<text text-anchor="start" x="239" y="-55.5" font-family="Helvetica,sans-Serif" font-size="10.00">doris::vectorized::</text>
<text text-anchor="middle" x="292" y="-44.5" font-family="Helvetica,sans-Serif" font-size="10.00">ColumnVector::get_data</text>
</a>
</g>
</g>
<!-- Node4&#45;&gt;Node15 -->
<g id="edge16" class="edge">
<title>Node4&#45;&gt;Node15</title>
<path fill="none" stroke="#63b8ff" d="M176.79,-140.25C183.11,-136.21 189.56,-131.54 195,-126.5 214.82,-108.13 209.75,-94.2 231,-77.5 232.73,-76.14 234.55,-74.84 236.42,-73.61"/>
<polygon fill="#63b8ff" stroke="#63b8ff" points="238.01,-76.73 244.9,-68.68 234.5,-70.68 238.01,-76.73"/>
</g>
<!-- Node4&#45;&gt;Node16 -->
<g id="edge17" class="edge">
<title>Node4&#45;&gt;Node16</title>
<path fill="none" stroke="#63b8ff" d="M179.82,-140C185.42,-136.18 190.8,-131.67 195,-126.5 224.27,-90.5 197.45,-60.56 231,-28.5 232.57,-27 234.26,-25.62 236.04,-24.34"/>
<polygon fill="#63b8ff" stroke="#63b8ff" points="237.33,-27.64 244.24,-19.6 233.83,-21.58 237.33,-27.64"/>
</g>
<!-- Node6 -->
<g id="node6" class="node">
<title>Node6</title>
<g id="a_node6"><a xlink:href="../../df/db2/classdoris_1_1vectorized_1_1_p_o_d_array.html#a8e612adde07f46d3398ac6962d676a66" target="_top" xlink:title=" ">
<polygon fill="white" stroke="#666666" points="636,-313.5 541,-313.5 541,-283.5 636,-283.5 636,-313.5"/>
<text text-anchor="start" x="549" y="-301.5" font-family="Helvetica,sans-Serif" font-size="10.00">doris::vectorized::</text>
<text text-anchor="middle" x="588.5" y="-290.5" font-family="Helvetica,sans-Serif" font-size="10.00">PODArray::t_start</text>
</a>
</g>
</g>
<!-- Node5&#45;&gt;Node6 -->
<g id="edge5" class="edge">
<title>Node5&#45;&gt;Node6</title>
<path fill="none" stroke="#63b8ff" d="M494.84,-298.5C505.88,-298.5 517.78,-298.5 529.26,-298.5"/>
<polygon fill="#63b8ff" stroke="#63b8ff" points="529.03,-302 539.03,-298.5 529.03,-295 529.03,-302"/>
</g>
<!-- Node8 -->
<g id="node8" class="node">
<title>Node8</title>
<g id="a_node8"><a xlink:href="../../d2/d12/classdoris_1_1vectorized_1_1_block.html#a08f559e5612203aeedf927d660e77b67" target="_top" xlink:title=" ">
<polygon fill="white" stroke="#666666" points="494.5,-121.5 399.5,-121.5 399.5,-91.5 494.5,-91.5 494.5,-121.5"/>
<text text-anchor="start" x="407.5" y="-109.5" font-family="Helvetica,sans-Serif" font-size="10.00">doris::vectorized::</text>
<text text-anchor="middle" x="447" y="-98.5" font-family="Helvetica,sans-Serif" font-size="10.00">Block::columns</text>
</a>
</g>
</g>
<!-- Node7&#45;&gt;Node8 -->
<g id="edge7" class="edge">
<title>Node7&#45;&gt;Node8</title>
<path fill="none" stroke="#63b8ff" d="M347.37,-106.5C360.53,-106.5 374.63,-106.5 387.95,-106.5"/>
<polygon fill="#63b8ff" stroke="#63b8ff" points="387.89,-110 397.89,-106.5 387.89,-103 387.89,-110"/>
</g>
<!-- Node9 -->
<g id="node9" class="node">
<title>Node9</title>
<g id="a_node9"><a xlink:href="../../d2/d12/classdoris_1_1vectorized_1_1_block.html#a9d6412d01018cbe3a62047e8cda05507" target="_top" xlink:title="remove the column at the specified position">
<polygon fill="white" stroke="#666666" points="494.5,-73.5 399.5,-73.5 399.5,-43.5 494.5,-43.5 494.5,-73.5"/>
<text text-anchor="start" x="407.5" y="-61.5" font-family="Helvetica,sans-Serif" font-size="10.00">doris::vectorized::</text>
<text text-anchor="middle" x="447" y="-50.5" font-family="Helvetica,sans-Serif" font-size="10.00">Block::erase</text>
</a>
</g>
</g>
<!-- Node7&#45;&gt;Node9 -->
<g id="edge8" class="edge">
<title>Node7&#45;&gt;Node9</title>
<path fill="none" stroke="#63b8ff" d="M347.37,-89.44C360.79,-85.23 375.21,-80.71 388.76,-76.46"/>
<polygon fill="#63b8ff" stroke="#63b8ff" points="389.47,-79.9 397.96,-73.57 387.37,-73.23 389.47,-79.9"/>
</g>
<!-- Node10 -->
<g id="node10" class="node">
<title>Node10</title>
<g id="a_node10"><a xlink:href="../../d2/d12/classdoris_1_1vectorized_1_1_block.html#a77876dcf62594f5de42179964e5bbda0" target="_top" xlink:title=" ">
<polygon fill="white" stroke="#666666" points="636,-73.5 541,-73.5 541,-43.5 636,-43.5 636,-73.5"/>
<text text-anchor="start" x="549" y="-61.5" font-family="Helvetica,sans-Serif" font-size="10.00">doris::vectorized::</text>
<text text-anchor="middle" x="588.5" y="-50.5" font-family="Helvetica,sans-Serif" font-size="10.00">Block::erase_impl</text>
</a>
</g>
</g>
<!-- Node9&#45;&gt;Node10 -->
<g id="edge9" class="edge">
<title>Node9&#45;&gt;Node10</title>
<path fill="none" stroke="#63b8ff" d="M494.84,-58.5C505.88,-58.5 517.78,-58.5 529.26,-58.5"/>
<polygon fill="#63b8ff" stroke="#63b8ff" points="529.03,-62 539.03,-58.5 529.03,-55 529.03,-62"/>
</g>
<!-- Node11&#45;&gt;Node5 -->
<g id="edge12" class="edge">
<title>Node11&#45;&gt;Node5</title>
<path fill="none" stroke="#63b8ff" d="M339.74,-259.61C356.62,-265.79 375.8,-272.8 393.17,-279.16"/>
<polygon fill="#63b8ff" stroke="#63b8ff" points="391.7,-282.35 402.29,-282.5 394.1,-275.78 391.7,-282.35"/>
</g>
<!-- Node12 -->
<g id="node12" class="node">
<title>Node12</title>
<g id="a_node12"><a xlink:href="../../d1/d97/namespacedoris_1_1simd.html#a654cb15803d4b93a304e5c59142922ce" target="_top" xlink:title=" ">
<polygon fill="white" stroke="#666666" points="494.5,-265.5 399.5,-265.5 399.5,-235.5 494.5,-235.5 494.5,-265.5"/>
<text text-anchor="start" x="407.5" y="-253.5" font-family="Helvetica,sans-Serif" font-size="10.00">doris::simd::count</text>
<text text-anchor="middle" x="447" y="-242.5" font-family="Helvetica,sans-Serif" font-size="10.00">_zero_num</text>
</a>
</g>
</g>
<!-- Node11&#45;&gt;Node12 -->
<g id="edge11" class="edge">
<title>Node11&#45;&gt;Node12</title>
<path fill="none" stroke="#63b8ff" d="M339.74,-244.94C354.87,-245.74 371.84,-246.62 387.71,-247.45"/>
<polygon fill="#63b8ff" stroke="#63b8ff" points="387.34,-250.94 397.51,-247.96 387.71,-243.95 387.34,-250.94"/>
</g>
<!-- Node11&#45;&gt;Node13 -->
<g id="edge13" class="edge">
<title>Node11&#45;&gt;Node13</title>
<path fill="none" stroke="#63b8ff" d="M339.74,-230.28C351.7,-227.15 364.81,-223.73 377.62,-220.38"/>
<polygon fill="#63b8ff" stroke="#63b8ff" points="378.5,-223.76 387.29,-217.85 376.73,-216.99 378.5,-223.76"/>
</g>
<!-- Node11&#45;&gt;Node14 -->
<g id="edge14" class="edge">
<title>Node11&#45;&gt;Node14</title>
<path fill="none" stroke="#63b8ff" d="M321.1,-221.7C339.79,-208.4 365.18,-191.3 389,-178.5 391.35,-177.23 393.79,-175.99 396.27,-174.77"/>
<polygon fill="#63b8ff" stroke="#63b8ff" points="397.66,-177.98 405.23,-170.58 394.69,-171.64 397.66,-177.98"/>
</g>
<!-- Node17 -->
<g id="node17" class="node">
<title>Node17</title>
<g id="a_node17"><a xlink:href="../../d9/d8d/classdoris_1_1_status.html#aafde58df1b2a6a91d5b674373be3ffc5" target="_top" xlink:title=" ">
<polygon fill="white" stroke="#666666" points="500.5,-19 393.5,-19 393.5,0 500.5,0 500.5,-19"/>
<text text-anchor="middle" x="447" y="-7" font-family="Helvetica,sans-Serif" font-size="10.00">doris::Status::Status</text>
</a>
</g>
</g>
<!-- Node16&#45;&gt;Node17 -->
<g id="edge18" class="edge">
<title>Node16&#45;&gt;Node17</title>
<path fill="none" stroke="#63b8ff" d="M338.49,-9.5C352.04,-9.5 367.16,-9.5 381.68,-9.5"/>
<polygon fill="#63b8ff" stroke="#63b8ff" points="381.64,-13 391.64,-9.5 381.64,-6 381.64,-13"/>
</g>
</g>
</svg>
