<?xml version="1.0" encoding="UTF-8" standalone="no"?>
<!DOCTYPE svg PUBLIC "-//W3C//DTD SVG 1.1//EN"
 "http://www.w3.org/Graphics/SVG/1.1/DTD/svg11.dtd">
<!-- Generated by graphviz version 7.1.0 (20230121.1956)
 -->
<!-- Title: close Pages: 1 -->
<svg width="462pt" height="124pt"
 viewBox="0.00 0.00 462.00 124.00" xmlns="http://www.w3.org/2000/svg" xmlns:xlink="http://www.w3.org/1999/xlink">
<g id="graph0" class="graph" transform="scale(1 1) rotate(0) translate(4 120)">
<title>close</title>
<!-- Node1 -->
<g id="node1" class="node">
<title>Node1</title>
<g id="a_node1"><a xlink:title=" ">
<polygon fill="#999999" stroke="#666666" points="40,-67.5 0,-67.5 0,-48.5 40,-48.5 40,-67.5"/>
<text text-anchor="middle" x="20" y="-55.5" font-family="Helvetica,sans-Serif" font-size="10.00">close</text>
</a>
</g>
</g>
<!-- Node2 -->
<g id="node2" class="node">
<title>Node2</title>
<g id="a_node2"><a xlink:href="../../da/d8a/classdoris_1_1vectorized_1_1_v_table_sink.html#aa7244ec43ccffe0e0c671740374e20be" target="_top" xlink:title=" ">
<polygon fill="white" stroke="#666666" points="175.5,-116 80.5,-116 80.5,-86 175.5,-86 175.5,-116"/>
<text text-anchor="start" x="88.5" y="-104" font-family="Helvetica,sans-Serif" font-size="10.00">doris::vectorized::</text>
<text text-anchor="middle" x="128" y="-93" font-family="Helvetica,sans-Serif" font-size="10.00">VTableSink::close</text>
</a>
</g>
</g>
<!-- Node1&#45;&gt;Node2 -->
<g id="edge1" class="edge">
<title>Node1&#45;&gt;Node2</title>
<path fill="none" stroke="#63b8ff" d="M40.44,-65.89C51.1,-70.21 64.83,-75.78 78.21,-81.21"/>
<polygon fill="#63b8ff" stroke="#63b8ff" points="76.81,-84.42 87.39,-84.93 79.44,-77.93 76.81,-84.42"/>
</g>
<!-- Node4 -->
<g id="node4" class="node">
<title>Node4</title>
<g id="a_node4"><a xlink:href="../../d9/d8d/classdoris_1_1_status.html#a6ec1a217f203269ab53d2290d602db24" target="_top" xlink:title=" ">
<polygon fill="white" stroke="#666666" points="309.5,-67.5 217.5,-67.5 217.5,-48.5 309.5,-48.5 309.5,-67.5"/>
<text text-anchor="middle" x="263.5" y="-55.5" font-family="Helvetica,sans-Serif" font-size="10.00">doris::Status::OK</text>
</a>
</g>
</g>
<!-- Node1&#45;&gt;Node4 -->
<g id="edge6" class="edge">
<title>Node1&#45;&gt;Node4</title>
<path fill="none" stroke="#63b8ff" d="M40.35,-58C75.81,-58 152.42,-58 205.69,-58"/>
<polygon fill="#63b8ff" stroke="#63b8ff" points="205.5,-61.5 215.5,-58 205.5,-54.5 205.5,-61.5"/>
</g>
<!-- Node6 -->
<g id="node6" class="node">
<title>Node6</title>
<g id="a_node6"><a xlink:href="../../d7/dc1/classdoris_1_1_runtime_state.html#a4a2dd8e32dc1500754bee926d272cbc0" target="_top" xlink:title=" ">
<polygon fill="white" stroke="#666666" points="180,-30 76,-30 76,0 180,0 180,-30"/>
<text text-anchor="start" x="84" y="-18" font-family="Helvetica,sans-Serif" font-size="10.00">doris::RuntimeState</text>
<text text-anchor="middle" x="128" y="-7" font-family="Helvetica,sans-Serif" font-size="10.00">::get_tracer</text>
</a>
</g>
</g>
<!-- Node1&#45;&gt;Node6 -->
<g id="edge5" class="edge">
<title>Node1&#45;&gt;Node6</title>
<path fill="none" stroke="#63b8ff" d="M40.44,-50.11C51.1,-45.79 64.83,-40.22 78.21,-34.79"/>
<polygon fill="#63b8ff" stroke="#63b8ff" points="79.44,-38.07 87.39,-31.07 76.81,-31.58 79.44,-38.07"/>
</g>
<!-- Node3 -->
<g id="node3" class="node">
<title>Node3</title>
<g id="a_node3"><a xlink:href="../../d0/d2e/classdoris_1_1vectorized_1_1_v_expr.html#ad61f341147ba83929acb09d735e20fc0" target="_top" xlink:title="Subclasses overriding this function should call VExpr::Close().">
<polygon fill="white" stroke="#666666" points="311,-116 216,-116 216,-86 311,-86 311,-116"/>
<text text-anchor="start" x="224" y="-104" font-family="Helvetica,sans-Serif" font-size="10.00">doris::vectorized::</text>
<text text-anchor="middle" x="263.5" y="-93" font-family="Helvetica,sans-Serif" font-size="10.00">VExpr::close</text>
</a>
</g>
</g>
<!-- Node2&#45;&gt;Node3 -->
<g id="edge2" class="edge">
<title>Node2&#45;&gt;Node3</title>
<path fill="none" stroke="#63b8ff" d="M175.69,-101C184.89,-101 194.64,-101 204.16,-101"/>
<polygon fill="#63b8ff" stroke="#63b8ff" points="204.1,-104.5 214.1,-101 204.1,-97.5 204.1,-104.5"/>
</g>
<!-- Node2&#45;&gt;Node4 -->
<g id="edge3" class="edge">
<title>Node2&#45;&gt;Node4</title>
<path fill="none" stroke="#63b8ff" d="M175.69,-85.96C190.43,-81.21 206.61,-76 220.96,-71.38"/>
<polygon fill="#63b8ff" stroke="#63b8ff" points="221.65,-74.84 230.09,-68.44 219.5,-68.17 221.65,-74.84"/>
</g>
<!-- Node5 -->
<g id="node5" class="node">
<title>Node5</title>
<g id="a_node5"><a xlink:href="../../d9/d8d/classdoris_1_1_status.html#aafde58df1b2a6a91d5b674373be3ffc5" target="_top" xlink:title=" ">
<polygon fill="white" stroke="#666666" points="454,-67.5 347,-67.5 347,-48.5 454,-48.5 454,-67.5"/>
<text text-anchor="middle" x="400.5" y="-55.5" font-family="Helvetica,sans-Serif" font-size="10.00">doris::Status::Status</text>
</a>
</g>
</g>
<!-- Node4&#45;&gt;Node5 -->
<g id="edge4" class="edge">
<title>Node4&#45;&gt;Node5</title>
<path fill="none" stroke="#63b8ff" d="M309.83,-58C318.03,-58 326.72,-58 335.34,-58"/>
<polygon fill="#63b8ff" stroke="#63b8ff" points="335.07,-61.5 345.07,-58 335.07,-54.5 335.07,-61.5"/>
</g>
</g>
</svg>
