<?xml version="1.0" encoding="UTF-8" standalone="no"?>
<!DOCTYPE svg PUBLIC "-//W3C//DTD SVG 1.1//EN"
 "http://www.w3.org/Graphics/SVG/1.1/DTD/svg11.dtd">
<!-- Generated by graphviz version 7.1.0 (20230121.1956)
 -->
<!-- Title: write Pages: 1 -->
<svg width="241pt" height="108pt"
 viewBox="0.00 0.00 241.00 108.00" xmlns="http://www.w3.org/2000/svg" xmlns:xlink="http://www.w3.org/1999/xlink">
<g id="graph0" class="graph" transform="scale(1 1) rotate(0) translate(4 104)">
<title>write</title>
<!-- Node1 -->
<g id="node1" class="node">
<title>Node1</title>
<g id="a_node1"><a xlink:title=" ">
<polygon fill="#999999" stroke="#666666" points="233,-59 195,-59 195,-40 233,-40 233,-59"/>
<text text-anchor="middle" x="214" y="-47" font-family="Helvetica,sans-Serif" font-size="10.00">write</text>
</a>
</g>
</g>
<!-- Node2 -->
<g id="node2" class="node">
<title>Node2</title>
<g id="a_node2"><a xlink:href="../../d6/d0c/structdoris_1_1vectorized_1_1_aggregate_function_distinct_single_numeric_data.html#ae7c77462cd24e2cca91abaf346f41ae1" target="_top" xlink:title=" ">
<polygon fill="white" stroke="#666666" points="159,-100 0,-100 0,-59 159,-59 159,-100"/>
<text text-anchor="start" x="8" y="-88" font-family="Helvetica,sans-Serif" font-size="10.00">doris::vectorized::</text>
<text text-anchor="start" x="8" y="-77" font-family="Helvetica,sans-Serif" font-size="10.00">AggregateFunctionDistinctSingle</text>
<text text-anchor="middle" x="79.5" y="-66" font-family="Helvetica,sans-Serif" font-size="10.00">NumericData::serialize</text>
</a>
</g>
</g>
<!-- Node1&#45;&gt;Node2 -->
<g id="edge1" class="edge">
<title>Node1&#45;&gt;Node2</title>
<path fill="none" stroke="#63b8ff" d="M183.48,-56.18C176.13,-57.85 167.88,-59.72 159.35,-61.65"/>
<polygon fill="#63b8ff" stroke="#63b8ff" points="184.12,-59.63 193.1,-54.01 182.57,-52.8 184.12,-59.63"/>
</g>
<!-- Node3 -->
<g id="node3" class="node">
<title>Node3</title>
<g id="a_node3"><a xlink:href="../../dc/d92/structdoris_1_1vectorized_1_1_aggregate_function_collect_set_data.html#a8f098b3edf81803035538596bf24028f" target="_top" xlink:title=" ">
<polygon fill="white" stroke="#666666" points="151.5,-41 7.5,-41 7.5,0 151.5,0 151.5,-41"/>
<text text-anchor="start" x="15.5" y="-29" font-family="Helvetica,sans-Serif" font-size="10.00">doris::vectorized::</text>
<text text-anchor="start" x="15.5" y="-18" font-family="Helvetica,sans-Serif" font-size="10.00">AggregateFunctionCollectSet</text>
<text text-anchor="middle" x="79.5" y="-7" font-family="Helvetica,sans-Serif" font-size="10.00">Data::write</text>
</a>
</g>
</g>
<!-- Node1&#45;&gt;Node3 -->
<g id="edge2" class="edge">
<title>Node1&#45;&gt;Node3</title>
<path fill="none" stroke="#63b8ff" d="M183.47,-43.04C174.02,-40.97 163.1,-38.58 151.99,-36.15"/>
<polygon fill="#63b8ff" stroke="#63b8ff" points="182.58,-46.42 193.1,-45.14 184.08,-39.59 182.58,-46.42"/>
</g>
</g>
</svg>
