<?xml version="1.0" encoding="UTF-8" standalone="no"?>
<!DOCTYPE svg PUBLIC "-//W3C//DTD SVG 1.1//EN"
 "http://www.w3.org/Graphics/SVG/1.1/DTD/svg11.dtd">
<!-- Generated by graphviz version 7.1.0 (20230121.1956)
 -->
<!-- Title: cbegin Pages: 1 -->
<svg width="345pt" height="64pt"
 viewBox="0.00 0.00 345.00 64.00" xmlns="http://www.w3.org/2000/svg" xmlns:xlink="http://www.w3.org/1999/xlink">
<g id="graph0" class="graph" transform="scale(1 1) rotate(0) translate(4 60)">
<title>cbegin</title>
<!-- Node1 -->
<g id="node1" class="node">
<title>Node1</title>
<g id="a_node1"><a xlink:title=" ">
<polygon fill="#999999" stroke="#666666" points="45,-37 0,-37 0,-18 45,-18 45,-37"/>
<text text-anchor="middle" x="22.5" y="-25" font-family="Helvetica,sans-Serif" font-size="10.00">cbegin</text>
</a>
</g>
</g>
<!-- Node2 -->
<g id="node2" class="node">
<title>Node2</title>
<g id="a_node2"><a xlink:href="../../da/dae/class_hash_table.html#a29305669b60ca1680752e2fc3592ba99" target="_top" xlink:title=" ">
<polygon fill="white" stroke="#666666" points="121,-37 81,-37 81,-18 121,-18 121,-37"/>
<text text-anchor="middle" x="101" y="-25" font-family="Helvetica,sans-Serif" font-size="10.00">begin</text>
</a>
</g>
</g>
<!-- Node1&#45;&gt;Node2 -->
<g id="edge1" class="edge">
<title>Node1&#45;&gt;Node2</title>
<path fill="none" stroke="#63b8ff" d="M45.22,-27.5C52.7,-27.5 61.22,-27.5 69.28,-27.5"/>
<polygon fill="#63b8ff" stroke="#63b8ff" points="69.06,-31 79.06,-27.5 69.06,-24 69.06,-31"/>
</g>
<!-- Node3 -->
<g id="node3" class="node">
<title>Node3</title>
<g id="a_node3"><a xlink:href="../../da/dae/class_hash_table.html#accf9a4bd0c34d4a5f6a7dab66ea10cdc" target="_top" xlink:title=" ">
<polygon fill="white" stroke="#666666" points="215,-56 183,-56 183,-37 215,-37 215,-56"/>
<text text-anchor="middle" x="199" y="-44" font-family="Helvetica,sans-Serif" font-size="10.00">end</text>
</a>
</g>
</g>
<!-- Node2&#45;&gt;Node3 -->
<g id="edge2" class="edge">
<title>Node2&#45;&gt;Node3</title>
<path fill="none" stroke="#63b8ff" d="M121.43,-31.34C135.83,-34.2 155.64,-38.12 171.5,-41.26"/>
<polygon fill="#63b8ff" stroke="#63b8ff" points="170.73,-44.67 181.22,-43.18 172.09,-37.8 170.73,-44.67"/>
</g>
<!-- Node4 -->
<g id="node4" class="node">
<title>Node4</title>
<g id="a_node4"><a xlink:href="../../da/dae/class_hash_table.html#a4cc9416f2a2ba1a4e2709d2e1093210d" target="_top" xlink:title=" ">
<polygon fill="white" stroke="#666666" points="241,-19 157,-19 157,0 241,0 241,-19"/>
<text text-anchor="middle" x="199" y="-7" font-family="Helvetica,sans-Serif" font-size="10.00">iterator_to_zero</text>
</a>
</g>
</g>
<!-- Node2&#45;&gt;Node4 -->
<g id="edge3" class="edge">
<title>Node2&#45;&gt;Node4</title>
<path fill="none" stroke="#63b8ff" d="M121.43,-23.86C128.51,-22.53 136.9,-20.96 145.49,-19.35"/>
<polygon fill="#63b8ff" stroke="#63b8ff" points="146.12,-22.79 155.31,-17.5 144.83,-15.91 146.12,-22.79"/>
</g>
<!-- Node5 -->
<g id="node5" class="node">
<title>Node5</title>
<g id="a_node5"><a xlink:href="../../da/dae/class_hash_table.html#a7785e973f850b75a741ed6e5651c568b" target="_top" xlink:title=" ">
<polygon fill="white" stroke="#666666" points="337,-19 277,-19 277,0 337,0 337,-19"/>
<text text-anchor="middle" x="307" y="-7" font-family="Helvetica,sans-Serif" font-size="10.00">iterator_to</text>
</a>
</g>
</g>
<!-- Node4&#45;&gt;Node5 -->
<g id="edge4" class="edge">
<title>Node4&#45;&gt;Node5</title>
<path fill="none" stroke="#63b8ff" d="M241.29,-9.5C249.25,-9.5 257.59,-9.5 265.53,-9.5"/>
<polygon fill="#63b8ff" stroke="#63b8ff" points="265.28,-13 275.28,-9.5 265.28,-6 265.28,-13"/>
</g>
</g>
</svg>
