<?xml version="1.0" encoding="UTF-8" standalone="no"?>
<!DOCTYPE svg PUBLIC "-//W3C//DTD SVG 1.1//EN"
 "http://www.w3.org/Graphics/SVG/1.1/DTD/svg11.dtd">
<!-- Generated by graphviz version 7.1.0 (20230121.1956)
 -->
<!-- Title: read Pages: 1 -->
<svg width="238pt" height="108pt"
 viewBox="0.00 0.00 238.00 108.00" xmlns="http://www.w3.org/2000/svg" xmlns:xlink="http://www.w3.org/1999/xlink">
<g id="graph0" class="graph" transform="scale(1 1) rotate(0) translate(4 104)">
<title>read</title>
<!-- Node1 -->
<g id="node1" class="node">
<title>Node1</title>
<g id="a_node1"><a xlink:title=" ">
<polygon fill="#999999" stroke="#666666" points="230,-59 195,-59 195,-40 230,-40 230,-59"/>
<text text-anchor="middle" x="212.5" y="-47" font-family="Helvetica,sans-Serif" font-size="10.00">read</text>
</a>
</g>
</g>
<!-- Node2 -->
<g id="node2" class="node">
<title>Node2</title>
<g id="a_node2"><a xlink:href="../../d6/d0c/structdoris_1_1vectorized_1_1_aggregate_function_distinct_single_numeric_data.html#a7b69a6d9cbecfce9053f07ff9baeef4b" target="_top" xlink:title=" ">
<polygon fill="white" stroke="#666666" points="159,-100 0,-100 0,-59 159,-59 159,-100"/>
<text text-anchor="start" x="8" y="-88" font-family="Helvetica,sans-Serif" font-size="10.00">doris::vectorized::</text>
<text text-anchor="start" x="8" y="-77" font-family="Helvetica,sans-Serif" font-size="10.00">AggregateFunctionDistinctSingle</text>
<text text-anchor="middle" x="79.5" y="-66" font-family="Helvetica,sans-Serif" font-size="10.00">NumericData::deserialize</text>
</a>
</g>
</g>
<!-- Node1&#45;&gt;Node2 -->
<g id="edge1" class="edge">
<title>Node1&#45;&gt;Node2</title>
<path fill="none" stroke="#63b8ff" d="M183.61,-55.89C176.24,-57.57 167.91,-59.48 159.26,-61.46"/>
<polygon fill="#63b8ff" stroke="#63b8ff" points="184.2,-59.34 193.17,-53.7 182.64,-52.52 184.2,-59.34"/>
</g>
<!-- Node3 -->
<g id="node3" class="node">
<title>Node3</title>
<g id="a_node3"><a xlink:href="../../dc/d92/structdoris_1_1vectorized_1_1_aggregate_function_collect_set_data.html#adee1f511c659624c5e46db33f73bf249" target="_top" xlink:title=" ">
<polygon fill="white" stroke="#666666" points="151.5,-41 7.5,-41 7.5,0 151.5,0 151.5,-41"/>
<text text-anchor="start" x="15.5" y="-29" font-family="Helvetica,sans-Serif" font-size="10.00">doris::vectorized::</text>
<text text-anchor="start" x="15.5" y="-18" font-family="Helvetica,sans-Serif" font-size="10.00">AggregateFunctionCollectSet</text>
<text text-anchor="middle" x="79.5" y="-7" font-family="Helvetica,sans-Serif" font-size="10.00">Data::read</text>
</a>
</g>
</g>
<!-- Node1&#45;&gt;Node3 -->
<g id="edge2" class="edge">
<title>Node1&#45;&gt;Node3</title>
<path fill="none" stroke="#63b8ff" d="M183.62,-43.33C174.18,-41.24 163.16,-38.8 151.9,-36.31"/>
<polygon fill="#63b8ff" stroke="#63b8ff" points="182.64,-46.7 193.16,-45.44 184.16,-39.86 182.64,-46.7"/>
</g>
</g>
</svg>
