<?xml version="1.0" encoding="UTF-8" standalone="no"?>
<!DOCTYPE svg PUBLIC "-//W3C//DTD SVG 1.1//EN"
 "http://www.w3.org/Graphics/SVG/1.1/DTD/svg11.dtd">
<!-- Generated by graphviz version 7.1.0 (20230121.1956)
 -->
<!-- Title: max Pages: 1 -->
<svg width="189pt" height="64pt"
 viewBox="0.00 0.00 189.00 64.00" xmlns="http://www.w3.org/2000/svg" xmlns:xlink="http://www.w3.org/1999/xlink">
<g id="graph0" class="graph" transform="scale(1 1) rotate(0) translate(4 60)">
<title>max</title>
<!-- Node1 -->
<g id="node1" class="node">
<title>Node1</title>
<g id="a_node1"><a xlink:title=" ">
<polygon fill="#999999" stroke="#666666" points="35,-37 0,-37 0,-18 35,-18 35,-37"/>
<text text-anchor="middle" x="17.5" y="-25" font-family="Helvetica,sans-Serif" font-size="10.00">max</text>
</a>
</g>
</g>
<!-- Node2 -->
<g id="node2" class="node">
<title>Node2</title>
<g id="a_node2"><a xlink:href="../../d6/d94/namespacedoris.html#ad11924318fdbc24a45b65c7a0b5886a7" target="_top" xlink:title=" ">
<polygon fill="white" stroke="#666666" points="173,-56 79,-56 79,-37 173,-37 173,-56"/>
<text text-anchor="middle" x="126" y="-44" font-family="Helvetica,sans-Serif" font-size="10.00">doris::binary_cast</text>
</a>
</g>
</g>
<!-- Node1&#45;&gt;Node2 -->
<g id="edge1" class="edge">
<title>Node1&#45;&gt;Node2</title>
<path fill="none" stroke="#63b8ff" d="M35.14,-30.47C44.01,-32.05 55.5,-34.1 67.28,-36.2"/>
<polygon fill="#63b8ff" stroke="#63b8ff" points="66.65,-39.64 77.11,-37.96 67.88,-32.75 66.65,-39.64"/>
</g>
<!-- Node3 -->
<g id="node3" class="node">
<title>Node3</title>
<g id="a_node3"><a xlink:href="../../de/d9c/structdoris_1_1type__limit.html#a7627a9fe99c68bdbbe9c58672434e178" target="_top" xlink:title=" ">
<polygon fill="white" stroke="#666666" points="181,-19 71,-19 71,0 181,0 181,-19"/>
<text text-anchor="middle" x="126" y="-7" font-family="Helvetica,sans-Serif" font-size="10.00">doris::type_limit::max</text>
</a>
</g>
</g>
<!-- Node1&#45;&gt;Node3 -->
<g id="edge2" class="edge">
<title>Node1&#45;&gt;Node3</title>
<path fill="none" stroke="#63b8ff" d="M35.14,-24.69C42.04,-23.52 50.54,-22.08 59.53,-20.57"/>
<polygon fill="#63b8ff" stroke="#63b8ff" points="59.89,-24.05 69.17,-18.94 58.72,-17.15 59.89,-24.05"/>
</g>
</g>
</svg>
