<?xml version="1.0" encoding="UTF-8" standalone="no"?>
<!DOCTYPE svg PUBLIC "-//W3C//DTD SVG 1.1//EN"
 "http://www.w3.org/Graphics/SVG/1.1/DTD/svg11.dtd">
<!-- Generated by graphviz version 7.1.0 (20230121.1956)
 -->
<!-- Title: cache_dir Pages: 1 -->
<svg width="729pt" height="392pt"
 viewBox="0.00 0.00 729.00 392.00" xmlns="http://www.w3.org/2000/svg" xmlns:xlink="http://www.w3.org/1999/xlink">
<g id="graph0" class="graph" transform="scale(1 1) rotate(0) translate(4 388)">
<title>cache_dir</title>
<!-- Node1 -->
<g id="node1" class="node">
<title>Node1</title>
<g id="a_node1"><a xlink:title=" ">
<polygon fill="#999999" stroke="#666666" points="721,-159.5 662,-159.5 662,-140.5 721,-140.5 721,-159.5"/>
<text text-anchor="middle" x="691.5" y="-147.5" font-family="Helvetica,sans-Serif" font-size="10.00">cache_dir</text>
</a>
</g>
</g>
<!-- Node2 -->
<g id="node2" class="node">
<title>Node2</title>
<g id="a_node2"><a xlink:href="../../d6/d09/classdoris_1_1io_1_1_file_cache.html#a0d896953a5433affb4edbf353151a601" target="_top" xlink:title=" ">
<polygon fill="white" stroke="#666666" points="486,-210.5 337,-210.5 337,-191.5 486,-191.5 486,-210.5"/>
<text text-anchor="middle" x="411.5" y="-198.5" font-family="Helvetica,sans-Serif" font-size="10.00">_check_and_delete_empty_dir</text>
</a>
</g>
</g>
<!-- Node1&#45;&gt;Node2 -->
<g id="edge1" class="edge">
<title>Node1&#45;&gt;Node2</title>
<path fill="none" stroke="#63b8ff" d="M650.29,-157.38C601.99,-166.24 520.74,-181.14 466.87,-191.03"/>
<polygon fill="#63b8ff" stroke="#63b8ff" points="650.84,-160.83 660.05,-155.59 649.58,-153.95 650.84,-160.83"/>
</g>
<!-- Node13 -->
<g id="node13" class="node">
<title>Node13</title>
<g id="a_node13"><a xlink:href="../../d6/d09/classdoris_1_1io_1_1_file_cache.html#a8cacb043a1125ccb7bfdbb907e907065" target="_top" xlink:title=" ">
<polygon fill="white" stroke="#666666" points="626,-144 522,-144 522,-114 626,-114 626,-144"/>
<text text-anchor="start" x="530" y="-132" font-family="Helvetica,sans-Serif" font-size="10.00">_get_dir_files_and</text>
<text text-anchor="middle" x="574" y="-121" font-family="Helvetica,sans-Serif" font-size="10.00">_remove_unfinished</text>
</a>
</g>
</g>
<!-- Node1&#45;&gt;Node13 -->
<g id="edge12" class="edge">
<title>Node1&#45;&gt;Node13</title>
<path fill="none" stroke="#63b8ff" d="M650.36,-142.7C642.63,-141.3 634.43,-139.8 626.4,-138.34"/>
<polygon fill="#63b8ff" stroke="#63b8ff" points="649.7,-146.14 660.16,-144.48 650.95,-139.25 649.7,-146.14"/>
</g>
<!-- Node3 -->
<g id="node3" class="node">
<title>Node3</title>
<g id="a_node3"><a xlink:href="../../d0/d7a/classdoris_1_1io_1_1_whole_file_cache.html#a4c9fa6be06879f7b4357188883d02da7" target="_top" xlink:title=" ">
<polygon fill="white" stroke="#666666" points="297.5,-192 168.5,-192 168.5,-162 297.5,-162 297.5,-192"/>
<text text-anchor="start" x="176.5" y="-180" font-family="Helvetica,sans-Serif" font-size="10.00">doris::io::WholeFileCache</text>
<text text-anchor="middle" x="233" y="-169" font-family="Helvetica,sans-Serif" font-size="10.00">::_clean_cache_internal</text>
</a>
</g>
</g>
<!-- Node2&#45;&gt;Node3 -->
<g id="edge2" class="edge">
<title>Node2&#45;&gt;Node3</title>
<path fill="none" stroke="#63b8ff" d="M326.07,-189.52C316.56,-188.23 307,-186.93 297.81,-185.68"/>
<polygon fill="#63b8ff" stroke="#63b8ff" points="325.3,-192.95 335.68,-190.83 326.24,-186.01 325.3,-192.95"/>
</g>
<!-- Node7 -->
<g id="node7" class="node">
<title>Node7</title>
<g id="a_node7"><a xlink:href="../../de/d4a/classdoris_1_1io_1_1_dummy_file_cache.html#aa94f4a5642cff56f41a3145dd819db63" target="_top" xlink:title=" ">
<polygon fill="white" stroke="#666666" points="301,-384 165,-384 165,-354 301,-354 301,-384"/>
<text text-anchor="start" x="173" y="-372" font-family="Helvetica,sans-Serif" font-size="10.00">doris::io::DummyFileCache</text>
<text text-anchor="middle" x="233" y="-361" font-family="Helvetica,sans-Serif" font-size="10.00">::clean_all_cache</text>
</a>
</g>
</g>
<!-- Node2&#45;&gt;Node7 -->
<g id="edge6" class="edge">
<title>Node2&#45;&gt;Node7</title>
<path fill="none" stroke="#63b8ff" d="M400.3,-220.93C383.58,-251.74 347.48,-310.94 301,-345 296.51,-348.29 291.54,-351.16 286.38,-353.66"/>
<polygon fill="#63b8ff" stroke="#63b8ff" points="403.29,-222.77 404.87,-212.3 397.1,-219.5 403.29,-222.77"/>
</g>
<!-- Node8 -->
<g id="node8" class="node">
<title>Node8</title>
<g id="a_node8"><a xlink:href="../../d7/db9/classdoris_1_1io_1_1_sub_file_cache.html#aa94f4a5642cff56f41a3145dd819db63" target="_top" xlink:title=" ">
<polygon fill="white" stroke="#666666" points="292.5,-336 173.5,-336 173.5,-306 292.5,-306 292.5,-336"/>
<text text-anchor="start" x="181.5" y="-324" font-family="Helvetica,sans-Serif" font-size="10.00">doris::io::SubFileCache</text>
<text text-anchor="middle" x="233" y="-313" font-family="Helvetica,sans-Serif" font-size="10.00">::clean_all_cache</text>
</a>
</g>
</g>
<!-- Node2&#45;&gt;Node8 -->
<g id="edge7" class="edge">
<title>Node2&#45;&gt;Node8</title>
<path fill="none" stroke="#63b8ff" d="M394.18,-218.94C374.07,-240.12 337.99,-275.23 301,-297 295.57,-300.2 289.64,-303.07 283.63,-305.63"/>
<polygon fill="#63b8ff" stroke="#63b8ff" points="396.49,-221.6 400.75,-211.9 391.37,-216.82 396.49,-221.6"/>
</g>
<!-- Node9 -->
<g id="node9" class="node">
<title>Node9</title>
<g id="a_node9"><a xlink:href="../../de/d4a/classdoris_1_1io_1_1_dummy_file_cache.html#a45c788e9d5bec07769750ac640136859" target="_top" xlink:title=" ">
<polygon fill="white" stroke="#666666" points="301,-288 165,-288 165,-258 301,-258 301,-288"/>
<text text-anchor="start" x="173" y="-276" font-family="Helvetica,sans-Serif" font-size="10.00">doris::io::DummyFileCache</text>
<text text-anchor="middle" x="233" y="-265" font-family="Helvetica,sans-Serif" font-size="10.00">::clean_one_cache</text>
</a>
</g>
</g>
<!-- Node2&#45;&gt;Node9 -->
<g id="edge8" class="edge">
<title>Node2&#45;&gt;Node9</title>
<path fill="none" stroke="#63b8ff" d="M378.99,-215.5C357.24,-225.34 327.56,-238.43 301,-249 293.77,-251.88 286.04,-254.79 278.49,-257.55"/>
<polygon fill="#63b8ff" stroke="#63b8ff" points="380.25,-218.78 387.9,-211.45 377.35,-212.4 380.25,-218.78"/>
</g>
<!-- Node10 -->
<g id="node10" class="node">
<title>Node10</title>
<g id="a_node10"><a xlink:href="../../d7/db9/classdoris_1_1io_1_1_sub_file_cache.html#a45c788e9d5bec07769750ac640136859" target="_top" xlink:title=" ">
<polygon fill="white" stroke="#666666" points="292.5,-240 173.5,-240 173.5,-210 292.5,-210 292.5,-240"/>
<text text-anchor="start" x="181.5" y="-228" font-family="Helvetica,sans-Serif" font-size="10.00">doris::io::SubFileCache</text>
<text text-anchor="middle" x="233" y="-217" font-family="Helvetica,sans-Serif" font-size="10.00">::clean_one_cache</text>
</a>
</g>
</g>
<!-- Node2&#45;&gt;Node10 -->
<g id="edge9" class="edge">
<title>Node2&#45;&gt;Node10</title>
<path fill="none" stroke="#63b8ff" d="M326.02,-212.49C314.8,-214.01 303.5,-215.55 292.85,-217"/>
<polygon fill="#63b8ff" stroke="#63b8ff" points="326.24,-215.99 335.68,-211.17 325.3,-209.05 326.24,-215.99"/>
</g>
<!-- Node11 -->
<g id="node11" class="node">
<title>Node11</title>
<g id="a_node11"><a xlink:href="../../d7/db9/classdoris_1_1io_1_1_sub_file_cache.html#abe01ab5c7b83d60954b16786b7cef443" target="_top" xlink:title=" ">
<polygon fill="white" stroke="#666666" points="292.5,-96 173.5,-96 173.5,-66 292.5,-66 292.5,-96"/>
<text text-anchor="start" x="181.5" y="-84" font-family="Helvetica,sans-Serif" font-size="10.00">doris::io::SubFileCache</text>
<text text-anchor="middle" x="233" y="-73" font-family="Helvetica,sans-Serif" font-size="10.00">::clean_timeout_cache</text>
</a>
</g>
</g>
<!-- Node2&#45;&gt;Node11 -->
<g id="edge10" class="edge">
<title>Node2&#45;&gt;Node11</title>
<path fill="none" stroke="#63b8ff" d="M381.86,-185.49C367.53,-176.97 350.42,-165.58 337,-153 317.54,-134.77 322.46,-120.83 301,-105 296.63,-101.77 291.78,-98.95 286.74,-96.48"/>
<polygon fill="#63b8ff" stroke="#63b8ff" points="379.99,-188.45 390.4,-190.41 383.48,-182.39 379.99,-188.45"/>
</g>
<!-- Node12 -->
<g id="node12" class="node">
<title>Node12</title>
<g id="a_node12"><a xlink:href="../../de/d4a/classdoris_1_1io_1_1_dummy_file_cache.html#a208c6a2eb775bf42a7b0661d1ab7ca16" target="_top" xlink:title=" ">
<polygon fill="white" stroke="#666666" points="301,-144 165,-144 165,-114 301,-114 301,-144"/>
<text text-anchor="start" x="173" y="-132" font-family="Helvetica,sans-Serif" font-size="10.00">doris::io::DummyFileCache</text>
<text text-anchor="middle" x="233" y="-121" font-family="Helvetica,sans-Serif" font-size="10.00">::load_and_clean</text>
</a>
</g>
</g>
<!-- Node2&#45;&gt;Node12 -->
<g id="edge11" class="edge">
<title>Node2&#45;&gt;Node12</title>
<path fill="none" stroke="#63b8ff" d="M378.99,-186.5C357.24,-176.66 327.56,-163.57 301,-153 293.77,-150.12 286.04,-147.21 278.49,-144.45"/>
<polygon fill="#63b8ff" stroke="#63b8ff" points="377.35,-189.6 387.9,-190.55 380.25,-183.22 377.35,-189.6"/>
</g>
<!-- Node4 -->
<g id="node4" class="node">
<title>Node4</title>
<g id="a_node4"><a xlink:href="../../d0/d7a/classdoris_1_1io_1_1_whole_file_cache.html#aa94f4a5642cff56f41a3145dd819db63" target="_top" xlink:title=" ">
<polygon fill="white" stroke="#666666" points="129,-240 0,-240 0,-210 129,-210 129,-240"/>
<text text-anchor="start" x="8" y="-228" font-family="Helvetica,sans-Serif" font-size="10.00">doris::io::WholeFileCache</text>
<text text-anchor="middle" x="64.5" y="-217" font-family="Helvetica,sans-Serif" font-size="10.00">::clean_all_cache</text>
</a>
</g>
</g>
<!-- Node3&#45;&gt;Node4 -->
<g id="edge3" class="edge">
<title>Node3&#45;&gt;Node4</title>
<path fill="none" stroke="#63b8ff" d="M167.49,-195.6C151.45,-200.22 134.44,-205.13 119,-209.58"/>
<polygon fill="#63b8ff" stroke="#63b8ff" points="168.31,-199 176.95,-192.87 166.37,-192.28 168.31,-199"/>
</g>
<!-- Node5 -->
<g id="node5" class="node">
<title>Node5</title>
<g id="a_node5"><a xlink:href="../../d0/d7a/classdoris_1_1io_1_1_whole_file_cache.html#a45c788e9d5bec07769750ac640136859" target="_top" xlink:title=" ">
<polygon fill="white" stroke="#666666" points="129,-192 0,-192 0,-162 129,-162 129,-192"/>
<text text-anchor="start" x="8" y="-180" font-family="Helvetica,sans-Serif" font-size="10.00">doris::io::WholeFileCache</text>
<text text-anchor="middle" x="64.5" y="-169" font-family="Helvetica,sans-Serif" font-size="10.00">::clean_one_cache</text>
</a>
</g>
</g>
<!-- Node3&#45;&gt;Node5 -->
<g id="edge4" class="edge">
<title>Node3&#45;&gt;Node5</title>
<path fill="none" stroke="#63b8ff" d="M156.61,-177C147.46,-177 138.18,-177 129.23,-177"/>
<polygon fill="#63b8ff" stroke="#63b8ff" points="156.59,-180.5 166.59,-177 156.59,-173.5 156.59,-180.5"/>
</g>
<!-- Node6 -->
<g id="node6" class="node">
<title>Node6</title>
<g id="a_node6"><a xlink:href="../../d0/d7a/classdoris_1_1io_1_1_whole_file_cache.html#abe01ab5c7b83d60954b16786b7cef443" target="_top" xlink:title=" ">
<polygon fill="white" stroke="#666666" points="129,-144 0,-144 0,-114 129,-114 129,-144"/>
<text text-anchor="start" x="8" y="-132" font-family="Helvetica,sans-Serif" font-size="10.00">doris::io::WholeFileCache</text>
<text text-anchor="middle" x="64.5" y="-121" font-family="Helvetica,sans-Serif" font-size="10.00">::clean_timeout_cache</text>
</a>
</g>
</g>
<!-- Node3&#45;&gt;Node6 -->
<g id="edge5" class="edge">
<title>Node3&#45;&gt;Node6</title>
<path fill="none" stroke="#63b8ff" d="M167.49,-158.4C151.45,-153.78 134.44,-148.87 119,-144.42"/>
<polygon fill="#63b8ff" stroke="#63b8ff" points="166.37,-161.72 176.95,-161.13 168.31,-155 166.37,-161.72"/>
</g>
<!-- Node14 -->
<g id="node14" class="node">
<title>Node14</title>
<g id="a_node14"><a xlink:href="../../d7/db9/classdoris_1_1io_1_1_sub_file_cache.html#a53578094a6e7647b6a9f9ea86975c4c2" target="_top" xlink:title=" ">
<polygon fill="white" stroke="#666666" points="471,-96 352,-96 352,-66 471,-66 471,-96"/>
<text text-anchor="start" x="360" y="-84" font-family="Helvetica,sans-Serif" font-size="10.00">doris::io::SubFileCache</text>
<text text-anchor="middle" x="411.5" y="-73" font-family="Helvetica,sans-Serif" font-size="10.00">::_init</text>
</a>
</g>
</g>
<!-- Node13&#45;&gt;Node14 -->
<g id="edge13" class="edge">
<title>Node13&#45;&gt;Node14</title>
<path fill="none" stroke="#63b8ff" d="M511.18,-110.51C495.62,-105.86 479.07,-100.91 464.06,-96.42"/>
<polygon fill="#63b8ff" stroke="#63b8ff" points="509.74,-113.73 520.33,-113.25 511.75,-107.03 509.74,-113.73"/>
</g>
<!-- Node16 -->
<g id="node16" class="node">
<title>Node16</title>
<g id="a_node16"><a xlink:href="../../de/d4a/classdoris_1_1io_1_1_dummy_file_cache.html#a7dc1b27c6786e25ba9631bd6ea497379" target="_top" xlink:title=" ">
<polygon fill="white" stroke="#666666" points="479.5,-144 343.5,-144 343.5,-114 479.5,-114 479.5,-144"/>
<text text-anchor="start" x="351.5" y="-132" font-family="Helvetica,sans-Serif" font-size="10.00">doris::io::DummyFileCache</text>
<text text-anchor="middle" x="411.5" y="-121" font-family="Helvetica,sans-Serif" font-size="10.00">::_load</text>
</a>
</g>
</g>
<!-- Node13&#45;&gt;Node16 -->
<g id="edge17" class="edge">
<title>Node13&#45;&gt;Node16</title>
<path fill="none" stroke="#63b8ff" d="M510.3,-129C500.34,-129 490,-129 479.94,-129"/>
<polygon fill="#63b8ff" stroke="#63b8ff" points="510.26,-132.5 520.26,-129 510.26,-125.5 510.26,-132.5"/>
</g>
<!-- Node14&#45;&gt;Node11 -->
<g id="edge14" class="edge">
<title>Node14&#45;&gt;Node11</title>
<path fill="none" stroke="#63b8ff" d="M340.42,-81C324.65,-81 308.07,-81 292.82,-81"/>
<polygon fill="#63b8ff" stroke="#63b8ff" points="340.21,-84.5 350.21,-81 340.21,-77.5 340.21,-84.5"/>
</g>
<!-- Node15 -->
<g id="node15" class="node">
<title>Node15</title>
<g id="a_node15"><a xlink:href="../../d7/db9/classdoris_1_1io_1_1_sub_file_cache.html#aa0c40ede605035ec63e1b9e7d12dc772" target="_top" xlink:title=" ">
<polygon fill="white" stroke="#666666" points="292.5,-30 173.5,-30 173.5,0 292.5,0 292.5,-30"/>
<text text-anchor="start" x="181.5" y="-18" font-family="Helvetica,sans-Serif" font-size="10.00">doris::io::SubFileCache</text>
<text text-anchor="middle" x="233" y="-7" font-family="Helvetica,sans-Serif" font-size="10.00">::read_at</text>
</a>
</g>
</g>
<!-- Node14&#45;&gt;Node15 -->
<g id="edge15" class="edge">
<title>Node14&#45;&gt;Node15</title>
<path fill="none" stroke="#63b8ff" d="M358.5,-61.56C332.01,-51.65 300.24,-39.77 275.43,-30.49"/>
<polygon fill="#63b8ff" stroke="#63b8ff" points="357.11,-64.77 367.7,-65 359.56,-58.21 357.11,-64.77"/>
</g>
<!-- Node15&#45;&gt;Node15 -->
<g id="edge16" class="edge">
<title>Node15&#45;&gt;Node15</title>
<path fill="none" stroke="#63b8ff" d="M261.43,-41.61C256.88,-45.43 247.4,-48 233,-48 206.67,-48 196.8,-39.41 203.38,-30.28"/>
<polygon fill="#63b8ff" stroke="#63b8ff" points="264.9,-42.09 262.46,-31.78 257.94,-41.36 264.9,-42.09"/>
</g>
<!-- Node16&#45;&gt;Node12 -->
<g id="edge18" class="edge">
<title>Node16&#45;&gt;Node12</title>
<path fill="none" stroke="#63b8ff" d="M331.71,-129C321.61,-129 311.34,-129 301.45,-129"/>
<polygon fill="#63b8ff" stroke="#63b8ff" points="331.5,-132.5 341.5,-129 331.5,-125.5 331.5,-132.5"/>
</g>
</g>
</svg>
