<?xml version="1.0" encoding="UTF-8" standalone="no"?>
<!DOCTYPE svg PUBLIC "-//W3C//DTD SVG 1.1//EN"
 "http://www.w3.org/Graphics/SVG/1.1/DTD/svg11.dtd">
<!-- Generated by graphviz version 7.1.0 (20230121.1956)
 -->
<!-- Title: vector_vector Pages: 1 -->
<svg width="995pt" height="474pt"
 viewBox="0.00 0.00 995.00 473.50" xmlns="http://www.w3.org/2000/svg" xmlns:xlink="http://www.w3.org/1999/xlink">
<g id="graph0" class="graph" transform="scale(1 1) rotate(0) translate(4 469.5)">
<title>vector_vector</title>
<!-- Node1 -->
<g id="node1" class="node">
<title>Node1</title>
<g id="a_node1"><a xlink:title=" ">
<polygon fill="#999999" stroke="#666666" points="76,-232 0,-232 0,-213 76,-213 76,-232"/>
<text text-anchor="middle" x="38" y="-220" font-family="Helvetica,sans-Serif" font-size="10.00">vector_vector</text>
</a>
</g>
</g>
<!-- Node2 -->
<g id="node2" class="node">
<title>Node2</title>
<g id="a_node2"><a xlink:href="../../df/db2/classdoris_1_1vectorized_1_1_p_o_d_array.html#a4a557503c0b752dd1bd74295f499129f" target="_top" xlink:title=" ">
<polygon fill="white" stroke="#666666" points="226,-464.5 131,-464.5 131,-434.5 226,-434.5 226,-464.5"/>
<text text-anchor="start" x="139" y="-452.5" font-family="Helvetica,sans-Serif" font-size="10.00">doris::vectorized::</text>
<text text-anchor="middle" x="178.5" y="-441.5" font-family="Helvetica,sans-Serif" font-size="10.00">PODArray::back</text>
</a>
</g>
</g>
<!-- Node1&#45;&gt;Node2 -->
<g id="edge1" class="edge">
<title>Node1&#45;&gt;Node2</title>
<path fill="none" stroke="#63b8ff" d="M39.78,-232.35C42.83,-264.34 56.66,-366.5 112,-423.5 114.72,-426.31 117.79,-428.82 121.07,-431.06"/>
<polygon fill="#63b8ff" stroke="#63b8ff" points="119.06,-433.94 129.46,-435.95 122.58,-427.89 119.06,-433.94"/>
</g>
<!-- Node4 -->
<g id="node4" class="node">
<title>Node4</title>
<g id="a_node4"><a xlink:href="../../df/db2/classdoris_1_1vectorized_1_1_p_o_d_array.html#ad69bd11391be1a1dba5c8202259664f8" target="_top" xlink:title=" ">
<polygon fill="white" stroke="#666666" points="226,-216.5 131,-216.5 131,-186.5 226,-186.5 226,-216.5"/>
<text text-anchor="start" x="139" y="-204.5" font-family="Helvetica,sans-Serif" font-size="10.00">doris::vectorized::</text>
<text text-anchor="middle" x="178.5" y="-193.5" font-family="Helvetica,sans-Serif" font-size="10.00">PODArray::begin</text>
</a>
</g>
</g>
<!-- Node1&#45;&gt;Node4 -->
<g id="edge3" class="edge">
<title>Node1&#45;&gt;Node4</title>
<path fill="none" stroke="#63b8ff" d="M76.48,-216.82C89.76,-214.8 105.03,-212.49 119.6,-210.28"/>
<polygon fill="#63b8ff" stroke="#63b8ff" points="119.72,-213.8 129.08,-208.84 118.67,-206.88 119.72,-213.8"/>
</g>
<!-- Node6 -->
<g id="node6" class="node">
<title>Node6</title>
<g id="a_node6"><a xlink:href="../../d5/d9d/classdoris_1_1vectorized_1_1_p_o_d_array_base.html#a644718bb2fb240de962dc3c9a1fdf0dc" target="_top" xlink:title=" ">
<polygon fill="white" stroke="#666666" points="237,-168.5 120,-168.5 120,-138.5 237,-138.5 237,-168.5"/>
<text text-anchor="start" x="128" y="-156.5" font-family="Helvetica,sans-Serif" font-size="10.00">doris::vectorized::</text>
<text text-anchor="middle" x="178.5" y="-145.5" font-family="Helvetica,sans-Serif" font-size="10.00">PODArrayBase::empty</text>
</a>
</g>
</g>
<!-- Node1&#45;&gt;Node6 -->
<g id="edge5" class="edge">
<title>Node1&#45;&gt;Node6</title>
<path fill="none" stroke="#63b8ff" d="M53.06,-212.65C67.41,-202.88 90.57,-187.9 112,-177.5 114.91,-176.09 117.93,-174.71 121,-173.37"/>
<polygon fill="#63b8ff" stroke="#63b8ff" points="122.26,-176.64 130.16,-169.58 119.58,-170.17 122.26,-176.64"/>
</g>
<!-- Node7 -->
<g id="node7" class="node">
<title>Node7</title>
<g id="a_node7"><a xlink:href="../../df/db2/classdoris_1_1vectorized_1_1_p_o_d_array.html#acad38d52497a975bfb6f2f6acd76631f" target="_top" xlink:title=" ">
<polygon fill="white" stroke="#666666" points="226,-414.5 131,-414.5 131,-384.5 226,-384.5 226,-414.5"/>
<text text-anchor="start" x="139" y="-402.5" font-family="Helvetica,sans-Serif" font-size="10.00">doris::vectorized::</text>
<text text-anchor="middle" x="178.5" y="-391.5" font-family="Helvetica,sans-Serif" font-size="10.00">PODArray::end</text>
</a>
</g>
</g>
<!-- Node1&#45;&gt;Node7 -->
<g id="edge6" class="edge">
<title>Node1&#45;&gt;Node7</title>
<path fill="none" stroke="#63b8ff" d="M41.2,-232.37C47.55,-258.71 68.32,-331.44 112,-372.5 114.69,-375.03 117.65,-377.33 120.77,-379.43"/>
<polygon fill="#63b8ff" stroke="#63b8ff" points="118.85,-382.37 129.26,-384.38 122.38,-376.32 118.85,-382.37"/>
</g>
<!-- Node8 -->
<g id="node8" class="node">
<title>Node8</title>
<g id="a_node8"><a xlink:href="../../d7/d3c/classdoris_1_1vectorized_1_1_column_string.html#aa5ffe3159fd5a196e7fb17d2b88a1e30" target="_top" xlink:title=" ">
<polygon fill="white" stroke="#666666" points="245,-120.5 112,-120.5 112,-90.5 245,-90.5 245,-120.5"/>
<text text-anchor="start" x="120" y="-108.5" font-family="Helvetica,sans-Serif" font-size="10.00">doris::vectorized::</text>
<text text-anchor="middle" x="178.5" y="-97.5" font-family="Helvetica,sans-Serif" font-size="10.00">ColumnString::get_data_at</text>
</a>
</g>
</g>
<!-- Node1&#45;&gt;Node8 -->
<g id="edge8" class="edge">
<title>Node1&#45;&gt;Node8</title>
<path fill="none" stroke="#63b8ff" d="M44.26,-212.61C54.73,-193.82 79.95,-152.78 112,-129.5 113.55,-128.37 115.16,-127.3 116.81,-126.26"/>
<polygon fill="#63b8ff" stroke="#63b8ff" points="118.28,-129.45 125.36,-121.57 114.91,-123.32 118.28,-129.45"/>
</g>
<!-- Node12 -->
<g id="node12" class="node">
<title>Node12</title>
<g id="a_node12"><a xlink:href="../../d9/d8d/classdoris_1_1_status.html#a6ec1a217f203269ab53d2290d602db24" target="_top" xlink:title=" ">
<polygon fill="white" stroke="#666666" points="224.5,-72 132.5,-72 132.5,-53 224.5,-53 224.5,-72"/>
<text text-anchor="middle" x="178.5" y="-60" font-family="Helvetica,sans-Serif" font-size="10.00">doris::Status::OK</text>
</a>
</g>
</g>
<!-- Node1&#45;&gt;Node12 -->
<g id="edge12" class="edge">
<title>Node1&#45;&gt;Node12</title>
<path fill="none" stroke="#63b8ff" d="M41.24,-212.59C47.59,-186.88 68.12,-117.54 112,-81.5 115.02,-79.02 118.35,-76.86 121.86,-74.99"/>
<polygon fill="#63b8ff" stroke="#63b8ff" points="123.03,-78.3 130.73,-71.03 120.17,-71.91 123.03,-78.3"/>
</g>
<!-- Node14 -->
<g id="node14" class="node">
<title>Node14</title>
<g id="a_node14"><a xlink:href="../../df/db2/classdoris_1_1vectorized_1_1_p_o_d_array.html#a4fe88e30f68ec72ad91dee2dcf5fc1b8" target="_top" xlink:title=" ">
<polygon fill="white" stroke="#666666" points="236,-363.5 121,-363.5 121,-333.5 236,-333.5 236,-363.5"/>
<text text-anchor="start" x="129" y="-351.5" font-family="Helvetica,sans-Serif" font-size="10.00">doris::vectorized::</text>
<text text-anchor="middle" x="178.5" y="-340.5" font-family="Helvetica,sans-Serif" font-size="10.00">PODArray::push_back</text>
</a>
</g>
</g>
<!-- Node1&#45;&gt;Node14 -->
<g id="edge14" class="edge">
<title>Node1&#45;&gt;Node14</title>
<path fill="none" stroke="#63b8ff" d="M45.26,-232.32C56.8,-249.88 82.94,-287.07 112,-311.5 118.89,-317.29 126.81,-322.64 134.72,-327.38"/>
<polygon fill="#63b8ff" stroke="#63b8ff" points="132.91,-330.37 143.33,-332.28 136.37,-324.29 132.91,-330.37"/>
</g>
<!-- Node17 -->
<g id="node17" class="node">
<title>Node17</title>
<g id="a_node17"><a xlink:href="../../d5/d9d/classdoris_1_1vectorized_1_1_p_o_d_array_base.html#aa5a2bd4e24261d8f10f2f4e5d82fccf6" target="_top" xlink:title=" ">
<polygon fill="white" stroke="#666666" points="421,-259.5 299,-259.5 299,-229.5 421,-229.5 421,-259.5"/>
<text text-anchor="start" x="307" y="-247.5" font-family="Helvetica,sans-Serif" font-size="10.00">doris::vectorized::</text>
<text text-anchor="middle" x="360" y="-236.5" font-family="Helvetica,sans-Serif" font-size="10.00">PODArrayBase::reserve</text>
</a>
</g>
</g>
<!-- Node1&#45;&gt;Node17 -->
<g id="edge18" class="edge">
<title>Node1&#45;&gt;Node17</title>
<path fill="none" stroke="#63b8ff" d="M76.33,-225.07C127.89,-228.61 221.92,-235.08 287.3,-239.57"/>
<polygon fill="#63b8ff" stroke="#63b8ff" points="287.03,-243.06 297.25,-240.25 287.51,-236.08 287.03,-243.06"/>
</g>
<!-- Node26 -->
<g id="node26" class="node">
<title>Node26</title>
<g id="a_node26"><a xlink:href="../../d5/d9d/classdoris_1_1vectorized_1_1_p_o_d_array_base.html#a0c895d2dd381326acf54873d9d3a5aa5" target="_top" xlink:title=" ">
<polygon fill="white" stroke="#666666" points="236.5,-302.5 120.5,-302.5 120.5,-272.5 236.5,-272.5 236.5,-302.5"/>
<text text-anchor="start" x="128.5" y="-290.5" font-family="Helvetica,sans-Serif" font-size="10.00">doris::vectorized::</text>
<text text-anchor="middle" x="178.5" y="-279.5" font-family="Helvetica,sans-Serif" font-size="10.00">PODArrayBase::resize</text>
</a>
</g>
</g>
<!-- Node1&#45;&gt;Node26 -->
<g id="edge28" class="edge">
<title>Node1&#45;&gt;Node26</title>
<path fill="none" stroke="#63b8ff" d="M58.41,-232.35C73.06,-239.71 93.7,-249.94 112,-258.5 118.36,-261.47 125.1,-264.55 131.74,-267.53"/>
<polygon fill="#63b8ff" stroke="#63b8ff" points="130.08,-270.62 140.64,-271.5 132.93,-264.23 130.08,-270.62"/>
</g>
<!-- Node28 -->
<g id="node28" class="node">
<title>Node28</title>
<g id="a_node28"><a xlink:href="../../d5/d9d/classdoris_1_1vectorized_1_1_p_o_d_array_base.html#a259cb5a711406a8c3e5d937eb9350cca" target="_top" xlink:title=" ">
<polygon fill="white" stroke="#666666" points="232.5,-34.5 124.5,-34.5 124.5,-4.5 232.5,-4.5 232.5,-34.5"/>
<text text-anchor="start" x="132.5" y="-22.5" font-family="Helvetica,sans-Serif" font-size="10.00">doris::vectorized::</text>
<text text-anchor="middle" x="178.5" y="-11.5" font-family="Helvetica,sans-Serif" font-size="10.00">PODArrayBase::size</text>
</a>
</g>
</g>
<!-- Node1&#45;&gt;Node28 -->
<g id="edge32" class="edge">
<title>Node1&#45;&gt;Node28</title>
<path fill="none" stroke="#63b8ff" d="M40.19,-212.83C44.33,-183.24 60.79,-92.9 112,-43.5 112.89,-42.64 113.82,-41.81 114.78,-41.01"/>
<polygon fill="#63b8ff" stroke="#63b8ff" points="116.6,-44 122.82,-35.42 112.61,-38.25 116.6,-44"/>
</g>
<!-- Node3 -->
<g id="node3" class="node">
<title>Node3</title>
<g id="a_node3"><a xlink:href="../../df/db2/classdoris_1_1vectorized_1_1_p_o_d_array.html#a23330edc945b54dbc26dbfde57ae3be7" target="_top" xlink:title=" ">
<polygon fill="white" stroke="#666666" points="407.5,-465.5 312.5,-465.5 312.5,-435.5 407.5,-435.5 407.5,-465.5"/>
<text text-anchor="start" x="320.5" y="-453.5" font-family="Helvetica,sans-Serif" font-size="10.00">doris::vectorized::</text>
<text text-anchor="middle" x="360" y="-442.5" font-family="Helvetica,sans-Serif" font-size="10.00">PODArray::t_end</text>
</a>
</g>
</g>
<!-- Node2&#45;&gt;Node3 -->
<g id="edge2" class="edge">
<title>Node2&#45;&gt;Node3</title>
<path fill="none" stroke="#63b8ff" d="M226.19,-449.76C249.06,-449.89 276.81,-450.04 301.03,-450.18"/>
<polygon fill="#63b8ff" stroke="#63b8ff" points="300.7,-453.68 310.72,-450.23 300.74,-446.68 300.7,-453.68"/>
</g>
<!-- Node5 -->
<g id="node5" class="node">
<title>Node5</title>
<g id="a_node5"><a xlink:href="../../df/db2/classdoris_1_1vectorized_1_1_p_o_d_array.html#a8e612adde07f46d3398ac6962d676a66" target="_top" xlink:title=" ">
<polygon fill="white" stroke="#666666" points="407.5,-211.5 312.5,-211.5 312.5,-181.5 407.5,-181.5 407.5,-211.5"/>
<text text-anchor="start" x="320.5" y="-199.5" font-family="Helvetica,sans-Serif" font-size="10.00">doris::vectorized::</text>
<text text-anchor="middle" x="360" y="-188.5" font-family="Helvetica,sans-Serif" font-size="10.00">PODArray::t_start</text>
</a>
</g>
</g>
<!-- Node4&#45;&gt;Node5 -->
<g id="edge4" class="edge">
<title>Node4&#45;&gt;Node5</title>
<path fill="none" stroke="#63b8ff" d="M226.19,-200.2C249.06,-199.56 276.81,-198.79 301.03,-198.11"/>
<polygon fill="#63b8ff" stroke="#63b8ff" points="300.82,-201.62 310.72,-197.84 300.62,-194.62 300.82,-201.62"/>
</g>
<!-- Node7&#45;&gt;Node3 -->
<g id="edge7" class="edge">
<title>Node7&#45;&gt;Node3</title>
<path fill="none" stroke="#63b8ff" d="M226.19,-412.77C249.16,-419.29 277.07,-427.22 301.35,-434.12"/>
<polygon fill="#63b8ff" stroke="#63b8ff" points="300.2,-437.43 310.77,-436.8 302.11,-430.7 300.2,-437.43"/>
</g>
<!-- Node9 -->
<g id="node9" class="node">
<title>Node9</title>
<g id="a_node9"><a xlink:href="../../d7/d3c/classdoris_1_1vectorized_1_1_column_string.html#a14f5314566df04c129cfce44afe0d0a6" target="_top" xlink:title=" ">
<polygon fill="white" stroke="#666666" points="420,-67.5 300,-67.5 300,-37.5 420,-37.5 420,-67.5"/>
<text text-anchor="start" x="308" y="-55.5" font-family="Helvetica,sans-Serif" font-size="10.00">doris::vectorized::</text>
<text text-anchor="middle" x="360" y="-44.5" font-family="Helvetica,sans-Serif" font-size="10.00">ColumnString::offset_at</text>
</a>
</g>
</g>
<!-- Node8&#45;&gt;Node9 -->
<g id="edge9" class="edge">
<title>Node8&#45;&gt;Node9</title>
<path fill="none" stroke="#63b8ff" d="M231.9,-90.03C251.81,-84.15 274.71,-77.39 295.53,-71.24"/>
<polygon fill="#63b8ff" stroke="#63b8ff" points="296.48,-74.61 305.08,-68.42 294.5,-67.9 296.48,-74.61"/>
</g>
<!-- Node10 -->
<g id="node10" class="node">
<title>Node10</title>
<g id="a_node10"><a xlink:href="../../d7/d3c/classdoris_1_1vectorized_1_1_column_string.html#ad7701a09a964eab360a8e51fa7ad2c16" target="_top" xlink:title=" ">
<polygon fill="white" stroke="#666666" points="410,-163.5 310,-163.5 310,-133.5 410,-133.5 410,-163.5"/>
<text text-anchor="start" x="318" y="-151.5" font-family="Helvetica,sans-Serif" font-size="10.00">doris::vectorized::</text>
<text text-anchor="middle" x="360" y="-140.5" font-family="Helvetica,sans-Serif" font-size="10.00">ColumnString::size</text>
</a>
</g>
</g>
<!-- Node8&#45;&gt;Node10 -->
<g id="edge10" class="edge">
<title>Node8&#45;&gt;Node10</title>
<path fill="none" stroke="#63b8ff" d="M244.05,-120.96C261.95,-125.25 281.3,-129.89 298.92,-134.11"/>
<polygon fill="#63b8ff" stroke="#63b8ff" points="297.64,-137.4 308.18,-136.33 299.27,-130.59 297.64,-137.4"/>
</g>
<!-- Node11 -->
<g id="node11" class="node">
<title>Node11</title>
<g id="a_node11"><a xlink:href="../../d7/d3c/classdoris_1_1vectorized_1_1_column_string.html#a726061f0a079c883725f5ae6efde4683" target="_top" xlink:title="Size of i&#45;th element, including terminating zero.">
<polygon fill="white" stroke="#666666" points="416.5,-115.5 303.5,-115.5 303.5,-85.5 416.5,-85.5 416.5,-115.5"/>
<text text-anchor="start" x="311.5" y="-103.5" font-family="Helvetica,sans-Serif" font-size="10.00">doris::vectorized::</text>
<text text-anchor="middle" x="360" y="-92.5" font-family="Helvetica,sans-Serif" font-size="10.00">ColumnString::size_at</text>
</a>
</g>
</g>
<!-- Node8&#45;&gt;Node11 -->
<g id="edge11" class="edge">
<title>Node8&#45;&gt;Node11</title>
<path fill="none" stroke="#63b8ff" d="M245.32,-103.67C260.47,-103.24 276.6,-102.8 291.81,-102.37"/>
<polygon fill="#63b8ff" stroke="#63b8ff" points="291.81,-105.87 301.71,-102.1 291.62,-98.88 291.81,-105.87"/>
</g>
<!-- Node13 -->
<g id="node13" class="node">
<title>Node13</title>
<g id="a_node13"><a xlink:href="../../d9/d8d/classdoris_1_1_status.html#aafde58df1b2a6a91d5b674373be3ffc5" target="_top" xlink:title=" ">
<polygon fill="white" stroke="#666666" points="413.5,-19 306.5,-19 306.5,0 413.5,0 413.5,-19"/>
<text text-anchor="middle" x="360" y="-7" font-family="Helvetica,sans-Serif" font-size="10.00">doris::Status::Status</text>
</a>
</g>
</g>
<!-- Node12&#45;&gt;Node13 -->
<g id="edge13" class="edge">
<title>Node12&#45;&gt;Node13</title>
<path fill="none" stroke="#63b8ff" d="M216.45,-52.57C225.83,-49.83 235.84,-46.72 245,-43.5 261.35,-37.74 264.53,-33.9 281,-28.5 287.69,-26.31 294.78,-24.24 301.85,-22.33"/>
<polygon fill="#63b8ff" stroke="#63b8ff" points="302.61,-25.75 311.42,-19.85 300.86,-18.97 302.61,-25.75"/>
</g>
<!-- Node14&#45;&gt;Node3 -->
<g id="edge17" class="edge">
<title>Node14&#45;&gt;Node3</title>
<path fill="none" stroke="#63b8ff" d="M225.55,-363.9C232.4,-367.19 239.12,-371.04 245,-375.5 265.68,-391.19 260.04,-406.18 281,-421.5 287.34,-426.14 294.51,-430.11 301.86,-433.5"/>
<polygon fill="#63b8ff" stroke="#63b8ff" points="300.35,-436.66 310.93,-437.31 303.07,-430.21 300.35,-436.66"/>
</g>
<!-- Node15 -->
<g id="node15" class="node">
<title>Node15</title>
<g id="a_node15"><a xlink:href="../../d5/d9d/classdoris_1_1vectorized_1_1_p_o_d_array_base.html#a4fd871ea772d3f22957ed8dd6a0aebb6" target="_top" xlink:title="Does not include pad_right.">
<polygon fill="white" stroke="#666666" points="808,-383.5 641,-383.5 641,-331.5 808,-331.5 808,-383.5"/>
<text text-anchor="start" x="649" y="-371.5" font-family="Helvetica,sans-Serif" font-size="10.00">doris::vectorized::</text>
<text text-anchor="start" x="649" y="-360.5" font-family="Helvetica,sans-Serif" font-size="10.00">PODArrayBase&lt; sizeof</text>
<text text-anchor="start" x="649" y="-349.5" font-family="Helvetica,sans-Serif" font-size="10.00">(T), initial_bytes, TAllocator,</text>
<text text-anchor="middle" x="724.5" y="-338.5" font-family="Helvetica,sans-Serif" font-size="10.00"> pad_right_, pad_left_ &gt;::byte_size</text>
</a>
</g>
</g>
<!-- Node14&#45;&gt;Node15 -->
<g id="edge15" class="edge">
<title>Node14&#45;&gt;Node15</title>
<path fill="none" stroke="#63b8ff" d="M216.67,-363.93C242.81,-374.64 274.28,-387.22 281,-388.5 422.47,-415.37 462.16,-405.74 605,-387.5 613.03,-386.47 621.3,-385.09 629.56,-383.47"/>
<polygon fill="#63b8ff" stroke="#63b8ff" points="630.23,-386.91 639.31,-381.44 628.81,-380.05 630.23,-386.91"/>
</g>
<!-- Node16 -->
<g id="node16" class="node">
<title>Node16</title>
<g id="a_node16"><a xlink:href="../../d5/d9d/classdoris_1_1vectorized_1_1_p_o_d_array_base.html#a2598e4e0d6a05dd2650267b7a78e56aa" target="_top" xlink:title=" ">
<polygon fill="white" stroke="#666666" points="439,-379 281,-379 281,-316 439,-316 439,-379"/>
<text text-anchor="start" x="289" y="-367" font-family="Helvetica,sans-Serif" font-size="10.00">doris::vectorized::</text>
<text text-anchor="start" x="289" y="-356" font-family="Helvetica,sans-Serif" font-size="10.00">PODArrayBase&lt; sizeof</text>
<text text-anchor="start" x="289" y="-345" font-family="Helvetica,sans-Serif" font-size="10.00">(T), initial_bytes, TAllocator,</text>
<text text-anchor="start" x="289" y="-334" font-family="Helvetica,sans-Serif" font-size="10.00"> pad_right_, pad_left_ &gt;::reserve</text>
<text text-anchor="middle" x="360" y="-323" font-family="Helvetica,sans-Serif" font-size="10.00">_for_next_size</text>
</a>
</g>
</g>
<!-- Node14&#45;&gt;Node16 -->
<g id="edge16" class="edge">
<title>Node14&#45;&gt;Node16</title>
<path fill="none" stroke="#63b8ff" d="M236.29,-348.18C246.85,-348.12 258.11,-348.06 269.37,-348"/>
<polygon fill="#63b8ff" stroke="#63b8ff" points="269.1,-351.5 279.08,-347.95 269.06,-344.5 269.1,-351.5"/>
</g>
<!-- Node18 -->
<g id="node18" class="node">
<title>Node18</title>
<g id="a_node18"><a xlink:href="../../d5/d9d/classdoris_1_1vectorized_1_1_p_o_d_array_base.html#a7223528283cd4e5872e0cc716bf9bd9d" target="_top" xlink:title=" ">
<polygon fill="white" stroke="#666666" points="603.5,-259.5 476.5,-259.5 476.5,-229.5 603.5,-229.5 603.5,-259.5"/>
<text text-anchor="start" x="484.5" y="-247.5" font-family="Helvetica,sans-Serif" font-size="10.00">doris::vectorized::</text>
<text text-anchor="middle" x="540" y="-236.5" font-family="Helvetica,sans-Serif" font-size="10.00">PODArrayBase::capacity</text>
</a>
</g>
</g>
<!-- Node17&#45;&gt;Node18 -->
<g id="edge19" class="edge">
<title>Node17&#45;&gt;Node18</title>
<path fill="none" stroke="#63b8ff" d="M421.26,-244.5C435.19,-244.5 450.17,-244.5 464.62,-244.5"/>
<polygon fill="#63b8ff" stroke="#63b8ff" points="464.55,-248 474.55,-244.5 464.55,-241 464.55,-248"/>
</g>
<!-- Node19 -->
<g id="node19" class="node">
<title>Node19</title>
<g id="a_node19"><a xlink:href="../../d5/d9d/classdoris_1_1vectorized_1_1_p_o_d_array_base.html#aa0ed9240c71cb15ddd75f2ebfae30c69" target="_top" xlink:title="Minimum amount of memory to allocate for num_elements, including padding.">
<polygon fill="white" stroke="#666666" points="605,-319 475,-319 475,-278 605,-278 605,-319"/>
<text text-anchor="start" x="483" y="-307" font-family="Helvetica,sans-Serif" font-size="10.00">doris::vectorized::</text>
<text text-anchor="start" x="483" y="-296" font-family="Helvetica,sans-Serif" font-size="10.00">PODArrayBase::minimum</text>
<text text-anchor="middle" x="540" y="-285" font-family="Helvetica,sans-Serif" font-size="10.00">_memory_for_elements</text>
</a>
</g>
</g>
<!-- Node17&#45;&gt;Node19 -->
<g id="edge20" class="edge">
<title>Node17&#45;&gt;Node19</title>
<path fill="none" stroke="#63b8ff" d="M412.01,-259.97C428.17,-264.88 446.39,-270.41 463.88,-275.71"/>
<polygon fill="#63b8ff" stroke="#63b8ff" points="462.62,-278.99 473.21,-278.54 464.65,-272.29 462.62,-278.99"/>
</g>
<!-- Node20 -->
<g id="node20" class="node">
<title>Node20</title>
<g id="a_node20"><a xlink:href="../../d5/d9d/classdoris_1_1vectorized_1_1_p_o_d_array_base.html#a9001e08f14a42d556978c322450da2f7" target="_top" xlink:title=" ">
<polygon fill="white" stroke="#666666" points="599.5,-163.5 480.5,-163.5 480.5,-133.5 599.5,-133.5 599.5,-163.5"/>
<text text-anchor="start" x="488.5" y="-151.5" font-family="Helvetica,sans-Serif" font-size="10.00">doris::vectorized::</text>
<text text-anchor="middle" x="540" y="-140.5" font-family="Helvetica,sans-Serif" font-size="10.00">PODArrayBase::realloc</text>
</a>
</g>
</g>
<!-- Node17&#45;&gt;Node20 -->
<g id="edge22" class="edge">
<title>Node17&#45;&gt;Node20</title>
<path fill="none" stroke="#63b8ff" d="M421.19,-230.29C427.48,-227.56 433.55,-224.33 439,-220.5 460.81,-205.16 453.66,-188.49 475,-172.5 476.5,-171.37 478.06,-170.3 479.67,-169.27"/>
<polygon fill="#63b8ff" stroke="#63b8ff" points="480.97,-172.55 487.96,-164.59 477.53,-166.45 480.97,-172.55"/>
</g>
<!-- Node25 -->
<g id="node25" class="node">
<title>Node25</title>
<g id="a_node25"><a xlink:href="../../dc/da2/bit__helpers_8h.html#ae2948c0075b86f9ca20fc36610b4aca8" target="_top" xlink:title=" ">
<polygon fill="white" stroke="#666666" points="597.5,-211.5 482.5,-211.5 482.5,-181.5 597.5,-181.5 597.5,-211.5"/>
<text text-anchor="start" x="490.5" y="-199.5" font-family="Helvetica,sans-Serif" font-size="10.00">round_up_to_power_of</text>
<text text-anchor="middle" x="540" y="-188.5" font-family="Helvetica,sans-Serif" font-size="10.00">_two_or_zero</text>
</a>
</g>
</g>
<!-- Node17&#45;&gt;Node25 -->
<g id="edge27" class="edge">
<title>Node17&#45;&gt;Node25</title>
<path fill="none" stroke="#63b8ff" d="M418.3,-229.05C435.22,-224.49 453.89,-219.45 471.39,-214.73"/>
<polygon fill="#63b8ff" stroke="#63b8ff" points="471.91,-218.22 480.65,-212.23 470.08,-211.46 471.91,-218.22"/>
</g>
<!-- Node19&#45;&gt;Node15 -->
<g id="edge21" class="edge">
<title>Node19&#45;&gt;Node15</title>
<path fill="none" stroke="#63b8ff" d="M605.34,-319.3C613.64,-321.98 622.26,-324.77 630.9,-327.57"/>
<polygon fill="#63b8ff" stroke="#63b8ff" points="629.8,-330.89 640.39,-330.63 631.96,-324.23 629.8,-330.89"/>
</g>
<!-- Node21 -->
<g id="node21" class="node">
<title>Node21</title>
<g id="a_node21"><a xlink:href="../../d5/d9d/classdoris_1_1vectorized_1_1_p_o_d_array_base.html#a0e716713ea1a6de012c8830d8ef03ca9" target="_top" xlink:title=" ">
<polygon fill="white" stroke="#666666" points="779.5,-163.5 669.5,-163.5 669.5,-133.5 779.5,-133.5 779.5,-163.5"/>
<text text-anchor="start" x="677.5" y="-151.5" font-family="Helvetica,sans-Serif" font-size="10.00">doris::vectorized::</text>
<text text-anchor="middle" x="724.5" y="-140.5" font-family="Helvetica,sans-Serif" font-size="10.00">PODArrayBase::alloc</text>
</a>
</g>
</g>
<!-- Node20&#45;&gt;Node21 -->
<g id="edge23" class="edge">
<title>Node20&#45;&gt;Node21</title>
<path fill="none" stroke="#63b8ff" d="M599.75,-148.5C618.3,-148.5 638.92,-148.5 657.92,-148.5"/>
<polygon fill="#63b8ff" stroke="#63b8ff" points="657.68,-152 667.68,-148.5 657.68,-145 657.68,-152"/>
</g>
<!-- Node22 -->
<g id="node22" class="node">
<title>Node22</title>
<g id="a_node22"><a xlink:href="../../d5/d9d/classdoris_1_1vectorized_1_1_p_o_d_array_base.html#acd47db4f184c2a88c3c8eee3406d13db" target="_top" xlink:title="This method is safe to use only for information about memory usage.">
<polygon fill="white" stroke="#666666" points="803.5,-115.5 645.5,-115.5 645.5,-85.5 803.5,-85.5 803.5,-115.5"/>
<text text-anchor="start" x="653.5" y="-103.5" font-family="Helvetica,sans-Serif" font-size="10.00">doris::vectorized::</text>
<text text-anchor="middle" x="724.5" y="-92.5" font-family="Helvetica,sans-Serif" font-size="10.00">PODArrayBase::allocated_bytes</text>
</a>
</g>
</g>
<!-- Node20&#45;&gt;Node22 -->
<g id="edge24" class="edge">
<title>Node20&#45;&gt;Node22</title>
<path fill="none" stroke="#63b8ff" d="M599.75,-133.05C617.01,-128.51 636.05,-123.5 653.92,-118.8"/>
<polygon fill="#63b8ff" stroke="#63b8ff" points="654.62,-122.24 663.4,-116.31 652.84,-115.47 654.62,-122.24"/>
</g>
<!-- Node23 -->
<g id="node23" class="node">
<title>Node23</title>
<g id="a_node23"><a xlink:href="../../d5/d9d/classdoris_1_1vectorized_1_1_p_o_d_array_base.html#a41d7b4a7908cc8905970d3d601d8634c" target="_top" xlink:title=" ">
<polygon fill="white" stroke="#666666" points="790,-211.5 659,-211.5 659,-181.5 790,-181.5 790,-211.5"/>
<text text-anchor="start" x="667" y="-199.5" font-family="Helvetica,sans-Serif" font-size="10.00">doris::vectorized::</text>
<text text-anchor="middle" x="724.5" y="-188.5" font-family="Helvetica,sans-Serif" font-size="10.00">PODArrayBase::unprotect</text>
</a>
</g>
</g>
<!-- Node20&#45;&gt;Node23 -->
<g id="edge25" class="edge">
<title>Node20&#45;&gt;Node23</title>
<path fill="none" stroke="#63b8ff" d="M599.75,-163.95C617.01,-168.49 636.05,-173.5 653.92,-178.2"/>
<polygon fill="#63b8ff" stroke="#63b8ff" points="652.84,-181.53 663.4,-180.69 654.62,-174.76 652.84,-181.53"/>
</g>
<!-- Node24 -->
<g id="node24" class="node">
<title>Node24</title>
<g id="a_node24"><a xlink:href="../../d5/d9d/classdoris_1_1vectorized_1_1_p_o_d_array_base.html#aabb38ffefd0c3a618756a9150e27a97a" target="_top" xlink:title=" ">
<polygon fill="white" stroke="#666666" points="987,-211.5 844,-211.5 844,-181.5 987,-181.5 987,-211.5"/>
<text text-anchor="start" x="852" y="-199.5" font-family="Helvetica,sans-Serif" font-size="10.00">doris::vectorized::</text>
<text text-anchor="middle" x="915.5" y="-188.5" font-family="Helvetica,sans-Serif" font-size="10.00">PODArrayBase::protect_impl</text>
</a>
</g>
</g>
<!-- Node23&#45;&gt;Node24 -->
<g id="edge26" class="edge">
<title>Node23&#45;&gt;Node24</title>
<path fill="none" stroke="#63b8ff" d="M790.28,-196.5C803.85,-196.5 818.34,-196.5 832.45,-196.5"/>
<polygon fill="#63b8ff" stroke="#63b8ff" points="832.15,-200 842.15,-196.5 832.15,-193 832.15,-200"/>
</g>
<!-- Node26&#45;&gt;Node17 -->
<g id="edge29" class="edge">
<title>Node26&#45;&gt;Node17</title>
<path fill="none" stroke="#63b8ff" d="M236.79,-273.78C252.95,-269.91 270.73,-265.65 287.61,-261.6"/>
<polygon fill="#63b8ff" stroke="#63b8ff" points="288.16,-265.07 297.07,-259.34 286.53,-258.26 288.16,-265.07"/>
</g>
<!-- Node27 -->
<g id="node27" class="node">
<title>Node27</title>
<g id="a_node27"><a xlink:href="../../d5/d9d/classdoris_1_1vectorized_1_1_p_o_d_array_base.html#afa97d17a5fedae2da8191c2c52aa6025" target="_top" xlink:title=" ">
<polygon fill="white" stroke="#666666" points="598,-378 482,-378 482,-337 598,-337 598,-378"/>
<text text-anchor="start" x="490" y="-366" font-family="Helvetica,sans-Serif" font-size="10.00">doris::vectorized::</text>
<text text-anchor="start" x="490" y="-355" font-family="Helvetica,sans-Serif" font-size="10.00">PODArrayBase::resize</text>
<text text-anchor="middle" x="540" y="-344" font-family="Helvetica,sans-Serif" font-size="10.00">_assume_reserved</text>
</a>
</g>
</g>
<!-- Node26&#45;&gt;Node27 -->
<g id="edge30" class="edge">
<title>Node26&#45;&gt;Node27</title>
<path fill="none" stroke="#63b8ff" d="M236.81,-284.65C290.33,-283.68 371.82,-286.53 439,-307.5 456.68,-313.02 458.54,-320 475,-328.5 477.07,-329.57 479.2,-330.64 481.35,-331.71"/>
<polygon fill="#63b8ff" stroke="#63b8ff" points="479.67,-334.79 490.19,-336 482.72,-328.49 479.67,-334.79"/>
</g>
<!-- Node27&#45;&gt;Node15 -->
<g id="edge31" class="edge">
<title>Node27&#45;&gt;Node15</title>
<path fill="none" stroke="#63b8ff" d="M598.24,-357.5C608.15,-357.5 618.67,-357.5 629.25,-357.5"/>
<polygon fill="#63b8ff" stroke="#63b8ff" points="629.21,-361 639.21,-357.5 629.21,-354 629.21,-361"/>
</g>
</g>
</svg>
