<?xml version="1.0" encoding="UTF-8" standalone="no"?>
<!DOCTYPE svg PUBLIC "-//W3C//DTD SVG 1.1//EN"
 "http://www.w3.org/Graphics/SVG/1.1/DTD/svg11.dtd">
<!-- Generated by graphviz version 7.1.0 (20230121.1956)
 -->
<!-- Title: _execute_string Pages: 1 -->
<svg width="1116pt" height="609pt"
 viewBox="0.00 0.00 1116.00 609.00" xmlns="http://www.w3.org/2000/svg" xmlns:xlink="http://www.w3.org/1999/xlink">
<g id="graph0" class="graph" transform="scale(1 1) rotate(0) translate(4 605)">
<title>_execute_string</title>
<!-- Node1 -->
<g id="node1" class="node">
<title>Node1</title>
<g id="a_node1"><a xlink:title=" ">
<polygon fill="#999999" stroke="#666666" points="86,-523.5 0,-523.5 0,-504.5 86,-504.5 86,-523.5"/>
<text text-anchor="middle" x="43" y="-511.5" font-family="Helvetica,sans-Serif" font-size="10.00">_execute_string</text>
</a>
</g>
</g>
<!-- Node2 -->
<g id="node2" class="node">
<title>Node2</title>
<g id="a_node2"><a xlink:href="../../db/d13/structdoris_1_1vectorized_1_1_array_join_impl.html#a621456c1f3b56a6e8682ac0eeca8fa6b" target="_top" xlink:title=" ">
<polygon fill="white" stroke="#666666" points="233.5,-566.5 143.5,-566.5 143.5,-547.5 233.5,-547.5 233.5,-566.5"/>
<text text-anchor="middle" x="188.5" y="-554.5" font-family="Helvetica,sans-Serif" font-size="10.00">_fill_result_string</text>
</a>
</g>
</g>
<!-- Node1&#45;&gt;Node2 -->
<g id="edge1" class="edge">
<title>Node1&#45;&gt;Node2</title>
<path fill="none" stroke="#63b8ff" d="M75.84,-523.93C89.97,-528.29 106.8,-533.46 122,-538 128.4,-539.91 135.15,-541.9 141.8,-543.85"/>
<polygon fill="#63b8ff" stroke="#63b8ff" points="140.76,-547.19 151.34,-546.62 142.72,-540.47 140.76,-547.19"/>
</g>
<!-- Node3 -->
<g id="node3" class="node">
<title>Node3</title>
<g id="a_node3"><a xlink:href="../../d7/d3c/classdoris_1_1vectorized_1_1_column_string.html#aa5ffe3159fd5a196e7fb17d2b88a1e30" target="_top" xlink:title=" ">
<polygon fill="white" stroke="#666666" points="255,-529 122,-529 122,-499 255,-499 255,-529"/>
<text text-anchor="start" x="130" y="-517" font-family="Helvetica,sans-Serif" font-size="10.00">doris::vectorized::</text>
<text text-anchor="middle" x="188.5" y="-506" font-family="Helvetica,sans-Serif" font-size="10.00">ColumnString::get_data_at</text>
</a>
</g>
</g>
<!-- Node1&#45;&gt;Node3 -->
<g id="edge2" class="edge">
<title>Node1&#45;&gt;Node3</title>
<path fill="none" stroke="#63b8ff" d="M86.28,-514C93.89,-514 102.05,-514 110.3,-514"/>
<polygon fill="#63b8ff" stroke="#63b8ff" points="110.05,-517.5 120.05,-514 110.05,-510.5 110.05,-517.5"/>
</g>
<!-- Node7 -->
<g id="node7" class="node">
<title>Node7</title>
<g id="a_node7"><a xlink:href="../../d7/d3c/classdoris_1_1vectorized_1_1_column_string.html#a3ddb0d39331caa0f2f8014c9019500ed" target="_top" xlink:title=" ">
<polygon fill="white" stroke="#666666" points="253.5,-376 123.5,-376 123.5,-346 253.5,-346 253.5,-376"/>
<text text-anchor="start" x="131.5" y="-364" font-family="Helvetica,sans-Serif" font-size="10.00">doris::vectorized::</text>
<text text-anchor="middle" x="188.5" y="-353" font-family="Helvetica,sans-Serif" font-size="10.00">ColumnString::insert_data</text>
</a>
</g>
</g>
<!-- Node1&#45;&gt;Node7 -->
<g id="edge6" class="edge">
<title>Node1&#45;&gt;Node7</title>
<path fill="none" stroke="#63b8ff" d="M52.98,-504.43C75.26,-480.67 133.63,-418.44 165.67,-384.28"/>
<polygon fill="#63b8ff" stroke="#63b8ff" points="167.89,-387.03 172.17,-377.34 162.78,-382.24 167.89,-387.03"/>
</g>
<!-- Node4 -->
<g id="node4" class="node">
<title>Node4</title>
<g id="a_node4"><a xlink:href="../../d7/d3c/classdoris_1_1vectorized_1_1_column_string.html#a14f5314566df04c129cfce44afe0d0a6" target="_top" xlink:title=" ">
<polygon fill="white" stroke="#666666" points="411,-553 291,-553 291,-523 411,-523 411,-553"/>
<text text-anchor="start" x="299" y="-541" font-family="Helvetica,sans-Serif" font-size="10.00">doris::vectorized::</text>
<text text-anchor="middle" x="351" y="-530" font-family="Helvetica,sans-Serif" font-size="10.00">ColumnString::offset_at</text>
</a>
</g>
</g>
<!-- Node3&#45;&gt;Node4 -->
<g id="edge3" class="edge">
<title>Node3&#45;&gt;Node4</title>
<path fill="none" stroke="#63b8ff" d="M255.24,-523.83C263.19,-525.02 271.33,-526.24 279.34,-527.43"/>
<polygon fill="#63b8ff" stroke="#63b8ff" points="278.64,-530.87 289.05,-528.89 279.67,-523.94 278.64,-530.87"/>
</g>
<!-- Node5 -->
<g id="node5" class="node">
<title>Node5</title>
<g id="a_node5"><a xlink:href="../../d7/d3c/classdoris_1_1vectorized_1_1_column_string.html#ad7701a09a964eab360a8e51fa7ad2c16" target="_top" xlink:title=" ">
<polygon fill="white" stroke="#666666" points="401,-505 301,-505 301,-475 401,-475 401,-505"/>
<text text-anchor="start" x="309" y="-493" font-family="Helvetica,sans-Serif" font-size="10.00">doris::vectorized::</text>
<text text-anchor="middle" x="351" y="-482" font-family="Helvetica,sans-Serif" font-size="10.00">ColumnString::size</text>
</a>
</g>
</g>
<!-- Node3&#45;&gt;Node5 -->
<g id="edge4" class="edge">
<title>Node3&#45;&gt;Node5</title>
<path fill="none" stroke="#63b8ff" d="M255.24,-504.17C266.67,-502.46 278.51,-500.69 289.78,-499.01"/>
<polygon fill="#63b8ff" stroke="#63b8ff" points="289.95,-502.52 299.33,-497.58 288.92,-495.59 289.95,-502.52"/>
</g>
<!-- Node6 -->
<g id="node6" class="node">
<title>Node6</title>
<g id="a_node6"><a xlink:href="../../d7/d3c/classdoris_1_1vectorized_1_1_column_string.html#a726061f0a079c883725f5ae6efde4683" target="_top" xlink:title="Size of i&#45;th element, including terminating zero.">
<polygon fill="white" stroke="#666666" points="407.5,-601 294.5,-601 294.5,-571 407.5,-571 407.5,-601"/>
<text text-anchor="start" x="302.5" y="-589" font-family="Helvetica,sans-Serif" font-size="10.00">doris::vectorized::</text>
<text text-anchor="middle" x="351" y="-578" font-family="Helvetica,sans-Serif" font-size="10.00">ColumnString::size_at</text>
</a>
</g>
</g>
<!-- Node3&#45;&gt;Node6 -->
<g id="edge5" class="edge">
<title>Node3&#45;&gt;Node6</title>
<path fill="none" stroke="#63b8ff" d="M233.72,-529.46C240.94,-532.39 248.26,-535.61 255,-539 271.96,-547.54 274.14,-553.28 291,-562 293.54,-563.31 296.16,-564.6 298.83,-565.86"/>
<polygon fill="#63b8ff" stroke="#63b8ff" points="297.32,-569.02 307.87,-569.94 300.19,-562.64 297.32,-569.02"/>
</g>
<!-- Node8 -->
<g id="node8" class="node">
<title>Node8</title>
<g id="a_node8"><a xlink:href="../../d7/d3c/classdoris_1_1vectorized_1_1_column_string.html#ab15ae3a50f8d1fbc7b1986af77263e2c" target="_top" xlink:title=" ">
<polygon fill="white" stroke="#666666" points="405,-408.5 297,-408.5 297,-367.5 405,-367.5 405,-408.5"/>
<text text-anchor="start" x="305" y="-396.5" font-family="Helvetica,sans-Serif" font-size="10.00">doris::vectorized::</text>
<text text-anchor="start" x="305" y="-385.5" font-family="Helvetica,sans-Serif" font-size="10.00">ColumnString::check</text>
<text text-anchor="middle" x="351" y="-374.5" font-family="Helvetica,sans-Serif" font-size="10.00">_chars_length</text>
</a>
</g>
</g>
<!-- Node7&#45;&gt;Node8 -->
<g id="edge7" class="edge">
<title>Node7&#45;&gt;Node8</title>
<path fill="none" stroke="#63b8ff" d="M253.86,-371.83C264.3,-373.58 275.11,-375.4 285.55,-377.16"/>
<polygon fill="#63b8ff" stroke="#63b8ff" points="284.77,-380.58 295.21,-378.78 285.93,-373.67 284.77,-380.58"/>
</g>
<!-- Node9 -->
<g id="node9" class="node">
<title>Node9</title>
<g id="a_node9"><a xlink:href="../../df/db2/classdoris_1_1vectorized_1_1_p_o_d_array.html#adc1e16b293a89a9ccc9541058b5ca560" target="_top" xlink:title=" ">
<polygon fill="white" stroke="#666666" points="398.5,-349 303.5,-349 303.5,-319 398.5,-319 398.5,-349"/>
<text text-anchor="start" x="311.5" y="-337" font-family="Helvetica,sans-Serif" font-size="10.00">doris::vectorized::</text>
<text text-anchor="middle" x="351" y="-326" font-family="Helvetica,sans-Serif" font-size="10.00">PODArray::data</text>
</a>
</g>
</g>
<!-- Node7&#45;&gt;Node9 -->
<g id="edge8" class="edge">
<title>Node7&#45;&gt;Node9</title>
<path fill="none" stroke="#63b8ff" d="M253.86,-350.17C266.54,-348.04 279.78,-345.81 292.23,-343.72"/>
<polygon fill="#63b8ff" stroke="#63b8ff" points="292.64,-347.2 301.92,-342.09 291.48,-340.3 292.64,-347.2"/>
</g>
<!-- Node11 -->
<g id="node11" class="node">
<title>Node11</title>
<g id="a_node11"><a xlink:href="../../d9/d1e/memcpy__aarch64_8cpp.html#a156c5821f16ed93be8c7d315303f7b2a" target="_top" xlink:title=" ">
<polygon fill="white" stroke="#666666" points="378,-300.5 324,-300.5 324,-281.5 378,-281.5 378,-300.5"/>
<text text-anchor="middle" x="351" y="-288.5" font-family="Helvetica,sans-Serif" font-size="10.00">memcpy</text>
</a>
</g>
</g>
<!-- Node7&#45;&gt;Node11 -->
<g id="edge10" class="edge">
<title>Node7&#45;&gt;Node11</title>
<path fill="none" stroke="#63b8ff" d="M217.4,-345.52C237.49,-334.73 265.45,-320.46 291,-310 297.94,-307.16 305.48,-304.45 312.78,-302.02"/>
<polygon fill="#63b8ff" stroke="#63b8ff" points="313.66,-305.42 322.11,-299.03 311.52,-298.75 313.66,-305.42"/>
</g>
<!-- Node13 -->
<g id="node13" class="node">
<title>Node13</title>
<g id="a_node13"><a xlink:href="../../d5/d9d/classdoris_1_1vectorized_1_1_p_o_d_array_base.html#a0c895d2dd381326acf54873d9d3a5aa5" target="_top" xlink:title=" ">
<polygon fill="white" stroke="#666666" points="409,-258 293,-258 293,-228 409,-228 409,-258"/>
<text text-anchor="start" x="301" y="-246" font-family="Helvetica,sans-Serif" font-size="10.00">doris::vectorized::</text>
<text text-anchor="middle" x="351" y="-235" font-family="Helvetica,sans-Serif" font-size="10.00">PODArrayBase::resize</text>
</a>
</g>
</g>
<!-- Node7&#45;&gt;Node13 -->
<g id="edge12" class="edge">
<title>Node7&#45;&gt;Node13</title>
<path fill="none" stroke="#63b8ff" d="M204.7,-345.7C223.74,-327.05 257.91,-295.27 291,-273 295.76,-269.79 300.92,-266.7 306.12,-263.79"/>
<polygon fill="#63b8ff" stroke="#63b8ff" points="307.61,-266.96 314.78,-259.16 304.31,-260.79 307.61,-266.96"/>
</g>
<!-- Node25 -->
<g id="node25" class="node">
<title>Node25</title>
<g id="a_node25"><a xlink:href="../../d5/d9d/classdoris_1_1vectorized_1_1_p_o_d_array_base.html#a259cb5a711406a8c3e5d937eb9350cca" target="_top" xlink:title=" ">
<polygon fill="white" stroke="#666666" points="405,-457 297,-457 297,-427 405,-427 405,-457"/>
<text text-anchor="start" x="305" y="-445" font-family="Helvetica,sans-Serif" font-size="10.00">doris::vectorized::</text>
<text text-anchor="middle" x="351" y="-434" font-family="Helvetica,sans-Serif" font-size="10.00">PODArrayBase::size</text>
</a>
</g>
</g>
<!-- Node7&#45;&gt;Node25 -->
<g id="edge25" class="edge">
<title>Node7&#45;&gt;Node25</title>
<path fill="none" stroke="#63b8ff" d="M214.89,-376.43C235.14,-388.45 264.42,-405.19 291,-418 293.75,-419.33 296.6,-420.65 299.49,-421.95"/>
<polygon fill="#63b8ff" stroke="#63b8ff" points="298.08,-425.15 308.64,-425.93 300.87,-418.73 298.08,-425.15"/>
</g>
<!-- Node10 -->
<g id="node10" class="node">
<title>Node10</title>
<g id="a_node10"><a xlink:href="../../df/db2/classdoris_1_1vectorized_1_1_p_o_d_array.html#a8e612adde07f46d3398ac6962d676a66" target="_top" xlink:title=" ">
<polygon fill="white" stroke="#666666" points="555.5,-349 460.5,-349 460.5,-319 555.5,-319 555.5,-349"/>
<text text-anchor="start" x="468.5" y="-337" font-family="Helvetica,sans-Serif" font-size="10.00">doris::vectorized::</text>
<text text-anchor="middle" x="508" y="-326" font-family="Helvetica,sans-Serif" font-size="10.00">PODArray::t_start</text>
</a>
</g>
</g>
<!-- Node9&#45;&gt;Node10 -->
<g id="edge9" class="edge">
<title>Node9&#45;&gt;Node10</title>
<path fill="none" stroke="#63b8ff" d="M398.93,-334C414.71,-334 432.5,-334 449.03,-334"/>
<polygon fill="#63b8ff" stroke="#63b8ff" points="448.72,-337.5 458.72,-334 448.72,-330.5 448.72,-337.5"/>
</g>
<!-- Node12 -->
<g id="node12" class="node">
<title>Node12</title>
<g id="a_node12"><a xlink:href="../../d9/d1e/memcpy__aarch64_8cpp.html#a11ebdd343428c466f2f35c376d7db6d0" target="_top" xlink:title=" ">
<polygon fill="white" stroke="#666666" points="549,-300.5 467,-300.5 467,-281.5 549,-281.5 549,-300.5"/>
<text text-anchor="middle" x="508" y="-288.5" font-family="Helvetica,sans-Serif" font-size="10.00">inline_memcpy</text>
</a>
</g>
</g>
<!-- Node11&#45;&gt;Node12 -->
<g id="edge11" class="edge">
<title>Node11&#45;&gt;Node12</title>
<path fill="none" stroke="#63b8ff" d="M378.29,-291C399.27,-291 429.29,-291 455.07,-291"/>
<polygon fill="#63b8ff" stroke="#63b8ff" points="455.05,-294.5 465.05,-291 455.05,-287.5 455.05,-294.5"/>
</g>
<!-- Node14 -->
<g id="node14" class="node">
<title>Node14</title>
<g id="a_node14"><a xlink:href="../../d5/d9d/classdoris_1_1vectorized_1_1_p_o_d_array_base.html#aa5a2bd4e24261d8f10f2f4e5d82fccf6" target="_top" xlink:title=" ">
<polygon fill="white" stroke="#666666" points="569,-186 447,-186 447,-156 569,-156 569,-186"/>
<text text-anchor="start" x="455" y="-174" font-family="Helvetica,sans-Serif" font-size="10.00">doris::vectorized::</text>
<text text-anchor="middle" x="508" y="-163" font-family="Helvetica,sans-Serif" font-size="10.00">PODArrayBase::reserve</text>
</a>
</g>
</g>
<!-- Node13&#45;&gt;Node14 -->
<g id="edge13" class="edge">
<title>Node13&#45;&gt;Node14</title>
<path fill="none" stroke="#63b8ff" d="M385.25,-227.55C408.13,-216.92 438.76,-202.7 463.57,-191.18"/>
<polygon fill="#63b8ff" stroke="#63b8ff" points="464.84,-194.45 472.43,-187.06 461.89,-188.1 464.84,-194.45"/>
</g>
<!-- Node24 -->
<g id="node24" class="node">
<title>Node24</title>
<g id="a_node24"><a xlink:href="../../d5/d9d/classdoris_1_1vectorized_1_1_p_o_d_array_base.html#afa97d17a5fedae2da8191c2c52aa6025" target="_top" xlink:title=" ">
<polygon fill="white" stroke="#666666" points="566,-263.5 450,-263.5 450,-222.5 566,-222.5 566,-263.5"/>
<text text-anchor="start" x="458" y="-251.5" font-family="Helvetica,sans-Serif" font-size="10.00">doris::vectorized::</text>
<text text-anchor="start" x="458" y="-240.5" font-family="Helvetica,sans-Serif" font-size="10.00">PODArrayBase::resize</text>
<text text-anchor="middle" x="508" y="-229.5" font-family="Helvetica,sans-Serif" font-size="10.00">_assume_reserved</text>
</a>
</g>
</g>
<!-- Node13&#45;&gt;Node24 -->
<g id="edge23" class="edge">
<title>Node13&#45;&gt;Node24</title>
<path fill="none" stroke="#63b8ff" d="M409.28,-243C418.76,-243 428.68,-243 438.41,-243"/>
<polygon fill="#63b8ff" stroke="#63b8ff" points="438.19,-246.5 448.19,-243 438.19,-239.5 438.19,-246.5"/>
</g>
<!-- Node15 -->
<g id="node15" class="node">
<title>Node15</title>
<g id="a_node15"><a xlink:href="../../d5/d9d/classdoris_1_1vectorized_1_1_p_o_d_array_base.html#a7223528283cd4e5872e0cc716bf9bd9d" target="_top" xlink:title=" ">
<polygon fill="white" stroke="#666666" points="733.5,-186 606.5,-186 606.5,-156 733.5,-156 733.5,-186"/>
<text text-anchor="start" x="614.5" y="-174" font-family="Helvetica,sans-Serif" font-size="10.00">doris::vectorized::</text>
<text text-anchor="middle" x="670" y="-163" font-family="Helvetica,sans-Serif" font-size="10.00">PODArrayBase::capacity</text>
</a>
</g>
</g>
<!-- Node14&#45;&gt;Node15 -->
<g id="edge14" class="edge">
<title>Node14&#45;&gt;Node15</title>
<path fill="none" stroke="#63b8ff" d="M569.49,-171C577.7,-171 586.21,-171 594.63,-171"/>
<polygon fill="#63b8ff" stroke="#63b8ff" points="594.51,-174.5 604.51,-171 594.51,-167.5 594.51,-174.5"/>
</g>
<!-- Node16 -->
<g id="node16" class="node">
<title>Node16</title>
<g id="a_node16"><a xlink:href="../../d5/d9d/classdoris_1_1vectorized_1_1_p_o_d_array_base.html#aa0ed9240c71cb15ddd75f2ebfae30c69" target="_top" xlink:title="Minimum amount of memory to allocate for num_elements, including padding.">
<polygon fill="white" stroke="#666666" points="735,-137.5 605,-137.5 605,-96.5 735,-96.5 735,-137.5"/>
<text text-anchor="start" x="613" y="-125.5" font-family="Helvetica,sans-Serif" font-size="10.00">doris::vectorized::</text>
<text text-anchor="start" x="613" y="-114.5" font-family="Helvetica,sans-Serif" font-size="10.00">PODArrayBase::minimum</text>
<text text-anchor="middle" x="670" y="-103.5" font-family="Helvetica,sans-Serif" font-size="10.00">_memory_for_elements</text>
</a>
</g>
</g>
<!-- Node14&#45;&gt;Node16 -->
<g id="edge15" class="edge">
<title>Node14&#45;&gt;Node16</title>
<path fill="none" stroke="#63b8ff" d="M554.85,-155.53C567.8,-151.15 582.22,-146.29 596.34,-141.52"/>
<polygon fill="#63b8ff" stroke="#63b8ff" points="597.25,-144.91 605.61,-138.4 595.01,-138.28 597.25,-144.91"/>
</g>
<!-- Node18 -->
<g id="node18" class="node">
<title>Node18</title>
<g id="a_node18"><a xlink:href="../../d5/d9d/classdoris_1_1vectorized_1_1_p_o_d_array_base.html#a9001e08f14a42d556978c322450da2f7" target="_top" xlink:title=" ">
<polygon fill="white" stroke="#666666" points="729.5,-78 610.5,-78 610.5,-48 729.5,-48 729.5,-78"/>
<text text-anchor="start" x="618.5" y="-66" font-family="Helvetica,sans-Serif" font-size="10.00">doris::vectorized::</text>
<text text-anchor="middle" x="670" y="-55" font-family="Helvetica,sans-Serif" font-size="10.00">PODArrayBase::realloc</text>
</a>
</g>
</g>
<!-- Node14&#45;&gt;Node18 -->
<g id="edge17" class="edge">
<title>Node14&#45;&gt;Node18</title>
<path fill="none" stroke="#63b8ff" d="M523.36,-155.74C541.12,-137.6 572.93,-107.34 605,-88 607.73,-86.35 610.59,-84.78 613.51,-83.28"/>
<polygon fill="#63b8ff" stroke="#63b8ff" points="614.76,-86.56 622.29,-79.12 611.76,-80.24 614.76,-86.56"/>
</g>
<!-- Node23 -->
<g id="node23" class="node">
<title>Node23</title>
<g id="a_node23"><a xlink:href="../../dc/da2/bit__helpers_8h.html#ae2948c0075b86f9ca20fc36610b4aca8" target="_top" xlink:title=" ">
<polygon fill="white" stroke="#666666" points="727.5,-234 612.5,-234 612.5,-204 727.5,-204 727.5,-234"/>
<text text-anchor="start" x="620.5" y="-222" font-family="Helvetica,sans-Serif" font-size="10.00">round_up_to_power_of</text>
<text text-anchor="middle" x="670" y="-211" font-family="Helvetica,sans-Serif" font-size="10.00">_two_or_zero</text>
</a>
</g>
</g>
<!-- Node14&#45;&gt;Node23 -->
<g id="edge22" class="edge">
<title>Node14&#45;&gt;Node23</title>
<path fill="none" stroke="#63b8ff" d="M560.51,-186.45C575.21,-190.86 591.39,-195.72 606.66,-200.3"/>
<polygon fill="#63b8ff" stroke="#63b8ff" points="605.56,-203.62 616.14,-203.14 607.57,-196.92 605.56,-203.62"/>
</g>
<!-- Node17 -->
<g id="node17" class="node">
<title>Node17</title>
<g id="a_node17"><a xlink:href="../../d5/d9d/classdoris_1_1vectorized_1_1_p_o_d_array_base.html#a4fd871ea772d3f22957ed8dd6a0aebb6" target="_top" xlink:title="Does not include pad_right.">
<polygon fill="white" stroke="#666666" points="916,-225 784,-225 784,-195 916,-195 916,-225"/>
<text text-anchor="start" x="792" y="-213" font-family="Helvetica,sans-Serif" font-size="10.00">doris::vectorized::</text>
<text text-anchor="middle" x="850" y="-202" font-family="Helvetica,sans-Serif" font-size="10.00">PODArrayBase::byte_size</text>
</a>
</g>
</g>
<!-- Node16&#45;&gt;Node17 -->
<g id="edge16" class="edge">
<title>Node16&#45;&gt;Node17</title>
<path fill="none" stroke="#63b8ff" d="M716.63,-137.94C722.84,-140.91 729.1,-143.99 735,-147 761.26,-160.39 790.33,-176.48 812.55,-189.05"/>
<polygon fill="#63b8ff" stroke="#63b8ff" points="810.81,-192.08 821.23,-193.98 814.27,-186 810.81,-192.08"/>
</g>
<!-- Node19 -->
<g id="node19" class="node">
<title>Node19</title>
<g id="a_node19"><a xlink:href="../../d5/d9d/classdoris_1_1vectorized_1_1_p_o_d_array_base.html#a0e716713ea1a6de012c8830d8ef03ca9" target="_top" xlink:title=" ">
<polygon fill="white" stroke="#666666" points="905,-78 795,-78 795,-48 905,-48 905,-78"/>
<text text-anchor="start" x="803" y="-66" font-family="Helvetica,sans-Serif" font-size="10.00">doris::vectorized::</text>
<text text-anchor="middle" x="850" y="-55" font-family="Helvetica,sans-Serif" font-size="10.00">PODArrayBase::alloc</text>
</a>
</g>
</g>
<!-- Node18&#45;&gt;Node19 -->
<g id="edge18" class="edge">
<title>Node18&#45;&gt;Node19</title>
<path fill="none" stroke="#63b8ff" d="M729.78,-63C746.89,-63 765.69,-63 783.21,-63"/>
<polygon fill="#63b8ff" stroke="#63b8ff" points="782.99,-66.5 792.99,-63 782.99,-59.5 782.99,-66.5"/>
</g>
<!-- Node20 -->
<g id="node20" class="node">
<title>Node20</title>
<g id="a_node20"><a xlink:href="../../d5/d9d/classdoris_1_1vectorized_1_1_p_o_d_array_base.html#acd47db4f184c2a88c3c8eee3406d13db" target="_top" xlink:title="This method is safe to use only for information about memory usage.">
<polygon fill="white" stroke="#666666" points="929,-30 771,-30 771,0 929,0 929,-30"/>
<text text-anchor="start" x="779" y="-18" font-family="Helvetica,sans-Serif" font-size="10.00">doris::vectorized::</text>
<text text-anchor="middle" x="850" y="-7" font-family="Helvetica,sans-Serif" font-size="10.00">PODArrayBase::allocated_bytes</text>
</a>
</g>
</g>
<!-- Node18&#45;&gt;Node20 -->
<g id="edge19" class="edge">
<title>Node18&#45;&gt;Node20</title>
<path fill="none" stroke="#63b8ff" d="M728.3,-47.55C745.13,-43.01 763.71,-38 781.13,-33.3"/>
<polygon fill="#63b8ff" stroke="#63b8ff" points="781.6,-36.8 790.35,-30.82 779.78,-30.04 781.6,-36.8"/>
</g>
<!-- Node21 -->
<g id="node21" class="node">
<title>Node21</title>
<g id="a_node21"><a xlink:href="../../d5/d9d/classdoris_1_1vectorized_1_1_p_o_d_array_base.html#a41d7b4a7908cc8905970d3d601d8634c" target="_top" xlink:title=" ">
<polygon fill="white" stroke="#666666" points="915.5,-126 784.5,-126 784.5,-96 915.5,-96 915.5,-126"/>
<text text-anchor="start" x="792.5" y="-114" font-family="Helvetica,sans-Serif" font-size="10.00">doris::vectorized::</text>
<text text-anchor="middle" x="850" y="-103" font-family="Helvetica,sans-Serif" font-size="10.00">PODArrayBase::unprotect</text>
</a>
</g>
</g>
<!-- Node18&#45;&gt;Node21 -->
<g id="edge20" class="edge">
<title>Node18&#45;&gt;Node21</title>
<path fill="none" stroke="#63b8ff" d="M728.3,-78.45C745.13,-82.99 763.71,-88 781.13,-92.7"/>
<polygon fill="#63b8ff" stroke="#63b8ff" points="779.78,-95.96 790.35,-95.18 781.6,-89.2 779.78,-95.96"/>
</g>
<!-- Node22 -->
<g id="node22" class="node">
<title>Node22</title>
<g id="a_node22"><a xlink:href="../../d5/d9d/classdoris_1_1vectorized_1_1_p_o_d_array_base.html#aabb38ffefd0c3a618756a9150e27a97a" target="_top" xlink:title=" ">
<polygon fill="white" stroke="#666666" points="1108,-126 965,-126 965,-96 1108,-96 1108,-126"/>
<text text-anchor="start" x="973" y="-114" font-family="Helvetica,sans-Serif" font-size="10.00">doris::vectorized::</text>
<text text-anchor="middle" x="1036.5" y="-103" font-family="Helvetica,sans-Serif" font-size="10.00">PODArrayBase::protect_impl</text>
</a>
</g>
</g>
<!-- Node21&#45;&gt;Node22 -->
<g id="edge21" class="edge">
<title>Node21&#45;&gt;Node22</title>
<path fill="none" stroke="#63b8ff" d="M915.79,-111C927.87,-111 940.65,-111 953.17,-111"/>
<polygon fill="#63b8ff" stroke="#63b8ff" points="953.07,-114.5 963.07,-111 953.07,-107.5 953.07,-114.5"/>
</g>
<!-- Node24&#45;&gt;Node17 -->
<g id="edge24" class="edge">
<title>Node24&#45;&gt;Node17</title>
<path fill="none" stroke="#63b8ff" d="M566.44,-247.43C612.3,-249.9 678.09,-251.07 735,-243 755.12,-240.15 776.66,-234.59 795.54,-228.84"/>
<polygon fill="#63b8ff" stroke="#63b8ff" points="796.39,-232.25 804.88,-225.91 794.29,-225.57 796.39,-232.25"/>
</g>
</g>
</svg>
