<?xml version="1.0" encoding="UTF-8" standalone="no"?>
<!DOCTYPE svg PUBLIC "-//W3C//DTD SVG 1.1//EN"
 "http://www.w3.org/Graphics/SVG/1.1/DTD/svg11.dtd">
<!-- Generated by graphviz version 7.1.0 (20230121.1956)
 -->
<!-- Title: _submit_compaction_task Pages: 1 -->
<svg width="609pt" height="343pt"
 viewBox="0.00 0.00 609.00 343.00" xmlns="http://www.w3.org/2000/svg" xmlns:xlink="http://www.w3.org/1999/xlink">
<g id="graph0" class="graph" transform="scale(1 1) rotate(0) translate(4 339)">
<title>_submit_compaction_task</title>
<!-- Node1 -->
<g id="node1" class="node">
<title>Node1</title>
<g id="a_node1"><a xlink:title=" ">
<polygon fill="#999999" stroke="#666666" points="131,-179.5 0,-179.5 0,-160.5 131,-160.5 131,-179.5"/>
<text text-anchor="middle" x="65.5" y="-167.5" font-family="Helvetica,sans-Serif" font-size="10.00">_submit_compaction_task</text>
</a>
</g>
</g>
<!-- Node2 -->
<g id="node2" class="node">
<title>Node2</title>
<g id="a_node2"><a xlink:href="../../d7/d82/classdoris_1_1_storage_engine.html#ac3de8755d19962a330d6cafd27ca8d80" target="_top" xlink:title=" ">
<polygon fill="white" stroke="#666666" points="314,-335 174,-335 174,-305 314,-305 314,-335"/>
<text text-anchor="start" x="182" y="-323" font-family="Helvetica,sans-Serif" font-size="10.00">_pop_tablet_from_submitted</text>
<text text-anchor="middle" x="244" y="-312" font-family="Helvetica,sans-Serif" font-size="10.00">_compaction</text>
</a>
</g>
</g>
<!-- Node1&#45;&gt;Node2 -->
<g id="edge1" class="edge">
<title>Node1&#45;&gt;Node2</title>
<path fill="none" stroke="#63b8ff" d="M71.62,-179.83C84.42,-203.46 120.17,-263.85 167,-296 168.8,-297.23 170.66,-298.41 172.57,-299.52"/>
<polygon fill="#63b8ff" stroke="#63b8ff" points="170.67,-302.48 181.16,-303.93 173.87,-296.25 170.67,-302.48"/>
</g>
<!-- Node3 -->
<g id="node3" class="node">
<title>Node3</title>
<g id="a_node3"><a xlink:href="../../d7/d82/classdoris_1_1_storage_engine.html#a536d38b95453885ee5eab57ab3b435ee" target="_top" xlink:title=" ">
<polygon fill="white" stroke="#666666" points="314.5,-287 173.5,-287 173.5,-257 314.5,-257 314.5,-287"/>
<text text-anchor="start" x="181.5" y="-275" font-family="Helvetica,sans-Serif" font-size="10.00">_push_tablet_into_submitted</text>
<text text-anchor="middle" x="244" y="-264" font-family="Helvetica,sans-Serif" font-size="10.00">_compaction</text>
</a>
</g>
</g>
<!-- Node1&#45;&gt;Node3 -->
<g id="edge2" class="edge">
<title>Node1&#45;&gt;Node3</title>
<path fill="none" stroke="#63b8ff" d="M76.5,-179.76C93.66,-196.04 130.42,-228.82 167,-248 169.87,-249.51 172.86,-250.94 175.91,-252.3"/>
<polygon fill="#63b8ff" stroke="#63b8ff" points="174.49,-255.5 185.07,-256.06 177.14,-249.02 174.49,-255.5"/>
</g>
<!-- Node4 -->
<g id="node4" class="node">
<title>Node4</title>
<g id="a_node4"><a xlink:href="../../d9/d8d/classdoris_1_1_status.html#a6ec1a217f203269ab53d2290d602db24" target="_top" xlink:title=" ">
<polygon fill="white" stroke="#666666" points="290,-238.5 198,-238.5 198,-219.5 290,-219.5 290,-238.5"/>
<text text-anchor="middle" x="244" y="-226.5" font-family="Helvetica,sans-Serif" font-size="10.00">doris::Status::OK</text>
</a>
</g>
</g>
<!-- Node1&#45;&gt;Node4 -->
<g id="edge3" class="edge">
<title>Node1&#45;&gt;Node4</title>
<path fill="none" stroke="#63b8ff" d="M88.1,-179.95C108.21,-188.94 139.18,-202.09 167,-211 173.29,-213.01 179.93,-214.91 186.57,-216.67"/>
<polygon fill="#63b8ff" stroke="#63b8ff" points="185.65,-220.05 196.21,-219.11 187.37,-213.26 185.65,-220.05"/>
</g>
<!-- Node6 -->
<g id="node6" class="node">
<title>Node6</title>
<g id="a_node6"><a xlink:href="../../d9/d8d/classdoris_1_1_status.html#a03cb7eaa663dc83af68bc28a596d09e6" target="_top" xlink:title=" ">
<polygon fill="white" stroke="#666666" points="288.5,-201.5 199.5,-201.5 199.5,-182.5 288.5,-182.5 288.5,-201.5"/>
<text text-anchor="middle" x="244" y="-189.5" font-family="Helvetica,sans-Serif" font-size="10.00">doris::Status::ok</text>
</a>
</g>
</g>
<!-- Node1&#45;&gt;Node6 -->
<g id="edge5" class="edge">
<title>Node1&#45;&gt;Node6</title>
<path fill="none" stroke="#63b8ff" d="M131.47,-178.1C149.93,-180.4 169.86,-182.88 187.7,-185.11"/>
<polygon fill="#63b8ff" stroke="#63b8ff" points="187.22,-188.57 197.57,-186.34 188.08,-181.63 187.22,-188.57"/>
</g>
<!-- Node7 -->
<g id="node7" class="node">
<title>Node7</title>
<g id="a_node7"><a xlink:href="../../d5/df6/classdoris_1_1_compaction_permit_limiter.html#ab3dc31aa46758d78dcae372b8d4f3af5" target="_top" xlink:title=" ">
<polygon fill="white" stroke="#666666" points="321,-164 167,-164 167,-134 321,-134 321,-164"/>
<text text-anchor="start" x="175" y="-152" font-family="Helvetica,sans-Serif" font-size="10.00">doris::CompactionPermitLimiter</text>
<text text-anchor="middle" x="244" y="-141" font-family="Helvetica,sans-Serif" font-size="10.00">::release</text>
</a>
</g>
</g>
<!-- Node1&#45;&gt;Node7 -->
<g id="edge6" class="edge">
<title>Node1&#45;&gt;Node7</title>
<path fill="none" stroke="#63b8ff" d="M131.47,-162.27C139.22,-161.35 147.23,-160.4 155.23,-159.44"/>
<polygon fill="#63b8ff" stroke="#63b8ff" points="155.49,-162.94 165.01,-158.28 154.67,-155.99 155.49,-162.94"/>
</g>
<!-- Node11 -->
<g id="node11" class="node">
<title>Node11</title>
<g id="a_node11"><a xlink:href="../../d5/df6/classdoris_1_1_compaction_permit_limiter.html#ad5a1b5ebb8f494e20c778518f12edaf3" target="_top" xlink:title=" ">
<polygon fill="white" stroke="#666666" points="321,-116 167,-116 167,-86 321,-86 321,-116"/>
<text text-anchor="start" x="175" y="-104" font-family="Helvetica,sans-Serif" font-size="10.00">doris::CompactionPermitLimiter</text>
<text text-anchor="middle" x="244" y="-93" font-family="Helvetica,sans-Serif" font-size="10.00">::request</text>
</a>
</g>
</g>
<!-- Node1&#45;&gt;Node11 -->
<g id="edge11" class="edge">
<title>Node1&#45;&gt;Node11</title>
<path fill="none" stroke="#63b8ff" d="M86.62,-160.17C106.7,-150.55 138.59,-135.81 167,-125 171.36,-123.34 175.9,-121.7 180.48,-120.1"/>
<polygon fill="#63b8ff" stroke="#63b8ff" points="181.43,-123.48 189.78,-116.96 179.19,-116.85 181.43,-123.48"/>
</g>
<!-- Node12 -->
<g id="node12" class="node">
<title>Node12</title>
<g id="a_node12"><a xlink:href="../../d9/d8d/classdoris_1_1_status.html#aac993ecccd3d88aafefb6b8e3caa1dee" target="_top" xlink:title=" ">
<polygon fill="white" stroke="#666666" points="302,-67.5 186,-67.5 186,-48.5 302,-48.5 302,-67.5"/>
<text text-anchor="middle" x="244" y="-55.5" font-family="Helvetica,sans-Serif" font-size="10.00">doris::Status::to_string</text>
</a>
</g>
</g>
<!-- Node1&#45;&gt;Node12 -->
<g id="edge14" class="edge">
<title>Node1&#45;&gt;Node12</title>
<path fill="none" stroke="#63b8ff" d="M74.19,-160.14C89.64,-141.04 126.44,-98.94 167,-77 170.62,-75.04 174.45,-73.28 178.39,-71.7"/>
<polygon fill="#63b8ff" stroke="#63b8ff" points="179.32,-75.08 187.56,-68.42 176.97,-68.49 179.32,-75.08"/>
</g>
<!-- Node13 -->
<g id="node13" class="node">
<title>Node13</title>
<g id="a_node13"><a xlink:href="../../d5/df6/classdoris_1_1_compaction_permit_limiter.html#ae0db9f499eb0f5d2f965f563be4d369a" target="_top" xlink:title=" ">
<polygon fill="white" stroke="#666666" points="321,-30 167,-30 167,0 321,0 321,-30"/>
<text text-anchor="start" x="175" y="-18" font-family="Helvetica,sans-Serif" font-size="10.00">doris::CompactionPermitLimiter</text>
<text text-anchor="middle" x="244" y="-7" font-family="Helvetica,sans-Serif" font-size="10.00">::usage</text>
</a>
</g>
</g>
<!-- Node1&#45;&gt;Node13 -->
<g id="edge15" class="edge">
<title>Node1&#45;&gt;Node13</title>
<path fill="none" stroke="#63b8ff" d="M71.33,-160.13C83.73,-135.82 119.11,-72.55 167,-39 168.6,-37.88 170.25,-36.81 171.94,-35.79"/>
<polygon fill="#63b8ff" stroke="#63b8ff" points="173.5,-38.93 180.72,-31.17 170.24,-32.74 173.5,-38.93"/>
</g>
<!-- Node5 -->
<g id="node5" class="node">
<title>Node5</title>
<g id="a_node5"><a xlink:href="../../d9/d8d/classdoris_1_1_status.html#aafde58df1b2a6a91d5b674373be3ffc5" target="_top" xlink:title=" ">
<polygon fill="white" stroke="#666666" points="464,-238.5 357,-238.5 357,-219.5 464,-219.5 464,-238.5"/>
<text text-anchor="middle" x="410.5" y="-226.5" font-family="Helvetica,sans-Serif" font-size="10.00">doris::Status::Status</text>
</a>
</g>
</g>
<!-- Node4&#45;&gt;Node5 -->
<g id="edge4" class="edge">
<title>Node4&#45;&gt;Node5</title>
<path fill="none" stroke="#63b8ff" d="M290.39,-229C307.32,-229 326.87,-229 345.19,-229"/>
<polygon fill="#63b8ff" stroke="#63b8ff" points="345.18,-232.5 355.18,-229 345.18,-225.5 345.18,-232.5"/>
</g>
<!-- Node8 -->
<g id="node8" class="node">
<title>Node8</title>
<g id="a_node8"><a xlink:href="../../d3/d7b/classdoris_1_1_doris_metrics.html#a4d0ce88513091aec833045b4eddeee8b" target="_top" xlink:title=" ">
<polygon fill="white" stroke="#666666" points="460,-107 361,-107 361,-77 460,-77 460,-107"/>
<text text-anchor="start" x="369" y="-95" font-family="Helvetica,sans-Serif" font-size="10.00">doris::DorisMetrics</text>
<text text-anchor="middle" x="410.5" y="-84" font-family="Helvetica,sans-Serif" font-size="10.00">::instance</text>
</a>
</g>
</g>
<!-- Node7&#45;&gt;Node8 -->
<g id="edge7" class="edge">
<title>Node7&#45;&gt;Node8</title>
<path fill="none" stroke="#63b8ff" d="M294.99,-133.61C303.69,-130.82 312.63,-127.88 321,-125 333.35,-120.75 346.59,-115.95 358.96,-111.35"/>
<polygon fill="#63b8ff" stroke="#63b8ff" points="360.01,-114.7 368.15,-107.91 357.56,-108.14 360.01,-114.7"/>
</g>
<!-- Node9 -->
<g id="node9" class="node">
<title>Node9</title>
<g id="a_node9"><a xlink:href="../../db/de2/classdoris_1_1_atomic_metric.html#aaec56faa8dfb1f0834da74de68cfbeed" target="_top" xlink:title=" ">
<polygon fill="white" stroke="#666666" points="461,-173 360,-173 360,-143 461,-143 461,-173"/>
<text text-anchor="start" x="368" y="-161" font-family="Helvetica,sans-Serif" font-size="10.00">doris::AtomicMetric</text>
<text text-anchor="middle" x="410.5" y="-150" font-family="Helvetica,sans-Serif" font-size="10.00">::set_value</text>
</a>
</g>
</g>
<!-- Node7&#45;&gt;Node9 -->
<g id="edge9" class="edge">
<title>Node7&#45;&gt;Node9</title>
<path fill="none" stroke="#63b8ff" d="M321.47,-153.18C330.46,-153.68 339.53,-154.17 348.27,-154.65"/>
<polygon fill="#63b8ff" stroke="#63b8ff" points="347.84,-158.13 358.01,-155.18 348.22,-151.14 347.84,-158.13"/>
</g>
<!-- Node8&#45;&gt;Node8 -->
<g id="edge8" class="edge">
<title>Node8&#45;&gt;Node8</title>
<path fill="none" stroke="#63b8ff" d="M385.89,-107.28C380.42,-116.41 388.62,-125 410.5,-125 422.46,-125 430.34,-122.43 434.12,-118.61"/>
<polygon fill="#63b8ff" stroke="#63b8ff" points="437.6,-119.05 434.98,-108.78 430.62,-118.44 437.6,-119.05"/>
</g>
<!-- Node10 -->
<g id="node10" class="node">
<title>Node10</title>
<g id="a_node10"><a xlink:href="../../db/de2/classdoris_1_1_atomic_metric.html#abcb6b42a914ed14eff8c75f623ca692a" target="_top" xlink:title=" ">
<polygon fill="white" stroke="#666666" points="601,-173 500,-173 500,-143 601,-143 601,-173"/>
<text text-anchor="start" x="508" y="-161" font-family="Helvetica,sans-Serif" font-size="10.00">doris::AtomicMetric</text>
<text text-anchor="middle" x="550.5" y="-150" font-family="Helvetica,sans-Serif" font-size="10.00">::value</text>
</a>
</g>
</g>
<!-- Node9&#45;&gt;Node10 -->
<g id="edge10" class="edge">
<title>Node9&#45;&gt;Node10</title>
<path fill="none" stroke="#63b8ff" d="M461.32,-158C470.12,-158 479.36,-158 488.42,-158"/>
<polygon fill="#63b8ff" stroke="#63b8ff" points="488.24,-161.5 498.24,-158 488.24,-154.5 488.24,-161.5"/>
</g>
<!-- Node11&#45;&gt;Node8 -->
<g id="edge12" class="edge">
<title>Node11&#45;&gt;Node8</title>
<path fill="none" stroke="#63b8ff" d="M321.47,-96.82C330.91,-96.3 340.45,-95.78 349.59,-95.28"/>
<polygon fill="#63b8ff" stroke="#63b8ff" points="349.62,-98.78 359.41,-94.74 349.24,-91.79 349.62,-98.78"/>
</g>
<!-- Node11&#45;&gt;Node9 -->
<g id="edge13" class="edge">
<title>Node11&#45;&gt;Node9</title>
<path fill="none" stroke="#63b8ff" d="M294.99,-116.39C303.69,-119.18 312.63,-122.12 321,-125 333.35,-129.25 346.59,-134.05 358.96,-138.65"/>
<polygon fill="#63b8ff" stroke="#63b8ff" points="357.56,-141.86 368.15,-142.09 360.01,-135.3 357.56,-141.86"/>
</g>
</g>
</svg>
