<?xml version="1.0" encoding="UTF-8" standalone="no"?>
<!DOCTYPE svg PUBLIC "-//W3C//DTD SVG 1.1//EN"
 "http://www.w3.org/Graphics/SVG/1.1/DTD/svg11.dtd">
<!-- Generated by graphviz version 7.1.0 (20230121.1956)
 -->
<!-- Title: _cooldown_tasks_producer_callback Pages: 1 -->
<svg width="298pt" height="113pt"
 viewBox="0.00 0.00 298.00 112.50" xmlns="http://www.w3.org/2000/svg" xmlns:xlink="http://www.w3.org/1999/xlink">
<g id="graph0" class="graph" transform="scale(1 1) rotate(0) translate(4 108.5)">
<title>_cooldown_tasks_producer_callback</title>
<!-- Node1 -->
<g id="node1" class="node">
<title>Node1</title>
<g id="a_node1"><a xlink:title=" ">
<polygon fill="#999999" stroke="#666666" points="135,-73 0,-73 0,-43 135,-43 135,-73"/>
<text text-anchor="start" x="8" y="-61" font-family="Helvetica,sans-Serif" font-size="10.00">_cooldown_tasks_producer</text>
<text text-anchor="middle" x="67.5" y="-50" font-family="Helvetica,sans-Serif" font-size="10.00">_callback</text>
</a>
</g>
</g>
<!-- Node2 -->
<g id="node2" class="node">
<title>Node2</title>
<g id="a_node2"><a xlink:href="../../d9/d8d/classdoris_1_1_status.html#a03cb7eaa663dc83af68bc28a596d09e6" target="_top" xlink:title=" ">
<polygon fill="white" stroke="#666666" points="275,-104.5 186,-104.5 186,-85.5 275,-85.5 275,-104.5"/>
<text text-anchor="middle" x="230.5" y="-92.5" font-family="Helvetica,sans-Serif" font-size="10.00">doris::Status::ok</text>
</a>
</g>
</g>
<!-- Node1&#45;&gt;Node2 -->
<g id="edge1" class="edge">
<title>Node1&#45;&gt;Node2</title>
<path fill="none" stroke="#63b8ff" d="M135.38,-73.37C148.61,-76.41 162.35,-79.57 175.1,-82.5"/>
<polygon fill="#63b8ff" stroke="#63b8ff" points="174.02,-85.84 184.55,-84.67 175.59,-79.02 174.02,-85.84"/>
</g>
<!-- Node3 -->
<g id="node3" class="node">
<title>Node3</title>
<g id="a_node3"><a xlink:href="../../d9/d8d/classdoris_1_1_status.html#aac993ecccd3d88aafefb6b8e3caa1dee" target="_top" xlink:title=" ">
<polygon fill="white" stroke="#666666" points="288.5,-67.5 172.5,-67.5 172.5,-48.5 288.5,-48.5 288.5,-67.5"/>
<text text-anchor="middle" x="230.5" y="-55.5" font-family="Helvetica,sans-Serif" font-size="10.00">doris::Status::to_string</text>
</a>
</g>
</g>
<!-- Node1&#45;&gt;Node3 -->
<g id="edge2" class="edge">
<title>Node1&#45;&gt;Node3</title>
<path fill="none" stroke="#63b8ff" d="M135.38,-58C143.75,-58 152.33,-58 160.74,-58"/>
<polygon fill="#63b8ff" stroke="#63b8ff" points="160.54,-61.5 170.54,-58 160.54,-54.5 160.54,-61.5"/>
</g>
<!-- Node4 -->
<g id="node4" class="node">
<title>Node4</title>
<g id="a_node4"><a xlink:href="../../d8/dd6/classdoris_1_1_count_down_latch.html#aa22292be5b5e6a85a3349afa662de850" target="_top" xlink:title=" ">
<polygon fill="white" stroke="#666666" points="290,-30 171,-30 171,0 290,0 290,-30"/>
<text text-anchor="start" x="179" y="-18" font-family="Helvetica,sans-Serif" font-size="10.00">doris::CountDownLatch</text>
<text text-anchor="middle" x="230.5" y="-7" font-family="Helvetica,sans-Serif" font-size="10.00">::wait_for</text>
</a>
</g>
</g>
<!-- Node1&#45;&gt;Node4 -->
<g id="edge3" class="edge">
<title>Node1&#45;&gt;Node4</title>
<path fill="none" stroke="#63b8ff" d="M126.17,-42.6C137.38,-39.6 149.24,-36.44 160.77,-33.36"/>
<polygon fill="#63b8ff" stroke="#63b8ff" points="161.47,-36.79 170.23,-30.83 159.66,-30.03 161.47,-36.79"/>
</g>
</g>
</svg>
