<?xml version="1.0" encoding="UTF-8" standalone="no"?>
<!DOCTYPE svg PUBLIC "-//W3C//DTD SVG 1.1//EN"
 "http://www.w3.org/Graphics/SVG/1.1/DTD/svg11.dtd">
<!-- Generated by graphviz version 7.1.0 (20230121.1956)
 -->
<!-- Title: _update_cumulative_compaction_policy Pages: 1 -->
<!--zoomable 229 -->
<svg id="main" version="1.1" xmlns="http://www.w3.org/2000/svg" xmlns:xlink="http://www.w3.org/1999/xlink" xml:space="preserve" onload="init(evt)">
<style type="text/css"><![CDATA[
.edge:hover path { stroke: red; }
.edge:hover polygon { stroke: red; fill: red; }
]]></style>
<script type="text/javascript"><![CDATA[
var edges = document.getElementsByTagName('g');
if (edges && edges.length) {
  for (var i=0;i<edges.length;i++) {
    if (edges[i].id.substr(0,4)=='edge') {
      edges[i].setAttribute('class','edge');
    }
  }
}
]]></script>
        <defs>
                <circle id="rim" cx="0" cy="0" r="7"/>
                <circle id="rim2" cx="0" cy="0" r="3.5"/>
                <g id="zoomPlus">
                        <use xlink:href="#rim" fill="#404040">
                                <set attributeName="fill" to="#808080" begin="zoomplus.mouseover" end="zoomplus.mouseout"/>
                        </use>
                        <path d="M-4,0h8M0,-4v8" fill="none" stroke="white" stroke-width="1.5" pointer-events="none"/>
                </g>
                <g id="zoomMin">
                        <use xlink:href="#rim" fill="#404040">
                                <set attributeName="fill" to="#808080" begin="zoomminus.mouseover" end="zoomminus.mouseout"/>
                        </use>
                        <path d="M-4,0h8" fill="none" stroke="white" stroke-width="1.5" pointer-events="none"/>
                </g>
                <g id="dirArrow">
                        <path fill="none" stroke="white" stroke-width="1.5" d="M0,-3.0v7 M-2.5,-0.5L0,-3.0L2.5,-0.5"/>
                </g>
               <g id="resetDef">
                       <use xlink:href="#rim2" fill="#404040">
                               <set attributeName="fill" to="#808080" begin="reset.mouseover" end="reset.mouseout"/>
                       </use>
               </g>
        </defs>

<script type="text/javascript">
var viewWidth = 732;
var viewHeight = 229;
var sectionId = 'dynsection-82';
</script>
<script xlink:href="../../svgpan.js"/>
<svg id="graph" class="graph">
<g id="viewport">
<title>_update_cumulative_compaction_policy</title>
<!-- Node1 -->
<g id="node1" class="node">
<title>Node1</title>
<g id="a_node1"><a xlink:title=" ">
<polygon fill="#999999" stroke="#666666" points="724,-158 620,-158 620,-128 724,-128 724,-158"/>
<text text-anchor="start" x="628" y="-146" font-family="Helvetica,sans-Serif" font-size="10.00">_update_cumulative</text>
<text text-anchor="middle" x="672" y="-135" font-family="Helvetica,sans-Serif" font-size="10.00">_compaction_policy</text>
</a>
</g>
</g>
<!-- Node2 -->
<g id="node2" class="node">
<title>Node2</title>
<g id="a_node2"><a xlink:href="../../d7/d82/classdoris_1_1_storage_engine.html#a14bb4963d05584ace6ca16191d779be2" target="_top" xlink:title=" ">
<polygon fill="white" stroke="#666666" points="579,-200 464,-200 464,-170 579,-170 579,-200"/>
<text text-anchor="start" x="472" y="-188" font-family="Helvetica,sans-Serif" font-size="10.00">_generate_compaction</text>
<text text-anchor="middle" x="521.5" y="-177" font-family="Helvetica,sans-Serif" font-size="10.00">_tasks</text>
</a>
</g>
</g>
<!-- Node1&#45;&gt;Node2 -->
<g id="edge1" class="edge">
<title>Node1&#45;&gt;Node2</title>
<path fill="none" stroke="#63b8ff" d="M609.05,-160.52C598.5,-163.51 587.6,-166.59 577.25,-169.52"/>
<polygon fill="#63b8ff" stroke="#63b8ff" points="609.77,-163.96 618.44,-157.87 607.86,-157.22 609.77,-163.96"/>
</g>
<!-- Node6 -->
<g id="node6" class="node">
<title>Node6</title>
<g id="a_node6"><a xlink:href="../../d7/d82/classdoris_1_1_storage_engine.html#a0c64b00a585a055f83ef024034dfdb5c" target="_top" xlink:title=" ">
<polygon fill="white" stroke="#666666" points="584,-131.5 459,-131.5 459,-112.5 584,-112.5 584,-131.5"/>
<text text-anchor="middle" x="521.5" y="-119.5" font-family="Helvetica,sans-Serif" font-size="10.00">submit_compaction_task</text>
</a>
</g>
</g>
<!-- Node1&#45;&gt;Node6 -->
<g id="edge5" class="edge">
<title>Node1&#45;&gt;Node6</title>
<path fill="none" stroke="#63b8ff" d="M608.72,-134.19C600.7,-133.06 592.49,-131.9 584.47,-130.76"/>
<polygon fill="#63b8ff" stroke="#63b8ff" points="608,-137.63 618.4,-135.56 608.98,-130.7 608,-137.63"/>
</g>
<!-- Node3 -->
<g id="node3" class="node">
<title>Node3</title>
<g id="a_node3"><a xlink:href="../../d7/d82/classdoris_1_1_storage_engine.html#a4d0f9c45381794883748e8e5a02f580f" target="_top" xlink:title=" ">
<polygon fill="white" stroke="#666666" points="423,-221 279,-221 279,-191 423,-191 423,-221"/>
<text text-anchor="start" x="287" y="-209" font-family="Helvetica,sans-Serif" font-size="10.00">_compaction_tasks_producer</text>
<text text-anchor="middle" x="351" y="-198" font-family="Helvetica,sans-Serif" font-size="10.00">_callback</text>
</a>
</g>
</g>
<!-- Node2&#45;&gt;Node3 -->
<g id="edge2" class="edge">
<title>Node2&#45;&gt;Node3</title>
<path fill="none" stroke="#63b8ff" d="M452.75,-193.44C443.09,-194.65 433.12,-195.89 423.39,-197.1"/>
<polygon fill="#63b8ff" stroke="#63b8ff" points="452.93,-196.95 462.42,-192.24 452.07,-190 452.93,-196.95"/>
</g>
<!-- Node4 -->
<g id="node4" class="node">
<title>Node4</title>
<g id="a_node4"><a xlink:href="../../d7/d82/classdoris_1_1_storage_engine.html#a293e850f63fbf6c5faff6e84c619a0a5" target="_top" xlink:title=" ">
<polygon fill="white" stroke="#666666" points="230,-215.5 141,-215.5 141,-196.5 230,-196.5 230,-215.5"/>
<text text-anchor="middle" x="185.5" y="-203.5" font-family="Helvetica,sans-Serif" font-size="10.00">start_bg_threads</text>
</a>
</g>
</g>
<!-- Node3&#45;&gt;Node4 -->
<g id="edge3" class="edge">
<title>Node3&#45;&gt;Node4</title>
<path fill="none" stroke="#63b8ff" d="M267.47,-206C254.6,-206 241.75,-206 230.21,-206"/>
<polygon fill="#63b8ff" stroke="#63b8ff" points="267.25,-209.5 277.25,-206 267.25,-202.5 267.25,-209.5"/>
</g>
<!-- Node5 -->
<g id="node5" class="node">
<title>Node5</title>
<g id="a_node5"><a xlink:href="../../d7/dcc/doris__main_8cpp.html#a3c04138a5bfe5d72780bb7e82a18e627" target="_top" xlink:title=" ">
<polygon fill="white" stroke="#666666" points="65,-215.5 27,-215.5 27,-196.5 65,-196.5 65,-215.5"/>
<text text-anchor="middle" x="46" y="-203.5" font-family="Helvetica,sans-Serif" font-size="10.00">main</text>
</a>
</g>
</g>
<!-- Node4&#45;&gt;Node5 -->
<g id="edge4" class="edge">
<title>Node4&#45;&gt;Node5</title>
<path fill="none" stroke="#63b8ff" d="M129.3,-206C106.51,-206 81.66,-206 65.3,-206"/>
<polygon fill="#63b8ff" stroke="#63b8ff" points="129.1,-209.5 139.1,-206 129.1,-202.5 129.1,-209.5"/>
</g>
<!-- Node7 -->
<g id="node7" class="node">
<title>Node7</title>
<g id="a_node7"><a xlink:href="../../d0/db3/classdoris_1_1_task_worker_pool.html#ae494c1ea614eb154c6f4c218a1b2c4dc" target="_top" xlink:title=" ">
<polygon fill="white" stroke="#666666" points="416,-172.5 286,-172.5 286,-131.5 416,-131.5 416,-172.5"/>
<text text-anchor="start" x="294" y="-160.5" font-family="Helvetica,sans-Serif" font-size="10.00">doris::TaskWorkerPool</text>
<text text-anchor="start" x="294" y="-149.5" font-family="Helvetica,sans-Serif" font-size="10.00">::_publish_version_worker</text>
<text text-anchor="middle" x="351" y="-138.5" font-family="Helvetica,sans-Serif" font-size="10.00">_thread_callback</text>
</a>
</g>
</g>
<!-- Node6&#45;&gt;Node7 -->
<g id="edge6" class="edge">
<title>Node6&#45;&gt;Node7</title>
<path fill="none" stroke="#63b8ff" d="M453.35,-133.96C441.14,-136.13 428.43,-138.39 416.31,-140.55"/>
<polygon fill="#63b8ff" stroke="#63b8ff" points="453.67,-137.45 462.9,-132.25 452.44,-130.56 453.67,-137.45"/>
</g>
<!-- Node9 -->
<g id="node9" class="node">
<title>Node9</title>
<g id="a_node9"><a xlink:href="../../d0/db3/classdoris_1_1_task_worker_pool.html#abfd036f7141644ce532780a554cf15a8" target="_top" xlink:title=" ">
<polygon fill="white" stroke="#666666" points="420.5,-113.5 281.5,-113.5 281.5,-72.5 420.5,-72.5 420.5,-113.5"/>
<text text-anchor="start" x="289.5" y="-101.5" font-family="Helvetica,sans-Serif" font-size="10.00">doris::TaskWorkerPool</text>
<text text-anchor="start" x="289.5" y="-90.5" font-family="Helvetica,sans-Serif" font-size="10.00">::_submit_table_compaction</text>
<text text-anchor="middle" x="351" y="-79.5" font-family="Helvetica,sans-Serif" font-size="10.00">_worker_thread_callback</text>
</a>
</g>
</g>
<!-- Node6&#45;&gt;Node9 -->
<g id="edge8" class="edge">
<title>Node6&#45;&gt;Node9</title>
<path fill="none" stroke="#63b8ff" d="M451.31,-110.09C441.25,-108.36 430.89,-106.58 420.84,-104.85"/>
<polygon fill="#63b8ff" stroke="#63b8ff" points="450.57,-113.52 461.02,-111.76 451.76,-106.62 450.57,-113.52"/>
</g>
<!-- Node10 -->
<g id="node10" class="node">
<title>Node10</title>
<g id="a_node10"><a xlink:href="../../d7/d75/classdoris_1_1_delta_writer.html#a223508714f7b7c2a338265d09a23a25f" target="_top" xlink:title=" ">
<polygon fill="white" stroke="#666666" points="397,-54 305,-54 305,-24 397,-24 397,-54"/>
<text text-anchor="start" x="313" y="-42" font-family="Helvetica,sans-Serif" font-size="10.00">doris::DeltaWriter</text>
<text text-anchor="middle" x="351" y="-31" font-family="Helvetica,sans-Serif" font-size="10.00">::init</text>
</a>
</g>
</g>
<!-- Node6&#45;&gt;Node10 -->
<g id="edge10" class="edge">
<title>Node6&#45;&gt;Node10</title>
<path fill="none" stroke="#63b8ff" d="M497.06,-105.82C477.8,-93.01 449.46,-75.3 423,-63 414.86,-59.22 405.95,-55.73 397.27,-52.65"/>
<polygon fill="#63b8ff" stroke="#63b8ff" points="495,-108.65 505.25,-111.34 498.92,-102.85 495,-108.65"/>
</g>
<!-- Node8 -->
<g id="node8" class="node">
<title>Node8</title>
<g id="a_node8"><a xlink:href="../../d0/db3/classdoris_1_1_task_worker_pool.html#a60de64d75454385b23995437f1d72669" target="_top" xlink:title=" ">
<polygon fill="white" stroke="#666666" points="243,-147 128,-147 128,-117 243,-117 243,-147"/>
<text text-anchor="start" x="136" y="-135" font-family="Helvetica,sans-Serif" font-size="10.00">doris::TaskWorkerPool</text>
<text text-anchor="middle" x="185.5" y="-124" font-family="Helvetica,sans-Serif" font-size="10.00">::start</text>
</a>
</g>
</g>
<!-- Node7&#45;&gt;Node8 -->
<g id="edge7" class="edge">
<title>Node7&#45;&gt;Node8</title>
<path fill="none" stroke="#63b8ff" d="M274.54,-142.77C264.03,-141.48 253.38,-140.18 243.3,-138.95"/>
<polygon fill="#63b8ff" stroke="#63b8ff" points="274,-146.23 284.35,-143.97 274.85,-139.28 274,-146.23"/>
</g>
<!-- Node9&#45;&gt;Node8 -->
<g id="edge9" class="edge">
<title>Node9&#45;&gt;Node8</title>
<path fill="none" stroke="#63b8ff" d="M270.16,-112.04C261.13,-114.2 252.07,-116.36 243.41,-118.42"/>
<polygon fill="#63b8ff" stroke="#63b8ff" points="270.75,-115.5 279.66,-109.78 269.12,-108.69 270.75,-115.5"/>
</g>
<!-- Node11 -->
<g id="node11" class="node">
<title>Node11</title>
<g id="a_node11"><a xlink:href="../../d7/d75/classdoris_1_1_delta_writer.html#aee1c6f7d85af14d039dec07dc31ae862" target="_top" xlink:title=" ">
<polygon fill="white" stroke="#666666" points="231.5,-78 139.5,-78 139.5,-48 231.5,-48 231.5,-78"/>
<text text-anchor="start" x="147.5" y="-66" font-family="Helvetica,sans-Serif" font-size="10.00">doris::DeltaWriter</text>
<text text-anchor="middle" x="185.5" y="-55" font-family="Helvetica,sans-Serif" font-size="10.00">::close</text>
</a>
</g>
</g>
<!-- Node10&#45;&gt;Node11 -->
<g id="edge11" class="edge">
<title>Node10&#45;&gt;Node11</title>
<path fill="none" stroke="#63b8ff" d="M293.62,-47.28C273.4,-50.24 250.89,-53.55 231.75,-56.36"/>
<polygon fill="#63b8ff" stroke="#63b8ff" points="294.01,-50.76 303.39,-45.84 292.99,-43.83 294.01,-50.76"/>
</g>
<!-- Node12 -->
<g id="node12" class="node">
<title>Node12</title>
<g id="a_node12"><a xlink:href="../../d7/d75/classdoris_1_1_delta_writer.html#a81a3cbf5d113efdd6b18b9e88eee4cd4" target="_top" xlink:title=" ">
<polygon fill="white" stroke="#666666" points="231.5,-30 139.5,-30 139.5,0 231.5,0 231.5,-30"/>
<text text-anchor="start" x="147.5" y="-18" font-family="Helvetica,sans-Serif" font-size="10.00">doris::DeltaWriter</text>
<text text-anchor="middle" x="185.5" y="-7" font-family="Helvetica,sans-Serif" font-size="10.00">::write</text>
</a>
</g>
</g>
<!-- Node10&#45;&gt;Node12 -->
<g id="edge12" class="edge">
<title>Node10&#45;&gt;Node12</title>
<path fill="none" stroke="#63b8ff" d="M293.62,-30.72C273.4,-27.76 250.89,-24.45 231.75,-21.64"/>
<polygon fill="#63b8ff" stroke="#63b8ff" points="292.99,-34.17 303.39,-32.16 294.01,-27.24 292.99,-34.17"/>
</g>
<!-- Node13 -->
<g id="node13" class="node">
<title>Node13</title>
<g id="a_node13"><a xlink:href="../../d7/d75/classdoris_1_1_delta_writer.html#aa7065683048155a9e58725f5e39ca326" target="_top" xlink:title=" ">
<polygon fill="white" stroke="#666666" points="92,-30 0,-30 0,0 92,0 92,-30"/>
<text text-anchor="start" x="8" y="-18" font-family="Helvetica,sans-Serif" font-size="10.00">doris::DeltaWriter</text>
<text text-anchor="middle" x="46" y="-7" font-family="Helvetica,sans-Serif" font-size="10.00">::append</text>
</a>
</g>
</g>
<!-- Node12&#45;&gt;Node13 -->
<g id="edge13" class="edge">
<title>Node12&#45;&gt;Node13</title>
<path fill="none" stroke="#63b8ff" d="M127.94,-15C116.08,-15 103.73,-15 92.36,-15"/>
<polygon fill="#63b8ff" stroke="#63b8ff" points="127.58,-18.5 137.58,-15 127.58,-11.5 127.58,-18.5"/>
</g>
</g>
</svg>
        <g id="navigator" transform="translate(0 0)" fill="#404254">
                <rect fill="#f2f5e9" fill-opacity="0.5" stroke="#606060" stroke-width=".5" x="0" y="0" width="60" height="60"/>
                <use id="zoomplus" xlink:href="#zoomPlus" x="17" y="9" onmousedown="handleZoom(evt,'in')"/>
                <use id="zoomminus" xlink:href="#zoomMin" x="42" y="9" onmousedown="handleZoom(evt,'out')"/>
                <use id="reset" xlink:href="#resetDef" x="30" y="36" onmousedown="handleReset()"/>
                <g id="arrowUp" xlink:href="#dirArrow" transform="translate(30 24)" onmousedown="handlePan(0,-1)">
                  <use xlink:href="#rim" fill="#404040">
                        <set attributeName="fill" to="#808080" begin="arrowUp.mouseover" end="arrowUp.mouseout"/>
                  </use>
                  <path fill="none" stroke="white" stroke-width="1.5" d="M0,-3.0v7 M-2.5,-0.5L0,-3.0L2.5,-0.5"/>
                </g>
                <g id="arrowRight" xlink:href="#dirArrow" transform="rotate(90) translate(36 -43)" onmousedown="handlePan(1,0)">
                  <use xlink:href="#rim" fill="#404040">
                        <set attributeName="fill" to="#808080" begin="arrowRight.mouseover" end="arrowRight.mouseout"/>
                  </use>
                  <path fill="none" stroke="white" stroke-width="1.5" d="M0,-3.0v7 M-2.5,-0.5L0,-3.0L2.5,-0.5"/>
                </g>
                <g id="arrowDown" xlink:href="#dirArrow" transform="rotate(180) translate(-30 -48)" onmousedown="handlePan(0,1)">
                  <use xlink:href="#rim" fill="#404040">
                        <set attributeName="fill" to="#808080" begin="arrowDown.mouseover" end="arrowDown.mouseout"/>
                  </use>
                  <path fill="none" stroke="white" stroke-width="1.5" d="M0,-3.0v7 M-2.5,-0.5L0,-3.0L2.5,-0.5"/>
                </g>
                <g id="arrowLeft" xlink:href="#dirArrow" transform="rotate(270) translate(-36 17)" onmousedown="handlePan(-1,0)">
                  <use xlink:href="#rim" fill="#404040">
                        <set attributeName="fill" to="#808080" begin="arrowLeft.mouseover" end="arrowLeft.mouseout"/>
                  </use>
                  <path fill="none" stroke="white" stroke-width="1.5" d="M0,-3.0v7 M-2.5,-0.5L0,-3.0L2.5,-0.5"/>
                </g>
        </g>
        <svg viewBox="0 0 15 15" width="100%" height="30px" preserveAspectRatio="xMaxYMin meet">
         <g id="arrow_out" transform="scale(0.3 0.3)">
          <a xlink:href="classdoris_1_1_storage_engine_a473e9bbd11d024f7b90d2f90692134a5_icgraph_org.svg" target="_base">
           <rect id="button" ry="5" rx="5" y="6" x="6" height="38" width="38"
                fill="#f2f5e9" fill-opacity="0.5" stroke="#606060" stroke-width="1.0"/>
           <path id="arrow"
             d="M 11.500037,31.436501 C 11.940474,20.09759 22.043105,11.32322 32.158766,21.979434 L 37.068811,17.246167 C 37.068811,17.246167 37.088388,32 37.088388,32 L 22.160133,31.978069 C 22.160133,31.978069 26.997745,27.140456 26.997745,27.140456 C 18.528582,18.264221 13.291696,25.230495 11.500037,31.436501 z"
             style="fill:#404040;"/>
          </a>
         </g>
        </svg>
</svg>
