<?xml version="1.0" encoding="UTF-8" standalone="no"?>
<!DOCTYPE svg PUBLIC "-//W3C//DTD SVG 1.1//EN"
 "http://www.w3.org/Graphics/SVG/1.1/DTD/svg11.dtd">
<!-- Generated by graphviz version 7.1.0 (20230121.1956)
 -->
<!-- Title: _init_store_map Pages: 1 -->
<svg width="866pt" height="440pt"
 viewBox="0.00 0.00 866.00 439.77" xmlns="http://www.w3.org/2000/svg" xmlns:xlink="http://www.w3.org/1999/xlink">
<g id="graph0" class="graph" transform="scale(1 1) rotate(0) translate(4 435.77)">
<title>_init_store_map</title>
<!-- Node1 -->
<g id="node1" class="node">
<title>Node1</title>
<g id="a_node1"><a xlink:title=" ">
<polygon fill="#999999" stroke="#666666" points="86,-285.5 0,-285.5 0,-266.5 86,-266.5 86,-285.5"/>
<text text-anchor="middle" x="43" y="-273.5" font-family="Helvetica,sans-Serif" font-size="10.00">_init_store_map</text>
</a>
</g>
</g>
<!-- Node2 -->
<g id="node2" class="node">
<title>Node2</title>
<g id="a_node2"><a xlink:href="../../d2/df7/classdoris_1_1_data_dir.html#a223508714f7b7c2a338265d09a23a25f" target="_top" xlink:title=" ">
<polygon fill="white" stroke="#666666" points="228,-322.5 132,-322.5 132,-303.5 228,-303.5 228,-322.5"/>
<text text-anchor="middle" x="180" y="-310.5" font-family="Helvetica,sans-Serif" font-size="10.00">doris::DataDir::init</text>
</a>
</g>
</g>
<!-- Node1&#45;&gt;Node2 -->
<g id="edge1" class="edge">
<title>Node1&#45;&gt;Node2</title>
<path fill="none" stroke="#63b8ff" d="M80.18,-285.92C96.07,-290.27 114.93,-295.44 131.9,-300.09"/>
<polygon fill="#63b8ff" stroke="#63b8ff" points="130.69,-303.39 141.26,-302.66 132.54,-296.64 130.69,-303.39"/>
</g>
<!-- Node20 -->
<g id="node20" class="node">
<title>Node20</title>
<g id="a_node20"><a xlink:href="../../d2/df7/classdoris_1_1_data_dir.html#ab00e03d2eef5a496bd9c62006fcaf9e1" target="_top" xlink:title=" ">
<polygon fill="white" stroke="#666666" points="231,-285.5 129,-285.5 129,-266.5 231,-266.5 231,-285.5"/>
<text text-anchor="middle" x="180" y="-273.5" font-family="Helvetica,sans-Serif" font-size="10.00">doris::DataDir::path</text>
</a>
</g>
</g>
<!-- Node1&#45;&gt;Node20 -->
<g id="edge29" class="edge">
<title>Node1&#45;&gt;Node20</title>
<path fill="none" stroke="#63b8ff" d="M86.34,-276C96.23,-276 106.95,-276 117.47,-276"/>
<polygon fill="#63b8ff" stroke="#63b8ff" points="117.25,-279.5 127.25,-276 117.25,-272.5 117.25,-279.5"/>
</g>
<!-- Node21 -->
<g id="node21" class="node">
<title>Node21</title>
<g id="a_node21"><a xlink:href="../../d9/d8d/classdoris_1_1_status.html#aac993ecccd3d88aafefb6b8e3caa1dee" target="_top" xlink:title=" ">
<polygon fill="white" stroke="#666666" points="238,-248.5 122,-248.5 122,-229.5 238,-229.5 238,-248.5"/>
<text text-anchor="middle" x="180" y="-236.5" font-family="Helvetica,sans-Serif" font-size="10.00">doris::Status::to_string</text>
</a>
</g>
</g>
<!-- Node1&#45;&gt;Node21 -->
<g id="edge30" class="edge">
<title>Node1&#45;&gt;Node21</title>
<path fill="none" stroke="#63b8ff" d="M80.18,-266.08C96.07,-261.73 114.93,-256.56 131.9,-251.91"/>
<polygon fill="#63b8ff" stroke="#63b8ff" points="132.54,-255.36 141.26,-249.34 130.69,-248.61 132.54,-255.36"/>
</g>
<!-- Node3 -->
<g id="node3" class="node">
<title>Node3</title>
<g id="a_node3"><a xlink:href="../../d2/df7/classdoris_1_1_data_dir.html#a431d252f1a82235e716cd05e42626a29" target="_top" xlink:title=" ">
<polygon fill="white" stroke="#666666" points="552,-363.5 440,-363.5 440,-322.5 552,-322.5 552,-363.5"/>
<text text-anchor="start" x="448" y="-351.5" font-family="Helvetica,sans-Serif" font-size="10.00">doris::DataDir::_init</text>
<text text-anchor="start" x="448" y="-340.5" font-family="Helvetica,sans-Serif" font-size="10.00">_capacity_and_create</text>
<text text-anchor="middle" x="496" y="-329.5" font-family="Helvetica,sans-Serif" font-size="10.00">_shards</text>
</a>
</g>
</g>
<!-- Node2&#45;&gt;Node3 -->
<g id="edge2" class="edge">
<title>Node2&#45;&gt;Node3</title>
<path fill="none" stroke="#63b8ff" d="M228.35,-317.52C281.54,-322.61 368.28,-330.89 428.32,-336.63"/>
<polygon fill="#63b8ff" stroke="#63b8ff" points="427.78,-340.09 438.07,-337.56 428.45,-333.13 427.78,-340.09"/>
</g>
<!-- Node4 -->
<g id="node4" class="node">
<title>Node4</title>
<g id="a_node4"><a xlink:href="../../d4/d00/namespacedoris_1_1io.html#ae677fb4a94f6751e37e2a1941bba2f7f" target="_top" xlink:title=" ">
<polygon fill="white" stroke="#666666" points="706.5,-377 598.5,-377 598.5,-347 706.5,-347 706.5,-377"/>
<text text-anchor="start" x="606.5" y="-365" font-family="Helvetica,sans-Serif" font-size="10.00">doris::io::global_local</text>
<text text-anchor="middle" x="652.5" y="-354" font-family="Helvetica,sans-Serif" font-size="10.00">_filesystem</text>
</a>
</g>
</g>
<!-- Node2&#45;&gt;Node4 -->
<g id="edge22" class="edge">
<title>Node2&#45;&gt;Node4</title>
<path fill="none" stroke="#63b8ff" d="M193.56,-322.8C210.82,-335.85 243.24,-358.94 274,-373 343.07,-404.58 362.82,-410.22 438,-421 489.03,-428.31 506.23,-440.39 554,-421 574.68,-412.61 571.23,-398.07 590,-386 591.84,-384.81 593.75,-383.67 595.71,-382.57"/>
<polygon fill="#63b8ff" stroke="#63b8ff" points="597.13,-385.78 604.46,-378.12 593.96,-379.54 597.13,-385.78"/>
</g>
<!-- Node5 -->
<g id="node5" class="node">
<title>Node5</title>
<g id="a_node5"><a xlink:href="../../d9/d8d/classdoris_1_1_status.html#a6ec1a217f203269ab53d2290d602db24" target="_top" xlink:title=" ">
<polygon fill="white" stroke="#666666" points="698.5,-242.5 606.5,-242.5 606.5,-223.5 698.5,-223.5 698.5,-242.5"/>
<text text-anchor="middle" x="652.5" y="-230.5" font-family="Helvetica,sans-Serif" font-size="10.00">doris::Status::OK</text>
</a>
</g>
</g>
<!-- Node2&#45;&gt;Node5 -->
<g id="edge23" class="edge">
<title>Node2&#45;&gt;Node5</title>
<path fill="none" stroke="#63b8ff" d="M217.4,-303.03C224.43,-300.51 231.59,-297.5 238,-294 256.03,-284.15 255.15,-273.17 274,-265 380.21,-219 518.77,-221.12 595.02,-226.94"/>
<polygon fill="#63b8ff" stroke="#63b8ff" points="594.5,-230.41 604.75,-227.74 595.07,-223.43 594.5,-230.41"/>
</g>
<!-- Node7 -->
<g id="node7" class="node">
<title>Node7</title>
<g id="a_node7"><a xlink:href="../../d2/df7/classdoris_1_1_data_dir.html#a13882efadc8afca0ee018521f5e941ef" target="_top" xlink:title=" ">
<polygon fill="white" stroke="#666666" points="388.5,-304 287.5,-304 287.5,-274 388.5,-274 388.5,-304"/>
<text text-anchor="start" x="295.5" y="-292" font-family="Helvetica,sans-Serif" font-size="10.00">doris::DataDir::_init</text>
<text text-anchor="middle" x="338" y="-281" font-family="Helvetica,sans-Serif" font-size="10.00">_cluster_id</text>
</a>
</g>
</g>
<!-- Node2&#45;&gt;Node7 -->
<g id="edge6" class="edge">
<title>Node2&#45;&gt;Node7</title>
<path fill="none" stroke="#63b8ff" d="M228.23,-305.73C243.24,-303.42 260.06,-300.84 275.9,-298.4"/>
<polygon fill="#63b8ff" stroke="#63b8ff" points="276.38,-301.87 285.73,-296.89 275.31,-294.95 276.38,-301.87"/>
</g>
<!-- Node11 -->
<g id="node11" class="node">
<title>Node11</title>
<g id="a_node11"><a xlink:href="../../d2/df7/classdoris_1_1_data_dir.html#ae75b718e8d45df45897fb53348e1cf00" target="_top" xlink:title=" ">
<polygon fill="white" stroke="#666666" points="402,-123.5 274,-123.5 274,-104.5 402,-104.5 402,-123.5"/>
<text text-anchor="middle" x="338" y="-111.5" font-family="Helvetica,sans-Serif" font-size="10.00">doris::DataDir::_init_meta</text>
</a>
</g>
</g>
<!-- Node2&#45;&gt;Node11 -->
<g id="edge13" class="edge">
<title>Node2&#45;&gt;Node11</title>
<path fill="none" stroke="#63b8ff" d="M224.79,-303.11C229.64,-300.71 234.19,-297.72 238,-294 271.8,-261 251.09,-235.31 274,-194 286.9,-170.74 306.4,-147.18 320.29,-131.72"/>
<polygon fill="#63b8ff" stroke="#63b8ff" points="322.52,-134.46 326.7,-124.72 317.36,-129.73 322.52,-134.46"/>
</g>
<!-- Node17 -->
<g id="node17" class="node">
<title>Node17</title>
<g id="a_node17"><a xlink:href="../../d2/df7/classdoris_1_1_data_dir.html#ad3de8982359e752160a050c00c367bc9" target="_top" xlink:title=" ">
<polygon fill="white" stroke="#666666" points="552.5,-412 439.5,-412 439.5,-382 552.5,-382 552.5,-412"/>
<text text-anchor="start" x="447.5" y="-400" font-family="Helvetica,sans-Serif" font-size="10.00">doris::DataDir::update</text>
<text text-anchor="middle" x="496" y="-389" font-family="Helvetica,sans-Serif" font-size="10.00">_capacity</text>
</a>
</g>
</g>
<!-- Node2&#45;&gt;Node17 -->
<g id="edge24" class="edge">
<title>Node2&#45;&gt;Node17</title>
<path fill="none" stroke="#63b8ff" d="M211.44,-322.99C229.54,-328.8 252.99,-336.12 274,-342 325.49,-356.42 384.24,-370.95 428.23,-381.46"/>
<polygon fill="#63b8ff" stroke="#63b8ff" points="427.35,-384.84 437.89,-383.75 428.97,-378.03 427.35,-384.84"/>
</g>
<!-- Node3&#45;&gt;Node4 -->
<g id="edge3" class="edge">
<title>Node3&#45;&gt;Node4</title>
<path fill="none" stroke="#63b8ff" d="M552.34,-349.81C563.51,-351.18 575.35,-352.63 586.8,-354.04"/>
<polygon fill="#63b8ff" stroke="#63b8ff" points="586.24,-357.5 596.59,-355.25 587.1,-350.55 586.24,-357.5"/>
</g>
<!-- Node3&#45;&gt;Node5 -->
<g id="edge4" class="edge">
<title>Node3&#45;&gt;Node5</title>
<path fill="none" stroke="#63b8ff" d="M542.48,-322.14C546.6,-319.37 550.52,-316.32 554,-313 576.8,-291.29 565.3,-271.52 590,-252 591.88,-250.51 593.88,-249.14 595.97,-247.87"/>
<polygon fill="#63b8ff" stroke="#63b8ff" points="597.52,-251.01 604.86,-243.38 594.36,-244.77 597.52,-251.01"/>
</g>
<!-- Node6 -->
<g id="node6" class="node">
<title>Node6</title>
<g id="a_node6"><a xlink:href="../../d9/d8d/classdoris_1_1_status.html#aafde58df1b2a6a91d5b674373be3ffc5" target="_top" xlink:title=" ">
<polygon fill="white" stroke="#666666" points="858,-242.5 751,-242.5 751,-223.5 858,-223.5 858,-242.5"/>
<text text-anchor="middle" x="804.5" y="-230.5" font-family="Helvetica,sans-Serif" font-size="10.00">doris::Status::Status</text>
</a>
</g>
</g>
<!-- Node5&#45;&gt;Node6 -->
<g id="edge5" class="edge">
<title>Node5&#45;&gt;Node6</title>
<path fill="none" stroke="#63b8ff" d="M698.91,-233C711.64,-233 725.73,-233 739.33,-233"/>
<polygon fill="#63b8ff" stroke="#63b8ff" points="739.09,-236.5 749.09,-233 739.09,-229.5 739.09,-236.5"/>
</g>
<!-- Node7&#45;&gt;Node5 -->
<g id="edge7" class="edge">
<title>Node7&#45;&gt;Node5</title>
<path fill="none" stroke="#63b8ff" d="M388.92,-275.98C404.57,-272.15 421.95,-268.14 438,-265 490.9,-254.65 551.74,-245.83 594.91,-240.08"/>
<polygon fill="#63b8ff" stroke="#63b8ff" points="595.36,-243.56 604.82,-238.78 594.44,-236.62 595.36,-243.56"/>
</g>
<!-- Node8 -->
<g id="node8" class="node">
<title>Node8</title>
<g id="a_node8"><a xlink:href="../../d2/df7/classdoris_1_1_data_dir.html#adda807293bd2a3d961e3ade2a65a9878" target="_top" xlink:title=" ">
<polygon fill="white" stroke="#666666" points="547,-304 445,-304 445,-274 547,-274 547,-304"/>
<text text-anchor="start" x="453" y="-292" font-family="Helvetica,sans-Serif" font-size="10.00">doris::DataDir::read</text>
<text text-anchor="middle" x="496" y="-281" font-family="Helvetica,sans-Serif" font-size="10.00">_cluster_id</text>
</a>
</g>
</g>
<!-- Node7&#45;&gt;Node8 -->
<g id="edge8" class="edge">
<title>Node7&#45;&gt;Node8</title>
<path fill="none" stroke="#63b8ff" d="M388.79,-289C403,-289 418.65,-289 433.48,-289"/>
<polygon fill="#63b8ff" stroke="#63b8ff" points="433.1,-292.5 443.1,-289 433.1,-285.5 433.1,-292.5"/>
</g>
<!-- Node8&#45;&gt;Node4 -->
<g id="edge10" class="edge">
<title>Node8&#45;&gt;Node4</title>
<path fill="none" stroke="#63b8ff" d="M536.4,-304.43C542.38,-307.11 548.42,-310 554,-313 570.94,-322.11 573.01,-328 590,-337 593.21,-338.7 596.56,-340.36 599.97,-341.96"/>
<polygon fill="#63b8ff" stroke="#63b8ff" points="598.34,-345.07 608.9,-345.97 601.21,-338.68 598.34,-345.07"/>
</g>
<!-- Node8&#45;&gt;Node5 -->
<g id="edge11" class="edge">
<title>Node8&#45;&gt;Node5</title>
<path fill="none" stroke="#63b8ff" d="M533.86,-273.56C550.83,-266.65 571.32,-258.59 590,-252 595.39,-250.1 601.09,-248.2 606.75,-246.37"/>
<polygon fill="#63b8ff" stroke="#63b8ff" points="607.58,-249.78 616.06,-243.43 605.47,-243.1 607.58,-249.78"/>
</g>
<!-- Node9 -->
<g id="node9" class="node">
<title>Node9</title>
<g id="a_node9"><a xlink:href="../../d2/df7/classdoris_1_1_data_dir.html#a532e52f34a8ba7d86701b81c0583697d" target="_top" xlink:title=" ">
<polygon fill="white" stroke="#666666" points="715,-328.5 590,-328.5 590,-309.5 715,-309.5 715,-328.5"/>
<text text-anchor="middle" x="652.5" y="-316.5" font-family="Helvetica,sans-Serif" font-size="10.00">doris::DataDir::cluster_id</text>
</a>
</g>
</g>
<!-- Node8&#45;&gt;Node9 -->
<g id="edge9" class="edge">
<title>Node8&#45;&gt;Node9</title>
<path fill="none" stroke="#63b8ff" d="M547.16,-298.74C560.51,-301.33 575.1,-304.16 589.02,-306.87"/>
<polygon fill="#63b8ff" stroke="#63b8ff" points="588.03,-310.24 598.51,-308.71 589.36,-303.37 588.03,-310.24"/>
</g>
<!-- Node10 -->
<g id="node10" class="node">
<title>Node10</title>
<g id="a_node10"><a xlink:href="../../d4/d00/namespacedoris_1_1io.html#a57fd84bcf27e08fbc64825dd17c0d57a" target="_top" xlink:title=" ">
<polygon fill="white" stroke="#666666" points="699.5,-291 605.5,-291 605.5,-261 699.5,-261 699.5,-291"/>
<text text-anchor="start" x="613.5" y="-279" font-family="Helvetica,sans-Serif" font-size="10.00">doris::io::read_file</text>
<text text-anchor="middle" x="652.5" y="-268" font-family="Helvetica,sans-Serif" font-size="10.00">_to_string</text>
</a>
</g>
</g>
<!-- Node8&#45;&gt;Node10 -->
<g id="edge12" class="edge">
<title>Node8&#45;&gt;Node10</title>
<path fill="none" stroke="#63b8ff" d="M547.16,-284.78C562.05,-283.53 578.47,-282.15 593.79,-280.86"/>
<polygon fill="#63b8ff" stroke="#63b8ff" points="594.07,-284.34 603.74,-280.02 593.49,-277.37 594.07,-284.34"/>
</g>
<!-- Node11&#45;&gt;Node5 -->
<g id="edge20" class="edge">
<title>Node11&#45;&gt;Node5</title>
<path fill="none" stroke="#63b8ff" d="M366.23,-123.89C407.12,-138.8 486.75,-168.04 554,-194 574.8,-202.03 597.98,-211.29 616.52,-218.77"/>
<polygon fill="#63b8ff" stroke="#63b8ff" points="615.14,-221.99 625.72,-222.49 617.76,-215.5 615.14,-221.99"/>
</g>
<!-- Node12 -->
<g id="node12" class="node">
<title>Node12</title>
<g id="a_node12"><a xlink:href="../../db/d5f/classdoris_1_1_backend_options.html#a07e4505e62ab1e64490b48b117523422" target="_top" xlink:title=" ">
<polygon fill="white" stroke="#666666" points="554,-30 438,-30 438,0 554,0 554,-30"/>
<text text-anchor="start" x="446" y="-18" font-family="Helvetica,sans-Serif" font-size="10.00">doris::BackendOptions</text>
<text text-anchor="middle" x="496" y="-7" font-family="Helvetica,sans-Serif" font-size="10.00">::get_localhost</text>
</a>
</g>
</g>
<!-- Node11&#45;&gt;Node12 -->
<g id="edge14" class="edge">
<title>Node11&#45;&gt;Node12</title>
<path fill="none" stroke="#63b8ff" d="M349.93,-104.25C367.53,-88.9 403.64,-58.83 438,-39 440.15,-37.76 442.38,-36.54 444.66,-35.36"/>
<polygon fill="#63b8ff" stroke="#63b8ff" points="446.01,-38.6 453.47,-31.08 442.94,-32.3 446.01,-38.6"/>
</g>
<!-- Node13 -->
<g id="node13" class="node">
<title>Node13</title>
<g id="a_node13"><a xlink:href="../../d6/d94/namespacedoris.html#a2efe2a770ab0aab322ba552665b0e709" target="_top" xlink:title=" ">
<polygon fill="white" stroke="#666666" points="547,-104.5 445,-104.5 445,-85.5 547,-85.5 547,-104.5"/>
<text text-anchor="middle" x="496" y="-92.5" font-family="Helvetica,sans-Serif" font-size="10.00">doris::hash_of_path</text>
</a>
</g>
</g>
<!-- Node11&#45;&gt;Node13 -->
<g id="edge15" class="edge">
<title>Node11&#45;&gt;Node13</title>
<path fill="none" stroke="#63b8ff" d="M402.45,-106.27C412.63,-105.03 423.14,-103.75 433.27,-102.52"/>
<polygon fill="#63b8ff" stroke="#63b8ff" points="433.51,-106.02 443.01,-101.33 432.66,-99.07 433.51,-106.02"/>
</g>
<!-- Node15 -->
<g id="node15" class="node">
<title>Node15</title>
<g id="a_node15"><a xlink:href="../../db/d7a/classdoris_1_1_olap_meta.html#a223508714f7b7c2a338265d09a23a25f" target="_top" xlink:title=" ">
<polygon fill="white" stroke="#666666" points="548,-141.5 444,-141.5 444,-122.5 548,-122.5 548,-141.5"/>
<text text-anchor="middle" x="496" y="-129.5" font-family="Helvetica,sans-Serif" font-size="10.00">doris::OlapMeta::init</text>
</a>
</g>
</g>
<!-- Node11&#45;&gt;Node15 -->
<g id="edge18" class="edge">
<title>Node11&#45;&gt;Node15</title>
<path fill="none" stroke="#63b8ff" d="M402.45,-121.32C412.27,-122.45 422.41,-123.62 432.22,-124.76"/>
<polygon fill="#63b8ff" stroke="#63b8ff" points="431.7,-128.22 442.04,-125.89 432.51,-121.27 431.7,-128.22"/>
</g>
<!-- Node16 -->
<g id="node16" class="node">
<title>Node16</title>
<g id="a_node16"><a xlink:href="../../d9/d8d/classdoris_1_1_status.html#a03cb7eaa663dc83af68bc28a596d09e6" target="_top" xlink:title=" ">
<polygon fill="white" stroke="#666666" points="540.5,-67.5 451.5,-67.5 451.5,-48.5 540.5,-48.5 540.5,-67.5"/>
<text text-anchor="middle" x="496" y="-55.5" font-family="Helvetica,sans-Serif" font-size="10.00">doris::Status::ok</text>
</a>
</g>
</g>
<!-- Node11&#45;&gt;Node16 -->
<g id="edge21" class="edge">
<title>Node11&#45;&gt;Node16</title>
<path fill="none" stroke="#63b8ff" d="M363.66,-104.05C383.6,-96.13 412.45,-84.93 438,-76 442.41,-74.46 447.03,-72.9 451.65,-71.39"/>
<polygon fill="#63b8ff" stroke="#63b8ff" points="452.45,-74.81 460.89,-68.41 450.3,-68.14 452.45,-74.81"/>
</g>
<!-- Node14 -->
<g id="node14" class="node">
<title>Node14</title>
<g id="a_node14"><a xlink:href="../../df/dcb/namespacestrings.html#a8390ba830c1679e1c19a93a151425139" target="_top" xlink:title=" ">
<polygon fill="white" stroke="#666666" points="688,-104.5 617,-104.5 617,-85.5 688,-85.5 688,-104.5"/>
<text text-anchor="middle" x="652.5" y="-92.5" font-family="Helvetica,sans-Serif" font-size="10.00">strings::Split</text>
</a>
</g>
</g>
<!-- Node13&#45;&gt;Node14 -->
<g id="edge16" class="edge">
<title>Node13&#45;&gt;Node14</title>
<path fill="none" stroke="#63b8ff" d="M547.16,-95C565.9,-95 587.07,-95 605.42,-95"/>
<polygon fill="#63b8ff" stroke="#63b8ff" points="605.21,-98.5 615.21,-95 605.21,-91.5 605.21,-98.5"/>
</g>
<!-- Node14&#45;&gt;Node14 -->
<g id="edge17" class="edge">
<title>Node14&#45;&gt;Node14</title>
<path fill="none" stroke="#63b8ff" d="M628.7,-104.87C617.85,-113.44 625.78,-122.5 652.5,-122.5 667.11,-122.5 676.11,-119.79 679.48,-115.93"/>
<polygon fill="#63b8ff" stroke="#63b8ff" points="682.84,-114.96 676.71,-106.32 676.12,-116.9 682.84,-114.96"/>
</g>
<!-- Node15&#45;&gt;Node5 -->
<g id="edge19" class="edge">
<title>Node15&#45;&gt;Node5</title>
<path fill="none" stroke="#63b8ff" d="M524.69,-141.91C534.25,-145.78 544.85,-150.59 554,-156 583.39,-173.36 613.71,-198.68 632.57,-215.49"/>
<polygon fill="#63b8ff" stroke="#63b8ff" points="630.2,-218.07 639.97,-222.18 634.9,-212.88 630.2,-218.07"/>
</g>
<!-- Node17&#45;&gt;Node4 -->
<g id="edge25" class="edge">
<title>Node17&#45;&gt;Node4</title>
<path fill="none" stroke="#63b8ff" d="M552.78,-384.36C563.86,-381.85 575.59,-379.2 586.94,-376.63"/>
<polygon fill="#63b8ff" stroke="#63b8ff" points="587.67,-380.05 596.65,-374.43 586.12,-373.22 587.67,-380.05"/>
</g>
<!-- Node17&#45;&gt;Node5 -->
<g id="edge26" class="edge">
<title>Node17&#45;&gt;Node5</title>
<path fill="none" stroke="#63b8ff" d="M542.49,-381.65C546.76,-378.91 550.71,-375.72 554,-372 590.9,-330.3 550.79,-291.53 590,-252 591.93,-250.06 594.04,-248.31 596.3,-246.75"/>
<polygon fill="#63b8ff" stroke="#63b8ff" points="597.85,-249.89 604.91,-241.99 594.46,-243.77 597.85,-249.89"/>
</g>
<!-- Node18 -->
<g id="node18" class="node">
<title>Node18</title>
<g id="a_node18"><a xlink:href="../../db/de2/classdoris_1_1_atomic_metric.html#aaec56faa8dfb1f0834da74de68cfbeed" target="_top" xlink:title=" ">
<polygon fill="white" stroke="#666666" points="703,-425 602,-425 602,-395 703,-395 703,-425"/>
<text text-anchor="start" x="610" y="-413" font-family="Helvetica,sans-Serif" font-size="10.00">doris::AtomicMetric</text>
<text text-anchor="middle" x="652.5" y="-402" font-family="Helvetica,sans-Serif" font-size="10.00">::set_value</text>
</a>
</g>
</g>
<!-- Node17&#45;&gt;Node18 -->
<g id="edge27" class="edge">
<title>Node17&#45;&gt;Node18</title>
<path fill="none" stroke="#63b8ff" d="M552.78,-401.69C565.02,-402.72 578.05,-403.82 590.48,-404.87"/>
<polygon fill="#63b8ff" stroke="#63b8ff" points="589.93,-408.33 600.19,-405.68 590.52,-401.36 589.93,-408.33"/>
</g>
<!-- Node19 -->
<g id="node19" class="node">
<title>Node19</title>
<g id="a_node19"><a xlink:href="../../db/de2/classdoris_1_1_atomic_metric.html#abcb6b42a914ed14eff8c75f623ca692a" target="_top" xlink:title=" ">
<polygon fill="white" stroke="#666666" points="855,-425 754,-425 754,-395 855,-395 855,-425"/>
<text text-anchor="start" x="762" y="-413" font-family="Helvetica,sans-Serif" font-size="10.00">doris::AtomicMetric</text>
<text text-anchor="middle" x="804.5" y="-402" font-family="Helvetica,sans-Serif" font-size="10.00">::value</text>
</a>
</g>
</g>
<!-- Node18&#45;&gt;Node19 -->
<g id="edge28" class="edge">
<title>Node18&#45;&gt;Node19</title>
<path fill="none" stroke="#63b8ff" d="M703.45,-410C715.91,-410 729.41,-410 742.34,-410"/>
<polygon fill="#63b8ff" stroke="#63b8ff" points="742,-413.5 752,-410 742,-406.5 742,-413.5"/>
</g>
</g>
</svg>
