<?xml version="1.0" encoding="UTF-8" standalone="no"?>
<!DOCTYPE svg PUBLIC "-//W3C//DTD SVG 1.1//EN"
 "http://www.w3.org/Graphics/SVG/1.1/DTD/svg11.dtd">
<!-- Generated by graphviz version 7.1.0 (20230121.1956)
 -->
<!-- Title: Google1At Pages: 1 -->
<svg width="999pt" height="473pt"
 viewBox="0.00 0.00 999.00 473.00" xmlns="http://www.w3.org/2000/svg" xmlns:xlink="http://www.w3.org/1999/xlink">
<g id="graph0" class="graph" transform="scale(1 1) rotate(0) translate(4 469)">
<title>Google1At</title>
<!-- Node1 -->
<g id="node1" class="node">
<title>Node1</title>
<g id="a_node1"><a xlink:title=" ">
<polygon fill="#999999" stroke="#666666" points="991,-293.5 929,-293.5 929,-274.5 991,-274.5 991,-293.5"/>
<text text-anchor="middle" x="960" y="-281.5" font-family="Helvetica,sans-Serif" font-size="10.00">Google1At</text>
</a>
</g>
</g>
<!-- Node2 -->
<g id="node2" class="node">
<title>Node2</title>
<g id="a_node2"><a xlink:href="../../dd/d3d/hash_8cc.html#a1051076228ffb7710e52d1562bba6c13" target="_top" xlink:title=" ">
<polygon fill="white" stroke="#666666" points="893,-373.5 716,-373.5 716,-354.5 893,-354.5 893,-373.5"/>
<text text-anchor="middle" x="804.5" y="-361.5" font-family="Helvetica,sans-Serif" font-size="10.00">FingerprintInterleavedImplementation</text>
</a>
</g>
</g>
<!-- Node1&#45;&gt;Node2 -->
<g id="edge1" class="edge">
<title>Node1&#45;&gt;Node2</title>
<path fill="none" stroke="#63b8ff" d="M929.68,-299.28C898.68,-315.44 850.71,-340.44 824.39,-354.16"/>
<polygon fill="#63b8ff" stroke="#63b8ff" points="931.28,-302.4 938.53,-294.67 928.04,-296.19 931.28,-302.4"/>
</g>
<!-- Node9 -->
<g id="node9" class="node">
<title>Node9</title>
<g id="a_node9"><a xlink:href="../../dd/d08/jenkins_8cc.html#acdc62f6ffbf1ae3613e12eb15e7516c0" target="_top" xlink:title=" ">
<polygon fill="white" stroke="#666666" points="864,-293.5 745,-293.5 745,-274.5 864,-274.5 864,-293.5"/>
<text text-anchor="middle" x="804.5" y="-281.5" font-family="Helvetica,sans-Serif" font-size="10.00">Hash32StringWithSeed</text>
</a>
</g>
</g>
<!-- Node1&#45;&gt;Node9 -->
<g id="edge8" class="edge">
<title>Node1&#45;&gt;Node9</title>
<path fill="none" stroke="#63b8ff" d="M917.33,-284C901.02,-284 882.02,-284 864.36,-284"/>
<polygon fill="#63b8ff" stroke="#63b8ff" points="917.16,-287.5 927.16,-284 917.16,-280.5 917.16,-287.5"/>
</g>
<!-- Node20 -->
<g id="node20" class="node">
<title>Node20</title>
<g id="a_node20"><a xlink:href="../../dd/d08/jenkins_8cc.html#ab8eebc6cc9972b39eff9ddb3f5bed137" target="_top" xlink:title=" ">
<polygon fill="white" stroke="#666666" points="886.5,-256 722.5,-256 722.5,-226 886.5,-226 886.5,-256"/>
<text text-anchor="start" x="730.5" y="-244" font-family="Helvetica,sans-Serif" font-size="10.00">Hash32StringWithSeedReference</text>
<text text-anchor="middle" x="804.5" y="-233" font-family="Helvetica,sans-Serif" font-size="10.00">Implementation</text>
</a>
</g>
</g>
<!-- Node1&#45;&gt;Node20 -->
<g id="edge20" class="edge">
<title>Node1&#45;&gt;Node20</title>
<path fill="none" stroke="#63b8ff" d="M917.66,-272.42C900.12,-267.51 879.42,-261.71 860.62,-256.44"/>
<polygon fill="#63b8ff" stroke="#63b8ff" points="916.64,-275.77 927.22,-275.1 918.53,-269.03 916.64,-275.77"/>
</g>
<!-- Node3 -->
<g id="node3" class="node">
<title>Node3</title>
<g id="a_node3"><a xlink:href="../../df/df1/gutil_2hash_2hash_8h.html#acfede151b71ea59fd572f307446f9aec" target="_top" xlink:title=" ">
<polygon fill="white" stroke="#666666" points="430,-411.5 368,-411.5 368,-392.5 430,-392.5 430,-411.5"/>
<text text-anchor="middle" x="399" y="-399.5" font-family="Helvetica,sans-Serif" font-size="10.00">Fingerprint</text>
</a>
</g>
</g>
<!-- Node2&#45;&gt;Node3 -->
<g id="edge2" class="edge">
<title>Node2&#45;&gt;Node3</title>
<path fill="none" stroke="#63b8ff" d="M704.63,-373.31C614.79,-381.77 487.79,-393.73 430.33,-399.14"/>
<polygon fill="#63b8ff" stroke="#63b8ff" points="704.81,-376.81 714.44,-372.39 704.16,-369.84 704.81,-376.81"/>
</g>
<!-- Node4 -->
<g id="node4" class="node">
<title>Node4</title>
<g id="a_node4"><a xlink:href="../../d3/dd9/classdoris_1_1io_1_1_hdfs_file_system_cache.html#a2f1d7e67739ad9dce2d783263f832f48" target="_top" xlink:title=" ">
<polygon fill="white" stroke="#666666" points="292,-465 164,-465 164,-435 292,-435 292,-465"/>
<text text-anchor="start" x="172" y="-453" font-family="Helvetica,sans-Serif" font-size="10.00">doris::io::HdfsFileSystem</text>
<text text-anchor="middle" x="228" y="-442" font-family="Helvetica,sans-Serif" font-size="10.00">Cache::_hdfs_hash_code</text>
</a>
</g>
</g>
<!-- Node3&#45;&gt;Node4 -->
<g id="edge3" class="edge">
<title>Node3&#45;&gt;Node4</title>
<path fill="none" stroke="#63b8ff" d="M356.8,-413.7C334.76,-419.96 307.33,-427.75 283.54,-434.51"/>
<polygon fill="#63b8ff" stroke="#63b8ff" points="357.67,-417.09 366.33,-410.99 355.75,-410.36 357.67,-417.09"/>
</g>
<!-- Node6 -->
<g id="node6" class="node">
<title>Node6</title>
<g id="a_node6"><a xlink:href="../../dc/d32/classdoris_1_1_hdfs_fs_cache.html#a93db0d52f07c7e8d0add51aaf8cce077" target="_top" xlink:title=" ">
<polygon fill="white" stroke="#666666" points="280,-417 176,-417 176,-387 280,-387 280,-417"/>
<text text-anchor="start" x="184" y="-405" font-family="Helvetica,sans-Serif" font-size="10.00">doris::HdfsFsCache</text>
<text text-anchor="middle" x="228" y="-394" font-family="Helvetica,sans-Serif" font-size="10.00">::_hdfs_hash_code</text>
</a>
</g>
</g>
<!-- Node3&#45;&gt;Node6 -->
<g id="edge5" class="edge">
<title>Node3&#45;&gt;Node6</title>
<path fill="none" stroke="#63b8ff" d="M356.38,-402C333.46,-402 304.82,-402 280.5,-402"/>
<polygon fill="#63b8ff" stroke="#63b8ff" points="356.27,-405.5 366.27,-402 356.27,-398.5 356.27,-405.5"/>
</g>
<!-- Node8 -->
<g id="node8" class="node">
<title>Node8</title>
<g id="a_node8"><a xlink:href="../../df/df1/gutil_2hash_2hash_8h.html#af05397d4cdbe96a75e5c90969b4c3c18" target="_top" xlink:title=" ">
<polygon fill="white" stroke="#666666" points="259,-368.5 197,-368.5 197,-349.5 259,-349.5 259,-368.5"/>
<text text-anchor="middle" x="228" y="-356.5" font-family="Helvetica,sans-Serif" font-size="10.00">Fingerprint</text>
</a>
</g>
</g>
<!-- Node3&#45;&gt;Node8 -->
<g id="edge7" class="edge">
<title>Node3&#45;&gt;Node8</title>
<path fill="none" stroke="#63b8ff" d="M356.78,-391.51C326.64,-383.84 286.44,-373.61 259.24,-366.69"/>
<polygon fill="#63b8ff" stroke="#63b8ff" points="355.77,-394.87 366.32,-393.94 357.49,-388.08 355.77,-394.87"/>
</g>
<!-- Node5 -->
<g id="node5" class="node">
<title>Node5</title>
<g id="a_node5"><a xlink:href="../../d3/dd9/classdoris_1_1io_1_1_hdfs_file_system_cache.html#a21ca7278d5f36723cdcc6a70de5e096e" target="_top" xlink:title=" ">
<polygon fill="white" stroke="#666666" points="128,-465 0,-465 0,-435 128,-435 128,-465"/>
<text text-anchor="start" x="8" y="-453" font-family="Helvetica,sans-Serif" font-size="10.00">doris::io::HdfsFileSystem</text>
<text text-anchor="middle" x="64" y="-442" font-family="Helvetica,sans-Serif" font-size="10.00">Cache::get_connection</text>
</a>
</g>
</g>
<!-- Node4&#45;&gt;Node5 -->
<g id="edge4" class="edge">
<title>Node4&#45;&gt;Node5</title>
<path fill="none" stroke="#63b8ff" d="M152.59,-450C144.53,-450 136.38,-450 128.46,-450"/>
<polygon fill="#63b8ff" stroke="#63b8ff" points="152.39,-453.5 162.39,-450 152.39,-446.5 152.39,-453.5"/>
</g>
<!-- Node7 -->
<g id="node7" class="node">
<title>Node7</title>
<g id="a_node7"><a xlink:href="../../dc/d32/classdoris_1_1_hdfs_fs_cache.html#a438c5038c7f49f98eb856894d8a9d10d" target="_top" xlink:title=" ">
<polygon fill="white" stroke="#666666" points="116,-417 12,-417 12,-387 116,-387 116,-417"/>
<text text-anchor="start" x="20" y="-405" font-family="Helvetica,sans-Serif" font-size="10.00">doris::HdfsFsCache</text>
<text text-anchor="middle" x="64" y="-394" font-family="Helvetica,sans-Serif" font-size="10.00">::get_connection</text>
</a>
</g>
</g>
<!-- Node6&#45;&gt;Node7 -->
<g id="edge6" class="edge">
<title>Node6&#45;&gt;Node7</title>
<path fill="none" stroke="#63b8ff" d="M164.41,-402C148.56,-402 131.71,-402 116.48,-402"/>
<polygon fill="#63b8ff" stroke="#63b8ff" points="164.23,-405.5 174.23,-402 164.23,-398.5 164.23,-405.5"/>
</g>
<!-- Node10 -->
<g id="node10" class="node">
<title>Node10</title>
<g id="a_node10"><a xlink:href="../../dd/d3d/hash_8cc.html#a1d43d5706a0f29bf4fa96901f43555f7" target="_top" xlink:title=" ">
<polygon fill="white" stroke="#666666" points="680,-341.5 506,-341.5 506,-322.5 680,-322.5 680,-341.5"/>
<text text-anchor="middle" x="593" y="-329.5" font-family="Helvetica,sans-Serif" font-size="10.00">FingerprintReferenceImplementation</text>
</a>
</g>
</g>
<!-- Node9&#45;&gt;Node10 -->
<g id="edge9" class="edge">
<title>Node9&#45;&gt;Node10</title>
<path fill="none" stroke="#63b8ff" d="M749.16,-296.45C714.35,-304.43 669.78,-314.64 637.35,-322.07"/>
<polygon fill="#63b8ff" stroke="#63b8ff" points="749.65,-299.93 758.62,-294.28 748.09,-293.11 749.65,-299.93"/>
</g>
<!-- Node11 -->
<g id="node11" class="node">
<title>Node11</title>
<g id="a_node11"><a xlink:href="../../de/d50/string__hash_8h.html#aecac3bad837de66ece785932ccea778d" target="_top" xlink:title=" ">
<polygon fill="white" stroke="#666666" points="649.5,-272.5 536.5,-272.5 536.5,-253.5 649.5,-253.5 649.5,-272.5"/>
<text text-anchor="middle" x="593" y="-260.5" font-family="Helvetica,sans-Serif" font-size="10.00">HashStringThoroughly</text>
</a>
</g>
</g>
<!-- Node9&#45;&gt;Node11 -->
<g id="edge11" class="edge">
<title>Node9&#45;&gt;Node11</title>
<path fill="none" stroke="#63b8ff" d="M733.2,-276.95C706.1,-274.24 675.53,-271.17 649.95,-268.61"/>
<polygon fill="#63b8ff" stroke="#63b8ff" points="732.78,-280.43 743.08,-277.94 733.48,-273.46 732.78,-280.43"/>
</g>
<!-- Node19 -->
<g id="node19" class="node">
<title>Node19</title>
<g id="a_node19"><a xlink:href="../../de/d50/string__hash_8h.html#af20f9b6b83f304e1d761177599fe81ce" target="_top" xlink:title=" ">
<polygon fill="white" stroke="#666666" points="671,-235.5 515,-235.5 515,-216.5 671,-216.5 671,-235.5"/>
<text text-anchor="middle" x="593" y="-223.5" font-family="Helvetica,sans-Serif" font-size="10.00">HashStringThoroughlyWithSeed</text>
</a>
</g>
</g>
<!-- Node9&#45;&gt;Node19 -->
<g id="edge19" class="edge">
<title>Node9&#45;&gt;Node19</title>
<path fill="none" stroke="#63b8ff" d="M734.93,-271.15C728.46,-269.33 722.06,-267.28 716,-265 698.87,-258.54 697.12,-251.49 680,-245 670.56,-241.42 660.28,-238.43 650.2,-235.95"/>
<polygon fill="#63b8ff" stroke="#63b8ff" points="733.82,-274.47 744.38,-273.62 735.6,-267.7 733.82,-274.47"/>
</g>
<!-- Node10&#45;&gt;Node3 -->
<g id="edge10" class="edge">
<title>Node10&#45;&gt;Node3</title>
<path fill="none" stroke="#63b8ff" d="M560.31,-346.59C535.94,-357.49 501.26,-372.28 470,-383 457.14,-387.41 442.67,-391.48 430.24,-394.72"/>
<polygon fill="#63b8ff" stroke="#63b8ff" points="561.68,-349.82 569.35,-342.52 558.8,-343.44 561.68,-349.82"/>
</g>
<!-- Node12 -->
<g id="node12" class="node">
<title>Node12</title>
<g id="a_node12"><a xlink:href="../../de/d50/string__hash_8h.html#a00fb1addd7b98129f142bc53bf55f5c6" target="_top" xlink:title=" ">
<polygon fill="white" stroke="#666666" points="466,-374 332,-374 332,-344 466,-344 466,-374"/>
<text text-anchor="start" x="340" y="-362" font-family="Helvetica,sans-Serif" font-size="10.00">HashStringThoroughlyWith</text>
<text text-anchor="middle" x="399" y="-351" font-family="Helvetica,sans-Serif" font-size="10.00">Seeds</text>
</a>
</g>
</g>
<!-- Node11&#45;&gt;Node12 -->
<g id="edge12" class="edge">
<title>Node11&#45;&gt;Node12</title>
<path fill="none" stroke="#63b8ff" d="M565.58,-278.68C530.45,-299.52 472.48,-333.86 470,-335 463.35,-338.06 456.19,-340.95 449.08,-343.59"/>
<polygon fill="#63b8ff" stroke="#63b8ff" points="567.12,-281.84 573.93,-273.72 563.55,-275.82 567.12,-281.84"/>
</g>
<!-- Node13 -->
<g id="node13" class="node">
<title>Node13</title>
<g id="a_node13"><a xlink:href="../../d9/da3/struct_good_fast_hash_3_01char_01_5_01_4.html#a9181015e5df3a8742a52c7e76920d221" target="_top" xlink:title=" ">
<polygon fill="white" stroke="#666666" points="454,-326 344,-326 344,-296 454,-296 454,-326"/>
<text text-anchor="start" x="352" y="-314" font-family="Helvetica,sans-Serif" font-size="10.00">GoodFastHash&lt; char</text>
<text text-anchor="middle" x="399" y="-303" font-family="Helvetica,sans-Serif" font-size="10.00"> * &gt;::operator()</text>
</a>
</g>
</g>
<!-- Node11&#45;&gt;Node13 -->
<g id="edge13" class="edge">
<title>Node11&#45;&gt;Node13</title>
<path fill="none" stroke="#63b8ff" d="M541.15,-275.71C514.38,-282.4 481.55,-290.61 454.29,-297.43"/>
<polygon fill="#63b8ff" stroke="#63b8ff" points="541.9,-279.13 550.75,-273.31 540.2,-272.34 541.9,-279.13"/>
</g>
<!-- Node14 -->
<g id="node14" class="node">
<title>Node14</title>
<g id="a_node14"><a xlink:href="../../d0/d57/struct_good_fast_hash_3_01const_01char_01_5_01_4.html#a9181015e5df3a8742a52c7e76920d221" target="_top" xlink:title=" ">
<polygon fill="white" stroke="#666666" points="457,-278 341,-278 341,-248 457,-248 457,-278"/>
<text text-anchor="start" x="349" y="-266" font-family="Helvetica,sans-Serif" font-size="10.00">GoodFastHash&lt; const</text>
<text text-anchor="middle" x="399" y="-255" font-family="Helvetica,sans-Serif" font-size="10.00"> char * &gt;::operator()</text>
</a>
</g>
</g>
<!-- Node11&#45;&gt;Node14 -->
<g id="edge14" class="edge">
<title>Node11&#45;&gt;Node14</title>
<path fill="none" stroke="#63b8ff" d="M524.9,-263C502.84,-263 478.53,-263 457.27,-263"/>
<polygon fill="#63b8ff" stroke="#63b8ff" points="524.69,-266.5 534.69,-263 524.69,-259.5 524.69,-266.5"/>
</g>
<!-- Node15 -->
<g id="node15" class="node">
<title>Node15</title>
<g id="a_node15"><a xlink:href="../../db/dc8/structdoris_1_1segment__v2_1_1_binary_dict_page_builder_1_1_hash_of_slice.html#acb649709947ec43f67feceeca14dfda1" target="_top" xlink:title=" ">
<polygon fill="white" stroke="#666666" points="461.5,-229.5 336.5,-229.5 336.5,-188.5 461.5,-188.5 461.5,-229.5"/>
<text text-anchor="start" x="344.5" y="-217.5" font-family="Helvetica,sans-Serif" font-size="10.00">doris::segment_v2::</text>
<text text-anchor="start" x="344.5" y="-206.5" font-family="Helvetica,sans-Serif" font-size="10.00">BinaryDictPageBuilder</text>
<text text-anchor="middle" x="399" y="-195.5" font-family="Helvetica,sans-Serif" font-size="10.00">::HashOfSlice::operator()</text>
</a>
</g>
</g>
<!-- Node11&#45;&gt;Node15 -->
<g id="edge15" class="edge">
<title>Node11&#45;&gt;Node15</title>
<path fill="none" stroke="#63b8ff" d="M528.41,-250.6C520.83,-248.85 513.22,-246.97 506,-245 490.16,-240.67 473.23,-235.28 457.65,-229.99"/>
<polygon fill="#63b8ff" stroke="#63b8ff" points="527.46,-253.97 537.98,-252.73 528.98,-247.14 527.46,-253.97"/>
</g>
<!-- Node16 -->
<g id="node16" class="node">
<title>Node16</title>
<g id="a_node16"><a xlink:href="../../d3/df0/struct_good_fast_hash_3_01std_1_1basic__string_3_01___char_t_00_01___traits_00_01___alloc_01_4_01_4.html#a657ad842eccd2d301eebcf27cf127f99" target="_top" xlink:title=" ">
<polygon fill="white" stroke="#666666" points="455,-170 343,-170 343,-118 455,-118 455,-170"/>
<text text-anchor="start" x="351" y="-158" font-family="Helvetica,sans-Serif" font-size="10.00">GoodFastHash&lt; std::</text>
<text text-anchor="start" x="351" y="-147" font-family="Helvetica,sans-Serif" font-size="10.00">basic_string&lt; _CharT,</text>
<text text-anchor="start" x="351" y="-136" font-family="Helvetica,sans-Serif" font-size="10.00"> _Traits, _Alloc &gt; &gt;</text>
<text text-anchor="middle" x="399" y="-125" font-family="Helvetica,sans-Serif" font-size="10.00">::operator()</text>
</a>
</g>
</g>
<!-- Node11&#45;&gt;Node16 -->
<g id="edge16" class="edge">
<title>Node11&#45;&gt;Node16</title>
<path fill="none" stroke="#63b8ff" d="M525.77,-255.33C518.7,-252.75 511.94,-249.38 506,-245 479.43,-225.39 493.71,-202.99 470,-180 465.59,-175.72 460.56,-171.83 455.27,-168.33"/>
<polygon fill="#63b8ff" stroke="#63b8ff" points="524.24,-258.52 534.83,-258.13 526.31,-251.83 524.24,-258.52"/>
</g>
<!-- Node17 -->
<g id="node17" class="node">
<title>Node17</title>
<g id="a_node17"><a xlink:href="../../d7/d6b/struct_good_fast_hash_3_01const_01std_1_1basic__string_3_01___char_t_00_01___traits_00_01___alloc_01_4_01_4.html#a657ad842eccd2d301eebcf27cf127f99" target="_top" xlink:title=" ">
<polygon fill="white" stroke="#666666" points="458.5,-100 339.5,-100 339.5,-48 458.5,-48 458.5,-100"/>
<text text-anchor="start" x="347.5" y="-88" font-family="Helvetica,sans-Serif" font-size="10.00">GoodFastHash&lt; const</text>
<text text-anchor="start" x="347.5" y="-77" font-family="Helvetica,sans-Serif" font-size="10.00"> std::basic_string&lt;</text>
<text text-anchor="start" x="347.5" y="-66" font-family="Helvetica,sans-Serif" font-size="10.00"> _CharT, _Traits, _Alloc</text>
<text text-anchor="middle" x="399" y="-55" font-family="Helvetica,sans-Serif" font-size="10.00"> &gt; &gt;::operator()</text>
</a>
</g>
</g>
<!-- Node11&#45;&gt;Node17 -->
<g id="edge17" class="edge">
<title>Node11&#45;&gt;Node17</title>
<path fill="none" stroke="#63b8ff" d="M525.48,-257.06C518.29,-254.2 511.58,-250.29 506,-245 460.64,-201.96 509.46,-157.5 470,-109 466.74,-104.99 462.91,-101.41 458.74,-98.2"/>
<polygon fill="#63b8ff" stroke="#63b8ff" points="524.23,-260.33 534.82,-260.07 526.38,-253.67 524.23,-260.33"/>
</g>
<!-- Node18 -->
<g id="node18" class="node">
<title>Node18</title>
<g id="a_node18"><a xlink:href="../../d6/d63/struct_good_fast_hash_3_01_string_piece_01_4.html#a52359051356fa916c51ff2a5be8e8983" target="_top" xlink:title=" ">
<polygon fill="white" stroke="#666666" points="470,-30 328,-30 328,0 470,0 470,-30"/>
<text text-anchor="start" x="336" y="-18" font-family="Helvetica,sans-Serif" font-size="10.00">GoodFastHash&lt; StringPiece</text>
<text text-anchor="middle" x="399" y="-7" font-family="Helvetica,sans-Serif" font-size="10.00"> &gt;::operator()</text>
</a>
</g>
</g>
<!-- Node11&#45;&gt;Node18 -->
<g id="edge18" class="edge">
<title>Node11&#45;&gt;Node18</title>
<path fill="none" stroke="#63b8ff" d="M525.31,-257.63C518.09,-254.68 511.42,-250.6 506,-245 441.38,-178.19 530.35,-109.68 470,-39 467.16,-35.68 463.85,-32.82 460.22,-30.35"/>
<polygon fill="#63b8ff" stroke="#63b8ff" points="524.16,-260.93 534.75,-260.71 526.33,-254.28 524.16,-260.93"/>
</g>
</g>
</svg>
