<?xml version="1.0" encoding="UTF-8" standalone="no"?>
<!DOCTYPE svg PUBLIC "-//W3C//DTD SVG 1.1//EN"
 "http://www.w3.org/Graphics/SVG/1.1/DTD/svg11.dtd">
<!-- Generated by graphviz version 7.1.0 (20230121.1956)
 -->
<!-- Title: _init_once_action Pages: 1 -->
<svg width="441pt" height="365pt"
 viewBox="0.00 0.00 441.00 364.50" xmlns="http://www.w3.org/2000/svg" xmlns:xlink="http://www.w3.org/1999/xlink">
<g id="graph0" class="graph" transform="scale(1 1) rotate(0) translate(4 360.5)">
<title>_init_once_action</title>
<!-- Node1 -->
<g id="node1" class="node">
<title>Node1</title>
<g id="a_node1"><a xlink:title=" ">
<polygon fill="#999999" stroke="#666666" points="92,-173.5 0,-173.5 0,-154.5 92,-154.5 92,-173.5"/>
<text text-anchor="middle" x="46" y="-161.5" font-family="Helvetica,sans-Serif" font-size="10.00">_init_once_action</text>
</a>
</g>
</g>
<!-- Node2 -->
<g id="node2" class="node">
<title>Node2</title>
<g id="a_node2"><a xlink:href="../../d7/d0f/classdoris_1_1_cumulative_compaction_policy_factory.html#afa0a72f30456b873d4b9f9cd34d7d730" target="_top" xlink:title=" ">
<polygon fill="white" stroke="#666666" points="290,-356.5 128,-356.5 128,-315.5 290,-315.5 290,-356.5"/>
<text text-anchor="start" x="136" y="-344.5" font-family="Helvetica,sans-Serif" font-size="10.00">doris::CumulativeCompaction</text>
<text text-anchor="start" x="136" y="-333.5" font-family="Helvetica,sans-Serif" font-size="10.00">PolicyFactory::create_cumulative</text>
<text text-anchor="middle" x="209" y="-322.5" font-family="Helvetica,sans-Serif" font-size="10.00">_compaction_policy</text>
</a>
</g>
</g>
<!-- Node1&#45;&gt;Node2 -->
<g id="edge1" class="edge">
<title>Node1&#45;&gt;Node2</title>
<path fill="none" stroke="#63b8ff" d="M49.97,-173.8C58.17,-199.24 83.49,-268.09 128,-306 129.11,-306.95 130.26,-307.87 131.43,-308.76"/>
<polygon fill="#63b8ff" stroke="#63b8ff" points="129.39,-311.6 139.65,-314.22 133.26,-305.77 129.39,-311.6"/>
</g>
<!-- Node3 -->
<g id="node3" class="node">
<title>Node3</title>
<g id="a_node3"><a xlink:href="../../d5/d8a/classdoris_1_1_rowset_factory.html#aa7364434ffd7793def401e86c3412e7b" target="_top" xlink:title=" ">
<polygon fill="white" stroke="#666666" points="264,-297 154,-297 154,-267 264,-267 264,-297"/>
<text text-anchor="start" x="162" y="-285" font-family="Helvetica,sans-Serif" font-size="10.00">doris::RowsetFactory</text>
<text text-anchor="middle" x="209" y="-274" font-family="Helvetica,sans-Serif" font-size="10.00">::create_rowset</text>
</a>
</g>
</g>
<!-- Node1&#45;&gt;Node3 -->
<g id="edge2" class="edge">
<title>Node1&#45;&gt;Node3</title>
<path fill="none" stroke="#63b8ff" d="M52.78,-173.87C64.5,-193 92.94,-235.25 128,-258 132.74,-261.08 137.9,-263.77 143.23,-266.14"/>
<polygon fill="#63b8ff" stroke="#63b8ff" points="141.65,-269.27 152.23,-269.71 144.23,-262.77 141.65,-269.27"/>
</g>
<!-- Node4 -->
<g id="node4" class="node">
<title>Node4</title>
<g id="a_node4"><a xlink:href="../../db/dbc/classdoris_1_1_tablet.html#a0ad2bb3aa004c82a192158f07a6f0113" target="_top" xlink:title=" ">
<polygon fill="white" stroke="#666666" points="275,-249 143,-249 143,-219 275,-219 275,-249"/>
<text text-anchor="start" x="151" y="-237" font-family="Helvetica,sans-Serif" font-size="10.00">enable_unique_key_merge</text>
<text text-anchor="middle" x="209" y="-226" font-family="Helvetica,sans-Serif" font-size="10.00">_on_write</text>
</a>
</g>
</g>
<!-- Node1&#45;&gt;Node4 -->
<g id="edge3" class="edge">
<title>Node1&#45;&gt;Node4</title>
<path fill="none" stroke="#63b8ff" d="M62,-173.89C77.87,-184.02 103.91,-199.7 128,-210 131.82,-211.64 135.8,-213.21 139.84,-214.7"/>
<polygon fill="#63b8ff" stroke="#63b8ff" points="138.6,-217.98 149.2,-218 140.93,-211.38 138.6,-217.98"/>
</g>
<!-- Node5 -->
<g id="node5" class="node">
<title>Node5</title>
<g id="a_node5"><a xlink:href="../../d5/dac/classdoris_1_1_base_tablet.html#a250112870b9cd0e132c6216c844ddf9e" target="_top" xlink:title=" ">
<polygon fill="white" stroke="#666666" points="258,-201 160,-201 160,-171 258,-171 258,-201"/>
<text text-anchor="start" x="168" y="-189" font-family="Helvetica,sans-Serif" font-size="10.00">doris::BaseTablet::</text>
<text text-anchor="middle" x="209" y="-178" font-family="Helvetica,sans-Serif" font-size="10.00">full_name</text>
</a>
</g>
</g>
<!-- Node1&#45;&gt;Node5 -->
<g id="edge4" class="edge">
<title>Node1&#45;&gt;Node5</title>
<path fill="none" stroke="#63b8ff" d="M92.28,-170.19C109.68,-172.57 129.83,-175.32 148.38,-177.85"/>
<polygon fill="#63b8ff" stroke="#63b8ff" points="147.81,-181.31 158.19,-179.19 148.76,-174.37 147.81,-181.31"/>
</g>
<!-- Node6 -->
<g id="node6" class="node">
<title>Node6</title>
<g id="a_node6"><a xlink:href="../../d9/d8d/classdoris_1_1_status.html#a6ec1a217f203269ab53d2290d602db24" target="_top" xlink:title=" ">
<polygon fill="white" stroke="#666666" points="255,-152.5 163,-152.5 163,-133.5 255,-133.5 255,-152.5"/>
<text text-anchor="middle" x="209" y="-140.5" font-family="Helvetica,sans-Serif" font-size="10.00">doris::Status::OK</text>
</a>
</g>
</g>
<!-- Node1&#45;&gt;Node6 -->
<g id="edge5" class="edge">
<title>Node1&#45;&gt;Node6</title>
<path fill="none" stroke="#63b8ff" d="M92.28,-158.09C110.54,-155.71 131.81,-152.94 151.11,-150.42"/>
<polygon fill="#63b8ff" stroke="#63b8ff" points="151.54,-153.89 161.01,-149.13 150.64,-146.95 151.54,-153.89"/>
</g>
<!-- Node8 -->
<g id="node8" class="node">
<title>Node8</title>
<g id="a_node8"><a xlink:href="../../d9/d8d/classdoris_1_1_status.html#a03cb7eaa663dc83af68bc28a596d09e6" target="_top" xlink:title=" ">
<polygon fill="white" stroke="#666666" points="253.5,-115.5 164.5,-115.5 164.5,-96.5 253.5,-96.5 253.5,-115.5"/>
<text text-anchor="middle" x="209" y="-103.5" font-family="Helvetica,sans-Serif" font-size="10.00">doris::Status::ok</text>
</a>
</g>
</g>
<!-- Node1&#45;&gt;Node8 -->
<g id="edge7" class="edge">
<title>Node1&#45;&gt;Node8</title>
<path fill="none" stroke="#63b8ff" d="M64.86,-154.02C80.96,-145.36 105.49,-132.98 128,-125 136.04,-122.15 144.7,-119.59 153.23,-117.34"/>
<polygon fill="#63b8ff" stroke="#63b8ff" points="154,-120.76 162.86,-114.94 152.31,-113.97 154,-120.76"/>
</g>
<!-- Node9 -->
<g id="node9" class="node">
<title>Node9</title>
<g id="a_node9"><a xlink:href="../../d5/dac/classdoris_1_1_base_tablet.html#af97fa4131537c64737ddb6daa35da7e8" target="_top" xlink:title=" ">
<polygon fill="white" stroke="#666666" points="258,-78 160,-78 160,-48 258,-48 258,-78"/>
<text text-anchor="start" x="168" y="-66" font-family="Helvetica,sans-Serif" font-size="10.00">doris::BaseTablet::</text>
<text text-anchor="middle" x="209" y="-55" font-family="Helvetica,sans-Serif" font-size="10.00">schema_hash</text>
</a>
</g>
</g>
<!-- Node1&#45;&gt;Node9 -->
<g id="edge8" class="edge">
<title>Node1&#45;&gt;Node9</title>
<path fill="none" stroke="#63b8ff" d="M54.91,-154.12C68.3,-138.01 97.02,-106.08 128,-88 134.5,-84.21 141.64,-80.92 148.9,-78.1"/>
<polygon fill="#63b8ff" stroke="#63b8ff" points="149.89,-81.47 158.13,-74.8 147.53,-74.87 149.89,-81.47"/>
</g>
<!-- Node10 -->
<g id="node10" class="node">
<title>Node10</title>
<g id="a_node10"><a xlink:href="../../d5/dac/classdoris_1_1_base_tablet.html#aebbec7014f0cd07f57f939f781c46763" target="_top" xlink:title=" ">
<polygon fill="white" stroke="#666666" points="258,-30 160,-30 160,0 258,0 258,-30"/>
<text text-anchor="start" x="168" y="-18" font-family="Helvetica,sans-Serif" font-size="10.00">doris::BaseTablet::</text>
<text text-anchor="middle" x="209" y="-7" font-family="Helvetica,sans-Serif" font-size="10.00">tablet_id</text>
</a>
</g>
</g>
<!-- Node1&#45;&gt;Node10 -->
<g id="edge9" class="edge">
<title>Node1&#45;&gt;Node10</title>
<path fill="none" stroke="#63b8ff" d="M50.58,-154.2C59.68,-130.64 86.01,-70.5 128,-39 134.31,-34.27 141.54,-30.46 149.03,-27.41"/>
<polygon fill="#63b8ff" stroke="#63b8ff" points="150.06,-30.75 158.29,-24.07 147.69,-24.17 150.06,-30.75"/>
</g>
<!-- Node7 -->
<g id="node7" class="node">
<title>Node7</title>
<g id="a_node7"><a xlink:href="../../d9/d8d/classdoris_1_1_status.html#aafde58df1b2a6a91d5b674373be3ffc5" target="_top" xlink:title=" ">
<polygon fill="white" stroke="#666666" points="433,-152.5 326,-152.5 326,-133.5 433,-133.5 433,-152.5"/>
<text text-anchor="middle" x="379.5" y="-140.5" font-family="Helvetica,sans-Serif" font-size="10.00">doris::Status::Status</text>
</a>
</g>
</g>
<!-- Node6&#45;&gt;Node7 -->
<g id="edge6" class="edge">
<title>Node6&#45;&gt;Node7</title>
<path fill="none" stroke="#63b8ff" d="M255.15,-143C273.33,-143 294.62,-143 314.35,-143"/>
<polygon fill="#63b8ff" stroke="#63b8ff" points="314.23,-146.5 324.23,-143 314.23,-139.5 314.23,-146.5"/>
</g>
</g>
</svg>
