<?xml version="1.0" encoding="UTF-8" standalone="no"?>
<!DOCTYPE svg PUBLIC "-//W3C//DTD SVG 1.1//EN"
 "http://www.w3.org/Graphics/SVG/1.1/DTD/svg11.dtd">
<!-- Generated by graphviz version 7.1.0 (20230121.1956)
 -->
<!-- Title: capture_consistent_versions Pages: 1 -->
<svg width="262pt" height="179pt"
 viewBox="0.00 0.00 262.00 179.00" xmlns="http://www.w3.org/2000/svg" xmlns:xlink="http://www.w3.org/1999/xlink">
<g id="graph0" class="graph" transform="scale(1 1) rotate(0) translate(4 175)">
<title>capture_consistent_versions</title>
<!-- Node1 -->
<g id="node1" class="node">
<title>Node1</title>
<g id="a_node1"><a xlink:title=" ">
<polygon fill="#999999" stroke="#666666" points="254,-91 155,-91 155,-61 254,-61 254,-91"/>
<text text-anchor="start" x="163" y="-79" font-family="Helvetica,sans-Serif" font-size="10.00">capture_consistent</text>
<text text-anchor="middle" x="204.5" y="-68" font-family="Helvetica,sans-Serif" font-size="10.00">_versions</text>
</a>
</g>
</g>
<!-- Node2 -->
<g id="node2" class="node">
<title>Node2</title>
<g id="a_node2"><a xlink:href="../../db/dbc/classdoris_1_1_tablet.html#ad1303b33c31aa2982dc3840f4fca551f" target="_top" xlink:title=" ">
<polygon fill="white" stroke="#666666" points="109,-171 10,-171 10,-141 109,-141 109,-171"/>
<text text-anchor="start" x="18" y="-159" font-family="Helvetica,sans-Serif" font-size="10.00">capture_consistent</text>
<text text-anchor="middle" x="59.5" y="-148" font-family="Helvetica,sans-Serif" font-size="10.00">_rowsets</text>
</a>
</g>
</g>
<!-- Node1&#45;&gt;Node2 -->
<g id="edge1" class="edge">
<title>Node1&#45;&gt;Node2</title>
<path fill="none" stroke="#63b8ff" d="M173.45,-98C157.69,-108.99 137.8,-122.04 119,-132 113.28,-135.03 107.08,-137.94 100.94,-140.62"/>
<polygon fill="#63b8ff" stroke="#63b8ff" points="175.3,-100.98 181.44,-92.34 171.26,-95.26 175.3,-100.98"/>
</g>
<!-- Node3 -->
<g id="node3" class="node">
<title>Node3</title>
<g id="a_node3"><a xlink:href="../../db/dbc/classdoris_1_1_tablet.html#a40a37d33cfc2460d9919bd57e4c6217b" target="_top" xlink:title=" ">
<polygon fill="white" stroke="#666666" points="109.5,-104.5 9.5,-104.5 9.5,-85.5 109.5,-85.5 109.5,-104.5"/>
<text text-anchor="middle" x="59.5" y="-92.5" font-family="Helvetica,sans-Serif" font-size="10.00">capture_rs_readers</text>
</a>
</g>
</g>
<!-- Node1&#45;&gt;Node3 -->
<g id="edge2" class="edge">
<title>Node1&#45;&gt;Node3</title>
<path fill="none" stroke="#63b8ff" d="M143.55,-83.97C132.23,-85.47 120.51,-87.03 109.58,-88.48"/>
<polygon fill="#63b8ff" stroke="#63b8ff" points="143.74,-87.47 153.19,-82.68 142.81,-80.53 143.74,-87.47"/>
</g>
<!-- Node4 -->
<g id="node4" class="node">
<title>Node4</title>
<g id="a_node4"><a xlink:href="../../db/dbc/classdoris_1_1_tablet.html#a23e90a11b3242cb01d5137d54e33e2e5" target="_top" xlink:title=" ">
<polygon fill="white" stroke="#666666" points="119,-67.5 0,-67.5 0,-48.5 119,-48.5 119,-67.5"/>
<text text-anchor="middle" x="59.5" y="-55.5" font-family="Helvetica,sans-Serif" font-size="10.00">check_version_integrity</text>
</a>
</g>
</g>
<!-- Node1&#45;&gt;Node4 -->
<g id="edge4" class="edge">
<title>Node1&#45;&gt;Node4</title>
<path fill="none" stroke="#63b8ff" d="M143.31,-68.42C135.42,-67.43 127.34,-66.41 119.47,-65.42"/>
<polygon fill="#63b8ff" stroke="#63b8ff" points="142.83,-71.89 153.19,-69.67 143.7,-64.95 142.83,-71.89"/>
</g>
<!-- Node5 -->
<g id="node5" class="node">
<title>Node5</title>
<g id="a_node5"><a xlink:href="../../db/dbc/classdoris_1_1_tablet.html#a55bc7a89362ec130c207d755b6a6c6f3" target="_top" xlink:title=" ">
<polygon fill="white" stroke="#666666" points="112.5,-30 6.5,-30 6.5,0 112.5,0 112.5,-30"/>
<text text-anchor="start" x="14.5" y="-18" font-family="Helvetica,sans-Serif" font-size="10.00">delete_expired_stale</text>
<text text-anchor="middle" x="59.5" y="-7" font-family="Helvetica,sans-Serif" font-size="10.00">_rowset</text>
</a>
</g>
</g>
<!-- Node1&#45;&gt;Node5 -->
<g id="edge5" class="edge">
<title>Node1&#45;&gt;Node5</title>
<path fill="none" stroke="#63b8ff" d="M156.87,-56.11C137.29,-47.76 114.86,-38.19 96.57,-30.39"/>
<polygon fill="#63b8ff" stroke="#63b8ff" points="155.45,-59.31 166.02,-60.01 158.2,-52.87 155.45,-59.31"/>
</g>
<!-- Node3&#45;&gt;Node3 -->
<g id="edge3" class="edge">
<title>Node3&#45;&gt;Node3</title>
<path fill="none" stroke="#63b8ff" d="M85.24,-115.93C82.02,-119.79 73.44,-122.5 59.5,-122.5 34.01,-122.5 26.44,-113.44 36.8,-104.87"/>
<polygon fill="#63b8ff" stroke="#63b8ff" points="88.62,-115.04 82.6,-106.33 81.87,-116.9 88.62,-115.04"/>
</g>
</g>
</svg>
