<?xml version="1.0" encoding="UTF-8" standalone="no"?>
<!DOCTYPE svg PUBLIC "-//W3C//DTD SVG 1.1//EN"
 "http://www.w3.org/Graphics/SVG/1.1/DTD/svg11.dtd">
<!-- Generated by graphviz version 7.1.0 (20230121.1956)
 -->
<!-- Title: set_buf_size Pages: 1 -->
<svg width="273pt" height="138pt"
 viewBox="0.00 0.00 273.00 138.00" xmlns="http://www.w3.org/2000/svg" xmlns:xlink="http://www.w3.org/1999/xlink">
<g id="graph0" class="graph" transform="scale(1 1) rotate(0) translate(4 134)">
<title>set_buf_size</title>
<!-- Node1 -->
<g id="node1" class="node">
<title>Node1</title>
<g id="a_node1"><a xlink:title=" ">
<polygon fill="#999999" stroke="#666666" points="72,-74 0,-74 0,-55 72,-55 72,-74"/>
<text text-anchor="middle" x="36" y="-62" font-family="Helvetica,sans-Serif" font-size="10.00">set_buf_size</text>
</a>
</g>
</g>
<!-- Node2 -->
<g id="node2" class="node">
<title>Node2</title>
<g id="a_node2"><a xlink:href="../../d9/d3d/log2_8c.html#a38bd88274dc5594b4826fd60c8054c8e" target="_top" xlink:title=" ">
<polygon fill="white" stroke="#666666" points="143,-74 108,-74 108,-55 143,-55 143,-74"/>
<text text-anchor="middle" x="125.5" y="-62" font-family="Helvetica,sans-Serif" font-size="10.00">log2</text>
</a>
</g>
</g>
<!-- Node1&#45;&gt;Node2 -->
<g id="edge1" class="edge">
<title>Node1&#45;&gt;Node2</title>
<path fill="none" stroke="#63b8ff" d="M72.34,-64.5C80.21,-64.5 88.46,-64.5 96.02,-64.5"/>
<polygon fill="#63b8ff" stroke="#63b8ff" points="96.01,-68 106.01,-64.5 96.01,-61 96.01,-68"/>
</g>
<!-- Node3 -->
<g id="node3" class="node">
<title>Node3</title>
<g id="a_node3"><a xlink:href="../../da/da2/____math__divzero_8c.html#a8c10e0e17b8529cc85535823a84f2799" target="_top" xlink:title=" ">
<polygon fill="white" stroke="#666666" points="265,-130 179,-130 179,-111 265,-111 265,-130"/>
<text text-anchor="middle" x="222" y="-118" font-family="Helvetica,sans-Serif" font-size="10.00">__math_divzero</text>
</a>
</g>
</g>
<!-- Node2&#45;&gt;Node3 -->
<g id="edge2" class="edge">
<title>Node2&#45;&gt;Node3</title>
<path fill="none" stroke="#63b8ff" d="M138.5,-74.37C148.82,-82.56 164.32,-94.18 179,-102.5 180.92,-103.59 182.91,-104.65 184.94,-105.68"/>
<polygon fill="#63b8ff" stroke="#63b8ff" points="183.34,-108.79 193.87,-109.89 186.32,-102.46 183.34,-108.79"/>
</g>
<!-- Node4 -->
<g id="node4" class="node">
<title>Node4</title>
<g id="a_node4"><a xlink:href="../../dc/db1/____math__invalid_8c.html#a11c62c401c5f851280dc0a4032943305" target="_top" xlink:title=" ">
<polygon fill="white" stroke="#666666" points="263,-93 181,-93 181,-74 263,-74 263,-93"/>
<text text-anchor="middle" x="222" y="-81" font-family="Helvetica,sans-Serif" font-size="10.00">__math_invalid</text>
</a>
</g>
</g>
<!-- Node2&#45;&gt;Node4 -->
<g id="edge3" class="edge">
<title>Node2&#45;&gt;Node4</title>
<path fill="none" stroke="#63b8ff" d="M143.39,-67.9C150.87,-69.4 160.11,-71.26 169.58,-73.16"/>
<polygon fill="#63b8ff" stroke="#63b8ff" points="168.72,-76.56 179.21,-75.1 170.1,-69.7 168.72,-76.56"/>
</g>
<!-- Node5 -->
<g id="node5" class="node">
<title>Node5</title>
<g id="a_node5"><a xlink:href="../../d9/ded/libm_8h.html#a4e92ce39e6a616f6014883f1d05c33bc" target="_top" xlink:title=" ">
<polygon fill="white" stroke="#666666" points="264,-56 180,-56 180,-37 264,-37 264,-56"/>
<text text-anchor="middle" x="222" y="-44" font-family="Helvetica,sans-Serif" font-size="10.00">eval_as_double</text>
</a>
</g>
</g>
<!-- Node2&#45;&gt;Node5 -->
<g id="edge4" class="edge">
<title>Node2&#45;&gt;Node5</title>
<path fill="none" stroke="#63b8ff" d="M143.39,-61.28C150.64,-59.9 159.54,-58.21 168.69,-56.46"/>
<polygon fill="#63b8ff" stroke="#63b8ff" points="169.24,-59.92 178.41,-54.61 167.93,-53.05 169.24,-59.92"/>
</g>
<!-- Node6 -->
<g id="node6" class="node">
<title>Node6</title>
<g id="a_node6"><a xlink:href="../../d9/d3d/log2_8c.html#ad659092c71fb8c0a80b32323a26a9c31" target="_top" xlink:title=" ">
<polygon fill="white" stroke="#666666" points="242.5,-19 201.5,-19 201.5,0 242.5,0 242.5,-19"/>
<text text-anchor="middle" x="222" y="-7" font-family="Helvetica,sans-Serif" font-size="10.00">top16</text>
</a>
</g>
</g>
<!-- Node2&#45;&gt;Node6 -->
<g id="edge5" class="edge">
<title>Node2&#45;&gt;Node6</title>
<path fill="none" stroke="#63b8ff" d="M139.46,-54.66C149.84,-47.01 164.94,-36.42 179,-28.5 182.89,-26.31 187.08,-24.17 191.25,-22.17"/>
<polygon fill="#63b8ff" stroke="#63b8ff" points="192.41,-25.49 200.04,-18.14 189.49,-19.13 192.41,-25.49"/>
</g>
</g>
</svg>
