<?xml version="1.0" encoding="UTF-8" standalone="no"?>
<!DOCTYPE svg PUBLIC "-//W3C//DTD SVG 1.1//EN"
 "http://www.w3.org/Graphics/SVG/1.1/DTD/svg11.dtd">
<!-- Generated by graphviz version 7.1.0 (20230121.1956)
 -->
<!-- Title: buf Pages: 1 -->
<svg width="1010pt" height="185pt"
 viewBox="0.00 0.00 1010.00 184.50" xmlns="http://www.w3.org/2000/svg" xmlns:xlink="http://www.w3.org/1999/xlink">
<g id="graph0" class="graph" transform="scale(1 1) rotate(0) translate(4 180.5)">
<title>buf</title>
<!-- Node1 -->
<g id="node1" class="node">
<title>Node1</title>
<g id="a_node1"><a xlink:title=" ">
<polygon fill="#999999" stroke="#666666" points="1002,-78.5 972,-78.5 972,-59.5 1002,-59.5 1002,-78.5"/>
<text text-anchor="middle" x="987" y="-66.5" font-family="Helvetica,sans-Serif" font-size="10.00">buf</text>
</a>
</g>
</g>
<!-- Node2 -->
<g id="node2" class="node">
<title>Node2</title>
<g id="a_node2"><a xlink:href="../../d8/d14/classdoris_1_1vectorized_1_1_v_file_result_writer.html#ab349010563bd34bd3fce63b4847006f0" target="_top" xlink:title=" ">
<polygon fill="white" stroke="#666666" points="936,-89.5 837,-89.5 837,-48.5 936,-48.5 936,-89.5"/>
<text text-anchor="start" x="845" y="-77.5" font-family="Helvetica,sans-Serif" font-size="10.00">doris::vectorized::</text>
<text text-anchor="start" x="845" y="-66.5" font-family="Helvetica,sans-Serif" font-size="10.00">VFileResultWriter::</text>
<text text-anchor="middle" x="886.5" y="-55.5" font-family="Helvetica,sans-Serif" font-size="10.00">_send_result</text>
</a>
</g>
</g>
<!-- Node1&#45;&gt;Node2 -->
<g id="edge1" class="edge">
<title>Node1&#45;&gt;Node2</title>
<path fill="none" stroke="#63b8ff" d="M960.45,-69C953.02,-69 944.65,-69 936.29,-69"/>
<polygon fill="#63b8ff" stroke="#63b8ff" points="960.37,-72.5 970.37,-69 960.37,-65.5 960.37,-72.5"/>
</g>
<!-- Node3 -->
<g id="node3" class="node">
<title>Node3</title>
<g id="a_node3"><a xlink:href="../../d8/d14/classdoris_1_1vectorized_1_1_v_file_result_writer.html#a87ee9b07506ff5a825bfb99c8110237b" target="_top" xlink:title=" ">
<polygon fill="white" stroke="#666666" points="801,-89.5 702,-89.5 702,-48.5 801,-48.5 801,-89.5"/>
<text text-anchor="start" x="710" y="-77.5" font-family="Helvetica,sans-Serif" font-size="10.00">doris::vectorized::</text>
<text text-anchor="start" x="710" y="-66.5" font-family="Helvetica,sans-Serif" font-size="10.00">VFileResultWriter::</text>
<text text-anchor="middle" x="751.5" y="-55.5" font-family="Helvetica,sans-Serif" font-size="10.00">_close_file_writer</text>
</a>
</g>
</g>
<!-- Node2&#45;&gt;Node3 -->
<g id="edge2" class="edge">
<title>Node2&#45;&gt;Node3</title>
<path fill="none" stroke="#63b8ff" d="M825.43,-69C817.34,-69 809.12,-69 801.26,-69"/>
<polygon fill="#63b8ff" stroke="#63b8ff" points="825.22,-72.5 835.22,-69 825.22,-65.5 825.22,-72.5"/>
</g>
<!-- Node4 -->
<g id="node4" class="node">
<title>Node4</title>
<g id="a_node4"><a xlink:href="../../d8/d14/classdoris_1_1vectorized_1_1_v_file_result_writer.html#a3d1d8bfd0cedf4d21598a1af1b83e45b" target="_top" xlink:title=" ">
<polygon fill="white" stroke="#666666" points="666,-148.5 505,-148.5 505,-107.5 666,-107.5 666,-148.5"/>
<text text-anchor="start" x="513" y="-136.5" font-family="Helvetica,sans-Serif" font-size="10.00">doris::vectorized::</text>
<text text-anchor="start" x="513" y="-125.5" font-family="Helvetica,sans-Serif" font-size="10.00">VFileResultWriter::</text>
<text text-anchor="middle" x="585.5" y="-114.5" font-family="Helvetica,sans-Serif" font-size="10.00">_create_new_file_if_exceed_size</text>
</a>
</g>
</g>
<!-- Node3&#45;&gt;Node4 -->
<g id="edge3" class="edge">
<title>Node3&#45;&gt;Node4</title>
<path fill="none" stroke="#63b8ff" d="M690.97,-90.42C675.86,-95.85 659.66,-101.68 644.62,-107.09"/>
<polygon fill="#63b8ff" stroke="#63b8ff" points="692.09,-93.73 700.31,-87.05 689.72,-87.15 692.09,-93.73"/>
</g>
<!-- Node9 -->
<g id="node9" class="node">
<title>Node9</title>
<g id="a_node9"><a xlink:href="../../d8/d14/classdoris_1_1vectorized_1_1_v_file_result_writer.html#aa84f04da79ee1161786572f30526e4c4" target="_top" xlink:title=" ">
<polygon fill="white" stroke="#666666" points="640,-89.5 531,-89.5 531,-48.5 640,-48.5 640,-89.5"/>
<text text-anchor="start" x="539" y="-77.5" font-family="Helvetica,sans-Serif" font-size="10.00">doris::vectorized::</text>
<text text-anchor="start" x="539" y="-66.5" font-family="Helvetica,sans-Serif" font-size="10.00">VFileResultWriter::</text>
<text text-anchor="middle" x="585.5" y="-55.5" font-family="Helvetica,sans-Serif" font-size="10.00">_create_success_file</text>
</a>
</g>
</g>
<!-- Node3&#45;&gt;Node9 -->
<g id="edge9" class="edge">
<title>Node3&#45;&gt;Node9</title>
<path fill="none" stroke="#63b8ff" d="M690.57,-62.47C674.1,-62.13 656.34,-62.18 640.23,-62.62"/>
<polygon fill="#63b8ff" stroke="#63b8ff" points="690.14,-65.96 700.23,-62.73 690.32,-58.96 690.14,-65.96"/>
</g>
<!-- Node10 -->
<g id="node10" class="node">
<title>Node10</title>
<g id="a_node10"><a xlink:href="../../d8/d14/classdoris_1_1vectorized_1_1_v_file_result_writer.html#a8141474b27f79630b2d13e3aa1aed293" target="_top" xlink:title=" ">
<polygon fill="white" stroke="#666666" points="646.5,-30 524.5,-30 524.5,0 646.5,0 646.5,-30"/>
<text text-anchor="start" x="532.5" y="-18" font-family="Helvetica,sans-Serif" font-size="10.00">doris::vectorized::</text>
<text text-anchor="middle" x="585.5" y="-7" font-family="Helvetica,sans-Serif" font-size="10.00">VFileResultWriter::close</text>
</a>
</g>
</g>
<!-- Node3&#45;&gt;Node10 -->
<g id="edge11" class="edge">
<title>Node3&#45;&gt;Node10</title>
<path fill="none" stroke="#63b8ff" d="M691.32,-47.58C682.84,-44.64 674.22,-41.7 666,-39 657.23,-36.12 647.88,-33.18 638.78,-30.39"/>
<polygon fill="#63b8ff" stroke="#63b8ff" points="689.91,-50.8 700.5,-50.81 692.23,-44.19 689.91,-50.8"/>
</g>
<!-- Node5 -->
<g id="node5" class="node">
<title>Node5</title>
<g id="a_node5"><a xlink:href="../../d8/d14/classdoris_1_1vectorized_1_1_v_file_result_writer.html#a4ad9824babbb7ac7b41f3d09dc4634a8" target="_top" xlink:title=" ">
<polygon fill="white" stroke="#666666" points="469,-173.5 330,-173.5 330,-132.5 469,-132.5 469,-173.5"/>
<text text-anchor="start" x="338" y="-161.5" font-family="Helvetica,sans-Serif" font-size="10.00">doris::vectorized::</text>
<text text-anchor="start" x="338" y="-150.5" font-family="Helvetica,sans-Serif" font-size="10.00">VFileResultWriter::</text>
<text text-anchor="middle" x="399.5" y="-139.5" font-family="Helvetica,sans-Serif" font-size="10.00">_flush_plain_text_outstream</text>
</a>
</g>
</g>
<!-- Node4&#45;&gt;Node5 -->
<g id="edge4" class="edge">
<title>Node4&#45;&gt;Node5</title>
<path fill="none" stroke="#63b8ff" d="M493.26,-140.4C485.23,-141.49 477.18,-142.58 469.37,-143.64"/>
<polygon fill="#63b8ff" stroke="#63b8ff" points="493.66,-143.87 503.1,-139.06 492.72,-136.94 493.66,-143.87"/>
</g>
<!-- Node8 -->
<g id="node8" class="node">
<title>Node8</title>
<g id="a_node8"><a xlink:href="../../d8/d14/classdoris_1_1vectorized_1_1_v_file_result_writer.html#ade8921fcbee197420ce30c79ae72946e" target="_top" xlink:title=" ">
<polygon fill="white" stroke="#666666" points="294,-117.5 195,-117.5 195,-76.5 294,-76.5 294,-117.5"/>
<text text-anchor="start" x="203" y="-105.5" font-family="Helvetica,sans-Serif" font-size="10.00">doris::vectorized::</text>
<text text-anchor="start" x="203" y="-94.5" font-family="Helvetica,sans-Serif" font-size="10.00">VFileResultWriter::</text>
<text text-anchor="middle" x="244.5" y="-83.5" font-family="Helvetica,sans-Serif" font-size="10.00">_write_file</text>
</a>
</g>
</g>
<!-- Node4&#45;&gt;Node8 -->
<g id="edge7" class="edge">
<title>Node4&#45;&gt;Node8</title>
<path fill="none" stroke="#63b8ff" d="M493.29,-119.66C429.32,-113.81 346.3,-106.22 294.46,-101.48"/>
<polygon fill="#63b8ff" stroke="#63b8ff" points="492.81,-123.13 503.08,-120.55 493.44,-116.16 492.81,-123.13"/>
</g>
<!-- Node6 -->
<g id="node6" class="node">
<title>Node6</title>
<g id="a_node6"><a xlink:href="../../d8/d14/classdoris_1_1vectorized_1_1_v_file_result_writer.html#ae329ea899bbfdfd7bb0e44311e3ee1d0" target="_top" xlink:title=" ">
<polygon fill="white" stroke="#666666" points="294,-176.5 195,-176.5 195,-135.5 294,-135.5 294,-176.5"/>
<text text-anchor="start" x="203" y="-164.5" font-family="Helvetica,sans-Serif" font-size="10.00">doris::vectorized::</text>
<text text-anchor="start" x="203" y="-153.5" font-family="Helvetica,sans-Serif" font-size="10.00">VFileResultWriter::</text>
<text text-anchor="middle" x="244.5" y="-142.5" font-family="Helvetica,sans-Serif" font-size="10.00">_write_csv_file</text>
</a>
</g>
</g>
<!-- Node5&#45;&gt;Node6 -->
<g id="edge5" class="edge">
<title>Node5&#45;&gt;Node6</title>
<path fill="none" stroke="#63b8ff" d="M318.14,-154.58C310.02,-154.73 301.97,-154.89 294.34,-155.04"/>
<polygon fill="#63b8ff" stroke="#63b8ff" points="318.17,-158.08 328.1,-154.38 318.03,-151.08 318.17,-158.08"/>
</g>
<!-- Node7 -->
<g id="node7" class="node">
<title>Node7</title>
<g id="a_node7"><a xlink:href="../../d8/d14/classdoris_1_1vectorized_1_1_v_file_result_writer.html#af93b2e9dd5d06f43e25752810592c701" target="_top" xlink:title=" ">
<polygon fill="white" stroke="#666666" points="159,-141 0,-141 0,-111 159,-111 159,-141"/>
<text text-anchor="start" x="8" y="-129" font-family="Helvetica,sans-Serif" font-size="10.00">doris::vectorized::</text>
<text text-anchor="middle" x="79.5" y="-118" font-family="Helvetica,sans-Serif" font-size="10.00">VFileResultWriter::append_block</text>
</a>
</g>
</g>
<!-- Node6&#45;&gt;Node7 -->
<g id="edge6" class="edge">
<title>Node6&#45;&gt;Node7</title>
<path fill="none" stroke="#63b8ff" d="M183.33,-144.93C175.48,-143.48 167.34,-141.98 159.25,-140.49"/>
<polygon fill="#63b8ff" stroke="#63b8ff" points="182.64,-148.36 193.11,-146.73 183.9,-141.47 182.64,-148.36"/>
</g>
<!-- Node8&#45;&gt;Node7 -->
<g id="edge8" class="edge">
<title>Node8&#45;&gt;Node7</title>
<path fill="none" stroke="#63b8ff" d="M183.33,-107.7C175.48,-109.1 167.34,-110.55 159.25,-111.99"/>
<polygon fill="#63b8ff" stroke="#63b8ff" points="183.87,-111.16 193.1,-105.97 182.65,-104.27 183.87,-111.16"/>
</g>
<!-- Node9&#45;&gt;Node3 -->
<g id="edge10" class="edge">
<title>Node9&#45;&gt;Node3</title>
<path fill="none" stroke="#63b8ff" d="M651.61,-75.62C668.32,-75.88 686.01,-75.75 701.74,-75.23"/>
<polygon fill="#63b8ff" stroke="#63b8ff" points="651.82,-72.12 641.75,-75.41 651.67,-79.12 651.82,-72.12"/>
</g>
</g>
</svg>
