<?xml version="1.0" encoding="UTF-8" standalone="no"?>
<!DOCTYPE svg PUBLIC "-//W3C//DTD SVG 1.1//EN"
 "http://www.w3.org/Graphics/SVG/1.1/DTD/svg11.dtd">
<!-- Generated by graphviz version 7.1.0 (20230121.1956)
 -->
<!-- Title: SplitStringAndParseToInserter Pages: 1 -->
<svg width="653pt" height="70pt"
 viewBox="0.00 0.00 653.00 69.50" xmlns="http://www.w3.org/2000/svg" xmlns:xlink="http://www.w3.org/1999/xlink">
<g id="graph0" class="graph" transform="scale(1 1) rotate(0) translate(4 65.5)">
<title>SplitStringAndParseToInserter</title>
<!-- Node1 -->
<g id="node1" class="node">
<title>Node1</title>
<g id="a_node1"><a xlink:title=" ">
<polygon fill="#999999" stroke="#666666" points="645,-42.5 497,-42.5 497,-23.5 645,-23.5 645,-42.5"/>
<text text-anchor="middle" x="571" y="-30.5" font-family="Helvetica,sans-Serif" font-size="10.00">SplitStringAndParseToInserter</text>
</a>
</g>
</g>
<!-- Node2 -->
<g id="node2" class="node">
<title>Node2</title>
<g id="a_node2"><a xlink:href="../../d4/df2/split_8h.html#a5b46f392b7a97325592dcdb61d4dc0c9" target="_top" xlink:title=" ">
<polygon fill="white" stroke="#666666" points="461,-61.5 304,-61.5 304,-42.5 461,-42.5 461,-61.5"/>
<text text-anchor="middle" x="382.5" y="-49.5" font-family="Helvetica,sans-Serif" font-size="10.00">SplitStringAndParseToContainer</text>
</a>
</g>
</g>
<!-- Node1&#45;&gt;Node2 -->
<g id="edge1" class="edge">
<title>Node1&#45;&gt;Node2</title>
<path fill="none" stroke="#63b8ff" d="M485.11,-41.65C477.24,-42.45 469.29,-43.26 461.48,-44.06"/>
<polygon fill="#63b8ff" stroke="#63b8ff" points="485.46,-45.13 495.05,-40.64 484.75,-38.17 485.46,-45.13"/>
</g>
<!-- Node3 -->
<g id="node3" class="node">
<title>Node3</title>
<g id="a_node3"><a xlink:href="../../d4/df2/split_8h.html#a4ca5328bbe359628fdb9b4db158dee7d" target="_top" xlink:title=" ">
<polygon fill="white" stroke="#666666" points="448,-24.5 317,-24.5 317,-5.5 448,-5.5 448,-24.5"/>
<text text-anchor="middle" x="382.5" y="-12.5" font-family="Helvetica,sans-Serif" font-size="10.00">SplitStringAndParseToList</text>
</a>
</g>
</g>
<!-- Node1&#45;&gt;Node3 -->
<g id="edge2" class="edge">
<title>Node1&#45;&gt;Node3</title>
<path fill="none" stroke="#63b8ff" d="M485.27,-24.82C472.89,-23.63 460.31,-22.41 448.4,-21.26"/>
<polygon fill="#63b8ff" stroke="#63b8ff" points="484.76,-28.29 495.05,-25.77 485.43,-21.32 484.76,-28.29"/>
</g>
<!-- Node4 -->
<g id="node4" class="node">
<title>Node4</title>
<g id="a_node4"><a xlink:href="../../d4/df2/split_8h.html#a96c29e61f06108da9f49e51c110268cb" target="_top" xlink:title=" ">
<polygon fill="white" stroke="#666666" points="268,-24.5 164,-24.5 164,-5.5 268,-5.5 268,-24.5"/>
<text text-anchor="middle" x="216" y="-12.5" font-family="Helvetica,sans-Serif" font-size="10.00">SplitStringAndParse</text>
</a>
</g>
</g>
<!-- Node3&#45;&gt;Node4 -->
<g id="edge3" class="edge">
<title>Node3&#45;&gt;Node4</title>
<path fill="none" stroke="#63b8ff" d="M305.51,-15C292.94,-15 280.18,-15 268.4,-15"/>
<polygon fill="#63b8ff" stroke="#63b8ff" points="305.44,-18.5 315.44,-15 305.44,-11.5 305.44,-18.5"/>
</g>
<!-- Node5 -->
<g id="node5" class="node">
<title>Node5</title>
<g id="a_node5"><a xlink:href="../../d3/d60/structdoris_1_1vectorized_1_1_bitmap_from_string.html#a901cf7596e3d87807f9eae61aca3e9a3" target="_top" xlink:title=" ">
<polygon fill="white" stroke="#666666" points="128,-30 0,-30 0,0 128,0 128,-30"/>
<text text-anchor="start" x="8" y="-18" font-family="Helvetica,sans-Serif" font-size="10.00">doris::vectorized::</text>
<text text-anchor="middle" x="64" y="-7" font-family="Helvetica,sans-Serif" font-size="10.00">BitmapFromString::vector</text>
</a>
</g>
</g>
<!-- Node4&#45;&gt;Node5 -->
<g id="edge4" class="edge">
<title>Node4&#45;&gt;Node5</title>
<path fill="none" stroke="#63b8ff" d="M152.38,-15C144.47,-15 136.37,-15 128.44,-15"/>
<polygon fill="#63b8ff" stroke="#63b8ff" points="152.28,-18.5 162.28,-15 152.28,-11.5 152.28,-18.5"/>
</g>
</g>
</svg>
