<?xml version="1.0" encoding="UTF-8" standalone="no"?>
<!DOCTYPE svg PUBLIC "-//W3C//DTD SVG 1.1//EN"
 "http://www.w3.org/Graphics/SVG/1.1/DTD/svg11.dtd">
<!-- Generated by graphviz version 7.1.0 (20230121.1956)
 -->
<!-- Title: end_version Pages: 1 -->
<svg width="217pt" height="113pt"
 viewBox="0.00 0.00 217.00 112.50" xmlns="http://www.w3.org/2000/svg" xmlns:xlink="http://www.w3.org/1999/xlink">
<g id="graph0" class="graph" transform="scale(1 1) rotate(0) translate(4 108.5)">
<title>end_version</title>
<!-- Node1 -->
<g id="node1" class="node">
<title>Node1</title>
<g id="a_node1"><a xlink:title=" ">
<polygon fill="#999999" stroke="#666666" points="209,-67.5 140,-67.5 140,-48.5 209,-48.5 209,-67.5"/>
<text text-anchor="middle" x="174.5" y="-55.5" font-family="Helvetica,sans-Serif" font-size="10.00">end_version</text>
</a>
</g>
</g>
<!-- Node2 -->
<g id="node2" class="node">
<title>Node2</title>
<g id="a_node2"><a xlink:href="../../da/d4c/classdoris_1_1_rowset.html#a5ae591df94fc66ccb85cbb6565368bca" target="_top" xlink:title=" ">
<polygon fill="white" stroke="#666666" points="72,-104.5 32,-104.5 32,-85.5 72,-85.5 72,-104.5"/>
<text text-anchor="middle" x="52" y="-92.5" font-family="Helvetica,sans-Serif" font-size="10.00">close</text>
</a>
</g>
</g>
<!-- Node1&#45;&gt;Node2 -->
<g id="edge1" class="edge">
<title>Node1&#45;&gt;Node2</title>
<path fill="none" stroke="#63b8ff" d="M130.47,-71.21C110.53,-77.33 87.84,-84.3 72.2,-89.11"/>
<polygon fill="#63b8ff" stroke="#63b8ff" points="131.23,-74.64 139.76,-68.36 129.17,-67.95 131.23,-74.64"/>
</g>
<!-- Node3 -->
<g id="node3" class="node">
<title>Node3</title>
<g id="a_node3"><a xlink:href="../../da/d4c/classdoris_1_1_rowset.html#a23b477d0e2d399f75d585d154c346591" target="_top" xlink:title=" ">
<polygon fill="white" stroke="#666666" points="76,-67.5 28,-67.5 28,-48.5 76,-48.5 76,-67.5"/>
<text text-anchor="middle" x="52" y="-55.5" font-family="Helvetica,sans-Serif" font-size="10.00">release</text>
</a>
</g>
</g>
<!-- Node1&#45;&gt;Node3 -->
<g id="edge2" class="edge">
<title>Node1&#45;&gt;Node3</title>
<path fill="none" stroke="#63b8ff" d="M128.32,-58C110.63,-58 91.09,-58 76.34,-58"/>
<polygon fill="#63b8ff" stroke="#63b8ff" points="128.1,-61.5 138.1,-58 128.1,-54.5 128.1,-61.5"/>
</g>
<!-- Node4 -->
<g id="node4" class="node">
<title>Node4</title>
<g id="a_node4"><a xlink:href="../../de/d50/classdoris_1_1_beta_rowset.html#af830b175a2b5ad2a22d930c5e68d6f15" target="_top" xlink:title=" ">
<polygon fill="white" stroke="#666666" points="104,-30 0,-30 0,0 104,0 104,-30"/>
<text text-anchor="start" x="8" y="-18" font-family="Helvetica,sans-Serif" font-size="10.00">doris::BetaRowset::</text>
<text text-anchor="middle" x="52" y="-7" font-family="Helvetica,sans-Serif" font-size="10.00">remove</text>
</a>
</g>
</g>
<!-- Node1&#45;&gt;Node4 -->
<g id="edge3" class="edge">
<title>Node1&#45;&gt;Node4</title>
<path fill="none" stroke="#63b8ff" d="M134.76,-44.18C122.52,-39.81 108.92,-34.95 96.38,-30.48"/>
<polygon fill="#63b8ff" stroke="#63b8ff" points="133.53,-47.45 144.13,-47.52 135.88,-40.86 133.53,-47.45"/>
</g>
</g>
</svg>
