<?xml version="1.0" encoding="UTF-8" standalone="no"?>
<!DOCTYPE svg PUBLIC "-//W3C//DTD SVG 1.1//EN"
 "http://www.w3.org/Graphics/SVG/1.1/DTD/svg11.dtd">
<!-- Generated by graphviz version 7.1.0 (20230121.1956)
 -->
<!-- Title: get_shard Pages: 1 -->
<svg width="733pt" height="98pt"
 viewBox="0.00 0.00 733.00 97.50" xmlns="http://www.w3.org/2000/svg" xmlns:xlink="http://www.w3.org/1999/xlink">
<g id="graph0" class="graph" transform="scale(1 1) rotate(0) translate(4 93.5)">
<title>get_shard</title>
<!-- Node1 -->
<g id="node1" class="node">
<title>Node1</title>
<g id="a_node1"><a xlink:title=" ">
<polygon fill="#999999" stroke="#666666" points="725,-51.5 666,-51.5 666,-32.5 725,-32.5 725,-51.5"/>
<text text-anchor="middle" x="695.5" y="-39.5" font-family="Helvetica,sans-Serif" font-size="10.00">get_shard</text>
</a>
</g>
</g>
<!-- Node2 -->
<g id="node2" class="node">
<title>Node2</title>
<g id="a_node2"><a xlink:href="../../d5/d7e/classdoris_1_1_tablet_manager.html#a870786941623076c04ffb57677996ea8" target="_top" xlink:title=" ">
<polygon fill="white" stroke="#666666" points="612,-89.5 501,-89.5 501,-48.5 612,-48.5 612,-89.5"/>
<text text-anchor="start" x="509" y="-77.5" font-family="Helvetica,sans-Serif" font-size="10.00">doris::TabletManager</text>
<text text-anchor="start" x="509" y="-66.5" font-family="Helvetica,sans-Serif" font-size="10.00">::_create_tablet_meta</text>
<text text-anchor="middle" x="556.5" y="-55.5" font-family="Helvetica,sans-Serif" font-size="10.00">_unlocked</text>
</a>
</g>
</g>
<!-- Node1&#45;&gt;Node2 -->
<g id="edge1" class="edge">
<title>Node1&#45;&gt;Node2</title>
<path fill="none" stroke="#63b8ff" d="M654.7,-49.84C641.51,-52.44 626.59,-55.38 612.47,-58.17"/>
<polygon fill="#63b8ff" stroke="#63b8ff" points="655.16,-53.32 664.3,-47.95 653.81,-46.45 655.16,-53.32"/>
</g>
<!-- Node6 -->
<g id="node6" class="node">
<title>Node6</title>
<g id="a_node6"><a xlink:href="../../d7/d96/classdoris_1_1_engine_storage_migration_task.html#a368a49478355d8a5cc981c86799e06e8" target="_top" xlink:title=" ">
<polygon fill="white" stroke="#666666" points="630,-30 483,-30 483,0 630,0 630,-30"/>
<text text-anchor="start" x="491" y="-18" font-family="Helvetica,sans-Serif" font-size="10.00">doris::EngineStorageMigration</text>
<text text-anchor="middle" x="556.5" y="-7" font-family="Helvetica,sans-Serif" font-size="10.00">Task::_migrate</text>
</a>
</g>
</g>
<!-- Node1&#45;&gt;Node6 -->
<g id="edge5" class="edge">
<title>Node1&#45;&gt;Node6</title>
<path fill="none" stroke="#63b8ff" d="M654.6,-34.14C646.9,-32.62 638.6,-30.98 630.22,-29.33"/>
<polygon fill="#63b8ff" stroke="#63b8ff" points="653.81,-37.55 664.3,-36.05 655.16,-30.68 653.81,-37.55"/>
</g>
<!-- Node3 -->
<g id="node3" class="node">
<title>Node3</title>
<g id="a_node3"><a xlink:href="../../d5/d7e/classdoris_1_1_tablet_manager.html#a2fd2409e22ebb0c874acaf4ff6c9ad3c" target="_top" xlink:title=" ">
<polygon fill="white" stroke="#666666" points="429,-89.5 318,-89.5 318,-48.5 429,-48.5 429,-89.5"/>
<text text-anchor="start" x="326" y="-77.5" font-family="Helvetica,sans-Serif" font-size="10.00">doris::TabletManager</text>
<text text-anchor="start" x="326" y="-66.5" font-family="Helvetica,sans-Serif" font-size="10.00">::_create_tablet_meta</text>
<text text-anchor="middle" x="373.5" y="-55.5" font-family="Helvetica,sans-Serif" font-size="10.00">_and_dir_unlocked</text>
</a>
</g>
</g>
<!-- Node2&#45;&gt;Node3 -->
<g id="edge2" class="edge">
<title>Node2&#45;&gt;Node3</title>
<path fill="none" stroke="#63b8ff" d="M489.34,-69C469.65,-69 448.31,-69 429.42,-69"/>
<polygon fill="#63b8ff" stroke="#63b8ff" points="489.19,-72.5 499.19,-69 489.19,-65.5 489.19,-72.5"/>
</g>
<!-- Node4 -->
<g id="node4" class="node">
<title>Node4</title>
<g id="a_node4"><a xlink:href="../../d5/d7e/classdoris_1_1_tablet_manager.html#af437770578d2d9dcdf67ec471b133920" target="_top" xlink:title=" ">
<polygon fill="white" stroke="#666666" points="264,-89.5 143,-89.5 143,-48.5 264,-48.5 264,-89.5"/>
<text text-anchor="start" x="151" y="-77.5" font-family="Helvetica,sans-Serif" font-size="10.00">doris::TabletManager</text>
<text text-anchor="start" x="151" y="-66.5" font-family="Helvetica,sans-Serif" font-size="10.00">::_internal_create_tablet</text>
<text text-anchor="middle" x="203.5" y="-55.5" font-family="Helvetica,sans-Serif" font-size="10.00">_unlocked</text>
</a>
</g>
</g>
<!-- Node3&#45;&gt;Node4 -->
<g id="edge3" class="edge">
<title>Node3&#45;&gt;Node4</title>
<path fill="none" stroke="#63b8ff" d="M306.47,-69C292.55,-69 277.95,-69 264.29,-69"/>
<polygon fill="#63b8ff" stroke="#63b8ff" points="306.44,-72.5 316.44,-69 306.44,-65.5 306.44,-72.5"/>
</g>
<!-- Node5 -->
<g id="node5" class="node">
<title>Node5</title>
<g id="a_node5"><a xlink:href="../../d5/d7e/classdoris_1_1_tablet_manager.html#acaef6cee5df07ed609d4c6ea89b9afaa" target="_top" xlink:title=" ">
<polygon fill="white" stroke="#666666" points="107,-84 0,-84 0,-54 107,-54 107,-84"/>
<text text-anchor="start" x="8" y="-72" font-family="Helvetica,sans-Serif" font-size="10.00">doris::TabletManager</text>
<text text-anchor="middle" x="53.5" y="-61" font-family="Helvetica,sans-Serif" font-size="10.00">::create_tablet</text>
</a>
</g>
</g>
<!-- Node4&#45;&gt;Node5 -->
<g id="edge4" class="edge">
<title>Node4&#45;&gt;Node5</title>
<path fill="none" stroke="#63b8ff" d="M131.36,-69C123.27,-69 115.14,-69 107.34,-69"/>
<polygon fill="#63b8ff" stroke="#63b8ff" points="131.22,-72.5 141.22,-69 131.22,-65.5 131.22,-72.5"/>
</g>
<!-- Node7 -->
<g id="node7" class="node">
<title>Node7</title>
<g id="a_node7"><a xlink:href="../../d7/d96/classdoris_1_1_engine_storage_migration_task.html#a288fb86e2f2bfd41128d4766a01cebad" target="_top" xlink:title=" ">
<polygon fill="white" stroke="#666666" points="447,-30 300,-30 300,0 447,0 447,-30"/>
<text text-anchor="start" x="308" y="-18" font-family="Helvetica,sans-Serif" font-size="10.00">doris::EngineStorageMigration</text>
<text text-anchor="middle" x="373.5" y="-7" font-family="Helvetica,sans-Serif" font-size="10.00">Task::execute</text>
</a>
</g>
</g>
<!-- Node6&#45;&gt;Node7 -->
<g id="edge6" class="edge">
<title>Node6&#45;&gt;Node7</title>
<path fill="none" stroke="#63b8ff" d="M471.15,-15C463.24,-15 455.27,-15 447.48,-15"/>
<polygon fill="#63b8ff" stroke="#63b8ff" points="471.15,-18.5 481.15,-15 471.15,-11.5 471.15,-18.5"/>
</g>
</g>
</svg>
