<?xml version="1.0" encoding="UTF-8" standalone="no"?>
<!DOCTYPE svg PUBLIC "-//W3C//DTD SVG 1.1//EN"
 "http://www.w3.org/Graphics/SVG/1.1/DTD/svg11.dtd">
<!-- Generated by graphviz version 7.1.0 (20230121.1956)
 -->
<!-- Title: find_tablet_in_trash Pages: 1 -->
<svg width="415pt" height="188pt"
 viewBox="0.00 0.00 415.00 188.00" xmlns="http://www.w3.org/2000/svg" xmlns:xlink="http://www.w3.org/1999/xlink">
<g id="graph0" class="graph" transform="scale(1 1) rotate(0) translate(4 184)">
<title>find_tablet_in_trash</title>
<!-- Node1 -->
<g id="node1" class="node">
<title>Node1</title>
<g id="a_node1"><a xlink:title=" ">
<polygon fill="#999999" stroke="#666666" points="101,-105 0,-105 0,-86 101,-86 101,-105"/>
<text text-anchor="middle" x="50.5" y="-93" font-family="Helvetica,sans-Serif" font-size="10.00">find_tablet_in_trash</text>
</a>
</g>
</g>
<!-- Node2 -->
<g id="node2" class="node">
<title>Node2</title>
<g id="a_node2"><a xlink:href="../../d5/dca/classdoris_1_1_env.html#ab24c189602db2d904a63350aa1890c96" target="_top" xlink:title=" ">
<polygon fill="white" stroke="#666666" points="244.5,-180 146.5,-180 146.5,-161 244.5,-161 244.5,-180"/>
<text text-anchor="middle" x="195.5" y="-168" font-family="Helvetica,sans-Serif" font-size="10.00">doris::Env::Default</text>
</a>
</g>
</g>
<!-- Node1&#45;&gt;Node2 -->
<g id="edge1" class="edge">
<title>Node1&#45;&gt;Node2</title>
<path fill="none" stroke="#63b8ff" d="M63.85,-105.39C79.9,-117.84 109.15,-139.2 137,-152.5 140.11,-153.99 143.37,-155.39 146.69,-156.7"/>
<polygon fill="#63b8ff" stroke="#63b8ff" points="145.38,-159.95 155.98,-160.08 147.78,-153.37 145.38,-159.95"/>
</g>
<!-- Node3 -->
<g id="node3" class="node">
<title>Node3</title>
<g id="a_node3"><a xlink:href="../../d6/dcd/classdoris_1_1_file_utils.html#a3880284c9972026059d22f84b6f476ae" target="_top" xlink:title=" ">
<polygon fill="white" stroke="#666666" points="250,-143 141,-143 141,-124 250,-124 250,-143"/>
<text text-anchor="middle" x="195.5" y="-131" font-family="Helvetica,sans-Serif" font-size="10.00">doris::FileUtils::is_dir</text>
</a>
</g>
</g>
<!-- Node1&#45;&gt;Node3 -->
<g id="edge2" class="edge">
<title>Node1&#45;&gt;Node3</title>
<path fill="none" stroke="#63b8ff" d="M89.07,-105.48C106.56,-110.13 127.57,-115.72 146.22,-120.67"/>
<polygon fill="#63b8ff" stroke="#63b8ff" points="145.15,-124.01 155.72,-123.19 146.95,-117.24 145.15,-124.01"/>
</g>
<!-- Node5 -->
<g id="node5" class="node">
<title>Node5</title>
<g id="a_node5"><a xlink:href="../../d9/d8d/classdoris_1_1_status.html#a03cb7eaa663dc83af68bc28a596d09e6" target="_top" xlink:title=" ">
<polygon fill="white" stroke="#666666" points="393,-105 304,-105 304,-86 393,-86 393,-105"/>
<text text-anchor="middle" x="348.5" y="-93" font-family="Helvetica,sans-Serif" font-size="10.00">doris::Status::ok</text>
</a>
</g>
</g>
<!-- Node1&#45;&gt;Node5 -->
<g id="edge8" class="edge">
<title>Node1&#45;&gt;Node5</title>
<path fill="none" stroke="#63b8ff" d="M101.38,-95.5C154.29,-95.5 237.66,-95.5 292.46,-95.5"/>
<polygon fill="#63b8ff" stroke="#63b8ff" points="292.19,-99 302.19,-95.5 292.19,-92 292.19,-99"/>
</g>
<!-- Node6 -->
<g id="node6" class="node">
<title>Node6</title>
<g id="a_node6"><a xlink:href="../../d6/dcd/classdoris_1_1_file_utils.html#a4a57842b40ec54c78a9bf4b79c0c1798" target="_top" xlink:title=" ">
<polygon fill="white" stroke="#666666" points="244.5,-67.5 146.5,-67.5 146.5,-37.5 244.5,-37.5 244.5,-67.5"/>
<text text-anchor="start" x="154.5" y="-55.5" font-family="Helvetica,sans-Serif" font-size="10.00">doris::FileUtils::list</text>
<text text-anchor="middle" x="195.5" y="-44.5" font-family="Helvetica,sans-Serif" font-size="10.00">_files</text>
</a>
</g>
</g>
<!-- Node1&#45;&gt;Node6 -->
<g id="edge5" class="edge">
<title>Node1&#45;&gt;Node6</title>
<path fill="none" stroke="#63b8ff" d="M84.67,-85.53C99.77,-80.99 118.11,-75.47 135.44,-70.26"/>
<polygon fill="#63b8ff" stroke="#63b8ff" points="136.04,-73.73 144.61,-67.5 134.03,-67.03 136.04,-73.73"/>
</g>
<!-- Node9 -->
<g id="node9" class="node">
<title>Node9</title>
<g id="a_node9"><a xlink:href="../../d5/dca/classdoris_1_1_env.html#a08f65a57d7db0a34d0bfa63a792c8b61" target="_top" xlink:title=" ">
<polygon fill="white" stroke="#666666" points="254,-19 137,-19 137,0 254,0 254,-19"/>
<text text-anchor="middle" x="195.5" y="-7" font-family="Helvetica,sans-Serif" font-size="10.00">doris::Env::path_exists</text>
</a>
</g>
</g>
<!-- Node1&#45;&gt;Node9 -->
<g id="edge9" class="edge">
<title>Node1&#45;&gt;Node9</title>
<path fill="none" stroke="#63b8ff" d="M61.72,-85.53C76.96,-71.14 107.08,-44.53 137,-28.5 140.39,-26.68 143.99,-25 147.67,-23.44"/>
<polygon fill="#63b8ff" stroke="#63b8ff" points="148.64,-26.81 156.71,-19.95 146.12,-20.28 148.64,-26.81"/>
</g>
<!-- Node4 -->
<g id="node4" class="node">
<title>Node4</title>
<g id="a_node4"><a xlink:href="../../d5/dca/classdoris_1_1_env.html#aa17d481968b713d24833057758e15463" target="_top" xlink:title=" ">
<polygon fill="white" stroke="#666666" points="407,-143 290,-143 290,-124 407,-124 407,-143"/>
<text text-anchor="middle" x="348.5" y="-131" font-family="Helvetica,sans-Serif" font-size="10.00">doris::Env::is_directory</text>
</a>
</g>
</g>
<!-- Node3&#45;&gt;Node4 -->
<g id="edge3" class="edge">
<title>Node3&#45;&gt;Node4</title>
<path fill="none" stroke="#63b8ff" d="M250.16,-133.5C259.26,-133.5 268.83,-133.5 278.26,-133.5"/>
<polygon fill="#63b8ff" stroke="#63b8ff" points="278.14,-137 288.14,-133.5 278.14,-130 278.14,-137"/>
</g>
<!-- Node3&#45;&gt;Node5 -->
<g id="edge4" class="edge">
<title>Node3&#45;&gt;Node5</title>
<path fill="none" stroke="#63b8ff" d="M236.17,-123.52C254.74,-118.84 277.07,-113.22 296.84,-108.25"/>
<polygon fill="#63b8ff" stroke="#63b8ff" points="297.52,-111.69 306.36,-105.85 295.81,-104.9 297.52,-111.69"/>
</g>
<!-- Node7 -->
<g id="node7" class="node">
<title>Node7</title>
<g id="a_node7"><a xlink:href="../../d6/d94/namespacedoris.html#abc8627a7384ed54c8960b15bed3aab0d" target="_top" xlink:title=" ">
<polygon fill="white" stroke="#666666" points="406.5,-65 290.5,-65 290.5,-46 406.5,-46 406.5,-65"/>
<text text-anchor="middle" x="348.5" y="-53" font-family="Helvetica,sans-Serif" font-size="10.00">doris::is_dot_or_dotdot</text>
</a>
</g>
</g>
<!-- Node6&#45;&gt;Node7 -->
<g id="edge6" class="edge">
<title>Node6&#45;&gt;Node7</title>
<path fill="none" stroke="#63b8ff" d="M244.69,-53.46C255.5,-53.67 267.18,-53.9 278.64,-54.13"/>
<polygon fill="#63b8ff" stroke="#63b8ff" points="278.42,-57.63 288.49,-54.33 278.56,-50.63 278.42,-57.63"/>
</g>
<!-- Node8 -->
<g id="node8" class="node">
<title>Node8</title>
<g id="a_node8"><a xlink:href="../../d5/dca/classdoris_1_1_env.html#ab231585e8c30c4f62fc16a4ed173caeb" target="_top" xlink:title=" ">
<polygon fill="white" stroke="#666666" points="403.5,-28 293.5,-28 293.5,-9 403.5,-9 403.5,-28"/>
<text text-anchor="middle" x="348.5" y="-16" font-family="Helvetica,sans-Serif" font-size="10.00">doris::Env::iterate_dir</text>
</a>
</g>
</g>
<!-- Node6&#45;&gt;Node8 -->
<g id="edge7" class="edge">
<title>Node6&#45;&gt;Node8</title>
<path fill="none" stroke="#63b8ff" d="M244.69,-41.65C259.76,-38.26 276.51,-34.48 292.04,-30.99"/>
<polygon fill="#63b8ff" stroke="#63b8ff" points="292.63,-34.44 301.62,-28.83 291.09,-27.61 292.63,-34.44"/>
</g>
</g>
</svg>
