<?xml version="1.0" encoding="UTF-8" standalone="no"?>
<!DOCTYPE svg PUBLIC "-//W3C//DTD SVG 1.1//EN"
 "http://www.w3.org/Graphics/SVG/1.1/DTD/svg11.dtd">
<!-- Generated by graphviz version 7.1.0 (20230121.1956)
 -->
<!-- Title: perform_path_gc_by_tablet Pages: 1 -->
<!--zoomable 618 -->
<svg id="main" version="1.1" xmlns="http://www.w3.org/2000/svg" xmlns:xlink="http://www.w3.org/1999/xlink" xml:space="preserve" onload="init(evt)">
<style type="text/css"><![CDATA[
.edge:hover path { stroke: red; }
.edge:hover polygon { stroke: red; fill: red; }
]]></style>
<script type="text/javascript"><![CDATA[
var edges = document.getElementsByTagName('g');
if (edges && edges.length) {
  for (var i=0;i<edges.length;i++) {
    if (edges[i].id.substr(0,4)=='edge') {
      edges[i].setAttribute('class','edge');
    }
  }
}
]]></script>
        <defs>
                <circle id="rim" cx="0" cy="0" r="7"/>
                <circle id="rim2" cx="0" cy="0" r="3.5"/>
                <g id="zoomPlus">
                        <use xlink:href="#rim" fill="#404040">
                                <set attributeName="fill" to="#808080" begin="zoomplus.mouseover" end="zoomplus.mouseout"/>
                        </use>
                        <path d="M-4,0h8M0,-4v8" fill="none" stroke="white" stroke-width="1.5" pointer-events="none"/>
                </g>
                <g id="zoomMin">
                        <use xlink:href="#rim" fill="#404040">
                                <set attributeName="fill" to="#808080" begin="zoomminus.mouseover" end="zoomminus.mouseout"/>
                        </use>
                        <path d="M-4,0h8" fill="none" stroke="white" stroke-width="1.5" pointer-events="none"/>
                </g>
                <g id="dirArrow">
                        <path fill="none" stroke="white" stroke-width="1.5" d="M0,-3.0v7 M-2.5,-0.5L0,-3.0L2.5,-0.5"/>
                </g>
               <g id="resetDef">
                       <use xlink:href="#rim2" fill="#404040">
                               <set attributeName="fill" to="#808080" begin="reset.mouseover" end="reset.mouseout"/>
                       </use>
               </g>
        </defs>

<script type="text/javascript">
var viewWidth = 944;
var viewHeight = 618;
var sectionId = 'dynsection-33';
</script>
<script xlink:href="../../svgpan.js"/>
<svg id="graph" class="graph">
<g id="viewport">
<title>perform_path_gc_by_tablet</title>
<!-- Node1 -->
<g id="node1" class="node">
<title>Node1</title>
<g id="a_node1"><a xlink:title=" ">
<polygon fill="#999999" stroke="#666666" points="105,-452.35 0,-452.35 0,-422.35 105,-422.35 105,-452.35"/>
<text text-anchor="start" x="8" y="-440.35" font-family="Helvetica,sans-Serif" font-size="10.00">perform_path_gc_by</text>
<text text-anchor="middle" x="52.5" y="-429.35" font-family="Helvetica,sans-Serif" font-size="10.00">_tablet</text>
</a>
</g>
</g>
<!-- Node2 -->
<g id="node2" class="node">
<title>Node2</title>
<g id="a_node2"><a xlink:href="../../d7/d82/classdoris_1_1_storage_engine.html#acf0481208bc869e6a62f1156e39a6075" target="_top" xlink:title=" ">
<polygon fill="white" stroke="#666666" points="272,-581.35 165,-581.35 165,-551.35 272,-551.35 272,-581.35"/>
<text text-anchor="start" x="173" y="-569.35" font-family="Helvetica,sans-Serif" font-size="10.00">doris::StorageEngine</text>
<text text-anchor="middle" x="218.5" y="-558.35" font-family="Helvetica,sans-Serif" font-size="10.00">::get_store</text>
</a>
</g>
</g>
<!-- Node1&#45;&gt;Node2 -->
<g id="edge1" class="edge">
<title>Node1&#45;&gt;Node2</title>
<path fill="none" stroke="#63b8ff" d="M62.21,-452.58C76.03,-475.39 105.11,-518.33 141,-542.35 145.15,-545.13 149.63,-547.6 154.28,-549.79"/>
<polygon fill="#63b8ff" stroke="#63b8ff" points="152.67,-552.92 163.25,-553.58 155.4,-546.47 152.67,-552.92"/>
</g>
<!-- Node3 -->
<g id="node3" class="node">
<title>Node3</title>
<g id="a_node3"><a xlink:href="../../d5/d7e/classdoris_1_1_tablet_manager.html#a7d26de6462f5c33ff7ef2e194b1361e0" target="_top" xlink:title=" ">
<polygon fill="white" stroke="#666666" points="272,-533.35 165,-533.35 165,-503.35 272,-503.35 272,-533.35"/>
<text text-anchor="start" x="173" y="-521.35" font-family="Helvetica,sans-Serif" font-size="10.00">doris::TabletManager</text>
<text text-anchor="middle" x="218.5" y="-510.35" font-family="Helvetica,sans-Serif" font-size="10.00">::get_tablet</text>
</a>
</g>
</g>
<!-- Node1&#45;&gt;Node3 -->
<g id="edge2" class="edge">
<title>Node1&#45;&gt;Node3</title>
<path fill="none" stroke="#63b8ff" d="M73.43,-452.61C90.59,-465.18 116.4,-482.75 141,-494.35 145.18,-496.32 149.56,-498.19 154.02,-499.94"/>
<polygon fill="#63b8ff" stroke="#63b8ff" points="152.5,-503.11 163.09,-503.29 154.93,-496.54 152.5,-503.11"/>
</g>
<!-- Node4 -->
<g id="node4" class="node">
<title>Node4</title>
<g id="a_node4"><a xlink:href="../../d5/d7e/classdoris_1_1_tablet_manager.html#ab32a817a1f283ab6633f4e0921d02888" target="_top" xlink:title=" ">
<polygon fill="white" stroke="#666666" points="288,-484.85 149,-484.85 149,-443.85 288,-443.85 288,-484.85"/>
<text text-anchor="start" x="157" y="-472.85" font-family="Helvetica,sans-Serif" font-size="10.00">doris::TabletManager</text>
<text text-anchor="start" x="157" y="-461.85" font-family="Helvetica,sans-Serif" font-size="10.00">::get_tablet_id_and_schema</text>
<text text-anchor="middle" x="218.5" y="-450.85" font-family="Helvetica,sans-Serif" font-size="10.00">_hash_from_path</text>
</a>
</g>
</g>
<!-- Node1&#45;&gt;Node4 -->
<g id="edge3" class="edge">
<title>Node1&#45;&gt;Node4</title>
<path fill="none" stroke="#63b8ff" d="M105.39,-445.9C115.56,-447.57 126.45,-449.36 137.29,-451.15"/>
<polygon fill="#63b8ff" stroke="#63b8ff" points="136.61,-454.58 147.05,-452.76 137.75,-447.68 136.61,-454.58"/>
</g>
<!-- Node5 -->
<g id="node5" class="node">
<title>Node5</title>
<g id="a_node5"><a xlink:href="../../d7/d82/classdoris_1_1_storage_engine.html#a2a74d46f061869fa5465ac1269ef208f" target="_top" xlink:title=" ">
<polygon fill="white" stroke="#666666" points="272,-425.35 165,-425.35 165,-395.35 272,-395.35 272,-425.35"/>
<text text-anchor="start" x="173" y="-413.35" font-family="Helvetica,sans-Serif" font-size="10.00">doris::StorageEngine</text>
<text text-anchor="middle" x="218.5" y="-402.35" font-family="Helvetica,sans-Serif" font-size="10.00">::instance</text>
</a>
</g>
</g>
<!-- Node1&#45;&gt;Node5 -->
<g id="edge4" class="edge">
<title>Node1&#45;&gt;Node5</title>
<path fill="none" stroke="#63b8ff" d="M105.39,-428.81C120.57,-426.31 137.35,-423.55 153.2,-420.94"/>
<polygon fill="#63b8ff" stroke="#63b8ff" points="153.74,-424.4 163.04,-419.32 152.61,-417.49 153.74,-424.4"/>
</g>
<!-- Node6 -->
<g id="node6" class="node">
<title>Node6</title>
<g id="a_node6"><a xlink:href="../../d2/df7/classdoris_1_1_data_dir.html#ab00e03d2eef5a496bd9c62006fcaf9e1" target="_top" xlink:title=" ">
<polygon fill="white" stroke="#666666" points="236,-376.85 201,-376.85 201,-357.85 236,-357.85 236,-376.85"/>
<text text-anchor="middle" x="218.5" y="-364.85" font-family="Helvetica,sans-Serif" font-size="10.00">path</text>
</a>
</g>
</g>
<!-- Node1&#45;&gt;Node6 -->
<g id="edge5" class="edge">
<title>Node1&#45;&gt;Node6</title>
<path fill="none" stroke="#63b8ff" d="M75.62,-422.08C92.79,-410.82 117.54,-395.88 141,-386.35 156.61,-380.02 174.89,-375.38 189.67,-372.28"/>
<polygon fill="#63b8ff" stroke="#63b8ff" points="190.04,-375.77 199.17,-370.4 188.68,-368.91 190.04,-375.77"/>
</g>
<!-- Node7 -->
<g id="node7" class="node">
<title>Node7</title>
<g id="a_node7"><a xlink:href="../../d5/d7e/classdoris_1_1_tablet_manager.html#a6858ba3d88b0d21d9caea1969d79151a" target="_top" xlink:title=" ">
<polygon fill="white" stroke="#666666" points="296,-339.35 141,-339.35 141,-309.35 296,-309.35 296,-339.35"/>
<text text-anchor="start" x="149" y="-327.35" font-family="Helvetica,sans-Serif" font-size="10.00">doris::TabletManager</text>
<text text-anchor="middle" x="218.5" y="-316.35" font-family="Helvetica,sans-Serif" font-size="10.00">::try_delete_unused_tablet_path</text>
</a>
</g>
</g>
<!-- Node1&#45;&gt;Node7 -->
<g id="edge6" class="edge">
<title>Node1&#45;&gt;Node7</title>
<path fill="none" stroke="#63b8ff" d="M64.86,-422.1C80.13,-402.6 109.08,-369.01 141,-349.35 143.79,-347.64 146.71,-346.02 149.71,-344.51"/>
<polygon fill="#63b8ff" stroke="#63b8ff" points="151.14,-347.71 158.79,-340.38 148.24,-341.33 151.14,-347.71"/>
</g>
<!-- Node8 -->
<g id="node8" class="node">
<title>Node8</title>
<g id="a_node8"><a xlink:href="../../d5/d7e/classdoris_1_1_tablet_manager.html#a631956c6f906b8b20a34bd269d8ae03f" target="_top" xlink:title=" ">
<polygon fill="white" stroke="#666666" points="450,-530.35 343,-530.35 343,-500.35 450,-500.35 450,-530.35"/>
<text text-anchor="start" x="351" y="-518.35" font-family="Helvetica,sans-Serif" font-size="10.00">doris::TabletManager</text>
<text text-anchor="middle" x="396.5" y="-507.35" font-family="Helvetica,sans-Serif" font-size="10.00">::_get_tablets_shard</text>
</a>
</g>
</g>
<!-- Node7&#45;&gt;Node8 -->
<g id="edge7" class="edge">
<title>Node7&#45;&gt;Node8</title>
<path fill="none" stroke="#63b8ff" d="M283.92,-339.65C288.36,-342.37 292.47,-345.58 296,-349.35 340.46,-396.92 288.64,-442.79 332,-491.35 332.57,-492 333.17,-492.62 333.78,-493.23"/>
<polygon fill="#63b8ff" stroke="#63b8ff" points="331.39,-495.8 341.39,-499.3 335.75,-490.33 331.39,-495.8"/>
</g>
<!-- Node9 -->
<g id="node9" class="node">
<title>Node9</title>
<g id="a_node9"><a xlink:href="../../d5/dca/classdoris_1_1_env.html#ab24c189602db2d904a63350aa1890c96" target="_top" xlink:title=" ">
<polygon fill="white" stroke="#666666" points="771,-29.85 673,-29.85 673,-10.85 771,-10.85 771,-29.85"/>
<text text-anchor="middle" x="722" y="-17.85" font-family="Helvetica,sans-Serif" font-size="10.00">doris::Env::Default</text>
</a>
</g>
</g>
<!-- Node7&#45;&gt;Node9 -->
<g id="edge8" class="edge">
<title>Node7&#45;&gt;Node9</title>
<path fill="none" stroke="#63b8ff" d="M227.13,-309.19C254.66,-256.41 354.84,-80.48 497,-17.35 552.66,7.36 624.04,0.72 671.08,-8.17"/>
<polygon fill="#63b8ff" stroke="#63b8ff" points="670.22,-11.56 680.71,-10.1 671.59,-4.7 670.22,-11.56"/>
</g>
<!-- Node10 -->
<g id="node10" class="node">
<title>Node10</title>
<g id="a_node10"><a xlink:href="../../d5/dbe/classdoris_1_1_tablet_meta_manager.html#a33c960f9495b129fce711d8eca1848a4" target="_top" xlink:title=" ">
<polygon fill="white" stroke="#666666" points="461,-482.35 332,-482.35 332,-452.35 461,-452.35 461,-482.35"/>
<text text-anchor="start" x="340" y="-470.35" font-family="Helvetica,sans-Serif" font-size="10.00">doris::TabletMetaManager</text>
<text text-anchor="middle" x="396.5" y="-459.35" font-family="Helvetica,sans-Serif" font-size="10.00">::get_meta</text>
</a>
</g>
</g>
<!-- Node7&#45;&gt;Node10 -->
<g id="edge9" class="edge">
<title>Node7&#45;&gt;Node10</title>
<path fill="none" stroke="#63b8ff" d="M278.32,-339.8C284.53,-342.52 290.55,-345.68 296,-349.35 332.65,-374.06 363.37,-415.91 380.6,-442.56"/>
<polygon fill="#63b8ff" stroke="#63b8ff" points="377.42,-444.08 385.71,-450.68 383.34,-440.35 377.42,-444.08"/>
</g>
<!-- Node19 -->
<g id="node19" class="node">
<title>Node19</title>
<g id="a_node19"><a xlink:href="../../d9/d8d/classdoris_1_1_status.html#a03cb7eaa663dc83af68bc28a596d09e6" target="_top" xlink:title=" ">
<polygon fill="white" stroke="#666666" points="922,-347.85 833,-347.85 833,-328.85 922,-328.85 922,-347.85"/>
<text text-anchor="middle" x="877.5" y="-335.85" font-family="Helvetica,sans-Serif" font-size="10.00">doris::Status::ok</text>
</a>
</g>
</g>
<!-- Node7&#45;&gt;Node19 -->
<g id="edge44" class="edge">
<title>Node7&#45;&gt;Node19</title>
<path fill="none" stroke="#63b8ff" d="M296.47,-325.99C430.63,-328.85 704.12,-334.68 821.25,-337.18"/>
<polygon fill="#63b8ff" stroke="#63b8ff" points="821.17,-340.68 831.24,-337.39 821.32,-333.68 821.17,-340.68"/>
</g>
<!-- Node20 -->
<g id="node20" class="node">
<title>Node20</title>
<g id="a_node20"><a xlink:href="../../d2/df7/classdoris_1_1_data_dir.html#a20b762cf97988bbae3750e0b59278105" target="_top" xlink:title=" ">
<polygon fill="white" stroke="#666666" points="437,-247.85 356,-247.85 356,-228.85 437,-228.85 437,-247.85"/>
<text text-anchor="middle" x="396.5" y="-235.85" font-family="Helvetica,sans-Serif" font-size="10.00">move_to_trash</text>
</a>
</g>
</g>
<!-- Node7&#45;&gt;Node20 -->
<g id="edge20" class="edge">
<title>Node7&#45;&gt;Node20</title>
<path fill="none" stroke="#63b8ff" d="M250.97,-308.98C283.3,-293.18 333.3,-268.75 365.2,-253.16"/>
<polygon fill="#63b8ff" stroke="#63b8ff" points="366.46,-256.44 373.91,-248.9 363.39,-250.15 366.46,-256.44"/>
</g>
<!-- Node11 -->
<g id="node11" class="node">
<title>Node11</title>
<g id="a_node11"><a xlink:href="../../db/d7a/classdoris_1_1_olap_meta.html#a1b1114d4630b33ac5425c03dadfceced" target="_top" xlink:title=" ">
<polygon fill="white" stroke="#666666" points="613.5,-532.85 508.5,-532.85 508.5,-513.85 613.5,-513.85 613.5,-532.85"/>
<text text-anchor="middle" x="561" y="-520.85" font-family="Helvetica,sans-Serif" font-size="10.00">doris::OlapMeta::get</text>
</a>
</g>
</g>
<!-- Node10&#45;&gt;Node11 -->
<g id="edge10" class="edge">
<title>Node10&#45;&gt;Node11</title>
<path fill="none" stroke="#63b8ff" d="M438.51,-482.79C446,-485.63 453.74,-488.57 461,-491.35 477.03,-497.5 480.73,-499.88 497,-505.35 501.8,-506.97 506.83,-508.57 511.88,-510.1"/>
<polygon fill="#63b8ff" stroke="#63b8ff" points="510.81,-513.44 521.39,-512.93 512.8,-506.73 510.81,-513.44"/>
</g>
<!-- Node16 -->
<g id="node16" class="node">
<title>Node16</title>
<g id="a_node16"><a xlink:href="../../d2/df7/classdoris_1_1_data_dir.html#a15eec5ba694873208e49feaf77524ce2" target="_top" xlink:title=" ">
<polygon fill="white" stroke="#666666" points="589.5,-495.85 532.5,-495.85 532.5,-476.85 589.5,-476.85 589.5,-495.85"/>
<text text-anchor="middle" x="561" y="-483.85" font-family="Helvetica,sans-Serif" font-size="10.00">get_meta</text>
</a>
</g>
</g>
<!-- Node10&#45;&gt;Node16 -->
<g id="edge16" class="edge">
<title>Node10&#45;&gt;Node16</title>
<path fill="none" stroke="#63b8ff" d="M461.26,-474.81C481.29,-477.15 502.82,-479.67 520.64,-481.75"/>
<polygon fill="#63b8ff" stroke="#63b8ff" points="520.2,-485.22 530.54,-482.91 521.02,-478.27 520.2,-485.22"/>
</g>
<!-- Node17 -->
<g id="node17" class="node">
<title>Node17</title>
<g id="a_node17"><a xlink:href="../../d9/d8d/classdoris_1_1_status.html#ace9b93173e591beddd3fdc3de5a49d05" target="_top" xlink:title=" ">
<polygon fill="white" stroke="#666666" points="604,-589.85 518,-589.85 518,-570.85 604,-570.85 604,-589.85"/>
<text text-anchor="middle" x="561" y="-577.85" font-family="Helvetica,sans-Serif" font-size="10.00">doris::Status::is</text>
</a>
</g>
</g>
<!-- Node10&#45;&gt;Node17 -->
<g id="edge17" class="edge">
<title>Node10&#45;&gt;Node17</title>
<path fill="none" stroke="#63b8ff" d="M447.26,-482.77C452.12,-485.26 456.81,-488.11 461,-491.35 482.94,-508.34 476.69,-523.45 497,-542.35 506.42,-551.12 518.19,-558.88 529,-565.06"/>
<polygon fill="#63b8ff" stroke="#63b8ff" points="527.17,-568.05 537.63,-569.76 530.52,-561.9 527.17,-568.05"/>
</g>
<!-- Node10&#45;&gt;Node19 -->
<g id="edge19" class="edge">
<title>Node10&#45;&gt;Node19</title>
<path fill="none" stroke="#63b8ff" d="M461.3,-466.33C555.81,-463.93 727.78,-455.94 783,-429.35 803.67,-419.4 802.63,-408.43 819,-392.35 831.64,-379.93 846.2,-366.27 857.5,-355.8"/>
<polygon fill="#63b8ff" stroke="#63b8ff" points="859.68,-358.55 864.65,-349.19 854.93,-353.4 859.68,-358.55"/>
</g>
<!-- Node12 -->
<g id="node12" class="node">
<title>Node12</title>
<g id="a_node12"><a xlink:href="../../db/d40/classdoris_1_1_core_local_counter.html#a6c7e8662093760ffbf15dfa08ef03eb2" target="_top" xlink:title=" ">
<polygon fill="white" stroke="#666666" points="783,-506.35 661,-506.35 661,-476.35 783,-476.35 783,-506.35"/>
<text text-anchor="start" x="669" y="-494.35" font-family="Helvetica,sans-Serif" font-size="10.00">doris::CoreLocalCounter</text>
<text text-anchor="middle" x="722" y="-483.35" font-family="Helvetica,sans-Serif" font-size="10.00">::increment</text>
</a>
</g>
</g>
<!-- Node11&#45;&gt;Node12 -->
<g id="edge11" class="edge">
<title>Node11&#45;&gt;Node12</title>
<path fill="none" stroke="#63b8ff" d="M611.44,-513.4C623.49,-510.98 636.63,-508.33 649.49,-505.75"/>
<polygon fill="#63b8ff" stroke="#63b8ff" points="650.09,-509.2 659.2,-503.79 648.7,-502.33 650.09,-509.2"/>
</g>
<!-- Node13 -->
<g id="node13" class="node">
<title>Node13</title>
<g id="a_node13"><a xlink:href="../../d3/d7b/classdoris_1_1_doris_metrics.html#a4d0ce88513091aec833045b4eddeee8b" target="_top" xlink:title=" ">
<polygon fill="white" stroke="#666666" points="771.5,-554.35 672.5,-554.35 672.5,-524.35 771.5,-524.35 771.5,-554.35"/>
<text text-anchor="start" x="680.5" y="-542.35" font-family="Helvetica,sans-Serif" font-size="10.00">doris::DorisMetrics</text>
<text text-anchor="middle" x="722" y="-531.35" font-family="Helvetica,sans-Serif" font-size="10.00">::instance</text>
</a>
</g>
</g>
<!-- Node11&#45;&gt;Node13 -->
<g id="edge12" class="edge">
<title>Node11&#45;&gt;Node13</title>
<path fill="none" stroke="#63b8ff" d="M613.62,-528.55C628.73,-530.07 645.37,-531.74 660.95,-533.31"/>
<polygon fill="#63b8ff" stroke="#63b8ff" points="660.26,-536.76 670.56,-534.28 660.96,-529.79 660.26,-536.76"/>
</g>
<!-- Node14 -->
<g id="node14" class="node">
<title>Node14</title>
<g id="a_node14"><a xlink:href="../../d9/d8d/classdoris_1_1_status.html#a6ec1a217f203269ab53d2290d602db24" target="_top" xlink:title=" ">
<polygon fill="white" stroke="#666666" points="768,-419.85 676,-419.85 676,-400.85 768,-400.85 768,-419.85"/>
<text text-anchor="middle" x="722" y="-407.85" font-family="Helvetica,sans-Serif" font-size="10.00">doris::Status::OK</text>
</a>
</g>
</g>
<!-- Node11&#45;&gt;Node14 -->
<g id="edge14" class="edge">
<title>Node11&#45;&gt;Node14</title>
<path fill="none" stroke="#63b8ff" d="M607.96,-513.37C613.91,-511.18 619.75,-508.54 625,-505.35 644.89,-493.29 644.56,-483.82 661,-467.35 674.43,-453.91 690,-439.14 701.91,-428"/>
<polygon fill="#63b8ff" stroke="#63b8ff" points="704.17,-430.68 709.11,-421.31 699.4,-425.56 704.17,-430.68"/>
</g>
<!-- Node13&#45;&gt;Node13 -->
<g id="edge13" class="edge">
<title>Node13&#45;&gt;Node13</title>
<path fill="none" stroke="#63b8ff" d="M694.67,-554.63C688.59,-563.76 697.7,-572.35 722,-572.35 735.29,-572.35 744.03,-569.78 748.24,-565.96"/>
<polygon fill="#63b8ff" stroke="#63b8ff" points="751.71,-566.43 749.19,-556.14 744.74,-565.75 751.71,-566.43"/>
</g>
<!-- Node15 -->
<g id="node15" class="node">
<title>Node15</title>
<g id="a_node15"><a xlink:href="../../d9/d8d/classdoris_1_1_status.html#aafde58df1b2a6a91d5b674373be3ffc5" target="_top" xlink:title=" ">
<polygon fill="white" stroke="#666666" points="931,-419.85 824,-419.85 824,-400.85 931,-400.85 931,-419.85"/>
<text text-anchor="middle" x="877.5" y="-407.85" font-family="Helvetica,sans-Serif" font-size="10.00">doris::Status::Status</text>
</a>
</g>
</g>
<!-- Node14&#45;&gt;Node15 -->
<g id="edge15" class="edge">
<title>Node14&#45;&gt;Node15</title>
<path fill="none" stroke="#63b8ff" d="M768.22,-410.35C782.11,-410.35 797.66,-410.35 812.54,-410.35"/>
<polygon fill="#63b8ff" stroke="#63b8ff" points="812.25,-413.85 822.25,-410.35 812.25,-406.85 812.25,-413.85"/>
</g>
<!-- Node18 -->
<g id="node18" class="node">
<title>Node18</title>
<g id="a_node18"><a xlink:href="../../d9/d8d/classdoris_1_1_status.html#a4aebcfaf2368eb240cf5111cc6fc140b" target="_top" xlink:title=" ">
<polygon fill="white" stroke="#666666" points="771.5,-609.85 672.5,-609.85 672.5,-590.85 771.5,-590.85 771.5,-609.85"/>
<text text-anchor="middle" x="722" y="-597.85" font-family="Helvetica,sans-Serif" font-size="10.00">doris::Status::code</text>
</a>
</g>
</g>
<!-- Node17&#45;&gt;Node18 -->
<g id="edge18" class="edge">
<title>Node17&#45;&gt;Node18</title>
<path fill="none" stroke="#63b8ff" d="M604.19,-585.66C621.57,-587.85 642.02,-590.42 660.91,-592.8"/>
<polygon fill="#63b8ff" stroke="#63b8ff" points="660.27,-596.24 670.63,-594.02 661.14,-589.3 660.27,-596.24"/>
</g>
<!-- Node20&#45;&gt;Node9 -->
<g id="edge28" class="edge">
<title>Node20&#45;&gt;Node9</title>
<path fill="none" stroke="#63b8ff" d="M399.81,-228.74C407.59,-198.54 435.88,-104.97 497,-61.35 544.96,-27.12 613.01,-18.85 661.49,-17.92"/>
<polygon fill="#63b8ff" stroke="#63b8ff" points="661.27,-21.42 671.24,-17.84 661.22,-14.42 661.27,-21.42"/>
</g>
<!-- Node20&#45;&gt;Node14 -->
<g id="edge40" class="edge">
<title>Node20&#45;&gt;Node14</title>
<path fill="none" stroke="#63b8ff" d="M400.45,-248.09C409.53,-276.12 439.91,-357.18 497,-391.35 547.58,-421.63 616.45,-422.8 664.43,-418.66"/>
<polygon fill="#63b8ff" stroke="#63b8ff" points="664.73,-422.15 674.34,-417.69 664.04,-415.18 664.73,-422.15"/>
</g>
<!-- Node21 -->
<g id="node21" class="node">
<title>Node21</title>
<g id="a_node21"><a xlink:href="../../d6/dcd/classdoris_1_1_file_utils.html#a1cc140ec680ae7f7e362e96d1062eb57" target="_top" xlink:title=" ">
<polygon fill="white" stroke="#666666" points="617,-296.35 505,-296.35 505,-266.35 617,-266.35 617,-296.35"/>
<text text-anchor="start" x="513" y="-284.35" font-family="Helvetica,sans-Serif" font-size="10.00">doris::FileUtils::check</text>
<text text-anchor="middle" x="561" y="-273.35" font-family="Helvetica,sans-Serif" font-size="10.00">_exist</text>
</a>
</g>
</g>
<!-- Node20&#45;&gt;Node21 -->
<g id="edge21" class="edge">
<title>Node20&#45;&gt;Node21</title>
<path fill="none" stroke="#63b8ff" d="M435.19,-248.33C452.59,-252.93 473.78,-258.54 493.73,-263.82"/>
<polygon fill="#63b8ff" stroke="#63b8ff" points="492.62,-267.14 503.18,-266.32 494.41,-260.38 492.62,-267.14"/>
</g>
<!-- Node23 -->
<g id="node23" class="node">
<title>Node23</title>
<g id="a_node23"><a xlink:href="../../d6/dcd/classdoris_1_1_file_utils.html#a1d486c6d55867ab427baba4cc599441e" target="_top" xlink:title=" ">
<polygon fill="white" stroke="#666666" points="625,-88.85 497,-88.85 497,-69.85 625,-69.85 625,-88.85"/>
<text text-anchor="middle" x="561" y="-76.85" font-family="Helvetica,sans-Serif" font-size="10.00">doris::FileUtils::create_dir</text>
</a>
</g>
</g>
<!-- Node20&#45;&gt;Node23 -->
<g id="edge25" class="edge">
<title>Node20&#45;&gt;Node23</title>
<path fill="none" stroke="#63b8ff" d="M403.74,-228.5C418.12,-206.38 455.5,-151.94 497,-116.35 506.63,-108.09 518.36,-100.64 529.07,-94.62"/>
<polygon fill="#63b8ff" stroke="#63b8ff" points="530.44,-97.86 537.59,-90.03 527.13,-91.69 530.44,-97.86"/>
</g>
<!-- Node24 -->
<g id="node24" class="node">
<title>Node24</title>
<g id="a_node24"><a xlink:href="../../d5/dca/classdoris_1_1_env.html#a058eebee56c797f747472b98420bd901" target="_top" xlink:title=" ">
<polygon fill="white" stroke="#666666" points="615.5,-247.85 506.5,-247.85 506.5,-228.85 615.5,-228.85 615.5,-247.85"/>
<text text-anchor="middle" x="561" y="-235.85" font-family="Helvetica,sans-Serif" font-size="10.00">doris::Env::delete_dir</text>
</a>
</g>
</g>
<!-- Node20&#45;&gt;Node24 -->
<g id="edge29" class="edge">
<title>Node20&#45;&gt;Node24</title>
<path fill="none" stroke="#63b8ff" d="M437.25,-238.35C454.61,-238.35 475.42,-238.35 494.94,-238.35"/>
<polygon fill="#63b8ff" stroke="#63b8ff" points="494.73,-241.85 504.73,-238.35 494.73,-234.85 494.73,-241.85"/>
</g>
<!-- Node25 -->
<g id="node25" class="node">
<title>Node25</title>
<g id="a_node25"><a xlink:href="../../d6/d94/namespacedoris.html#adafcdf2b2de99efe152c10e9e36da432" target="_top" xlink:title=" ">
<polygon fill="white" stroke="#666666" points="616,-382.35 506,-382.35 506,-352.35 616,-352.35 616,-382.35"/>
<text text-anchor="start" x="514" y="-370.35" font-family="Helvetica,sans-Serif" font-size="10.00">doris::gen_timestamp</text>
<text text-anchor="middle" x="561" y="-359.35" font-family="Helvetica,sans-Serif" font-size="10.00">_string</text>
</a>
</g>
</g>
<!-- Node20&#45;&gt;Node25 -->
<g id="edge30" class="edge">
<title>Node20&#45;&gt;Node25</title>
<path fill="none" stroke="#63b8ff" d="M409.98,-248.26C435.84,-268.79 495.82,-316.41 531.62,-344.82"/>
<polygon fill="#63b8ff" stroke="#63b8ff" points="529.4,-347.53 539.41,-351.01 533.75,-342.05 529.4,-347.53"/>
</g>
<!-- Node26 -->
<g id="node26" class="node">
<title>Node26</title>
<g id="a_node26"><a xlink:href="../../d6/dcd/classdoris_1_1_file_utils.html#aa9245362d1d8fee546cc4bc07033a94e" target="_top" xlink:title=" ">
<polygon fill="white" stroke="#666666" points="610,-210.35 512,-210.35 512,-180.35 610,-180.35 610,-210.35"/>
<text text-anchor="start" x="520" y="-198.35" font-family="Helvetica,sans-Serif" font-size="10.00">doris::FileUtils::list</text>
<text text-anchor="middle" x="561" y="-187.35" font-family="Helvetica,sans-Serif" font-size="10.00">_dirs_files</text>
</a>
</g>
</g>
<!-- Node20&#45;&gt;Node26 -->
<g id="edge32" class="edge">
<title>Node20&#45;&gt;Node26</title>
<path fill="none" stroke="#63b8ff" d="M435.19,-228.38C454.68,-223.22 478.92,-216.81 500.84,-211.01"/>
<polygon fill="#63b8ff" stroke="#63b8ff" points="501.48,-214.46 510.25,-208.52 499.69,-207.69 501.48,-214.46"/>
</g>
<!-- Node32 -->
<g id="node32" class="node">
<title>Node32</title>
<g id="a_node32"><a xlink:href="../../d7/d7e/classdoris_1_1_errno.html#af40cf93303f30d6b5c6b28122467fbb1" target="_top" xlink:title=" ">
<polygon fill="white" stroke="#666666" points="603,-143.85 519,-143.85 519,-124.85 603,-124.85 603,-143.85"/>
<text text-anchor="middle" x="561" y="-131.85" font-family="Helvetica,sans-Serif" font-size="10.00">doris::Errno::str</text>
</a>
</g>
</g>
<!-- Node20&#45;&gt;Node32 -->
<g id="edge41" class="edge">
<title>Node20&#45;&gt;Node32</title>
<path fill="none" stroke="#63b8ff" d="M411.49,-228.54C430.58,-215.23 465.98,-190.88 497,-171.35 508.59,-164.06 521.61,-156.34 532.79,-149.85"/>
<polygon fill="#63b8ff" stroke="#63b8ff" points="534.22,-153.06 541.13,-145.03 530.72,-147 534.22,-153.06"/>
</g>
<!-- Node21&#45;&gt;Node9 -->
<g id="edge22" class="edge">
<title>Node21&#45;&gt;Node9</title>
<path fill="none" stroke="#63b8ff" d="M615.7,-265.87C619.17,-263.44 622.33,-260.62 625,-257.35 687.15,-181.32 596.7,-113.58 661,-39.35 661.82,-38.4 662.69,-37.5 663.6,-36.64"/>
<polygon fill="#63b8ff" stroke="#63b8ff" points="665.45,-39.63 671.53,-30.95 661.37,-33.94 665.45,-39.63"/>
</g>
<!-- Node21&#45;&gt;Node19 -->
<g id="edge23" class="edge">
<title>Node21&#45;&gt;Node19</title>
<path fill="none" stroke="#63b8ff" d="M617.47,-292.15C631.66,-294.87 646.89,-297.76 661,-300.35 715.53,-310.39 777.93,-321.34 821.5,-328.89"/>
<polygon fill="#63b8ff" stroke="#63b8ff" points="820.77,-332.32 831.22,-330.57 821.97,-325.42 820.77,-332.32"/>
</g>
<!-- Node22 -->
<g id="node22" class="node">
<title>Node22</title>
<g id="a_node22"><a xlink:href="../../d5/dca/classdoris_1_1_env.html#a08f65a57d7db0a34d0bfa63a792c8b61" target="_top" xlink:title=" ">
<polygon fill="white" stroke="#666666" points="780.5,-290.85 663.5,-290.85 663.5,-271.85 780.5,-271.85 780.5,-290.85"/>
<text text-anchor="middle" x="722" y="-278.85" font-family="Helvetica,sans-Serif" font-size="10.00">doris::Env::path_exists</text>
</a>
</g>
</g>
<!-- Node21&#45;&gt;Node22 -->
<g id="edge24" class="edge">
<title>Node21&#45;&gt;Node22</title>
<path fill="none" stroke="#63b8ff" d="M617.16,-281.35C628.33,-281.35 640.21,-281.35 651.79,-281.35"/>
<polygon fill="#63b8ff" stroke="#63b8ff" points="651.72,-284.85 661.72,-281.35 651.72,-277.85 651.72,-284.85"/>
</g>
<!-- Node23&#45;&gt;Node9 -->
<g id="edge27" class="edge">
<title>Node23&#45;&gt;Node9</title>
<path fill="none" stroke="#63b8ff" d="M589.11,-69.4C600.28,-65.2 613.31,-60.17 625,-55.35 641.19,-48.68 644.63,-45.56 661,-39.35 665.97,-37.47 671.23,-35.61 676.47,-33.84"/>
<polygon fill="#63b8ff" stroke="#63b8ff" points="677.28,-37.26 685.7,-30.82 675.1,-30.61 677.28,-37.26"/>
</g>
<!-- Node23&#45;&gt;Node23 -->
<g id="edge26" class="edge">
<title>Node23&#45;&gt;Node23</title>
<path fill="none" stroke="#63b8ff" d="M535.79,-89.22C524.3,-97.79 532.7,-106.85 561,-106.85 576.92,-106.85 586.54,-103.99 589.87,-99.95"/>
<polygon fill="#63b8ff" stroke="#63b8ff" points="593.24,-98.99 586.69,-90.65 586.61,-101.25 593.24,-98.99"/>
</g>
<!-- Node25&#45;&gt;Node14 -->
<g id="edge31" class="edge">
<title>Node25&#45;&gt;Node14</title>
<path fill="none" stroke="#63b8ff" d="M616.27,-382.03C634.81,-387.05 655.39,-392.61 673.36,-397.47"/>
<polygon fill="#63b8ff" stroke="#63b8ff" points="672.44,-400.85 683,-400.08 674.26,-394.09 672.44,-400.85"/>
</g>
<!-- Node27 -->
<g id="node27" class="node">
<title>Node27</title>
<g id="a_node27"><a xlink:href="../../d6/dcd/classdoris_1_1_file_utils.html#a3880284c9972026059d22f84b6f476ae" target="_top" xlink:title=" ">
<polygon fill="white" stroke="#666666" points="776.5,-253.85 667.5,-253.85 667.5,-234.85 776.5,-234.85 776.5,-253.85"/>
<text text-anchor="middle" x="722" y="-241.85" font-family="Helvetica,sans-Serif" font-size="10.00">doris::FileUtils::is_dir</text>
</a>
</g>
</g>
<!-- Node26&#45;&gt;Node27 -->
<g id="edge33" class="edge">
<title>Node26&#45;&gt;Node27</title>
<path fill="none" stroke="#63b8ff" d="M610.14,-210.19C631.68,-216.83 656.87,-224.59 677.8,-231.04"/>
<polygon fill="#63b8ff" stroke="#63b8ff" points="676.59,-234.33 687.17,-233.93 678.65,-227.64 676.59,-234.33"/>
</g>
<!-- Node28 -->
<g id="node28" class="node">
<title>Node28</title>
<g id="a_node28"><a xlink:href="../../d5/dca/classdoris_1_1_env.html#aa17d481968b713d24833057758e15463" target="_top" xlink:title=" ">
<polygon fill="white" stroke="#666666" points="936,-234.85 819,-234.85 819,-215.85 936,-215.85 936,-234.85"/>
<text text-anchor="middle" x="877.5" y="-222.85" font-family="Helvetica,sans-Serif" font-size="10.00">doris::Env::is_directory</text>
</a>
</g>
</g>
<!-- Node26&#45;&gt;Node28 -->
<g id="edge36" class="edge">
<title>Node26&#45;&gt;Node28</title>
<path fill="none" stroke="#63b8ff" d="M610.45,-199.98C663.14,-205 747.79,-213.08 807.44,-218.77"/>
<polygon fill="#63b8ff" stroke="#63b8ff" points="806.85,-222.23 817.13,-219.69 807.51,-215.26 806.85,-222.23"/>
</g>
<!-- Node29 -->
<g id="node29" class="node">
<title>Node29</title>
<g id="a_node29"><a xlink:href="../../d6/d94/namespacedoris.html#abc8627a7384ed54c8960b15bed3aab0d" target="_top" xlink:title=" ">
<polygon fill="white" stroke="#666666" points="780,-177.85 664,-177.85 664,-158.85 780,-158.85 780,-177.85"/>
<text text-anchor="middle" x="722" y="-165.85" font-family="Helvetica,sans-Serif" font-size="10.00">doris::is_dot_or_dotdot</text>
</a>
</g>
</g>
<!-- Node26&#45;&gt;Node29 -->
<g id="edge37" class="edge">
<title>Node26&#45;&gt;Node29</title>
<path fill="none" stroke="#63b8ff" d="M610.14,-187.18C623.41,-184.93 638.07,-182.44 652.26,-180.03"/>
<polygon fill="#63b8ff" stroke="#63b8ff" points="652.74,-183.5 662.01,-178.37 651.57,-176.59 652.74,-183.5"/>
</g>
<!-- Node30 -->
<g id="node30" class="node">
<title>Node30</title>
<g id="a_node30"><a xlink:href="../../d5/dca/classdoris_1_1_env.html#ab231585e8c30c4f62fc16a4ed173caeb" target="_top" xlink:title=" ">
<polygon fill="white" stroke="#666666" points="777,-140.85 667,-140.85 667,-121.85 777,-121.85 777,-140.85"/>
<text text-anchor="middle" x="722" y="-128.85" font-family="Helvetica,sans-Serif" font-size="10.00">doris::Env::iterate_dir</text>
</a>
</g>
</g>
<!-- Node26&#45;&gt;Node30 -->
<g id="edge38" class="edge">
<title>Node26&#45;&gt;Node30</title>
<path fill="none" stroke="#63b8ff" d="M605.44,-179.88C612.07,-177.21 618.77,-174.33 625,-171.35 641.71,-163.36 644.07,-157.86 661,-150.35 665.27,-148.46 669.79,-146.67 674.35,-145"/>
<polygon fill="#63b8ff" stroke="#63b8ff" points="675.24,-148.4 683.55,-141.83 672.96,-141.78 675.24,-148.4"/>
</g>
<!-- Node31 -->
<g id="node31" class="node">
<title>Node31</title>
<g id="a_node31"><a xlink:href="../../d9/d8d/classdoris_1_1_status.html#aac993ecccd3d88aafefb6b8e3caa1dee" target="_top" xlink:title=" ">
<polygon fill="white" stroke="#666666" points="780,-103.85 664,-103.85 664,-84.85 780,-84.85 780,-103.85"/>
<text text-anchor="middle" x="722" y="-91.85" font-family="Helvetica,sans-Serif" font-size="10.00">doris::Status::to_string</text>
</a>
</g>
</g>
<!-- Node26&#45;&gt;Node31 -->
<g id="edge39" class="edge">
<title>Node26&#45;&gt;Node31</title>
<path fill="none" stroke="#63b8ff" d="M610.28,-180.81C615.54,-178.13 620.58,-175 625,-171.35 648.41,-152.05 637.05,-131.98 661,-113.35 662.93,-111.86 664.98,-110.47 667.11,-109.2"/>
<polygon fill="#63b8ff" stroke="#63b8ff" points="668.18,-112.58 675.54,-104.96 665.03,-106.33 668.18,-112.58"/>
</g>
<!-- Node27&#45;&gt;Node19 -->
<g id="edge35" class="edge">
<title>Node27&#45;&gt;Node19</title>
<path fill="none" stroke="#63b8ff" d="M761.63,-254.26C768.93,-256.78 776.35,-259.8 783,-263.35 811.9,-278.82 840.64,-303.66 858.47,-320.47"/>
<polygon fill="#63b8ff" stroke="#63b8ff" points="856.03,-322.97 865.66,-327.39 860.88,-317.93 856.03,-322.97"/>
</g>
<!-- Node27&#45;&gt;Node28 -->
<g id="edge34" class="edge">
<title>Node27&#45;&gt;Node28</title>
<path fill="none" stroke="#63b8ff" d="M776.69,-237.71C786.65,-236.47 797.2,-235.17 807.54,-233.89"/>
<polygon fill="#63b8ff" stroke="#63b8ff" points="807.67,-237.4 817.16,-232.7 806.81,-230.45 807.67,-237.4"/>
</g>
<!-- Node32&#45;&gt;Node32 -->
<g id="edge43" class="edge">
<title>Node32&#45;&gt;Node32</title>
<path fill="none" stroke="#63b8ff" d="M535.79,-144.22C524.3,-152.79 532.7,-161.85 561,-161.85 576.92,-161.85 586.54,-158.99 589.87,-154.95"/>
<polygon fill="#63b8ff" stroke="#63b8ff" points="593.24,-153.99 586.69,-145.65 586.61,-156.25 593.24,-153.99"/>
</g>
<!-- Node33 -->
<g id="node33" class="node">
<title>Node33</title>
<g id="a_node33"><a xlink:href="../../d7/d7e/classdoris_1_1_errno.html#a7d5e35926266fcfb0211b0dd501b30de" target="_top" xlink:title=" ">
<polygon fill="white" stroke="#666666" points="763.5,-66.85 680.5,-66.85 680.5,-47.85 763.5,-47.85 763.5,-66.85"/>
<text text-anchor="middle" x="722" y="-54.85" font-family="Helvetica,sans-Serif" font-size="10.00">doris::Errno::no</text>
</a>
</g>
</g>
<!-- Node32&#45;&gt;Node33 -->
<g id="edge42" class="edge">
<title>Node32&#45;&gt;Node33</title>
<path fill="none" stroke="#63b8ff" d="M603.41,-126.12C610.92,-123.64 618.44,-120.45 625,-116.35 645.29,-103.69 640.89,-89.31 661,-76.35 663.76,-74.58 666.69,-72.96 669.72,-71.48"/>
<polygon fill="#63b8ff" stroke="#63b8ff" points="671.06,-74.71 678.9,-67.59 668.33,-68.27 671.06,-74.71"/>
</g>
</g>
</svg>
        <g id="navigator" transform="translate(0 0)" fill="#404254">
                <rect fill="#f2f5e9" fill-opacity="0.5" stroke="#606060" stroke-width=".5" x="0" y="0" width="60" height="60"/>
                <use id="zoomplus" xlink:href="#zoomPlus" x="17" y="9" onmousedown="handleZoom(evt,'in')"/>
                <use id="zoomminus" xlink:href="#zoomMin" x="42" y="9" onmousedown="handleZoom(evt,'out')"/>
                <use id="reset" xlink:href="#resetDef" x="30" y="36" onmousedown="handleReset()"/>
                <g id="arrowUp" xlink:href="#dirArrow" transform="translate(30 24)" onmousedown="handlePan(0,-1)">
                  <use xlink:href="#rim" fill="#404040">
                        <set attributeName="fill" to="#808080" begin="arrowUp.mouseover" end="arrowUp.mouseout"/>
                  </use>
                  <path fill="none" stroke="white" stroke-width="1.5" d="M0,-3.0v7 M-2.5,-0.5L0,-3.0L2.5,-0.5"/>
                </g>
                <g id="arrowRight" xlink:href="#dirArrow" transform="rotate(90) translate(36 -43)" onmousedown="handlePan(1,0)">
                  <use xlink:href="#rim" fill="#404040">
                        <set attributeName="fill" to="#808080" begin="arrowRight.mouseover" end="arrowRight.mouseout"/>
                  </use>
                  <path fill="none" stroke="white" stroke-width="1.5" d="M0,-3.0v7 M-2.5,-0.5L0,-3.0L2.5,-0.5"/>
                </g>
                <g id="arrowDown" xlink:href="#dirArrow" transform="rotate(180) translate(-30 -48)" onmousedown="handlePan(0,1)">
                  <use xlink:href="#rim" fill="#404040">
                        <set attributeName="fill" to="#808080" begin="arrowDown.mouseover" end="arrowDown.mouseout"/>
                  </use>
                  <path fill="none" stroke="white" stroke-width="1.5" d="M0,-3.0v7 M-2.5,-0.5L0,-3.0L2.5,-0.5"/>
                </g>
                <g id="arrowLeft" xlink:href="#dirArrow" transform="rotate(270) translate(-36 17)" onmousedown="handlePan(-1,0)">
                  <use xlink:href="#rim" fill="#404040">
                        <set attributeName="fill" to="#808080" begin="arrowLeft.mouseover" end="arrowLeft.mouseout"/>
                  </use>
                  <path fill="none" stroke="white" stroke-width="1.5" d="M0,-3.0v7 M-2.5,-0.5L0,-3.0L2.5,-0.5"/>
                </g>
        </g>
        <svg viewBox="0 0 15 15" width="100%" height="30px" preserveAspectRatio="xMaxYMin meet">
         <g id="arrow_out" transform="scale(0.3 0.3)">
          <a xlink:href="classdoris_1_1_data_dir_add2dfd5ecbffed03dd0fd1d074dc0777_cgraph_org.svg" target="_base">
           <rect id="button" ry="5" rx="5" y="6" x="6" height="38" width="38"
                fill="#f2f5e9" fill-opacity="0.5" stroke="#606060" stroke-width="1.0"/>
           <path id="arrow"
             d="M 11.500037,31.436501 C 11.940474,20.09759 22.043105,11.32322 32.158766,21.979434 L 37.068811,17.246167 C 37.068811,17.246167 37.088388,32 37.088388,32 L 22.160133,31.978069 C 22.160133,31.978069 26.997745,27.140456 26.997745,27.140456 C 18.528582,18.264221 13.291696,25.230495 11.500037,31.436501 z"
             style="fill:#404040;"/>
          </a>
         </g>
        </svg>
</svg>
