<?xml version="1.0" encoding="UTF-8" standalone="no"?>
<!DOCTYPE svg PUBLIC "-//W3C//DTD SVG 1.1//EN"
 "http://www.w3.org/Graphics/SVG/1.1/DTD/svg11.dtd">
<!-- Generated by graphviz version 7.1.0 (20230121.1956)
 -->
<!-- Title: get_readable_profile Pages: 1 -->
<svg width="249pt" height="86pt"
 viewBox="0.00 0.00 249.00 86.00" xmlns="http://www.w3.org/2000/svg" xmlns:xlink="http://www.w3.org/1999/xlink">
<g id="graph0" class="graph" transform="scale(1 1) rotate(0) translate(4 82)">
<title>get_readable_profile</title>
<!-- Node1 -->
<g id="node1" class="node">
<title>Node1</title>
<g id="a_node1"><a xlink:title=" ">
<polygon fill="#999999" stroke="#666666" points="241,-48.5 137,-48.5 137,-29.5 241,-29.5 241,-48.5"/>
<text text-anchor="middle" x="189" y="-36.5" font-family="Helvetica,sans-Serif" font-size="10.00">get_readable_profile</text>
</a>
</g>
</g>
<!-- Node2 -->
<g id="node2" class="node">
<title>Node2</title>
<g id="a_node2"><a xlink:href="../../df/d5c/classdoris_1_1_heap_action.html#ac19cf1dfbfc14c0169018218471fd806" target="_top" xlink:title=" ">
<polygon fill="white" stroke="#666666" points="101,-78 0,-78 0,-48 101,-48 101,-78"/>
<text text-anchor="start" x="8" y="-66" font-family="Helvetica,sans-Serif" font-size="10.00">doris::HeapAction::</text>
<text text-anchor="middle" x="50.5" y="-55" font-family="Helvetica,sans-Serif" font-size="10.00">handle</text>
</a>
</g>
</g>
<!-- Node1&#45;&gt;Node2 -->
<g id="edge1" class="edge">
<title>Node1&#45;&gt;Node2</title>
<path fill="none" stroke="#63b8ff" d="M125.7,-49.95C117.49,-51.4 109.16,-52.86 101.19,-54.26"/>
<polygon fill="#63b8ff" stroke="#63b8ff" points="126.05,-53.45 135.29,-48.27 124.84,-46.55 126.05,-53.45"/>
</g>
<!-- Node3 -->
<g id="node3" class="node">
<title>Node3</title>
<g id="a_node3"><a xlink:href="../../d2/d06/classdoris_1_1_profile_action.html#ac19cf1dfbfc14c0169018218471fd806" target="_top" xlink:title=" ">
<polygon fill="white" stroke="#666666" points="100,-30 1,-30 1,0 100,0 100,-30"/>
<text text-anchor="start" x="9" y="-18" font-family="Helvetica,sans-Serif" font-size="10.00">doris::ProfileAction</text>
<text text-anchor="middle" x="50.5" y="-7" font-family="Helvetica,sans-Serif" font-size="10.00">::handle</text>
</a>
</g>
</g>
<!-- Node1&#45;&gt;Node3 -->
<g id="edge2" class="edge">
<title>Node1&#45;&gt;Node3</title>
<path fill="none" stroke="#63b8ff" d="M125.7,-28.05C117.17,-26.55 108.53,-25.03 100.29,-23.58"/>
<polygon fill="#63b8ff" stroke="#63b8ff" points="124.84,-31.45 135.29,-29.73 126.05,-24.55 124.84,-31.45"/>
</g>
</g>
</svg>
