<?xml version="1.0" encoding="UTF-8" standalone="no"?>
<!DOCTYPE svg PUBLIC "-//W3C//DTD SVG 1.1//EN"
 "http://www.w3.org/Graphics/SVG/1.1/DTD/svg11.dtd">
<!-- Generated by graphviz version 7.1.0 (20230121.1956)
 -->
<!-- Title: _build_key_ranges_and_filters Pages: 1 -->
<svg width="419pt" height="161pt"
 viewBox="0.00 0.00 419.00 161.00" xmlns="http://www.w3.org/2000/svg" xmlns:xlink="http://www.w3.org/1999/xlink">
<g id="graph0" class="graph" transform="scale(1 1) rotate(0) translate(4 157)">
<title>_build_key_ranges_and_filters</title>
<!-- Node1 -->
<g id="node1" class="node">
<title>Node1</title>
<g id="a_node1"><a xlink:title=" ">
<polygon fill="#999999" stroke="#666666" points="119,-91 0,-91 0,-61 119,-61 119,-91"/>
<text text-anchor="start" x="8" y="-79" font-family="Helvetica,sans-Serif" font-size="10.00">_build_key_ranges_and</text>
<text text-anchor="middle" x="59.5" y="-68" font-family="Helvetica,sans-Serif" font-size="10.00">_filters</text>
</a>
</g>
</g>
<!-- Node2 -->
<g id="node2" class="node">
<title>Node2</title>
<g id="a_node2"><a xlink:href="../../d5/d1a/classdoris_1_1_olap_scan_keys.html#a25c2cfe9f769dff3600c05e8cb7d6c8e" target="_top" xlink:title=" ">
<polygon fill="white" stroke="#666666" points="266,-153 157,-153 157,-123 266,-123 266,-153"/>
<text text-anchor="start" x="165" y="-141" font-family="Helvetica,sans-Serif" font-size="10.00">doris::OlapScanKeys</text>
<text text-anchor="middle" x="211.5" y="-130" font-family="Helvetica,sans-Serif" font-size="10.00">::has_range_value</text>
</a>
</g>
</g>
<!-- Node1&#45;&gt;Node2 -->
<g id="edge1" class="edge">
<title>Node1&#45;&gt;Node2</title>
<path fill="none" stroke="#63b8ff" d="M97.96,-91.49C117.55,-99.58 141.73,-109.57 162.65,-118.22"/>
<polygon fill="#63b8ff" stroke="#63b8ff" points="161.28,-121.44 171.85,-122.03 163.95,-114.97 161.28,-121.44"/>
</g>
<!-- Node3 -->
<g id="node3" class="node">
<title>Node3</title>
<g id="a_node3"><a xlink:href="../../d2/d49/classdoris_1_1_exec_node.html#a4f412c3ea0afe6ba533175e06ba71a69" target="_top" xlink:title=" ">
<polygon fill="white" stroke="#666666" points="268,-104.5 155,-104.5 155,-85.5 268,-85.5 268,-104.5"/>
<text text-anchor="middle" x="211.5" y="-92.5" font-family="Helvetica,sans-Serif" font-size="10.00">doris::ExecNode::limit</text>
</a>
</g>
</g>
<!-- Node1&#45;&gt;Node3 -->
<g id="edge2" class="edge">
<title>Node1&#45;&gt;Node3</title>
<path fill="none" stroke="#63b8ff" d="M119.35,-83.45C127.28,-84.46 135.45,-85.49 143.5,-86.51"/>
<polygon fill="#63b8ff" stroke="#63b8ff" points="142.9,-89.96 153.26,-87.75 143.77,-83.02 142.9,-89.96"/>
</g>
<!-- Node4 -->
<g id="node4" class="node">
<title>Node4</title>
<g id="a_node4"><a xlink:href="../../d9/d8d/classdoris_1_1_status.html#a6ec1a217f203269ab53d2290d602db24" target="_top" xlink:title=" ">
<polygon fill="white" stroke="#666666" points="257.5,-67.5 165.5,-67.5 165.5,-48.5 257.5,-48.5 257.5,-67.5"/>
<text text-anchor="middle" x="211.5" y="-55.5" font-family="Helvetica,sans-Serif" font-size="10.00">doris::Status::OK</text>
</a>
</g>
</g>
<!-- Node1&#45;&gt;Node4 -->
<g id="edge3" class="edge">
<title>Node1&#45;&gt;Node4</title>
<path fill="none" stroke="#63b8ff" d="M119.35,-68.94C130.8,-67.56 142.78,-66.13 154.15,-64.76"/>
<polygon fill="#63b8ff" stroke="#63b8ff" points="154.25,-68.27 163.77,-63.61 153.42,-61.32 154.25,-68.27"/>
</g>
<!-- Node6 -->
<g id="node6" class="node">
<title>Node6</title>
<g id="a_node6"><a xlink:href="../../d5/d1a/classdoris_1_1_olap_scan_keys.html#a3d49c019d5631f63b68bb185dce364f0" target="_top" xlink:title=" ">
<polygon fill="white" stroke="#666666" points="266,-30 157,-30 157,0 266,0 266,-30"/>
<text text-anchor="start" x="165" y="-18" font-family="Helvetica,sans-Serif" font-size="10.00">doris::OlapScanKeys</text>
<text text-anchor="middle" x="211.5" y="-7" font-family="Helvetica,sans-Serif" font-size="10.00">::set_is_convertible</text>
</a>
</g>
</g>
<!-- Node1&#45;&gt;Node6 -->
<g id="edge5" class="edge">
<title>Node1&#45;&gt;Node6</title>
<path fill="none" stroke="#63b8ff" d="M98.35,-60.61C117.64,-52.76 141.32,-43.13 161.94,-34.75"/>
<polygon fill="#63b8ff" stroke="#63b8ff" points="163.05,-38.07 171,-31.06 160.42,-31.59 163.05,-38.07"/>
</g>
<!-- Node5 -->
<g id="node5" class="node">
<title>Node5</title>
<g id="a_node5"><a xlink:href="../../d9/d8d/classdoris_1_1_status.html#aafde58df1b2a6a91d5b674373be3ffc5" target="_top" xlink:title=" ">
<polygon fill="white" stroke="#666666" points="411,-67.5 304,-67.5 304,-48.5 411,-48.5 411,-67.5"/>
<text text-anchor="middle" x="357.5" y="-55.5" font-family="Helvetica,sans-Serif" font-size="10.00">doris::Status::Status</text>
</a>
</g>
</g>
<!-- Node4&#45;&gt;Node5 -->
<g id="edge4" class="edge">
<title>Node4&#45;&gt;Node5</title>
<path fill="none" stroke="#63b8ff" d="M257.67,-58C268.62,-58 280.53,-58 292.18,-58"/>
<polygon fill="#63b8ff" stroke="#63b8ff" points="292.17,-61.5 302.17,-58 292.17,-54.5 292.17,-61.5"/>
</g>
</g>
</svg>
