<?xml version="1.0" encoding="UTF-8" standalone="no"?>
<!DOCTYPE svg PUBLIC "-//W3C//DTD SVG 1.1//EN"
 "http://www.w3.org/Graphics/SVG/1.1/DTD/svg11.dtd">
<!-- Generated by graphviz version 7.1.0 (20230121.1956)
 -->
<!-- Title: complete_unlocked Pages: 1 -->
<svg width="793pt" height="82pt"
 viewBox="0.00 0.00 793.00 82.00" xmlns="http://www.w3.org/2000/svg" xmlns:xlink="http://www.w3.org/1999/xlink">
<g id="graph0" class="graph" transform="scale(1 1) rotate(0) translate(4 78)">
<title>complete_unlocked</title>
<!-- Node1 -->
<g id="node1" class="node">
<title>Node1</title>
<g id="a_node1"><a xlink:title=" ">
<polygon fill="#999999" stroke="#666666" points="101,-55 0,-55 0,-36 101,-36 101,-55"/>
<text text-anchor="middle" x="50.5" y="-43" font-family="Helvetica,sans-Serif" font-size="10.00">complete_unlocked</text>
</a>
</g>
</g>
<!-- Node2 -->
<g id="node2" class="node">
<title>Node2</title>
<g id="a_node2"><a xlink:href="../../db/d15/classdoris_1_1io_1_1_file_block.html#a2dd67a7f9b7a4fadf70426177e9b43e3" target="_top" xlink:title=" ">
<polygon fill="white" stroke="#666666" points="239,-74 137,-74 137,-55 239,-55 239,-74"/>
<text text-anchor="middle" x="188" y="-62" font-family="Helvetica,sans-Serif" font-size="10.00">is_downloader_impl</text>
</a>
</g>
</g>
<!-- Node1&#45;&gt;Node2 -->
<g id="edge1" class="edge">
<title>Node1&#45;&gt;Node2</title>
<path fill="none" stroke="#63b8ff" d="M101.19,-52.47C109.09,-53.58 117.35,-54.73 125.49,-55.88"/>
<polygon fill="#63b8ff" stroke="#63b8ff" points="124.98,-59.34 135.37,-57.26 125.95,-52.41 124.98,-59.34"/>
</g>
<!-- Node4 -->
<g id="node4" class="node">
<title>Node4</title>
<g id="a_node4"><a xlink:href="../../db/d15/classdoris_1_1io_1_1_file_block.html#ab6bc56c5800c63c3fc8c9dbd41ae68c8" target="_top" xlink:title=" ">
<polygon fill="white" stroke="#666666" points="234.5,-37 141.5,-37 141.5,-18 234.5,-18 234.5,-37"/>
<text text-anchor="middle" x="188" y="-25" font-family="Helvetica,sans-Serif" font-size="10.00">reset_downloader</text>
</a>
</g>
</g>
<!-- Node1&#45;&gt;Node4 -->
<g id="edge3" class="edge">
<title>Node1&#45;&gt;Node4</title>
<path fill="none" stroke="#63b8ff" d="M101.19,-38.9C110.63,-37.64 120.58,-36.32 130.23,-35.04"/>
<polygon fill="#63b8ff" stroke="#63b8ff" points="130.41,-38.55 139.86,-33.76 129.49,-31.61 130.41,-38.55"/>
</g>
<!-- Node3 -->
<g id="node3" class="node">
<title>Node3</title>
<g id="a_node3"><a xlink:href="../../db/d15/classdoris_1_1io_1_1_file_block.html#ad06fe2663f03c71746e476a3abdd9fb3" target="_top" xlink:title=" ">
<polygon fill="white" stroke="#666666" points="368.5,-74 297.5,-74 297.5,-55 368.5,-55 368.5,-74"/>
<text text-anchor="middle" x="333" y="-62" font-family="Helvetica,sans-Serif" font-size="10.00">get_caller_id</text>
</a>
</g>
</g>
<!-- Node2&#45;&gt;Node3 -->
<g id="edge2" class="edge">
<title>Node2&#45;&gt;Node3</title>
<path fill="none" stroke="#63b8ff" d="M239.42,-64.5C254.52,-64.5 271,-64.5 285.81,-64.5"/>
<polygon fill="#63b8ff" stroke="#63b8ff" points="285.76,-68 295.76,-64.5 285.76,-61 285.76,-68"/>
</g>
<!-- Node4&#45;&gt;Node3 -->
<g id="edge4" class="edge">
<title>Node4&#45;&gt;Node3</title>
<path fill="none" stroke="#63b8ff" d="M227.32,-37.42C245.36,-42.08 267.01,-47.68 285.93,-52.58"/>
<polygon fill="#63b8ff" stroke="#63b8ff" points="284.98,-55.95 295.54,-55.07 286.73,-49.17 284.98,-55.95"/>
</g>
<!-- Node5 -->
<g id="node5" class="node">
<title>Node5</title>
<g id="a_node5"><a xlink:href="../../db/d15/classdoris_1_1io_1_1_file_block.html#a62a1292a82f5e77a85f888a40e42cdd2" target="_top" xlink:title=" ">
<polygon fill="white" stroke="#666666" points="391,-37 275,-37 275,-18 391,-18 391,-37"/>
<text text-anchor="middle" x="333" y="-25" font-family="Helvetica,sans-Serif" font-size="10.00">reset_downloader_impl</text>
</a>
</g>
</g>
<!-- Node4&#45;&gt;Node5 -->
<g id="edge5" class="edge">
<title>Node4&#45;&gt;Node5</title>
<path fill="none" stroke="#63b8ff" d="M234.64,-27.5C243.8,-27.5 253.62,-27.5 263.37,-27.5"/>
<polygon fill="#63b8ff" stroke="#63b8ff" points="263.23,-31 273.23,-27.5 263.23,-24 263.23,-31"/>
</g>
<!-- Node6 -->
<g id="node6" class="node">
<title>Node6</title>
<g id="a_node6"><a xlink:href="../../db/d15/classdoris_1_1io_1_1_file_block.html#a7f64bbe0fc0fbedada0f827b36bc0adc" target="_top" xlink:title=" ">
<polygon fill="white" stroke="#666666" points="491,-56 450,-56 450,-37 491,-37 491,-56"/>
<text text-anchor="middle" x="470.5" y="-44" font-family="Helvetica,sans-Serif" font-size="10.00">range</text>
</a>
</g>
</g>
<!-- Node5&#45;&gt;Node6 -->
<g id="edge6" class="edge">
<title>Node5&#45;&gt;Node6</title>
<path fill="none" stroke="#63b8ff" d="M391.46,-35.56C407.53,-37.81 424.39,-40.17 438.31,-42.13"/>
<polygon fill="#63b8ff" stroke="#63b8ff" points="437.8,-45.59 448.19,-43.51 438.77,-38.66 437.8,-45.59"/>
</g>
<!-- Node7 -->
<g id="node7" class="node">
<title>Node7</title>
<g id="a_node7"><a xlink:href="../../db/d15/classdoris_1_1io_1_1_file_block.html#ac9628431e71ae50c17952d3066f72c91" target="_top" xlink:title=" ">
<polygon fill="white" stroke="#666666" points="514,-19 427,-19 427,0 514,0 514,-19"/>
<text text-anchor="middle" x="470.5" y="-7" font-family="Helvetica,sans-Serif" font-size="10.00">set_downloaded</text>
</a>
</g>
</g>
<!-- Node5&#45;&gt;Node7 -->
<g id="edge7" class="edge">
<title>Node5&#45;&gt;Node7</title>
<path fill="none" stroke="#63b8ff" d="M391.46,-19.87C399.41,-18.81 407.55,-17.73 415.44,-16.68"/>
<polygon fill="#63b8ff" stroke="#63b8ff" points="415.8,-20.16 425.25,-15.38 414.87,-13.23 415.8,-20.16"/>
</g>
<!-- Node8 -->
<g id="node8" class="node">
<title>Node8</title>
<g id="a_node8"><a xlink:href="../../d9/d8d/classdoris_1_1_status.html#a6ec1a217f203269ab53d2290d602db24" target="_top" xlink:title=" ">
<polygon fill="white" stroke="#666666" points="642,-19 550,-19 550,0 642,0 642,-19"/>
<text text-anchor="middle" x="596" y="-7" font-family="Helvetica,sans-Serif" font-size="10.00">doris::Status::OK</text>
</a>
</g>
</g>
<!-- Node7&#45;&gt;Node8 -->
<g id="edge8" class="edge">
<title>Node7&#45;&gt;Node8</title>
<path fill="none" stroke="#63b8ff" d="M514.35,-9.5C522.11,-9.5 530.32,-9.5 538.41,-9.5"/>
<polygon fill="#63b8ff" stroke="#63b8ff" points="538.19,-13 548.19,-9.5 538.19,-6 538.19,-13"/>
</g>
<!-- Node9 -->
<g id="node9" class="node">
<title>Node9</title>
<g id="a_node9"><a xlink:href="../../d9/d8d/classdoris_1_1_status.html#aafde58df1b2a6a91d5b674373be3ffc5" target="_top" xlink:title=" ">
<polygon fill="white" stroke="#666666" points="785,-19 678,-19 678,0 785,0 785,-19"/>
<text text-anchor="middle" x="731.5" y="-7" font-family="Helvetica,sans-Serif" font-size="10.00">doris::Status::Status</text>
</a>
</g>
</g>
<!-- Node8&#45;&gt;Node9 -->
<g id="edge9" class="edge">
<title>Node8&#45;&gt;Node9</title>
<path fill="none" stroke="#63b8ff" d="M642.2,-9.5C649.91,-9.5 658.05,-9.5 666.15,-9.5"/>
<polygon fill="#63b8ff" stroke="#63b8ff" points="666,-13 676,-9.5 666,-6 666,-13"/>
</g>
</g>
</svg>
