<?xml version="1.0" encoding="UTF-8" standalone="no"?>
<!DOCTYPE svg PUBLIC "-//W3C//DTD SVG 1.1//EN"
 "http://www.w3.org/Graphics/SVG/1.1/DTD/svg11.dtd">
<!-- Generated by graphviz version 7.1.0 (20230121.1956)
 -->
<!-- Title: get_info_for_log Pages: 1 -->
<svg width="459pt" height="205pt"
 viewBox="0.00 0.00 459.00 204.50" xmlns="http://www.w3.org/2000/svg" xmlns:xlink="http://www.w3.org/1999/xlink">
<g id="graph0" class="graph" transform="scale(1 1) rotate(0) translate(4 200.5)">
<title>get_info_for_log</title>
<!-- Node1 -->
<g id="node1" class="node">
<title>Node1</title>
<g id="a_node1"><a xlink:title=" ">
<polygon fill="#999999" stroke="#666666" points="86,-104.5 0,-104.5 0,-85.5 86,-85.5 86,-104.5"/>
<text text-anchor="middle" x="43" y="-92.5" font-family="Helvetica,sans-Serif" font-size="10.00">get_info_for_log</text>
</a>
</g>
</g>
<!-- Node2 -->
<g id="node2" class="node">
<title>Node2</title>
<g id="a_node2"><a xlink:href="../../db/d15/classdoris_1_1io_1_1_file_block.html#a0ab040c547d02eb6d771ce4967602886" target="_top" xlink:title=" ">
<polygon fill="white" stroke="#666666" points="231,-104.5 122,-104.5 122,-85.5 231,-85.5 231,-104.5"/>
<text text-anchor="middle" x="176.5" y="-92.5" font-family="Helvetica,sans-Serif" font-size="10.00">get_info_for_log_impl</text>
</a>
</g>
</g>
<!-- Node1&#45;&gt;Node2 -->
<g id="edge1" class="edge">
<title>Node1&#45;&gt;Node2</title>
<path fill="none" stroke="#63b8ff" d="M86.33,-95C93.99,-95 102.13,-95 110.26,-95"/>
<polygon fill="#63b8ff" stroke="#63b8ff" points="110.18,-98.5 120.18,-95 110.18,-91.5 110.18,-98.5"/>
</g>
<!-- Node3 -->
<g id="node3" class="node">
<title>Node3</title>
<g id="a_node3"><a xlink:href="../../db/d15/classdoris_1_1io_1_1_file_block.html#ad06fe2663f03c71746e476a3abdd9fb3" target="_top" xlink:title=" ">
<polygon fill="white" stroke="#666666" points="357.5,-196.5 286.5,-196.5 286.5,-177.5 357.5,-177.5 357.5,-196.5"/>
<text text-anchor="middle" x="322" y="-184.5" font-family="Helvetica,sans-Serif" font-size="10.00">get_caller_id</text>
</a>
</g>
</g>
<!-- Node2&#45;&gt;Node3 -->
<g id="edge2" class="edge">
<title>Node2&#45;&gt;Node3</title>
<path fill="none" stroke="#63b8ff" d="M187.06,-105C202.52,-120.65 234.56,-151.01 267,-169 269.8,-170.55 272.75,-172 275.77,-173.34"/>
<polygon fill="#63b8ff" stroke="#63b8ff" points="274.21,-176.48 284.79,-176.95 276.81,-169.99 274.21,-176.48"/>
</g>
<!-- Node4 -->
<g id="node4" class="node">
<title>Node4</title>
<g id="a_node4"><a xlink:href="../../db/d15/classdoris_1_1io_1_1_file_block.html#ac1e5756abf280cda9c003b98d87d7107" target="_top" xlink:title=" ">
<polygon fill="white" stroke="#666666" points="377,-141.5 267,-141.5 267,-122.5 377,-122.5 377,-141.5"/>
<text text-anchor="middle" x="322" y="-129.5" font-family="Helvetica,sans-Serif" font-size="10.00">get_downloaded_size</text>
</a>
</g>
</g>
<!-- Node2&#45;&gt;Node4 -->
<g id="edge3" class="edge">
<title>Node2&#45;&gt;Node4</title>
<path fill="none" stroke="#63b8ff" d="M215.96,-104.92C233.01,-109.31 253.28,-114.54 271.45,-119.22"/>
<polygon fill="#63b8ff" stroke="#63b8ff" points="270.42,-122.57 280.97,-121.68 272.16,-115.79 270.42,-122.57"/>
</g>
<!-- Node5 -->
<g id="node5" class="node">
<title>Node5</title>
<g id="a_node5"><a xlink:href="../../db/d15/classdoris_1_1io_1_1_file_block.html#a7f64bbe0fc0fbedada0f827b36bc0adc" target="_top" xlink:title=" ">
<polygon fill="white" stroke="#666666" points="342.5,-104.5 301.5,-104.5 301.5,-85.5 342.5,-85.5 342.5,-104.5"/>
<text text-anchor="middle" x="322" y="-92.5" font-family="Helvetica,sans-Serif" font-size="10.00">range</text>
</a>
</g>
</g>
<!-- Node2&#45;&gt;Node5 -->
<g id="edge5" class="edge">
<title>Node2&#45;&gt;Node5</title>
<path fill="none" stroke="#63b8ff" d="M231.34,-95C251.24,-95 273.11,-95 290.27,-95"/>
<polygon fill="#63b8ff" stroke="#63b8ff" points="289.79,-98.5 299.79,-95 289.79,-91.5 289.79,-98.5"/>
</g>
<!-- Node6 -->
<g id="node6" class="node">
<title>Node6</title>
<g id="a_node6"><a xlink:href="../../db/d15/classdoris_1_1io_1_1_file_block.html#af91906f6fd32668cc94f470e18c8d0dc" target="_top" xlink:title=" ">
<polygon fill="white" stroke="#666666" points="362.5,-67.5 281.5,-67.5 281.5,-48.5 362.5,-48.5 362.5,-67.5"/>
<text text-anchor="middle" x="322" y="-55.5" font-family="Helvetica,sans-Serif" font-size="10.00">state_to_string</text>
</a>
</g>
</g>
<!-- Node2&#45;&gt;Node6 -->
<g id="edge6" class="edge">
<title>Node2&#45;&gt;Node6</title>
<path fill="none" stroke="#63b8ff" d="M215.96,-85.08C233.01,-80.69 253.28,-75.46 271.45,-70.78"/>
<polygon fill="#63b8ff" stroke="#63b8ff" points="272.16,-74.21 280.97,-68.32 270.42,-67.43 272.16,-74.21"/>
</g>
<!-- Node8 -->
<g id="node8" class="node">
<title>Node8</title>
<g id="a_node8"><a xlink:href="../../d5/d1f/structdoris_1_1io_1_1_file_block_1_1_range.html#aac993ecccd3d88aafefb6b8e3caa1dee" target="_top" xlink:title=" ">
<polygon fill="white" stroke="#666666" points="371,-30 273,-30 273,0 371,0 371,-30"/>
<text text-anchor="start" x="281" y="-18" font-family="Helvetica,sans-Serif" font-size="10.00">doris::io::FileBlock</text>
<text text-anchor="middle" x="322" y="-7" font-family="Helvetica,sans-Serif" font-size="10.00">::Range::to_string</text>
</a>
</g>
</g>
<!-- Node2&#45;&gt;Node8 -->
<g id="edge8" class="edge">
<title>Node2&#45;&gt;Node8</title>
<path fill="none" stroke="#63b8ff" d="M192.38,-85.1C209.89,-73.64 240,-54.48 267,-40 269.86,-38.47 272.83,-36.93 275.84,-35.42"/>
<polygon fill="#63b8ff" stroke="#63b8ff" points="277.32,-38.6 284.77,-31.07 274.25,-32.3 277.32,-38.6"/>
</g>
<!-- Node4&#45;&gt;Node4 -->
<g id="edge4" class="edge">
<title>Node4&#45;&gt;Node4</title>
<path fill="none" stroke="#63b8ff" d="M304.78,-141.87C296.92,-150.44 302.66,-159.5 322,-159.5 332.57,-159.5 339.08,-156.79 341.52,-152.93"/>
<polygon fill="#63b8ff" stroke="#63b8ff" points="344.99,-152.43 339.53,-143.35 338.14,-153.85 344.99,-152.43"/>
</g>
<!-- Node7 -->
<g id="node7" class="node">
<title>Node7</title>
<g id="a_node7"><a xlink:href="../../db/d15/classdoris_1_1io_1_1_file_block.html#a41b9d35863618059da5d2066b753325d" target="_top" xlink:title=" ">
<polygon fill="white" stroke="#666666" points="451,-67.5 413,-67.5 413,-48.5 451,-48.5 451,-67.5"/>
<text text-anchor="middle" x="432" y="-55.5" font-family="Helvetica,sans-Serif" font-size="10.00">state</text>
</a>
</g>
</g>
<!-- Node6&#45;&gt;Node7 -->
<g id="edge7" class="edge">
<title>Node6&#45;&gt;Node7</title>
<path fill="none" stroke="#63b8ff" d="M362.91,-58C375.57,-58 389.35,-58 401.18,-58"/>
<polygon fill="#63b8ff" stroke="#63b8ff" points="401.16,-61.5 411.16,-58 401.16,-54.5 401.16,-61.5"/>
</g>
</g>
</svg>
