<?xml version="1.0" encoding="UTF-8" standalone="no"?>
<!DOCTYPE svg PUBLIC "-//W3C//DTD SVG 1.1//EN"
 "http://www.w3.org/Graphics/SVG/1.1/DTD/svg11.dtd">
<!-- Generated by graphviz version 7.1.0 (20230121.1956)
 -->
<!-- Title: get_path_in_local_cache Pages: 1 -->
<!--zoomable 113 -->
<svg id="main" version="1.1" xmlns="http://www.w3.org/2000/svg" xmlns:xlink="http://www.w3.org/1999/xlink" xml:space="preserve" onload="init(evt)">
<style type="text/css"><![CDATA[
.edge:hover path { stroke: red; }
.edge:hover polygon { stroke: red; fill: red; }
]]></style>
<script type="text/javascript"><![CDATA[
var edges = document.getElementsByTagName('g');
if (edges && edges.length) {
  for (var i=0;i<edges.length;i++) {
    if (edges[i].id.substr(0,4)=='edge') {
      edges[i].setAttribute('class','edge');
    }
  }
}
]]></script>
        <defs>
                <circle id="rim" cx="0" cy="0" r="7"/>
                <circle id="rim2" cx="0" cy="0" r="3.5"/>
                <g id="zoomPlus">
                        <use xlink:href="#rim" fill="#404040">
                                <set attributeName="fill" to="#808080" begin="zoomplus.mouseover" end="zoomplus.mouseout"/>
                        </use>
                        <path d="M-4,0h8M0,-4v8" fill="none" stroke="white" stroke-width="1.5" pointer-events="none"/>
                </g>
                <g id="zoomMin">
                        <use xlink:href="#rim" fill="#404040">
                                <set attributeName="fill" to="#808080" begin="zoomminus.mouseover" end="zoomminus.mouseout"/>
                        </use>
                        <path d="M-4,0h8" fill="none" stroke="white" stroke-width="1.5" pointer-events="none"/>
                </g>
                <g id="dirArrow">
                        <path fill="none" stroke="white" stroke-width="1.5" d="M0,-3.0v7 M-2.5,-0.5L0,-3.0L2.5,-0.5"/>
                </g>
               <g id="resetDef">
                       <use xlink:href="#rim2" fill="#404040">
                               <set attributeName="fill" to="#808080" begin="reset.mouseover" end="reset.mouseout"/>
                       </use>
               </g>
        </defs>

<script type="text/javascript">
var viewWidth = 1108;
var viewHeight = 113;
var sectionId = 'dynsection-22';
</script>
<script xlink:href="../../svgpan.js"/>
<svg id="graph" class="graph">
<g id="viewport">
<title>get_path_in_local_cache</title>
<!-- Node1 -->
<g id="node1" class="node">
<title>Node1</title>
<g id="a_node1"><a xlink:title=" ">
<polygon fill="#999999" stroke="#666666" points="124,-56 0,-56 0,-37 124,-37 124,-56"/>
<text text-anchor="middle" x="62" y="-44" font-family="Helvetica,sans-Serif" font-size="10.00">get_path_in_local_cache</text>
</a>
</g>
</g>
<!-- Node2 -->
<g id="node2" class="node">
<title>Node2</title>
<g id="a_node2"><a xlink:href="../../df/dc4/classdoris_1_1io_1_1_i_file_cache.html#a4d09a4047f95b0143001f69f59548d30" target="_top" xlink:title=" ">
<polygon fill="white" stroke="#666666" points="290,-104.5 160,-104.5 160,-74.5 290,-74.5 290,-104.5"/>
<text text-anchor="start" x="168" y="-92.5" font-family="Helvetica,sans-Serif" font-size="10.00">doris::io::IFileCache</text>
<text text-anchor="middle" x="225" y="-81.5" font-family="Helvetica,sans-Serif" font-size="10.00">::get_path_in_local_cache</text>
</a>
</g>
</g>
<!-- Node1&#45;&gt;Node2 -->
<g id="edge1" class="edge">
<title>Node1&#45;&gt;Node2</title>
<path fill="none" stroke="#63b8ff" d="M100.34,-56.47C116.65,-60.83 136.31,-66.08 155.11,-71.1"/>
<polygon fill="#63b8ff" stroke="#63b8ff" points="154.02,-74.43 164.58,-73.63 155.83,-67.67 154.02,-74.43"/>
</g>
<!-- Node9 -->
<g id="node9" class="node">
<title>Node9</title>
<g id="a_node9"><a xlink:href="../../db/d15/classdoris_1_1io_1_1_file_block.html#ac08bec26397305de58d0d17659780606" target="_top" xlink:title=" ">
<polygon fill="white" stroke="#666666" points="241,-56 209,-56 209,-37 241,-37 241,-56"/>
<text text-anchor="middle" x="225" y="-44" font-family="Helvetica,sans-Serif" font-size="10.00">key</text>
</a>
</g>
</g>
<!-- Node1&#45;&gt;Node9 -->
<g id="edge8" class="edge">
<title>Node1&#45;&gt;Node9</title>
<path fill="none" stroke="#63b8ff" d="M124.33,-46.5C149.52,-46.5 177.38,-46.5 197.22,-46.5"/>
<polygon fill="#63b8ff" stroke="#63b8ff" points="197.21,-50 207.21,-46.5 197.21,-43 197.21,-50"/>
</g>
<!-- Node10 -->
<g id="node10" class="node">
<title>Node10</title>
<g id="a_node10"><a xlink:href="../../db/d15/classdoris_1_1io_1_1_file_block.html#ac8ec3479d32f236af2d973aae6790f66" target="_top" xlink:title=" ">
<polygon fill="white" stroke="#666666" points="245.5,-19 204.5,-19 204.5,0 245.5,0 245.5,-19"/>
<text text-anchor="middle" x="225" y="-7" font-family="Helvetica,sans-Serif" font-size="10.00">offset</text>
</a>
</g>
</g>
<!-- Node1&#45;&gt;Node10 -->
<g id="edge9" class="edge">
<title>Node1&#45;&gt;Node10</title>
<path fill="none" stroke="#63b8ff" d="M106.15,-36.58C133.52,-30.29 168.3,-22.3 192.97,-16.63"/>
<polygon fill="#63b8ff" stroke="#63b8ff" points="193.75,-20.04 202.71,-14.39 192.18,-13.22 193.75,-20.04"/>
</g>
<!-- Node3 -->
<g id="node3" class="node">
<title>Node3</title>
<g id="a_node3"><a xlink:href="../../d6/dbc/structdoris_1_1io_1_1_i_file_cache_1_1_key.html#aac993ecccd3d88aafefb6b8e3caa1dee" target="_top" xlink:title=" ">
<polygon fill="white" stroke="#666666" points="430,-104.5 326,-104.5 326,-74.5 430,-74.5 430,-104.5"/>
<text text-anchor="start" x="334" y="-92.5" font-family="Helvetica,sans-Serif" font-size="10.00">doris::io::IFileCache</text>
<text text-anchor="middle" x="378" y="-81.5" font-family="Helvetica,sans-Serif" font-size="10.00">::Key::to_string</text>
</a>
</g>
</g>
<!-- Node2&#45;&gt;Node3 -->
<g id="edge2" class="edge">
<title>Node2&#45;&gt;Node3</title>
<path fill="none" stroke="#63b8ff" d="M290.48,-89.5C298.34,-89.5 306.36,-89.5 314.2,-89.5"/>
<polygon fill="#63b8ff" stroke="#63b8ff" points="314,-93 324,-89.5 314,-86 314,-93"/>
</g>
<!-- Node4 -->
<g id="node4" class="node">
<title>Node4</title>
<g id="a_node4"><a xlink:href="../../d3/d1e/namespacedoris_1_1vectorized.html#ad9f51fdc3a247cb06430d03133c58b65" target="_top" xlink:title=" ">
<polygon fill="white" stroke="#666666" points="588,-104.5 466,-104.5 466,-74.5 588,-74.5 588,-104.5"/>
<text text-anchor="start" x="474" y="-92.5" font-family="Helvetica,sans-Serif" font-size="10.00">doris::vectorized::</text>
<text text-anchor="middle" x="527" y="-81.5" font-family="Helvetica,sans-Serif" font-size="10.00">get_hex_uint_lowercase</text>
</a>
</g>
</g>
<!-- Node3&#45;&gt;Node4 -->
<g id="edge3" class="edge">
<title>Node3&#45;&gt;Node4</title>
<path fill="none" stroke="#63b8ff" d="M430.41,-89.5C438.12,-89.5 446.19,-89.5 454.23,-89.5"/>
<polygon fill="#63b8ff" stroke="#63b8ff" points="454.02,-93 464.02,-89.5 454.02,-86 454.02,-93"/>
</g>
<!-- Node5 -->
<g id="node5" class="node">
<title>Node5</title>
<g id="a_node5"><a xlink:href="../../d3/d1e/namespacedoris_1_1vectorized.html#ab5333dc7859c1a9044f4accf4c489c1a" target="_top" xlink:title=" ">
<polygon fill="white" stroke="#666666" points="753,-104.5 624,-104.5 624,-74.5 753,-74.5 753,-104.5"/>
<text text-anchor="start" x="632" y="-92.5" font-family="Helvetica,sans-Serif" font-size="10.00">doris::vectorized::</text>
<text text-anchor="middle" x="688.5" y="-81.5" font-family="Helvetica,sans-Serif" font-size="10.00">write_hex_uint_lowercase</text>
</a>
</g>
</g>
<!-- Node4&#45;&gt;Node5 -->
<g id="edge4" class="edge">
<title>Node4&#45;&gt;Node5</title>
<path fill="none" stroke="#63b8ff" d="M588.3,-89.5C596.15,-89.5 604.28,-89.5 612.34,-89.5"/>
<polygon fill="#63b8ff" stroke="#63b8ff" points="612.14,-93 622.14,-89.5 612.14,-86 612.14,-93"/>
</g>
<!-- Node6 -->
<g id="node6" class="node">
<title>Node6</title>
<g id="a_node6"><a xlink:href="../../d3/d1e/namespacedoris_1_1vectorized.html#a028339088d0851c2265b7f3e65fd133d" target="_top" xlink:title="Produces hex representation of an unsigned int with leading zeros (for checksums)">
<polygon fill="white" stroke="#666666" points="892,-104.5 789,-104.5 789,-74.5 892,-74.5 892,-104.5"/>
<text text-anchor="start" x="797" y="-92.5" font-family="Helvetica,sans-Serif" font-size="10.00">doris::vectorized::</text>
<text text-anchor="middle" x="840.5" y="-81.5" font-family="Helvetica,sans-Serif" font-size="10.00">write_hex_uint_impl</text>
</a>
</g>
</g>
<!-- Node5&#45;&gt;Node6 -->
<g id="edge5" class="edge">
<title>Node5&#45;&gt;Node6</title>
<path fill="none" stroke="#63b8ff" d="M753.11,-89.5C761.05,-89.5 769.17,-89.5 777.09,-89.5"/>
<polygon fill="#63b8ff" stroke="#63b8ff" points="777,-93 787,-89.5 777,-86 777,-93"/>
</g>
<!-- Node7 -->
<g id="node7" class="node">
<title>Node7</title>
<g id="a_node7"><a xlink:href="../../d9/d1e/memcpy__aarch64_8cpp.html#a156c5821f16ed93be8c7d315303f7b2a" target="_top" xlink:title=" ">
<polygon fill="white" stroke="#666666" points="982,-99 928,-99 928,-80 982,-80 982,-99"/>
<text text-anchor="middle" x="955" y="-87" font-family="Helvetica,sans-Serif" font-size="10.00">memcpy</text>
</a>
</g>
</g>
<!-- Node6&#45;&gt;Node7 -->
<g id="edge6" class="edge">
<title>Node6&#45;&gt;Node7</title>
<path fill="none" stroke="#63b8ff" d="M892.48,-89.5C900.5,-89.5 908.65,-89.5 916.29,-89.5"/>
<polygon fill="#63b8ff" stroke="#63b8ff" points="916.27,-93 926.27,-89.5 916.27,-86 916.27,-93"/>
</g>
<!-- Node8 -->
<g id="node8" class="node">
<title>Node8</title>
<g id="a_node8"><a xlink:href="../../d9/d1e/memcpy__aarch64_8cpp.html#a11ebdd343428c466f2f35c376d7db6d0" target="_top" xlink:title=" ">
<polygon fill="white" stroke="#666666" points="1100,-99 1018,-99 1018,-80 1100,-80 1100,-99"/>
<text text-anchor="middle" x="1059" y="-87" font-family="Helvetica,sans-Serif" font-size="10.00">inline_memcpy</text>
</a>
</g>
</g>
<!-- Node7&#45;&gt;Node8 -->
<g id="edge7" class="edge">
<title>Node7&#45;&gt;Node8</title>
<path fill="none" stroke="#63b8ff" d="M982.27,-89.5C989.65,-89.5 997.95,-89.5 1006.28,-89.5"/>
<polygon fill="#63b8ff" stroke="#63b8ff" points="1006.05,-93 1016.05,-89.5 1006.05,-86 1006.05,-93"/>
</g>
<!-- Node11 -->
<g id="node11" class="node">
<title>Node11</title>
<g id="a_node11"><a xlink:href="../../db/d15/classdoris_1_1io_1_1_file_block.html#a7f64bbe0fc0fbedada0f827b36bc0adc" target="_top" xlink:title=" ">
<polygon fill="white" stroke="#666666" points="398.5,-19 357.5,-19 357.5,0 398.5,0 398.5,-19"/>
<text text-anchor="middle" x="378" y="-7" font-family="Helvetica,sans-Serif" font-size="10.00">range</text>
</a>
</g>
</g>
<!-- Node10&#45;&gt;Node11 -->
<g id="edge10" class="edge">
<title>Node10&#45;&gt;Node11</title>
<path fill="none" stroke="#63b8ff" d="M245.74,-9.5C271.18,-9.5 315.69,-9.5 345.74,-9.5"/>
<polygon fill="#63b8ff" stroke="#63b8ff" points="345.74,-13 355.74,-9.5 345.74,-6 345.74,-13"/>
</g>
</g>
</svg>
        <g id="navigator" transform="translate(0 0)" fill="#404254">
                <rect fill="#f2f5e9" fill-opacity="0.5" stroke="#606060" stroke-width=".5" x="0" y="0" width="60" height="60"/>
                <use id="zoomplus" xlink:href="#zoomPlus" x="17" y="9" onmousedown="handleZoom(evt,'in')"/>
                <use id="zoomminus" xlink:href="#zoomMin" x="42" y="9" onmousedown="handleZoom(evt,'out')"/>
                <use id="reset" xlink:href="#resetDef" x="30" y="36" onmousedown="handleReset()"/>
                <g id="arrowUp" xlink:href="#dirArrow" transform="translate(30 24)" onmousedown="handlePan(0,-1)">
                  <use xlink:href="#rim" fill="#404040">
                        <set attributeName="fill" to="#808080" begin="arrowUp.mouseover" end="arrowUp.mouseout"/>
                  </use>
                  <path fill="none" stroke="white" stroke-width="1.5" d="M0,-3.0v7 M-2.5,-0.5L0,-3.0L2.5,-0.5"/>
                </g>
                <g id="arrowRight" xlink:href="#dirArrow" transform="rotate(90) translate(36 -43)" onmousedown="handlePan(1,0)">
                  <use xlink:href="#rim" fill="#404040">
                        <set attributeName="fill" to="#808080" begin="arrowRight.mouseover" end="arrowRight.mouseout"/>
                  </use>
                  <path fill="none" stroke="white" stroke-width="1.5" d="M0,-3.0v7 M-2.5,-0.5L0,-3.0L2.5,-0.5"/>
                </g>
                <g id="arrowDown" xlink:href="#dirArrow" transform="rotate(180) translate(-30 -48)" onmousedown="handlePan(0,1)">
                  <use xlink:href="#rim" fill="#404040">
                        <set attributeName="fill" to="#808080" begin="arrowDown.mouseover" end="arrowDown.mouseout"/>
                  </use>
                  <path fill="none" stroke="white" stroke-width="1.5" d="M0,-3.0v7 M-2.5,-0.5L0,-3.0L2.5,-0.5"/>
                </g>
                <g id="arrowLeft" xlink:href="#dirArrow" transform="rotate(270) translate(-36 17)" onmousedown="handlePan(-1,0)">
                  <use xlink:href="#rim" fill="#404040">
                        <set attributeName="fill" to="#808080" begin="arrowLeft.mouseover" end="arrowLeft.mouseout"/>
                  </use>
                  <path fill="none" stroke="white" stroke-width="1.5" d="M0,-3.0v7 M-2.5,-0.5L0,-3.0L2.5,-0.5"/>
                </g>
        </g>
        <svg viewBox="0 0 15 15" width="100%" height="30px" preserveAspectRatio="xMaxYMin meet">
         <g id="arrow_out" transform="scale(0.3 0.3)">
          <a xlink:href="classdoris_1_1io_1_1_file_block_a502c550f2259bb527280440c711eea5b_cgraph_org.svg" target="_base">
           <rect id="button" ry="5" rx="5" y="6" x="6" height="38" width="38"
                fill="#f2f5e9" fill-opacity="0.5" stroke="#606060" stroke-width="1.0"/>
           <path id="arrow"
             d="M 11.500037,31.436501 C 11.940474,20.09759 22.043105,11.32322 32.158766,21.979434 L 37.068811,17.246167 C 37.068811,17.246167 37.088388,32 37.088388,32 L 22.160133,31.978069 C 22.160133,31.978069 26.997745,27.140456 26.997745,27.140456 C 18.528582,18.264221 13.291696,25.230495 11.500037,31.436501 z"
             style="fill:#404040;"/>
          </a>
         </g>
        </svg>
</svg>
