<?xml version="1.0" encoding="UTF-8" standalone="no"?>
<!DOCTYPE svg PUBLIC "-//W3C//DTD SVG 1.1//EN"
 "http://www.w3.org/Graphics/SVG/1.1/DTD/svg11.dtd">
<!-- Generated by graphviz version 7.1.0 (20230121.1956)
 -->
<!-- Title: merge Pages: 1 -->
<svg width="882pt" height="92pt"
 viewBox="0.00 0.00 882.00 91.50" xmlns="http://www.w3.org/2000/svg" xmlns:xlink="http://www.w3.org/1999/xlink">
<g id="graph0" class="graph" transform="scale(1 1) rotate(0) translate(4 87.5)">
<title>merge</title>
<!-- Node1 -->
<g id="node1" class="node">
<title>Node1</title>
<g id="a_node1"><a xlink:title=" ">
<polygon fill="#999999" stroke="#666666" points="874,-48.5 830,-48.5 830,-29.5 874,-29.5 874,-48.5"/>
<text text-anchor="middle" x="852" y="-36.5" font-family="Helvetica,sans-Serif" font-size="10.00">merge</text>
</a>
</g>
</g>
<!-- Node2 -->
<g id="node2" class="node">
<title>Node2</title>
<g id="a_node2"><a xlink:href="../../d9/dbc/classdoris_1_1vectorized_1_1_parquet_reader.html#af165bb4c8e53de264286bd80974083a4" target="_top" xlink:title=" ">
<polygon fill="white" stroke="#666666" points="794,-78 640,-78 640,-48 794,-48 794,-78"/>
<text text-anchor="start" x="648" y="-66" font-family="Helvetica,sans-Serif" font-size="10.00">doris::vectorized::</text>
<text text-anchor="middle" x="717" y="-55" font-family="Helvetica,sans-Serif" font-size="10.00">ParquetReader::get_next_block</text>
</a>
</g>
</g>
<!-- Node1&#45;&gt;Node2 -->
<g id="edge1" class="edge">
<title>Node1&#45;&gt;Node2</title>
<path fill="none" stroke="#63b8ff" d="M818.32,-44.9C810.9,-46.24 802.72,-47.71 794.32,-49.23"/>
<polygon fill="#63b8ff" stroke="#63b8ff" points="818.92,-48.35 828.14,-43.12 817.68,-41.46 818.92,-48.35"/>
</g>
<!-- Node7 -->
<g id="node7" class="node">
<title>Node7</title>
<g id="a_node7"><a xlink:href="../../d6/d6b/classdoris_1_1vectorized_1_1_row_group_reader.html#ada5c18af9fa3b604d8cd1c6a5a563fba" target="_top" xlink:title=" ">
<polygon fill="white" stroke="#666666" points="787,-30 647,-30 647,0 787,0 787,-30"/>
<text text-anchor="start" x="655" y="-18" font-family="Helvetica,sans-Serif" font-size="10.00">doris::vectorized::</text>
<text text-anchor="middle" x="717" y="-7" font-family="Helvetica,sans-Serif" font-size="10.00">RowGroupReader::statistics</text>
</a>
</g>
</g>
<!-- Node1&#45;&gt;Node7 -->
<g id="edge6" class="edge">
<title>Node1&#45;&gt;Node7</title>
<path fill="none" stroke="#63b8ff" d="M818.39,-33.12C808.92,-31.41 798.2,-29.47 787.37,-27.52"/>
<polygon fill="#63b8ff" stroke="#63b8ff" points="817.68,-36.54 828.14,-34.88 818.92,-29.65 817.68,-36.54"/>
</g>
<!-- Node3 -->
<g id="node3" class="node">
<title>Node3</title>
<g id="a_node3"><a xlink:href="../../d8/d31/classdoris_1_1vectorized_1_1_iceberg_table_reader.html#a941f875bf576c971aa18d7b5e99f3f14" target="_top" xlink:title=" ">
<polygon fill="white" stroke="#666666" points="604,-83.5 494,-83.5 494,-42.5 604,-42.5 604,-83.5"/>
<text text-anchor="start" x="502" y="-71.5" font-family="Helvetica,sans-Serif" font-size="10.00">doris::vectorized::</text>
<text text-anchor="start" x="502" y="-60.5" font-family="Helvetica,sans-Serif" font-size="10.00">IcebergTableReader::</text>
<text text-anchor="middle" x="549" y="-49.5" font-family="Helvetica,sans-Serif" font-size="10.00">_position_delete</text>
</a>
</g>
</g>
<!-- Node2&#45;&gt;Node3 -->
<g id="edge2" class="edge">
<title>Node2&#45;&gt;Node3</title>
<path fill="none" stroke="#63b8ff" d="M628.31,-63C620.19,-63 612.12,-63 604.43,-63"/>
<polygon fill="#63b8ff" stroke="#63b8ff" points="628.29,-66.5 638.29,-63 628.29,-59.5 628.29,-66.5"/>
</g>
<!-- Node4 -->
<g id="node4" class="node">
<title>Node4</title>
<g id="a_node4"><a xlink:href="../../d8/d31/classdoris_1_1vectorized_1_1_iceberg_table_reader.html#a21c3b95d2ae9cc928ea5af7abca15b5c" target="_top" xlink:title=" ">
<polygon fill="white" stroke="#666666" points="458,-83.5 348,-83.5 348,-42.5 458,-42.5 458,-83.5"/>
<text text-anchor="start" x="356" y="-71.5" font-family="Helvetica,sans-Serif" font-size="10.00">doris::vectorized::</text>
<text text-anchor="start" x="356" y="-60.5" font-family="Helvetica,sans-Serif" font-size="10.00">IcebergTableReader::</text>
<text text-anchor="middle" x="403" y="-49.5" font-family="Helvetica,sans-Serif" font-size="10.00">init_row_filters</text>
</a>
</g>
</g>
<!-- Node3&#45;&gt;Node4 -->
<g id="edge3" class="edge">
<title>Node3&#45;&gt;Node4</title>
<path fill="none" stroke="#63b8ff" d="M482.23,-63C474.13,-63 465.93,-63 458.04,-63"/>
<polygon fill="#63b8ff" stroke="#63b8ff" points="482.05,-66.5 492.05,-63 482.05,-59.5 482.05,-66.5"/>
</g>
<!-- Node5 -->
<g id="node5" class="node">
<title>Node5</title>
<g id="a_node5"><a xlink:href="../../db/dc6/classdoris_1_1vectorized_1_1_v_file_scanner.html#a09a15c6f9ac825028e713e8f2c33aeb4" target="_top" xlink:title=" ">
<polygon fill="white" stroke="#666666" points="312,-83.5 188,-83.5 188,-42.5 312,-42.5 312,-83.5"/>
<text text-anchor="start" x="196" y="-71.5" font-family="Helvetica,sans-Serif" font-size="10.00">doris::vectorized::</text>
<text text-anchor="start" x="196" y="-60.5" font-family="Helvetica,sans-Serif" font-size="10.00">VFileScanner::_get_next</text>
<text text-anchor="middle" x="250" y="-49.5" font-family="Helvetica,sans-Serif" font-size="10.00">_reader</text>
</a>
</g>
</g>
<!-- Node4&#45;&gt;Node5 -->
<g id="edge4" class="edge">
<title>Node4&#45;&gt;Node5</title>
<path fill="none" stroke="#63b8ff" d="M336.67,-63C328.62,-63 320.4,-63 312.41,-63"/>
<polygon fill="#63b8ff" stroke="#63b8ff" points="336.4,-66.5 346.4,-63 336.4,-59.5 336.4,-66.5"/>
</g>
<!-- Node6 -->
<g id="node6" class="node">
<title>Node6</title>
<g id="a_node6"><a xlink:href="../../db/dc6/classdoris_1_1vectorized_1_1_v_file_scanner.html#a20a1a7a021ac29e1f43fe0f6d1773460" target="_top" xlink:title=" ">
<polygon fill="white" stroke="#666666" points="152,-78 0,-78 0,-48 152,-48 152,-78"/>
<text text-anchor="start" x="8" y="-66" font-family="Helvetica,sans-Serif" font-size="10.00">doris::vectorized::</text>
<text text-anchor="middle" x="76" y="-55" font-family="Helvetica,sans-Serif" font-size="10.00">VFileScanner::_get_block_impl</text>
</a>
</g>
</g>
<!-- Node5&#45;&gt;Node6 -->
<g id="edge5" class="edge">
<title>Node5&#45;&gt;Node6</title>
<path fill="none" stroke="#63b8ff" d="M176.39,-63C168.45,-63 160.35,-63 152.38,-63"/>
<polygon fill="#63b8ff" stroke="#63b8ff" points="176.36,-66.5 186.36,-63 176.36,-59.5 176.36,-66.5"/>
</g>
</g>
</svg>
