<?xml version="1.0" encoding="UTF-8" standalone="no"?>
<!DOCTYPE svg PUBLIC "-//W3C//DTD SVG 1.1//EN"
 "http://www.w3.org/Graphics/SVG/1.1/DTD/svg11.dtd">
<!-- Generated by graphviz version 7.1.0 (20230121.1956)
 -->
<!-- Title: VArrayLiteral Pages: 1 -->
<svg width="154pt" height="215pt"
 viewBox="0.00 0.00 153.50 215.00" xmlns="http://www.w3.org/2000/svg" xmlns:xlink="http://www.w3.org/1999/xlink">
<g id="graph0" class="graph" transform="scale(1 1) rotate(0) translate(4 211)">
<title>VArrayLiteral</title>
<!-- Node1 -->
<g id="node1" class="node">
<title>Node1</title>
<g id="a_node1"><a xlink:title=" ">
<polygon fill="#999999" stroke="#666666" points="107,-19 36,-19 36,0 107,0 107,-19"/>
<text text-anchor="middle" x="71.5" y="-7" font-family="Helvetica,sans-Serif" font-size="10.00">VArrayLiteral</text>
</a>
</g>
</g>
<!-- Node2 -->
<g id="node2" class="node">
<title>Node2</title>
<g id="a_node2"><a xlink:href="../../d5/dc2/classdoris_1_1vectorized_1_1_v_literal.html" target="_top" xlink:title=" ">
<polygon fill="white" stroke="#666666" points="96.5,-75 46.5,-75 46.5,-56 96.5,-56 96.5,-75"/>
<text text-anchor="middle" x="71.5" y="-63" font-family="Helvetica,sans-Serif" font-size="10.00">VLiteral</text>
</a>
</g>
</g>
<!-- Node2&#45;&gt;Node1 -->
<g id="edge1" class="edge">
<title>Node2&#45;&gt;Node1</title>
<path fill="none" stroke="#63b8ff" d="M71.5,-44.11C71.5,-35.52 71.5,-25.97 71.5,-19.25"/>
<polygon fill="#63b8ff" stroke="#63b8ff" points="68,-44.07 71.5,-54.07 75,-44.07 68,-44.07"/>
</g>
<!-- Node3 -->
<g id="node3" class="node">
<title>Node3</title>
<g id="a_node3"><a xlink:href="../../d0/d2e/classdoris_1_1vectorized_1_1_v_expr.html" target="_top" xlink:title=" ">
<polygon fill="white" stroke="#666666" points="63.5,-141 19.5,-141 19.5,-122 63.5,-122 63.5,-141"/>
<text text-anchor="middle" x="41.5" y="-129" font-family="Helvetica,sans-Serif" font-size="10.00">VExpr</text>
</a>
</g>
</g>
<!-- Node3&#45;&gt;Node2 -->
<g id="edge2" class="edge">
<title>Node3&#45;&gt;Node2</title>
<path fill="none" stroke="#63b8ff" d="M50.5,-111.3C56.1,-99.35 63.03,-84.56 67.36,-75.32"/>
<polygon fill="#63b8ff" stroke="#63b8ff" points="47.39,-109.69 46.31,-120.23 53.73,-112.66 47.39,-109.69"/>
</g>
<!-- Node4 -->
<g id="node4" class="node">
<title>Node4</title>
<g id="a_node4"><a xlink:href="../../dd/dd0/structdoris_1_1_type_descriptor.html" target="_top" xlink:title=" ">
<polygon fill="white" stroke="#666666" points="83,-207 0,-207 0,-188 83,-188 83,-207"/>
<text text-anchor="middle" x="41.5" y="-195" font-family="Helvetica,sans-Serif" font-size="10.00">TypeDescriptor</text>
</a>
</g>
</g>
<!-- Node4&#45;&gt;Node3 -->
<g id="edge3" class="edge">
<title>Node4&#45;&gt;Node3</title>
<path fill="none" stroke="#9a32cd" stroke-dasharray="5,2" d="M41.5,-176.18C41.5,-164.44 41.5,-150.27 41.5,-141.32"/>
<polygon fill="#9a32cd" stroke="#9a32cd" points="38,-176.09 41.5,-186.09 45,-176.09 38,-176.09"/>
<text text-anchor="middle" x="55.5" y="-162" font-family="Helvetica,sans-Serif" font-size="10.00"> _type</text>
</g>
<!-- Node5 -->
<g id="node5" class="node">
<title>Node5</title>
<g id="a_node5"><a xlink:title=" ">
<polygon fill="white" stroke="#666666" points="123,-141 82,-141 82,-122 123,-122 123,-141"/>
<text text-anchor="middle" x="102.5" y="-129" font-family="Helvetica,sans-Serif" font-size="10.00">string</text>
</a>
</g>
</g>
<!-- Node5&#45;&gt;Node2 -->
<g id="edge4" class="edge">
<title>Node5&#45;&gt;Node2</title>
<path fill="none" stroke="#9a32cd" stroke-dasharray="5,2" d="M93.2,-111.3C87.41,-99.35 80.25,-84.56 75.77,-75.32"/>
<polygon fill="#9a32cd" stroke="#9a32cd" points="90.02,-112.76 97.53,-120.24 96.32,-109.71 90.02,-112.76"/>
<text text-anchor="middle" x="117" y="-96" font-family="Helvetica,sans-Serif" font-size="10.00"> _expr_name</text>
</g>
</g>
</svg>
