<?xml version="1.0" encoding="UTF-8" standalone="no"?>
<!DOCTYPE svg PUBLIC "-//W3C//DTD SVG 1.1//EN"
 "http://www.w3.org/Graphics/SVG/1.1/DTD/svg11.dtd">
<!-- Generated by graphviz version 7.1.0 (20230121.1956)
 -->
<!-- Title: operator&gt;&gt;= Pages: 1 -->
<svg width="331pt" height="76pt"
 viewBox="0.00 0.00 331.00 75.50" xmlns="http://www.w3.org/2000/svg" xmlns:xlink="http://www.w3.org/1999/xlink">
<g id="graph0" class="graph" transform="scale(1 1) rotate(0) translate(4 71.5)">
<title>operator&gt;&gt;=</title>
<!-- Node1 -->
<g id="node1" class="node">
<title>Node1</title>
<g id="a_node1"><a xlink:title=" ">
<polygon fill="#999999" stroke="#666666" points="70,-45.5 0,-45.5 0,-26.5 70,-26.5 70,-45.5"/>
<text text-anchor="middle" x="35" y="-33.5" font-family="Helvetica,sans-Serif" font-size="10.00">operator&gt;&gt;=</text>
</a>
</g>
</g>
<!-- Node2 -->
<g id="node2" class="node">
<title>Node2</title>
<g id="a_node2"><a xlink:href="../../d6/d94/namespacedoris.html#a8c21556d9c9324b18cf16b48e5d463ac" target="_top" xlink:title=" ">
<polygon fill="white" stroke="#666666" points="165,-45.5 106,-45.5 106,-26.5 165,-26.5 165,-45.5"/>
<text text-anchor="middle" x="135.5" y="-33.5" font-family="Helvetica,sans-Serif" font-size="10.00">doris::bits</text>
</a>
</g>
</g>
<!-- Node1&#45;&gt;Node2 -->
<g id="edge1" class="edge">
<title>Node1&#45;&gt;Node2</title>
<path fill="none" stroke="#63b8ff" d="M70.45,-36C78.2,-36 86.5,-36 94.46,-36"/>
<polygon fill="#63b8ff" stroke="#63b8ff" points="94.26,-39.5 104.26,-36 94.26,-32.5 94.26,-39.5"/>
</g>
<!-- Node3 -->
<g id="node3" class="node">
<title>Node3</title>
<g id="a_node3"><a xlink:href="../../d6/d94/namespacedoris.html#aa10a93abce1cf9d70aeebfc57efaa194" target="_top" xlink:title=" ">
<polygon fill="white" stroke="#666666" points="323,-67.5 201,-67.5 201,-48.5 323,-48.5 323,-67.5"/>
<text text-anchor="middle" x="262" y="-55.5" font-family="Helvetica,sans-Serif" font-size="10.00">doris::bits_less_than_64</text>
</a>
</g>
</g>
<!-- Node2&#45;&gt;Node3 -->
<g id="edge2" class="edge">
<title>Node2&#45;&gt;Node3</title>
<path fill="none" stroke="#63b8ff" d="M165.38,-41.1C173.94,-42.62 183.69,-44.34 193.62,-46.09"/>
<polygon fill="#63b8ff" stroke="#63b8ff" points="192.9,-49.52 203.36,-47.81 194.12,-42.63 192.9,-49.52"/>
</g>
<!-- Node4 -->
<g id="node4" class="node">
<title>Node4</title>
<g id="a_node4"><a xlink:href="../../d6/d94/namespacedoris.html#acd523f26c54bd05d8ae039eb53575e19" target="_top" xlink:title=" ">
<polygon fill="white" stroke="#666666" points="317,-30 207,-30 207,0 317,0 317,-30"/>
<text text-anchor="start" x="215" y="-18" font-family="Helvetica,sans-Serif" font-size="10.00">doris::bits_may_more</text>
<text text-anchor="middle" x="262" y="-7" font-family="Helvetica,sans-Serif" font-size="10.00">_than_64</text>
</a>
</g>
</g>
<!-- Node2&#45;&gt;Node4 -->
<g id="edge3" class="edge">
<title>Node2&#45;&gt;Node4</title>
<path fill="none" stroke="#63b8ff" d="M165.38,-31.13C174.55,-29.58 185.09,-27.8 195.75,-26.01"/>
<polygon fill="#63b8ff" stroke="#63b8ff" points="196.07,-29.5 205.35,-24.39 194.91,-22.6 196.07,-29.5"/>
</g>
</g>
</svg>
