<?xml version="1.0" encoding="UTF-8" standalone="no"?>
<!DOCTYPE svg PUBLIC "-//W3C//DTD SVG 1.1//EN"
 "http://www.w3.org/Graphics/SVG/1.1/DTD/svg11.dtd">
<!-- Generated by graphviz version 7.1.0 (20230121.1956)
 -->
<!-- Title: vector Pages: 1 -->
<!--zoomable 346 -->
<svg id="main" version="1.1" xmlns="http://www.w3.org/2000/svg" xmlns:xlink="http://www.w3.org/1999/xlink" xml:space="preserve" onload="init(evt)">
<style type="text/css"><![CDATA[
.edge:hover path { stroke: red; }
.edge:hover polygon { stroke: red; fill: red; }
]]></style>
<script type="text/javascript"><![CDATA[
var edges = document.getElementsByTagName('g');
if (edges && edges.length) {
  for (var i=0;i<edges.length;i++) {
    if (edges[i].id.substr(0,4)=='edge') {
      edges[i].setAttribute('class','edge');
    }
  }
}
]]></script>
        <defs>
                <circle id="rim" cx="0" cy="0" r="7"/>
                <circle id="rim2" cx="0" cy="0" r="3.5"/>
                <g id="zoomPlus">
                        <use xlink:href="#rim" fill="#404040">
                                <set attributeName="fill" to="#808080" begin="zoomplus.mouseover" end="zoomplus.mouseout"/>
                        </use>
                        <path d="M-4,0h8M0,-4v8" fill="none" stroke="white" stroke-width="1.5" pointer-events="none"/>
                </g>
                <g id="zoomMin">
                        <use xlink:href="#rim" fill="#404040">
                                <set attributeName="fill" to="#808080" begin="zoomminus.mouseover" end="zoomminus.mouseout"/>
                        </use>
                        <path d="M-4,0h8" fill="none" stroke="white" stroke-width="1.5" pointer-events="none"/>
                </g>
                <g id="dirArrow">
                        <path fill="none" stroke="white" stroke-width="1.5" d="M0,-3.0v7 M-2.5,-0.5L0,-3.0L2.5,-0.5"/>
                </g>
               <g id="resetDef">
                       <use xlink:href="#rim2" fill="#404040">
                               <set attributeName="fill" to="#808080" begin="reset.mouseover" end="reset.mouseout"/>
                       </use>
               </g>
        </defs>

<script type="text/javascript">
var viewWidth = 925;
var viewHeight = 346;
var sectionId = 'dynsection-0';
</script>
<script xlink:href="../../svgpan.js"/>
<svg id="graph" class="graph">
<g id="viewport">
<title>vector</title>
<!-- Node1 -->
<g id="node1" class="node">
<title>Node1</title>
<g id="a_node1"><a xlink:title=" ">
<polygon fill="#999999" stroke="#666666" points="44,-262.5 0,-262.5 0,-243.5 44,-243.5 44,-262.5"/>
<text text-anchor="middle" x="22" y="-250.5" font-family="Helvetica,sans-Serif" font-size="10.00">vector</text>
</a>
</g>
</g>
<!-- Node2 -->
<g id="node2" class="node">
<title>Node2</title>
<g id="a_node2"><a xlink:href="../../df/db2/classdoris_1_1vectorized_1_1_p_o_d_array.html#adc1e16b293a89a9ccc9541058b5ca560" target="_top" xlink:title=" ">
<polygon fill="white" stroke="#666666" points="185.5,-338 90.5,-338 90.5,-308 185.5,-308 185.5,-338"/>
<text text-anchor="start" x="98.5" y="-326" font-family="Helvetica,sans-Serif" font-size="10.00">doris::vectorized::</text>
<text text-anchor="middle" x="138" y="-315" font-family="Helvetica,sans-Serif" font-size="10.00">PODArray::data</text>
</a>
</g>
</g>
<!-- Node1&#45;&gt;Node2 -->
<g id="edge1" class="edge">
<title>Node1&#45;&gt;Node2</title>
<path fill="none" stroke="#63b8ff" d="M33.26,-262.78C44.19,-272.82 62.32,-288.43 80,-299 82.02,-300.21 84.1,-301.38 86.24,-302.52"/>
<polygon fill="#63b8ff" stroke="#63b8ff" points="84.57,-305.6 95.08,-306.92 87.69,-299.33 84.57,-305.6"/>
</g>
<!-- Node4 -->
<g id="node4" class="node">
<title>Node4</title>
<g id="a_node4"><a xlink:href="../../d3/d1e/namespacedoris_1_1vectorized.html#a3420d0ea6743e02484c758d3a6d178d0" target="_top" xlink:title=" ">
<polygon fill="white" stroke="#666666" points="185.5,-290 90.5,-290 90.5,-260 185.5,-260 185.5,-290"/>
<text text-anchor="start" x="98.5" y="-278" font-family="Helvetica,sans-Serif" font-size="10.00">doris::vectorized::</text>
<text text-anchor="middle" x="138" y="-267" font-family="Helvetica,sans-Serif" font-size="10.00">hex_encode</text>
</a>
</g>
</g>
<!-- Node1&#45;&gt;Node4 -->
<g id="edge3" class="edge">
<title>Node1&#45;&gt;Node4</title>
<path fill="none" stroke="#63b8ff" d="M44.44,-257.14C54.32,-259.04 66.57,-261.41 78.88,-263.78"/>
<polygon fill="#63b8ff" stroke="#63b8ff" points="78.18,-267.21 88.66,-265.67 79.51,-260.34 78.18,-267.21"/>
</g>
<!-- Node6 -->
<g id="node6" class="node">
<title>Node6</title>
<g id="a_node6"><a xlink:href="../../d9/d8d/classdoris_1_1_status.html#a6ec1a217f203269ab53d2290d602db24" target="_top" xlink:title=" ">
<polygon fill="white" stroke="#666666" points="184,-241.5 92,-241.5 92,-222.5 184,-222.5 184,-241.5"/>
<text text-anchor="middle" x="138" y="-229.5" font-family="Helvetica,sans-Serif" font-size="10.00">doris::Status::OK</text>
</a>
</g>
</g>
<!-- Node1&#45;&gt;Node6 -->
<g id="edge5" class="edge">
<title>Node1&#45;&gt;Node6</title>
<path fill="none" stroke="#63b8ff" d="M44.44,-249.05C54.72,-247.16 67.56,-244.79 80.38,-242.43"/>
<polygon fill="#63b8ff" stroke="#63b8ff" points="80.88,-245.9 90.08,-240.64 79.62,-239.01 80.88,-245.9"/>
</g>
<!-- Node8 -->
<g id="node8" class="node">
<title>Node8</title>
<g id="a_node8"><a xlink:href="../../d5/d9d/classdoris_1_1vectorized_1_1_p_o_d_array_base.html#a0c895d2dd381326acf54873d9d3a5aa5" target="_top" xlink:title=" ">
<polygon fill="white" stroke="#666666" points="196,-204 80,-204 80,-174 196,-174 196,-204"/>
<text text-anchor="start" x="88" y="-192" font-family="Helvetica,sans-Serif" font-size="10.00">doris::vectorized::</text>
<text text-anchor="middle" x="138" y="-181" font-family="Helvetica,sans-Serif" font-size="10.00">PODArrayBase::resize</text>
</a>
</g>
</g>
<!-- Node1&#45;&gt;Node8 -->
<g id="edge7" class="edge">
<title>Node1&#45;&gt;Node8</title>
<path fill="none" stroke="#63b8ff" d="M35.69,-243.3C46.96,-234.94 64.06,-222.84 80,-214 82.83,-212.43 85.79,-210.88 88.79,-209.37"/>
<polygon fill="#63b8ff" stroke="#63b8ff" points="90.24,-212.56 97.75,-205.08 87.21,-206.25 90.24,-212.56"/>
</g>
<!-- Node3 -->
<g id="node3" class="node">
<title>Node3</title>
<g id="a_node3"><a xlink:href="../../df/db2/classdoris_1_1vectorized_1_1_p_o_d_array.html#a8e612adde07f46d3398ac6962d676a66" target="_top" xlink:title=" ">
<polygon fill="white" stroke="#666666" points="352.5,-338 257.5,-338 257.5,-308 352.5,-308 352.5,-338"/>
<text text-anchor="start" x="265.5" y="-326" font-family="Helvetica,sans-Serif" font-size="10.00">doris::vectorized::</text>
<text text-anchor="middle" x="305" y="-315" font-family="Helvetica,sans-Serif" font-size="10.00">PODArray::t_start</text>
</a>
</g>
</g>
<!-- Node2&#45;&gt;Node3 -->
<g id="edge2" class="edge">
<title>Node2&#45;&gt;Node3</title>
<path fill="none" stroke="#63b8ff" d="M185.84,-323C204.48,-323 226.12,-323 245.75,-323"/>
<polygon fill="#63b8ff" stroke="#63b8ff" points="245.53,-326.5 255.53,-323 245.53,-319.5 245.53,-326.5"/>
</g>
<!-- Node5 -->
<g id="node5" class="node">
<title>Node5</title>
<g id="a_node5"><a xlink:href="../../de/d0a/classdoris_1_1simd_1_1_v_string_functions.html#a1c3a4bd0c4e69190f269f4d63c641bc0" target="_top" xlink:title=" ">
<polygon fill="white" stroke="#666666" points="378,-290 232,-290 232,-260 378,-260 378,-290"/>
<text text-anchor="start" x="240" y="-278" font-family="Helvetica,sans-Serif" font-size="10.00">doris::simd::VStringFunctions</text>
<text text-anchor="middle" x="305" y="-267" font-family="Helvetica,sans-Serif" font-size="10.00">::hex_encode</text>
</a>
</g>
</g>
<!-- Node4&#45;&gt;Node5 -->
<g id="edge4" class="edge">
<title>Node4&#45;&gt;Node5</title>
<path fill="none" stroke="#63b8ff" d="M185.84,-275C196.67,-275 208.52,-275 220.39,-275"/>
<polygon fill="#63b8ff" stroke="#63b8ff" points="220.24,-278.5 230.24,-275 220.24,-271.5 220.24,-278.5"/>
</g>
<!-- Node7 -->
<g id="node7" class="node">
<title>Node7</title>
<g id="a_node7"><a xlink:href="../../d9/d8d/classdoris_1_1_status.html#aafde58df1b2a6a91d5b674373be3ffc5" target="_top" xlink:title=" ">
<polygon fill="white" stroke="#666666" points="358.5,-241.5 251.5,-241.5 251.5,-222.5 358.5,-222.5 358.5,-241.5"/>
<text text-anchor="middle" x="305" y="-229.5" font-family="Helvetica,sans-Serif" font-size="10.00">doris::Status::Status</text>
</a>
</g>
</g>
<!-- Node6&#45;&gt;Node7 -->
<g id="edge6" class="edge">
<title>Node6&#45;&gt;Node7</title>
<path fill="none" stroke="#63b8ff" d="M184.09,-232C201.23,-232 221.12,-232 239.7,-232"/>
<polygon fill="#63b8ff" stroke="#63b8ff" points="239.56,-235.5 249.56,-232 239.56,-228.5 239.56,-235.5"/>
</g>
<!-- Node9 -->
<g id="node9" class="node">
<title>Node9</title>
<g id="a_node9"><a xlink:href="../../d5/d9d/classdoris_1_1vectorized_1_1_p_o_d_array_base.html#aa5a2bd4e24261d8f10f2f4e5d82fccf6" target="_top" xlink:title=" ">
<polygon fill="white" stroke="#666666" points="366,-132 244,-132 244,-102 366,-102 366,-132"/>
<text text-anchor="start" x="252" y="-120" font-family="Helvetica,sans-Serif" font-size="10.00">doris::vectorized::</text>
<text text-anchor="middle" x="305" y="-109" font-family="Helvetica,sans-Serif" font-size="10.00">PODArrayBase::reserve</text>
</a>
</g>
</g>
<!-- Node8&#45;&gt;Node9 -->
<g id="edge8" class="edge">
<title>Node8&#45;&gt;Node9</title>
<path fill="none" stroke="#63b8ff" d="M174.4,-173.55C198.86,-162.88 231.65,-148.57 258.12,-137.02"/>
<polygon fill="#63b8ff" stroke="#63b8ff" points="259.51,-140.23 267.27,-133.03 256.71,-133.82 259.51,-140.23"/>
</g>
<!-- Node19 -->
<g id="node19" class="node">
<title>Node19</title>
<g id="a_node19"><a xlink:href="../../d5/d9d/classdoris_1_1vectorized_1_1_p_o_d_array_base.html#afa97d17a5fedae2da8191c2c52aa6025" target="_top" xlink:title=" ">
<polygon fill="white" stroke="#666666" points="537,-245.5 421,-245.5 421,-204.5 537,-204.5 537,-245.5"/>
<text text-anchor="start" x="429" y="-233.5" font-family="Helvetica,sans-Serif" font-size="10.00">doris::vectorized::</text>
<text text-anchor="start" x="429" y="-222.5" font-family="Helvetica,sans-Serif" font-size="10.00">PODArrayBase::resize</text>
<text text-anchor="middle" x="479" y="-211.5" font-family="Helvetica,sans-Serif" font-size="10.00">_assume_reserved</text>
</a>
</g>
</g>
<!-- Node8&#45;&gt;Node19 -->
<g id="edge18" class="edge">
<title>Node8&#45;&gt;Node19</title>
<path fill="none" stroke="#63b8ff" d="M196.48,-194.93C244.89,-199.94 315.99,-207.35 378,-214 388.14,-215.09 398.85,-216.25 409.36,-217.4"/>
<polygon fill="#63b8ff" stroke="#63b8ff" points="408.8,-220.86 419.13,-218.47 409.57,-213.9 408.8,-220.86"/>
</g>
<!-- Node10 -->
<g id="node10" class="node">
<title>Node10</title>
<g id="a_node10"><a xlink:href="../../d5/d9d/classdoris_1_1vectorized_1_1_p_o_d_array_base.html#a7223528283cd4e5872e0cc716bf9bd9d" target="_top" xlink:title=" ">
<polygon fill="white" stroke="#666666" points="542.5,-186 415.5,-186 415.5,-156 542.5,-156 542.5,-186"/>
<text text-anchor="start" x="423.5" y="-174" font-family="Helvetica,sans-Serif" font-size="10.00">doris::vectorized::</text>
<text text-anchor="middle" x="479" y="-163" font-family="Helvetica,sans-Serif" font-size="10.00">PODArrayBase::capacity</text>
</a>
</g>
</g>
<!-- Node9&#45;&gt;Node10 -->
<g id="edge9" class="edge">
<title>Node9&#45;&gt;Node10</title>
<path fill="none" stroke="#63b8ff" d="M355.29,-132.47C374.81,-138.6 397.44,-145.71 417.91,-152.13"/>
<polygon fill="#63b8ff" stroke="#63b8ff" points="416.67,-155.41 427.26,-155.07 418.77,-148.74 416.67,-155.41"/>
</g>
<!-- Node11 -->
<g id="node11" class="node">
<title>Node11</title>
<g id="a_node11"><a xlink:href="../../d5/d9d/classdoris_1_1vectorized_1_1_p_o_d_array_base.html#aa0ed9240c71cb15ddd75f2ebfae30c69" target="_top" xlink:title="Minimum amount of memory to allocate for num_elements, including padding.">
<polygon fill="white" stroke="#666666" points="544,-137.5 414,-137.5 414,-96.5 544,-96.5 544,-137.5"/>
<text text-anchor="start" x="422" y="-125.5" font-family="Helvetica,sans-Serif" font-size="10.00">doris::vectorized::</text>
<text text-anchor="start" x="422" y="-114.5" font-family="Helvetica,sans-Serif" font-size="10.00">PODArrayBase::minimum</text>
<text text-anchor="middle" x="479" y="-103.5" font-family="Helvetica,sans-Serif" font-size="10.00">_memory_for_elements</text>
</a>
</g>
</g>
<!-- Node9&#45;&gt;Node11 -->
<g id="edge10" class="edge">
<title>Node9&#45;&gt;Node11</title>
<path fill="none" stroke="#63b8ff" d="M366.16,-117C377.83,-117 390.2,-117 402.3,-117"/>
<polygon fill="#63b8ff" stroke="#63b8ff" points="402.27,-120.5 412.27,-117 402.27,-113.5 402.27,-120.5"/>
</g>
<!-- Node13 -->
<g id="node13" class="node">
<title>Node13</title>
<g id="a_node13"><a xlink:href="../../d5/d9d/classdoris_1_1vectorized_1_1_p_o_d_array_base.html#a9001e08f14a42d556978c322450da2f7" target="_top" xlink:title=" ">
<polygon fill="white" stroke="#666666" points="538.5,-78 419.5,-78 419.5,-48 538.5,-48 538.5,-78"/>
<text text-anchor="start" x="427.5" y="-66" font-family="Helvetica,sans-Serif" font-size="10.00">doris::vectorized::</text>
<text text-anchor="middle" x="479" y="-55" font-family="Helvetica,sans-Serif" font-size="10.00">PODArrayBase::realloc</text>
</a>
</g>
</g>
<!-- Node9&#45;&gt;Node13 -->
<g id="edge12" class="edge">
<title>Node9&#45;&gt;Node13</title>
<path fill="none" stroke="#63b8ff" d="M355.29,-101.53C374.81,-95.4 397.44,-88.29 417.91,-81.87"/>
<polygon fill="#63b8ff" stroke="#63b8ff" points="418.77,-85.26 427.26,-78.93 416.67,-78.59 418.77,-85.26"/>
</g>
<!-- Node18 -->
<g id="node18" class="node">
<title>Node18</title>
<g id="a_node18"><a xlink:href="../../dc/da2/bit__helpers_8h.html#ae2948c0075b86f9ca20fc36610b4aca8" target="_top" xlink:title=" ">
<polygon fill="white" stroke="#666666" points="536.5,-30 421.5,-30 421.5,0 536.5,0 536.5,-30"/>
<text text-anchor="start" x="429.5" y="-18" font-family="Helvetica,sans-Serif" font-size="10.00">round_up_to_power_of</text>
<text text-anchor="middle" x="479" y="-7" font-family="Helvetica,sans-Serif" font-size="10.00">_two_or_zero</text>
</a>
</g>
</g>
<!-- Node9&#45;&gt;Node18 -->
<g id="edge17" class="edge">
<title>Node9&#45;&gt;Node18</title>
<path fill="none" stroke="#63b8ff" d="M324.11,-101.58C344.8,-84.55 380.16,-57.14 414,-39 416.52,-37.65 419.13,-36.34 421.79,-35.08"/>
<polygon fill="#63b8ff" stroke="#63b8ff" points="423.13,-38.32 430.85,-31.06 420.29,-31.92 423.13,-38.32"/>
</g>
<!-- Node12 -->
<g id="node12" class="node">
<title>Node12</title>
<g id="a_node12"><a xlink:href="../../d5/d9d/classdoris_1_1vectorized_1_1_p_o_d_array_base.html#a4fd871ea772d3f22957ed8dd6a0aebb6" target="_top" xlink:title="Does not include pad_right.">
<polygon fill="white" stroke="#666666" points="725,-207 593,-207 593,-177 725,-177 725,-207"/>
<text text-anchor="start" x="601" y="-195" font-family="Helvetica,sans-Serif" font-size="10.00">doris::vectorized::</text>
<text text-anchor="middle" x="659" y="-184" font-family="Helvetica,sans-Serif" font-size="10.00">PODArrayBase::byte_size</text>
</a>
</g>
</g>
<!-- Node11&#45;&gt;Node12 -->
<g id="edge11" class="edge">
<title>Node11&#45;&gt;Node12</title>
<path fill="none" stroke="#63b8ff" d="M529.58,-137.89C555.06,-148.62 585.93,-161.63 611.02,-172.2"/>
<polygon fill="#63b8ff" stroke="#63b8ff" points="609.41,-175.33 619.99,-175.98 612.13,-168.88 609.41,-175.33"/>
</g>
<!-- Node14 -->
<g id="node14" class="node">
<title>Node14</title>
<g id="a_node14"><a xlink:href="../../d5/d9d/classdoris_1_1vectorized_1_1_p_o_d_array_base.html#a0e716713ea1a6de012c8830d8ef03ca9" target="_top" xlink:title=" ">
<polygon fill="white" stroke="#666666" points="714,-78 604,-78 604,-48 714,-48 714,-78"/>
<text text-anchor="start" x="612" y="-66" font-family="Helvetica,sans-Serif" font-size="10.00">doris::vectorized::</text>
<text text-anchor="middle" x="659" y="-55" font-family="Helvetica,sans-Serif" font-size="10.00">PODArrayBase::alloc</text>
</a>
</g>
</g>
<!-- Node13&#45;&gt;Node14 -->
<g id="edge13" class="edge">
<title>Node13&#45;&gt;Node14</title>
<path fill="none" stroke="#63b8ff" d="M538.78,-63C555.89,-63 574.69,-63 592.21,-63"/>
<polygon fill="#63b8ff" stroke="#63b8ff" points="591.99,-66.5 601.99,-63 591.99,-59.5 591.99,-66.5"/>
</g>
<!-- Node15 -->
<g id="node15" class="node">
<title>Node15</title>
<g id="a_node15"><a xlink:href="../../d5/d9d/classdoris_1_1vectorized_1_1_p_o_d_array_base.html#acd47db4f184c2a88c3c8eee3406d13db" target="_top" xlink:title="This method is safe to use only for information about memory usage.">
<polygon fill="white" stroke="#666666" points="738,-30 580,-30 580,0 738,0 738,-30"/>
<text text-anchor="start" x="588" y="-18" font-family="Helvetica,sans-Serif" font-size="10.00">doris::vectorized::</text>
<text text-anchor="middle" x="659" y="-7" font-family="Helvetica,sans-Serif" font-size="10.00">PODArrayBase::allocated_bytes</text>
</a>
</g>
</g>
<!-- Node13&#45;&gt;Node15 -->
<g id="edge14" class="edge">
<title>Node13&#45;&gt;Node15</title>
<path fill="none" stroke="#63b8ff" d="M537.3,-47.55C554.13,-43.01 572.71,-38 590.13,-33.3"/>
<polygon fill="#63b8ff" stroke="#63b8ff" points="590.6,-36.8 599.35,-30.82 588.78,-30.04 590.6,-36.8"/>
</g>
<!-- Node16 -->
<g id="node16" class="node">
<title>Node16</title>
<g id="a_node16"><a xlink:href="../../d5/d9d/classdoris_1_1vectorized_1_1_p_o_d_array_base.html#a41d7b4a7908cc8905970d3d601d8634c" target="_top" xlink:title=" ">
<polygon fill="white" stroke="#666666" points="724.5,-126 593.5,-126 593.5,-96 724.5,-96 724.5,-126"/>
<text text-anchor="start" x="601.5" y="-114" font-family="Helvetica,sans-Serif" font-size="10.00">doris::vectorized::</text>
<text text-anchor="middle" x="659" y="-103" font-family="Helvetica,sans-Serif" font-size="10.00">PODArrayBase::unprotect</text>
</a>
</g>
</g>
<!-- Node13&#45;&gt;Node16 -->
<g id="edge15" class="edge">
<title>Node13&#45;&gt;Node16</title>
<path fill="none" stroke="#63b8ff" d="M537.3,-78.45C554.13,-82.99 572.71,-88 590.13,-92.7"/>
<polygon fill="#63b8ff" stroke="#63b8ff" points="588.78,-95.96 599.35,-95.18 590.6,-89.2 588.78,-95.96"/>
</g>
<!-- Node17 -->
<g id="node17" class="node">
<title>Node17</title>
<g id="a_node17"><a xlink:href="../../d5/d9d/classdoris_1_1vectorized_1_1_p_o_d_array_base.html#aabb38ffefd0c3a618756a9150e27a97a" target="_top" xlink:title=" ">
<polygon fill="white" stroke="#666666" points="917,-126 774,-126 774,-96 917,-96 917,-126"/>
<text text-anchor="start" x="782" y="-114" font-family="Helvetica,sans-Serif" font-size="10.00">doris::vectorized::</text>
<text text-anchor="middle" x="845.5" y="-103" font-family="Helvetica,sans-Serif" font-size="10.00">PODArrayBase::protect_impl</text>
</a>
</g>
</g>
<!-- Node16&#45;&gt;Node17 -->
<g id="edge16" class="edge">
<title>Node16&#45;&gt;Node17</title>
<path fill="none" stroke="#63b8ff" d="M724.79,-111C736.87,-111 749.65,-111 762.17,-111"/>
<polygon fill="#63b8ff" stroke="#63b8ff" points="762.07,-114.5 772.07,-111 762.07,-107.5 762.07,-114.5"/>
</g>
<!-- Node19&#45;&gt;Node12 -->
<g id="edge19" class="edge">
<title>Node19&#45;&gt;Node12</title>
<path fill="none" stroke="#63b8ff" d="M537.3,-214.38C551.39,-211.76 566.7,-208.93 581.54,-206.18"/>
<polygon fill="#63b8ff" stroke="#63b8ff" points="582.08,-209.63 591.28,-204.37 580.81,-202.75 582.08,-209.63"/>
</g>
</g>
</svg>
        <g id="navigator" transform="translate(0 0)" fill="#404254">
                <rect fill="#f2f5e9" fill-opacity="0.5" stroke="#606060" stroke-width=".5" x="0" y="0" width="60" height="60"/>
                <use id="zoomplus" xlink:href="#zoomPlus" x="17" y="9" onmousedown="handleZoom(evt,'in')"/>
                <use id="zoomminus" xlink:href="#zoomMin" x="42" y="9" onmousedown="handleZoom(evt,'out')"/>
                <use id="reset" xlink:href="#resetDef" x="30" y="36" onmousedown="handleReset()"/>
                <g id="arrowUp" xlink:href="#dirArrow" transform="translate(30 24)" onmousedown="handlePan(0,-1)">
                  <use xlink:href="#rim" fill="#404040">
                        <set attributeName="fill" to="#808080" begin="arrowUp.mouseover" end="arrowUp.mouseout"/>
                  </use>
                  <path fill="none" stroke="white" stroke-width="1.5" d="M0,-3.0v7 M-2.5,-0.5L0,-3.0L2.5,-0.5"/>
                </g>
                <g id="arrowRight" xlink:href="#dirArrow" transform="rotate(90) translate(36 -43)" onmousedown="handlePan(1,0)">
                  <use xlink:href="#rim" fill="#404040">
                        <set attributeName="fill" to="#808080" begin="arrowRight.mouseover" end="arrowRight.mouseout"/>
                  </use>
                  <path fill="none" stroke="white" stroke-width="1.5" d="M0,-3.0v7 M-2.5,-0.5L0,-3.0L2.5,-0.5"/>
                </g>
                <g id="arrowDown" xlink:href="#dirArrow" transform="rotate(180) translate(-30 -48)" onmousedown="handlePan(0,1)">
                  <use xlink:href="#rim" fill="#404040">
                        <set attributeName="fill" to="#808080" begin="arrowDown.mouseover" end="arrowDown.mouseout"/>
                  </use>
                  <path fill="none" stroke="white" stroke-width="1.5" d="M0,-3.0v7 M-2.5,-0.5L0,-3.0L2.5,-0.5"/>
                </g>
                <g id="arrowLeft" xlink:href="#dirArrow" transform="rotate(270) translate(-36 17)" onmousedown="handlePan(-1,0)">
                  <use xlink:href="#rim" fill="#404040">
                        <set attributeName="fill" to="#808080" begin="arrowLeft.mouseover" end="arrowLeft.mouseout"/>
                  </use>
                  <path fill="none" stroke="white" stroke-width="1.5" d="M0,-3.0v7 M-2.5,-0.5L0,-3.0L2.5,-0.5"/>
                </g>
        </g>
        <svg viewBox="0 0 15 15" width="100%" height="30px" preserveAspectRatio="xMaxYMin meet">
         <g id="arrow_out" transform="scale(0.3 0.3)">
          <a xlink:href="structdoris_1_1vectorized_1_1_hex_string_impl_acb8d28735b9f238c9f745d073b90979e_cgraph_org.svg" target="_base">
           <rect id="button" ry="5" rx="5" y="6" x="6" height="38" width="38"
                fill="#f2f5e9" fill-opacity="0.5" stroke="#606060" stroke-width="1.0"/>
           <path id="arrow"
             d="M 11.500037,31.436501 C 11.940474,20.09759 22.043105,11.32322 32.158766,21.979434 L 37.068811,17.246167 C 37.068811,17.246167 37.088388,32 37.088388,32 L 22.160133,31.978069 C 22.160133,31.978069 26.997745,27.140456 26.997745,27.140456 C 18.528582,18.264221 13.291696,25.230495 11.500037,31.436501 z"
             style="fill:#404040;"/>
          </a>
         </g>
        </svg>
</svg>
