<?xml version="1.0" encoding="UTF-8" standalone="no"?>
<!DOCTYPE svg PUBLIC "-//W3C//DTD SVG 1.1//EN"
 "http://www.w3.org/Graphics/SVG/1.1/DTD/svg11.dtd">
<!-- Generated by graphviz version 7.1.0 (20230121.1956)
 -->
<!-- Title: apply Pages: 1 -->
<svg width="460pt" height="312pt"
 viewBox="0.00 0.00 460.00 312.00" xmlns="http://www.w3.org/2000/svg" xmlns:xlink="http://www.w3.org/1999/xlink">
<g id="graph0" class="graph" transform="scale(1 1) rotate(0) translate(4 308)">
<title>apply</title>
<!-- Node1 -->
<g id="node1" class="node">
<title>Node1</title>
<g id="a_node1"><a xlink:title=" ">
<polygon fill="#999999" stroke="#666666" points="40,-78 0,-78 0,-59 40,-59 40,-78"/>
<text text-anchor="middle" x="20" y="-66" font-family="Helvetica,sans-Serif" font-size="10.00">apply</text>
</a>
</g>
</g>
<!-- Node2 -->
<g id="node2" class="node">
<title>Node2</title>
<g id="a_node2"><a xlink:href="../../df/dc8/classdoris_1_1vectorized_1_1_float_rounding_computation.html#ac0f3943cbd23765b48e144256b078704" target="_top" xlink:title=" ">
<polygon fill="white" stroke="#666666" points="222.5,-196 87.5,-196 87.5,-155 222.5,-155 222.5,-196"/>
<text text-anchor="start" x="95.5" y="-184" font-family="Helvetica,sans-Serif" font-size="10.00">doris::vectorized::</text>
<text text-anchor="start" x="95.5" y="-173" font-family="Helvetica,sans-Serif" font-size="10.00">FloatRoundingComputation</text>
<text text-anchor="middle" x="155" y="-162" font-family="Helvetica,sans-Serif" font-size="10.00">::compute</text>
</a>
</g>
</g>
<!-- Node1&#45;&gt;Node2 -->
<g id="edge1" class="edge">
<title>Node1&#45;&gt;Node2</title>
<path fill="none" stroke="#63b8ff" d="M33.27,-78.37C52.6,-93.92 90.82,-124.67 119.1,-147.43"/>
<polygon fill="#63b8ff" stroke="#63b8ff" points="116.74,-150.01 126.72,-153.56 121.13,-144.56 116.74,-150.01"/>
</g>
<!-- Node7 -->
<g id="node7" class="node">
<title>Node7</title>
<g id="a_node7"><a xlink:href="../../d9/d1e/memcpy__aarch64_8cpp.html#a156c5821f16ed93be8c7d315303f7b2a" target="_top" xlink:title=" ">
<polygon fill="white" stroke="#666666" points="182,-78 128,-78 128,-59 182,-59 182,-78"/>
<text text-anchor="middle" x="155" y="-66" font-family="Helvetica,sans-Serif" font-size="10.00">memcpy</text>
</a>
</g>
</g>
<!-- Node1&#45;&gt;Node7 -->
<g id="edge6" class="edge">
<title>Node1&#45;&gt;Node7</title>
<path fill="none" stroke="#63b8ff" d="M40.34,-68.5C60.24,-68.5 91.76,-68.5 116.56,-68.5"/>
<polygon fill="#63b8ff" stroke="#63b8ff" points="116.25,-72 126.25,-68.5 116.25,-65 116.25,-72"/>
</g>
<!-- Node9 -->
<g id="node9" class="node">
<title>Node9</title>
<g id="a_node9"><a xlink:href="../../d2/d7d/classdoris_1_1vectorized_1_1_base_float_rounding_computation.html#a10325ccae4009792e2d1d5f6664d7efc" target="_top" xlink:title=" ">
<polygon fill="white" stroke="#666666" points="234,-41 76,-41 76,0 234,0 234,-41"/>
<text text-anchor="start" x="84" y="-29" font-family="Helvetica,sans-Serif" font-size="10.00">doris::vectorized::</text>
<text text-anchor="start" x="84" y="-18" font-family="Helvetica,sans-Serif" font-size="10.00">BaseFloatRoundingComputation</text>
<text text-anchor="middle" x="155" y="-7" font-family="Helvetica,sans-Serif" font-size="10.00">::prepare</text>
</a>
</g>
</g>
<!-- Node1&#45;&gt;Node9 -->
<g id="edge8" class="edge">
<title>Node1&#45;&gt;Node9</title>
<path fill="none" stroke="#63b8ff" d="M40.34,-61.52C52.51,-57.13 69.02,-51.17 85.69,-45.15"/>
<polygon fill="#63b8ff" stroke="#63b8ff" points="86.41,-48.62 94.62,-41.93 84.03,-42.03 86.41,-48.62"/>
</g>
<!-- Node3 -->
<g id="node3" class="node">
<title>Node3</title>
<g id="a_node3"><a xlink:href="../../d2/d7d/classdoris_1_1vectorized_1_1_base_float_rounding_computation.html#a79f873f9664871bf16684f3ba4094fe4" target="_top" xlink:title=" ">
<polygon fill="white" stroke="#666666" points="440,-304 282,-304 282,-263 440,-263 440,-304"/>
<text text-anchor="start" x="290" y="-292" font-family="Helvetica,sans-Serif" font-size="10.00">doris::vectorized::</text>
<text text-anchor="start" x="290" y="-281" font-family="Helvetica,sans-Serif" font-size="10.00">BaseFloatRoundingComputation</text>
<text text-anchor="middle" x="361" y="-270" font-family="Helvetica,sans-Serif" font-size="10.00">::divide</text>
</a>
</g>
</g>
<!-- Node2&#45;&gt;Node3 -->
<g id="edge2" class="edge">
<title>Node2&#45;&gt;Node3</title>
<path fill="none" stroke="#63b8ff" d="M181.88,-196.32C204.18,-213.47 237.78,-237.5 270,-253.5 273.42,-255.2 276.96,-256.84 280.58,-258.41"/>
<polygon fill="#63b8ff" stroke="#63b8ff" points="278.92,-261.51 289.49,-262.1 281.59,-255.04 278.92,-261.51"/>
</g>
<!-- Node4 -->
<g id="node4" class="node">
<title>Node4</title>
<g id="a_node4"><a xlink:href="../../d2/d7d/classdoris_1_1vectorized_1_1_base_float_rounding_computation.html#ab21ce722e3ddec4fd3b93cab41ad0cff" target="_top" xlink:title=" ">
<polygon fill="white" stroke="#666666" points="452,-244.5 270,-244.5 270,-214.5 452,-214.5 452,-244.5"/>
<text text-anchor="start" x="278" y="-232.5" font-family="Helvetica,sans-Serif" font-size="10.00">doris::vectorized::</text>
<text text-anchor="middle" x="361" y="-221.5" font-family="Helvetica,sans-Serif" font-size="10.00">BaseFloatRoundingComputation::load</text>
</a>
</g>
</g>
<!-- Node2&#45;&gt;Node4 -->
<g id="edge3" class="edge">
<title>Node2&#45;&gt;Node4</title>
<path fill="none" stroke="#63b8ff" d="M222.8,-193.18C244.57,-198.94 268.78,-205.35 290.72,-211.16"/>
<polygon fill="#63b8ff" stroke="#63b8ff" points="289.61,-214.49 300.17,-213.66 291.4,-207.72 289.61,-214.49"/>
</g>
<!-- Node5 -->
<g id="node5" class="node">
<title>Node5</title>
<g id="a_node5"><a xlink:href="../../d2/d7d/classdoris_1_1vectorized_1_1_base_float_rounding_computation.html#a3b81bbf2881580c95a5dd479cc6d6885" target="_top" xlink:title=" ">
<polygon fill="white" stroke="#666666" points="440,-196 282,-196 282,-155 440,-155 440,-196"/>
<text text-anchor="start" x="290" y="-184" font-family="Helvetica,sans-Serif" font-size="10.00">doris::vectorized::</text>
<text text-anchor="start" x="290" y="-173" font-family="Helvetica,sans-Serif" font-size="10.00">BaseFloatRoundingComputation</text>
<text text-anchor="middle" x="361" y="-162" font-family="Helvetica,sans-Serif" font-size="10.00">::multiply</text>
</a>
</g>
</g>
<!-- Node2&#45;&gt;Node5 -->
<g id="edge4" class="edge">
<title>Node2&#45;&gt;Node5</title>
<path fill="none" stroke="#63b8ff" d="M222.8,-175.5C237.95,-175.5 254.27,-175.5 270.2,-175.5"/>
<polygon fill="#63b8ff" stroke="#63b8ff" points="270.19,-179 280.19,-175.5 270.19,-172 270.19,-179"/>
</g>
<!-- Node6 -->
<g id="node6" class="node">
<title>Node6</title>
<g id="a_node6"><a xlink:href="../../d2/d7d/classdoris_1_1vectorized_1_1_base_float_rounding_computation.html#aeac245a87fe3db1b1b5e9399eef66570" target="_top" xlink:title=" ">
<polygon fill="white" stroke="#666666" points="440,-137 282,-137 282,-96 440,-96 440,-137"/>
<text text-anchor="start" x="290" y="-125" font-family="Helvetica,sans-Serif" font-size="10.00">doris::vectorized::</text>
<text text-anchor="start" x="290" y="-114" font-family="Helvetica,sans-Serif" font-size="10.00">BaseFloatRoundingComputation</text>
<text text-anchor="middle" x="361" y="-103" font-family="Helvetica,sans-Serif" font-size="10.00">::store</text>
</a>
</g>
</g>
<!-- Node2&#45;&gt;Node6 -->
<g id="edge5" class="edge">
<title>Node2&#45;&gt;Node6</title>
<path fill="none" stroke="#63b8ff" d="M222.8,-156.18C239.93,-151.23 258.56,-145.84 276.42,-140.67"/>
<polygon fill="#63b8ff" stroke="#63b8ff" points="277.33,-144.05 285.97,-137.91 275.39,-137.33 277.33,-144.05"/>
</g>
<!-- Node8 -->
<g id="node8" class="node">
<title>Node8</title>
<g id="a_node8"><a xlink:href="../../d9/d1e/memcpy__aarch64_8cpp.html#a11ebdd343428c466f2f35c376d7db6d0" target="_top" xlink:title=" ">
<polygon fill="white" stroke="#666666" points="402,-78 320,-78 320,-59 402,-59 402,-78"/>
<text text-anchor="middle" x="361" y="-66" font-family="Helvetica,sans-Serif" font-size="10.00">inline_memcpy</text>
</a>
</g>
</g>
<!-- Node7&#45;&gt;Node8 -->
<g id="edge7" class="edge">
<title>Node7&#45;&gt;Node8</title>
<path fill="none" stroke="#63b8ff" d="M182.25,-68.5C213.99,-68.5 268.13,-68.5 308.34,-68.5"/>
<polygon fill="#63b8ff" stroke="#63b8ff" points="308.29,-72 318.29,-68.5 308.29,-65 308.29,-72"/>
</g>
<!-- Node10 -->
<g id="node10" class="node">
<title>Node10</title>
<g id="a_node10"><a xlink:href="../../d2/d7d/classdoris_1_1vectorized_1_1_base_float_rounding_computation.html#a7213a123b50c0b8b720864ada1908dc7" target="_top" xlink:title=" ">
<polygon fill="white" stroke="#666666" points="440,-41 282,-41 282,0 440,0 440,-41"/>
<text text-anchor="start" x="290" y="-29" font-family="Helvetica,sans-Serif" font-size="10.00">doris::vectorized::</text>
<text text-anchor="start" x="290" y="-18" font-family="Helvetica,sans-Serif" font-size="10.00">BaseFloatRoundingComputation</text>
<text text-anchor="middle" x="361" y="-7" font-family="Helvetica,sans-Serif" font-size="10.00">::load1</text>
</a>
</g>
</g>
<!-- Node9&#45;&gt;Node10 -->
<g id="edge9" class="edge">
<title>Node9&#45;&gt;Node10</title>
<path fill="none" stroke="#63b8ff" d="M234.29,-20.5C246.04,-20.5 258.23,-20.5 270.2,-20.5"/>
<polygon fill="#63b8ff" stroke="#63b8ff" points="270.07,-24 280.07,-20.5 270.07,-17 270.07,-24"/>
</g>
</g>
</svg>
