<?xml version="1.0" encoding="UTF-8" standalone="no"?>
<!DOCTYPE svg PUBLIC "-//W3C//DTD SVG 1.1//EN"
 "http://www.w3.org/Graphics/SVG/1.1/DTD/svg11.dtd">
<!-- Generated by graphviz version 7.1.0 (20230121.1956)
 -->
<!-- Title: get_column Pages: 1 -->
<svg width="1016pt" height="152pt"
 viewBox="0.00 0.00 1016.00 152.00" xmlns="http://www.w3.org/2000/svg" xmlns:xlink="http://www.w3.org/1999/xlink">
<g id="graph0" class="graph" transform="scale(1 1) rotate(0) translate(4 148)">
<title>get_column</title>
<!-- Node1 -->
<g id="node1" class="node">
<title>Node1</title>
<g id="a_node1"><a xlink:title=" ">
<polygon fill="#999999" stroke="#666666" points="1008,-54 941,-54 941,-35 1008,-35 1008,-54"/>
<text text-anchor="middle" x="974.5" y="-42" font-family="Helvetica,sans-Serif" font-size="10.00">get_column</text>
</a>
</g>
</g>
<!-- Node2 -->
<g id="node2" class="node">
<title>Node2</title>
<g id="a_node2"><a xlink:href="../../d9/dbc/classdoris_1_1vectorized_1_1_parquet_reader.html#a2e9f395e46b1a51d049098f8d49a0a75" target="_top" xlink:title=" ">
<polygon fill="white" stroke="#666666" points="901.5,-119 795.5,-119 795.5,-78 901.5,-78 901.5,-119"/>
<text text-anchor="start" x="803.5" y="-107" font-family="Helvetica,sans-Serif" font-size="10.00">doris::vectorized::</text>
<text text-anchor="start" x="803.5" y="-96" font-family="Helvetica,sans-Serif" font-size="10.00">ParquetReader::_init</text>
<text text-anchor="middle" x="848.5" y="-85" font-family="Helvetica,sans-Serif" font-size="10.00">_read_columns</text>
</a>
</g>
</g>
<!-- Node1&#45;&gt;Node2 -->
<g id="edge1" class="edge">
<title>Node1&#45;&gt;Node2</title>
<path fill="none" stroke="#63b8ff" d="M940.32,-58.95C927.18,-64.67 911.83,-71.36 897.53,-77.58"/>
<polygon fill="#63b8ff" stroke="#63b8ff" points="941.6,-62.21 949.37,-55.01 938.8,-55.79 941.6,-62.21"/>
</g>
<!-- Node9 -->
<g id="node9" class="node">
<title>Node9</title>
<g id="a_node9"><a xlink:href="../../d6/d6b/classdoris_1_1vectorized_1_1_row_group_reader.html#a931d5114cb2813fe45d06c6e0f2904b5" target="_top" xlink:title=" ">
<polygon fill="white" stroke="#666666" points="905,-59.5 792,-59.5 792,-29.5 905,-29.5 905,-59.5"/>
<text text-anchor="start" x="800" y="-47.5" font-family="Helvetica,sans-Serif" font-size="10.00">doris::vectorized::</text>
<text text-anchor="middle" x="848.5" y="-36.5" font-family="Helvetica,sans-Serif" font-size="10.00">RowGroupReader::init</text>
</a>
</g>
</g>
<!-- Node1&#45;&gt;Node9 -->
<g id="edge10" class="edge">
<title>Node1&#45;&gt;Node9</title>
<path fill="none" stroke="#63b8ff" d="M929.15,-44.5C921.36,-44.5 913.16,-44.5 905.1,-44.5"/>
<polygon fill="#63b8ff" stroke="#63b8ff" points="929.08,-48 939.08,-44.5 929.08,-41 929.08,-48"/>
</g>
<!-- Node10 -->
<g id="node10" class="node">
<title>Node10</title>
<g id="a_node10"><a xlink:href="../../d9/dbc/classdoris_1_1vectorized_1_1_parquet_reader.html#a96716788c151f73108b3f02cee67a481" target="_top" xlink:title=" ">
<polygon fill="white" stroke="#666666" points="756,-41 640,-41 640,0 756,0 756,-41"/>
<text text-anchor="start" x="648" y="-29" font-family="Helvetica,sans-Serif" font-size="10.00">doris::vectorized::</text>
<text text-anchor="start" x="648" y="-18" font-family="Helvetica,sans-Serif" font-size="10.00">ParquetReader::set_fill</text>
<text text-anchor="middle" x="698" y="-7" font-family="Helvetica,sans-Serif" font-size="10.00">_columns</text>
</a>
</g>
</g>
<!-- Node1&#45;&gt;Node10 -->
<g id="edge11" class="edge">
<title>Node1&#45;&gt;Node10</title>
<path fill="none" stroke="#63b8ff" d="M940.65,-30.47C929.54,-26.41 916.93,-22.53 905,-20.5 855.29,-12.04 797.84,-12.9 756.27,-15.38"/>
<polygon fill="#63b8ff" stroke="#63b8ff" points="939.17,-33.65 949.76,-33.98 941.69,-27.12 939.17,-33.65"/>
</g>
<!-- Node3 -->
<g id="node3" class="node">
<title>Node3</title>
<g id="a_node3"><a xlink:href="../../d9/dbc/classdoris_1_1vectorized_1_1_parquet_reader.html#a086c6ce8619bb34ab0c824a58bd0cc53" target="_top" xlink:title=" ">
<polygon fill="white" stroke="#666666" points="748.5,-109 647.5,-109 647.5,-68 748.5,-68 748.5,-109"/>
<text text-anchor="start" x="655.5" y="-97" font-family="Helvetica,sans-Serif" font-size="10.00">doris::vectorized::</text>
<text text-anchor="start" x="655.5" y="-86" font-family="Helvetica,sans-Serif" font-size="10.00">ParquetReader::init</text>
<text text-anchor="middle" x="698" y="-75" font-family="Helvetica,sans-Serif" font-size="10.00">_reader</text>
</a>
</g>
</g>
<!-- Node2&#45;&gt;Node3 -->
<g id="edge2" class="edge">
<title>Node2&#45;&gt;Node3</title>
<path fill="none" stroke="#63b8ff" d="M783.67,-94.2C772.03,-93.42 760.05,-92.61 748.89,-91.86"/>
<polygon fill="#63b8ff" stroke="#63b8ff" points="783.42,-97.69 793.63,-94.87 783.89,-90.71 783.42,-97.69"/>
</g>
<!-- Node4 -->
<g id="node4" class="node">
<title>Node4</title>
<g id="a_node4"><a xlink:href="../../db/dc6/classdoris_1_1vectorized_1_1_v_file_scanner.html#a09a15c6f9ac825028e713e8f2c33aeb4" target="_top" xlink:title=" ">
<polygon fill="white" stroke="#666666" points="312,-95 188,-95 188,-54 312,-54 312,-95"/>
<text text-anchor="start" x="196" y="-83" font-family="Helvetica,sans-Serif" font-size="10.00">doris::vectorized::</text>
<text text-anchor="start" x="196" y="-72" font-family="Helvetica,sans-Serif" font-size="10.00">VFileScanner::_get_next</text>
<text text-anchor="middle" x="250" y="-61" font-family="Helvetica,sans-Serif" font-size="10.00">_reader</text>
</a>
</g>
</g>
<!-- Node3&#45;&gt;Node4 -->
<g id="edge3" class="edge">
<title>Node3&#45;&gt;Node4</title>
<path fill="none" stroke="#63b8ff" d="M635.84,-86.58C550.73,-83.91 397.43,-79.1 312.26,-76.42"/>
<polygon fill="#63b8ff" stroke="#63b8ff" points="635.52,-90.07 645.62,-86.89 635.74,-83.08 635.52,-90.07"/>
</g>
<!-- Node6 -->
<g id="node6" class="node">
<title>Node6</title>
<g id="a_node6"><a xlink:href="../../d8/d31/classdoris_1_1vectorized_1_1_iceberg_table_reader.html#a941f875bf576c971aa18d7b5e99f3f14" target="_top" xlink:title=" ">
<polygon fill="white" stroke="#666666" points="604,-46 494,-46 494,-5 604,-5 604,-46"/>
<text text-anchor="start" x="502" y="-34" font-family="Helvetica,sans-Serif" font-size="10.00">doris::vectorized::</text>
<text text-anchor="start" x="502" y="-23" font-family="Helvetica,sans-Serif" font-size="10.00">IcebergTableReader::</text>
<text text-anchor="middle" x="549" y="-12" font-family="Helvetica,sans-Serif" font-size="10.00">_position_delete</text>
</a>
</g>
</g>
<!-- Node3&#45;&gt;Node6 -->
<g id="edge5" class="edge">
<title>Node3&#45;&gt;Node6</title>
<path fill="none" stroke="#63b8ff" d="M637.48,-62.99C624.69,-57.51 611.32,-51.78 598.99,-46.49"/>
<polygon fill="#63b8ff" stroke="#63b8ff" points="636.09,-66.2 646.66,-66.93 638.85,-59.77 636.09,-66.2"/>
</g>
<!-- Node8 -->
<g id="node8" class="node">
<title>Node8</title>
<g id="a_node8"><a xlink:href="../../d8/d31/classdoris_1_1vectorized_1_1_iceberg_table_reader.html#ae2fdd9e223b3b8d3ff93460bc3ae59b9" target="_top" xlink:title=" ">
<polygon fill="white" stroke="#666666" points="458,-144 348,-144 348,-103 458,-103 458,-144"/>
<text text-anchor="start" x="356" y="-132" font-family="Helvetica,sans-Serif" font-size="10.00">doris::vectorized::</text>
<text text-anchor="start" x="356" y="-121" font-family="Helvetica,sans-Serif" font-size="10.00">IcebergTableReader::</text>
<text text-anchor="middle" x="403" y="-110" font-family="Helvetica,sans-Serif" font-size="10.00">init_reader</text>
</a>
</g>
</g>
<!-- Node3&#45;&gt;Node8 -->
<g id="edge8" class="edge">
<title>Node3&#45;&gt;Node8</title>
<path fill="none" stroke="#63b8ff" d="M636.15,-95.77C583.76,-102.03 508.86,-110.97 458.43,-117"/>
<polygon fill="#63b8ff" stroke="#63b8ff" points="636.28,-99.28 645.79,-94.62 635.45,-92.33 636.28,-99.28"/>
</g>
<!-- Node5 -->
<g id="node5" class="node">
<title>Node5</title>
<g id="a_node5"><a xlink:href="../../db/dc6/classdoris_1_1vectorized_1_1_v_file_scanner.html#a20a1a7a021ac29e1f43fe0f6d1773460" target="_top" xlink:title=" ">
<polygon fill="white" stroke="#666666" points="152,-89.5 0,-89.5 0,-59.5 152,-59.5 152,-89.5"/>
<text text-anchor="start" x="8" y="-77.5" font-family="Helvetica,sans-Serif" font-size="10.00">doris::vectorized::</text>
<text text-anchor="middle" x="76" y="-66.5" font-family="Helvetica,sans-Serif" font-size="10.00">VFileScanner::_get_block_impl</text>
</a>
</g>
</g>
<!-- Node4&#45;&gt;Node5 -->
<g id="edge4" class="edge">
<title>Node4&#45;&gt;Node5</title>
<path fill="none" stroke="#63b8ff" d="M176.39,-74.5C168.45,-74.5 160.35,-74.5 152.38,-74.5"/>
<polygon fill="#63b8ff" stroke="#63b8ff" points="176.36,-78 186.36,-74.5 176.36,-71 176.36,-78"/>
</g>
<!-- Node7 -->
<g id="node7" class="node">
<title>Node7</title>
<g id="a_node7"><a xlink:href="../../d8/d31/classdoris_1_1vectorized_1_1_iceberg_table_reader.html#a21c3b95d2ae9cc928ea5af7abca15b5c" target="_top" xlink:title=" ">
<polygon fill="white" stroke="#666666" points="458,-46 348,-46 348,-5 458,-5 458,-46"/>
<text text-anchor="start" x="356" y="-34" font-family="Helvetica,sans-Serif" font-size="10.00">doris::vectorized::</text>
<text text-anchor="start" x="356" y="-23" font-family="Helvetica,sans-Serif" font-size="10.00">IcebergTableReader::</text>
<text text-anchor="middle" x="403" y="-12" font-family="Helvetica,sans-Serif" font-size="10.00">init_row_filters</text>
</a>
</g>
</g>
<!-- Node6&#45;&gt;Node7 -->
<g id="edge6" class="edge">
<title>Node6&#45;&gt;Node7</title>
<path fill="none" stroke="#63b8ff" d="M482.23,-25.5C474.13,-25.5 465.93,-25.5 458.04,-25.5"/>
<polygon fill="#63b8ff" stroke="#63b8ff" points="482.05,-29 492.05,-25.5 482.05,-22 482.05,-29"/>
</g>
<!-- Node7&#45;&gt;Node4 -->
<g id="edge7" class="edge">
<title>Node7&#45;&gt;Node4</title>
<path fill="none" stroke="#63b8ff" d="M337.22,-46.52C328.99,-49.19 320.59,-51.92 312.41,-54.57"/>
<polygon fill="#63b8ff" stroke="#63b8ff" points="338.04,-49.93 346.47,-43.52 335.88,-43.28 338.04,-49.93"/>
</g>
<!-- Node8&#45;&gt;Node4 -->
<g id="edge9" class="edge">
<title>Node8&#45;&gt;Node4</title>
<path fill="none" stroke="#63b8ff" d="M337.22,-102.48C328.99,-99.81 320.59,-97.08 312.41,-94.43"/>
<polygon fill="#63b8ff" stroke="#63b8ff" points="335.88,-105.72 346.47,-105.48 338.04,-99.07 335.88,-105.72"/>
</g>
<!-- Node10&#45;&gt;Node6 -->
<g id="edge12" class="edge">
<title>Node10&#45;&gt;Node6</title>
<path fill="none" stroke="#63b8ff" d="M628.46,-22.83C620.4,-23.11 612.27,-23.38 604.45,-23.65"/>
<polygon fill="#63b8ff" stroke="#63b8ff" points="628.36,-26.34 638.23,-22.5 628.12,-19.34 628.36,-26.34"/>
</g>
</g>
</svg>
