<?xml version="1.0" encoding="UTF-8" standalone="no"?>
<!DOCTYPE svg PUBLIC "-//W3C//DTD SVG 1.1//EN"
 "http://www.w3.org/Graphics/SVG/1.1/DTD/svg11.dtd">
<!-- Generated by graphviz version 7.1.0 (20230121.1956)
 -->
<!-- Title: JsonbToJson Pages: 1 -->
<svg width="98pt" height="149pt"
 viewBox="0.00 0.00 98.00 149.00" xmlns="http://www.w3.org/2000/svg" xmlns:xlink="http://www.w3.org/1999/xlink">
<g id="graph0" class="graph" transform="scale(1 1) rotate(0) translate(4 145)">
<title>JsonbToJson</title>
<!-- Node1 -->
<g id="node1" class="node">
<title>Node1</title>
<g id="a_node1"><a xlink:title=" ">
<polygon fill="#999999" stroke="#666666" points="82,-19 8,-19 8,0 82,0 82,-19"/>
<text text-anchor="middle" x="45" y="-7" font-family="Helvetica,sans-Serif" font-size="10.00">JsonbToJson</text>
</a>
</g>
</g>
<!-- Node2 -->
<g id="node2" class="node">
<title>Node2</title>
<g id="a_node2"><a xlink:href="../../d9/d94/classdoris_1_1_jsonb_out_stream.html" target="_top" xlink:title=" ">
<polygon fill="white" stroke="#666666" points="90,-85 0,-85 0,-66 90,-66 90,-85"/>
<text text-anchor="middle" x="45" y="-73" font-family="Helvetica,sans-Serif" font-size="10.00">JsonbOutStream</text>
</a>
</g>
</g>
<!-- Node2&#45;&gt;Node1 -->
<g id="edge1" class="edge">
<title>Node2&#45;&gt;Node1</title>
<path fill="none" stroke="#9a32cd" stroke-dasharray="5,2" d="M45,-54.18C45,-42.44 45,-28.27 45,-19.32"/>
<polygon fill="#9a32cd" stroke="#9a32cd" points="41.5,-54.09 45,-64.09 48.5,-54.09 41.5,-54.09"/>
<text text-anchor="middle" x="54.5" y="-40" font-family="Helvetica,sans-Serif" font-size="10.00"> os_</text>
</g>
<!-- Node3 -->
<g id="node3" class="node">
<title>Node3</title>
<g id="a_node3"><a xlink:title=" ">
<polygon fill="white" stroke="#666666" points="71,-141 19,-141 19,-122 71,-122 71,-141"/>
<text text-anchor="middle" x="45" y="-129" font-family="Helvetica,sans-Serif" font-size="10.00">ostream</text>
</a>
</g>
</g>
<!-- Node3&#45;&gt;Node2 -->
<g id="edge2" class="edge">
<title>Node3&#45;&gt;Node2</title>
<path fill="none" stroke="#63b8ff" d="M45,-110.11C45,-101.52 45,-91.97 45,-85.25"/>
<polygon fill="#63b8ff" stroke="#63b8ff" points="41.5,-110.07 45,-120.07 48.5,-110.07 41.5,-110.07"/>
</g>
</g>
</svg>
