<?xml version="1.0" encoding="UTF-8" standalone="no"?>
<!DOCTYPE svg PUBLIC "-//W3C//DTD SVG 1.1//EN"
 "http://www.w3.org/Graphics/SVG/1.1/DTD/svg11.dtd">
<!-- Generated by graphviz version 7.1.0 (20230121.1956)
 -->
<!-- Title: append_error_msg_to_file Pages: 1 -->
<svg width="1186pt" height="875pt"
 viewBox="0.00 0.00 1186.00 874.68" xmlns="http://www.w3.org/2000/svg" xmlns:xlink="http://www.w3.org/1999/xlink">
<g id="graph0" class="graph" transform="scale(1 1) rotate(0) translate(4 870.68)">
<title>append_error_msg_to_file</title>
<!-- Node1 -->
<g id="node1" class="node">
<title>Node1</title>
<g id="a_node1"><a xlink:title=" ">
<polygon fill="#999999" stroke="#666666" points="1178,-381.5 1050,-381.5 1050,-362.5 1178,-362.5 1178,-381.5"/>
<text text-anchor="middle" x="1114" y="-369.5" font-family="Helvetica,sans-Serif" font-size="10.00">append_error_msg_to_file</text>
</a>
</g>
</g>
<!-- Node2 -->
<g id="node2" class="node">
<title>Node2</title>
<g id="a_node2"><a xlink:href="../../de/d4e/classdoris_1_1vectorized_1_1_new_json_reader.html#afcad0241285d625c179e2a1738bcb5af" target="_top" xlink:title=" ">
<polygon fill="white" stroke="#666666" points="1011.5,-677.5 879.5,-677.5 879.5,-636.5 1011.5,-636.5 1011.5,-677.5"/>
<text text-anchor="start" x="887.5" y="-665.5" font-family="Helvetica,sans-Serif" font-size="10.00">doris::vectorized::</text>
<text text-anchor="start" x="887.5" y="-654.5" font-family="Helvetica,sans-Serif" font-size="10.00">NewJsonReader::_append</text>
<text text-anchor="middle" x="945.5" y="-643.5" font-family="Helvetica,sans-Serif" font-size="10.00">_error_msg</text>
</a>
</g>
</g>
<!-- Node1&#45;&gt;Node2 -->
<g id="edge1" class="edge">
<title>Node1&#45;&gt;Node2</title>
<path fill="none" stroke="#63b8ff" d="M1103.04,-391.54C1085.75,-425.19 1048.68,-496.04 1014,-554 996.66,-582.99 975.01,-615.43 960.98,-636.02"/>
<polygon fill="#63b8ff" stroke="#63b8ff" points="1105.99,-393.47 1107.43,-382.98 1099.75,-390.28 1105.99,-393.47"/>
</g>
<!-- Node6 -->
<g id="node6" class="node">
<title>Node6</title>
<g id="a_node6"><a xlink:href="../../de/d4e/classdoris_1_1vectorized_1_1_new_json_reader.html#a27e2dd274b410ff5de9819b646188bfe" target="_top" xlink:title=" ">
<polygon fill="white" stroke="#666666" points="841,-511.5 680,-511.5 680,-470.5 841,-470.5 841,-511.5"/>
<text text-anchor="start" x="688" y="-499.5" font-family="Helvetica,sans-Serif" font-size="10.00">doris::vectorized::</text>
<text text-anchor="start" x="688" y="-488.5" font-family="Helvetica,sans-Serif" font-size="10.00">NewJsonReader::_simdjson</text>
<text text-anchor="middle" x="760.5" y="-477.5" font-family="Helvetica,sans-Serif" font-size="10.00">_handle_flat_array_complex_json</text>
</a>
</g>
</g>
<!-- Node1&#45;&gt;Node6 -->
<g id="edge43" class="edge">
<title>Node1&#45;&gt;Node6</title>
<path fill="none" stroke="#63b8ff" d="M1093.45,-389.34C1074.47,-405.22 1044.18,-428.16 1014,-441 958.89,-464.43 892.3,-477.04 841.33,-483.72"/>
<polygon fill="#63b8ff" stroke="#63b8ff" points="1095.58,-392.12 1100.9,-382.96 1091.03,-386.81 1095.58,-392.12"/>
</g>
<!-- Node8 -->
<g id="node8" class="node">
<title>Node8</title>
<g id="a_node8"><a xlink:href="../../de/d4e/classdoris_1_1vectorized_1_1_new_json_reader.html#ac305c3e627c1e96e02bcc53cf9557307" target="_top" xlink:title=" ">
<polygon fill="white" stroke="#666666" points="835.5,-452.5 685.5,-452.5 685.5,-411.5 835.5,-411.5 835.5,-452.5"/>
<text text-anchor="start" x="693.5" y="-440.5" font-family="Helvetica,sans-Serif" font-size="10.00">doris::vectorized::</text>
<text text-anchor="start" x="693.5" y="-429.5" font-family="Helvetica,sans-Serif" font-size="10.00">NewJsonReader::_simdjson</text>
<text text-anchor="middle" x="760.5" y="-418.5" font-family="Helvetica,sans-Serif" font-size="10.00">_handle_nested_complex_json</text>
</a>
</g>
</g>
<!-- Node1&#45;&gt;Node8 -->
<g id="edge44" class="edge">
<title>Node1&#45;&gt;Node8</title>
<path fill="none" stroke="#63b8ff" d="M1087.41,-387.59C1068.02,-398.53 1040.3,-412.36 1014,-419 955.37,-433.8 886.73,-436.44 835.83,-435.72"/>
<polygon fill="#63b8ff" stroke="#63b8ff" points="1089.07,-390.67 1095.96,-382.63 1085.56,-384.62 1089.07,-390.67"/>
</g>
<!-- Node9 -->
<g id="node9" class="node">
<title>Node9</title>
<g id="a_node9"><a xlink:href="../../de/d4e/classdoris_1_1vectorized_1_1_new_json_reader.html#a11d640e2f673f5722766d71637a26ecd" target="_top" xlink:title=" ">
<polygon fill="white" stroke="#666666" points="460,-588.5 320,-588.5 320,-547.5 460,-547.5 460,-588.5"/>
<text text-anchor="start" x="328" y="-576.5" font-family="Helvetica,sans-Serif" font-size="10.00">doris::vectorized::</text>
<text text-anchor="start" x="328" y="-565.5" font-family="Helvetica,sans-Serif" font-size="10.00">NewJsonReader::_simdjson</text>
<text text-anchor="middle" x="390" y="-554.5" font-family="Helvetica,sans-Serif" font-size="10.00">_handle_simple_json</text>
</a>
</g>
</g>
<!-- Node1&#45;&gt;Node9 -->
<g id="edge45" class="edge">
<title>Node1&#45;&gt;Node9</title>
<path fill="none" stroke="#63b8ff" d="M1099.65,-390.71C1082.41,-413.5 1050.29,-451.59 1014,-473 945.28,-513.55 919.4,-506.14 841,-521 769.9,-534.48 568.04,-552.9 460.48,-562.17"/>
<polygon fill="#63b8ff" stroke="#63b8ff" points="1102.27,-393.05 1105.39,-382.92 1096.64,-388.9 1102.27,-393.05"/>
</g>
<!-- Node16 -->
<g id="node16" class="node">
<title>Node16</title>
<g id="a_node16"><a xlink:href="../../d0/de7/classdoris_1_1vectorized_1_1_csv_reader.html#a0807bb98db73cb5b1f9029e78ae6076c" target="_top" xlink:title=" ">
<polygon fill="white" stroke="#666666" points="1011,-392.5 880,-392.5 880,-351.5 1011,-351.5 1011,-392.5"/>
<text text-anchor="start" x="888" y="-380.5" font-family="Helvetica,sans-Serif" font-size="10.00">doris::vectorized::</text>
<text text-anchor="start" x="888" y="-369.5" font-family="Helvetica,sans-Serif" font-size="10.00">CsvReader::_check_array</text>
<text text-anchor="middle" x="945.5" y="-358.5" font-family="Helvetica,sans-Serif" font-size="10.00">_format</text>
</a>
</g>
</g>
<!-- Node1&#45;&gt;Node16 -->
<g id="edge25" class="edge">
<title>Node1&#45;&gt;Node16</title>
<path fill="none" stroke="#63b8ff" d="M1038.31,-372C1029.33,-372 1020.22,-372 1011.4,-372"/>
<polygon fill="#63b8ff" stroke="#63b8ff" points="1038.07,-375.5 1048.06,-372 1038.06,-368.5 1038.07,-375.5"/>
</g>
<!-- Node17 -->
<g id="node17" class="node">
<title>Node17</title>
<g id="a_node17"><a xlink:href="../../db/dc6/classdoris_1_1vectorized_1_1_v_file_scanner.html#a5bdfd0120c389bfe33a7350cd19f71ee" target="_top" xlink:title=" ">
<polygon fill="white" stroke="#666666" points="1005,-333.5 886,-333.5 886,-292.5 1005,-292.5 1005,-333.5"/>
<text text-anchor="start" x="894" y="-321.5" font-family="Helvetica,sans-Serif" font-size="10.00">doris::vectorized::</text>
<text text-anchor="start" x="894" y="-310.5" font-family="Helvetica,sans-Serif" font-size="10.00">VFileScanner::_convert</text>
<text text-anchor="middle" x="945.5" y="-299.5" font-family="Helvetica,sans-Serif" font-size="10.00">_to_output_block</text>
</a>
</g>
</g>
<!-- Node1&#45;&gt;Node17 -->
<g id="edge26" class="edge">
<title>Node1&#45;&gt;Node17</title>
<path fill="none" stroke="#63b8ff" d="M1074.31,-358.29C1053.79,-351.02 1028.14,-341.93 1005.22,-333.81"/>
<polygon fill="#63b8ff" stroke="#63b8ff" points="1073.11,-361.58 1083.71,-361.62 1075.45,-354.98 1073.11,-361.58"/>
</g>
<!-- Node19 -->
<g id="node19" class="node">
<title>Node19</title>
<g id="a_node19"><a xlink:href="../../d0/de7/classdoris_1_1vectorized_1_1_csv_reader.html#adf5d6310ab8409a647e25d657b5addca" target="_top" xlink:title=" ">
<polygon fill="white" stroke="#666666" points="1003.5,-274.5 887.5,-274.5 887.5,-233.5 1003.5,-233.5 1003.5,-274.5"/>
<text text-anchor="start" x="895.5" y="-262.5" font-family="Helvetica,sans-Serif" font-size="10.00">doris::vectorized::</text>
<text text-anchor="start" x="895.5" y="-251.5" font-family="Helvetica,sans-Serif" font-size="10.00">CsvReader::_line_split</text>
<text text-anchor="middle" x="945.5" y="-240.5" font-family="Helvetica,sans-Serif" font-size="10.00">_to_values</text>
</a>
</g>
</g>
<!-- Node1&#45;&gt;Node19 -->
<g id="edge28" class="edge">
<title>Node1&#45;&gt;Node19</title>
<path fill="none" stroke="#63b8ff" d="M1096.12,-354C1077.42,-334.81 1045.71,-304.43 1014,-284 1009.04,-280.8 1003.69,-277.79 998.23,-274.99"/>
<polygon fill="#63b8ff" stroke="#63b8ff" points="1093.48,-356.3 1102.93,-361.1 1098.53,-351.45 1093.48,-356.3"/>
</g>
<!-- Node22 -->
<g id="node22" class="node">
<title>Node22</title>
<g id="a_node22"><a xlink:href="../../dd/da0/classdoris_1_1_base_scanner.html#a705462d688e59a60c9b7fc191fca6639" target="_top" xlink:title=" ">
<polygon fill="white" stroke="#666666" points="1009.5,-215 881.5,-215 881.5,-185 1009.5,-185 1009.5,-215"/>
<text text-anchor="start" x="889.5" y="-203" font-family="Helvetica,sans-Serif" font-size="10.00">doris::BaseScanner</text>
<text text-anchor="middle" x="945.5" y="-192" font-family="Helvetica,sans-Serif" font-size="10.00">::_materialize_dest_block</text>
</a>
</g>
</g>
<!-- Node1&#45;&gt;Node22 -->
<g id="edge31" class="edge">
<title>Node1&#45;&gt;Node22</title>
<path fill="none" stroke="#63b8ff" d="M1104.37,-351.73C1090.02,-320.33 1058.39,-259.91 1014,-225 1009.28,-221.29 1003.96,-218.1 998.43,-215.35"/>
<polygon fill="#63b8ff" stroke="#63b8ff" points="1101.15,-353.12 1108.4,-360.85 1107.56,-350.29 1101.15,-353.12"/>
</g>
<!-- Node25 -->
<g id="node25" class="node">
<title>Node25</title>
<g id="a_node25"><a xlink:href="../../de/d4e/classdoris_1_1vectorized_1_1_new_json_reader.html#a1fab36e7ede5740e4fc0af4a936d850d" target="_top" xlink:title=" ">
<polygon fill="white" stroke="#666666" points="823,-393.5 698,-393.5 698,-352.5 823,-352.5 823,-393.5"/>
<text text-anchor="start" x="706" y="-381.5" font-family="Helvetica,sans-Serif" font-size="10.00">doris::vectorized::</text>
<text text-anchor="start" x="706" y="-370.5" font-family="Helvetica,sans-Serif" font-size="10.00">NewJsonReader::_parse</text>
<text text-anchor="middle" x="760.5" y="-359.5" font-family="Helvetica,sans-Serif" font-size="10.00">_dynamic_json</text>
</a>
</g>
</g>
<!-- Node1&#45;&gt;Node25 -->
<g id="edge34" class="edge">
<title>Node1&#45;&gt;Node25</title>
<path fill="none" stroke="#63b8ff" d="M1077.21,-385.63C1058.65,-391.98 1035.43,-398.82 1014,-402 953.77,-410.93 937.43,-409.47 877,-402 859.35,-399.82 840.53,-395.83 823.31,-391.49"/>
<polygon fill="#63b8ff" stroke="#63b8ff" points="1078.14,-389.01 1086.4,-382.38 1075.81,-382.41 1078.14,-389.01"/>
</g>
<!-- Node27 -->
<g id="node27" class="node">
<title>Node27</title>
<g id="a_node27"><a xlink:href="../../de/d4e/classdoris_1_1vectorized_1_1_new_json_reader.html#ac17a39eef7f09e89e94fe08b3fb4bcf8" target="_top" xlink:title=" ">
<polygon fill="white" stroke="#666666" points="1008,-818.5 883,-818.5 883,-777.5 1008,-777.5 1008,-818.5"/>
<text text-anchor="start" x="891" y="-806.5" font-family="Helvetica,sans-Serif" font-size="10.00">doris::vectorized::</text>
<text text-anchor="start" x="891" y="-795.5" font-family="Helvetica,sans-Serif" font-size="10.00">NewJsonReader::_parse</text>
<text text-anchor="middle" x="945.5" y="-784.5" font-family="Helvetica,sans-Serif" font-size="10.00">_json_doc</text>
</a>
</g>
</g>
<!-- Node1&#45;&gt;Node27 -->
<g id="edge38" class="edge">
<title>Node1&#45;&gt;Node27</title>
<path fill="none" stroke="#63b8ff" d="M1108.33,-392.75C1096.37,-444.1 1062.19,-580.64 1014,-687 999.01,-720.08 976.18,-755.45 961.3,-777.15"/>
<polygon fill="#63b8ff" stroke="#63b8ff" points="1111.66,-393.85 1110.49,-383.33 1104.84,-392.29 1111.66,-393.85"/>
</g>
<!-- Node29 -->
<g id="node29" class="node">
<title>Node29</title>
<g id="a_node29"><a xlink:href="../../d2/d6d/classdoris_1_1stream__load_1_1_v_olap_table_sink.html#aac22a1da795ed3226bfaff3e1f1ef354" target="_top" xlink:title=" ">
<polygon fill="white" stroke="#666666" points="1014,-89.5 877,-89.5 877,-48.5 1014,-48.5 1014,-89.5"/>
<text text-anchor="start" x="885" y="-77.5" font-family="Helvetica,sans-Serif" font-size="10.00">doris::stream_load</text>
<text text-anchor="start" x="885" y="-66.5" font-family="Helvetica,sans-Serif" font-size="10.00">::VOlapTableSink::_validate</text>
<text text-anchor="middle" x="945.5" y="-55.5" font-family="Helvetica,sans-Serif" font-size="10.00">_column</text>
</a>
</g>
</g>
<!-- Node1&#45;&gt;Node29 -->
<g id="edge46" class="edge">
<title>Node1&#45;&gt;Node29</title>
<path fill="none" stroke="#63b8ff" d="M1109.13,-350.98C1099.75,-304.6 1072.13,-191.67 1014,-117 1005.79,-106.45 994.63,-97.23 983.76,-89.76"/>
<polygon fill="#63b8ff" stroke="#63b8ff" points="1105.68,-351.57 1111.02,-360.73 1112.56,-350.24 1105.68,-351.57"/>
</g>
<!-- Node32 -->
<g id="node32" class="node">
<title>Node32</title>
<g id="a_node32"><a xlink:href="../../dd/da0/classdoris_1_1_base_scanner.html#ac6e7d07408fe12b2987350140e702a35" target="_top" xlink:title=" ">
<polygon fill="white" stroke="#666666" points="1000,-30 891,-30 891,0 1000,0 1000,-30"/>
<text text-anchor="start" x="899" y="-18" font-family="Helvetica,sans-Serif" font-size="10.00">doris::BaseScanner</text>
<text text-anchor="middle" x="945.5" y="-7" font-family="Helvetica,sans-Serif" font-size="10.00">::check_array_format</text>
</a>
</g>
</g>
<!-- Node1&#45;&gt;Node32 -->
<g id="edge50" class="edge">
<title>Node1&#45;&gt;Node32</title>
<path fill="none" stroke="#63b8ff" d="M1112.97,-351.08C1111.76,-293.35 1100.45,-130.12 1014,-39 1010.06,-34.85 1005.36,-31.42 1000.3,-28.57"/>
<polygon fill="#63b8ff" stroke="#63b8ff" points="1109.47,-350.81 1113.09,-360.77 1116.47,-350.73 1109.47,-350.81"/>
</g>
<!-- Node33 -->
<g id="node33" class="node">
<title>Node33</title>
<g id="a_node33"><a xlink:href="../../d2/d6d/classdoris_1_1stream__load_1_1_v_olap_table_sink.html#a440efa01d9065bd1a41729da302786a7" target="_top" xlink:title=" ">
<polygon fill="white" stroke="#666666" points="1002.5,-166.5 888.5,-166.5 888.5,-125.5 1002.5,-125.5 1002.5,-166.5"/>
<text text-anchor="start" x="896.5" y="-154.5" font-family="Helvetica,sans-Serif" font-size="10.00">doris::stream_load</text>
<text text-anchor="start" x="896.5" y="-143.5" font-family="Helvetica,sans-Serif" font-size="10.00">::VOlapTableSink::find</text>
<text text-anchor="middle" x="945.5" y="-132.5" font-family="Helvetica,sans-Serif" font-size="10.00">_tablet</text>
</a>
</g>
</g>
<!-- Node1&#45;&gt;Node33 -->
<g id="edge51" class="edge">
<title>Node1&#45;&gt;Node33</title>
<path fill="none" stroke="#63b8ff" d="M1107.51,-350.96C1096.26,-311.66 1067.08,-226.51 1014,-176 1010.47,-172.64 1006.5,-169.62 1002.3,-166.9"/>
<polygon fill="#63b8ff" stroke="#63b8ff" points="1104.12,-351.83 1110.14,-360.55 1110.87,-349.98 1104.12,-351.83"/>
</g>
<!-- Node3 -->
<g id="node3" class="node">
<title>Node3</title>
<g id="a_node3"><a xlink:href="../../de/d4e/classdoris_1_1vectorized_1_1_new_json_reader.html#aee9b6f6c0ba456d61f2ffa2f3d5561ec" target="_top" xlink:title=" ">
<polygon fill="white" stroke="#666666" points="627,-832.5 513,-832.5 513,-791.5 627,-791.5 627,-832.5"/>
<text text-anchor="start" x="521" y="-820.5" font-family="Helvetica,sans-Serif" font-size="10.00">doris::vectorized::</text>
<text text-anchor="start" x="521" y="-809.5" font-family="Helvetica,sans-Serif" font-size="10.00">NewJsonReader::_set</text>
<text text-anchor="middle" x="570" y="-798.5" font-family="Helvetica,sans-Serif" font-size="10.00">_column_value</text>
</a>
</g>
</g>
<!-- Node2&#45;&gt;Node3 -->
<g id="edge2" class="edge">
<title>Node2&#45;&gt;Node3</title>
<path fill="none" stroke="#63b8ff" d="M930.58,-688.13C914.24,-720.58 883.8,-769.88 841,-793 774.44,-828.96 684.81,-827.2 627.45,-820.95"/>
<polygon fill="#63b8ff" stroke="#63b8ff" points="933.7,-689.72 934.92,-679.19 927.41,-686.66 933.7,-689.72"/>
</g>
<!-- Node4 -->
<g id="node4" class="node">
<title>Node4</title>
<g id="a_node4"><a xlink:href="../../de/d4e/classdoris_1_1vectorized_1_1_new_json_reader.html#a7e416521e1981441944ec6791446fe64" target="_top" xlink:title=" ">
<polygon fill="white" stroke="#666666" points="457,-832.5 323,-832.5 323,-791.5 457,-791.5 457,-832.5"/>
<text text-anchor="start" x="331" y="-820.5" font-family="Helvetica,sans-Serif" font-size="10.00">doris::vectorized::</text>
<text text-anchor="start" x="331" y="-809.5" font-family="Helvetica,sans-Serif" font-size="10.00">NewJsonReader::_vhandle</text>
<text text-anchor="middle" x="390" y="-798.5" font-family="Helvetica,sans-Serif" font-size="10.00">_simple_json</text>
</a>
</g>
</g>
<!-- Node2&#45;&gt;Node4 -->
<g id="edge16" class="edge">
<title>Node2&#45;&gt;Node4</title>
<path fill="none" stroke="#63b8ff" d="M926.32,-687.49C898.44,-734.03 847.62,-817.89 841,-822 720.36,-896.95 544.2,-860.43 452.16,-832.95"/>
<polygon fill="#63b8ff" stroke="#63b8ff" points="929.16,-689.57 931.29,-679.19 923.15,-685.97 929.16,-689.57"/>
</g>
<!-- Node2&#45;&gt;Node6 -->
<g id="edge5" class="edge">
<title>Node2&#45;&gt;Node6</title>
<path fill="none" stroke="#63b8ff" d="M914.61,-628.41C894.09,-608.93 866.12,-582.66 841,-560 822.82,-543.6 801.89,-525.46 786.07,-511.9"/>
<polygon fill="#63b8ff" stroke="#63b8ff" points="912.16,-630.92 921.82,-635.28 916.99,-625.85 912.16,-630.92"/>
</g>
<!-- Node2&#45;&gt;Node8 -->
<g id="edge8" class="edge">
<title>Node2&#45;&gt;Node8</title>
<path fill="none" stroke="#63b8ff" d="M935.51,-625.41C921.83,-582.7 891.86,-506.77 841,-462 837.12,-458.59 832.82,-455.55 828.28,-452.84"/>
<polygon fill="#63b8ff" stroke="#63b8ff" points="932.12,-626.3 938.42,-634.82 938.81,-624.23 932.12,-626.3"/>
</g>
<!-- Node2&#45;&gt;Node9 -->
<g id="edge10" class="edge">
<title>Node2&#45;&gt;Node9</title>
<path fill="none" stroke="#63b8ff" d="M867.72,-660.18C776.91,-661.76 622.15,-657.51 496,-619 471.97,-611.66 446.58,-599.47 426.79,-588.84"/>
<polygon fill="#63b8ff" stroke="#63b8ff" points="867.58,-663.69 877.5,-659.98 867.43,-656.69 867.58,-663.69"/>
</g>
<!-- Node10 -->
<g id="node10" class="node">
<title>Node10</title>
<g id="a_node10"><a xlink:href="../../de/d4e/classdoris_1_1vectorized_1_1_new_json_reader.html#ad1a187b2584c7c6b332e80a57d75af68" target="_top" xlink:title=" ">
<polygon fill="white" stroke="#666666" points="640,-609.5 500,-609.5 500,-568.5 640,-568.5 640,-609.5"/>
<text text-anchor="start" x="508" y="-597.5" font-family="Helvetica,sans-Serif" font-size="10.00">doris::vectorized::</text>
<text text-anchor="start" x="508" y="-586.5" font-family="Helvetica,sans-Serif" font-size="10.00">NewJsonReader::_simdjson</text>
<text text-anchor="middle" x="570" y="-575.5" font-family="Helvetica,sans-Serif" font-size="10.00">_set_column_value</text>
</a>
</g>
</g>
<!-- Node2&#45;&gt;Node10 -->
<g id="edge12" class="edge">
<title>Node2&#45;&gt;Node10</title>
<path fill="none" stroke="#63b8ff" d="M867.8,-648.57C814.76,-642.11 742.72,-632.08 680,-619 667.13,-616.31 653.53,-612.98 640.46,-609.52"/>
<polygon fill="#63b8ff" stroke="#63b8ff" points="867.3,-652.04 877.65,-649.75 868.14,-645.09 867.3,-652.04"/>
</g>
<!-- Node11 -->
<g id="node11" class="node">
<title>Node11</title>
<g id="a_node11"><a xlink:href="../../de/d4e/classdoris_1_1vectorized_1_1_new_json_reader.html#a274bd1c4daab85861d7b9728d2557d0f" target="_top" xlink:title=" ">
<polygon fill="white" stroke="#666666" points="830.5,-609.5 690.5,-609.5 690.5,-568.5 830.5,-568.5 830.5,-609.5"/>
<text text-anchor="start" x="698.5" y="-597.5" font-family="Helvetica,sans-Serif" font-size="10.00">doris::vectorized::</text>
<text text-anchor="start" x="698.5" y="-586.5" font-family="Helvetica,sans-Serif" font-size="10.00">NewJsonReader::_simdjson</text>
<text text-anchor="middle" x="760.5" y="-575.5" font-family="Helvetica,sans-Serif" font-size="10.00">_write_data_to_column</text>
</a>
</g>
</g>
<!-- Node2&#45;&gt;Node11 -->
<g id="edge14" class="edge">
<title>Node2&#45;&gt;Node11</title>
<path fill="none" stroke="#63b8ff" d="M877.4,-632.07C857.79,-624.78 836.57,-616.9 817.71,-609.89"/>
<polygon fill="#63b8ff" stroke="#63b8ff" points="876.09,-635.31 886.68,-635.52 878.53,-628.75 876.09,-635.31"/>
</g>
<!-- Node12 -->
<g id="node12" class="node">
<title>Node12</title>
<g id="a_node12"><a xlink:href="../../de/d4e/classdoris_1_1vectorized_1_1_new_json_reader.html#a834be8c2ff18f69df5a0602f6ccd1481" target="_top" xlink:title=" ">
<polygon fill="white" stroke="#666666" points="631,-724.5 509,-724.5 509,-683.5 631,-683.5 631,-724.5"/>
<text text-anchor="start" x="517" y="-712.5" font-family="Helvetica,sans-Serif" font-size="10.00">doris::vectorized::</text>
<text text-anchor="start" x="517" y="-701.5" font-family="Helvetica,sans-Serif" font-size="10.00">NewJsonReader::_write</text>
<text text-anchor="middle" x="570" y="-690.5" font-family="Helvetica,sans-Serif" font-size="10.00">_columns_by_jsonpath</text>
</a>
</g>
</g>
<!-- Node2&#45;&gt;Node12 -->
<g id="edge17" class="edge">
<title>Node2&#45;&gt;Node12</title>
<path fill="none" stroke="#63b8ff" d="M876.96,-681.27C865.11,-684.74 852.79,-687.85 841,-690 769.77,-702.98 686.35,-705.4 631.3,-705.27"/>
<polygon fill="#63b8ff" stroke="#63b8ff" points="877.69,-684.7 886.24,-678.44 875.65,-678.01 877.69,-684.7"/>
</g>
<!-- Node15 -->
<g id="node15" class="node">
<title>Node15</title>
<g id="a_node15"><a xlink:href="../../de/d4e/classdoris_1_1vectorized_1_1_new_json_reader.html#a6bf9818548cb20f7e4dfcc10f62fdbc4" target="_top" xlink:title=" ">
<polygon fill="white" stroke="#666666" points="821.5,-783.5 699.5,-783.5 699.5,-742.5 821.5,-742.5 821.5,-783.5"/>
<text text-anchor="start" x="707.5" y="-771.5" font-family="Helvetica,sans-Serif" font-size="10.00">doris::vectorized::</text>
<text text-anchor="start" x="707.5" y="-760.5" font-family="Helvetica,sans-Serif" font-size="10.00">NewJsonReader::_write</text>
<text text-anchor="middle" x="760.5" y="-749.5" font-family="Helvetica,sans-Serif" font-size="10.00">_data_to_column</text>
</a>
</g>
</g>
<!-- Node2&#45;&gt;Node15 -->
<g id="edge22" class="edge">
<title>Node2&#45;&gt;Node15</title>
<path fill="none" stroke="#63b8ff" d="M908.22,-684.35C888.83,-698.33 864.23,-715.07 841,-728 832.04,-732.99 822.23,-737.8 812.66,-742.17"/>
<polygon fill="#63b8ff" stroke="#63b8ff" points="910.05,-687.35 916.07,-678.64 905.92,-681.7 910.05,-687.35"/>
</g>
<!-- Node3&#45;&gt;Node4 -->
<g id="edge3" class="edge">
<title>Node3&#45;&gt;Node4</title>
<path fill="none" stroke="#63b8ff" d="M501.3,-812C486.85,-812 471.61,-812 457.22,-812"/>
<polygon fill="#63b8ff" stroke="#63b8ff" points="501.17,-815.5 511.17,-812 501.17,-808.5 501.17,-815.5"/>
</g>
<!-- Node5 -->
<g id="node5" class="node">
<title>Node5</title>
<g id="a_node5"><a xlink:href="../../de/d4e/classdoris_1_1vectorized_1_1_new_json_reader.html#ab4f42ffccc18a8c874a12a03d740c6b6" target="_top" xlink:title=" ">
<polygon fill="white" stroke="#666666" points="108,-714.5 0,-714.5 0,-673.5 108,-673.5 108,-714.5"/>
<text text-anchor="start" x="8" y="-702.5" font-family="Helvetica,sans-Serif" font-size="10.00">doris::vectorized::</text>
<text text-anchor="start" x="8" y="-691.5" font-family="Helvetica,sans-Serif" font-size="10.00">NewJsonReader::init</text>
<text text-anchor="middle" x="54" y="-680.5" font-family="Helvetica,sans-Serif" font-size="10.00">_reader</text>
</a>
</g>
</g>
<!-- Node4&#45;&gt;Node5 -->
<g id="edge4" class="edge">
<title>Node4&#45;&gt;Node5</title>
<path fill="none" stroke="#63b8ff" d="M311.93,-790.52C263.24,-776.27 199.3,-756.33 144,-735 128.6,-729.06 112.1,-721.74 97.53,-714.93"/>
<polygon fill="#63b8ff" stroke="#63b8ff" points="310.67,-793.79 321.25,-793.22 312.63,-787.07 310.67,-793.79"/>
</g>
<!-- Node7 -->
<g id="node7" class="node">
<title>Node7</title>
<g id="a_node7"><a xlink:href="../../de/d4e/classdoris_1_1vectorized_1_1_new_json_reader.html#a7252bdd1396ddc708331ca3f9d5db6df" target="_top" xlink:title=" ">
<polygon fill="white" stroke="#666666" points="284,-517.5 144,-517.5 144,-476.5 284,-476.5 284,-517.5"/>
<text text-anchor="start" x="152" y="-505.5" font-family="Helvetica,sans-Serif" font-size="10.00">doris::vectorized::</text>
<text text-anchor="start" x="152" y="-494.5" font-family="Helvetica,sans-Serif" font-size="10.00">NewJsonReader::_simdjson</text>
<text text-anchor="middle" x="214" y="-483.5" font-family="Helvetica,sans-Serif" font-size="10.00">_init_reader</text>
</a>
</g>
</g>
<!-- Node6&#45;&gt;Node7 -->
<g id="edge6" class="edge">
<title>Node6&#45;&gt;Node7</title>
<path fill="none" stroke="#63b8ff" d="M668.52,-492C560.23,-493.2 381.83,-495.16 284.18,-496.24"/>
<polygon fill="#63b8ff" stroke="#63b8ff" points="668.27,-495.51 678.23,-491.9 668.19,-488.51 668.27,-495.51"/>
</g>
<!-- Node7&#45;&gt;Node5 -->
<g id="edge7" class="edge">
<title>Node7&#45;&gt;Node5</title>
<path fill="none" stroke="#63b8ff" d="M189.31,-526.54C156.96,-566.87 99.79,-638.16 71.62,-673.27"/>
<polygon fill="#63b8ff" stroke="#63b8ff" points="191.92,-528.88 195.44,-518.89 186.46,-524.5 191.92,-528.88"/>
</g>
<!-- Node8&#45;&gt;Node7 -->
<g id="edge9" class="edge">
<title>Node8&#45;&gt;Node7</title>
<path fill="none" stroke="#63b8ff" d="M674.09,-442.2C566.54,-455.03 383.85,-476.84 284.45,-488.71"/>
<polygon fill="#63b8ff" stroke="#63b8ff" points="674.2,-445.71 683.71,-441.05 673.37,-438.76 674.2,-445.71"/>
</g>
<!-- Node9&#45;&gt;Node7 -->
<g id="edge11" class="edge">
<title>Node9&#45;&gt;Node7</title>
<path fill="none" stroke="#63b8ff" d="M327.18,-542.78C307.22,-534.63 285.31,-525.69 266.2,-517.89"/>
<polygon fill="#63b8ff" stroke="#63b8ff" points="325.75,-545.97 336.33,-546.51 328.4,-539.49 325.75,-545.97"/>
</g>
<!-- Node10&#45;&gt;Node9 -->
<g id="edge13" class="edge">
<title>Node10&#45;&gt;Node9</title>
<path fill="none" stroke="#63b8ff" d="M488.38,-579.49C479.05,-578.39 469.6,-577.27 460.43,-576.19"/>
<polygon fill="#63b8ff" stroke="#63b8ff" points="487.83,-582.95 498.17,-580.64 488.65,-576 487.83,-582.95"/>
</g>
<!-- Node11&#45;&gt;Node10 -->
<g id="edge15" class="edge">
<title>Node11&#45;&gt;Node10</title>
<path fill="none" stroke="#63b8ff" d="M678.91,-589C666.04,-589 652.82,-589 640.24,-589"/>
<polygon fill="#63b8ff" stroke="#63b8ff" points="678.6,-592.5 688.6,-589 678.6,-585.5 678.6,-592.5"/>
</g>
<!-- Node13 -->
<g id="node13" class="node">
<title>Node13</title>
<g id="a_node13"><a xlink:href="../../de/d4e/classdoris_1_1vectorized_1_1_new_json_reader.html#a659bb1cbcffd81a8d62b47dce773b518" target="_top" xlink:title=" ">
<polygon fill="white" stroke="#666666" points="457,-714.5 323,-714.5 323,-673.5 457,-673.5 457,-714.5"/>
<text text-anchor="start" x="331" y="-702.5" font-family="Helvetica,sans-Serif" font-size="10.00">doris::vectorized::</text>
<text text-anchor="start" x="331" y="-691.5" font-family="Helvetica,sans-Serif" font-size="10.00">NewJsonReader::_vhandle</text>
<text text-anchor="middle" x="390" y="-680.5" font-family="Helvetica,sans-Serif" font-size="10.00">_flat_array_complex_json</text>
</a>
</g>
</g>
<!-- Node12&#45;&gt;Node13 -->
<g id="edge18" class="edge">
<title>Node12&#45;&gt;Node13</title>
<path fill="none" stroke="#63b8ff" d="M497.3,-699.97C484.09,-699.23 470.35,-698.46 457.31,-697.73"/>
<polygon fill="#63b8ff" stroke="#63b8ff" points="497.05,-703.46 507.23,-700.53 497.44,-696.47 497.05,-703.46"/>
</g>
<!-- Node14 -->
<g id="node14" class="node">
<title>Node14</title>
<g id="a_node14"><a xlink:href="../../de/d4e/classdoris_1_1vectorized_1_1_new_json_reader.html#a592b844c05a8c799dd76577f5393a4dd" target="_top" xlink:title=" ">
<polygon fill="white" stroke="#666666" points="457,-773.5 323,-773.5 323,-732.5 457,-732.5 457,-773.5"/>
<text text-anchor="start" x="331" y="-761.5" font-family="Helvetica,sans-Serif" font-size="10.00">doris::vectorized::</text>
<text text-anchor="start" x="331" y="-750.5" font-family="Helvetica,sans-Serif" font-size="10.00">NewJsonReader::_vhandle</text>
<text text-anchor="middle" x="390" y="-739.5" font-family="Helvetica,sans-Serif" font-size="10.00">_nested_complex_json</text>
</a>
</g>
</g>
<!-- Node12&#45;&gt;Node14 -->
<g id="edge20" class="edge">
<title>Node12&#45;&gt;Node14</title>
<path fill="none" stroke="#63b8ff" d="M497.7,-723.63C484.37,-727.3 470.48,-731.12 457.31,-734.75"/>
<polygon fill="#63b8ff" stroke="#63b8ff" points="498.57,-727.02 507.28,-720.99 496.71,-720.27 498.57,-727.02"/>
</g>
<!-- Node13&#45;&gt;Node5 -->
<g id="edge19" class="edge">
<title>Node13&#45;&gt;Node5</title>
<path fill="none" stroke="#63b8ff" d="M311.26,-694C248.93,-694 163.12,-694 108.34,-694"/>
<polygon fill="#63b8ff" stroke="#63b8ff" points="311.1,-697.5 321.1,-694 311.1,-690.5 311.1,-697.5"/>
</g>
<!-- Node14&#45;&gt;Node5 -->
<g id="edge21" class="edge">
<title>Node14&#45;&gt;Node5</title>
<path fill="none" stroke="#63b8ff" d="M311.65,-739.34C249.29,-728.32 163.23,-713.12 108.34,-703.42"/>
<polygon fill="#63b8ff" stroke="#63b8ff" points="310.67,-742.72 321.12,-741.01 311.88,-735.82 310.67,-742.72"/>
</g>
<!-- Node15&#45;&gt;Node3 -->
<g id="edge23" class="edge">
<title>Node15&#45;&gt;Node3</title>
<path fill="none" stroke="#63b8ff" d="M688.07,-781.57C667.95,-786.8 646.34,-792.42 627.24,-797.38"/>
<polygon fill="#63b8ff" stroke="#63b8ff" points="688.82,-784.99 697.61,-779.09 687.06,-778.22 688.82,-784.99"/>
</g>
<!-- Node15&#45;&gt;Node12 -->
<g id="edge24" class="edge">
<title>Node15&#45;&gt;Node12</title>
<path fill="none" stroke="#63b8ff" d="M688.23,-740.69C669.51,-734.83 649.49,-728.57 631.4,-722.91"/>
<polygon fill="#63b8ff" stroke="#63b8ff" points="687.05,-743.99 697.64,-743.64 689.14,-737.31 687.05,-743.99"/>
</g>
<!-- Node18 -->
<g id="node18" class="node">
<title>Node18</title>
<g id="a_node18"><a xlink:href="../../db/dc6/classdoris_1_1vectorized_1_1_v_file_scanner.html#a20a1a7a021ac29e1f43fe0f6d1773460" target="_top" xlink:title=" ">
<polygon fill="white" stroke="#666666" points="836.5,-328 684.5,-328 684.5,-298 836.5,-298 836.5,-328"/>
<text text-anchor="start" x="692.5" y="-316" font-family="Helvetica,sans-Serif" font-size="10.00">doris::vectorized::</text>
<text text-anchor="middle" x="760.5" y="-305" font-family="Helvetica,sans-Serif" font-size="10.00">VFileScanner::_get_block_impl</text>
</a>
</g>
</g>
<!-- Node17&#45;&gt;Node18 -->
<g id="edge27" class="edge">
<title>Node17&#45;&gt;Node18</title>
<path fill="none" stroke="#63b8ff" d="M874.43,-313C862.08,-313 849.18,-313 836.7,-313"/>
<polygon fill="#63b8ff" stroke="#63b8ff" points="874.08,-316.5 884.08,-313 874.08,-309.5 874.08,-316.5"/>
</g>
<!-- Node20 -->
<g id="node20" class="node">
<title>Node20</title>
<g id="a_node20"><a xlink:href="../../d0/de7/classdoris_1_1vectorized_1_1_csv_reader.html#a6037630a7656caafd7ac1d6dcf06003a" target="_top" xlink:title=" ">
<polygon fill="white" stroke="#666666" points="816,-274.5 705,-274.5 705,-233.5 816,-233.5 816,-274.5"/>
<text text-anchor="start" x="713" y="-262.5" font-family="Helvetica,sans-Serif" font-size="10.00">doris::vectorized::</text>
<text text-anchor="start" x="713" y="-251.5" font-family="Helvetica,sans-Serif" font-size="10.00">CsvReader::_fill_dest</text>
<text text-anchor="middle" x="760.5" y="-240.5" font-family="Helvetica,sans-Serif" font-size="10.00">_columns</text>
</a>
</g>
</g>
<!-- Node19&#45;&gt;Node20 -->
<g id="edge29" class="edge">
<title>Node19&#45;&gt;Node20</title>
<path fill="none" stroke="#63b8ff" d="M875.72,-254C856.06,-254 834.9,-254 816.2,-254"/>
<polygon fill="#63b8ff" stroke="#63b8ff" points="875.59,-257.5 885.59,-254 875.59,-250.5 875.59,-257.5"/>
</g>
<!-- Node21 -->
<g id="node21" class="node">
<title>Node21</title>
<g id="a_node21"><a xlink:href="../../d0/de7/classdoris_1_1vectorized_1_1_csv_reader.html#af165bb4c8e53de264286bd80974083a4" target="_top" xlink:title=" ">
<polygon fill="white" stroke="#666666" points="639,-269 501,-269 501,-239 639,-239 639,-269"/>
<text text-anchor="start" x="509" y="-257" font-family="Helvetica,sans-Serif" font-size="10.00">doris::vectorized::</text>
<text text-anchor="middle" x="570" y="-246" font-family="Helvetica,sans-Serif" font-size="10.00">CsvReader::get_next_block</text>
</a>
</g>
</g>
<!-- Node20&#45;&gt;Node21 -->
<g id="edge30" class="edge">
<title>Node20&#45;&gt;Node21</title>
<path fill="none" stroke="#63b8ff" d="M693.44,-254C675.92,-254 656.97,-254 639.33,-254"/>
<polygon fill="#63b8ff" stroke="#63b8ff" points="693.21,-257.5 703.21,-254 693.21,-250.5 693.21,-257.5"/>
</g>
<!-- Node23 -->
<g id="node23" class="node">
<title>Node23</title>
<g id="a_node23"><a xlink:href="../../dd/da0/classdoris_1_1_base_scanner.html#abf607f3aed3c94c27dd43fb7580b3e5d" target="_top" xlink:title=" ">
<polygon fill="white" stroke="#666666" points="811.5,-215 709.5,-215 709.5,-185 811.5,-185 811.5,-215"/>
<text text-anchor="start" x="717.5" y="-203" font-family="Helvetica,sans-Serif" font-size="10.00">doris::BaseScanner</text>
<text text-anchor="middle" x="760.5" y="-192" font-family="Helvetica,sans-Serif" font-size="10.00">::_fill_dest_block</text>
</a>
</g>
</g>
<!-- Node22&#45;&gt;Node23 -->
<g id="edge32" class="edge">
<title>Node22&#45;&gt;Node23</title>
<path fill="none" stroke="#63b8ff" d="M869.71,-200C850.26,-200 829.76,-200 811.91,-200"/>
<polygon fill="#63b8ff" stroke="#63b8ff" points="869.5,-203.5 879.5,-200 869.5,-196.5 869.5,-203.5"/>
</g>
<!-- Node24 -->
<g id="node24" class="node">
<title>Node24</title>
<g id="a_node24"><a xlink:href="../../da/daa/classdoris_1_1vectorized_1_1_v_arrow_scanner.html#a9c361e227d503395151a9779c38ab968" target="_top" xlink:title=" ">
<polygon fill="white" stroke="#666666" points="633.5,-215 506.5,-215 506.5,-185 633.5,-185 633.5,-215"/>
<text text-anchor="start" x="514.5" y="-203" font-family="Helvetica,sans-Serif" font-size="10.00">doris::vectorized::</text>
<text text-anchor="middle" x="570" y="-192" font-family="Helvetica,sans-Serif" font-size="10.00">VArrowScanner::get_next</text>
</a>
</g>
</g>
<!-- Node23&#45;&gt;Node24 -->
<g id="edge33" class="edge">
<title>Node23&#45;&gt;Node24</title>
<path fill="none" stroke="#63b8ff" d="M697.99,-200C677.4,-200 654.44,-200 633.75,-200"/>
<polygon fill="#63b8ff" stroke="#63b8ff" points="697.97,-203.5 707.97,-200 697.97,-196.5 697.97,-203.5"/>
</g>
<!-- Node26 -->
<g id="node26" class="node">
<title>Node26</title>
<g id="a_node26"><a xlink:href="../../de/d4e/classdoris_1_1vectorized_1_1_new_json_reader.html#a136cb43e016767f139546f7843ef9965" target="_top" xlink:title=" ">
<polygon fill="white" stroke="#666666" points="457,-430.5 323,-430.5 323,-389.5 457,-389.5 457,-430.5"/>
<text text-anchor="start" x="331" y="-418.5" font-family="Helvetica,sans-Serif" font-size="10.00">doris::vectorized::</text>
<text text-anchor="start" x="331" y="-407.5" font-family="Helvetica,sans-Serif" font-size="10.00">NewJsonReader::_vhandle</text>
<text text-anchor="middle" x="390" y="-396.5" font-family="Helvetica,sans-Serif" font-size="10.00">_dynamic_json</text>
</a>
</g>
</g>
<!-- Node25&#45;&gt;Node26 -->
<g id="edge35" class="edge">
<title>Node25&#45;&gt;Node26</title>
<path fill="none" stroke="#63b8ff" d="M686.56,-380.32C619.79,-387.03 521.82,-396.86 457.24,-403.35"/>
<polygon fill="#63b8ff" stroke="#63b8ff" points="686.72,-383.83 696.32,-379.34 686.02,-376.86 686.72,-383.83"/>
</g>
<!-- Node26&#45;&gt;Node5 -->
<g id="edge37" class="edge">
<title>Node26&#45;&gt;Node5</title>
<path fill="none" stroke="#63b8ff" d="M311.34,-410.31C258.47,-414.48 190.01,-428.13 144,-468 80.74,-522.82 62.07,-628.5 56.88,-673.21"/>
<polygon fill="#63b8ff" stroke="#63b8ff" points="311.46,-413.81 321.2,-409.64 310.99,-406.83 311.46,-413.81"/>
</g>
<!-- Node26&#45;&gt;Node7 -->
<g id="edge36" class="edge">
<title>Node26&#45;&gt;Node7</title>
<path fill="none" stroke="#63b8ff" d="M337.05,-435.97C311.47,-448.77 281.02,-463.99 256.94,-476.03"/>
<polygon fill="#63b8ff" stroke="#63b8ff" points="338.59,-439.12 345.97,-431.52 335.46,-432.86 338.59,-439.12"/>
</g>
<!-- Node28 -->
<g id="node28" class="node">
<title>Node28</title>
<g id="a_node28"><a xlink:href="../../de/d4e/classdoris_1_1vectorized_1_1_new_json_reader.html#a73abd021ec2f9a8d5251d001980643ab" target="_top" xlink:title=" ">
<polygon fill="white" stroke="#666666" points="644,-773 496,-773 496,-743 644,-743 644,-773"/>
<text text-anchor="start" x="504" y="-761" font-family="Helvetica,sans-Serif" font-size="10.00">doris::vectorized::</text>
<text text-anchor="middle" x="570" y="-750" font-family="Helvetica,sans-Serif" font-size="10.00">NewJsonReader::_parse_json</text>
</a>
</g>
</g>
<!-- Node27&#45;&gt;Node28 -->
<g id="edge39" class="edge">
<title>Node27&#45;&gt;Node28</title>
<path fill="none" stroke="#63b8ff" d="M871.16,-802.31C817.78,-804.06 743.95,-803.63 680,-793 673.41,-791.9 643.65,-782.3 616.9,-773.43"/>
<polygon fill="#63b8ff" stroke="#63b8ff" points="871.2,-805.81 881.06,-801.94 870.94,-798.81 871.2,-805.81"/>
</g>
<!-- Node28&#45;&gt;Node4 -->
<g id="edge42" class="edge">
<title>Node28&#45;&gt;Node4</title>
<path fill="none" stroke="#63b8ff" d="M507.09,-776.78C491,-781.66 473.61,-786.94 457.3,-791.89"/>
<polygon fill="#63b8ff" stroke="#63b8ff" points="507.99,-780.17 516.54,-773.91 505.96,-773.47 507.99,-780.17"/>
</g>
<!-- Node28&#45;&gt;Node13 -->
<g id="edge40" class="edge">
<title>Node28&#45;&gt;Node13</title>
<path fill="none" stroke="#63b8ff" d="M510.35,-738.98C505.48,-737.32 500.65,-735.65 496,-734 479.18,-728.03 460.97,-721.22 444.51,-714.93"/>
<polygon fill="#63b8ff" stroke="#63b8ff" points="508.96,-742.21 519.55,-742.08 511.19,-735.57 508.96,-742.21"/>
</g>
<!-- Node28&#45;&gt;Node14 -->
<g id="edge41" class="edge">
<title>Node28&#45;&gt;Node14</title>
<path fill="none" stroke="#63b8ff" d="M484.23,-755.62C475.22,-755.37 466.16,-755.11 457.42,-754.87"/>
<polygon fill="#63b8ff" stroke="#63b8ff" points="483.97,-759.11 494.06,-755.89 484.16,-752.12 483.97,-759.11"/>
</g>
<!-- Node29&#45;&gt;Node29 -->
<g id="edge47" class="edge">
<title>Node29&#45;&gt;Node29</title>
<path fill="none" stroke="#63b8ff" d="M973.23,-100.68C968.44,-104.79 959.2,-107.5 945.5,-107.5 921.8,-107.5 911.44,-99.38 914.4,-89.99"/>
<polygon fill="#63b8ff" stroke="#63b8ff" points="976.48,-102.02 976.15,-91.43 969.8,-99.92 976.48,-102.02"/>
</g>
<!-- Node30 -->
<g id="node30" class="node">
<title>Node30</title>
<g id="a_node30"><a xlink:href="../../d2/d6d/classdoris_1_1stream__load_1_1_v_olap_table_sink.html#a4f876f2a4e5a6d22319a8a16d5016dcc" target="_top" xlink:title=" ">
<polygon fill="white" stroke="#666666" points="841,-93 680,-93 680,-63 841,-63 841,-93"/>
<text text-anchor="start" x="688" y="-81" font-family="Helvetica,sans-Serif" font-size="10.00">doris::stream_load</text>
<text text-anchor="middle" x="760.5" y="-70" font-family="Helvetica,sans-Serif" font-size="10.00">::VOlapTableSink::_validate_data</text>
</a>
</g>
</g>
<!-- Node29&#45;&gt;Node30 -->
<g id="edge48" class="edge">
<title>Node29&#45;&gt;Node30</title>
<path fill="none" stroke="#63b8ff" d="M865.16,-72.9C857.26,-73.29 849.23,-73.69 841.33,-74.07"/>
<polygon fill="#63b8ff" stroke="#63b8ff" points="865.29,-76.4 875.11,-72.41 864.95,-69.41 865.29,-76.4"/>
</g>
<!-- Node31 -->
<g id="node31" class="node">
<title>Node31</title>
<g id="a_node31"><a xlink:href="../../d2/d6d/classdoris_1_1stream__load_1_1_v_olap_table_sink.html#a3d7b622f77d10de8f3cae03426932329" target="_top" xlink:title=" ">
<polygon fill="white" stroke="#666666" points="629.5,-119 510.5,-119 510.5,-89 629.5,-89 629.5,-119"/>
<text text-anchor="start" x="518.5" y="-107" font-family="Helvetica,sans-Serif" font-size="10.00">doris::stream_load</text>
<text text-anchor="middle" x="570" y="-96" font-family="Helvetica,sans-Serif" font-size="10.00">::VOlapTableSink::send</text>
</a>
</g>
</g>
<!-- Node30&#45;&gt;Node31 -->
<g id="edge49" class="edge">
<title>Node30&#45;&gt;Node31</title>
<path fill="none" stroke="#63b8ff" d="M668.17,-90.6C655.16,-92.39 642.07,-94.2 629.9,-95.88"/>
<polygon fill="#63b8ff" stroke="#63b8ff" points="668.63,-94.07 678.06,-89.23 667.68,-87.13 668.63,-94.07"/>
</g>
<!-- Node33&#45;&gt;Node31 -->
<g id="edge52" class="edge">
<title>Node33&#45;&gt;Node31</title>
<path fill="none" stroke="#63b8ff" d="M876.78,-138.38C806.28,-130.46 696.99,-118.17 629.94,-110.63"/>
<polygon fill="#63b8ff" stroke="#63b8ff" points="876.35,-141.86 886.67,-139.5 877.13,-134.9 876.35,-141.86"/>
</g>
</g>
</svg>
