<?xml version="1.0" encoding="UTF-8" standalone="no"?>
<!DOCTYPE svg PUBLIC "-//W3C//DTD SVG 1.1//EN"
 "http://www.w3.org/Graphics/SVG/1.1/DTD/svg11.dtd">
<!-- Generated by graphviz version 7.1.0 (20230121.1956)
 -->
<!-- Title: RuntimeState Pages: 1 -->
<!--zoomable 587 -->
<svg id="main" version="1.1" xmlns="http://www.w3.org/2000/svg" xmlns:xlink="http://www.w3.org/1999/xlink" xml:space="preserve" onload="init(evt)">
<style type="text/css"><![CDATA[
.edge:hover path { stroke: red; }
.edge:hover polygon { stroke: red; fill: red; }
]]></style>
<script type="text/javascript"><![CDATA[
var edges = document.getElementsByTagName('g');
if (edges && edges.length) {
  for (var i=0;i<edges.length;i++) {
    if (edges[i].id.substr(0,4)=='edge') {
      edges[i].setAttribute('class','edge');
    }
  }
}
]]></script>
        <defs>
                <circle id="rim" cx="0" cy="0" r="7"/>
                <circle id="rim2" cx="0" cy="0" r="3.5"/>
                <g id="zoomPlus">
                        <use xlink:href="#rim" fill="#404040">
                                <set attributeName="fill" to="#808080" begin="zoomplus.mouseover" end="zoomplus.mouseout"/>
                        </use>
                        <path d="M-4,0h8M0,-4v8" fill="none" stroke="white" stroke-width="1.5" pointer-events="none"/>
                </g>
                <g id="zoomMin">
                        <use xlink:href="#rim" fill="#404040">
                                <set attributeName="fill" to="#808080" begin="zoomminus.mouseover" end="zoomminus.mouseout"/>
                        </use>
                        <path d="M-4,0h8" fill="none" stroke="white" stroke-width="1.5" pointer-events="none"/>
                </g>
                <g id="dirArrow">
                        <path fill="none" stroke="white" stroke-width="1.5" d="M0,-3.0v7 M-2.5,-0.5L0,-3.0L2.5,-0.5"/>
                </g>
               <g id="resetDef">
                       <use xlink:href="#rim2" fill="#404040">
                               <set attributeName="fill" to="#808080" begin="reset.mouseover" end="reset.mouseout"/>
                       </use>
               </g>
        </defs>

<script type="text/javascript">
var viewWidth = 1102;
var viewHeight = 587;
var sectionId = 'dynsection-2';
</script>
<script xlink:href="../../svgpan.js"/>
<svg id="graph" class="graph">
<g id="viewport">
<title>RuntimeState</title>
<!-- Node1 -->
<g id="node1" class="node">
<title>Node1</title>
<g id="a_node1"><a xlink:title=" ">
<polygon fill="#999999" stroke="#666666" points="77,-157 0,-157 0,-138 77,-138 77,-157"/>
<text text-anchor="middle" x="38.5" y="-145" font-family="Helvetica,sans-Serif" font-size="10.00">RuntimeState</text>
</a>
</g>
</g>
<!-- Node2 -->
<g id="node2" class="node">
<title>Node2</title>
<g id="a_node2"><a xlink:href="../../d7/dc1/classdoris_1_1_runtime_state.html#a7e0d0163a03ace13113f67bc696d5194" target="_top" xlink:title=" ">
<polygon fill="white" stroke="#666666" points="330.5,-342 271.5,-342 271.5,-323 330.5,-323 330.5,-342"/>
<text text-anchor="middle" x="301" y="-330" font-family="Helvetica,sans-Serif" font-size="10.00">exec_env</text>
</a>
</g>
</g>
<!-- Node1&#45;&gt;Node2 -->
<g id="edge1" class="edge">
<title>Node1&#45;&gt;Node2</title>
<path fill="none" stroke="#63b8ff" d="M48.35,-157.42C74.45,-186.1 154.6,-269.91 238,-314.5 244.91,-318.19 252.66,-321.21 260.29,-323.65"/>
<polygon fill="#63b8ff" stroke="#63b8ff" points="259.22,-326.98 269.8,-326.39 261.16,-320.26 259.22,-326.98"/>
</g>
<!-- Node3 -->
<g id="node3" class="node">
<title>Node3</title>
<g id="a_node3"><a xlink:href="../../d7/dc1/classdoris_1_1_runtime_state.html#a494be8ca0090fd61541cf6011ce6ea75" target="_top" xlink:title=" ">
<polygon fill="white" stroke="#666666" points="172,-176 143,-176 143,-157 172,-157 172,-176"/>
<text text-anchor="middle" x="157.5" y="-164" font-family="Helvetica,sans-Serif" font-size="10.00">init</text>
</a>
</g>
</g>
<!-- Node1&#45;&gt;Node3 -->
<g id="edge2" class="edge">
<title>Node1&#45;&gt;Node3</title>
<path fill="none" stroke="#63b8ff" d="M77.49,-153.67C95.25,-156.55 115.89,-159.91 131.63,-162.46"/>
<polygon fill="#63b8ff" stroke="#63b8ff" points="130.65,-165.85 141.08,-164 131.77,-158.94 130.65,-165.85"/>
</g>
<!-- Node22 -->
<g id="node22" class="node">
<title>Node22</title>
<g id="a_node22"><a xlink:href="../../d7/dc1/classdoris_1_1_runtime_state.html#ac1eb97b24294e281bb99725470df9463" target="_top" xlink:title=" ">
<polygon fill="white" stroke="#666666" points="339.5,-19 262.5,-19 262.5,0 339.5,0 339.5,-19"/>
<text text-anchor="middle" x="301" y="-7" font-family="Helvetica,sans-Serif" font-size="10.00">query_options</text>
</a>
</g>
</g>
<!-- Node1&#45;&gt;Node22 -->
<g id="edge43" class="edge">
<title>Node1&#45;&gt;Node22</title>
<path fill="none" stroke="#63b8ff" d="M77.22,-147.62C113.12,-145.81 166.76,-137.82 202,-108.5 232.28,-83.3 208.32,-53.4 238,-27.5 242.06,-23.96 246.78,-21.11 251.78,-18.82"/>
<polygon fill="#63b8ff" stroke="#63b8ff" points="252.74,-22.2 260.87,-15.4 250.27,-15.65 252.74,-22.2"/>
</g>
<!-- Node24 -->
<g id="node24" class="node">
<title>Node24</title>
<g id="a_node24"><a xlink:href="../../d9/d8d/classdoris_1_1_status.html#a03cb7eaa663dc83af68bc28a596d09e6" target="_top" xlink:title=" ">
<polygon fill="white" stroke="#666666" points="202,-100 113,-100 113,-81 202,-81 202,-100"/>
<text text-anchor="middle" x="157.5" y="-88" font-family="Helvetica,sans-Serif" font-size="10.00">doris::Status::ok</text>
</a>
</g>
</g>
<!-- Node1&#45;&gt;Node24 -->
<g id="edge42" class="edge">
<title>Node1&#45;&gt;Node24</title>
<path fill="none" stroke="#63b8ff" d="M59.88,-137.57C78.17,-128.66 105.26,-115.46 126.1,-105.31"/>
<polygon fill="#63b8ff" stroke="#63b8ff" points="127.54,-108.5 134.99,-100.98 124.47,-102.21 127.54,-108.5"/>
</g>
<!-- Node3&#45;&gt;Node2 -->
<g id="edge3" class="edge">
<title>Node3&#45;&gt;Node2</title>
<path fill="none" stroke="#63b8ff" d="M162.61,-176.39C175.22,-206.32 213.96,-295.05 238,-314.5 244.4,-319.67 252.22,-323.36 260.13,-325.99"/>
<polygon fill="#63b8ff" stroke="#63b8ff" points="259.2,-329.36 269.77,-328.64 261.06,-322.61 259.2,-329.36"/>
</g>
<!-- Node4 -->
<g id="node4" class="node">
<title>Node4</title>
<g id="a_node4"><a xlink:href="../../de/ded/classdoris_1_1_timezone_utils.html#ab5e83794913b59fe4eabbf178c05148b" target="_top" xlink:title=" ">
<polygon fill="white" stroke="#666666" points="523,-124.5 410,-124.5 410,-94.5 523,-94.5 523,-124.5"/>
<text text-anchor="start" x="418" y="-112.5" font-family="Helvetica,sans-Serif" font-size="10.00">doris::TimezoneUtils</text>
<text text-anchor="middle" x="466.5" y="-101.5" font-family="Helvetica,sans-Serif" font-size="10.00">::find_cctz_time_zone</text>
</a>
</g>
</g>
<!-- Node3&#45;&gt;Node4 -->
<g id="edge4" class="edge">
<title>Node3&#45;&gt;Node4</title>
<path fill="none" stroke="#63b8ff" d="M172.13,-160.39C181.07,-156.06 192.77,-149.74 202,-142.5 220.57,-127.95 216.39,-112.96 238,-103.5 288.49,-81.39 351.51,-85.16 398.4,-93.17"/>
<polygon fill="#63b8ff" stroke="#63b8ff" points="397.71,-96.6 408.17,-94.95 398.96,-89.71 397.71,-96.6"/>
</g>
<!-- Node5 -->
<g id="node5" class="node">
<title>Node5</title>
<g id="a_node5"><a xlink:href="../../d7/dc1/classdoris_1_1_runtime_state.html#a4798bb17802cd5fd4af6a751af70f361" target="_top" xlink:title=" ">
<polygon fill="white" stroke="#666666" points="356,-56 246,-56 246,-37 356,-37 356,-56"/>
<text text-anchor="middle" x="301" y="-44" font-family="Helvetica,sans-Serif" font-size="10.00">fragment_instance_id</text>
</a>
</g>
</g>
<!-- Node3&#45;&gt;Node5 -->
<g id="edge5" class="edge">
<title>Node3&#45;&gt;Node5</title>
<path fill="none" stroke="#63b8ff" d="M172.45,-161.38C181.76,-157.39 193.76,-151.09 202,-142.5 226.78,-116.69 211.54,-94.58 238,-70.5 241.95,-66.9 246.51,-63.82 251.31,-61.19"/>
<polygon fill="#63b8ff" stroke="#63b8ff" points="252.52,-64.49 260.05,-57.04 249.52,-58.16 252.52,-64.49"/>
</g>
<!-- Node6 -->
<g id="node6" class="node">
<title>Node6</title>
<g id="a_node6"><a xlink:href="../../d5/d3d/classdoris_1_1vectorized_1_1_vec_date_time_value.html#a56b5d31cb0b23eb0fa2b94d90db2ad1d" target="_top" xlink:title=" ">
<polygon fill="white" stroke="#666666" points="364,-305 238,-305 238,-264 364,-264 364,-305"/>
<text text-anchor="start" x="246" y="-293" font-family="Helvetica,sans-Serif" font-size="10.00">doris::vectorized::</text>
<text text-anchor="start" x="246" y="-282" font-family="Helvetica,sans-Serif" font-size="10.00">VecDateTimeValue::from</text>
<text text-anchor="middle" x="301" y="-271" font-family="Helvetica,sans-Serif" font-size="10.00">_date_str</text>
</a>
</g>
</g>
<!-- Node3&#45;&gt;Node6 -->
<g id="edge6" class="edge">
<title>Node3&#45;&gt;Node6</title>
<path fill="none" stroke="#63b8ff" d="M165.13,-176.23C177.62,-193.96 206.25,-231.88 238,-255.5 238.98,-256.23 239.98,-256.94 240.99,-257.65"/>
<polygon fill="#63b8ff" stroke="#63b8ff" points="238.92,-260.48 249.25,-262.84 242.65,-254.55 238.92,-260.48"/>
</g>
<!-- Node19 -->
<g id="node19" class="node">
<title>Node19</title>
<g id="a_node19"><a xlink:href="../../d9/d8d/classdoris_1_1_status.html#a6ec1a217f203269ab53d2290d602db24" target="_top" xlink:title=" ">
<polygon fill="white" stroke="#666666" points="347,-246 255,-246 255,-227 347,-227 347,-246"/>
<text text-anchor="middle" x="301" y="-234" font-family="Helvetica,sans-Serif" font-size="10.00">doris::Status::OK</text>
</a>
</g>
</g>
<!-- Node3&#45;&gt;Node19 -->
<g id="edge35" class="edge">
<title>Node3&#45;&gt;Node19</title>
<path fill="none" stroke="#63b8ff" d="M171.03,-176.4C186.14,-187.93 212.68,-206.86 238,-218.5 241.36,-220.04 244.89,-221.49 248.48,-222.84"/>
<polygon fill="#63b8ff" stroke="#63b8ff" points="247.32,-226.14 257.91,-226.09 249.6,-219.52 247.32,-226.14"/>
</g>
<!-- Node21 -->
<g id="node21" class="node">
<title>Node21</title>
<g id="a_node21"><a xlink:href="../../d6/d94/namespacedoris.html#ab0606cb3935fd04241aef36f19b050fa" target="_top" xlink:title=" ">
<polygon fill="white" stroke="#666666" points="338.5,-209 263.5,-209 263.5,-190 338.5,-190 338.5,-209"/>
<text text-anchor="middle" x="301" y="-197" font-family="Helvetica,sans-Serif" font-size="10.00">doris::print_id</text>
</a>
</g>
</g>
<!-- Node3&#45;&gt;Node21 -->
<g id="edge37" class="edge">
<title>Node3&#45;&gt;Node21</title>
<path fill="none" stroke="#63b8ff" d="M172.33,-169.72C190.74,-174.02 224.27,-181.84 252.34,-188.39"/>
<polygon fill="#63b8ff" stroke="#63b8ff" points="251.18,-191.71 261.72,-190.57 252.77,-184.89 251.18,-191.71"/>
</g>
<!-- Node3&#45;&gt;Node22 -->
<g id="edge38" class="edge">
<title>Node3&#45;&gt;Node22</title>
<path fill="none" stroke="#63b8ff" d="M172.49,-161.94C182.07,-158.15 194.36,-151.85 202,-142.5 235.88,-101.02 199.74,-64.97 238,-27.5 241.9,-23.68 246.56,-20.66 251.54,-18.28"/>
<polygon fill="#63b8ff" stroke="#63b8ff" points="252.61,-21.62 260.7,-14.77 250.11,-15.09 252.61,-21.62"/>
</g>
<!-- Node23 -->
<g id="node23" class="node">
<title>Node23</title>
<g id="a_node23"><a xlink:href="../../d5/d3d/classdoris_1_1vectorized_1_1_vec_date_time_value.html#ae97fbb01a72403b590e8d3f99340de07" target="_top" xlink:title=" ">
<polygon fill="white" stroke="#666666" points="363.5,-154 238.5,-154 238.5,-113 363.5,-113 363.5,-154"/>
<text text-anchor="start" x="246.5" y="-142" font-family="Helvetica,sans-Serif" font-size="10.00">doris::vectorized::</text>
<text text-anchor="start" x="246.5" y="-131" font-family="Helvetica,sans-Serif" font-size="10.00">VecDateTimeValue::unix</text>
<text text-anchor="middle" x="301" y="-120" font-family="Helvetica,sans-Serif" font-size="10.00">_timestamp</text>
</a>
</g>
</g>
<!-- Node3&#45;&gt;Node23 -->
<g id="edge39" class="edge">
<title>Node3&#45;&gt;Node23</title>
<path fill="none" stroke="#63b8ff" d="M172.33,-163.28C185.41,-160.22 206.13,-155.39 227.1,-150.5"/>
<polygon fill="#63b8ff" stroke="#63b8ff" points="227.63,-153.97 236.57,-148.29 226.04,-147.16 227.63,-153.97"/>
</g>
<!-- Node7 -->
<g id="node7" class="node">
<title>Node7</title>
<g id="a_node7"><a xlink:href="../../d5/d3d/classdoris_1_1vectorized_1_1_vec_date_time_value.html#ac1c241291894170685ddb360aab1d26d" target="_top" xlink:title=" ">
<polygon fill="white" stroke="#666666" points="533,-305 400,-305 400,-264 533,-264 533,-305"/>
<text text-anchor="start" x="408" y="-293" font-family="Helvetica,sans-Serif" font-size="10.00">doris::vectorized::</text>
<text text-anchor="start" x="408" y="-282" font-family="Helvetica,sans-Serif" font-size="10.00">VecDateTimeValue::check</text>
<text text-anchor="middle" x="466.5" y="-271" font-family="Helvetica,sans-Serif" font-size="10.00">_range_and_set_time</text>
</a>
</g>
</g>
<!-- Node6&#45;&gt;Node7 -->
<g id="edge7" class="edge">
<title>Node6&#45;&gt;Node7</title>
<path fill="none" stroke="#63b8ff" d="M364.28,-284.5C372.13,-284.5 380.24,-284.5 388.28,-284.5"/>
<polygon fill="#63b8ff" stroke="#63b8ff" points="388.07,-288 398.07,-284.5 388.07,-281 388.07,-288"/>
</g>
<!-- Node8 -->
<g id="node8" class="node">
<title>Node8</title>
<g id="a_node8"><a xlink:href="../../d5/d3d/classdoris_1_1vectorized_1_1_vec_date_time_value.html#a46fd9802e16eeafdeccd55a4477b3b11" target="_top" xlink:title=" ">
<polygon fill="white" stroke="#666666" points="731,-388.5 569,-388.5 569,-358.5 731,-358.5 731,-388.5"/>
<text text-anchor="start" x="577" y="-376.5" font-family="Helvetica,sans-Serif" font-size="10.00">doris::vectorized::</text>
<text text-anchor="middle" x="650" y="-365.5" font-family="Helvetica,sans-Serif" font-size="10.00">VecDateTimeValue::check_range</text>
</a>
</g>
</g>
<!-- Node7&#45;&gt;Node8 -->
<g id="edge8" class="edge">
<title>Node7&#45;&gt;Node8</title>
<path fill="none" stroke="#63b8ff" d="M504.18,-305.47C523.28,-316.11 547.15,-328.97 569,-339.5 579.09,-344.37 590.06,-349.27 600.55,-353.78"/>
<polygon fill="#63b8ff" stroke="#63b8ff" points="598.86,-356.86 609.43,-357.55 601.59,-350.42 598.86,-356.86"/>
</g>
<!-- Node10 -->
<g id="node10" class="node">
<title>Node10</title>
<g id="a_node10"><a xlink:href="../../d5/d3d/classdoris_1_1vectorized_1_1_vec_date_time_value.html#a912344e9b0a67db916e2bac3c43337dc" target="_top" xlink:title=" ">
<polygon fill="white" stroke="#666666" points="1088,-512.5 966,-512.5 966,-482.5 1088,-482.5 1088,-512.5"/>
<text text-anchor="start" x="974" y="-500.5" font-family="Helvetica,sans-Serif" font-size="10.00">doris::vectorized::</text>
<text text-anchor="middle" x="1027" y="-489.5" font-family="Helvetica,sans-Serif" font-size="10.00">VecDateTimeValue::day</text>
</a>
</g>
</g>
<!-- Node7&#45;&gt;Node10 -->
<g id="edge21" class="edge">
<title>Node7&#45;&gt;Node10</title>
<path fill="none" stroke="#63b8ff" d="M475.27,-305.43C489.29,-340.8 521.79,-412.99 569,-458.5 640.86,-527.78 670.18,-540.21 767,-564.5 834.68,-581.48 857.15,-584.49 924,-564.5 952.96,-555.84 981.32,-536.03 1000.75,-520.18"/>
<polygon fill="#63b8ff" stroke="#63b8ff" points="1002.98,-522.88 1008.38,-513.76 998.47,-517.52 1002.98,-522.88"/>
</g>
<!-- Node12 -->
<g id="node12" class="node">
<title>Node12</title>
<g id="a_node12"><a xlink:href="../../d5/d3d/classdoris_1_1vectorized_1_1_vec_date_time_value.html#a9418bae7320038816691fbb13ce3b90a" target="_top" xlink:title=" ">
<polygon fill="white" stroke="#666666" points="1094,-364.5 960,-364.5 960,-334.5 1094,-334.5 1094,-364.5"/>
<text text-anchor="start" x="968" y="-352.5" font-family="Helvetica,sans-Serif" font-size="10.00">doris::vectorized::</text>
<text text-anchor="middle" x="1027" y="-341.5" font-family="Helvetica,sans-Serif" font-size="10.00">VecDateTimeValue::month</text>
</a>
</g>
</g>
<!-- Node7&#45;&gt;Node12 -->
<g id="edge24" class="edge">
<title>Node7&#45;&gt;Node12</title>
<path fill="none" stroke="#63b8ff" d="M523.01,-263.56C526.59,-261.13 529.97,-258.45 533,-255.5 559.76,-229.41 538.9,-201.65 569,-179.5 696.47,-85.69 788.87,-69.11 924,-151.5 940.22,-161.39 991.67,-272.84 1014.69,-324.05"/>
<polygon fill="#63b8ff" stroke="#63b8ff" points="1011.37,-325.2 1018.65,-332.9 1017.76,-322.34 1011.37,-325.2"/>
</g>
<!-- Node13 -->
<g id="node13" class="node">
<title>Node13</title>
<g id="a_node13"><a xlink:href="../../d5/d3d/classdoris_1_1vectorized_1_1_vec_date_time_value.html#a1b5cb174b9b809888ca1cadfb32791f4" target="_top" xlink:title=" ">
<polygon fill="white" stroke="#666666" points="1089.5,-192.5 964.5,-192.5 964.5,-162.5 1089.5,-162.5 1089.5,-192.5"/>
<text text-anchor="start" x="972.5" y="-180.5" font-family="Helvetica,sans-Serif" font-size="10.00">doris::vectorized::</text>
<text text-anchor="middle" x="1027" y="-169.5" font-family="Helvetica,sans-Serif" font-size="10.00">VecDateTimeValue::year</text>
</a>
</g>
</g>
<!-- Node7&#45;&gt;Node13 -->
<g id="edge34" class="edge">
<title>Node7&#45;&gt;Node13</title>
<path fill="none" stroke="#63b8ff" d="M524.67,-263.57C527.73,-261.16 530.55,-258.48 533,-255.5 578.79,-199.91 513.04,-142.84 569,-97.5 691.59,1.83 775.33,-41.65 924,-94.5 956.98,-106.22 987.04,-133.67 1005.85,-153.81"/>
<polygon fill="#63b8ff" stroke="#63b8ff" points="1003.12,-156 1012.42,-161.07 1008.31,-151.31 1003.12,-156"/>
</g>
<!-- Node14 -->
<g id="node14" class="node">
<title>Node14</title>
<g id="a_node14"><a xlink:href="../../d5/d3d/classdoris_1_1vectorized_1_1_vec_date_time_value.html#a110d566ff7f9edf7cbfe15355f8c637c" target="_top" xlink:title=" ">
<polygon fill="white" stroke="#666666" points="908,-345.5 783,-345.5 783,-315.5 908,-315.5 908,-345.5"/>
<text text-anchor="start" x="791" y="-333.5" font-family="Helvetica,sans-Serif" font-size="10.00">doris::vectorized::</text>
<text text-anchor="middle" x="845.5" y="-322.5" font-family="Helvetica,sans-Serif" font-size="10.00">VecDateTimeValue::hour</text>
</a>
</g>
</g>
<!-- Node7&#45;&gt;Node14 -->
<g id="edge22" class="edge">
<title>Node7&#45;&gt;Node14</title>
<path fill="none" stroke="#63b8ff" d="M533.28,-293C545.17,-294.52 557.45,-296.07 569,-297.5 637.65,-306.01 715.98,-315.36 771.52,-321.92"/>
<polygon fill="#63b8ff" stroke="#63b8ff" points="770.82,-325.36 781.16,-323.06 771.64,-318.41 770.82,-325.36"/>
</g>
<!-- Node15 -->
<g id="node15" class="node">
<title>Node15</title>
<g id="a_node15"><a xlink:href="../../d5/d3d/classdoris_1_1vectorized_1_1_vec_date_time_value.html#ae91256ab81b246d3f40eddbd4c016f5f" target="_top" xlink:title=" ">
<polygon fill="white" stroke="#666666" points="913.5,-297.5 777.5,-297.5 777.5,-267.5 913.5,-267.5 913.5,-297.5"/>
<text text-anchor="start" x="785.5" y="-285.5" font-family="Helvetica,sans-Serif" font-size="10.00">doris::vectorized::</text>
<text text-anchor="middle" x="845.5" y="-274.5" font-family="Helvetica,sans-Serif" font-size="10.00">VecDateTimeValue::minute</text>
</a>
</g>
</g>
<!-- Node7&#45;&gt;Node15 -->
<g id="edge23" class="edge">
<title>Node7&#45;&gt;Node15</title>
<path fill="none" stroke="#63b8ff" d="M533.17,-284.15C597.92,-283.81 696.91,-283.28 765.83,-282.92"/>
<polygon fill="#63b8ff" stroke="#63b8ff" points="765.55,-286.42 775.53,-282.87 765.51,-279.42 765.55,-286.42"/>
</g>
<!-- Node16 -->
<g id="node16" class="node">
<title>Node16</title>
<g id="a_node16"><a xlink:href="../../d5/d3d/classdoris_1_1vectorized_1_1_vec_date_time_value.html#aa0cba22e21d8081f564e6a68edab1ae0" target="_top" xlink:title=" ">
<polygon fill="white" stroke="#666666" points="914.5,-249.5 776.5,-249.5 776.5,-219.5 914.5,-219.5 914.5,-249.5"/>
<text text-anchor="start" x="784.5" y="-237.5" font-family="Helvetica,sans-Serif" font-size="10.00">doris::vectorized::</text>
<text text-anchor="middle" x="845.5" y="-226.5" font-family="Helvetica,sans-Serif" font-size="10.00">VecDateTimeValue::second</text>
</a>
</g>
</g>
<!-- Node7&#45;&gt;Node16 -->
<g id="edge25" class="edge">
<title>Node7&#45;&gt;Node16</title>
<path fill="none" stroke="#63b8ff" d="M533.17,-275.79C597.62,-267.24 695.99,-254.2 764.87,-245.06"/>
<polygon fill="#63b8ff" stroke="#63b8ff" points="765.13,-248.56 774.58,-243.77 764.21,-241.62 765.13,-248.56"/>
</g>
<!-- Node17 -->
<g id="node17" class="node">
<title>Node17</title>
<g id="a_node17"><a xlink:href="../../d5/d3d/classdoris_1_1vectorized_1_1_vec_date_time_value.html#ac7669d23a52243a270e53e53051bcd86" target="_top" xlink:title=" ">
<polygon fill="white" stroke="#666666" points="908,-555.5 783,-555.5 783,-525.5 908,-525.5 908,-555.5"/>
<text text-anchor="start" x="791" y="-543.5" font-family="Helvetica,sans-Serif" font-size="10.00">doris::vectorized::</text>
<text text-anchor="middle" x="845.5" y="-532.5" font-family="Helvetica,sans-Serif" font-size="10.00">VecDateTimeValue::type</text>
</a>
</g>
</g>
<!-- Node7&#45;&gt;Node17 -->
<g id="edge33" class="edge">
<title>Node7&#45;&gt;Node17</title>
<path fill="none" stroke="#63b8ff" d="M482.59,-305.2C501.01,-329.46 534.05,-369.85 569,-397.5 639.63,-453.36 735.43,-497.22 793.46,-520.95"/>
<polygon fill="#63b8ff" stroke="#63b8ff" points="791.85,-524.08 802.43,-524.58 794.47,-517.59 791.85,-524.08"/>
</g>
<!-- Node18 -->
<g id="node18" class="node">
<title>Node18</title>
<g id="a_node18"><a xlink:href="../../d5/d3d/classdoris_1_1vectorized_1_1_vec_date_time_value.html#ae376147e9dbafc22deb3a826afb77192" target="_top" xlink:title=" ">
<polygon fill="white" stroke="#666666" points="722,-218.5 578,-218.5 578,-188.5 722,-188.5 722,-218.5"/>
<text text-anchor="start" x="586" y="-206.5" font-family="Helvetica,sans-Serif" font-size="10.00">doris::vectorized::</text>
<text text-anchor="middle" x="650" y="-195.5" font-family="Helvetica,sans-Serif" font-size="10.00">VecDateTimeValue::set_time</text>
</a>
</g>
</g>
<!-- Node7&#45;&gt;Node18 -->
<g id="edge26" class="edge">
<title>Node7&#45;&gt;Node18</title>
<path fill="none" stroke="#63b8ff" d="M516.89,-263.6C522.38,-260.99 527.85,-258.26 533,-255.5 549.73,-246.52 551.97,-240.9 569,-232.5 575.77,-229.16 583.02,-226 590.29,-223.08"/>
<polygon fill="#63b8ff" stroke="#63b8ff" points="591.42,-226.4 599.49,-219.53 588.9,-219.87 591.42,-226.4"/>
</g>
<!-- Node9 -->
<g id="node9" class="node">
<title>Node9</title>
<g id="a_node9"><a xlink:href="../../d5/d3d/classdoris_1_1vectorized_1_1_vec_date_time_value.html#afa27cb082c3b1b49d0a97a9c44ed674f" target="_top" xlink:title=" ">
<polygon fill="white" stroke="#666666" points="924,-469.5 767,-469.5 767,-439.5 924,-439.5 924,-469.5"/>
<text text-anchor="start" x="775" y="-457.5" font-family="Helvetica,sans-Serif" font-size="10.00">doris::vectorized::</text>
<text text-anchor="middle" x="845.5" y="-446.5" font-family="Helvetica,sans-Serif" font-size="10.00">VecDateTimeValue::check_date</text>
</a>
</g>
</g>
<!-- Node8&#45;&gt;Node9 -->
<g id="edge9" class="edge">
<title>Node8&#45;&gt;Node9</title>
<path fill="none" stroke="#63b8ff" d="M683.76,-388.85C706.86,-399.52 738.62,-413.84 767,-425.5 774.76,-428.69 783.02,-431.93 791.13,-435.04"/>
<polygon fill="#63b8ff" stroke="#63b8ff" points="789.67,-438.22 800.26,-438.49 792.14,-431.68 789.67,-438.22"/>
</g>
<!-- Node8&#45;&gt;Node10 -->
<g id="edge14" class="edge">
<title>Node8&#45;&gt;Node10</title>
<path fill="none" stroke="#63b8ff" d="M662.16,-388.69C680.8,-412.7 720.8,-458.72 767,-478.5 826.37,-503.91 900.39,-506.84 954.07,-504.48"/>
<polygon fill="#63b8ff" stroke="#63b8ff" points="954.23,-507.98 964.04,-503.96 953.87,-500.99 954.23,-507.98"/>
</g>
<!-- Node8&#45;&gt;Node12 -->
<g id="edge17" class="edge">
<title>Node8&#45;&gt;Node12</title>
<path fill="none" stroke="#63b8ff" d="M731.35,-387.2C786.06,-394.19 859.9,-399.05 924,-387.5 944.12,-383.87 965.44,-376.53 983.37,-369.25"/>
<polygon fill="#63b8ff" stroke="#63b8ff" points="984.5,-372.57 992.37,-365.47 981.79,-366.12 984.5,-372.57"/>
</g>
<!-- Node8&#45;&gt;Node13 -->
<g id="edge20" class="edge">
<title>Node8&#45;&gt;Node13</title>
<path fill="none" stroke="#63b8ff" d="M731.37,-376.09C800.19,-376.84 892.93,-373.93 924,-354.5 979.03,-320.09 1007.51,-244.43 1019.27,-204.07"/>
<polygon fill="#63b8ff" stroke="#63b8ff" points="1022.64,-205.03 1021.94,-194.46 1015.89,-203.16 1022.64,-205.03"/>
</g>
<!-- Node8&#45;&gt;Node14 -->
<g id="edge15" class="edge">
<title>Node8&#45;&gt;Node14</title>
<path fill="none" stroke="#63b8ff" d="M720.58,-358.04C737.21,-354.34 754.99,-350.39 771.75,-346.67"/>
<polygon fill="#63b8ff" stroke="#63b8ff" points="772.11,-350.17 781.11,-344.59 770.59,-343.34 772.11,-350.17"/>
</g>
<!-- Node8&#45;&gt;Node15 -->
<g id="edge16" class="edge">
<title>Node8&#45;&gt;Node15</title>
<path fill="none" stroke="#63b8ff" d="M674.18,-358.03C697.03,-343.29 733.33,-321.22 767,-306.5 770.77,-304.85 774.69,-303.27 778.68,-301.75"/>
<polygon fill="#63b8ff" stroke="#63b8ff" points="779.68,-305.11 787.9,-298.43 777.3,-298.53 779.68,-305.11"/>
</g>
<!-- Node8&#45;&gt;Node16 -->
<g id="edge18" class="edge">
<title>Node8&#45;&gt;Node16</title>
<path fill="none" stroke="#63b8ff" d="M662.44,-358.1C681.47,-333.54 722.02,-285.5 767,-258.5 769.29,-257.12 771.67,-255.82 774.11,-254.58"/>
<polygon fill="#63b8ff" stroke="#63b8ff" points="775.39,-257.85 783.04,-250.51 772.49,-251.48 775.39,-257.85"/>
</g>
<!-- Node8&#45;&gt;Node17 -->
<g id="edge19" class="edge">
<title>Node8&#45;&gt;Node17</title>
<path fill="none" stroke="#63b8ff" d="M664.91,-388.68C681.13,-406.53 708.58,-437.19 731,-464.5 747.7,-484.84 745.86,-495.84 767,-511.5 771.32,-514.7 776.03,-517.58 780.93,-520.17"/>
<polygon fill="#63b8ff" stroke="#63b8ff" points="779.28,-523.26 789.81,-524.44 782.31,-516.95 779.28,-523.26"/>
</g>
<!-- Node9&#45;&gt;Node10 -->
<g id="edge10" class="edge">
<title>Node9&#45;&gt;Node10</title>
<path fill="none" stroke="#63b8ff" d="M911.05,-469.96C925.23,-473.36 940.32,-476.97 954.74,-480.43"/>
<polygon fill="#63b8ff" stroke="#63b8ff" points="953.6,-483.76 964.14,-482.68 955.23,-476.95 953.6,-483.76"/>
</g>
<!-- Node11 -->
<g id="node11" class="node">
<title>Node11</title>
<g id="a_node11"><a xlink:href="../../d6/d94/namespacedoris.html#ab3bf7ae1998587a6e9699350e5da1ef2" target="_top" xlink:title=" ">
<polygon fill="white" stroke="#666666" points="1064,-464 990,-464 990,-445 1064,-445 1064,-464"/>
<text text-anchor="middle" x="1027" y="-452" font-family="Helvetica,sans-Serif" font-size="10.00">doris::is_leap</text>
</a>
</g>
</g>
<!-- Node9&#45;&gt;Node11 -->
<g id="edge11" class="edge">
<title>Node9&#45;&gt;Node11</title>
<path fill="none" stroke="#63b8ff" d="M924.45,-454.5C942.9,-454.5 962.02,-454.5 978.64,-454.5"/>
<polygon fill="#63b8ff" stroke="#63b8ff" points="978.18,-458 988.18,-454.5 978.18,-451 978.18,-458"/>
</g>
<!-- Node9&#45;&gt;Node12 -->
<g id="edge12" class="edge">
<title>Node9&#45;&gt;Node12</title>
<path fill="none" stroke="#63b8ff" d="M894.16,-439.09C904.25,-435.16 914.67,-430.59 924,-425.5 951.62,-410.44 980.08,-388.61 999.9,-372.21"/>
<polygon fill="#63b8ff" stroke="#63b8ff" points="1002.06,-374.96 1007.47,-365.84 997.56,-369.6 1002.06,-374.96"/>
</g>
<!-- Node9&#45;&gt;Node13 -->
<g id="edge13" class="edge">
<title>Node9&#45;&gt;Node13</title>
<path fill="none" stroke="#63b8ff" d="M868.71,-439.17C885.51,-426.73 908.29,-407.95 924,-387.5 947.94,-356.34 994.13,-251.91 1015.13,-203.08"/>
<polygon fill="#63b8ff" stroke="#63b8ff" points="1018.24,-204.7 1018.96,-194.13 1011.81,-201.95 1018.24,-204.7"/>
</g>
<!-- Node18&#45;&gt;Node10 -->
<g id="edge27" class="edge">
<title>Node18&#45;&gt;Node10</title>
<path fill="none" stroke="#63b8ff" d="M722.49,-195.31C793.35,-188.9 895.34,-184.84 924,-210.5 1011.9,-289.19 885.9,-381.69 960,-473.5 960.34,-473.92 960.68,-474.32 961.03,-474.72"/>
<polygon fill="#63b8ff" stroke="#63b8ff" points="958.43,-477.1 968.23,-481.14 963.09,-471.87 958.43,-477.1"/>
</g>
<!-- Node18&#45;&gt;Node12 -->
<g id="edge30" class="edge">
<title>Node18&#45;&gt;Node12</title>
<path fill="none" stroke="#63b8ff" d="M686.02,-188.02C740.74,-166.37 848.09,-134.26 924,-177.5 979.21,-208.94 1007.61,-283.33 1019.32,-323.19"/>
<polygon fill="#63b8ff" stroke="#63b8ff" points="1015.9,-323.99 1021.96,-332.68 1022.65,-322.11 1015.9,-323.99"/>
</g>
<!-- Node18&#45;&gt;Node13 -->
<g id="edge32" class="edge">
<title>Node18&#45;&gt;Node13</title>
<path fill="none" stroke="#63b8ff" d="M671.43,-188C693.59,-172.24 730.69,-148.85 767,-139.5 834.57,-122.1 855.33,-127.12 924,-139.5 944.12,-143.13 965.44,-150.47 983.37,-157.75"/>
<polygon fill="#63b8ff" stroke="#63b8ff" points="981.79,-160.88 992.37,-161.53 984.5,-154.43 981.79,-160.88"/>
</g>
<!-- Node18&#45;&gt;Node14 -->
<g id="edge28" class="edge">
<title>Node18&#45;&gt;Node14</title>
<path fill="none" stroke="#63b8ff" d="M664.1,-218.68C684.13,-240.99 724.53,-282.57 767,-306.5 769.61,-307.97 772.33,-309.37 775.11,-310.68"/>
<polygon fill="#63b8ff" stroke="#63b8ff" points="773.45,-313.78 784.02,-314.53 776.22,-307.35 773.45,-313.78"/>
</g>
<!-- Node18&#45;&gt;Node15 -->
<g id="edge29" class="edge">
<title>Node18&#45;&gt;Node15</title>
<path fill="none" stroke="#63b8ff" d="M680.53,-218.94C703.67,-230.68 736.89,-246.77 767,-258.5 771.36,-260.2 775.88,-261.86 780.47,-263.46"/>
<polygon fill="#63b8ff" stroke="#63b8ff" points="779.18,-266.72 789.77,-266.61 781.42,-260.09 779.18,-266.72"/>
</g>
<!-- Node18&#45;&gt;Node16 -->
<g id="edge31" class="edge">
<title>Node18&#45;&gt;Node16</title>
<path fill="none" stroke="#63b8ff" d="M722.23,-214.91C736.17,-217.15 750.88,-219.5 765.07,-221.78"/>
<polygon fill="#63b8ff" stroke="#63b8ff" points="764.4,-225.21 774.83,-223.34 765.5,-218.3 764.4,-225.21"/>
</g>
<!-- Node20 -->
<g id="node20" class="node">
<title>Node20</title>
<g id="a_node20"><a xlink:href="../../d9/d8d/classdoris_1_1_status.html#aafde58df1b2a6a91d5b674373be3ffc5" target="_top" xlink:title=" ">
<polygon fill="white" stroke="#666666" points="520,-246 413,-246 413,-227 520,-227 520,-246"/>
<text text-anchor="middle" x="466.5" y="-234" font-family="Helvetica,sans-Serif" font-size="10.00">doris::Status::Status</text>
</a>
</g>
</g>
<!-- Node19&#45;&gt;Node20 -->
<g id="edge36" class="edge">
<title>Node19&#45;&gt;Node20</title>
<path fill="none" stroke="#63b8ff" d="M347.11,-236.5C363.86,-236.5 383.2,-236.5 401.32,-236.5"/>
<polygon fill="#63b8ff" stroke="#63b8ff" points="401.21,-240 411.21,-236.5 401.21,-233 401.21,-240"/>
</g>
<!-- Node23&#45;&gt;Node4 -->
<g id="edge40" class="edge">
<title>Node23&#45;&gt;Node4</title>
<path fill="none" stroke="#63b8ff" d="M363.81,-124.43C375.07,-122.77 386.87,-121.04 398.27,-119.37"/>
<polygon fill="#63b8ff" stroke="#63b8ff" points="398.63,-122.85 408.02,-117.94 397.62,-115.93 398.63,-122.85"/>
</g>
<!-- Node23&#45;&gt;Node23 -->
<g id="edge41" class="edge">
<title>Node23&#45;&gt;Node23</title>
<path fill="none" stroke="#63b8ff" d="M274.51,-154.49C271.99,-163.88 280.82,-172 301,-172 312.35,-172 320.11,-169.43 324.28,-165.51"/>
<polygon fill="#63b8ff" stroke="#63b8ff" points="327.63,-166.52 327.06,-155.94 320.91,-164.57 327.63,-166.52"/>
</g>
</g>
</svg>
        <g id="navigator" transform="translate(0 0)" fill="#404254">
                <rect fill="#f2f5e9" fill-opacity="0.5" stroke="#606060" stroke-width=".5" x="0" y="0" width="60" height="60"/>
                <use id="zoomplus" xlink:href="#zoomPlus" x="17" y="9" onmousedown="handleZoom(evt,'in')"/>
                <use id="zoomminus" xlink:href="#zoomMin" x="42" y="9" onmousedown="handleZoom(evt,'out')"/>
                <use id="reset" xlink:href="#resetDef" x="30" y="36" onmousedown="handleReset()"/>
                <g id="arrowUp" xlink:href="#dirArrow" transform="translate(30 24)" onmousedown="handlePan(0,-1)">
                  <use xlink:href="#rim" fill="#404040">
                        <set attributeName="fill" to="#808080" begin="arrowUp.mouseover" end="arrowUp.mouseout"/>
                  </use>
                  <path fill="none" stroke="white" stroke-width="1.5" d="M0,-3.0v7 M-2.5,-0.5L0,-3.0L2.5,-0.5"/>
                </g>
                <g id="arrowRight" xlink:href="#dirArrow" transform="rotate(90) translate(36 -43)" onmousedown="handlePan(1,0)">
                  <use xlink:href="#rim" fill="#404040">
                        <set attributeName="fill" to="#808080" begin="arrowRight.mouseover" end="arrowRight.mouseout"/>
                  </use>
                  <path fill="none" stroke="white" stroke-width="1.5" d="M0,-3.0v7 M-2.5,-0.5L0,-3.0L2.5,-0.5"/>
                </g>
                <g id="arrowDown" xlink:href="#dirArrow" transform="rotate(180) translate(-30 -48)" onmousedown="handlePan(0,1)">
                  <use xlink:href="#rim" fill="#404040">
                        <set attributeName="fill" to="#808080" begin="arrowDown.mouseover" end="arrowDown.mouseout"/>
                  </use>
                  <path fill="none" stroke="white" stroke-width="1.5" d="M0,-3.0v7 M-2.5,-0.5L0,-3.0L2.5,-0.5"/>
                </g>
                <g id="arrowLeft" xlink:href="#dirArrow" transform="rotate(270) translate(-36 17)" onmousedown="handlePan(-1,0)">
                  <use xlink:href="#rim" fill="#404040">
                        <set attributeName="fill" to="#808080" begin="arrowLeft.mouseover" end="arrowLeft.mouseout"/>
                  </use>
                  <path fill="none" stroke="white" stroke-width="1.5" d="M0,-3.0v7 M-2.5,-0.5L0,-3.0L2.5,-0.5"/>
                </g>
        </g>
        <svg viewBox="0 0 15 15" width="100%" height="30px" preserveAspectRatio="xMaxYMin meet">
         <g id="arrow_out" transform="scale(0.3 0.3)">
          <a xlink:href="classdoris_1_1_runtime_state_ae995e42e550843ab67461ab0d080228e_cgraph_org.svg" target="_base">
           <rect id="button" ry="5" rx="5" y="6" x="6" height="38" width="38"
                fill="#f2f5e9" fill-opacity="0.5" stroke="#606060" stroke-width="1.0"/>
           <path id="arrow"
             d="M 11.500037,31.436501 C 11.940474,20.09759 22.043105,11.32322 32.158766,21.979434 L 37.068811,17.246167 C 37.068811,17.246167 37.088388,32 37.088388,32 L 22.160133,31.978069 C 22.160133,31.978069 26.997745,27.140456 26.997745,27.140456 C 18.528582,18.264221 13.291696,25.230495 11.500037,31.436501 z"
             style="fill:#404040;"/>
          </a>
         </g>
        </svg>
</svg>
