<?xml version="1.0" encoding="UTF-8" standalone="no"?>
<!DOCTYPE svg PUBLIC "-//W3C//DTD SVG 1.1//EN"
 "http://www.w3.org/Graphics/SVG/1.1/DTD/svg11.dtd">
<!-- Generated by graphviz version 7.1.0 (20230121.1956)
 -->
<!-- Title: intern_json Pages: 1 -->
<svg width="188pt" height="101pt"
 viewBox="0.00 0.00 188.00 101.00" xmlns="http://www.w3.org/2000/svg" xmlns:xlink="http://www.w3.org/1999/xlink">
<g id="graph0" class="graph" transform="scale(1 1) rotate(0) translate(4 97)">
<title>intern_json</title>
<!-- Node1 -->
<g id="node1" class="node">
<title>Node1</title>
<g id="a_node1"><a xlink:title=" ">
<polygon fill="#999999" stroke="#666666" points="180,-56 116,-56 116,-37 180,-37 180,-56"/>
<text text-anchor="middle" x="148" y="-44" font-family="Helvetica,sans-Serif" font-size="10.00">intern_json</text>
</a>
</g>
</g>
<!-- Node2 -->
<g id="node2" class="node">
<title>Node2</title>
<g id="a_node2"><a xlink:href="../../d3/dfe/classdoris_1_1_jsonb_to_json.html#a48e34a4284107543cd81ceb68e59bd76" target="_top" xlink:title=" ">
<polygon fill="white" stroke="#666666" points="77.5,-93 2.5,-93 2.5,-74 77.5,-74 77.5,-93"/>
<text text-anchor="middle" x="40" y="-81" font-family="Helvetica,sans-Serif" font-size="10.00">array_to_json</text>
</a>
</g>
</g>
<!-- Node1&#45;&gt;Node2 -->
<g id="edge1" class="edge">
<title>Node1&#45;&gt;Node2</title>
<path fill="none" stroke="#63b8ff" d="M105.14,-54.5C87.59,-60.19 68.34,-67.51 55.55,-73.6"/>
<polygon fill="#63b8ff" stroke="#63b8ff" points="105.82,-57.95 114.32,-51.64 103.74,-51.27 105.82,-57.95"/>
</g>
<!-- Node3 -->
<g id="node3" class="node">
<title>Node3</title>
<g id="a_node3"><a xlink:href="../../d3/dfe/classdoris_1_1_jsonb_to_json.html#a1a770950d33f4fc704c4f387eea92c42" target="_top" xlink:title=" ">
<polygon fill="white" stroke="#666666" points="80,-56 0,-56 0,-37 80,-37 80,-56"/>
<text text-anchor="middle" x="40" y="-44" font-family="Helvetica,sans-Serif" font-size="10.00">object_to_json</text>
</a>
</g>
</g>
<!-- Node1&#45;&gt;Node3 -->
<g id="edge3" class="edge">
<title>Node1&#45;&gt;Node3</title>
<path fill="none" stroke="#63b8ff" d="M104.42,-39.87C96.45,-39.69 88.15,-39.71 80.29,-39.95"/>
<polygon fill="#63b8ff" stroke="#63b8ff" points="104.14,-43.36 114.26,-40.23 104.39,-36.36 104.14,-43.36"/>
</g>
<!-- Node4 -->
<g id="node4" class="node">
<title>Node4</title>
<g id="a_node4"><a xlink:href="../../d3/dfe/classdoris_1_1_jsonb_to_json.html#ab3aee010753633df5d9c2a0b69ab8528" target="_top" xlink:title=" ">
<polygon fill="white" stroke="#666666" points="78.5,-19 1.5,-19 1.5,0 78.5,0 78.5,-19"/>
<text text-anchor="middle" x="40" y="-7" font-family="Helvetica,sans-Serif" font-size="10.00">to_json_string</text>
</a>
</g>
</g>
<!-- Node1&#45;&gt;Node4 -->
<g id="edge5" class="edge">
<title>Node1&#45;&gt;Node4</title>
<path fill="none" stroke="#63b8ff" d="M107.8,-32.82C95.1,-28.38 81.26,-23.55 69.48,-19.44"/>
<polygon fill="#63b8ff" stroke="#63b8ff" points="106.57,-36.09 117.16,-36.09 108.88,-29.49 106.57,-36.09"/>
</g>
<!-- Node2&#45;&gt;Node1 -->
<g id="edge2" class="edge">
<title>Node2&#45;&gt;Node1</title>
<path fill="none" stroke="#63b8ff" d="M88.72,-73.56C104.49,-68.24 120.89,-61.89 132.26,-56.49"/>
<polygon fill="#63b8ff" stroke="#63b8ff" points="87.84,-70.17 79.41,-76.59 90,-76.83 87.84,-70.17"/>
</g>
<!-- Node3&#45;&gt;Node1 -->
<g id="edge4" class="edge">
<title>Node3&#45;&gt;Node1</title>
<path fill="none" stroke="#63b8ff" d="M91.75,-53.24C99.95,-53.28 108.22,-53.11 115.77,-52.72"/>
<polygon fill="#63b8ff" stroke="#63b8ff" points="91.86,-49.75 81.8,-53.07 91.74,-56.75 91.86,-49.75"/>
</g>
</g>
</svg>
