<?xml version="1.0" encoding="UTF-8" standalone="no"?>
<!DOCTYPE svg PUBLIC "-//W3C//DTD SVG 1.1//EN"
 "http://www.w3.org/Graphics/SVG/1.1/DTD/svg11.dtd">
<!-- Generated by graphviz version 7.1.0 (20230121.1956)
 -->
<!-- Title: deserialize Pages: 1 -->
<svg width="529pt" height="124pt"
 viewBox="0.00 0.00 529.00 123.50" xmlns="http://www.w3.org/2000/svg" xmlns:xlink="http://www.w3.org/1999/xlink">
<g id="graph0" class="graph" transform="scale(1 1) rotate(0) translate(4 119.5)">
<title>deserialize</title>
<!-- Node1 -->
<g id="node1" class="node">
<title>Node1</title>
<g id="a_node1"><a xlink:title=" ">
<polygon fill="#999999" stroke="#666666" points="63,-62 0,-62 0,-43 63,-43 63,-62"/>
<text text-anchor="middle" x="31.5" y="-50" font-family="Helvetica,sans-Serif" font-size="10.00">deserialize</text>
</a>
</g>
</g>
<!-- Node2 -->
<g id="node2" class="node">
<title>Node2</title>
<g id="a_node2"><a xlink:href="../../d5/d91/classdoris_1_1vectorized_1_1_data_type_string.html#a50e282b5a8f38b0e27a8958853da3441" target="_top" xlink:title=" ">
<polygon fill="white" stroke="#666666" points="236,-67.5 99,-67.5 99,-37.5 236,-37.5 236,-67.5"/>
<text text-anchor="start" x="107" y="-55.5" font-family="Helvetica,sans-Serif" font-size="10.00">doris::vectorized::</text>
<text text-anchor="middle" x="167.5" y="-44.5" font-family="Helvetica,sans-Serif" font-size="10.00">DataTypeString::deserialize</text>
</a>
</g>
</g>
<!-- Node1&#45;&gt;Node2 -->
<g id="edge1" class="edge">
<title>Node1&#45;&gt;Node2</title>
<path fill="none" stroke="#63b8ff" d="M63.24,-52.5C70.6,-52.5 78.8,-52.5 87.26,-52.5"/>
<polygon fill="#63b8ff" stroke="#63b8ff" points="86.99,-56 96.99,-52.5 86.99,-49 86.99,-56"/>
</g>
<!-- Node3 -->
<g id="node3" class="node">
<title>Node3</title>
<g id="a_node3"><a xlink:href="../../d7/d3c/classdoris_1_1vectorized_1_1_column_string.html#af6badf5144f999a6e3ab1997c5493bf7" target="_top" xlink:title=" ">
<polygon fill="white" stroke="#666666" points="400,-115.5 275,-115.5 275,-85.5 400,-85.5 400,-115.5"/>
<text text-anchor="start" x="283" y="-103.5" font-family="Helvetica,sans-Serif" font-size="10.00">doris::vectorized::</text>
<text text-anchor="middle" x="337.5" y="-92.5" font-family="Helvetica,sans-Serif" font-size="10.00">ColumnString::get_chars</text>
</a>
</g>
</g>
<!-- Node2&#45;&gt;Node3 -->
<g id="edge2" class="edge">
<title>Node2&#45;&gt;Node3</title>
<path fill="none" stroke="#63b8ff" d="M222.58,-67.95C238.17,-72.41 255.34,-77.31 271.51,-81.93"/>
<polygon fill="#63b8ff" stroke="#63b8ff" points="270.49,-85.28 281.07,-84.66 272.41,-78.55 270.49,-85.28"/>
</g>
<!-- Node4 -->
<g id="node4" class="node">
<title>Node4</title>
<g id="a_node4"><a xlink:href="../../d7/d3c/classdoris_1_1vectorized_1_1_column_string.html#a24988e7a1506deb61af3aab22e098366" target="_top" xlink:title=" ">
<polygon fill="white" stroke="#666666" points="403,-67.5 272,-67.5 272,-37.5 403,-37.5 403,-67.5"/>
<text text-anchor="start" x="280" y="-55.5" font-family="Helvetica,sans-Serif" font-size="10.00">doris::vectorized::</text>
<text text-anchor="middle" x="337.5" y="-44.5" font-family="Helvetica,sans-Serif" font-size="10.00">ColumnString::get_offsets</text>
</a>
</g>
</g>
<!-- Node2&#45;&gt;Node4 -->
<g id="edge3" class="edge">
<title>Node2&#45;&gt;Node4</title>
<path fill="none" stroke="#63b8ff" d="M236.35,-52.5C244.27,-52.5 252.39,-52.5 260.42,-52.5"/>
<polygon fill="#63b8ff" stroke="#63b8ff" points="260.15,-56 270.15,-52.5 260.15,-49 260.15,-56"/>
</g>
<!-- Node5 -->
<g id="node5" class="node">
<title>Node5</title>
<g id="a_node5"><a xlink:href="../../d9/d1e/memcpy__aarch64_8cpp.html#a156c5821f16ed93be8c7d315303f7b2a" target="_top" xlink:title=" ">
<polygon fill="white" stroke="#666666" points="364.5,-19 310.5,-19 310.5,0 364.5,0 364.5,-19"/>
<text text-anchor="middle" x="337.5" y="-7" font-family="Helvetica,sans-Serif" font-size="10.00">memcpy</text>
</a>
</g>
</g>
<!-- Node2&#45;&gt;Node5 -->
<g id="edge4" class="edge">
<title>Node2&#45;&gt;Node5</title>
<path fill="none" stroke="#63b8ff" d="M228.68,-37.1C252.19,-31.08 278.42,-24.37 299.12,-19.07"/>
<polygon fill="#63b8ff" stroke="#63b8ff" points="299.72,-22.53 308.54,-16.66 297.98,-15.75 299.72,-22.53"/>
</g>
<!-- Node6 -->
<g id="node6" class="node">
<title>Node6</title>
<g id="a_node6"><a xlink:href="../../d9/d1e/memcpy__aarch64_8cpp.html#a11ebdd343428c466f2f35c376d7db6d0" target="_top" xlink:title=" ">
<polygon fill="white" stroke="#666666" points="521,-19 439,-19 439,0 521,0 521,-19"/>
<text text-anchor="middle" x="480" y="-7" font-family="Helvetica,sans-Serif" font-size="10.00">inline_memcpy</text>
</a>
</g>
</g>
<!-- Node5&#45;&gt;Node6 -->
<g id="edge5" class="edge">
<title>Node5&#45;&gt;Node6</title>
<path fill="none" stroke="#63b8ff" d="M364.93,-9.5C382.43,-9.5 405.98,-9.5 427.14,-9.5"/>
<polygon fill="#63b8ff" stroke="#63b8ff" points="427.08,-13 437.08,-9.5 427.08,-6 427.08,-13"/>
</g>
</g>
</svg>
