<?xml version="1.0" encoding="UTF-8" standalone="no"?>
<!DOCTYPE svg PUBLIC "-//W3C//DTD SVG 1.1//EN"
 "http://www.w3.org/Graphics/SVG/1.1/DTD/svg11.dtd">
<!-- Generated by graphviz version 7.1.0 (20230121.1956)
 -->
<!-- Title: /Users/dabowang/be_all/vec/data_types/data_type_nothing.h Pages: 1 -->
<!--zoomable 291 -->
<svg id="main" version="1.1" xmlns="http://www.w3.org/2000/svg" xmlns:xlink="http://www.w3.org/1999/xlink" xml:space="preserve" onload="init(evt)">
<style type="text/css"><![CDATA[
.edge:hover path { stroke: red; }
.edge:hover polygon { stroke: red; fill: red; }
]]></style>
<script type="text/javascript"><![CDATA[
var edges = document.getElementsByTagName('g');
if (edges && edges.length) {
  for (var i=0;i<edges.length;i++) {
    if (edges[i].id.substr(0,4)=='edge') {
      edges[i].setAttribute('class','edge');
    }
  }
}
]]></script>
        <defs>
                <circle id="rim" cx="0" cy="0" r="7"/>
                <circle id="rim2" cx="0" cy="0" r="3.5"/>
                <g id="zoomPlus">
                        <use xlink:href="#rim" fill="#404040">
                                <set attributeName="fill" to="#808080" begin="zoomplus.mouseover" end="zoomplus.mouseout"/>
                        </use>
                        <path d="M-4,0h8M0,-4v8" fill="none" stroke="white" stroke-width="1.5" pointer-events="none"/>
                </g>
                <g id="zoomMin">
                        <use xlink:href="#rim" fill="#404040">
                                <set attributeName="fill" to="#808080" begin="zoomminus.mouseover" end="zoomminus.mouseout"/>
                        </use>
                        <path d="M-4,0h8" fill="none" stroke="white" stroke-width="1.5" pointer-events="none"/>
                </g>
                <g id="dirArrow">
                        <path fill="none" stroke="white" stroke-width="1.5" d="M0,-3.0v7 M-2.5,-0.5L0,-3.0L2.5,-0.5"/>
                </g>
               <g id="resetDef">
                       <use xlink:href="#rim2" fill="#404040">
                               <set attributeName="fill" to="#808080" begin="reset.mouseover" end="reset.mouseout"/>
                       </use>
               </g>
        </defs>

<script type="text/javascript">
var viewWidth = 3412;
var viewHeight = 291;
var sectionId = 'dynsection-1';
</script>
<script xlink:href="../../svgpan.js"/>
<svg id="graph" class="graph">
<g id="viewport">
<title>/Users/dabowang/be_all/vec/data_types/data_type_nothing.h</title>
<!-- Node1 -->
<g id="node1" class="node">
<title>Node1</title>
<g id="a_node1"><a xlink:title=" ">
<polygon fill="#999999" stroke="#666666" points="2057,-283 1950,-283 1950,-242 2057,-242 2057,-283"/>
<text text-anchor="start" x="1958" y="-271" font-family="Helvetica,sans-Serif" font-size="10.00">/Users/dabowang/be</text>
<text text-anchor="start" x="1958" y="-260" font-family="Helvetica,sans-Serif" font-size="10.00">_all/vec/data_types</text>
<text text-anchor="middle" x="2003.5" y="-249" font-family="Helvetica,sans-Serif" font-size="10.00">/data_type_nothing.h</text>
</a>
</g>
</g>
<!-- Node2 -->
<g id="node2" class="node">
<title>Node2</title>
<g id="a_node2"><a xlink:href="../../db/d08/aggregate__function__nothing_8h.html" target="_top" xlink:title=" ">
<polygon fill="white" stroke="#666666" points="935,-206 788,-206 788,-165 935,-165 935,-206"/>
<text text-anchor="start" x="796" y="-194" font-family="Helvetica,sans-Serif" font-size="10.00">/Users/dabowang/be</text>
<text text-anchor="start" x="796" y="-183" font-family="Helvetica,sans-Serif" font-size="10.00">_all/vec/aggregate_functions</text>
<text text-anchor="middle" x="861.5" y="-172" font-family="Helvetica,sans-Serif" font-size="10.00">/aggregate_function_nothing.h</text>
</a>
</g>
</g>
<!-- Node1&#45;&gt;Node2 -->
<g id="edge1" class="edge">
<title>Node1&#45;&gt;Node2</title>
<path fill="none" stroke="#63b8ff" d="M1938.19,-257.21C1739.67,-244.17 1144.3,-205.07 935.14,-191.34"/>
<polygon fill="#63b8ff" stroke="#63b8ff" points="1937.85,-260.7 1948.06,-257.86 1938.31,-253.71 1937.85,-260.7"/>
</g>
<!-- Node4 -->
<g id="node4" class="node">
<title>Node4</title>
<g id="a_node4"><a xlink:href="../../d6/df8/data__type__factory_8hpp.html" target="_top" xlink:title=" ">
<polygon fill="white" stroke="#666666" points="1789,-206 1674,-206 1674,-165 1789,-165 1789,-206"/>
<text text-anchor="start" x="1682" y="-194" font-family="Helvetica,sans-Serif" font-size="10.00">/Users/dabowang/be</text>
<text text-anchor="start" x="1682" y="-183" font-family="Helvetica,sans-Serif" font-size="10.00">_all/vec/data_types</text>
<text text-anchor="middle" x="1731.5" y="-172" font-family="Helvetica,sans-Serif" font-size="10.00">/data_type_factory.hpp</text>
</a>
</g>
</g>
<!-- Node1&#45;&gt;Node4 -->
<g id="edge3" class="edge">
<title>Node1&#45;&gt;Node4</title>
<path fill="none" stroke="#63b8ff" d="M1938.86,-244.33C1898.46,-233.52 1845.39,-219.17 1798.5,-206 1795.47,-205.15 1792.36,-204.27 1789.22,-203.37"/>
<polygon fill="#63b8ff" stroke="#63b8ff" points="1937.87,-247.69 1948.44,-246.89 1939.68,-240.93 1937.87,-247.69"/>
</g>
<!-- Node29 -->
<g id="node29" class="node">
<title>Node29</title>
<g id="a_node29"><a xlink:href="../../d7/d2b/data__type__nothing_8cpp.html" target="_top" xlink:title=" ">
<polygon fill="white" stroke="#666666" points="1925.5,-206 1807.5,-206 1807.5,-165 1925.5,-165 1925.5,-206"/>
<text text-anchor="start" x="1815.5" y="-194" font-family="Helvetica,sans-Serif" font-size="10.00">/Users/dabowang/be</text>
<text text-anchor="start" x="1815.5" y="-183" font-family="Helvetica,sans-Serif" font-size="10.00">_all/vec/data_types</text>
<text text-anchor="middle" x="1866.5" y="-172" font-family="Helvetica,sans-Serif" font-size="10.00">/data_type_nothing.cpp</text>
</a>
</g>
</g>
<!-- Node1&#45;&gt;Node29 -->
<g id="edge28" class="edge">
<title>Node1&#45;&gt;Node29</title>
<path fill="none" stroke="#63b8ff" d="M1957.06,-236.08C1939.43,-226.42 1919.61,-215.58 1903.02,-206.49"/>
<polygon fill="#63b8ff" stroke="#63b8ff" points="1955.37,-239.14 1965.82,-240.87 1958.73,-233 1955.37,-239.14"/>
</g>
<!-- Node30 -->
<g id="node30" class="node">
<title>Node30</title>
<g id="a_node30"><a xlink:href="../../da/d3d/data__type__nullable_8cpp.html" target="_top" xlink:title=" ">
<polygon fill="white" stroke="#666666" points="2063,-206 1944,-206 1944,-165 2063,-165 2063,-206"/>
<text text-anchor="start" x="1952" y="-194" font-family="Helvetica,sans-Serif" font-size="10.00">/Users/dabowang/be</text>
<text text-anchor="start" x="1952" y="-183" font-family="Helvetica,sans-Serif" font-size="10.00">_all/vec/data_types</text>
<text text-anchor="middle" x="2003.5" y="-172" font-family="Helvetica,sans-Serif" font-size="10.00">/data_type_nullable.cpp</text>
</a>
</g>
</g>
<!-- Node1&#45;&gt;Node30 -->
<g id="edge29" class="edge">
<title>Node1&#45;&gt;Node30</title>
<path fill="none" stroke="#63b8ff" d="M2003.5,-230.36C2003.5,-222.24 2003.5,-213.7 2003.5,-206.33"/>
<polygon fill="#63b8ff" stroke="#63b8ff" points="2000,-230.28 2003.5,-240.28 2007,-230.28 2000,-230.28"/>
</g>
<!-- Node31 -->
<g id="node31" class="node">
<title>Node31</title>
<g id="a_node31"><a xlink:href="../../d0/dee/get__least__supertype_8cpp.html" target="_top" xlink:title=" ">
<polygon fill="white" stroke="#666666" points="2207.5,-206 2081.5,-206 2081.5,-165 2207.5,-165 2207.5,-206"/>
<text text-anchor="start" x="2089.5" y="-194" font-family="Helvetica,sans-Serif" font-size="10.00">/Users/dabowang/be</text>
<text text-anchor="start" x="2089.5" y="-183" font-family="Helvetica,sans-Serif" font-size="10.00">_all/vec/data_types</text>
<text text-anchor="middle" x="2144.5" y="-172" font-family="Helvetica,sans-Serif" font-size="10.00">/get_least_supertype.cpp</text>
</a>
</g>
</g>
<!-- Node1&#45;&gt;Node31 -->
<g id="edge30" class="edge">
<title>Node1&#45;&gt;Node31</title>
<path fill="none" stroke="#63b8ff" d="M2051.04,-236.21C2069.25,-226.52 2089.76,-215.62 2106.91,-206.49"/>
<polygon fill="#63b8ff" stroke="#63b8ff" points="2049.44,-233.1 2042.25,-240.89 2052.72,-239.28 2049.44,-233.1"/>
</g>
<!-- Node32 -->
<g id="node32" class="node">
<title>Node32</title>
<g id="a_node32"><a xlink:href="../../de/dea/function_8cpp.html" target="_top" xlink:title=" ">
<polygon fill="white" stroke="#666666" points="2375,-200.5 2226,-200.5 2226,-170.5 2375,-170.5 2375,-200.5"/>
<text text-anchor="start" x="2234" y="-188.5" font-family="Helvetica,sans-Serif" font-size="10.00">/Users/dabowang/be</text>
<text text-anchor="middle" x="2300.5" y="-177.5" font-family="Helvetica,sans-Serif" font-size="10.00">_all/vec/functions/function.cpp</text>
</a>
</g>
</g>
<!-- Node1&#45;&gt;Node32 -->
<g id="edge31" class="edge">
<title>Node1&#45;&gt;Node32</title>
<path fill="none" stroke="#63b8ff" d="M2068.43,-245.1C2120.64,-231.92 2193.28,-213.57 2243.32,-200.94"/>
<polygon fill="#63b8ff" stroke="#63b8ff" points="2067.59,-241.71 2058.75,-247.55 2069.3,-248.49 2067.59,-241.71"/>
</g>
<!-- Node33 -->
<g id="node33" class="node">
<title>Node33</title>
<g id="a_node33"><a xlink:href="../../d3/de4/nullif_8cpp.html" target="_top" xlink:title=" ">
<polygon fill="white" stroke="#666666" points="2528,-200.5 2393,-200.5 2393,-170.5 2528,-170.5 2528,-200.5"/>
<text text-anchor="start" x="2401" y="-188.5" font-family="Helvetica,sans-Serif" font-size="10.00">/Users/dabowang/be</text>
<text text-anchor="middle" x="2460.5" y="-177.5" font-family="Helvetica,sans-Serif" font-size="10.00">_all/vec/functions/nullif.cpp</text>
</a>
</g>
</g>
<!-- Node1&#45;&gt;Node33 -->
<g id="edge32" class="edge">
<title>Node1&#45;&gt;Node33</title>
<path fill="none" stroke="#63b8ff" d="M2068.74,-254.14C2144.9,-245.06 2274.47,-228.06 2384.5,-206 2391.85,-204.53 2399.54,-202.79 2407.1,-200.96"/>
<polygon fill="#63b8ff" stroke="#63b8ff" points="2068.46,-250.65 2058.94,-255.3 2069.29,-257.6 2068.46,-250.65"/>
</g>
<!-- Node3 -->
<g id="node3" class="node">
<title>Node3</title>
<g id="a_node3"><a xlink:href="../../dc/dc0/aggregate__function__null_8cpp.html" target="_top" xlink:title=" ">
<polygon fill="white" stroke="#666666" points="141,-123.5 0,-123.5 0,-82.5 141,-82.5 141,-123.5"/>
<text text-anchor="start" x="8" y="-111.5" font-family="Helvetica,sans-Serif" font-size="10.00">/Users/dabowang/be</text>
<text text-anchor="start" x="8" y="-100.5" font-family="Helvetica,sans-Serif" font-size="10.00">_all/vec/aggregate_functions</text>
<text text-anchor="middle" x="70.5" y="-89.5" font-family="Helvetica,sans-Serif" font-size="10.00">/aggregate_function_null.cpp</text>
</a>
</g>
</g>
<!-- Node2&#45;&gt;Node3 -->
<g id="edge2" class="edge">
<title>Node2&#45;&gt;Node3</title>
<path fill="none" stroke="#63b8ff" d="M776.32,-184.12C641.89,-182.13 372.86,-172.45 149.5,-129 142.58,-127.65 135.42,-125.91 128.35,-123.96"/>
<polygon fill="#63b8ff" stroke="#63b8ff" points="776.17,-187.62 786.21,-184.26 776.26,-180.62 776.17,-187.62"/>
</g>
<!-- Node5 -->
<g id="node5" class="node">
<title>Node5</title>
<g id="a_node5"><a xlink:href="../../de/d27/base__scanner_8cpp.html" target="_top" xlink:title=" ">
<polygon fill="white" stroke="#666666" points="296,-118 159,-118 159,-88 296,-88 296,-118"/>
<text text-anchor="start" x="167" y="-106" font-family="Helvetica,sans-Serif" font-size="10.00">/Users/dabowang/be</text>
<text text-anchor="middle" x="227.5" y="-95" font-family="Helvetica,sans-Serif" font-size="10.00">_all/exec/base_scanner.cpp</text>
</a>
</g>
</g>
<!-- Node4&#45;&gt;Node5 -->
<g id="edge4" class="edge">
<title>Node4&#45;&gt;Node5</title>
<path fill="none" stroke="#63b8ff" d="M1662.27,-182.91C1395.13,-176.61 439.61,-152.65 305.5,-129 292.2,-126.65 278.02,-122.61 265.46,-118.44"/>
<polygon fill="#63b8ff" stroke="#63b8ff" points="1662.13,-186.41 1672.21,-183.14 1662.3,-179.41 1662.13,-186.41"/>
</g>
<!-- Node6 -->
<g id="node6" class="node">
<title>Node6</title>
<g id="a_node6"><a xlink:href="../../d0/df3/bitmap__index__reader_8cpp.html" target="_top" xlink:title=" ">
<polygon fill="white" stroke="#666666" points="457,-123.5 314,-123.5 314,-82.5 457,-82.5 457,-123.5"/>
<text text-anchor="start" x="322" y="-111.5" font-family="Helvetica,sans-Serif" font-size="10.00">/Users/dabowang/be</text>
<text text-anchor="start" x="322" y="-100.5" font-family="Helvetica,sans-Serif" font-size="10.00">_all/olap/rowset/segment</text>
<text text-anchor="middle" x="385.5" y="-89.5" font-family="Helvetica,sans-Serif" font-size="10.00">_v2/bitmap_index_reader.cpp</text>
</a>
</g>
</g>
<!-- Node4&#45;&gt;Node6 -->
<g id="edge5" class="edge">
<title>Node4&#45;&gt;Node6</title>
<path fill="none" stroke="#63b8ff" d="M1662.42,-182.5C1415.41,-175.21 584.3,-149.42 466.5,-129 459.1,-127.72 451.44,-125.96 443.91,-123.95"/>
<polygon fill="#63b8ff" stroke="#63b8ff" points="1662.13,-185.99 1672.23,-182.79 1662.33,-179 1662.13,-185.99"/>
</g>
<!-- Node7 -->
<g id="node7" class="node">
<title>Node7</title>
<g id="a_node7"><a xlink:href="../../db/d6f/bloom__filter__index__reader_8cpp.html" target="_top" xlink:title=" ">
<polygon fill="white" stroke="#666666" points="600,-129 475,-129 475,-77 600,-77 600,-129"/>
<text text-anchor="start" x="483" y="-117" font-family="Helvetica,sans-Serif" font-size="10.00">/Users/dabowang/be</text>
<text text-anchor="start" x="483" y="-106" font-family="Helvetica,sans-Serif" font-size="10.00">_all/olap/rowset/segment</text>
<text text-anchor="start" x="483" y="-95" font-family="Helvetica,sans-Serif" font-size="10.00">_v2/bloom_filter_index</text>
<text text-anchor="middle" x="537.5" y="-84" font-family="Helvetica,sans-Serif" font-size="10.00">_reader.cpp</text>
</a>
</g>
</g>
<!-- Node4&#45;&gt;Node7 -->
<g id="edge6" class="edge">
<title>Node4&#45;&gt;Node7</title>
<path fill="none" stroke="#63b8ff" d="M1662.47,-183.65C1450.78,-180.65 812.77,-168.47 609.5,-129 606.51,-128.42 603.48,-127.74 600.44,-126.99"/>
<polygon fill="#63b8ff" stroke="#63b8ff" points="1662.16,-187.15 1672.21,-183.79 1662.26,-180.15 1662.16,-187.15"/>
</g>
<!-- Node8 -->
<g id="node8" class="node">
<title>Node8</title>
<g id="a_node8"><a xlink:href="../../d6/d80/segment_8cpp.html" target="_top" xlink:title=" ">
<polygon fill="white" stroke="#666666" points="743,-123.5 618,-123.5 618,-82.5 743,-82.5 743,-123.5"/>
<text text-anchor="start" x="626" y="-111.5" font-family="Helvetica,sans-Serif" font-size="10.00">/Users/dabowang/be</text>
<text text-anchor="start" x="626" y="-100.5" font-family="Helvetica,sans-Serif" font-size="10.00">_all/olap/rowset/segment</text>
<text text-anchor="middle" x="680.5" y="-89.5" font-family="Helvetica,sans-Serif" font-size="10.00">_v2/segment.cpp</text>
</a>
</g>
</g>
<!-- Node4&#45;&gt;Node8 -->
<g id="edge7" class="edge">
<title>Node4&#45;&gt;Node8</title>
<path fill="none" stroke="#63b8ff" d="M1662.21,-183.07C1469,-178.67 927,-163.54 752.5,-129 745.88,-127.69 739.04,-125.91 732.33,-123.9"/>
<polygon fill="#63b8ff" stroke="#63b8ff" points="1662.02,-186.56 1672.1,-183.29 1662.18,-179.56 1662.02,-186.56"/>
</g>
<!-- Node9 -->
<g id="node9" class="node">
<title>Node9</title>
<g id="a_node9"><a xlink:href="../../df/d92/segment__iterator_8cpp.html" target="_top" xlink:title=" ">
<polygon fill="white" stroke="#666666" points="887.5,-123.5 761.5,-123.5 761.5,-82.5 887.5,-82.5 887.5,-123.5"/>
<text text-anchor="start" x="769.5" y="-111.5" font-family="Helvetica,sans-Serif" font-size="10.00">/Users/dabowang/be</text>
<text text-anchor="start" x="769.5" y="-100.5" font-family="Helvetica,sans-Serif" font-size="10.00">_all/olap/rowset/segment</text>
<text text-anchor="middle" x="824.5" y="-89.5" font-family="Helvetica,sans-Serif" font-size="10.00">_v2/segment_iterator.cpp</text>
</a>
</g>
</g>
<!-- Node4&#45;&gt;Node9 -->
<g id="edge8" class="edge">
<title>Node4&#45;&gt;Node9</title>
<path fill="none" stroke="#63b8ff" d="M1662.23,-182.24C1489.51,-176.22 1043.18,-158.26 897.5,-129 890.93,-127.68 884.15,-125.92 877.48,-123.95"/>
<polygon fill="#63b8ff" stroke="#63b8ff" points="1662.07,-185.73 1672.19,-182.58 1662.31,-178.74 1662.07,-185.73"/>
</g>
<!-- Node10 -->
<g id="node10" class="node">
<title>Node10</title>
<g id="a_node10"><a xlink:href="../../d5/dfe/schema_8cpp.html" target="_top" xlink:title=" ">
<polygon fill="white" stroke="#666666" points="1015,-118 906,-118 906,-88 1015,-88 1015,-118"/>
<text text-anchor="start" x="914" y="-106" font-family="Helvetica,sans-Serif" font-size="10.00">/Users/dabowang/be</text>
<text text-anchor="middle" x="960.5" y="-95" font-family="Helvetica,sans-Serif" font-size="10.00">_all/olap/schema.cpp</text>
</a>
</g>
</g>
<!-- Node4&#45;&gt;Node10 -->
<g id="edge9" class="edge">
<title>Node4&#45;&gt;Node10</title>
<path fill="none" stroke="#63b8ff" d="M1662.58,-181.67C1509.39,-174.96 1144.65,-156.55 1024.5,-129 1013.69,-126.52 1002.28,-122.54 992.15,-118.48"/>
<polygon fill="#63b8ff" stroke="#63b8ff" points="1662.03,-185.15 1672.17,-182.08 1662.33,-178.15 1662.03,-185.15"/>
</g>
<!-- Node11 -->
<g id="node11" class="node">
<title>Node11</title>
<g id="a_node11"><a xlink:href="../../d0/dc2/tablet_8cpp.html" target="_top" xlink:title=" ">
<polygon fill="white" stroke="#666666" points="1140,-118 1033,-118 1033,-88 1140,-88 1140,-118"/>
<text text-anchor="start" x="1041" y="-106" font-family="Helvetica,sans-Serif" font-size="10.00">/Users/dabowang/be</text>
<text text-anchor="middle" x="1086.5" y="-95" font-family="Helvetica,sans-Serif" font-size="10.00">_all/olap/tablet.cpp</text>
</a>
</g>
</g>
<!-- Node4&#45;&gt;Node11 -->
<g id="edge10" class="edge">
<title>Node4&#45;&gt;Node11</title>
<path fill="none" stroke="#63b8ff" d="M1662.35,-184.18C1552.27,-182.28 1331.05,-172.74 1149.5,-129 1138.86,-126.44 1127.64,-122.44 1117.66,-118.38"/>
<polygon fill="#63b8ff" stroke="#63b8ff" points="1662.05,-187.67 1672.1,-184.33 1662.16,-180.68 1662.05,-187.67"/>
</g>
<!-- Node12 -->
<g id="node12" class="node">
<title>Node12</title>
<g id="a_node12"><a xlink:href="../../d4/d7c/tablet__schema_8cpp.html" target="_top" xlink:title=" ">
<polygon fill="white" stroke="#666666" points="1296.5,-118 1158.5,-118 1158.5,-88 1296.5,-88 1296.5,-118"/>
<text text-anchor="start" x="1166.5" y="-106" font-family="Helvetica,sans-Serif" font-size="10.00">/Users/dabowang/be</text>
<text text-anchor="middle" x="1227.5" y="-95" font-family="Helvetica,sans-Serif" font-size="10.00">_all/olap/tablet_schema.cpp</text>
</a>
</g>
</g>
<!-- Node4&#45;&gt;Node12 -->
<g id="edge11" class="edge">
<title>Node4&#45;&gt;Node12</title>
<path fill="none" stroke="#63b8ff" d="M1662.27,-179.24C1577.61,-171.95 1430.3,-156.45 1306.5,-129 1294,-126.23 1280.64,-122.36 1268.54,-118.5"/>
<polygon fill="#63b8ff" stroke="#63b8ff" points="1661.77,-182.71 1672.03,-180.07 1662.36,-175.74 1661.77,-182.71"/>
</g>
<!-- Node13 -->
<g id="node13" class="node">
<title>Node13</title>
<g id="a_node13"><a xlink:href="../../df/d7f/descriptors_8cpp.html" target="_top" xlink:title=" ">
<polygon fill="white" stroke="#666666" points="1452,-118 1315,-118 1315,-88 1452,-88 1452,-118"/>
<text text-anchor="start" x="1323" y="-106" font-family="Helvetica,sans-Serif" font-size="10.00">/Users/dabowang/be</text>
<text text-anchor="middle" x="1383.5" y="-95" font-family="Helvetica,sans-Serif" font-size="10.00">_all/runtime/descriptors.cpp</text>
</a>
</g>
</g>
<!-- Node4&#45;&gt;Node13 -->
<g id="edge12" class="edge">
<title>Node4&#45;&gt;Node13</title>
<path fill="none" stroke="#63b8ff" d="M1662.69,-172.47C1607.84,-162.37 1529.27,-146.77 1461.5,-129 1449.81,-125.93 1437.28,-122.15 1425.76,-118.46"/>
<polygon fill="#63b8ff" stroke="#63b8ff" points="1661.72,-175.85 1672.19,-174.2 1662.98,-168.96 1661.72,-175.85"/>
</g>
<!-- Node14 -->
<g id="node14" class="node">
<title>Node14</title>
<g id="a_node14"><a xlink:href="../../d9/d4d/block_8cpp.html" target="_top" xlink:title=" ">
<polygon fill="white" stroke="#666666" points="1587,-118 1470,-118 1470,-88 1587,-88 1587,-118"/>
<text text-anchor="start" x="1478" y="-106" font-family="Helvetica,sans-Serif" font-size="10.00">/Users/dabowang/be</text>
<text text-anchor="middle" x="1528.5" y="-95" font-family="Helvetica,sans-Serif" font-size="10.00">_all/vec/core/block.cpp</text>
</a>
</g>
</g>
<!-- Node4&#45;&gt;Node14 -->
<g id="edge13" class="edge">
<title>Node4&#45;&gt;Node14</title>
<path fill="none" stroke="#63b8ff" d="M1670.9,-160.47C1636.45,-146.81 1594.47,-130.16 1565.04,-118.49"/>
<polygon fill="#63b8ff" stroke="#63b8ff" points="1669.33,-163.61 1679.91,-164.04 1671.91,-157.1 1669.33,-163.61"/>
</g>
<!-- Node15 -->
<g id="node15" class="node">
<title>Node15</title>
<g id="a_node15"><a xlink:href="../../d3/d57/data__type__factory_8cpp.html" target="_top" xlink:title=" ">
<polygon fill="white" stroke="#666666" points="1720,-123.5 1605,-123.5 1605,-82.5 1720,-82.5 1720,-123.5"/>
<text text-anchor="start" x="1613" y="-111.5" font-family="Helvetica,sans-Serif" font-size="10.00">/Users/dabowang/be</text>
<text text-anchor="start" x="1613" y="-100.5" font-family="Helvetica,sans-Serif" font-size="10.00">_all/vec/data_types</text>
<text text-anchor="middle" x="1662.5" y="-89.5" font-family="Helvetica,sans-Serif" font-size="10.00">/data_type_factory.cpp</text>
</a>
</g>
</g>
<!-- Node4&#45;&gt;Node15 -->
<g id="edge14" class="edge">
<title>Node4&#45;&gt;Node15</title>
<path fill="none" stroke="#63b8ff" d="M1707.11,-156.05C1698.02,-145.44 1687.9,-133.63 1679.6,-123.95"/>
<polygon fill="#63b8ff" stroke="#63b8ff" points="1704.29,-158.14 1713.46,-163.45 1709.61,-153.58 1704.29,-158.14"/>
</g>
<!-- Node16 -->
<g id="node16" class="node">
<title>Node16</title>
<g id="a_node16"><a xlink:href="../../dd/d43/iceberg__reader_8cpp.html" target="_top" xlink:title=" ">
<polygon fill="white" stroke="#666666" points="1863,-123.5 1738,-123.5 1738,-82.5 1863,-82.5 1863,-123.5"/>
<text text-anchor="start" x="1746" y="-111.5" font-family="Helvetica,sans-Serif" font-size="10.00">/Users/dabowang/be</text>
<text text-anchor="start" x="1746" y="-100.5" font-family="Helvetica,sans-Serif" font-size="10.00">_all/vec/exec/format</text>
<text text-anchor="middle" x="1800.5" y="-89.5" font-family="Helvetica,sans-Serif" font-size="10.00">/table/iceberg_reader.cpp</text>
</a>
</g>
</g>
<!-- Node4&#45;&gt;Node16 -->
<g id="edge15" class="edge">
<title>Node4&#45;&gt;Node16</title>
<path fill="none" stroke="#63b8ff" d="M1755.89,-156.05C1764.98,-145.44 1775.1,-133.63 1783.4,-123.95"/>
<polygon fill="#63b8ff" stroke="#63b8ff" points="1753.39,-153.58 1749.54,-163.45 1758.71,-158.14 1753.39,-153.58"/>
</g>
<!-- Node17 -->
<g id="node17" class="node">
<title>Node17</title>
<g id="a_node17"><a xlink:href="../../d9/df7/vfile__scanner_8cpp.html" target="_top" xlink:title=" ">
<polygon fill="white" stroke="#666666" points="2000,-123.5 1881,-123.5 1881,-82.5 2000,-82.5 2000,-123.5"/>
<text text-anchor="start" x="1889" y="-111.5" font-family="Helvetica,sans-Serif" font-size="10.00">/Users/dabowang/be</text>
<text text-anchor="start" x="1889" y="-100.5" font-family="Helvetica,sans-Serif" font-size="10.00">_all/vec/exec/scan/vfile</text>
<text text-anchor="middle" x="1940.5" y="-89.5" font-family="Helvetica,sans-Serif" font-size="10.00">_scanner.cpp</text>
</a>
</g>
</g>
<!-- Node4&#45;&gt;Node17 -->
<g id="edge16" class="edge">
<title>Node4&#45;&gt;Node17</title>
<path fill="none" stroke="#63b8ff" d="M1793.62,-160.57C1823.91,-148.91 1859.92,-135.04 1888.71,-123.95"/>
<polygon fill="#63b8ff" stroke="#63b8ff" points="1792.65,-157.2 1784.58,-164.06 1795.17,-163.73 1792.65,-157.2"/>
</g>
<!-- Node18 -->
<g id="node18" class="node">
<title>Node18</title>
<g id="a_node18"><a xlink:href="../../df/d87/varrow__scanner_8cpp.html" target="_top" xlink:title=" ">
<polygon fill="white" stroke="#666666" points="2125,-123.5 2018,-123.5 2018,-82.5 2125,-82.5 2125,-123.5"/>
<text text-anchor="start" x="2026" y="-111.5" font-family="Helvetica,sans-Serif" font-size="10.00">/Users/dabowang/be</text>
<text text-anchor="start" x="2026" y="-100.5" font-family="Helvetica,sans-Serif" font-size="10.00">_all/vec/exec/varrow</text>
<text text-anchor="middle" x="2071.5" y="-89.5" font-family="Helvetica,sans-Serif" font-size="10.00">_scanner.cpp</text>
</a>
</g>
</g>
<!-- Node4&#45;&gt;Node18 -->
<g id="edge17" class="edge">
<title>Node4&#45;&gt;Node18</title>
<path fill="none" stroke="#63b8ff" d="M1800.52,-164.7C1893.29,-144.46 1921.37,-153.97 2009.5,-129 2014.64,-127.54 2019.93,-125.8 2025.16,-123.93"/>
<polygon fill="#63b8ff" stroke="#63b8ff" points="1799.96,-161.24 1790.97,-166.85 1801.5,-168.07 1799.96,-161.24"/>
</g>
<!-- Node19 -->
<g id="node19" class="node">
<title>Node19</title>
<g id="a_node19"><a xlink:href="../../d5/de8/vjdbc__connector_8cpp.html" target="_top" xlink:title=" ">
<polygon fill="white" stroke="#666666" points="2250,-123.5 2143,-123.5 2143,-82.5 2250,-82.5 2250,-123.5"/>
<text text-anchor="start" x="2151" y="-111.5" font-family="Helvetica,sans-Serif" font-size="10.00">/Users/dabowang/be</text>
<text text-anchor="start" x="2151" y="-100.5" font-family="Helvetica,sans-Serif" font-size="10.00">_all/vec/exec/vjdbc</text>
<text text-anchor="middle" x="2196.5" y="-89.5" font-family="Helvetica,sans-Serif" font-size="10.00">_connector.cpp</text>
</a>
</g>
</g>
<!-- Node4&#45;&gt;Node19 -->
<g id="edge18" class="edge">
<title>Node4&#45;&gt;Node19</title>
<path fill="none" stroke="#63b8ff" d="M1800.7,-164.79C1948,-137.3 1992.35,-164.54 2134.5,-129 2140.02,-127.62 2145.69,-125.85 2151.27,-123.9"/>
<polygon fill="#63b8ff" stroke="#63b8ff" points="1800.09,-161.34 1790.94,-166.67 1801.42,-168.21 1800.09,-161.34"/>
</g>
<!-- Node20 -->
<g id="node20" class="node">
<title>Node20</title>
<g id="a_node20"><a xlink:href="../../da/da0/vschema__scan__node_8cpp.html" target="_top" xlink:title=" ">
<polygon fill="white" stroke="#666666" points="2385,-123.5 2268,-123.5 2268,-82.5 2385,-82.5 2385,-123.5"/>
<text text-anchor="start" x="2276" y="-111.5" font-family="Helvetica,sans-Serif" font-size="10.00">/Users/dabowang/be</text>
<text text-anchor="start" x="2276" y="-100.5" font-family="Helvetica,sans-Serif" font-size="10.00">_all/vec/exec/vschema</text>
<text text-anchor="middle" x="2326.5" y="-89.5" font-family="Helvetica,sans-Serif" font-size="10.00">_scan_node.cpp</text>
</a>
</g>
</g>
<!-- Node4&#45;&gt;Node20 -->
<g id="edge19" class="edge">
<title>Node4&#45;&gt;Node20</title>
<path fill="none" stroke="#63b8ff" d="M1800.73,-164.83C2002.82,-129.7 2062.46,-172.55 2259.5,-129 2265.56,-127.66 2271.81,-125.89 2277.94,-123.91"/>
<polygon fill="#63b8ff" stroke="#63b8ff" points="1800.15,-161.38 1790.92,-166.58 1801.38,-168.27 1800.15,-161.38"/>
</g>
<!-- Node21 -->
<g id="node21" class="node">
<title>Node21</title>
<g id="a_node21"><a xlink:href="../../d8/db1/vcast__expr_8cpp.html" target="_top" xlink:title=" ">
<polygon fill="white" stroke="#666666" points="2510,-123.5 2403,-123.5 2403,-82.5 2510,-82.5 2510,-123.5"/>
<text text-anchor="start" x="2411" y="-111.5" font-family="Helvetica,sans-Serif" font-size="10.00">/Users/dabowang/be</text>
<text text-anchor="start" x="2411" y="-100.5" font-family="Helvetica,sans-Serif" font-size="10.00">_all/vec/exprs/vcast</text>
<text text-anchor="middle" x="2456.5" y="-89.5" font-family="Helvetica,sans-Serif" font-size="10.00">_expr.cpp</text>
</a>
</g>
</g>
<!-- Node4&#45;&gt;Node21 -->
<g id="edge20" class="edge">
<title>Node4&#45;&gt;Node21</title>
<path fill="none" stroke="#63b8ff" d="M1800.41,-164.92C2062.07,-121.47 2139.17,-186.58 2394.5,-129 2400.27,-127.7 2406.21,-125.92 2412.01,-123.91"/>
<polygon fill="#63b8ff" stroke="#63b8ff" points="1800.18,-161.4 1790.91,-166.53 1801.36,-168.3 1800.18,-161.4"/>
</g>
<!-- Node22 -->
<g id="node22" class="node">
<title>Node22</title>
<g id="a_node22"><a xlink:href="../../dc/dc5/vectorized__agg__fn_8cpp.html" target="_top" xlink:title=" ">
<polygon fill="white" stroke="#666666" points="2653,-123.5 2528,-123.5 2528,-82.5 2653,-82.5 2653,-123.5"/>
<text text-anchor="start" x="2536" y="-111.5" font-family="Helvetica,sans-Serif" font-size="10.00">/Users/dabowang/be</text>
<text text-anchor="start" x="2536" y="-100.5" font-family="Helvetica,sans-Serif" font-size="10.00">_all/vec/exprs/vectorized</text>
<text text-anchor="middle" x="2590.5" y="-89.5" font-family="Helvetica,sans-Serif" font-size="10.00">_agg_fn.cpp</text>
</a>
</g>
</g>
<!-- Node4&#45;&gt;Node22 -->
<g id="edge21" class="edge">
<title>Node4&#45;&gt;Node22</title>
<path fill="none" stroke="#63b8ff" d="M1800.76,-164.87C2117.04,-113.64 2208.38,-190.2 2519.5,-129 2526.04,-127.71 2532.79,-125.95 2539.41,-123.94"/>
<polygon fill="#63b8ff" stroke="#63b8ff" points="1800.2,-161.42 1790.91,-166.5 1801.34,-168.32 1800.2,-161.42"/>
</g>
<!-- Node23 -->
<g id="node23" class="node">
<title>Node23</title>
<g id="a_node23"><a xlink:href="../../d2/d44/vexpr_8cpp.html" target="_top" xlink:title=" ">
<polygon fill="white" stroke="#666666" points="2793.5,-118 2671.5,-118 2671.5,-88 2793.5,-88 2793.5,-118"/>
<text text-anchor="start" x="2679.5" y="-106" font-family="Helvetica,sans-Serif" font-size="10.00">/Users/dabowang/be</text>
<text text-anchor="middle" x="2732.5" y="-95" font-family="Helvetica,sans-Serif" font-size="10.00">_all/vec/exprs/vexpr.cpp</text>
</a>
</g>
</g>
<!-- Node4&#45;&gt;Node23 -->
<g id="edge22" class="edge">
<title>Node4&#45;&gt;Node23</title>
<path fill="none" stroke="#63b8ff" d="M1800.71,-164.89C2179.9,-104.78 2288.94,-201.75 2662.5,-129 2674.53,-126.66 2687.28,-122.61 2698.54,-118.45"/>
<polygon fill="#63b8ff" stroke="#63b8ff" points="1800.22,-161.43 1790.9,-166.48 1801.33,-168.34 1800.22,-161.43"/>
</g>
<!-- Node24 -->
<g id="node24" class="node">
<title>Node24</title>
<g id="a_node24"><a xlink:href="../../d2/d93/vin__predicate_8cpp.html" target="_top" xlink:title=" ">
<polygon fill="white" stroke="#666666" points="2969,-118 2812,-118 2812,-88 2969,-88 2969,-118"/>
<text text-anchor="start" x="2820" y="-106" font-family="Helvetica,sans-Serif" font-size="10.00">/Users/dabowang/be</text>
<text text-anchor="middle" x="2890.5" y="-95" font-family="Helvetica,sans-Serif" font-size="10.00">_all/vec/exprs/vin_predicate.cpp</text>
</a>
</g>
</g>
<!-- Node4&#45;&gt;Node24 -->
<g id="edge23" class="edge">
<title>Node4&#45;&gt;Node24</title>
<path fill="none" stroke="#63b8ff" d="M1800.54,-164.92C2241.39,-95.79 2365.1,-197.94 2802.5,-129 2817.4,-126.65 2833.37,-122.6 2847.55,-118.44"/>
<polygon fill="#63b8ff" stroke="#63b8ff" points="1800.22,-161.43 1790.9,-166.46 1801.32,-168.34 1800.22,-161.43"/>
</g>
<!-- Node25 -->
<g id="node25" class="node">
<title>Node25</title>
<g id="a_node25"><a xlink:href="../../d1/d54/vruntimefilter__wrapper_8cpp.html" target="_top" xlink:title=" ">
<polygon fill="white" stroke="#666666" points="3124,-123.5 2987,-123.5 2987,-82.5 3124,-82.5 3124,-123.5"/>
<text text-anchor="start" x="2995" y="-111.5" font-family="Helvetica,sans-Serif" font-size="10.00">/Users/dabowang/be</text>
<text text-anchor="start" x="2995" y="-100.5" font-family="Helvetica,sans-Serif" font-size="10.00">_all/vec/exprs/vruntimefilter</text>
<text text-anchor="middle" x="3055.5" y="-89.5" font-family="Helvetica,sans-Serif" font-size="10.00">_wrapper.cpp</text>
</a>
</g>
</g>
<!-- Node4&#45;&gt;Node25 -->
<g id="edge24" class="edge">
<title>Node4&#45;&gt;Node25</title>
<path fill="none" stroke="#63b8ff" d="M1800.54,-164.93C2318.82,-84.95 2465.23,-218.28 2978.5,-129 2985.7,-127.75 2993.15,-125.97 3000.46,-123.94"/>
<polygon fill="#63b8ff" stroke="#63b8ff" points="1800.23,-161.44 1790.9,-166.44 1801.32,-168.36 1800.23,-161.44"/>
</g>
<!-- Node26 -->
<g id="node26" class="node">
<title>Node26</title>
<g id="a_node26"><a xlink:href="../../de/d37/vtuple__is__null__predicate_8cpp.html" target="_top" xlink:title=" ">
<polygon fill="white" stroke="#666666" points="3255,-123.5 3142,-123.5 3142,-82.5 3255,-82.5 3255,-123.5"/>
<text text-anchor="start" x="3150" y="-111.5" font-family="Helvetica,sans-Serif" font-size="10.00">/Users/dabowang/be</text>
<text text-anchor="start" x="3150" y="-100.5" font-family="Helvetica,sans-Serif" font-size="10.00">_all/vec/exprs/vtuple</text>
<text text-anchor="middle" x="3198.5" y="-89.5" font-family="Helvetica,sans-Serif" font-size="10.00">_is_null_predicate.cpp</text>
</a>
</g>
</g>
<!-- Node4&#45;&gt;Node26 -->
<g id="edge25" class="edge">
<title>Node4&#45;&gt;Node26</title>
<path fill="none" stroke="#63b8ff" d="M1800.67,-164.98C2109.97,-120.8 2846.02,-186.4 3133.5,-129 3139.67,-127.77 3146.01,-126.01 3152.2,-123.98"/>
<polygon fill="#63b8ff" stroke="#63b8ff" points="1800.27,-161.5 1790.9,-166.44 1801.3,-168.42 1800.27,-161.5"/>
</g>
<!-- Node27 -->
<g id="node27" class="node">
<title>Node27</title>
<g id="a_node27"><a xlink:href="../../d2/d7e/function__cast_8h.html" target="_top" xlink:title=" ">
<polygon fill="white" stroke="#666666" points="3404,-123.5 3273,-123.5 3273,-82.5 3404,-82.5 3404,-123.5"/>
<text text-anchor="start" x="3281" y="-111.5" font-family="Helvetica,sans-Serif" font-size="10.00">/Users/dabowang/be</text>
<text text-anchor="start" x="3281" y="-100.5" font-family="Helvetica,sans-Serif" font-size="10.00">_all/vec/functions/function</text>
<text text-anchor="middle" x="3338.5" y="-89.5" font-family="Helvetica,sans-Serif" font-size="10.00">_cast.h</text>
</a>
</g>
</g>
<!-- Node4&#45;&gt;Node27 -->
<g id="edge26" class="edge">
<title>Node4&#45;&gt;Node27</title>
<path fill="none" stroke="#63b8ff" d="M1800.74,-164.96C2138.95,-116.62 2947.21,-185.16 3264.5,-129 3271.44,-127.77 3278.62,-126.01 3285.65,-123.98"/>
<polygon fill="#63b8ff" stroke="#63b8ff" points="1800.27,-161.49 1790.89,-166.43 1801.3,-168.42 1800.27,-161.49"/>
</g>
<!-- Node28 -->
<g id="node28" class="node">
<title>Node28</title>
<g id="a_node28"><a xlink:href="../../d1/d3d/function__cast_8cpp.html" target="_top" xlink:title=" ">
<polygon fill="white" stroke="#666666" points="3404,-41 3273,-41 3273,0 3404,0 3404,-41"/>
<text text-anchor="start" x="3281" y="-29" font-family="Helvetica,sans-Serif" font-size="10.00">/Users/dabowang/be</text>
<text text-anchor="start" x="3281" y="-18" font-family="Helvetica,sans-Serif" font-size="10.00">_all/vec/functions/function</text>
<text text-anchor="middle" x="3338.5" y="-7" font-family="Helvetica,sans-Serif" font-size="10.00">_cast.cpp</text>
</a>
</g>
</g>
<!-- Node27&#45;&gt;Node28 -->
<g id="edge27" class="edge">
<title>Node27&#45;&gt;Node28</title>
<path fill="none" stroke="#63b8ff" d="M3338.5,-70.66C3338.5,-60.83 3338.5,-50.26 3338.5,-41.45"/>
<polygon fill="#63b8ff" stroke="#63b8ff" points="3335,-70.59 3338.5,-80.59 3342,-70.59 3335,-70.59"/>
</g>
</g>
</svg>
        <g id="navigator" transform="translate(0 0)" fill="#404254">
                <rect fill="#f2f5e9" fill-opacity="0.5" stroke="#606060" stroke-width=".5" x="0" y="0" width="60" height="60"/>
                <use id="zoomplus" xlink:href="#zoomPlus" x="17" y="9" onmousedown="handleZoom(evt,'in')"/>
                <use id="zoomminus" xlink:href="#zoomMin" x="42" y="9" onmousedown="handleZoom(evt,'out')"/>
                <use id="reset" xlink:href="#resetDef" x="30" y="36" onmousedown="handleReset()"/>
                <g id="arrowUp" xlink:href="#dirArrow" transform="translate(30 24)" onmousedown="handlePan(0,-1)">
                  <use xlink:href="#rim" fill="#404040">
                        <set attributeName="fill" to="#808080" begin="arrowUp.mouseover" end="arrowUp.mouseout"/>
                  </use>
                  <path fill="none" stroke="white" stroke-width="1.5" d="M0,-3.0v7 M-2.5,-0.5L0,-3.0L2.5,-0.5"/>
                </g>
                <g id="arrowRight" xlink:href="#dirArrow" transform="rotate(90) translate(36 -43)" onmousedown="handlePan(1,0)">
                  <use xlink:href="#rim" fill="#404040">
                        <set attributeName="fill" to="#808080" begin="arrowRight.mouseover" end="arrowRight.mouseout"/>
                  </use>
                  <path fill="none" stroke="white" stroke-width="1.5" d="M0,-3.0v7 M-2.5,-0.5L0,-3.0L2.5,-0.5"/>
                </g>
                <g id="arrowDown" xlink:href="#dirArrow" transform="rotate(180) translate(-30 -48)" onmousedown="handlePan(0,1)">
                  <use xlink:href="#rim" fill="#404040">
                        <set attributeName="fill" to="#808080" begin="arrowDown.mouseover" end="arrowDown.mouseout"/>
                  </use>
                  <path fill="none" stroke="white" stroke-width="1.5" d="M0,-3.0v7 M-2.5,-0.5L0,-3.0L2.5,-0.5"/>
                </g>
                <g id="arrowLeft" xlink:href="#dirArrow" transform="rotate(270) translate(-36 17)" onmousedown="handlePan(-1,0)">
                  <use xlink:href="#rim" fill="#404040">
                        <set attributeName="fill" to="#808080" begin="arrowLeft.mouseover" end="arrowLeft.mouseout"/>
                  </use>
                  <path fill="none" stroke="white" stroke-width="1.5" d="M0,-3.0v7 M-2.5,-0.5L0,-3.0L2.5,-0.5"/>
                </g>
        </g>
        <svg viewBox="0 0 15 15" width="100%" height="30px" preserveAspectRatio="xMaxYMin meet">
         <g id="arrow_out" transform="scale(0.3 0.3)">
          <a xlink:href="data__type__nothing_8h__dep__incl_org.svg" target="_base">
           <rect id="button" ry="5" rx="5" y="6" x="6" height="38" width="38"
                fill="#f2f5e9" fill-opacity="0.5" stroke="#606060" stroke-width="1.0"/>
           <path id="arrow"
             d="M 11.500037,31.436501 C 11.940474,20.09759 22.043105,11.32322 32.158766,21.979434 L 37.068811,17.246167 C 37.068811,17.246167 37.088388,32 37.088388,32 L 22.160133,31.978069 C 22.160133,31.978069 26.997745,27.140456 26.997745,27.140456 C 18.528582,18.264221 13.291696,25.230495 11.500037,31.436501 z"
             style="fill:#404040;"/>
          </a>
         </g>
        </svg>
</svg>
