<?xml version="1.0" encoding="UTF-8" standalone="no"?>
<!DOCTYPE svg PUBLIC "-//W3C//DTD SVG 1.1//EN"
 "http://www.w3.org/Graphics/SVG/1.1/DTD/svg11.dtd">
<!-- Generated by graphviz version 7.1.0 (20230121.1956)
 -->
<!-- Title: next_batch Pages: 1 -->
<!--zoomable 203 -->
<svg id="main" version="1.1" xmlns="http://www.w3.org/2000/svg" xmlns:xlink="http://www.w3.org/1999/xlink" xml:space="preserve" onload="init(evt)">
<style type="text/css"><![CDATA[
.edge:hover path { stroke: red; }
.edge:hover polygon { stroke: red; fill: red; }
]]></style>
<script type="text/javascript"><![CDATA[
var edges = document.getElementsByTagName('g');
if (edges && edges.length) {
  for (var i=0;i<edges.length;i++) {
    if (edges[i].id.substr(0,4)=='edge') {
      edges[i].setAttribute('class','edge');
    }
  }
}
]]></script>
        <defs>
                <circle id="rim" cx="0" cy="0" r="7"/>
                <circle id="rim2" cx="0" cy="0" r="3.5"/>
                <g id="zoomPlus">
                        <use xlink:href="#rim" fill="#404040">
                                <set attributeName="fill" to="#808080" begin="zoomplus.mouseover" end="zoomplus.mouseout"/>
                        </use>
                        <path d="M-4,0h8M0,-4v8" fill="none" stroke="white" stroke-width="1.5" pointer-events="none"/>
                </g>
                <g id="zoomMin">
                        <use xlink:href="#rim" fill="#404040">
                                <set attributeName="fill" to="#808080" begin="zoomminus.mouseover" end="zoomminus.mouseout"/>
                        </use>
                        <path d="M-4,0h8" fill="none" stroke="white" stroke-width="1.5" pointer-events="none"/>
                </g>
                <g id="dirArrow">
                        <path fill="none" stroke="white" stroke-width="1.5" d="M0,-3.0v7 M-2.5,-0.5L0,-3.0L2.5,-0.5"/>
                </g>
               <g id="resetDef">
                       <use xlink:href="#rim2" fill="#404040">
                               <set attributeName="fill" to="#808080" begin="reset.mouseover" end="reset.mouseout"/>
                       </use>
               </g>
        </defs>

<script type="text/javascript">
var viewWidth = 811;
var viewHeight = 203;
var sectionId = 'dynsection-2';
</script>
<script xlink:href="../../svgpan.js"/>
<svg id="graph" class="graph">
<g id="viewport">
<title>next_batch</title>
<!-- Node1 -->
<g id="node1" class="node">
<title>Node1</title>
<g id="a_node1"><a xlink:title=" ">
<polygon fill="#999999" stroke="#666666" points="803,-78.5 738,-78.5 738,-59.5 803,-59.5 803,-78.5"/>
<text text-anchor="middle" x="770.5" y="-66.5" font-family="Helvetica,sans-Serif" font-size="10.00">next_batch</text>
</a>
</g>
</g>
<!-- Node2 -->
<g id="node2" class="node">
<title>Node2</title>
<g id="a_node2"><a xlink:href="../../d8/d58/classdoris_1_1vectorized_1_1_vertical_merge_iterator_context.html#a3b508fa0a4e0a1253c7e468b3f31eba3" target="_top" xlink:title=" ">
<polygon fill="white" stroke="#666666" points="702,-148.5 560,-148.5 560,-107.5 702,-107.5 702,-148.5"/>
<text text-anchor="start" x="568" y="-136.5" font-family="Helvetica,sans-Serif" font-size="10.00">doris::vectorized::</text>
<text text-anchor="start" x="568" y="-125.5" font-family="Helvetica,sans-Serif" font-size="10.00">VerticalMergeIteratorContext</text>
<text text-anchor="middle" x="631" y="-114.5" font-family="Helvetica,sans-Serif" font-size="10.00">::_load_next_block</text>
</a>
</g>
</g>
<!-- Node1&#45;&gt;Node2 -->
<g id="edge1" class="edge">
<title>Node1&#45;&gt;Node2</title>
<path fill="none" stroke="#63b8ff" d="M737.48,-83.43C726.28,-88.43 713.61,-94.02 702,-99 695.84,-101.65 689.35,-104.39 682.91,-107.09"/>
<polygon fill="#63b8ff" stroke="#63b8ff" points="738.59,-86.77 746.29,-79.49 735.74,-80.38 738.59,-86.77"/>
</g>
<!-- Node6 -->
<g id="node6" class="node">
<title>Node6</title>
<g id="a_node6"><a xlink:href="../../de/d0d/classdoris_1_1vectorized_1_1_v_merge_iterator_context.html#a3b508fa0a4e0a1253c7e468b3f31eba3" target="_top" xlink:title=" ">
<polygon fill="white" stroke="#666666" points="689,-89.5 573,-89.5 573,-48.5 689,-48.5 689,-89.5"/>
<text text-anchor="start" x="581" y="-77.5" font-family="Helvetica,sans-Serif" font-size="10.00">doris::vectorized::</text>
<text text-anchor="start" x="581" y="-66.5" font-family="Helvetica,sans-Serif" font-size="10.00">VMergeIteratorContext</text>
<text text-anchor="middle" x="631" y="-55.5" font-family="Helvetica,sans-Serif" font-size="10.00">::_load_next_block</text>
</a>
</g>
</g>
<!-- Node1&#45;&gt;Node6 -->
<g id="edge6" class="edge">
<title>Node1&#45;&gt;Node6</title>
<path fill="none" stroke="#63b8ff" d="M726.33,-69C714.6,-69 701.72,-69 689.34,-69"/>
<polygon fill="#63b8ff" stroke="#63b8ff" points="726.1,-72.5 736.1,-69 726.1,-65.5 726.1,-72.5"/>
</g>
<!-- Node9 -->
<g id="node9" class="node">
<title>Node9</title>
<g id="a_node9"><a xlink:href="../../d8/dbd/classdoris_1_1vectorized_1_1_v_union_iterator.html#a2dfce20ac655e0c232480a2ccdb6d8d4" target="_top" xlink:title=" ">
<polygon fill="white" stroke="#666666" points="698,-30 564,-30 564,0 698,0 698,-30"/>
<text text-anchor="start" x="572" y="-18" font-family="Helvetica,sans-Serif" font-size="10.00">doris::vectorized::</text>
<text text-anchor="middle" x="631" y="-7" font-family="Helvetica,sans-Serif" font-size="10.00">VUnionIterator::next_batch</text>
</a>
</g>
</g>
<!-- Node1&#45;&gt;Node9 -->
<g id="edge10" class="edge">
<title>Node1&#45;&gt;Node9</title>
<path fill="none" stroke="#63b8ff" d="M738.16,-54.38C726.86,-49.29 713.94,-43.69 702,-39 694.59,-36.09 686.66,-33.18 678.9,-30.44"/>
<polygon fill="#63b8ff" stroke="#63b8ff" points="736.49,-57.47 747.04,-58.43 739.39,-51.1 736.49,-57.47"/>
</g>
<!-- Node3 -->
<g id="node3" class="node">
<title>Node3</title>
<g id="a_node3"><a xlink:href="../../d8/d58/classdoris_1_1vectorized_1_1_vertical_merge_iterator_context.html#a0b6a43453f1251450f9a119202d9cd05" target="_top" xlink:title=" ">
<polygon fill="white" stroke="#666666" points="524,-194.5 382,-194.5 382,-153.5 524,-153.5 524,-194.5"/>
<text text-anchor="start" x="390" y="-182.5" font-family="Helvetica,sans-Serif" font-size="10.00">doris::vectorized::</text>
<text text-anchor="start" x="390" y="-171.5" font-family="Helvetica,sans-Serif" font-size="10.00">VerticalMergeIteratorContext</text>
<text text-anchor="middle" x="453" y="-160.5" font-family="Helvetica,sans-Serif" font-size="10.00">::advance</text>
</a>
</g>
</g>
<!-- Node2&#45;&gt;Node3 -->
<g id="edge2" class="edge">
<title>Node2&#45;&gt;Node3</title>
<path fill="none" stroke="#63b8ff" d="M548.72,-149.24C540.63,-151.36 532.46,-153.49 524.49,-155.58"/>
<polygon fill="#63b8ff" stroke="#63b8ff" points="549.43,-152.68 558.22,-146.76 547.66,-145.9 549.43,-152.68"/>
</g>
<!-- Node4 -->
<g id="node4" class="node">
<title>Node4</title>
<g id="a_node4"><a xlink:href="../../d8/d58/classdoris_1_1vectorized_1_1_vertical_merge_iterator_context.html#a845b95d8c6ae4d4f2bd83c2ce067c693" target="_top" xlink:title=" ">
<polygon fill="white" stroke="#666666" points="346,-164 185,-164 185,-134 346,-134 346,-164"/>
<text text-anchor="start" x="193" y="-152" font-family="Helvetica,sans-Serif" font-size="10.00">doris::vectorized::</text>
<text text-anchor="middle" x="265.5" y="-141" font-family="Helvetica,sans-Serif" font-size="10.00">VerticalMergeIteratorContext::init</text>
</a>
</g>
</g>
<!-- Node2&#45;&gt;Node4 -->
<g id="edge5" class="edge">
<title>Node2&#45;&gt;Node4</title>
<path fill="none" stroke="#63b8ff" d="M548.53,-132.71C488.22,-136.19 406.46,-140.91 346.5,-144.38"/>
<polygon fill="#63b8ff" stroke="#63b8ff" points="548.62,-136.21 558.4,-132.14 548.22,-129.22 548.62,-136.21"/>
</g>
<!-- Node3&#45;&gt;Node4 -->
<g id="edge3" class="edge">
<title>Node3&#45;&gt;Node4</title>
<path fill="none" stroke="#63b8ff" d="M370.45,-163.01C362.49,-161.94 354.42,-160.85 346.47,-159.78"/>
<polygon fill="#63b8ff" stroke="#63b8ff" points="369.73,-166.44 380.11,-164.31 370.66,-159.51 369.73,-166.44"/>
</g>
<!-- Node5 -->
<g id="node5" class="node">
<title>Node5</title>
<g id="a_node5"><a xlink:href="../../d1/d35/classdoris_1_1vectorized_1_1_vertical_heap_merge_iterator.html#a0199e90e530c5abab0e86913560f42db" target="_top" xlink:title=" ">
<polygon fill="white" stroke="#666666" points="149,-164 0,-164 0,-134 149,-134 149,-164"/>
<text text-anchor="start" x="8" y="-152" font-family="Helvetica,sans-Serif" font-size="10.00">doris::vectorized::</text>
<text text-anchor="middle" x="74.5" y="-141" font-family="Helvetica,sans-Serif" font-size="10.00">VerticalHeapMergeIterator::init</text>
</a>
</g>
</g>
<!-- Node4&#45;&gt;Node5 -->
<g id="edge4" class="edge">
<title>Node4&#45;&gt;Node5</title>
<path fill="none" stroke="#63b8ff" d="M173.32,-149C165.3,-149 157.24,-149 149.38,-149"/>
<polygon fill="#63b8ff" stroke="#63b8ff" points="173.11,-152.5 183.11,-149 173.11,-145.5 173.11,-152.5"/>
</g>
<!-- Node7 -->
<g id="node7" class="node">
<title>Node7</title>
<g id="a_node7"><a xlink:href="../../de/d0d/classdoris_1_1vectorized_1_1_v_merge_iterator_context.html#a0b6a43453f1251450f9a119202d9cd05" target="_top" xlink:title=" ">
<polygon fill="white" stroke="#666666" points="511,-91.5 395,-91.5 395,-50.5 511,-50.5 511,-91.5"/>
<text text-anchor="start" x="403" y="-79.5" font-family="Helvetica,sans-Serif" font-size="10.00">doris::vectorized::</text>
<text text-anchor="start" x="403" y="-68.5" font-family="Helvetica,sans-Serif" font-size="10.00">VMergeIteratorContext</text>
<text text-anchor="middle" x="453" y="-57.5" font-family="Helvetica,sans-Serif" font-size="10.00">::advance</text>
</a>
</g>
</g>
<!-- Node6&#45;&gt;Node7 -->
<g id="edge7" class="edge">
<title>Node6&#45;&gt;Node7</title>
<path fill="none" stroke="#63b8ff" d="M561.57,-69.78C545.01,-69.97 527.46,-70.17 511.46,-70.35"/>
<polygon fill="#63b8ff" stroke="#63b8ff" points="561.38,-73.28 571.34,-69.67 561.31,-66.28 561.38,-73.28"/>
</g>
<!-- Node8 -->
<g id="node8" class="node">
<title>Node8</title>
<g id="a_node8"><a xlink:href="../../de/d0d/classdoris_1_1vectorized_1_1_v_merge_iterator_context.html#a845b95d8c6ae4d4f2bd83c2ce067c693" target="_top" xlink:title=" ">
<polygon fill="white" stroke="#666666" points="332.5,-62 198.5,-62 198.5,-32 332.5,-32 332.5,-62"/>
<text text-anchor="start" x="206.5" y="-50" font-family="Helvetica,sans-Serif" font-size="10.00">doris::vectorized::</text>
<text text-anchor="middle" x="265.5" y="-39" font-family="Helvetica,sans-Serif" font-size="10.00">VMergeIteratorContext::init</text>
</a>
</g>
</g>
<!-- Node6&#45;&gt;Node8 -->
<g id="edge9" class="edge">
<title>Node6&#45;&gt;Node8</title>
<path fill="none" stroke="#63b8ff" d="M561.94,-48.26C549.44,-45.24 536.41,-42.61 524,-41 459.48,-32.62 385.12,-35.71 332.95,-39.93"/>
<polygon fill="#63b8ff" stroke="#63b8ff" points="560.75,-51.57 571.31,-50.63 562.47,-44.78 560.75,-51.57"/>
</g>
<!-- Node7&#45;&gt;Node8 -->
<g id="edge8" class="edge">
<title>Node7&#45;&gt;Node8</title>
<path fill="none" stroke="#63b8ff" d="M383.33,-62.12C366.8,-59.98 349.16,-57.69 332.74,-55.57"/>
<polygon fill="#63b8ff" stroke="#63b8ff" points="382.71,-65.56 393.08,-63.38 383.61,-58.62 382.71,-65.56"/>
</g>
</g>
</svg>
        <g id="navigator" transform="translate(0 0)" fill="#404254">
                <rect fill="#f2f5e9" fill-opacity="0.5" stroke="#606060" stroke-width=".5" x="0" y="0" width="60" height="60"/>
                <use id="zoomplus" xlink:href="#zoomPlus" x="17" y="9" onmousedown="handleZoom(evt,'in')"/>
                <use id="zoomminus" xlink:href="#zoomMin" x="42" y="9" onmousedown="handleZoom(evt,'out')"/>
                <use id="reset" xlink:href="#resetDef" x="30" y="36" onmousedown="handleReset()"/>
                <g id="arrowUp" xlink:href="#dirArrow" transform="translate(30 24)" onmousedown="handlePan(0,-1)">
                  <use xlink:href="#rim" fill="#404040">
                        <set attributeName="fill" to="#808080" begin="arrowUp.mouseover" end="arrowUp.mouseout"/>
                  </use>
                  <path fill="none" stroke="white" stroke-width="1.5" d="M0,-3.0v7 M-2.5,-0.5L0,-3.0L2.5,-0.5"/>
                </g>
                <g id="arrowRight" xlink:href="#dirArrow" transform="rotate(90) translate(36 -43)" onmousedown="handlePan(1,0)">
                  <use xlink:href="#rim" fill="#404040">
                        <set attributeName="fill" to="#808080" begin="arrowRight.mouseover" end="arrowRight.mouseout"/>
                  </use>
                  <path fill="none" stroke="white" stroke-width="1.5" d="M0,-3.0v7 M-2.5,-0.5L0,-3.0L2.5,-0.5"/>
                </g>
                <g id="arrowDown" xlink:href="#dirArrow" transform="rotate(180) translate(-30 -48)" onmousedown="handlePan(0,1)">
                  <use xlink:href="#rim" fill="#404040">
                        <set attributeName="fill" to="#808080" begin="arrowDown.mouseover" end="arrowDown.mouseout"/>
                  </use>
                  <path fill="none" stroke="white" stroke-width="1.5" d="M0,-3.0v7 M-2.5,-0.5L0,-3.0L2.5,-0.5"/>
                </g>
                <g id="arrowLeft" xlink:href="#dirArrow" transform="rotate(270) translate(-36 17)" onmousedown="handlePan(-1,0)">
                  <use xlink:href="#rim" fill="#404040">
                        <set attributeName="fill" to="#808080" begin="arrowLeft.mouseover" end="arrowLeft.mouseout"/>
                  </use>
                  <path fill="none" stroke="white" stroke-width="1.5" d="M0,-3.0v7 M-2.5,-0.5L0,-3.0L2.5,-0.5"/>
                </g>
        </g>
        <svg viewBox="0 0 15 15" width="100%" height="30px" preserveAspectRatio="xMaxYMin meet">
         <g id="arrow_out" transform="scale(0.3 0.3)">
          <a xlink:href="classdoris_1_1_rowwise_iterator_af27911d62df8da4311a158c8f413ee66_icgraph_org.svg" target="_base">
           <rect id="button" ry="5" rx="5" y="6" x="6" height="38" width="38"
                fill="#f2f5e9" fill-opacity="0.5" stroke="#606060" stroke-width="1.0"/>
           <path id="arrow"
             d="M 11.500037,31.436501 C 11.940474,20.09759 22.043105,11.32322 32.158766,21.979434 L 37.068811,17.246167 C 37.068811,17.246167 37.088388,32 37.088388,32 L 22.160133,31.978069 C 22.160133,31.978069 26.997745,27.140456 26.997745,27.140456 C 18.528582,18.264221 13.291696,25.230495 11.500037,31.436501 z"
             style="fill:#404040;"/>
          </a>
         </g>
        </svg>
</svg>
