<?xml version="1.0" encoding="UTF-8" standalone="no"?>
<!DOCTYPE svg PUBLIC "-//W3C//DTD SVG 1.1//EN"
 "http://www.w3.org/Graphics/SVG/1.1/DTD/svg11.dtd">
<!-- Generated by graphviz version 7.1.0 (20230121.1956)
 -->
<!-- Title: create_single Pages: 1 -->
<svg width="789pt" height="196pt"
 viewBox="0.00 0.00 789.00 196.00" xmlns="http://www.w3.org/2000/svg" xmlns:xlink="http://www.w3.org/1999/xlink">
<g id="graph0" class="graph" transform="scale(1 1) rotate(0) translate(4 192)">
<title>create_single</title>
<!-- Node1 -->
<g id="node1" class="node">
<title>Node1</title>
<g id="a_node1"><a xlink:title=" ">
<polygon fill="#999999" stroke="#666666" points="781,-103 707,-103 707,-84 781,-84 781,-103"/>
<text text-anchor="middle" x="744" y="-91" font-family="Helvetica,sans-Serif" font-size="10.00">create_single</text>
</a>
</g>
</g>
<!-- Node2 -->
<g id="node2" class="node">
<title>Node2</title>
<g id="a_node2"><a xlink:href="../../d3/d99/classdoris_1_1segment__v2_1_1_column_reader.html#ad2988798958a720cbb115d103c2a228e" target="_top" xlink:title=" ">
<polygon fill="white" stroke="#666666" points="664,-188 532,-188 532,-147 664,-147 664,-188"/>
<text text-anchor="start" x="540" y="-176" font-family="Helvetica,sans-Serif" font-size="10.00">doris::segment_v2::</text>
<text text-anchor="start" x="540" y="-165" font-family="Helvetica,sans-Serif" font-size="10.00">ColumnReader::_calculate</text>
<text text-anchor="middle" x="598" y="-154" font-family="Helvetica,sans-Serif" font-size="10.00">_row_ranges</text>
</a>
</g>
</g>
<!-- Node1&#45;&gt;Node2 -->
<g id="edge1" class="edge">
<title>Node1&#45;&gt;Node2</title>
<path fill="none" stroke="#63b8ff" d="M715.11,-108.98C701.83,-116.25 685.67,-124.97 671,-132.5 661.97,-137.14 652.24,-141.97 642.94,-146.52"/>
<polygon fill="#63b8ff" stroke="#63b8ff" points="716.67,-112.11 723.74,-104.23 713.29,-105.98 716.67,-112.11"/>
</g>
<!-- Node5 -->
<g id="node5" class="node">
<title>Node5</title>
<g id="a_node5"><a xlink:href="../../db/d2b/classdoris_1_1segment__v2_1_1_segment_iterator.html#aad4518b5b7aa8b8a6c1c28f12a29e1c9" target="_top" xlink:title=" ">
<polygon fill="white" stroke="#666666" points="489,-111.5 364,-111.5 364,-59.5 489,-59.5 489,-111.5"/>
<text text-anchor="start" x="372" y="-99.5" font-family="Helvetica,sans-Serif" font-size="10.00">doris::segment_v2::</text>
<text text-anchor="start" x="372" y="-88.5" font-family="Helvetica,sans-Serif" font-size="10.00">SegmentIterator::_get</text>
<text text-anchor="start" x="372" y="-77.5" font-family="Helvetica,sans-Serif" font-size="10.00">_row_ranges_by_column</text>
<text text-anchor="middle" x="426.5" y="-66.5" font-family="Helvetica,sans-Serif" font-size="10.00">_conditions</text>
</a>
</g>
</g>
<!-- Node1&#45;&gt;Node5 -->
<g id="edge4" class="edge">
<title>Node1&#45;&gt;Node5</title>
<path fill="none" stroke="#63b8ff" d="M695.48,-98.02C687.32,-98.64 678.92,-99.17 671,-99.5 606.17,-102.2 589.72,-104.12 525,-99.5 513.4,-98.67 501.08,-97.3 489.25,-95.72"/>
<polygon fill="#63b8ff" stroke="#63b8ff" points="695.58,-101.53 705.27,-97.23 695.02,-94.55 695.58,-101.53"/>
</g>
<!-- Node8 -->
<g id="node8" class="node">
<title>Node8</title>
<g id="a_node8"><a xlink:href="../../db/d2b/classdoris_1_1segment__v2_1_1_segment_iterator.html#a7202bb1fcd353113772d25ebe8ecd388" target="_top" xlink:title=" ">
<polygon fill="white" stroke="#666666" points="483.5,-41 369.5,-41 369.5,0 483.5,0 483.5,-41"/>
<text text-anchor="start" x="377.5" y="-29" font-family="Helvetica,sans-Serif" font-size="10.00">doris::segment_v2::</text>
<text text-anchor="start" x="377.5" y="-18" font-family="Helvetica,sans-Serif" font-size="10.00">SegmentIterator::_get</text>
<text text-anchor="middle" x="426.5" y="-7" font-family="Helvetica,sans-Serif" font-size="10.00">_row_ranges_by_keys</text>
</a>
</g>
</g>
<!-- Node1&#45;&gt;Node8 -->
<g id="edge7" class="edge">
<title>Node1&#45;&gt;Node8</title>
<path fill="none" stroke="#63b8ff" d="M724.98,-75.77C711.36,-63.55 691.55,-48.19 671,-40.5 609.83,-17.6 534.13,-15.01 483.53,-16.59"/>
<polygon fill="#63b8ff" stroke="#63b8ff" points="722.55,-78.29 732.25,-82.55 727.33,-73.17 722.55,-78.29"/>
</g>
<!-- Node9 -->
<g id="node9" class="node">
<title>Node9</title>
<g id="a_node9"><a xlink:href="../../db/d2b/classdoris_1_1segment__v2_1_1_segment_iterator.html#a12d76f7b550ef51d43fd52e38560f393" target="_top" xlink:title=" ">
<polygon fill="white" stroke="#666666" points="671,-90 525,-90 525,-49 671,-49 671,-90"/>
<text text-anchor="start" x="533" y="-78" font-family="Helvetica,sans-Serif" font-size="10.00">doris::segment_v2::</text>
<text text-anchor="start" x="533" y="-67" font-family="Helvetica,sans-Serif" font-size="10.00">SegmentIterator::_get</text>
<text text-anchor="middle" x="598" y="-56" font-family="Helvetica,sans-Serif" font-size="10.00">_row_ranges_from_conditions</text>
</a>
</g>
</g>
<!-- Node1&#45;&gt;Node9 -->
<g id="edge9" class="edge">
<title>Node1&#45;&gt;Node9</title>
<path fill="none" stroke="#63b8ff" d="M695.31,-85.55C687.58,-84.26 679.43,-82.91 671.28,-81.55"/>
<polygon fill="#63b8ff" stroke="#63b8ff" points="694.73,-89 705.17,-87.19 695.88,-82.1 694.73,-89"/>
</g>
<!-- Node3 -->
<g id="node3" class="node">
<title>Node3</title>
<g id="a_node3"><a xlink:href="../../d3/d99/classdoris_1_1segment__v2_1_1_column_reader.html#a24fc23a930a69913b5ca8b1d0e4ddecd" target="_top" xlink:title=" ">
<polygon fill="white" stroke="#666666" points="487.5,-188 365.5,-188 365.5,-147 487.5,-147 487.5,-188"/>
<text text-anchor="start" x="373.5" y="-176" font-family="Helvetica,sans-Serif" font-size="10.00">doris::segment_v2::</text>
<text text-anchor="start" x="373.5" y="-165" font-family="Helvetica,sans-Serif" font-size="10.00">ColumnReader::get_row</text>
<text text-anchor="middle" x="426.5" y="-154" font-family="Helvetica,sans-Serif" font-size="10.00">_ranges_by_zone_map</text>
</a>
</g>
</g>
<!-- Node2&#45;&gt;Node3 -->
<g id="edge2" class="edge">
<title>Node2&#45;&gt;Node3</title>
<path fill="none" stroke="#63b8ff" d="M520.63,-167.5C509.67,-167.5 498.52,-167.5 487.92,-167.5"/>
<polygon fill="#63b8ff" stroke="#63b8ff" points="520.44,-171 530.44,-167.5 520.44,-164 520.44,-171"/>
</g>
<!-- Node4 -->
<g id="node4" class="node">
<title>Node4</title>
<g id="a_node4"><a xlink:href="../../df/df3/classdoris_1_1segment__v2_1_1_file_column_iterator.html#a8cb95d1eec97c95c65ca73c35be817ac" target="_top" xlink:title=" ">
<polygon fill="white" stroke="#666666" points="328,-188 176,-188 176,-147 328,-147 328,-188"/>
<text text-anchor="start" x="184" y="-176" font-family="Helvetica,sans-Serif" font-size="10.00">doris::segment_v2::</text>
<text text-anchor="start" x="184" y="-165" font-family="Helvetica,sans-Serif" font-size="10.00">FileColumnIterator::</text>
<text text-anchor="middle" x="252" y="-154" font-family="Helvetica,sans-Serif" font-size="10.00">get_row_ranges_by_zone_map</text>
</a>
</g>
</g>
<!-- Node3&#45;&gt;Node4 -->
<g id="edge3" class="edge">
<title>Node3&#45;&gt;Node4</title>
<path fill="none" stroke="#63b8ff" d="M353.88,-167.5C345.49,-167.5 336.91,-167.5 328.46,-167.5"/>
<polygon fill="#63b8ff" stroke="#63b8ff" points="353.65,-171 363.65,-167.5 353.65,-164 353.65,-171"/>
</g>
<!-- Node6 -->
<g id="node6" class="node">
<title>Node6</title>
<g id="a_node6"><a xlink:href="../../db/d2b/classdoris_1_1segment__v2_1_1_segment_iterator.html#a3806c3b24a834a10d748689d4139ab1c" target="_top" xlink:title=" ">
<polygon fill="white" stroke="#666666" points="307,-68.5 197,-68.5 197,-38.5 307,-38.5 307,-68.5"/>
<text text-anchor="start" x="205" y="-56.5" font-family="Helvetica,sans-Serif" font-size="10.00">doris::segment_v2::</text>
<text text-anchor="middle" x="252" y="-45.5" font-family="Helvetica,sans-Serif" font-size="10.00">SegmentIterator::_init</text>
</a>
</g>
</g>
<!-- Node5&#45;&gt;Node6 -->
<g id="edge5" class="edge">
<title>Node5&#45;&gt;Node6</title>
<path fill="none" stroke="#63b8ff" d="M352.79,-72.01C337.62,-69.2 321.87,-66.28 307.49,-63.61"/>
<polygon fill="#63b8ff" stroke="#63b8ff" points="351.75,-75.38 362.22,-73.76 353.03,-68.5 351.75,-75.38"/>
</g>
<!-- Node7 -->
<g id="node7" class="node">
<title>Node7</title>
<g id="a_node7"><a xlink:href="../../db/d2b/classdoris_1_1segment__v2_1_1_segment_iterator.html#a2170c68d68be4b5b3ecd64e7ed93a021" target="_top" xlink:title=" ">
<polygon fill="white" stroke="#666666" points="140,-68.5 0,-68.5 0,-38.5 140,-38.5 140,-68.5"/>
<text text-anchor="start" x="8" y="-56.5" font-family="Helvetica,sans-Serif" font-size="10.00">doris::segment_v2::</text>
<text text-anchor="middle" x="70" y="-45.5" font-family="Helvetica,sans-Serif" font-size="10.00">SegmentIterator::next_batch</text>
</a>
</g>
</g>
<!-- Node6&#45;&gt;Node7 -->
<g id="edge6" class="edge">
<title>Node6&#45;&gt;Node7</title>
<path fill="none" stroke="#63b8ff" d="M185.05,-53.5C170.48,-53.5 155.01,-53.5 140.31,-53.5"/>
<polygon fill="#63b8ff" stroke="#63b8ff" points="184.99,-57 194.99,-53.5 184.99,-50 184.99,-57"/>
</g>
<!-- Node8&#45;&gt;Node6 -->
<g id="edge8" class="edge">
<title>Node8&#45;&gt;Node6</title>
<path fill="none" stroke="#63b8ff" d="M358.11,-33.39C341.26,-36.62 323.39,-40.03 307.26,-43.12"/>
<polygon fill="#63b8ff" stroke="#63b8ff" points="358.37,-36.91 367.53,-31.59 357.05,-30.03 358.37,-36.91"/>
</g>
<!-- Node9&#45;&gt;Node5 -->
<g id="edge10" class="edge">
<title>Node9&#45;&gt;Node5</title>
<path fill="none" stroke="#63b8ff" d="M513.32,-77.4C505.29,-78.16 497.25,-78.92 489.49,-79.65"/>
<polygon fill="#63b8ff" stroke="#63b8ff" points="513.49,-80.9 523.12,-76.47 512.83,-73.93 513.49,-80.9"/>
</g>
</g>
</svg>
