<?xml version="1.0" encoding="UTF-8" standalone="no"?>
<!DOCTYPE svg PUBLIC "-//W3C//DTD SVG 1.1//EN"
 "http://www.w3.org/Graphics/SVG/1.1/DTD/svg11.dtd">
<!-- Generated by graphviz version 7.1.0 (20230121.1956)
 -->
<!-- Title: ranges_intersection Pages: 1 -->
<svg width="934pt" height="130pt"
 viewBox="0.00 0.00 934.00 130.00" xmlns="http://www.w3.org/2000/svg" xmlns:xlink="http://www.w3.org/1999/xlink">
<g id="graph0" class="graph" transform="scale(1 1) rotate(0) translate(4 126)">
<title>ranges_intersection</title>
<!-- Node1 -->
<g id="node1" class="node">
<title>Node1</title>
<g id="a_node1"><a xlink:title=" ">
<polygon fill="#999999" stroke="#666666" points="926,-69.5 825,-69.5 825,-50.5 926,-50.5 926,-69.5"/>
<text text-anchor="middle" x="875.5" y="-57.5" font-family="Helvetica,sans-Serif" font-size="10.00">ranges_intersection</text>
</a>
</g>
</g>
<!-- Node2 -->
<g id="node2" class="node">
<title>Node2</title>
<g id="a_node2"><a xlink:href="../../db/d2b/classdoris_1_1segment__v2_1_1_segment_iterator.html#a12d76f7b550ef51d43fd52e38560f393" target="_top" xlink:title=" ">
<polygon fill="white" stroke="#666666" points="789,-113.5 643,-113.5 643,-72.5 789,-72.5 789,-113.5"/>
<text text-anchor="start" x="651" y="-101.5" font-family="Helvetica,sans-Serif" font-size="10.00">doris::segment_v2::</text>
<text text-anchor="start" x="651" y="-90.5" font-family="Helvetica,sans-Serif" font-size="10.00">SegmentIterator::_get</text>
<text text-anchor="middle" x="716" y="-79.5" font-family="Helvetica,sans-Serif" font-size="10.00">_row_ranges_from_conditions</text>
</a>
</g>
</g>
<!-- Node1&#45;&gt;Node2 -->
<g id="edge1" class="edge">
<title>Node1&#45;&gt;Node2</title>
<path fill="none" stroke="#63b8ff" d="M815.7,-72.32C807.07,-74.13 798.09,-76.01 789.23,-77.87"/>
<polygon fill="#63b8ff" stroke="#63b8ff" points="816.27,-75.78 825.34,-70.3 814.83,-68.93 816.27,-75.78"/>
</g>
<!-- Node7 -->
<g id="node7" class="node">
<title>Node7</title>
<g id="a_node7"><a xlink:href="../../d3/d99/classdoris_1_1segment__v2_1_1_column_reader.html#ae540577aa7df4ce063265637f431d788" target="_top" xlink:title=" ">
<polygon fill="white" stroke="#666666" points="777,-51.5 655,-51.5 655,-10.5 777,-10.5 777,-51.5"/>
<text text-anchor="start" x="663" y="-39.5" font-family="Helvetica,sans-Serif" font-size="10.00">doris::segment_v2::</text>
<text text-anchor="start" x="663" y="-28.5" font-family="Helvetica,sans-Serif" font-size="10.00">ColumnReader::get_row</text>
<text text-anchor="middle" x="716" y="-17.5" font-family="Helvetica,sans-Serif" font-size="10.00">_ranges_by_bloom_filter</text>
</a>
</g>
</g>
<!-- Node1&#45;&gt;Node7 -->
<g id="edge6" class="edge">
<title>Node1&#45;&gt;Node7</title>
<path fill="none" stroke="#63b8ff" d="M813.48,-48.76C801.59,-46.58 789.14,-44.28 777.27,-42.1"/>
<polygon fill="#63b8ff" stroke="#63b8ff" points="812.71,-52.18 823.18,-50.55 813.98,-45.3 812.71,-52.18"/>
</g>
<!-- Node3 -->
<g id="node3" class="node">
<title>Node3</title>
<g id="a_node3"><a xlink:href="../../db/d2b/classdoris_1_1segment__v2_1_1_segment_iterator.html#aad4518b5b7aa8b8a6c1c28f12a29e1c9" target="_top" xlink:title=" ">
<polygon fill="white" stroke="#666666" points="603,-122 478,-122 478,-70 603,-70 603,-122"/>
<text text-anchor="start" x="486" y="-110" font-family="Helvetica,sans-Serif" font-size="10.00">doris::segment_v2::</text>
<text text-anchor="start" x="486" y="-99" font-family="Helvetica,sans-Serif" font-size="10.00">SegmentIterator::_get</text>
<text text-anchor="start" x="486" y="-88" font-family="Helvetica,sans-Serif" font-size="10.00">_row_ranges_by_column</text>
<text text-anchor="middle" x="540.5" y="-77" font-family="Helvetica,sans-Serif" font-size="10.00">_conditions</text>
</a>
</g>
</g>
<!-- Node2&#45;&gt;Node3 -->
<g id="edge2" class="edge">
<title>Node2&#45;&gt;Node3</title>
<path fill="none" stroke="#63b8ff" d="M631.22,-94.45C621.79,-94.61 612.31,-94.78 603.23,-94.93"/>
<polygon fill="#63b8ff" stroke="#63b8ff" points="631.23,-97.95 641.16,-94.28 631.1,-90.95 631.23,-97.95"/>
</g>
<!-- Node4 -->
<g id="node4" class="node">
<title>Node4</title>
<g id="a_node4"><a xlink:href="../../db/d2b/classdoris_1_1segment__v2_1_1_segment_iterator.html#a3806c3b24a834a10d748689d4139ab1c" target="_top" xlink:title=" ">
<polygon fill="white" stroke="#666666" points="438,-111 328,-111 328,-81 438,-81 438,-111"/>
<text text-anchor="start" x="336" y="-99" font-family="Helvetica,sans-Serif" font-size="10.00">doris::segment_v2::</text>
<text text-anchor="middle" x="383" y="-88" font-family="Helvetica,sans-Serif" font-size="10.00">SegmentIterator::_init</text>
</a>
</g>
</g>
<!-- Node3&#45;&gt;Node4 -->
<g id="edge3" class="edge">
<title>Node3&#45;&gt;Node4</title>
<path fill="none" stroke="#63b8ff" d="M466.17,-96C456.73,-96 447.21,-96 438.16,-96"/>
<polygon fill="#63b8ff" stroke="#63b8ff" points="466.08,-99.5 476.08,-96 466.08,-92.5 466.08,-99.5"/>
</g>
<!-- Node5 -->
<g id="node5" class="node">
<title>Node5</title>
<g id="a_node5"><a xlink:href="../../db/d2b/classdoris_1_1segment__v2_1_1_segment_iterator.html#a6599fa599739de9ff77a10685a98d73e" target="_top" xlink:title=" ">
<polygon fill="white" stroke="#666666" points="292,-116.5 176,-116.5 176,-75.5 292,-75.5 292,-116.5"/>
<text text-anchor="start" x="184" y="-104.5" font-family="Helvetica,sans-Serif" font-size="10.00">doris::segment_v2::</text>
<text text-anchor="start" x="184" y="-93.5" font-family="Helvetica,sans-Serif" font-size="10.00">SegmentIterator::_next</text>
<text text-anchor="middle" x="234" y="-82.5" font-family="Helvetica,sans-Serif" font-size="10.00">_batch_internal</text>
</a>
</g>
</g>
<!-- Node4&#45;&gt;Node5 -->
<g id="edge4" class="edge">
<title>Node4&#45;&gt;Node5</title>
<path fill="none" stroke="#63b8ff" d="M316.35,-96C308.25,-96 300.01,-96 292.05,-96"/>
<polygon fill="#63b8ff" stroke="#63b8ff" points="316.17,-99.5 326.17,-96 316.17,-92.5 316.17,-99.5"/>
</g>
<!-- Node6 -->
<g id="node6" class="node">
<title>Node6</title>
<g id="a_node6"><a xlink:href="../../db/d2b/classdoris_1_1segment__v2_1_1_segment_iterator.html#a2170c68d68be4b5b3ecd64e7ed93a021" target="_top" xlink:title=" ">
<polygon fill="white" stroke="#666666" points="140,-111 0,-111 0,-81 140,-81 140,-111"/>
<text text-anchor="start" x="8" y="-99" font-family="Helvetica,sans-Serif" font-size="10.00">doris::segment_v2::</text>
<text text-anchor="middle" x="70" y="-88" font-family="Helvetica,sans-Serif" font-size="10.00">SegmentIterator::next_batch</text>
</a>
</g>
</g>
<!-- Node5&#45;&gt;Node6 -->
<g id="edge5" class="edge">
<title>Node5&#45;&gt;Node6</title>
<path fill="none" stroke="#63b8ff" d="M164.4,-96C156.45,-96 148.34,-96 140.38,-96"/>
<polygon fill="#63b8ff" stroke="#63b8ff" points="164.37,-99.5 174.37,-96 164.37,-92.5 164.37,-99.5"/>
</g>
<!-- Node8 -->
<g id="node8" class="node">
<title>Node8</title>
<g id="a_node8"><a xlink:href="../../df/df3/classdoris_1_1segment__v2_1_1_file_column_iterator.html#ae87d41d1473507031232db91c676aa3e" target="_top" xlink:title=" ">
<polygon fill="white" stroke="#666666" points="607,-52 474,-52 474,0 607,0 607,-52"/>
<text text-anchor="start" x="482" y="-40" font-family="Helvetica,sans-Serif" font-size="10.00">doris::segment_v2::</text>
<text text-anchor="start" x="482" y="-29" font-family="Helvetica,sans-Serif" font-size="10.00">FileColumnIterator::</text>
<text text-anchor="start" x="482" y="-18" font-family="Helvetica,sans-Serif" font-size="10.00">get_row_ranges_by_bloom</text>
<text text-anchor="middle" x="540.5" y="-7" font-family="Helvetica,sans-Serif" font-size="10.00">_filter</text>
</a>
</g>
</g>
<!-- Node7&#45;&gt;Node8 -->
<g id="edge7" class="edge">
<title>Node7&#45;&gt;Node8</title>
<path fill="none" stroke="#63b8ff" d="M643.46,-28.94C631.46,-28.59 619.06,-28.24 607.22,-27.89"/>
<polygon fill="#63b8ff" stroke="#63b8ff" points="643.2,-32.43 653.29,-29.22 643.4,-25.43 643.2,-32.43"/>
</g>
</g>
</svg>
