<?xml version="1.0" encoding="UTF-8" standalone="no"?>
<!DOCTYPE svg PUBLIC "-//W3C//DTD SVG 1.1//EN"
 "http://www.w3.org/Graphics/SVG/1.1/DTD/svg11.dtd">
<!-- Generated by graphviz version 7.1.0 (20230121.1956)
 -->
<!-- Title: is_nullable Pages: 1 -->
<svg width="1636pt" height="120pt"
 viewBox="0.00 0.00 1636.00 119.50" xmlns="http://www.w3.org/2000/svg" xmlns:xlink="http://www.w3.org/1999/xlink">
<g id="graph0" class="graph" transform="scale(1 1) rotate(0) translate(4 115.5)">
<title>is_nullable</title>
<!-- Node1 -->
<g id="node1" class="node">
<title>Node1</title>
<g id="a_node1"><a xlink:title=" ">
<polygon fill="#999999" stroke="#666666" points="1628,-43.5 1566,-43.5 1566,-24.5 1628,-24.5 1628,-43.5"/>
<text text-anchor="middle" x="1597" y="-31.5" font-family="Helvetica,sans-Serif" font-size="10.00">is_nullable</text>
</a>
</g>
</g>
<!-- Node2 -->
<g id="node2" class="node">
<title>Node2</title>
<g id="a_node2"><a xlink:href="../../de/dbb/classdoris_1_1vectorized_1_1_v_scan_node.html#a70a0d3a5447f687e58d91e5e051f2a08" target="_top" xlink:title=" ">
<polygon fill="white" stroke="#666666" points="1530,-78.5 1407,-78.5 1407,-37.5 1530,-37.5 1530,-78.5"/>
<text text-anchor="start" x="1415" y="-66.5" font-family="Helvetica,sans-Serif" font-size="10.00">doris::vectorized::</text>
<text text-anchor="start" x="1415" y="-55.5" font-family="Helvetica,sans-Serif" font-size="10.00">VScanNode::_append_rf</text>
<text text-anchor="middle" x="1468.5" y="-44.5" font-family="Helvetica,sans-Serif" font-size="10.00">_into_conjuncts</text>
</a>
</g>
</g>
<!-- Node1&#45;&gt;Node2 -->
<g id="edge1" class="edge">
<title>Node1&#45;&gt;Node2</title>
<path fill="none" stroke="#63b8ff" d="M1554.43,-41.89C1546.71,-43.35 1538.49,-44.91 1530.33,-46.46"/>
<polygon fill="#63b8ff" stroke="#63b8ff" points="1555.04,-45.33 1564.21,-40.03 1553.74,-38.46 1555.04,-45.33"/>
</g>
<!-- Node14 -->
<g id="node14" class="node">
<title>Node14</title>
<g id="a_node14"><a xlink:href="../../d0/d2e/classdoris_1_1vectorized_1_1_v_expr.html#a0d4a188496f76cd1dff729a1a5fc811e" target="_top" xlink:title=" ">
<polygon fill="white" stroke="#666666" points="1490.5,-19.5 1446.5,-19.5 1446.5,-0.5 1490.5,-0.5 1490.5,-19.5"/>
<text text-anchor="middle" x="1468.5" y="-7.5" font-family="Helvetica,sans-Serif" font-size="10.00">VExpr</text>
</a>
</g>
</g>
<!-- Node1&#45;&gt;Node14 -->
<g id="edge13" class="edge">
<title>Node1&#45;&gt;Node14</title>
<path fill="none" stroke="#63b8ff" d="M1554.64,-26.15C1533.34,-22.11 1508.24,-17.35 1490.84,-14.05"/>
<polygon fill="#63b8ff" stroke="#63b8ff" points="1553.74,-29.54 1564.21,-27.97 1555.04,-22.67 1553.74,-29.54"/>
</g>
<!-- Node3 -->
<g id="node3" class="node">
<title>Node3</title>
<g id="a_node3"><a xlink:href="../../de/dbb/classdoris_1_1vectorized_1_1_v_scan_node.html#a2c8dfb47021346f4f478dc3c2317505c" target="_top" xlink:title=" ">
<polygon fill="white" stroke="#666666" points="1365.5,-111.5 1253.5,-111.5 1253.5,-70.5 1365.5,-70.5 1365.5,-111.5"/>
<text text-anchor="start" x="1261.5" y="-99.5" font-family="Helvetica,sans-Serif" font-size="10.00">doris::vectorized::</text>
<text text-anchor="start" x="1261.5" y="-88.5" font-family="Helvetica,sans-Serif" font-size="10.00">VScanNode::_acquire</text>
<text text-anchor="middle" x="1309.5" y="-77.5" font-family="Helvetica,sans-Serif" font-size="10.00">_runtime_filter</text>
</a>
</g>
</g>
<!-- Node2&#45;&gt;Node3 -->
<g id="edge2" class="edge">
<title>Node2&#45;&gt;Node3</title>
<path fill="none" stroke="#63b8ff" d="M1395.63,-73.11C1385.65,-75.2 1375.52,-77.33 1365.9,-79.35"/>
<polygon fill="#63b8ff" stroke="#63b8ff" points="1396.25,-76.55 1405.32,-71.07 1394.81,-69.7 1396.25,-76.55"/>
</g>
<!-- Node5 -->
<g id="node5" class="node">
<title>Node5</title>
<g id="a_node5"><a xlink:href="../../de/dbb/classdoris_1_1vectorized_1_1_v_scan_node.html#a1c646a59c98db456c379ff2f3e525f11" target="_top" xlink:title=" ">
<polygon fill="white" stroke="#666666" points="1371,-52 1248,-52 1248,0 1371,0 1371,-52"/>
<text text-anchor="start" x="1256" y="-40" font-family="Helvetica,sans-Serif" font-size="10.00">doris::vectorized::</text>
<text text-anchor="start" x="1256" y="-29" font-family="Helvetica,sans-Serif" font-size="10.00">VScanNode::try_append</text>
<text text-anchor="start" x="1256" y="-18" font-family="Helvetica,sans-Serif" font-size="10.00">_late_arrival_runtime</text>
<text text-anchor="middle" x="1309.5" y="-7" font-family="Helvetica,sans-Serif" font-size="10.00">_filter</text>
</a>
</g>
</g>
<!-- Node2&#45;&gt;Node5 -->
<g id="edge4" class="edge">
<title>Node2&#45;&gt;Node5</title>
<path fill="none" stroke="#63b8ff" d="M1395.75,-43.38C1387.58,-41.71 1379.31,-40.02 1371.3,-38.39"/>
<polygon fill="#63b8ff" stroke="#63b8ff" points="1394.82,-46.76 1405.32,-45.33 1396.22,-39.9 1394.82,-46.76"/>
</g>
<!-- Node4 -->
<g id="node4" class="node">
<title>Node4</title>
<g id="a_node4"><a xlink:href="../../de/dbb/classdoris_1_1vectorized_1_1_v_scan_node.html#a4563a8abb973cbbc4904c263665bb0fe" target="_top" xlink:title=" ">
<polygon fill="white" stroke="#666666" points="1212,-106 1074,-106 1074,-76 1212,-76 1212,-106"/>
<text text-anchor="start" x="1082" y="-94" font-family="Helvetica,sans-Serif" font-size="10.00">doris::vectorized::</text>
<text text-anchor="middle" x="1143" y="-83" font-family="Helvetica,sans-Serif" font-size="10.00">VScanNode::alloc_resource</text>
</a>
</g>
</g>
<!-- Node3&#45;&gt;Node4 -->
<g id="edge3" class="edge">
<title>Node3&#45;&gt;Node4</title>
<path fill="none" stroke="#63b8ff" d="M1241.95,-91C1232.16,-91 1222.06,-91 1212.24,-91"/>
<polygon fill="#63b8ff" stroke="#63b8ff" points="1241.75,-94.5 1251.75,-91 1241.75,-87.5 1241.75,-94.5"/>
</g>
<!-- Node6 -->
<g id="node6" class="node">
<title>Node6</title>
<g id="a_node6"><a xlink:href="../../da/d61/classdoris_1_1vectorized_1_1_v_scanner.html#a9afa1f696cb60266cade8927467d405f" target="_top" xlink:title=" ">
<polygon fill="white" stroke="#666666" points="1199.5,-52 1086.5,-52 1086.5,0 1199.5,0 1199.5,-52"/>
<text text-anchor="start" x="1094.5" y="-40" font-family="Helvetica,sans-Serif" font-size="10.00">doris::vectorized::</text>
<text text-anchor="start" x="1094.5" y="-29" font-family="Helvetica,sans-Serif" font-size="10.00">VScanner::try_append</text>
<text text-anchor="start" x="1094.5" y="-18" font-family="Helvetica,sans-Serif" font-size="10.00">_late_arrival_runtime</text>
<text text-anchor="middle" x="1143" y="-7" font-family="Helvetica,sans-Serif" font-size="10.00">_filter</text>
</a>
</g>
</g>
<!-- Node5&#45;&gt;Node6 -->
<g id="edge5" class="edge">
<title>Node5&#45;&gt;Node6</title>
<path fill="none" stroke="#63b8ff" d="M1236.56,-26C1224.28,-26 1211.69,-26 1199.91,-26"/>
<polygon fill="#63b8ff" stroke="#63b8ff" points="1236.2,-29.5 1246.2,-26 1236.2,-22.5 1236.2,-29.5"/>
</g>
<!-- Node7 -->
<g id="node7" class="node">
<title>Node7</title>
<g id="a_node7"><a xlink:href="../../d4/df4/classdoris_1_1vectorized_1_1_scanner_scheduler.html#a920ff22ef28d65eeb0bc1b19482deb73" target="_top" xlink:title=" ">
<polygon fill="white" stroke="#666666" points="1038,-41 870,-41 870,-11 1038,-11 1038,-41"/>
<text text-anchor="start" x="878" y="-29" font-family="Helvetica,sans-Serif" font-size="10.00">doris::vectorized::</text>
<text text-anchor="middle" x="954" y="-18" font-family="Helvetica,sans-Serif" font-size="10.00">ScannerScheduler::_scanner_scan</text>
</a>
</g>
</g>
<!-- Node6&#45;&gt;Node7 -->
<g id="edge6" class="edge">
<title>Node6&#45;&gt;Node7</title>
<path fill="none" stroke="#63b8ff" d="M1074.95,-26C1063.05,-26 1050.52,-26 1038.23,-26"/>
<polygon fill="#63b8ff" stroke="#63b8ff" points="1074.63,-29.5 1084.63,-26 1074.63,-22.5 1074.63,-29.5"/>
</g>
<!-- Node8 -->
<g id="node8" class="node">
<title>Node8</title>
<g id="a_node8"><a xlink:href="../../d4/df4/classdoris_1_1vectorized_1_1_scanner_scheduler.html#acfd53619086b0826f0a519a95186401e" target="_top" xlink:title=" ">
<polygon fill="white" stroke="#666666" points="834,-46.5 688,-46.5 688,-5.5 834,-5.5 834,-46.5"/>
<text text-anchor="start" x="696" y="-34.5" font-family="Helvetica,sans-Serif" font-size="10.00">doris::vectorized::</text>
<text text-anchor="start" x="696" y="-23.5" font-family="Helvetica,sans-Serif" font-size="10.00">ScannerScheduler::_schedule</text>
<text text-anchor="middle" x="761" y="-12.5" font-family="Helvetica,sans-Serif" font-size="10.00">_scanners</text>
</a>
</g>
</g>
<!-- Node7&#45;&gt;Node8 -->
<g id="edge7" class="edge">
<title>Node7&#45;&gt;Node8</title>
<path fill="none" stroke="#63b8ff" d="M858.16,-26C850.13,-26 842.08,-26 834.26,-26"/>
<polygon fill="#63b8ff" stroke="#63b8ff" points="857.99,-29.5 867.99,-26 857.99,-22.5 857.99,-29.5"/>
</g>
<!-- Node9 -->
<g id="node9" class="node">
<title>Node9</title>
<g id="a_node9"><a xlink:href="../../d4/df4/classdoris_1_1vectorized_1_1_scanner_scheduler.html#a0cd54d87002f883702febdd8d0348f7c" target="_top" xlink:title=" ">
<polygon fill="white" stroke="#666666" points="652,-46.5 506,-46.5 506,-5.5 652,-5.5 652,-46.5"/>
<text text-anchor="start" x="514" y="-34.5" font-family="Helvetica,sans-Serif" font-size="10.00">doris::vectorized::</text>
<text text-anchor="start" x="514" y="-23.5" font-family="Helvetica,sans-Serif" font-size="10.00">ScannerScheduler::_schedule</text>
<text text-anchor="middle" x="579" y="-12.5" font-family="Helvetica,sans-Serif" font-size="10.00">_thread</text>
</a>
</g>
</g>
<!-- Node8&#45;&gt;Node9 -->
<g id="edge8" class="edge">
<title>Node8&#45;&gt;Node9</title>
<path fill="none" stroke="#63b8ff" d="M676.3,-26C668.27,-26 660.19,-26 652.29,-26"/>
<polygon fill="#63b8ff" stroke="#63b8ff" points="676.05,-29.5 686.05,-26 676.05,-22.5 676.05,-29.5"/>
</g>
<!-- Node10 -->
<g id="node10" class="node">
<title>Node10</title>
<g id="a_node10"><a xlink:href="../../d4/df4/classdoris_1_1vectorized_1_1_scanner_scheduler.html#a992d523e473f8a2d10ae95009fae306a" target="_top" xlink:title=" ">
<polygon fill="white" stroke="#666666" points="470,-41 355,-41 355,-11 470,-11 470,-41"/>
<text text-anchor="start" x="363" y="-29" font-family="Helvetica,sans-Serif" font-size="10.00">doris::vectorized::</text>
<text text-anchor="middle" x="412.5" y="-18" font-family="Helvetica,sans-Serif" font-size="10.00">ScannerScheduler::init</text>
</a>
</g>
</g>
<!-- Node9&#45;&gt;Node10 -->
<g id="edge9" class="edge">
<title>Node9&#45;&gt;Node10</title>
<path fill="none" stroke="#63b8ff" d="M494.35,-26C486.19,-26 478.06,-26 470.27,-26"/>
<polygon fill="#63b8ff" stroke="#63b8ff" points="494.33,-29.5 504.33,-26 494.33,-22.5 494.33,-29.5"/>
</g>
<!-- Node11 -->
<g id="node11" class="node">
<title>Node11</title>
<g id="a_node11"><a xlink:href="../../d9/dbd/classdoris_1_1_exec_env.html#a34961a7b90327a94bdd595ee35e3db18" target="_top" xlink:title=" ">
<polygon fill="white" stroke="#666666" points="319,-35.5 212,-35.5 212,-16.5 319,-16.5 319,-35.5"/>
<text text-anchor="middle" x="265.5" y="-23.5" font-family="Helvetica,sans-Serif" font-size="10.00">doris::ExecEnv::_init</text>
</a>
</g>
</g>
<!-- Node10&#45;&gt;Node11 -->
<g id="edge10" class="edge">
<title>Node10&#45;&gt;Node11</title>
<path fill="none" stroke="#63b8ff" d="M343.35,-26C335.32,-26 327.22,-26 319.44,-26"/>
<polygon fill="#63b8ff" stroke="#63b8ff" points="343.09,-29.5 353.09,-26 343.09,-22.5 343.09,-29.5"/>
</g>
<!-- Node12 -->
<g id="node12" class="node">
<title>Node12</title>
<g id="a_node12"><a xlink:href="../../d9/dbd/classdoris_1_1_exec_env.html#a6ada05106d62558f90ac753be1b44904" target="_top" xlink:title=" ">
<polygon fill="white" stroke="#666666" points="176,-35.5 74,-35.5 74,-16.5 176,-16.5 176,-35.5"/>
<text text-anchor="middle" x="125" y="-23.5" font-family="Helvetica,sans-Serif" font-size="10.00">doris::ExecEnv::init</text>
</a>
</g>
</g>
<!-- Node11&#45;&gt;Node12 -->
<g id="edge11" class="edge">
<title>Node11&#45;&gt;Node12</title>
<path fill="none" stroke="#63b8ff" d="M200.42,-26C192.34,-26 184.16,-26 176.33,-26"/>
<polygon fill="#63b8ff" stroke="#63b8ff" points="200.23,-29.5 210.23,-26 200.23,-22.5 200.23,-29.5"/>
</g>
<!-- Node13 -->
<g id="node13" class="node">
<title>Node13</title>
<g id="a_node13"><a xlink:href="../../d7/dcc/doris__main_8cpp.html#a3c04138a5bfe5d72780bb7e82a18e627" target="_top" xlink:title=" ">
<polygon fill="white" stroke="#666666" points="38,-35.5 0,-35.5 0,-16.5 38,-16.5 38,-35.5"/>
<text text-anchor="middle" x="19" y="-23.5" font-family="Helvetica,sans-Serif" font-size="10.00">main</text>
</a>
</g>
</g>
<!-- Node12&#45;&gt;Node13 -->
<g id="edge12" class="edge">
<title>Node12&#45;&gt;Node13</title>
<path fill="none" stroke="#63b8ff" d="M62.03,-26C53.39,-26 45.14,-26 38.26,-26"/>
<polygon fill="#63b8ff" stroke="#63b8ff" points="62.01,-29.5 72.01,-26 62.01,-22.5 62.01,-29.5"/>
</g>
</g>
</svg>
