<?xml version="1.0" encoding="UTF-8" standalone="no"?>
<!DOCTYPE svg PUBLIC "-//W3C//DTD SVG 1.1//EN"
 "http://www.w3.org/Graphics/SVG/1.1/DTD/svg11.dtd">
<!-- Generated by graphviz version 7.1.0 (20230121.1956)
 -->
<!-- Title: prepare Pages: 1 -->
<svg width="328pt" height="27pt"
 viewBox="0.00 0.00 328.00 27.00" xmlns="http://www.w3.org/2000/svg" xmlns:xlink="http://www.w3.org/1999/xlink">
<g id="graph0" class="graph" transform="scale(1 1) rotate(0) translate(4 23)">
<title>prepare</title>
<!-- Node1 -->
<g id="node1" class="node">
<title>Node1</title>
<g id="a_node1"><a xlink:title=" ">
<polygon fill="#999999" stroke="#666666" points="49,-19 0,-19 0,0 49,0 49,-19"/>
<text text-anchor="middle" x="24.5" y="-7" font-family="Helvetica,sans-Serif" font-size="10.00">prepare</text>
</a>
</g>
</g>
<!-- Node2 -->
<g id="node2" class="node">
<title>Node2</title>
<g id="a_node2"><a xlink:href="../../d9/d8d/classdoris_1_1_status.html#a6ec1a217f203269ab53d2290d602db24" target="_top" xlink:title=" ">
<polygon fill="white" stroke="#666666" points="177,-19 85,-19 85,0 177,0 177,-19"/>
<text text-anchor="middle" x="131" y="-7" font-family="Helvetica,sans-Serif" font-size="10.00">doris::Status::OK</text>
</a>
</g>
</g>
<!-- Node1&#45;&gt;Node2 -->
<g id="edge1" class="edge">
<title>Node1&#45;&gt;Node2</title>
<path fill="none" stroke="#63b8ff" d="M49.47,-9.5C56.68,-9.5 64.92,-9.5 73.31,-9.5"/>
<polygon fill="#63b8ff" stroke="#63b8ff" points="73.25,-13 83.25,-9.5 73.25,-6 73.25,-13"/>
</g>
<!-- Node3 -->
<g id="node3" class="node">
<title>Node3</title>
<g id="a_node3"><a xlink:href="../../d9/d8d/classdoris_1_1_status.html#aafde58df1b2a6a91d5b674373be3ffc5" target="_top" xlink:title=" ">
<polygon fill="white" stroke="#666666" points="320,-19 213,-19 213,0 320,0 320,-19"/>
<text text-anchor="middle" x="266.5" y="-7" font-family="Helvetica,sans-Serif" font-size="10.00">doris::Status::Status</text>
</a>
</g>
</g>
<!-- Node2&#45;&gt;Node3 -->
<g id="edge2" class="edge">
<title>Node2&#45;&gt;Node3</title>
<path fill="none" stroke="#63b8ff" d="M177.2,-9.5C184.91,-9.5 193.05,-9.5 201.15,-9.5"/>
<polygon fill="#63b8ff" stroke="#63b8ff" points="201,-13 211,-9.5 201,-6 201,-13"/>
</g>
</g>
</svg>
