<?xml version="1.0" encoding="UTF-8" standalone="no"?>
<!DOCTYPE svg PUBLIC "-//W3C//DTD SVG 1.1//EN"
 "http://www.w3.org/Graphics/SVG/1.1/DTD/svg11.dtd">
<!-- Generated by graphviz version 7.1.0 (20230121.1956)
 -->
<!-- Title: create_expr_trees Pages: 1 -->
<svg width="775pt" height="215pt"
 viewBox="0.00 0.00 775.00 214.50" xmlns="http://www.w3.org/2000/svg" xmlns:xlink="http://www.w3.org/1999/xlink">
<g id="graph0" class="graph" transform="scale(1 1) rotate(0) translate(4 210.5)">
<title>create_expr_trees</title>
<!-- Node1 -->
<g id="node1" class="node">
<title>Node1</title>
<g id="a_node1"><a xlink:title=" ">
<polygon fill="#999999" stroke="#666666" points="95,-21.32 0,-21.32 0,-2.32 95,-2.32 95,-21.32"/>
<text text-anchor="middle" x="47.5" y="-9.32" font-family="Helvetica,sans-Serif" font-size="10.00">create_expr_trees</text>
</a>
</g>
</g>
<!-- Node2 -->
<g id="node2" class="node">
<title>Node2</title>
<g id="a_node2"><a xlink:href="../../d0/d2e/classdoris_1_1vectorized_1_1_v_expr.html#a8768a470a00ddf2aaf2bfd304746c382" target="_top" xlink:title=" ">
<polygon fill="white" stroke="#666666" points="220,-59.32 131,-59.32 131,-40.32 220,-40.32 220,-59.32"/>
<text text-anchor="middle" x="175.5" y="-47.32" font-family="Helvetica,sans-Serif" font-size="10.00">create_expr_tree</text>
</a>
</g>
</g>
<!-- Node1&#45;&gt;Node2 -->
<g id="edge1" class="edge">
<title>Node1&#45;&gt;Node2</title>
<path fill="none" stroke="#63b8ff" d="M81.61,-21.8C96.65,-26.34 114.66,-31.77 130.8,-36.64"/>
<polygon fill="#63b8ff" stroke="#63b8ff" points="129.58,-39.93 140.17,-39.46 131.6,-33.23 129.58,-39.93"/>
</g>
<!-- Node7 -->
<g id="node7" class="node">
<title>Node7</title>
<g id="a_node7"><a xlink:href="../../d9/d8d/classdoris_1_1_status.html#a6ec1a217f203269ab53d2290d602db24" target="_top" xlink:title=" ">
<polygon fill="white" stroke="#666666" points="613.5,-97.32 521.5,-97.32 521.5,-78.32 613.5,-78.32 613.5,-97.32"/>
<text text-anchor="middle" x="567.5" y="-85.32" font-family="Helvetica,sans-Serif" font-size="10.00">doris::Status::OK</text>
</a>
</g>
</g>
<!-- Node1&#45;&gt;Node7 -->
<g id="edge13" class="edge">
<title>Node1&#45;&gt;Node7</title>
<path fill="none" stroke="#63b8ff" d="M95.46,-6.45C158.69,-0.43 274.42,6.29 371,-11.82 433.06,-23.46 500.73,-54.19 537.95,-72.82"/>
<polygon fill="#63b8ff" stroke="#63b8ff" points="536.2,-75.85 546.7,-77.26 539.37,-69.61 536.2,-75.85"/>
</g>
<!-- Node3 -->
<g id="node3" class="node">
<title>Node3</title>
<g id="a_node3"><a xlink:href="../../d0/d2e/classdoris_1_1vectorized_1_1_v_expr.html#a5c361e6795faa7bcc5590c6f1829bccc" target="_top" xlink:title=" ">
<polygon fill="white" stroke="#666666" points="371,-154.32 256,-154.32 256,-135.32 371,-135.32 371,-154.32"/>
<text text-anchor="middle" x="313.5" y="-142.32" font-family="Helvetica,sans-Serif" font-size="10.00">create_tree_from_thrift</text>
</a>
</g>
</g>
<!-- Node2&#45;&gt;Node3 -->
<g id="edge2" class="edge">
<title>Node2&#45;&gt;Node3</title>
<path fill="none" stroke="#63b8ff" d="M190.8,-59.81C214.22,-76.17 261,-108.84 289.24,-128.57"/>
<polygon fill="#63b8ff" stroke="#63b8ff" points="286.95,-131.24 297.15,-134.1 290.96,-125.5 286.95,-131.24"/>
</g>
<!-- Node2&#45;&gt;Node7 -->
<g id="edge11" class="edge">
<title>Node2&#45;&gt;Node7</title>
<path fill="none" stroke="#63b8ff" d="M220.48,-54.1C291.59,-61.03 431.72,-74.69 510.08,-82.32"/>
<polygon fill="#63b8ff" stroke="#63b8ff" points="509.38,-85.77 519.67,-83.26 510.06,-78.8 509.38,-85.77"/>
</g>
<!-- Node9 -->
<g id="node9" class="node">
<title>Node9</title>
<g id="a_node9"><a xlink:href="../../d9/d8d/classdoris_1_1_status.html#a03cb7eaa663dc83af68bc28a596d09e6" target="_top" xlink:title=" ">
<polygon fill="white" stroke="#666666" points="358,-40.32 269,-40.32 269,-21.32 358,-21.32 358,-40.32"/>
<text text-anchor="middle" x="313.5" y="-28.32" font-family="Helvetica,sans-Serif" font-size="10.00">doris::Status::ok</text>
</a>
</g>
</g>
<!-- Node2&#45;&gt;Node9 -->
<g id="edge12" class="edge">
<title>Node2&#45;&gt;Node9</title>
<path fill="none" stroke="#63b8ff" d="M220.28,-43.7C232.17,-42.04 245.2,-40.22 257.62,-38.49"/>
<polygon fill="#63b8ff" stroke="#63b8ff" points="257.88,-41.98 267.3,-37.13 256.92,-35.05 257.88,-41.98"/>
</g>
<!-- Node3&#45;&gt;Node3 -->
<g id="edge9" class="edge">
<title>Node3&#45;&gt;Node3</title>
<path fill="none" stroke="#63b8ff" d="M293.54,-154.69C284.43,-163.26 291.09,-172.32 313.5,-172.32 325.76,-172.32 333.3,-169.61 336.13,-165.75"/>
<polygon fill="#63b8ff" stroke="#63b8ff" points="339.56,-165.06 333.82,-156.16 332.76,-166.7 339.56,-165.06"/>
</g>
<!-- Node4 -->
<g id="node4" class="node">
<title>Node4</title>
<g id="a_node4"><a xlink:href="../../d8/da1/classdoris_1_1_object_pool.html#a034148f79c9a093574ce5b6a020283f8" target="_top" xlink:title=" ">
<polygon fill="white" stroke="#666666" points="624,-191.32 511,-191.32 511,-172.32 624,-172.32 624,-191.32"/>
<text text-anchor="middle" x="567.5" y="-179.32" font-family="Helvetica,sans-Serif" font-size="10.00">doris::ObjectPool::add</text>
</a>
</g>
</g>
<!-- Node3&#45;&gt;Node4 -->
<g id="edge3" class="edge">
<title>Node3&#45;&gt;Node4</title>
<path fill="none" stroke="#63b8ff" d="M326.07,-154.75C342.67,-168.27 374.81,-191.84 407,-200.82 447.01,-211.99 494.45,-203.73 527.14,-194.87"/>
<polygon fill="#63b8ff" stroke="#63b8ff" points="527.94,-198.28 536.59,-192.16 526.01,-191.55 527.94,-198.28"/>
</g>
<!-- Node5 -->
<g id="node5" class="node">
<title>Node5</title>
<g id="a_node5"><a xlink:href="../../d0/d2e/classdoris_1_1vectorized_1_1_v_expr.html#a40ac99f1686eb5bf5fa8818ae01c5c27" target="_top" xlink:title=" ">
<polygon fill="white" stroke="#666666" points="470,-191.32 412,-191.32 412,-172.32 470,-172.32 470,-191.32"/>
<text text-anchor="middle" x="441" y="-179.32" font-family="Helvetica,sans-Serif" font-size="10.00">add_child</text>
</a>
</g>
</g>
<!-- Node3&#45;&gt;Node5 -->
<g id="edge4" class="edge">
<title>Node3&#45;&gt;Node5</title>
<path fill="none" stroke="#63b8ff" d="M348.13,-154.73C364.45,-159.55 384.15,-165.35 401.11,-170.35"/>
<polygon fill="#63b8ff" stroke="#63b8ff" points="399.77,-173.61 410.35,-173.08 401.74,-166.89 399.77,-173.61"/>
</g>
<!-- Node6 -->
<g id="node6" class="node">
<title>Node6</title>
<g id="a_node6"><a xlink:href="../../d0/d2e/classdoris_1_1vectorized_1_1_v_expr.html#a08909ac305378f716eb9aef099f5b328" target="_top" xlink:title=" ">
<polygon fill="white" stroke="#666666" points="475,-154.32 407,-154.32 407,-135.32 475,-135.32 475,-154.32"/>
<text text-anchor="middle" x="441" y="-142.32" font-family="Helvetica,sans-Serif" font-size="10.00">create_expr</text>
</a>
</g>
</g>
<!-- Node3&#45;&gt;Node6 -->
<g id="edge5" class="edge">
<title>Node3&#45;&gt;Node6</title>
<path fill="none" stroke="#63b8ff" d="M371.37,-144.82C379.39,-144.82 387.52,-144.82 395.26,-144.82"/>
<polygon fill="#63b8ff" stroke="#63b8ff" points="395.12,-148.32 405.12,-144.82 395.12,-141.32 395.12,-148.32"/>
</g>
<!-- Node3&#45;&gt;Node7 -->
<g id="edge10" class="edge">
<title>Node3&#45;&gt;Node7</title>
<path fill="none" stroke="#63b8ff" d="M358.68,-134.83C401.11,-125.23 465.33,-110.7 511.14,-100.34"/>
<polygon fill="#63b8ff" stroke="#63b8ff" points="511.91,-103.76 520.89,-98.14 510.37,-96.93 511.91,-103.76"/>
</g>
<!-- Node6&#45;&gt;Node4 -->
<g id="edge6" class="edge">
<title>Node6&#45;&gt;Node4</title>
<path fill="none" stroke="#63b8ff" d="M475.36,-154.73C489.74,-159.01 506.75,-164.06 522.17,-168.64"/>
<polygon fill="#63b8ff" stroke="#63b8ff" points="521.01,-171.95 531.59,-171.45 523,-165.24 521.01,-171.95"/>
</g>
<!-- Node6&#45;&gt;Node7 -->
<g id="edge7" class="edge">
<title>Node6&#45;&gt;Node7</title>
<path fill="none" stroke="#63b8ff" d="M463.69,-134.89C483.32,-125.9 512.5,-112.54 534.76,-102.35"/>
<polygon fill="#63b8ff" stroke="#63b8ff" points="536.05,-105.61 543.69,-98.26 533.14,-99.24 536.05,-105.61"/>
</g>
<!-- Node8 -->
<g id="node8" class="node">
<title>Node8</title>
<g id="a_node8"><a xlink:href="../../d9/d8d/classdoris_1_1_status.html#aafde58df1b2a6a91d5b674373be3ffc5" target="_top" xlink:title=" ">
<polygon fill="white" stroke="#666666" points="767,-97.32 660,-97.32 660,-78.32 767,-78.32 767,-97.32"/>
<text text-anchor="middle" x="713.5" y="-85.32" font-family="Helvetica,sans-Serif" font-size="10.00">doris::Status::Status</text>
</a>
</g>
</g>
<!-- Node7&#45;&gt;Node8 -->
<g id="edge8" class="edge">
<title>Node7&#45;&gt;Node8</title>
<path fill="none" stroke="#63b8ff" d="M613.67,-87.82C624.62,-87.82 636.53,-87.82 648.18,-87.82"/>
<polygon fill="#63b8ff" stroke="#63b8ff" points="648.17,-91.32 658.17,-87.82 648.17,-84.32 648.17,-91.32"/>
</g>
</g>
</svg>
