<?xml version="1.0" encoding="UTF-8" standalone="no"?>
<!DOCTYPE svg PUBLIC "-//W3C//DTD SVG 1.1//EN"
 "http://www.w3.org/Graphics/SVG/1.1/DTD/svg11.dtd">
<!-- Generated by graphviz version 7.1.0 (20230121.1956)
 -->
<!-- Title: get_array_type_info Pages: 1 -->
<!--zoomable 170 -->
<svg id="main" version="1.1" xmlns="http://www.w3.org/2000/svg" xmlns:xlink="http://www.w3.org/1999/xlink" xml:space="preserve" onload="init(evt)">
<style type="text/css"><![CDATA[
.edge:hover path { stroke: red; }
.edge:hover polygon { stroke: red; fill: red; }
]]></style>
<script type="text/javascript"><![CDATA[
var edges = document.getElementsByTagName('g');
if (edges && edges.length) {
  for (var i=0;i<edges.length;i++) {
    if (edges[i].id.substr(0,4)=='edge') {
      edges[i].setAttribute('class','edge');
    }
  }
}
]]></script>
        <defs>
                <circle id="rim" cx="0" cy="0" r="7"/>
                <circle id="rim2" cx="0" cy="0" r="3.5"/>
                <g id="zoomPlus">
                        <use xlink:href="#rim" fill="#404040">
                                <set attributeName="fill" to="#808080" begin="zoomplus.mouseover" end="zoomplus.mouseout"/>
                        </use>
                        <path d="M-4,0h8M0,-4v8" fill="none" stroke="white" stroke-width="1.5" pointer-events="none"/>
                </g>
                <g id="zoomMin">
                        <use xlink:href="#rim" fill="#404040">
                                <set attributeName="fill" to="#808080" begin="zoomminus.mouseover" end="zoomminus.mouseout"/>
                        </use>
                        <path d="M-4,0h8" fill="none" stroke="white" stroke-width="1.5" pointer-events="none"/>
                </g>
                <g id="dirArrow">
                        <path fill="none" stroke="white" stroke-width="1.5" d="M0,-3.0v7 M-2.5,-0.5L0,-3.0L2.5,-0.5"/>
                </g>
               <g id="resetDef">
                       <use xlink:href="#rim2" fill="#404040">
                               <set attributeName="fill" to="#808080" begin="reset.mouseover" end="reset.mouseout"/>
                       </use>
               </g>
        </defs>

<script type="text/javascript">
var viewWidth = 572;
var viewHeight = 170;
var sectionId = 'dynsection-163';
</script>
<script xlink:href="../../svgpan.js"/>
<svg id="graph" class="graph">
<g id="viewport">
<title>get_array_type_info</title>
<!-- Node1 -->
<g id="node1" class="node">
<title>Node1</title>
<g id="a_node1"><a xlink:title=" ">
<polygon fill="#999999" stroke="#666666" points="564,-84 462,-84 462,-65 564,-65 564,-84"/>
<text text-anchor="middle" x="513" y="-72" font-family="Helvetica,sans-Serif" font-size="10.00">get_array_type_info</text>
</a>
</g>
</g>
<!-- Node2 -->
<g id="node2" class="node">
<title>Node2</title>
<g id="a_node2"><a xlink:href="../../d6/d94/namespacedoris.html#aa856bf9f48834b3af9aa35490b4981d0" target="_top" xlink:title=" ">
<polygon fill="white" stroke="#666666" points="426,-84 351,-84 351,-65 426,-65 426,-84"/>
<text text-anchor="middle" x="388.5" y="-72" font-family="Helvetica,sans-Serif" font-size="10.00">get_type_info</text>
</a>
</g>
</g>
<!-- Node1&#45;&gt;Node2 -->
<g id="edge1" class="edge">
<title>Node1&#45;&gt;Node2</title>
<path fill="none" stroke="#63b8ff" d="M450.56,-74.5C442.26,-74.5 433.97,-74.5 426.29,-74.5"/>
<polygon fill="#63b8ff" stroke="#63b8ff" points="450.31,-78 460.31,-74.5 450.31,-71 450.31,-78"/>
</g>
<!-- Node3 -->
<g id="node3" class="node">
<title>Node3</title>
<g id="a_node3"><a xlink:href="../../df/d31/classdoris_1_1_row_block_changer.html#a99943c3764aab4692656dd9dff62d26e" target="_top" xlink:title=" ">
<polygon fill="white" stroke="#666666" points="315,-137.5 190,-137.5 190,-107.5 315,-107.5 315,-137.5"/>
<text text-anchor="start" x="198" y="-125.5" font-family="Helvetica,sans-Serif" font-size="10.00">doris::RowBlockChanger</text>
<text text-anchor="middle" x="252.5" y="-114.5" font-family="Helvetica,sans-Serif" font-size="10.00">::change_block</text>
</a>
</g>
</g>
<!-- Node2&#45;&gt;Node3 -->
<g id="edge2" class="edge">
<title>Node2&#45;&gt;Node3</title>
<path fill="none" stroke="#63b8ff" d="M348.9,-88.33C332.52,-94.19 313.37,-101.05 296.54,-107.08"/>
<polygon fill="#63b8ff" stroke="#63b8ff" points="350.08,-91.62 358.31,-84.96 347.72,-85.03 350.08,-91.62"/>
</g>
<!-- Node6 -->
<g id="node6" class="node">
<title>Node6</title>
<g id="a_node6"><a xlink:href="../../d3/d99/classdoris_1_1segment__v2_1_1_column_reader.html#a223508714f7b7c2a338265d09a23a25f" target="_top" xlink:title=" ">
<polygon fill="white" stroke="#666666" points="304,-89.5 201,-89.5 201,-59.5 304,-59.5 304,-89.5"/>
<text text-anchor="start" x="209" y="-77.5" font-family="Helvetica,sans-Serif" font-size="10.00">doris::segment_v2::</text>
<text text-anchor="middle" x="252.5" y="-66.5" font-family="Helvetica,sans-Serif" font-size="10.00">ColumnReader::init</text>
</a>
</g>
</g>
<!-- Node2&#45;&gt;Node6 -->
<g id="edge5" class="edge">
<title>Node2&#45;&gt;Node6</title>
<path fill="none" stroke="#63b8ff" d="M339.11,-74.5C327.83,-74.5 315.78,-74.5 304.39,-74.5"/>
<polygon fill="#63b8ff" stroke="#63b8ff" points="339.02,-78 349.02,-74.5 339.02,-71 339.02,-78"/>
</g>
<!-- Node7 -->
<g id="node7" class="node">
<title>Node7</title>
<g id="a_node7"><a xlink:href="../../d5/dd3/classdoris_1_1segment__v2_1_1_segment.html#a3022b0b3696e6dd7e04a6d7a098a935c" target="_top" xlink:title=" ">
<polygon fill="white" stroke="#666666" points="310.5,-41 194.5,-41 194.5,0 310.5,0 310.5,-41"/>
<text text-anchor="start" x="202.5" y="-29" font-family="Helvetica,sans-Serif" font-size="10.00">doris::segment_v2::</text>
<text text-anchor="start" x="202.5" y="-18" font-family="Helvetica,sans-Serif" font-size="10.00">Segment::new_column</text>
<text text-anchor="middle" x="252.5" y="-7" font-family="Helvetica,sans-Serif" font-size="10.00">_iterator</text>
</a>
</g>
</g>
<!-- Node2&#45;&gt;Node7 -->
<g id="edge6" class="edge">
<title>Node2&#45;&gt;Node7</title>
<path fill="none" stroke="#63b8ff" d="M352.49,-60.39C338.11,-54.6 321.17,-47.77 305.4,-41.42"/>
<polygon fill="#63b8ff" stroke="#63b8ff" points="350.94,-63.54 361.52,-64.03 353.55,-57.05 350.94,-63.54"/>
</g>
<!-- Node4 -->
<g id="node4" class="node">
<title>Node4</title>
<g id="a_node4"><a xlink:href="../../da/d81/classdoris_1_1_v_schema_change_directly.html#a0d8656af3adfb25b565ff4c3e0fe9fc5" target="_top" xlink:title=" ">
<polygon fill="white" stroke="#666666" points="154,-161.5 0,-161.5 0,-131.5 154,-131.5 154,-161.5"/>
<text text-anchor="start" x="8" y="-149.5" font-family="Helvetica,sans-Serif" font-size="10.00">doris::VSchemaChangeDirectly</text>
<text text-anchor="middle" x="77" y="-138.5" font-family="Helvetica,sans-Serif" font-size="10.00">::_inner_process</text>
</a>
</g>
</g>
<!-- Node3&#45;&gt;Node4 -->
<g id="edge3" class="edge">
<title>Node3&#45;&gt;Node4</title>
<path fill="none" stroke="#63b8ff" d="M178.63,-132.58C170.6,-133.69 162.41,-134.82 154.34,-135.94"/>
<polygon fill="#63b8ff" stroke="#63b8ff" points="178.92,-136.07 188.34,-131.24 177.96,-129.14 178.92,-136.07"/>
</g>
<!-- Node5 -->
<g id="node5" class="node">
<title>Node5</title>
<g id="a_node5"><a xlink:href="../../dc/d38/classdoris_1_1_v_schema_change_with_sorting.html#a0d8656af3adfb25b565ff4c3e0fe9fc5" target="_top" xlink:title=" ">
<polygon fill="white" stroke="#666666" points="147,-113.5 7,-113.5 7,-83.5 147,-83.5 147,-113.5"/>
<text text-anchor="start" x="15" y="-101.5" font-family="Helvetica,sans-Serif" font-size="10.00">doris::VSchemaChangeWith</text>
<text text-anchor="middle" x="77" y="-90.5" font-family="Helvetica,sans-Serif" font-size="10.00">Sorting::_inner_process</text>
</a>
</g>
</g>
<!-- Node3&#45;&gt;Node5 -->
<g id="edge4" class="edge">
<title>Node3&#45;&gt;Node5</title>
<path fill="none" stroke="#63b8ff" d="M178.73,-112.43C168.37,-111 157.73,-109.53 147.43,-108.1"/>
<polygon fill="#63b8ff" stroke="#63b8ff" points="177.96,-115.86 188.34,-113.76 178.92,-108.93 177.96,-115.86"/>
</g>
</g>
</svg>
        <g id="navigator" transform="translate(0 0)" fill="#404254">
                <rect fill="#f2f5e9" fill-opacity="0.5" stroke="#606060" stroke-width=".5" x="0" y="0" width="60" height="60"/>
                <use id="zoomplus" xlink:href="#zoomPlus" x="17" y="9" onmousedown="handleZoom(evt,'in')"/>
                <use id="zoomminus" xlink:href="#zoomMin" x="42" y="9" onmousedown="handleZoom(evt,'out')"/>
                <use id="reset" xlink:href="#resetDef" x="30" y="36" onmousedown="handleReset()"/>
                <g id="arrowUp" xlink:href="#dirArrow" transform="translate(30 24)" onmousedown="handlePan(0,-1)">
                  <use xlink:href="#rim" fill="#404040">
                        <set attributeName="fill" to="#808080" begin="arrowUp.mouseover" end="arrowUp.mouseout"/>
                  </use>
                  <path fill="none" stroke="white" stroke-width="1.5" d="M0,-3.0v7 M-2.5,-0.5L0,-3.0L2.5,-0.5"/>
                </g>
                <g id="arrowRight" xlink:href="#dirArrow" transform="rotate(90) translate(36 -43)" onmousedown="handlePan(1,0)">
                  <use xlink:href="#rim" fill="#404040">
                        <set attributeName="fill" to="#808080" begin="arrowRight.mouseover" end="arrowRight.mouseout"/>
                  </use>
                  <path fill="none" stroke="white" stroke-width="1.5" d="M0,-3.0v7 M-2.5,-0.5L0,-3.0L2.5,-0.5"/>
                </g>
                <g id="arrowDown" xlink:href="#dirArrow" transform="rotate(180) translate(-30 -48)" onmousedown="handlePan(0,1)">
                  <use xlink:href="#rim" fill="#404040">
                        <set attributeName="fill" to="#808080" begin="arrowDown.mouseover" end="arrowDown.mouseout"/>
                  </use>
                  <path fill="none" stroke="white" stroke-width="1.5" d="M0,-3.0v7 M-2.5,-0.5L0,-3.0L2.5,-0.5"/>
                </g>
                <g id="arrowLeft" xlink:href="#dirArrow" transform="rotate(270) translate(-36 17)" onmousedown="handlePan(-1,0)">
                  <use xlink:href="#rim" fill="#404040">
                        <set attributeName="fill" to="#808080" begin="arrowLeft.mouseover" end="arrowLeft.mouseout"/>
                  </use>
                  <path fill="none" stroke="white" stroke-width="1.5" d="M0,-3.0v7 M-2.5,-0.5L0,-3.0L2.5,-0.5"/>
                </g>
        </g>
        <svg viewBox="0 0 15 15" width="100%" height="30px" preserveAspectRatio="xMaxYMin meet">
         <g id="arrow_out" transform="scale(0.3 0.3)">
          <a xlink:href="namespacedoris_a8819411de450c4a1d8a9f6f96314d0bd_icgraph_org.svg" target="_base">
           <rect id="button" ry="5" rx="5" y="6" x="6" height="38" width="38"
                fill="#f2f5e9" fill-opacity="0.5" stroke="#606060" stroke-width="1.0"/>
           <path id="arrow"
             d="M 11.500037,31.436501 C 11.940474,20.09759 22.043105,11.32322 32.158766,21.979434 L 37.068811,17.246167 C 37.068811,17.246167 37.088388,32 37.088388,32 L 22.160133,31.978069 C 22.160133,31.978069 26.997745,27.140456 26.997745,27.140456 C 18.528582,18.264221 13.291696,25.230495 11.500037,31.436501 z"
             style="fill:#404040;"/>
          </a>
         </g>
        </svg>
</svg>
