<?xml version="1.0" encoding="UTF-8" standalone="no"?>
<!DOCTYPE svg PUBLIC "-//W3C//DTD SVG 1.1//EN"
 "http://www.w3.org/Graphics/SVG/1.1/DTD/svg11.dtd">
<!-- Generated by graphviz version 7.1.0 (20230121.1956)
 -->
<!-- Title: year_week Pages: 1 -->
<svg width="350pt" height="38pt"
 viewBox="0.00 0.00 350.00 38.00" xmlns="http://www.w3.org/2000/svg" xmlns:xlink="http://www.w3.org/1999/xlink">
<g id="graph0" class="graph" transform="scale(1 1) rotate(0) translate(4 34)">
<title>year_week</title>
<!-- Node1 -->
<g id="node1" class="node">
<title>Node1</title>
<g id="a_node1"><a xlink:title=" ">
<polygon fill="#999999" stroke="#666666" points="342,-24.5 278,-24.5 278,-5.5 342,-5.5 342,-24.5"/>
<text text-anchor="middle" x="310" y="-12.5" font-family="Helvetica,sans-Serif" font-size="10.00">year_week</text>
</a>
</g>
</g>
<!-- Node2 -->
<g id="node2" class="node">
<title>Node2</title>
<g id="a_node2"><a xlink:href="../../dd/d60/classdoris_1_1_time_l_u_t_impl.html#a85c78b8ac8725a74ee46cbd720545d59" target="_top" xlink:title=" ">
<polygon fill="white" stroke="#666666" points="242,-30 139,-30 139,0 242,0 242,-30"/>
<text text-anchor="start" x="147" y="-18" font-family="Helvetica,sans-Serif" font-size="10.00">doris::TimeLUTImpl</text>
<text text-anchor="middle" x="190.5" y="-7" font-family="Helvetica,sans-Serif" font-size="10.00">::init_time_lut</text>
</a>
</g>
</g>
<!-- Node1&#45;&gt;Node2 -->
<g id="edge1" class="edge">
<title>Node1&#45;&gt;Node2</title>
<path fill="none" stroke="#63b8ff" d="M266.09,-15C258.3,-15 250.12,-15 242.14,-15"/>
<polygon fill="#63b8ff" stroke="#63b8ff" points="266,-18.5 276,-15 266,-11.5 266,-18.5"/>
</g>
<!-- Node3 -->
<g id="node3" class="node">
<title>Node3</title>
<g id="a_node3"><a xlink:href="../../dd/d60/classdoris_1_1_time_l_u_t_impl.html#a70c98559285a065912ab5d84f6968001" target="_top" xlink:title=" ">
<polygon fill="white" stroke="#666666" points="103,-30 0,-30 0,0 103,0 103,-30"/>
<text text-anchor="start" x="8" y="-18" font-family="Helvetica,sans-Serif" font-size="10.00">doris::TimeLUTImpl</text>
<text text-anchor="middle" x="51.5" y="-7" font-family="Helvetica,sans-Serif" font-size="10.00">::TimeLUTImpl</text>
</a>
</g>
</g>
<!-- Node2&#45;&gt;Node3 -->
<g id="edge2" class="edge">
<title>Node2&#45;&gt;Node3</title>
<path fill="none" stroke="#63b8ff" d="M127.56,-15C119.47,-15 111.26,-15 103.37,-15"/>
<polygon fill="#63b8ff" stroke="#63b8ff" points="127.36,-18.5 137.36,-15 127.36,-11.5 127.36,-18.5"/>
</g>
</g>
</svg>
