<?xml version="1.0" encoding="UTF-8" standalone="no"?>
<!DOCTYPE svg PUBLIC "-//W3C//DTD SVG 1.1//EN"
 "http://www.w3.org/Graphics/SVG/1.1/DTD/svg11.dtd">
<!-- Generated by graphviz version 7.1.0 (20230121.1956)
 -->
<!-- Title: valid_datetime Pages: 1 -->
<svg width="1419pt" height="86pt"
 viewBox="0.00 0.00 1419.00 86.00" xmlns="http://www.w3.org/2000/svg" xmlns:xlink="http://www.w3.org/1999/xlink">
<g id="graph0" class="graph" transform="scale(1 1) rotate(0) translate(4 82)">
<title>valid_datetime</title>
<!-- Node1 -->
<g id="node1" class="node">
<title>Node1</title>
<g id="a_node1"><a xlink:title=" ">
<polygon fill="#999999" stroke="#666666" points="1411,-47.5 1331,-47.5 1331,-28.5 1411,-28.5 1411,-47.5"/>
<text text-anchor="middle" x="1371" y="-35.5" font-family="Helvetica,sans-Serif" font-size="10.00">valid_datetime</text>
</a>
</g>
</g>
<!-- Node2 -->
<g id="node2" class="node">
<title>Node2</title>
<g id="a_node2"><a xlink:href="../../d6/d23/classdoris_1_1_delete_handler.html#af82bea045f4799694eee38255fd6d107" target="_top" xlink:title=" ">
<polygon fill="white" stroke="#666666" points="1295,-53 1167,-53 1167,-23 1295,-23 1295,-53"/>
<text text-anchor="start" x="1175" y="-41" font-family="Helvetica,sans-Serif" font-size="10.00">doris::DeleteHandler</text>
<text text-anchor="middle" x="1231" y="-30" font-family="Helvetica,sans-Serif" font-size="10.00">::is_condition_value_valid</text>
</a>
</g>
</g>
<!-- Node1&#45;&gt;Node2 -->
<g id="edge1" class="edge">
<title>Node1&#45;&gt;Node2</title>
<path fill="none" stroke="#63b8ff" d="M1319.56,-38C1311.67,-38 1303.43,-38 1295.29,-38"/>
<polygon fill="#63b8ff" stroke="#63b8ff" points="1319.31,-41.5 1329.31,-38 1319.31,-34.5 1319.31,-41.5"/>
</g>
<!-- Node3 -->
<g id="node3" class="node">
<title>Node3</title>
<g id="a_node3"><a xlink:href="../../d6/d23/classdoris_1_1_delete_handler.html#afb922547b3d7b31d944edc3e8d635f2f" target="_top" xlink:title=" ">
<polygon fill="white" stroke="#666666" points="1131,-53 1012,-53 1012,-23 1131,-23 1131,-53"/>
<text text-anchor="start" x="1020" y="-41" font-family="Helvetica,sans-Serif" font-size="10.00">doris::DeleteHandler</text>
<text text-anchor="middle" x="1071.5" y="-30" font-family="Helvetica,sans-Serif" font-size="10.00">::check_condition_valid</text>
</a>
</g>
</g>
<!-- Node2&#45;&gt;Node3 -->
<g id="edge2" class="edge">
<title>Node2&#45;&gt;Node3</title>
<path fill="none" stroke="#63b8ff" d="M1155.47,-38C1147.37,-38 1139.2,-38 1131.33,-38"/>
<polygon fill="#63b8ff" stroke="#63b8ff" points="1155.33,-41.5 1165.33,-38 1155.33,-34.5 1155.33,-41.5"/>
</g>
<!-- Node4 -->
<g id="node4" class="node">
<title>Node4</title>
<g id="a_node4"><a xlink:href="../../d6/d23/classdoris_1_1_delete_handler.html#aef38ff39c766ac9521dd6d226bbd2687" target="_top" xlink:title=" ">
<polygon fill="white" stroke="#666666" points="976,-53 839,-53 839,-23 976,-23 976,-53"/>
<text text-anchor="start" x="847" y="-41" font-family="Helvetica,sans-Serif" font-size="10.00">doris::DeleteHandler</text>
<text text-anchor="middle" x="907.5" y="-30" font-family="Helvetica,sans-Serif" font-size="10.00">::generate_delete_predicate</text>
</a>
</g>
</g>
<!-- Node3&#45;&gt;Node4 -->
<g id="edge3" class="edge">
<title>Node3&#45;&gt;Node4</title>
<path fill="none" stroke="#63b8ff" d="M1000.17,-38C992.3,-38 984.3,-38 976.47,-38"/>
<polygon fill="#63b8ff" stroke="#63b8ff" points="1000.04,-41.5 1010.04,-38 1000.04,-34.5 1000.04,-41.5"/>
</g>
<!-- Node5 -->
<g id="node5" class="node">
<title>Node5</title>
<g id="a_node5"><a xlink:href="../../df/d30/classdoris_1_1_push_handler.html#a56e6bc53f2e0cfa8bd66962339269f87" target="_top" xlink:title=" ">
<polygon fill="white" stroke="#666666" points="803,-53 672,-53 672,-23 803,-23 803,-53"/>
<text text-anchor="start" x="680" y="-41" font-family="Helvetica,sans-Serif" font-size="10.00">doris::PushHandler</text>
<text text-anchor="middle" x="737.5" y="-30" font-family="Helvetica,sans-Serif" font-size="10.00">::_do_streaming_ingestion</text>
</a>
</g>
</g>
<!-- Node4&#45;&gt;Node5 -->
<g id="edge4" class="edge">
<title>Node4&#45;&gt;Node5</title>
<path fill="none" stroke="#63b8ff" d="M827.35,-38C819.3,-38 811.2,-38 803.33,-38"/>
<polygon fill="#63b8ff" stroke="#63b8ff" points="827.14,-41.5 837.14,-38 827.14,-34.5 827.14,-41.5"/>
</g>
<!-- Node6 -->
<g id="node6" class="node">
<title>Node6</title>
<g id="a_node6"><a xlink:href="../../df/d30/classdoris_1_1_push_handler.html#a093f783d0e0f3a1fc43ab02a1b2e5a4f" target="_top" xlink:title=" ">
<polygon fill="white" stroke="#666666" points="636,-58.5 531,-58.5 531,-17.5 636,-17.5 636,-58.5"/>
<text text-anchor="start" x="539" y="-46.5" font-family="Helvetica,sans-Serif" font-size="10.00">doris::PushHandler</text>
<text text-anchor="start" x="539" y="-35.5" font-family="Helvetica,sans-Serif" font-size="10.00">::process_streaming</text>
<text text-anchor="middle" x="583.5" y="-24.5" font-family="Helvetica,sans-Serif" font-size="10.00">_ingestion</text>
</a>
</g>
</g>
<!-- Node5&#45;&gt;Node6 -->
<g id="edge5" class="edge">
<title>Node5&#45;&gt;Node6</title>
<path fill="none" stroke="#63b8ff" d="M660.2,-38C652.12,-38 644.04,-38 636.33,-38"/>
<polygon fill="#63b8ff" stroke="#63b8ff" points="660.08,-41.5 670.08,-38 660.08,-34.5 660.08,-41.5"/>
</g>
<!-- Node7 -->
<g id="node7" class="node">
<title>Node7</title>
<g id="a_node7"><a xlink:href="../../d0/d6e/classdoris_1_1_engine_batch_load_task.html#a01c3c5b08cfdc4b77dcc8fa126eae1ae" target="_top" xlink:title=" ">
<polygon fill="white" stroke="#666666" points="318,-78 177,-78 177,-48 318,-48 318,-78"/>
<text text-anchor="start" x="185" y="-66" font-family="Helvetica,sans-Serif" font-size="10.00">doris::EngineBatchLoadTask</text>
<text text-anchor="middle" x="247.5" y="-55" font-family="Helvetica,sans-Serif" font-size="10.00">::_delete_data</text>
</a>
</g>
</g>
<!-- Node6&#45;&gt;Node7 -->
<g id="edge6" class="edge">
<title>Node6&#45;&gt;Node7</title>
<path fill="none" stroke="#63b8ff" d="M519.24,-42.73C461.97,-47.02 377.74,-53.33 318.47,-57.76"/>
<polygon fill="#63b8ff" stroke="#63b8ff" points="519.46,-46.23 529.17,-41.99 518.94,-39.25 519.46,-46.23"/>
</g>
<!-- Node9 -->
<g id="node9" class="node">
<title>Node9</title>
<g id="a_node9"><a xlink:href="../../d0/d6e/classdoris_1_1_engine_batch_load_task.html#accc233a9466a0352a29f0f584c8a8750" target="_top" xlink:title=" ">
<polygon fill="white" stroke="#666666" points="495,-32 354,-32 354,-2 495,-2 495,-32"/>
<text text-anchor="start" x="362" y="-20" font-family="Helvetica,sans-Serif" font-size="10.00">doris::EngineBatchLoadTask</text>
<text text-anchor="middle" x="424.5" y="-9" font-family="Helvetica,sans-Serif" font-size="10.00">::_push</text>
</a>
</g>
</g>
<!-- Node6&#45;&gt;Node9 -->
<g id="edge8" class="edge">
<title>Node6&#45;&gt;Node9</title>
<path fill="none" stroke="#63b8ff" d="M519.35,-29.55C511.5,-28.5 503.44,-27.43 495.5,-26.36"/>
<polygon fill="#63b8ff" stroke="#63b8ff" points="518.78,-33.01 529.16,-30.86 519.71,-26.07 518.78,-33.01"/>
</g>
<!-- Node8 -->
<g id="node8" class="node">
<title>Node8</title>
<g id="a_node8"><a xlink:href="../../d0/d6e/classdoris_1_1_engine_batch_load_task.html#a288fb86e2f2bfd41128d4766a01cebad" target="_top" xlink:title=" ">
<polygon fill="white" stroke="#666666" points="141,-54 0,-54 0,-24 141,-24 141,-54"/>
<text text-anchor="start" x="8" y="-42" font-family="Helvetica,sans-Serif" font-size="10.00">doris::EngineBatchLoadTask</text>
<text text-anchor="middle" x="70.5" y="-31" font-family="Helvetica,sans-Serif" font-size="10.00">::execute</text>
</a>
</g>
</g>
<!-- Node7&#45;&gt;Node8 -->
<g id="edge7" class="edge">
<title>Node7&#45;&gt;Node8</title>
<path fill="none" stroke="#63b8ff" d="M165.32,-51.87C157.29,-50.77 149.2,-49.66 141.31,-48.57"/>
<polygon fill="#63b8ff" stroke="#63b8ff" points="164.7,-55.31 175.08,-53.21 165.65,-48.38 164.7,-55.31"/>
</g>
<!-- Node10 -->
<g id="node10" class="node">
<title>Node10</title>
<g id="a_node10"><a xlink:href="../../d0/d6e/classdoris_1_1_engine_batch_load_task.html#a5963ed6b82b6adf653c253cfa6f81c21" target="_top" xlink:title=" ">
<polygon fill="white" stroke="#666666" points="318,-30 177,-30 177,0 318,0 318,-30"/>
<text text-anchor="start" x="185" y="-18" font-family="Helvetica,sans-Serif" font-size="10.00">doris::EngineBatchLoadTask</text>
<text text-anchor="middle" x="247.5" y="-7" font-family="Helvetica,sans-Serif" font-size="10.00">::_process</text>
</a>
</g>
</g>
<!-- Node9&#45;&gt;Node10 -->
<g id="edge9" class="edge">
<title>Node9&#45;&gt;Node10</title>
<path fill="none" stroke="#63b8ff" d="M342.32,-16.07C334.29,-15.98 326.2,-15.89 318.31,-15.8"/>
<polygon fill="#63b8ff" stroke="#63b8ff" points="342.03,-19.57 352.07,-16.18 342.11,-12.57 342.03,-19.57"/>
</g>
<!-- Node10&#45;&gt;Node8 -->
<g id="edge10" class="edge">
<title>Node10&#45;&gt;Node8</title>
<path fill="none" stroke="#63b8ff" d="M165.32,-26.13C157.29,-27.23 149.2,-28.34 141.31,-29.43"/>
<polygon fill="#63b8ff" stroke="#63b8ff" points="165.65,-29.62 175.08,-24.79 164.7,-22.69 165.65,-29.62"/>
</g>
</g>
</svg>
