<?xml version="1.0" encoding="UTF-8" standalone="no"?>
<!DOCTYPE svg PUBLIC "-//W3C//DTD SVG 1.1//EN"
 "http://www.w3.org/Graphics/SVG/1.1/DTD/svg11.dtd">
<!-- Generated by graphviz version 7.1.0 (20230121.1956)
 -->
<!-- Title: _serialize_block Pages: 1 -->
<svg width="768pt" height="38pt"
 viewBox="0.00 0.00 768.00 38.00" xmlns="http://www.w3.org/2000/svg" xmlns:xlink="http://www.w3.org/1999/xlink">
<g id="graph0" class="graph" transform="scale(1 1) rotate(0) translate(4 34)">
<title>_serialize_block</title>
<!-- Node1 -->
<g id="node1" class="node">
<title>Node1</title>
<g id="a_node1"><a xlink:title=" ">
<polygon fill="#999999" stroke="#666666" points="760,-24.5 674,-24.5 674,-5.5 760,-5.5 760,-24.5"/>
<text text-anchor="middle" x="717" y="-12.5" font-family="Helvetica,sans-Serif" font-size="10.00">_serialize_block</text>
</a>
</g>
</g>
<!-- Node2 -->
<g id="node2" class="node">
<title>Node2</title>
<g id="a_node2"><a xlink:href="../../d6/de5/classdoris_1_1_point_query_executor.html#ad0b1cffd5d7a490d274e733fd3e1d6ea" target="_top" xlink:title=" ">
<polygon fill="white" stroke="#666666" points="638,-30 507,-30 507,0 638,0 638,-30"/>
<text text-anchor="start" x="515" y="-18" font-family="Helvetica,sans-Serif" font-size="10.00">doris::PointQueryExecutor</text>
<text text-anchor="middle" x="572.5" y="-7" font-family="Helvetica,sans-Serif" font-size="10.00">::_output_data</text>
</a>
</g>
</g>
<!-- Node1&#45;&gt;Node2 -->
<g id="edge1" class="edge">
<title>Node1&#45;&gt;Node2</title>
<path fill="none" stroke="#63b8ff" d="M662.14,-15C654.39,-15 646.34,-15 638.4,-15"/>
<polygon fill="#63b8ff" stroke="#63b8ff" points="662.12,-18.5 672.12,-15 662.12,-11.5 662.12,-18.5"/>
</g>
<!-- Node3 -->
<g id="node3" class="node">
<title>Node3</title>
<g id="a_node3"><a xlink:href="../../d6/de5/classdoris_1_1_point_query_executor.html#aafdc9fce98d14cc95065192634277f22" target="_top" xlink:title=" ">
<polygon fill="white" stroke="#666666" points="471,-30 340,-30 340,0 471,0 471,-30"/>
<text text-anchor="start" x="348" y="-18" font-family="Helvetica,sans-Serif" font-size="10.00">doris::PointQueryExecutor</text>
<text text-anchor="middle" x="405.5" y="-7" font-family="Helvetica,sans-Serif" font-size="10.00">::lookup_up</text>
</a>
</g>
</g>
<!-- Node2&#45;&gt;Node3 -->
<g id="edge2" class="edge">
<title>Node2&#45;&gt;Node3</title>
<path fill="none" stroke="#63b8ff" d="M495.45,-15C487.39,-15 479.24,-15 471.32,-15"/>
<polygon fill="#63b8ff" stroke="#63b8ff" points="495.25,-18.5 505.25,-15 495.25,-11.5 495.25,-18.5"/>
</g>
<!-- Node4 -->
<g id="node4" class="node">
<title>Node4</title>
<g id="a_node4"><a xlink:href="../../d3/de9/classdoris_1_1_p_internal_service_impl.html#a1f2f01924800b676f2dc0a68beb41576" target="_top" xlink:title=" ">
<polygon fill="white" stroke="#666666" points="304,-30 170,-30 170,0 304,0 304,-30"/>
<text text-anchor="start" x="178" y="-18" font-family="Helvetica,sans-Serif" font-size="10.00">doris::PInternalServiceImpl</text>
<text text-anchor="middle" x="237" y="-7" font-family="Helvetica,sans-Serif" font-size="10.00">::_tablet_fetch_data</text>
</a>
</g>
</g>
<!-- Node3&#45;&gt;Node4 -->
<g id="edge3" class="edge">
<title>Node3&#45;&gt;Node4</title>
<path fill="none" stroke="#63b8ff" d="M328.38,-15C320.35,-15 312.23,-15 304.32,-15"/>
<polygon fill="#63b8ff" stroke="#63b8ff" points="328.14,-18.5 338.14,-15 328.14,-11.5 328.14,-18.5"/>
</g>
<!-- Node5 -->
<g id="node5" class="node">
<title>Node5</title>
<g id="a_node5"><a xlink:href="../../d3/de9/classdoris_1_1_p_internal_service_impl.html#abfd22e425b02d28d1efdb18e107b8524" target="_top" xlink:title=" ">
<polygon fill="white" stroke="#666666" points="134,-30 0,-30 0,0 134,0 134,-30"/>
<text text-anchor="start" x="8" y="-18" font-family="Helvetica,sans-Serif" font-size="10.00">doris::PInternalServiceImpl</text>
<text text-anchor="middle" x="67" y="-7" font-family="Helvetica,sans-Serif" font-size="10.00">::tablet_fetch_data</text>
</a>
</g>
</g>
<!-- Node4&#45;&gt;Node5 -->
<g id="edge4" class="edge">
<title>Node4&#45;&gt;Node5</title>
<path fill="none" stroke="#63b8ff" d="M158.11,-15C150.21,-15 142.23,-15 134.47,-15"/>
<polygon fill="#63b8ff" stroke="#63b8ff" points="158.09,-18.5 168.09,-15 158.09,-11.5 158.09,-18.5"/>
</g>
</g>
</svg>
