<?xml version="1.0" encoding="UTF-8" standalone="no"?>
<!DOCTYPE svg PUBLIC "-//W3C//DTD SVG 1.1//EN"
 "http://www.w3.org/Graphics/SVG/1.1/DTD/svg11.dtd">
<!-- Generated by graphviz version 7.1.0 (20230121.1956)
 -->
<!-- Title: calc_week Pages: 1 -->
<svg width="512pt" height="209pt"
 viewBox="0.00 0.00 512.00 208.61" xmlns="http://www.w3.org/2000/svg" xmlns:xlink="http://www.w3.org/1999/xlink">
<g id="graph0" class="graph" transform="scale(1 1) rotate(0) translate(4 204.61)">
<title>calc_week</title>
<!-- Node1 -->
<g id="node1" class="node">
<title>Node1</title>
<g id="a_node1"><a xlink:title=" ">
<polygon fill="#999999" stroke="#666666" points="504,-110.5 441,-110.5 441,-91.5 504,-91.5 504,-110.5"/>
<text text-anchor="middle" x="472.5" y="-98.5" font-family="Helvetica,sans-Serif" font-size="10.00">calc_week</text>
</a>
</g>
</g>
<!-- Node2 -->
<g id="node2" class="node">
<title>Node2</title>
<g id="a_node2"><a xlink:href="../../dd/d60/classdoris_1_1_time_l_u_t_impl.html#a85c78b8ac8725a74ee46cbd720545d59" target="_top" xlink:title=" ">
<polygon fill="white" stroke="#666666" points="242,-146 139,-146 139,-116 242,-116 242,-146"/>
<text text-anchor="start" x="147" y="-134" font-family="Helvetica,sans-Serif" font-size="10.00">doris::TimeLUTImpl</text>
<text text-anchor="middle" x="190.5" y="-123" font-family="Helvetica,sans-Serif" font-size="10.00">::init_time_lut</text>
</a>
</g>
</g>
<!-- Node1&#45;&gt;Node2 -->
<g id="edge1" class="edge">
<title>Node1&#45;&gt;Node2</title>
<path fill="none" stroke="#63b8ff" d="M462.32,-121.03C451.75,-141.41 432.27,-171.81 405,-185 354.19,-209.58 332.26,-200.55 278,-185 251.79,-177.49 225.81,-159.47 209.27,-146.31"/>
<polygon fill="#63b8ff" stroke="#63b8ff" points="465.36,-122.8 466.61,-112.28 459.07,-119.72 465.36,-122.8"/>
</g>
<!-- Node4 -->
<g id="node4" class="node">
<title>Node4</title>
<g id="a_node4"><a xlink:href="../../d8/d34/classdoris_1_1vectorized_1_1_date_v2_value.html#a54826e9baac7f02cd0ca64280ac5d064" target="_top" xlink:title=" ">
<polygon fill="white" stroke="#666666" points="402,-175.5 281,-175.5 281,-134.5 402,-134.5 402,-175.5"/>
<text text-anchor="start" x="289" y="-163.5" font-family="Helvetica,sans-Serif" font-size="10.00">doris::vectorized::</text>
<text text-anchor="start" x="289" y="-152.5" font-family="Helvetica,sans-Serif" font-size="10.00">DateV2Value::to_format</text>
<text text-anchor="middle" x="341.5" y="-141.5" font-family="Helvetica,sans-Serif" font-size="10.00">_string</text>
</a>
</g>
</g>
<!-- Node1&#45;&gt;Node4 -->
<g id="edge3" class="edge">
<title>Node1&#45;&gt;Node4</title>
<path fill="none" stroke="#63b8ff" d="M437.39,-115.28C423.64,-121.04 407.5,-127.79 392.46,-134.08"/>
<polygon fill="#63b8ff" stroke="#63b8ff" points="438.57,-118.58 446.44,-111.49 435.87,-112.12 438.57,-118.58"/>
</g>
<!-- Node5 -->
<g id="node5" class="node">
<title>Node5</title>
<g id="a_node5"><a xlink:href="../../d8/d34/classdoris_1_1vectorized_1_1_date_v2_value.html#a66e229be9e62344dbbf19bc74cb07a68" target="_top" xlink:title=" ">
<polygon fill="white" stroke="#666666" points="393,-116 290,-116 290,-86 393,-86 393,-116"/>
<text text-anchor="start" x="298" y="-104" font-family="Helvetica,sans-Serif" font-size="10.00">doris::vectorized::</text>
<text text-anchor="middle" x="341.5" y="-93" font-family="Helvetica,sans-Serif" font-size="10.00">DateV2Value::week</text>
</a>
</g>
</g>
<!-- Node1&#45;&gt;Node5 -->
<g id="edge4" class="edge">
<title>Node1&#45;&gt;Node5</title>
<path fill="none" stroke="#63b8ff" d="M429.12,-101C417.67,-101 405.16,-101 393.29,-101"/>
<polygon fill="#63b8ff" stroke="#63b8ff" points="429.09,-104.5 439.09,-101 429.09,-97.5 429.09,-104.5"/>
</g>
<!-- Node6 -->
<g id="node6" class="node">
<title>Node6</title>
<g id="a_node6"><a xlink:href="../../d6/d94/namespacedoris.html#a9aa82b9495a09e44fd0d716ddec1597a" target="_top" xlink:title=" ">
<polygon fill="white" stroke="#666666" points="373.5,-67.5 309.5,-67.5 309.5,-48.5 373.5,-48.5 373.5,-67.5"/>
<text text-anchor="middle" x="341.5" y="-55.5" font-family="Helvetica,sans-Serif" font-size="10.00">year_week</text>
</a>
</g>
</g>
<!-- Node1&#45;&gt;Node6 -->
<g id="edge5" class="edge">
<title>Node1&#45;&gt;Node6</title>
<path fill="none" stroke="#63b8ff" d="M434.31,-87.2C424.79,-83.77 414.54,-80.17 405,-77 394.88,-73.64 383.77,-70.18 373.75,-67.16"/>
<polygon fill="#63b8ff" stroke="#63b8ff" points="433.06,-90.47 443.65,-90.59 435.45,-83.89 433.06,-90.47"/>
</g>
<!-- Node7 -->
<g id="node7" class="node">
<title>Node7</title>
<g id="a_node7"><a xlink:href="../../d8/d34/classdoris_1_1vectorized_1_1_date_v2_value.html#ab9be62eacd4c23444736f0903bf59178" target="_top" xlink:title=" ">
<polygon fill="white" stroke="#666666" points="405,-30 278,-30 278,0 405,0 405,-30"/>
<text text-anchor="start" x="286" y="-18" font-family="Helvetica,sans-Serif" font-size="10.00">doris::vectorized::</text>
<text text-anchor="middle" x="341.5" y="-7" font-family="Helvetica,sans-Serif" font-size="10.00">DateV2Value::year_week</text>
</a>
</g>
</g>
<!-- Node1&#45;&gt;Node7 -->
<g id="edge7" class="edge">
<title>Node1&#45;&gt;Node7</title>
<path fill="none" stroke="#63b8ff" d="M455.15,-82.81C442.49,-69.56 423.96,-51.93 405,-40 399.36,-36.45 393.13,-33.25 386.86,-30.41"/>
<polygon fill="#63b8ff" stroke="#63b8ff" points="452.51,-85.11 461.88,-90.04 457.64,-80.34 452.51,-85.11"/>
</g>
<!-- Node3 -->
<g id="node3" class="node">
<title>Node3</title>
<g id="a_node3"><a xlink:href="../../dd/d60/classdoris_1_1_time_l_u_t_impl.html#a70c98559285a065912ab5d84f6968001" target="_top" xlink:title=" ">
<polygon fill="white" stroke="#666666" points="103,-146 0,-146 0,-116 103,-116 103,-146"/>
<text text-anchor="start" x="8" y="-134" font-family="Helvetica,sans-Serif" font-size="10.00">doris::TimeLUTImpl</text>
<text text-anchor="middle" x="51.5" y="-123" font-family="Helvetica,sans-Serif" font-size="10.00">::TimeLUTImpl</text>
</a>
</g>
</g>
<!-- Node2&#45;&gt;Node3 -->
<g id="edge2" class="edge">
<title>Node2&#45;&gt;Node3</title>
<path fill="none" stroke="#63b8ff" d="M127.56,-131C119.47,-131 111.26,-131 103.37,-131"/>
<polygon fill="#63b8ff" stroke="#63b8ff" points="127.36,-134.5 137.36,-131 127.36,-127.5 127.36,-134.5"/>
</g>
<!-- Node6&#45;&gt;Node2 -->
<g id="edge6" class="edge">
<title>Node6&#45;&gt;Node2</title>
<path fill="none" stroke="#63b8ff" d="M298.36,-69.15C291.45,-71.45 284.44,-74.07 278,-77 254.47,-87.69 229.64,-103.75 212.65,-115.58"/>
<polygon fill="#63b8ff" stroke="#63b8ff" points="299.12,-72.58 307.63,-66.25 297.04,-65.89 299.12,-72.58"/>
</g>
</g>
</svg>
