<?xml version="1.0" encoding="UTF-8" standalone="no"?>
<!DOCTYPE svg PUBLIC "-//W3C//DTD SVG 1.1//EN"
 "http://www.w3.org/Graphics/SVG/1.1/DTD/svg11.dtd">
<!-- Generated by graphviz version 7.1.0 (20230121.1956)
 -->
<!-- Title: create_minmax_filter Pages: 1 -->
<svg width="450pt" height="86pt"
 viewBox="0.00 0.00 450.00 86.00" xmlns="http://www.w3.org/2000/svg" xmlns:xlink="http://www.w3.org/1999/xlink">
<g id="graph0" class="graph" transform="scale(1 1) rotate(0) translate(4 82)">
<title>create_minmax_filter</title>
<!-- Node1 -->
<g id="node1" class="node">
<title>Node1</title>
<g id="a_node1"><a xlink:title=" ">
<polygon fill="#999999" stroke="#666666" points="442,-48.5 335,-48.5 335,-29.5 442,-29.5 442,-48.5"/>
<text text-anchor="middle" x="388.5" y="-36.5" font-family="Helvetica,sans-Serif" font-size="10.00">create_minmax_filter</text>
</a>
</g>
</g>
<!-- Node2 -->
<g id="node2" class="node">
<title>Node2</title>
<g id="a_node2"><a xlink:href="../../d6/dc8/classdoris_1_1_runtime_predicate_wrapper.html#ae6c3b56950cd83ff987654ba5c9adec6" target="_top" xlink:title=" ">
<polygon fill="white" stroke="#666666" points="299,-78 141,-78 141,-48 299,-48 299,-78"/>
<text text-anchor="start" x="149" y="-66" font-family="Helvetica,sans-Serif" font-size="10.00">doris::RuntimePredicateWrapper</text>
<text text-anchor="middle" x="220" y="-55" font-family="Helvetica,sans-Serif" font-size="10.00">::assign</text>
</a>
</g>
</g>
<!-- Node1&#45;&gt;Node2 -->
<g id="edge1" class="edge">
<title>Node1&#45;&gt;Node2</title>
<path fill="none" stroke="#63b8ff" d="M323.51,-48.22C315.65,-49.36 307.54,-50.53 299.5,-51.69"/>
<polygon fill="#63b8ff" stroke="#63b8ff" points="323.92,-51.7 333.32,-46.81 322.92,-44.77 323.92,-51.7"/>
</g>
<!-- Node3 -->
<g id="node3" class="node">
<title>Node3</title>
<g id="a_node3"><a xlink:href="../../d6/dc8/classdoris_1_1_runtime_predicate_wrapper.html#a12342f96e63178c461a037b5e517774c" target="_top" xlink:title=" ">
<polygon fill="white" stroke="#666666" points="299,-30 141,-30 141,0 299,0 299,-30"/>
<text text-anchor="start" x="149" y="-18" font-family="Helvetica,sans-Serif" font-size="10.00">doris::RuntimePredicateWrapper</text>
<text text-anchor="middle" x="220" y="-7" font-family="Helvetica,sans-Serif" font-size="10.00">::init</text>
</a>
</g>
</g>
<!-- Node1&#45;&gt;Node3 -->
<g id="edge2" class="edge">
<title>Node1&#45;&gt;Node3</title>
<path fill="none" stroke="#63b8ff" d="M323.51,-29.78C315.65,-28.64 307.54,-27.47 299.5,-26.31"/>
<polygon fill="#63b8ff" stroke="#63b8ff" points="322.92,-33.23 333.32,-31.19 323.92,-26.3 322.92,-33.23"/>
</g>
<!-- Node4 -->
<g id="node4" class="node">
<title>Node4</title>
<g id="a_node4"><a xlink:href="../../d0/d80/classdoris_1_1_i_runtime_filter.html#ae9914b4a62dd21dad65ee05dcffbb22d" target="_top" xlink:title=" ">
<polygon fill="white" stroke="#666666" points="105,-30 0,-30 0,0 105,0 105,-30"/>
<text text-anchor="start" x="8" y="-18" font-family="Helvetica,sans-Serif" font-size="10.00">doris::IRuntimeFilter</text>
<text text-anchor="middle" x="52.5" y="-7" font-family="Helvetica,sans-Serif" font-size="10.00">::init_with_desc</text>
</a>
</g>
</g>
<!-- Node3&#45;&gt;Node4 -->
<g id="edge3" class="edge">
<title>Node3&#45;&gt;Node4</title>
<path fill="none" stroke="#63b8ff" d="M129.33,-15C121.07,-15 112.91,-15 105.17,-15"/>
<polygon fill="#63b8ff" stroke="#63b8ff" points="129.1,-18.5 139.1,-15 129.1,-11.5 129.1,-18.5"/>
</g>
</g>
</svg>
