<?xml version="1.0" encoding="UTF-8" standalone="no"?>
<!DOCTYPE svg PUBLIC "-//W3C//DTD SVG 1.1//EN"
 "http://www.w3.org/Graphics/SVG/1.1/DTD/svg11.dtd">
<!-- Generated by graphviz version 7.1.0 (20230121.1956)
 -->
<!-- Title: MergeRPCResults Pages: 1 -->
<svg width="570pt" height="264pt"
 viewBox="0.00 0.00 570.00 264.00" xmlns="http://www.w3.org/2000/svg" xmlns:xlink="http://www.w3.org/1999/xlink">
<g id="graph0" class="graph" transform="scale(1 1) rotate(0) translate(4 260)">
<title>MergeRPCResults</title>
<!-- Node1 -->
<g id="node1" class="node">
<title>Node1</title>
<g id="a_node1"><a xlink:title=" ">
<polygon fill="#999999" stroke="#666666" points="99,-74 0,-74 0,-55 99,-55 99,-74"/>
<text text-anchor="middle" x="49.5" y="-62" font-family="Helvetica,sans-Serif" font-size="10.00">MergeRPCResults</text>
</a>
</g>
</g>
<!-- Node2 -->
<g id="node2" class="node">
<title>Node2</title>
<g id="a_node2"><a xlink:href="../../d2/dfe/classdoris_1_1vectorized_1_1_mutable_block.html#a24dfe2f5189ed2d8accae4af39885f92" target="_top" xlink:title=" ">
<polygon fill="white" stroke="#666666" points="247.5,-177.5 138.5,-177.5 138.5,-147.5 247.5,-147.5 247.5,-177.5"/>
<text text-anchor="start" x="146.5" y="-165.5" font-family="Helvetica,sans-Serif" font-size="10.00">doris::vectorized::</text>
<text text-anchor="middle" x="193" y="-154.5" font-family="Helvetica,sans-Serif" font-size="10.00">MutableBlock::merge</text>
</a>
</g>
</g>
<!-- Node1&#45;&gt;Node2 -->
<g id="edge1" class="edge">
<title>Node1&#45;&gt;Node2</title>
<path fill="none" stroke="#63b8ff" d="M64.85,-74.44C87.16,-89.89 130.73,-120.06 160.59,-140.74"/>
<polygon fill="#63b8ff" stroke="#63b8ff" points="158.3,-143.42 168.51,-146.23 162.28,-137.66 158.3,-143.42"/>
</g>
<!-- Node10 -->
<g id="node10" class="node">
<title>Node10</title>
<g id="a_node10"><a xlink:href="../../d9/d8d/classdoris_1_1_status.html#a6ec1a217f203269ab53d2290d602db24" target="_top" xlink:title=" ">
<polygon fill="white" stroke="#666666" points="239,-93 147,-93 147,-74 239,-74 239,-93"/>
<text text-anchor="middle" x="193" y="-81" font-family="Helvetica,sans-Serif" font-size="10.00">doris::Status::OK</text>
</a>
</g>
</g>
<!-- Node1&#45;&gt;Node10 -->
<g id="edge12" class="edge">
<title>Node1&#45;&gt;Node10</title>
<path fill="none" stroke="#63b8ff" d="M99.2,-71.04C110.83,-72.6 123.34,-74.28 135.3,-75.89"/>
<polygon fill="#63b8ff" stroke="#63b8ff" points="134.67,-79.33 145.05,-77.2 135.6,-72.4 134.67,-79.33"/>
</g>
<!-- Node12 -->
<g id="node12" class="node">
<title>Node12</title>
<g id="a_node12"><a xlink:href="../../d9/d8d/classdoris_1_1_status.html#a03cb7eaa663dc83af68bc28a596d09e6" target="_top" xlink:title=" ">
<polygon fill="white" stroke="#666666" points="237.5,-56 148.5,-56 148.5,-37 237.5,-37 237.5,-56"/>
<text text-anchor="middle" x="193" y="-44" font-family="Helvetica,sans-Serif" font-size="10.00">doris::Status::ok</text>
</a>
</g>
</g>
<!-- Node1&#45;&gt;Node12 -->
<g id="edge14" class="edge">
<title>Node1&#45;&gt;Node12</title>
<path fill="none" stroke="#63b8ff" d="M99.2,-58.31C111.44,-56.75 124.66,-55.07 137.18,-53.47"/>
<polygon fill="#63b8ff" stroke="#63b8ff" points="137.45,-56.97 146.93,-52.23 136.56,-50.02 137.45,-56.97"/>
</g>
<!-- Node13 -->
<g id="node13" class="node">
<title>Node13</title>
<g id="a_node13"><a xlink:href="../../d9/d8d/classdoris_1_1_status.html#aac993ecccd3d88aafefb6b8e3caa1dee" target="_top" xlink:title=" ">
<polygon fill="white" stroke="#666666" points="251,-19 135,-19 135,0 251,0 251,-19"/>
<text text-anchor="middle" x="193" y="-7" font-family="Helvetica,sans-Serif" font-size="10.00">doris::Status::to_string</text>
</a>
</g>
</g>
<!-- Node1&#45;&gt;Node13 -->
<g id="edge15" class="edge">
<title>Node1&#45;&gt;Node13</title>
<path fill="none" stroke="#63b8ff" d="M71.43,-54.59C88.37,-46.75 112.96,-35.78 135,-27.5 139.09,-25.96 143.38,-24.45 147.69,-22.98"/>
<polygon fill="#63b8ff" stroke="#63b8ff" points="148.5,-26.4 156.9,-19.95 146.31,-19.75 148.5,-26.4"/>
</g>
<!-- Node3 -->
<g id="node3" class="node">
<title>Node3</title>
<g id="a_node3"><a xlink:href="../../d3/d1e/namespacedoris_1_1vectorized.html#a15491adacffd97f9c5b6efe5dd58f657" target="_top" xlink:title=" ">
<polygon fill="white" stroke="#666666" points="399.5,-256 291.5,-256 291.5,-237 399.5,-237 399.5,-256"/>
<text text-anchor="middle" x="345.5" y="-244" font-family="Helvetica,sans-Serif" font-size="10.00">doris::vectorized::get</text>
</a>
</g>
</g>
<!-- Node2&#45;&gt;Node3 -->
<g id="edge2" class="edge">
<title>Node2&#45;&gt;Node3</title>
<path fill="none" stroke="#63b8ff" d="M211.79,-177.72C229.75,-192.44 258.8,-214.52 287,-228.5 289.9,-229.94 292.94,-231.29 296.04,-232.56"/>
<polygon fill="#63b8ff" stroke="#63b8ff" points="294.71,-235.8 305.3,-236.01 297.15,-229.24 294.71,-235.8"/>
</g>
<!-- Node4 -->
<g id="node4" class="node">
<title>Node4</title>
<g id="a_node4"><a xlink:href="../../d2/dfe/classdoris_1_1vectorized_1_1_mutable_block.html#a58a4d1be629f650e56e65128893b2540" target="_top" xlink:title=" ">
<polygon fill="white" stroke="#666666" points="404,-219 287,-219 287,-178 404,-178 404,-219"/>
<text text-anchor="start" x="295" y="-207" font-family="Helvetica,sans-Serif" font-size="10.00">doris::vectorized::</text>
<text text-anchor="start" x="295" y="-196" font-family="Helvetica,sans-Serif" font-size="10.00">MutableBlock::initialize</text>
<text text-anchor="middle" x="345.5" y="-185" font-family="Helvetica,sans-Serif" font-size="10.00">_index_by_name</text>
</a>
</g>
</g>
<!-- Node2&#45;&gt;Node4 -->
<g id="edge3" class="edge">
<title>Node2&#45;&gt;Node4</title>
<path fill="none" stroke="#63b8ff" d="M247.91,-175.4C256.84,-177.53 266.22,-179.77 275.46,-181.99"/>
<polygon fill="#63b8ff" stroke="#63b8ff" points="274.63,-185.39 285.17,-184.31 276.26,-178.58 274.63,-185.39"/>
</g>
<!-- Node5 -->
<g id="node5" class="node">
<title>Node5</title>
<g id="a_node5"><a xlink:href="../../d3/d1e/namespacedoris_1_1vectorized.html#aac8e73eaa6aee54ea37e6d3fbfc970b6" target="_top" xlink:title=" ">
<polygon fill="white" stroke="#666666" points="393,-141.5 298,-141.5 298,-111.5 393,-111.5 393,-141.5"/>
<text text-anchor="start" x="306" y="-129.5" font-family="Helvetica,sans-Serif" font-size="10.00">doris::vectorized::</text>
<text text-anchor="middle" x="345.5" y="-118.5" font-family="Helvetica,sans-Serif" font-size="10.00">make_nullable</text>
</a>
</g>
</g>
<!-- Node2&#45;&gt;Node5 -->
<g id="edge4" class="edge">
<title>Node2&#45;&gt;Node5</title>
<path fill="none" stroke="#63b8ff" d="M247.91,-149.6C260.56,-146.58 274.1,-143.34 286.91,-140.28"/>
<polygon fill="#63b8ff" stroke="#63b8ff" points="287.56,-143.72 296.47,-137.99 285.93,-136.91 287.56,-143.72"/>
</g>
<!-- Node5&#45;&gt;Node5 -->
<g id="edge11" class="edge">
<title>Node5&#45;&gt;Node5</title>
<path fill="none" stroke="#63b8ff" d="M318.69,-141.78C312.74,-150.91 321.67,-159.5 345.5,-159.5 358.53,-159.5 367.11,-156.93 371.23,-153.11"/>
<polygon fill="#63b8ff" stroke="#63b8ff" points="374.7,-153.57 372.16,-143.28 367.73,-152.91 374.7,-153.57"/>
</g>
<!-- Node6 -->
<g id="node6" class="node">
<title>Node6</title>
<g id="a_node6"><a xlink:href="../../da/d30/class_c_o_w_helper.html#aa14023f47995d24ce0ea777e90a4cb23" target="_top" xlink:title=" ">
<polygon fill="white" stroke="#666666" points="562,-207.5 440,-207.5 440,-177.5 562,-177.5 562,-207.5"/>
<text text-anchor="start" x="448" y="-195.5" font-family="Helvetica,sans-Serif" font-size="10.00">COWHelper&lt; IColumn,</text>
<text text-anchor="middle" x="501" y="-184.5" font-family="Helvetica,sans-Serif" font-size="10.00"> ColumnConst &gt;::create</text>
</a>
</g>
</g>
<!-- Node5&#45;&gt;Node6 -->
<g id="edge5" class="edge">
<title>Node5&#45;&gt;Node6</title>
<path fill="none" stroke="#63b8ff" d="M393.42,-139.47C408.26,-145.72 424.77,-153.03 440,-159.5 449.75,-163.64 460.48,-167.99 470.13,-172.29"/>
<polygon fill="#63b8ff" stroke="#63b8ff" points="468.55,-175.41 479.09,-176.46 471.5,-169.07 468.55,-175.41"/>
</g>
<!-- Node5&#45;&gt;Node6 -->
<g id="edge6" class="edge">
<title>Node5&#45;&gt;Node6</title>
<path fill="none" stroke="#63b8ff" d="M365.03,-141.9C381.26,-151.27 405.83,-162.72 429.12,-172.83"/>
<polygon fill="#63b8ff" stroke="#63b8ff" points="427.73,-176.04 438.3,-176.77 430.49,-169.61 427.73,-176.04"/>
</g>
<!-- Node7 -->
<g id="node7" class="node">
<title>Node7</title>
<g id="a_node7"><a xlink:href="../../d4/d41/classdoris_1_1vectorized_1_1_column_nullable.html#aa56bff67215caba11a6411e09b739913" target="_top" xlink:title=" ">
<polygon fill="white" stroke="#666666" points="560.5,-141.5 441.5,-141.5 441.5,-111.5 560.5,-111.5 560.5,-141.5"/>
<text text-anchor="start" x="449.5" y="-129.5" font-family="Helvetica,sans-Serif" font-size="10.00">doris::vectorized::</text>
<text text-anchor="middle" x="501" y="-118.5" font-family="Helvetica,sans-Serif" font-size="10.00">ColumnNullable::create</text>
</a>
</g>
</g>
<!-- Node5&#45;&gt;Node7 -->
<g id="edge7" class="edge">
<title>Node5&#45;&gt;Node7</title>
<path fill="none" stroke="#63b8ff" d="M393.39,-126.5C404.93,-126.5 417.54,-126.5 429.92,-126.5"/>
<polygon fill="#63b8ff" stroke="#63b8ff" points="429.67,-130 439.67,-126.5 429.67,-123 429.67,-130"/>
</g>
<!-- Node8 -->
<g id="node8" class="node">
<title>Node8</title>
<g id="a_node8"><a xlink:href="../../d3/d1e/namespacedoris_1_1vectorized.html#a85dfa9ef8ec5a8555e00a9314d3a7f4d" target="_top" xlink:title="True if column&#39;s an ColumnConst instance. It&#39;s just a syntax sugar for type check.">
<polygon fill="white" stroke="#666666" points="548.5,-93.5 453.5,-93.5 453.5,-63.5 548.5,-63.5 548.5,-93.5"/>
<text text-anchor="start" x="461.5" y="-81.5" font-family="Helvetica,sans-Serif" font-size="10.00">doris::vectorized::</text>
<text text-anchor="middle" x="501" y="-70.5" font-family="Helvetica,sans-Serif" font-size="10.00">is_column_const</text>
</a>
</g>
</g>
<!-- Node5&#45;&gt;Node8 -->
<g id="edge9" class="edge">
<title>Node5&#45;&gt;Node8</title>
<path fill="none" stroke="#63b8ff" d="M393.39,-111.84C408.79,-107.02 426.09,-101.61 442.21,-96.57"/>
<polygon fill="#63b8ff" stroke="#63b8ff" points="443.19,-99.93 451.69,-93.61 441.1,-93.25 443.19,-99.93"/>
</g>
<!-- Node9 -->
<g id="node9" class="node">
<title>Node9</title>
<g id="a_node9"><a xlink:href="../../d3/d1e/namespacedoris_1_1vectorized.html#a53ba59a5e2f4e69160fec1ee139ff8df" target="_top" xlink:title="True if column&#39;s an ColumnNullable instance. It&#39;s just a syntax sugar for type check.">
<polygon fill="white" stroke="#666666" points="550.5,-45.5 451.5,-45.5 451.5,-15.5 550.5,-15.5 550.5,-45.5"/>
<text text-anchor="start" x="459.5" y="-33.5" font-family="Helvetica,sans-Serif" font-size="10.00">doris::vectorized::</text>
<text text-anchor="middle" x="501" y="-22.5" font-family="Helvetica,sans-Serif" font-size="10.00">is_column_nullable</text>
</a>
</g>
</g>
<!-- Node5&#45;&gt;Node9 -->
<g id="edge10" class="edge">
<title>Node5&#45;&gt;Node9</title>
<path fill="none" stroke="#63b8ff" d="M390.58,-111.03C395.32,-108.53 399.9,-105.69 404,-102.5 425.04,-86.12 418.83,-70.72 440,-54.5 441.31,-53.5 442.66,-52.53 444.06,-51.6"/>
<polygon fill="#63b8ff" stroke="#63b8ff" points="445.53,-54.8 452.39,-46.72 441.99,-48.75 445.53,-54.8"/>
</g>
<!-- Node7&#45;&gt;Node7 -->
<g id="edge8" class="edge">
<title>Node7&#45;&gt;Node7</title>
<path fill="none" stroke="#63b8ff" d="M473.67,-141.78C467.59,-150.91 476.7,-159.5 501,-159.5 514.29,-159.5 523.03,-156.93 527.24,-153.11"/>
<polygon fill="#63b8ff" stroke="#63b8ff" points="530.71,-153.57 528.19,-143.28 523.74,-152.9 530.71,-153.57"/>
</g>
<!-- Node11 -->
<g id="node11" class="node">
<title>Node11</title>
<g id="a_node11"><a xlink:href="../../d9/d8d/classdoris_1_1_status.html#aafde58df1b2a6a91d5b674373be3ffc5" target="_top" xlink:title=" ">
<polygon fill="white" stroke="#666666" points="399,-93 292,-93 292,-74 399,-74 399,-93"/>
<text text-anchor="middle" x="345.5" y="-81" font-family="Helvetica,sans-Serif" font-size="10.00">doris::Status::Status</text>
</a>
</g>
</g>
<!-- Node10&#45;&gt;Node11 -->
<g id="edge13" class="edge">
<title>Node10&#45;&gt;Node11</title>
<path fill="none" stroke="#63b8ff" d="M239.15,-83.5C252.07,-83.5 266.41,-83.5 280.24,-83.5"/>
<polygon fill="#63b8ff" stroke="#63b8ff" points="280.19,-87 290.19,-83.5 280.19,-80 280.19,-87"/>
</g>
</g>
</svg>
