<?xml version="1.0" encoding="UTF-8" standalone="no"?>
<!DOCTYPE svg PUBLIC "-//W3C//DTD SVG 1.1//EN"
 "http://www.w3.org/Graphics/SVG/1.1/DTD/svg11.dtd">
<!-- Generated by graphviz version 7.1.0 (20230121.1956)
 -->
<!-- Title: GetMonoTimeMicros Pages: 1 -->
<svg width="338pt" height="27pt"
 viewBox="0.00 0.00 338.00 27.00" xmlns="http://www.w3.org/2000/svg" xmlns:xlink="http://www.w3.org/1999/xlink">
<g id="graph0" class="graph" transform="scale(1 1) rotate(0) translate(4 23)">
<title>GetMonoTimeMicros</title>
<!-- Node1 -->
<g id="node1" class="node">
<title>Node1</title>
<g id="a_node1"><a xlink:title=" ">
<polygon fill="#999999" stroke="#666666" points="107,-19 0,-19 0,0 107,0 107,-19"/>
<text text-anchor="middle" x="53.5" y="-7" font-family="Helvetica,sans-Serif" font-size="10.00">GetMonoTimeMicros</text>
</a>
</g>
</g>
<!-- Node2 -->
<g id="node2" class="node">
<title>Node2</title>
<g id="a_node2"><a xlink:href="../../dc/dd3/clock__gettime_8c.html#a1033612ad5e07b4883265544a5361377" target="_top" xlink:title=" ">
<polygon fill="white" stroke="#666666" points="220,-19 143,-19 143,0 220,0 220,-19"/>
<text text-anchor="middle" x="181.5" y="-7" font-family="Helvetica,sans-Serif" font-size="10.00">clock_gettime</text>
</a>
</g>
</g>
<!-- Node1&#45;&gt;Node2 -->
<g id="edge1" class="edge">
<title>Node1&#45;&gt;Node2</title>
<path fill="none" stroke="#63b8ff" d="M107.21,-9.5C115.18,-9.5 123.38,-9.5 131.28,-9.5"/>
<polygon fill="#63b8ff" stroke="#63b8ff" points="131.05,-13 141.05,-9.5 131.05,-6 131.05,-13"/>
</g>
<!-- Node3 -->
<g id="node3" class="node">
<title>Node3</title>
<g id="a_node3"><a xlink:href="../../dc/df5/syscall__ret_8c.html#ac5a9fe7bbf4e56db4c22dbb286f18f45" target="_top" xlink:title=" ">
<polygon fill="white" stroke="#666666" points="330,-19 256,-19 256,0 330,0 330,-19"/>
<text text-anchor="middle" x="293" y="-7" font-family="Helvetica,sans-Serif" font-size="10.00">__syscall_ret</text>
</a>
</g>
</g>
<!-- Node2&#45;&gt;Node3 -->
<g id="edge2" class="edge">
<title>Node2&#45;&gt;Node3</title>
<path fill="none" stroke="#63b8ff" d="M220.49,-9.5C228.13,-9.5 236.24,-9.5 244.17,-9.5"/>
<polygon fill="#63b8ff" stroke="#63b8ff" points="244.04,-13 254.04,-9.5 244.04,-6 244.04,-13"/>
</g>
</g>
</svg>
