<?xml version="1.0" encoding="UTF-8" standalone="no"?>
<!DOCTYPE svg PUBLIC "-//W3C//DTD SVG 1.1//EN"
 "http://www.w3.org/Graphics/SVG/1.1/DTD/svg11.dtd">
<!-- Generated by graphviz version 7.1.0 (20230121.1956)
 -->
<!-- Title: parse_basic_auth Pages: 1 -->
<svg width="440pt" height="124pt"
 viewBox="0.00 0.00 440.00 123.50" xmlns="http://www.w3.org/2000/svg" xmlns:xlink="http://www.w3.org/1999/xlink">
<g id="graph0" class="graph" transform="scale(1 1) rotate(0) translate(4 119.5)">
<title>parse_basic_auth</title>
<!-- Node1 -->
<g id="node1" class="node">
<title>Node1</title>
<g id="a_node1"><a xlink:title=" ">
<polygon fill="#999999" stroke="#666666" points="432,-62 339,-62 339,-43 432,-43 432,-62"/>
<text text-anchor="middle" x="385.5" y="-50" font-family="Helvetica,sans-Serif" font-size="10.00">parse_basic_auth</text>
</a>
</g>
</g>
<!-- Node2 -->
<g id="node2" class="node">
<title>Node2</title>
<g id="a_node2"><a xlink:href="../../d4/d22/classdoris_1_1_stream_load_action.html#aa8dd37e44ed72ade003e1462b6643f85" target="_top" xlink:title=" ">
<polygon fill="white" stroke="#666666" points="293.5,-115.5 169.5,-115.5 169.5,-85.5 293.5,-85.5 293.5,-115.5"/>
<text text-anchor="start" x="177.5" y="-103.5" font-family="Helvetica,sans-Serif" font-size="10.00">doris::StreamLoadAction</text>
<text text-anchor="middle" x="231.5" y="-92.5" font-family="Helvetica,sans-Serif" font-size="10.00">::_on_header</text>
</a>
</g>
</g>
<!-- Node1&#45;&gt;Node2 -->
<g id="edge1" class="edge">
<title>Node1&#45;&gt;Node2</title>
<path fill="none" stroke="#63b8ff" d="M342.05,-65.9C323.19,-71.86 300.87,-78.91 281.32,-85.08"/>
<polygon fill="#63b8ff" stroke="#63b8ff" points="343.08,-69.25 351.56,-62.9 340.97,-62.58 343.08,-69.25"/>
</g>
<!-- Node4 -->
<g id="node4" class="node">
<title>Node4</title>
<g id="a_node4"><a xlink:href="../../d0/d4a/classdoris_1_1_stream_load2_p_c_action.html#ac19cf1dfbfc14c0169018218471fd806" target="_top" xlink:title=" ">
<polygon fill="white" stroke="#666666" points="303,-67.5 160,-67.5 160,-37.5 303,-37.5 303,-67.5"/>
<text text-anchor="start" x="168" y="-55.5" font-family="Helvetica,sans-Serif" font-size="10.00">doris::StreamLoad2PCAction</text>
<text text-anchor="middle" x="231.5" y="-44.5" font-family="Helvetica,sans-Serif" font-size="10.00">::handle</text>
</a>
</g>
</g>
<!-- Node1&#45;&gt;Node4 -->
<g id="edge3" class="edge">
<title>Node1&#45;&gt;Node4</title>
<path fill="none" stroke="#63b8ff" d="M327.58,-52.5C319.68,-52.5 311.49,-52.5 303.38,-52.5"/>
<polygon fill="#63b8ff" stroke="#63b8ff" points="327.38,-56 337.38,-52.5 327.38,-49 327.38,-56"/>
</g>
<!-- Node5 -->
<g id="node5" class="node">
<title>Node5</title>
<g id="a_node5"><a xlink:href="../../d6/d94/namespacedoris.html#a2632d5a4f14c5d1a55d55185c24454d7" target="_top" xlink:title=" ">
<polygon fill="white" stroke="#666666" points="278,-19 185,-19 185,0 278,0 278,-19"/>
<text text-anchor="middle" x="231.5" y="-7" font-family="Helvetica,sans-Serif" font-size="10.00">parse_basic_auth</text>
</a>
</g>
</g>
<!-- Node1&#45;&gt;Node5 -->
<g id="edge4" class="edge">
<title>Node1&#45;&gt;Node5</title>
<path fill="none" stroke="#63b8ff" d="M340.46,-39.33C328.34,-35.76 315.17,-31.93 303,-28.5 292.39,-25.51 280.84,-22.35 270.23,-19.5"/>
<polygon fill="#63b8ff" stroke="#63b8ff" points="339.21,-42.61 349.79,-42.09 341.19,-35.9 339.21,-42.61"/>
</g>
<!-- Node3 -->
<g id="node3" class="node">
<title>Node3</title>
<g id="a_node3"><a xlink:href="../../d4/d22/classdoris_1_1_stream_load_action.html#ab55c42c813043e75d66e299d76db3fc2" target="_top" xlink:title=" ">
<polygon fill="white" stroke="#666666" points="124,-115.5 0,-115.5 0,-85.5 124,-85.5 124,-115.5"/>
<text text-anchor="start" x="8" y="-103.5" font-family="Helvetica,sans-Serif" font-size="10.00">doris::StreamLoadAction</text>
<text text-anchor="middle" x="62" y="-92.5" font-family="Helvetica,sans-Serif" font-size="10.00">::on_header</text>
</a>
</g>
</g>
<!-- Node2&#45;&gt;Node3 -->
<g id="edge2" class="edge">
<title>Node2&#45;&gt;Node3</title>
<path fill="none" stroke="#63b8ff" d="M157.65,-100.5C146.57,-100.5 135.22,-100.5 124.41,-100.5"/>
<polygon fill="#63b8ff" stroke="#63b8ff" points="157.57,-104 167.57,-100.5 157.57,-97 157.57,-104"/>
</g>
</g>
</svg>
