<?xml version="1.0" encoding="UTF-8" standalone="no"?>
<!DOCTYPE svg PUBLIC "-//W3C//DTD SVG 1.1//EN"
 "http://www.w3.org/Graphics/SVG/1.1/DTD/svg11.dtd">
<!-- Generated by graphviz version 7.1.0 (20230121.1956)
 -->
<!-- Title: create_type_info_ptr Pages: 1 -->
<!--zoomable 221 -->
<svg id="main" version="1.1" xmlns="http://www.w3.org/2000/svg" xmlns:xlink="http://www.w3.org/1999/xlink" xml:space="preserve" onload="init(evt)">
<style type="text/css"><![CDATA[
.edge:hover path { stroke: red; }
.edge:hover polygon { stroke: red; fill: red; }
]]></style>
<script type="text/javascript"><![CDATA[
var edges = document.getElementsByTagName('g');
if (edges && edges.length) {
  for (var i=0;i<edges.length;i++) {
    if (edges[i].id.substr(0,4)=='edge') {
      edges[i].setAttribute('class','edge');
    }
  }
}
]]></script>
        <defs>
                <circle id="rim" cx="0" cy="0" r="7"/>
                <circle id="rim2" cx="0" cy="0" r="3.5"/>
                <g id="zoomPlus">
                        <use xlink:href="#rim" fill="#404040">
                                <set attributeName="fill" to="#808080" begin="zoomplus.mouseover" end="zoomplus.mouseout"/>
                        </use>
                        <path d="M-4,0h8M0,-4v8" fill="none" stroke="white" stroke-width="1.5" pointer-events="none"/>
                </g>
                <g id="zoomMin">
                        <use xlink:href="#rim" fill="#404040">
                                <set attributeName="fill" to="#808080" begin="zoomminus.mouseover" end="zoomminus.mouseout"/>
                        </use>
                        <path d="M-4,0h8" fill="none" stroke="white" stroke-width="1.5" pointer-events="none"/>
                </g>
                <g id="dirArrow">
                        <path fill="none" stroke="white" stroke-width="1.5" d="M0,-3.0v7 M-2.5,-0.5L0,-3.0L2.5,-0.5"/>
                </g>
               <g id="resetDef">
                       <use xlink:href="#rim2" fill="#404040">
                               <set attributeName="fill" to="#808080" begin="reset.mouseover" end="reset.mouseout"/>
                       </use>
               </g>
        </defs>

<script type="text/javascript">
var viewWidth = 768;
var viewHeight = 221;
var sectionId = 'dynsection-159';
</script>
<script xlink:href="../../svgpan.js"/>
<svg id="graph" class="graph">
<g id="viewport">
<title>create_type_info_ptr</title>
<!-- Node1 -->
<g id="node1" class="node">
<title>Node1</title>
<g id="a_node1"><a xlink:title=" ">
<polygon fill="#999999" stroke="#666666" points="760,-171 655,-171 655,-152 760,-152 760,-171"/>
<text text-anchor="middle" x="707.5" y="-159" font-family="Helvetica,sans-Serif" font-size="10.00">create_type_info_ptr</text>
</a>
</g>
</g>
<!-- Node2 -->
<g id="node2" class="node">
<title>Node2</title>
<g id="a_node2"><a xlink:href="../../d6/d94/namespacedoris.html#a40cb2428818ec90c0f549bccc28ede0a" target="_top" xlink:title=" ">
<polygon fill="white" stroke="#666666" points="619,-200.5 509,-200.5 509,-170.5 619,-170.5 619,-200.5"/>
<text text-anchor="start" x="517" y="-188.5" font-family="Helvetica,sans-Serif" font-size="10.00">create_dynamic_type</text>
<text text-anchor="middle" x="564" y="-177.5" font-family="Helvetica,sans-Serif" font-size="10.00">_info_ptr</text>
</a>
</g>
</g>
<!-- Node1&#45;&gt;Node2 -->
<g id="edge1" class="edge">
<title>Node1&#45;&gt;Node2</title>
<path fill="none" stroke="#63b8ff" d="M643.37,-172.21C635.32,-173.57 627.15,-174.96 619.26,-176.3"/>
<polygon fill="#63b8ff" stroke="#63b8ff" points="643.85,-175.68 653.12,-170.55 642.68,-168.78 643.85,-175.68"/>
</g>
<!-- Node5 -->
<g id="node5" class="node">
<title>Node5</title>
<g id="a_node5"><a xlink:href="../../d6/d94/namespacedoris.html#a24702cadf2d68c53593f3facd6461888" target="_top" xlink:title=" ">
<polygon fill="white" stroke="#666666" points="612.5,-152.5 515.5,-152.5 515.5,-122.5 612.5,-122.5 612.5,-152.5"/>
<text text-anchor="start" x="523.5" y="-140.5" font-family="Helvetica,sans-Serif" font-size="10.00">create_static_type</text>
<text text-anchor="middle" x="564" y="-129.5" font-family="Helvetica,sans-Serif" font-size="10.00">_info_ptr</text>
</a>
</g>
</g>
<!-- Node1&#45;&gt;Node5 -->
<g id="edge5" class="edge">
<title>Node1&#45;&gt;Node5</title>
<path fill="none" stroke="#63b8ff" d="M643.5,-150.82C633.14,-149.06 622.56,-147.26 612.66,-145.58"/>
<polygon fill="#63b8ff" stroke="#63b8ff" points="642.68,-154.22 653.12,-152.45 643.85,-147.32 642.68,-154.22"/>
</g>
<!-- Node3 -->
<g id="node3" class="node">
<title>Node3</title>
<g id="a_node3"><a xlink:href="../../d6/d94/namespacedoris.html#a6a4c0b9931193f04775a78d921b8a8cd" target="_top" xlink:title=" ">
<polygon fill="white" stroke="#666666" points="454.5,-195 369.5,-195 369.5,-176 454.5,-176 454.5,-195"/>
<text text-anchor="middle" x="412" y="-183" font-family="Helvetica,sans-Serif" font-size="10.00">clone_type_info</text>
</a>
</g>
</g>
<!-- Node2&#45;&gt;Node3 -->
<g id="edge2" class="edge">
<title>Node2&#45;&gt;Node3</title>
<path fill="none" stroke="#63b8ff" d="M497.4,-185.5C482.96,-185.5 468.04,-185.5 454.83,-185.5"/>
<polygon fill="#63b8ff" stroke="#63b8ff" points="497.33,-189 507.33,-185.5 497.33,-182 497.33,-189"/>
</g>
<!-- Node3&#45;&gt;Node3 -->
<g id="edge4" class="edge">
<title>Node3&#45;&gt;Node3</title>
<path fill="none" stroke="#63b8ff" d="M438.98,-206.43C435.61,-210.29 426.61,-213 412,-213 385.28,-213 377.35,-203.94 388.2,-195.37"/>
<polygon fill="#63b8ff" stroke="#63b8ff" points="442.34,-205.46 436.21,-196.82 435.62,-207.4 442.34,-205.46"/>
</g>
<!-- Node4 -->
<g id="node4" class="node">
<title>Node4</title>
<g id="a_node4"><a xlink:href="../../de/d5b/classdoris_1_1_field.html#a77430b7600d6bf3978db8709ae8ed95f" target="_top" xlink:title=" ">
<polygon fill="white" stroke="#666666" points="299.5,-195 205.5,-195 205.5,-176 299.5,-176 299.5,-195"/>
<text text-anchor="middle" x="252.5" y="-183" font-family="Helvetica,sans-Serif" font-size="10.00">doris::Field::clone</text>
</a>
</g>
</g>
<!-- Node3&#45;&gt;Node4 -->
<g id="edge3" class="edge">
<title>Node3&#45;&gt;Node4</title>
<path fill="none" stroke="#63b8ff" d="M357.84,-185.5C339.06,-185.5 318.11,-185.5 299.93,-185.5"/>
<polygon fill="#63b8ff" stroke="#63b8ff" points="357.69,-189 367.69,-185.5 357.69,-182 357.69,-189"/>
</g>
<!-- Node5&#45;&gt;Node3 -->
<g id="edge6" class="edge">
<title>Node5&#45;&gt;Node3</title>
<path fill="none" stroke="#63b8ff" d="M507.14,-156.41C495.86,-160.15 484.07,-164 473,-167.5 464.5,-170.19 455.29,-173.01 446.69,-175.59"/>
<polygon fill="#63b8ff" stroke="#63b8ff" points="507.94,-159.83 516.33,-153.35 505.73,-153.19 507.94,-159.83"/>
</g>
<!-- Node6 -->
<g id="node6" class="node">
<title>Node6</title>
<g id="a_node6"><a xlink:href="../../d6/d94/namespacedoris.html#a40c98bb24cb502585e31a9443c51ecb6" target="_top" xlink:title=" ">
<polygon fill="white" stroke="#666666" points="473,-158 351,-158 351,-139 473,-139 473,-158"/>
<text text-anchor="middle" x="412" y="-146" font-family="Helvetica,sans-Serif" font-size="10.00">get_collection_type_info</text>
</a>
</g>
</g>
<!-- Node5&#45;&gt;Node6 -->
<g id="edge7" class="edge">
<title>Node5&#45;&gt;Node6</title>
<path fill="none" stroke="#63b8ff" d="M503.65,-141.85C493.68,-142.58 483.32,-143.34 473.33,-144.08"/>
<polygon fill="#63b8ff" stroke="#63b8ff" points="503.9,-145.34 513.62,-141.12 503.39,-138.36 503.9,-145.34"/>
</g>
<!-- Node7 -->
<g id="node7" class="node">
<title>Node7</title>
<g id="a_node7"><a xlink:href="../../d6/d94/namespacedoris.html#a4805c1422d3a1436fd2a9a97e418c720" target="_top" xlink:title=" ">
<polygon fill="white" stroke="#666666" points="472,-121 352,-121 352,-102 472,-102 472,-121"/>
<text text-anchor="middle" x="412" y="-109" font-family="Helvetica,sans-Serif" font-size="10.00">get_init_array_type_info</text>
</a>
</g>
</g>
<!-- Node5&#45;&gt;Node7 -->
<g id="edge8" class="edge">
<title>Node5&#45;&gt;Node7</title>
<path fill="none" stroke="#63b8ff" d="M503.93,-127.26C492.98,-125.36 481.56,-123.38 470.65,-121.49"/>
<polygon fill="#63b8ff" stroke="#63b8ff" points="503.18,-130.68 513.64,-128.94 504.38,-123.79 503.18,-130.68"/>
</g>
<!-- Node8 -->
<g id="node8" class="node">
<title>Node8</title>
<g id="a_node8"><a xlink:href="../../d6/d94/namespacedoris.html#aa856bf9f48834b3af9aa35490b4981d0" target="_top" xlink:title=" ">
<polygon fill="white" stroke="#666666" points="449.5,-84 374.5,-84 374.5,-65 449.5,-65 449.5,-84"/>
<text text-anchor="middle" x="412" y="-72" font-family="Helvetica,sans-Serif" font-size="10.00">get_type_info</text>
</a>
</g>
</g>
<!-- Node5&#45;&gt;Node8 -->
<g id="edge9" class="edge">
<title>Node5&#45;&gt;Node8</title>
<path fill="none" stroke="#63b8ff" d="M525.25,-116.81C509.39,-108.6 490.58,-99.47 473,-92.5 465.62,-89.57 457.57,-86.85 449.83,-84.46"/>
<polygon fill="#63b8ff" stroke="#63b8ff" points="523.38,-119.78 533.86,-121.33 526.63,-113.58 523.38,-119.78"/>
</g>
<!-- Node9 -->
<g id="node9" class="node">
<title>Node9</title>
<g id="a_node9"><a xlink:href="../../df/d31/classdoris_1_1_row_block_changer.html#a99943c3764aab4692656dd9dff62d26e" target="_top" xlink:title=" ">
<polygon fill="white" stroke="#666666" points="315,-137.5 190,-137.5 190,-107.5 315,-107.5 315,-137.5"/>
<text text-anchor="start" x="198" y="-125.5" font-family="Helvetica,sans-Serif" font-size="10.00">doris::RowBlockChanger</text>
<text text-anchor="middle" x="252.5" y="-114.5" font-family="Helvetica,sans-Serif" font-size="10.00">::change_block</text>
</a>
</g>
</g>
<!-- Node8&#45;&gt;Node9 -->
<g id="edge10" class="edge">
<title>Node8&#45;&gt;Node9</title>
<path fill="none" stroke="#63b8ff" d="M366.85,-87.71C361.51,-89.32 356.13,-90.94 351,-92.5 335.58,-97.19 318.8,-102.33 303.58,-107.02"/>
<polygon fill="#63b8ff" stroke="#63b8ff" points="367.65,-91.12 376.21,-84.89 365.63,-84.42 367.65,-91.12"/>
</g>
<!-- Node12 -->
<g id="node12" class="node">
<title>Node12</title>
<g id="a_node12"><a xlink:href="../../d3/d99/classdoris_1_1segment__v2_1_1_column_reader.html#a223508714f7b7c2a338265d09a23a25f" target="_top" xlink:title=" ">
<polygon fill="white" stroke="#666666" points="304,-89.5 201,-89.5 201,-59.5 304,-59.5 304,-89.5"/>
<text text-anchor="start" x="209" y="-77.5" font-family="Helvetica,sans-Serif" font-size="10.00">doris::segment_v2::</text>
<text text-anchor="middle" x="252.5" y="-66.5" font-family="Helvetica,sans-Serif" font-size="10.00">ColumnReader::init</text>
</a>
</g>
</g>
<!-- Node8&#45;&gt;Node12 -->
<g id="edge13" class="edge">
<title>Node8&#45;&gt;Node12</title>
<path fill="none" stroke="#63b8ff" d="M362.63,-74.5C344.11,-74.5 322.94,-74.5 304.21,-74.5"/>
<polygon fill="#63b8ff" stroke="#63b8ff" points="362.56,-78 372.56,-74.5 362.56,-71 362.56,-78"/>
</g>
<!-- Node13 -->
<g id="node13" class="node">
<title>Node13</title>
<g id="a_node13"><a xlink:href="../../d5/dd3/classdoris_1_1segment__v2_1_1_segment.html#a3022b0b3696e6dd7e04a6d7a098a935c" target="_top" xlink:title=" ">
<polygon fill="white" stroke="#666666" points="310.5,-41 194.5,-41 194.5,0 310.5,0 310.5,-41"/>
<text text-anchor="start" x="202.5" y="-29" font-family="Helvetica,sans-Serif" font-size="10.00">doris::segment_v2::</text>
<text text-anchor="start" x="202.5" y="-18" font-family="Helvetica,sans-Serif" font-size="10.00">Segment::new_column</text>
<text text-anchor="middle" x="252.5" y="-7" font-family="Helvetica,sans-Serif" font-size="10.00">_iterator</text>
</a>
</g>
</g>
<!-- Node8&#45;&gt;Node13 -->
<g id="edge14" class="edge">
<title>Node8&#45;&gt;Node13</title>
<path fill="none" stroke="#63b8ff" d="M371.27,-60.88C352.99,-54.61 330.96,-47.06 310.92,-40.19"/>
<polygon fill="#63b8ff" stroke="#63b8ff" points="370.09,-64.17 380.68,-64.1 372.36,-57.55 370.09,-64.17"/>
</g>
<!-- Node10 -->
<g id="node10" class="node">
<title>Node10</title>
<g id="a_node10"><a xlink:href="../../da/d81/classdoris_1_1_v_schema_change_directly.html#a0d8656af3adfb25b565ff4c3e0fe9fc5" target="_top" xlink:title=" ">
<polygon fill="white" stroke="#666666" points="154,-161.5 0,-161.5 0,-131.5 154,-131.5 154,-161.5"/>
<text text-anchor="start" x="8" y="-149.5" font-family="Helvetica,sans-Serif" font-size="10.00">doris::VSchemaChangeDirectly</text>
<text text-anchor="middle" x="77" y="-138.5" font-family="Helvetica,sans-Serif" font-size="10.00">::_inner_process</text>
</a>
</g>
</g>
<!-- Node9&#45;&gt;Node10 -->
<g id="edge11" class="edge">
<title>Node9&#45;&gt;Node10</title>
<path fill="none" stroke="#63b8ff" d="M178.63,-132.58C170.6,-133.69 162.41,-134.82 154.34,-135.94"/>
<polygon fill="#63b8ff" stroke="#63b8ff" points="178.92,-136.07 188.34,-131.24 177.96,-129.14 178.92,-136.07"/>
</g>
<!-- Node11 -->
<g id="node11" class="node">
<title>Node11</title>
<g id="a_node11"><a xlink:href="../../dc/d38/classdoris_1_1_v_schema_change_with_sorting.html#a0d8656af3adfb25b565ff4c3e0fe9fc5" target="_top" xlink:title=" ">
<polygon fill="white" stroke="#666666" points="147,-113.5 7,-113.5 7,-83.5 147,-83.5 147,-113.5"/>
<text text-anchor="start" x="15" y="-101.5" font-family="Helvetica,sans-Serif" font-size="10.00">doris::VSchemaChangeWith</text>
<text text-anchor="middle" x="77" y="-90.5" font-family="Helvetica,sans-Serif" font-size="10.00">Sorting::_inner_process</text>
</a>
</g>
</g>
<!-- Node9&#45;&gt;Node11 -->
<g id="edge12" class="edge">
<title>Node9&#45;&gt;Node11</title>
<path fill="none" stroke="#63b8ff" d="M178.73,-112.43C168.37,-111 157.73,-109.53 147.43,-108.1"/>
<polygon fill="#63b8ff" stroke="#63b8ff" points="177.96,-115.86 188.34,-113.76 178.92,-108.93 177.96,-115.86"/>
</g>
</g>
</svg>
        <g id="navigator" transform="translate(0 0)" fill="#404254">
                <rect fill="#f2f5e9" fill-opacity="0.5" stroke="#606060" stroke-width=".5" x="0" y="0" width="60" height="60"/>
                <use id="zoomplus" xlink:href="#zoomPlus" x="17" y="9" onmousedown="handleZoom(evt,'in')"/>
                <use id="zoomminus" xlink:href="#zoomMin" x="42" y="9" onmousedown="handleZoom(evt,'out')"/>
                <use id="reset" xlink:href="#resetDef" x="30" y="36" onmousedown="handleReset()"/>
                <g id="arrowUp" xlink:href="#dirArrow" transform="translate(30 24)" onmousedown="handlePan(0,-1)">
                  <use xlink:href="#rim" fill="#404040">
                        <set attributeName="fill" to="#808080" begin="arrowUp.mouseover" end="arrowUp.mouseout"/>
                  </use>
                  <path fill="none" stroke="white" stroke-width="1.5" d="M0,-3.0v7 M-2.5,-0.5L0,-3.0L2.5,-0.5"/>
                </g>
                <g id="arrowRight" xlink:href="#dirArrow" transform="rotate(90) translate(36 -43)" onmousedown="handlePan(1,0)">
                  <use xlink:href="#rim" fill="#404040">
                        <set attributeName="fill" to="#808080" begin="arrowRight.mouseover" end="arrowRight.mouseout"/>
                  </use>
                  <path fill="none" stroke="white" stroke-width="1.5" d="M0,-3.0v7 M-2.5,-0.5L0,-3.0L2.5,-0.5"/>
                </g>
                <g id="arrowDown" xlink:href="#dirArrow" transform="rotate(180) translate(-30 -48)" onmousedown="handlePan(0,1)">
                  <use xlink:href="#rim" fill="#404040">
                        <set attributeName="fill" to="#808080" begin="arrowDown.mouseover" end="arrowDown.mouseout"/>
                  </use>
                  <path fill="none" stroke="white" stroke-width="1.5" d="M0,-3.0v7 M-2.5,-0.5L0,-3.0L2.5,-0.5"/>
                </g>
                <g id="arrowLeft" xlink:href="#dirArrow" transform="rotate(270) translate(-36 17)" onmousedown="handlePan(-1,0)">
                  <use xlink:href="#rim" fill="#404040">
                        <set attributeName="fill" to="#808080" begin="arrowLeft.mouseover" end="arrowLeft.mouseout"/>
                  </use>
                  <path fill="none" stroke="white" stroke-width="1.5" d="M0,-3.0v7 M-2.5,-0.5L0,-3.0L2.5,-0.5"/>
                </g>
        </g>
        <svg viewBox="0 0 15 15" width="100%" height="30px" preserveAspectRatio="xMaxYMin meet">
         <g id="arrow_out" transform="scale(0.3 0.3)">
          <a xlink:href="namespacedoris_a230c919c0ccd0f75e172dffce6640077_icgraph_org.svg" target="_base">
           <rect id="button" ry="5" rx="5" y="6" x="6" height="38" width="38"
                fill="#f2f5e9" fill-opacity="0.5" stroke="#606060" stroke-width="1.0"/>
           <path id="arrow"
             d="M 11.500037,31.436501 C 11.940474,20.09759 22.043105,11.32322 32.158766,21.979434 L 37.068811,17.246167 C 37.068811,17.246167 37.088388,32 37.088388,32 L 22.160133,31.978069 C 22.160133,31.978069 26.997745,27.140456 26.997745,27.140456 C 18.528582,18.264221 13.291696,25.230495 11.500037,31.436501 z"
             style="fill:#404040;"/>
          </a>
         </g>
        </svg>
</svg>
