<?xml version="1.0" encoding="UTF-8" standalone="no"?>
<!DOCTYPE svg PUBLIC "-//W3C//DTD SVG 1.1//EN"
 "http://www.w3.org/Graphics/SVG/1.1/DTD/svg11.dtd">
<!-- Generated by graphviz version 7.1.0 (20230121.1956)
 -->
<!-- Title: runtime_filter_merge_entity_close Pages: 1 -->
<svg width="586pt" height="135pt"
 viewBox="0.00 0.00 586.00 134.50" xmlns="http://www.w3.org/2000/svg" xmlns:xlink="http://www.w3.org/1999/xlink">
<g id="graph0" class="graph" transform="scale(1 1) rotate(0) translate(4 130.5)">
<title>runtime_filter_merge_entity_close</title>
<!-- Node1 -->
<g id="node1" class="node">
<title>Node1</title>
<g id="a_node1"><a xlink:title=" ">
<polygon fill="#999999" stroke="#666666" points="105,-97 0,-97 0,-67 105,-67 105,-97"/>
<text text-anchor="start" x="8" y="-85" font-family="Helvetica,sans-Serif" font-size="10.00">runtime_filter_merge</text>
<text text-anchor="middle" x="52.5" y="-74" font-family="Helvetica,sans-Serif" font-size="10.00">_entity_close</text>
</a>
</g>
</g>
<!-- Node2 -->
<g id="node2" class="node">
<title>Node2</title>
<g id="a_node2"><a xlink:href="../../d4/d5d/classdoris_1_1_runtime_filter_merge_controller_entity.html#a274bb5d603c80806032ce57ea4fd2b69" target="_top" xlink:title=" ">
<polygon fill="white" stroke="#666666" points="270,-121 141,-121 141,-91 270,-91 270,-121"/>
<text text-anchor="start" x="149" y="-109" font-family="Helvetica,sans-Serif" font-size="10.00">doris::RuntimeFilterMerge</text>
<text text-anchor="middle" x="205.5" y="-98" font-family="Helvetica,sans-Serif" font-size="10.00">ControllerEntity::query_id</text>
</a>
</g>
</g>
<!-- Node1&#45;&gt;Node2 -->
<g id="edge1" class="edge">
<title>Node1&#45;&gt;Node2</title>
<path fill="none" stroke="#63b8ff" d="M105.47,-90.26C113.18,-91.49 121.25,-92.77 129.32,-94.05"/>
<polygon fill="#63b8ff" stroke="#63b8ff" points="128.77,-97.51 139.2,-95.62 129.87,-90.59 128.77,-97.51"/>
</g>
<!-- Node3 -->
<g id="node3" class="node">
<title>Node3</title>
<g id="a_node3"><a xlink:href="../../d5/d37/classdoris_1_1_runtime_filter_merge_controller.html#a1290c5bf8bdca0e71f37a916fe98d051" target="_top" xlink:title=" ">
<polygon fill="white" stroke="#666666" points="270,-73 141,-73 141,-43 270,-43 270,-73"/>
<text text-anchor="start" x="149" y="-61" font-family="Helvetica,sans-Serif" font-size="10.00">doris::RuntimeFilterMerge</text>
<text text-anchor="middle" x="205.5" y="-50" font-family="Helvetica,sans-Serif" font-size="10.00">Controller::remove_entity</text>
</a>
</g>
</g>
<!-- Node1&#45;&gt;Node3 -->
<g id="edge2" class="edge">
<title>Node1&#45;&gt;Node3</title>
<path fill="none" stroke="#63b8ff" d="M105.47,-73.74C113.18,-72.51 121.25,-71.23 129.32,-69.95"/>
<polygon fill="#63b8ff" stroke="#63b8ff" points="129.87,-73.41 139.2,-68.38 128.77,-66.49 129.87,-73.41"/>
</g>
<!-- Node4 -->
<g id="node4" class="node">
<title>Node4</title>
<g id="a_node4"><a xlink:href="../../d5/d37/classdoris_1_1_runtime_filter_merge_controller.html#a783c1bc080eab4a2de255a63db27e336" target="_top" xlink:title=" ">
<polygon fill="white" stroke="#666666" points="435,-126.5 306,-126.5 306,-85.5 435,-85.5 435,-126.5"/>
<text text-anchor="start" x="314" y="-114.5" font-family="Helvetica,sans-Serif" font-size="10.00">doris::RuntimeFilterMerge</text>
<text text-anchor="start" x="314" y="-103.5" font-family="Helvetica,sans-Serif" font-size="10.00">Controller::_get_controller</text>
<text text-anchor="middle" x="370.5" y="-92.5" font-family="Helvetica,sans-Serif" font-size="10.00">_shard_idx</text>
</a>
</g>
</g>
<!-- Node3&#45;&gt;Node4 -->
<g id="edge3" class="edge">
<title>Node3&#45;&gt;Node4</title>
<path fill="none" stroke="#63b8ff" d="M258.97,-73.45C270.37,-76.81 282.64,-80.42 294.72,-83.98"/>
<polygon fill="#63b8ff" stroke="#63b8ff" points="293.69,-87.32 304.27,-86.79 295.67,-80.61 293.69,-87.32"/>
</g>
<!-- Node5 -->
<g id="node5" class="node">
<title>Node5</title>
<g id="a_node5"><a xlink:href="../../d9/d8d/classdoris_1_1_status.html#a6ec1a217f203269ab53d2290d602db24" target="_top" xlink:title=" ">
<polygon fill="white" stroke="#666666" points="416.5,-67.5 324.5,-67.5 324.5,-48.5 416.5,-48.5 416.5,-67.5"/>
<text text-anchor="middle" x="370.5" y="-55.5" font-family="Helvetica,sans-Serif" font-size="10.00">doris::Status::OK</text>
</a>
</g>
</g>
<!-- Node3&#45;&gt;Node5 -->
<g id="edge4" class="edge">
<title>Node3&#45;&gt;Node5</title>
<path fill="none" stroke="#63b8ff" d="M270.45,-58C284.53,-58 299.34,-58 313.09,-58"/>
<polygon fill="#63b8ff" stroke="#63b8ff" points="312.84,-61.5 322.84,-58 312.84,-54.5 312.84,-61.5"/>
</g>
<!-- Node7 -->
<g id="node7" class="node">
<title>Node7</title>
<g id="a_node7"><a xlink:href="../../db/dd0/structdoris_1_1_unique_id.html#aac993ecccd3d88aafefb6b8e3caa1dee" target="_top" xlink:title=" ">
<polygon fill="white" stroke="#666666" points="419,-30 322,-30 322,0 419,0 419,-30"/>
<text text-anchor="start" x="330" y="-18" font-family="Helvetica,sans-Serif" font-size="10.00">doris::UniqueId::to</text>
<text text-anchor="middle" x="370.5" y="-7" font-family="Helvetica,sans-Serif" font-size="10.00">_string</text>
</a>
</g>
</g>
<!-- Node3&#45;&gt;Node7 -->
<g id="edge6" class="edge">
<title>Node3&#45;&gt;Node7</title>
<path fill="none" stroke="#63b8ff" d="M264.89,-42.6C279.74,-38.68 295.7,-34.47 310.58,-30.54"/>
<polygon fill="#63b8ff" stroke="#63b8ff" points="311.47,-33.93 320.24,-27.99 309.68,-27.16 311.47,-33.93"/>
</g>
<!-- Node6 -->
<g id="node6" class="node">
<title>Node6</title>
<g id="a_node6"><a xlink:href="../../d9/d8d/classdoris_1_1_status.html#aafde58df1b2a6a91d5b674373be3ffc5" target="_top" xlink:title=" ">
<polygon fill="white" stroke="#666666" points="578,-67.5 471,-67.5 471,-48.5 578,-48.5 578,-67.5"/>
<text text-anchor="middle" x="524.5" y="-55.5" font-family="Helvetica,sans-Serif" font-size="10.00">doris::Status::Status</text>
</a>
</g>
</g>
<!-- Node5&#45;&gt;Node6 -->
<g id="edge5" class="edge">
<title>Node5&#45;&gt;Node6</title>
<path fill="none" stroke="#63b8ff" d="M416.69,-58C430.09,-58 445.02,-58 459.38,-58"/>
<polygon fill="#63b8ff" stroke="#63b8ff" points="459.21,-61.5 469.21,-58 459.21,-54.5 459.21,-61.5"/>
</g>
<!-- Node8 -->
<g id="node8" class="node">
<title>Node8</title>
<g id="a_node8"><a xlink:href="../../d6/d94/namespacedoris.html#af963c479be7b2734faf43ffaf53c379b" target="_top" xlink:title=" ">
<polygon fill="white" stroke="#666666" points="547.5,-24.5 501.5,-24.5 501.5,-5.5 547.5,-5.5 547.5,-24.5"/>
<text text-anchor="middle" x="524.5" y="-12.5" font-family="Helvetica,sans-Serif" font-size="10.00">to_hex</text>
</a>
</g>
</g>
<!-- Node7&#45;&gt;Node8 -->
<g id="edge7" class="edge">
<title>Node7&#45;&gt;Node8</title>
<path fill="none" stroke="#63b8ff" d="M419.18,-15C442.03,-15 468.87,-15 489.6,-15"/>
<polygon fill="#63b8ff" stroke="#63b8ff" points="489.51,-18.5 499.51,-15 489.51,-11.5 489.51,-18.5"/>
</g>
</g>
</svg>
