<?xml version="1.0" encoding="UTF-8" standalone="no"?>
<!DOCTYPE svg PUBLIC "-//W3C//DTD SVG 1.1//EN"
 "http://www.w3.org/Graphics/SVG/1.1/DTD/svg11.dtd">
<!-- Generated by graphviz version 7.1.0 (20230121.1956)
 -->
<!-- Title: to_s2polygon Pages: 1 -->
<svg width="481pt" height="101pt"
 viewBox="0.00 0.00 481.00 101.00" xmlns="http://www.w3.org/2000/svg" xmlns:xlink="http://www.w3.org/1999/xlink">
<g id="graph0" class="graph" transform="scale(1 1) rotate(0) translate(4 97)">
<title>to_s2polygon</title>
<!-- Node1 -->
<g id="node1" class="node">
<title>Node1</title>
<g id="a_node1"><a xlink:title=" ">
<polygon fill="#999999" stroke="#666666" points="74,-74 0,-74 0,-55 74,-55 74,-74"/>
<text text-anchor="middle" x="37" y="-62" font-family="Helvetica,sans-Serif" font-size="10.00">to_s2polygon</text>
</a>
</g>
</g>
<!-- Node2 -->
<g id="node2" class="node">
<title>Node2</title>
<g id="a_node2"><a xlink:href="../../d6/d94/namespacedoris.html#ade4df05eeaa4c8cf3a2fcaf8296c446c" target="_top" xlink:title=" ">
<polygon fill="white" stroke="#666666" points="193,-93 110,-93 110,-74 193,-74 193,-93"/>
<text text-anchor="middle" x="151.5" y="-81" font-family="Helvetica,sans-Serif" font-size="10.00">adapt_contains</text>
</a>
</g>
</g>
<!-- Node1&#45;&gt;Node2 -->
<g id="edge1" class="edge">
<title>Node1&#45;&gt;Node2</title>
<path fill="none" stroke="#63b8ff" d="M74.21,-70.62C81.99,-71.93 90.35,-73.34 98.58,-74.73"/>
<polygon fill="#63b8ff" stroke="#63b8ff" points="97.73,-78.14 108.17,-76.35 98.9,-71.24 97.73,-78.14"/>
</g>
<!-- Node3 -->
<g id="node3" class="node">
<title>Node3</title>
<g id="a_node3"><a xlink:href="../../d6/d94/namespacedoris.html#a600decfaa8813bd1d447c598bc06f0f3" target="_top" xlink:title=" ">
<polygon fill="white" stroke="#666666" points="181,-56 122,-56 122,-37 181,-37 181,-56"/>
<text text-anchor="middle" x="151.5" y="-44" font-family="Helvetica,sans-Serif" font-size="10.00">to_s2loop</text>
</a>
</g>
</g>
<!-- Node1&#45;&gt;Node3 -->
<g id="edge2" class="edge">
<title>Node1&#45;&gt;Node3</title>
<path fill="none" stroke="#63b8ff" d="M74.21,-58.71C85.9,-56.84 98.91,-54.76 110.82,-52.85"/>
<polygon fill="#63b8ff" stroke="#63b8ff" points="111.02,-56.36 120.34,-51.32 109.92,-49.45 111.02,-56.36"/>
</g>
<!-- Node4 -->
<g id="node4" class="node">
<title>Node4</title>
<g id="a_node4"><a xlink:href="../../d6/d94/namespacedoris.html#a458974a6436491f1ea184124732b6d7f" target="_top" xlink:title=" ">
<polygon fill="white" stroke="#666666" points="332,-93 251,-93 251,-74 332,-74 332,-93"/>
<text text-anchor="middle" x="291.5" y="-81" font-family="Helvetica,sans-Serif" font-size="10.00">is_loop_closed</text>
</a>
</g>
</g>
<!-- Node3&#45;&gt;Node4 -->
<g id="edge3" class="edge">
<title>Node3&#45;&gt;Node4</title>
<path fill="none" stroke="#63b8ff" d="M181.43,-54.26C199.03,-58.98 221.97,-65.12 242.26,-70.57"/>
<polygon fill="#63b8ff" stroke="#63b8ff" points="241.18,-73.9 251.74,-73.11 242.99,-67.14 241.18,-73.9"/>
</g>
<!-- Node5 -->
<g id="node5" class="node">
<title>Node5</title>
<g id="a_node5"><a xlink:href="../../d6/d94/namespacedoris.html#ae1849ce7ce1f38b199dcbcf1443190fd" target="_top" xlink:title=" ">
<polygon fill="white" stroke="#666666" points="354,-56 229,-56 229,-37 354,-37 354,-56"/>
<text text-anchor="middle" x="291.5" y="-44" font-family="Helvetica,sans-Serif" font-size="10.00">remove_duplicate_points</text>
</a>
</g>
</g>
<!-- Node3&#45;&gt;Node5 -->
<g id="edge4" class="edge">
<title>Node3&#45;&gt;Node5</title>
<path fill="none" stroke="#63b8ff" d="M181.43,-46.5C192.07,-46.5 204.65,-46.5 217.41,-46.5"/>
<polygon fill="#63b8ff" stroke="#63b8ff" points="217.12,-50 227.12,-46.5 217.12,-43 217.12,-50"/>
</g>
<!-- Node6 -->
<g id="node6" class="node">
<title>Node6</title>
<g id="a_node6"><a xlink:href="../../d6/d94/namespacedoris.html#a514a612e93aef47f3dd47cff8f5b039d" target="_top" xlink:title=" ">
<polygon fill="white" stroke="#666666" points="322.5,-19 260.5,-19 260.5,0 322.5,0 322.5,-19"/>
<text text-anchor="middle" x="291.5" y="-7" font-family="Helvetica,sans-Serif" font-size="10.00">to_s2point</text>
</a>
</g>
</g>
<!-- Node3&#45;&gt;Node6 -->
<g id="edge5" class="edge">
<title>Node3&#45;&gt;Node6</title>
<path fill="none" stroke="#63b8ff" d="M181.43,-38.74C201.08,-33.47 227.37,-26.43 249.22,-20.57"/>
<polygon fill="#63b8ff" stroke="#63b8ff" points="249.96,-23.99 258.71,-18.02 248.15,-17.23 249.96,-23.99"/>
</g>
<!-- Node7 -->
<g id="node7" class="node">
<title>Node7</title>
<g id="a_node7"><a xlink:href="../../d6/d94/namespacedoris.html#a4fabcfbe1cc602dad4ed125fcef8ad7d" target="_top" xlink:title=" ">
<polygon fill="white" stroke="#666666" points="473,-19 390,-19 390,0 473,0 473,-19"/>
<text text-anchor="middle" x="431.5" y="-7" font-family="Helvetica,sans-Serif" font-size="10.00">is_valid_lng_lat</text>
</a>
</g>
</g>
<!-- Node6&#45;&gt;Node7 -->
<g id="edge6" class="edge">
<title>Node6&#45;&gt;Node7</title>
<path fill="none" stroke="#63b8ff" d="M322.78,-9.5C339.01,-9.5 359.47,-9.5 378.18,-9.5"/>
<polygon fill="#63b8ff" stroke="#63b8ff" points="378.04,-13 388.04,-9.5 378.04,-6 378.04,-13"/>
</g>
</g>
</svg>
