<?xml version="1.0" encoding="UTF-8" standalone="no"?>
<!DOCTYPE svg PUBLIC "-//W3C//DTD SVG 1.1//EN"
 "http://www.w3.org/Graphics/SVG/1.1/DTD/svg11.dtd">
<!-- Generated by graphviz version 7.1.0 (20230121.1956)
 -->
<!-- Title: escape_for_html Pages: 1 -->
<svg width="951pt" height="38pt"
 viewBox="0.00 0.00 951.00 38.00" xmlns="http://www.w3.org/2000/svg" xmlns:xlink="http://www.w3.org/1999/xlink">
<g id="graph0" class="graph" transform="scale(1 1) rotate(0) translate(4 34)">
<title>escape_for_html</title>
<!-- Node1 -->
<g id="node1" class="node">
<title>Node1</title>
<g id="a_node1"><a xlink:title=" ">
<polygon fill="#999999" stroke="#666666" points="943,-24.5 854,-24.5 854,-5.5 943,-5.5 943,-24.5"/>
<text text-anchor="middle" x="898.5" y="-12.5" font-family="Helvetica,sans-Serif" font-size="10.00">escape_for_html</text>
</a>
</g>
</g>
<!-- Node2 -->
<g id="node2" class="node">
<title>Node2</title>
<g id="a_node2"><a xlink:href="../../d6/d94/namespacedoris.html#a8daa33b1f226f163ad72670ae6d611a2" target="_top" xlink:title=" ">
<polygon fill="white" stroke="#666666" points="818,-30 716,-30 716,0 818,0 818,-30"/>
<text text-anchor="start" x="724" y="-18" font-family="Helvetica,sans-Serif" font-size="10.00">escape_for_html_to</text>
<text text-anchor="middle" x="767" y="-7" font-family="Helvetica,sans-Serif" font-size="10.00">_string</text>
</a>
</g>
</g>
<!-- Node1&#45;&gt;Node2 -->
<g id="edge1" class="edge">
<title>Node1&#45;&gt;Node2</title>
<path fill="none" stroke="#63b8ff" d="M842.28,-15C834.39,-15 826.3,-15 818.5,-15"/>
<polygon fill="#63b8ff" stroke="#63b8ff" points="842.14,-18.5 852.14,-15 842.14,-11.5 842.14,-18.5"/>
</g>
<!-- Node3 -->
<g id="node3" class="node">
<title>Node3</title>
<g id="a_node3"><a xlink:href="../../d5/dc0/classdoris_1_1_thread_mgr.html#a5a31a75a710e1d3badb5329543bada70" target="_top" xlink:title=" ">
<polygon fill="white" stroke="#666666" points="680,-30 553,-30 553,0 680,0 680,-30"/>
<text text-anchor="start" x="561" y="-18" font-family="Helvetica,sans-Serif" font-size="10.00">doris::ThreadMgr::display</text>
<text text-anchor="middle" x="616.5" y="-7" font-family="Helvetica,sans-Serif" font-size="10.00">_thread_callback</text>
</a>
</g>
</g>
<!-- Node2&#45;&gt;Node3 -->
<g id="edge2" class="edge">
<title>Node2&#45;&gt;Node3</title>
<path fill="none" stroke="#63b8ff" d="M704.32,-15C696.4,-15 688.29,-15 680.36,-15"/>
<polygon fill="#63b8ff" stroke="#63b8ff" points="704.21,-18.5 714.21,-15 704.21,-11.5 704.21,-18.5"/>
</g>
<!-- Node4 -->
<g id="node4" class="node">
<title>Node4</title>
<g id="a_node4"><a xlink:href="../../d6/d94/namespacedoris.html#ae883899878e5829bac7c4b37cd27c956" target="_top" xlink:title=" ">
<polygon fill="white" stroke="#666666" points="517,-24.5 374,-24.5 374,-5.5 517,-5.5 517,-24.5"/>
<text text-anchor="middle" x="445.5" y="-12.5" font-family="Helvetica,sans-Serif" font-size="10.00">register_thread_display_page</text>
</a>
</g>
</g>
<!-- Node3&#45;&gt;Node4 -->
<g id="edge3" class="edge">
<title>Node3&#45;&gt;Node4</title>
<path fill="none" stroke="#63b8ff" d="M541.15,-15C533.27,-15 525.28,-15 517.44,-15"/>
<polygon fill="#63b8ff" stroke="#63b8ff" points="541.06,-18.5 551.06,-15 541.06,-11.5 541.06,-18.5"/>
</g>
<!-- Node5 -->
<g id="node5" class="node">
<title>Node5</title>
<g id="a_node5"><a xlink:href="../../d6/d94/namespacedoris.html#aa513e3622fb9d7855867389ccb866907" target="_top" xlink:title=" ">
<polygon fill="white" stroke="#666666" points="338,-24.5 205,-24.5 205,-5.5 338,-5.5 338,-24.5"/>
<text text-anchor="middle" x="271.5" y="-12.5" font-family="Helvetica,sans-Serif" font-size="10.00">add_default_path_handlers</text>
</a>
</g>
</g>
<!-- Node4&#45;&gt;Node5 -->
<g id="edge4" class="edge">
<title>Node4&#45;&gt;Node5</title>
<path fill="none" stroke="#63b8ff" d="M362.26,-15C354.23,-15 346.16,-15 338.32,-15"/>
<polygon fill="#63b8ff" stroke="#63b8ff" points="362.03,-18.5 372.03,-15 362.03,-11.5 362.03,-18.5"/>
</g>
<!-- Node6 -->
<g id="node6" class="node">
<title>Node6</title>
<g id="a_node6"><a xlink:href="../../d7/db0/classdoris_1_1_http_service.html#a1ece7b40dc52b67186533a0ec4dadc49" target="_top" xlink:title=" ">
<polygon fill="white" stroke="#666666" points="169,-30 74,-30 74,0 169,0 169,-30"/>
<text text-anchor="start" x="82" y="-18" font-family="Helvetica,sans-Serif" font-size="10.00">doris::HttpService</text>
<text text-anchor="middle" x="121.5" y="-7" font-family="Helvetica,sans-Serif" font-size="10.00">::start</text>
</a>
</g>
</g>
<!-- Node5&#45;&gt;Node6 -->
<g id="edge5" class="edge">
<title>Node5&#45;&gt;Node6</title>
<path fill="none" stroke="#63b8ff" d="M193.25,-15C185.13,-15 177.07,-15 169.44,-15"/>
<polygon fill="#63b8ff" stroke="#63b8ff" points="193.21,-18.5 203.21,-15 193.21,-11.5 193.21,-18.5"/>
</g>
<!-- Node7 -->
<g id="node7" class="node">
<title>Node7</title>
<g id="a_node7"><a xlink:href="../../d7/dcc/doris__main_8cpp.html#a3c04138a5bfe5d72780bb7e82a18e627" target="_top" xlink:title=" ">
<polygon fill="white" stroke="#666666" points="38,-24.5 0,-24.5 0,-5.5 38,-5.5 38,-24.5"/>
<text text-anchor="middle" x="19" y="-12.5" font-family="Helvetica,sans-Serif" font-size="10.00">main</text>
</a>
</g>
</g>
<!-- Node6&#45;&gt;Node7 -->
<g id="edge6" class="edge">
<title>Node6&#45;&gt;Node7</title>
<path fill="none" stroke="#63b8ff" d="M62.35,-15C53.74,-15 45.43,-15 38.5,-15"/>
<polygon fill="#63b8ff" stroke="#63b8ff" points="62.27,-18.5 72.27,-15 62.27,-11.5 62.27,-18.5"/>
</g>
</g>
</svg>
