<?xml version="1.0" encoding="UTF-8" standalone="no"?>
<!DOCTYPE svg PUBLIC "-//W3C//DTD SVG 1.1//EN"
 "http://www.w3.org/Graphics/SVG/1.1/DTD/svg11.dtd">
<!-- Generated by graphviz version 7.1.0 (20230121.1956)
 -->
<!-- Title: client_id Pages: 1 -->
<svg width="235pt" height="76pt"
 viewBox="0.00 0.00 235.00 75.50" xmlns="http://www.w3.org/2000/svg" xmlns:xlink="http://www.w3.org/1999/xlink">
<g id="graph0" class="graph" transform="scale(1 1) rotate(0) translate(4 71.5)">
<title>client_id</title>
<!-- Node1 -->
<g id="node1" class="node">
<title>Node1</title>
<g id="a_node1"><a xlink:title=" ">
<polygon fill="#999999" stroke="#666666" points="53,-45.5 0,-45.5 0,-26.5 53,-26.5 53,-45.5"/>
<text text-anchor="middle" x="26.5" y="-33.5" font-family="Helvetica,sans-Serif" font-size="10.00">client_id</text>
</a>
</g>
</g>
<!-- Node2 -->
<g id="node2" class="node">
<title>Node2</title>
<g id="a_node2"><a xlink:href="../../d9/dbd/classdoris_1_1_exec_env.html#a542c23fc222bb3e4112f09f37eb95925" target="_top" xlink:title=" ">
<polygon fill="white" stroke="#666666" points="227,-67.5 89,-67.5 89,-48.5 227,-48.5 227,-67.5"/>
<text text-anchor="middle" x="158" y="-55.5" font-family="Helvetica,sans-Serif" font-size="10.00">doris::ExecEnv::broker_mgr</text>
</a>
</g>
</g>
<!-- Node1&#45;&gt;Node2 -->
<g id="edge1" class="edge">
<title>Node1&#45;&gt;Node2</title>
<path fill="none" stroke="#63b8ff" d="M53.4,-40.4C63.28,-42.08 75.09,-44.09 87.14,-46.13"/>
<polygon fill="#63b8ff" stroke="#63b8ff" points="86.28,-49.54 96.73,-47.76 87.46,-42.64 86.28,-49.54"/>
</g>
<!-- Node3 -->
<g id="node3" class="node">
<title>Node3</title>
<g id="a_node3"><a xlink:href="../../de/d57/classdoris_1_1_broker_mgr.html#a6df915f8896227e53bf372a78a6b1b1f" target="_top" xlink:title=" ">
<polygon fill="white" stroke="#666666" points="212,-30 104,-30 104,0 212,0 212,-30"/>
<text text-anchor="start" x="112" y="-18" font-family="Helvetica,sans-Serif" font-size="10.00">doris::BrokerMgr::get</text>
<text text-anchor="middle" x="158" y="-7" font-family="Helvetica,sans-Serif" font-size="10.00">_client_id</text>
</a>
</g>
</g>
<!-- Node1&#45;&gt;Node3 -->
<g id="edge2" class="edge">
<title>Node1&#45;&gt;Node3</title>
<path fill="none" stroke="#63b8ff" d="M53.4,-31.8C64.75,-29.96 78.64,-27.71 92.51,-25.46"/>
<polygon fill="#63b8ff" stroke="#63b8ff" points="92.78,-28.96 102.09,-23.9 91.66,-22.05 92.78,-28.96"/>
</g>
</g>
</svg>
