<?xml version="1.0" encoding="UTF-8" standalone="no"?>
<!DOCTYPE svg PUBLIC "-//W3C//DTD SVG 1.1//EN"
 "http://www.w3.org/Graphics/SVG/1.1/DTD/svg11.dtd">
<!-- Generated by graphviz version 7.1.0 (20230121.1956)
 -->
<!-- Title: submit_func Pages: 1 -->
<svg width="948pt" height="164pt"
 viewBox="0.00 0.00 948.00 163.50" xmlns="http://www.w3.org/2000/svg" xmlns:xlink="http://www.w3.org/1999/xlink">
<g id="graph0" class="graph" transform="scale(1 1) rotate(0) translate(4 159.5)">
<title>submit_func</title>
<!-- Node1 -->
<g id="node1" class="node">
<title>Node1</title>
<g id="a_node1"><a xlink:title=" ">
<polygon fill="#999999" stroke="#666666" points="940,-84 870,-84 870,-65 940,-65 940,-84"/>
<text text-anchor="middle" x="905" y="-72" font-family="Helvetica,sans-Serif" font-size="10.00">submit_func</text>
</a>
</g>
</g>
<!-- Node2 -->
<g id="node2" class="node">
<title>Node2</title>
<g id="a_node2"><a xlink:href="../../d7/db9/classdoris_1_1io_1_1_sub_file_cache.html#acfa2a4695f8f1c13dbef0ba614a6b12a" target="_top" xlink:title=" ">
<polygon fill="white" stroke="#666666" points="825.5,-137.5 696.5,-137.5 696.5,-107.5 825.5,-107.5 825.5,-137.5"/>
<text text-anchor="start" x="704.5" y="-125.5" font-family="Helvetica,sans-Serif" font-size="10.00">doris::io::SubFileCache</text>
<text text-anchor="middle" x="761" y="-114.5" font-family="Helvetica,sans-Serif" font-size="10.00">::_generate_cache_reader</text>
</a>
</g>
</g>
<!-- Node1&#45;&gt;Node2 -->
<g id="edge1" class="edge">
<title>Node1&#45;&gt;Node2</title>
<path fill="none" stroke="#63b8ff" d="M864.28,-88.18C854.39,-91.57 843.82,-95.18 834,-98.5 825.76,-101.29 816.99,-104.23 808.5,-107.07"/>
<polygon fill="#63b8ff" stroke="#63b8ff" points="865.32,-91.53 873.64,-84.97 863.04,-84.91 865.32,-91.53"/>
</g>
<!-- Node4 -->
<g id="node4" class="node">
<title>Node4</title>
<g id="a_node4"><a xlink:href="../../d0/d7a/classdoris_1_1io_1_1_whole_file_cache.html#acfa2a4695f8f1c13dbef0ba614a6b12a" target="_top" xlink:title=" ">
<polygon fill="white" stroke="#666666" points="825.5,-89.5 696.5,-89.5 696.5,-59.5 825.5,-59.5 825.5,-89.5"/>
<text text-anchor="start" x="704.5" y="-77.5" font-family="Helvetica,sans-Serif" font-size="10.00">doris::io::WholeFileCache</text>
<text text-anchor="middle" x="761" y="-66.5" font-family="Helvetica,sans-Serif" font-size="10.00">::_generate_cache_reader</text>
</a>
</g>
</g>
<!-- Node1&#45;&gt;Node4 -->
<g id="edge4" class="edge">
<title>Node1&#45;&gt;Node4</title>
<path fill="none" stroke="#63b8ff" d="M858.32,-74.5C847.94,-74.5 836.73,-74.5 825.76,-74.5"/>
<polygon fill="#63b8ff" stroke="#63b8ff" points="858.11,-78 868.11,-74.5 858.11,-71 858.11,-78"/>
</g>
<!-- Node6 -->
<g id="node6" class="node">
<title>Node6</title>
<g id="a_node6"><a xlink:href="../../d4/df4/classdoris_1_1vectorized_1_1_scanner_scheduler.html#acfd53619086b0826f0a519a95186401e" target="_top" xlink:title=" ">
<polygon fill="white" stroke="#666666" points="834,-41 688,-41 688,0 834,0 834,-41"/>
<text text-anchor="start" x="696" y="-29" font-family="Helvetica,sans-Serif" font-size="10.00">doris::vectorized::</text>
<text text-anchor="start" x="696" y="-18" font-family="Helvetica,sans-Serif" font-size="10.00">ScannerScheduler::_schedule</text>
<text text-anchor="middle" x="761" y="-7" font-family="Helvetica,sans-Serif" font-size="10.00">_scanners</text>
</a>
</g>
</g>
<!-- Node1&#45;&gt;Node6 -->
<g id="edge6" class="edge">
<title>Node1&#45;&gt;Node6</title>
<path fill="none" stroke="#63b8ff" d="M867.35,-60.56C852.02,-54.73 833.87,-47.83 817,-41.42"/>
<polygon fill="#63b8ff" stroke="#63b8ff" points="865.95,-63.77 876.54,-64.06 868.44,-57.23 865.95,-63.77"/>
</g>
<!-- Node3 -->
<g id="node3" class="node">
<title>Node3</title>
<g id="a_node3"><a xlink:href="../../d7/db9/classdoris_1_1io_1_1_sub_file_cache.html#aa0c40ede605035ec63e1b9e7d12dc772" target="_top" xlink:title=" ">
<polygon fill="white" stroke="#666666" points="638.5,-137.5 519.5,-137.5 519.5,-107.5 638.5,-107.5 638.5,-137.5"/>
<text text-anchor="start" x="527.5" y="-125.5" font-family="Helvetica,sans-Serif" font-size="10.00">doris::io::SubFileCache</text>
<text text-anchor="middle" x="579" y="-114.5" font-family="Helvetica,sans-Serif" font-size="10.00">::read_at</text>
</a>
</g>
</g>
<!-- Node2&#45;&gt;Node3 -->
<g id="edge2" class="edge">
<title>Node2&#45;&gt;Node3</title>
<path fill="none" stroke="#63b8ff" d="M684.53,-122.5C669.31,-122.5 653.51,-122.5 638.95,-122.5"/>
<polygon fill="#63b8ff" stroke="#63b8ff" points="684.52,-126 694.52,-122.5 684.52,-119 684.52,-126"/>
</g>
<!-- Node3&#45;&gt;Node3 -->
<g id="edge3" class="edge">
<title>Node3&#45;&gt;Node3</title>
<path fill="none" stroke="#63b8ff" d="M607.09,-149.11C602.59,-152.93 593.23,-155.5 579,-155.5 552.98,-155.5 543.23,-146.91 549.73,-137.78"/>
<polygon fill="#63b8ff" stroke="#63b8ff" points="610.56,-149.59 608.11,-139.28 603.6,-148.87 610.56,-149.59"/>
</g>
<!-- Node5 -->
<g id="node5" class="node">
<title>Node5</title>
<g id="a_node5"><a xlink:href="../../d0/d7a/classdoris_1_1io_1_1_whole_file_cache.html#aa0c40ede605035ec63e1b9e7d12dc772" target="_top" xlink:title=" ">
<polygon fill="white" stroke="#666666" points="643.5,-89.5 514.5,-89.5 514.5,-59.5 643.5,-59.5 643.5,-89.5"/>
<text text-anchor="start" x="522.5" y="-77.5" font-family="Helvetica,sans-Serif" font-size="10.00">doris::io::WholeFileCache</text>
<text text-anchor="middle" x="579" y="-66.5" font-family="Helvetica,sans-Serif" font-size="10.00">::read_at</text>
</a>
</g>
</g>
<!-- Node4&#45;&gt;Node5 -->
<g id="edge5" class="edge">
<title>Node4&#45;&gt;Node5</title>
<path fill="none" stroke="#63b8ff" d="M684.73,-74.5C671.1,-74.5 657.02,-74.5 643.76,-74.5"/>
<polygon fill="#63b8ff" stroke="#63b8ff" points="684.52,-78 694.52,-74.5 684.52,-71 684.52,-78"/>
</g>
<!-- Node7 -->
<g id="node7" class="node">
<title>Node7</title>
<g id="a_node7"><a xlink:href="../../d4/df4/classdoris_1_1vectorized_1_1_scanner_scheduler.html#a0cd54d87002f883702febdd8d0348f7c" target="_top" xlink:title=" ">
<polygon fill="white" stroke="#666666" points="652,-41 506,-41 506,0 652,0 652,-41"/>
<text text-anchor="start" x="514" y="-29" font-family="Helvetica,sans-Serif" font-size="10.00">doris::vectorized::</text>
<text text-anchor="start" x="514" y="-18" font-family="Helvetica,sans-Serif" font-size="10.00">ScannerScheduler::_schedule</text>
<text text-anchor="middle" x="579" y="-7" font-family="Helvetica,sans-Serif" font-size="10.00">_thread</text>
</a>
</g>
</g>
<!-- Node6&#45;&gt;Node7 -->
<g id="edge7" class="edge">
<title>Node6&#45;&gt;Node7</title>
<path fill="none" stroke="#63b8ff" d="M676.3,-20.5C668.27,-20.5 660.19,-20.5 652.29,-20.5"/>
<polygon fill="#63b8ff" stroke="#63b8ff" points="676.05,-24 686.05,-20.5 676.05,-17 676.05,-24"/>
</g>
<!-- Node8 -->
<g id="node8" class="node">
<title>Node8</title>
<g id="a_node8"><a xlink:href="../../d4/df4/classdoris_1_1vectorized_1_1_scanner_scheduler.html#a992d523e473f8a2d10ae95009fae306a" target="_top" xlink:title=" ">
<polygon fill="white" stroke="#666666" points="470,-35.5 355,-35.5 355,-5.5 470,-5.5 470,-35.5"/>
<text text-anchor="start" x="363" y="-23.5" font-family="Helvetica,sans-Serif" font-size="10.00">doris::vectorized::</text>
<text text-anchor="middle" x="412.5" y="-12.5" font-family="Helvetica,sans-Serif" font-size="10.00">ScannerScheduler::init</text>
</a>
</g>
</g>
<!-- Node7&#45;&gt;Node8 -->
<g id="edge8" class="edge">
<title>Node7&#45;&gt;Node8</title>
<path fill="none" stroke="#63b8ff" d="M494.35,-20.5C486.19,-20.5 478.06,-20.5 470.27,-20.5"/>
<polygon fill="#63b8ff" stroke="#63b8ff" points="494.33,-24 504.33,-20.5 494.33,-17 494.33,-24"/>
</g>
<!-- Node9 -->
<g id="node9" class="node">
<title>Node9</title>
<g id="a_node9"><a xlink:href="../../d9/dbd/classdoris_1_1_exec_env.html#a34961a7b90327a94bdd595ee35e3db18" target="_top" xlink:title=" ">
<polygon fill="white" stroke="#666666" points="319,-30 212,-30 212,-11 319,-11 319,-30"/>
<text text-anchor="middle" x="265.5" y="-18" font-family="Helvetica,sans-Serif" font-size="10.00">doris::ExecEnv::_init</text>
</a>
</g>
</g>
<!-- Node8&#45;&gt;Node9 -->
<g id="edge9" class="edge">
<title>Node8&#45;&gt;Node9</title>
<path fill="none" stroke="#63b8ff" d="M343.35,-20.5C335.32,-20.5 327.22,-20.5 319.44,-20.5"/>
<polygon fill="#63b8ff" stroke="#63b8ff" points="343.09,-24 353.09,-20.5 343.09,-17 343.09,-24"/>
</g>
<!-- Node10 -->
<g id="node10" class="node">
<title>Node10</title>
<g id="a_node10"><a xlink:href="../../d9/dbd/classdoris_1_1_exec_env.html#a6ada05106d62558f90ac753be1b44904" target="_top" xlink:title=" ">
<polygon fill="white" stroke="#666666" points="176,-30 74,-30 74,-11 176,-11 176,-30"/>
<text text-anchor="middle" x="125" y="-18" font-family="Helvetica,sans-Serif" font-size="10.00">doris::ExecEnv::init</text>
</a>
</g>
</g>
<!-- Node9&#45;&gt;Node10 -->
<g id="edge10" class="edge">
<title>Node9&#45;&gt;Node10</title>
<path fill="none" stroke="#63b8ff" d="M200.42,-20.5C192.34,-20.5 184.16,-20.5 176.33,-20.5"/>
<polygon fill="#63b8ff" stroke="#63b8ff" points="200.23,-24 210.23,-20.5 200.23,-17 200.23,-24"/>
</g>
<!-- Node11 -->
<g id="node11" class="node">
<title>Node11</title>
<g id="a_node11"><a xlink:href="../../d7/dcc/doris__main_8cpp.html#a3c04138a5bfe5d72780bb7e82a18e627" target="_top" xlink:title=" ">
<polygon fill="white" stroke="#666666" points="38,-30 0,-30 0,-11 38,-11 38,-30"/>
<text text-anchor="middle" x="19" y="-18" font-family="Helvetica,sans-Serif" font-size="10.00">main</text>
</a>
</g>
</g>
<!-- Node10&#45;&gt;Node11 -->
<g id="edge11" class="edge">
<title>Node10&#45;&gt;Node11</title>
<path fill="none" stroke="#63b8ff" d="M62.03,-20.5C53.39,-20.5 45.14,-20.5 38.26,-20.5"/>
<polygon fill="#63b8ff" stroke="#63b8ff" points="62.01,-24 72.01,-20.5 62.01,-17 62.01,-24"/>
</g>
</g>
</svg>
