<?xml version="1.0" encoding="UTF-8" standalone="no"?>
<!DOCTYPE svg PUBLIC "-//W3C//DTD SVG 1.1//EN"
 "http://www.w3.org/Graphics/SVG/1.1/DTD/svg11.dtd">
<!-- Generated by graphviz version 7.1.0 (20230121.1956)
 -->
<!-- Title: /Users/dabowang/doris/be/src/gutil/strings/memutil.h Pages: 1 -->
<svg width="260pt" height="126pt"
 viewBox="0.00 0.00 260.00 126.00" xmlns="http://www.w3.org/2000/svg" xmlns:xlink="http://www.w3.org/1999/xlink">
<g id="graph0" class="graph" transform="scale(1 1) rotate(0) translate(4 122)">
<title>/Users/dabowang/doris/be/src/gutil/strings/memutil.h</title>
<!-- Node1 -->
<g id="node1" class="node">
<title>Node1</title>
<g id="a_node1"><a xlink:title=" ">
<polygon fill="#999999" stroke="#666666" points="184,-118 67,-118 67,-77 184,-77 184,-118"/>
<text text-anchor="start" x="75" y="-106" font-family="Helvetica,sans-Serif" font-size="10.00">/Users/dabowang/doris</text>
<text text-anchor="start" x="75" y="-95" font-family="Helvetica,sans-Serif" font-size="10.00">/be/src/gutil/strings</text>
<text text-anchor="middle" x="125.5" y="-84" font-family="Helvetica,sans-Serif" font-size="10.00">/memutil.h</text>
</a>
</g>
</g>
<!-- Node2 -->
<g id="node2" class="node">
<title>Node2</title>
<g id="a_node2"><a xlink:href="../../dc/d3b/memutil_8cc.html" target="_top" xlink:title=" ">
<polygon fill="white" stroke="#666666" points="117,-41 0,-41 0,0 117,0 117,-41"/>
<text text-anchor="start" x="8" y="-29" font-family="Helvetica,sans-Serif" font-size="10.00">/Users/dabowang/doris</text>
<text text-anchor="start" x="8" y="-18" font-family="Helvetica,sans-Serif" font-size="10.00">/be/src/gutil/strings</text>
<text text-anchor="middle" x="58.5" y="-7" font-family="Helvetica,sans-Serif" font-size="10.00">/memutil.cc</text>
</a>
</g>
</g>
<!-- Node1&#45;&gt;Node2 -->
<g id="edge1" class="edge">
<title>Node1&#45;&gt;Node2</title>
<path fill="none" stroke="#63b8ff" d="M100.45,-68.46C92.39,-59.44 83.64,-49.64 76.22,-41.33"/>
<polygon fill="#63b8ff" stroke="#63b8ff" points="97.62,-70.54 106.89,-75.67 102.84,-65.88 97.62,-70.54"/>
</g>
<!-- Node3 -->
<g id="node3" class="node">
<title>Node3</title>
<g id="a_node3"><a xlink:href="../../d2/df8/stringpiece_8cc.html" target="_top" xlink:title=" ">
<polygon fill="white" stroke="#666666" points="252,-41 135,-41 135,0 252,0 252,-41"/>
<text text-anchor="start" x="143" y="-29" font-family="Helvetica,sans-Serif" font-size="10.00">/Users/dabowang/doris</text>
<text text-anchor="start" x="143" y="-18" font-family="Helvetica,sans-Serif" font-size="10.00">/be/src/gutil/strings</text>
<text text-anchor="middle" x="193.5" y="-7" font-family="Helvetica,sans-Serif" font-size="10.00">/stringpiece.cc</text>
</a>
</g>
</g>
<!-- Node1&#45;&gt;Node3 -->
<g id="edge2" class="edge">
<title>Node1&#45;&gt;Node3</title>
<path fill="none" stroke="#63b8ff" d="M150.92,-68.46C159.1,-59.44 167.99,-49.64 175.52,-41.33"/>
<polygon fill="#63b8ff" stroke="#63b8ff" points="148.51,-65.91 144.38,-75.67 153.69,-70.62 148.51,-65.91"/>
</g>
</g>
</svg>
