<?xml version="1.0" encoding="UTF-8" standalone="no"?>
<!DOCTYPE svg PUBLIC "-//W3C//DTD SVG 1.1//EN"
 "http://www.w3.org/Graphics/SVG/1.1/DTD/svg11.dtd">
<!-- Generated by graphviz version 7.1.0 (20230121.1956)
 -->
<!-- Title: /Users/dabowang/doris/be/src/runtime/buffer_control_block.h Pages: 1 -->
<svg width="966pt" height="214pt"
 viewBox="0.00 0.00 966.25 214.00" xmlns="http://www.w3.org/2000/svg" xmlns:xlink="http://www.w3.org/1999/xlink">
<g id="graph0" class="graph" transform="scale(1 1) rotate(0) translate(4 210)">
<title>/Users/dabowang/doris/be/src/runtime/buffer_control_block.h</title>
<!-- Node1 -->
<g id="node1" class="node">
<title>Node1</title>
<g id="a_node1"><a xlink:title=" ">
<polygon fill="#999999" stroke="#666666" points="413.25,-206 296.25,-206 296.25,-165 413.25,-165 413.25,-206"/>
<text text-anchor="start" x="304.25" y="-194" font-family="Helvetica,sans-Serif" font-size="10.00">/Users/dabowang/doris</text>
<text text-anchor="start" x="304.25" y="-183" font-family="Helvetica,sans-Serif" font-size="10.00">/be/src/runtime/buffer</text>
<text text-anchor="middle" x="354.75" y="-172" font-family="Helvetica,sans-Serif" font-size="10.00">_control_block.h</text>
</a>
</g>
</g>
<!-- Node2 -->
<g id="node2" class="node">
<title>Node2</title>
<g id="a_node2"><a xlink:title=" ">
<polygon fill="#e0e0e0" stroke="#999999" points="390.75,-19 344.75,-19 344.75,0 390.75,0 390.75,-19"/>
<text text-anchor="middle" x="367.75" y="-7" font-family="Helvetica,sans-Serif" font-size="10.00">atomic</text>
</a>
</g>
</g>
<!-- Node1&#45;&gt;Node2 -->
<g id="edge1" class="edge">
<title>Node1&#45;&gt;Node2</title>
<path fill="none" stroke="#63b8ff" d="M296.13,-181.83C179.18,-174.5 -65.09,-147.88 16.75,-55 37.48,-31.48 248.42,-17.17 332.98,-12.34"/>
<polygon fill="#63b8ff" stroke="#63b8ff" points="332.96,-15.85 342.75,-11.79 332.57,-8.86 332.96,-15.85"/>
</g>
<!-- Node3 -->
<g id="node3" class="node">
<title>Node3</title>
<g id="a_node3"><a xlink:title=" ">
<polygon fill="#e0e0e0" stroke="#999999" points="222.25,-129 127.25,-129 127.25,-110 222.25,-110 222.25,-129"/>
<text text-anchor="middle" x="174.75" y="-117" font-family="Helvetica,sans-Serif" font-size="10.00">condition_variable</text>
</a>
</g>
</g>
<!-- Node1&#45;&gt;Node3 -->
<g id="edge2" class="edge">
<title>Node1&#45;&gt;Node3</title>
<path fill="none" stroke="#63b8ff" d="M298.79,-164.6C269.84,-154.31 235.38,-142.06 210.14,-133.08"/>
<polygon fill="#63b8ff" stroke="#63b8ff" points="211.61,-129.89 201.02,-129.84 209.27,-136.49 211.61,-129.89"/>
</g>
<!-- Node4 -->
<g id="node4" class="node">
<title>Node4</title>
<g id="a_node4"><a xlink:title=" ">
<polygon fill="#e0e0e0" stroke="#999999" points="283.25,-129 240.25,-129 240.25,-110 283.25,-110 283.25,-129"/>
<text text-anchor="middle" x="261.75" y="-117" font-family="Helvetica,sans-Serif" font-size="10.00">deque</text>
</a>
</g>
</g>
<!-- Node1&#45;&gt;Node4 -->
<g id="edge3" class="edge">
<title>Node1&#45;&gt;Node4</title>
<path fill="none" stroke="#63b8ff" d="M325.84,-164.6C312.21,-155.22 296.21,-144.21 283.61,-135.54"/>
<polygon fill="#63b8ff" stroke="#63b8ff" points="285.81,-132.81 275.59,-130.02 281.84,-138.57 285.81,-132.81"/>
</g>
<!-- Node5 -->
<g id="node5" class="node">
<title>Node5</title>
<g id="a_node5"><a xlink:title=" ">
<polygon fill="#e0e0e0" stroke="#999999" points="330.25,-129 301.25,-129 301.25,-110 330.25,-110 330.25,-129"/>
<text text-anchor="middle" x="315.75" y="-117" font-family="Helvetica,sans-Serif" font-size="10.00">list</text>
</a>
</g>
</g>
<!-- Node1&#45;&gt;Node5 -->
<g id="edge4" class="edge">
<title>Node1&#45;&gt;Node5</title>
<path fill="none" stroke="#63b8ff" d="M342.63,-164.6C337.59,-156.33 331.78,-146.8 326.86,-138.72"/>
<polygon fill="#63b8ff" stroke="#63b8ff" points="330.01,-137.17 321.82,-130.45 324.03,-140.82 330.01,-137.17"/>
</g>
<!-- Node6 -->
<g id="node6" class="node">
<title>Node6</title>
<g id="a_node6"><a xlink:title=" ">
<polygon fill="#e0e0e0" stroke="#999999" points="747.75,-74 703.75,-74 703.75,-55 747.75,-55 747.75,-74"/>
<text text-anchor="middle" x="725.75" y="-62" font-family="Helvetica,sans-Serif" font-size="10.00">mutex</text>
</a>
</g>
</g>
<!-- Node1&#45;&gt;Node6 -->
<g id="edge5" class="edge">
<title>Node1&#45;&gt;Node6</title>
<path fill="none" stroke="#63b8ff" d="M389,-164.53C424.87,-143.73 477.44,-113.67 487.75,-110 572.39,-79.93 601.41,-93.25 692.36,-74.29"/>
<polygon fill="#63b8ff" stroke="#63b8ff" points="692.96,-77.75 701.99,-72.21 691.47,-70.9 692.96,-77.75"/>
</g>
<!-- Node7 -->
<g id="node7" class="node">
<title>Node7</title>
<g id="a_node7"><a xlink:href="../../d1/d13/status_8h.html" target="_top" xlink:title=" ">
<polygon fill="white" stroke="#666666" points="440.75,-129 348.75,-129 348.75,-110 440.75,-110 440.75,-129"/>
<text text-anchor="middle" x="394.75" y="-117" font-family="Helvetica,sans-Serif" font-size="10.00">common/status.h</text>
</a>
</g>
</g>
<!-- Node1&#45;&gt;Node7 -->
<g id="edge6" class="edge">
<title>Node1&#45;&gt;Node7</title>
<path fill="none" stroke="#63b8ff" d="M367.19,-164.6C372.36,-156.33 378.31,-146.8 383.36,-138.72"/>
<polygon fill="#63b8ff" stroke="#63b8ff" points="386.21,-140.78 388.54,-130.45 380.27,-137.07 386.21,-140.78"/>
</g>
<!-- Node15 -->
<g id="node15" class="node">
<title>Node15</title>
<g id="a_node15"><a xlink:title=" ">
<polygon fill="#e0e0e0" stroke="#999999" points="616.75,-129 496.75,-129 496.75,-110 616.75,-110 616.75,-129"/>
<text text-anchor="middle" x="556.75" y="-117" font-family="Helvetica,sans-Serif" font-size="10.00">gen_cpp/Types_types.h</text>
</a>
</g>
</g>
<!-- Node1&#45;&gt;Node15 -->
<g id="edge14" class="edge">
<title>Node1&#45;&gt;Node15</title>
<path fill="none" stroke="#63b8ff" d="M413.72,-165.82C447.28,-155.18 488.38,-142.16 517.89,-132.81"/>
<polygon fill="#63b8ff" stroke="#63b8ff" points="518.68,-136.23 527.15,-129.88 516.56,-129.56 518.68,-136.23"/>
</g>
<!-- Node16 -->
<g id="node16" class="node">
<title>Node16</title>
<g id="a_node16"><a xlink:href="../../d0/db4/query__statistics_8h.html" target="_top" xlink:title=" ">
<polygon fill="white" stroke="#666666" points="829.25,-129 700.25,-129 700.25,-110 829.25,-110 829.25,-129"/>
<text text-anchor="middle" x="764.75" y="-117" font-family="Helvetica,sans-Serif" font-size="10.00">runtime/query_statistics.h</text>
</a>
</g>
</g>
<!-- Node1&#45;&gt;Node16 -->
<g id="edge15" class="edge">
<title>Node1&#45;&gt;Node16</title>
<path fill="none" stroke="#63b8ff" d="M413.5,-175.33C488.1,-163.68 616.63,-143.62 695.8,-131.26"/>
<polygon fill="#63b8ff" stroke="#63b8ff" points="696.28,-134.73 705.62,-129.73 695.2,-127.82 696.28,-134.73"/>
</g>
<!-- Node8 -->
<g id="node8" class="node">
<title>Node8</title>
<g id="a_node8"><a xlink:title=" ">
<polygon fill="#e0e0e0" stroke="#999999" points="517.75,-74 447.75,-74 447.75,-55 517.75,-55 517.75,-74"/>
<text text-anchor="middle" x="482.75" y="-62" font-family="Helvetica,sans-Serif" font-size="10.00">fmt/format.h</text>
</a>
</g>
</g>
<!-- Node7&#45;&gt;Node8 -->
<g id="edge7" class="edge">
<title>Node7&#45;&gt;Node8</title>
<path fill="none" stroke="#63b8ff" d="M409.68,-109.51C423.04,-101.47 442.86,-89.53 458.49,-80.11"/>
<polygon fill="#63b8ff" stroke="#63b8ff" points="459.99,-83.3 466.75,-75.14 456.38,-77.3 459.99,-83.3"/>
</g>
<!-- Node9 -->
<g id="node9" class="node">
<title>Node9</title>
<g id="a_node9"><a xlink:title=" ">
<polygon fill="#e0e0e0" stroke="#999999" points="613.25,-74 536.25,-74 536.25,-55 613.25,-55 613.25,-74"/>
<text text-anchor="middle" x="574.75" y="-62" font-family="Helvetica,sans-Serif" font-size="10.00">glog/logging.h</text>
</a>
</g>
</g>
<!-- Node7&#45;&gt;Node9 -->
<g id="edge8" class="edge">
<title>Node7&#45;&gt;Node9</title>
<path fill="none" stroke="#63b8ff" d="M425.29,-109.51C455.12,-100.73 500.72,-87.3 533.71,-77.59"/>
<polygon fill="#63b8ff" stroke="#63b8ff" points="534.31,-81.06 542.92,-74.87 532.34,-74.34 534.31,-81.06"/>
</g>
<!-- Node10 -->
<g id="node10" class="node">
<title>Node10</title>
<g id="a_node10"><a xlink:title=" ">
<polygon fill="#e0e0e0" stroke="#999999" points="685.75,-74 631.75,-74 631.75,-55 685.75,-55 685.75,-74"/>
<text text-anchor="middle" x="658.75" y="-62" font-family="Helvetica,sans-Serif" font-size="10.00">iostream</text>
</a>
</g>
</g>
<!-- Node7&#45;&gt;Node10 -->
<g id="edge9" class="edge">
<title>Node7&#45;&gt;Node10</title>
<path fill="none" stroke="#63b8ff" d="M441.15,-109.99C484.95,-101.84 552.75,-88.91 620.41,-74.44"/>
<polygon fill="#63b8ff" stroke="#63b8ff" points="620.74,-77.95 629.78,-72.43 619.27,-71.11 620.74,-77.95"/>
</g>
<!-- Node11 -->
<g id="node11" class="node">
<title>Node11</title>
<g id="a_node11"><a xlink:title=" ">
<polygon fill="#e0e0e0" stroke="#999999" points="67.25,-74 26.25,-74 26.25,-55 67.25,-55 67.25,-74"/>
<text text-anchor="middle" x="46.75" y="-62" font-family="Helvetica,sans-Serif" font-size="10.00">string</text>
</a>
</g>
</g>
<!-- Node7&#45;&gt;Node11 -->
<g id="edge10" class="edge">
<title>Node7&#45;&gt;Node11</title>
<path fill="none" stroke="#63b8ff" d="M348.55,-111.3C345.57,-110.85 342.62,-110.42 339.75,-110 226.54,-93.5 194.18,-97.85 78.7,-74.13"/>
<polygon fill="#63b8ff" stroke="#63b8ff" points="79.63,-70.74 69.12,-72.13 78.2,-77.6 79.63,-70.74"/>
</g>
<!-- Node12 -->
<g id="node12" class="node">
<title>Node12</title>
<g id="a_node12"><a xlink:title=" ">
<polygon fill="#e0e0e0" stroke="#999999" points="151.75,-74 85.75,-74 85.75,-55 151.75,-55 151.75,-74"/>
<text text-anchor="middle" x="118.75" y="-62" font-family="Helvetica,sans-Serif" font-size="10.00">string_view</text>
</a>
</g>
</g>
<!-- Node7&#45;&gt;Node12 -->
<g id="edge11" class="edge">
<title>Node7&#45;&gt;Node12</title>
<path fill="none" stroke="#63b8ff" d="M348.55,-109.88C303.72,-101.48 233.47,-88.22 163.45,-74.51"/>
<polygon fill="#63b8ff" stroke="#63b8ff" points="164.19,-71.09 153.7,-72.6 162.84,-77.96 164.19,-71.09"/>
</g>
<!-- Node13 -->
<g id="node13" class="node">
<title>Node13</title>
<g id="a_node13"><a xlink:href="../../d4/d10/compiler__util_8h.html" target="_top" xlink:title=" ">
<polygon fill="white" stroke="#666666" points="289.75,-74 169.75,-74 169.75,-55 289.75,-55 289.75,-74"/>
<text text-anchor="middle" x="229.75" y="-62" font-family="Helvetica,sans-Serif" font-size="10.00">common/compiler_util.h</text>
</a>
</g>
</g>
<!-- Node7&#45;&gt;Node13 -->
<g id="edge12" class="edge">
<title>Node7&#45;&gt;Node13</title>
<path fill="none" stroke="#63b8ff" d="M366.76,-109.51C339.66,-100.8 298.35,-87.53 268.17,-77.84"/>
<polygon fill="#63b8ff" stroke="#63b8ff" points="269.64,-74.64 259.05,-74.91 267.5,-81.3 269.64,-74.64"/>
</g>
<!-- Node14 -->
<g id="node14" class="node">
<title>Node14</title>
<g id="a_node14"><a xlink:title=" ">
<polygon fill="#e0e0e0" stroke="#999999" points="429.75,-74 307.75,-74 307.75,-55 429.75,-55 429.75,-74"/>
<text text-anchor="middle" x="368.75" y="-62" font-family="Helvetica,sans-Serif" font-size="10.00">gen_cpp/Status_types.h</text>
</a>
</g>
</g>
<!-- Node7&#45;&gt;Node14 -->
<g id="edge13" class="edge">
<title>Node7&#45;&gt;Node14</title>
<path fill="none" stroke="#63b8ff" d="M390.46,-109.75C387.13,-102.96 382.39,-93.3 378.19,-84.73"/>
<polygon fill="#63b8ff" stroke="#63b8ff" points="381.35,-83.24 373.81,-75.8 375.07,-86.32 381.35,-83.24"/>
</g>
<!-- Node16&#45;&gt;Node6 -->
<g id="edge16" class="edge">
<title>Node16&#45;&gt;Node6</title>
<path fill="none" stroke="#63b8ff" d="M758.31,-109.75C753.09,-102.66 745.57,-92.42 739.06,-83.59"/>
<polygon fill="#63b8ff" stroke="#63b8ff" points="741.98,-81.64 733.23,-75.66 736.34,-85.79 741.98,-81.64"/>
</g>
<!-- Node17 -->
<g id="node17" class="node">
<title>Node17</title>
<g id="a_node17"><a xlink:title=" ">
<polygon fill="#e0e0e0" stroke="#999999" points="958.25,-74 861.25,-74 861.25,-55 958.25,-55 958.25,-74"/>
<text text-anchor="middle" x="909.75" y="-62" font-family="Helvetica,sans-Serif" font-size="10.00">gen_cpp/data.pb.h</text>
</a>
</g>
</g>
<!-- Node16&#45;&gt;Node17 -->
<g id="edge17" class="edge">
<title>Node16&#45;&gt;Node17</title>
<path fill="none" stroke="#63b8ff" d="M789.35,-109.51C812.82,-100.93 848.42,-87.92 874.83,-78.27"/>
<polygon fill="#63b8ff" stroke="#63b8ff" points="875.91,-81.6 884.1,-74.88 873.5,-75.02 875.91,-81.6"/>
</g>
<!-- Node18 -->
<g id="node18" class="node">
<title>Node18</title>
<g id="a_node18"><a xlink:href="../../df/d63/spinlock_8h.html" target="_top" xlink:title=" ">
<polygon fill="white" stroke="#666666" points="843.25,-74 766.25,-74 766.25,-55 843.25,-55 843.25,-74"/>
<text text-anchor="middle" x="804.75" y="-62" font-family="Helvetica,sans-Serif" font-size="10.00">util/spinlock.h</text>
</a>
</g>
</g>
<!-- Node16&#45;&gt;Node18 -->
<g id="edge18" class="edge">
<title>Node16&#45;&gt;Node18</title>
<path fill="none" stroke="#63b8ff" d="M771.36,-109.75C776.71,-102.66 784.43,-92.42 791.1,-83.59"/>
<polygon fill="#63b8ff" stroke="#63b8ff" points="793.86,-85.74 797.09,-75.65 788.28,-81.52 793.86,-85.74"/>
</g>
<!-- Node18&#45;&gt;Node2 -->
<g id="edge20" class="edge">
<title>Node18&#45;&gt;Node2</title>
<path fill="none" stroke="#63b8ff" d="M766.01,-56.43C762.88,-55.92 759.77,-55.44 756.75,-55 626.35,-36.01 470.37,-20.26 402.34,-13.74"/>
<polygon fill="#63b8ff" stroke="#63b8ff" points="402.85,-10.27 392.56,-12.81 402.19,-17.24 402.85,-10.27"/>
</g>
<!-- Node19 -->
<g id="node19" class="node">
<title>Node19</title>
<g id="a_node19"><a xlink:title=" ">
<polygon fill="#e0e0e0" stroke="#999999" points="830.25,-19 779.25,-19 779.25,0 830.25,0 830.25,-19"/>
<text text-anchor="middle" x="804.75" y="-7" font-family="Helvetica,sans-Serif" font-size="10.00">sched.h</text>
</a>
</g>
</g>
<!-- Node18&#45;&gt;Node19 -->
<g id="edge19" class="edge">
<title>Node18&#45;&gt;Node19</title>
<path fill="none" stroke="#63b8ff" d="M804.75,-54.75C804.75,-48.27 804.75,-39.16 804.75,-30.9"/>
<polygon fill="#63b8ff" stroke="#63b8ff" points="808.25,-30.96 804.75,-20.96 801.25,-30.96 808.25,-30.96"/>
</g>
</g>
</svg>
