<?xml version="1.0" encoding="UTF-8" standalone="no"?>
<!DOCTYPE svg PUBLIC "-//W3C//DTD SVG 1.1//EN"
 "http://www.w3.org/Graphics/SVG/1.1/DTD/svg11.dtd">
<!-- Generated by graphviz version 7.1.0 (20230121.1956)
 -->
<!-- Title: size Pages: 1 -->
<!--zoomable 119 -->
<svg id="main" version="1.1" xmlns="http://www.w3.org/2000/svg" xmlns:xlink="http://www.w3.org/1999/xlink" xml:space="preserve" onload="init(evt)">
<style type="text/css"><![CDATA[
.edge:hover path { stroke: red; }
.edge:hover polygon { stroke: red; fill: red; }
]]></style>
<script type="text/javascript"><![CDATA[
var edges = document.getElementsByTagName('g');
if (edges && edges.length) {
  for (var i=0;i<edges.length;i++) {
    if (edges[i].id.substr(0,4)=='edge') {
      edges[i].setAttribute('class','edge');
    }
  }
}
]]></script>
        <defs>
                <circle id="rim" cx="0" cy="0" r="7"/>
                <circle id="rim2" cx="0" cy="0" r="3.5"/>
                <g id="zoomPlus">
                        <use xlink:href="#rim" fill="#404040">
                                <set attributeName="fill" to="#808080" begin="zoomplus.mouseover" end="zoomplus.mouseout"/>
                        </use>
                        <path d="M-4,0h8M0,-4v8" fill="none" stroke="white" stroke-width="1.5" pointer-events="none"/>
                </g>
                <g id="zoomMin">
                        <use xlink:href="#rim" fill="#404040">
                                <set attributeName="fill" to="#808080" begin="zoomminus.mouseover" end="zoomminus.mouseout"/>
                        </use>
                        <path d="M-4,0h8" fill="none" stroke="white" stroke-width="1.5" pointer-events="none"/>
                </g>
                <g id="dirArrow">
                        <path fill="none" stroke="white" stroke-width="1.5" d="M0,-3.0v7 M-2.5,-0.5L0,-3.0L2.5,-0.5"/>
                </g>
               <g id="resetDef">
                       <use xlink:href="#rim2" fill="#404040">
                               <set attributeName="fill" to="#808080" begin="reset.mouseover" end="reset.mouseout"/>
                       </use>
               </g>
        </defs>

<script type="text/javascript">
var viewWidth = 502;
var viewHeight = 119;
var sectionId = 'dynsection-10';
</script>
<script xlink:href="../../svgpan.js"/>
<svg id="graph" class="graph">
<g id="viewport">
<title>size</title>
<!-- Node1 -->
<g id="node1" class="node">
<title>Node1</title>
<g id="a_node1"><a xlink:title=" ">
<polygon fill="#999999" stroke="#666666" points="494,-55.16 459,-55.16 459,-36.16 494,-36.16 494,-55.16"/>
<text text-anchor="middle" x="476.5" y="-43.16" font-family="Helvetica,sans-Serif" font-size="10.00">size</text>
</a>
</g>
</g>
<!-- Node2 -->
<g id="node2" class="node">
<title>Node2</title>
<g id="a_node2"><a xlink:href="../../d7/dbe/classdoris_1_1io_1_1_stream_load_pipe.html#ae970c408ebf4b7adc1584d3ebf402bff" target="_top" xlink:title=" ">
<polygon fill="white" stroke="#666666" points="399.5,-111.16 351.5,-111.16 351.5,-92.16 399.5,-92.16 399.5,-111.16"/>
<text text-anchor="middle" x="375.5" y="-99.16" font-family="Helvetica,sans-Serif" font-size="10.00">append</text>
</a>
</g>
</g>
<!-- Node1&#45;&gt;Node2 -->
<g id="edge1" class="edge">
<title>Node1&#45;&gt;Node2</title>
<path fill="none" stroke="#63b8ff" d="M455.07,-62.34C445.67,-69.5 434.15,-77.6 423,-83.66 415.7,-87.63 407.33,-91.15 399.73,-94.01"/>
<polygon fill="#63b8ff" stroke="#63b8ff" points="457.09,-65.2 462.8,-56.27 452.77,-59.69 457.09,-65.2"/>
</g>
<!-- Node3 -->
<g id="node3" class="node">
<title>Node3</title>
<g id="a_node3"><a xlink:href="../../d7/dbe/classdoris_1_1io_1_1_stream_load_pipe.html#a83a20bebd224a2c49bf45506eb68d1db" target="_top" xlink:title=" ">
<polygon fill="white" stroke="#666666" points="423,-74.16 328,-74.16 328,-55.16 423,-55.16 423,-74.16"/>
<text text-anchor="middle" x="375.5" y="-62.16" font-family="Helvetica,sans-Serif" font-size="10.00">append_and_flush</text>
</a>
</g>
</g>
<!-- Node1&#45;&gt;Node3 -->
<g id="edge2" class="edge">
<title>Node1&#45;&gt;Node3</title>
<path fill="none" stroke="#63b8ff" d="M447.61,-51.01C440.03,-52.47 431.6,-54.09 423.27,-55.68"/>
<polygon fill="#63b8ff" stroke="#63b8ff" points="448.06,-54.49 457.22,-49.17 446.74,-47.62 448.06,-54.49"/>
</g>
<!-- Node5 -->
<g id="node5" class="node">
<title>Node5</title>
<g id="a_node5"><a xlink:href="../../d1/daf/classdoris_1_1io_1_1_kafka_consumer_pipe.html#aa0e83ccbfb27bdd62694f48d37323a82" target="_top" xlink:title=" ">
<polygon fill="white" stroke="#666666" points="128,-50.16 0,-50.16 0,-9.16 128,-9.16 128,-50.16"/>
<text text-anchor="start" x="8" y="-38.16" font-family="Helvetica,sans-Serif" font-size="10.00">doris::io::KafkaConsumer</text>
<text text-anchor="start" x="8" y="-27.16" font-family="Helvetica,sans-Serif" font-size="10.00">Pipe::append_with_line</text>
<text text-anchor="middle" x="64" y="-16.16" font-family="Helvetica,sans-Serif" font-size="10.00">_delimiter</text>
</a>
</g>
</g>
<!-- Node1&#45;&gt;Node5 -->
<g id="edge7" class="edge">
<title>Node1&#45;&gt;Node5</title>
<path fill="none" stroke="#63b8ff" d="M447.61,-37.87C439.69,-35.75 431.03,-33.52 423,-31.66 310.31,-5.48 278.87,8.06 164,-5.66 152.41,-7.05 140.22,-9.31 128.5,-11.91"/>
<polygon fill="#63b8ff" stroke="#63b8ff" points="446.52,-41.19 457.09,-40.44 448.36,-34.44 446.52,-41.19"/>
</g>
<!-- Node6 -->
<g id="node6" class="node">
<title>Node6</title>
<g id="a_node6"><a xlink:href="../../d1/daf/classdoris_1_1io_1_1_kafka_consumer_pipe.html#ae79eff3b162ecff119b440e61a509213" target="_top" xlink:title=" ">
<polygon fill="white" stroke="#666666" points="292,-44.66 164,-44.66 164,-14.66 292,-14.66 292,-44.66"/>
<text text-anchor="start" x="172" y="-32.66" font-family="Helvetica,sans-Serif" font-size="10.00">doris::io::KafkaConsumer</text>
<text text-anchor="middle" x="228" y="-21.66" font-family="Helvetica,sans-Serif" font-size="10.00">Pipe::append_json</text>
</a>
</g>
</g>
<!-- Node1&#45;&gt;Node6 -->
<g id="edge6" class="edge">
<title>Node1&#45;&gt;Node6</title>
<path fill="none" stroke="#63b8ff" d="M447.5,-43.84C410,-41.41 342.37,-37.02 292.25,-33.77"/>
<polygon fill="#63b8ff" stroke="#63b8ff" points="446.84,-47.31 457.05,-44.46 447.29,-40.32 446.84,-47.31"/>
</g>
<!-- Node4 -->
<g id="node4" class="node">
<title>Node4</title>
<g id="a_node4"><a xlink:href="../../d7/dbe/classdoris_1_1io_1_1_stream_load_pipe.html#ae5654fbb16aa0509dc65ce5d31775929" target="_top" xlink:title=" ">
<polygon fill="white" stroke="#666666" points="252,-82.16 204,-82.16 204,-63.16 252,-63.16 252,-82.16"/>
<text text-anchor="middle" x="228" y="-70.16" font-family="Helvetica,sans-Serif" font-size="10.00">append</text>
</a>
</g>
</g>
<!-- Node3&#45;&gt;Node4 -->
<g id="edge3" class="edge">
<title>Node3&#45;&gt;Node4</title>
<path fill="none" stroke="#63b8ff" d="M316.46,-67.85C293.93,-69.09 269.43,-70.44 252.12,-71.39"/>
<polygon fill="#63b8ff" stroke="#63b8ff" points="316.36,-71.36 326.15,-67.32 315.97,-64.37 316.36,-71.36"/>
</g>
<!-- Node3&#45;&gt;Node6 -->
<g id="edge5" class="edge">
<title>Node3&#45;&gt;Node6</title>
<path fill="none" stroke="#63b8ff" d="M322.16,-52.07C312.52,-49.75 302.36,-47.31 292.43,-44.92"/>
<polygon fill="#63b8ff" stroke="#63b8ff" points="321.18,-55.43 331.72,-54.37 322.82,-48.63 321.18,-55.43"/>
</g>
<!-- Node4&#45;&gt;Node5 -->
<g id="edge4" class="edge">
<title>Node4&#45;&gt;Node5</title>
<path fill="none" stroke="#63b8ff" d="M192.86,-63.6C174.15,-58.63 150.36,-52.32 128.38,-46.48"/>
<polygon fill="#63b8ff" stroke="#63b8ff" points="191.76,-66.93 202.33,-66.11 193.56,-60.16 191.76,-66.93"/>
</g>
</g>
</svg>
        <g id="navigator" transform="translate(0 0)" fill="#404254">
                <rect fill="#f2f5e9" fill-opacity="0.5" stroke="#606060" stroke-width=".5" x="0" y="0" width="60" height="60"/>
                <use id="zoomplus" xlink:href="#zoomPlus" x="17" y="9" onmousedown="handleZoom(evt,'in')"/>
                <use id="zoomminus" xlink:href="#zoomMin" x="42" y="9" onmousedown="handleZoom(evt,'out')"/>
                <use id="reset" xlink:href="#resetDef" x="30" y="36" onmousedown="handleReset()"/>
                <g id="arrowUp" xlink:href="#dirArrow" transform="translate(30 24)" onmousedown="handlePan(0,-1)">
                  <use xlink:href="#rim" fill="#404040">
                        <set attributeName="fill" to="#808080" begin="arrowUp.mouseover" end="arrowUp.mouseout"/>
                  </use>
                  <path fill="none" stroke="white" stroke-width="1.5" d="M0,-3.0v7 M-2.5,-0.5L0,-3.0L2.5,-0.5"/>
                </g>
                <g id="arrowRight" xlink:href="#dirArrow" transform="rotate(90) translate(36 -43)" onmousedown="handlePan(1,0)">
                  <use xlink:href="#rim" fill="#404040">
                        <set attributeName="fill" to="#808080" begin="arrowRight.mouseover" end="arrowRight.mouseout"/>
                  </use>
                  <path fill="none" stroke="white" stroke-width="1.5" d="M0,-3.0v7 M-2.5,-0.5L0,-3.0L2.5,-0.5"/>
                </g>
                <g id="arrowDown" xlink:href="#dirArrow" transform="rotate(180) translate(-30 -48)" onmousedown="handlePan(0,1)">
                  <use xlink:href="#rim" fill="#404040">
                        <set attributeName="fill" to="#808080" begin="arrowDown.mouseover" end="arrowDown.mouseout"/>
                  </use>
                  <path fill="none" stroke="white" stroke-width="1.5" d="M0,-3.0v7 M-2.5,-0.5L0,-3.0L2.5,-0.5"/>
                </g>
                <g id="arrowLeft" xlink:href="#dirArrow" transform="rotate(270) translate(-36 17)" onmousedown="handlePan(-1,0)">
                  <use xlink:href="#rim" fill="#404040">
                        <set attributeName="fill" to="#808080" begin="arrowLeft.mouseover" end="arrowLeft.mouseout"/>
                  </use>
                  <path fill="none" stroke="white" stroke-width="1.5" d="M0,-3.0v7 M-2.5,-0.5L0,-3.0L2.5,-0.5"/>
                </g>
        </g>
        <svg viewBox="0 0 15 15" width="100%" height="30px" preserveAspectRatio="xMaxYMin meet">
         <g id="arrow_out" transform="scale(0.3 0.3)">
          <a xlink:href="classdoris_1_1io_1_1_stream_load_pipe_ad7701a09a964eab360a8e51fa7ad2c16_icgraph_org.svg" target="_base">
           <rect id="button" ry="5" rx="5" y="6" x="6" height="38" width="38"
                fill="#f2f5e9" fill-opacity="0.5" stroke="#606060" stroke-width="1.0"/>
           <path id="arrow"
             d="M 11.500037,31.436501 C 11.940474,20.09759 22.043105,11.32322 32.158766,21.979434 L 37.068811,17.246167 C 37.068811,17.246167 37.088388,32 37.088388,32 L 22.160133,31.978069 C 22.160133,31.978069 26.997745,27.140456 26.997745,27.140456 C 18.528582,18.264221 13.291696,25.230495 11.500037,31.436501 z"
             style="fill:#404040;"/>
          </a>
         </g>
        </svg>
</svg>
