<?xml version="1.0" encoding="UTF-8" standalone="no"?>
<!DOCTYPE svg PUBLIC "-//W3C//DTD SVG 1.1//EN"
 "http://www.w3.org/Graphics/SVG/1.1/DTD/svg11.dtd">
<!-- Generated by graphviz version 7.1.0 (20230121.1956)
 -->
<!-- Title: FieldTypeTraits&lt; OLAP_FIELD_TYPE_DATETIMEV2 &gt; Pages: 1 -->
<svg width="321pt" height="249pt"
 viewBox="0.00 0.00 321.00 249.00" xmlns="http://www.w3.org/2000/svg" xmlns:xlink="http://www.w3.org/1999/xlink">
<g id="graph0" class="graph" transform="scale(1 1) rotate(0) translate(4 245)">
<title>FieldTypeTraits&lt; OLAP_FIELD_TYPE_DATETIMEV2 &gt;</title>
<!-- Node1 -->
<g id="node1" class="node">
<title>Node1</title>
<g id="a_node1"><a xlink:title=" ">
<polygon fill="#999999" stroke="#666666" points="176,-30 18,-30 18,0 176,0 176,-30"/>
<text text-anchor="start" x="26" y="-18" font-family="Helvetica,sans-Serif" font-size="10.00">FieldTypeTraits&lt; OLAP</text>
<text text-anchor="middle" x="97" y="-7" font-family="Helvetica,sans-Serif" font-size="10.00">_FIELD_TYPE_DATETIMEV2 &gt;</text>
</a>
</g>
</g>
<!-- Node2 -->
<g id="node2" class="node">
<title>Node2</title>
<g id="a_node2"><a xlink:href="../../d3/d40/structdoris_1_1_base_fieldtype_traits.html" target="_top" xlink:title=" ">
<polygon fill="white" stroke="#666666" points="194,-97 0,-97 0,-67 194,-67 194,-97"/>
<text text-anchor="start" x="8" y="-85" font-family="Helvetica,sans-Serif" font-size="10.00">BaseFieldtypeTraits</text>
<text text-anchor="middle" x="97" y="-74" font-family="Helvetica,sans-Serif" font-size="10.00">&lt; OLAP_FIELD_TYPE_DATETIMEV2 &gt;</text>
</a>
</g>
</g>
<!-- Node2&#45;&gt;Node1 -->
<g id="edge1" class="edge">
<title>Node2&#45;&gt;Node1</title>
<path fill="none" stroke="#63b8ff" d="M97,-55.28C97,-46.81 97,-37.7 97,-30.39"/>
<polygon fill="#63b8ff" stroke="#63b8ff" points="93.5,-55.06 97,-65.06 100.5,-55.06 93.5,-55.06"/>
</g>
<!-- Node3 -->
<g id="node3" class="node">
<title>Node3</title>
<g id="a_node3"><a xlink:href="../../d2/d71/structdoris_1_1_cpp_type_traits.html" target="_top" xlink:title=" ">
<polygon fill="white" stroke="#666666" points="146.5,-241 39.5,-241 39.5,-211 146.5,-211 146.5,-241"/>
<text text-anchor="start" x="47.5" y="-229" font-family="Helvetica,sans-Serif" font-size="10.00">CppTypeTraits&lt; field</text>
<text text-anchor="middle" x="93" y="-218" font-family="Helvetica,sans-Serif" font-size="10.00">_type &gt;</text>
</a>
</g>
</g>
<!-- Node3&#45;&gt;Node2 -->
<g id="edge2" class="edge">
<title>Node3&#45;&gt;Node2</title>
<path fill="none" stroke="#63b8ff" d="M93.72,-199.44C94.56,-169.63 95.92,-121.38 96.59,-97.44"/>
<polygon fill="#63b8ff" stroke="#63b8ff" points="90.23,-199 93.45,-209.09 97.23,-199.19 90.23,-199"/>
</g>
<!-- Node4 -->
<g id="node4" class="node">
<title>Node4</title>
<g id="a_node4"><a xlink:href="../../d3/d40/structdoris_1_1_base_fieldtype_traits.html" target="_top" xlink:title=" ">
<polygon fill="white" stroke="#666666" points="213,-174 109,-174 109,-144 213,-144 213,-174"/>
<text text-anchor="start" x="117" y="-162" font-family="Helvetica,sans-Serif" font-size="10.00">BaseFieldtypeTraits</text>
<text text-anchor="middle" x="161" y="-151" font-family="Helvetica,sans-Serif" font-size="10.00">&lt; field_type &gt;</text>
</a>
</g>
</g>
<!-- Node3&#45;&gt;Node4 -->
<g id="edge4" class="edge">
<title>Node3&#45;&gt;Node4</title>
<path fill="none" stroke="#63b8ff" d="M116.28,-202.75C126.1,-193.36 137.24,-182.71 145.95,-174.39"/>
<polygon fill="#63b8ff" stroke="#63b8ff" points="114,-200.09 109.19,-209.53 118.83,-205.15 114,-200.09"/>
</g>
<!-- Node4&#45;&gt;Node2 -->
<g id="edge3" class="edge">
<title>Node4&#45;&gt;Node2</title>
<path fill="none" stroke="orange" stroke-dasharray="5,2" d="M141.49,-135.13C131.01,-122.85 118.41,-108.09 109.3,-97.42"/>
<polygon fill="orange" stroke="orange" points="138.52,-137.05 147.68,-142.39 143.85,-132.51 138.52,-137.05"/>
<text text-anchor="middle" x="222.5" y="-118" font-family="Helvetica,sans-Serif" font-size="10.00"> &lt; OLAP_FIELD_TYPE_DATETIMEV2 &gt;</text>
</g>
</g>
</svg>
