<?xml version="1.0" encoding="UTF-8" standalone="no"?>
<!DOCTYPE svg PUBLIC "-//W3C//DTD SVG 1.1//EN"
 "http://www.w3.org/Graphics/SVG/1.1/DTD/svg11.dtd">
<!-- Generated by graphviz version 7.1.0 (20230121.1956)
 -->
<!-- Title: append Pages: 1 -->
<svg width="702pt" height="457pt"
 viewBox="0.00 0.00 702.00 456.50" xmlns="http://www.w3.org/2000/svg" xmlns:xlink="http://www.w3.org/1999/xlink">
<g id="graph0" class="graph" transform="scale(1 1) rotate(0) translate(4 452.5)">
<title>append</title>
<!-- Node1 -->
<g id="node1" class="node">
<title>Node1</title>
<g id="a_node1"><a xlink:title=" ">
<polygon fill="#999999" stroke="#666666" points="48,-180 0,-180 0,-161 48,-161 48,-180"/>
<text text-anchor="middle" x="24" y="-168" font-family="Helvetica,sans-Serif" font-size="10.00">append</text>
</a>
</g>
</g>
<!-- Node2 -->
<g id="node2" class="node">
<title>Node2</title>
<g id="a_node2"><a xlink:href="../../d2/d12/classdoris_1_1vectorized_1_1_block.html#a08f559e5612203aeedf927d660e77b67" target="_top" xlink:title=" ">
<polygon fill="white" stroke="#666666" points="344.5,-276.5 249.5,-276.5 249.5,-246.5 344.5,-246.5 344.5,-276.5"/>
<text text-anchor="start" x="257.5" y="-264.5" font-family="Helvetica,sans-Serif" font-size="10.00">doris::vectorized::</text>
<text text-anchor="middle" x="297" y="-253.5" font-family="Helvetica,sans-Serif" font-size="10.00">Block::columns</text>
</a>
</g>
</g>
<!-- Node1&#45;&gt;Node2 -->
<g id="edge1" class="edge">
<title>Node1&#45;&gt;Node2</title>
<path fill="none" stroke="#63b8ff" d="M36.41,-180.4C47.74,-189.74 66,-203.47 84,-211.5 133.62,-233.63 194.31,-246.66 238.02,-253.85"/>
<polygon fill="#63b8ff" stroke="#63b8ff" points="237.39,-257.29 247.82,-255.4 238.49,-250.38 237.39,-257.29"/>
</g>
<!-- Node3 -->
<g id="node3" class="node">
<title>Node3</title>
<g id="a_node3"><a xlink:href="../../d8/d9b/classdoris_1_1_table_connector.html#ab9b7cf55890c2da30392104cb568c232" target="_top" xlink:title=" ">
<polygon fill="white" stroke="#666666" points="352,-352 242,-352 242,-333 352,-333 352,-352"/>
<text text-anchor="middle" x="297" y="-340" font-family="Helvetica,sans-Serif" font-size="10.00">convert_column_data</text>
</a>
</g>
</g>
<!-- Node1&#45;&gt;Node3 -->
<g id="edge2" class="edge">
<title>Node1&#45;&gt;Node3</title>
<path fill="none" stroke="#63b8ff" d="M26.25,-180.42C29.96,-205.44 43.33,-271.44 84,-303.5 125.18,-335.97 184.8,-344.57 230.33,-345.72"/>
<polygon fill="#63b8ff" stroke="#63b8ff" points="230.02,-349.21 240.07,-345.84 230.11,-342.21 230.02,-349.21"/>
</g>
<!-- Node10 -->
<g id="node10" class="node">
<title>Node10</title>
<g id="a_node10"><a xlink:href="../../d9/d8d/classdoris_1_1_status.html#a6ec1a217f203269ab53d2290d602db24" target="_top" xlink:title=" ">
<polygon fill="white" stroke="#666666" points="517,-199 425,-199 425,-180 517,-180 517,-199"/>
<text text-anchor="middle" x="471" y="-187" font-family="Helvetica,sans-Serif" font-size="10.00">doris::Status::OK</text>
</a>
</g>
</g>
<!-- Node1&#45;&gt;Node10 -->
<g id="edge14" class="edge">
<title>Node1&#45;&gt;Node10</title>
<path fill="none" stroke="#63b8ff" d="M36.35,-160.62C47.65,-151.35 65.87,-137.83 84,-130.5 196.22,-85.14 240.14,-65.3 355,-103.5 395.36,-116.92 433.01,-150.66 453.63,-171.66"/>
<polygon fill="#63b8ff" stroke="#63b8ff" points="450.9,-173.88 460.34,-178.7 455.97,-169.04 450.9,-173.88"/>
</g>
<!-- Node12 -->
<g id="node12" class="node">
<title>Node12</title>
<g id="a_node12"><a xlink:href="../../d8/d9b/classdoris_1_1_table_connector.html#ac19e64cf9618aa532bcce8b3569d5c19" target="_top" xlink:title=" ">
<polygon fill="white" stroke="#666666" points="184.5,-56 102.5,-56 102.5,-37 184.5,-37 184.5,-56"/>
<text text-anchor="middle" x="143.5" y="-44" font-family="Helvetica,sans-Serif" font-size="10.00">exec_write_sql</text>
</a>
</g>
</g>
<!-- Node1&#45;&gt;Node12 -->
<g id="edge12" class="edge">
<title>Node1&#45;&gt;Node12</title>
<path fill="none" stroke="#63b8ff" d="M28.39,-160.55C35.6,-140.78 54.28,-96.23 84,-70.5 88.09,-66.96 92.77,-63.89 97.67,-61.25"/>
<polygon fill="#63b8ff" stroke="#63b8ff" points="99,-64.49 106.53,-57.05 96,-58.17 99,-64.49"/>
</g>
<!-- Node13 -->
<g id="node13" class="node">
<title>Node13</title>
<g id="a_node13"><a xlink:href="../../d2/d12/classdoris_1_1vectorized_1_1_block.html#a54f8f7eae676dfa49029fff7c7ce8f05" target="_top" xlink:title="References are invalidated after calling functions above.">
<polygon fill="white" stroke="#666666" points="355,-142.5 239,-142.5 239,-112.5 355,-112.5 355,-142.5"/>
<text text-anchor="start" x="247" y="-130.5" font-family="Helvetica,sans-Serif" font-size="10.00">doris::vectorized::</text>
<text text-anchor="middle" x="297" y="-119.5" font-family="Helvetica,sans-Serif" font-size="10.00">Block::get_by_position</text>
</a>
</g>
</g>
<!-- Node1&#45;&gt;Node13 -->
<g id="edge13" class="edge">
<title>Node1&#45;&gt;Node13</title>
<path fill="none" stroke="#63b8ff" d="M48.25,-161.83C59,-158.13 72.01,-154.08 84,-151.5 131.33,-141.31 185.6,-135.27 227.38,-131.79"/>
<polygon fill="#63b8ff" stroke="#63b8ff" points="227.62,-135.29 237.31,-131 227.06,-128.31 227.62,-135.29"/>
</g>
<!-- Node14 -->
<g id="node14" class="node">
<title>Node14</title>
<g id="a_node14"><a xlink:href="../../d8/d9b/classdoris_1_1_table_connector.html#a6e1bb847d1b12059f142b00f8538b25f" target="_top" xlink:title=" ">
<polygon fill="white" stroke="#666666" points="195.5,-294 91.5,-294 91.5,-275 195.5,-275 195.5,-294"/>
<text text-anchor="middle" x="143.5" y="-282" font-family="Helvetica,sans-Serif" font-size="10.00">oracle_type_append</text>
</a>
</g>
</g>
<!-- Node1&#45;&gt;Node14 -->
<g id="edge15" class="edge">
<title>Node1&#45;&gt;Node14</title>
<path fill="none" stroke="#63b8ff" d="M29.03,-180.28C36.98,-198.46 56.33,-237.67 84,-260.5 88.22,-263.98 93.02,-267.02 98.01,-269.66"/>
<polygon fill="#63b8ff" stroke="#63b8ff" points="96.48,-272.8 107.02,-273.86 99.44,-266.46 96.48,-272.8"/>
</g>
<!-- Node15 -->
<g id="node15" class="node">
<title>Node15</title>
<g id="a_node15"><a xlink:href="../../d2/d12/classdoris_1_1vectorized_1_1_block.html#a9be86262d8ec3739dba5e0910c2339ad" target="_top" xlink:title="Returns number of rows from first column in block, not equal to nullptr. If no columns,...">
<polygon fill="white" stroke="#666666" points="344.5,-228.5 249.5,-228.5 249.5,-198.5 344.5,-198.5 344.5,-228.5"/>
<text text-anchor="start" x="257.5" y="-216.5" font-family="Helvetica,sans-Serif" font-size="10.00">doris::vectorized::</text>
<text text-anchor="middle" x="297" y="-205.5" font-family="Helvetica,sans-Serif" font-size="10.00">Block::rows</text>
</a>
</g>
</g>
<!-- Node1&#45;&gt;Node15 -->
<g id="edge21" class="edge">
<title>Node1&#45;&gt;Node15</title>
<path fill="none" stroke="#63b8ff" d="M48.29,-178.66C59.04,-182.15 72.05,-185.99 84,-188.5 135.5,-199.3 195.08,-205.81 237.95,-209.47"/>
<polygon fill="#63b8ff" stroke="#63b8ff" points="237.53,-212.95 247.79,-210.28 238.11,-205.97 237.53,-212.95"/>
</g>
<!-- Node16 -->
<g id="node16" class="node">
<title>Node16</title>
<g id="a_node16"><a xlink:href="../../d8/d9b/classdoris_1_1_table_connector.html#ac2394118f7e06554142f0eef6d4e21e9" target="_top" xlink:title=" ">
<polygon fill="white" stroke="#666666" points="203,-180 84,-180 84,-161 203,-161 203,-180"/>
<text text-anchor="middle" x="143.5" y="-168" font-family="Helvetica,sans-Serif" font-size="10.00">sap_hana_type_append</text>
</a>
</g>
</g>
<!-- Node1&#45;&gt;Node16 -->
<g id="edge22" class="edge">
<title>Node1&#45;&gt;Node16</title>
<path fill="none" stroke="#63b8ff" d="M48.5,-170.5C55.57,-170.5 63.73,-170.5 72.23,-170.5"/>
<polygon fill="#63b8ff" stroke="#63b8ff" points="72.02,-174 82.02,-170.5 72.02,-167 72.02,-174"/>
</g>
<!-- Node17 -->
<g id="node17" class="node">
<title>Node17</title>
<g id="a_node17"><a xlink:href="../../d8/d9b/classdoris_1_1_table_connector.html#a0e8f983df95fad06fb1692ff229dc99f" target="_top" xlink:title=" ">
<polygon fill="white" stroke="#666666" points="189.5,-19 97.5,-19 97.5,0 189.5,0 189.5,-19"/>
<text text-anchor="middle" x="143.5" y="-7" font-family="Helvetica,sans-Serif" font-size="10.00">utf8_to_u16string</text>
</a>
</g>
</g>
<!-- Node1&#45;&gt;Node17 -->
<g id="edge28" class="edge">
<title>Node1&#45;&gt;Node17</title>
<path fill="none" stroke="#63b8ff" d="M26.19,-160.53C29.82,-134.65 43.11,-64.76 84,-27.5 85.08,-26.51 86.22,-25.58 87.4,-24.7"/>
<polygon fill="#63b8ff" stroke="#63b8ff" points="89.05,-27.79 95.86,-19.67 85.47,-21.77 89.05,-27.79"/>
</g>
<!-- Node3&#45;&gt;Node3 -->
<g id="edge4" class="edge">
<title>Node3&#45;&gt;Node3</title>
<path fill="none" stroke="#63b8ff" d="M272.97,-352.37C262.01,-360.94 270.02,-370 297,-370 312.18,-370 321.35,-367.13 324.52,-363.1"/>
<polygon fill="#63b8ff" stroke="#63b8ff" points="327.92,-362.23 321.5,-353.81 321.27,-364.4 327.92,-362.23"/>
</g>
<!-- Node4 -->
<g id="node4" class="node">
<title>Node4</title>
<g id="a_node4"><a xlink:href="../../d6/d94/namespacedoris.html#ad11924318fdbc24a45b65c7a0b5886a7" target="_top" xlink:title=" ">
<polygon fill="white" stroke="#666666" points="518,-352 424,-352 424,-333 518,-333 518,-352"/>
<text text-anchor="middle" x="471" y="-340" font-family="Helvetica,sans-Serif" font-size="10.00">doris::binary_cast</text>
</a>
</g>
</g>
<!-- Node3&#45;&gt;Node4 -->
<g id="edge3" class="edge">
<title>Node3&#45;&gt;Node4</title>
<path fill="none" stroke="#63b8ff" d="M352.42,-342.5C371.5,-342.5 392.99,-342.5 412.33,-342.5"/>
<polygon fill="#63b8ff" stroke="#63b8ff" points="412.22,-346 422.22,-342.5 412.22,-339 412.22,-346"/>
</g>
<!-- Node5 -->
<g id="node5" class="node">
<title>Node5</title>
<g id="a_node5"><a xlink:href="../../dd/dd0/structdoris_1_1_type_descriptor.html#ae21c3e223fb1aec0439964d01e5e0282" target="_top" xlink:title=" ">
<polygon fill="white" stroke="#666666" points="526,-314.5 416,-314.5 416,-284.5 526,-284.5 526,-314.5"/>
<text text-anchor="start" x="424" y="-302.5" font-family="Helvetica,sans-Serif" font-size="10.00">doris::TypeDescriptor</text>
<text text-anchor="middle" x="471" y="-291.5" font-family="Helvetica,sans-Serif" font-size="10.00">::debug_string</text>
</a>
</g>
</g>
<!-- Node3&#45;&gt;Node5 -->
<g id="edge5" class="edge">
<title>Node3&#45;&gt;Node5</title>
<path fill="none" stroke="#63b8ff" d="M337.89,-332.53C357.67,-327.58 382.07,-321.48 404.5,-315.87"/>
<polygon fill="#63b8ff" stroke="#63b8ff" points="405.35,-319.27 414.2,-313.45 403.65,-312.48 405.35,-319.27"/>
</g>
<!-- Node7 -->
<g id="node7" class="node">
<title>Node7</title>
<g id="a_node7"><a xlink:href="../../da/dde/classdoris_1_1vectorized_1_1_i_column.html#a71519a1ef85e0995614698c86be7f73e" target="_top" xlink:title="Like the previous one, but avoids extra copying if Field is in a container, for example.">
<polygon fill="white" stroke="#666666" points="518.5,-266.5 423.5,-266.5 423.5,-236.5 518.5,-236.5 518.5,-266.5"/>
<text text-anchor="start" x="431.5" y="-254.5" font-family="Helvetica,sans-Serif" font-size="10.00">doris::vectorized::</text>
<text text-anchor="middle" x="471" y="-243.5" font-family="Helvetica,sans-Serif" font-size="10.00">IColumn::get</text>
</a>
</g>
</g>
<!-- Node3&#45;&gt;Node7 -->
<g id="edge7" class="edge">
<title>Node3&#45;&gt;Node7</title>
<path fill="none" stroke="#63b8ff" d="M329.01,-332.56C337.87,-328.91 347.23,-324.24 355,-318.5 375.05,-303.69 370.21,-289.25 391,-275.5 397.58,-271.15 404.99,-267.56 412.56,-264.6"/>
<polygon fill="#63b8ff" stroke="#63b8ff" points="413.59,-267.95 421.87,-261.33 411.28,-261.34 413.59,-267.95"/>
</g>
<!-- Node8 -->
<g id="node8" class="node">
<title>Node8</title>
<g id="a_node8"><a xlink:href="../../da/dde/classdoris_1_1vectorized_1_1_i_column.html#ac276c99b237c085b9717447709dedb45" target="_top" xlink:title=" ">
<polygon fill="white" stroke="#666666" points="526,-448.5 416,-448.5 416,-418.5 526,-418.5 526,-448.5"/>
<text text-anchor="start" x="424" y="-436.5" font-family="Helvetica,sans-Serif" font-size="10.00">doris::vectorized::</text>
<text text-anchor="middle" x="471" y="-425.5" font-family="Helvetica,sans-Serif" font-size="10.00">IColumn::get_data_at</text>
</a>
</g>
</g>
<!-- Node3&#45;&gt;Node8 -->
<g id="edge8" class="edge">
<title>Node3&#45;&gt;Node8</title>
<path fill="none" stroke="#63b8ff" d="M308.96,-352.27C325.6,-366.65 358.72,-393.52 391,-409.5 395.46,-411.71 400.16,-413.75 404.95,-415.65"/>
<polygon fill="#63b8ff" stroke="#63b8ff" points="403.53,-418.85 414.12,-419.02 405.94,-412.28 403.53,-418.85"/>
</g>
<!-- Node9 -->
<g id="node9" class="node">
<title>Node9</title>
<g id="a_node9"><a xlink:href="../../de/d17/classdoris_1_1vectorized_1_1_data_type_array.html#a7ae98d4d0317822b218f270f93fcae75" target="_top" xlink:title=" ">
<polygon fill="white" stroke="#666666" points="551,-400.5 391,-400.5 391,-370.5 551,-370.5 551,-400.5"/>
<text text-anchor="start" x="399" y="-388.5" font-family="Helvetica,sans-Serif" font-size="10.00">doris::vectorized::</text>
<text text-anchor="middle" x="471" y="-377.5" font-family="Helvetica,sans-Serif" font-size="10.00">DataTypeArray::get_nested_type</text>
</a>
</g>
</g>
<!-- Node3&#45;&gt;Node9 -->
<g id="edge9" class="edge">
<title>Node3&#45;&gt;Node9</title>
<path fill="none" stroke="#63b8ff" d="M337.89,-352.47C355.48,-356.87 376.71,-362.18 396.96,-367.24"/>
<polygon fill="#63b8ff" stroke="#63b8ff" points="396.07,-370.62 406.62,-369.65 397.77,-363.83 396.07,-370.62"/>
</g>
<!-- Node3&#45;&gt;Node10 -->
<g id="edge10" class="edge">
<title>Node3&#45;&gt;Node10</title>
<path fill="none" stroke="#63b8ff" d="M333.85,-332.51C341.56,-329.05 349.14,-324.49 355,-318.5 385.42,-287.41 361.37,-259.34 391,-227.5 400.48,-217.32 413.26,-209.56 425.78,-203.8"/>
<polygon fill="#63b8ff" stroke="#63b8ff" points="426.91,-207.12 434.76,-200 424.18,-200.67 426.91,-207.12"/>
</g>
<!-- Node6 -->
<g id="node6" class="node">
<title>Node6</title>
<g id="a_node6"><a xlink:href="../../d6/d94/namespacedoris.html#a66421d0e4ffabe98bf2e77cdaeabdee0" target="_top" xlink:title=" ">
<polygon fill="white" stroke="#666666" points="693,-309 588,-309 588,-290 693,-290 693,-309"/>
<text text-anchor="middle" x="640.5" y="-297" font-family="Helvetica,sans-Serif" font-size="10.00">doris::type_to_string</text>
</a>
</g>
</g>
<!-- Node5&#45;&gt;Node6 -->
<g id="edge6" class="edge">
<title>Node5&#45;&gt;Node6</title>
<path fill="none" stroke="#63b8ff" d="M526.38,-299.5C542.37,-299.5 559.99,-299.5 576.48,-299.5"/>
<polygon fill="#63b8ff" stroke="#63b8ff" points="576.16,-303 586.16,-299.5 576.16,-296 576.16,-303"/>
</g>
<!-- Node11 -->
<g id="node11" class="node">
<title>Node11</title>
<g id="a_node11"><a xlink:href="../../d9/d8d/classdoris_1_1_status.html#aafde58df1b2a6a91d5b674373be3ffc5" target="_top" xlink:title=" ">
<polygon fill="white" stroke="#666666" points="694,-199 587,-199 587,-180 694,-180 694,-199"/>
<text text-anchor="middle" x="640.5" y="-187" font-family="Helvetica,sans-Serif" font-size="10.00">doris::Status::Status</text>
</a>
</g>
</g>
<!-- Node10&#45;&gt;Node11 -->
<g id="edge11" class="edge">
<title>Node10&#45;&gt;Node11</title>
<path fill="none" stroke="#63b8ff" d="M517.33,-189.5C535.14,-189.5 555.92,-189.5 575.23,-189.5"/>
<polygon fill="#63b8ff" stroke="#63b8ff" points="575.2,-193 585.2,-189.5 575.2,-186 575.2,-193"/>
</g>
<!-- Node14&#45;&gt;Node2 -->
<g id="edge16" class="edge">
<title>Node14&#45;&gt;Node2</title>
<path fill="none" stroke="#63b8ff" d="M195.79,-276.71C209.27,-274.67 223.91,-272.44 237.73,-270.35"/>
<polygon fill="#63b8ff" stroke="#63b8ff" points="238.24,-273.81 247.6,-268.85 237.19,-266.89 238.24,-273.81"/>
</g>
<!-- Node14&#45;&gt;Node3 -->
<g id="edge17" class="edge">
<title>Node14&#45;&gt;Node3</title>
<path fill="none" stroke="#63b8ff" d="M170.54,-294.47C195.01,-303.84 231.85,-317.94 259.29,-328.45"/>
<polygon fill="#63b8ff" stroke="#63b8ff" points="258.04,-331.71 268.63,-332.02 260.54,-325.18 258.04,-331.71"/>
</g>
<!-- Node14&#45;&gt;Node10 -->
<g id="edge19" class="edge">
<title>Node14&#45;&gt;Node10</title>
<path fill="none" stroke="#63b8ff" d="M179.11,-294.44C223.04,-304.97 299.75,-316.23 355,-285.5 381.51,-270.75 368.43,-247.77 391,-227.5 401.99,-217.63 416,-209.78 429.16,-203.84"/>
<polygon fill="#63b8ff" stroke="#63b8ff" points="430.22,-207.19 438.07,-200.07 427.5,-200.75 430.22,-207.19"/>
</g>
<!-- Node14&#45;&gt;Node13 -->
<g id="edge18" class="edge">
<title>Node14&#45;&gt;Node13</title>
<path fill="none" stroke="#63b8ff" d="M153.98,-274.68C177.63,-250.17 239.75,-185.79 273.47,-150.85"/>
<polygon fill="#63b8ff" stroke="#63b8ff" points="275.91,-153.36 280.33,-143.74 270.87,-148.5 275.91,-153.36"/>
</g>
<!-- Node14&#45;&gt;Node15 -->
<g id="edge20" class="edge">
<title>Node14&#45;&gt;Node15</title>
<path fill="none" stroke="#63b8ff" d="M163.51,-274.6C182.48,-264.83 212.52,-249.65 239,-237.5 241.93,-236.16 244.95,-234.8 248.01,-233.45"/>
<polygon fill="#63b8ff" stroke="#63b8ff" points="249.28,-236.71 257.06,-229.52 246.49,-230.29 249.28,-236.71"/>
</g>
<!-- Node16&#45;&gt;Node2 -->
<g id="edge23" class="edge">
<title>Node16&#45;&gt;Node2</title>
<path fill="none" stroke="#63b8ff" d="M156.47,-180.29C173.87,-194.22 207.54,-220 239,-237.5 241.21,-238.73 243.5,-239.94 245.83,-241.11"/>
<polygon fill="#63b8ff" stroke="#63b8ff" points="244.32,-244.27 254.85,-245.42 247.33,-237.95 244.32,-244.27"/>
</g>
<!-- Node16&#45;&gt;Node3 -->
<g id="edge24" class="edge">
<title>Node16&#45;&gt;Node3</title>
<path fill="none" stroke="#63b8ff" d="M152.03,-180.31C167.66,-200.5 204.97,-247.98 239,-285.5 251.44,-299.21 266.24,-313.97 277.64,-325.04"/>
<polygon fill="#63b8ff" stroke="#63b8ff" points="274.88,-327.24 284.51,-331.65 279.74,-322.19 274.88,-327.24"/>
</g>
<!-- Node16&#45;&gt;Node10 -->
<g id="edge26" class="edge">
<title>Node16&#45;&gt;Node10</title>
<path fill="none" stroke="#63b8ff" d="M203.45,-173.94C263.04,-177.42 354.52,-182.76 413.3,-186.19"/>
<polygon fill="#63b8ff" stroke="#63b8ff" points="412.9,-189.67 423.09,-186.76 413.31,-182.68 412.9,-189.67"/>
</g>
<!-- Node16&#45;&gt;Node13 -->
<g id="edge25" class="edge">
<title>Node16&#45;&gt;Node13</title>
<path fill="none" stroke="#63b8ff" d="M179.64,-160.53C194.84,-156.21 213.14,-151.02 230.68,-146.04"/>
<polygon fill="#63b8ff" stroke="#63b8ff" points="231.35,-149.49 240.01,-143.39 229.43,-142.76 231.35,-149.49"/>
</g>
<!-- Node16&#45;&gt;Node15 -->
<g id="edge27" class="edge">
<title>Node16&#45;&gt;Node15</title>
<path fill="none" stroke="#63b8ff" d="M179.64,-180.47C197.04,-185.41 218.49,-191.5 238.22,-197.1"/>
<polygon fill="#63b8ff" stroke="#63b8ff" points="237.25,-200.46 247.83,-199.83 239.16,-193.73 237.25,-200.46"/>
</g>
</g>
</svg>
