<?xml version="1.0" encoding="UTF-8" standalone="no"?>
<!DOCTYPE svg PUBLIC "-//W3C//DTD SVG 1.1//EN"
 "http://www.w3.org/Graphics/SVG/1.1/DTD/svg11.dtd">
<!-- Generated by graphviz version 7.1.0 (20230121.1956)
 -->
<!-- Title: convert_column_data Pages: 1 -->
<svg width="357pt" height="82pt"
 viewBox="0.00 0.00 357.00 82.00" xmlns="http://www.w3.org/2000/svg" xmlns:xlink="http://www.w3.org/1999/xlink">
<g id="graph0" class="graph" transform="scale(1 1) rotate(0) translate(4 78)">
<title>convert_column_data</title>
<!-- Node1 -->
<g id="node1" class="node">
<title>Node1</title>
<g id="a_node1"><a xlink:title=" ">
<polygon fill="#999999" stroke="#666666" points="349,-56 239,-56 239,-37 349,-37 349,-56"/>
<text text-anchor="middle" x="294" y="-44" font-family="Helvetica,sans-Serif" font-size="10.00">convert_column_data</text>
</a>
</g>
</g>
<!-- Node1&#45;&gt;Node1 -->
<g id="edge2" class="edge">
<title>Node1&#45;&gt;Node1</title>
<path fill="none" stroke="#63b8ff" d="M320.71,-67.43C317.37,-71.29 308.47,-74 294,-74 267.54,-74 259.69,-64.94 270.44,-56.37"/>
<polygon fill="#63b8ff" stroke="#63b8ff" points="324.08,-66.48 317.98,-57.82 317.35,-68.4 324.08,-66.48"/>
</g>
<!-- Node2 -->
<g id="node2" class="node">
<title>Node2</title>
<g id="a_node2"><a xlink:href="../../d8/d9b/classdoris_1_1_table_connector.html#a400fdb4cebebc678eeec86ffd9715728" target="_top" xlink:title=" ">
<polygon fill="white" stroke="#666666" points="48,-56 0,-56 0,-37 48,-37 48,-56"/>
<text text-anchor="middle" x="24" y="-44" font-family="Helvetica,sans-Serif" font-size="10.00">append</text>
</a>
</g>
</g>
<!-- Node1&#45;&gt;Node2 -->
<g id="edge1" class="edge">
<title>Node1&#45;&gt;Node2</title>
<path fill="none" stroke="#63b8ff" d="M243.56,-58.87C230.46,-61.61 216.27,-64.11 203,-65.5 150.4,-70.99 136.25,-73.71 84,-65.5 71.99,-63.61 59.08,-59.69 48.42,-55.9"/>
<polygon fill="#63b8ff" stroke="#63b8ff" points="244.24,-62.3 253.26,-56.74 242.74,-55.46 244.24,-62.3"/>
</g>
<!-- Node3 -->
<g id="node3" class="node">
<title>Node3</title>
<g id="a_node3"><a xlink:href="../../d8/d9b/classdoris_1_1_table_connector.html#a6e1bb847d1b12059f142b00f8538b25f" target="_top" xlink:title=" ">
<polygon fill="white" stroke="#666666" points="195.5,-56 91.5,-56 91.5,-37 195.5,-37 195.5,-56"/>
<text text-anchor="middle" x="143.5" y="-44" font-family="Helvetica,sans-Serif" font-size="10.00">oracle_type_append</text>
</a>
</g>
</g>
<!-- Node1&#45;&gt;Node3 -->
<g id="edge3" class="edge">
<title>Node1&#45;&gt;Node3</title>
<path fill="none" stroke="#63b8ff" d="M227.29,-46.5C216.8,-46.5 206.08,-46.5 195.98,-46.5"/>
<polygon fill="#63b8ff" stroke="#63b8ff" points="227.03,-50 237.03,-46.5 227.03,-43 227.03,-50"/>
</g>
<!-- Node4 -->
<g id="node4" class="node">
<title>Node4</title>
<g id="a_node4"><a xlink:href="../../d8/d9b/classdoris_1_1_table_connector.html#ac2394118f7e06554142f0eef6d4e21e9" target="_top" xlink:title=" ">
<polygon fill="white" stroke="#666666" points="203,-19 84,-19 84,0 203,0 203,-19"/>
<text text-anchor="middle" x="143.5" y="-7" font-family="Helvetica,sans-Serif" font-size="10.00">sap_hana_type_append</text>
</a>
</g>
</g>
<!-- Node1&#45;&gt;Node4 -->
<g id="edge5" class="edge">
<title>Node1&#45;&gt;Node4</title>
<path fill="none" stroke="#63b8ff" d="M242.1,-33.82C223.24,-29.12 202.15,-23.86 184.41,-19.44"/>
<polygon fill="#63b8ff" stroke="#63b8ff" points="241.19,-37.2 251.74,-36.22 242.88,-30.4 241.19,-37.2"/>
</g>
<!-- Node3&#45;&gt;Node2 -->
<g id="edge4" class="edge">
<title>Node3&#45;&gt;Node2</title>
<path fill="none" stroke="#63b8ff" d="M80.02,-46.5C68.73,-46.5 57.63,-46.5 48.38,-46.5"/>
<polygon fill="#63b8ff" stroke="#63b8ff" points="79.79,-50 89.79,-46.5 79.79,-43 79.79,-50"/>
</g>
<!-- Node4&#45;&gt;Node2 -->
<g id="edge6" class="edge">
<title>Node4&#45;&gt;Node2</title>
<path fill="none" stroke="#63b8ff" d="M100.44,-22.74C82.92,-28.26 63.24,-34.46 48.37,-39.14"/>
<polygon fill="#63b8ff" stroke="#63b8ff" points="101.08,-26.21 109.57,-19.87 98.98,-19.54 101.08,-26.21"/>
</g>
</g>
</svg>
