<?xml version="1.0" encoding="UTF-8" standalone="no"?>
<!DOCTYPE svg PUBLIC "-//W3C//DTD SVG 1.1//EN"
 "http://www.w3.org/Graphics/SVG/1.1/DTD/svg11.dtd">
<!-- Generated by graphviz version 7.1.0 (20230121.1956)
 -->
<!-- Title: add_batch Pages: 1 -->
<svg width="229pt" height="98pt"
 viewBox="0.00 0.00 229.00 97.50" xmlns="http://www.w3.org/2000/svg" xmlns:xlink="http://www.w3.org/1999/xlink">
<g id="graph0" class="graph" transform="scale(1 1) rotate(0) translate(4 93.5)">
<title>add_batch</title>
<!-- Node1 -->
<g id="node1" class="node">
<title>Node1</title>
<g id="a_node1"><a xlink:title=" ">
<polygon fill="#999999" stroke="#666666" points="62,-57 0,-57 0,-38 62,-38 62,-57"/>
<text text-anchor="middle" x="31" y="-45" font-family="Helvetica,sans-Serif" font-size="10.00">add_batch</text>
</a>
</g>
</g>
<!-- Node2 -->
<g id="node2" class="node">
<title>Node2</title>
<g id="a_node2"><a xlink:href="../../d1/dec/classdoris_1_1vectorized_1_1_i_aggregate_function.html#ad2b97043045a3196f079909260fddc72" target="_top" xlink:title=" ">
<polygon fill="white" stroke="#666666" points="221,-89.5 98,-89.5 98,-59.5 221,-59.5 221,-89.5"/>
<text text-anchor="start" x="106" y="-77.5" font-family="Helvetica,sans-Serif" font-size="10.00">doris::vectorized::</text>
<text text-anchor="middle" x="159.5" y="-66.5" font-family="Helvetica,sans-Serif" font-size="10.00">IAggregateFunction::add</text>
</a>
</g>
</g>
<!-- Node1&#45;&gt;Node2 -->
<g id="edge1" class="edge">
<title>Node1&#45;&gt;Node2</title>
<path fill="none" stroke="#63b8ff" d="M62.3,-53.97C69.72,-55.55 77.98,-57.31 86.45,-59.12"/>
<polygon fill="#63b8ff" stroke="#63b8ff" points="85.68,-62.54 96.19,-61.2 87.14,-55.69 85.68,-62.54"/>
</g>
<!-- Node3 -->
<g id="node3" class="node">
<title>Node3</title>
<g id="a_node3"><a xlink:href="../../d1/dec/classdoris_1_1vectorized_1_1_i_aggregate_function.html#a67c571ba549fb1465f0fec8a0911b5d6" target="_top" xlink:title=" ">
<polygon fill="white" stroke="#666666" points="213,-41 106,-41 106,0 213,0 213,-41"/>
<text text-anchor="start" x="114" y="-29" font-family="Helvetica,sans-Serif" font-size="10.00">doris::vectorized::</text>
<text text-anchor="start" x="114" y="-18" font-family="Helvetica,sans-Serif" font-size="10.00">IAggregateFunction::</text>
<text text-anchor="middle" x="159.5" y="-7" font-family="Helvetica,sans-Serif" font-size="10.00">add_many</text>
</a>
</g>
</g>
<!-- Node1&#45;&gt;Node3 -->
<g id="edge2" class="edge">
<title>Node1&#45;&gt;Node3</title>
<path fill="none" stroke="#63b8ff" d="M62.3,-41.03C72.06,-38.95 83.27,-36.56 94.51,-34.16"/>
<polygon fill="#63b8ff" stroke="#63b8ff" points="95.18,-37.59 104.23,-32.08 93.72,-30.75 95.18,-37.59"/>
</g>
</g>
</svg>
