<?xml version="1.0" encoding="UTF-8" standalone="no"?>
<!DOCTYPE svg PUBLIC "-//W3C//DTD SVG 1.1//EN"
 "http://www.w3.org/Graphics/SVG/1.1/DTD/svg11.dtd">
<!-- Generated by graphviz version 7.1.0 (20230121.1956)
 -->
<!-- Title: lazy_emplace_key Pages: 1 -->
<svg width="748pt" height="161pt"
 viewBox="0.00 0.00 748.00 160.50" xmlns="http://www.w3.org/2000/svg" xmlns:xlink="http://www.w3.org/1999/xlink">
<g id="graph0" class="graph" transform="scale(1 1) rotate(0) translate(4 156.5)">
<title>lazy_emplace_key</title>
<!-- Node1 -->
<g id="node1" class="node">
<title>Node1</title>
<g id="a_node1"><a xlink:title=" ">
<polygon fill="#999999" stroke="#666666" points="98,-67.5 0,-67.5 0,-48.5 98,-48.5 98,-67.5"/>
<text text-anchor="middle" x="49" y="-55.5" font-family="Helvetica,sans-Serif" font-size="10.00">lazy_emplace_key</text>
</a>
</g>
</g>
<!-- Node2 -->
<g id="node2" class="node">
<title>Node2</title>
<g id="a_node2"><a xlink:href="../../d3/d1e/namespacedoris_1_1vectorized.html#aab612a4ab0658075fb7900a2fa22f077" target="_top" xlink:title=" ">
<polygon fill="white" stroke="#666666" points="248,-121 153,-121 153,-91 248,-91 248,-121"/>
<text text-anchor="start" x="161" y="-109" font-family="Helvetica,sans-Serif" font-size="10.00">doris::vectorized::</text>
<text text-anchor="middle" x="200.5" y="-98" font-family="Helvetica,sans-Serif" font-size="10.00">hash_value</text>
</a>
</g>
</g>
<!-- Node1&#45;&gt;Node2 -->
<g id="edge1" class="edge">
<title>Node1&#45;&gt;Node2</title>
<path fill="none" stroke="#63b8ff" d="M80.98,-67.95C98.52,-73.58 121.03,-80.81 141.71,-87.45"/>
<polygon fill="#63b8ff" stroke="#63b8ff" points="140.62,-90.77 151.21,-90.49 142.76,-84.11 140.62,-90.77"/>
</g>
<!-- Node8 -->
<g id="node8" class="node">
<title>Node8</title>
<g id="a_node8"><a xlink:href="../../d4/d41/classdoris_1_1vectorized_1_1_column_nullable.html#ab7322c2930b9ff47d00d266753e5a4df" target="_top" xlink:title=" ">
<polygon fill="white" stroke="#666666" points="267,-73 134,-73 134,-43 267,-43 267,-73"/>
<text text-anchor="start" x="142" y="-61" font-family="Helvetica,sans-Serif" font-size="10.00">doris::vectorized::</text>
<text text-anchor="middle" x="200.5" y="-50" font-family="Helvetica,sans-Serif" font-size="10.00">ColumnNullable::is_null_at</text>
</a>
</g>
</g>
<!-- Node1&#45;&gt;Node8 -->
<g id="edge10" class="edge">
<title>Node1&#45;&gt;Node8</title>
<path fill="none" stroke="#63b8ff" d="M98.13,-58C105.93,-58 114.18,-58 122.47,-58"/>
<polygon fill="#63b8ff" stroke="#63b8ff" points="122.24,-61.5 132.24,-58 122.24,-54.5 122.24,-61.5"/>
</g>
<!-- Node9 -->
<g id="node9" class="node">
<title>Node9</title>
<g id="a_node9"><a xlink:href="../../d5/d07/fixed__hash__map_8h.html#aa108eac6ca26f3273743dc16932510f6" target="_top" xlink:title=" ">
<polygon fill="white" stroke="#666666" points="267,-24.5 134,-24.5 134,-5.5 267,-5.5 267,-24.5"/>
<text text-anchor="middle" x="200.5" y="-12.5" font-family="Helvetica,sans-Serif" font-size="10.00">lookup_result_get_mapped</text>
</a>
</g>
</g>
<!-- Node1&#45;&gt;Node9 -->
<g id="edge11" class="edge">
<title>Node1&#45;&gt;Node9</title>
<path fill="none" stroke="#63b8ff" d="M84.67,-48.03C105.26,-42.11 131.61,-34.53 153.87,-28.12"/>
<polygon fill="#63b8ff" stroke="#63b8ff" points="154.66,-31.54 163.3,-25.41 152.72,-24.81 154.66,-31.54"/>
</g>
<!-- Node3 -->
<g id="node3" class="node">
<title>Node3</title>
<g id="a_node3"><a xlink:href="../../d8/d08/classdoris_1_1_hash_util.html#af859ad5532f11b9fb98fed728353cc75" target="_top" xlink:title=" ">
<polygon fill="white" stroke="#666666" points="424.5,-115.5 315.5,-115.5 315.5,-96.5 424.5,-96.5 424.5,-115.5"/>
<text text-anchor="middle" x="370" y="-103.5" font-family="Helvetica,sans-Serif" font-size="10.00">doris::HashUtil::hash</text>
</a>
</g>
</g>
<!-- Node2&#45;&gt;Node3 -->
<g id="edge2" class="edge">
<title>Node2&#45;&gt;Node3</title>
<path fill="none" stroke="#63b8ff" d="M248.16,-106C265.39,-106 285.25,-106 303.83,-106"/>
<polygon fill="#63b8ff" stroke="#63b8ff" points="303.68,-109.5 313.68,-106 303.68,-102.5 303.68,-109.5"/>
</g>
<!-- Node4 -->
<g id="node4" class="node">
<title>Node4</title>
<g id="a_node4"><a xlink:href="../../d8/d08/classdoris_1_1_hash_util.html#a752603dfbd85c37afdb627dc7ff30a34" target="_top" xlink:title=" ">
<polygon fill="white" stroke="#666666" points="601,-152.5 473,-152.5 473,-133.5 601,-133.5 601,-152.5"/>
<text text-anchor="middle" x="537" y="-140.5" font-family="Helvetica,sans-Serif" font-size="10.00">doris::HashUtil::crc_hash</text>
</a>
</g>
</g>
<!-- Node3&#45;&gt;Node4 -->
<g id="edge3" class="edge">
<title>Node3&#45;&gt;Node4</title>
<path fill="none" stroke="#63b8ff" d="M424.57,-111.65C450.21,-116.69 480.12,-123.67 502.5,-129.93"/>
<polygon fill="#63b8ff" stroke="#63b8ff" points="501.41,-133.26 511.99,-132.71 503.38,-126.54 501.41,-133.26"/>
</g>
<!-- Node6 -->
<g id="node6" class="node">
<title>Node6</title>
<g id="a_node6"><a xlink:href="../../d8/d08/classdoris_1_1_hash_util.html#a3dddbd7b2e35ca9369f00e777e22506f" target="_top" xlink:title=" ">
<polygon fill="white" stroke="#666666" points="601,-115.5 473,-115.5 473,-96.5 601,-96.5 601,-115.5"/>
<text text-anchor="middle" x="537" y="-103.5" font-family="Helvetica,sans-Serif" font-size="10.00">doris::HashUtil::fnv_hash</text>
</a>
</g>
</g>
<!-- Node3&#45;&gt;Node6 -->
<g id="edge7" class="edge">
<title>Node3&#45;&gt;Node6</title>
<path fill="none" stroke="#63b8ff" d="M424.57,-99.63C436.31,-99.31 448.95,-99.19 461.35,-99.28"/>
<polygon fill="#63b8ff" stroke="#63b8ff" points="461.09,-102.77 471.13,-99.4 461.17,-95.77 461.09,-102.77"/>
</g>
<!-- Node7 -->
<g id="node7" class="node">
<title>Node7</title>
<g id="a_node7"><a xlink:href="../../d5/dad/classdoris_1_1_cpu_info.html#aea45f507e2255521fd09399856dce532" target="_top" xlink:title="Returns whether of not the cpu supports this flag">
<polygon fill="white" stroke="#666666" points="583,-78 491,-78 491,-48 583,-48 583,-78"/>
<text text-anchor="start" x="499" y="-66" font-family="Helvetica,sans-Serif" font-size="10.00">doris::CpuInfo::is</text>
<text text-anchor="middle" x="537" y="-55" font-family="Helvetica,sans-Serif" font-size="10.00">_supported</text>
</a>
</g>
</g>
<!-- Node3&#45;&gt;Node7 -->
<g id="edge9" class="edge">
<title>Node3&#45;&gt;Node7</title>
<path fill="none" stroke="#63b8ff" d="M409.27,-96.03C430.13,-90.59 456.35,-83.76 479.52,-77.72"/>
<polygon fill="#63b8ff" stroke="#63b8ff" points="480.35,-81.12 489.15,-75.21 478.59,-74.34 480.35,-81.12"/>
</g>
<!-- Node4&#45;&gt;Node3 -->
<g id="edge4" class="edge">
<title>Node4&#45;&gt;Node3</title>
<path fill="none" stroke="#63b8ff" d="M472.72,-135.39C449.59,-130.61 424.31,-124.61 404.74,-119.14"/>
<polygon fill="#63b8ff" stroke="#63b8ff" points="405.98,-115.85 395.4,-116.41 404.02,-122.57 405.98,-115.85"/>
</g>
<!-- Node5 -->
<g id="node5" class="node">
<title>Node5</title>
<g id="a_node5"><a xlink:href="../../d8/d08/classdoris_1_1_hash_util.html#a67fb8509416d6acc53ca130fd6b80eb7" target="_top" xlink:title=" ">
<polygon fill="white" stroke="#666666" points="740,-96 637,-96 637,-66 740,-66 740,-96"/>
<text text-anchor="start" x="645" y="-84" font-family="Helvetica,sans-Serif" font-size="10.00">doris::HashUtil::zlib</text>
<text text-anchor="middle" x="688.5" y="-73" font-family="Helvetica,sans-Serif" font-size="10.00">_crc_hash</text>
</a>
</g>
</g>
<!-- Node4&#45;&gt;Node5 -->
<g id="edge5" class="edge">
<title>Node4&#45;&gt;Node5</title>
<path fill="none" stroke="#63b8ff" d="M577.37,-133.01C585.29,-130.65 593.48,-127.95 601,-125 617.69,-118.44 635.46,-109.73 650.52,-101.79"/>
<polygon fill="#63b8ff" stroke="#63b8ff" points="651.97,-104.98 659.13,-97.17 648.66,-98.81 651.97,-104.98"/>
</g>
<!-- Node5&#45;&gt;Node3 -->
<g id="edge6" class="edge">
<title>Node5&#45;&gt;Node3</title>
<path fill="none" stroke="#63b8ff" d="M663.25,-65.53C646.49,-55.79 623.29,-44.13 601,-39 545.56,-26.25 527.5,-22.7 473,-39 440.55,-48.7 408.86,-72.41 389.63,-88.85"/>
<polygon fill="#63b8ff" stroke="#63b8ff" points="387.56,-86.01 382.38,-95.24 392.19,-91.26 387.56,-86.01"/>
</g>
<!-- Node6&#45;&gt;Node3 -->
<g id="edge8" class="edge">
<title>Node6&#45;&gt;Node3</title>
<path fill="none" stroke="#63b8ff" d="M472.64,-112.59C460.62,-112.8 448.02,-112.8 435.95,-112.61"/>
<polygon fill="#63b8ff" stroke="#63b8ff" points="436.16,-109.12 426.08,-112.4 436.01,-116.11 436.16,-109.12"/>
</g>
<!-- Node10 -->
<g id="node10" class="node">
<title>Node10</title>
<g id="a_node10"><a xlink:href="../../dc/d30/struct_fixed_hash_map_implicit_zero_cell.html#ac8507ca4b1cb5601e84f0feb8b2cb2d4" target="_top" xlink:title=" ">
<polygon fill="white" stroke="#666666" points="437,-30 303,-30 303,0 437,0 437,-30"/>
<text text-anchor="start" x="311" y="-18" font-family="Helvetica,sans-Serif" font-size="10.00">FixedHashMapImplicitZero</text>
<text text-anchor="middle" x="370" y="-7" font-family="Helvetica,sans-Serif" font-size="10.00">Cell::get_second</text>
</a>
</g>
</g>
<!-- Node9&#45;&gt;Node10 -->
<g id="edge12" class="edge">
<title>Node9&#45;&gt;Node10</title>
<path fill="none" stroke="#63b8ff" d="M267.22,-15C275.13,-15 283.27,-15 291.33,-15"/>
<polygon fill="#63b8ff" stroke="#63b8ff" points="291.13,-18.5 301.13,-15 291.13,-11.5 291.13,-18.5"/>
</g>
</g>
</svg>
