<?xml version="1.0" encoding="UTF-8" standalone="no"?>
<!DOCTYPE svg PUBLIC "-//W3C//DTD SVG 1.1//EN"
 "http://www.w3.org/Graphics/SVG/1.1/DTD/svg11.dtd">
<!-- Generated by graphviz version 7.1.0 (20230121.1956)
 -->
<!-- Title: lazy_emplace_key Pages: 1 -->
<!--zoomable 137 -->
<svg id="main" version="1.1" xmlns="http://www.w3.org/2000/svg" xmlns:xlink="http://www.w3.org/1999/xlink" xml:space="preserve" onload="init(evt)">
<style type="text/css"><![CDATA[
.edge:hover path { stroke: red; }
.edge:hover polygon { stroke: red; fill: red; }
]]></style>
<script type="text/javascript"><![CDATA[
var edges = document.getElementsByTagName('g');
if (edges && edges.length) {
  for (var i=0;i<edges.length;i++) {
    if (edges[i].id.substr(0,4)=='edge') {
      edges[i].setAttribute('class','edge');
    }
  }
}
]]></script>
        <defs>
                <circle id="rim" cx="0" cy="0" r="7"/>
                <circle id="rim2" cx="0" cy="0" r="3.5"/>
                <g id="zoomPlus">
                        <use xlink:href="#rim" fill="#404040">
                                <set attributeName="fill" to="#808080" begin="zoomplus.mouseover" end="zoomplus.mouseout"/>
                        </use>
                        <path d="M-4,0h8M0,-4v8" fill="none" stroke="white" stroke-width="1.5" pointer-events="none"/>
                </g>
                <g id="zoomMin">
                        <use xlink:href="#rim" fill="#404040">
                                <set attributeName="fill" to="#808080" begin="zoomminus.mouseover" end="zoomminus.mouseout"/>
                        </use>
                        <path d="M-4,0h8" fill="none" stroke="white" stroke-width="1.5" pointer-events="none"/>
                </g>
                <g id="dirArrow">
                        <path fill="none" stroke="white" stroke-width="1.5" d="M0,-3.0v7 M-2.5,-0.5L0,-3.0L2.5,-0.5"/>
                </g>
               <g id="resetDef">
                       <use xlink:href="#rim2" fill="#404040">
                               <set attributeName="fill" to="#808080" begin="reset.mouseover" end="reset.mouseout"/>
                       </use>
               </g>
        </defs>

<script type="text/javascript">
var viewWidth = 748;
var viewHeight = 137;
var sectionId = 'dynsection-4';
</script>
<script xlink:href="../../svgpan.js"/>
<svg id="graph" class="graph">
<g id="viewport">
<title>lazy_emplace_key</title>
<!-- Node1 -->
<g id="node1" class="node">
<title>Node1</title>
<g id="a_node1"><a xlink:title=" ">
<polygon fill="#999999" stroke="#666666" points="98,-69.61 0,-69.61 0,-50.61 98,-50.61 98,-69.61"/>
<text text-anchor="middle" x="49" y="-57.61" font-family="Helvetica,sans-Serif" font-size="10.00">lazy_emplace_key</text>
</a>
</g>
</g>
<!-- Node2 -->
<g id="node2" class="node">
<title>Node2</title>
<g id="a_node2"><a xlink:href="../../d3/d1e/namespacedoris_1_1vectorized.html#aab612a4ab0658075fb7900a2fa22f077" target="_top" xlink:title=" ">
<polygon fill="white" stroke="#666666" points="248,-97.11 153,-97.11 153,-67.11 248,-67.11 248,-97.11"/>
<text text-anchor="start" x="161" y="-85.11" font-family="Helvetica,sans-Serif" font-size="10.00">doris::vectorized::</text>
<text text-anchor="middle" x="200.5" y="-74.11" font-family="Helvetica,sans-Serif" font-size="10.00">hash_value</text>
</a>
</g>
</g>
<!-- Node1&#45;&gt;Node2 -->
<g id="edge1" class="edge">
<title>Node1&#45;&gt;Node2</title>
<path fill="none" stroke="#63b8ff" d="M98.13,-67.2C111.93,-69.23 127.13,-71.47 141.47,-73.58"/>
<polygon fill="#63b8ff" stroke="#63b8ff" points="140.84,-77.02 151.24,-75.01 141.86,-70.09 140.84,-77.02"/>
</g>
<!-- Node8 -->
<g id="node8" class="node">
<title>Node8</title>
<g id="a_node8"><a xlink:href="../../d5/d07/fixed__hash__map_8h.html#aa108eac6ca26f3273743dc16932510f6" target="_top" xlink:title=" ">
<polygon fill="white" stroke="#666666" points="267,-48.61 134,-48.61 134,-29.61 267,-29.61 267,-48.61"/>
<text text-anchor="middle" x="200.5" y="-36.61" font-family="Helvetica,sans-Serif" font-size="10.00">lookup_result_get_mapped</text>
</a>
</g>
</g>
<!-- Node1&#45;&gt;Node8 -->
<g id="edge10" class="edge">
<title>Node1&#45;&gt;Node8</title>
<path fill="none" stroke="#63b8ff" d="M98.13,-53.35C105.93,-52.26 114.18,-51.1 122.47,-49.93"/>
<polygon fill="#63b8ff" stroke="#63b8ff" points="122.84,-53.42 132.26,-48.56 121.87,-46.49 122.84,-53.42"/>
</g>
<!-- Node3 -->
<g id="node3" class="node">
<title>Node3</title>
<g id="a_node3"><a xlink:href="../../d8/d08/classdoris_1_1_hash_util.html#af859ad5532f11b9fb98fed728353cc75" target="_top" xlink:title=" ">
<polygon fill="white" stroke="#666666" points="424.5,-91.61 315.5,-91.61 315.5,-72.61 424.5,-72.61 424.5,-91.61"/>
<text text-anchor="middle" x="370" y="-79.61" font-family="Helvetica,sans-Serif" font-size="10.00">doris::HashUtil::hash</text>
</a>
</g>
</g>
<!-- Node2&#45;&gt;Node3 -->
<g id="edge2" class="edge">
<title>Node2&#45;&gt;Node3</title>
<path fill="none" stroke="#63b8ff" d="M248.16,-82.11C265.39,-82.11 285.25,-82.11 303.83,-82.11"/>
<polygon fill="#63b8ff" stroke="#63b8ff" points="303.68,-85.61 313.68,-82.11 303.68,-78.61 303.68,-85.61"/>
</g>
<!-- Node4 -->
<g id="node4" class="node">
<title>Node4</title>
<g id="a_node4"><a xlink:href="../../d8/d08/classdoris_1_1_hash_util.html#a752603dfbd85c37afdb627dc7ff30a34" target="_top" xlink:title=" ">
<polygon fill="white" stroke="#666666" points="601,-128.61 473,-128.61 473,-109.61 601,-109.61 601,-128.61"/>
<text text-anchor="middle" x="537" y="-116.61" font-family="Helvetica,sans-Serif" font-size="10.00">doris::HashUtil::crc_hash</text>
</a>
</g>
</g>
<!-- Node3&#45;&gt;Node4 -->
<g id="edge3" class="edge">
<title>Node3&#45;&gt;Node4</title>
<path fill="none" stroke="#63b8ff" d="M424.57,-87.76C450.21,-92.8 480.12,-99.78 502.5,-106.05"/>
<polygon fill="#63b8ff" stroke="#63b8ff" points="501.41,-109.38 511.99,-108.82 503.38,-102.66 501.41,-109.38"/>
</g>
<!-- Node6 -->
<g id="node6" class="node">
<title>Node6</title>
<g id="a_node6"><a xlink:href="../../d8/d08/classdoris_1_1_hash_util.html#a3dddbd7b2e35ca9369f00e777e22506f" target="_top" xlink:title=" ">
<polygon fill="white" stroke="#666666" points="601,-91.61 473,-91.61 473,-72.61 601,-72.61 601,-91.61"/>
<text text-anchor="middle" x="537" y="-79.61" font-family="Helvetica,sans-Serif" font-size="10.00">doris::HashUtil::fnv_hash</text>
</a>
</g>
</g>
<!-- Node3&#45;&gt;Node6 -->
<g id="edge7" class="edge">
<title>Node3&#45;&gt;Node6</title>
<path fill="none" stroke="#63b8ff" d="M424.57,-75.75C436.31,-75.42 448.95,-75.31 461.35,-75.39"/>
<polygon fill="#63b8ff" stroke="#63b8ff" points="461.09,-78.89 471.13,-75.51 461.17,-71.89 461.09,-78.89"/>
</g>
<!-- Node7 -->
<g id="node7" class="node">
<title>Node7</title>
<g id="a_node7"><a xlink:href="../../d5/dad/classdoris_1_1_cpu_info.html#aea45f507e2255521fd09399856dce532" target="_top" xlink:title="Returns whether of not the cpu supports this flag">
<polygon fill="white" stroke="#666666" points="583,-54.11 491,-54.11 491,-24.11 583,-24.11 583,-54.11"/>
<text text-anchor="start" x="499" y="-42.11" font-family="Helvetica,sans-Serif" font-size="10.00">doris::CpuInfo::is</text>
<text text-anchor="middle" x="537" y="-31.11" font-family="Helvetica,sans-Serif" font-size="10.00">_supported</text>
</a>
</g>
</g>
<!-- Node3&#45;&gt;Node7 -->
<g id="edge9" class="edge">
<title>Node3&#45;&gt;Node7</title>
<path fill="none" stroke="#63b8ff" d="M409.27,-72.14C430.13,-66.7 456.35,-59.87 479.52,-53.83"/>
<polygon fill="#63b8ff" stroke="#63b8ff" points="480.35,-57.23 489.15,-51.32 478.59,-50.46 480.35,-57.23"/>
</g>
<!-- Node4&#45;&gt;Node3 -->
<g id="edge4" class="edge">
<title>Node4&#45;&gt;Node3</title>
<path fill="none" stroke="#63b8ff" d="M472.72,-111.51C449.59,-106.73 424.31,-100.72 404.74,-95.25"/>
<polygon fill="#63b8ff" stroke="#63b8ff" points="405.98,-91.96 395.4,-92.53 404.02,-98.68 405.98,-91.96"/>
</g>
<!-- Node5 -->
<g id="node5" class="node">
<title>Node5</title>
<g id="a_node5"><a xlink:href="../../d8/d08/classdoris_1_1_hash_util.html#a67fb8509416d6acc53ca130fd6b80eb7" target="_top" xlink:title=" ">
<polygon fill="white" stroke="#666666" points="740,-72.11 637,-72.11 637,-42.11 740,-42.11 740,-72.11"/>
<text text-anchor="start" x="645" y="-60.11" font-family="Helvetica,sans-Serif" font-size="10.00">doris::HashUtil::zlib</text>
<text text-anchor="middle" x="688.5" y="-49.11" font-family="Helvetica,sans-Serif" font-size="10.00">_crc_hash</text>
</a>
</g>
</g>
<!-- Node4&#45;&gt;Node5 -->
<g id="edge5" class="edge">
<title>Node4&#45;&gt;Node5</title>
<path fill="none" stroke="#63b8ff" d="M577.37,-109.13C585.29,-106.77 593.48,-104.07 601,-101.11 617.69,-94.56 635.46,-85.84 650.52,-77.9"/>
<polygon fill="#63b8ff" stroke="#63b8ff" points="651.97,-81.1 659.13,-73.28 648.66,-74.93 651.97,-81.1"/>
</g>
<!-- Node5&#45;&gt;Node3 -->
<g id="edge6" class="edge">
<title>Node5&#45;&gt;Node3</title>
<path fill="none" stroke="#63b8ff" d="M663.25,-41.65C646.49,-31.91 623.29,-20.24 601,-15.11 545.56,-2.37 523.88,10.33 473,-15.11 449.15,-27.04 458.95,-47.97 437,-63.11 434.76,-64.66 432.4,-66.08 429.96,-67.38"/>
<polygon fill="#63b8ff" stroke="#63b8ff" points="428.56,-64.17 420.91,-71.5 431.46,-70.54 428.56,-64.17"/>
</g>
<!-- Node6&#45;&gt;Node3 -->
<g id="edge8" class="edge">
<title>Node6&#45;&gt;Node3</title>
<path fill="none" stroke="#63b8ff" d="M472.64,-88.7C460.62,-88.91 448.02,-88.92 435.95,-88.73"/>
<polygon fill="#63b8ff" stroke="#63b8ff" points="436.16,-85.23 426.08,-88.51 436.01,-92.23 436.16,-85.23"/>
</g>
<!-- Node9 -->
<g id="node9" class="node">
<title>Node9</title>
<g id="a_node9"><a xlink:href="../../dc/d30/struct_fixed_hash_map_implicit_zero_cell.html#ac8507ca4b1cb5601e84f0feb8b2cb2d4" target="_top" xlink:title=" ">
<polygon fill="white" stroke="#666666" points="437,-54.11 303,-54.11 303,-24.11 437,-24.11 437,-54.11"/>
<text text-anchor="start" x="311" y="-42.11" font-family="Helvetica,sans-Serif" font-size="10.00">FixedHashMapImplicitZero</text>
<text text-anchor="middle" x="370" y="-31.11" font-family="Helvetica,sans-Serif" font-size="10.00">Cell::get_second</text>
</a>
</g>
</g>
<!-- Node8&#45;&gt;Node9 -->
<g id="edge11" class="edge">
<title>Node8&#45;&gt;Node9</title>
<path fill="none" stroke="#63b8ff" d="M267.22,-39.11C275.13,-39.11 283.27,-39.11 291.33,-39.11"/>
<polygon fill="#63b8ff" stroke="#63b8ff" points="291.13,-42.61 301.13,-39.11 291.13,-35.61 291.13,-42.61"/>
</g>
</g>
</svg>
        <g id="navigator" transform="translate(0 0)" fill="#404254">
                <rect fill="#f2f5e9" fill-opacity="0.5" stroke="#606060" stroke-width=".5" x="0" y="0" width="60" height="60"/>
                <use id="zoomplus" xlink:href="#zoomPlus" x="17" y="9" onmousedown="handleZoom(evt,'in')"/>
                <use id="zoomminus" xlink:href="#zoomMin" x="42" y="9" onmousedown="handleZoom(evt,'out')"/>
                <use id="reset" xlink:href="#resetDef" x="30" y="36" onmousedown="handleReset()"/>
                <g id="arrowUp" xlink:href="#dirArrow" transform="translate(30 24)" onmousedown="handlePan(0,-1)">
                  <use xlink:href="#rim" fill="#404040">
                        <set attributeName="fill" to="#808080" begin="arrowUp.mouseover" end="arrowUp.mouseout"/>
                  </use>
                  <path fill="none" stroke="white" stroke-width="1.5" d="M0,-3.0v7 M-2.5,-0.5L0,-3.0L2.5,-0.5"/>
                </g>
                <g id="arrowRight" xlink:href="#dirArrow" transform="rotate(90) translate(36 -43)" onmousedown="handlePan(1,0)">
                  <use xlink:href="#rim" fill="#404040">
                        <set attributeName="fill" to="#808080" begin="arrowRight.mouseover" end="arrowRight.mouseout"/>
                  </use>
                  <path fill="none" stroke="white" stroke-width="1.5" d="M0,-3.0v7 M-2.5,-0.5L0,-3.0L2.5,-0.5"/>
                </g>
                <g id="arrowDown" xlink:href="#dirArrow" transform="rotate(180) translate(-30 -48)" onmousedown="handlePan(0,1)">
                  <use xlink:href="#rim" fill="#404040">
                        <set attributeName="fill" to="#808080" begin="arrowDown.mouseover" end="arrowDown.mouseout"/>
                  </use>
                  <path fill="none" stroke="white" stroke-width="1.5" d="M0,-3.0v7 M-2.5,-0.5L0,-3.0L2.5,-0.5"/>
                </g>
                <g id="arrowLeft" xlink:href="#dirArrow" transform="rotate(270) translate(-36 17)" onmousedown="handlePan(-1,0)">
                  <use xlink:href="#rim" fill="#404040">
                        <set attributeName="fill" to="#808080" begin="arrowLeft.mouseover" end="arrowLeft.mouseout"/>
                  </use>
                  <path fill="none" stroke="white" stroke-width="1.5" d="M0,-3.0v7 M-2.5,-0.5L0,-3.0L2.5,-0.5"/>
                </g>
        </g>
        <svg viewBox="0 0 15 15" width="100%" height="30px" preserveAspectRatio="xMaxYMin meet">
         <g id="arrow_out" transform="scale(0.3 0.3)">
          <a xlink:href="structdoris_1_1vectorized_1_1_columns_hashing_1_1_hash_method_single_low_nullable_column_a7772d2e0fee3a72b76bc8c2c1a6ddcac_cgraph_org.svg" target="_base">
           <rect id="button" ry="5" rx="5" y="6" x="6" height="38" width="38"
                fill="#f2f5e9" fill-opacity="0.5" stroke="#606060" stroke-width="1.0"/>
           <path id="arrow"
             d="M 11.500037,31.436501 C 11.940474,20.09759 22.043105,11.32322 32.158766,21.979434 L 37.068811,17.246167 C 37.068811,17.246167 37.088388,32 37.088388,32 L 22.160133,31.978069 C 22.160133,31.978069 26.997745,27.140456 26.997745,27.140456 C 18.528582,18.264221 13.291696,25.230495 11.500037,31.436501 z"
             style="fill:#404040;"/>
          </a>
         </g>
        </svg>
</svg>
