<?xml version="1.0" encoding="UTF-8" standalone="no"?>
<!DOCTYPE svg PUBLIC "-//W3C//DTD SVG 1.1//EN"
 "http://www.w3.org/Graphics/SVG/1.1/DTD/svg11.dtd">
<!-- Generated by graphviz version 7.1.0 (20230121.1956)
 -->
<!-- Title: AggregateFunctionsMinMaxBy&lt; Data &gt; Pages: 1 -->
<svg width="278pt" height="356pt"
 viewBox="0.00 0.00 277.50 356.00" xmlns="http://www.w3.org/2000/svg" xmlns:xlink="http://www.w3.org/1999/xlink">
<g id="graph0" class="graph" transform="scale(1 1) rotate(0) translate(4 352)">
<title>AggregateFunctionsMinMaxBy&lt; Data &gt;</title>
<!-- Node1 -->
<g id="node1" class="node">
<title>Node1</title>
<g id="a_node1"><a xlink:title=" ">
<polygon fill="#999999" stroke="#666666" points="155.5,-30 17.5,-30 17.5,0 155.5,0 155.5,-30"/>
<text text-anchor="start" x="25.5" y="-18" font-family="Helvetica,sans-Serif" font-size="10.00">AggregateFunctionsMinMax</text>
<text text-anchor="middle" x="86.5" y="-7" font-family="Helvetica,sans-Serif" font-size="10.00">By&lt; Data &gt;</text>
</a>
</g>
</g>
<!-- Node2 -->
<g id="node2" class="node">
<title>Node2</title>
<g id="a_node2"><a xlink:href="../../dc/d55/classdoris_1_1vectorized_1_1_i_aggregate_function_data_helper.html" target="_top" xlink:title=" ">
<polygon fill="white" stroke="#666666" points="173,-108 0,-108 0,-67 173,-67 173,-108"/>
<text text-anchor="start" x="8" y="-96" font-family="Helvetica,sans-Serif" font-size="10.00">IAggregateFunctionDataHelper</text>
<text text-anchor="start" x="8" y="-85" font-family="Helvetica,sans-Serif" font-size="10.00">&lt; Data, AggregateFunctionsMinMax</text>
<text text-anchor="middle" x="86.5" y="-74" font-family="Helvetica,sans-Serif" font-size="10.00">By&lt; Data &gt; &gt;</text>
</a>
</g>
</g>
<!-- Node2&#45;&gt;Node1 -->
<g id="edge1" class="edge">
<title>Node2&#45;&gt;Node1</title>
<path fill="none" stroke="#63b8ff" d="M86.5,-55.39C86.5,-46.68 86.5,-37.62 86.5,-30.39"/>
<polygon fill="#63b8ff" stroke="#63b8ff" points="83,-55.35 86.5,-65.35 90,-55.35 83,-55.35"/>
</g>
<!-- Node3 -->
<g id="node3" class="node">
<title>Node3</title>
<g id="a_node3"><a xlink:href="../../da/d62/classdoris_1_1vectorized_1_1_i_aggregate_function_helper.html" target="_top" xlink:title="Implement method to obtain an address of &#39;add&#39; function.">
<polygon fill="white" stroke="#666666" points="140.5,-244 10.5,-244 10.5,-214 140.5,-214 140.5,-244"/>
<text text-anchor="start" x="18.5" y="-232" font-family="Helvetica,sans-Serif" font-size="10.00">IAggregateFunctionHelper</text>
<text text-anchor="middle" x="75.5" y="-221" font-family="Helvetica,sans-Serif" font-size="10.00">&lt; Derived &gt;</text>
</a>
</g>
</g>
<!-- Node3&#45;&gt;Node2 -->
<g id="edge2" class="edge">
<title>Node3&#45;&gt;Node2</title>
<path fill="none" stroke="#63b8ff" d="M77.52,-202.32C79.66,-175.22 82.98,-133.09 84.93,-108.4"/>
<polygon fill="#63b8ff" stroke="#63b8ff" points="74.05,-201.84 76.75,-212.09 81.03,-202.39 74.05,-201.84"/>
</g>
<!-- Node4 -->
<g id="node4" class="node">
<title>Node4</title>
<g id="a_node4"><a xlink:href="../../d1/dec/classdoris_1_1vectorized_1_1_i_aggregate_function.html" target="_top" xlink:title=" ">
<polygon fill="white" stroke="#666666" points="141,-348 40,-348 40,-329 141,-329 141,-348"/>
<text text-anchor="middle" x="90.5" y="-336" font-family="Helvetica,sans-Serif" font-size="10.00">IAggregateFunction</text>
</a>
</g>
</g>
<!-- Node4&#45;&gt;Node3 -->
<g id="edge3" class="edge">
<title>Node4&#45;&gt;Node3</title>
<path fill="none" stroke="#63b8ff" d="M87.71,-317.48C84.74,-296.19 80.11,-263.07 77.49,-244.28"/>
<polygon fill="#63b8ff" stroke="#63b8ff" points="84.21,-317.78 89.06,-327.2 91.15,-316.82 84.21,-317.78"/>
</g>
<!-- Node6 -->
<g id="node6" class="node">
<title>Node6</title>
<g id="a_node6"><a xlink:href="../../da/d62/classdoris_1_1vectorized_1_1_i_aggregate_function_helper.html" target="_top" xlink:title="Implement method to obtain an address of &#39;add&#39; function.">
<polygon fill="white" stroke="#666666" points="237.5,-292 107.5,-292 107.5,-262 237.5,-262 237.5,-292"/>
<text text-anchor="start" x="115.5" y="-280" font-family="Helvetica,sans-Serif" font-size="10.00">IAggregateFunctionHelper</text>
<text text-anchor="middle" x="172.5" y="-269" font-family="Helvetica,sans-Serif" font-size="10.00">&lt; Derived &gt;</text>
</a>
</g>
</g>
<!-- Node4&#45;&gt;Node6 -->
<g id="edge6" class="edge">
<title>Node4&#45;&gt;Node6</title>
<path fill="none" stroke="#63b8ff" d="M111.9,-321.97C124.52,-312.81 140.38,-301.3 152.72,-292.36"/>
<polygon fill="#63b8ff" stroke="#63b8ff" points="109.86,-319.13 103.82,-327.83 113.97,-324.79 109.86,-319.13"/>
</g>
<!-- Node5 -->
<g id="node5" class="node">
<title>Node5</title>
<g id="a_node5"><a xlink:href="../../dc/d55/classdoris_1_1vectorized_1_1_i_aggregate_function_data_helper.html" target="_top" xlink:title="Implements several methods for manipulation with data. T &#45; type of structure with data for aggregatio...">
<polygon fill="white" stroke="#666666" points="250,-196 99,-196 99,-166 250,-166 250,-196"/>
<text text-anchor="start" x="107" y="-184" font-family="Helvetica,sans-Serif" font-size="10.00">IAggregateFunctionDataHelper</text>
<text text-anchor="middle" x="174.5" y="-173" font-family="Helvetica,sans-Serif" font-size="10.00">&lt; T, Derived &gt;</text>
</a>
</g>
</g>
<!-- Node5&#45;&gt;Node2 -->
<g id="edge4" class="edge">
<title>Node5&#45;&gt;Node2</title>
<path fill="none" stroke="orange" stroke-dasharray="5,2" d="M152.83,-157.46C138.39,-142.46 119.6,-122.91 105.7,-108.47"/>
<polygon fill="orange" stroke="orange" points="150.25,-159.83 159.7,-164.61 155.29,-154.98 150.25,-159.83"/>
<text text-anchor="start" x="143.5" y="-140" font-family="Helvetica,sans-Serif" font-size="10.00"> &lt; Data, AggregateFunctions</text>
<text text-anchor="middle" x="206.5" y="-129" font-family="Helvetica,sans-Serif" font-size="10.00">MinMaxBy&lt; Data &gt; &gt;</text>
</g>
<!-- Node6&#45;&gt;Node5 -->
<g id="edge5" class="edge">
<title>Node6&#45;&gt;Node5</title>
<path fill="none" stroke="#63b8ff" d="M173.04,-250.4C173.41,-233.05 173.89,-210.75 174.19,-196.41"/>
<polygon fill="#63b8ff" stroke="#63b8ff" points="169.55,-250.14 172.84,-260.21 176.55,-250.29 169.55,-250.14"/>
</g>
</g>
</svg>
