<?xml version="1.0" encoding="UTF-8" standalone="no"?>
<!DOCTYPE svg PUBLIC "-//W3C//DTD SVG 1.1//EN"
 "http://www.w3.org/Graphics/SVG/1.1/DTD/svg11.dtd">
<!-- Generated by graphviz version 7.1.0 (20230121.1956)
 -->
<!-- Title: instance Pages: 1 -->
<!--zoomable 618 -->
<svg id="main" version="1.1" xmlns="http://www.w3.org/2000/svg" xmlns:xlink="http://www.w3.org/1999/xlink" xml:space="preserve" onload="init(evt)">
<style type="text/css"><![CDATA[
.edge:hover path { stroke: red; }
.edge:hover polygon { stroke: red; fill: red; }
]]></style>
<script type="text/javascript"><![CDATA[
var edges = document.getElementsByTagName('g');
if (edges && edges.length) {
  for (var i=0;i<edges.length;i++) {
    if (edges[i].id.substr(0,4)=='edge') {
      edges[i].setAttribute('class','edge');
    }
  }
}
]]></script>
        <defs>
                <circle id="rim" cx="0" cy="0" r="7"/>
                <circle id="rim2" cx="0" cy="0" r="3.5"/>
                <g id="zoomPlus">
                        <use xlink:href="#rim" fill="#404040">
                                <set attributeName="fill" to="#808080" begin="zoomplus.mouseover" end="zoomplus.mouseout"/>
                        </use>
                        <path d="M-4,0h8M0,-4v8" fill="none" stroke="white" stroke-width="1.5" pointer-events="none"/>
                </g>
                <g id="zoomMin">
                        <use xlink:href="#rim" fill="#404040">
                                <set attributeName="fill" to="#808080" begin="zoomminus.mouseover" end="zoomminus.mouseout"/>
                        </use>
                        <path d="M-4,0h8" fill="none" stroke="white" stroke-width="1.5" pointer-events="none"/>
                </g>
                <g id="dirArrow">
                        <path fill="none" stroke="white" stroke-width="1.5" d="M0,-3.0v7 M-2.5,-0.5L0,-3.0L2.5,-0.5"/>
                </g>
               <g id="resetDef">
                       <use xlink:href="#rim2" fill="#404040">
                               <set attributeName="fill" to="#808080" begin="reset.mouseover" end="reset.mouseout"/>
                       </use>
               </g>
        </defs>

<script type="text/javascript">
var viewWidth = 1143;
var viewHeight = 618;
var sectionId = 'dynsection-3';
</script>
<script xlink:href="../../svgpan.js"/>
<svg id="graph" class="graph">
<g id="viewport">
<title>instance</title>
<!-- Node1 -->
<g id="node1" class="node">
<title>Node1</title>
<g id="a_node1"><a xlink:title=" ">
<polygon fill="#999999" stroke="#666666" points="1135,-365.5 1082,-365.5 1082,-346.5 1135,-346.5 1135,-365.5"/>
<text text-anchor="middle" x="1108.5" y="-353.5" font-family="Helvetica,sans-Serif" font-size="10.00">instance</text>
</a>
</g>
</g>
<!-- Node2 -->
<g id="node2" class="node">
<title>Node2</title>
<g id="a_node2"><a xlink:href="../../d6/d94/namespacedoris.html#a9660dedd932bb9b8cb78cf0a3107b112" target="_top" xlink:title=" ">
<polygon fill="white" stroke="#666666" points="1046,-371 900,-371 900,-341 1046,-341 1046,-371"/>
<text text-anchor="start" x="908" y="-359" font-family="Helvetica,sans-Serif" font-size="10.00">doris::get_block_compression</text>
<text text-anchor="middle" x="973" y="-348" font-family="Helvetica,sans-Serif" font-size="10.00">_codec</text>
</a>
</g>
</g>
<!-- Node1&#45;&gt;Node2 -->
<g id="edge1" class="edge">
<title>Node1&#45;&gt;Node2</title>
<path fill="none" stroke="#63b8ff" d="M1070.45,-356C1062.88,-356 1054.65,-356 1046.32,-356"/>
<polygon fill="#63b8ff" stroke="#63b8ff" points="1070.25,-359.5 1080.25,-356 1070.25,-352.5 1070.25,-359.5"/>
</g>
<!-- Node3 -->
<g id="node3" class="node">
<title>Node3</title>
<g id="a_node3"><a xlink:href="../../db/de9/classdoris_1_1segment__v2_1_1_indexed_column_iterator.html#a3bba8a3bc380551aa774bb2078bd1778" target="_top" xlink:title=" ">
<polygon fill="white" stroke="#666666" points="857.5,-502.5 741.5,-502.5 741.5,-461.5 857.5,-461.5 857.5,-502.5"/>
<text text-anchor="start" x="749.5" y="-490.5" font-family="Helvetica,sans-Serif" font-size="10.00">doris::segment_v2::</text>
<text text-anchor="start" x="749.5" y="-479.5" font-family="Helvetica,sans-Serif" font-size="10.00">IndexedColumnIterator</text>
<text text-anchor="middle" x="799.5" y="-468.5" font-family="Helvetica,sans-Serif" font-size="10.00">::_read_data_page</text>
</a>
</g>
</g>
<!-- Node2&#45;&gt;Node3 -->
<g id="edge2" class="edge">
<title>Node2&#45;&gt;Node3</title>
<path fill="none" stroke="#63b8ff" d="M949.5,-379.51C928.69,-400.36 896.19,-430.73 864,-452 859.12,-455.23 853.83,-458.3 848.47,-461.16"/>
<polygon fill="#63b8ff" stroke="#63b8ff" points="951.82,-382.14 956.34,-372.56 946.83,-377.23 951.82,-382.14"/>
</g>
<!-- Node17 -->
<g id="node17" class="node">
<title>Node17</title>
<g id="a_node17"><a xlink:href="../../d2/d12/classdoris_1_1vectorized_1_1_block.html#ac9218bcbe7d30b8b211069909b4fe400" target="_top" xlink:title=" ">
<polygon fill="white" stroke="#666666" points="847,-443 752,-443 752,-413 847,-413 847,-443"/>
<text text-anchor="start" x="760" y="-431" font-family="Helvetica,sans-Serif" font-size="10.00">doris::vectorized::</text>
<text text-anchor="middle" x="799.5" y="-420" font-family="Helvetica,sans-Serif" font-size="10.00">Block::Block</text>
</a>
</g>
</g>
<!-- Node2&#45;&gt;Node17 -->
<g id="edge22" class="edge">
<title>Node2&#45;&gt;Node17</title>
<path fill="none" stroke="#63b8ff" d="M928.22,-376.14C908.68,-384.95 885.3,-395.25 864,-404 857.02,-406.87 849.57,-409.8 842.3,-412.59"/>
<polygon fill="#63b8ff" stroke="#63b8ff" points="929.6,-379.35 937.27,-372.04 926.71,-372.98 929.6,-379.35"/>
</g>
<!-- Node18 -->
<g id="node18" class="node">
<title>Node18</title>
<g id="a_node18"><a xlink:href="../../d0/da1/classdoris_1_1segment__v2_1_1_indexed_column_writer.html#a223508714f7b7c2a338265d09a23a25f" target="_top" xlink:title=" ">
<polygon fill="white" stroke="#666666" points="864,-395 735,-395 735,-365 864,-365 864,-395"/>
<text text-anchor="start" x="743" y="-383" font-family="Helvetica,sans-Serif" font-size="10.00">doris::segment_v2::</text>
<text text-anchor="middle" x="799.5" y="-372" font-family="Helvetica,sans-Serif" font-size="10.00">IndexedColumnWriter::init</text>
</a>
</g>
</g>
<!-- Node2&#45;&gt;Node18 -->
<g id="edge23" class="edge">
<title>Node2&#45;&gt;Node18</title>
<path fill="none" stroke="#63b8ff" d="M888.43,-367.7C880.38,-368.82 872.3,-369.95 864.48,-371.05"/>
<polygon fill="#63b8ff" stroke="#63b8ff" points="888.85,-371.17 898.27,-366.32 887.88,-364.24 888.85,-371.17"/>
</g>
<!-- Node21 -->
<g id="node21" class="node">
<title>Node21</title>
<g id="a_node21"><a xlink:href="../../d6/d76/classdoris_1_1vectorized_1_1_column_chunk_reader.html#a223508714f7b7c2a338265d09a23a25f" target="_top" xlink:title=" ">
<polygon fill="white" stroke="#666666" points="864,-347 735,-347 735,-317 864,-317 864,-347"/>
<text text-anchor="start" x="743" y="-335" font-family="Helvetica,sans-Serif" font-size="10.00">doris::vectorized::</text>
<text text-anchor="middle" x="799.5" y="-324" font-family="Helvetica,sans-Serif" font-size="10.00">ColumnChunkReader::init</text>
</a>
</g>
</g>
<!-- Node2&#45;&gt;Node21 -->
<g id="edge26" class="edge">
<title>Node2&#45;&gt;Node21</title>
<path fill="none" stroke="#63b8ff" d="M888.43,-344.3C880.38,-343.18 872.3,-342.05 864.48,-340.95"/>
<polygon fill="#63b8ff" stroke="#63b8ff" points="887.88,-347.76 898.27,-345.68 888.85,-340.83 887.88,-347.76"/>
</g>
<!-- Node22 -->
<g id="node22" class="node">
<title>Node22</title>
<g id="a_node22"><a xlink:href="../../d0/dc7/classdoris_1_1segment__v2_1_1_scalar_column_writer.html#a0142844ee6c98e6bdd1e728c48f1445e" target="_top" xlink:title=" ">
<polygon fill="white" stroke="#666666" points="860.5,-299 738.5,-299 738.5,-269 860.5,-269 860.5,-299"/>
<text text-anchor="start" x="746.5" y="-287" font-family="Helvetica,sans-Serif" font-size="10.00">doris::segment_v2::</text>
<text text-anchor="middle" x="799.5" y="-276" font-family="Helvetica,sans-Serif" font-size="10.00">ScalarColumnWriter::init</text>
</a>
</g>
</g>
<!-- Node2&#45;&gt;Node22 -->
<g id="edge27" class="edge">
<title>Node2&#45;&gt;Node22</title>
<path fill="none" stroke="#63b8ff" d="M928.22,-335.86C908.68,-327.05 885.3,-316.75 864,-308 857.02,-305.13 849.57,-302.2 842.3,-299.41"/>
<polygon fill="#63b8ff" stroke="#63b8ff" points="926.71,-339.02 937.27,-339.96 929.6,-332.65 926.71,-339.02"/>
</g>
<!-- Node23 -->
<g id="node23" class="node">
<title>Node23</title>
<g id="a_node23"><a xlink:href="../../df/df3/classdoris_1_1segment__v2_1_1_file_column_iterator.html#a71aa82243ea95139e8a8c2675ed20683" target="_top" xlink:title=" ">
<polygon fill="white" stroke="#666666" points="857.5,-251 741.5,-251 741.5,-221 857.5,-221 857.5,-251"/>
<text text-anchor="start" x="749.5" y="-239" font-family="Helvetica,sans-Serif" font-size="10.00">doris::segment_v2::</text>
<text text-anchor="middle" x="799.5" y="-228" font-family="Helvetica,sans-Serif" font-size="10.00">FileColumnIterator::init</text>
</a>
</g>
</g>
<!-- Node2&#45;&gt;Node23 -->
<g id="edge28" class="edge">
<title>Node2&#45;&gt;Node23</title>
<path fill="none" stroke="#63b8ff" d="M950.59,-332.59C930.08,-311.3 897.39,-280.2 864,-260 858.76,-256.83 853.02,-253.95 847.21,-251.39"/>
<polygon fill="#63b8ff" stroke="#63b8ff" points="947.89,-334.83 957.31,-339.68 952.97,-330.01 947.89,-334.83"/>
</g>
<!-- Node24 -->
<g id="node24" class="node">
<title>Node24</title>
<g id="a_node24"><a xlink:href="../../d7/d99/classdoris_1_1segment__v2_1_1_indexed_column_reader.html#a8060ecc035af31aeaaadf7645af7b536" target="_top" xlink:title=" ">
<polygon fill="white" stroke="#666666" points="857.5,-588.5 741.5,-588.5 741.5,-547.5 857.5,-547.5 857.5,-588.5"/>
<text text-anchor="start" x="749.5" y="-576.5" font-family="Helvetica,sans-Serif" font-size="10.00">doris::segment_v2::</text>
<text text-anchor="start" x="749.5" y="-565.5" font-family="Helvetica,sans-Serif" font-size="10.00">IndexedColumnReader</text>
<text text-anchor="middle" x="799.5" y="-554.5" font-family="Helvetica,sans-Serif" font-size="10.00">::load_index_page</text>
</a>
</g>
</g>
<!-- Node2&#45;&gt;Node24 -->
<g id="edge29" class="edge">
<title>Node2&#45;&gt;Node24</title>
<path fill="none" stroke="#63b8ff" d="M957.38,-380.91C938.04,-412.88 901.95,-469.32 864,-512 852.77,-524.63 838.81,-537.22 826.85,-547.25"/>
<polygon fill="#63b8ff" stroke="#63b8ff" points="960.36,-382.74 962.5,-372.36 954.36,-379.14 960.36,-382.74"/>
</g>
<!-- Node26 -->
<g id="node26" class="node">
<title>Node26</title>
<g id="a_node26"><a xlink:href="../../d2/d12/classdoris_1_1vectorized_1_1_block.html#a4ec4508e84aea64bf03155d9aadec9e8" target="_top" xlink:title=" ">
<polygon fill="white" stroke="#666666" points="847,-203 752,-203 752,-173 847,-173 847,-203"/>
<text text-anchor="start" x="760" y="-191" font-family="Helvetica,sans-Serif" font-size="10.00">doris::vectorized::</text>
<text text-anchor="middle" x="799.5" y="-180" font-family="Helvetica,sans-Serif" font-size="10.00">Block::serialize</text>
</a>
</g>
</g>
<!-- Node2&#45;&gt;Node26 -->
<g id="edge32" class="edge">
<title>Node2&#45;&gt;Node26</title>
<path fill="none" stroke="#63b8ff" d="M959.06,-330.86C941.51,-299.07 907.32,-244.55 864,-212 858.91,-208.18 853.14,-204.9 847.21,-202.11"/>
<polygon fill="#63b8ff" stroke="#63b8ff" points="955.82,-332.23 963.64,-339.38 961.98,-328.91 955.82,-332.23"/>
</g>
<!-- Node4 -->
<g id="node4" class="node">
<title>Node4</title>
<g id="a_node4"><a xlink:href="../../db/de9/classdoris_1_1segment__v2_1_1_indexed_column_iterator.html#a995d4792ee7f31526e7a387d35106c61" target="_top" xlink:title=" ">
<polygon fill="white" stroke="#666666" points="668.5,-502.5 552.5,-502.5 552.5,-461.5 668.5,-461.5 668.5,-502.5"/>
<text text-anchor="start" x="560.5" y="-490.5" font-family="Helvetica,sans-Serif" font-size="10.00">doris::segment_v2::</text>
<text text-anchor="start" x="560.5" y="-479.5" font-family="Helvetica,sans-Serif" font-size="10.00">IndexedColumnIterator</text>
<text text-anchor="middle" x="610.5" y="-468.5" font-family="Helvetica,sans-Serif" font-size="10.00">::next_batch</text>
</a>
</g>
</g>
<!-- Node3&#45;&gt;Node4 -->
<g id="edge3" class="edge">
<title>Node3&#45;&gt;Node4</title>
<path fill="none" stroke="#63b8ff" d="M729.85,-482C709.78,-482 688.06,-482 668.77,-482"/>
<polygon fill="#63b8ff" stroke="#63b8ff" points="729.61,-485.5 739.61,-482 729.61,-478.5 729.61,-485.5"/>
</g>
<!-- Node13 -->
<g id="node13" class="node">
<title>Node13</title>
<g id="a_node13"><a xlink:href="../../db/de9/classdoris_1_1segment__v2_1_1_indexed_column_iterator.html#a9ace29257402bbf7108193190064ac91" target="_top" xlink:title=" ">
<polygon fill="white" stroke="#666666" points="465,-413.5 349,-413.5 349,-372.5 465,-372.5 465,-413.5"/>
<text text-anchor="start" x="357" y="-401.5" font-family="Helvetica,sans-Serif" font-size="10.00">doris::segment_v2::</text>
<text text-anchor="start" x="357" y="-390.5" font-family="Helvetica,sans-Serif" font-size="10.00">IndexedColumnIterator</text>
<text text-anchor="middle" x="407" y="-379.5" font-family="Helvetica,sans-Serif" font-size="10.00">::seek_at_or_after</text>
</a>
</g>
</g>
<!-- Node3&#45;&gt;Node13 -->
<g id="edge13" class="edge">
<title>Node3&#45;&gt;Node13</title>
<path fill="none" stroke="#63b8ff" d="M730.33,-461.35C719.87,-458.41 709.17,-455.53 699,-453 618.52,-433.01 524.38,-414.47 465.46,-403.44"/>
<polygon fill="#63b8ff" stroke="#63b8ff" points="729.07,-464.63 739.64,-464 730.99,-457.9 729.07,-464.63"/>
</g>
<!-- Node16 -->
<g id="node16" class="node">
<title>Node16</title>
<g id="a_node16"><a xlink:href="../../db/de9/classdoris_1_1segment__v2_1_1_indexed_column_iterator.html#a06c2914d57e81a8a95aaa3ea2a8ade8c" target="_top" xlink:title=" ">
<polygon fill="white" stroke="#666666" points="668.5,-561.5 552.5,-561.5 552.5,-520.5 668.5,-520.5 668.5,-561.5"/>
<text text-anchor="start" x="560.5" y="-549.5" font-family="Helvetica,sans-Serif" font-size="10.00">doris::segment_v2::</text>
<text text-anchor="start" x="560.5" y="-538.5" font-family="Helvetica,sans-Serif" font-size="10.00">IndexedColumnIterator</text>
<text text-anchor="middle" x="610.5" y="-527.5" font-family="Helvetica,sans-Serif" font-size="10.00">::seek_to_ordinal</text>
</a>
</g>
</g>
<!-- Node3&#45;&gt;Node16 -->
<g id="edge18" class="edge">
<title>Node3&#45;&gt;Node16</title>
<path fill="none" stroke="#63b8ff" d="M730.41,-503.48C710.18,-509.87 688.23,-516.79 668.77,-522.93"/>
<polygon fill="#63b8ff" stroke="#63b8ff" points="731.2,-506.91 739.68,-500.56 729.09,-500.23 731.2,-506.91"/>
</g>
<!-- Node5 -->
<g id="node5" class="node">
<title>Node5</title>
<g id="a_node5"><a xlink:href="../../de/d0f/classdoris_1_1segment__v2_1_1_zone_map_index_reader.html#a3f9e9debec7dfe6a44dbc41b67565dfd" target="_top" xlink:title=" ">
<polygon fill="white" stroke="#666666" points="475.5,-610 338.5,-610 338.5,-580 475.5,-580 475.5,-610"/>
<text text-anchor="start" x="346.5" y="-598" font-family="Helvetica,sans-Serif" font-size="10.00">doris::segment_v2::</text>
<text text-anchor="middle" x="407" y="-587" font-family="Helvetica,sans-Serif" font-size="10.00">ZoneMapIndexReader::load</text>
</a>
</g>
</g>
<!-- Node4&#45;&gt;Node5 -->
<g id="edge4" class="edge">
<title>Node4&#45;&gt;Node5</title>
<path fill="none" stroke="#63b8ff" d="M541.85,-499.74C534.76,-503.15 527.97,-507.2 522,-512 498.05,-531.23 510.25,-552.15 486,-571 481.75,-574.3 477.04,-577.16 472.11,-579.62"/>
<polygon fill="#63b8ff" stroke="#63b8ff" points="543.21,-502.96 551,-495.77 540.43,-496.54 543.21,-502.96"/>
</g>
<!-- Node6 -->
<g id="node6" class="node">
<title>Node6</title>
<g id="a_node6"><a xlink:href="../../db/d0b/classdoris_1_1segment__v2_1_1_bitmap_index_iterator.html#a4dc904baf3245e67f4f74774b515794b" target="_top" xlink:title=" ">
<polygon fill="white" stroke="#666666" points="458.5,-502.5 355.5,-502.5 355.5,-461.5 458.5,-461.5 458.5,-502.5"/>
<text text-anchor="start" x="363.5" y="-490.5" font-family="Helvetica,sans-Serif" font-size="10.00">doris::segment_v2::</text>
<text text-anchor="start" x="363.5" y="-479.5" font-family="Helvetica,sans-Serif" font-size="10.00">BitmapIndexIterator</text>
<text text-anchor="middle" x="407" y="-468.5" font-family="Helvetica,sans-Serif" font-size="10.00">::read_bitmap</text>
</a>
</g>
</g>
<!-- Node4&#45;&gt;Node6 -->
<g id="edge5" class="edge">
<title>Node4&#45;&gt;Node6</title>
<path fill="none" stroke="#63b8ff" d="M540.73,-482C513.83,-482 483.54,-482 458.69,-482"/>
<polygon fill="#63b8ff" stroke="#63b8ff" points="540.51,-485.5 550.51,-482 540.51,-478.5 540.51,-485.5"/>
</g>
<!-- Node12 -->
<g id="node12" class="node">
<title>Node12</title>
<g id="a_node12"><a xlink:href="../../d2/d9c/classdoris_1_1segment__v2_1_1_bloom_filter_index_iterator.html#a8ba6095e008211023a37d8db3b98a6c6" target="_top" xlink:title=" ">
<polygon fill="white" stroke="#666666" points="467.5,-561.5 346.5,-561.5 346.5,-520.5 467.5,-520.5 467.5,-561.5"/>
<text text-anchor="start" x="354.5" y="-549.5" font-family="Helvetica,sans-Serif" font-size="10.00">doris::segment_v2::</text>
<text text-anchor="start" x="354.5" y="-538.5" font-family="Helvetica,sans-Serif" font-size="10.00">BloomFilterIndexIterator</text>
<text text-anchor="middle" x="407" y="-527.5" font-family="Helvetica,sans-Serif" font-size="10.00">::read_bloom_filter</text>
</a>
</g>
</g>
<!-- Node4&#45;&gt;Node12 -->
<g id="edge12" class="edge">
<title>Node4&#45;&gt;Node12</title>
<path fill="none" stroke="#63b8ff" d="M541.27,-501.98C517.39,-508.97 490.78,-516.76 467.65,-523.53"/>
<polygon fill="#63b8ff" stroke="#63b8ff" points="541.96,-505.42 550.58,-499.25 539.99,-498.7 541.96,-505.42"/>
</g>
<!-- Node7 -->
<g id="node7" class="node">
<title>Node7</title>
<g id="a_node7"><a xlink:href="../../d8/d0c/classdoris_1_1_in_list_predicate_base.html#a3265bf81b55891ab25982bc867f4241d" target="_top" xlink:title=" ">
<polygon fill="white" stroke="#666666" points="134,-502 3,-502 3,-472 134,-472 134,-502"/>
<text text-anchor="start" x="11" y="-490" font-family="Helvetica,sans-Serif" font-size="10.00">doris::InListPredicateBase</text>
<text text-anchor="middle" x="68.5" y="-479" font-family="Helvetica,sans-Serif" font-size="10.00">::evaluate</text>
</a>
</g>
</g>
<!-- Node6&#45;&gt;Node7 -->
<g id="edge6" class="edge">
<title>Node6&#45;&gt;Node7</title>
<path fill="none" stroke="#63b8ff" d="M344.63,-503.49C338.89,-506.12 333.26,-508.97 328,-512 310.2,-522.26 311.38,-534.17 292,-541 242.12,-558.59 222.73,-559 173,-541 153.42,-533.91 155.09,-521.32 137,-511 131.49,-507.86 125.5,-505.02 119.43,-502.48"/>
<polygon fill="#63b8ff" stroke="#63b8ff" points="345.84,-506.78 353.62,-499.58 343.05,-500.36 345.84,-506.78"/>
</g>
<!-- Node8 -->
<g id="node8" class="node">
<title>Node8</title>
<g id="a_node8"><a xlink:href="../../db/d0b/classdoris_1_1segment__v2_1_1_bitmap_index_iterator.html#aa60ba4ba20be3453e7b116e5288957b4" target="_top" xlink:title=" ">
<polygon fill="white" stroke="#666666" points="284,-531.5 181,-531.5 181,-490.5 284,-490.5 284,-531.5"/>
<text text-anchor="start" x="189" y="-519.5" font-family="Helvetica,sans-Serif" font-size="10.00">doris::segment_v2::</text>
<text text-anchor="start" x="189" y="-508.5" font-family="Helvetica,sans-Serif" font-size="10.00">BitmapIndexIterator</text>
<text text-anchor="middle" x="232.5" y="-497.5" font-family="Helvetica,sans-Serif" font-size="10.00">::read_null_bitmap</text>
</a>
</g>
</g>
<!-- Node6&#45;&gt;Node8 -->
<g id="edge7" class="edge">
<title>Node6&#45;&gt;Node8</title>
<path fill="none" stroke="#63b8ff" d="M343.9,-492.44C324.32,-495.73 302.94,-499.33 284.26,-502.47"/>
<polygon fill="#63b8ff" stroke="#63b8ff" points="344.4,-495.9 353.68,-490.8 343.24,-489 344.4,-495.9"/>
</g>
<!-- Node11 -->
<g id="node11" class="node">
<title>Node11</title>
<g id="a_node11"><a xlink:href="../../db/d0b/classdoris_1_1segment__v2_1_1_bitmap_index_iterator.html#abae52f05084b9aaa3a19b7bb26215a23" target="_top" xlink:title=" ">
<polygon fill="white" stroke="#666666" points="284.5,-472.5 180.5,-472.5 180.5,-431.5 284.5,-431.5 284.5,-472.5"/>
<text text-anchor="start" x="188.5" y="-460.5" font-family="Helvetica,sans-Serif" font-size="10.00">doris::segment_v2::</text>
<text text-anchor="start" x="188.5" y="-449.5" font-family="Helvetica,sans-Serif" font-size="10.00">BitmapIndexIterator</text>
<text text-anchor="middle" x="232.5" y="-438.5" font-family="Helvetica,sans-Serif" font-size="10.00">::read_union_bitmap</text>
</a>
</g>
</g>
<!-- Node6&#45;&gt;Node11 -->
<g id="edge11" class="edge">
<title>Node6&#45;&gt;Node11</title>
<path fill="none" stroke="#63b8ff" d="M344,-471.22C324.6,-467.84 303.43,-464.16 284.85,-460.93"/>
<polygon fill="#63b8ff" stroke="#63b8ff" points="343.23,-474.64 353.69,-472.9 344.43,-467.74 343.23,-474.64"/>
</g>
<!-- Node8&#45;&gt;Node7 -->
<g id="edge9" class="edge">
<title>Node8&#45;&gt;Node7</title>
<path fill="none" stroke="#63b8ff" d="M169.44,-501.81C157.98,-500.11 145.98,-498.33 134.43,-496.62"/>
<polygon fill="#63b8ff" stroke="#63b8ff" points="168.78,-505.25 179.19,-503.25 169.81,-498.32 168.78,-505.25"/>
</g>
<!-- Node9 -->
<g id="node9" class="node">
<title>Node9</title>
<g id="a_node9"><a xlink:href="../../da/d62/classdoris_1_1_comparison_predicate_base.html#a42f1f5bcebe2451ba53ed902d1fd59a7" target="_top" xlink:title=" ">
<polygon fill="white" stroke="#666666" points="137,-389 0,-389 0,-359 137,-359 137,-389"/>
<text text-anchor="start" x="8" y="-377" font-family="Helvetica,sans-Serif" font-size="10.00">doris::ComparisonPredicate</text>
<text text-anchor="middle" x="68.5" y="-366" font-family="Helvetica,sans-Serif" font-size="10.00">Base::evaluate</text>
</a>
</g>
</g>
<!-- Node8&#45;&gt;Node9 -->
<g id="edge8" class="edge">
<title>Node8&#45;&gt;Node9</title>
<path fill="none" stroke="#63b8ff" d="M176.01,-484.14C174.99,-483.43 173.98,-482.72 173,-482 135.11,-454.18 99.06,-411.71 81.19,-389.21"/>
<polygon fill="#63b8ff" stroke="#63b8ff" points="173.95,-486.98 184.28,-489.36 177.69,-481.06 173.95,-486.98"/>
</g>
<!-- Node10 -->
<g id="node10" class="node">
<title>Node10</title>
<g id="a_node10"><a xlink:href="../../d2/d50/classdoris_1_1_null_predicate.html#aca995153c948370847f2f27be8db2784" target="_top" xlink:title=" ">
<polygon fill="white" stroke="#666666" points="119.5,-550 17.5,-550 17.5,-520 119.5,-520 119.5,-550"/>
<text text-anchor="start" x="25.5" y="-538" font-family="Helvetica,sans-Serif" font-size="10.00">doris::NullPredicate</text>
<text text-anchor="middle" x="68.5" y="-527" font-family="Helvetica,sans-Serif" font-size="10.00">::evaluate</text>
</a>
</g>
</g>
<!-- Node8&#45;&gt;Node10 -->
<g id="edge10" class="edge">
<title>Node8&#45;&gt;Node10</title>
<path fill="none" stroke="#63b8ff" d="M169.53,-520.18C153.11,-522.61 135.58,-525.21 119.86,-527.54"/>
<polygon fill="#63b8ff" stroke="#63b8ff" points="169.81,-523.68 179.19,-518.75 168.78,-516.75 169.81,-523.68"/>
</g>
<!-- Node14 -->
<g id="node14" class="node">
<title>Node14</title>
<g id="a_node14"><a xlink:href="../../db/de9/classdoris_1_1segment__v2_1_1_indexed_column_iterator.html#a50cbdb2bb7247775f3017d7c539e3589" target="_top" xlink:title=" ">
<polygon fill="white" stroke="#666666" points="290.5,-413.5 174.5,-413.5 174.5,-372.5 290.5,-372.5 290.5,-413.5"/>
<text text-anchor="start" x="182.5" y="-401.5" font-family="Helvetica,sans-Serif" font-size="10.00">doris::segment_v2::</text>
<text text-anchor="start" x="182.5" y="-390.5" font-family="Helvetica,sans-Serif" font-size="10.00">IndexedColumnIterator</text>
<text text-anchor="middle" x="232.5" y="-379.5" font-family="Helvetica,sans-Serif" font-size="10.00">::seek_at_or_after</text>
</a>
</g>
</g>
<!-- Node13&#45;&gt;Node14 -->
<g id="edge14" class="edge">
<title>Node13&#45;&gt;Node14</title>
<path fill="none" stroke="#63b8ff" d="M337.06,-393C321.78,-393 305.75,-393 290.98,-393"/>
<polygon fill="#63b8ff" stroke="#63b8ff" points="337.05,-396.5 347.05,-393 337.05,-389.5 337.05,-396.5"/>
</g>
<!-- Node15 -->
<g id="node15" class="node">
<title>Node15</title>
<g id="a_node15"><a xlink:href="../../db/d0b/classdoris_1_1segment__v2_1_1_bitmap_index_iterator.html#ac7345d6e481be0d03f401fa0b20406f1" target="_top" xlink:title=" ">
<polygon fill="white" stroke="#666666" points="284,-354.5 181,-354.5 181,-313.5 284,-313.5 284,-354.5"/>
<text text-anchor="start" x="189" y="-342.5" font-family="Helvetica,sans-Serif" font-size="10.00">doris::segment_v2::</text>
<text text-anchor="start" x="189" y="-331.5" font-family="Helvetica,sans-Serif" font-size="10.00">BitmapIndexIterator</text>
<text text-anchor="middle" x="232.5" y="-320.5" font-family="Helvetica,sans-Serif" font-size="10.00">::seek_dictionary</text>
</a>
</g>
</g>
<!-- Node13&#45;&gt;Node15 -->
<g id="edge15" class="edge">
<title>Node13&#45;&gt;Node15</title>
<path fill="none" stroke="#63b8ff" d="M337.9,-369.71C320.04,-363.6 301.1,-357.12 284.32,-351.38"/>
<polygon fill="#63b8ff" stroke="#63b8ff" points="336.53,-372.94 347.13,-372.86 338.8,-366.32 336.53,-372.94"/>
</g>
<!-- Node15&#45;&gt;Node7 -->
<g id="edge17" class="edge">
<title>Node15&#45;&gt;Node7</title>
<path fill="none" stroke="#63b8ff" d="M176.96,-361C175.61,-361.98 174.28,-362.98 173,-364 151.82,-380.87 103.31,-442.81 81.05,-471.82"/>
<polygon fill="#63b8ff" stroke="#63b8ff" points="178.6,-364.11 185.02,-355.67 174.74,-358.27 178.6,-364.11"/>
</g>
<!-- Node15&#45;&gt;Node9 -->
<g id="edge16" class="edge">
<title>Node15&#45;&gt;Node9</title>
<path fill="none" stroke="#63b8ff" d="M169.61,-349.28C157.32,-352.32 144.41,-355.5 132.1,-358.54"/>
<polygon fill="#63b8ff" stroke="#63b8ff" points="170.35,-352.7 179.22,-346.91 168.67,-345.91 170.35,-352.7"/>
</g>
<!-- Node16&#45;&gt;Node5 -->
<g id="edge19" class="edge">
<title>Node16&#45;&gt;Node5</title>
<path fill="none" stroke="#63b8ff" d="M540.98,-559.36C516.45,-565.94 489.06,-573.28 465.55,-579.58"/>
<polygon fill="#63b8ff" stroke="#63b8ff" points="541.81,-562.76 550.57,-556.79 540,-556 541.81,-562.76"/>
</g>
<!-- Node16&#45;&gt;Node6 -->
<g id="edge20" class="edge">
<title>Node16&#45;&gt;Node6</title>
<path fill="none" stroke="#63b8ff" d="M541.09,-520.97C514.1,-513.07 483.65,-504.15 458.69,-496.84"/>
<polygon fill="#63b8ff" stroke="#63b8ff" points="539.99,-524.3 550.58,-523.75 541.96,-517.58 539.99,-524.3"/>
</g>
<!-- Node16&#45;&gt;Node12 -->
<g id="edge21" class="edge">
<title>Node16&#45;&gt;Node12</title>
<path fill="none" stroke="#63b8ff" d="M540.62,-541C516.91,-541 490.57,-541 467.65,-541"/>
<polygon fill="#63b8ff" stroke="#63b8ff" points="540.51,-544.5 550.51,-541 540.51,-537.5 540.51,-544.5"/>
</g>
<!-- Node19 -->
<g id="node19" class="node">
<title>Node19</title>
<g id="a_node19"><a xlink:href="../../db/dcb/classdoris_1_1segment__v2_1_1_n_gram_bloom_filter_index_writer_impl.html#a92ac14e4a5d25dfbfe4db047b040ec79" target="_top" xlink:title=" ">
<polygon fill="white" stroke="#666666" points="684,-401.5 537,-401.5 537,-360.5 684,-360.5 684,-401.5"/>
<text text-anchor="start" x="545" y="-389.5" font-family="Helvetica,sans-Serif" font-size="10.00">doris::segment_v2::</text>
<text text-anchor="start" x="545" y="-378.5" font-family="Helvetica,sans-Serif" font-size="10.00">NGramBloomFilterIndexWriter</text>
<text text-anchor="middle" x="610.5" y="-367.5" font-family="Helvetica,sans-Serif" font-size="10.00">Impl::finish</text>
</a>
</g>
</g>
<!-- Node18&#45;&gt;Node19 -->
<g id="edge24" class="edge">
<title>Node18&#45;&gt;Node19</title>
<path fill="none" stroke="#63b8ff" d="M723.49,-380.4C710.59,-380.47 697.21,-380.54 684.37,-380.61"/>
<polygon fill="#63b8ff" stroke="#63b8ff" points="723.17,-383.9 733.15,-380.35 723.14,-376.9 723.17,-383.9"/>
</g>
<!-- Node20 -->
<g id="node20" class="node">
<title>Node20</title>
<g id="a_node20"><a xlink:href="../../d6/dc9/classdoris_1_1segment__v2_1_1_typed_zone_map_index_writer.html#a92ac14e4a5d25dfbfe4db047b040ec79" target="_top" xlink:title=" ">
<polygon fill="white" stroke="#666666" points="677,-342.5 544,-342.5 544,-301.5 677,-301.5 677,-342.5"/>
<text text-anchor="start" x="552" y="-330.5" font-family="Helvetica,sans-Serif" font-size="10.00">doris::segment_v2::</text>
<text text-anchor="start" x="552" y="-319.5" font-family="Helvetica,sans-Serif" font-size="10.00">TypedZoneMapIndexWriter</text>
<text text-anchor="middle" x="610.5" y="-308.5" font-family="Helvetica,sans-Serif" font-size="10.00">::finish</text>
</a>
</g>
</g>
<!-- Node18&#45;&gt;Node20 -->
<g id="edge25" class="edge">
<title>Node18&#45;&gt;Node20</title>
<path fill="none" stroke="#63b8ff" d="M738.03,-361.24C718.61,-355.22 697,-348.52 677.21,-342.38"/>
<polygon fill="#63b8ff" stroke="#63b8ff" points="736.84,-364.54 747.43,-364.16 738.92,-357.86 736.84,-364.54"/>
</g>
<!-- Node25 -->
<g id="node25" class="node">
<title>Node25</title>
<g id="a_node25"><a xlink:href="../../d7/d99/classdoris_1_1segment__v2_1_1_indexed_column_reader.html#a3f9e9debec7dfe6a44dbc41b67565dfd" target="_top" xlink:title=" ">
<polygon fill="white" stroke="#666666" points="680.5,-610 540.5,-610 540.5,-580 680.5,-580 680.5,-610"/>
<text text-anchor="start" x="548.5" y="-598" font-family="Helvetica,sans-Serif" font-size="10.00">doris::segment_v2::</text>
<text text-anchor="middle" x="610.5" y="-587" font-family="Helvetica,sans-Serif" font-size="10.00">IndexedColumnReader::load</text>
</a>
</g>
</g>
<!-- Node24&#45;&gt;Node25 -->
<g id="edge30" class="edge">
<title>Node24&#45;&gt;Node25</title>
<path fill="none" stroke="#63b8ff" d="M729.75,-577.93C713.84,-580.22 696.9,-582.67 680.95,-584.97"/>
<polygon fill="#63b8ff" stroke="#63b8ff" points="730.23,-581.39 739.62,-576.5 729.23,-574.47 730.23,-581.39"/>
</g>
<!-- Node25&#45;&gt;Node5 -->
<g id="edge31" class="edge">
<title>Node25&#45;&gt;Node5</title>
<path fill="none" stroke="#63b8ff" d="M528.76,-595C511.19,-595 492.77,-595 475.77,-595"/>
<polygon fill="#63b8ff" stroke="#63b8ff" points="528.64,-598.5 538.64,-595 528.64,-591.5 528.64,-598.5"/>
</g>
<!-- Node27 -->
<g id="node27" class="node">
<title>Node27</title>
<g id="a_node27"><a xlink:href="../../d3/de9/classdoris_1_1_p_internal_service_impl.html#a0d1d9d99d0a1dc2341bb56bb0694e94f" target="_top" xlink:title=" ">
<polygon fill="white" stroke="#666666" points="677.5,-269 543.5,-269 543.5,-239 677.5,-239 677.5,-269"/>
<text text-anchor="start" x="551.5" y="-257" font-family="Helvetica,sans-Serif" font-size="10.00">doris::PInternalServiceImpl</text>
<text text-anchor="middle" x="610.5" y="-246" font-family="Helvetica,sans-Serif" font-size="10.00">::_multi_get</text>
</a>
</g>
</g>
<!-- Node26&#45;&gt;Node27 -->
<g id="edge33" class="edge">
<title>Node26&#45;&gt;Node27</title>
<path fill="none" stroke="#63b8ff" d="M745.32,-207.64C741.81,-209.07 738.35,-210.54 735,-212 718.61,-219.17 715.71,-223.6 699,-230 690.91,-233.1 682.26,-235.97 673.66,-238.58"/>
<polygon fill="#63b8ff" stroke="#63b8ff" points="746.51,-210.93 754.5,-203.97 743.91,-204.43 746.51,-210.93"/>
</g>
<!-- Node29 -->
<g id="node29" class="node">
<title>Node29</title>
<g id="a_node29"><a xlink:href="../../dd/dc6/classdoris_1_1vectorized_1_1_block_spill_writer.html#aa876d39e33285dbdad0a9930808e9ae5" target="_top" xlink:title=" ">
<polygon fill="white" stroke="#666666" points="669.5,-220.5 551.5,-220.5 551.5,-179.5 669.5,-179.5 669.5,-220.5"/>
<text text-anchor="start" x="559.5" y="-208.5" font-family="Helvetica,sans-Serif" font-size="10.00">doris::vectorized::</text>
<text text-anchor="start" x="559.5" y="-197.5" font-family="Helvetica,sans-Serif" font-size="10.00">BlockSpillWriter::_write</text>
<text text-anchor="middle" x="610.5" y="-186.5" font-family="Helvetica,sans-Serif" font-size="10.00">_internal</text>
</a>
</g>
</g>
<!-- Node26&#45;&gt;Node29 -->
<g id="edge35" class="edge">
<title>Node26&#45;&gt;Node29</title>
<path fill="none" stroke="#63b8ff" d="M740.41,-191.73C718.01,-193.17 692.43,-194.81 670,-196.25"/>
<polygon fill="#63b8ff" stroke="#63b8ff" points="740.53,-195.23 750.28,-191.09 740.08,-188.24 740.53,-195.23"/>
</g>
<!-- Node31 -->
<g id="node31" class="node">
<title>Node31</title>
<g id="a_node31"><a xlink:href="../../d5/d27/structdoris_1_1vectorized_1_1_aggregate_function_sort_data.html#a2005528f69d33c3a83b34aa6764b8fdc" target="_top" xlink:title=" ">
<polygon fill="white" stroke="#666666" points="679,-161.5 542,-161.5 542,-120.5 679,-120.5 679,-161.5"/>
<text text-anchor="start" x="550" y="-149.5" font-family="Helvetica,sans-Serif" font-size="10.00">doris::vectorized::</text>
<text text-anchor="start" x="550" y="-138.5" font-family="Helvetica,sans-Serif" font-size="10.00">AggregateFunctionSortData</text>
<text text-anchor="middle" x="610.5" y="-127.5" font-family="Helvetica,sans-Serif" font-size="10.00">::serialize</text>
</a>
</g>
</g>
<!-- Node26&#45;&gt;Node31 -->
<g id="edge37" class="edge">
<title>Node26&#45;&gt;Node31</title>
<path fill="none" stroke="#63b8ff" d="M740.7,-173.47C721.33,-168.6 699.56,-163.13 679.48,-158.09"/>
<polygon fill="#63b8ff" stroke="#63b8ff" points="739.77,-176.85 750.33,-175.89 741.48,-170.06 739.77,-176.85"/>
</g>
<!-- Node32 -->
<g id="node32" class="node">
<title>Node32</title>
<g id="a_node32"><a xlink:href="../../d3/dca/classdoris_1_1vectorized_1_1_v_data_stream_sender.html#adc0f1acee9a4c1683ddbc68e1c8feaa8" target="_top" xlink:title=" ">
<polygon fill="white" stroke="#666666" points="699,-102 522,-102 522,-72 699,-72 699,-102"/>
<text text-anchor="start" x="530" y="-90" font-family="Helvetica,sans-Serif" font-size="10.00">doris::vectorized::</text>
<text text-anchor="middle" x="610.5" y="-79" font-family="Helvetica,sans-Serif" font-size="10.00">VDataStreamSender::serialize_block</text>
</a>
</g>
</g>
<!-- Node26&#45;&gt;Node32 -->
<g id="edge38" class="edge">
<title>Node26&#45;&gt;Node32</title>
<path fill="none" stroke="#63b8ff" d="M774.6,-165.12C755.51,-147.98 727.34,-125.15 699,-111 692.52,-107.76 685.54,-104.91 678.45,-102.42"/>
<polygon fill="#63b8ff" stroke="#63b8ff" points="772.1,-167.57 781.83,-171.75 776.83,-162.41 772.1,-167.57"/>
</g>
<!-- Node28 -->
<g id="node28" class="node">
<title>Node28</title>
<g id="a_node28"><a xlink:href="../../d3/de9/classdoris_1_1_p_internal_service_impl.html#aa2464c261978751fd25b624bed06bee1" target="_top" xlink:title=" ">
<polygon fill="white" stroke="#666666" points="474,-269 340,-269 340,-239 474,-239 474,-269"/>
<text text-anchor="start" x="348" y="-257" font-family="Helvetica,sans-Serif" font-size="10.00">doris::PInternalServiceImpl</text>
<text text-anchor="middle" x="407" y="-246" font-family="Helvetica,sans-Serif" font-size="10.00">::multiget_data</text>
</a>
</g>
</g>
<!-- Node27&#45;&gt;Node28 -->
<g id="edge34" class="edge">
<title>Node27&#45;&gt;Node28</title>
<path fill="none" stroke="#63b8ff" d="M531.9,-254C512.89,-254 492.72,-254 474.3,-254"/>
<polygon fill="#63b8ff" stroke="#63b8ff" points="531.73,-257.5 541.73,-254 531.73,-250.5 531.73,-257.5"/>
</g>
<!-- Node30 -->
<g id="node30" class="node">
<title>Node30</title>
<g id="a_node30"><a xlink:href="../../dd/dc6/classdoris_1_1vectorized_1_1_block_spill_writer.html#a5e7166e0e9f0780bcd9ce6c09a0be095" target="_top" xlink:title=" ">
<polygon fill="white" stroke="#666666" points="463.5,-215 350.5,-215 350.5,-185 463.5,-185 463.5,-215"/>
<text text-anchor="start" x="358.5" y="-203" font-family="Helvetica,sans-Serif" font-size="10.00">doris::vectorized::</text>
<text text-anchor="middle" x="407" y="-192" font-family="Helvetica,sans-Serif" font-size="10.00">BlockSpillWriter::write</text>
</a>
</g>
</g>
<!-- Node29&#45;&gt;Node30 -->
<g id="edge36" class="edge">
<title>Node29&#45;&gt;Node30</title>
<path fill="none" stroke="#63b8ff" d="M539.99,-200C515.07,-200 487.33,-200 463.73,-200"/>
<polygon fill="#63b8ff" stroke="#63b8ff" points="539.7,-203.5 549.7,-200 539.7,-196.5 539.7,-203.5"/>
</g>
<!-- Node33 -->
<g id="node33" class="node">
<title>Node33</title>
<g id="a_node33"><a xlink:href="../../d3/dca/classdoris_1_1vectorized_1_1_v_data_stream_sender.html#ae6e28a41372229bdbf6076675d85615d" target="_top" xlink:title=" ">
<polygon fill="white" stroke="#666666" points="474,-102 340,-102 340,-72 474,-72 474,-102"/>
<text text-anchor="start" x="348" y="-90" font-family="Helvetica,sans-Serif" font-size="10.00">doris::vectorized::</text>
<text text-anchor="middle" x="407" y="-79" font-family="Helvetica,sans-Serif" font-size="10.00">VDataStreamSender::send</text>
</a>
</g>
</g>
<!-- Node32&#45;&gt;Node33 -->
<g id="edge39" class="edge">
<title>Node32&#45;&gt;Node33</title>
<path fill="none" stroke="#63b8ff" d="M510.47,-87C498.2,-87 485.9,-87 474.29,-87"/>
<polygon fill="#63b8ff" stroke="#63b8ff" points="510.19,-90.5 520.19,-87 510.19,-83.5 510.19,-90.5"/>
</g>
<!-- Node34 -->
<g id="node34" class="node">
<title>Node34</title>
<g id="a_node34"><a xlink:href="../../d9/d08/classdoris_1_1vectorized_1_1_channel.html#a2b293ca3505c879c10f473314a8cffdb" target="_top" xlink:title=" ">
<polygon fill="white" stroke="#666666" points="478.5,-54 335.5,-54 335.5,-24 478.5,-24 478.5,-54"/>
<text text-anchor="start" x="343.5" y="-42" font-family="Helvetica,sans-Serif" font-size="10.00">doris::vectorized::</text>
<text text-anchor="middle" x="407" y="-31" font-family="Helvetica,sans-Serif" font-size="10.00">Channel::send_current_block</text>
</a>
</g>
</g>
<!-- Node32&#45;&gt;Node34 -->
<g id="edge40" class="edge">
<title>Node32&#45;&gt;Node34</title>
<path fill="none" stroke="#63b8ff" d="M533.66,-68.93C513.61,-64.16 492.15,-59.05 472.74,-54.42"/>
<polygon fill="#63b8ff" stroke="#63b8ff" points="532.62,-72.28 543.16,-71.2 534.25,-65.48 532.62,-72.28"/>
</g>
<!-- Node38 -->
<g id="node38" class="node">
<title>Node38</title>
<g id="a_node38"><a xlink:href="../../da/d7b/classdoris_1_1vectorized_1_1_pip_channel.html#a68ad42171b2669c2525ceacbbcd0c21d" target="_top" xlink:title=" ">
<polygon fill="white" stroke="#666666" points="486,-150 328,-150 328,-120 486,-120 486,-150"/>
<text text-anchor="start" x="336" y="-138" font-family="Helvetica,sans-Serif" font-size="10.00">doris::vectorized::</text>
<text text-anchor="middle" x="407" y="-127" font-family="Helvetica,sans-Serif" font-size="10.00">PipChannel::send_current_block</text>
</a>
</g>
</g>
<!-- Node32&#45;&gt;Node38 -->
<g id="edge44" class="edge">
<title>Node32&#45;&gt;Node38</title>
<path fill="none" stroke="#63b8ff" d="M533.66,-105.07C513.61,-109.84 492.15,-114.95 472.74,-119.58"/>
<polygon fill="#63b8ff" stroke="#63b8ff" points="534.25,-108.52 543.16,-102.8 532.62,-101.72 534.25,-108.52"/>
</g>
<!-- Node35 -->
<g id="node35" class="node">
<title>Node35</title>
<g id="a_node35"><a xlink:href="../../d9/d08/classdoris_1_1vectorized_1_1_channel.html#a48c290ba2be0c5b3eb2c771cb5b92f0f" target="_top" xlink:title=" ">
<polygon fill="white" stroke="#666666" points="283,-78 182,-78 182,-48 283,-48 283,-78"/>
<text text-anchor="start" x="190" y="-66" font-family="Helvetica,sans-Serif" font-size="10.00">doris::vectorized::</text>
<text text-anchor="middle" x="232.5" y="-55" font-family="Helvetica,sans-Serif" font-size="10.00">Channel::add_rows</text>
</a>
</g>
</g>
<!-- Node34&#45;&gt;Node35 -->
<g id="edge41" class="edge">
<title>Node34&#45;&gt;Node35</title>
<path fill="none" stroke="#63b8ff" d="M324.24,-50.38C310.32,-52.31 296.25,-54.27 283.48,-56.05"/>
<polygon fill="#63b8ff" stroke="#63b8ff" points="324.42,-53.88 333.84,-49.04 323.45,-46.95 324.42,-53.88"/>
</g>
<!-- Node36 -->
<g id="node36" class="node">
<title>Node36</title>
<g id="a_node36"><a xlink:href="../../d9/d08/classdoris_1_1vectorized_1_1_channel.html#a13d55729866c5017614abb0de589237d" target="_top" xlink:title=" ">
<polygon fill="white" stroke="#666666" points="292,-30 173,-30 173,0 292,0 292,-30"/>
<text text-anchor="start" x="181" y="-18" font-family="Helvetica,sans-Serif" font-size="10.00">doris::vectorized::</text>
<text text-anchor="middle" x="232.5" y="-7" font-family="Helvetica,sans-Serif" font-size="10.00">Channel::close_internal</text>
</a>
</g>
</g>
<!-- Node34&#45;&gt;Node36 -->
<g id="edge42" class="edge">
<title>Node34&#45;&gt;Node36</title>
<path fill="none" stroke="#63b8ff" d="M324.24,-27.62C313.53,-26.13 302.73,-24.63 292.5,-23.21"/>
<polygon fill="#63b8ff" stroke="#63b8ff" points="323.45,-31.05 333.84,-28.96 324.42,-24.12 323.45,-31.05"/>
</g>
<!-- Node37 -->
<g id="node37" class="node">
<title>Node37</title>
<g id="a_node37"><a xlink:href="../../d9/d08/classdoris_1_1vectorized_1_1_channel.html#a4cd0274c89d380200b7a409715948fc3" target="_top" xlink:title=" ">
<polygon fill="white" stroke="#666666" points="116,-30 21,-30 21,0 116,0 116,-30"/>
<text text-anchor="start" x="29" y="-18" font-family="Helvetica,sans-Serif" font-size="10.00">doris::vectorized::</text>
<text text-anchor="middle" x="68.5" y="-7" font-family="Helvetica,sans-Serif" font-size="10.00">Channel::close</text>
</a>
</g>
</g>
<!-- Node36&#45;&gt;Node37 -->
<g id="edge43" class="edge">
<title>Node36&#45;&gt;Node37</title>
<path fill="none" stroke="#63b8ff" d="M161.14,-15C146.04,-15 130.43,-15 116.48,-15"/>
<polygon fill="#63b8ff" stroke="#63b8ff" points="161.04,-18.5 171.04,-15 161.04,-11.5 161.04,-18.5"/>
</g>
</g>
</svg>
        <g id="navigator" transform="translate(0 0)" fill="#404254">
                <rect fill="#f2f5e9" fill-opacity="0.5" stroke="#606060" stroke-width=".5" x="0" y="0" width="60" height="60"/>
                <use id="zoomplus" xlink:href="#zoomPlus" x="17" y="9" onmousedown="handleZoom(evt,'in')"/>
                <use id="zoomminus" xlink:href="#zoomMin" x="42" y="9" onmousedown="handleZoom(evt,'out')"/>
                <use id="reset" xlink:href="#resetDef" x="30" y="36" onmousedown="handleReset()"/>
                <g id="arrowUp" xlink:href="#dirArrow" transform="translate(30 24)" onmousedown="handlePan(0,-1)">
                  <use xlink:href="#rim" fill="#404040">
                        <set attributeName="fill" to="#808080" begin="arrowUp.mouseover" end="arrowUp.mouseout"/>
                  </use>
                  <path fill="none" stroke="white" stroke-width="1.5" d="M0,-3.0v7 M-2.5,-0.5L0,-3.0L2.5,-0.5"/>
                </g>
                <g id="arrowRight" xlink:href="#dirArrow" transform="rotate(90) translate(36 -43)" onmousedown="handlePan(1,0)">
                  <use xlink:href="#rim" fill="#404040">
                        <set attributeName="fill" to="#808080" begin="arrowRight.mouseover" end="arrowRight.mouseout"/>
                  </use>
                  <path fill="none" stroke="white" stroke-width="1.5" d="M0,-3.0v7 M-2.5,-0.5L0,-3.0L2.5,-0.5"/>
                </g>
                <g id="arrowDown" xlink:href="#dirArrow" transform="rotate(180) translate(-30 -48)" onmousedown="handlePan(0,1)">
                  <use xlink:href="#rim" fill="#404040">
                        <set attributeName="fill" to="#808080" begin="arrowDown.mouseover" end="arrowDown.mouseout"/>
                  </use>
                  <path fill="none" stroke="white" stroke-width="1.5" d="M0,-3.0v7 M-2.5,-0.5L0,-3.0L2.5,-0.5"/>
                </g>
                <g id="arrowLeft" xlink:href="#dirArrow" transform="rotate(270) translate(-36 17)" onmousedown="handlePan(-1,0)">
                  <use xlink:href="#rim" fill="#404040">
                        <set attributeName="fill" to="#808080" begin="arrowLeft.mouseover" end="arrowLeft.mouseout"/>
                  </use>
                  <path fill="none" stroke="white" stroke-width="1.5" d="M0,-3.0v7 M-2.5,-0.5L0,-3.0L2.5,-0.5"/>
                </g>
        </g>
        <svg viewBox="0 0 15 15" width="100%" height="30px" preserveAspectRatio="xMaxYMin meet">
         <g id="arrow_out" transform="scale(0.3 0.3)">
          <a xlink:href="classdoris_1_1_lz4_block_compression_ac6ba2b6440e0ac03d9bf82bce44c34d7_icgraph_org.svg" target="_base">
           <rect id="button" ry="5" rx="5" y="6" x="6" height="38" width="38"
                fill="#f2f5e9" fill-opacity="0.5" stroke="#606060" stroke-width="1.0"/>
           <path id="arrow"
             d="M 11.500037,31.436501 C 11.940474,20.09759 22.043105,11.32322 32.158766,21.979434 L 37.068811,17.246167 C 37.068811,17.246167 37.088388,32 37.088388,32 L 22.160133,31.978069 C 22.160133,31.978069 26.997745,27.140456 26.997745,27.140456 C 18.528582,18.264221 13.291696,25.230495 11.500037,31.436501 z"
             style="fill:#404040;"/>
          </a>
         </g>
        </svg>
</svg>
