<?xml version="1.0" encoding="UTF-8" standalone="no"?>
<!DOCTYPE svg PUBLIC "-//W3C//DTD SVG 1.1//EN"
 "http://www.w3.org/Graphics/SVG/1.1/DTD/svg11.dtd">
<!-- Generated by graphviz version 7.1.0 (20230121.1956)
 -->
<!-- Title: try_take_unprotected Pages: 1 -->
<svg width="287pt" height="98pt"
 viewBox="0.00 0.00 287.00 97.50" xmlns="http://www.w3.org/2000/svg" xmlns:xlink="http://www.w3.org/1999/xlink">
<g id="graph0" class="graph" transform="scale(1 1) rotate(0) translate(4 93.5)">
<title>try_take_unprotected</title>
<!-- Node1 -->
<g id="node1" class="node">
<title>Node1</title>
<g id="a_node1"><a xlink:title=" ">
<polygon fill="#999999" stroke="#666666" points="108,-51.5 0,-51.5 0,-32.5 108,-32.5 108,-51.5"/>
<text text-anchor="middle" x="54" y="-39.5" font-family="Helvetica,sans-Serif" font-size="10.00">try_take_unprotected</text>
</a>
</g>
</g>
<!-- Node2 -->
<g id="node2" class="node">
<title>Node2</title>
<g id="a_node2"><a xlink:href="../../da/d6e/classdoris_1_1pipeline_1_1_sub_work_task_queue.html#af393495fc49b31c85b14a42e8ed3b3cb" target="_top" xlink:title=" ">
<polygon fill="white" stroke="#666666" points="279,-89.5 144,-89.5 144,-48.5 279,-48.5 279,-89.5"/>
<text text-anchor="start" x="152" y="-77.5" font-family="Helvetica,sans-Serif" font-size="10.00">doris::pipeline::SubWork</text>
<text text-anchor="start" x="152" y="-66.5" font-family="Helvetica,sans-Serif" font-size="10.00">TaskQueue::schedule_time</text>
<text text-anchor="middle" x="211.5" y="-55.5" font-family="Helvetica,sans-Serif" font-size="10.00">_after_normal</text>
</a>
</g>
</g>
<!-- Node1&#45;&gt;Node2 -->
<g id="edge1" class="edge">
<title>Node1&#45;&gt;Node2</title>
<path fill="none" stroke="#63b8ff" d="M108.08,-51.22C115.94,-52.58 124.18,-54.01 132.43,-55.44"/>
<polygon fill="#63b8ff" stroke="#63b8ff" points="131.69,-58.87 142.14,-57.13 132.89,-51.97 131.69,-58.87"/>
</g>
<!-- Node3 -->
<g id="node3" class="node">
<title>Node3</title>
<g id="a_node3"><a xlink:href="../../da/d6e/classdoris_1_1pipeline_1_1_sub_work_task_queue.html#a59a4e1432f978a51e6034683c1767d79" target="_top" xlink:title=" ">
<polygon fill="white" stroke="#666666" points="272.5,-30 150.5,-30 150.5,0 272.5,0 272.5,-30"/>
<text text-anchor="start" x="158.5" y="-18" font-family="Helvetica,sans-Serif" font-size="10.00">doris::pipeline::SubWork</text>
<text text-anchor="middle" x="211.5" y="-7" font-family="Helvetica,sans-Serif" font-size="10.00">TaskQueue::try_take</text>
</a>
</g>
</g>
<!-- Node1&#45;&gt;Node3 -->
<g id="edge2" class="edge">
<title>Node1&#45;&gt;Node3</title>
<path fill="none" stroke="#63b8ff" d="M108.08,-32.78C118.03,-31.06 128.58,-29.22 138.98,-27.42"/>
<polygon fill="#63b8ff" stroke="#63b8ff" points="139.43,-30.89 148.68,-25.73 138.23,-24 139.43,-30.89"/>
</g>
</g>
</svg>
