<?xml version="1.0" encoding="UTF-8" standalone="no"?>
<!DOCTYPE svg PUBLIC "-//W3C//DTD SVG 1.1//EN"
 "http://www.w3.org/Graphics/SVG/1.1/DTD/svg11.dtd">
<!-- Generated by graphviz version 7.1.0 (20230121.1956)
 -->
<!-- Title: in_restore_mode Pages: 1 -->
<!--zoomable 318 -->
<svg id="main" version="1.1" xmlns="http://www.w3.org/2000/svg" xmlns:xlink="http://www.w3.org/1999/xlink" xml:space="preserve" onload="init(evt)">
<style type="text/css"><![CDATA[
.edge:hover path { stroke: red; }
.edge:hover polygon { stroke: red; fill: red; }
]]></style>
<script type="text/javascript"><![CDATA[
var edges = document.getElementsByTagName('g');
if (edges && edges.length) {
  for (var i=0;i<edges.length;i++) {
    if (edges[i].id.substr(0,4)=='edge') {
      edges[i].setAttribute('class','edge');
    }
  }
}
]]></script>
        <defs>
                <circle id="rim" cx="0" cy="0" r="7"/>
                <circle id="rim2" cx="0" cy="0" r="3.5"/>
                <g id="zoomPlus">
                        <use xlink:href="#rim" fill="#404040">
                                <set attributeName="fill" to="#808080" begin="zoomplus.mouseover" end="zoomplus.mouseout"/>
                        </use>
                        <path d="M-4,0h8M0,-4v8" fill="none" stroke="white" stroke-width="1.5" pointer-events="none"/>
                </g>
                <g id="zoomMin">
                        <use xlink:href="#rim" fill="#404040">
                                <set attributeName="fill" to="#808080" begin="zoomminus.mouseover" end="zoomminus.mouseout"/>
                        </use>
                        <path d="M-4,0h8" fill="none" stroke="white" stroke-width="1.5" pointer-events="none"/>
                </g>
                <g id="dirArrow">
                        <path fill="none" stroke="white" stroke-width="1.5" d="M0,-3.0v7 M-2.5,-0.5L0,-3.0L2.5,-0.5"/>
                </g>
               <g id="resetDef">
                       <use xlink:href="#rim2" fill="#404040">
                               <set attributeName="fill" to="#808080" begin="reset.mouseover" end="reset.mouseout"/>
                       </use>
               </g>
        </defs>

<script type="text/javascript">
var viewWidth = 1298;
var viewHeight = 318;
var sectionId = 'dynsection-40';
</script>
<script xlink:href="../../svgpan.js"/>
<svg id="graph" class="graph">
<g id="viewport">
<title>in_restore_mode</title>
<!-- Node1 -->
<g id="node1" class="node">
<title>Node1</title>
<g id="a_node1"><a xlink:title=" ">
<polygon fill="#999999" stroke="#666666" points="1290,-111 1201,-111 1201,-92 1290,-92 1290,-111"/>
<text text-anchor="middle" x="1245.5" y="-99" font-family="Helvetica,sans-Serif" font-size="10.00">in_restore_mode</text>
</a>
</g>
</g>
<!-- Node2 -->
<g id="node2" class="node">
<title>Node2</title>
<g id="a_node2"><a xlink:href="../../d9/da4/classdoris_1_1_tablet_meta.html#a02f7f26fd6cd52b1c7ffa6573bed557d" target="_top" xlink:title=" ">
<polygon fill="white" stroke="#666666" points="1165,-130 1058,-130 1058,-111 1165,-111 1165,-130"/>
<text text-anchor="middle" x="1111.5" y="-118" font-family="Helvetica,sans-Serif" font-size="10.00">set_in_restore_mode</text>
</a>
</g>
</g>
<!-- Node1&#45;&gt;Node2 -->
<g id="edge1" class="edge">
<title>Node1&#45;&gt;Node2</title>
<path fill="none" stroke="#63b8ff" d="M1189.21,-109.46C1181.34,-110.59 1173.26,-111.75 1165.43,-112.88"/>
<polygon fill="#63b8ff" stroke="#63b8ff" points="1189.65,-112.93 1199.05,-108.04 1188.65,-106 1189.65,-112.93"/>
</g>
<!-- Node3 -->
<g id="node3" class="node">
<title>Node3</title>
<g id="a_node3"><a xlink:href="../../d9/da4/classdoris_1_1_tablet_meta.html#a4c54c7366851520102964f62a6232f9a" target="_top" xlink:title=" ">
<polygon fill="white" stroke="#666666" points="1145.5,-93 1077.5,-93 1077.5,-74 1145.5,-74 1145.5,-93"/>
<text text-anchor="middle" x="1111.5" y="-81" font-family="Helvetica,sans-Serif" font-size="10.00">to_meta_pb</text>
</a>
</g>
</g>
<!-- Node1&#45;&gt;Node3 -->
<g id="edge2" class="edge">
<title>Node1&#45;&gt;Node3</title>
<path fill="none" stroke="#63b8ff" d="M1189.42,-93.99C1174.61,-91.97 1159.05,-89.85 1145.82,-88.04"/>
<polygon fill="#63b8ff" stroke="#63b8ff" points="1188.67,-97.42 1199.05,-95.3 1189.61,-90.48 1188.67,-97.42"/>
</g>
<!-- Node4 -->
<g id="node4" class="node">
<title>Node4</title>
<g id="a_node4"><a xlink:href="../../d0/d6c/classdoris_1_1_snapshot_manager.html#a7bd302e7908ed82b98499967e3993cb2" target="_top" xlink:title=" ">
<polygon fill="white" stroke="#666666" points="1022,-236.5 900,-236.5 900,-206.5 1022,-206.5 1022,-236.5"/>
<text text-anchor="start" x="908" y="-224.5" font-family="Helvetica,sans-Serif" font-size="10.00">doris::SnapshotManager</text>
<text text-anchor="middle" x="961" y="-213.5" font-family="Helvetica,sans-Serif" font-size="10.00">::convert_rowset_ids</text>
</a>
</g>
</g>
<!-- Node3&#45;&gt;Node4 -->
<g id="edge3" class="edge">
<title>Node3&#45;&gt;Node4</title>
<path fill="none" stroke="#63b8ff" d="M1066.84,-96.47C1063.69,-98.24 1060.7,-100.24 1058,-102.5 1033.55,-122.93 1041.75,-139.5 1022,-164.5 1009.8,-179.95 993.47,-195.18 980.93,-206.01"/>
<polygon fill="#63b8ff" stroke="#63b8ff" points="1068.32,-99.65 1075.88,-92.22 1065.34,-93.31 1068.32,-99.65"/>
</g>
<!-- Node15 -->
<g id="node15" class="node">
<title>Node15</title>
<g id="a_node15"><a xlink:href="../../d9/da4/classdoris_1_1_tablet_meta.html#a83204868b355a6fe1a01ef5a18217274" target="_top" xlink:title=" ">
<polygon fill="white" stroke="#666666" points="1004,-155 918,-155 918,-136 1004,-136 1004,-155"/>
<text text-anchor="middle" x="961" y="-143" font-family="Helvetica,sans-Serif" font-size="10.00">reset_tablet_uid</text>
</a>
</g>
</g>
<!-- Node3&#45;&gt;Node15 -->
<g id="edge14" class="edge">
<title>Node3&#45;&gt;Node15</title>
<path fill="none" stroke="#63b8ff" d="M1070.96,-97.45C1066.57,-99.11 1062.18,-100.81 1058,-102.5 1031.76,-113.11 1002.1,-126.63 982.78,-135.66"/>
<polygon fill="#63b8ff" stroke="#63b8ff" points="1072.16,-100.74 1080.32,-94 1069.73,-94.18 1072.16,-100.74"/>
</g>
<!-- Node17 -->
<g id="node17" class="node">
<title>Node17</title>
<g id="a_node17"><a xlink:href="../../d9/da4/classdoris_1_1_tablet_meta.html#ab9e7de1793de70042f13603d70f435cf" target="_top" xlink:title=" ">
<polygon fill="white" stroke="#666666" points="987.5,-93 934.5,-93 934.5,-74 987.5,-74 987.5,-93"/>
<text text-anchor="middle" x="961" y="-81" font-family="Helvetica,sans-Serif" font-size="10.00">serialize</text>
</a>
</g>
</g>
<!-- Node3&#45;&gt;Node17 -->
<g id="edge19" class="edge">
<title>Node3&#45;&gt;Node17</title>
<path fill="none" stroke="#63b8ff" d="M1065.91,-83.5C1040.41,-83.5 1009.32,-83.5 987.83,-83.5"/>
<polygon fill="#63b8ff" stroke="#63b8ff" points="1065.66,-87 1075.66,-83.5 1065.66,-80 1065.66,-87"/>
</g>
<!-- Node20 -->
<g id="node20" class="node">
<title>Node20</title>
<g id="a_node20"><a xlink:href="../../d7/d8f/meta__tool_8cpp.html#a222fc0ebd9411a28f35508ba4c7219a1" target="_top" xlink:title=" ">
<polygon fill="white" stroke="#666666" points="994.5,-56 927.5,-56 927.5,-37 994.5,-37 994.5,-56"/>
<text text-anchor="middle" x="961" y="-44" font-family="Helvetica,sans-Serif" font-size="10.00">show_meta</text>
</a>
</g>
</g>
<!-- Node3&#45;&gt;Node20 -->
<g id="edge22" class="edge">
<title>Node3&#45;&gt;Node20</title>
<path fill="none" stroke="#63b8ff" d="M1066.04,-72.42C1043.21,-66.73 1015.88,-59.92 994.96,-54.71"/>
<polygon fill="#63b8ff" stroke="#63b8ff" points="1065.16,-75.81 1075.71,-74.83 1066.85,-69.02 1065.16,-75.81"/>
</g>
<!-- Node22 -->
<g id="node22" class="node">
<title>Node22</title>
<g id="a_node22"><a xlink:href="../../d9/da4/classdoris_1_1_tablet_meta.html#aeee4d3644c499ec2fe8bd95519022642" target="_top" xlink:title=" ">
<polygon fill="white" stroke="#666666" points="985,-19 937,-19 937,0 985,0 985,-19"/>
<text text-anchor="middle" x="961" y="-7" font-family="Helvetica,sans-Serif" font-size="10.00">to_json</text>
</a>
</g>
</g>
<!-- Node3&#45;&gt;Node22 -->
<g id="edge24" class="edge">
<title>Node3&#45;&gt;Node22</title>
<path fill="none" stroke="#63b8ff" d="M1088.1,-66.9C1070.77,-54.67 1045.79,-38.35 1022,-27.5 1010.32,-22.18 996.66,-17.94 985.33,-14.91"/>
<polygon fill="#63b8ff" stroke="#63b8ff" points="1085.97,-69.68 1096.13,-72.68 1090.05,-64 1085.97,-69.68"/>
</g>
<!-- Node5 -->
<g id="node5" class="node">
<title>Node5</title>
<g id="a_node5"><a xlink:href="../../d7/d96/classdoris_1_1_engine_storage_migration_task.html#a0f17c9ab35b0b626bae7620af32075b8" target="_top" xlink:title=" ">
<polygon fill="white" stroke="#666666" points="852.5,-191 705.5,-191 705.5,-150 852.5,-150 852.5,-191"/>
<text text-anchor="start" x="713.5" y="-179" font-family="Helvetica,sans-Serif" font-size="10.00">doris::EngineStorageMigration</text>
<text text-anchor="start" x="713.5" y="-168" font-family="Helvetica,sans-Serif" font-size="10.00">Task::_gen_and_write_header</text>
<text text-anchor="middle" x="779" y="-157" font-family="Helvetica,sans-Serif" font-size="10.00">_to_hdr_file</text>
</a>
</g>
</g>
<!-- Node4&#45;&gt;Node5 -->
<g id="edge4" class="edge">
<title>Node4&#45;&gt;Node5</title>
<path fill="none" stroke="#63b8ff" d="M894.8,-203.03C881.2,-199.17 866.78,-195.09 852.92,-191.16"/>
<polygon fill="#63b8ff" stroke="#63b8ff" points="893.47,-206.29 904.05,-205.65 895.38,-199.55 893.47,-206.29"/>
</g>
<!-- Node8 -->
<g id="node8" class="node">
<title>Node8</title>
<g id="a_node8"><a xlink:href="../../de/d98/classdoris_1_1_engine_clone_task.html#a8119328099f87bea23d87bcff75acd7e" target="_top" xlink:title=" ">
<polygon fill="white" stroke="#666666" points="864,-287.5 694,-287.5 694,-257.5 864,-257.5 864,-287.5"/>
<text text-anchor="start" x="702" y="-275.5" font-family="Helvetica,sans-Serif" font-size="10.00">doris::EngineCloneTask</text>
<text text-anchor="middle" x="779" y="-264.5" font-family="Helvetica,sans-Serif" font-size="10.00">::_make_and_download_snapshots</text>
</a>
</g>
</g>
<!-- Node4&#45;&gt;Node8 -->
<g id="edge7" class="edge">
<title>Node4&#45;&gt;Node8</title>
<path fill="none" stroke="#63b8ff" d="M894.48,-240.07C874.82,-245.63 853.49,-251.68 834.62,-257.02"/>
<polygon fill="#63b8ff" stroke="#63b8ff" points="895.38,-243.45 904.05,-237.35 893.47,-236.71 895.38,-243.45"/>
</g>
<!-- Node11 -->
<g id="node11" class="node">
<title>Node11</title>
<g id="a_node11"><a xlink:href="../../d1/d98/classdoris_1_1_snapshot_loader.html#a11995982f429dbbf1d26527360331ad0" target="_top" xlink:title=" ">
<polygon fill="white" stroke="#666666" points="641.5,-284.5 527.5,-284.5 527.5,-254.5 641.5,-254.5 641.5,-284.5"/>
<text text-anchor="start" x="535.5" y="-272.5" font-family="Helvetica,sans-Serif" font-size="10.00">doris::SnapshotLoader</text>
<text text-anchor="middle" x="584.5" y="-261.5" font-family="Helvetica,sans-Serif" font-size="10.00">::move</text>
</a>
</g>
</g>
<!-- Node4&#45;&gt;Node11 -->
<g id="edge10" class="edge">
<title>Node4&#45;&gt;Node11</title>
<path fill="none" stroke="#63b8ff" d="M939.07,-244.74C921.17,-262.74 893.65,-286.29 864,-296.5 784.77,-323.78 685.86,-302.04 629.77,-284.95"/>
<polygon fill="#63b8ff" stroke="#63b8ff" points="941.13,-247.64 945.54,-238.01 936.08,-242.79 941.13,-247.64"/>
</g>
<!-- Node6 -->
<g id="node6" class="node">
<title>Node6</title>
<g id="a_node6"><a xlink:href="../../d7/d96/classdoris_1_1_engine_storage_migration_task.html#a368a49478355d8a5cc981c86799e06e8" target="_top" xlink:title=" ">
<polygon fill="white" stroke="#666666" points="658,-187.5 511,-187.5 511,-157.5 658,-157.5 658,-187.5"/>
<text text-anchor="start" x="519" y="-175.5" font-family="Helvetica,sans-Serif" font-size="10.00">doris::EngineStorageMigration</text>
<text text-anchor="middle" x="584.5" y="-164.5" font-family="Helvetica,sans-Serif" font-size="10.00">Task::_migrate</text>
</a>
</g>
</g>
<!-- Node5&#45;&gt;Node6 -->
<g id="edge5" class="edge">
<title>Node5&#45;&gt;Node6</title>
<path fill="none" stroke="#63b8ff" d="M693.96,-171.37C682.11,-171.5 670,-171.62 658.38,-171.74"/>
<polygon fill="#63b8ff" stroke="#63b8ff" points="693.75,-174.88 703.71,-171.27 693.67,-167.88 693.75,-174.88"/>
</g>
<!-- Node7 -->
<g id="node7" class="node">
<title>Node7</title>
<g id="a_node7"><a xlink:href="../../d7/d96/classdoris_1_1_engine_storage_migration_task.html#a288fb86e2f2bfd41128d4766a01cebad" target="_top" xlink:title=" ">
<polygon fill="white" stroke="#666666" points="475,-187.5 328,-187.5 328,-157.5 475,-157.5 475,-187.5"/>
<text text-anchor="start" x="336" y="-175.5" font-family="Helvetica,sans-Serif" font-size="10.00">doris::EngineStorageMigration</text>
<text text-anchor="middle" x="401.5" y="-164.5" font-family="Helvetica,sans-Serif" font-size="10.00">Task::execute</text>
</a>
</g>
</g>
<!-- Node6&#45;&gt;Node7 -->
<g id="edge6" class="edge">
<title>Node6&#45;&gt;Node7</title>
<path fill="none" stroke="#63b8ff" d="M499.15,-172.5C491.24,-172.5 483.27,-172.5 475.48,-172.5"/>
<polygon fill="#63b8ff" stroke="#63b8ff" points="499.15,-176 509.15,-172.5 499.15,-169 499.15,-176"/>
</g>
<!-- Node9 -->
<g id="node9" class="node">
<title>Node9</title>
<g id="a_node9"><a xlink:href="../../de/d98/classdoris_1_1_engine_clone_task.html#ad62d5a677bae76abee7b6a94a9b62a94" target="_top" xlink:title=" ">
<polygon fill="white" stroke="#666666" points="644.5,-139.5 524.5,-139.5 524.5,-109.5 644.5,-109.5 644.5,-139.5"/>
<text text-anchor="start" x="532.5" y="-127.5" font-family="Helvetica,sans-Serif" font-size="10.00">doris::EngineCloneTask</text>
<text text-anchor="middle" x="584.5" y="-116.5" font-family="Helvetica,sans-Serif" font-size="10.00">::_do_clone</text>
</a>
</g>
</g>
<!-- Node8&#45;&gt;Node9 -->
<g id="edge8" class="edge">
<title>Node8&#45;&gt;Node9</title>
<path fill="none" stroke="#63b8ff" d="M696.39,-250.61C695.57,-249.93 694.78,-249.23 694,-248.5 659.49,-216.24 691.83,-181.47 658,-148.5 654.11,-144.71 649.6,-141.51 644.78,-138.82"/>
<polygon fill="#63b8ff" stroke="#63b8ff" points="694.31,-253.43 704.51,-256.28 698.31,-247.69 694.31,-253.43"/>
</g>
<!-- Node10 -->
<g id="node10" class="node">
<title>Node10</title>
<g id="a_node10"><a xlink:href="../../de/d98/classdoris_1_1_engine_clone_task.html#a288fb86e2f2bfd41128d4766a01cebad" target="_top" xlink:title=" ">
<polygon fill="white" stroke="#666666" points="461.5,-139.5 341.5,-139.5 341.5,-109.5 461.5,-109.5 461.5,-139.5"/>
<text text-anchor="start" x="349.5" y="-127.5" font-family="Helvetica,sans-Serif" font-size="10.00">doris::EngineCloneTask</text>
<text text-anchor="middle" x="401.5" y="-116.5" font-family="Helvetica,sans-Serif" font-size="10.00">::execute</text>
</a>
</g>
</g>
<!-- Node9&#45;&gt;Node10 -->
<g id="edge9" class="edge">
<title>Node9&#45;&gt;Node10</title>
<path fill="none" stroke="#63b8ff" d="M512.77,-124.5C495.94,-124.5 478.16,-124.5 461.9,-124.5"/>
<polygon fill="#63b8ff" stroke="#63b8ff" points="512.72,-128 522.72,-124.5 512.72,-121 512.72,-128"/>
</g>
<!-- Node12 -->
<g id="node12" class="node">
<title>Node12</title>
<g id="a_node12"><a xlink:href="../../d0/db3/classdoris_1_1_task_worker_pool.html#acf3ffe9414705981f26aabd636764f53" target="_top" xlink:title=" ">
<polygon fill="white" stroke="#666666" points="459,-284.5 344,-284.5 344,-254.5 459,-254.5 459,-284.5"/>
<text text-anchor="start" x="352" y="-272.5" font-family="Helvetica,sans-Serif" font-size="10.00">doris::TaskWorkerPool</text>
<text text-anchor="middle" x="401.5" y="-261.5" font-family="Helvetica,sans-Serif" font-size="10.00">::_move_dir</text>
</a>
</g>
</g>
<!-- Node11&#45;&gt;Node12 -->
<g id="edge11" class="edge">
<title>Node11&#45;&gt;Node12</title>
<path fill="none" stroke="#63b8ff" d="M515.85,-269.5C497.26,-269.5 477.29,-269.5 459.37,-269.5"/>
<polygon fill="#63b8ff" stroke="#63b8ff" points="515.71,-273 525.71,-269.5 515.71,-266 515.71,-273"/>
</g>
<!-- Node13 -->
<g id="node13" class="node">
<title>Node13</title>
<g id="a_node13"><a xlink:href="../../d0/db3/classdoris_1_1_task_worker_pool.html#a092995680e055ac5c20348fe361424b7" target="_top" xlink:title=" ">
<polygon fill="white" stroke="#666666" points="292,-284.5 151,-284.5 151,-254.5 292,-254.5 292,-284.5"/>
<text text-anchor="start" x="159" y="-272.5" font-family="Helvetica,sans-Serif" font-size="10.00">doris::TaskWorkerPool</text>
<text text-anchor="middle" x="221.5" y="-261.5" font-family="Helvetica,sans-Serif" font-size="10.00">::_move_dir_thread_callback</text>
</a>
</g>
</g>
<!-- Node12&#45;&gt;Node13 -->
<g id="edge12" class="edge">
<title>Node12&#45;&gt;Node13</title>
<path fill="none" stroke="#63b8ff" d="M332.4,-269.5C319.33,-269.5 305.63,-269.5 292.5,-269.5"/>
<polygon fill="#63b8ff" stroke="#63b8ff" points="332.18,-273 342.18,-269.5 332.18,-266 332.18,-273"/>
</g>
<!-- Node14 -->
<g id="node14" class="node">
<title>Node14</title>
<g id="a_node14"><a xlink:href="../../d0/db3/classdoris_1_1_task_worker_pool.html#a60de64d75454385b23995437f1d72669" target="_top" xlink:title=" ">
<polygon fill="white" stroke="#666666" points="115,-284.5 0,-284.5 0,-254.5 115,-254.5 115,-284.5"/>
<text text-anchor="start" x="8" y="-272.5" font-family="Helvetica,sans-Serif" font-size="10.00">doris::TaskWorkerPool</text>
<text text-anchor="middle" x="57.5" y="-261.5" font-family="Helvetica,sans-Serif" font-size="10.00">::start</text>
</a>
</g>
</g>
<!-- Node13&#45;&gt;Node14 -->
<g id="edge13" class="edge">
<title>Node13&#45;&gt;Node14</title>
<path fill="none" stroke="#63b8ff" d="M139.42,-269.5C131.3,-269.5 123.19,-269.5 115.4,-269.5"/>
<polygon fill="#63b8ff" stroke="#63b8ff" points="139.34,-273 149.34,-269.5 139.34,-266 139.34,-273"/>
</g>
<!-- Node15&#45;&gt;Node5 -->
<g id="edge16" class="edge">
<title>Node15&#45;&gt;Node5</title>
<path fill="none" stroke="#63b8ff" d="M906.53,-152.93C889.72,-155.26 870.87,-157.88 852.95,-160.37"/>
<polygon fill="#63b8ff" stroke="#63b8ff" points="906.88,-156.41 916.3,-151.57 905.91,-149.48 906.88,-156.41"/>
</g>
<!-- Node15&#45;&gt;Node9 -->
<g id="edge15" class="edge">
<title>Node15&#45;&gt;Node9</title>
<path fill="none" stroke="#63b8ff" d="M906.69,-142.51C837.43,-138.63 716.86,-131.87 644.79,-127.82"/>
<polygon fill="#63b8ff" stroke="#63b8ff" points="906.08,-145.98 916.26,-143.05 906.47,-138.99 906.08,-145.98"/>
</g>
<!-- Node16 -->
<g id="node16" class="node">
<title>Node16</title>
<g id="a_node16"><a xlink:href="../../d5/d7e/classdoris_1_1_tablet_manager.html#a0f54e8a6f6c9634bf1d529422919f836" target="_top" xlink:title=" ">
<polygon fill="white" stroke="#666666" points="834,-239.5 724,-239.5 724,-209.5 834,-209.5 834,-239.5"/>
<text text-anchor="start" x="732" y="-227.5" font-family="Helvetica,sans-Serif" font-size="10.00">doris::TabletManager</text>
<text text-anchor="middle" x="779" y="-216.5" font-family="Helvetica,sans-Serif" font-size="10.00">::load_tablet_from_dir</text>
</a>
</g>
</g>
<!-- Node15&#45;&gt;Node16 -->
<g id="edge17" class="edge">
<title>Node15&#45;&gt;Node16</title>
<path fill="none" stroke="#63b8ff" d="M935.7,-161.63C916.78,-173.63 889.53,-189.73 864,-200.5 854.64,-204.45 844.42,-207.98 834.44,-211.03"/>
<polygon fill="#63b8ff" stroke="#63b8ff" points="937.51,-164.62 944.01,-156.26 933.71,-158.74 937.51,-164.62"/>
</g>
<!-- Node16&#45;&gt;Node11 -->
<g id="edge18" class="edge">
<title>Node16&#45;&gt;Node11</title>
<path fill="none" stroke="#63b8ff" d="M712.56,-239.8C689.56,-245.17 663.94,-251.16 641.77,-256.35"/>
<polygon fill="#63b8ff" stroke="#63b8ff" points="713.19,-243.24 722.14,-237.56 711.6,-236.43 713.19,-243.24"/>
</g>
<!-- Node18 -->
<g id="node18" class="node">
<title>Node18</title>
<g id="a_node18"><a xlink:href="../../d9/da4/classdoris_1_1_tablet_meta.html#a59a58622420b8a92e1b62e4ec25e6c40" target="_top" xlink:title=" ">
<polygon fill="white" stroke="#666666" points="814,-93 744,-93 744,-74 814,-74 814,-93"/>
<text text-anchor="middle" x="779" y="-81" font-family="Helvetica,sans-Serif" font-size="10.00">_save_meta</text>
</a>
</g>
</g>
<!-- Node17&#45;&gt;Node18 -->
<g id="edge20" class="edge">
<title>Node17&#45;&gt;Node18</title>
<path fill="none" stroke="#63b8ff" d="M922.72,-83.5C890.86,-83.5 845.37,-83.5 814.37,-83.5"/>
<polygon fill="#63b8ff" stroke="#63b8ff" points="922.7,-87 932.7,-83.5 922.7,-80 922.7,-87"/>
</g>
<!-- Node19 -->
<g id="node19" class="node">
<title>Node19</title>
<g id="a_node19"><a xlink:href="../../d9/da4/classdoris_1_1_tablet_meta.html#a3f6e25291d9d356917595c8bd24ebecb" target="_top" xlink:title=" ">
<polygon fill="white" stroke="#666666" points="617,-91 552,-91 552,-72 617,-72 617,-91"/>
<text text-anchor="middle" x="584.5" y="-79" font-family="Helvetica,sans-Serif" font-size="10.00">save_meta</text>
</a>
</g>
</g>
<!-- Node18&#45;&gt;Node19 -->
<g id="edge21" class="edge">
<title>Node18&#45;&gt;Node19</title>
<path fill="none" stroke="#63b8ff" d="M732.11,-83.02C696.71,-82.66 648.67,-82.16 617.38,-81.83"/>
<polygon fill="#63b8ff" stroke="#63b8ff" points="732.04,-86.52 742.07,-83.13 732.11,-79.52 732.04,-86.52"/>
</g>
<!-- Node21 -->
<g id="node21" class="node">
<title>Node21</title>
<g id="a_node21"><a xlink:href="../../d7/d8f/meta__tool_8cpp.html#a3c04138a5bfe5d72780bb7e82a18e627" target="_top" xlink:title=" ">
<polygon fill="white" stroke="#666666" points="798,-56 760,-56 760,-37 798,-37 798,-56"/>
<text text-anchor="middle" x="779" y="-44" font-family="Helvetica,sans-Serif" font-size="10.00">main</text>
</a>
</g>
</g>
<!-- Node20&#45;&gt;Node21 -->
<g id="edge23" class="edge">
<title>Node20&#45;&gt;Node21</title>
<path fill="none" stroke="#63b8ff" d="M916.18,-46.5C878.31,-46.5 825.49,-46.5 798.09,-46.5"/>
<polygon fill="#63b8ff" stroke="#63b8ff" points="915.89,-50 925.89,-46.5 915.89,-43 915.89,-50"/>
</g>
<!-- Node23 -->
<g id="node23" class="node">
<title>Node23</title>
<g id="a_node23"><a xlink:href="../../d9/da4/classdoris_1_1_tablet_meta.html#a621c0b4f60ecc1770bd44086569d248a" target="_top" xlink:title=" ">
<polygon fill="white" stroke="#666666" points="817.5,-19 740.5,-19 740.5,0 817.5,0 817.5,-19"/>
<text text-anchor="middle" x="779" y="-7" font-family="Helvetica,sans-Serif" font-size="10.00">save_as_json</text>
</a>
</g>
</g>
<!-- Node22&#45;&gt;Node23 -->
<g id="edge25" class="edge">
<title>Node22&#45;&gt;Node23</title>
<path fill="none" stroke="#63b8ff" d="M925.38,-9.5C894.56,-9.5 849.57,-9.5 817.82,-9.5"/>
<polygon fill="#63b8ff" stroke="#63b8ff" points="925.32,-13 935.32,-9.5 925.32,-6 925.32,-13"/>
</g>
</g>
</svg>
        <g id="navigator" transform="translate(0 0)" fill="#404254">
                <rect fill="#f2f5e9" fill-opacity="0.5" stroke="#606060" stroke-width=".5" x="0" y="0" width="60" height="60"/>
                <use id="zoomplus" xlink:href="#zoomPlus" x="17" y="9" onmousedown="handleZoom(evt,'in')"/>
                <use id="zoomminus" xlink:href="#zoomMin" x="42" y="9" onmousedown="handleZoom(evt,'out')"/>
                <use id="reset" xlink:href="#resetDef" x="30" y="36" onmousedown="handleReset()"/>
                <g id="arrowUp" xlink:href="#dirArrow" transform="translate(30 24)" onmousedown="handlePan(0,-1)">
                  <use xlink:href="#rim" fill="#404040">
                        <set attributeName="fill" to="#808080" begin="arrowUp.mouseover" end="arrowUp.mouseout"/>
                  </use>
                  <path fill="none" stroke="white" stroke-width="1.5" d="M0,-3.0v7 M-2.5,-0.5L0,-3.0L2.5,-0.5"/>
                </g>
                <g id="arrowRight" xlink:href="#dirArrow" transform="rotate(90) translate(36 -43)" onmousedown="handlePan(1,0)">
                  <use xlink:href="#rim" fill="#404040">
                        <set attributeName="fill" to="#808080" begin="arrowRight.mouseover" end="arrowRight.mouseout"/>
                  </use>
                  <path fill="none" stroke="white" stroke-width="1.5" d="M0,-3.0v7 M-2.5,-0.5L0,-3.0L2.5,-0.5"/>
                </g>
                <g id="arrowDown" xlink:href="#dirArrow" transform="rotate(180) translate(-30 -48)" onmousedown="handlePan(0,1)">
                  <use xlink:href="#rim" fill="#404040">
                        <set attributeName="fill" to="#808080" begin="arrowDown.mouseover" end="arrowDown.mouseout"/>
                  </use>
                  <path fill="none" stroke="white" stroke-width="1.5" d="M0,-3.0v7 M-2.5,-0.5L0,-3.0L2.5,-0.5"/>
                </g>
                <g id="arrowLeft" xlink:href="#dirArrow" transform="rotate(270) translate(-36 17)" onmousedown="handlePan(-1,0)">
                  <use xlink:href="#rim" fill="#404040">
                        <set attributeName="fill" to="#808080" begin="arrowLeft.mouseover" end="arrowLeft.mouseout"/>
                  </use>
                  <path fill="none" stroke="white" stroke-width="1.5" d="M0,-3.0v7 M-2.5,-0.5L0,-3.0L2.5,-0.5"/>
                </g>
        </g>
        <svg viewBox="0 0 15 15" width="100%" height="30px" preserveAspectRatio="xMaxYMin meet">
         <g id="arrow_out" transform="scale(0.3 0.3)">
          <a xlink:href="classdoris_1_1_tablet_meta_ab1ff5fe0c79b0171ecbe2741d07f6f76_icgraph_org.svg" target="_base">
           <rect id="button" ry="5" rx="5" y="6" x="6" height="38" width="38"
                fill="#f2f5e9" fill-opacity="0.5" stroke="#606060" stroke-width="1.0"/>
           <path id="arrow"
             d="M 11.500037,31.436501 C 11.940474,20.09759 22.043105,11.32322 32.158766,21.979434 L 37.068811,17.246167 C 37.068811,17.246167 37.088388,32 37.088388,32 L 22.160133,31.978069 C 22.160133,31.978069 26.997745,27.140456 26.997745,27.140456 C 18.528582,18.264221 13.291696,25.230495 11.500037,31.436501 z"
             style="fill:#404040;"/>
          </a>
         </g>
        </svg>
</svg>
