<?xml version="1.0" encoding="UTF-8" standalone="no"?>
<!DOCTYPE svg PUBLIC "-//W3C//DTD SVG 1.1//EN"
 "http://www.w3.org/Graphics/SVG/1.1/DTD/svg11.dtd">
<!-- Generated by graphviz version 7.1.0 (20230121.1956)
 -->
<!-- Title: delete_stale_rs_meta_by_version Pages: 1 -->
<svg width="257pt" height="76pt"
 viewBox="0.00 0.00 257.00 75.50" xmlns="http://www.w3.org/2000/svg" xmlns:xlink="http://www.w3.org/1999/xlink">
<g id="graph0" class="graph" transform="scale(1 1) rotate(0) translate(4 71.5)">
<title>delete_stale_rs_meta_by_version</title>
<!-- Node1 -->
<g id="node1" class="node">
<title>Node1</title>
<g id="a_node1"><a xlink:title=" ">
<polygon fill="#999999" stroke="#666666" points="110,-51 0,-51 0,-21 110,-21 110,-51"/>
<text text-anchor="start" x="8" y="-39" font-family="Helvetica,sans-Serif" font-size="10.00">delete_stale_rs_meta</text>
<text text-anchor="middle" x="55" y="-28" font-family="Helvetica,sans-Serif" font-size="10.00">_by_version</text>
</a>
</g>
</g>
<!-- Node2 -->
<g id="node2" class="node">
<title>Node2</title>
<g id="a_node2"><a xlink:href="../../d9/da4/classdoris_1_1_tablet_meta.html#a3484ecca1bed5ce4cd62aeee86c87d78" target="_top" xlink:title=" ">
<polygon fill="white" stroke="#666666" points="236,-67.5 159,-67.5 159,-48.5 236,-48.5 236,-67.5"/>
<text text-anchor="middle" x="197.5" y="-55.5" font-family="Helvetica,sans-Serif" font-size="10.00">delete_bitmap</text>
</a>
</g>
</g>
<!-- Node1&#45;&gt;Node2 -->
<g id="edge1" class="edge">
<title>Node1&#45;&gt;Node2</title>
<path fill="none" stroke="#63b8ff" d="M110.32,-44.51C122.61,-46.43 135.59,-48.46 147.63,-50.35"/>
<polygon fill="#63b8ff" stroke="#63b8ff" points="146.93,-53.78 157.35,-51.87 148.01,-46.87 146.93,-53.78"/>
</g>
<!-- Node3 -->
<g id="node3" class="node">
<title>Node3</title>
<g id="a_node3"><a xlink:href="../../d6/d6d/classdoris_1_1_delete_bitmap.html#a55f3b0d6799a2debdf0943c52bc6c342" target="_top" xlink:title=" ">
<polygon fill="white" stroke="#666666" points="249,-30 146,-30 146,0 249,0 249,-30"/>
<text text-anchor="start" x="154" y="-18" font-family="Helvetica,sans-Serif" font-size="10.00">doris::DeleteBitmap</text>
<text text-anchor="middle" x="197.5" y="-7" font-family="Helvetica,sans-Serif" font-size="10.00">::remove</text>
</a>
</g>
</g>
<!-- Node1&#45;&gt;Node3 -->
<g id="edge2" class="edge">
<title>Node1&#45;&gt;Node3</title>
<path fill="none" stroke="#63b8ff" d="M110.32,-27.88C118.19,-26.7 126.35,-25.49 134.36,-24.29"/>
<polygon fill="#63b8ff" stroke="#63b8ff" points="134.68,-27.78 144.05,-22.84 133.64,-20.86 134.68,-27.78"/>
</g>
</g>
</svg>
