<?xml version="1.0" encoding="UTF-8" standalone="no"?>
<!DOCTYPE svg PUBLIC "-//W3C//DTD SVG 1.1//EN"
 "http://www.w3.org/Graphics/SVG/1.1/DTD/svg11.dtd">
<!-- Generated by graphviz version 7.1.0 (20230121.1956)
 -->
<!-- Title: DumpCurrentTrace Pages: 1 -->
<svg width="687pt" height="101pt"
 viewBox="0.00 0.00 687.00 101.00" xmlns="http://www.w3.org/2000/svg" xmlns:xlink="http://www.w3.org/1999/xlink">
<g id="graph0" class="graph" transform="scale(1 1) rotate(0) translate(4 97)">
<title>DumpCurrentTrace</title>
<!-- Node1 -->
<g id="node1" class="node">
<title>Node1</title>
<g id="a_node1"><a xlink:title=" ">
<polygon fill="#999999" stroke="#666666" points="100,-74 0,-74 0,-55 100,-55 100,-74"/>
<text text-anchor="middle" x="50" y="-62" font-family="Helvetica,sans-Serif" font-size="10.00">DumpCurrentTrace</text>
</a>
</g>
</g>
<!-- Node2 -->
<g id="node2" class="node">
<title>Node2</title>
<g id="a_node2"><a xlink:href="../../d2/dbd/classdoris_1_1_trace.html#a63de7c332adb51176aa6ac591765247d" target="_top" xlink:title=" ">
<polygon fill="white" stroke="#666666" points="210,-93 136,-93 136,-74 210,-74 210,-93"/>
<text text-anchor="middle" x="173" y="-81" font-family="Helvetica,sans-Serif" font-size="10.00">CurrentTrace</text>
</a>
</g>
</g>
<!-- Node1&#45;&gt;Node2 -->
<g id="edge1" class="edge">
<title>Node1&#45;&gt;Node2</title>
<path fill="none" stroke="#63b8ff" d="M100.22,-72.23C108.22,-73.48 116.49,-74.78 124.45,-76.03"/>
<polygon fill="#63b8ff" stroke="#63b8ff" points="123.9,-79.49 134.32,-77.58 124.99,-72.57 123.9,-79.49"/>
</g>
<!-- Node3 -->
<g id="node3" class="node">
<title>Node3</title>
<g id="a_node3"><a xlink:href="../../d2/dbd/classdoris_1_1_trace.html#a1bbc5fa27154119c401b0c33d80d1677" target="_top" xlink:title=" ">
<polygon fill="white" stroke="#666666" points="194.5,-56 151.5,-56 151.5,-37 194.5,-37 194.5,-56"/>
<text text-anchor="middle" x="173" y="-44" font-family="Helvetica,sans-Serif" font-size="10.00">Dump</text>
</a>
</g>
</g>
<!-- Node1&#45;&gt;Node3 -->
<g id="edge2" class="edge">
<title>Node1&#45;&gt;Node3</title>
<path fill="none" stroke="#63b8ff" d="M100.22,-57.18C113.56,-55.19 127.67,-53.09 139.81,-51.29"/>
<polygon fill="#63b8ff" stroke="#63b8ff" points="140.33,-54.75 149.7,-49.82 139.3,-47.83 140.33,-54.75"/>
</g>
<!-- Node4 -->
<g id="node4" class="node">
<title>Node4</title>
<g id="a_node4"><a xlink:href="../../d6/d94/namespacedoris.html#a4538b192faf9b324a2b46a358c7f093a" target="_top" xlink:title=" ">
<polygon fill="white" stroke="#666666" points="381.5,-93 263.5,-93 263.5,-74 381.5,-74 381.5,-93"/>
<text text-anchor="middle" x="322.5" y="-81" font-family="Helvetica,sans-Serif" font-size="10.00">doris::const_basename</text>
</a>
</g>
</g>
<!-- Node3&#45;&gt;Node4 -->
<g id="edge3" class="edge">
<title>Node3&#45;&gt;Node4</title>
<path fill="none" stroke="#63b8ff" d="M194.76,-52.12C209.13,-55.97 228.7,-61.15 246,-65.5 253.12,-67.29 260.62,-69.13 268.03,-70.92"/>
<polygon fill="#63b8ff" stroke="#63b8ff" points="267.12,-74.3 277.66,-73.23 268.75,-67.49 267.12,-74.3"/>
</g>
<!-- Node5 -->
<g id="node5" class="node">
<title>Node5</title>
<g id="a_node5"><a xlink:href="../../d6/d94/namespacedoris.html#a2984ab49d4333e2eb55ba4045de48fa5" target="_top" xlink:title=" ">
<polygon fill="white" stroke="#666666" points="399,-56 246,-56 246,-37 399,-37 399,-56"/>
<text text-anchor="middle" x="322.5" y="-44" font-family="Helvetica,sans-Serif" font-size="10.00">doris::FormatTimestampForLog</text>
</a>
</g>
</g>
<!-- Node3&#45;&gt;Node5 -->
<g id="edge4" class="edge">
<title>Node3&#45;&gt;Node5</title>
<path fill="none" stroke="#63b8ff" d="M194.82,-46.5C205.58,-46.5 219.51,-46.5 234.19,-46.5"/>
<polygon fill="#63b8ff" stroke="#63b8ff" points="234,-50 244,-46.5 234,-43 234,-50"/>
</g>
<!-- Node8 -->
<g id="node8" class="node">
<title>Node8</title>
<g id="a_node8"><a xlink:href="../../d2/dbd/classdoris_1_1_trace.html#ab62221dfc1751a6cfee200d340e28f66" target="_top" xlink:title=" ">
<polygon fill="white" stroke="#666666" points="366.5,-19 278.5,-19 278.5,0 366.5,0 366.5,-19"/>
<text text-anchor="middle" x="322.5" y="-7" font-family="Helvetica,sans-Serif" font-size="10.00">MetricsAsJSON</text>
</a>
</g>
</g>
<!-- Node3&#45;&gt;Node8 -->
<g id="edge7" class="edge">
<title>Node3&#45;&gt;Node8</title>
<path fill="none" stroke="#63b8ff" d="M194.82,-41.28C214.55,-36.33 244.97,-28.7 271.06,-22.15"/>
<polygon fill="#63b8ff" stroke="#63b8ff" points="271.61,-25.62 280.46,-19.79 269.91,-18.83 271.61,-25.62"/>
</g>
<!-- Node6 -->
<g id="node6" class="node">
<title>Node6</title>
<g id="a_node6"><a xlink:href="../../d5/df3/stringprintf_8cc.html#a92981a46cfd763852a9cb7343fa140a2" target="_top" xlink:title=" ">
<polygon fill="white" stroke="#666666" points="510.5,-56 445.5,-56 445.5,-37 510.5,-37 510.5,-56"/>
<text text-anchor="middle" x="478" y="-44" font-family="Helvetica,sans-Serif" font-size="10.00">StringPrintf</text>
</a>
</g>
</g>
<!-- Node5&#45;&gt;Node6 -->
<g id="edge5" class="edge">
<title>Node5&#45;&gt;Node6</title>
<path fill="none" stroke="#63b8ff" d="M399.35,-46.5C411.22,-46.5 423.12,-46.5 433.91,-46.5"/>
<polygon fill="#63b8ff" stroke="#63b8ff" points="433.62,-50 443.62,-46.5 433.62,-43 433.62,-50"/>
</g>
<!-- Node7 -->
<g id="node7" class="node">
<title>Node7</title>
<g id="a_node7"><a xlink:href="../../d5/df3/stringprintf_8cc.html#a6c101f79eb01bed185ac7d53fa6fe34c" target="_top" xlink:title=" ">
<polygon fill="white" stroke="#666666" points="659,-56 577,-56 577,-37 659,-37 659,-56"/>
<text text-anchor="middle" x="618" y="-44" font-family="Helvetica,sans-Serif" font-size="10.00">StringAppendV</text>
</a>
</g>
</g>
<!-- Node6&#45;&gt;Node7 -->
<g id="edge6" class="edge">
<title>Node6&#45;&gt;Node7</title>
<path fill="none" stroke="#63b8ff" d="M510.66,-46.5C526.79,-46.5 546.83,-46.5 565.14,-46.5"/>
<polygon fill="#63b8ff" stroke="#63b8ff" points="565.05,-50 575.05,-46.5 565.05,-43 565.05,-50"/>
</g>
<!-- Node9 -->
<g id="node9" class="node">
<title>Node9</title>
<g id="a_node9"><a xlink:href="../../d2/dbd/classdoris_1_1_trace.html#a8511c5f82636bf826d870d63a8717b32" target="_top" xlink:title=" ">
<polygon fill="white" stroke="#666666" points="521,-19 435,-19 435,0 521,0 521,-19"/>
<text text-anchor="middle" x="478" y="-7" font-family="Helvetica,sans-Serif" font-size="10.00">MetricsToJSON</text>
</a>
</g>
</g>
<!-- Node8&#45;&gt;Node9 -->
<g id="edge8" class="edge">
<title>Node8&#45;&gt;Node9</title>
<path fill="none" stroke="#63b8ff" d="M366.67,-9.5C384.29,-9.5 404.86,-9.5 423.43,-9.5"/>
<polygon fill="#63b8ff" stroke="#63b8ff" points="423.17,-13 433.17,-9.5 423.17,-6 423.17,-13"/>
</g>
<!-- Node10 -->
<g id="node10" class="node">
<title>Node10</title>
<g id="a_node10"><a xlink:href="../../d5/d83/classdoris_1_1_trace_metrics.html#aa12f5ba75c9d9ae82ba1b750050d5c46" target="_top" xlink:title=" ">
<polygon fill="white" stroke="#666666" points="679,-19 557,-19 557,0 679,0 679,-19"/>
<text text-anchor="middle" x="618" y="-7" font-family="Helvetica,sans-Serif" font-size="10.00">doris::TraceMetrics::Get</text>
</a>
</g>
</g>
<!-- Node9&#45;&gt;Node10 -->
<g id="edge9" class="edge">
<title>Node9&#45;&gt;Node10</title>
<path fill="none" stroke="#63b8ff" d="M521.15,-9.5C528.84,-9.5 537.05,-9.5 545.31,-9.5"/>
<polygon fill="#63b8ff" stroke="#63b8ff" points="545.05,-13 555.05,-9.5 545.05,-6 545.05,-13"/>
</g>
</g>
</svg>
