<?xml version="1.0" encoding="UTF-8" standalone="no"?>
<!DOCTYPE svg PUBLIC "-//W3C//DTD SVG 1.1//EN"
 "http://www.w3.org/Graphics/SVG/1.1/DTD/svg11.dtd">
<!-- Generated by graphviz version 7.1.0 (20230121.1956)
 -->
<!-- Title: create Pages: 1 -->
<svg width="320pt" height="64pt"
 viewBox="0.00 0.00 320.00 64.00" xmlns="http://www.w3.org/2000/svg" xmlns:xlink="http://www.w3.org/1999/xlink">
<g id="graph0" class="graph" transform="scale(1 1) rotate(0) translate(4 60)">
<title>create</title>
<!-- Node1 -->
<g id="node1" class="node">
<title>Node1</title>
<g id="a_node1"><a xlink:title=" ">
<polygon fill="#999999" stroke="#666666" points="44,-37 0,-37 0,-18 44,-18 44,-37"/>
<text text-anchor="middle" x="22" y="-25" font-family="Helvetica,sans-Serif" font-size="10.00">create</text>
</a>
</g>
</g>
<!-- Node2 -->
<g id="node2" class="node">
<title>Node2</title>
<g id="a_node2"><a xlink:href="../../d6/d34/classdoris_1_1vectorized_1_1_field.html#ae431e05194562b128e56e5e833a23f4a" target="_top" xlink:title=" ">
<polygon fill="white" stroke="#666666" points="124,-37 80,-37 80,-18 124,-18 124,-37"/>
<text text-anchor="middle" x="102" y="-25" font-family="Helvetica,sans-Serif" font-size="10.00">create</text>
</a>
</g>
</g>
<!-- Node1&#45;&gt;Node2 -->
<g id="edge1" class="edge">
<title>Node1&#45;&gt;Node2</title>
<path fill="none" stroke="#63b8ff" d="M44.31,-27.5C51.71,-27.5 60.18,-27.5 68.28,-27.5"/>
<polygon fill="#63b8ff" stroke="#63b8ff" points="68.2,-31 78.2,-27.5 68.2,-24 68.2,-31"/>
</g>
<!-- Node3 -->
<g id="node3" class="node">
<title>Node3</title>
<g id="a_node3"><a xlink:href="../../d6/d34/classdoris_1_1vectorized_1_1_field.html#ac26f10431116264f1b62c610f71ab564" target="_top" xlink:title="Assuming there was no allocated state or it was deallocated (see destroy).">
<polygon fill="white" stroke="#666666" points="246,-56 160,-56 160,-37 246,-37 246,-56"/>
<text text-anchor="middle" x="203" y="-44" font-family="Helvetica,sans-Serif" font-size="10.00">create_concrete</text>
</a>
</g>
</g>
<!-- Node2&#45;&gt;Node3 -->
<g id="edge2" class="edge">
<title>Node2&#45;&gt;Node3</title>
<path fill="none" stroke="#63b8ff" d="M124.48,-31.62C131.68,-33 140.05,-34.61 148.58,-36.25"/>
<polygon fill="#63b8ff" stroke="#63b8ff" points="147.84,-39.67 158.32,-38.12 149.15,-32.79 147.84,-39.67"/>
</g>
<!-- Node4 -->
<g id="node4" class="node">
<title>Node4</title>
<g id="a_node4"><a xlink:href="../../d6/d34/classdoris_1_1vectorized_1_1_field.html#aacdff9d18d18e8e1cff47c9d8bf8f052" target="_top" xlink:title="Field template parameter may be const or non&#45;const Field.">
<polygon fill="white" stroke="#666666" points="229.5,-19 176.5,-19 176.5,0 229.5,0 229.5,-19"/>
<text text-anchor="middle" x="203" y="-7" font-family="Helvetica,sans-Serif" font-size="10.00">dispatch</text>
</a>
</g>
</g>
<!-- Node2&#45;&gt;Node4 -->
<g id="edge3" class="edge">
<title>Node2&#45;&gt;Node4</title>
<path fill="none" stroke="#63b8ff" d="M124.48,-23.59C136.39,-21.43 151.52,-18.68 165.25,-16.18"/>
<polygon fill="#63b8ff" stroke="#63b8ff" points="165.65,-19.67 174.86,-14.43 164.39,-12.78 165.65,-19.67"/>
</g>
<!-- Node5 -->
<g id="node5" class="node">
<title>Node5</title>
<g id="a_node5"><a xlink:href="../../d6/d34/classdoris_1_1vectorized_1_1_field.html#a2fdabfe471eadbf8dc5f2b55786e1289" target="_top" xlink:title=" ">
<polygon fill="white" stroke="#666666" points="312,-19 282,-19 282,0 312,0 312,-19"/>
<text text-anchor="middle" x="297" y="-7" font-family="Helvetica,sans-Serif" font-size="10.00">get</text>
</a>
</g>
</g>
<!-- Node4&#45;&gt;Node5 -->
<g id="edge4" class="edge">
<title>Node4&#45;&gt;Node5</title>
<path fill="none" stroke="#63b8ff" d="M229.63,-9.5C242.36,-9.5 257.7,-9.5 270.43,-9.5"/>
<polygon fill="#63b8ff" stroke="#63b8ff" points="270.14,-13 280.14,-9.5 270.14,-6 270.14,-13"/>
</g>
</g>
</svg>
