<?xml version="1.0" encoding="UTF-8" standalone="no"?>
<!DOCTYPE svg PUBLIC "-//W3C//DTD SVG 1.1//EN"
 "http://www.w3.org/Graphics/SVG/1.1/DTD/svg11.dtd">
<!-- Generated by graphviz version 7.1.0 (20230121.1956)
 -->
<!-- Title: /Users/dabowang/be_all/vec/common/string_utils/string_utils.h Pages: 1 -->
<svg width="262pt" height="104pt"
 viewBox="0.00 0.00 261.50 104.00" xmlns="http://www.w3.org/2000/svg" xmlns:xlink="http://www.w3.org/1999/xlink">
<g id="graph0" class="graph" transform="scale(1 1) rotate(0) translate(4 100)">
<title>/Users/dabowang/be_all/vec/common/string_utils/string_utils.h</title>
<!-- Node1 -->
<g id="node1" class="node">
<title>Node1</title>
<g id="a_node1"><a xlink:title=" ">
<polygon fill="#999999" stroke="#666666" points="180.5,-96 62.5,-96 62.5,-55 180.5,-55 180.5,-96"/>
<text text-anchor="start" x="70.5" y="-84" font-family="Helvetica,sans-Serif" font-size="10.00">/Users/dabowang/be</text>
<text text-anchor="start" x="70.5" y="-73" font-family="Helvetica,sans-Serif" font-size="10.00">_all/vec/common/string</text>
<text text-anchor="middle" x="121.5" y="-62" font-family="Helvetica,sans-Serif" font-size="10.00">_utils/string_utils.h</text>
</a>
</g>
</g>
<!-- Node2 -->
<g id="node2" class="node">
<title>Node2</title>
<g id="a_node2"><a xlink:title=" ">
<polygon fill="#e0e0e0" stroke="#999999" points="49,-19 0,-19 0,0 49,0 49,-19"/>
<text text-anchor="middle" x="24.5" y="-7" font-family="Helvetica,sans-Serif" font-size="10.00">cstddef</text>
</a>
</g>
</g>
<!-- Node1&#45;&gt;Node2 -->
<g id="edge1" class="edge">
<title>Node1&#45;&gt;Node2</title>
<path fill="none" stroke="#63b8ff" d="M91.34,-54.6C77.07,-45.19 60.32,-34.13 47.15,-25.44"/>
<polygon fill="#63b8ff" stroke="#63b8ff" points="49.42,-22.75 39.15,-20.16 45.57,-28.59 49.42,-22.75"/>
</g>
<!-- Node3 -->
<g id="node3" class="node">
<title>Node3</title>
<g id="a_node3"><a xlink:title=" ">
<polygon fill="#e0e0e0" stroke="#999999" points="113.5,-19 67.5,-19 67.5,0 113.5,0 113.5,-19"/>
<text text-anchor="middle" x="90.5" y="-7" font-family="Helvetica,sans-Serif" font-size="10.00">cstring</text>
</a>
</g>
</g>
<!-- Node1&#45;&gt;Node3 -->
<g id="edge2" class="edge">
<title>Node1&#45;&gt;Node3</title>
<path fill="none" stroke="#63b8ff" d="M111.86,-54.6C107.95,-46.52 103.45,-37.23 99.59,-29.27"/>
<polygon fill="#63b8ff" stroke="#63b8ff" points="102.86,-28 95.36,-20.52 96.57,-31.05 102.86,-28"/>
</g>
<!-- Node4 -->
<g id="node4" class="node">
<title>Node4</title>
<g id="a_node4"><a xlink:title=" ">
<polygon fill="#e0e0e0" stroke="#999999" points="173,-19 132,-19 132,0 173,0 173,-19"/>
<text text-anchor="middle" x="152.5" y="-7" font-family="Helvetica,sans-Serif" font-size="10.00">string</text>
</a>
</g>
</g>
<!-- Node1&#45;&gt;Node4 -->
<g id="edge3" class="edge">
<title>Node1&#45;&gt;Node4</title>
<path fill="none" stroke="#63b8ff" d="M131.14,-54.6C135.05,-46.52 139.55,-37.23 143.41,-29.27"/>
<polygon fill="#63b8ff" stroke="#63b8ff" points="146.43,-31.05 147.64,-20.52 140.14,-28 146.43,-31.05"/>
</g>
<!-- Node5 -->
<g id="node5" class="node">
<title>Node5</title>
<g id="a_node5"><a xlink:title=" ">
<polygon fill="#e0e0e0" stroke="#999999" points="253.5,-19 191.5,-19 191.5,0 253.5,0 253.5,-19"/>
<text text-anchor="middle" x="222.5" y="-7" font-family="Helvetica,sans-Serif" font-size="10.00">type_traits</text>
</a>
</g>
</g>
<!-- Node1&#45;&gt;Node5 -->
<g id="edge4" class="edge">
<title>Node1&#45;&gt;Node5</title>
<path fill="none" stroke="#63b8ff" d="M152.9,-54.6C167.76,-45.19 185.21,-34.13 198.92,-25.44"/>
<polygon fill="#63b8ff" stroke="#63b8ff" points="200.71,-28.45 207.29,-20.14 196.97,-22.54 200.71,-28.45"/>
</g>
</g>
</svg>
