<?xml version="1.0" encoding="UTF-8" standalone="no"?>
<!DOCTYPE svg PUBLIC "-//W3C//DTD SVG 1.1//EN"
 "http://www.w3.org/Graphics/SVG/1.1/DTD/svg11.dtd">
<!-- Generated by graphviz version 7.1.0 (20230121.1956)
 -->
<!-- Title: StatefulOperator&lt; OperatorBuilderType &gt; Pages: 1 -->
<svg width="937pt" height="182pt"
 viewBox="0.00 0.00 937.00 182.00" xmlns="http://www.w3.org/2000/svg" xmlns:xlink="http://www.w3.org/1999/xlink">
<g id="graph0" class="graph" transform="scale(1 1) rotate(0) translate(4 178)">
<title>StatefulOperator&lt; OperatorBuilderType &gt;</title>
<!-- Node1 -->
<g id="node1" class="node">
<title>Node1</title>
<g id="a_node1"><a xlink:title=" ">
<polygon fill="#999999" stroke="#666666" points="402,-102 268,-102 268,-72 402,-72 402,-102"/>
<text text-anchor="start" x="276" y="-90" font-family="Helvetica,sans-Serif" font-size="10.00">StatefulOperator&lt; Operator</text>
<text text-anchor="middle" x="335" y="-79" font-family="Helvetica,sans-Serif" font-size="10.00">BuilderType &gt;</text>
</a>
</g>
</g>
<!-- Node4 -->
<g id="node4" class="node">
<title>Node4</title>
<g id="a_node4"><a xlink:href="../../da/d2a/classdoris_1_1pipeline_1_1_stateful_operator.html" target="_top" xlink:title=" ">
<polygon fill="white" stroke="#666666" points="742,-174 604,-174 604,-144 742,-144 742,-174"/>
<text text-anchor="start" x="612" y="-162" font-family="Helvetica,sans-Serif" font-size="10.00">StatefulOperator&lt; HashJoin</text>
<text text-anchor="middle" x="673" y="-151" font-family="Helvetica,sans-Serif" font-size="10.00">ProbeOperatorBuilder &gt;</text>
</a>
</g>
</g>
<!-- Node1&#45;&gt;Node4 -->
<g id="edge3" class="edge">
<title>Node1&#45;&gt;Node4</title>
<path fill="none" stroke="orange" stroke-dasharray="5,2" d="M370.82,-107.8C385.53,-115.67 403.12,-123.94 420,-129 480.46,-147.11 552.16,-154.35 603.59,-157.21"/>
<polygon fill="orange" stroke="orange" points="372.92,-104.96 362.48,-103.19 369.54,-111.09 372.92,-104.96"/>
<text text-anchor="middle" x="498" y="-158" font-family="Helvetica,sans-Serif" font-size="10.00"> &lt; HashJoinProbeOperatorBuilder &gt;</text>
</g>
<!-- Node6 -->
<g id="node6" class="node">
<title>Node6</title>
<g id="a_node6"><a xlink:href="../../da/d2a/classdoris_1_1pipeline_1_1_stateful_operator.html" target="_top" xlink:title=" ">
<polygon fill="white" stroke="#666666" points="742.5,-126 603.5,-126 603.5,-96 742.5,-96 742.5,-126"/>
<text text-anchor="start" x="611.5" y="-114" font-family="Helvetica,sans-Serif" font-size="10.00">StatefulOperator&lt; NestLoop</text>
<text text-anchor="middle" x="673" y="-103" font-family="Helvetica,sans-Serif" font-size="10.00">JoinProbeOperatorBuilder &gt;</text>
</a>
</g>
</g>
<!-- Node1&#45;&gt;Node6 -->
<g id="edge5" class="edge">
<title>Node1&#45;&gt;Node6</title>
<path fill="none" stroke="orange" stroke-dasharray="5,2" d="M413.56,-92.54C470.83,-96.63 548.07,-102.15 603.16,-106.08"/>
<polygon fill="orange" stroke="orange" points="414.12,-89.07 403.89,-91.85 413.62,-96.05 414.12,-89.07"/>
<text text-anchor="start" x="430" y="-117" font-family="Helvetica,sans-Serif" font-size="10.00"> &lt; NestLoopJoinProbeOperator</text>
<text text-anchor="middle" x="498" y="-106" font-family="Helvetica,sans-Serif" font-size="10.00">Builder &gt;</text>
</g>
<!-- Node8 -->
<g id="node8" class="node">
<title>Node8</title>
<g id="a_node8"><a xlink:href="../../da/d2a/classdoris_1_1pipeline_1_1_stateful_operator.html" target="_top" xlink:title=" ">
<polygon fill="white" stroke="#666666" points="737,-78 609,-78 609,-48 737,-48 737,-78"/>
<text text-anchor="start" x="617" y="-66" font-family="Helvetica,sans-Serif" font-size="10.00">StatefulOperator&lt; Repeat</text>
<text text-anchor="middle" x="673" y="-55" font-family="Helvetica,sans-Serif" font-size="10.00">OperatorBuilder &gt;</text>
</a>
</g>
</g>
<!-- Node1&#45;&gt;Node8 -->
<g id="edge7" class="edge">
<title>Node1&#45;&gt;Node8</title>
<path fill="none" stroke="orange" stroke-dasharray="5,2" d="M413.78,-78.54C415.88,-78.35 417.95,-78.17 420,-78 484.09,-72.66 557.51,-68.51 608.51,-65.95"/>
<polygon fill="orange" stroke="orange" points="413.6,-75.04 403.97,-79.45 414.25,-82.01 413.6,-75.04"/>
<text text-anchor="middle" x="498" y="-81" font-family="Helvetica,sans-Serif" font-size="10.00"> &lt; RepeatOperatorBuilder &gt;</text>
</g>
<!-- Node10 -->
<g id="node10" class="node">
<title>Node10</title>
<g id="a_node10"><a xlink:href="../../da/d2a/classdoris_1_1pipeline_1_1_stateful_operator.html" target="_top" xlink:title=" ">
<polygon fill="white" stroke="#666666" points="752,-30 594,-30 594,0 752,0 752,-30"/>
<text text-anchor="start" x="602" y="-18" font-family="Helvetica,sans-Serif" font-size="10.00">StatefulOperator&lt; TableFunction</text>
<text text-anchor="middle" x="673" y="-7" font-family="Helvetica,sans-Serif" font-size="10.00">OperatorBuilder &gt;</text>
</a>
</g>
</g>
<!-- Node1&#45;&gt;Node10 -->
<g id="edge9" class="edge">
<title>Node1&#45;&gt;Node10</title>
<path fill="none" stroke="orange" stroke-dasharray="5,2" d="M379.33,-67.2C392.21,-61.94 406.49,-56.7 420,-53 477.08,-37.38 543.3,-27.71 593.53,-22.03"/>
<polygon fill="orange" stroke="orange" points="378.15,-63.9 370.29,-71.01 380.87,-70.35 378.15,-63.9"/>
<text text-anchor="middle" x="498" y="-56" font-family="Helvetica,sans-Serif" font-size="10.00"> &lt; TableFunctionOperatorBuilder &gt;</text>
</g>
<!-- Node2 -->
<g id="node2" class="node">
<title>Node2</title>
<g id="a_node2"><a xlink:href="../../d9/d64/classdoris_1_1pipeline_1_1_streaming_operator.html" target="_top" xlink:title=" ">
<polygon fill="white" stroke="#666666" points="231,-102 114,-102 114,-72 231,-72 231,-102"/>
<text text-anchor="start" x="122" y="-90" font-family="Helvetica,sans-Serif" font-size="10.00">StreamingOperator&lt;</text>
<text text-anchor="middle" x="172.5" y="-79" font-family="Helvetica,sans-Serif" font-size="10.00"> OperatorBuilderType &gt;</text>
</a>
</g>
</g>
<!-- Node2&#45;&gt;Node1 -->
<g id="edge1" class="edge">
<title>Node2&#45;&gt;Node1</title>
<path fill="none" stroke="#63b8ff" d="M242.92,-87C251.14,-87 259.52,-87 267.69,-87"/>
<polygon fill="#63b8ff" stroke="#63b8ff" points="242.96,-83.5 232.96,-87 242.96,-90.5 242.96,-83.5"/>
</g>
<!-- Node3 -->
<g id="node3" class="node">
<title>Node3</title>
<g id="a_node3"><a xlink:href="../../d5/d04/classdoris_1_1pipeline_1_1_operator_base.html" target="_top" xlink:title=" ">
<polygon fill="white" stroke="#666666" points="77,-96.5 0,-96.5 0,-77.5 77,-77.5 77,-96.5"/>
<text text-anchor="middle" x="38.5" y="-84.5" font-family="Helvetica,sans-Serif" font-size="10.00">OperatorBase</text>
</a>
</g>
</g>
<!-- Node3&#45;&gt;Node2 -->
<g id="edge2" class="edge">
<title>Node3&#45;&gt;Node2</title>
<path fill="none" stroke="#63b8ff" d="M88.68,-87C96.92,-87 105.54,-87 113.98,-87"/>
<polygon fill="#63b8ff" stroke="#63b8ff" points="88.84,-83.5 78.84,-87 88.84,-90.5 88.84,-83.5"/>
</g>
<!-- Node5 -->
<g id="node5" class="node">
<title>Node5</title>
<g id="a_node5"><a xlink:href="../../d4/d5f/classdoris_1_1pipeline_1_1_hash_join_probe_operator.html" target="_top" xlink:title=" ">
<polygon fill="white" stroke="#666666" points="919.5,-168.5 798.5,-168.5 798.5,-149.5 919.5,-149.5 919.5,-168.5"/>
<text text-anchor="middle" x="859" y="-156.5" font-family="Helvetica,sans-Serif" font-size="10.00">HashJoinProbeOperator</text>
</a>
</g>
</g>
<!-- Node4&#45;&gt;Node5 -->
<g id="edge4" class="edge">
<title>Node4&#45;&gt;Node5</title>
<path fill="none" stroke="#63b8ff" d="M753.55,-159C768.47,-159 783.83,-159 798.04,-159"/>
<polygon fill="#63b8ff" stroke="#63b8ff" points="753.77,-155.5 743.77,-159 753.77,-162.5 753.77,-155.5"/>
</g>
<!-- Node7 -->
<g id="node7" class="node">
<title>Node7</title>
<g id="a_node7"><a xlink:href="../../d8/d59/classdoris_1_1pipeline_1_1_nest_loop_join_probe_operator.html" target="_top" xlink:title=" ">
<polygon fill="white" stroke="#666666" points="929,-120.5 789,-120.5 789,-101.5 929,-101.5 929,-120.5"/>
<text text-anchor="middle" x="859" y="-108.5" font-family="Helvetica,sans-Serif" font-size="10.00">NestLoopJoinProbeOperator</text>
</a>
</g>
</g>
<!-- Node6&#45;&gt;Node7 -->
<g id="edge6" class="edge">
<title>Node6&#45;&gt;Node7</title>
<path fill="none" stroke="#63b8ff" d="M754.17,-111C765.67,-111 777.42,-111 788.69,-111"/>
<polygon fill="#63b8ff" stroke="#63b8ff" points="754.29,-107.5 744.29,-111 754.29,-114.5 754.29,-107.5"/>
</g>
<!-- Node9 -->
<g id="node9" class="node">
<title>Node9</title>
<g id="a_node9"><a xlink:href="../../db/d25/classdoris_1_1pipeline_1_1_repeat_operator.html" target="_top" xlink:title=" ">
<polygon fill="white" stroke="#666666" points="902,-72.5 816,-72.5 816,-53.5 902,-53.5 902,-72.5"/>
<text text-anchor="middle" x="859" y="-60.5" font-family="Helvetica,sans-Serif" font-size="10.00">RepeatOperator</text>
</a>
</g>
</g>
<!-- Node8&#45;&gt;Node9 -->
<g id="edge8" class="edge">
<title>Node8&#45;&gt;Node9</title>
<path fill="none" stroke="#63b8ff" d="M748.73,-63C771.54,-63 795.81,-63 815.68,-63"/>
<polygon fill="#63b8ff" stroke="#63b8ff" points="748.84,-59.5 738.84,-63 748.84,-66.5 748.84,-59.5"/>
</g>
<!-- Node11 -->
<g id="node11" class="node">
<title>Node11</title>
<g id="a_node11"><a xlink:href="../../d1/d17/classdoris_1_1pipeline_1_1_table_function_operator.html" target="_top" xlink:title=" ">
<polygon fill="white" stroke="#666666" points="916.5,-24.5 801.5,-24.5 801.5,-5.5 916.5,-5.5 916.5,-24.5"/>
<text text-anchor="middle" x="859" y="-12.5" font-family="Helvetica,sans-Serif" font-size="10.00">TableFunctionOperator</text>
</a>
</g>
</g>
<!-- Node10&#45;&gt;Node11 -->
<g id="edge10" class="edge">
<title>Node10&#45;&gt;Node11</title>
<path fill="none" stroke="#63b8ff" d="M763.54,-15C776.37,-15 789.26,-15 801.23,-15"/>
<polygon fill="#63b8ff" stroke="#63b8ff" points="763.81,-11.5 753.81,-15 763.81,-18.5 763.81,-11.5"/>
</g>
</g>
</svg>
