<?xml version="1.0" encoding="UTF-8" standalone="no"?>
<!DOCTYPE svg PUBLIC "-//W3C//DTD SVG 1.1//EN"
 "http://www.w3.org/Graphics/SVG/1.1/DTD/svg11.dtd">
<!-- Generated by graphviz version 7.1.0 (20230121.1956)
 -->
<!-- Title: trim Pages: 1 -->
<!--zoomable 231 -->
<svg id="main" version="1.1" xmlns="http://www.w3.org/2000/svg" xmlns:xlink="http://www.w3.org/1999/xlink" xml:space="preserve" onload="init(evt)">
<style type="text/css"><![CDATA[
.edge:hover path { stroke: red; }
.edge:hover polygon { stroke: red; fill: red; }
]]></style>
<script type="text/javascript"><![CDATA[
var edges = document.getElementsByTagName('g');
if (edges && edges.length) {
  for (var i=0;i<edges.length;i++) {
    if (edges[i].id.substr(0,4)=='edge') {
      edges[i].setAttribute('class','edge');
    }
  }
}
]]></script>
        <defs>
                <circle id="rim" cx="0" cy="0" r="7"/>
                <circle id="rim2" cx="0" cy="0" r="3.5"/>
                <g id="zoomPlus">
                        <use xlink:href="#rim" fill="#404040">
                                <set attributeName="fill" to="#808080" begin="zoomplus.mouseover" end="zoomplus.mouseout"/>
                        </use>
                        <path d="M-4,0h8M0,-4v8" fill="none" stroke="white" stroke-width="1.5" pointer-events="none"/>
                </g>
                <g id="zoomMin">
                        <use xlink:href="#rim" fill="#404040">
                                <set attributeName="fill" to="#808080" begin="zoomminus.mouseover" end="zoomminus.mouseout"/>
                        </use>
                        <path d="M-4,0h8" fill="none" stroke="white" stroke-width="1.5" pointer-events="none"/>
                </g>
                <g id="dirArrow">
                        <path fill="none" stroke="white" stroke-width="1.5" d="M0,-3.0v7 M-2.5,-0.5L0,-3.0L2.5,-0.5"/>
                </g>
               <g id="resetDef">
                       <use xlink:href="#rim2" fill="#404040">
                               <set attributeName="fill" to="#808080" begin="reset.mouseover" end="reset.mouseout"/>
                       </use>
               </g>
        </defs>

<script type="text/javascript">
var viewWidth = 611;
var viewHeight = 231;
var sectionId = 'dynsection-50';
</script>
<script xlink:href="../../svgpan.js"/>
<svg id="graph" class="graph">
<g id="viewport">
<title>trim</title>
<!-- Node1 -->
<g id="node1" class="node">
<title>Node1</title>
<g id="a_node1"><a xlink:title=" ">
<polygon fill="#999999" stroke="#666666" points="603,-115.08 570,-115.08 570,-96.08 603,-96.08 603,-115.08"/>
<text text-anchor="middle" x="586.5" y="-103.08" font-family="Helvetica,sans-Serif" font-size="10.00">trim</text>
</a>
</g>
</g>
<!-- Node2 -->
<g id="node2" class="node">
<title>Node2</title>
<g id="a_node2"><a xlink:href="../../dd/d88/classdoris_1_1_jsonb_parser_t.html#aa3b1fc67a21a367848adbbe97d6c83dd" target="_top" xlink:title=" ">
<polygon fill="white" stroke="#666666" points="395,-193.08 289,-193.08 289,-174.08 395,-174.08 395,-193.08"/>
<text text-anchor="middle" x="342" y="-181.08" font-family="Helvetica,sans-Serif" font-size="10.00">handle_parse_failure</text>
</a>
</g>
</g>
<!-- Node1&#45;&gt;Node2 -->
<g id="edge1" class="edge">
<title>Node1&#45;&gt;Node2</title>
<path fill="none" stroke="#63b8ff" d="M581.64,-126.62C575.92,-150.97 562.63,-189.96 534,-207.58 479.21,-241.29 398.82,-210.73 362.31,-193.5"/>
<polygon fill="#63b8ff" stroke="#63b8ff" points="585.05,-127.4 583.67,-116.9 578.2,-125.97 585.05,-127.4"/>
</g>
<!-- Node3 -->
<g id="node3" class="node">
<title>Node3</title>
<g id="a_node3"><a xlink:href="../../dd/d88/classdoris_1_1_jsonb_parser_t.html#a18b040b1124aa085a0ea8433464f823f" target="_top" xlink:title=" ">
<polygon fill="white" stroke="#666666" points="41,-136.08 0,-136.08 0,-117.08 41,-117.08 41,-136.08"/>
<text text-anchor="middle" x="20.5" y="-124.08" font-family="Helvetica,sans-Serif" font-size="10.00">parse</text>
</a>
</g>
</g>
<!-- Node1&#45;&gt;Node3 -->
<g id="edge5" class="edge">
<title>Node1&#45;&gt;Node3</title>
<path fill="none" stroke="#63b8ff" d="M558.48,-107.73C489.7,-113.1 302.4,-126.95 146,-131.58 115.35,-132.48 107.64,-132.95 77,-131.58 65.11,-131.04 51.84,-129.87 41.25,-128.79"/>
<polygon fill="#63b8ff" stroke="#63b8ff" points="558.35,-111.25 568.04,-106.98 557.8,-104.28 558.35,-111.25"/>
</g>
<!-- Node4 -->
<g id="node4" class="node">
<title>Node4</title>
<g id="a_node4"><a xlink:href="../../dd/d88/classdoris_1_1_jsonb_parser_t.html#a7b427638769ac75366efd1380bd8e03e" target="_top" xlink:title=" ">
<polygon fill="white" stroke="#666666" points="534,-198.58 431,-198.58 431,-168.58 534,-168.58 534,-198.58"/>
<text text-anchor="start" x="439" y="-186.58" font-family="Helvetica,sans-Serif" font-size="10.00">handle_parse_value</text>
<text text-anchor="middle" x="482.5" y="-175.58" font-family="Helvetica,sans-Serif" font-size="10.00">_failure</text>
</a>
</g>
</g>
<!-- Node1&#45;&gt;Node4 -->
<g id="edge3" class="edge">
<title>Node1&#45;&gt;Node4</title>
<path fill="none" stroke="#63b8ff" d="M568.69,-123.56C559.05,-133.35 546.42,-145.31 534,-154.58 527.52,-159.41 520.15,-164.06 513.09,-168.16"/>
<polygon fill="#63b8ff" stroke="#63b8ff" points="571.15,-126.05 575.56,-116.42 566.11,-121.19 571.15,-126.05"/>
</g>
<!-- Node5 -->
<g id="node5" class="node">
<title>Node5</title>
<g id="a_node5"><a xlink:href="../../dd/d88/classdoris_1_1_jsonb_parser_t.html#a1b55295e57198ed84646163b32e49a7f" target="_top" xlink:title=" ">
<polygon fill="white" stroke="#666666" points="514.5,-96.08 450.5,-96.08 450.5,-77.08 514.5,-77.08 514.5,-96.08"/>
<text text-anchor="middle" x="482.5" y="-84.08" font-family="Helvetica,sans-Serif" font-size="10.00">parseArray</text>
</a>
</g>
</g>
<!-- Node1&#45;&gt;Node5 -->
<g id="edge6" class="edge">
<title>Node1&#45;&gt;Node5</title>
<path fill="none" stroke="#63b8ff" d="M558.25,-100.5C544.91,-98.02 528.79,-95.01 514.94,-92.43"/>
<polygon fill="#63b8ff" stroke="#63b8ff" points="557.6,-103.94 568.07,-102.33 558.88,-97.06 557.6,-103.94"/>
</g>
<!-- Node8 -->
<g id="node8" class="node">
<title>Node8</title>
<g id="a_node8"><a xlink:href="../../dd/d88/classdoris_1_1_jsonb_parser_t.html#af38dc1677e65b848ac0f88be846107af" target="_top" xlink:title=" ">
<polygon fill="white" stroke="#666666" points="146,-60.08 77,-60.08 77,-41.08 146,-41.08 146,-60.08"/>
<text text-anchor="middle" x="111.5" y="-48.08" font-family="Helvetica,sans-Serif" font-size="10.00">parseObject</text>
</a>
</g>
</g>
<!-- Node1&#45;&gt;Node8 -->
<g id="edge16" class="edge">
<title>Node1&#45;&gt;Node8</title>
<path fill="none" stroke="#63b8ff" d="M575.85,-85.78C567.14,-70.11 552.81,-49.03 534,-37.58 480.45,-4.98 457.44,-19.15 395,-13.58 300.71,-5.16 273.72,10.86 182,-12.58 160.82,-17.99 139.14,-31.34 125.75,-40.68"/>
<polygon fill="#63b8ff" stroke="#63b8ff" points="572.54,-87 580.27,-94.24 578.74,-83.75 572.54,-87"/>
</g>
<!-- Node9 -->
<g id="node9" class="node">
<title>Node9</title>
<g id="a_node9"><a xlink:href="../../dd/d88/classdoris_1_1_jsonb_parser_t.html#a5b64300b6b05b6b6926969a2f1e78950" target="_top" xlink:title=" ">
<polygon fill="white" stroke="#666666" points="371,-42.08 313,-42.08 313,-23.08 371,-23.08 371,-42.08"/>
<text text-anchor="middle" x="342" y="-30.08" font-family="Helvetica,sans-Serif" font-size="10.00">parseKey</text>
</a>
</g>
</g>
<!-- Node1&#45;&gt;Node9 -->
<g id="edge14" class="edge">
<title>Node1&#45;&gt;Node9</title>
<path fill="none" stroke="#63b8ff" d="M566.26,-88.67C557.07,-81.44 545.57,-73.53 534,-68.58 479.41,-45.2 409.6,-36.95 371.31,-34.08"/>
<polygon fill="#63b8ff" stroke="#63b8ff" points="563.8,-91.18 573.74,-94.85 568.26,-85.78 563.8,-91.18"/>
</g>
<!-- Node2&#45;&gt;Node3 -->
<g id="edge2" class="edge">
<title>Node2&#45;&gt;Node3</title>
<path fill="none" stroke="#63b8ff" d="M277.31,-185.59C222.84,-185.5 143.01,-180.98 77,-159.58 61.22,-154.46 45.13,-144.23 34.37,-136.51"/>
<polygon fill="#63b8ff" stroke="#63b8ff" points="277.04,-189.09 287.03,-185.56 277.01,-182.1 277.04,-189.09"/>
</g>
<!-- Node4&#45;&gt;Node2 -->
<g id="edge4" class="edge">
<title>Node4&#45;&gt;Node2</title>
<path fill="none" stroke="#63b8ff" d="M419.4,-183.58C411.31,-183.58 403.08,-183.58 395.17,-183.58"/>
<polygon fill="#63b8ff" stroke="#63b8ff" points="419.2,-187.08 429.2,-183.58 419.2,-180.08 419.2,-187.08"/>
</g>
<!-- Node5&#45;&gt;Node3 -->
<g id="edge7" class="edge">
<title>Node5&#45;&gt;Node3</title>
<path fill="none" stroke="#63b8ff" d="M438.92,-90.28C342.57,-98.66 110.84,-118.81 41.46,-124.84"/>
<polygon fill="#63b8ff" stroke="#63b8ff" points="439.08,-93.78 448.74,-89.43 438.47,-86.81 439.08,-93.78"/>
</g>
<!-- Node6 -->
<g id="node6" class="node">
<title>Node6</title>
<g id="a_node6"><a xlink:href="../../dd/d88/classdoris_1_1_jsonb_parser_t.html#afa23236971e3f6fbbaf4af638ec5b8a1" target="_top" xlink:title=" ">
<polygon fill="white" stroke="#666666" points="374.5,-79.08 309.5,-79.08 309.5,-60.08 374.5,-60.08 374.5,-79.08"/>
<text text-anchor="middle" x="342" y="-67.08" font-family="Helvetica,sans-Serif" font-size="10.00">parseValue</text>
</a>
</g>
</g>
<!-- Node5&#45;&gt;Node6 -->
<g id="edge8" class="edge">
<title>Node5&#45;&gt;Node6</title>
<path fill="none" stroke="#63b8ff" d="M438.73,-75.04C418.09,-71.75 393.75,-68.93 374.78,-67.7"/>
<polygon fill="#63b8ff" stroke="#63b8ff" points="438.14,-78.49 448.58,-76.71 439.31,-71.58 438.14,-78.49"/>
</g>
<!-- Node6&#45;&gt;Node5 -->
<g id="edge9" class="edge">
<title>Node6&#45;&gt;Node5</title>
<path fill="none" stroke="#63b8ff" d="M385.87,-81.13C406.62,-84.43 431.08,-87.26 450.07,-88.48"/>
<polygon fill="#63b8ff" stroke="#63b8ff" points="386.72,-77.73 376.28,-79.51 385.55,-84.63 386.72,-77.73"/>
</g>
<!-- Node7 -->
<g id="node7" class="node">
<title>Node7</title>
<g id="a_node7"><a xlink:href="../../dd/d88/classdoris_1_1_jsonb_parser_t.html#a9946742fe96cf3cda51706cb4d674734" target="_top" xlink:title=" ">
<polygon fill="white" stroke="#666666" points="253,-41.08 182,-41.08 182,-22.08 253,-22.08 253,-41.08"/>
<text text-anchor="middle" x="217.5" y="-29.08" font-family="Helvetica,sans-Serif" font-size="10.00">parseKVPair</text>
</a>
</g>
</g>
<!-- Node6&#45;&gt;Node7 -->
<g id="edge10" class="edge">
<title>Node6&#45;&gt;Node7</title>
<path fill="none" stroke="#63b8ff" d="M298.14,-56.28C282.53,-51.44 265.16,-46.05 250.63,-41.54"/>
<polygon fill="#63b8ff" stroke="#63b8ff" points="297.1,-59.62 307.69,-59.24 299.17,-52.94 297.1,-59.62"/>
</g>
<!-- Node7&#45;&gt;Node8 -->
<g id="edge11" class="edge">
<title>Node7&#45;&gt;Node8</title>
<path fill="none" stroke="#63b8ff" d="M170.4,-40C162.34,-41.47 154.1,-42.98 146.45,-44.38"/>
<polygon fill="#63b8ff" stroke="#63b8ff" points="170.88,-43.47 180.09,-38.23 169.63,-36.58 170.88,-43.47"/>
</g>
<!-- Node8&#45;&gt;Node3 -->
<g id="edge12" class="edge">
<title>Node8&#45;&gt;Node3</title>
<path fill="none" stroke="#63b8ff" d="M90.4,-67.74C72.74,-82.82 47.66,-104.23 33.14,-116.64"/>
<polygon fill="#63b8ff" stroke="#63b8ff" points="92.38,-70.65 97.71,-61.5 87.84,-65.33 92.38,-70.65"/>
</g>
<!-- Node8&#45;&gt;Node6 -->
<g id="edge13" class="edge">
<title>Node8&#45;&gt;Node6</title>
<path fill="none" stroke="#63b8ff" d="M157.65,-54.33C202.41,-58.05 269.83,-63.66 309.23,-66.94"/>
<polygon fill="#63b8ff" stroke="#63b8ff" points="158,-50.85 147.74,-53.51 157.42,-57.82 158,-50.85"/>
</g>
<!-- Node9&#45;&gt;Node7 -->
<g id="edge15" class="edge">
<title>Node9&#45;&gt;Node7</title>
<path fill="none" stroke="#63b8ff" d="M301.26,-32.25C285.81,-32.13 268.26,-31.98 253.32,-31.86"/>
<polygon fill="#63b8ff" stroke="#63b8ff" points="301.05,-35.75 311.07,-32.33 301.1,-28.75 301.05,-35.75"/>
</g>
</g>
</svg>
        <g id="navigator" transform="translate(0 0)" fill="#404254">
                <rect fill="#f2f5e9" fill-opacity="0.5" stroke="#606060" stroke-width=".5" x="0" y="0" width="60" height="60"/>
                <use id="zoomplus" xlink:href="#zoomPlus" x="17" y="9" onmousedown="handleZoom(evt,'in')"/>
                <use id="zoomminus" xlink:href="#zoomMin" x="42" y="9" onmousedown="handleZoom(evt,'out')"/>
                <use id="reset" xlink:href="#resetDef" x="30" y="36" onmousedown="handleReset()"/>
                <g id="arrowUp" xlink:href="#dirArrow" transform="translate(30 24)" onmousedown="handlePan(0,-1)">
                  <use xlink:href="#rim" fill="#404040">
                        <set attributeName="fill" to="#808080" begin="arrowUp.mouseover" end="arrowUp.mouseout"/>
                  </use>
                  <path fill="none" stroke="white" stroke-width="1.5" d="M0,-3.0v7 M-2.5,-0.5L0,-3.0L2.5,-0.5"/>
                </g>
                <g id="arrowRight" xlink:href="#dirArrow" transform="rotate(90) translate(36 -43)" onmousedown="handlePan(1,0)">
                  <use xlink:href="#rim" fill="#404040">
                        <set attributeName="fill" to="#808080" begin="arrowRight.mouseover" end="arrowRight.mouseout"/>
                  </use>
                  <path fill="none" stroke="white" stroke-width="1.5" d="M0,-3.0v7 M-2.5,-0.5L0,-3.0L2.5,-0.5"/>
                </g>
                <g id="arrowDown" xlink:href="#dirArrow" transform="rotate(180) translate(-30 -48)" onmousedown="handlePan(0,1)">
                  <use xlink:href="#rim" fill="#404040">
                        <set attributeName="fill" to="#808080" begin="arrowDown.mouseover" end="arrowDown.mouseout"/>
                  </use>
                  <path fill="none" stroke="white" stroke-width="1.5" d="M0,-3.0v7 M-2.5,-0.5L0,-3.0L2.5,-0.5"/>
                </g>
                <g id="arrowLeft" xlink:href="#dirArrow" transform="rotate(270) translate(-36 17)" onmousedown="handlePan(-1,0)">
                  <use xlink:href="#rim" fill="#404040">
                        <set attributeName="fill" to="#808080" begin="arrowLeft.mouseover" end="arrowLeft.mouseout"/>
                  </use>
                  <path fill="none" stroke="white" stroke-width="1.5" d="M0,-3.0v7 M-2.5,-0.5L0,-3.0L2.5,-0.5"/>
                </g>
        </g>
        <svg viewBox="0 0 15 15" width="100%" height="30px" preserveAspectRatio="xMaxYMin meet">
         <g id="arrow_out" transform="scale(0.3 0.3)">
          <a xlink:href="classdoris_1_1_jsonb_parser_t_a1e0d803f89932473fd91f8a20bc201bf_icgraph_org.svg" target="_base">
           <rect id="button" ry="5" rx="5" y="6" x="6" height="38" width="38"
                fill="#f2f5e9" fill-opacity="0.5" stroke="#606060" stroke-width="1.0"/>
           <path id="arrow"
             d="M 11.500037,31.436501 C 11.940474,20.09759 22.043105,11.32322 32.158766,21.979434 L 37.068811,17.246167 C 37.068811,17.246167 37.088388,32 37.088388,32 L 22.160133,31.978069 C 22.160133,31.978069 26.997745,27.140456 26.997745,27.140456 C 18.528582,18.264221 13.291696,25.230495 11.500037,31.436501 z"
             style="fill:#404040;"/>
          </a>
         </g>
        </svg>
</svg>
