<?xml version="1.0" encoding="UTF-8" standalone="no"?>
<!DOCTYPE svg PUBLIC "-//W3C//DTD SVG 1.1//EN"
 "http://www.w3.org/Graphics/SVG/1.1/DTD/svg11.dtd">
<!-- Generated by graphviz version 7.1.0 (20230121.1956)
 -->
<!-- Title: parseEscape Pages: 1 -->
<svg width="397pt" height="64pt"
 viewBox="0.00 0.00 397.00 64.00" xmlns="http://www.w3.org/2000/svg" xmlns:xlink="http://www.w3.org/1999/xlink">
<g id="graph0" class="graph" transform="scale(1 1) rotate(0) translate(4 60)">
<title>parseEscape</title>
<!-- Node1 -->
<g id="node1" class="node">
<title>Node1</title>
<g id="a_node1"><a xlink:title=" ">
<polygon fill="#999999" stroke="#666666" points="74,-37 0,-37 0,-18 74,-18 74,-37"/>
<text text-anchor="middle" x="37" y="-25" font-family="Helvetica,sans-Serif" font-size="10.00">parseEscape</text>
</a>
</g>
</g>
<!-- Node2 -->
<g id="node2" class="node">
<title>Node2</title>
<g id="a_node2"><a xlink:href="../../dd/d88/classdoris_1_1_jsonb_parser_t.html#a04a7d295f1ddee3c5b313e247bb2a6ec" target="_top" xlink:title=" ">
<polygon fill="white" stroke="#666666" points="170,-56 114,-56 114,-37 170,-37 170,-56"/>
<text text-anchor="middle" x="142" y="-44" font-family="Helvetica,sans-Serif" font-size="10.00">nextChar</text>
</a>
</g>
</g>
<!-- Node1&#45;&gt;Node2 -->
<g id="edge1" class="edge">
<title>Node1&#45;&gt;Node2</title>
<path fill="none" stroke="#63b8ff" d="M74.31,-34.2C83.44,-35.88 93.26,-37.69 102.48,-39.39"/>
<polygon fill="#63b8ff" stroke="#63b8ff" points="101.8,-42.83 112.26,-41.2 103.07,-35.94 101.8,-42.83"/>
</g>
<!-- Node3 -->
<g id="node3" class="node">
<title>Node3</title>
<g id="a_node3"><a xlink:href="../../dd/d88/classdoris_1_1_jsonb_parser_t.html#a3450ee6a080ed8a609a5685e008787a5" target="_top" xlink:title=" ">
<polygon fill="white" stroke="#666666" points="174,-19 110,-19 110,0 174,0 174,-19"/>
<text text-anchor="middle" x="142" y="-7" font-family="Helvetica,sans-Serif" font-size="10.00">parseHex4</text>
</a>
</g>
</g>
<!-- Node1&#45;&gt;Node3 -->
<g id="edge2" class="edge">
<title>Node1&#45;&gt;Node3</title>
<path fill="none" stroke="#63b8ff" d="M74.31,-21.15C82.19,-19.78 90.58,-18.31 98.66,-16.9"/>
<polygon fill="#63b8ff" stroke="#63b8ff" points="99.06,-20.38 108.3,-15.21 97.85,-13.49 99.06,-20.38"/>
</g>
<!-- Node4 -->
<g id="node4" class="node">
<title>Node4</title>
<g id="a_node4"><a xlink:href="../../dd/d88/classdoris_1_1_jsonb_parser_t.html#a2b9e2ff0fbb80a65e6342e67a0cd7b30" target="_top" xlink:title=" ">
<polygon fill="white" stroke="#666666" points="297,-19 210,-19 210,0 297,0 297,-19"/>
<text text-anchor="middle" x="253.5" y="-7" font-family="Helvetica,sans-Serif" font-size="10.00">parseHexHelper</text>
</a>
</g>
</g>
<!-- Node3&#45;&gt;Node4 -->
<g id="edge3" class="edge">
<title>Node3&#45;&gt;Node4</title>
<path fill="none" stroke="#63b8ff" d="M174.38,-9.5C181.85,-9.5 190.04,-9.5 198.22,-9.5"/>
<polygon fill="#63b8ff" stroke="#63b8ff" points="198.18,-13 208.18,-9.5 198.18,-6 198.18,-13"/>
</g>
<!-- Node5 -->
<g id="node5" class="node">
<title>Node5</title>
<g id="a_node5"><a xlink:href="../../dd/d88/classdoris_1_1_jsonb_parser_t.html#a8741ad7870b7e61ff2f8c2cf88f238a2" target="_top" xlink:title=" ">
<polygon fill="white" stroke="#666666" points="389,-19 333,-19 333,0 389,0 389,-19"/>
<text text-anchor="middle" x="361" y="-7" font-family="Helvetica,sans-Serif" font-size="10.00">skipChar</text>
</a>
</g>
</g>
<!-- Node4&#45;&gt;Node5 -->
<g id="edge4" class="edge">
<title>Node4&#45;&gt;Node5</title>
<path fill="none" stroke="#63b8ff" d="M297.41,-9.5C305.29,-9.5 313.47,-9.5 321.22,-9.5"/>
<polygon fill="#63b8ff" stroke="#63b8ff" points="321.04,-13 331.04,-9.5 321.04,-6 321.04,-13"/>
</g>
</g>
</svg>
