<?xml version="1.0" encoding="UTF-8" standalone="no"?>
<!DOCTYPE svg PUBLIC "-//W3C//DTD SVG 1.1//EN"
 "http://www.w3.org/Graphics/SVG/1.1/DTD/svg11.dtd">
<!-- Generated by graphviz version 7.1.0 (20230121.1956)
 -->
<!-- Title: finalize Pages: 1 -->
<!--zoomable 258 -->
<svg id="main" version="1.1" xmlns="http://www.w3.org/2000/svg" xmlns:xlink="http://www.w3.org/1999/xlink" xml:space="preserve" onload="init(evt)">
<style type="text/css"><![CDATA[
.edge:hover path { stroke: red; }
.edge:hover polygon { stroke: red; fill: red; }
]]></style>
<script type="text/javascript"><![CDATA[
var edges = document.getElementsByTagName('g');
if (edges && edges.length) {
  for (var i=0;i<edges.length;i++) {
    if (edges[i].id.substr(0,4)=='edge') {
      edges[i].setAttribute('class','edge');
    }
  }
}
]]></script>
        <defs>
                <circle id="rim" cx="0" cy="0" r="7"/>
                <circle id="rim2" cx="0" cy="0" r="3.5"/>
                <g id="zoomPlus">
                        <use xlink:href="#rim" fill="#404040">
                                <set attributeName="fill" to="#808080" begin="zoomplus.mouseover" end="zoomplus.mouseout"/>
                        </use>
                        <path d="M-4,0h8M0,-4v8" fill="none" stroke="white" stroke-width="1.5" pointer-events="none"/>
                </g>
                <g id="zoomMin">
                        <use xlink:href="#rim" fill="#404040">
                                <set attributeName="fill" to="#808080" begin="zoomminus.mouseover" end="zoomminus.mouseout"/>
                        </use>
                        <path d="M-4,0h8" fill="none" stroke="white" stroke-width="1.5" pointer-events="none"/>
                </g>
                <g id="dirArrow">
                        <path fill="none" stroke="white" stroke-width="1.5" d="M0,-3.0v7 M-2.5,-0.5L0,-3.0L2.5,-0.5"/>
                </g>
               <g id="resetDef">
                       <use xlink:href="#rim2" fill="#404040">
                               <set attributeName="fill" to="#808080" begin="reset.mouseover" end="reset.mouseout"/>
                       </use>
               </g>
        </defs>

<script type="text/javascript">
var viewWidth = 565;
var viewHeight = 258;
var sectionId = 'dynsection-10';
</script>
<script xlink:href="../../svgpan.js"/>
<svg id="graph" class="graph">
<g id="viewport">
<title>finalize</title>
<!-- Node1 -->
<g id="node1" class="node">
<title>Node1</title>
<g id="a_node1"><a xlink:title=" ">
<polygon fill="#999999" stroke="#666666" points="47,-66.27 0,-66.27 0,-47.27 47,-47.27 47,-66.27"/>
<text text-anchor="middle" x="23.5" y="-54.27" font-family="Helvetica,sans-Serif" font-size="10.00">finalize</text>
</a>
</g>
</g>
<!-- Node2 -->
<g id="node2" class="node">
<title>Node2</title>
<g id="a_node2"><a xlink:href="../../db/d17/classdoris_1_1io_1_1_s3_file_writer.html#afcb8396e59ea1d05875364fc5882cee1" target="_top" xlink:title=" ">
<polygon fill="white" stroke="#666666" points="128,-145.27 83,-145.27 83,-126.27 128,-126.27 128,-145.27"/>
<text text-anchor="middle" x="105.5" y="-133.27" font-family="Helvetica,sans-Serif" font-size="10.00">_close</text>
</a>
</g>
</g>
<!-- Node1&#45;&gt;Node2 -->
<g id="edge1" class="edge">
<title>Node1&#45;&gt;Node2</title>
<path fill="none" stroke="#63b8ff" d="M34.31,-66.45C47.26,-79.25 70.32,-102.01 86.46,-117.95"/>
<polygon fill="#63b8ff" stroke="#63b8ff" points="83.96,-120.4 93.53,-124.94 88.88,-115.42 83.96,-120.4"/>
</g>
<!-- Node5 -->
<g id="node5" class="node">
<title>Node5</title>
<g id="a_node5"><a xlink:href="../../d9/d8d/classdoris_1_1_status.html#a6ec1a217f203269ab53d2290d602db24" target="_top" xlink:title=" ">
<polygon fill="white" stroke="#666666" points="414,-212.27 322,-212.27 322,-193.27 414,-193.27 414,-212.27"/>
<text text-anchor="middle" x="368" y="-200.27" font-family="Helvetica,sans-Serif" font-size="10.00">doris::Status::OK</text>
</a>
</g>
</g>
<!-- Node1&#45;&gt;Node5 -->
<g id="edge11" class="edge">
<title>Node1&#45;&gt;Node5</title>
<path fill="none" stroke="#63b8ff" d="M42.45,-46.9C87.5,-23.6 207.39,29.18 286,-21.77 341.67,-57.84 359.42,-142.15 364.8,-181.65"/>
<polygon fill="#63b8ff" stroke="#63b8ff" points="361.32,-181.97 365.99,-191.48 368.27,-181.13 361.32,-181.97"/>
</g>
<!-- Node3 -->
<g id="node3" class="node">
<title>Node3</title>
<g id="a_node3"><a xlink:href="../../db/d17/classdoris_1_1io_1_1_s3_file_writer.html#a7ff41ddcf1ca6bc79370bfb666e2a061" target="_top" xlink:title=" ">
<polygon fill="white" stroke="#666666" points="261,-250.27 189,-250.27 189,-231.27 261,-231.27 261,-250.27"/>
<text text-anchor="middle" x="225" y="-238.27" font-family="Helvetica,sans-Serif" font-size="10.00">_upload_part</text>
</a>
</g>
</g>
<!-- Node2&#45;&gt;Node3 -->
<g id="edge2" class="edge">
<title>Node2&#45;&gt;Node3</title>
<path fill="none" stroke="#63b8ff" d="M111.12,-145.63C119.46,-162.43 138.53,-196.71 164,-216.77 168.57,-220.36 173.74,-223.48 179.09,-226.18"/>
<polygon fill="#63b8ff" stroke="#63b8ff" points="177.54,-229.32 188.1,-230.22 180.41,-222.93 177.54,-229.32"/>
</g>
<!-- Node2&#45;&gt;Node5 -->
<g id="edge10" class="edge">
<title>Node2&#45;&gt;Node5</title>
<path fill="none" stroke="#63b8ff" d="M114.7,-145.5C124.93,-156.89 143.59,-175.27 164,-183.77 210.6,-203.16 268.27,-206.85 310.22,-206.3"/>
<polygon fill="#63b8ff" stroke="#63b8ff" points="310.18,-209.8 320.1,-206.08 310.02,-202.81 310.18,-209.8"/>
</g>
<!-- Node7 -->
<g id="node7" class="node">
<title>Node7</title>
<g id="a_node7"><a xlink:href="../../db/de2/classdoris_1_1_atomic_metric.html#a6c7e8662093760ffbf15dfa08ef03eb2" target="_top" xlink:title=" ">
<polygon fill="white" stroke="#666666" points="275.5,-174.77 174.5,-174.77 174.5,-144.77 275.5,-144.77 275.5,-174.77"/>
<text text-anchor="start" x="182.5" y="-162.77" font-family="Helvetica,sans-Serif" font-size="10.00">doris::AtomicMetric</text>
<text text-anchor="middle" x="225" y="-151.77" font-family="Helvetica,sans-Serif" font-size="10.00">::increment</text>
</a>
</g>
</g>
<!-- Node2&#45;&gt;Node7 -->
<g id="edge6" class="edge">
<title>Node2&#45;&gt;Node7</title>
<path fill="none" stroke="#63b8ff" d="M128.33,-140.22C138.28,-142.26 150.62,-144.78 163.09,-147.32"/>
<polygon fill="#63b8ff" stroke="#63b8ff" points="162.04,-150.68 172.54,-149.25 163.44,-143.82 162.04,-150.68"/>
</g>
<!-- Node8 -->
<g id="node8" class="node">
<title>Node8</title>
<g id="a_node8"><a xlink:href="../../db/d40/classdoris_1_1_core_local_counter.html#a6c7e8662093760ffbf15dfa08ef03eb2" target="_top" xlink:title=" ">
<polygon fill="white" stroke="#666666" points="286,-126.77 164,-126.77 164,-96.77 286,-96.77 286,-126.77"/>
<text text-anchor="start" x="172" y="-114.77" font-family="Helvetica,sans-Serif" font-size="10.00">doris::CoreLocalCounter</text>
<text text-anchor="middle" x="225" y="-103.77" font-family="Helvetica,sans-Serif" font-size="10.00">::increment</text>
</a>
</g>
</g>
<!-- Node2&#45;&gt;Node8 -->
<g id="edge7" class="edge">
<title>Node2&#45;&gt;Node8</title>
<path fill="none" stroke="#63b8ff" d="M128.33,-131.31C135.42,-129.86 143.72,-128.16 152.41,-126.39"/>
<polygon fill="#63b8ff" stroke="#63b8ff" points="153,-129.84 162.09,-124.41 151.6,-122.98 153,-129.84"/>
</g>
<!-- Node9 -->
<g id="node9" class="node">
<title>Node9</title>
<g id="a_node9"><a xlink:href="../../d3/d7b/classdoris_1_1_doris_metrics.html#a4d0ce88513091aec833045b4eddeee8b" target="_top" xlink:title=" ">
<polygon fill="white" stroke="#666666" points="274.5,-60.77 175.5,-60.77 175.5,-30.77 274.5,-30.77 274.5,-60.77"/>
<text text-anchor="start" x="183.5" y="-48.77" font-family="Helvetica,sans-Serif" font-size="10.00">doris::DorisMetrics</text>
<text text-anchor="middle" x="225" y="-37.77" font-family="Helvetica,sans-Serif" font-size="10.00">::instance</text>
</a>
</g>
</g>
<!-- Node2&#45;&gt;Node9 -->
<g id="edge8" class="edge">
<title>Node2&#45;&gt;Node9</title>
<path fill="none" stroke="#63b8ff" d="M117.72,-125.91C129.15,-116 147.48,-100.41 164,-87.77 172.92,-80.94 182.82,-73.83 191.98,-67.43"/>
<polygon fill="#63b8ff" stroke="#63b8ff" points="193.69,-70.51 199.92,-61.94 189.71,-64.75 193.69,-70.51"/>
</g>
<!-- Node4 -->
<g id="node4" class="node">
<title>Node4</title>
<g id="a_node4"><a xlink:href="../../db/d17/classdoris_1_1io_1_1_s3_file_writer.html#a23b01065db3808169181cb775f248028" target="_top" xlink:title=" ">
<polygon fill="white" stroke="#666666" points="407.5,-250.27 328.5,-250.27 328.5,-231.27 407.5,-231.27 407.5,-250.27"/>
<text text-anchor="middle" x="368" y="-238.27" font-family="Helvetica,sans-Serif" font-size="10.00">_reset_stream</text>
</a>
</g>
</g>
<!-- Node3&#45;&gt;Node4 -->
<g id="edge3" class="edge">
<title>Node3&#45;&gt;Node4</title>
<path fill="none" stroke="#63b8ff" d="M261.22,-240.77C277.96,-240.77 298.27,-240.77 316.61,-240.77"/>
<polygon fill="#63b8ff" stroke="#63b8ff" points="316.5,-244.27 326.5,-240.77 316.5,-237.27 316.5,-244.27"/>
</g>
<!-- Node3&#45;&gt;Node5 -->
<g id="edge4" class="edge">
<title>Node3&#45;&gt;Node5</title>
<path fill="none" stroke="#63b8ff" d="M261.22,-231.27C278.81,-226.53 300.35,-220.73 319.39,-215.6"/>
<polygon fill="#63b8ff" stroke="#63b8ff" points="320.06,-219.04 328.8,-213.06 318.24,-212.28 320.06,-219.04"/>
</g>
<!-- Node6 -->
<g id="node6" class="node">
<title>Node6</title>
<g id="a_node6"><a xlink:href="../../d9/d8d/classdoris_1_1_status.html#aafde58df1b2a6a91d5b674373be3ffc5" target="_top" xlink:title=" ">
<polygon fill="white" stroke="#666666" points="557,-212.27 450,-212.27 450,-193.27 557,-193.27 557,-212.27"/>
<text text-anchor="middle" x="503.5" y="-200.27" font-family="Helvetica,sans-Serif" font-size="10.00">doris::Status::Status</text>
</a>
</g>
</g>
<!-- Node5&#45;&gt;Node6 -->
<g id="edge5" class="edge">
<title>Node5&#45;&gt;Node6</title>
<path fill="none" stroke="#63b8ff" d="M414.2,-202.77C421.91,-202.77 430.05,-202.77 438.15,-202.77"/>
<polygon fill="#63b8ff" stroke="#63b8ff" points="438,-206.27 448,-202.77 438,-199.27 438,-206.27"/>
</g>
<!-- Node9&#45;&gt;Node9 -->
<g id="edge9" class="edge">
<title>Node9&#45;&gt;Node9</title>
<path fill="none" stroke="#63b8ff" d="M203.99,-61.04C199.33,-70.17 206.33,-78.77 225,-78.77 235.21,-78.77 241.93,-76.2 245.16,-72.37"/>
<polygon fill="#63b8ff" stroke="#63b8ff" points="248.64,-72.78 245.89,-62.55 241.66,-72.26 248.64,-72.78"/>
</g>
</g>
</svg>
        <g id="navigator" transform="translate(0 0)" fill="#404254">
                <rect fill="#f2f5e9" fill-opacity="0.5" stroke="#606060" stroke-width=".5" x="0" y="0" width="60" height="60"/>
                <use id="zoomplus" xlink:href="#zoomPlus" x="17" y="9" onmousedown="handleZoom(evt,'in')"/>
                <use id="zoomminus" xlink:href="#zoomMin" x="42" y="9" onmousedown="handleZoom(evt,'out')"/>
                <use id="reset" xlink:href="#resetDef" x="30" y="36" onmousedown="handleReset()"/>
                <g id="arrowUp" xlink:href="#dirArrow" transform="translate(30 24)" onmousedown="handlePan(0,-1)">
                  <use xlink:href="#rim" fill="#404040">
                        <set attributeName="fill" to="#808080" begin="arrowUp.mouseover" end="arrowUp.mouseout"/>
                  </use>
                  <path fill="none" stroke="white" stroke-width="1.5" d="M0,-3.0v7 M-2.5,-0.5L0,-3.0L2.5,-0.5"/>
                </g>
                <g id="arrowRight" xlink:href="#dirArrow" transform="rotate(90) translate(36 -43)" onmousedown="handlePan(1,0)">
                  <use xlink:href="#rim" fill="#404040">
                        <set attributeName="fill" to="#808080" begin="arrowRight.mouseover" end="arrowRight.mouseout"/>
                  </use>
                  <path fill="none" stroke="white" stroke-width="1.5" d="M0,-3.0v7 M-2.5,-0.5L0,-3.0L2.5,-0.5"/>
                </g>
                <g id="arrowDown" xlink:href="#dirArrow" transform="rotate(180) translate(-30 -48)" onmousedown="handlePan(0,1)">
                  <use xlink:href="#rim" fill="#404040">
                        <set attributeName="fill" to="#808080" begin="arrowDown.mouseover" end="arrowDown.mouseout"/>
                  </use>
                  <path fill="none" stroke="white" stroke-width="1.5" d="M0,-3.0v7 M-2.5,-0.5L0,-3.0L2.5,-0.5"/>
                </g>
                <g id="arrowLeft" xlink:href="#dirArrow" transform="rotate(270) translate(-36 17)" onmousedown="handlePan(-1,0)">
                  <use xlink:href="#rim" fill="#404040">
                        <set attributeName="fill" to="#808080" begin="arrowLeft.mouseover" end="arrowLeft.mouseout"/>
                  </use>
                  <path fill="none" stroke="white" stroke-width="1.5" d="M0,-3.0v7 M-2.5,-0.5L0,-3.0L2.5,-0.5"/>
                </g>
        </g>
        <svg viewBox="0 0 15 15" width="100%" height="30px" preserveAspectRatio="xMaxYMin meet">
         <g id="arrow_out" transform="scale(0.3 0.3)">
          <a xlink:href="classdoris_1_1io_1_1_s3_file_writer_abc3aa554988c7a508c3203f103b80982_cgraph_org.svg" target="_base">
           <rect id="button" ry="5" rx="5" y="6" x="6" height="38" width="38"
                fill="#f2f5e9" fill-opacity="0.5" stroke="#606060" stroke-width="1.0"/>
           <path id="arrow"
             d="M 11.500037,31.436501 C 11.940474,20.09759 22.043105,11.32322 32.158766,21.979434 L 37.068811,17.246167 C 37.068811,17.246167 37.088388,32 37.088388,32 L 22.160133,31.978069 C 22.160133,31.978069 26.997745,27.140456 26.997745,27.140456 C 18.528582,18.264221 13.291696,25.230495 11.500037,31.436501 z"
             style="fill:#404040;"/>
          </a>
         </g>
        </svg>
</svg>
