<?xml version="1.0" encoding="UTF-8" standalone="no"?>
<!DOCTYPE svg PUBLIC "-//W3C//DTD SVG 1.1//EN"
 "http://www.w3.org/Graphics/SVG/1.1/DTD/svg11.dtd">
<!-- Generated by graphviz version 7.1.0 (20230121.1956)
 -->
<!-- Title: release Pages: 1 -->
<svg width="352pt" height="140pt"
 viewBox="0.00 0.00 352.00 139.50" xmlns="http://www.w3.org/2000/svg" xmlns:xlink="http://www.w3.org/1999/xlink">
<g id="graph0" class="graph" transform="scale(1 1) rotate(0) translate(4 135.5)">
<title>release</title>
<!-- Node1 -->
<g id="node1" class="node">
<title>Node1</title>
<g id="a_node1"><a xlink:title=" ">
<polygon fill="#999999" stroke="#666666" points="344,-88.5 296,-88.5 296,-69.5 344,-69.5 344,-88.5"/>
<text text-anchor="middle" x="320" y="-76.5" font-family="Helvetica,sans-Serif" font-size="10.00">release</text>
</a>
</g>
</g>
<!-- Node2 -->
<g id="node2" class="node">
<title>Node2</title>
<g id="a_node2"><a xlink:href="../../d1/d76/classgscoped__ptr.html#a8a0deb7c57f280a67d0f392d3c31037c" target="_top" xlink:title=" ">
<polygon fill="white" stroke="#666666" points="260,-131.5 153,-131.5 153,-112.5 260,-112.5 260,-131.5"/>
<text text-anchor="middle" x="206.5" y="-119.5" font-family="Helvetica,sans-Serif" font-size="10.00">gscoped_ptr::release</text>
</a>
</g>
</g>
<!-- Node1&#45;&gt;Node2 -->
<g id="edge1" class="edge">
<title>Node1&#45;&gt;Node2</title>
<path fill="none" stroke="#63b8ff" d="M284.89,-93.14C276.76,-96.44 268.09,-99.89 260,-103 252.13,-106.02 243.54,-109.19 235.64,-112.05"/>
<polygon fill="#63b8ff" stroke="#63b8ff" points="286.21,-96.38 294.14,-89.36 283.56,-89.9 286.21,-96.38"/>
</g>
<!-- Node3 -->
<g id="node3" class="node">
<title>Node3</title>
<g id="a_node3"><a xlink:href="../../d2/d08/classgscoped__ptr_3_01_t_0f_0e_00_01_d_01_4.html#a8a0deb7c57f280a67d0f392d3c31037c" target="_top" xlink:title=" ">
<polygon fill="white" stroke="#666666" points="258.5,-94 154.5,-94 154.5,-64 258.5,-64 258.5,-94"/>
<text text-anchor="start" x="162.5" y="-82" font-family="Helvetica,sans-Serif" font-size="10.00">gscoped_ptr&lt; T[], D</text>
<text text-anchor="middle" x="206.5" y="-71" font-family="Helvetica,sans-Serif" font-size="10.00"> &gt;::release</text>
</a>
</g>
</g>
<!-- Node1&#45;&gt;Node3 -->
<g id="edge2" class="edge">
<title>Node1&#45;&gt;Node3</title>
<path fill="none" stroke="#63b8ff" d="M284.37,-79C276.28,-79 267.5,-79 258.86,-79"/>
<polygon fill="#63b8ff" stroke="#63b8ff" points="284.11,-82.5 294.11,-79 284.11,-75.5 284.11,-82.5"/>
</g>
<!-- Node4 -->
<g id="node4" class="node">
<title>Node4</title>
<g id="a_node4"><a xlink:href="../../da/dc3/classdoris_1_1internal_1_1gscoped__ptr__impl.html#a3e2b8a313e40a04f23a52960819468bb" target="_top" xlink:title=" ">
<polygon fill="white" stroke="#666666" points="237,-45.5 176,-45.5 176,-26.5 237,-26.5 237,-45.5"/>
<text text-anchor="middle" x="206.5" y="-33.5" font-family="Helvetica,sans-Serif" font-size="10.00">TakeState</text>
</a>
</g>
</g>
<!-- Node1&#45;&gt;Node4 -->
<g id="edge3" class="edge">
<title>Node1&#45;&gt;Node4</title>
<path fill="none" stroke="#63b8ff" d="M284.89,-64.86C276.76,-61.56 268.09,-58.11 260,-55 252.13,-51.98 243.54,-48.81 235.64,-45.95"/>
<polygon fill="#63b8ff" stroke="#63b8ff" points="283.56,-68.1 294.14,-68.64 286.21,-61.62 283.56,-68.1"/>
</g>
<!-- Node5 -->
<g id="node5" class="node">
<title>Node5</title>
<g id="a_node5"><a xlink:href="../../d1/d76/classgscoped__ptr.html#a9d48eeb8972746442597147b72ff58d5" target="_top" xlink:title=" ">
<polygon fill="white" stroke="#666666" points="117,-67.5 0,-67.5 0,-48.5 117,-48.5 117,-67.5"/>
<text text-anchor="middle" x="58.5" y="-55.5" font-family="Helvetica,sans-Serif" font-size="10.00">gscoped_ptr::operator=</text>
</a>
</g>
</g>
<!-- Node4&#45;&gt;Node5 -->
<g id="edge4" class="edge">
<title>Node4&#45;&gt;Node5</title>
<path fill="none" stroke="#63b8ff" d="M164.42,-42.19C149.83,-44.39 133.13,-46.9 117.41,-49.27"/>
<polygon fill="#63b8ff" stroke="#63b8ff" points="164.74,-45.68 174.11,-40.73 163.7,-38.76 164.74,-45.68"/>
</g>
<!-- Node6 -->
<g id="node6" class="node">
<title>Node6</title>
<g id="a_node6"><a xlink:href="../../d2/d08/classgscoped__ptr_3_01_t_0f_0e_00_01_d_01_4.html#a8c1500839b5561e4a7897d7e1160b9d0" target="_top" xlink:title=" ">
<polygon fill="white" stroke="#666666" points="110.5,-30 6.5,-30 6.5,0 110.5,0 110.5,-30"/>
<text text-anchor="start" x="14.5" y="-18" font-family="Helvetica,sans-Serif" font-size="10.00">gscoped_ptr&lt; T[], D</text>
<text text-anchor="middle" x="58.5" y="-7" font-family="Helvetica,sans-Serif" font-size="10.00"> &gt;::operator=</text>
</a>
</g>
</g>
<!-- Node4&#45;&gt;Node6 -->
<g id="edge5" class="edge">
<title>Node4&#45;&gt;Node6</title>
<path fill="none" stroke="#63b8ff" d="M164.58,-30.11C147.94,-27.72 128.52,-24.93 110.93,-22.4"/>
<polygon fill="#63b8ff" stroke="#63b8ff" points="163.71,-33.52 174.1,-31.48 164.7,-26.6 163.71,-33.52"/>
</g>
</g>
</svg>
