<?xml version="1.0" encoding="UTF-8" standalone="no"?>
<!DOCTYPE svg PUBLIC "-//W3C//DTD SVG 1.1//EN"
 "http://www.w3.org/Graphics/SVG/1.1/DTD/svg11.dtd">
<!-- Generated by graphviz version 7.1.0 (20230121.1956)
 -->
<!-- Title: JoinKeysAndValuesIterator Pages: 1 -->
<svg width="410pt" height="27pt"
 viewBox="0.00 0.00 410.00 27.00" xmlns="http://www.w3.org/2000/svg" xmlns:xlink="http://www.w3.org/1999/xlink">
<g id="graph0" class="graph" transform="scale(1 1) rotate(0) translate(4 23)">
<title>JoinKeysAndValuesIterator</title>
<!-- Node1 -->
<g id="node1" class="node">
<title>Node1</title>
<g id="a_node1"><a xlink:title=" ">
<polygon fill="#999999" stroke="#666666" points="134,-19 0,-19 0,0 134,0 134,-19"/>
<text text-anchor="middle" x="67" y="-7" font-family="Helvetica,sans-Serif" font-size="10.00">JoinKeysAndValuesIterator</text>
</a>
</g>
</g>
<!-- Node2 -->
<g id="node2" class="node">
<title>Node2</title>
<g id="a_node2"><a xlink:href="../../d9/d61/join_8h.html#ab0cfda3e26f490db12ec8ca56849ef30" target="_top" xlink:title=" ">
<polygon fill="white" stroke="#666666" points="304,-19 170,-19 170,0 304,0 304,-19"/>
<text text-anchor="middle" x="237" y="-7" font-family="Helvetica,sans-Serif" font-size="10.00">JoinKeysAndValuesIterator</text>
</a>
</g>
</g>
<!-- Node1&#45;&gt;Node2 -->
<g id="edge1" class="edge">
<title>Node1&#45;&gt;Node2</title>
<path fill="none" stroke="#63b8ff" d="M134.4,-9.5C142.16,-9.5 150.14,-9.5 158.04,-9.5"/>
<polygon fill="#63b8ff" stroke="#63b8ff" points="158.02,-13 168.02,-9.5 158.02,-6 158.02,-13"/>
</g>
<!-- Node3 -->
<g id="node3" class="node">
<title>Node3</title>
<g id="a_node3"><a xlink:href="../../d6/dc8/strcat_8cc.html#a75606f847a905d124450cda67eba55a9" target="_top" xlink:title=" ">
<polygon fill="white" stroke="#666666" points="402,-19 340,-19 340,0 402,0 402,-19"/>
<text text-anchor="middle" x="371" y="-7" font-family="Helvetica,sans-Serif" font-size="10.00">StrAppend</text>
</a>
</g>
</g>
<!-- Node2&#45;&gt;Node3 -->
<g id="edge2" class="edge">
<title>Node2&#45;&gt;Node3</title>
<path fill="none" stroke="#63b8ff" d="M304.39,-9.5C312.48,-9.5 320.56,-9.5 328.15,-9.5"/>
<polygon fill="#63b8ff" stroke="#63b8ff" points="328.08,-13 338.08,-9.5 328.08,-6 328.08,-13"/>
</g>
</g>
</svg>
