<?xml version="1.0" encoding="UTF-8" standalone="no"?>
<!DOCTYPE svg PUBLIC "-//W3C//DTD SVG 1.1//EN"
 "http://www.w3.org/Graphics/SVG/1.1/DTD/svg11.dtd">
<!-- Generated by graphviz version 7.1.0 (20230121.1956)
 -->
<!-- Title: /Users/dabowang/be_all/env/env.cpp Pages: 1 -->
<!--zoomable 258 -->
<svg id="main" version="1.1" xmlns="http://www.w3.org/2000/svg" xmlns:xlink="http://www.w3.org/1999/xlink" xml:space="preserve" onload="init(evt)">
<style type="text/css"><![CDATA[
.edge:hover path { stroke: red; }
.edge:hover polygon { stroke: red; fill: red; }
]]></style>
<script type="text/javascript"><![CDATA[
var edges = document.getElementsByTagName('g');
if (edges && edges.length) {
  for (var i=0;i<edges.length;i++) {
    if (edges[i].id.substr(0,4)=='edge') {
      edges[i].setAttribute('class','edge');
    }
  }
}
]]></script>
        <defs>
                <circle id="rim" cx="0" cy="0" r="7"/>
                <circle id="rim2" cx="0" cy="0" r="3.5"/>
                <g id="zoomPlus">
                        <use xlink:href="#rim" fill="#404040">
                                <set attributeName="fill" to="#808080" begin="zoomplus.mouseover" end="zoomplus.mouseout"/>
                        </use>
                        <path d="M-4,0h8M0,-4v8" fill="none" stroke="white" stroke-width="1.5" pointer-events="none"/>
                </g>
                <g id="zoomMin">
                        <use xlink:href="#rim" fill="#404040">
                                <set attributeName="fill" to="#808080" begin="zoomminus.mouseover" end="zoomminus.mouseout"/>
                        </use>
                        <path d="M-4,0h8" fill="none" stroke="white" stroke-width="1.5" pointer-events="none"/>
                </g>
                <g id="dirArrow">
                        <path fill="none" stroke="white" stroke-width="1.5" d="M0,-3.0v7 M-2.5,-0.5L0,-3.0L2.5,-0.5"/>
                </g>
               <g id="resetDef">
                       <use xlink:href="#rim2" fill="#404040">
                               <set attributeName="fill" to="#808080" begin="reset.mouseover" end="reset.mouseout"/>
                       </use>
               </g>
        </defs>

<script type="text/javascript">
var viewWidth = 1058;
var viewHeight = 258;
var sectionId = 'dynsection-0';
</script>
<script xlink:href="../../svgpan.js"/>
<svg id="graph" class="graph">
<g id="viewport">
<title>/Users/dabowang/be_all/env/env.cpp</title>
<!-- Node1 -->
<g id="node1" class="node">
<title>Node1</title>
<g id="a_node1"><a xlink:title=" ">
<polygon fill="#999999" stroke="#666666" points="620,-250 513,-250 513,-220 620,-220 620,-250"/>
<text text-anchor="start" x="521" y="-238" font-family="Helvetica,sans-Serif" font-size="10.00">/Users/dabowang/be</text>
<text text-anchor="middle" x="566.5" y="-227" font-family="Helvetica,sans-Serif" font-size="10.00">_all/env/env.cpp</text>
</a>
</g>
</g>
<!-- Node2 -->
<g id="node2" class="node">
<title>Node2</title>
<g id="a_node2"><a xlink:href="../../d5/d81/env_8h.html" target="_top" xlink:title=" ">
<polygon fill="white" stroke="#666666" points="595.5,-129 537.5,-129 537.5,-110 595.5,-110 595.5,-129"/>
<text text-anchor="middle" x="566.5" y="-117" font-family="Helvetica,sans-Serif" font-size="10.00">env/env.h</text>
</a>
</g>
</g>
<!-- Node1&#45;&gt;Node2 -->
<g id="edge1" class="edge">
<title>Node1&#45;&gt;Node2</title>
<path fill="none" stroke="#63b8ff" d="M559.26,-219.57C553.18,-205.68 545.99,-184.05 549.5,-165 551.07,-156.47 554.21,-147.45 557.37,-139.79"/>
<polygon fill="#63b8ff" stroke="#63b8ff" points="560.5,-141.36 561.36,-130.8 554.1,-138.52 560.5,-141.36"/>
</g>
<!-- Node22 -->
<g id="node22" class="node">
<title>Node22</title>
<g id="a_node22"><a xlink:href="../../db/d0e/env__posix_8h.html" target="_top" xlink:title=" ">
<polygon fill="white" stroke="#666666" points="646.5,-184 558.5,-184 558.5,-165 646.5,-165 646.5,-184"/>
<text text-anchor="middle" x="602.5" y="-172" font-family="Helvetica,sans-Serif" font-size="10.00">env/env_posix.h</text>
</a>
</g>
</g>
<!-- Node1&#45;&gt;Node22 -->
<g id="edge24" class="edge">
<title>Node1&#45;&gt;Node22</title>
<path fill="none" stroke="#63b8ff" d="M575.4,-219.54C580.2,-211.74 586.18,-202.03 591.29,-193.71"/>
<polygon fill="#63b8ff" stroke="#63b8ff" points="594.11,-195.82 596.37,-185.46 588.15,-192.15 594.11,-195.82"/>
</g>
<!-- Node3 -->
<g id="node3" class="node">
<title>Node3</title>
<g id="a_node3"><a xlink:title=" ">
<polygon fill="#e0e0e0" stroke="#999999" points="358,-74 329,-74 329,-55 358,-55 358,-74"/>
<text text-anchor="middle" x="343.5" y="-62" font-family="Helvetica,sans-Serif" font-size="10.00">list</text>
</a>
</g>
</g>
<!-- Node2&#45;&gt;Node3 -->
<g id="edge2" class="edge">
<title>Node2&#45;&gt;Node3</title>
<path fill="none" stroke="#63b8ff" d="M537.22,-113.1C500.23,-106.03 434.45,-92.64 369.26,-74.21"/>
<polygon fill="#63b8ff" stroke="#63b8ff" points="370.42,-70.9 359.84,-71.5 368.49,-77.63 370.42,-70.9"/>
</g>
<!-- Node4 -->
<g id="node4" class="node">
<title>Node4</title>
<g id="a_node4"><a xlink:title=" ">
<polygon fill="#e0e0e0" stroke="#999999" points="428.5,-74 376.5,-74 376.5,-55 428.5,-55 428.5,-74"/>
<text text-anchor="middle" x="402.5" y="-62" font-family="Helvetica,sans-Serif" font-size="10.00">memory</text>
</a>
</g>
</g>
<!-- Node2&#45;&gt;Node4 -->
<g id="edge3" class="edge">
<title>Node2&#45;&gt;Node4</title>
<path fill="none" stroke="#63b8ff" d="M538.68,-109.51C511.45,-100.71 469.8,-87.25 439.73,-77.53"/>
<polygon fill="#63b8ff" stroke="#63b8ff" points="440.86,-74.22 430.27,-74.47 438.71,-80.88 440.86,-74.22"/>
</g>
<!-- Node5 -->
<g id="node5" class="node">
<title>Node5</title>
<g id="a_node5"><a xlink:title=" ">
<polygon fill="#e0e0e0" stroke="#999999" points="587,-19 546,-19 546,0 587,0 587,-19"/>
<text text-anchor="middle" x="566.5" y="-7" font-family="Helvetica,sans-Serif" font-size="10.00">string</text>
</a>
</g>
</g>
<!-- Node2&#45;&gt;Node5 -->
<g id="edge4" class="edge">
<title>Node2&#45;&gt;Node5</title>
<path fill="none" stroke="#63b8ff" d="M566.5,-109.66C566.5,-92.57 566.5,-54.61 566.5,-30.92"/>
<polygon fill="#63b8ff" stroke="#63b8ff" points="570,-30.97 566.5,-20.97 563,-30.97 570,-30.97"/>
</g>
<!-- Node6 -->
<g id="node6" class="node">
<title>Node6</title>
<g id="a_node6"><a xlink:href="../../d1/d13/status_8h.html" target="_top" xlink:title=" ">
<polygon fill="white" stroke="#666666" points="538.5,-74 446.5,-74 446.5,-55 538.5,-55 538.5,-74"/>
<text text-anchor="middle" x="492.5" y="-62" font-family="Helvetica,sans-Serif" font-size="10.00">common/status.h</text>
</a>
</g>
</g>
<!-- Node2&#45;&gt;Node6 -->
<g id="edge5" class="edge">
<title>Node2&#45;&gt;Node6</title>
<path fill="none" stroke="#63b8ff" d="M553.95,-109.51C543.04,-101.7 527,-90.21 514.04,-80.93"/>
<polygon fill="#63b8ff" stroke="#63b8ff" points="516.27,-78.22 506.1,-75.24 512.19,-83.91 516.27,-78.22"/>
</g>
<!-- Node13 -->
<g id="node13" class="node">
<title>Node13</title>
<g id="a_node13"><a xlink:title=" ">
<polygon fill="#e0e0e0" stroke="#999999" points="871.5,-74 751.5,-74 751.5,-55 871.5,-55 871.5,-74"/>
<text text-anchor="middle" x="811.5" y="-62" font-family="Helvetica,sans-Serif" font-size="10.00">gen_cpp/Types_types.h</text>
</a>
</g>
</g>
<!-- Node2&#45;&gt;Node13 -->
<g id="edge13" class="edge">
<title>Node2&#45;&gt;Node13</title>
<path fill="none" stroke="#63b8ff" d="M595.57,-112.21C635.78,-103.51 709.08,-87.66 759.01,-76.85"/>
<polygon fill="#63b8ff" stroke="#63b8ff" points="759.72,-80.28 768.75,-74.75 758.24,-73.44 759.72,-80.28"/>
</g>
<!-- Node14 -->
<g id="node14" class="node">
<title>Node14</title>
<g id="a_node14"><a xlink:title=" ">
<polygon fill="#e0e0e0" stroke="#999999" points="1003.5,-74 889.5,-74 889.5,-55 1003.5,-55 1003.5,-74"/>
<text text-anchor="middle" x="946.5" y="-62" font-family="Helvetica,sans-Serif" font-size="10.00">gen_cpp/olap_file.pb.h</text>
</a>
</g>
</g>
<!-- Node2&#45;&gt;Node14 -->
<g id="edge14" class="edge">
<title>Node2&#45;&gt;Node14</title>
<path fill="none" stroke="#63b8ff" d="M595.69,-114.43C655.67,-106.06 794.19,-86.74 878.12,-75.04"/>
<polygon fill="#63b8ff" stroke="#63b8ff" points="878.41,-78.53 887.83,-73.68 877.44,-71.6 878.41,-78.53"/>
</g>
<!-- Node15 -->
<g id="node15" class="node">
<title>Node15</title>
<g id="a_node15"><a xlink:href="../../d0/d48/slice_8h.html" target="_top" xlink:title=" ">
<polygon fill="white" stroke="#666666" points="733,-74 672,-74 672,-55 733,-55 733,-74"/>
<text text-anchor="middle" x="702.5" y="-62" font-family="Helvetica,sans-Serif" font-size="10.00">util/slice.h</text>
</a>
</g>
</g>
<!-- Node2&#45;&gt;Node15 -->
<g id="edge15" class="edge">
<title>Node2&#45;&gt;Node15</title>
<path fill="none" stroke="#63b8ff" d="M589.57,-109.51C611.39,-101.01 644.38,-88.15 669.08,-78.53"/>
<polygon fill="#63b8ff" stroke="#63b8ff" points="670.31,-81.8 678.36,-74.91 667.77,-75.28 670.31,-81.8"/>
</g>
<!-- Node6&#45;&gt;Node5 -->
<g id="edge9" class="edge">
<title>Node6&#45;&gt;Node5</title>
<path fill="none" stroke="#63b8ff" d="M505.05,-54.51C515.96,-46.7 532,-35.21 544.96,-25.93"/>
<polygon fill="#63b8ff" stroke="#63b8ff" points="546.81,-28.91 552.9,-20.24 542.73,-23.22 546.81,-28.91"/>
</g>
<!-- Node7 -->
<g id="node7" class="node">
<title>Node7</title>
<g id="a_node7"><a xlink:title=" ">
<polygon fill="#e0e0e0" stroke="#999999" points="527.5,-19 457.5,-19 457.5,0 527.5,0 527.5,-19"/>
<text text-anchor="middle" x="492.5" y="-7" font-family="Helvetica,sans-Serif" font-size="10.00">fmt/format.h</text>
</a>
</g>
</g>
<!-- Node6&#45;&gt;Node7 -->
<g id="edge6" class="edge">
<title>Node6&#45;&gt;Node7</title>
<path fill="none" stroke="#63b8ff" d="M492.5,-54.75C492.5,-48.27 492.5,-39.16 492.5,-30.9"/>
<polygon fill="#63b8ff" stroke="#63b8ff" points="496,-30.96 492.5,-20.96 489,-30.96 496,-30.96"/>
</g>
<!-- Node8 -->
<g id="node8" class="node">
<title>Node8</title>
<g id="a_node8"><a xlink:title=" ">
<polygon fill="#e0e0e0" stroke="#999999" points="77,-19 0,-19 0,0 77,0 77,-19"/>
<text text-anchor="middle" x="38.5" y="-7" font-family="Helvetica,sans-Serif" font-size="10.00">glog/logging.h</text>
</a>
</g>
</g>
<!-- Node6&#45;&gt;Node8 -->
<g id="edge7" class="edge">
<title>Node6&#45;&gt;Node8</title>
<path fill="none" stroke="#63b8ff" d="M446.01,-56.14C443.13,-55.74 440.28,-55.36 437.5,-55 285.61,-35.49 243.76,-40.44 88.85,-19.22"/>
<polygon fill="#63b8ff" stroke="#63b8ff" points="89.38,-15.76 78.99,-17.86 88.42,-22.7 89.38,-15.76"/>
</g>
<!-- Node9 -->
<g id="node9" class="node">
<title>Node9</title>
<g id="a_node9"><a xlink:title=" ">
<polygon fill="#e0e0e0" stroke="#999999" points="659.5,-19 605.5,-19 605.5,0 659.5,0 659.5,-19"/>
<text text-anchor="middle" x="632.5" y="-7" font-family="Helvetica,sans-Serif" font-size="10.00">iostream</text>
</a>
</g>
</g>
<!-- Node6&#45;&gt;Node9 -->
<g id="edge8" class="edge">
<title>Node6&#45;&gt;Node9</title>
<path fill="none" stroke="#63b8ff" d="M516.25,-54.51C538.81,-45.97 572.97,-33.03 598.44,-23.4"/>
<polygon fill="#63b8ff" stroke="#63b8ff" points="599.57,-26.71 607.69,-19.89 597.09,-20.16 599.57,-26.71"/>
</g>
<!-- Node10 -->
<g id="node10" class="node">
<title>Node10</title>
<g id="a_node10"><a xlink:title=" ">
<polygon fill="#e0e0e0" stroke="#999999" points="161.5,-19 95.5,-19 95.5,0 161.5,0 161.5,-19"/>
<text text-anchor="middle" x="128.5" y="-7" font-family="Helvetica,sans-Serif" font-size="10.00">string_view</text>
</a>
</g>
</g>
<!-- Node6&#45;&gt;Node10 -->
<g id="edge10" class="edge">
<title>Node6&#45;&gt;Node10</title>
<path fill="none" stroke="#63b8ff" d="M446.3,-56.29C443.32,-55.85 440.37,-55.42 437.5,-55 322.58,-38.37 290.5,-38.84 173.18,-19.36"/>
<polygon fill="#63b8ff" stroke="#63b8ff" points="173.87,-15.92 163.43,-17.72 172.71,-22.83 173.87,-15.92"/>
</g>
<!-- Node11 -->
<g id="node11" class="node">
<title>Node11</title>
<g id="a_node11"><a xlink:href="../../d4/d10/compiler__util_8h.html" target="_top" xlink:title=" ">
<polygon fill="white" stroke="#666666" points="299.5,-19 179.5,-19 179.5,0 299.5,0 299.5,-19"/>
<text text-anchor="middle" x="239.5" y="-7" font-family="Helvetica,sans-Serif" font-size="10.00">common/compiler_util.h</text>
</a>
</g>
</g>
<!-- Node6&#45;&gt;Node11 -->
<g id="edge11" class="edge">
<title>Node6&#45;&gt;Node11</title>
<path fill="none" stroke="#63b8ff" d="M449.58,-54.51C406.47,-45.48 339.92,-31.54 293.31,-21.77"/>
<polygon fill="#63b8ff" stroke="#63b8ff" points="294.19,-18.38 283.69,-19.76 292.76,-25.23 294.19,-18.38"/>
</g>
<!-- Node12 -->
<g id="node12" class="node">
<title>Node12</title>
<g id="a_node12"><a xlink:title=" ">
<polygon fill="#e0e0e0" stroke="#999999" points="439.5,-19 317.5,-19 317.5,0 439.5,0 439.5,-19"/>
<text text-anchor="middle" x="378.5" y="-7" font-family="Helvetica,sans-Serif" font-size="10.00">gen_cpp/Status_types.h</text>
</a>
</g>
</g>
<!-- Node6&#45;&gt;Node12 -->
<g id="edge12" class="edge">
<title>Node6&#45;&gt;Node12</title>
<path fill="none" stroke="#63b8ff" d="M473.16,-54.51C455.28,-46.2 428.46,-33.73 407.93,-24.18"/>
<polygon fill="#63b8ff" stroke="#63b8ff" points="409.47,-21.04 398.93,-20 406.52,-27.39 409.47,-21.04"/>
</g>
<!-- Node15&#45;&gt;Node5 -->
<g id="edge22" class="edge">
<title>Node15&#45;&gt;Node5</title>
<path fill="none" stroke="#63b8ff" d="M679.43,-54.51C657.09,-45.8 623.03,-32.53 598.15,-22.84"/>
<polygon fill="#63b8ff" stroke="#63b8ff" points="599.45,-19.58 588.86,-19.21 596.9,-26.11 599.45,-19.58"/>
</g>
<!-- Node15&#45;&gt;Node9 -->
<g id="edge20" class="edge">
<title>Node15&#45;&gt;Node9</title>
<path fill="none" stroke="#63b8ff" d="M690.63,-54.51C680.41,-46.77 665.43,-35.43 653.24,-26.2"/>
<polygon fill="#63b8ff" stroke="#63b8ff" points="655.49,-23.52 645.41,-20.27 651.27,-29.1 655.49,-23.52"/>
</g>
<!-- Node16 -->
<g id="node16" class="node">
<title>Node16</title>
<g id="a_node16"><a xlink:title=" ">
<polygon fill="#e0e0e0" stroke="#999999" points="912.5,-19 860.5,-19 860.5,0 912.5,0 912.5,-19"/>
<text text-anchor="middle" x="886.5" y="-7" font-family="Helvetica,sans-Serif" font-size="10.00">assert.h</text>
</a>
</g>
</g>
<!-- Node15&#45;&gt;Node16 -->
<g id="edge16" class="edge">
<title>Node15&#45;&gt;Node16</title>
<path fill="none" stroke="#63b8ff" d="M733.3,-54.63C765.19,-45.44 815.05,-31.08 849.16,-21.25"/>
<polygon fill="#63b8ff" stroke="#63b8ff" points="849.99,-24.66 858.63,-18.53 848.05,-17.93 849.99,-24.66"/>
</g>
<!-- Node17 -->
<g id="node17" class="node">
<title>Node17</title>
<g id="a_node17"><a xlink:title=" ">
<polygon fill="#e0e0e0" stroke="#999999" points="982.5,-19 930.5,-19 930.5,0 982.5,0 982.5,-19"/>
<text text-anchor="middle" x="956.5" y="-7" font-family="Helvetica,sans-Serif" font-size="10.00">stddef.h</text>
</a>
</g>
</g>
<!-- Node15&#45;&gt;Node17 -->
<g id="edge17" class="edge">
<title>Node15&#45;&gt;Node17</title>
<path fill="none" stroke="#63b8ff" d="M733.07,-56.97C736.25,-56.3 739.44,-55.63 742.5,-55 818.55,-39.27 840.42,-36.78 919.19,-19.44"/>
<polygon fill="#63b8ff" stroke="#63b8ff" points="919.67,-22.92 928.68,-17.34 918.15,-16.09 919.67,-22.92"/>
</g>
<!-- Node18 -->
<g id="node18" class="node">
<title>Node18</title>
<g id="a_node18"><a xlink:title=" ">
<polygon fill="#e0e0e0" stroke="#999999" points="1050,-19 1001,-19 1001,0 1050,0 1050,-19"/>
<text text-anchor="middle" x="1025.5" y="-7" font-family="Helvetica,sans-Serif" font-size="10.00">stdint.h</text>
</a>
</g>
</g>
<!-- Node15&#45;&gt;Node18 -->
<g id="edge18" class="edge">
<title>Node15&#45;&gt;Node18</title>
<path fill="none" stroke="#63b8ff" d="M733.47,-56.71C736.52,-56.1 739.56,-55.52 742.5,-55 849.03,-36 879.82,-40.28 989.46,-19.2"/>
<polygon fill="#63b8ff" stroke="#63b8ff" points="990.05,-22.65 999.2,-17.3 988.71,-15.78 990.05,-22.65"/>
</g>
<!-- Node19 -->
<g id="node19" class="node">
<title>Node19</title>
<g id="a_node19"><a xlink:title=" ">
<polygon fill="#e0e0e0" stroke="#999999" points="727,-19 678,-19 678,0 727,0 727,-19"/>
<text text-anchor="middle" x="702.5" y="-7" font-family="Helvetica,sans-Serif" font-size="10.00">string.h</text>
</a>
</g>
</g>
<!-- Node15&#45;&gt;Node19 -->
<g id="edge19" class="edge">
<title>Node15&#45;&gt;Node19</title>
<path fill="none" stroke="#63b8ff" d="M702.5,-54.75C702.5,-48.27 702.5,-39.16 702.5,-30.9"/>
<polygon fill="#63b8ff" stroke="#63b8ff" points="706,-30.96 702.5,-20.96 699,-30.96 706,-30.96"/>
</g>
<!-- Node20 -->
<g id="node20" class="node">
<title>Node20</title>
<g id="a_node20"><a xlink:title=" ">
<polygon fill="#e0e0e0" stroke="#999999" points="780,-19 745,-19 745,0 780,0 780,-19"/>
<text text-anchor="middle" x="762.5" y="-7" font-family="Helvetica,sans-Serif" font-size="10.00">map</text>
</a>
</g>
</g>
<!-- Node15&#45;&gt;Node20 -->
<g id="edge21" class="edge">
<title>Node15&#45;&gt;Node20</title>
<path fill="none" stroke="#63b8ff" d="M712.68,-54.51C721.26,-46.93 733.77,-35.88 744.1,-26.75"/>
<polygon fill="#63b8ff" stroke="#63b8ff" points="746.16,-29.6 751.34,-20.36 741.53,-24.36 746.16,-29.6"/>
</g>
<!-- Node21 -->
<g id="node21" class="node">
<title>Node21</title>
<g id="a_node21"><a xlink:title=" ">
<polygon fill="#e0e0e0" stroke="#999999" points="842.5,-19 798.5,-19 798.5,0 842.5,0 842.5,-19"/>
<text text-anchor="middle" x="820.5" y="-7" font-family="Helvetica,sans-Serif" font-size="10.00">vector</text>
</a>
</g>
</g>
<!-- Node15&#45;&gt;Node21 -->
<g id="edge23" class="edge">
<title>Node15&#45;&gt;Node21</title>
<path fill="none" stroke="#63b8ff" d="M722.52,-54.51C741.11,-46.16 769.04,-33.61 790.33,-24.05"/>
<polygon fill="#63b8ff" stroke="#63b8ff" points="791.71,-27.27 799.4,-19.98 788.84,-20.88 791.71,-27.27"/>
</g>
<!-- Node22&#45;&gt;Node2 -->
<g id="edge25" class="edge">
<title>Node22&#45;&gt;Node2</title>
<path fill="none" stroke="#63b8ff" d="M596.56,-164.75C591.79,-157.73 584.94,-147.64 578.98,-138.87"/>
<polygon fill="#63b8ff" stroke="#63b8ff" points="581.94,-137 573.42,-130.69 576.15,-140.93 581.94,-137"/>
</g>
</g>
</svg>
        <g id="navigator" transform="translate(0 0)" fill="#404254">
                <rect fill="#f2f5e9" fill-opacity="0.5" stroke="#606060" stroke-width=".5" x="0" y="0" width="60" height="60"/>
                <use id="zoomplus" xlink:href="#zoomPlus" x="17" y="9" onmousedown="handleZoom(evt,'in')"/>
                <use id="zoomminus" xlink:href="#zoomMin" x="42" y="9" onmousedown="handleZoom(evt,'out')"/>
                <use id="reset" xlink:href="#resetDef" x="30" y="36" onmousedown="handleReset()"/>
                <g id="arrowUp" xlink:href="#dirArrow" transform="translate(30 24)" onmousedown="handlePan(0,-1)">
                  <use xlink:href="#rim" fill="#404040">
                        <set attributeName="fill" to="#808080" begin="arrowUp.mouseover" end="arrowUp.mouseout"/>
                  </use>
                  <path fill="none" stroke="white" stroke-width="1.5" d="M0,-3.0v7 M-2.5,-0.5L0,-3.0L2.5,-0.5"/>
                </g>
                <g id="arrowRight" xlink:href="#dirArrow" transform="rotate(90) translate(36 -43)" onmousedown="handlePan(1,0)">
                  <use xlink:href="#rim" fill="#404040">
                        <set attributeName="fill" to="#808080" begin="arrowRight.mouseover" end="arrowRight.mouseout"/>
                  </use>
                  <path fill="none" stroke="white" stroke-width="1.5" d="M0,-3.0v7 M-2.5,-0.5L0,-3.0L2.5,-0.5"/>
                </g>
                <g id="arrowDown" xlink:href="#dirArrow" transform="rotate(180) translate(-30 -48)" onmousedown="handlePan(0,1)">
                  <use xlink:href="#rim" fill="#404040">
                        <set attributeName="fill" to="#808080" begin="arrowDown.mouseover" end="arrowDown.mouseout"/>
                  </use>
                  <path fill="none" stroke="white" stroke-width="1.5" d="M0,-3.0v7 M-2.5,-0.5L0,-3.0L2.5,-0.5"/>
                </g>
                <g id="arrowLeft" xlink:href="#dirArrow" transform="rotate(270) translate(-36 17)" onmousedown="handlePan(-1,0)">
                  <use xlink:href="#rim" fill="#404040">
                        <set attributeName="fill" to="#808080" begin="arrowLeft.mouseover" end="arrowLeft.mouseout"/>
                  </use>
                  <path fill="none" stroke="white" stroke-width="1.5" d="M0,-3.0v7 M-2.5,-0.5L0,-3.0L2.5,-0.5"/>
                </g>
        </g>
        <svg viewBox="0 0 15 15" width="100%" height="30px" preserveAspectRatio="xMaxYMin meet">
         <g id="arrow_out" transform="scale(0.3 0.3)">
          <a xlink:href="env_8cpp__incl_org.svg" target="_base">
           <rect id="button" ry="5" rx="5" y="6" x="6" height="38" width="38"
                fill="#f2f5e9" fill-opacity="0.5" stroke="#606060" stroke-width="1.0"/>
           <path id="arrow"
             d="M 11.500037,31.436501 C 11.940474,20.09759 22.043105,11.32322 32.158766,21.979434 L 37.068811,17.246167 C 37.068811,17.246167 37.088388,32 37.088388,32 L 22.160133,31.978069 C 22.160133,31.978069 26.997745,27.140456 26.997745,27.140456 C 18.528582,18.264221 13.291696,25.230495 11.500037,31.436501 z"
             style="fill:#404040;"/>
          </a>
         </g>
        </svg>
</svg>
