<?xml version="1.0" encoding="UTF-8" standalone="no"?>
<!DOCTYPE svg PUBLIC "-//W3C//DTD SVG 1.1//EN"
 "http://www.w3.org/Graphics/SVG/1.1/DTD/svg11.dtd">
<!-- Generated by graphviz version 7.1.0 (20230121.1956)
 -->
<!-- Title: /Users/dabowang/be_all/vec/data_types/data_type_hll.h Pages: 1 -->
<!--zoomable 302 -->
<svg id="main" version="1.1" xmlns="http://www.w3.org/2000/svg" xmlns:xlink="http://www.w3.org/1999/xlink" xml:space="preserve" onload="init(evt)">
<style type="text/css"><![CDATA[
.edge:hover path { stroke: red; }
.edge:hover polygon { stroke: red; fill: red; }
]]></style>
<script type="text/javascript"><![CDATA[
var edges = document.getElementsByTagName('g');
if (edges && edges.length) {
  for (var i=0;i<edges.length;i++) {
    if (edges[i].id.substr(0,4)=='edge') {
      edges[i].setAttribute('class','edge');
    }
  }
}
]]></script>
        <defs>
                <circle id="rim" cx="0" cy="0" r="7"/>
                <circle id="rim2" cx="0" cy="0" r="3.5"/>
                <g id="zoomPlus">
                        <use xlink:href="#rim" fill="#404040">
                                <set attributeName="fill" to="#808080" begin="zoomplus.mouseover" end="zoomplus.mouseout"/>
                        </use>
                        <path d="M-4,0h8M0,-4v8" fill="none" stroke="white" stroke-width="1.5" pointer-events="none"/>
                </g>
                <g id="zoomMin">
                        <use xlink:href="#rim" fill="#404040">
                                <set attributeName="fill" to="#808080" begin="zoomminus.mouseover" end="zoomminus.mouseout"/>
                        </use>
                        <path d="M-4,0h8" fill="none" stroke="white" stroke-width="1.5" pointer-events="none"/>
                </g>
                <g id="dirArrow">
                        <path fill="none" stroke="white" stroke-width="1.5" d="M0,-3.0v7 M-2.5,-0.5L0,-3.0L2.5,-0.5"/>
                </g>
               <g id="resetDef">
                       <use xlink:href="#rim2" fill="#404040">
                               <set attributeName="fill" to="#808080" begin="reset.mouseover" end="reset.mouseout"/>
                       </use>
               </g>
        </defs>

<script type="text/javascript">
var viewWidth = 3701;
var viewHeight = 302;
var sectionId = 'dynsection-1';
</script>
<script xlink:href="../../svgpan.js"/>
<svg id="graph" class="graph">
<g id="viewport">
<title>/Users/dabowang/be_all/vec/data_types/data_type_hll.h</title>
<!-- Node1 -->
<g id="node1" class="node">
<title>Node1</title>
<g id="a_node1"><a xlink:title=" ">
<polygon fill="#999999" stroke="#666666" points="2350.5,-294 2243.5,-294 2243.5,-253 2350.5,-253 2350.5,-294"/>
<text text-anchor="start" x="2251.5" y="-282" font-family="Helvetica,sans-Serif" font-size="10.00">/Users/dabowang/be</text>
<text text-anchor="start" x="2251.5" y="-271" font-family="Helvetica,sans-Serif" font-size="10.00">_all/vec/data_types</text>
<text text-anchor="middle" x="2297" y="-260" font-family="Helvetica,sans-Serif" font-size="10.00">/data_type_hll.h</text>
</a>
</g>
</g>
<!-- Node2 -->
<g id="node2" class="node">
<title>Node2</title>
<g id="a_node2"><a xlink:href="../../d4/d39/aggregate__function__hll__union__agg_8h.html" target="_top" xlink:title=" ">
<polygon fill="white" stroke="#666666" points="563.5,-217 388.5,-217 388.5,-176 563.5,-176 563.5,-217"/>
<text text-anchor="start" x="396.5" y="-205" font-family="Helvetica,sans-Serif" font-size="10.00">/Users/dabowang/be</text>
<text text-anchor="start" x="396.5" y="-194" font-family="Helvetica,sans-Serif" font-size="10.00">_all/vec/aggregate_functions</text>
<text text-anchor="middle" x="476" y="-183" font-family="Helvetica,sans-Serif" font-size="10.00">/aggregate_function_hll_union_agg.h</text>
</a>
</g>
</g>
<!-- Node1&#45;&gt;Node2 -->
<g id="edge1" class="edge">
<title>Node1&#45;&gt;Node2</title>
<path fill="none" stroke="#63b8ff" d="M2232.1,-269.83C1956.13,-258.46 879.93,-214.14 563.79,-201.12"/>
<polygon fill="#63b8ff" stroke="#63b8ff" points="2231.84,-273.32 2241.97,-270.23 2232.13,-266.33 2231.84,-273.32"/>
</g>
<!-- Node12 -->
<g id="node12" class="node">
<title>Node12</title>
<g id="a_node12"><a xlink:href="../../d6/df8/data__type__factory_8hpp.html" target="_top" xlink:title=" ">
<polygon fill="white" stroke="#666666" points="2157.5,-217 2042.5,-217 2042.5,-176 2157.5,-176 2157.5,-217"/>
<text text-anchor="start" x="2050.5" y="-205" font-family="Helvetica,sans-Serif" font-size="10.00">/Users/dabowang/be</text>
<text text-anchor="start" x="2050.5" y="-194" font-family="Helvetica,sans-Serif" font-size="10.00">_all/vec/data_types</text>
<text text-anchor="middle" x="2100" y="-183" font-family="Helvetica,sans-Serif" font-size="10.00">/data_type_factory.hpp</text>
</a>
</g>
</g>
<!-- Node1&#45;&gt;Node12 -->
<g id="edge11" class="edge">
<title>Node1&#45;&gt;Node12</title>
<path fill="none" stroke="#63b8ff" d="M2234.1,-248.55C2207.81,-238.54 2177.6,-227.04 2152.52,-217.49"/>
<polygon fill="#63b8ff" stroke="#63b8ff" points="2232.72,-251.77 2243.31,-252.06 2235.21,-245.23 2232.72,-251.77"/>
</g>
<!-- Node36 -->
<g id="node36" class="node">
<title>Node36</title>
<g id="a_node36"><a xlink:href="../../d1/ddd/data__type__hll_8cpp.html" target="_top" xlink:title=" ">
<polygon fill="white" stroke="#666666" points="2282.5,-217 2175.5,-217 2175.5,-176 2282.5,-176 2282.5,-217"/>
<text text-anchor="start" x="2183.5" y="-205" font-family="Helvetica,sans-Serif" font-size="10.00">/Users/dabowang/be</text>
<text text-anchor="start" x="2183.5" y="-194" font-family="Helvetica,sans-Serif" font-size="10.00">_all/vec/data_types</text>
<text text-anchor="middle" x="2229" y="-183" font-family="Helvetica,sans-Serif" font-size="10.00">/data_type_hll.cpp</text>
</a>
</g>
</g>
<!-- Node1&#45;&gt;Node36 -->
<g id="edge36" class="edge">
<title>Node1&#45;&gt;Node36</title>
<path fill="none" stroke="#63b8ff" d="M2271.58,-244.46C2263.4,-235.44 2254.51,-225.64 2246.98,-217.33"/>
<polygon fill="#63b8ff" stroke="#63b8ff" points="2268.81,-246.62 2278.12,-251.67 2273.99,-241.91 2268.81,-246.62"/>
</g>
<!-- Node37 -->
<g id="node37" class="node">
<title>Node37</title>
<g id="a_node37"><a xlink:href="../../d3/d01/function__hex_8cpp.html" target="_top" xlink:title=" ">
<polygon fill="white" stroke="#666666" points="2431.5,-217 2300.5,-217 2300.5,-176 2431.5,-176 2431.5,-217"/>
<text text-anchor="start" x="2308.5" y="-205" font-family="Helvetica,sans-Serif" font-size="10.00">/Users/dabowang/be</text>
<text text-anchor="start" x="2308.5" y="-194" font-family="Helvetica,sans-Serif" font-size="10.00">_all/vec/functions/function</text>
<text text-anchor="middle" x="2366" y="-183" font-family="Helvetica,sans-Serif" font-size="10.00">_hex.cpp</text>
</a>
</g>
</g>
<!-- Node1&#45;&gt;Node37 -->
<g id="edge37" class="edge">
<title>Node1&#45;&gt;Node37</title>
<path fill="none" stroke="#63b8ff" d="M2322.8,-244.46C2331.1,-235.44 2340.11,-225.64 2347.75,-217.33"/>
<polygon fill="#63b8ff" stroke="#63b8ff" points="2320.35,-241.95 2316.15,-251.68 2325.5,-246.69 2320.35,-241.95"/>
</g>
<!-- Node38 -->
<g id="node38" class="node">
<title>Node38</title>
<g id="a_node38"><a xlink:href="../../d2/dff/hll__empty_8cpp.html" target="_top" xlink:title=" ">
<polygon fill="white" stroke="#666666" points="2556.5,-217 2449.5,-217 2449.5,-176 2556.5,-176 2556.5,-217"/>
<text text-anchor="start" x="2457.5" y="-205" font-family="Helvetica,sans-Serif" font-size="10.00">/Users/dabowang/be</text>
<text text-anchor="start" x="2457.5" y="-194" font-family="Helvetica,sans-Serif" font-size="10.00">_all/vec/functions/hll</text>
<text text-anchor="middle" x="2503" y="-183" font-family="Helvetica,sans-Serif" font-size="10.00">_empty.cpp</text>
</a>
</g>
</g>
<!-- Node1&#45;&gt;Node38 -->
<g id="edge38" class="edge">
<title>Node1&#45;&gt;Node38</title>
<path fill="none" stroke="#63b8ff" d="M2361.41,-249.05C2389.58,-238.79 2422.25,-226.9 2449.1,-217.12"/>
<polygon fill="#63b8ff" stroke="#63b8ff" points="2360.48,-245.66 2352.28,-252.37 2362.87,-252.24 2360.48,-245.66"/>
</g>
<!-- Node39 -->
<g id="node39" class="node">
<title>Node39</title>
<g id="a_node39"><a xlink:href="../../d5/daa/hll__hash_8cpp.html" target="_top" xlink:title=" ">
<polygon fill="white" stroke="#666666" points="2681.5,-217 2574.5,-217 2574.5,-176 2681.5,-176 2681.5,-217"/>
<text text-anchor="start" x="2582.5" y="-205" font-family="Helvetica,sans-Serif" font-size="10.00">/Users/dabowang/be</text>
<text text-anchor="start" x="2582.5" y="-194" font-family="Helvetica,sans-Serif" font-size="10.00">_all/vec/functions/hll</text>
<text text-anchor="middle" x="2628" y="-183" font-family="Helvetica,sans-Serif" font-size="10.00">_hash.cpp</text>
</a>
</g>
</g>
<!-- Node1&#45;&gt;Node39 -->
<g id="edge39" class="edge">
<title>Node1&#45;&gt;Node39</title>
<path fill="none" stroke="#63b8ff" d="M2362.24,-260.95C2416.98,-250.81 2497.06,-234.9 2566,-217 2568.73,-216.29 2571.52,-215.53 2574.33,-214.75"/>
<polygon fill="#63b8ff" stroke="#63b8ff" points="2361.65,-257.5 2352.45,-262.76 2362.92,-264.39 2361.65,-257.5"/>
</g>
<!-- Node3 -->
<g id="node3" class="node">
<title>Node3</title>
<g id="a_node3"><a xlink:href="../../d2/d96/aggregate__function__hll__union__agg_8cpp.html" target="_top" xlink:title=" ">
<polygon fill="white" stroke="#666666" points="387,-140 241,-140 241,-88 387,-88 387,-140"/>
<text text-anchor="start" x="249" y="-128" font-family="Helvetica,sans-Serif" font-size="10.00">/Users/dabowang/be</text>
<text text-anchor="start" x="249" y="-117" font-family="Helvetica,sans-Serif" font-size="10.00">_all/vec/aggregate_functions</text>
<text text-anchor="start" x="249" y="-106" font-family="Helvetica,sans-Serif" font-size="10.00">/aggregate_function_hll_union</text>
<text text-anchor="middle" x="314" y="-95" font-family="Helvetica,sans-Serif" font-size="10.00">_agg.cpp</text>
</a>
</g>
</g>
<!-- Node2&#45;&gt;Node3 -->
<g id="edge2" class="edge">
<title>Node2&#45;&gt;Node3</title>
<path fill="none" stroke="#63b8ff" d="M425.86,-170.59C406.6,-161.01 384.59,-150.08 365.22,-140.45"/>
<polygon fill="#63b8ff" stroke="#63b8ff" points="424.09,-173.61 434.6,-174.93 427.2,-167.34 424.09,-173.61"/>
</g>
<!-- Node4 -->
<g id="node4" class="node">
<title>Node4</title>
<g id="a_node4"><a xlink:href="../../d9/d86/aggregate__function__reader_8h.html" target="_top" xlink:title=" ">
<polygon fill="white" stroke="#666666" points="547,-134.5 405,-134.5 405,-93.5 547,-93.5 547,-134.5"/>
<text text-anchor="start" x="413" y="-122.5" font-family="Helvetica,sans-Serif" font-size="10.00">/Users/dabowang/be</text>
<text text-anchor="start" x="413" y="-111.5" font-family="Helvetica,sans-Serif" font-size="10.00">_all/vec/aggregate_functions</text>
<text text-anchor="middle" x="476" y="-100.5" font-family="Helvetica,sans-Serif" font-size="10.00">/aggregate_function_reader.h</text>
</a>
</g>
</g>
<!-- Node2&#45;&gt;Node4 -->
<g id="edge3" class="edge">
<title>Node2&#45;&gt;Node4</title>
<path fill="none" stroke="#63b8ff" d="M476,-164.16C476,-154.33 476,-143.76 476,-134.95"/>
<polygon fill="#63b8ff" stroke="#63b8ff" points="472.5,-164.09 476,-174.09 479.5,-164.09 472.5,-164.09"/>
</g>
<!-- Node5 -->
<g id="node5" class="node">
<title>Node5</title>
<g id="a_node5"><a xlink:href="../../d0/dc9/memtable_8cpp.html" target="_top" xlink:title=" ">
<polygon fill="white" stroke="#666666" points="860.5,-41 743.5,-41 743.5,-11 860.5,-11 860.5,-41"/>
<text text-anchor="start" x="751.5" y="-29" font-family="Helvetica,sans-Serif" font-size="10.00">/Users/dabowang/be</text>
<text text-anchor="middle" x="802" y="-18" font-family="Helvetica,sans-Serif" font-size="10.00">_all/olap/memtable.cpp</text>
</a>
</g>
</g>
<!-- Node4&#45;&gt;Node5 -->
<g id="edge4" class="edge">
<title>Node4&#45;&gt;Node5</title>
<path fill="none" stroke="#63b8ff" d="M548.23,-90.06C550.85,-89.34 553.44,-88.66 556,-88 634.18,-67.94 656.34,-73.99 734,-52 744.53,-49.02 755.76,-45.18 765.99,-41.4"/>
<polygon fill="#63b8ff" stroke="#63b8ff" points="547.53,-86.62 538.86,-92.7 549.43,-93.36 547.53,-86.62"/>
</g>
<!-- Node6 -->
<g id="node6" class="node">
<title>Node6</title>
<g id="a_node6"><a xlink:href="../../d3/dc1/schema__change_8cpp.html" target="_top" xlink:title=" ">
<polygon fill="white" stroke="#666666" points="146,-41 0,-41 0,-11 146,-11 146,-41"/>
<text text-anchor="start" x="8" y="-29" font-family="Helvetica,sans-Serif" font-size="10.00">/Users/dabowang/be</text>
<text text-anchor="middle" x="73" y="-18" font-family="Helvetica,sans-Serif" font-size="10.00">_all/olap/schema_change.cpp</text>
</a>
</g>
</g>
<!-- Node4&#45;&gt;Node6 -->
<g id="edge5" class="edge">
<title>Node4&#45;&gt;Node6</title>
<path fill="none" stroke="#63b8ff" d="M404.48,-90.06C401.63,-89.33 398.79,-88.64 396,-88 290.44,-63.78 260.64,-75.86 155,-52 142.22,-49.11 128.54,-45.26 116.09,-41.44"/>
<polygon fill="#63b8ff" stroke="#63b8ff" points="403.53,-93.43 414.09,-92.64 405.34,-86.66 403.53,-93.43"/>
</g>
<!-- Node7 -->
<g id="node7" class="node">
<title>Node7</title>
<g id="a_node7"><a xlink:href="../../d4/d7c/tablet__schema_8cpp.html" target="_top" xlink:title=" ">
<polygon fill="white" stroke="#666666" points="2238,-41 2100,-41 2100,-11 2238,-11 2238,-41"/>
<text text-anchor="start" x="2108" y="-29" font-family="Helvetica,sans-Serif" font-size="10.00">/Users/dabowang/be</text>
<text text-anchor="middle" x="2169" y="-18" font-family="Helvetica,sans-Serif" font-size="10.00">_all/olap/tablet_schema.cpp</text>
</a>
</g>
</g>
<!-- Node4&#45;&gt;Node7 -->
<g id="edge6" class="edge">
<title>Node4&#45;&gt;Node7</title>
<path fill="none" stroke="#63b8ff" d="M544.53,-90.3C548.39,-89.43 552.23,-88.65 556,-88 859.62,-35.77 1831.58,-28.26 2099.84,-27.18"/>
<polygon fill="#63b8ff" stroke="#63b8ff" points="544,-86.83 535.14,-92.64 545.69,-93.62 544,-86.83"/>
</g>
<!-- Node8 -->
<g id="node8" class="node">
<title>Node8</title>
<g id="a_node8"><a xlink:href="../../d4/d8d/aggregate__function__reader_8cpp.html" target="_top" xlink:title=" ">
<polygon fill="white" stroke="#666666" points="316,-46.5 164,-46.5 164,-5.5 316,-5.5 316,-46.5"/>
<text text-anchor="start" x="172" y="-34.5" font-family="Helvetica,sans-Serif" font-size="10.00">/Users/dabowang/be</text>
<text text-anchor="start" x="172" y="-23.5" font-family="Helvetica,sans-Serif" font-size="10.00">_all/vec/aggregate_functions</text>
<text text-anchor="middle" x="240" y="-12.5" font-family="Helvetica,sans-Serif" font-size="10.00">/aggregate_function_reader.cpp</text>
</a>
</g>
</g>
<!-- Node4&#45;&gt;Node8 -->
<g id="edge7" class="edge">
<title>Node4&#45;&gt;Node8</title>
<path fill="none" stroke="#63b8ff" d="M410.74,-89.22C374.32,-75.95 329.45,-59.6 294.85,-46.99"/>
<polygon fill="#63b8ff" stroke="#63b8ff" points="409.25,-92.4 419.84,-92.54 411.64,-85.82 409.25,-92.4"/>
</g>
<!-- Node9 -->
<g id="node9" class="node">
<title>Node9</title>
<g id="a_node9"><a xlink:href="../../df/d1b/aggregate__function__simple__factory_8cpp.html" target="_top" xlink:title=" ">
<polygon fill="white" stroke="#666666" points="475.5,-52 334.5,-52 334.5,0 475.5,0 475.5,-52"/>
<text text-anchor="start" x="342.5" y="-40" font-family="Helvetica,sans-Serif" font-size="10.00">/Users/dabowang/be</text>
<text text-anchor="start" x="342.5" y="-29" font-family="Helvetica,sans-Serif" font-size="10.00">_all/vec/aggregate_functions</text>
<text text-anchor="start" x="342.5" y="-18" font-family="Helvetica,sans-Serif" font-size="10.00">/aggregate_function_simple</text>
<text text-anchor="middle" x="405" y="-7" font-family="Helvetica,sans-Serif" font-size="10.00">_factory.cpp</text>
</a>
</g>
</g>
<!-- Node4&#45;&gt;Node9 -->
<g id="edge8" class="edge">
<title>Node4&#45;&gt;Node9</title>
<path fill="none" stroke="#63b8ff" d="M452.36,-84.36C443.82,-74.02 434.26,-62.44 425.97,-52.4"/>
<polygon fill="#63b8ff" stroke="#63b8ff" points="449.5,-86.4 458.57,-91.89 454.9,-81.95 449.5,-86.4"/>
</g>
<!-- Node10 -->
<g id="node10" class="node">
<title>Node10</title>
<g id="a_node10"><a xlink:href="../../da/ddb/block__reader_8cpp.html" target="_top" xlink:title=" ">
<polygon fill="white" stroke="#666666" points="600.5,-46.5 493.5,-46.5 493.5,-5.5 600.5,-5.5 600.5,-46.5"/>
<text text-anchor="start" x="501.5" y="-34.5" font-family="Helvetica,sans-Serif" font-size="10.00">/Users/dabowang/be</text>
<text text-anchor="start" x="501.5" y="-23.5" font-family="Helvetica,sans-Serif" font-size="10.00">_all/vec/olap/block</text>
<text text-anchor="middle" x="547" y="-12.5" font-family="Helvetica,sans-Serif" font-size="10.00">_reader.cpp</text>
</a>
</g>
</g>
<!-- Node4&#45;&gt;Node10 -->
<g id="edge9" class="edge">
<title>Node4&#45;&gt;Node10</title>
<path fill="none" stroke="#63b8ff" d="M499.56,-84.46C509.74,-72.13 521.41,-58 530.62,-46.84"/>
<polygon fill="#63b8ff" stroke="#63b8ff" points="497.1,-81.95 493.43,-91.89 502.5,-86.4 497.1,-81.95"/>
</g>
<!-- Node11 -->
<g id="node11" class="node">
<title>Node11</title>
<g id="a_node11"><a xlink:href="../../d3/dc4/vertical__block__reader_8cpp.html" target="_top" xlink:title=" ">
<polygon fill="white" stroke="#666666" points="725.5,-46.5 618.5,-46.5 618.5,-5.5 725.5,-5.5 725.5,-46.5"/>
<text text-anchor="start" x="626.5" y="-34.5" font-family="Helvetica,sans-Serif" font-size="10.00">/Users/dabowang/be</text>
<text text-anchor="start" x="626.5" y="-23.5" font-family="Helvetica,sans-Serif" font-size="10.00">_all/vec/olap/vertical</text>
<text text-anchor="middle" x="672" y="-12.5" font-family="Helvetica,sans-Serif" font-size="10.00">_block_reader.cpp</text>
</a>
</g>
</g>
<!-- Node4&#45;&gt;Node11 -->
<g id="edge10" class="edge">
<title>Node4&#45;&gt;Node11</title>
<path fill="none" stroke="#63b8ff" d="M531.76,-88.53C561.73,-75.39 598.21,-59.38 626.45,-46.99"/>
<polygon fill="#63b8ff" stroke="#63b8ff" points="530.6,-85.22 522.84,-92.45 533.41,-91.63 530.6,-85.22"/>
</g>
<!-- Node12&#45;&gt;Node7 -->
<g id="edge19" class="edge">
<title>Node12&#45;&gt;Node7</title>
<path fill="none" stroke="#63b8ff" d="M2169.18,-176.38C2306.23,-166.99 3314.45,-185.92 3359,-140 3375.09,-123.41 3374.92,-104.76 3359,-88 3320.22,-47.18 2486.45,-31.67 2238.16,-27.94"/>
<polygon fill="#63b8ff" stroke="#63b8ff" points="2168.86,-172.89 2159.26,-177.37 2169.56,-179.86 2168.86,-172.89"/>
</g>
<!-- Node13 -->
<g id="node13" class="node">
<title>Node13</title>
<g id="a_node13"><a xlink:href="../../de/d27/base__scanner_8cpp.html" target="_top" xlink:title=" ">
<polygon fill="white" stroke="#666666" points="3692.5,-129 3555.5,-129 3555.5,-99 3692.5,-99 3692.5,-129"/>
<text text-anchor="start" x="3563.5" y="-117" font-family="Helvetica,sans-Serif" font-size="10.00">/Users/dabowang/be</text>
<text text-anchor="middle" x="3624" y="-106" font-family="Helvetica,sans-Serif" font-size="10.00">_all/exec/base_scanner.cpp</text>
</a>
</g>
</g>
<!-- Node12&#45;&gt;Node13 -->
<g id="edge12" class="edge">
<title>Node12&#45;&gt;Node13</title>
<path fill="none" stroke="#63b8ff" d="M2168.89,-175.82C2487.34,-129.58 3247.98,-191.33 3547,-140 3560.3,-137.72 3574.45,-133.63 3586.95,-129.41"/>
<polygon fill="#63b8ff" stroke="#63b8ff" points="2168.61,-172.32 2159.25,-177.28 2169.66,-179.24 2168.61,-172.32"/>
</g>
<!-- Node14 -->
<g id="node14" class="node">
<title>Node14</title>
<g id="a_node14"><a xlink:href="../../d0/df3/bitmap__index__reader_8cpp.html" target="_top" xlink:title=" ">
<polygon fill="white" stroke="#666666" points="708.5,-134.5 565.5,-134.5 565.5,-93.5 708.5,-93.5 708.5,-134.5"/>
<text text-anchor="start" x="573.5" y="-122.5" font-family="Helvetica,sans-Serif" font-size="10.00">/Users/dabowang/be</text>
<text text-anchor="start" x="573.5" y="-111.5" font-family="Helvetica,sans-Serif" font-size="10.00">_all/olap/rowset/segment</text>
<text text-anchor="middle" x="637" y="-100.5" font-family="Helvetica,sans-Serif" font-size="10.00">_v2/bitmap_index_reader.cpp</text>
</a>
</g>
</g>
<!-- Node12&#45;&gt;Node14 -->
<g id="edge13" class="edge">
<title>Node12&#45;&gt;Node14</title>
<path fill="none" stroke="#63b8ff" d="M2030.78,-195.12C1787.67,-193.42 973.69,-184.46 717,-140 709.69,-138.73 702.11,-136.98 694.67,-134.98"/>
<polygon fill="#63b8ff" stroke="#63b8ff" points="2030.73,-198.62 2040.75,-195.19 2030.77,-191.62 2030.73,-198.62"/>
</g>
<!-- Node15 -->
<g id="node15" class="node">
<title>Node15</title>
<g id="a_node15"><a xlink:href="../../db/d6f/bloom__filter__index__reader_8cpp.html" target="_top" xlink:title=" ">
<polygon fill="white" stroke="#666666" points="851.5,-140 726.5,-140 726.5,-88 851.5,-88 851.5,-140"/>
<text text-anchor="start" x="734.5" y="-128" font-family="Helvetica,sans-Serif" font-size="10.00">/Users/dabowang/be</text>
<text text-anchor="start" x="734.5" y="-117" font-family="Helvetica,sans-Serif" font-size="10.00">_all/olap/rowset/segment</text>
<text text-anchor="start" x="734.5" y="-106" font-family="Helvetica,sans-Serif" font-size="10.00">_v2/bloom_filter_index</text>
<text text-anchor="middle" x="789" y="-95" font-family="Helvetica,sans-Serif" font-size="10.00">_reader.cpp</text>
</a>
</g>
</g>
<!-- Node12&#45;&gt;Node15 -->
<g id="edge14" class="edge">
<title>Node12&#45;&gt;Node15</title>
<path fill="none" stroke="#63b8ff" d="M2030.76,-195.07C1804.25,-193.24 1086.91,-184.03 860,-140 857.31,-139.48 854.58,-138.87 851.83,-138.2"/>
<polygon fill="#63b8ff" stroke="#63b8ff" points="2030.58,-198.57 2040.61,-195.15 2030.64,-191.57 2030.58,-198.57"/>
</g>
<!-- Node16 -->
<g id="node16" class="node">
<title>Node16</title>
<g id="a_node16"><a xlink:href="../../d6/d80/segment_8cpp.html" target="_top" xlink:title=" ">
<polygon fill="white" stroke="#666666" points="994.5,-134.5 869.5,-134.5 869.5,-93.5 994.5,-93.5 994.5,-134.5"/>
<text text-anchor="start" x="877.5" y="-122.5" font-family="Helvetica,sans-Serif" font-size="10.00">/Users/dabowang/be</text>
<text text-anchor="start" x="877.5" y="-111.5" font-family="Helvetica,sans-Serif" font-size="10.00">_all/olap/rowset/segment</text>
<text text-anchor="middle" x="932" y="-100.5" font-family="Helvetica,sans-Serif" font-size="10.00">_v2/segment.cpp</text>
</a>
</g>
</g>
<!-- Node12&#45;&gt;Node16 -->
<g id="edge15" class="edge">
<title>Node12&#45;&gt;Node16</title>
<path fill="none" stroke="#63b8ff" d="M2030.82,-194.56C1822.28,-191.31 1201.99,-178.57 1004,-140 997.38,-138.71 990.53,-136.94 983.82,-134.94"/>
<polygon fill="#63b8ff" stroke="#63b8ff" points="2030.63,-198.05 2040.69,-194.71 2030.74,-191.05 2030.63,-198.05"/>
</g>
<!-- Node17 -->
<g id="node17" class="node">
<title>Node17</title>
<g id="a_node17"><a xlink:href="../../df/d92/segment__iterator_8cpp.html" target="_top" xlink:title=" ">
<polygon fill="white" stroke="#666666" points="1139,-134.5 1013,-134.5 1013,-93.5 1139,-93.5 1139,-134.5"/>
<text text-anchor="start" x="1021" y="-122.5" font-family="Helvetica,sans-Serif" font-size="10.00">/Users/dabowang/be</text>
<text text-anchor="start" x="1021" y="-111.5" font-family="Helvetica,sans-Serif" font-size="10.00">_all/olap/rowset/segment</text>
<text text-anchor="middle" x="1076" y="-100.5" font-family="Helvetica,sans-Serif" font-size="10.00">_v2/segment_iterator.cpp</text>
</a>
</g>
</g>
<!-- Node12&#45;&gt;Node17 -->
<g id="edge16" class="edge">
<title>Node12&#45;&gt;Node17</title>
<path fill="none" stroke="#63b8ff" d="M2030.68,-193.94C1841.13,-189.27 1317.09,-173.61 1148,-140 1141.38,-138.68 1134.54,-136.9 1127.83,-134.89"/>
<polygon fill="#63b8ff" stroke="#63b8ff" points="2030.54,-197.43 2040.63,-194.18 2030.71,-190.44 2030.54,-197.43"/>
</g>
<!-- Node18 -->
<g id="node18" class="node">
<title>Node18</title>
<g id="a_node18"><a xlink:href="../../d5/dfe/schema_8cpp.html" target="_top" xlink:title=" ">
<polygon fill="white" stroke="#666666" points="1266.5,-129 1157.5,-129 1157.5,-99 1266.5,-99 1266.5,-129"/>
<text text-anchor="start" x="1165.5" y="-117" font-family="Helvetica,sans-Serif" font-size="10.00">/Users/dabowang/be</text>
<text text-anchor="middle" x="1212" y="-106" font-family="Helvetica,sans-Serif" font-size="10.00">_all/olap/schema.cpp</text>
</a>
</g>
</g>
<!-- Node12&#45;&gt;Node18 -->
<g id="edge17" class="edge">
<title>Node12&#45;&gt;Node18</title>
<path fill="none" stroke="#63b8ff" d="M2030.78,-193.6C1859.27,-188.45 1418.2,-172.39 1275,-140 1264.21,-137.56 1252.85,-133.54 1242.79,-129.43"/>
<polygon fill="#63b8ff" stroke="#63b8ff" points="2030.55,-197.1 2040.65,-193.89 2030.76,-190.1 2030.55,-197.1"/>
</g>
<!-- Node19 -->
<g id="node19" class="node">
<title>Node19</title>
<g id="a_node19"><a xlink:href="../../d0/dc2/tablet_8cpp.html" target="_top" xlink:title=" ">
<polygon fill="white" stroke="#666666" points="1391.5,-129 1284.5,-129 1284.5,-99 1391.5,-99 1391.5,-129"/>
<text text-anchor="start" x="1292.5" y="-117" font-family="Helvetica,sans-Serif" font-size="10.00">/Users/dabowang/be</text>
<text text-anchor="middle" x="1338" y="-106" font-family="Helvetica,sans-Serif" font-size="10.00">_all/olap/tablet.cpp</text>
</a>
</g>
</g>
<!-- Node12&#45;&gt;Node19 -->
<g id="edge18" class="edge">
<title>Node12&#45;&gt;Node19</title>
<path fill="none" stroke="#63b8ff" d="M2030.73,-192.68C1878.42,-186.06 1518.54,-167.91 1400,-140 1389.49,-137.53 1378.44,-133.55 1368.62,-129.49"/>
<polygon fill="#63b8ff" stroke="#63b8ff" points="2030.55,-196.18 2040.69,-193.11 2030.85,-189.19 2030.55,-196.18"/>
</g>
<!-- Node20 -->
<g id="node20" class="node">
<title>Node20</title>
<g id="a_node20"><a xlink:href="../../df/d7f/descriptors_8cpp.html" target="_top" xlink:title=" ">
<polygon fill="white" stroke="#666666" points="1546.5,-129 1409.5,-129 1409.5,-99 1546.5,-99 1546.5,-129"/>
<text text-anchor="start" x="1417.5" y="-117" font-family="Helvetica,sans-Serif" font-size="10.00">/Users/dabowang/be</text>
<text text-anchor="middle" x="1478" y="-106" font-family="Helvetica,sans-Serif" font-size="10.00">_all/runtime/descriptors.cpp</text>
</a>
</g>
</g>
<!-- Node12&#45;&gt;Node20 -->
<g id="edge20" class="edge">
<title>Node12&#45;&gt;Node20</title>
<path fill="none" stroke="#63b8ff" d="M2030.81,-193.16C1926.6,-188.57 1723.64,-175.54 1555,-140 1542.48,-137.36 1529.14,-133.44 1517.13,-129.48"/>
<polygon fill="#63b8ff" stroke="#63b8ff" points="2030.45,-196.64 2040.59,-193.57 2030.75,-189.65 2030.45,-196.64"/>
</g>
<!-- Node21 -->
<g id="node21" class="node">
<title>Node21</title>
<g id="a_node21"><a xlink:href="../../d9/d4d/block_8cpp.html" target="_top" xlink:title=" ">
<polygon fill="white" stroke="#666666" points="1681.5,-129 1564.5,-129 1564.5,-99 1681.5,-99 1681.5,-129"/>
<text text-anchor="start" x="1572.5" y="-117" font-family="Helvetica,sans-Serif" font-size="10.00">/Users/dabowang/be</text>
<text text-anchor="middle" x="1623" y="-106" font-family="Helvetica,sans-Serif" font-size="10.00">_all/vec/core/block.cpp</text>
</a>
</g>
</g>
<!-- Node12&#45;&gt;Node21 -->
<g id="edge21" class="edge">
<title>Node12&#45;&gt;Node21</title>
<path fill="none" stroke="#63b8ff" d="M2030.74,-190.85C1948.5,-184.25 1807.66,-169.52 1690,-140 1679.16,-137.28 1667.66,-133.38 1657.31,-129.47"/>
<polygon fill="#63b8ff" stroke="#63b8ff" points="2030.44,-194.34 2040.69,-191.63 2030.99,-187.36 2030.44,-194.34"/>
</g>
<!-- Node22 -->
<g id="node22" class="node">
<title>Node22</title>
<g id="a_node22"><a xlink:href="../../d3/d57/data__type__factory_8cpp.html" target="_top" xlink:title=" ">
<polygon fill="white" stroke="#666666" points="1814.5,-134.5 1699.5,-134.5 1699.5,-93.5 1814.5,-93.5 1814.5,-134.5"/>
<text text-anchor="start" x="1707.5" y="-122.5" font-family="Helvetica,sans-Serif" font-size="10.00">/Users/dabowang/be</text>
<text text-anchor="start" x="1707.5" y="-111.5" font-family="Helvetica,sans-Serif" font-size="10.00">_all/vec/data_types</text>
<text text-anchor="middle" x="1757" y="-100.5" font-family="Helvetica,sans-Serif" font-size="10.00">/data_type_factory.cpp</text>
</a>
</g>
</g>
<!-- Node12&#45;&gt;Node22 -->
<g id="edge22" class="edge">
<title>Node12&#45;&gt;Node22</title>
<path fill="none" stroke="#63b8ff" d="M2030.74,-184.87C1974.24,-175.43 1892.68,-160.03 1823,-140 1817.82,-138.51 1812.47,-136.79 1807.16,-134.97"/>
<polygon fill="#63b8ff" stroke="#63b8ff" points="2030.11,-188.32 2040.55,-186.49 2031.25,-181.41 2030.11,-188.32"/>
</g>
<!-- Node23 -->
<g id="node23" class="node">
<title>Node23</title>
<g id="a_node23"><a xlink:href="../../dd/d43/iceberg__reader_8cpp.html" target="_top" xlink:title=" ">
<polygon fill="white" stroke="#666666" points="1957.5,-134.5 1832.5,-134.5 1832.5,-93.5 1957.5,-93.5 1957.5,-134.5"/>
<text text-anchor="start" x="1840.5" y="-122.5" font-family="Helvetica,sans-Serif" font-size="10.00">/Users/dabowang/be</text>
<text text-anchor="start" x="1840.5" y="-111.5" font-family="Helvetica,sans-Serif" font-size="10.00">_all/vec/exec/format</text>
<text text-anchor="middle" x="1895" y="-100.5" font-family="Helvetica,sans-Serif" font-size="10.00">/table/iceberg_reader.cpp</text>
</a>
</g>
</g>
<!-- Node12&#45;&gt;Node23 -->
<g id="edge23" class="edge">
<title>Node12&#45;&gt;Node23</title>
<path fill="none" stroke="#63b8ff" d="M2038.68,-171.42C2009.05,-159.79 1973.91,-145.99 1945.8,-134.95"/>
<polygon fill="#63b8ff" stroke="#63b8ff" points="2037.33,-174.65 2047.92,-175.05 2039.89,-168.13 2037.33,-174.65"/>
</g>
<!-- Node24 -->
<g id="node24" class="node">
<title>Node24</title>
<g id="a_node24"><a xlink:href="../../d9/df7/vfile__scanner_8cpp.html" target="_top" xlink:title=" ">
<polygon fill="white" stroke="#666666" points="2094.5,-134.5 1975.5,-134.5 1975.5,-93.5 2094.5,-93.5 2094.5,-134.5"/>
<text text-anchor="start" x="1983.5" y="-122.5" font-family="Helvetica,sans-Serif" font-size="10.00">/Users/dabowang/be</text>
<text text-anchor="start" x="1983.5" y="-111.5" font-family="Helvetica,sans-Serif" font-size="10.00">_all/vec/exec/scan/vfile</text>
<text text-anchor="middle" x="2035" y="-100.5" font-family="Helvetica,sans-Serif" font-size="10.00">_scanner.cpp</text>
</a>
</g>
</g>
<!-- Node12&#45;&gt;Node24 -->
<g id="edge24" class="edge">
<title>Node12&#45;&gt;Node24</title>
<path fill="none" stroke="#63b8ff" d="M2076.77,-166.73C2068.27,-156.2 2058.85,-144.54 2051.11,-134.95"/>
<polygon fill="#63b8ff" stroke="#63b8ff" points="2073.98,-168.84 2082.98,-174.42 2079.42,-164.44 2073.98,-168.84"/>
</g>
<!-- Node25 -->
<g id="node25" class="node">
<title>Node25</title>
<g id="a_node25"><a xlink:href="../../df/d87/varrow__scanner_8cpp.html" target="_top" xlink:title=" ">
<polygon fill="white" stroke="#666666" points="2219.5,-134.5 2112.5,-134.5 2112.5,-93.5 2219.5,-93.5 2219.5,-134.5"/>
<text text-anchor="start" x="2120.5" y="-122.5" font-family="Helvetica,sans-Serif" font-size="10.00">/Users/dabowang/be</text>
<text text-anchor="start" x="2120.5" y="-111.5" font-family="Helvetica,sans-Serif" font-size="10.00">_all/vec/exec/varrow</text>
<text text-anchor="middle" x="2166" y="-100.5" font-family="Helvetica,sans-Serif" font-size="10.00">_scanner.cpp</text>
</a>
</g>
</g>
<!-- Node12&#45;&gt;Node25 -->
<g id="edge25" class="edge">
<title>Node12&#45;&gt;Node25</title>
<path fill="none" stroke="#63b8ff" d="M2123.59,-166.73C2132.22,-156.2 2141.78,-144.54 2149.64,-134.95"/>
<polygon fill="#63b8ff" stroke="#63b8ff" points="2120.91,-164.48 2117.27,-174.43 2126.32,-168.92 2120.91,-164.48"/>
</g>
<!-- Node26 -->
<g id="node26" class="node">
<title>Node26</title>
<g id="a_node26"><a xlink:href="../../d5/de8/vjdbc__connector_8cpp.html" target="_top" xlink:title=" ">
<polygon fill="white" stroke="#666666" points="2344.5,-134.5 2237.5,-134.5 2237.5,-93.5 2344.5,-93.5 2344.5,-134.5"/>
<text text-anchor="start" x="2245.5" y="-122.5" font-family="Helvetica,sans-Serif" font-size="10.00">/Users/dabowang/be</text>
<text text-anchor="start" x="2245.5" y="-111.5" font-family="Helvetica,sans-Serif" font-size="10.00">_all/vec/exec/vjdbc</text>
<text text-anchor="middle" x="2291" y="-100.5" font-family="Helvetica,sans-Serif" font-size="10.00">_connector.cpp</text>
</a>
</g>
</g>
<!-- Node12&#45;&gt;Node26 -->
<g id="edge26" class="edge">
<title>Node12&#45;&gt;Node26</title>
<path fill="none" stroke="#63b8ff" d="M2157.49,-171.27C2185.03,-159.66 2217.59,-145.94 2243.67,-134.95"/>
<polygon fill="#63b8ff" stroke="#63b8ff" points="2156.46,-167.9 2148.61,-175.01 2159.18,-174.35 2156.46,-167.9"/>
</g>
<!-- Node27 -->
<g id="node27" class="node">
<title>Node27</title>
<g id="a_node27"><a xlink:href="../../da/da0/vschema__scan__node_8cpp.html" target="_top" xlink:title=" ">
<polygon fill="white" stroke="#666666" points="2479.5,-134.5 2362.5,-134.5 2362.5,-93.5 2479.5,-93.5 2479.5,-134.5"/>
<text text-anchor="start" x="2370.5" y="-122.5" font-family="Helvetica,sans-Serif" font-size="10.00">/Users/dabowang/be</text>
<text text-anchor="start" x="2370.5" y="-111.5" font-family="Helvetica,sans-Serif" font-size="10.00">_all/vec/exec/vschema</text>
<text text-anchor="middle" x="2421" y="-100.5" font-family="Helvetica,sans-Serif" font-size="10.00">_scan_node.cpp</text>
</a>
</g>
</g>
<!-- Node12&#45;&gt;Node27 -->
<g id="edge27" class="edge">
<title>Node12&#45;&gt;Node27</title>
<path fill="none" stroke="#63b8ff" d="M2168.65,-175.48C2250.24,-156.49 2274.8,-161.75 2353,-140 2358.33,-138.52 2363.84,-136.81 2369.31,-134.99"/>
<polygon fill="#63b8ff" stroke="#63b8ff" points="2168.25,-171.98 2159.33,-177.71 2169.87,-178.79 2168.25,-171.98"/>
</g>
<!-- Node28 -->
<g id="node28" class="node">
<title>Node28</title>
<g id="a_node28"><a xlink:href="../../d8/db1/vcast__expr_8cpp.html" target="_top" xlink:title=" ">
<polygon fill="white" stroke="#666666" points="2604.5,-134.5 2497.5,-134.5 2497.5,-93.5 2604.5,-93.5 2604.5,-134.5"/>
<text text-anchor="start" x="2505.5" y="-122.5" font-family="Helvetica,sans-Serif" font-size="10.00">/Users/dabowang/be</text>
<text text-anchor="start" x="2505.5" y="-111.5" font-family="Helvetica,sans-Serif" font-size="10.00">_all/vec/exprs/vcast</text>
<text text-anchor="middle" x="2551" y="-100.5" font-family="Helvetica,sans-Serif" font-size="10.00">_expr.cpp</text>
</a>
</g>
</g>
<!-- Node12&#45;&gt;Node28 -->
<g id="edge28" class="edge">
<title>Node12&#45;&gt;Node28</title>
<path fill="none" stroke="#63b8ff" d="M2169.01,-175.59C2309.75,-148.8 2352.5,-174.44 2489,-140 2494.4,-138.64 2499.96,-136.91 2505.42,-134.99"/>
<polygon fill="#63b8ff" stroke="#63b8ff" points="2168.43,-172.14 2159.29,-177.5 2169.78,-179.01 2168.43,-172.14"/>
</g>
<!-- Node29 -->
<g id="node29" class="node">
<title>Node29</title>
<g id="a_node29"><a xlink:href="../../dc/dc5/vectorized__agg__fn_8cpp.html" target="_top" xlink:title=" ">
<polygon fill="white" stroke="#666666" points="2747.5,-134.5 2622.5,-134.5 2622.5,-93.5 2747.5,-93.5 2747.5,-134.5"/>
<text text-anchor="start" x="2630.5" y="-122.5" font-family="Helvetica,sans-Serif" font-size="10.00">/Users/dabowang/be</text>
<text text-anchor="start" x="2630.5" y="-111.5" font-family="Helvetica,sans-Serif" font-size="10.00">_all/vec/exprs/vectorized</text>
<text text-anchor="middle" x="2685" y="-100.5" font-family="Helvetica,sans-Serif" font-size="10.00">_agg_fn.cpp</text>
</a>
</g>
</g>
<!-- Node12&#45;&gt;Node29 -->
<g id="edge29" class="edge">
<title>Node12&#45;&gt;Node29</title>
<path fill="none" stroke="#63b8ff" d="M2169.02,-175.65C2364.52,-141.04 2422.23,-180.75 2614,-140 2620.26,-138.67 2626.73,-136.93 2633.09,-134.99"/>
<polygon fill="#63b8ff" stroke="#63b8ff" points="2168.48,-172.19 2159.27,-177.42 2169.74,-179.07 2168.48,-172.19"/>
</g>
<!-- Node30 -->
<g id="node30" class="node">
<title>Node30</title>
<g id="a_node30"><a xlink:href="../../d2/d44/vexpr_8cpp.html" target="_top" xlink:title=" ">
<polygon fill="white" stroke="#666666" points="2888,-129 2766,-129 2766,-99 2888,-99 2888,-129"/>
<text text-anchor="start" x="2774" y="-117" font-family="Helvetica,sans-Serif" font-size="10.00">/Users/dabowang/be</text>
<text text-anchor="middle" x="2827" y="-106" font-family="Helvetica,sans-Serif" font-size="10.00">_all/vec/exprs/vexpr.cpp</text>
</a>
</g>
</g>
<!-- Node12&#45;&gt;Node30 -->
<g id="edge30" class="edge">
<title>Node12&#45;&gt;Node30</title>
<path fill="none" stroke="#63b8ff" d="M2169.02,-175.69C2427.31,-132.17 2502.84,-192.03 2757,-140 2768.88,-137.57 2781.48,-133.55 2792.66,-129.44"/>
<polygon fill="#63b8ff" stroke="#63b8ff" points="2168.52,-172.22 2159.26,-177.37 2169.71,-179.12 2168.52,-172.22"/>
</g>
<!-- Node31 -->
<g id="node31" class="node">
<title>Node31</title>
<g id="a_node31"><a xlink:href="../../d2/d93/vin__predicate_8cpp.html" target="_top" xlink:title=" ">
<polygon fill="white" stroke="#666666" points="3063.5,-129 2906.5,-129 2906.5,-99 3063.5,-99 3063.5,-129"/>
<text text-anchor="start" x="2914.5" y="-117" font-family="Helvetica,sans-Serif" font-size="10.00">/Users/dabowang/be</text>
<text text-anchor="middle" x="2985" y="-106" font-family="Helvetica,sans-Serif" font-size="10.00">_all/vec/exprs/vin_predicate.cpp</text>
</a>
</g>
</g>
<!-- Node12&#45;&gt;Node31 -->
<g id="edge31" class="edge">
<title>Node12&#45;&gt;Node31</title>
<path fill="none" stroke="#63b8ff" d="M2168.76,-175.75C2488.73,-123.12 2579.63,-192.19 2897,-140 2911.73,-137.58 2927.51,-133.56 2941.58,-129.45"/>
<polygon fill="#63b8ff" stroke="#63b8ff" points="2168.54,-172.23 2159.26,-177.34 2169.7,-179.14 2168.54,-172.23"/>
</g>
<!-- Node32 -->
<g id="node32" class="node">
<title>Node32</title>
<g id="a_node32"><a xlink:href="../../d1/d54/vruntimefilter__wrapper_8cpp.html" target="_top" xlink:title=" ">
<polygon fill="white" stroke="#666666" points="3218.5,-134.5 3081.5,-134.5 3081.5,-93.5 3218.5,-93.5 3218.5,-134.5"/>
<text text-anchor="start" x="3089.5" y="-122.5" font-family="Helvetica,sans-Serif" font-size="10.00">/Users/dabowang/be</text>
<text text-anchor="start" x="3089.5" y="-111.5" font-family="Helvetica,sans-Serif" font-size="10.00">_all/vec/exprs/vruntimefilter</text>
<text text-anchor="middle" x="3150" y="-100.5" font-family="Helvetica,sans-Serif" font-size="10.00">_wrapper.cpp</text>
</a>
</g>
</g>
<!-- Node12&#45;&gt;Node32 -->
<g id="edge32" class="edge">
<title>Node12&#45;&gt;Node32</title>
<path fill="none" stroke="#63b8ff" d="M2168.99,-175.73C2566.15,-112.19 2679.55,-210.3 3073,-140 3080.06,-138.74 3087.36,-136.99 3094.52,-134.99"/>
<polygon fill="#63b8ff" stroke="#63b8ff" points="2168.56,-172.25 2159.25,-177.31 2169.69,-179.16 2168.56,-172.25"/>
</g>
<!-- Node33 -->
<g id="node33" class="node">
<title>Node33</title>
<g id="a_node33"><a xlink:href="../../de/d37/vtuple__is__null__predicate_8cpp.html" target="_top" xlink:title=" ">
<polygon fill="white" stroke="#666666" points="3349.5,-134.5 3236.5,-134.5 3236.5,-93.5 3349.5,-93.5 3349.5,-134.5"/>
<text text-anchor="start" x="3244.5" y="-122.5" font-family="Helvetica,sans-Serif" font-size="10.00">/Users/dabowang/be</text>
<text text-anchor="start" x="3244.5" y="-111.5" font-family="Helvetica,sans-Serif" font-size="10.00">_all/vec/exprs/vtuple</text>
<text text-anchor="middle" x="3293" y="-100.5" font-family="Helvetica,sans-Serif" font-size="10.00">_is_null_predicate.cpp</text>
</a>
</g>
</g>
<!-- Node12&#45;&gt;Node33 -->
<g id="edge33" class="edge">
<title>Node12&#45;&gt;Node33</title>
<path fill="none" stroke="#63b8ff" d="M2168.81,-175.77C2634.29,-102.56 2768.81,-233.34 3228,-140 3234.16,-138.75 3240.5,-136.97 3246.69,-134.94"/>
<polygon fill="#63b8ff" stroke="#63b8ff" points="2168.57,-172.26 2159.25,-177.3 2169.68,-179.17 2168.57,-172.26"/>
</g>
<!-- Node34 -->
<g id="node34" class="node">
<title>Node34</title>
<g id="a_node34"><a xlink:href="../../d2/d7e/function__cast_8h.html" target="_top" xlink:title=" ">
<polygon fill="white" stroke="#666666" points="3537.5,-134.5 3406.5,-134.5 3406.5,-93.5 3537.5,-93.5 3537.5,-134.5"/>
<text text-anchor="start" x="3414.5" y="-122.5" font-family="Helvetica,sans-Serif" font-size="10.00">/Users/dabowang/be</text>
<text text-anchor="start" x="3414.5" y="-111.5" font-family="Helvetica,sans-Serif" font-size="10.00">_all/vec/functions/function</text>
<text text-anchor="middle" x="3472" y="-100.5" font-family="Helvetica,sans-Serif" font-size="10.00">_cast.h</text>
</a>
</g>
</g>
<!-- Node12&#45;&gt;Node34 -->
<g id="edge34" class="edge">
<title>Node12&#45;&gt;Node34</title>
<path fill="none" stroke="#63b8ff" d="M2168.91,-175.76C2706.38,-91.96 2858.06,-229.52 3392,-140 3399.46,-138.75 3407.19,-136.97 3414.78,-134.94"/>
<polygon fill="#63b8ff" stroke="#63b8ff" points="2168.58,-172.27 2159.25,-177.28 2169.67,-179.18 2168.58,-172.27"/>
</g>
<!-- Node35 -->
<g id="node35" class="node">
<title>Node35</title>
<g id="a_node35"><a xlink:href="../../d1/d3d/function__cast_8cpp.html" target="_top" xlink:title=" ">
<polygon fill="white" stroke="#666666" points="3537.5,-46.5 3406.5,-46.5 3406.5,-5.5 3537.5,-5.5 3537.5,-46.5"/>
<text text-anchor="start" x="3414.5" y="-34.5" font-family="Helvetica,sans-Serif" font-size="10.00">/Users/dabowang/be</text>
<text text-anchor="start" x="3414.5" y="-23.5" font-family="Helvetica,sans-Serif" font-size="10.00">_all/vec/functions/function</text>
<text text-anchor="middle" x="3472" y="-12.5" font-family="Helvetica,sans-Serif" font-size="10.00">_cast.cpp</text>
</a>
</g>
</g>
<!-- Node34&#45;&gt;Node35 -->
<g id="edge35" class="edge">
<title>Node34&#45;&gt;Node35</title>
<path fill="none" stroke="#63b8ff" d="M3472,-81.56C3472,-69.95 3472,-57.13 3472,-46.84"/>
<polygon fill="#63b8ff" stroke="#63b8ff" points="3468.5,-81.54 3472,-91.54 3475.5,-81.54 3468.5,-81.54"/>
</g>
</g>
</svg>
        <g id="navigator" transform="translate(0 0)" fill="#404254">
                <rect fill="#f2f5e9" fill-opacity="0.5" stroke="#606060" stroke-width=".5" x="0" y="0" width="60" height="60"/>
                <use id="zoomplus" xlink:href="#zoomPlus" x="17" y="9" onmousedown="handleZoom(evt,'in')"/>
                <use id="zoomminus" xlink:href="#zoomMin" x="42" y="9" onmousedown="handleZoom(evt,'out')"/>
                <use id="reset" xlink:href="#resetDef" x="30" y="36" onmousedown="handleReset()"/>
                <g id="arrowUp" xlink:href="#dirArrow" transform="translate(30 24)" onmousedown="handlePan(0,-1)">
                  <use xlink:href="#rim" fill="#404040">
                        <set attributeName="fill" to="#808080" begin="arrowUp.mouseover" end="arrowUp.mouseout"/>
                  </use>
                  <path fill="none" stroke="white" stroke-width="1.5" d="M0,-3.0v7 M-2.5,-0.5L0,-3.0L2.5,-0.5"/>
                </g>
                <g id="arrowRight" xlink:href="#dirArrow" transform="rotate(90) translate(36 -43)" onmousedown="handlePan(1,0)">
                  <use xlink:href="#rim" fill="#404040">
                        <set attributeName="fill" to="#808080" begin="arrowRight.mouseover" end="arrowRight.mouseout"/>
                  </use>
                  <path fill="none" stroke="white" stroke-width="1.5" d="M0,-3.0v7 M-2.5,-0.5L0,-3.0L2.5,-0.5"/>
                </g>
                <g id="arrowDown" xlink:href="#dirArrow" transform="rotate(180) translate(-30 -48)" onmousedown="handlePan(0,1)">
                  <use xlink:href="#rim" fill="#404040">
                        <set attributeName="fill" to="#808080" begin="arrowDown.mouseover" end="arrowDown.mouseout"/>
                  </use>
                  <path fill="none" stroke="white" stroke-width="1.5" d="M0,-3.0v7 M-2.5,-0.5L0,-3.0L2.5,-0.5"/>
                </g>
                <g id="arrowLeft" xlink:href="#dirArrow" transform="rotate(270) translate(-36 17)" onmousedown="handlePan(-1,0)">
                  <use xlink:href="#rim" fill="#404040">
                        <set attributeName="fill" to="#808080" begin="arrowLeft.mouseover" end="arrowLeft.mouseout"/>
                  </use>
                  <path fill="none" stroke="white" stroke-width="1.5" d="M0,-3.0v7 M-2.5,-0.5L0,-3.0L2.5,-0.5"/>
                </g>
        </g>
        <svg viewBox="0 0 15 15" width="100%" height="30px" preserveAspectRatio="xMaxYMin meet">
         <g id="arrow_out" transform="scale(0.3 0.3)">
          <a xlink:href="data__type__hll_8h__dep__incl_org.svg" target="_base">
           <rect id="button" ry="5" rx="5" y="6" x="6" height="38" width="38"
                fill="#f2f5e9" fill-opacity="0.5" stroke="#606060" stroke-width="1.0"/>
           <path id="arrow"
             d="M 11.500037,31.436501 C 11.940474,20.09759 22.043105,11.32322 32.158766,21.979434 L 37.068811,17.246167 C 37.068811,17.246167 37.088388,32 37.088388,32 L 22.160133,31.978069 C 22.160133,31.978069 26.997745,27.140456 26.997745,27.140456 C 18.528582,18.264221 13.291696,25.230495 11.500037,31.436501 z"
             style="fill:#404040;"/>
          </a>
         </g>
        </svg>
</svg>
