<?xml version="1.0" encoding="UTF-8" standalone="no"?>
<!DOCTYPE svg PUBLIC "-//W3C//DTD SVG 1.1//EN"
 "http://www.w3.org/Graphics/SVG/1.1/DTD/svg11.dtd">
<!-- Generated by graphviz version 7.1.0 (20230121.1956)
 -->
<!-- Title: execute_impl Pages: 1 -->
<svg width="442pt" height="539pt"
 viewBox="0.00 0.00 442.00 538.50" xmlns="http://www.w3.org/2000/svg" xmlns:xlink="http://www.w3.org/1999/xlink">
<g id="graph0" class="graph" transform="scale(1 1) rotate(0) translate(4 534.5)">
<title>execute_impl</title>
<!-- Node1 -->
<g id="node1" class="node">
<title>Node1</title>
<g id="a_node1"><a xlink:title=" ">
<polygon fill="#999999" stroke="#666666" points="74,-273 0,-273 0,-254 74,-254 74,-273"/>
<text text-anchor="middle" x="37" y="-261" font-family="Helvetica,sans-Serif" font-size="10.00">execute_impl</text>
</a>
</g>
</g>
<!-- Node2 -->
<g id="node2" class="node">
<title>Node2</title>
<g id="a_node2"><a xlink:href="../../da/d30/class_c_o_w_helper.html#aa14023f47995d24ce0ea777e90a4cb23" target="_top" xlink:title=" ">
<polygon fill="white" stroke="#666666" points="282,-530.5 110,-530.5 110,-500.5 282,-500.5 282,-530.5"/>
<text text-anchor="start" x="118" y="-518.5" font-family="Helvetica,sans-Serif" font-size="10.00">COWHelper&lt; ColumnVectorHelper,</text>
<text text-anchor="middle" x="196" y="-507.5" font-family="Helvetica,sans-Serif" font-size="10.00"> ColumnVector&lt; T &gt; &gt;::create</text>
</a>
</g>
</g>
<!-- Node1&#45;&gt;Node2 -->
<g id="edge1" class="edge">
<title>Node1&#45;&gt;Node2</title>
<path fill="none" stroke="#63b8ff" d="M38,-273.4C38.56,-308.57 45.34,-428.79 110,-491.5 110.75,-492.22 111.51,-492.93 112.3,-493.61"/>
<polygon fill="#63b8ff" stroke="#63b8ff" points="109.96,-496.24 120.12,-499.25 114.06,-490.56 109.96,-496.24"/>
</g>
<!-- Node3 -->
<g id="node3" class="node">
<title>Node3</title>
<g id="a_node3"><a xlink:href="../../d4/d41/classdoris_1_1vectorized_1_1_column_nullable.html#aa56bff67215caba11a6411e09b739913" target="_top" xlink:title=" ">
<polygon fill="white" stroke="#666666" points="255.5,-464.5 136.5,-464.5 136.5,-434.5 255.5,-434.5 255.5,-464.5"/>
<text text-anchor="start" x="144.5" y="-452.5" font-family="Helvetica,sans-Serif" font-size="10.00">doris::vectorized::</text>
<text text-anchor="middle" x="196" y="-441.5" font-family="Helvetica,sans-Serif" font-size="10.00">ColumnNullable::create</text>
</a>
</g>
</g>
<!-- Node1&#45;&gt;Node3 -->
<g id="edge2" class="edge">
<title>Node1&#45;&gt;Node3</title>
<path fill="none" stroke="#63b8ff" d="M39.41,-273.21C43.99,-301.28 61.15,-383.18 110,-425.5 114.71,-429.58 120.06,-432.97 125.74,-435.78"/>
<polygon fill="#63b8ff" stroke="#63b8ff" points="124.27,-438.96 134.84,-439.66 127.02,-432.52 124.27,-438.96"/>
</g>
<!-- Node4 -->
<g id="node4" class="node">
<title>Node4</title>
<g id="a_node4"><a xlink:href="../../d5/d3d/classdoris_1_1vectorized_1_1_vec_date_time_value.html#a23ba624304ee0bf52ecc9679621710cd" target="_top" xlink:title=" ">
<polygon fill="white" stroke="#666666" points="259,-398 133,-398 133,-357 259,-357 259,-398"/>
<text text-anchor="start" x="141" y="-386" font-family="Helvetica,sans-Serif" font-size="10.00">doris::vectorized::</text>
<text text-anchor="start" x="141" y="-375" font-family="Helvetica,sans-Serif" font-size="10.00">VecDateTimeValue::from</text>
<text text-anchor="middle" x="196" y="-364" font-family="Helvetica,sans-Serif" font-size="10.00">_date_format_str</text>
</a>
</g>
</g>
<!-- Node1&#45;&gt;Node4 -->
<g id="edge4" class="edge">
<title>Node1&#45;&gt;Node4</title>
<path fill="none" stroke="#63b8ff" d="M44.68,-273.28C56.26,-289.61 81.58,-322.59 110,-342.5 114.62,-345.74 119.58,-348.75 124.71,-351.53"/>
<polygon fill="#63b8ff" stroke="#63b8ff" points="122.87,-354.52 133.37,-355.92 126.03,-348.28 122.87,-354.52"/>
</g>
<!-- Node5 -->
<g id="node5" class="node">
<title>Node5</title>
<g id="a_node5"><a xlink:href="../../d2/d12/classdoris_1_1vectorized_1_1_block.html#a54f8f7eae676dfa49029fff7c7ce8f05" target="_top" xlink:title="References are invalidated after calling functions above.">
<polygon fill="white" stroke="#666666" points="434,-321.5 318,-321.5 318,-291.5 434,-291.5 434,-321.5"/>
<text text-anchor="start" x="326" y="-309.5" font-family="Helvetica,sans-Serif" font-size="10.00">doris::vectorized::</text>
<text text-anchor="middle" x="376" y="-298.5" font-family="Helvetica,sans-Serif" font-size="10.00">Block::get_by_position</text>
</a>
</g>
</g>
<!-- Node1&#45;&gt;Node5 -->
<g id="edge6" class="edge">
<title>Node1&#45;&gt;Node5</title>
<path fill="none" stroke="#63b8ff" d="M48.72,-273.19C61.99,-284.46 85.8,-302.43 110,-309.5 174.63,-328.38 251.96,-324.7 306.36,-318.07"/>
<polygon fill="#63b8ff" stroke="#63b8ff" points="306.63,-321.57 316.1,-316.82 305.74,-314.63 306.63,-321.57"/>
</g>
<!-- Node6 -->
<g id="node6" class="node">
<title>Node6</title>
<g id="a_node6"><a xlink:href="../../d9/d8d/classdoris_1_1_status.html#a6ec1a217f203269ab53d2290d602db24" target="_top" xlink:title=" ">
<polygon fill="white" stroke="#666666" points="242,-252 150,-252 150,-233 242,-233 242,-252"/>
<text text-anchor="middle" x="196" y="-240" font-family="Helvetica,sans-Serif" font-size="10.00">doris::Status::OK</text>
</a>
</g>
</g>
<!-- Node1&#45;&gt;Node6 -->
<g id="edge7" class="edge">
<title>Node1&#45;&gt;Node6</title>
<path fill="none" stroke="#63b8ff" d="M74.41,-258.63C93.38,-256.09 117,-252.93 138.29,-250.08"/>
<polygon fill="#63b8ff" stroke="#63b8ff" points="138.56,-253.58 148.01,-248.79 137.63,-246.64 138.56,-253.58"/>
</g>
<!-- Node8 -->
<g id="node8" class="node">
<title>Node8</title>
<g id="a_node8"><a xlink:href="../../d2/d12/classdoris_1_1vectorized_1_1_block.html#a0f83afb1e34b7b73db116622fa569508" target="_top" xlink:title=" ">
<polygon fill="white" stroke="#666666" points="263,-300.5 129,-300.5 129,-270.5 263,-270.5 263,-300.5"/>
<text text-anchor="start" x="137" y="-288.5" font-family="Helvetica,sans-Serif" font-size="10.00">doris::vectorized::</text>
<text text-anchor="middle" x="196" y="-277.5" font-family="Helvetica,sans-Serif" font-size="10.00">Block::replace_by_position</text>
</a>
</g>
</g>
<!-- Node1&#45;&gt;Node8 -->
<g id="edge9" class="edge">
<title>Node1&#45;&gt;Node8</title>
<path fill="none" stroke="#63b8ff" d="M74.41,-268.6C87.26,-270.4 102.25,-272.5 117.2,-274.6"/>
<polygon fill="#63b8ff" stroke="#63b8ff" points="116.7,-278.06 127.09,-275.98 117.67,-271.13 116.7,-278.06"/>
</g>
<!-- Node9 -->
<g id="node9" class="node">
<title>Node9</title>
<g id="a_node9"><a xlink:href="../../db/de7/classdoris_1_1_function_context.html#a2ccf49be12555d373b883be1aa7b6709" target="_top" xlink:title=" ">
<polygon fill="white" stroke="#666666" points="254,-214.5 138,-214.5 138,-184.5 254,-184.5 254,-214.5"/>
<text text-anchor="start" x="146" y="-202.5" font-family="Helvetica,sans-Serif" font-size="10.00">doris::FunctionContext</text>
<text text-anchor="middle" x="196" y="-191.5" font-family="Helvetica,sans-Serif" font-size="10.00">::state</text>
</a>
</g>
</g>
<!-- Node1&#45;&gt;Node9 -->
<g id="edge11" class="edge">
<title>Node1&#45;&gt;Node9</title>
<path fill="none" stroke="#63b8ff" d="M53.82,-253.67C68.1,-245.1 89.89,-232.79 110,-224.5 115.51,-222.23 121.3,-220.07 127.16,-218.04"/>
<polygon fill="#63b8ff" stroke="#63b8ff" points="127.9,-221.49 136.29,-215.02 125.7,-214.84 127.9,-221.49"/>
</g>
<!-- Node10 -->
<g id="node10" class="node">
<title>Node10</title>
<g id="a_node10"><a xlink:href="../../d7/dc1/classdoris_1_1_runtime_state.html#aaed01805340af1362c3ab00262c56780" target="_top" xlink:title=" ">
<polygon fill="white" stroke="#666666" points="248,-166.5 144,-166.5 144,-136.5 248,-136.5 248,-166.5"/>
<text text-anchor="start" x="152" y="-154.5" font-family="Helvetica,sans-Serif" font-size="10.00">doris::RuntimeState</text>
<text text-anchor="middle" x="196" y="-143.5" font-family="Helvetica,sans-Serif" font-size="10.00">::timezone_obj</text>
</a>
</g>
</g>
<!-- Node1&#45;&gt;Node10 -->
<g id="edge12" class="edge">
<title>Node1&#45;&gt;Node10</title>
<path fill="none" stroke="#63b8ff" d="M43.31,-253.65C53.65,-235.39 78.3,-196.27 110,-175.5 117.04,-170.88 124.98,-167.14 133.1,-164.11"/>
<polygon fill="#63b8ff" stroke="#63b8ff" points="134.01,-167.5 142.38,-161.01 131.79,-160.86 134.01,-167.5"/>
</g>
<!-- Node11 -->
<g id="node11" class="node">
<title>Node11</title>
<g id="a_node11"><a xlink:href="../../d5/d0b/structdoris_1_1vectorized_1_1_unix_time_stamp_impl.html#a2928a06c8cebb03e742d06c5fb7c8838" target="_top" xlink:title=" ">
<polygon fill="white" stroke="#666666" points="260,-118 132,-118 132,-77 260,-77 260,-118"/>
<text text-anchor="start" x="140" y="-106" font-family="Helvetica,sans-Serif" font-size="10.00">doris::vectorized::</text>
<text text-anchor="start" x="140" y="-95" font-family="Helvetica,sans-Serif" font-size="10.00">UnixTimeStampImpl::trim</text>
<text text-anchor="middle" x="196" y="-84" font-family="Helvetica,sans-Serif" font-size="10.00">_timestamp</text>
</a>
</g>
</g>
<!-- Node1&#45;&gt;Node11 -->
<g id="edge13" class="edge">
<title>Node1&#45;&gt;Node11</title>
<path fill="none" stroke="#63b8ff" d="M40.5,-253.72C47.3,-228.96 68.52,-163.27 110,-127.5 113.6,-124.4 117.54,-121.61 121.69,-119.1"/>
<polygon fill="#63b8ff" stroke="#63b8ff" points="123.2,-122.26 130.37,-114.46 119.9,-116.09 123.2,-122.26"/>
</g>
<!-- Node12 -->
<g id="node12" class="node">
<title>Node12</title>
<g id="a_node12"><a xlink:href="../../d5/d3d/classdoris_1_1vectorized_1_1_vec_date_time_value.html#ae97fbb01a72403b590e8d3f99340de07" target="_top" xlink:title=" ">
<polygon fill="white" stroke="#666666" points="258.5,-41 133.5,-41 133.5,0 258.5,0 258.5,-41"/>
<text text-anchor="start" x="141.5" y="-29" font-family="Helvetica,sans-Serif" font-size="10.00">doris::vectorized::</text>
<text text-anchor="start" x="141.5" y="-18" font-family="Helvetica,sans-Serif" font-size="10.00">VecDateTimeValue::unix</text>
<text text-anchor="middle" x="196" y="-7" font-family="Helvetica,sans-Serif" font-size="10.00">_timestamp</text>
</a>
</g>
</g>
<!-- Node1&#45;&gt;Node12 -->
<g id="edge14" class="edge">
<title>Node1&#45;&gt;Node12</title>
<path fill="none" stroke="#63b8ff" d="M39.19,-253.8C43.42,-223.16 60.17,-127.03 110,-68.5 116.93,-60.36 125.61,-53.32 134.75,-47.32"/>
<polygon fill="#63b8ff" stroke="#63b8ff" points="136.37,-50.43 143.1,-42.24 132.73,-44.45 136.37,-50.43"/>
</g>
<!-- Node3&#45;&gt;Node3 -->
<g id="edge3" class="edge">
<title>Node3&#45;&gt;Node3</title>
<path fill="none" stroke="#63b8ff" d="M168.05,-464.78C161.84,-473.91 171.16,-482.5 196,-482.5 209.59,-482.5 218.53,-479.93 222.83,-476.11"/>
<polygon fill="#63b8ff" stroke="#63b8ff" points="226.3,-476.58 223.8,-466.28 219.33,-475.89 226.3,-476.58"/>
</g>
<!-- Node4&#45;&gt;Node4 -->
<g id="edge5" class="edge">
<title>Node4&#45;&gt;Node4</title>
<path fill="none" stroke="#63b8ff" d="M166.65,-398.49C163.86,-407.88 173.64,-416 196,-416 208.93,-416 217.65,-413.29 222.17,-409.18"/>
<polygon fill="#63b8ff" stroke="#63b8ff" points="225.42,-410.52 224.92,-399.94 218.71,-408.53 225.42,-410.52"/>
</g>
<!-- Node7 -->
<g id="node7" class="node">
<title>Node7</title>
<g id="a_node7"><a xlink:href="../../d9/d8d/classdoris_1_1_status.html#aafde58df1b2a6a91d5b674373be3ffc5" target="_top" xlink:title=" ">
<polygon fill="white" stroke="#666666" points="429.5,-252 322.5,-252 322.5,-233 429.5,-233 429.5,-252"/>
<text text-anchor="middle" x="376" y="-240" font-family="Helvetica,sans-Serif" font-size="10.00">doris::Status::Status</text>
</a>
</g>
</g>
<!-- Node6&#45;&gt;Node7 -->
<g id="edge8" class="edge">
<title>Node6&#45;&gt;Node7</title>
<path fill="none" stroke="#63b8ff" d="M242.38,-242.5C263.17,-242.5 288.19,-242.5 310.86,-242.5"/>
<polygon fill="#63b8ff" stroke="#63b8ff" points="310.61,-246 320.61,-242.5 310.61,-239 310.61,-246"/>
</g>
<!-- Node8&#45;&gt;Node5 -->
<g id="edge10" class="edge">
<title>Node8&#45;&gt;Node5</title>
<path fill="none" stroke="#63b8ff" d="M263.28,-293.32C277.4,-294.99 292.33,-296.75 306.53,-298.42"/>
<polygon fill="#63b8ff" stroke="#63b8ff" points="305.88,-301.87 316.22,-299.57 306.7,-294.92 305.88,-301.87"/>
</g>
<!-- Node12&#45;&gt;Node12 -->
<g id="edge16" class="edge">
<title>Node12&#45;&gt;Node12</title>
<path fill="none" stroke="#63b8ff" d="M166.65,-41.49C163.86,-50.88 173.64,-59 196,-59 208.93,-59 217.65,-56.29 222.17,-52.18"/>
<polygon fill="#63b8ff" stroke="#63b8ff" points="225.42,-53.52 224.92,-42.94 218.71,-51.53 225.42,-53.52"/>
</g>
<!-- Node13 -->
<g id="node13" class="node">
<title>Node13</title>
<g id="a_node13"><a xlink:href="../../de/ded/classdoris_1_1_timezone_utils.html#ab5e83794913b59fe4eabbf178c05148b" target="_top" xlink:title=" ">
<polygon fill="white" stroke="#666666" points="432.5,-35.5 319.5,-35.5 319.5,-5.5 432.5,-5.5 432.5,-35.5"/>
<text text-anchor="start" x="327.5" y="-23.5" font-family="Helvetica,sans-Serif" font-size="10.00">doris::TimezoneUtils</text>
<text text-anchor="middle" x="376" y="-12.5" font-family="Helvetica,sans-Serif" font-size="10.00">::find_cctz_time_zone</text>
</a>
</g>
</g>
<!-- Node12&#45;&gt;Node13 -->
<g id="edge15" class="edge">
<title>Node12&#45;&gt;Node13</title>
<path fill="none" stroke="#63b8ff" d="M258.76,-20.5C274.51,-20.5 291.53,-20.5 307.55,-20.5"/>
<polygon fill="#63b8ff" stroke="#63b8ff" points="307.5,-24 317.5,-20.5 307.5,-17 307.5,-24"/>
</g>
</g>
</svg>
