<?xml version="1.0" encoding="UTF-8" standalone="no"?>
<!DOCTYPE svg PUBLIC "-//W3C//DTD SVG 1.1//EN"
 "http://www.w3.org/Graphics/SVG/1.1/DTD/svg11.dtd">
<!-- Generated by graphviz version 7.1.0 (20230121.1956)
 -->
<!-- Title: execute Pages: 1 -->
<!--zoomable 267 -->
<svg id="main" version="1.1" xmlns="http://www.w3.org/2000/svg" xmlns:xlink="http://www.w3.org/1999/xlink" xml:space="preserve" onload="init(evt)">
<style type="text/css"><![CDATA[
.edge:hover path { stroke: red; }
.edge:hover polygon { stroke: red; fill: red; }
]]></style>
<script type="text/javascript"><![CDATA[
var edges = document.getElementsByTagName('g');
if (edges && edges.length) {
  for (var i=0;i<edges.length;i++) {
    if (edges[i].id.substr(0,4)=='edge') {
      edges[i].setAttribute('class','edge');
    }
  }
}
]]></script>
        <defs>
                <circle id="rim" cx="0" cy="0" r="7"/>
                <circle id="rim2" cx="0" cy="0" r="3.5"/>
                <g id="zoomPlus">
                        <use xlink:href="#rim" fill="#404040">
                                <set attributeName="fill" to="#808080" begin="zoomplus.mouseover" end="zoomplus.mouseout"/>
                        </use>
                        <path d="M-4,0h8M0,-4v8" fill="none" stroke="white" stroke-width="1.5" pointer-events="none"/>
                </g>
                <g id="zoomMin">
                        <use xlink:href="#rim" fill="#404040">
                                <set attributeName="fill" to="#808080" begin="zoomminus.mouseover" end="zoomminus.mouseout"/>
                        </use>
                        <path d="M-4,0h8" fill="none" stroke="white" stroke-width="1.5" pointer-events="none"/>
                </g>
                <g id="dirArrow">
                        <path fill="none" stroke="white" stroke-width="1.5" d="M0,-3.0v7 M-2.5,-0.5L0,-3.0L2.5,-0.5"/>
                </g>
               <g id="resetDef">
                       <use xlink:href="#rim2" fill="#404040">
                               <set attributeName="fill" to="#808080" begin="reset.mouseover" end="reset.mouseout"/>
                       </use>
               </g>
        </defs>

<script type="text/javascript">
var viewWidth = 1074;
var viewHeight = 267;
var sectionId = 'dynsection-0';
</script>
<script xlink:href="../../svgpan.js"/>
<svg id="graph" class="graph">
<g id="viewport">
<title>execute</title>
<!-- Node1 -->
<g id="node1" class="node">
<title>Node1</title>
<g id="a_node1"><a xlink:title=" ">
<polygon fill="#999999" stroke="#666666" points="51,-151 0,-151 0,-132 51,-132 51,-151"/>
<text text-anchor="middle" x="25.5" y="-139" font-family="Helvetica,sans-Serif" font-size="10.00">execute</text>
</a>
</g>
</g>
<!-- Node2 -->
<g id="node2" class="node">
<title>Node2</title>
<g id="a_node2"><a xlink:href="../../d7/d3c/classdoris_1_1vectorized_1_1_column_string.html#a3ddb0d39331caa0f2f8014c9019500ed" target="_top" xlink:title=" ">
<polygon fill="white" stroke="#666666" points="217,-156.5 87,-156.5 87,-126.5 217,-126.5 217,-156.5"/>
<text text-anchor="start" x="95" y="-144.5" font-family="Helvetica,sans-Serif" font-size="10.00">doris::vectorized::</text>
<text text-anchor="middle" x="152" y="-133.5" font-family="Helvetica,sans-Serif" font-size="10.00">ColumnString::insert_data</text>
</a>
</g>
</g>
<!-- Node1&#45;&gt;Node2 -->
<g id="edge1" class="edge">
<title>Node1&#45;&gt;Node2</title>
<path fill="none" stroke="#63b8ff" d="M51.4,-141.5C58.55,-141.5 66.75,-141.5 75.3,-141.5"/>
<polygon fill="#63b8ff" stroke="#63b8ff" points="75.18,-145 85.18,-141.5 75.18,-138 75.18,-145"/>
</g>
<!-- Node3 -->
<g id="node3" class="node">
<title>Node3</title>
<g id="a_node3"><a xlink:href="../../d7/d3c/classdoris_1_1vectorized_1_1_column_string.html#ab15ae3a50f8d1fbc7b1986af77263e2c" target="_top" xlink:title=" ">
<polygon fill="white" stroke="#666666" points="365,-259 257,-259 257,-218 365,-218 365,-259"/>
<text text-anchor="start" x="265" y="-247" font-family="Helvetica,sans-Serif" font-size="10.00">doris::vectorized::</text>
<text text-anchor="start" x="265" y="-236" font-family="Helvetica,sans-Serif" font-size="10.00">ColumnString::check</text>
<text text-anchor="middle" x="311" y="-225" font-family="Helvetica,sans-Serif" font-size="10.00">_chars_length</text>
</a>
</g>
</g>
<!-- Node2&#45;&gt;Node3 -->
<g id="edge2" class="edge">
<title>Node2&#45;&gt;Node3</title>
<path fill="none" stroke="#63b8ff" d="M174.42,-156.81C194.38,-170.85 225.17,-191.92 253,-208.5 255.07,-209.73 257.19,-210.97 259.35,-212.2"/>
<polygon fill="#63b8ff" stroke="#63b8ff" points="257.16,-214.99 267.6,-216.81 260.58,-208.88 257.16,-214.99"/>
</g>
<!-- Node4 -->
<g id="node4" class="node">
<title>Node4</title>
<g id="a_node4"><a xlink:href="../../df/db2/classdoris_1_1vectorized_1_1_p_o_d_array.html#adc1e16b293a89a9ccc9541058b5ca560" target="_top" xlink:title=" ">
<polygon fill="white" stroke="#666666" points="358.5,-199.5 263.5,-199.5 263.5,-169.5 358.5,-169.5 358.5,-199.5"/>
<text text-anchor="start" x="271.5" y="-187.5" font-family="Helvetica,sans-Serif" font-size="10.00">doris::vectorized::</text>
<text text-anchor="middle" x="311" y="-176.5" font-family="Helvetica,sans-Serif" font-size="10.00">PODArray::data</text>
</a>
</g>
</g>
<!-- Node2&#45;&gt;Node4 -->
<g id="edge3" class="edge">
<title>Node2&#45;&gt;Node4</title>
<path fill="none" stroke="#63b8ff" d="M209.24,-156.9C223.19,-160.72 238.17,-164.83 252.2,-168.67"/>
<polygon fill="#63b8ff" stroke="#63b8ff" points="251.18,-172.02 261.75,-171.28 253.03,-165.27 251.18,-172.02"/>
</g>
<!-- Node6 -->
<g id="node6" class="node">
<title>Node6</title>
<g id="a_node6"><a xlink:href="../../d9/d1e/memcpy__aarch64_8cpp.html#a156c5821f16ed93be8c7d315303f7b2a" target="_top" xlink:title=" ">
<polygon fill="white" stroke="#666666" points="338,-151 284,-151 284,-132 338,-132 338,-151"/>
<text text-anchor="middle" x="311" y="-139" font-family="Helvetica,sans-Serif" font-size="10.00">memcpy</text>
</a>
</g>
</g>
<!-- Node2&#45;&gt;Node6 -->
<g id="edge5" class="edge">
<title>Node2&#45;&gt;Node6</title>
<path fill="none" stroke="#63b8ff" d="M217.31,-141.5C235.98,-141.5 255.76,-141.5 272.23,-141.5"/>
<polygon fill="#63b8ff" stroke="#63b8ff" points="272.06,-145 282.06,-141.5 272.06,-138 272.06,-145"/>
</g>
<!-- Node8 -->
<g id="node8" class="node">
<title>Node8</title>
<g id="a_node8"><a xlink:href="../../d5/d9d/classdoris_1_1vectorized_1_1_p_o_d_array_base.html#a0c895d2dd381326acf54873d9d3a5aa5" target="_top" xlink:title=" ">
<polygon fill="white" stroke="#666666" points="369,-113.5 253,-113.5 253,-83.5 369,-83.5 369,-113.5"/>
<text text-anchor="start" x="261" y="-101.5" font-family="Helvetica,sans-Serif" font-size="10.00">doris::vectorized::</text>
<text text-anchor="middle" x="311" y="-90.5" font-family="Helvetica,sans-Serif" font-size="10.00">PODArrayBase::resize</text>
</a>
</g>
</g>
<!-- Node2&#45;&gt;Node8 -->
<g id="edge7" class="edge">
<title>Node2&#45;&gt;Node8</title>
<path fill="none" stroke="#63b8ff" d="M209.24,-126.1C220.06,-123.13 231.5,-120 242.63,-116.95"/>
<polygon fill="#63b8ff" stroke="#63b8ff" points="243.45,-120.36 252.17,-114.34 241.6,-113.61 243.45,-120.36"/>
</g>
<!-- Node20 -->
<g id="node20" class="node">
<title>Node20</title>
<g id="a_node20"><a xlink:href="../../d5/d9d/classdoris_1_1vectorized_1_1_p_o_d_array_base.html#a259cb5a711406a8c3e5d937eb9350cca" target="_top" xlink:title=" ">
<polygon fill="white" stroke="#666666" points="365,-65.5 257,-65.5 257,-35.5 365,-35.5 365,-65.5"/>
<text text-anchor="start" x="265" y="-53.5" font-family="Helvetica,sans-Serif" font-size="10.00">doris::vectorized::</text>
<text text-anchor="middle" x="311" y="-42.5" font-family="Helvetica,sans-Serif" font-size="10.00">PODArrayBase::size</text>
</a>
</g>
</g>
<!-- Node2&#45;&gt;Node20 -->
<g id="edge20" class="edge">
<title>Node2&#45;&gt;Node20</title>
<path fill="none" stroke="#63b8ff" d="M173.34,-126.17C193.05,-111.74 224.12,-90.07 253,-74.5 255.35,-73.23 257.79,-71.98 260.26,-70.76"/>
<polygon fill="#63b8ff" stroke="#63b8ff" points="261.65,-73.98 269.22,-66.57 258.68,-67.64 261.65,-73.98"/>
</g>
<!-- Node5 -->
<g id="node5" class="node">
<title>Node5</title>
<g id="a_node5"><a xlink:href="../../df/db2/classdoris_1_1vectorized_1_1_p_o_d_array.html#a8e612adde07f46d3398ac6962d676a66" target="_top" xlink:title=" ">
<polygon fill="white" stroke="#666666" points="513.5,-199.5 418.5,-199.5 418.5,-169.5 513.5,-169.5 513.5,-199.5"/>
<text text-anchor="start" x="426.5" y="-187.5" font-family="Helvetica,sans-Serif" font-size="10.00">doris::vectorized::</text>
<text text-anchor="middle" x="466" y="-176.5" font-family="Helvetica,sans-Serif" font-size="10.00">PODArray::t_start</text>
</a>
</g>
</g>
<!-- Node4&#45;&gt;Node5 -->
<g id="edge4" class="edge">
<title>Node4&#45;&gt;Node5</title>
<path fill="none" stroke="#63b8ff" d="M358.74,-184.5C373.87,-184.5 390.84,-184.5 406.71,-184.5"/>
<polygon fill="#63b8ff" stroke="#63b8ff" points="406.51,-188 416.51,-184.5 406.51,-181 406.51,-188"/>
</g>
<!-- Node7 -->
<g id="node7" class="node">
<title>Node7</title>
<g id="a_node7"><a xlink:href="../../d9/d1e/memcpy__aarch64_8cpp.html#a11ebdd343428c466f2f35c376d7db6d0" target="_top" xlink:title=" ">
<polygon fill="white" stroke="#666666" points="507,-151 425,-151 425,-132 507,-132 507,-151"/>
<text text-anchor="middle" x="466" y="-139" font-family="Helvetica,sans-Serif" font-size="10.00">inline_memcpy</text>
</a>
</g>
</g>
<!-- Node6&#45;&gt;Node7 -->
<g id="edge6" class="edge">
<title>Node6&#45;&gt;Node7</title>
<path fill="none" stroke="#63b8ff" d="M338.3,-141.5C358.9,-141.5 388.19,-141.5 413.42,-141.5"/>
<polygon fill="#63b8ff" stroke="#63b8ff" points="413.17,-145 423.17,-141.5 413.17,-138 413.17,-145"/>
</g>
<!-- Node9 -->
<g id="node9" class="node">
<title>Node9</title>
<g id="a_node9"><a xlink:href="../../d5/d9d/classdoris_1_1vectorized_1_1_p_o_d_array_base.html#aa5a2bd4e24261d8f10f2f4e5d82fccf6" target="_top" xlink:title=" ">
<polygon fill="white" stroke="#666666" points="527,-113.5 405,-113.5 405,-83.5 527,-83.5 527,-113.5"/>
<text text-anchor="start" x="413" y="-101.5" font-family="Helvetica,sans-Serif" font-size="10.00">doris::vectorized::</text>
<text text-anchor="middle" x="466" y="-90.5" font-family="Helvetica,sans-Serif" font-size="10.00">PODArrayBase::reserve</text>
</a>
</g>
</g>
<!-- Node8&#45;&gt;Node9 -->
<g id="edge8" class="edge">
<title>Node8&#45;&gt;Node9</title>
<path fill="none" stroke="#63b8ff" d="M369.41,-98.5C377.24,-98.5 385.37,-98.5 393.42,-98.5"/>
<polygon fill="#63b8ff" stroke="#63b8ff" points="393.2,-102 403.2,-98.5 393.2,-95 393.2,-102"/>
</g>
<!-- Node19 -->
<g id="node19" class="node">
<title>Node19</title>
<g id="a_node19"><a xlink:href="../../d5/d9d/classdoris_1_1vectorized_1_1_p_o_d_array_base.html#afa97d17a5fedae2da8191c2c52aa6025" target="_top" xlink:title=" ">
<polygon fill="white" stroke="#666666" points="524,-41 408,-41 408,0 524,0 524,-41"/>
<text text-anchor="start" x="416" y="-29" font-family="Helvetica,sans-Serif" font-size="10.00">doris::vectorized::</text>
<text text-anchor="start" x="416" y="-18" font-family="Helvetica,sans-Serif" font-size="10.00">PODArrayBase::resize</text>
<text text-anchor="middle" x="466" y="-7" font-family="Helvetica,sans-Serif" font-size="10.00">_assume_reserved</text>
</a>
</g>
</g>
<!-- Node8&#45;&gt;Node19 -->
<g id="edge18" class="edge">
<title>Node8&#45;&gt;Node19</title>
<path fill="none" stroke="#63b8ff" d="M350.29,-83.09C356.6,-80.35 363.02,-77.43 369,-74.5 386.07,-66.14 404.35,-56.13 420.33,-47.02"/>
<polygon fill="#63b8ff" stroke="#63b8ff" points="421.72,-50.26 428.64,-42.24 418.23,-44.19 421.72,-50.26"/>
</g>
<!-- Node10 -->
<g id="node10" class="node">
<title>Node10</title>
<g id="a_node10"><a xlink:href="../../d5/d9d/classdoris_1_1vectorized_1_1_p_o_d_array_base.html#a7223528283cd4e5872e0cc716bf9bd9d" target="_top" xlink:title=" ">
<polygon fill="white" stroke="#666666" points="691.5,-113.5 564.5,-113.5 564.5,-83.5 691.5,-83.5 691.5,-113.5"/>
<text text-anchor="start" x="572.5" y="-101.5" font-family="Helvetica,sans-Serif" font-size="10.00">doris::vectorized::</text>
<text text-anchor="middle" x="628" y="-90.5" font-family="Helvetica,sans-Serif" font-size="10.00">PODArrayBase::capacity</text>
</a>
</g>
</g>
<!-- Node9&#45;&gt;Node10 -->
<g id="edge9" class="edge">
<title>Node9&#45;&gt;Node10</title>
<path fill="none" stroke="#63b8ff" d="M527.49,-98.5C535.7,-98.5 544.21,-98.5 552.63,-98.5"/>
<polygon fill="#63b8ff" stroke="#63b8ff" points="552.51,-102 562.51,-98.5 552.51,-95 552.51,-102"/>
</g>
<!-- Node11 -->
<g id="node11" class="node">
<title>Node11</title>
<g id="a_node11"><a xlink:href="../../d5/d9d/classdoris_1_1vectorized_1_1_p_o_d_array_base.html#aa0ed9240c71cb15ddd75f2ebfae30c69" target="_top" xlink:title="Minimum amount of memory to allocate for num_elements, including padding.">
<polygon fill="white" stroke="#666666" points="693,-65 563,-65 563,-24 693,-24 693,-65"/>
<text text-anchor="start" x="571" y="-53" font-family="Helvetica,sans-Serif" font-size="10.00">doris::vectorized::</text>
<text text-anchor="start" x="571" y="-42" font-family="Helvetica,sans-Serif" font-size="10.00">PODArrayBase::minimum</text>
<text text-anchor="middle" x="628" y="-31" font-family="Helvetica,sans-Serif" font-size="10.00">_memory_for_elements</text>
</a>
</g>
</g>
<!-- Node9&#45;&gt;Node11 -->
<g id="edge10" class="edge">
<title>Node9&#45;&gt;Node11</title>
<path fill="none" stroke="#63b8ff" d="M512.85,-83.03C525.8,-78.65 540.22,-73.79 554.34,-69.02"/>
<polygon fill="#63b8ff" stroke="#63b8ff" points="555.25,-72.41 563.61,-65.9 553.01,-65.78 555.25,-72.41"/>
</g>
<!-- Node13 -->
<g id="node13" class="node">
<title>Node13</title>
<g id="a_node13"><a xlink:href="../../d5/d9d/classdoris_1_1vectorized_1_1_p_o_d_array_base.html#a9001e08f14a42d556978c322450da2f7" target="_top" xlink:title=" ">
<polygon fill="white" stroke="#666666" points="687.5,-209.5 568.5,-209.5 568.5,-179.5 687.5,-179.5 687.5,-209.5"/>
<text text-anchor="start" x="576.5" y="-197.5" font-family="Helvetica,sans-Serif" font-size="10.00">doris::vectorized::</text>
<text text-anchor="middle" x="628" y="-186.5" font-family="Helvetica,sans-Serif" font-size="10.00">PODArrayBase::realloc</text>
</a>
</g>
</g>
<!-- Node9&#45;&gt;Node13 -->
<g id="edge12" class="edge">
<title>Node9&#45;&gt;Node13</title>
<path fill="none" stroke="#63b8ff" d="M513.31,-113.96C518.14,-116.45 522.81,-119.29 527,-122.5 548.17,-138.72 541.66,-154.51 563,-170.5 564.5,-171.63 566.06,-172.7 567.67,-173.73"/>
<polygon fill="#63b8ff" stroke="#63b8ff" points="565.53,-176.55 575.96,-178.41 568.97,-170.45 565.53,-176.55"/>
</g>
<!-- Node18 -->
<g id="node18" class="node">
<title>Node18</title>
<g id="a_node18"><a xlink:href="../../dc/da2/bit__helpers_8h.html#ae2948c0075b86f9ca20fc36610b4aca8" target="_top" xlink:title=" ">
<polygon fill="white" stroke="#666666" points="685.5,-161.5 570.5,-161.5 570.5,-131.5 685.5,-131.5 685.5,-161.5"/>
<text text-anchor="start" x="578.5" y="-149.5" font-family="Helvetica,sans-Serif" font-size="10.00">round_up_to_power_of</text>
<text text-anchor="middle" x="628" y="-138.5" font-family="Helvetica,sans-Serif" font-size="10.00">_two_or_zero</text>
</a>
</g>
</g>
<!-- Node9&#45;&gt;Node18 -->
<g id="edge17" class="edge">
<title>Node9&#45;&gt;Node18</title>
<path fill="none" stroke="#63b8ff" d="M518.51,-113.95C533.21,-118.36 549.39,-123.22 564.66,-127.8"/>
<polygon fill="#63b8ff" stroke="#63b8ff" points="563.56,-131.12 574.14,-130.64 565.57,-124.42 563.56,-131.12"/>
</g>
<!-- Node12 -->
<g id="node12" class="node">
<title>Node12</title>
<g id="a_node12"><a xlink:href="../../d5/d9d/classdoris_1_1vectorized_1_1_p_o_d_array_base.html#a4fd871ea772d3f22957ed8dd6a0aebb6" target="_top" xlink:title="Does not include pad_right.">
<polygon fill="white" stroke="#666666" points="874,-35.5 742,-35.5 742,-5.5 874,-5.5 874,-35.5"/>
<text text-anchor="start" x="750" y="-23.5" font-family="Helvetica,sans-Serif" font-size="10.00">doris::vectorized::</text>
<text text-anchor="middle" x="808" y="-12.5" font-family="Helvetica,sans-Serif" font-size="10.00">PODArrayBase::byte_size</text>
</a>
</g>
</g>
<!-- Node11&#45;&gt;Node12 -->
<g id="edge11" class="edge">
<title>Node11&#45;&gt;Node12</title>
<path fill="none" stroke="#63b8ff" d="M693.26,-35.84C705.31,-34.21 718.01,-32.5 730.39,-30.83"/>
<polygon fill="#63b8ff" stroke="#63b8ff" points="730.69,-34.32 740.14,-29.52 729.76,-27.38 730.69,-34.32"/>
</g>
<!-- Node14 -->
<g id="node14" class="node">
<title>Node14</title>
<g id="a_node14"><a xlink:href="../../d5/d9d/classdoris_1_1vectorized_1_1_p_o_d_array_base.html#a0e716713ea1a6de012c8830d8ef03ca9" target="_top" xlink:title=" ">
<polygon fill="white" stroke="#666666" points="863,-209.5 753,-209.5 753,-179.5 863,-179.5 863,-209.5"/>
<text text-anchor="start" x="761" y="-197.5" font-family="Helvetica,sans-Serif" font-size="10.00">doris::vectorized::</text>
<text text-anchor="middle" x="808" y="-186.5" font-family="Helvetica,sans-Serif" font-size="10.00">PODArrayBase::alloc</text>
</a>
</g>
</g>
<!-- Node13&#45;&gt;Node14 -->
<g id="edge13" class="edge">
<title>Node13&#45;&gt;Node14</title>
<path fill="none" stroke="#63b8ff" d="M687.78,-194.5C704.89,-194.5 723.69,-194.5 741.21,-194.5"/>
<polygon fill="#63b8ff" stroke="#63b8ff" points="740.99,-198 750.99,-194.5 740.99,-191 740.99,-198"/>
</g>
<!-- Node15 -->
<g id="node15" class="node">
<title>Node15</title>
<g id="a_node15"><a xlink:href="../../d5/d9d/classdoris_1_1vectorized_1_1_p_o_d_array_base.html#acd47db4f184c2a88c3c8eee3406d13db" target="_top" xlink:title="This method is safe to use only for information about memory usage.">
<polygon fill="white" stroke="#666666" points="887,-161.5 729,-161.5 729,-131.5 887,-131.5 887,-161.5"/>
<text text-anchor="start" x="737" y="-149.5" font-family="Helvetica,sans-Serif" font-size="10.00">doris::vectorized::</text>
<text text-anchor="middle" x="808" y="-138.5" font-family="Helvetica,sans-Serif" font-size="10.00">PODArrayBase::allocated_bytes</text>
</a>
</g>
</g>
<!-- Node13&#45;&gt;Node15 -->
<g id="edge14" class="edge">
<title>Node13&#45;&gt;Node15</title>
<path fill="none" stroke="#63b8ff" d="M686.3,-179.05C703.13,-174.51 721.71,-169.5 739.13,-164.8"/>
<polygon fill="#63b8ff" stroke="#63b8ff" points="739.6,-168.3 748.35,-162.32 737.78,-161.54 739.6,-168.3"/>
</g>
<!-- Node16 -->
<g id="node16" class="node">
<title>Node16</title>
<g id="a_node16"><a xlink:href="../../d5/d9d/classdoris_1_1vectorized_1_1_p_o_d_array_base.html#a41d7b4a7908cc8905970d3d601d8634c" target="_top" xlink:title=" ">
<polygon fill="white" stroke="#666666" points="873.5,-257.5 742.5,-257.5 742.5,-227.5 873.5,-227.5 873.5,-257.5"/>
<text text-anchor="start" x="750.5" y="-245.5" font-family="Helvetica,sans-Serif" font-size="10.00">doris::vectorized::</text>
<text text-anchor="middle" x="808" y="-234.5" font-family="Helvetica,sans-Serif" font-size="10.00">PODArrayBase::unprotect</text>
</a>
</g>
</g>
<!-- Node13&#45;&gt;Node16 -->
<g id="edge15" class="edge">
<title>Node13&#45;&gt;Node16</title>
<path fill="none" stroke="#63b8ff" d="M686.3,-209.95C703.13,-214.49 721.71,-219.5 739.13,-224.2"/>
<polygon fill="#63b8ff" stroke="#63b8ff" points="737.78,-227.46 748.35,-226.68 739.6,-220.7 737.78,-227.46"/>
</g>
<!-- Node17 -->
<g id="node17" class="node">
<title>Node17</title>
<g id="a_node17"><a xlink:href="../../d5/d9d/classdoris_1_1vectorized_1_1_p_o_d_array_base.html#aabb38ffefd0c3a618756a9150e27a97a" target="_top" xlink:title=" ">
<polygon fill="white" stroke="#666666" points="1066,-257.5 923,-257.5 923,-227.5 1066,-227.5 1066,-257.5"/>
<text text-anchor="start" x="931" y="-245.5" font-family="Helvetica,sans-Serif" font-size="10.00">doris::vectorized::</text>
<text text-anchor="middle" x="994.5" y="-234.5" font-family="Helvetica,sans-Serif" font-size="10.00">PODArrayBase::protect_impl</text>
</a>
</g>
</g>
<!-- Node16&#45;&gt;Node17 -->
<g id="edge16" class="edge">
<title>Node16&#45;&gt;Node17</title>
<path fill="none" stroke="#63b8ff" d="M873.79,-242.5C885.87,-242.5 898.65,-242.5 911.17,-242.5"/>
<polygon fill="#63b8ff" stroke="#63b8ff" points="911.07,-246 921.07,-242.5 911.07,-239 911.07,-246"/>
</g>
<!-- Node19&#45;&gt;Node12 -->
<g id="edge19" class="edge">
<title>Node19&#45;&gt;Node12</title>
<path fill="none" stroke="#63b8ff" d="M524.34,-16.33C537.06,-15.57 550.48,-14.89 563,-14.5 620.75,-12.7 635.24,-12.98 693,-14.5 705.06,-14.82 717.83,-15.32 730.29,-15.91"/>
<polygon fill="#63b8ff" stroke="#63b8ff" points="729.94,-19.4 740.1,-16.39 730.29,-12.4 729.94,-19.4"/>
</g>
</g>
</svg>
        <g id="navigator" transform="translate(0 0)" fill="#404254">
                <rect fill="#f2f5e9" fill-opacity="0.5" stroke="#606060" stroke-width=".5" x="0" y="0" width="60" height="60"/>
                <use id="zoomplus" xlink:href="#zoomPlus" x="17" y="9" onmousedown="handleZoom(evt,'in')"/>
                <use id="zoomminus" xlink:href="#zoomMin" x="42" y="9" onmousedown="handleZoom(evt,'out')"/>
                <use id="reset" xlink:href="#resetDef" x="30" y="36" onmousedown="handleReset()"/>
                <g id="arrowUp" xlink:href="#dirArrow" transform="translate(30 24)" onmousedown="handlePan(0,-1)">
                  <use xlink:href="#rim" fill="#404040">
                        <set attributeName="fill" to="#808080" begin="arrowUp.mouseover" end="arrowUp.mouseout"/>
                  </use>
                  <path fill="none" stroke="white" stroke-width="1.5" d="M0,-3.0v7 M-2.5,-0.5L0,-3.0L2.5,-0.5"/>
                </g>
                <g id="arrowRight" xlink:href="#dirArrow" transform="rotate(90) translate(36 -43)" onmousedown="handlePan(1,0)">
                  <use xlink:href="#rim" fill="#404040">
                        <set attributeName="fill" to="#808080" begin="arrowRight.mouseover" end="arrowRight.mouseout"/>
                  </use>
                  <path fill="none" stroke="white" stroke-width="1.5" d="M0,-3.0v7 M-2.5,-0.5L0,-3.0L2.5,-0.5"/>
                </g>
                <g id="arrowDown" xlink:href="#dirArrow" transform="rotate(180) translate(-30 -48)" onmousedown="handlePan(0,1)">
                  <use xlink:href="#rim" fill="#404040">
                        <set attributeName="fill" to="#808080" begin="arrowDown.mouseover" end="arrowDown.mouseout"/>
                  </use>
                  <path fill="none" stroke="white" stroke-width="1.5" d="M0,-3.0v7 M-2.5,-0.5L0,-3.0L2.5,-0.5"/>
                </g>
                <g id="arrowLeft" xlink:href="#dirArrow" transform="rotate(270) translate(-36 17)" onmousedown="handlePan(-1,0)">
                  <use xlink:href="#rim" fill="#404040">
                        <set attributeName="fill" to="#808080" begin="arrowLeft.mouseover" end="arrowLeft.mouseout"/>
                  </use>
                  <path fill="none" stroke="white" stroke-width="1.5" d="M0,-3.0v7 M-2.5,-0.5L0,-3.0L2.5,-0.5"/>
                </g>
        </g>
        <svg viewBox="0 0 15 15" width="100%" height="30px" preserveAspectRatio="xMaxYMin meet">
         <g id="arrow_out" transform="scale(0.3 0.3)">
          <a xlink:href="structdoris_1_1vectorized_1_1_money_format_int128_impl_a1c8beb263951804e288e092c661dd89c_cgraph_org.svg" target="_base">
           <rect id="button" ry="5" rx="5" y="6" x="6" height="38" width="38"
                fill="#f2f5e9" fill-opacity="0.5" stroke="#606060" stroke-width="1.0"/>
           <path id="arrow"
             d="M 11.500037,31.436501 C 11.940474,20.09759 22.043105,11.32322 32.158766,21.979434 L 37.068811,17.246167 C 37.068811,17.246167 37.088388,32 37.088388,32 L 22.160133,31.978069 C 22.160133,31.978069 26.997745,27.140456 26.997745,27.140456 C 18.528582,18.264221 13.291696,25.230495 11.500037,31.436501 z"
             style="fill:#404040;"/>
          </a>
         </g>
        </svg>
</svg>
