<?xml version="1.0" encoding="UTF-8" standalone="no"?>
<!DOCTYPE svg PUBLIC "-//W3C//DTD SVG 1.1//EN"
 "http://www.w3.org/Graphics/SVG/1.1/DTD/svg11.dtd">
<!-- Generated by graphviz version 7.1.0 (20230121.1956)
 -->
<!-- Title: append Pages: 1 -->
<svg width="485pt" height="179pt"
 viewBox="0.00 0.00 485.00 179.00" xmlns="http://www.w3.org/2000/svg" xmlns:xlink="http://www.w3.org/1999/xlink">
<g id="graph0" class="graph" transform="scale(1 1) rotate(0) translate(4 175)">
<title>append</title>
<!-- Node1 -->
<g id="node1" class="node">
<title>Node1</title>
<g id="a_node1"><a xlink:title=" ">
<polygon fill="#999999" stroke="#666666" points="48,-95 0,-95 0,-76 48,-76 48,-95"/>
<text text-anchor="middle" x="24" y="-83" font-family="Helvetica,sans-Serif" font-size="10.00">append</text>
</a>
</g>
</g>
<!-- Node2 -->
<g id="node2" class="node">
<title>Node2</title>
<g id="a_node2"><a xlink:href="../../d1/d41/classdoris_1_1io_1_1_local_file_writer.html#ac12bfcd74a96158297ece8e324de14cb" target="_top" xlink:title=" ">
<polygon fill="white" stroke="#666666" points="171.5,-171 118.5,-171 118.5,-152 171.5,-152 171.5,-171"/>
<text text-anchor="middle" x="145" y="-159" font-family="Helvetica,sans-Serif" font-size="10.00">appendv</text>
</a>
</g>
</g>
<!-- Node1&#45;&gt;Node2 -->
<g id="edge1" class="edge">
<title>Node1&#45;&gt;Node2</title>
<path fill="none" stroke="#63b8ff" d="M32.73,-95.39C43.11,-108.04 62.71,-129.81 84,-142.5 91.08,-146.72 99.2,-150.1 107.13,-152.78"/>
<polygon fill="#63b8ff" stroke="#63b8ff" points="106.05,-156.11 116.64,-155.66 108.08,-149.41 106.05,-156.11"/>
</g>
<!-- Node5 -->
<g id="node5" class="node">
<title>Node5</title>
<g id="a_node5"><a xlink:href="../../db/d40/classdoris_1_1_core_local_counter.html#a6c7e8662093760ffbf15dfa08ef03eb2" target="_top" xlink:title=" ">
<polygon fill="white" stroke="#666666" points="206,-133.5 84,-133.5 84,-103.5 206,-103.5 206,-133.5"/>
<text text-anchor="start" x="92" y="-121.5" font-family="Helvetica,sans-Serif" font-size="10.00">doris::CoreLocalCounter</text>
<text text-anchor="middle" x="145" y="-110.5" font-family="Helvetica,sans-Serif" font-size="10.00">::increment</text>
</a>
</g>
</g>
<!-- Node1&#45;&gt;Node5 -->
<g id="edge4" class="edge">
<title>Node1&#45;&gt;Node5</title>
<path fill="none" stroke="#63b8ff" d="M48.23,-91.94C56.76,-94.31 66.91,-97.12 77.35,-100.02"/>
<polygon fill="#63b8ff" stroke="#63b8ff" points="76.25,-103.34 86.82,-102.64 78.12,-96.6 76.25,-103.34"/>
</g>
<!-- Node6 -->
<g id="node6" class="node">
<title>Node6</title>
<g id="a_node6"><a xlink:href="../../d3/d7b/classdoris_1_1_doris_metrics.html#a4d0ce88513091aec833045b4eddeee8b" target="_top" xlink:title=" ">
<polygon fill="white" stroke="#666666" points="194.5,-67.5 95.5,-67.5 95.5,-37.5 194.5,-37.5 194.5,-67.5"/>
<text text-anchor="start" x="103.5" y="-55.5" font-family="Helvetica,sans-Serif" font-size="10.00">doris::DorisMetrics</text>
<text text-anchor="middle" x="145" y="-44.5" font-family="Helvetica,sans-Serif" font-size="10.00">::instance</text>
</a>
</g>
</g>
<!-- Node1&#45;&gt;Node6 -->
<g id="edge5" class="edge">
<title>Node1&#45;&gt;Node6</title>
<path fill="none" stroke="#63b8ff" d="M48.23,-79.06C58.69,-76.16 71.57,-72.58 84.46,-69.01"/>
<polygon fill="#63b8ff" stroke="#63b8ff" points="85.07,-72.47 93.77,-66.43 83.2,-65.73 85.07,-72.47"/>
</g>
<!-- Node7 -->
<g id="node7" class="node">
<title>Node7</title>
<g id="a_node7"><a xlink:href="../../d9/d8d/classdoris_1_1_status.html#a03cb7eaa663dc83af68bc28a596d09e6" target="_top" xlink:title=" ">
<polygon fill="white" stroke="#666666" points="189.5,-19 100.5,-19 100.5,0 189.5,0 189.5,-19"/>
<text text-anchor="middle" x="145" y="-7" font-family="Helvetica,sans-Serif" font-size="10.00">doris::Status::ok</text>
</a>
</g>
</g>
<!-- Node1&#45;&gt;Node7 -->
<g id="edge7" class="edge">
<title>Node1&#45;&gt;Node7</title>
<path fill="none" stroke="#63b8ff" d="M32.73,-75.61C43.11,-62.96 62.71,-41.19 84,-28.5 86.82,-26.82 89.8,-25.28 92.86,-23.85"/>
<polygon fill="#63b8ff" stroke="#63b8ff" points="94.19,-27.1 102.11,-20.06 91.53,-20.62 94.19,-27.1"/>
</g>
<!-- Node3 -->
<g id="node3" class="node">
<title>Node3</title>
<g id="a_node3"><a xlink:href="../../d9/d8d/classdoris_1_1_status.html#a6ec1a217f203269ab53d2290d602db24" target="_top" xlink:title=" ">
<polygon fill="white" stroke="#666666" points="334,-171 242,-171 242,-152 334,-152 334,-171"/>
<text text-anchor="middle" x="288" y="-159" font-family="Helvetica,sans-Serif" font-size="10.00">doris::Status::OK</text>
</a>
</g>
</g>
<!-- Node2&#45;&gt;Node3 -->
<g id="edge2" class="edge">
<title>Node2&#45;&gt;Node3</title>
<path fill="none" stroke="#63b8ff" d="M171.86,-161.5C188.22,-161.5 210.03,-161.5 230.26,-161.5"/>
<polygon fill="#63b8ff" stroke="#63b8ff" points="230.1,-165 240.1,-161.5 230.1,-158 230.1,-165"/>
</g>
<!-- Node4 -->
<g id="node4" class="node">
<title>Node4</title>
<g id="a_node4"><a xlink:href="../../d9/d8d/classdoris_1_1_status.html#aafde58df1b2a6a91d5b674373be3ffc5" target="_top" xlink:title=" ">
<polygon fill="white" stroke="#666666" points="477,-171 370,-171 370,-152 477,-152 477,-171"/>
<text text-anchor="middle" x="423.5" y="-159" font-family="Helvetica,sans-Serif" font-size="10.00">doris::Status::Status</text>
</a>
</g>
</g>
<!-- Node3&#45;&gt;Node4 -->
<g id="edge3" class="edge">
<title>Node3&#45;&gt;Node4</title>
<path fill="none" stroke="#63b8ff" d="M334.2,-161.5C341.91,-161.5 350.05,-161.5 358.15,-161.5"/>
<polygon fill="#63b8ff" stroke="#63b8ff" points="358,-165 368,-161.5 358,-158 358,-165"/>
</g>
<!-- Node6&#45;&gt;Node6 -->
<g id="edge6" class="edge">
<title>Node6&#45;&gt;Node6</title>
<path fill="none" stroke="#63b8ff" d="M123.73,-67.78C119,-76.91 126.09,-85.5 145,-85.5 155.34,-85.5 162.14,-82.93 165.42,-79.11"/>
<polygon fill="#63b8ff" stroke="#63b8ff" points="168.89,-79.52 166.16,-69.28 161.91,-78.99 168.89,-79.52"/>
</g>
</g>
</svg>
