<?xml version="1.0" encoding="UTF-8" standalone="no"?>
<!DOCTYPE svg PUBLIC "-//W3C//DTD SVG 1.1//EN"
 "http://www.w3.org/Graphics/SVG/1.1/DTD/svg11.dtd">
<!-- Generated by graphviz version 7.1.0 (20230121.1956)
 -->
<!-- Title: /Users/dabowang/be_all/util/thrift_client.h Pages: 1 -->
<svg width="3224pt" height="346pt"
 viewBox="0.00 0.00 3223.50 346.00" xmlns="http://www.w3.org/2000/svg" xmlns:xlink="http://www.w3.org/1999/xlink">
<g id="graph0" class="graph" transform="scale(1 1) rotate(0) translate(4 342)">
<title>/Users/dabowang/be_all/util/thrift_client.h</title>
<!-- Node1 -->
<g id="node1" class="node">
<title>Node1</title>
<g id="a_node1"><a xlink:title=" ">
<polygon fill="#999999" stroke="#666666" points="1870,-338 1763,-338 1763,-308 1870,-308 1870,-338"/>
<text text-anchor="start" x="1771" y="-326" font-family="Helvetica,sans-Serif" font-size="10.00">/Users/dabowang/be</text>
<text text-anchor="middle" x="1816.5" y="-315" font-family="Helvetica,sans-Serif" font-size="10.00">_all/util/thrift_client.h</text>
</a>
</g>
</g>
<!-- Node2 -->
<g id="node2" class="node">
<title>Node2</title>
<g id="a_node2"><a xlink:href="../../d3/daf/client__cache_8h.html" target="_top" xlink:title=" ">
<polygon fill="white" stroke="#666666" points="1805,-272 1698,-272 1698,-231 1805,-231 1805,-272"/>
<text text-anchor="start" x="1706" y="-260" font-family="Helvetica,sans-Serif" font-size="10.00">/Users/dabowang/be</text>
<text text-anchor="start" x="1706" y="-249" font-family="Helvetica,sans-Serif" font-size="10.00">_all/runtime/client</text>
<text text-anchor="middle" x="1751.5" y="-238" font-family="Helvetica,sans-Serif" font-size="10.00">_cache.h</text>
</a>
</g>
</g>
<!-- Node1&#45;&gt;Node2 -->
<g id="edge1" class="edge">
<title>Node1&#45;&gt;Node2</title>
<path fill="none" stroke="#63b8ff" d="M1795.35,-299.39C1787.22,-290.69 1778,-280.84 1770.13,-272.42"/>
<polygon fill="#63b8ff" stroke="#63b8ff" points="1792.61,-301.58 1802,-306.49 1797.72,-296.8 1792.61,-301.58"/>
</g>
<!-- Node44 -->
<g id="node44" class="node">
<title>Node44</title>
<g id="a_node44"><a xlink:href="../../d7/dfd/thrift__client_8cpp.html" target="_top" xlink:title=" ">
<polygon fill="white" stroke="#666666" points="1940,-266.5 1823,-266.5 1823,-236.5 1940,-236.5 1940,-266.5"/>
<text text-anchor="start" x="1831" y="-254.5" font-family="Helvetica,sans-Serif" font-size="10.00">/Users/dabowang/be</text>
<text text-anchor="middle" x="1881.5" y="-243.5" font-family="Helvetica,sans-Serif" font-size="10.00">_all/util/thrift_client.cpp</text>
</a>
</g>
</g>
<!-- Node1&#45;&gt;Node44 -->
<g id="edge51" class="edge">
<title>Node1&#45;&gt;Node44</title>
<path fill="none" stroke="#63b8ff" d="M1837.56,-299.48C1847.57,-288.78 1859.25,-276.29 1868.05,-266.88"/>
<polygon fill="#63b8ff" stroke="#63b8ff" points="1835.28,-296.8 1831,-306.49 1840.39,-301.58 1835.28,-296.8"/>
</g>
<!-- Node3 -->
<g id="node3" class="node">
<title>Node3</title>
<g id="a_node3"><a xlink:href="../../d1/d61/user__resource__listener_8cpp.html" target="_top" xlink:title=" ">
<polygon fill="white" stroke="#666666" points="123,-195 0,-195 0,-154 123,-154 123,-195"/>
<text text-anchor="start" x="8" y="-183" font-family="Helvetica,sans-Serif" font-size="10.00">/Users/dabowang/be</text>
<text text-anchor="start" x="8" y="-172" font-family="Helvetica,sans-Serif" font-size="10.00">_all/agent/user_resource</text>
<text text-anchor="middle" x="61.5" y="-161" font-family="Helvetica,sans-Serif" font-size="10.00">_listener.cpp</text>
</a>
</g>
</g>
<!-- Node2&#45;&gt;Node3 -->
<g id="edge2" class="edge">
<title>Node2&#45;&gt;Node3</title>
<path fill="none" stroke="#63b8ff" d="M1686.31,-250.14C1423.88,-248.41 444.11,-239.07 137.5,-195 132.92,-194.34 128.21,-193.51 123.49,-192.57"/>
<polygon fill="#63b8ff" stroke="#63b8ff" points="1686,-253.64 1696.02,-250.2 1686.05,-246.64 1686,-253.64"/>
</g>
<!-- Node4 -->
<g id="node4" class="node">
<title>Node4</title>
<g id="a_node4"><a xlink:href="../../db/d82/agent_2utils_8h.html" target="_top" xlink:title=" ">
<polygon fill="white" stroke="#666666" points="734,-189.5 627,-189.5 627,-159.5 734,-159.5 734,-189.5"/>
<text text-anchor="start" x="635" y="-177.5" font-family="Helvetica,sans-Serif" font-size="10.00">/Users/dabowang/be</text>
<text text-anchor="middle" x="680.5" y="-166.5" font-family="Helvetica,sans-Serif" font-size="10.00">_all/agent/utils.h</text>
</a>
</g>
</g>
<!-- Node2&#45;&gt;Node4 -->
<g id="edge3" class="edge">
<title>Node2&#45;&gt;Node4</title>
<path fill="none" stroke="#63b8ff" d="M1686.39,-249C1493.25,-244.22 925.66,-227.69 743.5,-195 736.51,-193.75 729.22,-191.96 722.17,-189.96"/>
<polygon fill="#63b8ff" stroke="#63b8ff" points="1686.16,-252.49 1696.24,-249.24 1686.33,-245.5 1686.16,-252.49"/>
</g>
<!-- Node14 -->
<g id="node14" class="node">
<title>Node14</title>
<g id="a_node14"><a xlink:href="../../dd/d55/engine__clone__task_8cpp.html" target="_top" xlink:title=" ">
<polygon fill="white" stroke="#666666" points="265,-41 158,-41 158,0 265,0 265,-41"/>
<text text-anchor="start" x="166" y="-29" font-family="Helvetica,sans-Serif" font-size="10.00">/Users/dabowang/be</text>
<text text-anchor="start" x="166" y="-18" font-family="Helvetica,sans-Serif" font-size="10.00">_all/olap/task/engine</text>
<text text-anchor="middle" x="211.5" y="-7" font-family="Helvetica,sans-Serif" font-size="10.00">_clone_task.cpp</text>
</a>
</g>
</g>
<!-- Node2&#45;&gt;Node14 -->
<g id="edge33" class="edge">
<title>Node2&#45;&gt;Node14</title>
<path fill="none" stroke="#63b8ff" d="M1686.53,-250.75C1416.03,-251.41 386.99,-250.26 253.5,-195 207.01,-175.75 190.62,-164.12 170.5,-118 163.21,-101.3 164.8,-94.31 170.5,-77 174.85,-63.8 183.67,-51.17 192.03,-41.3"/>
<polygon fill="#63b8ff" stroke="#63b8ff" points="1686.21,-254.25 1696.2,-250.72 1686.19,-247.25 1686.21,-254.25"/>
</g>
<!-- Node16 -->
<g id="node16" class="node">
<title>Node16</title>
<g id="a_node16"><a xlink:href="../../d1/dfe/arrow__reader_8cpp.html" target="_top" xlink:title=" ">
<polygon fill="white" stroke="#666666" points="862.5,-195 752.5,-195 752.5,-154 862.5,-154 862.5,-195"/>
<text text-anchor="start" x="760.5" y="-183" font-family="Helvetica,sans-Serif" font-size="10.00">/Users/dabowang/be</text>
<text text-anchor="start" x="760.5" y="-172" font-family="Helvetica,sans-Serif" font-size="10.00">_all/exec/arrow/arrow</text>
<text text-anchor="middle" x="807.5" y="-161" font-family="Helvetica,sans-Serif" font-size="10.00">_reader.cpp</text>
</a>
</g>
</g>
<!-- Node2&#45;&gt;Node16 -->
<g id="edge16" class="edge">
<title>Node2&#45;&gt;Node16</title>
<path fill="none" stroke="#63b8ff" d="M1686.38,-248.36C1510.4,-242.26 1028.02,-223.38 871.5,-195 868.64,-194.48 865.73,-193.88 862.81,-193.21"/>
<polygon fill="#63b8ff" stroke="#63b8ff" points="1686.14,-251.85 1696.26,-248.7 1686.39,-244.86 1686.14,-251.85"/>
</g>
<!-- Node17 -->
<g id="node17" class="node">
<title>Node17</title>
<g id="a_node17"><a xlink:href="../../d6/dfe/schema__backends__scanner_8cpp.html" target="_top" xlink:title=" ">
<polygon fill="white" stroke="#666666" points="1040,-195 881,-195 881,-154 1040,-154 1040,-195"/>
<text text-anchor="start" x="889" y="-183" font-family="Helvetica,sans-Serif" font-size="10.00">/Users/dabowang/be</text>
<text text-anchor="start" x="889" y="-172" font-family="Helvetica,sans-Serif" font-size="10.00">_all/exec/schema_scanner</text>
<text text-anchor="middle" x="960.5" y="-161" font-family="Helvetica,sans-Serif" font-size="10.00">/schema_backends_scanner.cpp</text>
</a>
</g>
</g>
<!-- Node2&#45;&gt;Node17 -->
<g id="edge17" class="edge">
<title>Node2&#45;&gt;Node17</title>
<path fill="none" stroke="#63b8ff" d="M1686.67,-248.4C1562.31,-243.7 1281.87,-229.89 1048.5,-195 1045.71,-194.58 1042.89,-194.13 1040.03,-193.64"/>
<polygon fill="#63b8ff" stroke="#63b8ff" points="1686.22,-251.89 1696.34,-248.76 1686.48,-244.89 1686.22,-251.89"/>
</g>
<!-- Node18 -->
<g id="node18" class="node">
<title>Node18</title>
<g id="a_node18"><a xlink:href="../../d6/d6a/schema__helper_8cpp.html" target="_top" xlink:title=" ">
<polygon fill="white" stroke="#666666" points="1191,-195 1058,-195 1058,-154 1191,-154 1191,-195"/>
<text text-anchor="start" x="1066" y="-183" font-family="Helvetica,sans-Serif" font-size="10.00">/Users/dabowang/be</text>
<text text-anchor="start" x="1066" y="-172" font-family="Helvetica,sans-Serif" font-size="10.00">_all/exec/schema_scanner</text>
<text text-anchor="middle" x="1124.5" y="-161" font-family="Helvetica,sans-Serif" font-size="10.00">/schema_helper.cpp</text>
</a>
</g>
</g>
<!-- Node2&#45;&gt;Node18 -->
<g id="edge18" class="edge">
<title>Node2&#45;&gt;Node18</title>
<path fill="none" stroke="#63b8ff" d="M1686.28,-246.73C1583.5,-240.14 1377.79,-224.36 1205.5,-195 1200.79,-194.2 1195.96,-193.28 1191.1,-192.29"/>
<polygon fill="#63b8ff" stroke="#63b8ff" points="1685.99,-250.21 1696.19,-247.35 1686.43,-243.23 1685.99,-250.21"/>
</g>
<!-- Node19 -->
<g id="node19" class="node">
<title>Node19</title>
<g id="a_node19"><a xlink:href="../../d5/d78/stream__load_8cpp.html" target="_top" xlink:title=" ">
<polygon fill="white" stroke="#666666" points="1359,-118 1246,-118 1246,-77 1359,-77 1359,-118"/>
<text text-anchor="start" x="1254" y="-106" font-family="Helvetica,sans-Serif" font-size="10.00">/Users/dabowang/be</text>
<text text-anchor="start" x="1254" y="-95" font-family="Helvetica,sans-Serif" font-size="10.00">_all/http/action/stream</text>
<text text-anchor="middle" x="1302.5" y="-84" font-family="Helvetica,sans-Serif" font-size="10.00">_load.cpp</text>
</a>
</g>
</g>
<!-- Node2&#45;&gt;Node19 -->
<g id="edge19" class="edge">
<title>Node2&#45;&gt;Node19</title>
<path fill="none" stroke="#63b8ff" d="M1686.14,-248.21C1554.61,-242.93 1267.91,-227.76 1238.5,-195 1226.33,-181.44 1230.93,-170.58 1238.5,-154 1245.03,-139.68 1257.29,-127.64 1269.34,-118.47"/>
<polygon fill="#63b8ff" stroke="#63b8ff" points="1685.98,-251.71 1696.11,-248.6 1686.25,-244.71 1685.98,-251.71"/>
</g>
<!-- Node20 -->
<g id="node20" class="node">
<title>Node20</title>
<g id="a_node20"><a xlink:href="../../dd/d75/stream__load_8h.html" target="_top" xlink:title=" ">
<polygon fill="white" stroke="#666666" points="1361,-195 1248,-195 1248,-154 1361,-154 1361,-195"/>
<text text-anchor="start" x="1256" y="-183" font-family="Helvetica,sans-Serif" font-size="10.00">/Users/dabowang/be</text>
<text text-anchor="start" x="1256" y="-172" font-family="Helvetica,sans-Serif" font-size="10.00">_all/http/action/stream</text>
<text text-anchor="middle" x="1304.5" y="-161" font-family="Helvetica,sans-Serif" font-size="10.00">_load.h</text>
</a>
</g>
</g>
<!-- Node2&#45;&gt;Node20 -->
<g id="edge20" class="edge">
<title>Node2&#45;&gt;Node20</title>
<path fill="none" stroke="#63b8ff" d="M1686.44,-243.88C1610.18,-235.47 1480.27,-219.08 1370.5,-195 1367.47,-194.33 1364.37,-193.6 1361.25,-192.83"/>
<polygon fill="#63b8ff" stroke="#63b8ff" points="1685.92,-247.35 1696.24,-244.95 1686.68,-240.39 1685.92,-247.35"/>
</g>
<!-- Node22 -->
<g id="node22" class="node">
<title>Node22</title>
<g id="a_node22"><a xlink:href="../../d5/dfa/broker__reader_8cpp.html" target="_top" xlink:title=" ">
<polygon fill="white" stroke="#666666" points="1501.5,-189.5 1379.5,-189.5 1379.5,-159.5 1501.5,-159.5 1501.5,-189.5"/>
<text text-anchor="start" x="1387.5" y="-177.5" font-family="Helvetica,sans-Serif" font-size="10.00">/Users/dabowang/be</text>
<text text-anchor="middle" x="1440.5" y="-166.5" font-family="Helvetica,sans-Serif" font-size="10.00">_all/io/broker_reader.cpp</text>
</a>
</g>
</g>
<!-- Node2&#45;&gt;Node22 -->
<g id="edge23" class="edge">
<title>Node2&#45;&gt;Node22</title>
<path fill="none" stroke="#63b8ff" d="M1686.73,-236.42C1638.11,-225.65 1569.95,-210.12 1510.5,-195 1504.26,-193.41 1497.74,-191.69 1491.28,-189.94"/>
<polygon fill="#63b8ff" stroke="#63b8ff" points="1685.73,-239.78 1696.25,-238.52 1687.24,-232.95 1685.73,-239.78"/>
</g>
<!-- Node23 -->
<g id="node23" class="node">
<title>Node23</title>
<g id="a_node23"><a xlink:href="../../dc/d64/broker__writer_8cpp.html" target="_top" xlink:title=" ">
<polygon fill="white" stroke="#666666" points="1639,-189.5 1520,-189.5 1520,-159.5 1639,-159.5 1639,-189.5"/>
<text text-anchor="start" x="1528" y="-177.5" font-family="Helvetica,sans-Serif" font-size="10.00">/Users/dabowang/be</text>
<text text-anchor="middle" x="1579.5" y="-166.5" font-family="Helvetica,sans-Serif" font-size="10.00">_all/io/broker_writer.cpp</text>
</a>
</g>
</g>
<!-- Node2&#45;&gt;Node23 -->
<g id="edge24" class="edge">
<title>Node2&#45;&gt;Node23</title>
<path fill="none" stroke="#63b8ff" d="M1695.6,-226.12C1668.15,-214.16 1636.02,-200.15 1612.53,-189.9"/>
<polygon fill="#63b8ff" stroke="#63b8ff" points="1693.91,-229.2 1704.47,-229.99 1696.7,-222.79 1693.91,-229.2"/>
</g>
<!-- Node24 -->
<g id="node24" class="node">
<title>Node24</title>
<g id="a_node24"><a xlink:href="../../d7/db8/broker__file__reader_8h.html" target="_top" xlink:title=" ">
<polygon fill="white" stroke="#666666" points="1848,-118 1741,-118 1741,-77 1848,-77 1848,-118"/>
<text text-anchor="start" x="1749" y="-106" font-family="Helvetica,sans-Serif" font-size="10.00">/Users/dabowang/be</text>
<text text-anchor="start" x="1749" y="-95" font-family="Helvetica,sans-Serif" font-size="10.00">_all/io/fs/broker_file</text>
<text text-anchor="middle" x="1794.5" y="-84" font-family="Helvetica,sans-Serif" font-size="10.00">_reader.h</text>
</a>
</g>
</g>
<!-- Node2&#45;&gt;Node24 -->
<g id="edge25" class="edge">
<title>Node2&#45;&gt;Node24</title>
<path fill="none" stroke="#63b8ff" d="M1763.83,-220.19C1766.89,-212.08 1770,-203.27 1772.5,-195 1780.39,-168.84 1786.97,-137.95 1790.82,-118.3"/>
<polygon fill="#63b8ff" stroke="#63b8ff" points="1760.66,-218.69 1760.3,-229.28 1767.18,-221.22 1760.66,-218.69"/>
</g>
<!-- Node27 -->
<g id="node27" class="node">
<title>Node27</title>
<g id="a_node27"><a xlink:href="../../d5/d23/broker__file__system_8h.html" target="_top" xlink:title=" ">
<polygon fill="white" stroke="#666666" points="1764,-195 1657,-195 1657,-154 1764,-154 1764,-195"/>
<text text-anchor="start" x="1665" y="-183" font-family="Helvetica,sans-Serif" font-size="10.00">/Users/dabowang/be</text>
<text text-anchor="start" x="1665" y="-172" font-family="Helvetica,sans-Serif" font-size="10.00">_all/io/fs/broker_file</text>
<text text-anchor="middle" x="1710.5" y="-161" font-family="Helvetica,sans-Serif" font-size="10.00">_system.h</text>
</a>
</g>
</g>
<!-- Node2&#45;&gt;Node27 -->
<g id="edge28" class="edge">
<title>Node2&#45;&gt;Node27</title>
<path fill="none" stroke="#63b8ff" d="M1735.25,-220.78C1730.58,-212.23 1725.6,-203.12 1721.34,-195.33"/>
<polygon fill="#63b8ff" stroke="#63b8ff" points="1732.13,-222.37 1740,-229.47 1738.28,-219.01 1732.13,-222.37"/>
</g>
<!-- Node29 -->
<g id="node29" class="node">
<title>Node29</title>
<g id="a_node29"><a xlink:href="../../d4/d41/pipeline__fragment__context_8cpp.html" target="_top" xlink:title=" ">
<polygon fill="white" stroke="#666666" points="1936.5,-195 1820.5,-195 1820.5,-154 1936.5,-154 1936.5,-195"/>
<text text-anchor="start" x="1828.5" y="-183" font-family="Helvetica,sans-Serif" font-size="10.00">/Users/dabowang/be</text>
<text text-anchor="start" x="1828.5" y="-172" font-family="Helvetica,sans-Serif" font-size="10.00">_all/pipeline/pipeline</text>
<text text-anchor="middle" x="1878.5" y="-161" font-family="Helvetica,sans-Serif" font-size="10.00">_fragment_context.cpp</text>
</a>
</g>
</g>
<!-- Node2&#45;&gt;Node29 -->
<g id="edge34" class="edge">
<title>Node2&#45;&gt;Node29</title>
<path fill="none" stroke="#63b8ff" d="M1795.01,-224.8C1811.24,-215.22 1829.41,-204.49 1844.64,-195.49"/>
<polygon fill="#63b8ff" stroke="#63b8ff" points="1793.33,-221.73 1786.5,-229.83 1796.89,-227.76 1793.33,-221.73"/>
</g>
<!-- Node30 -->
<g id="node30" class="node">
<title>Node30</title>
<g id="a_node30"><a xlink:href="../../d5/dfc/broker__mgr_8cpp.html" target="_top" xlink:title=" ">
<polygon fill="white" stroke="#666666" points="2062,-195 1955,-195 1955,-154 2062,-154 2062,-195"/>
<text text-anchor="start" x="1963" y="-183" font-family="Helvetica,sans-Serif" font-size="10.00">/Users/dabowang/be</text>
<text text-anchor="start" x="1963" y="-172" font-family="Helvetica,sans-Serif" font-size="10.00">_all/runtime/broker</text>
<text text-anchor="middle" x="2008.5" y="-161" font-family="Helvetica,sans-Serif" font-size="10.00">_mgr.cpp</text>
</a>
</g>
</g>
<!-- Node2&#45;&gt;Node30 -->
<g id="edge35" class="edge">
<title>Node2&#45;&gt;Node30</title>
<path fill="none" stroke="#63b8ff" d="M1816.07,-230.3C1873.72,-213.61 1890.42,-211.03 1945.5,-195 1948.47,-194.14 1951.51,-193.24 1954.58,-192.32"/>
<polygon fill="#63b8ff" stroke="#63b8ff" points="1815.3,-226.88 1806.68,-233.04 1817.26,-233.6 1815.3,-226.88"/>
</g>
<!-- Node31 -->
<g id="node31" class="node">
<title>Node31</title>
<g id="a_node31"><a xlink:href="../../d4/ded/client__cache_8cpp.html" target="_top" xlink:title=" ">
<polygon fill="white" stroke="#666666" points="2187,-195 2080,-195 2080,-154 2187,-154 2187,-195"/>
<text text-anchor="start" x="2088" y="-183" font-family="Helvetica,sans-Serif" font-size="10.00">/Users/dabowang/be</text>
<text text-anchor="start" x="2088" y="-172" font-family="Helvetica,sans-Serif" font-size="10.00">_all/runtime/client</text>
<text text-anchor="middle" x="2133.5" y="-161" font-family="Helvetica,sans-Serif" font-size="10.00">_cache.cpp</text>
</a>
</g>
</g>
<!-- Node2&#45;&gt;Node31 -->
<g id="edge36" class="edge">
<title>Node2&#45;&gt;Node31</title>
<path fill="none" stroke="#63b8ff" d="M1816.51,-230.51C1928.08,-206.48 1961.45,-219.35 2070.5,-195 2073.52,-194.33 2076.6,-193.58 2079.7,-192.78"/>
<polygon fill="#63b8ff" stroke="#63b8ff" points="1815.94,-227.05 1806.94,-232.62 1817.46,-233.88 1815.94,-227.05"/>
</g>
<!-- Node32 -->
<g id="node32" class="node">
<title>Node32</title>
<g id="a_node32"><a xlink:href="../../d8/d0a/exec__env__init_8cpp.html" target="_top" xlink:title=" ">
<polygon fill="white" stroke="#666666" points="2255.5,-118 2143.5,-118 2143.5,-77 2255.5,-77 2255.5,-118"/>
<text text-anchor="start" x="2151.5" y="-106" font-family="Helvetica,sans-Serif" font-size="10.00">/Users/dabowang/be</text>
<text text-anchor="start" x="2151.5" y="-95" font-family="Helvetica,sans-Serif" font-size="10.00">_all/runtime/exec_env</text>
<text text-anchor="middle" x="2199.5" y="-84" font-family="Helvetica,sans-Serif" font-size="10.00">_init.cpp</text>
</a>
</g>
</g>
<!-- Node2&#45;&gt;Node32 -->
<g id="edge37" class="edge">
<title>Node2&#45;&gt;Node32</title>
<path fill="none" stroke="#63b8ff" d="M1816.53,-230.93C1915.08,-217.22 2139.05,-254.5 2195.5,-195 2214.66,-174.81 2210.65,-140.23 2205.47,-118.41"/>
<polygon fill="#63b8ff" stroke="#63b8ff" points="1816.2,-227.43 1806.92,-232.55 1817.36,-234.33 1816.2,-227.43"/>
</g>
<!-- Node33 -->
<g id="node33" class="node">
<title>Node33</title>
<g id="a_node33"><a xlink:href="../../dc/d1c/export__task__mgr_8cpp.html" target="_top" xlink:title=" ">
<polygon fill="white" stroke="#666666" points="2509,-195 2402,-195 2402,-154 2509,-154 2509,-195"/>
<text text-anchor="start" x="2410" y="-183" font-family="Helvetica,sans-Serif" font-size="10.00">/Users/dabowang/be</text>
<text text-anchor="start" x="2410" y="-172" font-family="Helvetica,sans-Serif" font-size="10.00">_all/runtime/export</text>
<text text-anchor="middle" x="2455.5" y="-161" font-family="Helvetica,sans-Serif" font-size="10.00">_task_mgr.cpp</text>
</a>
</g>
</g>
<!-- Node2&#45;&gt;Node33 -->
<g id="edge38" class="edge">
<title>Node2&#45;&gt;Node33</title>
<path fill="none" stroke="#63b8ff" d="M1816.41,-230.69C2069.08,-185.58 2142.48,-240.79 2392.5,-195 2395.54,-194.44 2398.64,-193.79 2401.75,-193.06"/>
<polygon fill="#63b8ff" stroke="#63b8ff" points="1816.11,-227.19 1806.9,-232.43 1817.36,-234.08 1816.11,-227.19"/>
</g>
<!-- Node34 -->
<g id="node34" class="node">
<title>Node34</title>
<g id="a_node34"><a xlink:href="../../d7/dc0/fragment__mgr_8cpp.html" target="_top" xlink:title=" ">
<polygon fill="white" stroke="#666666" points="2635.5,-195 2527.5,-195 2527.5,-154 2635.5,-154 2635.5,-195"/>
<text text-anchor="start" x="2535.5" y="-183" font-family="Helvetica,sans-Serif" font-size="10.00">/Users/dabowang/be</text>
<text text-anchor="start" x="2535.5" y="-172" font-family="Helvetica,sans-Serif" font-size="10.00">_all/runtime/fragment</text>
<text text-anchor="middle" x="2581.5" y="-161" font-family="Helvetica,sans-Serif" font-size="10.00">_mgr.cpp</text>
</a>
</g>
</g>
<!-- Node2&#45;&gt;Node34 -->
<g id="edge39" class="edge">
<title>Node2&#45;&gt;Node34</title>
<path fill="none" stroke="#63b8ff" d="M1816.45,-230.71C2124.37,-177.21 2213.2,-249.17 2518.5,-195 2521.32,-194.5 2524.19,-193.91 2527.07,-193.26"/>
<polygon fill="#63b8ff" stroke="#63b8ff" points="1816.13,-227.21 1806.89,-232.4 1817.35,-234.1 1816.13,-227.21"/>
</g>
<!-- Node35 -->
<g id="node35" class="node">
<title>Node35</title>
<g id="a_node35"><a xlink:href="../../da/db7/small__file__mgr_8h.html" target="_top" xlink:title=" ">
<polygon fill="white" stroke="#666666" points="2383.5,-189.5 2243.5,-189.5 2243.5,-159.5 2383.5,-159.5 2383.5,-189.5"/>
<text text-anchor="start" x="2251.5" y="-177.5" font-family="Helvetica,sans-Serif" font-size="10.00">/Users/dabowang/be</text>
<text text-anchor="middle" x="2313.5" y="-166.5" font-family="Helvetica,sans-Serif" font-size="10.00">_all/runtime/small_file_mgr.h</text>
</a>
</g>
</g>
<!-- Node2&#45;&gt;Node35 -->
<g id="edge40" class="edge">
<title>Node2&#45;&gt;Node35</title>
<path fill="none" stroke="#63b8ff" d="M1816.68,-230.59C1997.63,-196.09 2049.88,-223.47 2229.5,-195 2238.22,-193.62 2247.39,-191.84 2256.33,-189.91"/>
<polygon fill="#63b8ff" stroke="#63b8ff" points="1816.05,-227.14 1806.91,-232.49 1817.39,-234.01 1816.05,-227.14"/>
</g>
<!-- Node38 -->
<g id="node38" class="node">
<title>Node38</title>
<g id="a_node38"><a xlink:href="../../dd/d09/snapshot__loader_8h.html" target="_top" xlink:title=" ">
<polygon fill="white" stroke="#666666" points="372.5,-195 262.5,-195 262.5,-154 372.5,-154 372.5,-195"/>
<text text-anchor="start" x="270.5" y="-183" font-family="Helvetica,sans-Serif" font-size="10.00">/Users/dabowang/be</text>
<text text-anchor="start" x="270.5" y="-172" font-family="Helvetica,sans-Serif" font-size="10.00">_all/runtime/snapshot</text>
<text text-anchor="middle" x="317.5" y="-161" font-family="Helvetica,sans-Serif" font-size="10.00">_loader.h</text>
</a>
</g>
</g>
<!-- Node2&#45;&gt;Node38 -->
<g id="edge44" class="edge">
<title>Node2&#45;&gt;Node38</title>
<path fill="none" stroke="#63b8ff" d="M1686.3,-247.67C1512.54,-240.07 1023.88,-218.15 617.5,-195 532.04,-190.13 432.96,-183.5 372.78,-179.36"/>
<polygon fill="#63b8ff" stroke="#63b8ff" points="1686.11,-251.17 1696.26,-248.11 1686.42,-244.18 1686.11,-251.17"/>
</g>
<!-- Node40 -->
<g id="node40" class="node">
<title>Node40</title>
<g id="a_node40"><a xlink:href="../../db/d36/stream__load__executor_8cpp.html" target="_top" xlink:title=" ">
<polygon fill="white" stroke="#666666" points="2811,-195 2654,-195 2654,-154 2811,-154 2811,-195"/>
<text text-anchor="start" x="2662" y="-183" font-family="Helvetica,sans-Serif" font-size="10.00">/Users/dabowang/be</text>
<text text-anchor="start" x="2662" y="-172" font-family="Helvetica,sans-Serif" font-size="10.00">_all/runtime/stream</text>
<text text-anchor="middle" x="2732.5" y="-161" font-family="Helvetica,sans-Serif" font-size="10.00">_load/stream_load_executor.cpp</text>
</a>
</g>
</g>
<!-- Node2&#45;&gt;Node40 -->
<g id="edge47" class="edge">
<title>Node2&#45;&gt;Node40</title>
<path fill="none" stroke="#63b8ff" d="M1816.49,-230.71C2179.63,-168.51 2281.64,-242.69 2644.5,-195 2647.6,-194.59 2650.76,-194.13 2653.94,-193.62"/>
<polygon fill="#63b8ff" stroke="#63b8ff" points="1816.14,-227.22 1806.89,-232.38 1817.34,-234.11 1816.14,-227.22"/>
</g>
<!-- Node41 -->
<g id="node41" class="node">
<title>Node41</title>
<g id="a_node41"><a xlink:href="../../d5/d3b/broker__storage__backend_8cpp.html" target="_top" xlink:title=" ">
<polygon fill="white" stroke="#666666" points="2944,-195 2829,-195 2829,-154 2944,-154 2944,-195"/>
<text text-anchor="start" x="2837" y="-183" font-family="Helvetica,sans-Serif" font-size="10.00">/Users/dabowang/be</text>
<text text-anchor="start" x="2837" y="-172" font-family="Helvetica,sans-Serif" font-size="10.00">_all/util/broker_storage</text>
<text text-anchor="middle" x="2886.5" y="-161" font-family="Helvetica,sans-Serif" font-size="10.00">_backend.cpp</text>
</a>
</g>
</g>
<!-- Node2&#45;&gt;Node41 -->
<g id="edge48" class="edge">
<title>Node2&#45;&gt;Node41</title>
<path fill="none" stroke="#63b8ff" d="M1816.52,-230.72C2256.94,-156.98 2382.16,-266.42 2820.5,-195 2823.21,-194.56 2825.97,-194.04 2828.74,-193.46"/>
<polygon fill="#63b8ff" stroke="#63b8ff" points="1816.16,-227.23 1806.88,-232.36 1817.33,-234.13 1816.16,-227.23"/>
</g>
<!-- Node42 -->
<g id="node42" class="node">
<title>Node42</title>
<g id="a_node42"><a xlink:href="../../d8/d01/thrift__rpc__helper_8cpp.html" target="_top" xlink:title=" ">
<polygon fill="white" stroke="#666666" points="3069,-195 2962,-195 2962,-154 3069,-154 3069,-195"/>
<text text-anchor="start" x="2970" y="-183" font-family="Helvetica,sans-Serif" font-size="10.00">/Users/dabowang/be</text>
<text text-anchor="start" x="2970" y="-172" font-family="Helvetica,sans-Serif" font-size="10.00">_all/util/thrift_rpc</text>
<text text-anchor="middle" x="3015.5" y="-161" font-family="Helvetica,sans-Serif" font-size="10.00">_helper.cpp</text>
</a>
</g>
</g>
<!-- Node2&#45;&gt;Node42 -->
<g id="edge49" class="edge">
<title>Node2&#45;&gt;Node42</title>
<path fill="none" stroke="#63b8ff" d="M1816.49,-230.73C2315.35,-148.11 2457.39,-279.21 2953.5,-195 2956.17,-194.55 2958.88,-194.01 2961.61,-193.4"/>
<polygon fill="#63b8ff" stroke="#63b8ff" points="1816.16,-227.24 1806.88,-232.35 1817.32,-234.14 1816.16,-227.24"/>
</g>
<!-- Node43 -->
<g id="node43" class="node">
<title>Node43</title>
<g id="a_node43"><a xlink:href="../../dd/d8d/vmeta__scanner_8cpp.html" target="_top" xlink:title=" ">
<polygon fill="white" stroke="#666666" points="3215.5,-195 3087.5,-195 3087.5,-154 3215.5,-154 3215.5,-195"/>
<text text-anchor="start" x="3095.5" y="-183" font-family="Helvetica,sans-Serif" font-size="10.00">/Users/dabowang/be</text>
<text text-anchor="start" x="3095.5" y="-172" font-family="Helvetica,sans-Serif" font-size="10.00">_all/vec/exec/scan/vmeta</text>
<text text-anchor="middle" x="3151.5" y="-161" font-family="Helvetica,sans-Serif" font-size="10.00">_scanner.cpp</text>
</a>
</g>
</g>
<!-- Node2&#45;&gt;Node43 -->
<g id="edge50" class="edge">
<title>Node2&#45;&gt;Node43</title>
<path fill="none" stroke="#63b8ff" d="M1816.46,-230.74C2370.21,-139.55 2525.6,-275.59 3078.5,-195 3081.36,-194.58 3084.26,-194.1 3087.18,-193.55"/>
<polygon fill="#63b8ff" stroke="#63b8ff" points="1816.17,-227.24 1806.88,-232.34 1817.32,-234.15 1816.17,-227.24"/>
</g>
<!-- Node5 -->
<g id="node5" class="node">
<title>Node5</title>
<g id="a_node5"><a xlink:href="../../de/d57/task__worker__pool_8h.html" target="_top" xlink:title=" ">
<polygon fill="white" stroke="#666666" points="711,-118 596,-118 596,-77 711,-77 711,-118"/>
<text text-anchor="start" x="604" y="-106" font-family="Helvetica,sans-Serif" font-size="10.00">/Users/dabowang/be</text>
<text text-anchor="start" x="604" y="-95" font-family="Helvetica,sans-Serif" font-size="10.00">_all/agent/task_worker</text>
<text text-anchor="middle" x="653.5" y="-84" font-family="Helvetica,sans-Serif" font-size="10.00">_pool.h</text>
</a>
</g>
</g>
<!-- Node4&#45;&gt;Node5 -->
<g id="edge4" class="edge">
<title>Node4&#45;&gt;Node5</title>
<path fill="none" stroke="#63b8ff" d="M671.44,-148.32C667.91,-138.54 663.94,-127.5 660.63,-118.3"/>
<polygon fill="#63b8ff" stroke="#63b8ff" points="668.1,-149.39 674.78,-157.62 674.69,-147.02 668.1,-149.39"/>
</g>
<!-- Node9 -->
<g id="node9" class="node">
<title>Node9</title>
<g id="a_node9"><a xlink:href="../../d0/d63/agent_2utils_8cpp.html" target="_top" xlink:title=" ">
<polygon fill="white" stroke="#666666" points="578,-112.5 471,-112.5 471,-82.5 578,-82.5 578,-112.5"/>
<text text-anchor="start" x="479" y="-100.5" font-family="Helvetica,sans-Serif" font-size="10.00">/Users/dabowang/be</text>
<text text-anchor="middle" x="524.5" y="-89.5" font-family="Helvetica,sans-Serif" font-size="10.00">_all/agent/utils.cpp</text>
</a>
</g>
</g>
<!-- Node4&#45;&gt;Node9 -->
<g id="edge8" class="edge">
<title>Node4&#45;&gt;Node9</title>
<path fill="none" stroke="#63b8ff" d="M640.21,-154.13C613.43,-141.26 578.85,-124.63 554.49,-112.92"/>
<polygon fill="#63b8ff" stroke="#63b8ff" points="638.53,-157.2 649.06,-158.38 641.56,-150.9 638.53,-157.2"/>
</g>
<!-- Node10 -->
<g id="node10" class="node">
<title>Node10</title>
<g id="a_node10"><a xlink:href="../../df/de8/pprof__actions_8cpp.html" target="_top" xlink:title=" ">
<polygon fill="white" stroke="#666666" points="836,-118 729,-118 729,-77 836,-77 836,-118"/>
<text text-anchor="start" x="737" y="-106" font-family="Helvetica,sans-Serif" font-size="10.00">/Users/dabowang/be</text>
<text text-anchor="start" x="737" y="-95" font-family="Helvetica,sans-Serif" font-size="10.00">_all/http/action/pprof</text>
<text text-anchor="middle" x="782.5" y="-84" font-family="Helvetica,sans-Serif" font-size="10.00">_actions.cpp</text>
</a>
</g>
</g>
<!-- Node4&#45;&gt;Node10 -->
<g id="edge9" class="edge">
<title>Node4&#45;&gt;Node10</title>
<path fill="none" stroke="#63b8ff" d="M709.22,-152.38C723.75,-141.7 741.29,-128.8 755.57,-118.3"/>
<polygon fill="#63b8ff" stroke="#63b8ff" points="707.37,-149.4 701.39,-158.14 711.52,-155.04 707.37,-149.4"/>
</g>
<!-- Node11 -->
<g id="node11" class="node">
<title>Node11</title>
<g id="a_node11"><a xlink:href="../../d1/de7/default__path__handlers_8cpp.html" target="_top" xlink:title=" ">
<polygon fill="white" stroke="#666666" points="961,-118 854,-118 854,-77 961,-77 961,-118"/>
<text text-anchor="start" x="862" y="-106" font-family="Helvetica,sans-Serif" font-size="10.00">/Users/dabowang/be</text>
<text text-anchor="start" x="862" y="-95" font-family="Helvetica,sans-Serif" font-size="10.00">_all/http/default_path</text>
<text text-anchor="middle" x="907.5" y="-84" font-family="Helvetica,sans-Serif" font-size="10.00">_handlers.cpp</text>
</a>
</g>
</g>
<!-- Node4&#45;&gt;Node11 -->
<g id="edge10" class="edge">
<title>Node4&#45;&gt;Node11</title>
<path fill="none" stroke="#63b8ff" d="M735.07,-155.47C771.08,-143.57 818.05,-128.06 853.87,-116.22"/>
<polygon fill="#63b8ff" stroke="#63b8ff" points="734.1,-152.1 725.71,-158.56 736.3,-158.75 734.1,-152.1"/>
</g>
<!-- Node12 -->
<g id="node12" class="node">
<title>Node12</title>
<g id="a_node12"><a xlink:href="../../df/df5/hdfs__builder_8cpp.html" target="_top" xlink:title=" ">
<polygon fill="white" stroke="#666666" points="1095.5,-112.5 979.5,-112.5 979.5,-82.5 1095.5,-82.5 1095.5,-112.5"/>
<text text-anchor="start" x="987.5" y="-100.5" font-family="Helvetica,sans-Serif" font-size="10.00">/Users/dabowang/be</text>
<text text-anchor="middle" x="1037.5" y="-89.5" font-family="Helvetica,sans-Serif" font-size="10.00">_all/io/hdfs_builder.cpp</text>
</a>
</g>
</g>
<!-- Node4&#45;&gt;Node12 -->
<g id="edge11" class="edge">
<title>Node4&#45;&gt;Node12</title>
<path fill="none" stroke="#63b8ff" d="M735.18,-156.06C737.98,-155.33 740.77,-154.64 743.5,-154 842.55,-130.9 870.21,-140.06 969.5,-118 976.09,-116.54 982.99,-114.8 989.76,-112.98"/>
<polygon fill="#63b8ff" stroke="#63b8ff" points="734.51,-152.62 725.8,-158.65 736.37,-159.37 734.51,-152.62"/>
</g>
<!-- Node13 -->
<g id="node13" class="node">
<title>Node13</title>
<g id="a_node13"><a xlink:href="../../d1/db0/engine__clone__task_8h.html" target="_top" xlink:title=" ">
<polygon fill="white" stroke="#666666" points="453,-118 346,-118 346,-77 453,-77 453,-118"/>
<text text-anchor="start" x="354" y="-106" font-family="Helvetica,sans-Serif" font-size="10.00">/Users/dabowang/be</text>
<text text-anchor="start" x="354" y="-95" font-family="Helvetica,sans-Serif" font-size="10.00">_all/olap/task/engine</text>
<text text-anchor="middle" x="399.5" y="-84" font-family="Helvetica,sans-Serif" font-size="10.00">_clone_task.h</text>
</a>
</g>
</g>
<!-- Node4&#45;&gt;Node13 -->
<g id="edge12" class="edge">
<title>Node4&#45;&gt;Node13</title>
<path fill="none" stroke="#63b8ff" d="M615.66,-158.09C571.94,-147.45 513.05,-132.63 461.5,-118 458.79,-117.23 456.01,-116.42 453.21,-115.6"/>
<polygon fill="#63b8ff" stroke="#63b8ff" points="614.71,-161.46 625.25,-160.41 616.36,-154.66 614.71,-161.46"/>
</g>
<!-- Node15 -->
<g id="node15" class="node">
<title>Node15</title>
<g id="a_node15"><a xlink:href="../../dc/d9c/pprof__utils_8cpp.html" target="_top" xlink:title=" ">
<polygon fill="white" stroke="#666666" points="1227.5,-112.5 1113.5,-112.5 1113.5,-82.5 1227.5,-82.5 1227.5,-112.5"/>
<text text-anchor="start" x="1121.5" y="-100.5" font-family="Helvetica,sans-Serif" font-size="10.00">/Users/dabowang/be</text>
<text text-anchor="middle" x="1170.5" y="-89.5" font-family="Helvetica,sans-Serif" font-size="10.00">_all/util/pprof_utils.cpp</text>
</a>
</g>
</g>
<!-- Node4&#45;&gt;Node15 -->
<g id="edge15" class="edge">
<title>Node4&#45;&gt;Node15</title>
<path fill="none" stroke="#63b8ff" d="M734.36,-156.06C737.44,-155.3 740.5,-154.61 743.5,-154 901.53,-122 946.26,-148.98 1104.5,-118 1111.42,-116.65 1118.65,-114.88 1125.69,-112.96"/>
<polygon fill="#63b8ff" stroke="#63b8ff" points="733.47,-152.67 724.7,-158.62 735.27,-159.44 733.47,-152.67"/>
</g>
<!-- Node6 -->
<g id="node6" class="node">
<title>Node6</title>
<g id="a_node6"><a xlink:href="../../d6/d0b/agent__server_8cpp.html" target="_top" xlink:title=" ">
<polygon fill="white" stroke="#666666" points="666.5,-35.5 530.5,-35.5 530.5,-5.5 666.5,-5.5 666.5,-35.5"/>
<text text-anchor="start" x="538.5" y="-23.5" font-family="Helvetica,sans-Serif" font-size="10.00">/Users/dabowang/be</text>
<text text-anchor="middle" x="598.5" y="-12.5" font-family="Helvetica,sans-Serif" font-size="10.00">_all/agent/agent_server.cpp</text>
</a>
</g>
</g>
<!-- Node5&#45;&gt;Node6 -->
<g id="edge5" class="edge">
<title>Node5&#45;&gt;Node6</title>
<path fill="none" stroke="#63b8ff" d="M632.31,-67.6C624.34,-56.73 615.62,-44.84 609.03,-35.86"/>
<polygon fill="#63b8ff" stroke="#63b8ff" points="629.42,-69.58 638.15,-75.57 635.06,-65.44 629.42,-69.58"/>
</g>
<!-- Node7 -->
<g id="node7" class="node">
<title>Node7</title>
<g id="a_node7"><a xlink:href="../../d7/dae/task__worker__pool_8cpp.html" target="_top" xlink:title=" ">
<polygon fill="white" stroke="#666666" points="457,-41 342,-41 342,0 457,0 457,-41"/>
<text text-anchor="start" x="350" y="-29" font-family="Helvetica,sans-Serif" font-size="10.00">/Users/dabowang/be</text>
<text text-anchor="start" x="350" y="-18" font-family="Helvetica,sans-Serif" font-size="10.00">_all/agent/task_worker</text>
<text text-anchor="middle" x="399.5" y="-7" font-family="Helvetica,sans-Serif" font-size="10.00">_pool.cpp</text>
</a>
</g>
</g>
<!-- Node5&#45;&gt;Node7 -->
<g id="edge6" class="edge">
<title>Node5&#45;&gt;Node7</title>
<path fill="none" stroke="#63b8ff" d="M584.57,-76.15C544.67,-64.37 495.03,-49.71 457.21,-38.54"/>
<polygon fill="#63b8ff" stroke="#63b8ff" points="583.51,-79.48 594.09,-78.96 585.49,-72.77 583.51,-79.48"/>
</g>
<!-- Node8 -->
<g id="node8" class="node">
<title>Node8</title>
<g id="a_node8"><a xlink:href="../../dc/d0c/storage__engine_8cpp.html" target="_top" xlink:title=" ">
<polygon fill="white" stroke="#666666" points="824.5,-35.5 684.5,-35.5 684.5,-5.5 824.5,-5.5 824.5,-35.5"/>
<text text-anchor="start" x="692.5" y="-23.5" font-family="Helvetica,sans-Serif" font-size="10.00">/Users/dabowang/be</text>
<text text-anchor="middle" x="754.5" y="-12.5" font-family="Helvetica,sans-Serif" font-size="10.00">_all/olap/storage_engine.cpp</text>
</a>
</g>
</g>
<!-- Node5&#45;&gt;Node8 -->
<g id="edge7" class="edge">
<title>Node5&#45;&gt;Node8</title>
<path fill="none" stroke="#63b8ff" d="M689.15,-70.03C704.67,-58.5 722.25,-45.45 735.26,-35.79"/>
<polygon fill="#63b8ff" stroke="#63b8ff" points="687.46,-66.92 681.52,-75.7 691.63,-72.54 687.46,-66.92"/>
</g>
<!-- Node13&#45;&gt;Node7 -->
<g id="edge13" class="edge">
<title>Node13&#45;&gt;Node7</title>
<path fill="none" stroke="#63b8ff" d="M399.5,-65.36C399.5,-57.24 399.5,-48.7 399.5,-41.33"/>
<polygon fill="#63b8ff" stroke="#63b8ff" points="396,-65.28 399.5,-75.28 403,-65.28 396,-65.28"/>
</g>
<!-- Node13&#45;&gt;Node14 -->
<g id="edge14" class="edge">
<title>Node13&#45;&gt;Node14</title>
<path fill="none" stroke="#63b8ff" d="M339.14,-72.42C314.13,-62.44 285.45,-51 261.62,-41.49"/>
<polygon fill="#63b8ff" stroke="#63b8ff" points="337.62,-75.58 348.21,-76.04 340.22,-69.08 337.62,-75.58"/>
</g>
<!-- Node20&#45;&gt;Node19 -->
<g id="edge21" class="edge">
<title>Node20&#45;&gt;Node19</title>
<path fill="none" stroke="#63b8ff" d="M1303.67,-142.36C1303.45,-134.24 1303.23,-125.7 1303.03,-118.33"/>
<polygon fill="#63b8ff" stroke="#63b8ff" points="1300.17,-142.38 1303.93,-152.28 1307.17,-142.19 1300.17,-142.38"/>
</g>
<!-- Node21 -->
<g id="node21" class="node">
<title>Node21</title>
<g id="a_node21"><a xlink:href="../../d4/dbf/http__service_8cpp.html" target="_top" xlink:title=" ">
<polygon fill="white" stroke="#666666" points="1518,-112.5 1377,-112.5 1377,-82.5 1518,-82.5 1518,-112.5"/>
<text text-anchor="start" x="1385" y="-100.5" font-family="Helvetica,sans-Serif" font-size="10.00">/Users/dabowang/be</text>
<text text-anchor="middle" x="1447.5" y="-89.5" font-family="Helvetica,sans-Serif" font-size="10.00">_all/service/http_service.cpp</text>
</a>
</g>
</g>
<!-- Node20&#45;&gt;Node21 -->
<g id="edge22" class="edge">
<title>Node20&#45;&gt;Node21</title>
<path fill="none" stroke="#63b8ff" d="M1352.53,-148.31C1375.08,-136.48 1401.15,-122.81 1420.26,-112.79"/>
<polygon fill="#63b8ff" stroke="#63b8ff" points="1351.02,-145.15 1343.79,-152.9 1354.27,-151.35 1351.02,-145.15"/>
</g>
<!-- Node25 -->
<g id="node25" class="node">
<title>Node25</title>
<g id="a_node25"><a xlink:href="../../db/d4f/broker__file__reader_8cpp.html" target="_top" xlink:title=" ">
<polygon fill="white" stroke="#666666" points="1850,-41 1743,-41 1743,0 1850,0 1850,-41"/>
<text text-anchor="start" x="1751" y="-29" font-family="Helvetica,sans-Serif" font-size="10.00">/Users/dabowang/be</text>
<text text-anchor="start" x="1751" y="-18" font-family="Helvetica,sans-Serif" font-size="10.00">_all/io/fs/broker_file</text>
<text text-anchor="middle" x="1796.5" y="-7" font-family="Helvetica,sans-Serif" font-size="10.00">_reader.cpp</text>
</a>
</g>
</g>
<!-- Node24&#45;&gt;Node25 -->
<g id="edge26" class="edge">
<title>Node24&#45;&gt;Node25</title>
<path fill="none" stroke="#63b8ff" d="M1795.33,-65.36C1795.55,-57.24 1795.77,-48.7 1795.97,-41.33"/>
<polygon fill="#63b8ff" stroke="#63b8ff" points="1791.83,-65.19 1795.07,-75.28 1798.83,-65.38 1791.83,-65.19"/>
</g>
<!-- Node26 -->
<g id="node26" class="node">
<title>Node26</title>
<g id="a_node26"><a xlink:href="../../d6/d5b/broker__file__system_8cpp.html" target="_top" xlink:title=" ">
<polygon fill="white" stroke="#666666" points="1725,-41 1618,-41 1618,0 1725,0 1725,-41"/>
<text text-anchor="start" x="1626" y="-29" font-family="Helvetica,sans-Serif" font-size="10.00">/Users/dabowang/be</text>
<text text-anchor="start" x="1626" y="-18" font-family="Helvetica,sans-Serif" font-size="10.00">_all/io/fs/broker_file</text>
<text text-anchor="middle" x="1671.5" y="-7" font-family="Helvetica,sans-Serif" font-size="10.00">_system.cpp</text>
</a>
</g>
</g>
<!-- Node24&#45;&gt;Node26 -->
<g id="edge27" class="edge">
<title>Node24&#45;&gt;Node26</title>
<path fill="none" stroke="#63b8ff" d="M1752.36,-70.8C1736.64,-61.22 1719.05,-50.49 1704.29,-41.49"/>
<polygon fill="#63b8ff" stroke="#63b8ff" points="1750.21,-73.59 1760.57,-75.81 1753.85,-67.62 1750.21,-73.59"/>
</g>
<!-- Node27&#45;&gt;Node24 -->
<g id="edge31" class="edge">
<title>Node27&#45;&gt;Node24</title>
<path fill="none" stroke="#63b8ff" d="M1740.97,-146.29C1751.33,-137.05 1762.7,-126.89 1772.29,-118.33"/>
<polygon fill="#63b8ff" stroke="#63b8ff" points="1738.83,-143.52 1733.7,-152.79 1743.49,-148.74 1738.83,-143.52"/>
</g>
<!-- Node27&#45;&gt;Node25 -->
<g id="edge30" class="edge">
<title>Node27&#45;&gt;Node25</title>
<path fill="none" stroke="#63b8ff" d="M1712.19,-142.42C1714.44,-122.53 1719.63,-96.83 1731.5,-77 1739.88,-62.99 1753.06,-50.78 1765.37,-41.4"/>
<polygon fill="#63b8ff" stroke="#63b8ff" points="1708.72,-141.88 1711.29,-152.16 1715.69,-142.52 1708.72,-141.88"/>
</g>
<!-- Node27&#45;&gt;Node26 -->
<g id="edge32" class="edge">
<title>Node27&#45;&gt;Node26</title>
<path fill="none" stroke="#63b8ff" d="M1702.63,-142.84C1694.87,-112.59 1683.23,-67.21 1676.6,-41.38"/>
<polygon fill="#63b8ff" stroke="#63b8ff" points="1699.15,-143.35 1705.03,-152.16 1705.93,-141.61 1699.15,-143.35"/>
</g>
<!-- Node28 -->
<g id="node28" class="node">
<title>Node28</title>
<g id="a_node28"><a xlink:href="../../db/de9/file__factory_8cpp.html" target="_top" xlink:title=" ">
<polygon fill="white" stroke="#666666" points="1646.5,-112.5 1536.5,-112.5 1536.5,-82.5 1646.5,-82.5 1646.5,-112.5"/>
<text text-anchor="start" x="1544.5" y="-100.5" font-family="Helvetica,sans-Serif" font-size="10.00">/Users/dabowang/be</text>
<text text-anchor="middle" x="1591.5" y="-89.5" font-family="Helvetica,sans-Serif" font-size="10.00">_all/io/file_factory.cpp</text>
</a>
</g>
</g>
<!-- Node27&#45;&gt;Node28 -->
<g id="edge29" class="edge">
<title>Node27&#45;&gt;Node28</title>
<path fill="none" stroke="#63b8ff" d="M1669.26,-147.51C1650.79,-135.87 1629.71,-122.58 1614.17,-112.79"/>
<polygon fill="#63b8ff" stroke="#63b8ff" points="1667.32,-150.42 1677.64,-152.79 1671.05,-144.5 1667.32,-150.42"/>
</g>
<!-- Node35&#45;&gt;Node32 -->
<g id="edge41" class="edge">
<title>Node35&#45;&gt;Node32</title>
<path fill="none" stroke="#63b8ff" d="M2282.33,-152.99C2265.91,-142.19 2245.86,-129 2229.6,-118.3"/>
<polygon fill="#63b8ff" stroke="#63b8ff" points="2279.98,-155.64 2290.26,-158.21 2283.82,-149.79 2279.98,-155.64"/>
</g>
<!-- Node36 -->
<g id="node36" class="node">
<title>Node36</title>
<g id="a_node36"><a xlink:href="../../df/d5b/data__consumer_8cpp.html" target="_top" xlink:title=" ">
<polygon fill="white" stroke="#666666" points="2531.5,-118 2403.5,-118 2403.5,-77 2531.5,-77 2531.5,-118"/>
<text text-anchor="start" x="2411.5" y="-106" font-family="Helvetica,sans-Serif" font-size="10.00">/Users/dabowang/be</text>
<text text-anchor="start" x="2411.5" y="-95" font-family="Helvetica,sans-Serif" font-size="10.00">_all/runtime/routine</text>
<text text-anchor="middle" x="2467.5" y="-84" font-family="Helvetica,sans-Serif" font-size="10.00">_load/data_consumer.cpp</text>
</a>
</g>
</g>
<!-- Node35&#45;&gt;Node36 -->
<g id="edge42" class="edge">
<title>Node35&#45;&gt;Node36</title>
<path fill="none" stroke="#63b8ff" d="M2353.41,-154.06C2375.89,-143.12 2403.9,-129.47 2426.55,-118.44"/>
<polygon fill="#63b8ff" stroke="#63b8ff" points="2352.01,-150.85 2344.55,-158.38 2355.08,-157.14 2352.01,-150.85"/>
</g>
<!-- Node37 -->
<g id="node37" class="node">
<title>Node37</title>
<g id="a_node37"><a xlink:href="../../d8/d3a/small__file__mgr_8cpp.html" target="_top" xlink:title=" ">
<polygon fill="white" stroke="#666666" points="2385,-118 2274,-118 2274,-77 2385,-77 2385,-118"/>
<text text-anchor="start" x="2282" y="-106" font-family="Helvetica,sans-Serif" font-size="10.00">/Users/dabowang/be</text>
<text text-anchor="start" x="2282" y="-95" font-family="Helvetica,sans-Serif" font-size="10.00">_all/runtime/small_file</text>
<text text-anchor="middle" x="2329.5" y="-84" font-family="Helvetica,sans-Serif" font-size="10.00">_mgr.cpp</text>
</a>
</g>
</g>
<!-- Node35&#45;&gt;Node37 -->
<g id="edge43" class="edge">
<title>Node35&#45;&gt;Node37</title>
<path fill="none" stroke="#63b8ff" d="M2318.94,-148C2321.01,-138.3 2323.33,-127.4 2325.28,-118.3"/>
<polygon fill="#63b8ff" stroke="#63b8ff" points="2315.56,-147.05 2316.9,-157.56 2322.41,-148.51 2315.56,-147.05"/>
</g>
<!-- Node38&#45;&gt;Node7 -->
<g id="edge45" class="edge">
<title>Node38&#45;&gt;Node7</title>
<path fill="none" stroke="#63b8ff" d="M318.53,-142.51C320.37,-122.65 325.03,-96.96 336.5,-77 344.49,-63.1 357.24,-50.9 369.19,-41.5"/>
<polygon fill="#63b8ff" stroke="#63b8ff" points="315.06,-141.99 317.84,-152.21 322.04,-142.49 315.06,-141.99"/>
</g>
<!-- Node39 -->
<g id="node39" class="node">
<title>Node39</title>
<g id="a_node39"><a xlink:href="../../d2/df8/snapshot__loader_8cpp.html" target="_top" xlink:title=" ">
<polygon fill="white" stroke="#666666" points="289.5,-118 179.5,-118 179.5,-77 289.5,-77 289.5,-118"/>
<text text-anchor="start" x="187.5" y="-106" font-family="Helvetica,sans-Serif" font-size="10.00">/Users/dabowang/be</text>
<text text-anchor="start" x="187.5" y="-95" font-family="Helvetica,sans-Serif" font-size="10.00">_all/runtime/snapshot</text>
<text text-anchor="middle" x="234.5" y="-84" font-family="Helvetica,sans-Serif" font-size="10.00">_loader.cpp</text>
</a>
</g>
</g>
<!-- Node38&#45;&gt;Node39 -->
<g id="edge46" class="edge">
<title>Node38&#45;&gt;Node39</title>
<path fill="none" stroke="#63b8ff" d="M287.39,-146.29C277.16,-137.05 265.92,-126.89 256.45,-118.33"/>
<polygon fill="#63b8ff" stroke="#63b8ff" points="284.8,-148.67 294.57,-152.78 289.5,-143.48 284.8,-148.67"/>
</g>
</g>
</svg>
