<?xml version="1.0" encoding="UTF-8" standalone="no"?>
<!DOCTYPE svg PUBLIC "-//W3C//DTD SVG 1.1//EN"
 "http://www.w3.org/Graphics/SVG/1.1/DTD/svg11.dtd">
<!-- Generated by graphviz version 7.1.0 (20230121.1956)
 -->
<!-- Title: /Users/dabowang/doris/be/src/common/logging.h Pages: 1 -->
<svg width="712pt" height="258pt"
 viewBox="0.00 0.00 712.00 258.00" xmlns="http://www.w3.org/2000/svg" xmlns:xlink="http://www.w3.org/1999/xlink">
<g id="graph0" class="graph" transform="scale(1 1) rotate(0) translate(4 254)">
<title>/Users/dabowang/doris/be/src/common/logging.h</title>
<!-- Node1 -->
<g id="node1" class="node">
<title>Node1</title>
<g id="a_node1"><a xlink:title=" ">
<polygon fill="#999999" stroke="#666666" points="195,-250 66,-250 66,-220 195,-220 195,-250"/>
<text text-anchor="start" x="74" y="-238" font-family="Helvetica,sans-Serif" font-size="10.00">/Users/dabowang/doris</text>
<text text-anchor="middle" x="130.5" y="-227" font-family="Helvetica,sans-Serif" font-size="10.00">/be/src/common/logging.h</text>
</a>
</g>
</g>
<!-- Node2 -->
<g id="node2" class="node">
<title>Node2</title>
<g id="a_node2"><a xlink:title=" ">
<polygon fill="#e0e0e0" stroke="#999999" points="77,-184 0,-184 0,-165 77,-165 77,-184"/>
<text text-anchor="middle" x="38.5" y="-172" font-family="Helvetica,sans-Serif" font-size="10.00">glog/logging.h</text>
</a>
</g>
</g>
<!-- Node1&#45;&gt;Node2 -->
<g id="edge1" class="edge">
<title>Node1&#45;&gt;Node2</title>
<path fill="none" stroke="#63b8ff" d="M107.76,-219.54C93.8,-210.66 75.96,-199.32 61.89,-190.37"/>
<polygon fill="#63b8ff" stroke="#63b8ff" points="64.01,-187.57 53.69,-185.16 60.25,-193.48 64.01,-187.57"/>
</g>
<!-- Node3 -->
<g id="node3" class="node">
<title>Node3</title>
<g id="a_node3"><a xlink:title=" ">
<polygon fill="#e0e0e0" stroke="#999999" points="165.5,-184 95.5,-184 95.5,-165 165.5,-165 165.5,-184"/>
<text text-anchor="middle" x="130.5" y="-172" font-family="Helvetica,sans-Serif" font-size="10.00">fmt/format.h</text>
</a>
</g>
</g>
<!-- Node1&#45;&gt;Node3 -->
<g id="edge2" class="edge">
<title>Node1&#45;&gt;Node3</title>
<path fill="none" stroke="#63b8ff" d="M130.5,-219.54C130.5,-212.34 130.5,-203.53 130.5,-195.68"/>
<polygon fill="#63b8ff" stroke="#63b8ff" points="134,-195.69 130.5,-185.69 127,-195.69 134,-195.69"/>
</g>
<!-- Node4 -->
<g id="node4" class="node">
<title>Node4</title>
<g id="a_node4"><a xlink:href="../../d1/d95/uid__util_8h.html" target="_top" xlink:title=" ">
<polygon fill="white" stroke="#666666" points="255,-184 184,-184 184,-165 255,-165 255,-184"/>
<text text-anchor="middle" x="219.5" y="-172" font-family="Helvetica,sans-Serif" font-size="10.00">util/uid_util.h</text>
</a>
</g>
</g>
<!-- Node1&#45;&gt;Node4 -->
<g id="edge3" class="edge">
<title>Node1&#45;&gt;Node4</title>
<path fill="none" stroke="#63b8ff" d="M152.5,-219.54C165.87,-210.75 182.92,-199.54 196.48,-190.63"/>
<polygon fill="#63b8ff" stroke="#63b8ff" points="198.34,-193.6 204.78,-185.18 194.5,-187.75 198.34,-193.6"/>
</g>
<!-- Node5 -->
<g id="node5" class="node">
<title>Node5</title>
<g id="a_node5"><a xlink:title=" ">
<polygon fill="#e0e0e0" stroke="#999999" points="65.5,-74 13.5,-74 13.5,-55 65.5,-55 65.5,-74"/>
<text text-anchor="middle" x="39.5" y="-62" font-family="Helvetica,sans-Serif" font-size="10.00">ostream</text>
</a>
</g>
</g>
<!-- Node4&#45;&gt;Node5 -->
<g id="edge4" class="edge">
<title>Node4&#45;&gt;Node5</title>
<path fill="none" stroke="#63b8ff" d="M202,-164.51C185.25,-155.78 159.36,-141.99 137.5,-129 111.08,-113.3 81.59,-93.93 61.93,-80.74"/>
<polygon fill="#63b8ff" stroke="#63b8ff" points="64.11,-77.99 53.86,-75.31 60.2,-83.8 64.11,-77.99"/>
</g>
<!-- Node6 -->
<g id="node6" class="node">
<title>Node6</title>
<g id="a_node6"><a xlink:title=" ">
<polygon fill="#e0e0e0" stroke="#999999" points="125,-74 84,-74 84,-55 125,-55 125,-74"/>
<text text-anchor="middle" x="104.5" y="-62" font-family="Helvetica,sans-Serif" font-size="10.00">string</text>
</a>
</g>
</g>
<!-- Node4&#45;&gt;Node6 -->
<g id="edge5" class="edge">
<title>Node4&#45;&gt;Node6</title>
<path fill="none" stroke="#63b8ff" d="M205.71,-164.8C192.86,-156.39 173.49,-142.91 158.5,-129 143.29,-114.88 128.17,-96.65 117.81,-83.34"/>
<polygon fill="#63b8ff" stroke="#63b8ff" points="120.67,-81.31 111.82,-75.48 115.1,-85.56 120.67,-81.31"/>
</g>
<!-- Node7 -->
<g id="node7" class="node">
<title>Node7</title>
<g id="a_node7"><a xlink:title=" ">
<polygon fill="#e0e0e0" stroke="#999999" points="409.5,-129 289.5,-129 289.5,-110 409.5,-110 409.5,-129"/>
<text text-anchor="middle" x="349.5" y="-117" font-family="Helvetica,sans-Serif" font-size="10.00">gen_cpp/Types_types.h</text>
</a>
</g>
</g>
<!-- Node4&#45;&gt;Node7 -->
<g id="edge6" class="edge">
<title>Node4&#45;&gt;Node7</title>
<path fill="none" stroke="#63b8ff" d="M241.55,-164.51C262.31,-156.04 293.66,-143.27 317.23,-133.66"/>
<polygon fill="#63b8ff" stroke="#63b8ff" points="318.43,-136.95 326.37,-129.93 315.79,-130.46 318.43,-136.95"/>
</g>
<!-- Node8 -->
<g id="node8" class="node">
<title>Node8</title>
<g id="a_node8"><a xlink:title=" ">
<polygon fill="#e0e0e0" stroke="#999999" points="529.5,-129 427.5,-129 427.5,-110 529.5,-110 529.5,-129"/>
<text text-anchor="middle" x="478.5" y="-117" font-family="Helvetica,sans-Serif" font-size="10.00">gen_cpp/types.pb.h</text>
</a>
</g>
</g>
<!-- Node4&#45;&gt;Node8 -->
<g id="edge7" class="edge">
<title>Node4&#45;&gt;Node8</title>
<path fill="none" stroke="#63b8ff" d="M255.24,-166.19C298.85,-157.26 373.02,-142.08 423.82,-131.69"/>
<polygon fill="#63b8ff" stroke="#63b8ff" points="424.34,-135.15 433.44,-129.72 422.94,-128.3 424.34,-135.15"/>
</g>
<!-- Node9 -->
<g id="node9" class="node">
<title>Node9</title>
<g id="a_node9"><a xlink:href="../../d0/de2/uuid__generator_8h.html" target="_top" xlink:title=" ">
<polygon fill="white" stroke="#666666" points="271.5,-129 167.5,-129 167.5,-110 271.5,-110 271.5,-129"/>
<text text-anchor="middle" x="219.5" y="-117" font-family="Helvetica,sans-Serif" font-size="10.00">util/uuid_generator.h</text>
</a>
</g>
</g>
<!-- Node4&#45;&gt;Node9 -->
<g id="edge8" class="edge">
<title>Node4&#45;&gt;Node9</title>
<path fill="none" stroke="#63b8ff" d="M219.5,-164.75C219.5,-158.27 219.5,-149.16 219.5,-140.9"/>
<polygon fill="#63b8ff" stroke="#63b8ff" points="223,-140.96 219.5,-130.96 216,-140.96 223,-140.96"/>
</g>
<!-- Node9&#45;&gt;Node5 -->
<g id="edge13" class="edge">
<title>Node9&#45;&gt;Node5</title>
<path fill="none" stroke="#63b8ff" d="M188.97,-109.51C157.88,-100.36 109.65,-86.16 76.43,-76.37"/>
<polygon fill="#63b8ff" stroke="#63b8ff" points="77.82,-73.13 67.24,-73.67 75.84,-79.85 77.82,-73.13"/>
</g>
<!-- Node9&#45;&gt;Node6 -->
<g id="edge14" class="edge">
<title>Node9&#45;&gt;Node6</title>
<path fill="none" stroke="#63b8ff" d="M199.99,-109.51C181.87,-101.16 154.65,-88.61 133.9,-79.05"/>
<polygon fill="#63b8ff" stroke="#63b8ff" points="135.64,-76 125.09,-74.99 132.71,-82.36 135.64,-76"/>
</g>
<!-- Node10 -->
<g id="node10" class="node">
<title>Node10</title>
<g id="a_node10"><a xlink:title=" ">
<polygon fill="#e0e0e0" stroke="#999999" points="704,-74 603,-74 603,-55 704,-55 704,-74"/>
<text text-anchor="middle" x="653.5" y="-62" font-family="Helvetica,sans-Serif" font-size="10.00">boost/uuid/uuid.hpp</text>
</a>
</g>
</g>
<!-- Node9&#45;&gt;Node10 -->
<g id="edge9" class="edge">
<title>Node9&#45;&gt;Node10</title>
<path fill="none" stroke="#63b8ff" d="M271.73,-111.14C274.7,-110.75 277.64,-110.36 280.5,-110 416.31,-92.75 453.33,-92.04 591.64,-74.34"/>
<polygon fill="#63b8ff" stroke="#63b8ff" points="591.69,-77.86 601.16,-73.11 590.8,-70.92 591.69,-77.86"/>
</g>
<!-- Node11 -->
<g id="node11" class="node">
<title>Node11</title>
<g id="a_node11"><a xlink:title=" ">
<polygon fill="#e0e0e0" stroke="#999999" points="295.5,-74 143.5,-74 143.5,-55 295.5,-55 295.5,-74"/>
<text text-anchor="middle" x="219.5" y="-62" font-family="Helvetica,sans-Serif" font-size="10.00">boost/uuid/uuid_generators.hpp</text>
</a>
</g>
</g>
<!-- Node9&#45;&gt;Node11 -->
<g id="edge10" class="edge">
<title>Node9&#45;&gt;Node11</title>
<path fill="none" stroke="#63b8ff" d="M219.5,-109.75C219.5,-103.27 219.5,-94.16 219.5,-85.9"/>
<polygon fill="#63b8ff" stroke="#63b8ff" points="223,-85.96 219.5,-75.96 216,-85.96 223,-85.96"/>
</g>
<!-- Node12 -->
<g id="node12" class="node">
<title>Node12</title>
<g id="a_node12"><a xlink:title=" ">
<polygon fill="#e0e0e0" stroke="#999999" points="427.5,-74 313.5,-74 313.5,-55 427.5,-55 427.5,-74"/>
<text text-anchor="middle" x="370.5" y="-62" font-family="Helvetica,sans-Serif" font-size="10.00">boost/uuid/uuid_io.hpp</text>
</a>
</g>
</g>
<!-- Node9&#45;&gt;Node12 -->
<g id="edge11" class="edge">
<title>Node9&#45;&gt;Node12</title>
<path fill="none" stroke="#63b8ff" d="M245.12,-109.51C269.59,-100.92 306.74,-87.88 334.25,-78.22"/>
<polygon fill="#63b8ff" stroke="#63b8ff" points="335.31,-81.56 343.58,-74.95 332.99,-74.96 335.31,-81.56"/>
</g>
<!-- Node13 -->
<g id="node13" class="node">
<title>Node13</title>
<g id="a_node13"><a xlink:title=" ">
<polygon fill="#e0e0e0" stroke="#999999" points="489.5,-74 445.5,-74 445.5,-55 489.5,-55 489.5,-74"/>
<text text-anchor="middle" x="467.5" y="-62" font-family="Helvetica,sans-Serif" font-size="10.00">mutex</text>
</a>
</g>
</g>
<!-- Node9&#45;&gt;Node13 -->
<g id="edge12" class="edge">
<title>Node9&#45;&gt;Node13</title>
<path fill="none" stroke="#63b8ff" d="M267.96,-109.5C309.66,-101.55 371.66,-89.23 434.32,-74.4"/>
<polygon fill="#63b8ff" stroke="#63b8ff" points="434.81,-77.88 443.72,-72.16 433.18,-71.07 434.81,-77.88"/>
</g>
<!-- Node14 -->
<g id="node14" class="node">
<title>Node14</title>
<g id="a_node14"><a xlink:href="../../df/d63/spinlock_8h.html" target="_top" xlink:title=" ">
<polygon fill="white" stroke="#666666" points="585,-74 508,-74 508,-55 585,-55 585,-74"/>
<text text-anchor="middle" x="546.5" y="-62" font-family="Helvetica,sans-Serif" font-size="10.00">util/spinlock.h</text>
</a>
</g>
</g>
<!-- Node9&#45;&gt;Node14 -->
<g id="edge15" class="edge">
<title>Node9&#45;&gt;Node14</title>
<path fill="none" stroke="#63b8ff" d="M271.99,-110.4C325.75,-102.05 412.03,-88.47 496.63,-74.29"/>
<polygon fill="#63b8ff" stroke="#63b8ff" points="496.96,-77.78 506.24,-72.67 495.8,-70.88 496.96,-77.78"/>
</g>
<!-- Node15 -->
<g id="node15" class="node">
<title>Node15</title>
<g id="a_node15"><a xlink:title=" ">
<polygon fill="#e0e0e0" stroke="#999999" points="538,-19 487,-19 487,0 538,0 538,-19"/>
<text text-anchor="middle" x="512.5" y="-7" font-family="Helvetica,sans-Serif" font-size="10.00">sched.h</text>
</a>
</g>
</g>
<!-- Node14&#45;&gt;Node15 -->
<g id="edge16" class="edge">
<title>Node14&#45;&gt;Node15</title>
<path fill="none" stroke="#63b8ff" d="M540.89,-54.75C536.38,-47.73 529.91,-37.64 524.29,-28.87"/>
<polygon fill="#63b8ff" stroke="#63b8ff" points="527.4,-27.24 519.05,-20.72 521.51,-31.02 527.4,-27.24"/>
</g>
<!-- Node16 -->
<g id="node16" class="node">
<title>Node16</title>
<g id="a_node16"><a xlink:title=" ">
<polygon fill="#e0e0e0" stroke="#999999" points="602.5,-19 556.5,-19 556.5,0 602.5,0 602.5,-19"/>
<text text-anchor="middle" x="579.5" y="-7" font-family="Helvetica,sans-Serif" font-size="10.00">atomic</text>
</a>
</g>
</g>
<!-- Node14&#45;&gt;Node16 -->
<g id="edge17" class="edge">
<title>Node14&#45;&gt;Node16</title>
<path fill="none" stroke="#63b8ff" d="M551.95,-54.75C556.27,-47.81 562.46,-37.86 567.88,-29.16"/>
<polygon fill="#63b8ff" stroke="#63b8ff" points="570.82,-31.07 573.13,-20.73 564.88,-27.37 570.82,-31.07"/>
</g>
</g>
</svg>
