<?xml version="1.0" encoding="UTF-8" standalone="no"?>
<!DOCTYPE svg PUBLIC "-//W3C//DTD SVG 1.1//EN"
 "http://www.w3.org/Graphics/SVG/1.1/DTD/svg11.dtd">
<!-- Generated by graphviz version 7.1.0 (20230121.1956)
 -->
<!-- Title: _get_segment_iterators Pages: 1 -->
<!--zoomable 213 -->
<svg id="main" version="1.1" xmlns="http://www.w3.org/2000/svg" xmlns:xlink="http://www.w3.org/1999/xlink" xml:space="preserve" onload="init(evt)">
<style type="text/css"><![CDATA[
.edge:hover path { stroke: red; }
.edge:hover polygon { stroke: red; fill: red; }
]]></style>
<script type="text/javascript"><![CDATA[
var edges = document.getElementsByTagName('g');
if (edges && edges.length) {
  for (var i=0;i<edges.length;i++) {
    if (edges[i].id.substr(0,4)=='edge') {
      edges[i].setAttribute('class','edge');
    }
  }
}
]]></script>
        <defs>
                <circle id="rim" cx="0" cy="0" r="7"/>
                <circle id="rim2" cx="0" cy="0" r="3.5"/>
                <g id="zoomPlus">
                        <use xlink:href="#rim" fill="#404040">
                                <set attributeName="fill" to="#808080" begin="zoomplus.mouseover" end="zoomplus.mouseout"/>
                        </use>
                        <path d="M-4,0h8M0,-4v8" fill="none" stroke="white" stroke-width="1.5" pointer-events="none"/>
                </g>
                <g id="zoomMin">
                        <use xlink:href="#rim" fill="#404040">
                                <set attributeName="fill" to="#808080" begin="zoomminus.mouseover" end="zoomminus.mouseout"/>
                        </use>
                        <path d="M-4,0h8" fill="none" stroke="white" stroke-width="1.5" pointer-events="none"/>
                </g>
                <g id="dirArrow">
                        <path fill="none" stroke="white" stroke-width="1.5" d="M0,-3.0v7 M-2.5,-0.5L0,-3.0L2.5,-0.5"/>
                </g>
               <g id="resetDef">
                       <use xlink:href="#rim2" fill="#404040">
                               <set attributeName="fill" to="#808080" begin="reset.mouseover" end="reset.mouseout"/>
                       </use>
               </g>
        </defs>

<script type="text/javascript">
var viewWidth = 768;
var viewHeight = 213;
var sectionId = 'dynsection-15';
</script>
<script xlink:href="../../svgpan.js"/>
<svg id="graph" class="graph">
<g id="viewport">
<title>_get_segment_iterators</title>
<!-- Node1 -->
<g id="node1" class="node">
<title>Node1</title>
<g id="a_node1"><a xlink:title=" ">
<polygon fill="#999999" stroke="#666666" points="119,-183 0,-183 0,-164 119,-164 119,-183"/>
<text text-anchor="middle" x="59.5" y="-171" font-family="Helvetica,sans-Serif" font-size="10.00">_get_segment_iterators</text>
</a>
</g>
</g>
<!-- Node2 -->
<g id="node2" class="node">
<title>Node2</title>
<g id="a_node2"><a xlink:href="../../dc/da7/classdoris_1_1_tablet_reader.html#aaff7f1ee6521f517eac87c6ff8850586" target="_top" xlink:title=" ">
<polygon fill="white" stroke="#666666" points="266,-167.5 155,-167.5 155,-137.5 266,-137.5 266,-167.5"/>
<text text-anchor="start" x="163" y="-155.5" font-family="Helvetica,sans-Serif" font-size="10.00">doris::TabletReader</text>
<text text-anchor="middle" x="210.5" y="-144.5" font-family="Helvetica,sans-Serif" font-size="10.00">::_capture_rs_readers</text>
</a>
</g>
</g>
<!-- Node1&#45;&gt;Node2 -->
<g id="edge1" class="edge">
<title>Node1&#45;&gt;Node2</title>
<path fill="none" stroke="#63b8ff" d="M119.39,-165.2C127.35,-164.08 135.56,-162.92 143.63,-161.78"/>
<polygon fill="#63b8ff" stroke="#63b8ff" points="144,-165.27 153.42,-160.4 143.03,-158.33 144,-165.27"/>
</g>
<!-- Node4 -->
<g id="node4" class="node">
<title>Node4</title>
<g id="a_node4"><a xlink:href="../../d9/d8d/classdoris_1_1_status.html#a6ec1a217f203269ab53d2290d602db24" target="_top" xlink:title=" ">
<polygon fill="white" stroke="#666666" points="409.5,-205 317.5,-205 317.5,-186 409.5,-186 409.5,-205"/>
<text text-anchor="middle" x="363.5" y="-193" font-family="Helvetica,sans-Serif" font-size="10.00">doris::Status::OK</text>
</a>
</g>
</g>
<!-- Node1&#45;&gt;Node4 -->
<g id="edge12" class="edge">
<title>Node1&#45;&gt;Node4</title>
<path fill="none" stroke="#63b8ff" d="M119.45,-177.79C173.34,-181.72 252.53,-187.49 305.73,-191.36"/>
<polygon fill="#63b8ff" stroke="#63b8ff" points="305.26,-194.84 315.49,-192.08 305.77,-187.86 305.26,-194.84"/>
</g>
<!-- Node3 -->
<g id="node3" class="node">
<title>Node3</title>
<g id="a_node3"><a xlink:href="../../d6/d94/namespacedoris.html#a8ccf8ee13fd2a11c8994a83e10805433" target="_top" xlink:title=" ">
<polygon fill="white" stroke="#666666" points="425,-168 302,-168 302,-149 425,-149 425,-168"/>
<text text-anchor="middle" x="363.5" y="-156" font-family="Helvetica,sans-Serif" font-size="10.00">doris::compare_row_key</text>
</a>
</g>
</g>
<!-- Node2&#45;&gt;Node3 -->
<g id="edge2" class="edge">
<title>Node2&#45;&gt;Node3</title>
<path fill="none" stroke="#63b8ff" d="M266.44,-154.68C274.24,-154.99 282.35,-155.32 290.41,-155.64"/>
<polygon fill="#63b8ff" stroke="#63b8ff" points="290.08,-159.13 300.22,-156.03 290.36,-152.13 290.08,-159.13"/>
</g>
<!-- Node2&#45;&gt;Node4 -->
<g id="edge3" class="edge">
<title>Node2&#45;&gt;Node4</title>
<path fill="none" stroke="#63b8ff" d="M265.59,-167.9C282.36,-172.68 300.68,-177.9 316.83,-182.49"/>
<polygon fill="#63b8ff" stroke="#63b8ff" points="315.58,-185.78 326.16,-185.15 317.5,-179.05 315.58,-185.78"/>
</g>
<!-- Node6 -->
<g id="node6" class="node">
<title>Node6</title>
<g id="a_node6"><a xlink:href="../../dc/da7/classdoris_1_1_tablet_reader.html#a31109a48f2fd9f439d91cef8e4354c3f" target="_top" xlink:title=" ">
<polygon fill="white" stroke="#666666" points="414,-130.5 313,-130.5 313,-100.5 414,-100.5 414,-130.5"/>
<text text-anchor="start" x="321" y="-118.5" font-family="Helvetica,sans-Serif" font-size="10.00">doris::TabletReader</text>
<text text-anchor="middle" x="363.5" y="-107.5" font-family="Helvetica,sans-Serif" font-size="10.00">::tablet</text>
</a>
</g>
</g>
<!-- Node2&#45;&gt;Node6 -->
<g id="edge5" class="edge">
<title>Node2&#45;&gt;Node6</title>
<path fill="none" stroke="#63b8ff" d="M266.44,-139.04C277.94,-136.22 290.14,-133.23 301.83,-130.37"/>
<polygon fill="#63b8ff" stroke="#63b8ff" points="302.51,-133.8 311.39,-128.02 300.84,-127 302.51,-133.8"/>
</g>
<!-- Node7 -->
<g id="node7" class="node">
<title>Node7</title>
<g id="a_node7"><a xlink:href="../../d3/d56/classdoris_1_1_row_cursor.html#aac993ecccd3d88aafefb6b8e3caa1dee" target="_top" xlink:title=" ">
<polygon fill="white" stroke="#666666" points="417,-82.5 310,-82.5 310,-52.5 417,-52.5 417,-82.5"/>
<text text-anchor="start" x="318" y="-70.5" font-family="Helvetica,sans-Serif" font-size="10.00">doris::RowCursor::to</text>
<text text-anchor="middle" x="363.5" y="-59.5" font-family="Helvetica,sans-Serif" font-size="10.00">_string</text>
</a>
</g>
</g>
<!-- Node2&#45;&gt;Node7 -->
<g id="edge6" class="edge">
<title>Node2&#45;&gt;Node7</title>
<path fill="none" stroke="#63b8ff" d="M231.56,-137.13C249.4,-123.92 276.53,-104.94 302,-91.5 304.54,-90.16 307.16,-88.85 309.84,-87.58"/>
<polygon fill="#63b8ff" stroke="#63b8ff" points="311.25,-90.79 318.93,-83.5 308.38,-84.4 311.25,-90.79"/>
</g>
<!-- Node5 -->
<g id="node5" class="node">
<title>Node5</title>
<g id="a_node5"><a xlink:href="../../d9/d8d/classdoris_1_1_status.html#aafde58df1b2a6a91d5b674373be3ffc5" target="_top" xlink:title=" ">
<polygon fill="white" stroke="#666666" points="580,-205 473,-205 473,-186 580,-186 580,-205"/>
<text text-anchor="middle" x="526.5" y="-193" font-family="Helvetica,sans-Serif" font-size="10.00">doris::Status::Status</text>
</a>
</g>
</g>
<!-- Node4&#45;&gt;Node5 -->
<g id="edge4" class="edge">
<title>Node4&#45;&gt;Node5</title>
<path fill="none" stroke="#63b8ff" d="M409.78,-195.5C425.8,-195.5 444.14,-195.5 461.42,-195.5"/>
<polygon fill="#63b8ff" stroke="#63b8ff" points="461.08,-199 471.08,-195.5 461.08,-192 461.08,-199"/>
</g>
<!-- Node8 -->
<g id="node8" class="node">
<title>Node8</title>
<g id="a_node8"><a xlink:href="../../d3/d56/classdoris_1_1_row_cursor.html#a8f3fa344b9acf25bc66c818ea09817d0" target="_top" xlink:title=" ">
<polygon fill="white" stroke="#666666" points="592,-142 461,-142 461,-123 592,-123 592,-142"/>
<text text-anchor="middle" x="526.5" y="-130" font-family="Helvetica,sans-Serif" font-size="10.00">doris::RowCursor::cell_ptr</text>
</a>
</g>
</g>
<!-- Node7&#45;&gt;Node8 -->
<g id="edge7" class="edge">
<title>Node7&#45;&gt;Node8</title>
<path fill="none" stroke="#63b8ff" d="M406.24,-82.97C412.61,-85.64 419.04,-88.52 425,-91.5 441.78,-99.88 443.86,-105.9 461,-113.5 465.5,-115.5 470.28,-117.35 475.1,-119.06"/>
<polygon fill="#63b8ff" stroke="#63b8ff" points="473.65,-122.27 484.25,-122.08 475.85,-115.62 473.65,-122.27"/>
</g>
<!-- Node9 -->
<g id="node9" class="node">
<title>Node9</title>
<g id="a_node9"><a xlink:href="../../d3/d56/classdoris_1_1_row_cursor.html#aba43d33ec039abfaf2479e57ec2caeff" target="_top" xlink:title=" ">
<polygon fill="white" stroke="#666666" points="592,-104.5 461,-104.5 461,-74.5 592,-74.5 592,-104.5"/>
<text text-anchor="start" x="469" y="-92.5" font-family="Helvetica,sans-Serif" font-size="10.00">doris::RowCursor::column</text>
<text text-anchor="middle" x="526.5" y="-81.5" font-family="Helvetica,sans-Serif" font-size="10.00">_schema</text>
</a>
</g>
</g>
<!-- Node7&#45;&gt;Node9 -->
<g id="edge8" class="edge">
<title>Node7&#45;&gt;Node9</title>
<path fill="none" stroke="#63b8ff" d="M417.22,-74.7C427.5,-76.11 438.46,-77.61 449.32,-79.09"/>
<polygon fill="#63b8ff" stroke="#63b8ff" points="448.69,-82.54 459.07,-80.42 449.64,-75.6 448.69,-82.54"/>
</g>
<!-- Node10 -->
<g id="node10" class="node">
<title>Node10</title>
<g id="a_node10"><a xlink:href="../../d3/d56/classdoris_1_1_row_cursor.html#a3f8213afafa6d2cc265080459504f88a" target="_top" xlink:title=" ">
<polygon fill="white" stroke="#666666" points="590,-56 463,-56 463,-37 590,-37 590,-56"/>
<text text-anchor="middle" x="526.5" y="-44" font-family="Helvetica,sans-Serif" font-size="10.00">doris::RowCursor::is_null</text>
</a>
</g>
</g>
<!-- Node7&#45;&gt;Node10 -->
<g id="edge9" class="edge">
<title>Node7&#45;&gt;Node10</title>
<path fill="none" stroke="#63b8ff" d="M417.22,-60.62C428.08,-59.21 439.72,-57.69 451.19,-56.19"/>
<polygon fill="#63b8ff" stroke="#63b8ff" points="451.6,-59.67 461.07,-54.9 450.7,-52.73 451.6,-59.67"/>
</g>
<!-- Node12 -->
<g id="node12" class="node">
<title>Node12</title>
<g id="a_node12"><a xlink:href="../../de/d5b/classdoris_1_1_field.html#a87a7f6c010dac8d30c897d22b7597b8d" target="_top" xlink:title=" ">
<polygon fill="white" stroke="#666666" points="580.5,-19 472.5,-19 472.5,0 580.5,0 580.5,-19"/>
<text text-anchor="middle" x="526.5" y="-7" font-family="Helvetica,sans-Serif" font-size="10.00">doris::Field::to_string</text>
</a>
</g>
</g>
<!-- Node7&#45;&gt;Node12 -->
<g id="edge11" class="edge">
<title>Node7&#45;&gt;Node12</title>
<path fill="none" stroke="#63b8ff" d="M400.38,-52.03C418.41,-44.5 440.69,-35.58 461,-28.5 466.72,-26.51 472.77,-24.54 478.78,-22.68"/>
<polygon fill="#63b8ff" stroke="#63b8ff" points="479.47,-26.12 488.03,-19.87 477.45,-19.42 479.47,-26.12"/>
</g>
<!-- Node11 -->
<g id="node11" class="node">
<title>Node11</title>
<g id="a_node11"><a xlink:href="../../d3/d56/classdoris_1_1_row_cursor.html#ab0b1d98ecea15551b930f502de128d73" target="_top" xlink:title=" ">
<polygon fill="white" stroke="#666666" points="760,-61.5 628,-61.5 628,-31.5 760,-31.5 760,-61.5"/>
<text text-anchor="start" x="636" y="-49.5" font-family="Helvetica,sans-Serif" font-size="10.00">doris::RowCursor::nullable</text>
<text text-anchor="middle" x="694" y="-38.5" font-family="Helvetica,sans-Serif" font-size="10.00">_cell_ptr</text>
</a>
</g>
</g>
<!-- Node10&#45;&gt;Node11 -->
<g id="edge10" class="edge">
<title>Node10&#45;&gt;Node11</title>
<path fill="none" stroke="#63b8ff" d="M590.07,-46.5C598.6,-46.5 607.43,-46.5 616.17,-46.5"/>
<polygon fill="#63b8ff" stroke="#63b8ff" points="616.07,-50 626.07,-46.5 616.07,-43 616.07,-50"/>
</g>
</g>
</svg>
        <g id="navigator" transform="translate(0 0)" fill="#404254">
                <rect fill="#f2f5e9" fill-opacity="0.5" stroke="#606060" stroke-width=".5" x="0" y="0" width="60" height="60"/>
                <use id="zoomplus" xlink:href="#zoomPlus" x="17" y="9" onmousedown="handleZoom(evt,'in')"/>
                <use id="zoomminus" xlink:href="#zoomMin" x="42" y="9" onmousedown="handleZoom(evt,'out')"/>
                <use id="reset" xlink:href="#resetDef" x="30" y="36" onmousedown="handleReset()"/>
                <g id="arrowUp" xlink:href="#dirArrow" transform="translate(30 24)" onmousedown="handlePan(0,-1)">
                  <use xlink:href="#rim" fill="#404040">
                        <set attributeName="fill" to="#808080" begin="arrowUp.mouseover" end="arrowUp.mouseout"/>
                  </use>
                  <path fill="none" stroke="white" stroke-width="1.5" d="M0,-3.0v7 M-2.5,-0.5L0,-3.0L2.5,-0.5"/>
                </g>
                <g id="arrowRight" xlink:href="#dirArrow" transform="rotate(90) translate(36 -43)" onmousedown="handlePan(1,0)">
                  <use xlink:href="#rim" fill="#404040">
                        <set attributeName="fill" to="#808080" begin="arrowRight.mouseover" end="arrowRight.mouseout"/>
                  </use>
                  <path fill="none" stroke="white" stroke-width="1.5" d="M0,-3.0v7 M-2.5,-0.5L0,-3.0L2.5,-0.5"/>
                </g>
                <g id="arrowDown" xlink:href="#dirArrow" transform="rotate(180) translate(-30 -48)" onmousedown="handlePan(0,1)">
                  <use xlink:href="#rim" fill="#404040">
                        <set attributeName="fill" to="#808080" begin="arrowDown.mouseover" end="arrowDown.mouseout"/>
                  </use>
                  <path fill="none" stroke="white" stroke-width="1.5" d="M0,-3.0v7 M-2.5,-0.5L0,-3.0L2.5,-0.5"/>
                </g>
                <g id="arrowLeft" xlink:href="#dirArrow" transform="rotate(270) translate(-36 17)" onmousedown="handlePan(-1,0)">
                  <use xlink:href="#rim" fill="#404040">
                        <set attributeName="fill" to="#808080" begin="arrowLeft.mouseover" end="arrowLeft.mouseout"/>
                  </use>
                  <path fill="none" stroke="white" stroke-width="1.5" d="M0,-3.0v7 M-2.5,-0.5L0,-3.0L2.5,-0.5"/>
                </g>
        </g>
        <svg viewBox="0 0 15 15" width="100%" height="30px" preserveAspectRatio="xMaxYMin meet">
         <g id="arrow_out" transform="scale(0.3 0.3)">
          <a xlink:href="classdoris_1_1vectorized_1_1_vertical_block_reader_a987bb521677634f29c37948b684d477f_cgraph_org.svg" target="_base">
           <rect id="button" ry="5" rx="5" y="6" x="6" height="38" width="38"
                fill="#f2f5e9" fill-opacity="0.5" stroke="#606060" stroke-width="1.0"/>
           <path id="arrow"
             d="M 11.500037,31.436501 C 11.940474,20.09759 22.043105,11.32322 32.158766,21.979434 L 37.068811,17.246167 C 37.068811,17.246167 37.088388,32 37.088388,32 L 22.160133,31.978069 C 22.160133,31.978069 26.997745,27.140456 26.997745,27.140456 C 18.528582,18.264221 13.291696,25.230495 11.500037,31.436501 z"
             style="fill:#404040;"/>
          </a>
         </g>
        </svg>
</svg>
