<?xml version="1.0" encoding="UTF-8" standalone="no"?>
<!DOCTYPE svg PUBLIC "-//W3C//DTD SVG 1.1//EN"
 "http://www.w3.org/Graphics/SVG/1.1/DTD/svg11.dtd">
<!-- Generated by graphviz version 7.1.0 (20230121.1956)
 -->
<!-- Title: insert_default_data Pages: 1 -->
<svg width="458pt" height="161pt"
 viewBox="0.00 0.00 458.00 160.50" xmlns="http://www.w3.org/2000/svg" xmlns:xlink="http://www.w3.org/1999/xlink">
<g id="graph0" class="graph" transform="scale(1 1) rotate(0) translate(4 156.5)">
<title>insert_default_data</title>
<!-- Node1 -->
<g id="node1" class="node">
<title>Node1</title>
<g id="a_node1"><a xlink:title=" ">
<polygon fill="#999999" stroke="#666666" points="450,-93.5 351,-93.5 351,-74.5 450,-74.5 450,-93.5"/>
<text text-anchor="middle" x="400.5" y="-81.5" font-family="Helvetica,sans-Serif" font-size="10.00">insert_default_data</text>
</a>
</g>
</g>
<!-- Node2 -->
<g id="node2" class="node">
<title>Node2</title>
<g id="a_node2"><a xlink:href="../../d4/df6/classdoris_1_1segment__v2_1_1_default_value_column_iterator.html#a8ee35202d0b3258c41d9fd233b07c1a1" target="_top" xlink:title=" ">
<polygon fill="white" stroke="#666666" points="307.5,-115.5 197.5,-115.5 197.5,-96.5 307.5,-96.5 307.5,-115.5"/>
<text text-anchor="middle" x="252.5" y="-103.5" font-family="Helvetica,sans-Serif" font-size="10.00">_insert_many_default</text>
</a>
</g>
</g>
<!-- Node1&#45;&gt;Node2 -->
<g id="edge1" class="edge">
<title>Node1&#45;&gt;Node2</title>
<path fill="none" stroke="#63b8ff" d="M339.68,-93.01C329.17,-94.6 318.29,-96.24 307.95,-97.8"/>
<polygon fill="#63b8ff" stroke="#63b8ff" points="340.02,-96.5 349.39,-91.55 338.98,-89.58 340.02,-96.5"/>
</g>
<!-- Node5 -->
<g id="node5" class="node">
<title>Node5</title>
<g id="a_node5"><a xlink:href="../../df/d31/classdoris_1_1_row_block_changer.html#a99943c3764aab4692656dd9dff62d26e" target="_top" xlink:title=" ">
<polygon fill="white" stroke="#666666" points="315,-78 190,-78 190,-48 315,-48 315,-78"/>
<text text-anchor="start" x="198" y="-66" font-family="Helvetica,sans-Serif" font-size="10.00">doris::RowBlockChanger</text>
<text text-anchor="middle" x="252.5" y="-55" font-family="Helvetica,sans-Serif" font-size="10.00">::change_block</text>
</a>
</g>
</g>
<!-- Node1&#45;&gt;Node5 -->
<g id="edge4" class="edge">
<title>Node1&#45;&gt;Node5</title>
<path fill="none" stroke="#63b8ff" d="M339.73,-75.4C331.71,-74.25 323.47,-73.06 315.41,-71.9"/>
<polygon fill="#63b8ff" stroke="#63b8ff" points="338.99,-78.83 349.39,-76.79 339.99,-71.9 338.99,-78.83"/>
</g>
<!-- Node3 -->
<g id="node3" class="node">
<title>Node3</title>
<g id="a_node3"><a xlink:href="../../d4/df6/classdoris_1_1segment__v2_1_1_default_value_column_iterator.html#aefb4735e49ba8b5736be434e4b16fc17" target="_top" xlink:title=" ">
<polygon fill="white" stroke="#666666" points="109.5,-152.5 44.5,-152.5 44.5,-133.5 109.5,-133.5 109.5,-152.5"/>
<text text-anchor="middle" x="77" y="-140.5" font-family="Helvetica,sans-Serif" font-size="10.00">next_batch</text>
</a>
</g>
</g>
<!-- Node2&#45;&gt;Node3 -->
<g id="edge2" class="edge">
<title>Node2&#45;&gt;Node3</title>
<path fill="none" stroke="#63b8ff" d="M194.11,-118.24C166.05,-124.22 133.34,-131.2 109.8,-136.22"/>
<polygon fill="#63b8ff" stroke="#63b8ff" points="194.47,-121.74 203.52,-116.23 193.01,-114.89 194.47,-121.74"/>
</g>
<!-- Node4 -->
<g id="node4" class="node">
<title>Node4</title>
<g id="a_node4"><a xlink:href="../../d4/df6/classdoris_1_1segment__v2_1_1_default_value_column_iterator.html#a7f95d6d729891be03ce952f2b51cee9e" target="_top" xlink:title=" ">
<polygon fill="white" stroke="#666666" points="119.5,-115.5 34.5,-115.5 34.5,-96.5 119.5,-96.5 119.5,-115.5"/>
<text text-anchor="middle" x="77" y="-103.5" font-family="Helvetica,sans-Serif" font-size="10.00">read_by_rowids</text>
</a>
</g>
</g>
<!-- Node2&#45;&gt;Node4 -->
<g id="edge3" class="edge">
<title>Node2&#45;&gt;Node4</title>
<path fill="none" stroke="#63b8ff" d="M185.73,-106C163.63,-106 139.59,-106 119.84,-106"/>
<polygon fill="#63b8ff" stroke="#63b8ff" points="185.57,-109.5 195.57,-106 185.57,-102.5 185.57,-109.5"/>
</g>
<!-- Node6 -->
<g id="node6" class="node">
<title>Node6</title>
<g id="a_node6"><a xlink:href="../../da/d81/classdoris_1_1_v_schema_change_directly.html#a0d8656af3adfb25b565ff4c3e0fe9fc5" target="_top" xlink:title=" ">
<polygon fill="white" stroke="#666666" points="154,-78 0,-78 0,-48 154,-48 154,-78"/>
<text text-anchor="start" x="8" y="-66" font-family="Helvetica,sans-Serif" font-size="10.00">doris::VSchemaChangeDirectly</text>
<text text-anchor="middle" x="77" y="-55" font-family="Helvetica,sans-Serif" font-size="10.00">::_inner_process</text>
</a>
</g>
</g>
<!-- Node5&#45;&gt;Node6 -->
<g id="edge5" class="edge">
<title>Node5&#45;&gt;Node6</title>
<path fill="none" stroke="#63b8ff" d="M178.35,-63C170.41,-63 162.32,-63 154.34,-63"/>
<polygon fill="#63b8ff" stroke="#63b8ff" points="178.33,-66.5 188.33,-63 178.33,-59.5 178.33,-66.5"/>
</g>
<!-- Node7 -->
<g id="node7" class="node">
<title>Node7</title>
<g id="a_node7"><a xlink:href="../../dc/d38/classdoris_1_1_v_schema_change_with_sorting.html#a0d8656af3adfb25b565ff4c3e0fe9fc5" target="_top" xlink:title=" ">
<polygon fill="white" stroke="#666666" points="147,-30 7,-30 7,0 147,0 147,-30"/>
<text text-anchor="start" x="15" y="-18" font-family="Helvetica,sans-Serif" font-size="10.00">doris::VSchemaChangeWith</text>
<text text-anchor="middle" x="77" y="-7" font-family="Helvetica,sans-Serif" font-size="10.00">Sorting::_inner_process</text>
</a>
</g>
</g>
<!-- Node5&#45;&gt;Node7 -->
<g id="edge6" class="edge">
<title>Node5&#45;&gt;Node7</title>
<path fill="none" stroke="#63b8ff" d="M184.76,-44.54C167.91,-39.87 149.99,-34.92 133.75,-30.42"/>
<polygon fill="#63b8ff" stroke="#63b8ff" points="183.62,-47.85 194.19,-47.14 185.49,-41.1 183.62,-47.85"/>
</g>
</g>
</svg>
