<?xml version="1.0" encoding="UTF-8" standalone="no"?>
<!DOCTYPE svg PUBLIC "-//W3C//DTD SVG 1.1//EN"
 "http://www.w3.org/Graphics/SVG/1.1/DTD/svg11.dtd">
<!-- Generated by graphviz version 7.1.0 (20230121.1956)
 -->
<!-- Title: RefCountClosure&lt; T &gt; Pages: 1 -->
<svg width="335pt" height="160pt"
 viewBox="0.00 0.00 335.00 160.00" xmlns="http://www.w3.org/2000/svg" xmlns:xlink="http://www.w3.org/1999/xlink">
<g id="graph0" class="graph" transform="scale(1 1) rotate(0) translate(4 156)">
<title>RefCountClosure&lt; T &gt;</title>
<!-- Node1 -->
<g id="node1" class="node">
<title>Node1</title>
<g id="a_node1"><a xlink:title=" ">
<polygon fill="#999999" stroke="#666666" points="204,-96 88,-96 88,-77 204,-77 204,-96"/>
<text text-anchor="middle" x="146" y="-84" font-family="Helvetica,sans-Serif" font-size="10.00">RefCountClosure&lt; T &gt;</text>
</a>
</g>
</g>
<!-- Node3 -->
<g id="node3" class="node">
<title>Node3</title>
<g id="a_node3"><a xlink:href="../../d3/df7/classdoris_1_1_ref_count_closure.html" target="_top" xlink:title=" ">
<polygon fill="white" stroke="#666666" points="134,-30 0,-30 0,0 134,0 134,-30"/>
<text text-anchor="start" x="8" y="-18" font-family="Helvetica,sans-Serif" font-size="10.00">RefCountClosure&lt; PTablet</text>
<text text-anchor="middle" x="67" y="-7" font-family="Helvetica,sans-Serif" font-size="10.00">WriterOpenResult &gt;</text>
</a>
</g>
</g>
<!-- Node1&#45;&gt;Node3 -->
<g id="edge2" class="edge">
<title>Node1&#45;&gt;Node3</title>
<path fill="none" stroke="orange" stroke-dasharray="5,2" d="M85.78,-71.68C80.13,-68.32 75.02,-64.16 71,-59 64.73,-50.96 64,-39.32 64.68,-30.19"/>
<polygon fill="orange" stroke="orange" points="83.83,-74.62 94.35,-75.91 86.93,-68.34 83.83,-74.62"/>
<text text-anchor="middle" x="137" y="-51" font-family="Helvetica,sans-Serif" font-size="10.00"> &lt; PTabletWriterOpenResult &gt;</text>
</g>
<!-- Node4 -->
<g id="node4" class="node">
<title>Node4</title>
<g id="a_node4"><a xlink:href="../../d3/df7/classdoris_1_1_ref_count_closure.html" target="_top" xlink:title=" ">
<polygon fill="white" stroke="#666666" points="298,-30 152,-30 152,0 298,0 298,-30"/>
<text text-anchor="start" x="160" y="-18" font-family="Helvetica,sans-Serif" font-size="10.00">RefCountClosure&lt; PTransmit</text>
<text text-anchor="middle" x="225" y="-7" font-family="Helvetica,sans-Serif" font-size="10.00">DataResult &gt;</text>
</a>
</g>
</g>
<!-- Node1&#45;&gt;Node4 -->
<g id="edge3" class="edge">
<title>Node1&#45;&gt;Node4</title>
<path fill="none" stroke="orange" stroke-dasharray="5,2" d="M184.93,-71.68C191.46,-68.21 197.79,-64.02 203,-59 211.21,-51.09 216.91,-39.45 220.44,-30.27"/>
<polygon fill="orange" stroke="orange" points="183.57,-68.45 176.02,-75.88 186.56,-74.78 183.57,-68.45"/>
<text text-anchor="middle" x="269" y="-51" font-family="Helvetica,sans-Serif" font-size="10.00"> &lt; PTransmitDataResult &gt;</text>
</g>
<!-- Node2 -->
<g id="node2" class="node">
<title>Node2</title>
<g id="a_node2"><a xlink:title=" ">
<polygon fill="white" stroke="#666666" points="171,-152 121,-152 121,-133 171,-133 171,-152"/>
<text text-anchor="middle" x="146" y="-140" font-family="Helvetica,sans-Serif" font-size="10.00">Closure</text>
</a>
</g>
</g>
<!-- Node2&#45;&gt;Node1 -->
<g id="edge1" class="edge">
<title>Node2&#45;&gt;Node1</title>
<path fill="none" stroke="#63b8ff" d="M146,-121.11C146,-112.52 146,-102.97 146,-96.25"/>
<polygon fill="#63b8ff" stroke="#63b8ff" points="142.5,-121.07 146,-131.07 149.5,-121.07 142.5,-121.07"/>
</g>
</g>
</svg>
