<?xml version="1.0" encoding="UTF-8" standalone="no"?>
<!DOCTYPE svg PUBLIC "-//W3C//DTD SVG 1.1//EN"
 "http://www.w3.org/Graphics/SVG/1.1/DTD/svg11.dtd">
<!-- Generated by graphviz version 7.1.0 (20230121.1956)
 -->
<!-- Title: find_abs_cgroup_path Pages: 1 -->
<!--zoomable 107 -->
<svg id="main" version="1.1" xmlns="http://www.w3.org/2000/svg" xmlns:xlink="http://www.w3.org/1999/xlink" xml:space="preserve" onload="init(evt)">
<style type="text/css"><![CDATA[
.edge:hover path { stroke: red; }
.edge:hover polygon { stroke: red; fill: red; }
]]></style>
<script type="text/javascript"><![CDATA[
var edges = document.getElementsByTagName('g');
if (edges && edges.length) {
  for (var i=0;i<edges.length;i++) {
    if (edges[i].id.substr(0,4)=='edge') {
      edges[i].setAttribute('class','edge');
    }
  }
}
]]></script>
        <defs>
                <circle id="rim" cx="0" cy="0" r="7"/>
                <circle id="rim2" cx="0" cy="0" r="3.5"/>
                <g id="zoomPlus">
                        <use xlink:href="#rim" fill="#404040">
                                <set attributeName="fill" to="#808080" begin="zoomplus.mouseover" end="zoomplus.mouseout"/>
                        </use>
                        <path d="M-4,0h8M0,-4v8" fill="none" stroke="white" stroke-width="1.5" pointer-events="none"/>
                </g>
                <g id="zoomMin">
                        <use xlink:href="#rim" fill="#404040">
                                <set attributeName="fill" to="#808080" begin="zoomminus.mouseover" end="zoomminus.mouseout"/>
                        </use>
                        <path d="M-4,0h8" fill="none" stroke="white" stroke-width="1.5" pointer-events="none"/>
                </g>
                <g id="dirArrow">
                        <path fill="none" stroke="white" stroke-width="1.5" d="M0,-3.0v7 M-2.5,-0.5L0,-3.0L2.5,-0.5"/>
                </g>
               <g id="resetDef">
                       <use xlink:href="#rim2" fill="#404040">
                               <set attributeName="fill" to="#808080" begin="reset.mouseover" end="reset.mouseout"/>
                       </use>
               </g>
        </defs>

<script type="text/javascript">
var viewWidth = 681;
var viewHeight = 107;
var sectionId = 'dynsection-10';
</script>
<script xlink:href="../../svgpan.js"/>
<svg id="graph" class="graph">
<g id="viewport">
<title>find_abs_cgroup_path</title>
<!-- Node1 -->
<g id="node1" class="node">
<title>Node1</title>
<g id="a_node1"><a xlink:title=" ">
<polygon fill="#999999" stroke="#666666" points="112,-40.98 0,-40.98 0,-21.98 112,-21.98 112,-40.98"/>
<text text-anchor="middle" x="56" y="-28.98" font-family="Helvetica,sans-Serif" font-size="10.00">find_abs_cgroup_path</text>
</a>
</g>
</g>
<!-- Node2 -->
<g id="node2" class="node">
<title>Node2</title>
<g id="a_node2"><a xlink:href="../../df/d6e/classdoris_1_1_c_group_util.html#aefbd03636e15d9a6bb69516ab341ff8e" target="_top" xlink:title=" ">
<polygon fill="white" stroke="#666666" points="252,-40.98 148,-40.98 148,-21.98 252,-21.98 252,-40.98"/>
<text text-anchor="middle" x="200" y="-28.98" font-family="Helvetica,sans-Serif" font-size="10.00">find_cgroup_mounts</text>
</a>
</g>
</g>
<!-- Node1&#45;&gt;Node2 -->
<g id="edge1" class="edge">
<title>Node1&#45;&gt;Node2</title>
<path fill="none" stroke="#63b8ff" d="M112.31,-31.48C120.25,-31.48 128.46,-31.48 136.53,-31.48"/>
<polygon fill="#63b8ff" stroke="#63b8ff" points="136.27,-34.98 146.27,-31.48 136.27,-27.98 136.27,-34.98"/>
</g>
<!-- Node4 -->
<g id="node4" class="node">
<title>Node4</title>
<g id="a_node4"><a xlink:href="../../d9/d8d/classdoris_1_1_status.html#a6ec1a217f203269ab53d2290d602db24" target="_top" xlink:title=" ">
<polygon fill="white" stroke="#666666" points="530,-21.98 438,-21.98 438,-2.98 530,-2.98 530,-21.98"/>
<text text-anchor="middle" x="484" y="-9.98" font-family="Helvetica,sans-Serif" font-size="10.00">doris::Status::OK</text>
</a>
</g>
</g>
<!-- Node1&#45;&gt;Node4 -->
<g id="edge10" class="edge">
<title>Node1&#45;&gt;Node4</title>
<path fill="none" stroke="#63b8ff" d="M98,-21.57C113.57,-18.16 131.52,-14.66 148,-12.48 259.97,2.32 289.19,1.08 402,-4.48 409.87,-4.87 418.15,-5.47 426.29,-6.16"/>
<polygon fill="#63b8ff" stroke="#63b8ff" points="425.86,-9.64 436.14,-7.07 426.5,-2.67 425.86,-9.64"/>
</g>
<!-- Node7 -->
<g id="node7" class="node">
<title>Node7</title>
<g id="a_node7"><a xlink:href="../../df/d6e/classdoris_1_1_c_group_util.html#a02a5cdf30c99bc487df753055938a26f" target="_top" xlink:title=" ">
<polygon fill="white" stroke="#666666" points="249,-77.98 151,-77.98 151,-58.98 249,-58.98 249,-77.98"/>
<text text-anchor="middle" x="200" y="-65.98" font-family="Helvetica,sans-Serif" font-size="10.00">find_global_cgroup</text>
</a>
</g>
</g>
<!-- Node1&#45;&gt;Node7 -->
<g id="edge7" class="edge">
<title>Node1&#45;&gt;Node7</title>
<path fill="none" stroke="#63b8ff" d="M95.05,-41.4C111.85,-45.77 131.8,-50.97 149.71,-55.64"/>
<polygon fill="#63b8ff" stroke="#63b8ff" points="148.82,-59.02 159.38,-58.16 150.58,-52.25 148.82,-59.02"/>
</g>
<!-- Node3 -->
<g id="node3" class="node">
<title>Node3</title>
<g id="a_node3"><a xlink:href="../../d6/d94/namespacedoris.html#a5763443f105dd1cb7c9fd38c32afec23" target="_top" xlink:title=" ">
<polygon fill="white" stroke="#666666" points="402,-77.98 288,-77.98 288,-58.98 402,-58.98 402,-77.98"/>
<text text-anchor="middle" x="345" y="-65.98" font-family="Helvetica,sans-Serif" font-size="10.00">doris::get_str_err_msg</text>
</a>
</g>
</g>
<!-- Node2&#45;&gt;Node3 -->
<g id="edge2" class="edge">
<title>Node2&#45;&gt;Node3</title>
<path fill="none" stroke="#63b8ff" d="M239.32,-41.4C256.31,-45.79 276.52,-51.02 294.62,-55.7"/>
<polygon fill="#63b8ff" stroke="#63b8ff" points="293.55,-59.04 304.11,-58.16 295.3,-52.26 293.55,-59.04"/>
</g>
<!-- Node2&#45;&gt;Node4 -->
<g id="edge3" class="edge">
<title>Node2&#45;&gt;Node4</title>
<path fill="none" stroke="#63b8ff" d="M237.97,-21.57C253.32,-17.93 271.4,-14.27 288,-12.48 334.31,-7.48 387.17,-7.86 426.16,-9.27"/>
<polygon fill="#63b8ff" stroke="#63b8ff" points="425.9,-12.76 436.03,-9.67 426.18,-5.77 425.9,-12.76"/>
</g>
<!-- Node6 -->
<g id="node6" class="node">
<title>Node6</title>
<g id="a_node6"><a xlink:href="../../d6/d94/namespacedoris.html#a49a91cf4919695973b8bf4bf46c4e757" target="_top" xlink:title=" ">
<polygon fill="white" stroke="#666666" points="400,-40.98 290,-40.98 290,-21.98 400,-21.98 400,-40.98"/>
<text text-anchor="middle" x="345" y="-28.98" font-family="Helvetica,sans-Serif" font-size="10.00">doris::unescape_path</text>
</a>
</g>
</g>
<!-- Node2&#45;&gt;Node6 -->
<g id="edge5" class="edge">
<title>Node2&#45;&gt;Node6</title>
<path fill="none" stroke="#63b8ff" d="M252.22,-31.48C260.69,-31.48 269.58,-31.48 278.34,-31.48"/>
<polygon fill="#63b8ff" stroke="#63b8ff" points="278.24,-34.98 288.24,-31.48 278.24,-27.98 278.24,-34.98"/>
</g>
<!-- Node5 -->
<g id="node5" class="node">
<title>Node5</title>
<g id="a_node5"><a xlink:href="../../d9/d8d/classdoris_1_1_status.html#aafde58df1b2a6a91d5b674373be3ffc5" target="_top" xlink:title=" ">
<polygon fill="white" stroke="#666666" points="673,-21.98 566,-21.98 566,-2.98 673,-2.98 673,-21.98"/>
<text text-anchor="middle" x="619.5" y="-9.98" font-family="Helvetica,sans-Serif" font-size="10.00">doris::Status::Status</text>
</a>
</g>
</g>
<!-- Node4&#45;&gt;Node5 -->
<g id="edge4" class="edge">
<title>Node4&#45;&gt;Node5</title>
<path fill="none" stroke="#63b8ff" d="M530.2,-12.48C537.91,-12.48 546.05,-12.48 554.15,-12.48"/>
<polygon fill="#63b8ff" stroke="#63b8ff" points="554,-15.98 564,-12.48 554,-8.98 554,-15.98"/>
</g>
<!-- Node6&#45;&gt;Node4 -->
<g id="edge6" class="edge">
<title>Node6&#45;&gt;Node4</title>
<path fill="none" stroke="#63b8ff" d="M400.15,-23.97C408.78,-22.77 417.73,-21.53 426.42,-20.33"/>
<polygon fill="#63b8ff" stroke="#63b8ff" points="426.71,-23.82 436.14,-18.98 425.75,-16.89 426.71,-23.82"/>
</g>
<!-- Node7&#45;&gt;Node3 -->
<g id="edge8" class="edge">
<title>Node7&#45;&gt;Node3</title>
<path fill="none" stroke="#63b8ff" d="M249.41,-68.48C258.07,-68.48 267.24,-68.48 276.32,-68.48"/>
<polygon fill="#63b8ff" stroke="#63b8ff" points="276.23,-71.98 286.23,-68.48 276.23,-64.98 276.23,-71.98"/>
</g>
<!-- Node7&#45;&gt;Node4 -->
<g id="edge9" class="edge">
<title>Node7&#45;&gt;Node4</title>
<path fill="none" stroke="#63b8ff" d="M227.44,-78.38C266.91,-91.54 342.93,-110.63 402,-87.48 430.61,-76.27 455.15,-49.69 469.5,-31.38"/>
<polygon fill="#63b8ff" stroke="#63b8ff" points="472.27,-33.52 475.48,-23.43 466.67,-29.32 472.27,-33.52"/>
</g>
</g>
</svg>
        <g id="navigator" transform="translate(0 0)" fill="#404254">
                <rect fill="#f2f5e9" fill-opacity="0.5" stroke="#606060" stroke-width=".5" x="0" y="0" width="60" height="60"/>
                <use id="zoomplus" xlink:href="#zoomPlus" x="17" y="9" onmousedown="handleZoom(evt,'in')"/>
                <use id="zoomminus" xlink:href="#zoomMin" x="42" y="9" onmousedown="handleZoom(evt,'out')"/>
                <use id="reset" xlink:href="#resetDef" x="30" y="36" onmousedown="handleReset()"/>
                <g id="arrowUp" xlink:href="#dirArrow" transform="translate(30 24)" onmousedown="handlePan(0,-1)">
                  <use xlink:href="#rim" fill="#404040">
                        <set attributeName="fill" to="#808080" begin="arrowUp.mouseover" end="arrowUp.mouseout"/>
                  </use>
                  <path fill="none" stroke="white" stroke-width="1.5" d="M0,-3.0v7 M-2.5,-0.5L0,-3.0L2.5,-0.5"/>
                </g>
                <g id="arrowRight" xlink:href="#dirArrow" transform="rotate(90) translate(36 -43)" onmousedown="handlePan(1,0)">
                  <use xlink:href="#rim" fill="#404040">
                        <set attributeName="fill" to="#808080" begin="arrowRight.mouseover" end="arrowRight.mouseout"/>
                  </use>
                  <path fill="none" stroke="white" stroke-width="1.5" d="M0,-3.0v7 M-2.5,-0.5L0,-3.0L2.5,-0.5"/>
                </g>
                <g id="arrowDown" xlink:href="#dirArrow" transform="rotate(180) translate(-30 -48)" onmousedown="handlePan(0,1)">
                  <use xlink:href="#rim" fill="#404040">
                        <set attributeName="fill" to="#808080" begin="arrowDown.mouseover" end="arrowDown.mouseout"/>
                  </use>
                  <path fill="none" stroke="white" stroke-width="1.5" d="M0,-3.0v7 M-2.5,-0.5L0,-3.0L2.5,-0.5"/>
                </g>
                <g id="arrowLeft" xlink:href="#dirArrow" transform="rotate(270) translate(-36 17)" onmousedown="handlePan(-1,0)">
                  <use xlink:href="#rim" fill="#404040">
                        <set attributeName="fill" to="#808080" begin="arrowLeft.mouseover" end="arrowLeft.mouseout"/>
                  </use>
                  <path fill="none" stroke="white" stroke-width="1.5" d="M0,-3.0v7 M-2.5,-0.5L0,-3.0L2.5,-0.5"/>
                </g>
        </g>
        <svg viewBox="0 0 15 15" width="100%" height="30px" preserveAspectRatio="xMaxYMin meet">
         <g id="arrow_out" transform="scale(0.3 0.3)">
          <a xlink:href="classdoris_1_1_c_group_util_a2ce0a23437914a4fb4ca72924276b3f1_cgraph_org.svg" target="_base">
           <rect id="button" ry="5" rx="5" y="6" x="6" height="38" width="38"
                fill="#f2f5e9" fill-opacity="0.5" stroke="#606060" stroke-width="1.0"/>
           <path id="arrow"
             d="M 11.500037,31.436501 C 11.940474,20.09759 22.043105,11.32322 32.158766,21.979434 L 37.068811,17.246167 C 37.068811,17.246167 37.088388,32 37.088388,32 L 22.160133,31.978069 C 22.160133,31.978069 26.997745,27.140456 26.997745,27.140456 C 18.528582,18.264221 13.291696,25.230495 11.500037,31.436501 z"
             style="fill:#404040;"/>
          </a>
         </g>
        </svg>
</svg>
