<?xml version="1.0" encoding="UTF-8" standalone="no"?>
<!DOCTYPE svg PUBLIC "-//W3C//DTD SVG 1.1//EN"
 "http://www.w3.org/Graphics/SVG/1.1/DTD/svg11.dtd">
<!-- Generated by graphviz version 7.1.0 (20230121.1956)
 -->
<!-- Title: _init Pages: 1 -->
<svg width="303pt" height="45pt"
 viewBox="0.00 0.00 303.00 45.00" xmlns="http://www.w3.org/2000/svg" xmlns:xlink="http://www.w3.org/1999/xlink">
<g id="graph0" class="graph" transform="scale(1 1) rotate(0) translate(4 41)">
<title>_init</title>
<!-- Node1 -->
<g id="node1" class="node">
<title>Node1</title>
<g id="a_node1"><a xlink:title=" ">
<polygon fill="#999999" stroke="#666666" points="35,-19 0,-19 0,0 35,0 35,-19"/>
<text text-anchor="middle" x="17.5" y="-7" font-family="Helvetica,sans-Serif" font-size="10.00">_init</text>
</a>
</g>
</g>
<!-- Node2 -->
<g id="node2" class="node">
<title>Node2</title>
<g id="a_node2"><a xlink:href="../../dc/de2/structdoris_1_1_rowset_id.html#a42c751f63da5230a4a24877863c3efd8" target="_top" xlink:title=" ">
<polygon fill="white" stroke="#666666" points="175,-19 71,-19 71,0 175,0 175,-19"/>
<text text-anchor="middle" x="123" y="-7" font-family="Helvetica,sans-Serif" font-size="10.00">doris::RowsetId::init</text>
</a>
</g>
</g>
<!-- Node1&#45;&gt;Node2 -->
<g id="edge1" class="edge">
<title>Node1&#45;&gt;Node2</title>
<path fill="none" stroke="#63b8ff" d="M35.13,-9.5C41.96,-9.5 50.34,-9.5 59.16,-9.5"/>
<polygon fill="#63b8ff" stroke="#63b8ff" points="58.99,-13 68.99,-9.5 58.99,-6 58.99,-13"/>
</g>
<!-- Node2&#45;&gt;Node2 -->
<g id="edge3" class="edge">
<title>Node2&#45;&gt;Node2</title>
<path fill="none" stroke="#63b8ff" d="M106.48,-19.37C98.95,-27.94 104.46,-37 123,-37 133.14,-37 139.38,-34.29 141.73,-30.43"/>
<polygon fill="#63b8ff" stroke="#63b8ff" points="145.2,-29.97 139.81,-20.85 138.34,-31.34 145.2,-29.97"/>
</g>
<!-- Node3 -->
<g id="node3" class="node">
<title>Node3</title>
<g id="a_node3"><a xlink:href="../../d6/d94/namespacedoris.html#a31432338247487fcccd639db8328c217" target="_top" xlink:title=" ">
<polygon fill="white" stroke="#666666" points="295,-19 211,-19 211,0 295,0 295,-19"/>
<text text-anchor="middle" x="253" y="-7" font-family="Helvetica,sans-Serif" font-size="10.00">doris::from_hex</text>
</a>
</g>
</g>
<!-- Node2&#45;&gt;Node3 -->
<g id="edge2" class="edge">
<title>Node2&#45;&gt;Node3</title>
<path fill="none" stroke="#63b8ff" d="M175.32,-9.5C183.27,-9.5 191.48,-9.5 199.46,-9.5"/>
<polygon fill="#63b8ff" stroke="#63b8ff" points="199.38,-13 209.38,-9.5 199.38,-6 199.38,-13"/>
</g>
</g>
</svg>
