<?xml version="1.0" encoding="UTF-8" standalone="no"?>
<!DOCTYPE svg PUBLIC "-//W3C//DTD SVG 1.1//EN"
 "http://www.w3.org/Graphics/SVG/1.1/DTD/svg11.dtd">
<!-- Generated by graphviz version 7.1.0 (20230121.1956)
 -->
<!-- Title: decode_frame_min_value Pages: 1 -->
<svg width="527pt" height="101pt"
 viewBox="0.00 0.00 527.00 101.00" xmlns="http://www.w3.org/2000/svg" xmlns:xlink="http://www.w3.org/1999/xlink">
<g id="graph0" class="graph" transform="scale(1 1) rotate(0) translate(4 97)">
<title>decode_frame_min_value</title>
<!-- Node1 -->
<g id="node1" class="node">
<title>Node1</title>
<g id="a_node1"><a xlink:title=" ">
<polygon fill="#999999" stroke="#666666" points="128,-56 0,-56 0,-37 128,-37 128,-56"/>
<text text-anchor="middle" x="64" y="-44" font-family="Helvetica,sans-Serif" font-size="10.00">decode_frame_min_value</text>
</a>
</g>
</g>
<!-- Node2 -->
<g id="node2" class="node">
<title>Node2</title>
<g id="a_node2"><a xlink:href="../../d6/d94/namespacedoris.html#a067fafeb8771dad890d0620f8e4a13e1" target="_top" xlink:title=" ">
<polygon fill="white" stroke="#666666" points="294,-93 164,-93 164,-74 294,-74 294,-93"/>
<text text-anchor="middle" x="229" y="-81" font-family="Helvetica,sans-Serif" font-size="10.00">doris::decode_fixed128_le</text>
</a>
</g>
</g>
<!-- Node1&#45;&gt;Node2 -->
<g id="edge1" class="edge">
<title>Node1&#45;&gt;Node2</title>
<path fill="none" stroke="#63b8ff" d="M108.68,-56.42C128.51,-60.92 152.16,-66.29 173.17,-71.05"/>
<polygon fill="#63b8ff" stroke="#63b8ff" points="172.2,-74.42 182.72,-73.22 173.75,-67.6 172.2,-74.42"/>
</g>
<!-- Node6 -->
<g id="node6" class="node">
<title>Node6</title>
<g id="a_node6"><a xlink:href="../../d6/d94/namespacedoris.html#a927ce65d9f547abdfc0ac9f473bee2ce" target="_top" xlink:title=" ">
<polygon fill="white" stroke="#666666" points="291.5,-56 166.5,-56 166.5,-37 291.5,-37 291.5,-56"/>
<text text-anchor="middle" x="229" y="-44" font-family="Helvetica,sans-Serif" font-size="10.00">doris::decode_fixed32_le</text>
</a>
</g>
</g>
<!-- Node1&#45;&gt;Node6 -->
<g id="edge5" class="edge">
<title>Node1&#45;&gt;Node6</title>
<path fill="none" stroke="#63b8ff" d="M128.49,-46.5C137.06,-46.5 145.92,-46.5 154.65,-46.5"/>
<polygon fill="#63b8ff" stroke="#63b8ff" points="154.51,-50 164.51,-46.5 154.51,-43 154.51,-50"/>
</g>
<!-- Node7 -->
<g id="node7" class="node">
<title>Node7</title>
<g id="a_node7"><a xlink:href="../../d6/d94/namespacedoris.html#a6d56c5d0850f744b4c90f916cd48ad05" target="_top" xlink:title=" ">
<polygon fill="white" stroke="#666666" points="291.5,-19 166.5,-19 166.5,0 291.5,0 291.5,-19"/>
<text text-anchor="middle" x="229" y="-7" font-family="Helvetica,sans-Serif" font-size="10.00">doris::decode_fixed64_le</text>
</a>
</g>
</g>
<!-- Node1&#45;&gt;Node7 -->
<g id="edge7" class="edge">
<title>Node1&#45;&gt;Node7</title>
<path fill="none" stroke="#63b8ff" d="M108.68,-36.58C128.51,-32.08 152.16,-26.71 173.17,-21.95"/>
<polygon fill="#63b8ff" stroke="#63b8ff" points="173.75,-25.4 182.72,-19.78 172.2,-18.58 173.75,-25.4"/>
</g>
<!-- Node3 -->
<g id="node3" class="node">
<title>Node3</title>
<g id="a_node3"><a xlink:href="../../d1/d84/endian_8h.html#ab418648a003823c5293d180e32e95455" target="_top" xlink:title=" ">
<polygon fill="white" stroke="#666666" points="401,-93 330,-93 330,-74 401,-74 401,-93"/>
<text text-anchor="middle" x="365.5" y="-81" font-family="Helvetica,sans-Serif" font-size="10.00">gbswap_128</text>
</a>
</g>
</g>
<!-- Node2&#45;&gt;Node3 -->
<g id="edge2" class="edge">
<title>Node2&#45;&gt;Node3</title>
<path fill="none" stroke="#63b8ff" d="M294.49,-83.5C302.55,-83.5 310.66,-83.5 318.36,-83.5"/>
<polygon fill="#63b8ff" stroke="#63b8ff" points="318.16,-87 328.16,-83.5 318.16,-80 318.16,-87"/>
</g>
<!-- Node4 -->
<g id="node4" class="node">
<title>Node4</title>
<g id="a_node4"><a xlink:href="../../d9/d1e/memcpy__aarch64_8cpp.html#a156c5821f16ed93be8c7d315303f7b2a" target="_top" xlink:title=" ">
<polygon fill="white" stroke="#666666" points="392.5,-56 338.5,-56 338.5,-37 392.5,-37 392.5,-56"/>
<text text-anchor="middle" x="365.5" y="-44" font-family="Helvetica,sans-Serif" font-size="10.00">memcpy</text>
</a>
</g>
</g>
<!-- Node2&#45;&gt;Node4 -->
<g id="edge3" class="edge">
<title>Node2&#45;&gt;Node4</title>
<path fill="none" stroke="#63b8ff" d="M266.04,-73.58C284.95,-68.38 308.08,-62.02 327.17,-56.77"/>
<polygon fill="#63b8ff" stroke="#63b8ff" points="328,-60.17 336.71,-54.14 326.14,-53.42 328,-60.17"/>
</g>
<!-- Node5 -->
<g id="node5" class="node">
<title>Node5</title>
<g id="a_node5"><a xlink:href="../../d9/d1e/memcpy__aarch64_8cpp.html#a11ebdd343428c466f2f35c376d7db6d0" target="_top" xlink:title=" ">
<polygon fill="white" stroke="#666666" points="519,-56 437,-56 437,-37 519,-37 519,-56"/>
<text text-anchor="middle" x="478" y="-44" font-family="Helvetica,sans-Serif" font-size="10.00">inline_memcpy</text>
</a>
</g>
</g>
<!-- Node4&#45;&gt;Node5 -->
<g id="edge4" class="edge">
<title>Node4&#45;&gt;Node5</title>
<path fill="none" stroke="#63b8ff" d="M392.97,-46.5C402.83,-46.5 414.4,-46.5 425.73,-46.5"/>
<polygon fill="#63b8ff" stroke="#63b8ff" points="425.41,-50 435.41,-46.5 425.41,-43 425.41,-50"/>
</g>
<!-- Node6&#45;&gt;Node4 -->
<g id="edge6" class="edge">
<title>Node6&#45;&gt;Node4</title>
<path fill="none" stroke="#63b8ff" d="M291.74,-46.5C303.71,-46.5 315.91,-46.5 326.82,-46.5"/>
<polygon fill="#63b8ff" stroke="#63b8ff" points="326.56,-50 336.56,-46.5 326.56,-43 326.56,-50"/>
</g>
<!-- Node7&#45;&gt;Node4 -->
<g id="edge9" class="edge">
<title>Node7&#45;&gt;Node4</title>
<path fill="none" stroke="#63b8ff" d="M266.04,-19.42C284.95,-24.62 308.08,-30.98 327.17,-36.23"/>
<polygon fill="#63b8ff" stroke="#63b8ff" points="326.14,-39.58 336.71,-38.86 328,-32.83 326.14,-39.58"/>
</g>
<!-- Node8 -->
<g id="node8" class="node">
<title>Node8</title>
<g id="a_node8"><a xlink:href="../../d1/d84/endian_8h.html#a86e0473276a5855fbe6317beef9089f7" target="_top" xlink:title=" ">
<polygon fill="white" stroke="#666666" points="398.5,-19 332.5,-19 332.5,0 398.5,0 398.5,-19"/>
<text text-anchor="middle" x="365.5" y="-7" font-family="Helvetica,sans-Serif" font-size="10.00">gbswap_64</text>
</a>
</g>
</g>
<!-- Node7&#45;&gt;Node8 -->
<g id="edge8" class="edge">
<title>Node7&#45;&gt;Node8</title>
<path fill="none" stroke="#63b8ff" d="M291.74,-9.5C301.55,-9.5 311.51,-9.5 320.79,-9.5"/>
<polygon fill="#63b8ff" stroke="#63b8ff" points="320.61,-13 330.61,-9.5 320.61,-6 320.61,-13"/>
</g>
</g>
</svg>
