<?xml version="1.0" encoding="UTF-8" standalone="no"?>
<!DOCTYPE svg PUBLIC "-//W3C//DTD SVG 1.1//EN"
 "http://www.w3.org/Graphics/SVG/1.1/DTD/svg11.dtd">
<!-- Generated by graphviz version 7.1.0 (20230121.1956)
 -->
<!-- Title: is_string_or_fixed_string Pages: 1 -->
<svg width="1090pt" height="504pt"
 viewBox="0.00 0.00 1090.00 503.50" xmlns="http://www.w3.org/2000/svg" xmlns:xlink="http://www.w3.org/1999/xlink">
<g id="graph0" class="graph" transform="scale(1 1) rotate(0) translate(4 499.5)">
<title>is_string_or_fixed_string</title>
<!-- Node1 -->
<g id="node1" class="node">
<title>Node1</title>
<g id="a_node1"><a xlink:title=" ">
<polygon fill="#999999" stroke="#666666" points="1082,-280 989,-280 989,-250 1082,-250 1082,-280"/>
<text text-anchor="start" x="997" y="-268" font-family="Helvetica,sans-Serif" font-size="10.00">is_string_or_fixed</text>
<text text-anchor="middle" x="1035.5" y="-257" font-family="Helvetica,sans-Serif" font-size="10.00">_string</text>
</a>
</g>
</g>
<!-- Node2 -->
<g id="node2" class="node">
<title>Node2</title>
<g id="a_node2"><a xlink:href="../../d3/d1e/namespacedoris_1_1vectorized.html#a72fd1b535df70a83b233bb78ac87bbb6" target="_top" xlink:title=" ">
<polygon fill="white" stroke="#666666" points="941,-495.5 810,-495.5 810,-454.5 941,-454.5 941,-495.5"/>
<text text-anchor="start" x="818" y="-483.5" font-family="Helvetica,sans-Serif" font-size="10.00">doris::vectorized::</text>
<text text-anchor="start" x="818" y="-472.5" font-family="Helvetica,sans-Serif" font-size="10.00">create_aggregate_function</text>
<text text-anchor="middle" x="875.5" y="-461.5" font-family="Helvetica,sans-Serif" font-size="10.00">_orthogonal</text>
</a>
</g>
</g>
<!-- Node1&#45;&gt;Node2 -->
<g id="edge1" class="edge">
<title>Node1&#45;&gt;Node2</title>
<path fill="none" stroke="#63b8ff" d="M1029.18,-291.38C1020.09,-330.08 997.98,-402.27 953,-445 949.38,-448.44 945.32,-451.5 941.01,-454.22"/>
<polygon fill="#63b8ff" stroke="#63b8ff" points="1032.57,-292.29 1031.32,-281.77 1025.73,-290.77 1032.57,-292.29"/>
</g>
<!-- Node3 -->
<g id="node3" class="node">
<title>Node3</title>
<g id="a_node3"><a xlink:href="../../d3/d1e/namespacedoris_1_1vectorized.html#a8cb2d8ac5135ff834a1d306b74492410" target="_top" xlink:title=" ">
<polygon fill="white" stroke="#666666" points="953,-436 798,-436 798,-406 953,-406 953,-436"/>
<text text-anchor="start" x="806" y="-424" font-family="Helvetica,sans-Serif" font-size="10.00">doris::vectorized::</text>
<text text-anchor="middle" x="875.5" y="-413" font-family="Helvetica,sans-Serif" font-size="10.00">create_aggregate_function_uniq</text>
</a>
</g>
</g>
<!-- Node1&#45;&gt;Node3 -->
<g id="edge2" class="edge">
<title>Node1&#45;&gt;Node3</title>
<path fill="none" stroke="#63b8ff" d="M1025.19,-290.5C1013.05,-320.28 989.01,-369 953,-397 948.71,-400.33 943.96,-403.21 938.98,-405.68"/>
<polygon fill="#63b8ff" stroke="#63b8ff" points="1028.32,-292.1 1028.71,-281.51 1021.8,-289.55 1028.32,-292.1"/>
</g>
<!-- Node4 -->
<g id="node4" class="node">
<title>Node4</title>
<g id="a_node4"><a xlink:href="../../d1/d1a/classdoris_1_1vectorized_1_1_function_cast.html#ae6599dc88b1e13c8efc68c6919e77f8e" target="_top" xlink:title=" ">
<polygon fill="white" stroke="#666666" points="929.5,-387.5 821.5,-387.5 821.5,-346.5 929.5,-346.5 929.5,-387.5"/>
<text text-anchor="start" x="829.5" y="-375.5" font-family="Helvetica,sans-Serif" font-size="10.00">doris::vectorized::</text>
<text text-anchor="start" x="829.5" y="-364.5" font-family="Helvetica,sans-Serif" font-size="10.00">FunctionCast::create</text>
<text text-anchor="middle" x="875.5" y="-353.5" font-family="Helvetica,sans-Serif" font-size="10.00">_decimal_wrapper</text>
</a>
</g>
</g>
<!-- Node1&#45;&gt;Node4 -->
<g id="edge3" class="edge">
<title>Node1&#45;&gt;Node4</title>
<path fill="none" stroke="#63b8ff" d="M1012.53,-288.29C997.03,-303.69 975.15,-323.46 953,-337 945.82,-341.39 937.88,-345.35 929.92,-348.84"/>
<polygon fill="#63b8ff" stroke="#63b8ff" points="1014.86,-290.91 1019.38,-281.33 1009.87,-286 1014.86,-290.91"/>
</g>
<!-- Node12 -->
<g id="node12" class="node">
<title>Node12</title>
<g id="a_node12"><a xlink:href="../../d3/d1e/namespacedoris_1_1vectorized.html#ae47a6540aad5494eba8a7f39dc800cad" target="_top" xlink:title=" ">
<polygon fill="white" stroke="#666666" points="923,-328 828,-328 828,-298 923,-298 923,-328"/>
<text text-anchor="start" x="836" y="-316" font-family="Helvetica,sans-Serif" font-size="10.00">doris::vectorized::</text>
<text text-anchor="middle" x="875.5" y="-305" font-family="Helvetica,sans-Serif" font-size="10.00">create_topn_array</text>
</a>
</g>
</g>
<!-- Node1&#45;&gt;Node12 -->
<g id="edge13" class="edge">
<title>Node1&#45;&gt;Node12</title>
<path fill="none" stroke="#63b8ff" d="M977.94,-282.18C960.09,-287.61 940.57,-293.53 923.47,-298.73"/>
<polygon fill="#63b8ff" stroke="#63b8ff" points="978.8,-285.58 987.35,-279.32 976.77,-278.88 978.8,-285.58"/>
</g>
<!-- Node13 -->
<g id="node13" class="node">
<title>Node13</title>
<g id="a_node13"><a xlink:href="../../d4/d28/structdoris_1_1vectorized_1_1_function_field_impl.html#aa48702a7ef4792efae32d08010978b4d" target="_top" xlink:title=" ">
<polygon fill="white" stroke="#666666" points="942.5,-280 808.5,-280 808.5,-250 942.5,-250 942.5,-280"/>
<text text-anchor="start" x="816.5" y="-268" font-family="Helvetica,sans-Serif" font-size="10.00">doris::vectorized::</text>
<text text-anchor="middle" x="875.5" y="-257" font-family="Helvetica,sans-Serif" font-size="10.00">FunctionFieldImpl::execute</text>
</a>
</g>
</g>
<!-- Node1&#45;&gt;Node13 -->
<g id="edge14" class="edge">
<title>Node1&#45;&gt;Node13</title>
<path fill="none" stroke="#63b8ff" d="M977.42,-265C966.24,-265 954.42,-265 942.96,-265"/>
<polygon fill="#63b8ff" stroke="#63b8ff" points="977.29,-268.5 987.29,-265 977.29,-261.5 977.29,-268.5"/>
</g>
<!-- Node14 -->
<g id="node14" class="node">
<title>Node14</title>
<g id="a_node14"><a xlink:href="../../da/d75/classdoris_1_1vectorized_1_1_function_always_not_nullable.html#addc3120590db01e8bbf9fe9e23f79594" target="_top" xlink:title="TODO: make const">
<polygon fill="white" stroke="#666666" points="944,-231.5 807,-231.5 807,-190.5 944,-190.5 944,-231.5"/>
<text text-anchor="start" x="815" y="-219.5" font-family="Helvetica,sans-Serif" font-size="10.00">doris::vectorized::</text>
<text text-anchor="start" x="815" y="-208.5" font-family="Helvetica,sans-Serif" font-size="10.00">FunctionAlwaysNotNullable</text>
<text text-anchor="middle" x="875.5" y="-197.5" font-family="Helvetica,sans-Serif" font-size="10.00">::execute_impl</text>
</a>
</g>
</g>
<!-- Node1&#45;&gt;Node14 -->
<g id="edge15" class="edge">
<title>Node1&#45;&gt;Node14</title>
<path fill="none" stroke="#63b8ff" d="M978.4,-245.83C965.21,-241.32 951.09,-236.49 937.69,-231.91"/>
<polygon fill="#63b8ff" stroke="#63b8ff" points="977.2,-249.11 987.79,-249.04 979.46,-242.49 977.2,-249.11"/>
</g>
<!-- Node15 -->
<g id="node15" class="node">
<title>Node15</title>
<g id="a_node15"><a xlink:href="../../db/dd9/classdoris_1_1vectorized_1_1_function_to_quantile_state.html#addc3120590db01e8bbf9fe9e23f79594" target="_top" xlink:title="TODO: make const">
<polygon fill="white" stroke="#666666" points="937.5,-172.5 813.5,-172.5 813.5,-131.5 937.5,-131.5 937.5,-172.5"/>
<text text-anchor="start" x="821.5" y="-160.5" font-family="Helvetica,sans-Serif" font-size="10.00">doris::vectorized::</text>
<text text-anchor="start" x="821.5" y="-149.5" font-family="Helvetica,sans-Serif" font-size="10.00">FunctionToQuantileState</text>
<text text-anchor="middle" x="875.5" y="-138.5" font-family="Helvetica,sans-Serif" font-size="10.00">::execute_impl</text>
</a>
</g>
</g>
<!-- Node1&#45;&gt;Node15 -->
<g id="edge16" class="edge">
<title>Node1&#45;&gt;Node15</title>
<path fill="none" stroke="#63b8ff" d="M1015.52,-240.74C1000.26,-222.55 977.39,-198.12 953,-182 948,-178.7 942.58,-175.67 937.02,-172.92"/>
<polygon fill="#63b8ff" stroke="#63b8ff" points="1012.78,-242.91 1021.82,-248.43 1018.2,-238.48 1012.78,-242.91"/>
</g>
<!-- Node16 -->
<g id="node16" class="node">
<title>Node16</title>
<g id="a_node16"><a xlink:href="../../d3/d1e/namespacedoris_1_1vectorized.html#a24a8aa4a7420affd5e27a9d764a39590" target="_top" xlink:title=" ">
<polygon fill="white" stroke="#666666" points="936.5,-113 814.5,-113 814.5,-83 936.5,-83 936.5,-113"/>
<text text-anchor="start" x="822.5" y="-101" font-family="Helvetica,sans-Serif" font-size="10.00">doris::vectorized::</text>
<text text-anchor="middle" x="875.5" y="-90" font-family="Helvetica,sans-Serif" font-size="10.00">is_string_or_fixed_string</text>
</a>
</g>
</g>
<!-- Node1&#45;&gt;Node16 -->
<g id="edge17" class="edge">
<title>Node1&#45;&gt;Node16</title>
<path fill="none" stroke="#63b8ff" d="M1026.16,-239.07C1014.65,-207.28 990.91,-153.83 953,-123 948.12,-119.03 942.6,-115.69 936.8,-112.87"/>
<polygon fill="#63b8ff" stroke="#63b8ff" points="1022.78,-239.99 1029.36,-248.29 1029.39,-237.7 1022.78,-239.99"/>
</g>
<!-- Node21 -->
<g id="node21" class="node">
<title>Node21</title>
<g id="a_node21"><a xlink:href="../../de/d17/classdoris_1_1vectorized_1_1_data_type_array.html#a9e9a3d96407896317275c46fa2fb41ae" target="_top" xlink:title=" ">
<polygon fill="white" stroke="#666666" points="938,-65 813,-65 813,-35 938,-35 938,-65"/>
<text text-anchor="start" x="821" y="-53" font-family="Helvetica,sans-Serif" font-size="10.00">doris::vectorized::</text>
<text text-anchor="middle" x="875.5" y="-42" font-family="Helvetica,sans-Serif" font-size="10.00">DataTypeArray::to_string</text>
</a>
</g>
</g>
<!-- Node1&#45;&gt;Node21 -->
<g id="edge22" class="edge">
<title>Node1&#45;&gt;Node21</title>
<path fill="none" stroke="#63b8ff" d="M1030.39,-238.37C1022.64,-197.25 1002.03,-118.39 953,-74 948.67,-70.08 943.7,-66.79 938.41,-64.05"/>
<polygon fill="#63b8ff" stroke="#63b8ff" points="1026.92,-238.88 1032.1,-248.12 1033.82,-237.67 1026.92,-238.88"/>
</g>
<!-- Node5 -->
<g id="node5" class="node">
<title>Node5</title>
<g id="a_node5"><a xlink:href="../../d1/d1a/classdoris_1_1vectorized_1_1_function_cast.html#ab575d330a437aeff6d56629c513fc8e8" target="_top" xlink:title=" ">
<polygon fill="white" stroke="#666666" points="755.5,-382 618.5,-382 618.5,-352 755.5,-352 755.5,-382"/>
<text text-anchor="start" x="626.5" y="-370" font-family="Helvetica,sans-Serif" font-size="10.00">doris::vectorized::</text>
<text text-anchor="middle" x="687" y="-359" font-family="Helvetica,sans-Serif" font-size="10.00">FunctionCast::prepare_impl</text>
</a>
</g>
</g>
<!-- Node4&#45;&gt;Node5 -->
<g id="edge4" class="edge">
<title>Node4&#45;&gt;Node5</title>
<path fill="none" stroke="#63b8ff" d="M809.82,-367C792.35,-367 773.4,-367 755.76,-367"/>
<polygon fill="#63b8ff" stroke="#63b8ff" points="809.54,-370.5 819.54,-367 809.54,-363.5 809.54,-370.5"/>
</g>
<!-- Node6 -->
<g id="node6" class="node">
<title>Node6</title>
<g id="a_node6"><a xlink:href="../../d1/d1a/classdoris_1_1vectorized_1_1_function_cast.html#a2cf40ff8750205832d9ee83e748d136e" target="_top" xlink:title=" ">
<polygon fill="white" stroke="#666666" points="576,-387.5 463,-387.5 463,-346.5 576,-346.5 576,-387.5"/>
<text text-anchor="start" x="471" y="-375.5" font-family="Helvetica,sans-Serif" font-size="10.00">doris::vectorized::</text>
<text text-anchor="start" x="471" y="-364.5" font-family="Helvetica,sans-Serif" font-size="10.00">FunctionCast::prepare</text>
<text text-anchor="middle" x="519.5" y="-353.5" font-family="Helvetica,sans-Serif" font-size="10.00">_remove_nullable</text>
</a>
</g>
</g>
<!-- Node5&#45;&gt;Node6 -->
<g id="edge5" class="edge">
<title>Node5&#45;&gt;Node6</title>
<path fill="none" stroke="#63b8ff" d="M607.02,-367C596.65,-367 586.2,-367 576.33,-367"/>
<polygon fill="#63b8ff" stroke="#63b8ff" points="606.69,-370.5 616.69,-367 606.69,-363.5 606.69,-370.5"/>
</g>
<!-- Node7 -->
<g id="node7" class="node">
<title>Node7</title>
<g id="a_node7"><a xlink:href="../../d1/d1a/classdoris_1_1vectorized_1_1_function_cast.html#a6d1f7d24e39e3551057334c4434e3eaf" target="_top" xlink:title=" ">
<polygon fill="white" stroke="#666666" points="427,-387.5 314,-387.5 314,-346.5 427,-346.5 427,-387.5"/>
<text text-anchor="start" x="322" y="-375.5" font-family="Helvetica,sans-Serif" font-size="10.00">doris::vectorized::</text>
<text text-anchor="start" x="322" y="-364.5" font-family="Helvetica,sans-Serif" font-size="10.00">FunctionCast::prepare</text>
<text text-anchor="middle" x="370.5" y="-353.5" font-family="Helvetica,sans-Serif" font-size="10.00">_unpack_dictionaries</text>
</a>
</g>
</g>
<!-- Node6&#45;&gt;Node7 -->
<g id="edge6" class="edge">
<title>Node6&#45;&gt;Node7</title>
<path fill="none" stroke="#63b8ff" d="M451.01,-367C443.09,-367 435.08,-367 427.34,-367"/>
<polygon fill="#63b8ff" stroke="#63b8ff" points="450.99,-370.5 460.99,-367 450.99,-363.5 450.99,-370.5"/>
</g>
<!-- Node8 -->
<g id="node8" class="node">
<title>Node8</title>
<g id="a_node8"><a xlink:href="../../d1/d1a/classdoris_1_1vectorized_1_1_function_cast.html#a18af675244dcbbeb16b11a4c7c1c4055" target="_top" xlink:title=" ">
<polygon fill="white" stroke="#666666" points="265,-446.5 157,-446.5 157,-405.5 265,-405.5 265,-446.5"/>
<text text-anchor="start" x="165" y="-434.5" font-family="Helvetica,sans-Serif" font-size="10.00">doris::vectorized::</text>
<text text-anchor="start" x="165" y="-423.5" font-family="Helvetica,sans-Serif" font-size="10.00">FunctionCast::create</text>
<text text-anchor="middle" x="211" y="-412.5" font-family="Helvetica,sans-Serif" font-size="10.00">_array_wrapper</text>
</a>
</g>
</g>
<!-- Node7&#45;&gt;Node8 -->
<g id="edge7" class="edge">
<title>Node7&#45;&gt;Node8</title>
<path fill="none" stroke="#63b8ff" d="M303.1,-391.87C290.53,-396.58 277.52,-401.45 265.42,-405.99"/>
<polygon fill="#63b8ff" stroke="#63b8ff" points="303.97,-395.28 312.11,-388.5 301.52,-388.73 303.97,-395.28"/>
</g>
<!-- Node9 -->
<g id="node9" class="node">
<title>Node9</title>
<g id="a_node9"><a xlink:href="../../d1/d1a/classdoris_1_1vectorized_1_1_function_cast.html#a7b9a0727f239f297e8e59d993f933369" target="_top" xlink:title=" ">
<polygon fill="white" stroke="#666666" points="278,-387.5 144,-387.5 144,-346.5 278,-346.5 278,-387.5"/>
<text text-anchor="start" x="152" y="-375.5" font-family="Helvetica,sans-Serif" font-size="10.00">doris::vectorized::</text>
<text text-anchor="start" x="152" y="-364.5" font-family="Helvetica,sans-Serif" font-size="10.00">FunctionCast::get_element</text>
<text text-anchor="middle" x="211" y="-353.5" font-family="Helvetica,sans-Serif" font-size="10.00">_wrappers</text>
</a>
</g>
</g>
<!-- Node7&#45;&gt;Node9 -->
<g id="edge9" class="edge">
<title>Node7&#45;&gt;Node9</title>
<path fill="none" stroke="#63b8ff" d="M302.11,-367C294.22,-367 286.17,-367 278.29,-367"/>
<polygon fill="#63b8ff" stroke="#63b8ff" points="302.01,-370.5 312.01,-367 302.01,-363.5 302.01,-370.5"/>
</g>
<!-- Node11 -->
<g id="node11" class="node">
<title>Node11</title>
<g id="a_node11"><a xlink:href="../../d1/d1a/classdoris_1_1vectorized_1_1_function_cast.html#a54df05f03fe6fffefb668e7084780de1" target="_top" xlink:title=" ">
<polygon fill="white" stroke="#666666" points="267.5,-328 154.5,-328 154.5,-298 267.5,-298 267.5,-328"/>
<text text-anchor="start" x="162.5" y="-316" font-family="Helvetica,sans-Serif" font-size="10.00">doris::vectorized::</text>
<text text-anchor="middle" x="211" y="-305" font-family="Helvetica,sans-Serif" font-size="10.00">FunctionCast::prepare</text>
</a>
</g>
</g>
<!-- Node7&#45;&gt;Node11 -->
<g id="edge12" class="edge">
<title>Node7&#45;&gt;Node11</title>
<path fill="none" stroke="#63b8ff" d="M302.97,-344.19C287.53,-338.9 271.44,-333.38 257.17,-328.49"/>
<polygon fill="#63b8ff" stroke="#63b8ff" points="301.5,-347.39 312.1,-347.32 303.77,-340.76 301.5,-347.39"/>
</g>
<!-- Node8&#45;&gt;Node5 -->
<g id="edge8" class="edge">
<title>Node8&#45;&gt;Node5</title>
<path fill="none" stroke="#63b8ff" d="M276.75,-424.48C349.89,-421.93 472.26,-415.11 576,-397 596.28,-393.46 618.24,-387.84 637.16,-382.42"/>
<polygon fill="#63b8ff" stroke="#63b8ff" points="276.83,-420.98 266.95,-424.81 277.06,-427.98 276.83,-420.98"/>
</g>
<!-- Node10 -->
<g id="node10" class="node">
<title>Node10</title>
<g id="a_node10"><a xlink:href="../../d1/d1a/classdoris_1_1vectorized_1_1_function_cast.html#a86ca07c7d3689fa6eb8d4d65f986482f" target="_top" xlink:title=" ">
<polygon fill="white" stroke="#666666" points="108,-338.5 0,-338.5 0,-297.5 108,-297.5 108,-338.5"/>
<text text-anchor="start" x="8" y="-326.5" font-family="Helvetica,sans-Serif" font-size="10.00">doris::vectorized::</text>
<text text-anchor="start" x="8" y="-315.5" font-family="Helvetica,sans-Serif" font-size="10.00">FunctionCast::create</text>
<text text-anchor="middle" x="54" y="-304.5" font-family="Helvetica,sans-Serif" font-size="10.00">_struct_wrapper</text>
</a>
</g>
</g>
<!-- Node9&#45;&gt;Node10 -->
<g id="edge10" class="edge">
<title>Node9&#45;&gt;Node10</title>
<path fill="none" stroke="#63b8ff" d="M132.92,-342.63C124.6,-340 116.28,-337.37 108.33,-334.86"/>
<polygon fill="#63b8ff" stroke="#63b8ff" points="131.78,-345.94 142.37,-345.62 133.89,-339.27 131.78,-345.94"/>
</g>
<!-- Node10&#45;&gt;Node5 -->
<g id="edge11" class="edge">
<title>Node10&#45;&gt;Node5</title>
<path fill="none" stroke="#63b8ff" d="M119.46,-294.39C127.63,-292.17 135.94,-290.28 144,-289 334.84,-258.69 387.03,-297.65 576,-338 594.16,-341.88 613.81,-346.82 631.41,-351.52"/>
<polygon fill="#63b8ff" stroke="#63b8ff" points="118.54,-291.01 109.91,-297.16 120.49,-297.73 118.54,-291.01"/>
</g>
<!-- Node17 -->
<g id="node17" class="node">
<title>Node17</title>
<g id="a_node17"><a xlink:href="../../db/d13/structdoris_1_1vectorized_1_1_array_join_impl.html#a321276ec1741354b42897b4a71a4a8b9" target="_top" xlink:title=" ">
<polygon fill="white" stroke="#666666" points="762,-197 612,-197 612,-167 762,-167 762,-197"/>
<text text-anchor="start" x="620" y="-185" font-family="Helvetica,sans-Serif" font-size="10.00">doris::vectorized::</text>
<text text-anchor="middle" x="687" y="-174" font-family="Helvetica,sans-Serif" font-size="10.00">ArrayJoinImpl::get_return_type</text>
</a>
</g>
</g>
<!-- Node16&#45;&gt;Node17 -->
<g id="edge18" class="edge">
<title>Node16&#45;&gt;Node17</title>
<path fill="none" stroke="#63b8ff" d="M806.75,-118.22C803.73,-119.71 800.8,-121.31 798,-123 778.9,-134.54 781.11,-146.48 762,-158 756.68,-161.21 750.88,-164.04 744.95,-166.52"/>
<polygon fill="#63b8ff" stroke="#63b8ff" points="808.17,-121.41 815.85,-114.11 805.29,-115.03 808.17,-121.41"/>
</g>
<!-- Node18 -->
<g id="node18" class="node">
<title>Node18</title>
<g id="a_node18"><a xlink:href="../../de/d34/classdoris_1_1vectorized_1_1_function_reverse_common.html#ada848f55845a18e2d7317a5f43d0aa9d" target="_top" xlink:title=" ">
<polygon fill="white" stroke="#666666" points="752.5,-148.5 621.5,-148.5 621.5,-107.5 752.5,-107.5 752.5,-148.5"/>
<text text-anchor="start" x="629.5" y="-136.5" font-family="Helvetica,sans-Serif" font-size="10.00">doris::vectorized::</text>
<text text-anchor="start" x="629.5" y="-125.5" font-family="Helvetica,sans-Serif" font-size="10.00">FunctionReverseCommon</text>
<text text-anchor="middle" x="687" y="-114.5" font-family="Helvetica,sans-Serif" font-size="10.00">::get_return_type_impl</text>
</a>
</g>
</g>
<!-- Node16&#45;&gt;Node18 -->
<g id="edge19" class="edge">
<title>Node16&#45;&gt;Node18</title>
<path fill="none" stroke="#63b8ff" d="M802.98,-109.5C786.51,-112.15 769.09,-114.96 752.91,-117.56"/>
<polygon fill="#63b8ff" stroke="#63b8ff" points="803.39,-112.98 812.71,-107.94 802.28,-106.07 803.39,-112.98"/>
</g>
<!-- Node19 -->
<g id="node19" class="node">
<title>Node19</title>
<g id="a_node19"><a xlink:href="../../d5/d82/classdoris_1_1vectorized_1_1_function_string_to_string.html#ada848f55845a18e2d7317a5f43d0aa9d" target="_top" xlink:title=" ">
<polygon fill="white" stroke="#666666" points="745,-89.5 629,-89.5 629,-48.5 745,-48.5 745,-89.5"/>
<text text-anchor="start" x="637" y="-77.5" font-family="Helvetica,sans-Serif" font-size="10.00">doris::vectorized::</text>
<text text-anchor="start" x="637" y="-66.5" font-family="Helvetica,sans-Serif" font-size="10.00">FunctionStringToString</text>
<text text-anchor="middle" x="687" y="-55.5" font-family="Helvetica,sans-Serif" font-size="10.00">::get_return_type_impl</text>
</a>
</g>
</g>
<!-- Node16&#45;&gt;Node19 -->
<g id="edge20" class="edge">
<title>Node16&#45;&gt;Node19</title>
<path fill="none" stroke="#63b8ff" d="M802.84,-86.86C783.77,-83.89 763.42,-80.73 745.23,-77.9"/>
<polygon fill="#63b8ff" stroke="#63b8ff" points="802.29,-90.31 812.71,-88.39 803.37,-83.4 802.29,-90.31"/>
</g>
<!-- Node20 -->
<g id="node20" class="node">
<title>Node20</title>
<g id="a_node20"><a xlink:href="../../dd/d10/classdoris_1_1vectorized_1_1_data_type_map.html#a2efb26384f49a172844099ed19499340" target="_top" xlink:title=" ">
<polygon fill="white" stroke="#666666" points="747.5,-30 626.5,-30 626.5,0 747.5,0 747.5,-30"/>
<text text-anchor="start" x="634.5" y="-18" font-family="Helvetica,sans-Serif" font-size="10.00">doris::vectorized::</text>
<text text-anchor="middle" x="687" y="-7" font-family="Helvetica,sans-Serif" font-size="10.00">DataTypeMap::to_string</text>
</a>
</g>
</g>
<!-- Node16&#45;&gt;Node20 -->
<g id="edge21" class="edge">
<title>Node16&#45;&gt;Node20</title>
<path fill="none" stroke="#63b8ff" d="M805.22,-77.89C802.75,-76.66 800.33,-75.37 798,-74 779.02,-62.87 780.86,-51.34 762,-40 755.96,-36.37 749.32,-33.18 742.57,-30.4"/>
<polygon fill="#63b8ff" stroke="#63b8ff" points="803.74,-81.06 814.29,-81.97 806.6,-74.68 803.74,-81.06"/>
</g>
</g>
</svg>
