<?xml version="1.0" encoding="UTF-8" standalone="no"?>
<!DOCTYPE svg PUBLIC "-//W3C//DTD SVG 1.1//EN"
 "http://www.w3.org/Graphics/SVG/1.1/DTD/svg11.dtd">
<!-- Generated by graphviz version 7.1.0 (20230121.1956)
 -->
<!-- Title: convert_to_full_column_if_const Pages: 1 -->
<!--zoomable 1388 -->
<svg id="main" version="1.1" xmlns="http://www.w3.org/2000/svg" xmlns:xlink="http://www.w3.org/1999/xlink" xml:space="preserve" onload="init(evt)">
<style type="text/css"><![CDATA[
.edge:hover path { stroke: red; }
.edge:hover polygon { stroke: red; fill: red; }
]]></style>
<script type="text/javascript"><![CDATA[
var edges = document.getElementsByTagName('g');
if (edges && edges.length) {
  for (var i=0;i<edges.length;i++) {
    if (edges[i].id.substr(0,4)=='edge') {
      edges[i].setAttribute('class','edge');
    }
  }
}
]]></script>
        <defs>
                <circle id="rim" cx="0" cy="0" r="7"/>
                <circle id="rim2" cx="0" cy="0" r="3.5"/>
                <g id="zoomPlus">
                        <use xlink:href="#rim" fill="#404040">
                                <set attributeName="fill" to="#808080" begin="zoomplus.mouseover" end="zoomplus.mouseout"/>
                        </use>
                        <path d="M-4,0h8M0,-4v8" fill="none" stroke="white" stroke-width="1.5" pointer-events="none"/>
                </g>
                <g id="zoomMin">
                        <use xlink:href="#rim" fill="#404040">
                                <set attributeName="fill" to="#808080" begin="zoomminus.mouseover" end="zoomminus.mouseout"/>
                        </use>
                        <path d="M-4,0h8" fill="none" stroke="white" stroke-width="1.5" pointer-events="none"/>
                </g>
                <g id="dirArrow">
                        <path fill="none" stroke="white" stroke-width="1.5" d="M0,-3.0v7 M-2.5,-0.5L0,-3.0L2.5,-0.5"/>
                </g>
               <g id="resetDef">
                       <use xlink:href="#rim2" fill="#404040">
                               <set attributeName="fill" to="#808080" begin="reset.mouseover" end="reset.mouseout"/>
                       </use>
               </g>
        </defs>

<script type="text/javascript">
var viewWidth = 540;
var viewHeight = 1388;
var sectionId = 'dynsection-7';
</script>
<script xlink:href="../../svgpan.js"/>
<svg id="graph" class="graph">
<g id="viewport">
<title>convert_to_full_column_if_const</title>
<!-- Node1 -->
<g id="node1" class="node">
<title>Node1</title>
<g id="a_node1"><a xlink:title=" ">
<polygon fill="#999999" stroke="#666666" points="532,-697.5 415,-697.5 415,-667.5 532,-667.5 532,-697.5"/>
<text text-anchor="start" x="423" y="-685.5" font-family="Helvetica,sans-Serif" font-size="10.00">convert_to_full_column</text>
<text text-anchor="middle" x="473.5" y="-674.5" font-family="Helvetica,sans-Serif" font-size="10.00">_if_const</text>
</a>
</g>
</g>
<!-- Node2 -->
<g id="node2" class="node">
<title>Node2</title>
<g id="a_node2"><a xlink:href="../../d4/d41/classdoris_1_1vectorized_1_1_column_nullable.html#a151ca4bda1ffc4118550099aa57d271a" target="_top" xlink:title=" ">
<polygon fill="white" stroke="#666666" points="374.5,-1379.5 213.5,-1379.5 213.5,-1349.5 374.5,-1349.5 374.5,-1379.5"/>
<text text-anchor="start" x="221.5" y="-1367.5" font-family="Helvetica,sans-Serif" font-size="10.00">doris::vectorized::</text>
<text text-anchor="middle" x="294" y="-1356.5" font-family="Helvetica,sans-Serif" font-size="10.00">ColumnNullable::ColumnNullable</text>
</a>
</g>
</g>
<!-- Node1&#45;&gt;Node2 -->
<g id="edge1" class="edge">
<title>Node1&#45;&gt;Node2</title>
<path fill="none" stroke="#63b8ff" d="M472.44,-709.21C471.66,-820.23 463.12,-1243.97 379,-1340.5 376.11,-1343.82 372.8,-1346.69 369.19,-1349.18"/>
<polygon fill="#63b8ff" stroke="#63b8ff" points="475.94,-709.33 472.49,-699.31 468.94,-709.3 475.94,-709.33"/>
</g>
<!-- Node3 -->
<g id="node3" class="node">
<title>Node3</title>
<g id="a_node3"><a xlink:href="../../d8/d62/classdoris_1_1vectorized_1_1_function_jsonb_parse_base.html#addc3120590db01e8bbf9fe9e23f79594" target="_top" xlink:title="TODO: make const">
<polygon fill="white" stroke="#666666" points="358,-1331 230,-1331 230,-1290 358,-1290 358,-1331"/>
<text text-anchor="start" x="238" y="-1319" font-family="Helvetica,sans-Serif" font-size="10.00">doris::vectorized::</text>
<text text-anchor="start" x="238" y="-1308" font-family="Helvetica,sans-Serif" font-size="10.00">FunctionJsonbParseBase</text>
<text text-anchor="middle" x="294" y="-1297" font-family="Helvetica,sans-Serif" font-size="10.00">::execute_impl</text>
</a>
</g>
</g>
<!-- Node1&#45;&gt;Node3 -->
<g id="edge2" class="edge">
<title>Node1&#45;&gt;Node3</title>
<path fill="none" stroke="#63b8ff" d="M471.88,-709.36C468.95,-813.96 453.3,-1192.67 379,-1281.5 373.36,-1288.25 366.06,-1293.42 358.13,-1297.4"/>
<polygon fill="#63b8ff" stroke="#63b8ff" points="475.38,-709.6 472.14,-699.51 468.38,-709.42 475.38,-709.6"/>
</g>
<!-- Node4 -->
<g id="node4" class="node">
<title>Node4</title>
<g id="a_node4"><a xlink:href="../../de/d17/classdoris_1_1vectorized_1_1_data_type_array.html#aa0500604b29900f905e95cf1dca8d5a7" target="_top" xlink:title=" ">
<polygon fill="white" stroke="#666666" points="379,-1272 209,-1272 209,-1231 379,-1231 379,-1272"/>
<text text-anchor="start" x="217" y="-1260" font-family="Helvetica,sans-Serif" font-size="10.00">doris::vectorized::</text>
<text text-anchor="start" x="217" y="-1249" font-family="Helvetica,sans-Serif" font-size="10.00">DataTypeArray::get_uncompressed</text>
<text text-anchor="middle" x="294" y="-1238" font-family="Helvetica,sans-Serif" font-size="10.00">_serialized_bytes</text>
</a>
</g>
</g>
<!-- Node1&#45;&gt;Node4 -->
<g id="edge3" class="edge">
<title>Node1&#45;&gt;Node4</title>
<path fill="none" stroke="#63b8ff" d="M471.38,-709.19C466.79,-806.89 446.26,-1143.44 379,-1222.5 376.4,-1225.56 373.46,-1228.29 370.28,-1230.74"/>
<polygon fill="#63b8ff" stroke="#63b8ff" points="474.88,-709.42 471.83,-699.27 467.89,-709.11 474.88,-709.42"/>
</g>
<!-- Node5 -->
<g id="node5" class="node">
<title>Node5</title>
<g id="a_node5"><a xlink:href="../../d9/ddd/classdoris_1_1vectorized_1_1_data_type_bit_map.html#aa0500604b29900f905e95cf1dca8d5a7" target="_top" xlink:title=" ">
<polygon fill="white" stroke="#666666" points="374.5,-1213 213.5,-1213 213.5,-1172 374.5,-1172 374.5,-1213"/>
<text text-anchor="start" x="221.5" y="-1201" font-family="Helvetica,sans-Serif" font-size="10.00">doris::vectorized::</text>
<text text-anchor="start" x="221.5" y="-1190" font-family="Helvetica,sans-Serif" font-size="10.00">DataTypeBitMap::get</text>
<text text-anchor="middle" x="294" y="-1179" font-family="Helvetica,sans-Serif" font-size="10.00">_uncompressed_serialized_bytes</text>
</a>
</g>
</g>
<!-- Node1&#45;&gt;Node5 -->
<g id="edge4" class="edge">
<title>Node1&#45;&gt;Node5</title>
<path fill="none" stroke="#63b8ff" d="M470.76,-709.17C464.36,-799.81 439.21,-1094.19 379,-1163.5 376.37,-1166.53 373.41,-1169.24 370.21,-1171.67"/>
<polygon fill="#63b8ff" stroke="#63b8ff" points="474.25,-709.5 471.44,-699.29 467.27,-709.03 474.25,-709.5"/>
</g>
<!-- Node6 -->
<g id="node6" class="node">
<title>Node6</title>
<g id="a_node6"><a xlink:href="../../db/d7a/classdoris_1_1vectorized_1_1_data_type_h_l_l.html#aa0500604b29900f905e95cf1dca8d5a7" target="_top" xlink:title=" ">
<polygon fill="white" stroke="#666666" points="376.5,-1154 211.5,-1154 211.5,-1113 376.5,-1113 376.5,-1154"/>
<text text-anchor="start" x="219.5" y="-1142" font-family="Helvetica,sans-Serif" font-size="10.00">doris::vectorized::</text>
<text text-anchor="start" x="219.5" y="-1131" font-family="Helvetica,sans-Serif" font-size="10.00">DataTypeHLL::get_uncompressed</text>
<text text-anchor="middle" x="294" y="-1120" font-family="Helvetica,sans-Serif" font-size="10.00">_serialized_bytes</text>
</a>
</g>
</g>
<!-- Node1&#45;&gt;Node6 -->
<g id="edge5" class="edge">
<title>Node1&#45;&gt;Node6</title>
<path fill="none" stroke="#63b8ff" d="M469.98,-709.1C461.61,-792.17 432.2,-1044.83 379,-1104.5 376.33,-1107.49 373.34,-1110.18 370.11,-1112.59"/>
<polygon fill="#63b8ff" stroke="#63b8ff" points="473.46,-709.49 470.96,-699.2 466.49,-708.81 473.46,-709.49"/>
</g>
<!-- Node7 -->
<g id="node7" class="node">
<title>Node7</title>
<g id="a_node7"><a xlink:href="../../d2/d73/classdoris_1_1vectorized_1_1_data_type_nullable.html#aa0500604b29900f905e95cf1dca8d5a7" target="_top" xlink:title=" ">
<polygon fill="white" stroke="#666666" points="374.5,-1095 213.5,-1095 213.5,-1054 374.5,-1054 374.5,-1095"/>
<text text-anchor="start" x="221.5" y="-1083" font-family="Helvetica,sans-Serif" font-size="10.00">doris::vectorized::</text>
<text text-anchor="start" x="221.5" y="-1072" font-family="Helvetica,sans-Serif" font-size="10.00">DataTypeNullable::get</text>
<text text-anchor="middle" x="294" y="-1061" font-family="Helvetica,sans-Serif" font-size="10.00">_uncompressed_serialized_bytes</text>
</a>
</g>
</g>
<!-- Node1&#45;&gt;Node7 -->
<g id="edge6" class="edge">
<title>Node1&#45;&gt;Node7</title>
<path fill="none" stroke="#63b8ff" d="M468.99,-708.78C458.51,-783.55 425.3,-995.32 379,-1045.5 376.18,-1048.56 373.01,-1051.3 369.61,-1053.75"/>
<polygon fill="#63b8ff" stroke="#63b8ff" points="472.42,-709.5 470.32,-699.11 465.49,-708.54 472.42,-709.5"/>
</g>
<!-- Node8 -->
<g id="node8" class="node">
<title>Node8</title>
<g id="a_node8"><a xlink:href="../../d5/d91/classdoris_1_1vectorized_1_1_data_type_string.html#aa0500604b29900f905e95cf1dca8d5a7" target="_top" xlink:title=" ">
<polygon fill="white" stroke="#666666" points="374.5,-1036 213.5,-1036 213.5,-995 374.5,-995 374.5,-1036"/>
<text text-anchor="start" x="221.5" y="-1024" font-family="Helvetica,sans-Serif" font-size="10.00">doris::vectorized::</text>
<text text-anchor="start" x="221.5" y="-1013" font-family="Helvetica,sans-Serif" font-size="10.00">DataTypeString::get</text>
<text text-anchor="middle" x="294" y="-1002" font-family="Helvetica,sans-Serif" font-size="10.00">_uncompressed_serialized_bytes</text>
</a>
</g>
</g>
<!-- Node1&#45;&gt;Node8 -->
<g id="edge7" class="edge">
<title>Node1&#45;&gt;Node8</title>
<path fill="none" stroke="#63b8ff" d="M471.92,-709.19C469.22,-767.3 454.72,-906.4 379,-985.5 375.68,-988.97 371.93,-992.04 367.91,-994.75"/>
<polygon fill="#63b8ff" stroke="#63b8ff" points="475.42,-709.4 472.29,-699.27 468.42,-709.14 475.42,-709.4"/>
</g>
<!-- Node10 -->
<g id="node10" class="node">
<title>Node10</title>
<g id="a_node10"><a xlink:href="../../de/d17/classdoris_1_1vectorized_1_1_data_type_array.html#ae06039564a24313ff22f28bd0a0e43db" target="_top" xlink:title=" ">
<polygon fill="white" stroke="#666666" points="356,-976.5 232,-976.5 232,-946.5 356,-946.5 356,-976.5"/>
<text text-anchor="start" x="240" y="-964.5" font-family="Helvetica,sans-Serif" font-size="10.00">doris::vectorized::</text>
<text text-anchor="middle" x="294" y="-953.5" font-family="Helvetica,sans-Serif" font-size="10.00">DataTypeArray::serialize</text>
</a>
</g>
</g>
<!-- Node1&#45;&gt;Node10 -->
<g id="edge9" class="edge">
<title>Node1&#45;&gt;Node10</title>
<path fill="none" stroke="#63b8ff" d="M470.49,-709.16C465.15,-760.89 446.01,-875.22 379,-937.5 372.56,-943.49 364.72,-948 356.45,-951.38"/>
<polygon fill="#63b8ff" stroke="#63b8ff" points="473.98,-709.5 471.41,-699.22 467.01,-708.85 473.98,-709.5"/>
</g>
<!-- Node11 -->
<g id="node11" class="node">
<title>Node11</title>
<g id="a_node11"><a xlink:href="../../d9/ddd/classdoris_1_1vectorized_1_1_data_type_bit_map.html#ae06039564a24313ff22f28bd0a0e43db" target="_top" xlink:title=" ">
<polygon fill="white" stroke="#666666" points="359.5,-928.5 228.5,-928.5 228.5,-898.5 359.5,-898.5 359.5,-928.5"/>
<text text-anchor="start" x="236.5" y="-916.5" font-family="Helvetica,sans-Serif" font-size="10.00">doris::vectorized::</text>
<text text-anchor="middle" x="294" y="-905.5" font-family="Helvetica,sans-Serif" font-size="10.00">DataTypeBitMap::serialize</text>
</a>
</g>
</g>
<!-- Node1&#45;&gt;Node11 -->
<g id="edge10" class="edge">
<title>Node1&#45;&gt;Node11</title>
<path fill="none" stroke="#63b8ff" d="M467.94,-709.05C458.95,-753.13 434.78,-841.32 379,-889.5 373.38,-894.36 366.83,-898.24 359.91,-901.33"/>
<polygon fill="#63b8ff" stroke="#63b8ff" points="471.35,-709.83 469.8,-699.35 464.48,-708.51 471.35,-709.83"/>
</g>
<!-- Node12 -->
<g id="node12" class="node">
<title>Node12</title>
<g id="a_node12"><a xlink:href="../../d2/d45/classdoris_1_1vectorized_1_1_data_type_decimal.html#ae06039564a24313ff22f28bd0a0e43db" target="_top" xlink:title=" ">
<polygon fill="white" stroke="#666666" points="362.5,-880.5 225.5,-880.5 225.5,-850.5 362.5,-850.5 362.5,-880.5"/>
<text text-anchor="start" x="233.5" y="-868.5" font-family="Helvetica,sans-Serif" font-size="10.00">doris::vectorized::</text>
<text text-anchor="middle" x="294" y="-857.5" font-family="Helvetica,sans-Serif" font-size="10.00">DataTypeDecimal::serialize</text>
</a>
</g>
</g>
<!-- Node1&#45;&gt;Node12 -->
<g id="edge11" class="edge">
<title>Node1&#45;&gt;Node12</title>
<path fill="none" stroke="#63b8ff" d="M464.09,-708.67C451.36,-744.08 423.82,-806.81 379,-841.5 374.08,-845.31 368.59,-848.51 362.82,-851.2"/>
<polygon fill="#63b8ff" stroke="#63b8ff" points="467.39,-709.82 467.35,-699.22 460.78,-707.53 467.39,-709.82"/>
</g>
<!-- Node13 -->
<g id="node13" class="node">
<title>Node13</title>
<g id="a_node13"><a xlink:href="../../d0/d51/classdoris_1_1vectorized_1_1_data_type_fixed_length_object.html#ae06039564a24313ff22f28bd0a0e43db" target="_top" xlink:title=" ">
<polygon fill="white" stroke="#666666" points="364,-832 224,-832 224,-791 364,-791 364,-832"/>
<text text-anchor="start" x="232" y="-820" font-family="Helvetica,sans-Serif" font-size="10.00">doris::vectorized::</text>
<text text-anchor="start" x="232" y="-809" font-family="Helvetica,sans-Serif" font-size="10.00">DataTypeFixedLengthObject</text>
<text text-anchor="middle" x="294" y="-798" font-family="Helvetica,sans-Serif" font-size="10.00">::serialize</text>
</a>
</g>
</g>
<!-- Node1&#45;&gt;Node13 -->
<g id="edge12" class="edge">
<title>Node1&#45;&gt;Node13</title>
<path fill="none" stroke="#63b8ff" d="M454.96,-706.82C437.82,-729.01 409.86,-761.34 379,-781.5 373.81,-784.89 368.2,-787.95 362.41,-790.7"/>
<polygon fill="#63b8ff" stroke="#63b8ff" points="457.69,-709 460.92,-698.91 452.1,-704.79 457.69,-709"/>
</g>
<!-- Node14 -->
<g id="node14" class="node">
<title>Node14</title>
<g id="a_node14"><a xlink:href="../../db/d7a/classdoris_1_1vectorized_1_1_data_type_h_l_l.html#ae06039564a24313ff22f28bd0a0e43db" target="_top" xlink:title=" ">
<polygon fill="white" stroke="#666666" points="353.5,-772.5 234.5,-772.5 234.5,-742.5 353.5,-742.5 353.5,-772.5"/>
<text text-anchor="start" x="242.5" y="-760.5" font-family="Helvetica,sans-Serif" font-size="10.00">doris::vectorized::</text>
<text text-anchor="middle" x="294" y="-749.5" font-family="Helvetica,sans-Serif" font-size="10.00">DataTypeHLL::serialize</text>
</a>
</g>
</g>
<!-- Node1&#45;&gt;Node14 -->
<g id="edge13" class="edge">
<title>Node1&#45;&gt;Node14</title>
<path fill="none" stroke="#63b8ff" d="M438.19,-703.59C420.89,-713.61 399.31,-725.18 379,-733.5 371,-736.78 362.4,-739.79 353.86,-742.48"/>
<polygon fill="#63b8ff" stroke="#63b8ff" points="439.7,-706.77 446.54,-698.68 436.15,-700.74 439.7,-706.77"/>
</g>
<!-- Node15 -->
<g id="node15" class="node">
<title>Node15</title>
<g id="a_node15"><a xlink:href="../../d2/d73/classdoris_1_1vectorized_1_1_data_type_nullable.html#ae06039564a24313ff22f28bd0a0e43db" target="_top" xlink:title=" ">
<polygon fill="white" stroke="#666666" points="362,-724.5 226,-724.5 226,-694.5 362,-694.5 362,-724.5"/>
<text text-anchor="start" x="234" y="-712.5" font-family="Helvetica,sans-Serif" font-size="10.00">doris::vectorized::</text>
<text text-anchor="middle" x="294" y="-701.5" font-family="Helvetica,sans-Serif" font-size="10.00">DataTypeNullable::serialize</text>
</a>
</g>
</g>
<!-- Node1&#45;&gt;Node15 -->
<g id="edge14" class="edge">
<title>Node1&#45;&gt;Node15</title>
<path fill="none" stroke="#63b8ff" d="M403.63,-692.98C390.03,-695.05 375.77,-697.21 362.22,-699.28"/>
<polygon fill="#63b8ff" stroke="#63b8ff" points="404.01,-696.46 413.37,-691.49 402.96,-689.54 404.01,-696.46"/>
</g>
<!-- Node16 -->
<g id="node16" class="node">
<title>Node16</title>
<g id="a_node16"><a xlink:href="../../d1/dcb/classdoris_1_1vectorized_1_1_data_type_number_base.html#ae06039564a24313ff22f28bd0a0e43db" target="_top" xlink:title=" ">
<polygon fill="white" stroke="#666666" points="355,-676 233,-676 233,-635 355,-635 355,-676"/>
<text text-anchor="start" x="241" y="-664" font-family="Helvetica,sans-Serif" font-size="10.00">doris::vectorized::</text>
<text text-anchor="start" x="241" y="-653" font-family="Helvetica,sans-Serif" font-size="10.00">DataTypeNumberBase::</text>
<text text-anchor="middle" x="294" y="-642" font-family="Helvetica,sans-Serif" font-size="10.00">serialize</text>
</a>
</g>
</g>
<!-- Node1&#45;&gt;Node16 -->
<g id="edge15" class="edge">
<title>Node1&#45;&gt;Node16</title>
<path fill="none" stroke="#63b8ff" d="M403.5,-672C387.63,-669.59 370.87,-667.04 355.39,-664.69"/>
<polygon fill="#63b8ff" stroke="#63b8ff" points="402.96,-675.46 413.37,-673.51 404.01,-668.54 402.96,-675.46"/>
</g>
<!-- Node17 -->
<g id="node17" class="node">
<title>Node17</title>
<g id="a_node17"><a xlink:href="../../d5/d91/classdoris_1_1vectorized_1_1_data_type_string.html#ae06039564a24313ff22f28bd0a0e43db" target="_top" xlink:title=" ">
<polygon fill="white" stroke="#666666" points="357,-616.5 231,-616.5 231,-586.5 357,-586.5 357,-616.5"/>
<text text-anchor="start" x="239" y="-604.5" font-family="Helvetica,sans-Serif" font-size="10.00">doris::vectorized::</text>
<text text-anchor="middle" x="294" y="-593.5" font-family="Helvetica,sans-Serif" font-size="10.00">DataTypeString::serialize</text>
</a>
</g>
</g>
<!-- Node1&#45;&gt;Node17 -->
<g id="edge16" class="edge">
<title>Node1&#45;&gt;Node17</title>
<path fill="none" stroke="#63b8ff" d="M441.87,-660.92C424.14,-649.19 401.04,-635.15 379,-625.5 371.78,-622.34 364.02,-619.47 356.25,-616.9"/>
<polygon fill="#63b8ff" stroke="#63b8ff" points="439.62,-663.63 449.86,-666.31 443.53,-657.82 439.62,-663.63"/>
</g>
<!-- Node19 -->
<g id="node19" class="node">
<title>Node19</title>
<g id="a_node19"><a xlink:href="../../d2/d4c/classdoris_1_1vectorized_1_1_data_type_date.html#a2efb26384f49a172844099ed19499340" target="_top" xlink:title=" ">
<polygon fill="white" stroke="#666666" points="355.5,-568.5 232.5,-568.5 232.5,-538.5 355.5,-538.5 355.5,-568.5"/>
<text text-anchor="start" x="240.5" y="-556.5" font-family="Helvetica,sans-Serif" font-size="10.00">doris::vectorized::</text>
<text text-anchor="middle" x="294" y="-545.5" font-family="Helvetica,sans-Serif" font-size="10.00">DataTypeDate::to_string</text>
</a>
</g>
</g>
<!-- Node1&#45;&gt;Node19 -->
<g id="edge18" class="edge">
<title>Node1&#45;&gt;Node19</title>
<path fill="none" stroke="#63b8ff" d="M456.64,-657.7C440.06,-633.76 411.92,-598.17 379,-577.5 371.94,-573.06 364.03,-569.43 355.97,-566.45"/>
<polygon fill="#63b8ff" stroke="#63b8ff" points="453.68,-659.58 462.16,-665.92 459.48,-655.67 453.68,-659.58"/>
</g>
<!-- Node20 -->
<g id="node20" class="node">
<title>Node20</title>
<g id="a_node20"><a xlink:href="../../d7/df9/classdoris_1_1vectorized_1_1_data_type_date_time.html#a2efb26384f49a172844099ed19499340" target="_top" xlink:title=" ">
<polygon fill="white" stroke="#666666" points="352,-520 236,-520 236,-479 352,-479 352,-520"/>
<text text-anchor="start" x="244" y="-508" font-family="Helvetica,sans-Serif" font-size="10.00">doris::vectorized::</text>
<text text-anchor="start" x="244" y="-497" font-family="Helvetica,sans-Serif" font-size="10.00">DataTypeDateTime::to</text>
<text text-anchor="middle" x="294" y="-486" font-family="Helvetica,sans-Serif" font-size="10.00">_string</text>
</a>
</g>
</g>
<!-- Node1&#45;&gt;Node20 -->
<g id="edge19" class="edge">
<title>Node1&#45;&gt;Node20</title>
<path fill="none" stroke="#63b8ff" d="M463.08,-656.68C449.5,-622.88 421.32,-563.9 379,-529.5 371.19,-523.15 361.93,-518.09 352.46,-514.08"/>
<polygon fill="#63b8ff" stroke="#63b8ff" points="459.7,-657.63 466.58,-665.69 466.23,-655.1 459.7,-657.63"/>
</g>
<!-- Node21 -->
<g id="node21" class="node">
<title>Node21</title>
<g id="a_node21"><a xlink:href="../../d2/d45/classdoris_1_1vectorized_1_1_data_type_decimal.html#a2efb26384f49a172844099ed19499340" target="_top" xlink:title=" ">
<polygon fill="white" stroke="#666666" points="348.5,-461 239.5,-461 239.5,-420 348.5,-420 348.5,-461"/>
<text text-anchor="start" x="247.5" y="-449" font-family="Helvetica,sans-Serif" font-size="10.00">doris::vectorized::</text>
<text text-anchor="start" x="247.5" y="-438" font-family="Helvetica,sans-Serif" font-size="10.00">DataTypeDecimal::to</text>
<text text-anchor="middle" x="294" y="-427" font-family="Helvetica,sans-Serif" font-size="10.00">_string</text>
</a>
</g>
</g>
<!-- Node1&#45;&gt;Node21 -->
<g id="edge20" class="edge">
<title>Node1&#45;&gt;Node21</title>
<path fill="none" stroke="#63b8ff" d="M468,-656.14C459.02,-611.5 434.76,-520.9 379,-469.5 370.49,-461.66 359.76,-455.92 348.84,-451.73"/>
<polygon fill="#63b8ff" stroke="#63b8ff" points="464.51,-656.53 469.81,-665.7 471.39,-655.22 464.51,-656.53"/>
</g>
<!-- Node22 -->
<g id="node22" class="node">
<title>Node22</title>
<g id="a_node22"><a xlink:href="../../df/dff/classdoris_1_1vectorized_1_1_data_type_jsonb.html#a2efb26384f49a172844099ed19499340" target="_top" xlink:title=" ">
<polygon fill="white" stroke="#666666" points="358,-401.5 230,-401.5 230,-371.5 358,-371.5 358,-401.5"/>
<text text-anchor="start" x="238" y="-389.5" font-family="Helvetica,sans-Serif" font-size="10.00">doris::vectorized::</text>
<text text-anchor="middle" x="294" y="-378.5" font-family="Helvetica,sans-Serif" font-size="10.00">DataTypeJsonb::to_string</text>
</a>
</g>
</g>
<!-- Node1&#45;&gt;Node22 -->
<g id="edge21" class="edge">
<title>Node1&#45;&gt;Node22</title>
<path fill="none" stroke="#63b8ff" d="M471.21,-655.96C467.13,-601.79 450.09,-477.93 379,-410.5 373.06,-404.86 365.89,-400.54 358.27,-397.22"/>
<polygon fill="#63b8ff" stroke="#63b8ff" points="467.71,-656.03 471.85,-665.78 474.7,-655.57 467.71,-656.03"/>
</g>
<!-- Node23 -->
<g id="node23" class="node">
<title>Node23</title>
<g id="a_node23"><a xlink:href="../../d2/d73/classdoris_1_1vectorized_1_1_data_type_nullable.html#a2efb26384f49a172844099ed19499340" target="_top" xlink:title=" ">
<polygon fill="white" stroke="#666666" points="348,-353 240,-353 240,-312 348,-312 348,-353"/>
<text text-anchor="start" x="248" y="-341" font-family="Helvetica,sans-Serif" font-size="10.00">doris::vectorized::</text>
<text text-anchor="start" x="248" y="-330" font-family="Helvetica,sans-Serif" font-size="10.00">DataTypeNullable::to</text>
<text text-anchor="middle" x="294" y="-319" font-family="Helvetica,sans-Serif" font-size="10.00">_string</text>
</a>
</g>
</g>
<!-- Node1&#45;&gt;Node23 -->
<g id="edge22" class="edge">
<title>Node1&#45;&gt;Node23</title>
<path fill="none" stroke="#63b8ff" d="M472.45,-655.96C470.89,-595.66 458.68,-447.01 379,-362.5 370.71,-353.71 359.68,-347.49 348.34,-343.1"/>
<polygon fill="#63b8ff" stroke="#63b8ff" points="468.95,-655.67 472.61,-665.61 475.94,-655.55 468.95,-655.67"/>
</g>
<!-- Node24 -->
<g id="node24" class="node">
<title>Node24</title>
<g id="a_node24"><a xlink:href="../../d5/d91/classdoris_1_1vectorized_1_1_data_type_string.html#a2efb26384f49a172844099ed19499340" target="_top" xlink:title=" ">
<polygon fill="white" stroke="#666666" points="358,-293.5 230,-293.5 230,-263.5 358,-263.5 358,-293.5"/>
<text text-anchor="start" x="238" y="-281.5" font-family="Helvetica,sans-Serif" font-size="10.00">doris::vectorized::</text>
<text text-anchor="middle" x="294" y="-270.5" font-family="Helvetica,sans-Serif" font-size="10.00">DataTypeString::to_string</text>
</a>
</g>
</g>
<!-- Node1&#45;&gt;Node24 -->
<g id="edge23" class="edge">
<title>Node1&#45;&gt;Node24</title>
<path fill="none" stroke="#63b8ff" d="M469.42,-655.89C459.92,-578.21 428.67,-354.05 379,-302.5 373.21,-296.49 366.03,-291.96 358.33,-288.54"/>
<polygon fill="#63b8ff" stroke="#63b8ff" points="465.91,-656.03 470.58,-665.54 472.86,-655.2 465.91,-656.03"/>
</g>
<!-- Node25 -->
<g id="node25" class="node">
<title>Node25</title>
<g id="a_node25"><a xlink:href="../../db/dee/classdoris_1_1vectorized_1_1_data_type_time.html#a2efb26384f49a172844099ed19499340" target="_top" xlink:title=" ">
<polygon fill="white" stroke="#666666" points="356,-245.5 232,-245.5 232,-215.5 356,-215.5 356,-245.5"/>
<text text-anchor="start" x="240" y="-233.5" font-family="Helvetica,sans-Serif" font-size="10.00">doris::vectorized::</text>
<text text-anchor="middle" x="294" y="-222.5" font-family="Helvetica,sans-Serif" font-size="10.00">DataTypeTime::to_string</text>
</a>
</g>
</g>
<!-- Node1&#45;&gt;Node25 -->
<g id="edge24" class="edge">
<title>Node1&#45;&gt;Node25</title>
<path fill="none" stroke="#63b8ff" d="M470.2,-655.66C462.43,-571.31 434.51,-313.64 379,-254.5 372.77,-247.87 364.85,-243.02 356.37,-239.5"/>
<polygon fill="#63b8ff" stroke="#63b8ff" points="466.7,-655.87 471.08,-665.51 473.67,-655.24 466.7,-655.87"/>
</g>
<!-- Node26 -->
<g id="node26" class="node">
<title>Node26</title>
<g id="a_node26"><a xlink:href="../../db/d63/classdoris_1_1vectorized_1_1_data_type_date_v2.html#a2efb26384f49a172844099ed19499340" target="_top" xlink:title=" ">
<polygon fill="white" stroke="#666666" points="361.5,-197.5 226.5,-197.5 226.5,-167.5 361.5,-167.5 361.5,-197.5"/>
<text text-anchor="start" x="234.5" y="-185.5" font-family="Helvetica,sans-Serif" font-size="10.00">doris::vectorized::</text>
<text text-anchor="middle" x="294" y="-174.5" font-family="Helvetica,sans-Serif" font-size="10.00">DataTypeDateV2::to_string</text>
</a>
</g>
</g>
<!-- Node1&#45;&gt;Node26 -->
<g id="edge25" class="edge">
<title>Node1&#45;&gt;Node26</title>
<path fill="none" stroke="#63b8ff" d="M470.86,-655.98C464.76,-565.89 440.5,-273.42 379,-206.5 374.18,-201.25 368.29,-197.12 361.9,-193.88"/>
<polygon fill="#63b8ff" stroke="#63b8ff" points="467.36,-656.05 471.5,-665.8 474.34,-655.59 467.36,-656.05"/>
</g>
<!-- Node27 -->
<g id="node27" class="node">
<title>Node27</title>
<g id="a_node27"><a xlink:href="../../db/d12/classdoris_1_1vectorized_1_1_data_type_date_time_v2.html#a2efb26384f49a172844099ed19499340" target="_top" xlink:title=" ">
<polygon fill="white" stroke="#666666" points="353.5,-149 234.5,-149 234.5,-108 353.5,-108 353.5,-149"/>
<text text-anchor="start" x="242.5" y="-137" font-family="Helvetica,sans-Serif" font-size="10.00">doris::vectorized::</text>
<text text-anchor="start" x="242.5" y="-126" font-family="Helvetica,sans-Serif" font-size="10.00">DataTypeDateTimeV2::</text>
<text text-anchor="middle" x="294" y="-115" font-family="Helvetica,sans-Serif" font-size="10.00">to_string</text>
</a>
</g>
</g>
<!-- Node1&#45;&gt;Node27 -->
<g id="edge26" class="edge">
<title>Node1&#45;&gt;Node27</title>
<path fill="none" stroke="#63b8ff" d="M471.19,-655.7C466.01,-559.77 443.9,-235.22 379,-158.5 372.3,-150.58 363.35,-144.75 353.79,-140.46"/>
<polygon fill="#63b8ff" stroke="#63b8ff" points="467.7,-655.87 471.71,-665.68 474.69,-655.51 467.7,-655.87"/>
</g>
<!-- Node28 -->
<g id="node28" class="node">
<title>Node28</title>
<g id="a_node28"><a xlink:href="../../de/d17/classdoris_1_1vectorized_1_1_data_type_array.html#a9e9a3d96407896317275c46fa2fb41ae" target="_top" xlink:title=" ">
<polygon fill="white" stroke="#666666" points="356.5,-89.5 231.5,-89.5 231.5,-59.5 356.5,-59.5 356.5,-89.5"/>
<text text-anchor="start" x="239.5" y="-77.5" font-family="Helvetica,sans-Serif" font-size="10.00">doris::vectorized::</text>
<text text-anchor="middle" x="294" y="-66.5" font-family="Helvetica,sans-Serif" font-size="10.00">DataTypeArray::to_string</text>
</a>
</g>
</g>
<!-- Node1&#45;&gt;Node28 -->
<g id="edge27" class="edge">
<title>Node1&#45;&gt;Node28</title>
<path fill="none" stroke="#63b8ff" d="M471.9,-655.54C469.08,-552.19 453.81,-182.84 379,-98.5 372.96,-91.69 365.14,-86.76 356.7,-83.19"/>
<polygon fill="#63b8ff" stroke="#63b8ff" points="468.4,-655.62 472.16,-665.53 475.4,-655.45 468.4,-655.62"/>
</g>
<!-- Node29 -->
<g id="node29" class="node">
<title>Node29</title>
<g id="a_node29"><a xlink:href="../../d1/dcb/classdoris_1_1vectorized_1_1_data_type_number_base.html#a9e9a3d96407896317275c46fa2fb41ae" target="_top" xlink:title=" ">
<polygon fill="white" stroke="#666666" points="355,-41 233,-41 233,0 355,0 355,-41"/>
<text text-anchor="start" x="241" y="-29" font-family="Helvetica,sans-Serif" font-size="10.00">doris::vectorized::</text>
<text text-anchor="start" x="241" y="-18" font-family="Helvetica,sans-Serif" font-size="10.00">DataTypeNumberBase::</text>
<text text-anchor="middle" x="294" y="-7" font-family="Helvetica,sans-Serif" font-size="10.00">to_string</text>
</a>
</g>
</g>
<!-- Node1&#45;&gt;Node29 -->
<g id="edge28" class="edge">
<title>Node1&#45;&gt;Node29</title>
<path fill="none" stroke="#63b8ff" d="M472.1,-655.6C469.94,-547.4 456.76,-145.23 379,-50.5 372.71,-42.84 364.32,-37.13 355.26,-32.89"/>
<polygon fill="#63b8ff" stroke="#63b8ff" points="468.59,-655.59 472.27,-665.52 475.59,-655.46 468.59,-655.59"/>
</g>
<!-- Node9 -->
<g id="node9" class="node">
<title>Node9</title>
<g id="a_node9"><a xlink:href="../../df/dff/classdoris_1_1vectorized_1_1_data_type_jsonb.html#a4e413aaf6b4d28e5be53d3a2d57ee510" target="_top" xlink:title=" ">
<polygon fill="white" stroke="#666666" points="173,-1036 0,-1036 0,-995 173,-995 173,-1036"/>
<text text-anchor="start" x="8" y="-1024" font-family="Helvetica,sans-Serif" font-size="10.00">doris::vectorized::</text>
<text text-anchor="start" x="8" y="-1013" font-family="Helvetica,sans-Serif" font-size="10.00">DataTypeJsonb::get_uncompressed</text>
<text text-anchor="middle" x="86.5" y="-1002" font-family="Helvetica,sans-Serif" font-size="10.00">_serialized_bytes</text>
</a>
</g>
</g>
<!-- Node8&#45;&gt;Node9 -->
<g id="edge8" class="edge">
<title>Node8&#45;&gt;Node9</title>
<path fill="none" stroke="#63b8ff" d="M201.8,-1015.5C192.33,-1015.5 182.73,-1015.5 173.33,-1015.5"/>
<polygon fill="#63b8ff" stroke="#63b8ff" points="201.74,-1019 211.74,-1015.5 201.74,-1012 201.74,-1019"/>
</g>
<!-- Node18 -->
<g id="node18" class="node">
<title>Node18</title>
<g id="a_node18"><a xlink:href="../../df/dff/classdoris_1_1vectorized_1_1_data_type_jsonb.html#aa132cc89fcaf3c865cb28dd7216338bb" target="_top" xlink:title=" ">
<polygon fill="white" stroke="#666666" points="150,-616.5 23,-616.5 23,-586.5 150,-586.5 150,-616.5"/>
<text text-anchor="start" x="31" y="-604.5" font-family="Helvetica,sans-Serif" font-size="10.00">doris::vectorized::</text>
<text text-anchor="middle" x="86.5" y="-593.5" font-family="Helvetica,sans-Serif" font-size="10.00">DataTypeJsonb::serialize</text>
</a>
</g>
</g>
<!-- Node17&#45;&gt;Node18 -->
<g id="edge17" class="edge">
<title>Node17&#45;&gt;Node18</title>
<path fill="none" stroke="#63b8ff" d="M219.28,-601.5C196.73,-601.5 172.16,-601.5 150.41,-601.5"/>
<polygon fill="#63b8ff" stroke="#63b8ff" points="218.99,-605 228.99,-601.5 218.99,-598 218.99,-605"/>
</g>
</g>
</svg>
        <g id="navigator" transform="translate(0 0)" fill="#404254">
                <rect fill="#f2f5e9" fill-opacity="0.5" stroke="#606060" stroke-width=".5" x="0" y="0" width="60" height="60"/>
                <use id="zoomplus" xlink:href="#zoomPlus" x="17" y="9" onmousedown="handleZoom(evt,'in')"/>
                <use id="zoomminus" xlink:href="#zoomMin" x="42" y="9" onmousedown="handleZoom(evt,'out')"/>
                <use id="reset" xlink:href="#resetDef" x="30" y="36" onmousedown="handleReset()"/>
                <g id="arrowUp" xlink:href="#dirArrow" transform="translate(30 24)" onmousedown="handlePan(0,-1)">
                  <use xlink:href="#rim" fill="#404040">
                        <set attributeName="fill" to="#808080" begin="arrowUp.mouseover" end="arrowUp.mouseout"/>
                  </use>
                  <path fill="none" stroke="white" stroke-width="1.5" d="M0,-3.0v7 M-2.5,-0.5L0,-3.0L2.5,-0.5"/>
                </g>
                <g id="arrowRight" xlink:href="#dirArrow" transform="rotate(90) translate(36 -43)" onmousedown="handlePan(1,0)">
                  <use xlink:href="#rim" fill="#404040">
                        <set attributeName="fill" to="#808080" begin="arrowRight.mouseover" end="arrowRight.mouseout"/>
                  </use>
                  <path fill="none" stroke="white" stroke-width="1.5" d="M0,-3.0v7 M-2.5,-0.5L0,-3.0L2.5,-0.5"/>
                </g>
                <g id="arrowDown" xlink:href="#dirArrow" transform="rotate(180) translate(-30 -48)" onmousedown="handlePan(0,1)">
                  <use xlink:href="#rim" fill="#404040">
                        <set attributeName="fill" to="#808080" begin="arrowDown.mouseover" end="arrowDown.mouseout"/>
                  </use>
                  <path fill="none" stroke="white" stroke-width="1.5" d="M0,-3.0v7 M-2.5,-0.5L0,-3.0L2.5,-0.5"/>
                </g>
                <g id="arrowLeft" xlink:href="#dirArrow" transform="rotate(270) translate(-36 17)" onmousedown="handlePan(-1,0)">
                  <use xlink:href="#rim" fill="#404040">
                        <set attributeName="fill" to="#808080" begin="arrowLeft.mouseover" end="arrowLeft.mouseout"/>
                  </use>
                  <path fill="none" stroke="white" stroke-width="1.5" d="M0,-3.0v7 M-2.5,-0.5L0,-3.0L2.5,-0.5"/>
                </g>
        </g>
        <svg viewBox="0 0 15 15" width="100%" height="30px" preserveAspectRatio="xMaxYMin meet">
         <g id="arrow_out" transform="scale(0.3 0.3)">
          <a xlink:href="classdoris_1_1vectorized_1_1_i_column_ad9be36102a53410151a9889c4686fb4d_icgraph_org.svg" target="_base">
           <rect id="button" ry="5" rx="5" y="6" x="6" height="38" width="38"
                fill="#f2f5e9" fill-opacity="0.5" stroke="#606060" stroke-width="1.0"/>
           <path id="arrow"
             d="M 11.500037,31.436501 C 11.940474,20.09759 22.043105,11.32322 32.158766,21.979434 L 37.068811,17.246167 C 37.068811,17.246167 37.088388,32 37.088388,32 L 22.160133,31.978069 C 22.160133,31.978069 26.997745,27.140456 26.997745,27.140456 C 18.528582,18.264221 13.291696,25.230495 11.500037,31.436501 z"
             style="fill:#404040;"/>
          </a>
         </g>
        </svg>
</svg>
