<?xml version="1.0" encoding="UTF-8" standalone="no"?>
<!DOCTYPE svg PUBLIC "-//W3C//DTD SVG 1.1//EN"
 "http://www.w3.org/Graphics/SVG/1.1/DTD/svg11.dtd">
<!-- Generated by graphviz version 7.1.0 (20230121.1956)
 -->
<!-- Title: filter_by_selector Pages: 1 -->
<svg width="753pt" height="49pt"
 viewBox="0.00 0.00 753.00 49.00" xmlns="http://www.w3.org/2000/svg" xmlns:xlink="http://www.w3.org/1999/xlink">
<g id="graph0" class="graph" transform="scale(1 1) rotate(0) translate(4 45)">
<title>filter_by_selector</title>
<!-- Node1 -->
<g id="node1" class="node">
<title>Node1</title>
<g id="a_node1"><a xlink:title=" ">
<polygon fill="#999999" stroke="#666666" points="745,-30 654,-30 654,-11 745,-11 745,-30"/>
<text text-anchor="middle" x="699.5" y="-18" font-family="Helvetica,sans-Serif" font-size="10.00">filter_by_selector</text>
</a>
</g>
</g>
<!-- Node2 -->
<g id="node2" class="node">
<title>Node2</title>
<g id="a_node2"><a xlink:href="../../d2/d12/classdoris_1_1vectorized_1_1_block.html#aeb4c6a5859a2fb6dd8aa25408871ad86" target="_top" xlink:title=" ">
<polygon fill="white" stroke="#666666" points="618,-41 489,-41 489,0 618,0 618,-41"/>
<text text-anchor="start" x="497" y="-29" font-family="Helvetica,sans-Serif" font-size="10.00">doris::vectorized::</text>
<text text-anchor="start" x="497" y="-18" font-family="Helvetica,sans-Serif" font-size="10.00">Block::copy_column_data</text>
<text text-anchor="middle" x="553.5" y="-7" font-family="Helvetica,sans-Serif" font-size="10.00">_to_block</text>
</a>
</g>
</g>
<!-- Node1&#45;&gt;Node2 -->
<g id="edge1" class="edge">
<title>Node1&#45;&gt;Node2</title>
<path fill="none" stroke="#63b8ff" d="M642.39,-20.5C634.48,-20.5 626.31,-20.5 618.28,-20.5"/>
<polygon fill="#63b8ff" stroke="#63b8ff" points="642.21,-24 652.21,-20.5 642.21,-17 642.21,-24"/>
</g>
<!-- Node3 -->
<g id="node3" class="node">
<title>Node3</title>
<g id="a_node3"><a xlink:href="../../db/d2b/classdoris_1_1segment__v2_1_1_segment_iterator.html#a413d03bc63140080412da2e085bbd5be" target="_top" xlink:title=" ">
<polygon fill="white" stroke="#666666" points="453,-41 328,-41 328,0 453,0 453,-41"/>
<text text-anchor="start" x="336" y="-29" font-family="Helvetica,sans-Serif" font-size="10.00">doris::segment_v2::</text>
<text text-anchor="start" x="336" y="-18" font-family="Helvetica,sans-Serif" font-size="10.00">SegmentIterator::_output</text>
<text text-anchor="middle" x="390.5" y="-7" font-family="Helvetica,sans-Serif" font-size="10.00">_column_by_sel_idx</text>
</a>
</g>
</g>
<!-- Node2&#45;&gt;Node3 -->
<g id="edge2" class="edge">
<title>Node2&#45;&gt;Node3</title>
<path fill="none" stroke="#63b8ff" d="M477.52,-20.5C469.43,-20.5 461.26,-20.5 453.35,-20.5"/>
<polygon fill="#63b8ff" stroke="#63b8ff" points="477.36,-24 487.35,-20.5 477.35,-17 477.36,-24"/>
</g>
<!-- Node4 -->
<g id="node4" class="node">
<title>Node4</title>
<g id="a_node4"><a xlink:href="../../db/d2b/classdoris_1_1segment__v2_1_1_segment_iterator.html#a6599fa599739de9ff77a10685a98d73e" target="_top" xlink:title=" ">
<polygon fill="white" stroke="#666666" points="292,-41 176,-41 176,0 292,0 292,-41"/>
<text text-anchor="start" x="184" y="-29" font-family="Helvetica,sans-Serif" font-size="10.00">doris::segment_v2::</text>
<text text-anchor="start" x="184" y="-18" font-family="Helvetica,sans-Serif" font-size="10.00">SegmentIterator::_next</text>
<text text-anchor="middle" x="234" y="-7" font-family="Helvetica,sans-Serif" font-size="10.00">_batch_internal</text>
</a>
</g>
</g>
<!-- Node3&#45;&gt;Node4 -->
<g id="edge3" class="edge">
<title>Node3&#45;&gt;Node4</title>
<path fill="none" stroke="#63b8ff" d="M316.31,-20.5C308.3,-20.5 300.24,-20.5 292.46,-20.5"/>
<polygon fill="#63b8ff" stroke="#63b8ff" points="316.04,-24 326.04,-20.5 316.04,-17 316.04,-24"/>
</g>
<!-- Node5 -->
<g id="node5" class="node">
<title>Node5</title>
<g id="a_node5"><a xlink:href="../../db/d2b/classdoris_1_1segment__v2_1_1_segment_iterator.html#a2170c68d68be4b5b3ecd64e7ed93a021" target="_top" xlink:title=" ">
<polygon fill="white" stroke="#666666" points="140,-35.5 0,-35.5 0,-5.5 140,-5.5 140,-35.5"/>
<text text-anchor="start" x="8" y="-23.5" font-family="Helvetica,sans-Serif" font-size="10.00">doris::segment_v2::</text>
<text text-anchor="middle" x="70" y="-12.5" font-family="Helvetica,sans-Serif" font-size="10.00">SegmentIterator::next_batch</text>
</a>
</g>
</g>
<!-- Node4&#45;&gt;Node5 -->
<g id="edge4" class="edge">
<title>Node4&#45;&gt;Node5</title>
<path fill="none" stroke="#63b8ff" d="M164.4,-20.5C156.45,-20.5 148.34,-20.5 140.38,-20.5"/>
<polygon fill="#63b8ff" stroke="#63b8ff" points="164.37,-24 174.37,-20.5 164.37,-17 164.37,-24"/>
</g>
</g>
</svg>
