<?xml version="1.0" encoding="UTF-8" standalone="no"?>
<!DOCTYPE svg PUBLIC "-//W3C//DTD SVG 1.1//EN"
 "http://www.w3.org/Graphics/SVG/1.1/DTD/svg11.dtd">
<!-- Generated by graphviz version 7.1.0 (20230121.1956)
 -->
<!-- Title: init Pages: 1 -->
<svg width="220pt" height="108pt"
 viewBox="0.00 0.00 220.00 108.00" xmlns="http://www.w3.org/2000/svg" xmlns:xlink="http://www.w3.org/1999/xlink">
<g id="graph0" class="graph" transform="scale(1 1) rotate(0) translate(4 104)">
<title>init</title>
<!-- Node1 -->
<g id="node1" class="node">
<title>Node1</title>
<g id="a_node1"><a xlink:title=" ">
<polygon fill="#999999" stroke="#666666" points="212,-59 183,-59 183,-40 212,-40 212,-59"/>
<text text-anchor="middle" x="197.5" y="-47" font-family="Helvetica,sans-Serif" font-size="10.00">init</text>
</a>
</g>
</g>
<!-- Node2 -->
<g id="node2" class="node">
<title>Node2</title>
<g id="a_node2"><a xlink:href="../../db/dcb/classdoris_1_1segment__v2_1_1_n_gram_bloom_filter_index_writer_impl.html#a92ac14e4a5d25dfbfe4db047b040ec79" target="_top" xlink:title=" ">
<polygon fill="white" stroke="#666666" points="147,-100 0,-100 0,-59 147,-59 147,-100"/>
<text text-anchor="start" x="8" y="-88" font-family="Helvetica,sans-Serif" font-size="10.00">doris::segment_v2::</text>
<text text-anchor="start" x="8" y="-77" font-family="Helvetica,sans-Serif" font-size="10.00">NGramBloomFilterIndexWriter</text>
<text text-anchor="middle" x="73.5" y="-66" font-family="Helvetica,sans-Serif" font-size="10.00">Impl::finish</text>
</a>
</g>
</g>
<!-- Node1&#45;&gt;Node2 -->
<g id="edge1" class="edge">
<title>Node1&#45;&gt;Node2</title>
<path fill="none" stroke="#63b8ff" d="M171.48,-55.65C164.27,-57.42 156.02,-59.45 147.44,-61.57"/>
<polygon fill="#63b8ff" stroke="#63b8ff" points="172.16,-59.09 181.04,-53.3 170.49,-52.29 172.16,-59.09"/>
</g>
<!-- Node3 -->
<g id="node3" class="node">
<title>Node3</title>
<g id="a_node3"><a xlink:href="../../d6/dc9/classdoris_1_1segment__v2_1_1_typed_zone_map_index_writer.html#a92ac14e4a5d25dfbfe4db047b040ec79" target="_top" xlink:title=" ">
<polygon fill="white" stroke="#666666" points="140,-41 7,-41 7,0 140,0 140,-41"/>
<text text-anchor="start" x="15" y="-29" font-family="Helvetica,sans-Serif" font-size="10.00">doris::segment_v2::</text>
<text text-anchor="start" x="15" y="-18" font-family="Helvetica,sans-Serif" font-size="10.00">TypedZoneMapIndexWriter</text>
<text text-anchor="middle" x="73.5" y="-7" font-family="Helvetica,sans-Serif" font-size="10.00">::finish</text>
</a>
</g>
</g>
<!-- Node1&#45;&gt;Node3 -->
<g id="edge2" class="edge">
<title>Node1&#45;&gt;Node3</title>
<path fill="none" stroke="#63b8ff" d="M171.56,-43.57C162.39,-41.39 151.53,-38.81 140.45,-36.18"/>
<polygon fill="#63b8ff" stroke="#63b8ff" points="170.49,-46.92 181.03,-45.82 172.11,-40.11 170.49,-46.92"/>
</g>
</g>
</svg>
