<?xml version="1.0" encoding="UTF-8" standalone="no"?>
<!DOCTYPE svg PUBLIC "-//W3C//DTD SVG 1.1//EN"
 "http://www.w3.org/Graphics/SVG/1.1/DTD/svg11.dtd">
<!-- Generated by graphviz version 7.1.0 (20230121.1956)
 -->
<!-- Title: BrokerMgr Pages: 1 -->
<svg width="1545pt" height="600pt"
 viewBox="0.00 0.00 1545.00 600.14" xmlns="http://www.w3.org/2000/svg" xmlns:xlink="http://www.w3.org/1999/xlink">
<g id="graph0" class="graph" transform="scale(1 1) rotate(0) translate(4 596.14)">
<title>BrokerMgr</title>
<!-- Node1 -->
<g id="node1" class="node">
<title>Node1</title>
<g id="a_node1"><a xlink:title=" ">
<polygon fill="#999999" stroke="#666666" points="62,-131.5 0,-131.5 0,-112.5 62,-112.5 62,-131.5"/>
<text text-anchor="middle" x="31" y="-119.5" font-family="Helvetica,sans-Serif" font-size="10.00">BrokerMgr</text>
</a>
</g>
</g>
<!-- Node2 -->
<g id="node2" class="node">
<title>Node2</title>
<g id="a_node2"><a xlink:href="../../d6/d7f/classdoris_1_1_thread.html#a991176d829e294c2d9ceb42a692cb762" target="_top" xlink:title=" ">
<polygon fill="white" stroke="#666666" points="205,-270.5 98,-270.5 98,-251.5 205,-251.5 205,-270.5"/>
<text text-anchor="middle" x="151.5" y="-258.5" font-family="Helvetica,sans-Serif" font-size="10.00">doris::Thread::create</text>
</a>
</g>
</g>
<!-- Node1&#45;&gt;Node2 -->
<g id="edge1" class="edge">
<title>Node1&#45;&gt;Node2</title>
<path fill="none" stroke="#63b8ff" d="M40.52,-132C60.25,-155.14 109.31,-212.69 134.71,-242.48"/>
<polygon fill="#63b8ff" stroke="#63b8ff" points="131.92,-244.6 141.07,-249.94 137.25,-240.06 131.92,-244.6"/>
</g>
<!-- Node32 -->
<g id="node32" class="node">
<title>Node32</title>
<g id="a_node32"><a xlink:href="../../de/d57/classdoris_1_1_broker_mgr.html#ad6563c2a33258ef13e98b050159f1f36" target="_top" xlink:title=" ">
<polygon fill="white" stroke="#666666" points="186,-110.5 117,-110.5 117,-91.5 186,-91.5 186,-110.5"/>
<text text-anchor="middle" x="151.5" y="-98.5" font-family="Helvetica,sans-Serif" font-size="10.00">ping_worker</text>
</a>
</g>
</g>
<!-- Node1&#45;&gt;Node32 -->
<g id="edge41" class="edge">
<title>Node1&#45;&gt;Node32</title>
<path fill="none" stroke="#63b8ff" d="M62.21,-116.65C75.3,-114.33 90.91,-111.56 105.34,-109"/>
<polygon fill="#63b8ff" stroke="#63b8ff" points="105.85,-112.47 115.09,-107.28 104.63,-105.57 105.85,-112.47"/>
</g>
<!-- Node3 -->
<g id="node3" class="node">
<title>Node3</title>
<g id="a_node3"><a xlink:href="../../d6/d7f/classdoris_1_1_thread.html#a062636dfb373c6c8bf29861121bef9b8" target="_top" xlink:title=" ">
<polygon fill="white" stroke="#666666" points="846.5,-191.5 729.5,-191.5 729.5,-172.5 846.5,-172.5 846.5,-191.5"/>
<text text-anchor="middle" x="788" y="-179.5" font-family="Helvetica,sans-Serif" font-size="10.00">doris::Thread::category</text>
</a>
</g>
</g>
<!-- Node2&#45;&gt;Node3 -->
<g id="edge2" class="edge">
<title>Node2&#45;&gt;Node3</title>
<path fill="none" stroke="#63b8ff" d="M200.09,-251.01C249.17,-240.72 327.93,-224.21 396,-210 472.88,-193.95 490.88,-182.04 569,-174 617.63,-168.99 630.14,-172.19 679,-174 691.57,-174.46 704.95,-175.23 717.85,-176.11"/>
<polygon fill="#63b8ff" stroke="#63b8ff" points="717.3,-179.58 727.52,-176.81 717.8,-172.6 717.3,-179.58"/>
</g>
<!-- Node4 -->
<g id="node4" class="node">
<title>Node4</title>
<g id="a_node4"><a xlink:href="../../d6/d7f/classdoris_1_1_thread.html#a24dcbf29c0d6cd766009a182a6484e3b" target="_top" xlink:title=" ">
<polygon fill="white" stroke="#666666" points="840,-475.5 736,-475.5 736,-456.5 840,-456.5 840,-475.5"/>
<text text-anchor="middle" x="788" y="-463.5" font-family="Helvetica,sans-Serif" font-size="10.00">doris::Thread::name</text>
</a>
</g>
</g>
<!-- Node2&#45;&gt;Node4 -->
<g id="edge3" class="edge">
<title>Node2&#45;&gt;Node4</title>
<path fill="none" stroke="#63b8ff" d="M156.16,-270.71C173.85,-315.91 255.41,-505.77 396,-559 513.63,-603.53 561.08,-602.77 679,-559 718.99,-544.16 754.09,-507.14 772.76,-484.54"/>
<polygon fill="#63b8ff" stroke="#63b8ff" points="775.25,-487.02 778.77,-477.02 769.79,-482.64 775.25,-487.02"/>
</g>
<!-- Node5 -->
<g id="node5" class="node">
<title>Node5</title>
<g id="a_node5"><a xlink:href="../../d6/d7f/classdoris_1_1_thread.html#acef0f500ecf2a00e9eda98254ff48704" target="_top" xlink:title=" ">
<polygon fill="white" stroke="#666666" points="350,-413 251,-413 251,-383 350,-383 350,-413"/>
<text text-anchor="start" x="259" y="-401" font-family="Helvetica,sans-Serif" font-size="10.00">doris::Thread::start</text>
<text text-anchor="middle" x="300.5" y="-390" font-family="Helvetica,sans-Serif" font-size="10.00">_thread</text>
</a>
</g>
</g>
<!-- Node2&#45;&gt;Node5 -->
<g id="edge4" class="edge">
<title>Node2&#45;&gt;Node5</title>
<path fill="none" stroke="#63b8ff" d="M163.07,-270.85C186.28,-292.48 242.2,-344.6 274.79,-374.97"/>
<polygon fill="#63b8ff" stroke="#63b8ff" points="272.11,-377.26 281.82,-381.52 276.89,-372.14 272.11,-377.26"/>
</g>
<!-- Node5&#45;&gt;Node3 -->
<g id="edge5" class="edge">
<title>Node5&#45;&gt;Node3</title>
<path fill="none" stroke="#63b8ff" d="M314.87,-382.6C350.94,-342.38 455.21,-234.65 569,-196 616.96,-179.71 674.22,-176.61 718.02,-177.37"/>
<polygon fill="#63b8ff" stroke="#63b8ff" points="717.82,-180.86 727.91,-177.62 718,-173.86 717.82,-180.86"/>
</g>
<!-- Node5&#45;&gt;Node4 -->
<g id="edge9" class="edge">
<title>Node5&#45;&gt;Node4</title>
<path fill="none" stroke="#63b8ff" d="M350.26,-384.74C399.73,-374.19 476.81,-365.91 533,-398 560.34,-413.61 541.92,-442.95 569,-459 618.81,-488.51 686.88,-485.27 733.64,-477.87"/>
<polygon fill="#63b8ff" stroke="#63b8ff" points="733.99,-481.36 743.25,-476.23 732.81,-474.46 733.99,-481.36"/>
</g>
<!-- Node6 -->
<g id="node6" class="node">
<title>Node6</title>
<g id="a_node6"><a xlink:href="../../d6/d98/classscoped__refptr.html#aed182ab5a4742a6fc2f9fe79773c12e1" target="_top" xlink:title=" ">
<polygon fill="white" stroke="#666666" points="512,-512.5 417,-512.5 417,-493.5 512,-493.5 512,-512.5"/>
<text text-anchor="middle" x="464.5" y="-500.5" font-family="Helvetica,sans-Serif" font-size="10.00">scoped_refptr::get</text>
</a>
</g>
</g>
<!-- Node5&#45;&gt;Node6 -->
<g id="edge6" class="edge">
<title>Node5&#45;&gt;Node6</title>
<path fill="none" stroke="#63b8ff" d="M314.28,-413.39C331.08,-432.66 362.44,-465.39 396,-484 399.4,-485.89 403.01,-487.6 406.71,-489.15"/>
<polygon fill="#63b8ff" stroke="#63b8ff" points="405.32,-492.37 415.91,-492.58 407.77,-485.81 405.32,-492.37"/>
</g>
<!-- Node7 -->
<g id="node7" class="node">
<title>Node7</title>
<g id="a_node7"><a xlink:href="../../d6/d7f/classdoris_1_1_thread.html#a24972e9182906498b3b509f1e41f8e8b" target="_top" xlink:title=" ">
<polygon fill="white" stroke="#666666" points="510.5,-475 418.5,-475 418.5,-445 510.5,-445 510.5,-475"/>
<text text-anchor="start" x="426.5" y="-463" font-family="Helvetica,sans-Serif" font-size="10.00">doris::Thread::init</text>
<text text-anchor="middle" x="464.5" y="-452" font-family="Helvetica,sans-Serif" font-size="10.00">_threadmgr</text>
</a>
</g>
</g>
<!-- Node5&#45;&gt;Node7 -->
<g id="edge7" class="edge">
<title>Node5&#45;&gt;Node7</title>
<path fill="none" stroke="#63b8ff" d="M338.62,-413.33C355.98,-420.4 376.98,-428.8 396,-436 400.07,-437.54 404.29,-439.11 408.54,-440.67"/>
<polygon fill="#63b8ff" stroke="#63b8ff" points="407.09,-443.87 417.69,-443.99 409.48,-437.29 407.09,-443.87"/>
</g>
<!-- Node8 -->
<g id="node8" class="node">
<title>Node8</title>
<g id="a_node8"><a xlink:href="../../d6/d94/namespacedoris.html#a246b77ff277603909347bed3d5c387aa" target="_top" xlink:title=" ">
<polygon fill="white" stroke="#666666" points="533,-426.5 396,-426.5 396,-407.5 533,-407.5 533,-426.5"/>
<text text-anchor="middle" x="464.5" y="-414.5" font-family="Helvetica,sans-Serif" font-size="10.00">doris::MakeScopedCleanup</text>
</a>
</g>
</g>
<!-- Node5&#45;&gt;Node8 -->
<g id="edge8" class="edge">
<title>Node5&#45;&gt;Node8</title>
<path fill="none" stroke="#63b8ff" d="M350.11,-403.7C360.98,-404.98 372.79,-406.36 384.54,-407.74"/>
<polygon fill="#63b8ff" stroke="#63b8ff" points="383.92,-411.19 394.26,-408.88 384.73,-404.24 383.92,-411.19"/>
</g>
<!-- Node9 -->
<g id="node9" class="node">
<title>Node9</title>
<g id="a_node9"><a xlink:href="../../d9/d8d/classdoris_1_1_status.html#a6ec1a217f203269ab53d2290d602db24" target="_top" xlink:title=" ">
<polygon fill="white" stroke="#666666" points="510.5,-549.5 418.5,-549.5 418.5,-530.5 510.5,-530.5 510.5,-549.5"/>
<text text-anchor="middle" x="464.5" y="-537.5" font-family="Helvetica,sans-Serif" font-size="10.00">doris::Status::OK</text>
</a>
</g>
</g>
<!-- Node5&#45;&gt;Node9 -->
<g id="edge10" class="edge">
<title>Node5&#45;&gt;Node9</title>
<path fill="none" stroke="#63b8ff" d="M308.8,-413.19C322.24,-439.51 353.5,-493.53 396,-522 399.64,-524.44 403.59,-526.54 407.7,-528.36"/>
<polygon fill="#63b8ff" stroke="#63b8ff" points="406.13,-531.51 416.72,-531.8 408.62,-524.97 406.13,-531.51"/>
</g>
<!-- Node11 -->
<g id="node11" class="node">
<title>Node11</title>
<g id="a_node11"><a xlink:href="../../d6/d7f/classdoris_1_1_thread.html#a16246b6cad0b9889ed2c2fccebf1d0b7" target="_top" xlink:title=" ">
<polygon fill="white" stroke="#666666" points="525.5,-351 403.5,-351 403.5,-321 525.5,-321 525.5,-351"/>
<text text-anchor="start" x="411.5" y="-339" font-family="Helvetica,sans-Serif" font-size="10.00">doris::Thread::supervise</text>
<text text-anchor="middle" x="464.5" y="-328" font-family="Helvetica,sans-Serif" font-size="10.00">_thread</text>
</a>
</g>
</g>
<!-- Node5&#45;&gt;Node11 -->
<g id="edge12" class="edge">
<title>Node5&#45;&gt;Node11</title>
<path fill="none" stroke="#63b8ff" d="M341.96,-382.51C363.4,-374.31 389.95,-364.15 412.75,-355.42"/>
<polygon fill="#63b8ff" stroke="#63b8ff" points="413.77,-358.78 421.86,-351.94 411.27,-352.24 413.77,-358.78"/>
</g>
<!-- Node10 -->
<g id="node10" class="node">
<title>Node10</title>
<g id="a_node10"><a xlink:href="../../d9/d8d/classdoris_1_1_status.html#aafde58df1b2a6a91d5b674373be3ffc5" target="_top" xlink:title=" ">
<polygon fill="white" stroke="#666666" points="677.5,-549.5 570.5,-549.5 570.5,-530.5 677.5,-530.5 677.5,-549.5"/>
<text text-anchor="middle" x="624" y="-537.5" font-family="Helvetica,sans-Serif" font-size="10.00">doris::Status::Status</text>
</a>
</g>
</g>
<!-- Node9&#45;&gt;Node10 -->
<g id="edge11" class="edge">
<title>Node9&#45;&gt;Node10</title>
<path fill="none" stroke="#63b8ff" d="M510.63,-540C525.7,-540 542.79,-540 559.01,-540"/>
<polygon fill="#63b8ff" stroke="#63b8ff" points="558.55,-543.5 568.55,-540 558.55,-536.5 558.55,-543.5"/>
</g>
<!-- Node11&#45;&gt;Node3 -->
<g id="edge13" class="edge">
<title>Node11&#45;&gt;Node3</title>
<path fill="none" stroke="#63b8ff" d="M477.48,-320.73C495.18,-299.24 530.41,-260.3 569,-239 615.16,-213.52 673.13,-199.07 717.69,-191.1"/>
<polygon fill="#63b8ff" stroke="#63b8ff" points="718.25,-194.56 727.51,-189.42 717.07,-187.66 718.25,-194.56"/>
</g>
<!-- Node11&#45;&gt;Node4 -->
<g id="edge32" class="edge">
<title>Node11&#45;&gt;Node4</title>
<path fill="none" stroke="#63b8ff" d="M512.14,-351.33C519.62,-355.07 526.89,-359.59 533,-365 556.84,-386.14 542.9,-408.72 569,-427 614.29,-458.72 677.49,-467.11 724.19,-468.37"/>
<polygon fill="#63b8ff" stroke="#63b8ff" points="724.12,-471.87 734.17,-468.52 724.23,-464.87 724.12,-471.87"/>
</g>
<!-- Node12 -->
<g id="node12" class="node">
<title>Node12</title>
<g id="a_node12"><a xlink:href="../../d6/d7f/classdoris_1_1_thread.html#a2cef1e84c944d396ac5a65f05fb487e7" target="_top" xlink:title=" ">
<polygon fill="white" stroke="#666666" points="679,-326 569,-326 569,-296 679,-296 679,-326"/>
<text text-anchor="start" x="577" y="-314" font-family="Helvetica,sans-Serif" font-size="10.00">doris::Thread::current</text>
<text text-anchor="middle" x="624" y="-303" font-family="Helvetica,sans-Serif" font-size="10.00">_thread_id</text>
</a>
</g>
</g>
<!-- Node11&#45;&gt;Node12 -->
<g id="edge14" class="edge">
<title>Node11&#45;&gt;Node12</title>
<path fill="none" stroke="#63b8ff" d="M525.94,-326.41C536.26,-324.77 547.03,-323.06 557.47,-321.4"/>
<polygon fill="#63b8ff" stroke="#63b8ff" points="557.82,-324.89 567.15,-319.86 556.73,-317.98 557.82,-324.89"/>
</g>
<!-- Node18 -->
<g id="node18" class="node">
<title>Node18</title>
<g id="a_node18"><a xlink:href="../../d6/d7f/classdoris_1_1_thread.html#ac35ff2d46560b9a0736fd67daef4e0aa" target="_top" xlink:title=" ">
<polygon fill="white" stroke="#666666" points="675.5,-278 572.5,-278 572.5,-248 675.5,-248 675.5,-278"/>
<text text-anchor="start" x="580.5" y="-266" font-family="Helvetica,sans-Serif" font-size="10.00">doris::Thread::finish</text>
<text text-anchor="middle" x="624" y="-255" font-family="Helvetica,sans-Serif" font-size="10.00">_thread</text>
</a>
</g>
</g>
<!-- Node11&#45;&gt;Node18 -->
<g id="edge21" class="edge">
<title>Node11&#45;&gt;Node18</title>
<path fill="none" stroke="#63b8ff" d="M497.58,-320.57C517.97,-310.82 544.97,-298.03 569,-287 571.75,-285.74 574.58,-284.45 577.43,-283.16"/>
<polygon fill="#63b8ff" stroke="#63b8ff" points="578.73,-286.41 586.42,-279.12 575.86,-280.03 578.73,-286.41"/>
</g>
<!-- Node26 -->
<g id="node26" class="node">
<title>Node26</title>
<g id="a_node26"><a xlink:href="../../de/dcd/atomicops_8h.html#a731e905899b30b6d6877147de39a6b39" target="_top" xlink:title=" ">
<polygon fill="white" stroke="#666666" points="664.5,-363.5 583.5,-363.5 583.5,-344.5 664.5,-344.5 664.5,-363.5"/>
<text text-anchor="middle" x="624" y="-351.5" font-family="Helvetica,sans-Serif" font-size="10.00">Release_Store</text>
</a>
</g>
</g>
<!-- Node11&#45;&gt;Node26 -->
<g id="edge33" class="edge">
<title>Node11&#45;&gt;Node26</title>
<path fill="none" stroke="#63b8ff" d="M525.94,-342.91C541.14,-344.64 557.3,-346.49 571.98,-348.17"/>
<polygon fill="#63b8ff" stroke="#63b8ff" points="571.56,-351.64 581.89,-349.3 572.35,-344.69 571.56,-351.64"/>
</g>
<!-- Node28 -->
<g id="node28" class="node">
<title>Node28</title>
<g id="a_node28"><a xlink:href="../../df/dcb/namespacestrings.html#a4f3ca92d957daf4bd11169509bdb79ef" target="_top" xlink:title=" ">
<polygon fill="white" stroke="#666666" points="672,-400.5 576,-400.5 576,-381.5 672,-381.5 672,-400.5"/>
<text text-anchor="middle" x="624" y="-388.5" font-family="Helvetica,sans-Serif" font-size="10.00">strings::Substitute</text>
</a>
</g>
</g>
<!-- Node11&#45;&gt;Node28 -->
<g id="edge36" class="edge">
<title>Node11&#45;&gt;Node28</title>
<path fill="none" stroke="#63b8ff" d="M509.79,-351.47C532.99,-359.57 561.15,-369.4 583.58,-377.24"/>
<polygon fill="#63b8ff" stroke="#63b8ff" points="582.39,-380.52 592.98,-380.52 584.69,-373.92 582.39,-380.52"/>
</g>
<!-- Node13 -->
<g id="node13" class="node">
<title>Node13</title>
<g id="a_node13"><a xlink:href="../../d6/d7f/classdoris_1_1_thread.html#ab31a6deb635379ffbcabeac994cb27c2" target="_top" xlink:title=" ">
<polygon fill="white" stroke="#666666" points="833,-325.5 743,-325.5 743,-306.5 833,-306.5 833,-325.5"/>
<text text-anchor="middle" x="788" y="-313.5" font-family="Helvetica,sans-Serif" font-size="10.00">doris::Thread::tid</text>
</a>
</g>
</g>
<!-- Node12&#45;&gt;Node13 -->
<g id="edge15" class="edge">
<title>Node12&#45;&gt;Node13</title>
<path fill="none" stroke="#63b8ff" d="M679.39,-312.68C696.12,-313.2 714.56,-313.76 731.37,-314.28"/>
<polygon fill="#63b8ff" stroke="#63b8ff" points="731.09,-317.78 741.19,-314.59 731.31,-310.78 731.09,-317.78"/>
</g>
<!-- Node14 -->
<g id="node14" class="node">
<title>Node14</title>
<g id="a_node14"><a xlink:href="../../dc/d42/namespacebase_1_1subtle.html#af5c61a0416c41ffad86c0f88d259aff8" target="_top" xlink:title=" ">
<polygon fill="white" stroke="#666666" points="1361,-295.5 1226,-295.5 1226,-276.5 1361,-276.5 1361,-295.5"/>
<text text-anchor="middle" x="1293.5" y="-283.5" font-family="Helvetica,sans-Serif" font-size="10.00">base::subtle::Acquire_Load</text>
</a>
</g>
</g>
<!-- Node13&#45;&gt;Node14 -->
<g id="edge16" class="edge">
<title>Node13&#45;&gt;Node14</title>
<path fill="none" stroke="#63b8ff" d="M833.25,-314.48C907.19,-311.78 1060.53,-305.54 1190,-296 1197.82,-295.42 1205.96,-294.75 1214.1,-294.03"/>
<polygon fill="#63b8ff" stroke="#63b8ff" points="1214.4,-297.52 1224.04,-293.13 1213.77,-290.55 1214.4,-297.52"/>
</g>
<!-- Node16 -->
<g id="node16" class="node">
<title>Node16</title>
<g id="a_node16"><a xlink:href="../../d6/d7f/classdoris_1_1_thread.html#a858d4cdf8f14c9f7bf3936151db145ac" target="_top" xlink:title=" ">
<polygon fill="white" stroke="#666666" points="1018,-288 920,-288 920,-258 1018,-258 1018,-288"/>
<text text-anchor="start" x="928" y="-276" font-family="Helvetica,sans-Serif" font-size="10.00">doris::Thread::wait</text>
<text text-anchor="middle" x="969" y="-265" font-family="Helvetica,sans-Serif" font-size="10.00">_for_tid</text>
</a>
</g>
</g>
<!-- Node13&#45;&gt;Node16 -->
<g id="edge18" class="edge">
<title>Node13&#45;&gt;Node16</title>
<path fill="none" stroke="#63b8ff" d="M830.52,-306.03C853.73,-300.45 883.05,-293.41 908.65,-287.26"/>
<polygon fill="#63b8ff" stroke="#63b8ff" points="909.36,-290.69 918.27,-284.95 907.72,-283.88 909.36,-290.69"/>
</g>
<!-- Node15 -->
<g id="node15" class="node">
<title>Node15</title>
<g id="a_node15"><a xlink:href="../../dc/d42/namespacebase_1_1subtle.html#a8227003ebda7d9b733c44e106e7ab607" target="_top" xlink:title=" ">
<polygon fill="white" stroke="#666666" points="1537,-316.5 1397,-316.5 1397,-297.5 1537,-297.5 1537,-316.5"/>
<text text-anchor="middle" x="1467" y="-304.5" font-family="Helvetica,sans-Serif" font-size="10.00">base::subtle::MemoryBarrier</text>
</a>
</g>
</g>
<!-- Node14&#45;&gt;Node15 -->
<g id="edge17" class="edge">
<title>Node14&#45;&gt;Node15</title>
<path fill="none" stroke="#63b8ff" d="M1361.3,-294.18C1369.16,-295.14 1377.25,-296.13 1385.27,-297.12"/>
<polygon fill="#63b8ff" stroke="#63b8ff" points="1384.7,-300.57 1395.05,-298.31 1385.55,-293.62 1384.7,-300.57"/>
</g>
<!-- Node17 -->
<g id="node17" class="node">
<title>Node17</title>
<g id="a_node17"><a xlink:href="../../de/dcd/atomicops_8h.html#af5c61a0416c41ffad86c0f88d259aff8" target="_top" xlink:title=" ">
<polygon fill="white" stroke="#666666" points="1171.5,-287.5 1095.5,-287.5 1095.5,-268.5 1171.5,-268.5 1171.5,-287.5"/>
<text text-anchor="middle" x="1133.5" y="-275.5" font-family="Helvetica,sans-Serif" font-size="10.00">Acquire_Load</text>
</a>
</g>
</g>
<!-- Node16&#45;&gt;Node17 -->
<g id="edge19" class="edge">
<title>Node16&#45;&gt;Node17</title>
<path fill="none" stroke="#63b8ff" d="M1018.32,-274.49C1038.98,-275.12 1063.07,-275.86 1083.78,-276.5"/>
<polygon fill="#63b8ff" stroke="#63b8ff" points="1083.59,-280 1093.69,-276.81 1083.81,-273 1083.59,-280"/>
</g>
<!-- Node17&#45;&gt;Node14 -->
<g id="edge20" class="edge">
<title>Node17&#45;&gt;Node14</title>
<path fill="none" stroke="#63b8ff" d="M1171.94,-279.9C1184.74,-280.54 1199.58,-281.29 1214.37,-282.04"/>
<polygon fill="#63b8ff" stroke="#63b8ff" points="1213.96,-285.53 1224.13,-282.54 1214.32,-278.54 1213.96,-285.53"/>
</g>
<!-- Node18&#45;&gt;Node3 -->
<g id="edge22" class="edge">
<title>Node18&#45;&gt;Node3</title>
<path fill="none" stroke="#63b8ff" d="M656.92,-247.56C664.38,-243.49 672.15,-238.87 679,-234 696.7,-221.43 695.95,-211.41 715,-201 718.45,-199.11 722.1,-197.41 725.85,-195.87"/>
<polygon fill="#63b8ff" stroke="#63b8ff" points="726.99,-199.18 735.18,-192.46 724.59,-192.6 726.99,-199.18"/>
</g>
<!-- Node18&#45;&gt;Node4 -->
<g id="edge24" class="edge">
<title>Node18&#45;&gt;Node4</title>
<path fill="none" stroke="#63b8ff" d="M669.17,-278.47C672.8,-280.93 676.16,-283.76 679,-287 716.5,-329.87 682.97,-362.9 715,-410 726.25,-426.54 743.93,-440.39 758.95,-450.18"/>
<polygon fill="#63b8ff" stroke="#63b8ff" points="756.72,-452.92 767.06,-455.22 760.41,-446.97 756.72,-452.92"/>
</g>
<!-- Node19 -->
<g id="node19" class="node">
<title>Node19</title>
<g id="a_node19"><a xlink:href="../../d8/dd6/classdoris_1_1_count_down_latch.html#aeef3685681d09ab577e8c56b2212a770" target="_top" xlink:title=" ">
<polygon fill="white" stroke="#666666" points="847.5,-288 728.5,-288 728.5,-258 847.5,-258 847.5,-288"/>
<text text-anchor="start" x="736.5" y="-276" font-family="Helvetica,sans-Serif" font-size="10.00">doris::CountDownLatch</text>
<text text-anchor="middle" x="788" y="-265" font-family="Helvetica,sans-Serif" font-size="10.00">::count_down</text>
</a>
</g>
</g>
<!-- Node18&#45;&gt;Node19 -->
<g id="edge23" class="edge">
<title>Node18&#45;&gt;Node19</title>
<path fill="none" stroke="#63b8ff" d="M675.81,-266.14C688.79,-266.94 702.97,-267.81 716.73,-268.66"/>
<polygon fill="#63b8ff" stroke="#63b8ff" points="716.45,-272.15 726.65,-269.27 716.88,-265.17 716.45,-272.15"/>
</g>
<!-- Node20 -->
<g id="node20" class="node">
<title>Node20</title>
<g id="a_node20"><a xlink:href="../../dc/d7a/classdoris_1_1_ref_counted_thread_safe.html#a9894d8f46d56be577fbf72635d6904f7" target="_top" xlink:title=" ">
<polygon fill="white" stroke="#666666" points="861,-240 715,-240 715,-210 861,-210 861,-240"/>
<text text-anchor="start" x="723" y="-228" font-family="Helvetica,sans-Serif" font-size="10.00">doris::RefCountedThreadSafe</text>
<text text-anchor="middle" x="788" y="-217" font-family="Helvetica,sans-Serif" font-size="10.00">::Release</text>
</a>
</g>
</g>
<!-- Node18&#45;&gt;Node20 -->
<g id="edge25" class="edge">
<title>Node18&#45;&gt;Node20</title>
<path fill="none" stroke="#63b8ff" d="M675.81,-251.08C686.71,-248.52 698.46,-245.77 710.1,-243.04"/>
<polygon fill="#63b8ff" stroke="#63b8ff" points="710.78,-246.47 719.72,-240.78 709.18,-239.66 710.78,-246.47"/>
</g>
<!-- Node21 -->
<g id="node21" class="node">
<title>Node21</title>
<g id="a_node21"><a xlink:href="../../d0/d65/classdoris_1_1subtle_1_1_ref_counted_thread_safe_base.html#ac5abd56adb86fcbb02e6424371d5fa0a" target="_top" xlink:title=" ">
<polygon fill="white" stroke="#666666" points="1034.5,-240 903.5,-240 903.5,-210 1034.5,-210 1034.5,-240"/>
<text text-anchor="start" x="911.5" y="-228" font-family="Helvetica,sans-Serif" font-size="10.00">doris::subtle::RefCounted</text>
<text text-anchor="middle" x="969" y="-217" font-family="Helvetica,sans-Serif" font-size="10.00">ThreadSafeBase::Release</text>
</a>
</g>
</g>
<!-- Node20&#45;&gt;Node21 -->
<g id="edge26" class="edge">
<title>Node20&#45;&gt;Node21</title>
<path fill="none" stroke="#63b8ff" d="M861.29,-225C871.37,-225 881.76,-225 891.9,-225"/>
<polygon fill="#63b8ff" stroke="#63b8ff" points="891.72,-228.5 901.72,-225 891.72,-221.5 891.72,-228.5"/>
</g>
<!-- Node22 -->
<g id="node22" class="node">
<title>Node22</title>
<g id="a_node22"><a xlink:href="../../d2/dc5/namespacebase.html#a6e3119250618f888bdff079a40a9bc6e" target="_top" xlink:title=" ">
<polygon fill="white" stroke="#666666" points="1185.5,-213.5 1081.5,-213.5 1081.5,-194.5 1185.5,-194.5 1185.5,-213.5"/>
<text text-anchor="middle" x="1133.5" y="-201.5" font-family="Helvetica,sans-Serif" font-size="10.00">base::RefCountDec</text>
</a>
</g>
</g>
<!-- Node21&#45;&gt;Node22 -->
<g id="edge27" class="edge">
<title>Node21&#45;&gt;Node22</title>
<path fill="none" stroke="#63b8ff" d="M1034.69,-216.64C1046.24,-215.15 1058.26,-213.59 1069.75,-212.11"/>
<polygon fill="#63b8ff" stroke="#63b8ff" points="1070.07,-215.6 1079.54,-210.84 1069.17,-208.66 1070.07,-215.6"/>
</g>
<!-- Node25 -->
<g id="node25" class="node">
<title>Node25</title>
<g id="a_node25"><a xlink:href="../../d2/dc5/namespacebase.html#a60a3a4872762efa98af927132d1bf90f" target="_top" xlink:title=" ">
<polygon fill="white" stroke="#666666" points="1190,-250.5 1077,-250.5 1077,-231.5 1190,-231.5 1190,-250.5"/>
<text text-anchor="middle" x="1133.5" y="-238.5" font-family="Helvetica,sans-Serif" font-size="10.00">base::RefCountIsZero</text>
</a>
</g>
</g>
<!-- Node21&#45;&gt;Node25 -->
<g id="edge30" class="edge">
<title>Node21&#45;&gt;Node25</title>
<path fill="none" stroke="#63b8ff" d="M1034.69,-231.37C1044.79,-232.36 1055.24,-233.39 1065.39,-234.39"/>
<polygon fill="#63b8ff" stroke="#63b8ff" points="1064.88,-237.86 1075.18,-235.36 1065.57,-230.89 1064.88,-237.86"/>
</g>
<!-- Node23 -->
<g id="node23" class="node">
<title>Node23</title>
<g id="a_node23"><a xlink:href="../../d2/dc5/namespacebase.html#af920fc644d372858d1442afe6744bfa4" target="_top" xlink:title=" ">
<polygon fill="white" stroke="#666666" points="1349,-213.5 1238,-213.5 1238,-194.5 1349,-194.5 1349,-213.5"/>
<text text-anchor="middle" x="1293.5" y="-201.5" font-family="Helvetica,sans-Serif" font-size="10.00">base::RefCountDecN</text>
</a>
</g>
</g>
<!-- Node22&#45;&gt;Node23 -->
<g id="edge28" class="edge">
<title>Node22&#45;&gt;Node23</title>
<path fill="none" stroke="#63b8ff" d="M1185.8,-204C1198.75,-204 1212.84,-204 1226.41,-204"/>
<polygon fill="#63b8ff" stroke="#63b8ff" points="1226.13,-207.5 1236.13,-204 1226.13,-200.5 1226.13,-207.5"/>
</g>
<!-- Node24 -->
<g id="node24" class="node">
<title>Node24</title>
<g id="a_node24"><a xlink:href="../../dc/d42/namespacebase_1_1subtle.html#ad79514e8ecd776445eca569256801441" target="_top" xlink:title=" ">
<polygon fill="white" stroke="#666666" points="1519,-219 1415,-219 1415,-189 1519,-189 1519,-219"/>
<text text-anchor="start" x="1423" y="-207" font-family="Helvetica,sans-Serif" font-size="10.00">base::subtle::Barrier</text>
<text text-anchor="middle" x="1467" y="-196" font-family="Helvetica,sans-Serif" font-size="10.00">_AtomicIncrement</text>
</a>
</g>
</g>
<!-- Node23&#45;&gt;Node24 -->
<g id="edge29" class="edge">
<title>Node23&#45;&gt;Node24</title>
<path fill="none" stroke="#63b8ff" d="M1349.24,-204C1366.44,-204 1385.58,-204 1403.3,-204"/>
<polygon fill="#63b8ff" stroke="#63b8ff" points="1403.19,-207.5 1413.19,-204 1403.19,-200.5 1403.19,-207.5"/>
</g>
<!-- Node25&#45;&gt;Node14 -->
<g id="edge31" class="edge">
<title>Node25&#45;&gt;Node14</title>
<path fill="none" stroke="#63b8ff" d="M1169.57,-250.99C1192.27,-257.45 1222.08,-265.94 1246.65,-272.94"/>
<polygon fill="#63b8ff" stroke="#63b8ff" points="1245.5,-276.25 1256.08,-275.63 1247.42,-269.52 1245.5,-276.25"/>
</g>
<!-- Node27 -->
<g id="node27" class="node">
<title>Node27</title>
<g id="a_node27"><a xlink:href="../../dc/d42/namespacebase_1_1subtle.html#a731e905899b30b6d6877147de39a6b39" target="_top" xlink:title=" ">
<polygon fill="white" stroke="#666666" points="1349.5,-360 1237.5,-360 1237.5,-330 1349.5,-330 1349.5,-360"/>
<text text-anchor="start" x="1245.5" y="-348" font-family="Helvetica,sans-Serif" font-size="10.00">base::subtle::Release</text>
<text text-anchor="middle" x="1293.5" y="-337" font-family="Helvetica,sans-Serif" font-size="10.00">_Store</text>
</a>
</g>
</g>
<!-- Node26&#45;&gt;Node27 -->
<g id="edge34" class="edge">
<title>Node26&#45;&gt;Node27</title>
<path fill="none" stroke="#63b8ff" d="M664.76,-353.46C775.45,-351.97 1088.12,-347.76 1225.89,-345.9"/>
<polygon fill="#63b8ff" stroke="#63b8ff" points="1225.62,-349.4 1235.58,-345.77 1225.53,-342.4 1225.62,-349.4"/>
</g>
<!-- Node27&#45;&gt;Node15 -->
<g id="edge35" class="edge">
<title>Node27&#45;&gt;Node15</title>
<path fill="none" stroke="#63b8ff" d="M1349.71,-332.77C1368.94,-328.51 1390.54,-323.72 1409.85,-319.44"/>
<polygon fill="#63b8ff" stroke="#63b8ff" points="1410.44,-322.9 1419.44,-317.32 1408.92,-316.06 1410.44,-322.9"/>
</g>
<!-- Node28&#45;&gt;Node28 -->
<g id="edge37" class="edge">
<title>Node28&#45;&gt;Node28</title>
<path fill="none" stroke="#63b8ff" d="M599.03,-400.87C587.64,-409.44 595.96,-418.5 624,-418.5 639.77,-418.5 649.3,-415.63 652.6,-411.6"/>
<polygon fill="#63b8ff" stroke="#63b8ff" points="655.98,-410.65 649.46,-402.3 649.34,-412.9 655.98,-410.65"/>
</g>
<!-- Node29 -->
<g id="node29" class="node">
<title>Node29</title>
<g id="a_node29"><a xlink:href="../../df/dcb/namespacestrings.html#ab41a4a9d46a87a619ed25ce45f201137" target="_top" xlink:title=" ">
<polygon fill="white" stroke="#666666" points="861,-401.5 715,-401.5 715,-382.5 861,-382.5 861,-401.5"/>
<text text-anchor="middle" x="788" y="-389.5" font-family="Helvetica,sans-Serif" font-size="10.00">strings::SubstituteAndAppend</text>
</a>
</g>
</g>
<!-- Node28&#45;&gt;Node29 -->
<g id="edge38" class="edge">
<title>Node28&#45;&gt;Node29</title>
<path fill="none" stroke="#63b8ff" d="M672.29,-391.29C682.03,-391.35 692.56,-391.42 703.16,-391.48"/>
<polygon fill="#63b8ff" stroke="#63b8ff" points="703.11,-394.98 713.13,-391.54 703.15,-387.98 703.11,-394.98"/>
</g>
<!-- Node30 -->
<g id="node30" class="node">
<title>Node30</title>
<g id="a_node30"><a xlink:href="../../de/de8/stl__util_8h.html#ab0f5d71a968a1a2b9c8a572dad7fb18b" target="_top" xlink:title=" ">
<polygon fill="white" stroke="#666666" points="1041,-438.5 897,-438.5 897,-419.5 1041,-419.5 1041,-438.5"/>
<text text-anchor="middle" x="969" y="-426.5" font-family="Helvetica,sans-Serif" font-size="10.00">STLStringResizeUninitialized</text>
</a>
</g>
</g>
<!-- Node29&#45;&gt;Node30 -->
<g id="edge39" class="edge">
<title>Node29&#45;&gt;Node30</title>
<path fill="none" stroke="#63b8ff" d="M836.97,-401.92C859.04,-406.48 885.44,-411.93 908.74,-416.75"/>
<polygon fill="#63b8ff" stroke="#63b8ff" points="907.92,-420.15 918.42,-418.75 909.33,-413.3 907.92,-420.15"/>
</g>
<!-- Node31 -->
<g id="node31" class="node">
<title>Node31</title>
<g id="a_node31"><a xlink:href="../../de/de8/stl__util_8h.html#a7245ef7ee9fdcf5adcc274e1e71f5fb3" target="_top" xlink:title=" ">
<polygon fill="white" stroke="#666666" points="1010.5,-401.5 927.5,-401.5 927.5,-382.5 1010.5,-382.5 1010.5,-401.5"/>
<text text-anchor="middle" x="969" y="-389.5" font-family="Helvetica,sans-Serif" font-size="10.00">string_as_array</text>
</a>
</g>
</g>
<!-- Node29&#45;&gt;Node31 -->
<g id="edge40" class="edge">
<title>Node29&#45;&gt;Node31</title>
<path fill="none" stroke="#63b8ff" d="M861.29,-392C879.5,-392 898.7,-392 915.72,-392"/>
<polygon fill="#63b8ff" stroke="#63b8ff" points="915.59,-395.5 925.59,-392 915.59,-388.5 915.59,-395.5"/>
</g>
<!-- Node33 -->
<g id="node33" class="node">
<title>Node33</title>
<g id="a_node33"><a xlink:href="../../de/d57/classdoris_1_1_broker_mgr.html#a883cbe1d9b4550a59b17a313302f3770" target="_top" xlink:title=" ">
<polygon fill="white" stroke="#666666" points="318,-67.5 283,-67.5 283,-48.5 318,-48.5 318,-67.5"/>
<text text-anchor="middle" x="300.5" y="-55.5" font-family="Helvetica,sans-Serif" font-size="10.00">ping</text>
</a>
</g>
</g>
<!-- Node32&#45;&gt;Node33 -->
<g id="edge42" class="edge">
<title>Node32&#45;&gt;Node33</title>
<path fill="none" stroke="#63b8ff" d="M186.22,-91.13C212.16,-83.55 247.54,-73.2 271.83,-66.1"/>
<polygon fill="#63b8ff" stroke="#63b8ff" points="272.7,-69.49 281.31,-63.32 270.73,-62.77 272.7,-69.49"/>
</g>
<!-- Node37 -->
<g id="node37" class="node">
<title>Node37</title>
<g id="a_node37"><a xlink:href="../../d8/dd6/classdoris_1_1_count_down_latch.html#aa22292be5b5e6a85a3349afa662de850" target="_top" xlink:title=" ">
<polygon fill="white" stroke="#666666" points="360,-116 241,-116 241,-86 360,-86 360,-116"/>
<text text-anchor="start" x="249" y="-104" font-family="Helvetica,sans-Serif" font-size="10.00">doris::CountDownLatch</text>
<text text-anchor="middle" x="300.5" y="-93" font-family="Helvetica,sans-Serif" font-size="10.00">::wait_for</text>
</a>
</g>
</g>
<!-- Node32&#45;&gt;Node37 -->
<g id="edge46" class="edge">
<title>Node32&#45;&gt;Node37</title>
<path fill="none" stroke="#63b8ff" d="M186.22,-101C199.06,-101 214.21,-101 229.18,-101"/>
<polygon fill="#63b8ff" stroke="#63b8ff" points="229.04,-104.5 239.04,-101 229.04,-97.5 229.04,-104.5"/>
</g>
<!-- Node34 -->
<g id="node34" class="node">
<title>Node34</title>
<g id="a_node34"><a xlink:href="../../d9/dbd/classdoris_1_1_exec_env.html#a0e209ae5fa12dae6ed1775a984bc12db" target="_top" xlink:title=" ">
<polygon fill="white" stroke="#666666" points="522.5,-116 406.5,-116 406.5,-86 522.5,-86 522.5,-116"/>
<text text-anchor="start" x="414.5" y="-104" font-family="Helvetica,sans-Serif" font-size="10.00">doris::ExecEnv::broker</text>
<text text-anchor="middle" x="464.5" y="-93" font-family="Helvetica,sans-Serif" font-size="10.00">_client_cache</text>
</a>
</g>
</g>
<!-- Node33&#45;&gt;Node34 -->
<g id="edge43" class="edge">
<title>Node33&#45;&gt;Node34</title>
<path fill="none" stroke="#63b8ff" d="M318.23,-62.44C336.43,-67.27 366.71,-75.31 394.92,-82.8"/>
<polygon fill="#63b8ff" stroke="#63b8ff" points="393.99,-86.17 404.56,-85.35 395.79,-79.41 393.99,-86.17"/>
</g>
<!-- Node35 -->
<g id="node35" class="node">
<title>Node35</title>
<g id="a_node35"><a xlink:href="../../d9/d8d/classdoris_1_1_status.html#a03cb7eaa663dc83af68bc28a596d09e6" target="_top" xlink:title=" ">
<polygon fill="white" stroke="#666666" points="509,-67.5 420,-67.5 420,-48.5 509,-48.5 509,-67.5"/>
<text text-anchor="middle" x="464.5" y="-55.5" font-family="Helvetica,sans-Serif" font-size="10.00">doris::Status::ok</text>
</a>
</g>
</g>
<!-- Node33&#45;&gt;Node35 -->
<g id="edge44" class="edge">
<title>Node33&#45;&gt;Node35</title>
<path fill="none" stroke="#63b8ff" d="M318.23,-58C339.32,-58 376.65,-58 408.19,-58"/>
<polygon fill="#63b8ff" stroke="#63b8ff" points="407.99,-61.5 417.99,-58 407.99,-54.5 407.99,-61.5"/>
</g>
<!-- Node36 -->
<g id="node36" class="node">
<title>Node36</title>
<g id="a_node36"><a xlink:href="../../d7/d70/classdoris_1_1_client_connection.html#af962d700d7644aefc29ab69452faab0e" target="_top" xlink:title=" ">
<polygon fill="white" stroke="#666666" points="524,-30 405,-30 405,0 524,0 524,-30"/>
<text text-anchor="start" x="413" y="-18" font-family="Helvetica,sans-Serif" font-size="10.00">doris::ClientConnection</text>
<text text-anchor="middle" x="464.5" y="-7" font-family="Helvetica,sans-Serif" font-size="10.00">::reopen</text>
</a>
</g>
</g>
<!-- Node33&#45;&gt;Node36 -->
<g id="edge45" class="edge">
<title>Node33&#45;&gt;Node36</title>
<path fill="none" stroke="#63b8ff" d="M318.23,-53.56C336.28,-48.77 366.23,-40.82 394.26,-33.38"/>
<polygon fill="#63b8ff" stroke="#63b8ff" points="395.06,-36.79 403.82,-30.84 393.26,-30.02 395.06,-36.79"/>
</g>
</g>
</svg>
