<?xml version="1.0" encoding="UTF-8" standalone="no"?>
<!DOCTYPE svg PUBLIC "-//W3C//DTD SVG 1.1//EN"
 "http://www.w3.org/Graphics/SVG/1.1/DTD/svg11.dtd">
<!-- Generated by graphviz version 7.1.0 (20230121.1956)
 -->
<!-- Title: get_data Pages: 1 -->
<svg width="545pt" height="330pt"
 viewBox="0.00 0.00 545.00 329.50" xmlns="http://www.w3.org/2000/svg" xmlns:xlink="http://www.w3.org/1999/xlink">
<g id="graph0" class="graph" transform="scale(1 1) rotate(0) translate(4 325.5)">
<title>get_data</title>
<!-- Node1 -->
<g id="node1" class="node">
<title>Node1</title>
<g id="a_node1"><a xlink:title=" ">
<polygon fill="#999999" stroke="#666666" points="537,-197 483,-197 483,-178 537,-178 537,-197"/>
<text text-anchor="middle" x="510" y="-185" font-family="Helvetica,sans-Serif" font-size="10.00">get_data</text>
</a>
</g>
</g>
<!-- Node2 -->
<g id="node2" class="node">
<title>Node2</title>
<g id="a_node2"><a xlink:href="../../d8/d0c/classdoris_1_1_in_list_predicate_base.html#a00609e3cbc170d8688e4bb23bac53143" target="_top" xlink:title=" ">
<polygon fill="white" stroke="#666666" points="443.5,-321.5 312.5,-321.5 312.5,-291.5 443.5,-291.5 443.5,-321.5"/>
<text text-anchor="start" x="320.5" y="-309.5" font-family="Helvetica,sans-Serif" font-size="10.00">doris::InListPredicateBase</text>
<text text-anchor="middle" x="378" y="-298.5" font-family="Helvetica,sans-Serif" font-size="10.00">::_base_evaluate_bit</text>
</a>
</g>
</g>
<!-- Node1&#45;&gt;Node2 -->
<g id="edge1" class="edge">
<title>Node1&#45;&gt;Node2</title>
<path fill="none" stroke="#63b8ff" d="M499.54,-207.4C489.13,-227.46 470.69,-258.14 447,-277.5 440.44,-282.86 432.75,-287.39 424.93,-291.15"/>
<polygon fill="#63b8ff" stroke="#63b8ff" points="502.6,-209.11 503.93,-198.59 496.34,-205.99 502.6,-209.11"/>
</g>
<!-- Node3 -->
<g id="node3" class="node">
<title>Node3</title>
<g id="a_node3"><a xlink:href="../../d7/d0d/classdoris_1_1vectorized_1_1_function_like_base.html#a1d48c9d18d9ed8b637e4edf73aa53b96" target="_top" xlink:title=" ">
<polygon fill="white" stroke="#666666" points="273,-305 135,-305 135,-264 273,-264 273,-305"/>
<text text-anchor="start" x="143" y="-293" font-family="Helvetica,sans-Serif" font-size="10.00">doris::vectorized::</text>
<text text-anchor="start" x="143" y="-282" font-family="Helvetica,sans-Serif" font-size="10.00">FunctionLikeBase::constant</text>
<text text-anchor="middle" x="204" y="-271" font-family="Helvetica,sans-Serif" font-size="10.00">_ends_with_fn_predicate</text>
</a>
</g>
</g>
<!-- Node1&#45;&gt;Node3 -->
<g id="edge2" class="edge">
<title>Node1&#45;&gt;Node3</title>
<path fill="none" stroke="#63b8ff" d="M480.52,-202.62C470.14,-207.76 458.21,-213.28 447,-217.5 389.68,-239.1 322.39,-257.17 273.33,-269.08"/>
<polygon fill="#63b8ff" stroke="#63b8ff" points="481.99,-205.79 489.32,-198.14 478.82,-199.55 481.99,-205.79"/>
</g>
<!-- Node5 -->
<g id="node5" class="node">
<title>Node5</title>
<g id="a_node5"><a xlink:href="../../d7/d0d/classdoris_1_1vectorized_1_1_function_like_base.html#ab045b0a663bb0e57eaa2ee546ff9b6bd" target="_top" xlink:title=" ">
<polygon fill="white" stroke="#666666" points="273,-246 135,-246 135,-205 273,-205 273,-246"/>
<text text-anchor="start" x="143" y="-234" font-family="Helvetica,sans-Serif" font-size="10.00">doris::vectorized::</text>
<text text-anchor="start" x="143" y="-223" font-family="Helvetica,sans-Serif" font-size="10.00">FunctionLikeBase::constant</text>
<text text-anchor="middle" x="204" y="-212" font-family="Helvetica,sans-Serif" font-size="10.00">_equals_fn_predicate</text>
</a>
</g>
</g>
<!-- Node1&#45;&gt;Node5 -->
<g id="edge4" class="edge">
<title>Node1&#45;&gt;Node5</title>
<path fill="none" stroke="#63b8ff" d="M471.15,-192.23C421.75,-198.41 334.43,-209.32 273.32,-216.96"/>
<polygon fill="#63b8ff" stroke="#63b8ff" points="471.56,-195.71 481.05,-190.99 470.7,-188.76 471.56,-195.71"/>
</g>
<!-- Node6 -->
<g id="node6" class="node">
<title>Node6</title>
<g id="a_node6"><a xlink:href="../../d7/d0d/classdoris_1_1vectorized_1_1_function_like_base.html#ae6591d137b6d9f385ab5c9304bc37ac1" target="_top" xlink:title=" ">
<polygon fill="white" stroke="#666666" points="273,-187 135,-187 135,-146 273,-146 273,-187"/>
<text text-anchor="start" x="143" y="-175" font-family="Helvetica,sans-Serif" font-size="10.00">doris::vectorized::</text>
<text text-anchor="start" x="143" y="-164" font-family="Helvetica,sans-Serif" font-size="10.00">FunctionLikeBase::constant</text>
<text text-anchor="middle" x="204" y="-153" font-family="Helvetica,sans-Serif" font-size="10.00">_regex_fn_predicate</text>
</a>
</g>
</g>
<!-- Node1&#45;&gt;Node6 -->
<g id="edge6" class="edge">
<title>Node1&#45;&gt;Node6</title>
<path fill="none" stroke="#63b8ff" d="M471.15,-184.89C421.75,-181.47 334.43,-175.44 273.32,-171.22"/>
<polygon fill="#63b8ff" stroke="#63b8ff" points="470.83,-188.37 481.04,-185.57 471.31,-181.39 470.83,-188.37"/>
</g>
<!-- Node7 -->
<g id="node7" class="node">
<title>Node7</title>
<g id="a_node7"><a xlink:href="../../d7/d0d/classdoris_1_1vectorized_1_1_function_like_base.html#aacc0e9535edbdb89b92d70d4e978fa6c" target="_top" xlink:title=" ">
<polygon fill="white" stroke="#666666" points="447,-159 309,-159 309,-118 447,-118 447,-159"/>
<text text-anchor="start" x="317" y="-147" font-family="Helvetica,sans-Serif" font-size="10.00">doris::vectorized::</text>
<text text-anchor="start" x="317" y="-136" font-family="Helvetica,sans-Serif" font-size="10.00">FunctionLikeBase::constant</text>
<text text-anchor="middle" x="378" y="-125" font-family="Helvetica,sans-Serif" font-size="10.00">_starts_with_fn_predicate</text>
</a>
</g>
</g>
<!-- Node1&#45;&gt;Node7 -->
<g id="edge8" class="edge">
<title>Node1&#45;&gt;Node7</title>
<path fill="none" stroke="#63b8ff" d="M472.03,-173.56C460.36,-169.17 447.2,-164.21 434.53,-159.43"/>
<polygon fill="#63b8ff" stroke="#63b8ff" points="470.68,-176.8 481.28,-177.05 473.15,-170.25 470.68,-176.8"/>
</g>
<!-- Node8 -->
<g id="node8" class="node">
<title>Node8</title>
<g id="a_node8"><a xlink:href="../../d7/d0d/classdoris_1_1vectorized_1_1_function_like_base.html#a8624986b5068f24faf962b07ce78bc11" target="_top" xlink:title=" ">
<polygon fill="white" stroke="#666666" points="447,-100 309,-100 309,-59 447,-59 447,-100"/>
<text text-anchor="start" x="317" y="-88" font-family="Helvetica,sans-Serif" font-size="10.00">doris::vectorized::</text>
<text text-anchor="start" x="317" y="-77" font-family="Helvetica,sans-Serif" font-size="10.00">FunctionLikeBase::constant</text>
<text text-anchor="middle" x="378" y="-66" font-family="Helvetica,sans-Serif" font-size="10.00">_substring_fn_predicate</text>
</a>
</g>
</g>
<!-- Node1&#45;&gt;Node8 -->
<g id="edge10" class="edge">
<title>Node1&#45;&gt;Node8</title>
<path fill="none" stroke="#63b8ff" d="M497.37,-167.98C486.25,-150.71 468.09,-125.78 447,-109.5 442.71,-106.19 438,-103.16 433.12,-100.4"/>
<polygon fill="#63b8ff" stroke="#63b8ff" points="494.29,-169.67 502.54,-176.32 500.24,-165.98 494.29,-169.67"/>
</g>
<!-- Node9 -->
<g id="node9" class="node">
<title>Node9</title>
<g id="a_node9"><a xlink:href="../../d7/d0d/classdoris_1_1vectorized_1_1_function_like_base.html#aafa57c25529e8d3d035b701b89027bd6" target="_top" xlink:title=" ">
<polygon fill="white" stroke="#666666" points="443,-41 313,-41 313,0 443,0 443,-41"/>
<text text-anchor="start" x="321" y="-29" font-family="Helvetica,sans-Serif" font-size="10.00">doris::vectorized::</text>
<text text-anchor="start" x="321" y="-18" font-family="Helvetica,sans-Serif" font-size="10.00">FunctionLikeBase::regexp</text>
<text text-anchor="middle" x="378" y="-7" font-family="Helvetica,sans-Serif" font-size="10.00">_fn_predicate</text>
</a>
</g>
</g>
<!-- Node1&#45;&gt;Node9 -->
<g id="edge12" class="edge">
<title>Node1&#45;&gt;Node9</title>
<path fill="none" stroke="#63b8ff" d="M504.7,-166.68C497.57,-137 480.63,-82.49 447,-49.5 443.98,-46.53 440.6,-43.85 437.02,-41.43"/>
<polygon fill="#63b8ff" stroke="#63b8ff" points="501.25,-167.27 506.84,-176.26 508.08,-165.74 501.25,-167.27"/>
</g>
<!-- Node4 -->
<g id="node4" class="node">
<title>Node4</title>
<g id="a_node4"><a xlink:href="../../d3/d37/classdoris_1_1vectorized_1_1_function_like.html#af852c639f053d7c47972d5a27033dcd1" target="_top" xlink:title=" ">
<polygon fill="white" stroke="#666666" points="99,-156.5 0,-156.5 0,-126.5 99,-126.5 99,-156.5"/>
<text text-anchor="start" x="8" y="-144.5" font-family="Helvetica,sans-Serif" font-size="10.00">doris::vectorized::</text>
<text text-anchor="middle" x="49.5" y="-133.5" font-family="Helvetica,sans-Serif" font-size="10.00">FunctionLike::open</text>
</a>
</g>
</g>
<!-- Node3&#45;&gt;Node4 -->
<g id="edge3" class="edge">
<title>Node3&#45;&gt;Node4</title>
<path fill="none" stroke="#63b8ff" d="M137.49,-257.4C136.65,-256.78 135.82,-256.14 135,-255.5 99.41,-227.42 71.33,-180.81 58.35,-156.82"/>
<polygon fill="#63b8ff" stroke="#63b8ff" points="135.48,-260.26 145.77,-262.78 139.29,-254.39 135.48,-260.26"/>
</g>
<!-- Node5&#45;&gt;Node4 -->
<g id="edge5" class="edge">
<title>Node5&#45;&gt;Node4</title>
<path fill="none" stroke="#63b8ff" d="M140.98,-199.6C138.95,-198.58 136.95,-197.54 135,-196.5 112.61,-184.55 88.47,-168.5 71.75,-156.82"/>
<polygon fill="#63b8ff" stroke="#63b8ff" points="139.42,-202.73 149.95,-203.92 142.47,-196.43 139.42,-202.73"/>
</g>
<!-- Node6&#45;&gt;Node4 -->
<g id="edge7" class="edge">
<title>Node6&#45;&gt;Node4</title>
<path fill="none" stroke="#63b8ff" d="M123.59,-153.48C115.37,-152.13 107.21,-150.8 99.48,-149.53"/>
<polygon fill="#63b8ff" stroke="#63b8ff" points="122.85,-156.91 133.29,-155.07 123.98,-150 122.85,-156.91"/>
</g>
<!-- Node7&#45;&gt;Node4 -->
<g id="edge9" class="edge">
<title>Node7&#45;&gt;Node4</title>
<path fill="none" stroke="#63b8ff" d="M297.28,-137.06C250.09,-136.48 189.13,-136.22 135,-137.5 123.4,-137.77 110.91,-138.26 99.19,-138.8"/>
<polygon fill="#63b8ff" stroke="#63b8ff" points="297.11,-140.56 307.15,-137.19 297.2,-133.56 297.11,-140.56"/>
</g>
<!-- Node8&#45;&gt;Node4 -->
<g id="edge11" class="edge">
<title>Node8&#45;&gt;Node4</title>
<path fill="none" stroke="#63b8ff" d="M297.26,-94.64C235.35,-106.4 151.52,-122.32 99.24,-132.24"/>
<polygon fill="#63b8ff" stroke="#63b8ff" points="297.9,-98.08 307.07,-92.78 296.59,-91.21 297.9,-98.08"/>
</g>
<!-- Node10 -->
<g id="node10" class="node">
<title>Node10</title>
<g id="a_node10"><a xlink:href="../../d3/d37/classdoris_1_1vectorized_1_1_function_like.html#a4d7e840ec81f408127472f23d495c638" target="_top" xlink:title=" ">
<polygon fill="white" stroke="#666666" points="257.5,-46 150.5,-46 150.5,-5 257.5,-5 257.5,-46"/>
<text text-anchor="start" x="158.5" y="-34" font-family="Helvetica,sans-Serif" font-size="10.00">doris::vectorized::</text>
<text text-anchor="start" x="158.5" y="-23" font-family="Helvetica,sans-Serif" font-size="10.00">FunctionLike::like_fn</text>
<text text-anchor="middle" x="204" y="-12" font-family="Helvetica,sans-Serif" font-size="10.00">_predicate</text>
</a>
</g>
</g>
<!-- Node9&#45;&gt;Node10 -->
<g id="edge13" class="edge">
<title>Node9&#45;&gt;Node10</title>
<path fill="none" stroke="#63b8ff" d="M301.75,-22.69C286.95,-23.12 271.73,-23.56 257.86,-23.96"/>
<polygon fill="#63b8ff" stroke="#63b8ff" points="301.55,-26.19 311.44,-22.41 301.34,-19.2 301.55,-26.19"/>
</g>
<!-- Node10&#45;&gt;Node4 -->
<g id="edge14" class="edge">
<title>Node10&#45;&gt;Node4</title>
<path fill="none" stroke="#63b8ff" d="M154.58,-52.35C147.87,-56.54 141.16,-60.99 135,-65.5 109.05,-84.5 81.89,-110.12 65.58,-126.22"/>
<polygon fill="#63b8ff" stroke="#63b8ff" points="156.35,-55.37 163.08,-47.2 152.72,-49.39 156.35,-55.37"/>
</g>
</g>
</svg>
