<?xml version="1.0" encoding="UTF-8" standalone="no"?>
<!DOCTYPE svg PUBLIC "-//W3C//DTD SVG 1.1//EN"
 "http://www.w3.org/Graphics/SVG/1.1/DTD/svg11.dtd">
<!-- Generated by graphviz version 7.1.0 (20230121.1956)
 -->
<!-- Title: do_process_with_other_join_conjuncts Pages: 1 -->
<svg width="774pt" height="681pt"
 viewBox="0.00 0.00 774.00 681.00" xmlns="http://www.w3.org/2000/svg" xmlns:xlink="http://www.w3.org/1999/xlink">
<g id="graph0" class="graph" transform="scale(1 1) rotate(0) translate(4 677)">
<title>do_process_with_other_join_conjuncts</title>
<!-- Node1 -->
<g id="node1" class="node">
<title>Node1</title>
<g id="a_node1"><a xlink:title=" ">
<polygon fill="#999999" stroke="#666666" points="117,-336 0,-336 0,-306 117,-306 117,-336"/>
<text text-anchor="start" x="8" y="-324" font-family="Helvetica,sans-Serif" font-size="10.00">do_process_with_other</text>
<text text-anchor="middle" x="58.5" y="-313" font-family="Helvetica,sans-Serif" font-size="10.00">_join_conjuncts</text>
</a>
</g>
</g>
<!-- Node2 -->
<g id="node2" class="node">
<title>Node2</title>
<g id="a_node2"><a xlink:href="../../d2/d12/classdoris_1_1vectorized_1_1_block.html#ac8bb3912a3ce86b15842e79d0b421204" target="_top" xlink:title=" ">
<polygon fill="white" stroke="#666666" points="286.5,-673 191.5,-673 191.5,-643 286.5,-643 286.5,-673"/>
<text text-anchor="start" x="199.5" y="-661" font-family="Helvetica,sans-Serif" font-size="10.00">doris::vectorized::</text>
<text text-anchor="middle" x="239" y="-650" font-family="Helvetica,sans-Serif" font-size="10.00">Block::clear</text>
</a>
</g>
</g>
<!-- Node1&#45;&gt;Node2 -->
<g id="edge1" class="edge">
<title>Node1&#45;&gt;Node2</title>
<path fill="none" stroke="#63b8ff" d="M59.51,-336.21C60.39,-385.56 69.89,-543.01 153,-629 160.56,-636.82 170.31,-642.53 180.5,-646.71"/>
<polygon fill="#63b8ff" stroke="#63b8ff" points="179.18,-649.95 189.78,-650.01 181.53,-643.36 179.18,-649.95"/>
</g>
<!-- Node3 -->
<g id="node3" class="node">
<title>Node3</title>
<g id="a_node3"><a xlink:href="../../d2/d12/classdoris_1_1vectorized_1_1_block.html#a08f559e5612203aeedf927d660e77b67" target="_top" xlink:title=" ">
<polygon fill="white" stroke="#666666" points="624.5,-629 529.5,-629 529.5,-599 624.5,-599 624.5,-629"/>
<text text-anchor="start" x="537.5" y="-617" font-family="Helvetica,sans-Serif" font-size="10.00">doris::vectorized::</text>
<text text-anchor="middle" x="577" y="-606" font-family="Helvetica,sans-Serif" font-size="10.00">Block::columns</text>
</a>
</g>
</g>
<!-- Node1&#45;&gt;Node3 -->
<g id="edge2" class="edge">
<title>Node1&#45;&gt;Node3</title>
<path fill="none" stroke="#63b8ff" d="M63.56,-336.3C73.37,-370.54 101.42,-454.14 153,-503 254.12,-598.79 427.55,-614.29 517.71,-615.39"/>
<polygon fill="#63b8ff" stroke="#63b8ff" points="517.54,-618.89 527.56,-615.45 517.58,-611.89 517.54,-618.89"/>
</g>
<!-- Node4 -->
<g id="node4" class="node">
<title>Node4</title>
<g id="a_node4"><a xlink:href="../../d2/dfe/classdoris_1_1vectorized_1_1_mutable_block.html#a08f559e5612203aeedf927d660e77b67" target="_top" xlink:title=" ">
<polygon fill="white" stroke="#666666" points="298.5,-360 179.5,-360 179.5,-330 298.5,-330 298.5,-360"/>
<text text-anchor="start" x="187.5" y="-348" font-family="Helvetica,sans-Serif" font-size="10.00">doris::vectorized::</text>
<text text-anchor="middle" x="239" y="-337" font-family="Helvetica,sans-Serif" font-size="10.00">MutableBlock::columns</text>
</a>
</g>
</g>
<!-- Node1&#45;&gt;Node4 -->
<g id="edge3" class="edge">
<title>Node1&#45;&gt;Node4</title>
<path fill="none" stroke="#63b8ff" d="M117.45,-328.79C133.5,-330.95 151.09,-333.31 167.76,-335.56"/>
<polygon fill="#63b8ff" stroke="#63b8ff" points="167.24,-339.02 177.61,-336.88 168.17,-332.08 167.24,-339.02"/>
</g>
<!-- Node5 -->
<g id="node5" class="node">
<title>Node5</title>
<g id="a_node5"><a xlink:href="../../da/d30/class_c_o_w_helper.html#aa14023f47995d24ce0ea777e90a4cb23" target="_top" xlink:title=" ">
<polygon fill="white" stroke="#666666" points="325,-312 153,-312 153,-282 325,-282 325,-312"/>
<text text-anchor="start" x="161" y="-300" font-family="Helvetica,sans-Serif" font-size="10.00">COWHelper&lt; ColumnVectorHelper,</text>
<text text-anchor="middle" x="239" y="-289" font-family="Helvetica,sans-Serif" font-size="10.00"> ColumnVector&lt; T &gt; &gt;::create</text>
</a>
</g>
</g>
<!-- Node1&#45;&gt;Node5 -->
<g id="edge4" class="edge">
<title>Node1&#45;&gt;Node5</title>
<path fill="none" stroke="#63b8ff" d="M117.45,-313.21C125.22,-312.16 133.35,-311.07 141.57,-309.97"/>
<polygon fill="#63b8ff" stroke="#63b8ff" points="141.84,-313.46 151.29,-308.66 140.91,-306.52 141.84,-313.46"/>
</g>
<!-- Node6 -->
<g id="node6" class="node">
<title>Node6</title>
<g id="a_node6"><a xlink:href="../../d2/d12/classdoris_1_1vectorized_1_1_block.html#a7eb80c38778d1cf2cf2cf25fcbd30eaf" target="_top" xlink:title=" ">
<polygon fill="white" stroke="#666666" points="286.5,-446 191.5,-446 191.5,-416 286.5,-416 286.5,-446"/>
<text text-anchor="start" x="199.5" y="-434" font-family="Helvetica,sans-Serif" font-size="10.00">doris::vectorized::</text>
<text text-anchor="middle" x="239" y="-423" font-family="Helvetica,sans-Serif" font-size="10.00">Block::filter_block</text>
</a>
</g>
</g>
<!-- Node1&#45;&gt;Node6 -->
<g id="edge5" class="edge">
<title>Node1&#45;&gt;Node6</title>
<path fill="none" stroke="#63b8ff" d="M73.65,-336.44C90.86,-354.41 121.53,-383.92 153,-402 161.55,-406.91 171.05,-411.16 180.53,-414.78"/>
<polygon fill="#63b8ff" stroke="#63b8ff" points="179.14,-418 189.73,-418.09 181.51,-411.42 179.14,-418"/>
</g>
<!-- Node14 -->
<g id="node14" class="node">
<title>Node14</title>
<g id="a_node14"><a xlink:href="../../d2/d12/classdoris_1_1vectorized_1_1_block.html#a54f8f7eae676dfa49029fff7c7ce8f05" target="_top" xlink:title="References are invalidated after calling functions above.">
<polygon fill="white" stroke="#666666" points="635,-455 519,-455 519,-425 635,-425 635,-455"/>
<text text-anchor="start" x="527" y="-443" font-family="Helvetica,sans-Serif" font-size="10.00">doris::vectorized::</text>
<text text-anchor="middle" x="577" y="-432" font-family="Helvetica,sans-Serif" font-size="10.00">Block::get_by_position</text>
</a>
</g>
</g>
<!-- Node1&#45;&gt;Node14 -->
<g id="edge22" class="edge">
<title>Node1&#45;&gt;Node14</title>
<path fill="none" stroke="#63b8ff" d="M65.58,-336.32C77.67,-364.64 107.52,-425.03 153,-455 276.5,-536.39 340.81,-538.71 483,-498 507.39,-491.02 531.6,-475.58 549.2,-462.39"/>
<polygon fill="#63b8ff" stroke="#63b8ff" points="551.31,-465.18 557.06,-456.28 547.01,-459.65 551.31,-465.18"/>
</g>
<!-- Node17 -->
<g id="node17" class="node">
<title>Node17</title>
<g id="a_node17"><a xlink:href="../../d9/d8d/classdoris_1_1_status.html#a6ec1a217f203269ab53d2290d602db24" target="_top" xlink:title=" ">
<polygon fill="white" stroke="#666666" points="468,-266.5 376,-266.5 376,-247.5 468,-247.5 468,-266.5"/>
<text text-anchor="middle" x="422" y="-254.5" font-family="Helvetica,sans-Serif" font-size="10.00">doris::Status::OK</text>
</a>
</g>
</g>
<!-- Node1&#45;&gt;Node17 -->
<g id="edge24" class="edge">
<title>Node1&#45;&gt;Node17</title>
<path fill="none" stroke="#63b8ff" d="M84.24,-336.33C134.23,-365.13 248.97,-420.04 325,-369 360.08,-345.45 331,-310.76 361,-281 364.55,-277.48 368.67,-274.46 373.07,-271.87"/>
<polygon fill="#63b8ff" stroke="#63b8ff" points="374.3,-275.17 381.66,-267.55 371.16,-268.92 374.3,-275.17"/>
</g>
<!-- Node19 -->
<g id="node19" class="node">
<title>Node19</title>
<g id="a_node19"><a xlink:href="../../d2/dfe/classdoris_1_1vectorized_1_1_mutable_block.html#aeb23bab6dc837fedc89a6c62ed84a161" target="_top" xlink:title=" ">
<polygon fill="white" stroke="#666666" points="297,-263.5 181,-263.5 181,-222.5 297,-222.5 297,-263.5"/>
<text text-anchor="start" x="189" y="-251.5" font-family="Helvetica,sans-Serif" font-size="10.00">doris::vectorized::</text>
<text text-anchor="start" x="189" y="-240.5" font-family="Helvetica,sans-Serif" font-size="10.00">MutableBlock::mutable</text>
<text text-anchor="middle" x="239" y="-229.5" font-family="Helvetica,sans-Serif" font-size="10.00">_columns</text>
</a>
</g>
</g>
<!-- Node1&#45;&gt;Node19 -->
<g id="edge23" class="edge">
<title>Node1&#45;&gt;Node19</title>
<path fill="none" stroke="#63b8ff" d="M86.85,-305.72C105.25,-295.75 130.21,-282.82 153,-273 158.57,-270.6 164.4,-268.24 170.29,-265.96"/>
<polygon fill="#63b8ff" stroke="#63b8ff" points="171.36,-269.3 179.48,-262.49 168.89,-262.75 171.36,-269.3"/>
</g>
<!-- Node20 -->
<g id="node20" class="node">
<title>Node20</title>
<g id="a_node20"><a xlink:href="../../d2/d12/classdoris_1_1vectorized_1_1_block.html#a9be86262d8ec3739dba5e0910c2339ad" target="_top" xlink:title="Returns number of rows from first column in block, not equal to nullptr. If no columns,...">
<polygon fill="white" stroke="#666666" points="286.5,-204 191.5,-204 191.5,-174 286.5,-174 286.5,-204"/>
<text text-anchor="start" x="199.5" y="-192" font-family="Helvetica,sans-Serif" font-size="10.00">doris::vectorized::</text>
<text text-anchor="middle" x="239" y="-181" font-family="Helvetica,sans-Serif" font-size="10.00">Block::rows</text>
</a>
</g>
</g>
<!-- Node1&#45;&gt;Node20 -->
<g id="edge25" class="edge">
<title>Node1&#45;&gt;Node20</title>
<path fill="none" stroke="#63b8ff" d="M68.63,-305.6C83.38,-282.07 114.7,-237.35 153,-213 161.37,-207.68 170.93,-203.52 180.55,-200.27"/>
<polygon fill="#63b8ff" stroke="#63b8ff" points="181.39,-203.67 189.93,-197.41 179.35,-196.97 181.39,-203.67"/>
</g>
<!-- Node21 -->
<g id="node21" class="node">
<title>Node21</title>
<g id="a_node21"><a xlink:href="../../d3/d1e/namespacedoris_1_1vectorized.html#ad06a10d235b14b3215446ac8d89b158e" target="_top" xlink:title=" ">
<polygon fill="white" stroke="#666666" points="297,-155.5 181,-155.5 181,-114.5 297,-114.5 297,-155.5"/>
<text text-anchor="start" x="189" y="-143.5" font-family="Helvetica,sans-Serif" font-size="10.00">doris::vectorized::</text>
<text text-anchor="start" x="189" y="-132.5" font-family="Helvetica,sans-Serif" font-size="10.00">serialize_keys_to_pool</text>
<text text-anchor="middle" x="239" y="-121.5" font-family="Helvetica,sans-Serif" font-size="10.00">_contiguous</text>
</a>
</g>
</g>
<!-- Node1&#45;&gt;Node21 -->
<g id="edge26" class="edge">
<title>Node1&#45;&gt;Node21</title>
<path fill="none" stroke="#63b8ff" d="M64.6,-305.76C75.73,-274.8 105.08,-204.16 153,-165 158.33,-160.65 164.33,-156.9 170.63,-153.69"/>
<polygon fill="#63b8ff" stroke="#63b8ff" points="171.69,-157.05 179.32,-149.69 168.77,-150.69 171.69,-157.05"/>
</g>
<!-- Node22 -->
<g id="node22" class="node">
<title>Node22</title>
<g id="a_node22"><a xlink:href="../../d2/d12/classdoris_1_1vectorized_1_1_block.html#a7c22bac5327618d6ac842348fe2a3780" target="_top" xlink:title=" ">
<polygon fill="white" stroke="#666666" points="286.5,-96 191.5,-96 191.5,-66 286.5,-66 286.5,-96"/>
<text text-anchor="start" x="199.5" y="-84" font-family="Helvetica,sans-Serif" font-size="10.00">doris::vectorized::</text>
<text text-anchor="middle" x="239" y="-73" font-family="Helvetica,sans-Serif" font-size="10.00">Block::swap</text>
</a>
</g>
</g>
<!-- Node1&#45;&gt;Node22 -->
<g id="edge27" class="edge">
<title>Node1&#45;&gt;Node22</title>
<path fill="none" stroke="#63b8ff" d="M61.6,-305.55C67.82,-266 89.8,-160.29 153,-105 160.8,-98.18 170.4,-93.29 180.31,-89.78"/>
<polygon fill="#63b8ff" stroke="#63b8ff" points="181.12,-93.19 189.67,-86.93 179.08,-86.5 181.12,-93.19"/>
</g>
<!-- Node23 -->
<g id="node23" class="node">
<title>Node23</title>
<g id="a_node23"><a xlink:href="../../d2/dfe/classdoris_1_1vectorized_1_1_mutable_block.html#a0a4af389bbb4d5df4512d66a4531c02a" target="_top" xlink:title=" ">
<polygon fill="white" stroke="#666666" points="298.5,-30 179.5,-30 179.5,0 298.5,0 298.5,-30"/>
<text text-anchor="start" x="187.5" y="-18" font-family="Helvetica,sans-Serif" font-size="10.00">doris::vectorized::</text>
<text text-anchor="middle" x="239" y="-7" font-family="Helvetica,sans-Serif" font-size="10.00">MutableBlock::to_block</text>
</a>
</g>
</g>
<!-- Node1&#45;&gt;Node23 -->
<g id="edge28" class="edge">
<title>Node1&#45;&gt;Node23</title>
<path fill="none" stroke="#63b8ff" d="M60.94,-305.57C65.81,-261.48 85.36,-133.17 153,-57 160.7,-48.33 170.61,-41.24 180.92,-35.54"/>
<polygon fill="#63b8ff" stroke="#63b8ff" points="182.19,-38.82 189.52,-31.16 179.02,-32.58 182.19,-38.82"/>
</g>
<!-- Node7 -->
<g id="node7" class="node">
<title>Node7</title>
<g id="a_node7"><a xlink:href="../../df/db2/classdoris_1_1vectorized_1_1_p_o_d_array.html#adc1e16b293a89a9ccc9541058b5ca560" target="_top" xlink:title=" ">
<polygon fill="white" stroke="#666666" points="624.5,-407 529.5,-407 529.5,-377 624.5,-377 624.5,-407"/>
<text text-anchor="start" x="537.5" y="-395" font-family="Helvetica,sans-Serif" font-size="10.00">doris::vectorized::</text>
<text text-anchor="middle" x="577" y="-384" font-family="Helvetica,sans-Serif" font-size="10.00">PODArray::data</text>
</a>
</g>
</g>
<!-- Node6&#45;&gt;Node7 -->
<g id="edge6" class="edge">
<title>Node6&#45;&gt;Node7</title>
<path fill="none" stroke="#63b8ff" d="M286.72,-425.58C347.11,-418.57 452.26,-406.36 517.78,-398.76"/>
<polygon fill="#63b8ff" stroke="#63b8ff" points="518.1,-402.24 527.63,-397.61 517.3,-395.29 518.1,-402.24"/>
</g>
<!-- Node9 -->
<g id="node9" class="node">
<title>Node9</title>
<g id="a_node9"><a xlink:href="../../d2/d12/classdoris_1_1vectorized_1_1_block.html#ac792f9b07de8cc5cf44c1cddcb3889e3" target="_top" xlink:title=" ">
<polygon fill="white" stroke="#666666" points="477,-586.5 367,-586.5 367,-545.5 477,-545.5 477,-586.5"/>
<text text-anchor="start" x="375" y="-574.5" font-family="Helvetica,sans-Serif" font-size="10.00">doris::vectorized::</text>
<text text-anchor="start" x="375" y="-563.5" font-family="Helvetica,sans-Serif" font-size="10.00">Block::erase_useless</text>
<text text-anchor="middle" x="422" y="-552.5" font-family="Helvetica,sans-Serif" font-size="10.00">_column</text>
</a>
</g>
</g>
<!-- Node6&#45;&gt;Node9 -->
<g id="edge8" class="edge">
<title>Node6&#45;&gt;Node9</title>
<path fill="none" stroke="#63b8ff" d="M260.76,-446.49C290.81,-468.9 346.88,-510.72 384.08,-538.46"/>
<polygon fill="#63b8ff" stroke="#63b8ff" points="381.78,-541.11 391.89,-544.29 385.96,-535.5 381.78,-541.11"/>
</g>
<!-- Node12 -->
<g id="node12" class="node">
<title>Node12</title>
<g id="a_node12"><a xlink:href="../../d2/d12/classdoris_1_1vectorized_1_1_block.html#aa070952cbe0b73fb1bb7f44f8ad14f82" target="_top" xlink:title=" ">
<polygon fill="white" stroke="#666666" points="469.5,-364.5 374.5,-364.5 374.5,-323.5 469.5,-323.5 469.5,-364.5"/>
<text text-anchor="start" x="382.5" y="-352.5" font-family="Helvetica,sans-Serif" font-size="10.00">doris::vectorized::</text>
<text text-anchor="start" x="382.5" y="-341.5" font-family="Helvetica,sans-Serif" font-size="10.00">Block::filter_block</text>
<text text-anchor="middle" x="422" y="-330.5" font-family="Helvetica,sans-Serif" font-size="10.00">_internal</text>
</a>
</g>
</g>
<!-- Node6&#45;&gt;Node12 -->
<g id="edge12" class="edge">
<title>Node6&#45;&gt;Node12</title>
<path fill="none" stroke="#63b8ff" d="M286.68,-417.31C299.36,-413 312.92,-407.82 325,-402 342.11,-393.76 344.8,-388.9 361,-379 365.52,-376.24 370.26,-373.39 375,-370.58"/>
<polygon fill="#63b8ff" stroke="#63b8ff" points="376.55,-373.73 383.39,-365.63 372.99,-367.7 376.55,-373.73"/>
</g>
<!-- Node6&#45;&gt;Node14 -->
<g id="edge17" class="edge">
<title>Node6&#45;&gt;Node14</title>
<path fill="none" stroke="#63b8ff" d="M286.72,-432.25C343.96,-433.78 441.42,-436.4 507.23,-438.16"/>
<polygon fill="#63b8ff" stroke="#63b8ff" points="507.12,-441.66 517.21,-438.43 507.31,-434.66 507.12,-441.66"/>
</g>
<!-- Node15 -->
<g id="node15" class="node">
<title>Node15</title>
<g id="a_node15"><a xlink:href="../../d5/d9d/classdoris_1_1vectorized_1_1_p_o_d_array_base.html#a259cb5a711406a8c3e5d937eb9350cca" target="_top" xlink:title=" ">
<polygon fill="white" stroke="#666666" points="631,-311 523,-311 523,-281 631,-281 631,-311"/>
<text text-anchor="start" x="531" y="-299" font-family="Helvetica,sans-Serif" font-size="10.00">doris::vectorized::</text>
<text text-anchor="middle" x="577" y="-288" font-family="Helvetica,sans-Serif" font-size="10.00">PODArrayBase::size</text>
</a>
</g>
</g>
<!-- Node6&#45;&gt;Node15 -->
<g id="edge21" class="edge">
<title>Node6&#45;&gt;Node15</title>
<path fill="none" stroke="#63b8ff" d="M286.93,-417.06C300.47,-411.3 314.42,-403.45 325,-393 352.16,-366.16 329.78,-336.97 361,-315 404.36,-284.48 465.48,-281.9 511.47,-285.69"/>
<polygon fill="#63b8ff" stroke="#63b8ff" points="511.03,-289.16 521.31,-286.63 511.69,-282.19 511.03,-289.16"/>
</g>
<!-- Node16 -->
<g id="node16" class="node">
<title>Node16</title>
<g id="a_node16"><a xlink:href="../../df/d15/classdoris_1_1vectorized_1_1_column_vector.html#a3206c08675c03058605f3a6e5a452b5c" target="_top" xlink:title=" ">
<polygon fill="white" stroke="#666666" points="483,-489 361,-489 361,-459 483,-459 483,-489"/>
<text text-anchor="start" x="369" y="-477" font-family="Helvetica,sans-Serif" font-size="10.00">doris::vectorized::</text>
<text text-anchor="middle" x="422" y="-466" font-family="Helvetica,sans-Serif" font-size="10.00">ColumnVector::get_data</text>
</a>
</g>
</g>
<!-- Node6&#45;&gt;Node16 -->
<g id="edge18" class="edge">
<title>Node6&#45;&gt;Node16</title>
<path fill="none" stroke="#63b8ff" d="M286.61,-442.07C305.79,-446.63 328.44,-452.01 349.62,-457.04"/>
<polygon fill="#63b8ff" stroke="#63b8ff" points="348.52,-460.38 359.06,-459.29 350.14,-453.57 348.52,-460.38"/>
</g>
<!-- Node6&#45;&gt;Node17 -->
<g id="edge19" class="edge">
<title>Node6&#45;&gt;Node17</title>
<path fill="none" stroke="#63b8ff" d="M286.83,-423.55C300.69,-419.28 314.84,-412.57 325,-402 363.88,-361.55 323.18,-322.44 361,-281 364.02,-277.69 367.56,-274.83 371.38,-272.36"/>
<polygon fill="#63b8ff" stroke="#63b8ff" points="372.85,-275.54 379.99,-267.7 369.52,-269.38 372.85,-275.54"/>
</g>
<!-- Node8 -->
<g id="node8" class="node">
<title>Node8</title>
<g id="a_node8"><a xlink:href="../../df/db2/classdoris_1_1vectorized_1_1_p_o_d_array.html#a8e612adde07f46d3398ac6962d676a66" target="_top" xlink:title=" ">
<polygon fill="white" stroke="#666666" points="766,-407 671,-407 671,-377 766,-377 766,-407"/>
<text text-anchor="start" x="679" y="-395" font-family="Helvetica,sans-Serif" font-size="10.00">doris::vectorized::</text>
<text text-anchor="middle" x="718.5" y="-384" font-family="Helvetica,sans-Serif" font-size="10.00">PODArray::t_start</text>
</a>
</g>
</g>
<!-- Node7&#45;&gt;Node8 -->
<g id="edge7" class="edge">
<title>Node7&#45;&gt;Node8</title>
<path fill="none" stroke="#63b8ff" d="M624.84,-392C635.88,-392 647.78,-392 659.26,-392"/>
<polygon fill="#63b8ff" stroke="#63b8ff" points="659.03,-395.5 669.03,-392 659.03,-388.5 659.03,-395.5"/>
</g>
<!-- Node9&#45;&gt;Node3 -->
<g id="edge9" class="edge">
<title>Node9&#45;&gt;Node3</title>
<path fill="none" stroke="#63b8ff" d="M477.37,-583.06C490.79,-587.27 505.21,-591.79 518.76,-596.04"/>
<polygon fill="#63b8ff" stroke="#63b8ff" points="517.37,-599.27 527.96,-598.93 519.47,-592.6 517.37,-599.27"/>
</g>
<!-- Node10 -->
<g id="node10" class="node">
<title>Node10</title>
<g id="a_node10"><a xlink:href="../../d2/d12/classdoris_1_1vectorized_1_1_block.html#a9d6412d01018cbe3a62047e8cda05507" target="_top" xlink:title="remove the column at the specified position">
<polygon fill="white" stroke="#666666" points="624.5,-581 529.5,-581 529.5,-551 624.5,-551 624.5,-581"/>
<text text-anchor="start" x="537.5" y="-569" font-family="Helvetica,sans-Serif" font-size="10.00">doris::vectorized::</text>
<text text-anchor="middle" x="577" y="-558" font-family="Helvetica,sans-Serif" font-size="10.00">Block::erase</text>
</a>
</g>
</g>
<!-- Node9&#45;&gt;Node10 -->
<g id="edge10" class="edge">
<title>Node9&#45;&gt;Node10</title>
<path fill="none" stroke="#63b8ff" d="M477.37,-566C490.53,-566 504.63,-566 517.95,-566"/>
<polygon fill="#63b8ff" stroke="#63b8ff" points="517.89,-569.5 527.89,-566 517.89,-562.5 517.89,-569.5"/>
</g>
<!-- Node11 -->
<g id="node11" class="node">
<title>Node11</title>
<g id="a_node11"><a xlink:href="../../d2/d12/classdoris_1_1vectorized_1_1_block.html#a77876dcf62594f5de42179964e5bbda0" target="_top" xlink:title=" ">
<polygon fill="white" stroke="#666666" points="766,-581 671,-581 671,-551 766,-551 766,-581"/>
<text text-anchor="start" x="679" y="-569" font-family="Helvetica,sans-Serif" font-size="10.00">doris::vectorized::</text>
<text text-anchor="middle" x="718.5" y="-558" font-family="Helvetica,sans-Serif" font-size="10.00">Block::erase_impl</text>
</a>
</g>
</g>
<!-- Node10&#45;&gt;Node11 -->
<g id="edge11" class="edge">
<title>Node10&#45;&gt;Node11</title>
<path fill="none" stroke="#63b8ff" d="M624.84,-566C635.88,-566 647.78,-566 659.26,-566"/>
<polygon fill="#63b8ff" stroke="#63b8ff" points="659.03,-569.5 669.03,-566 659.03,-562.5 659.03,-569.5"/>
</g>
<!-- Node12&#45;&gt;Node7 -->
<g id="edge14" class="edge">
<title>Node12&#45;&gt;Node7</title>
<path fill="none" stroke="#63b8ff" d="M469.74,-358.66C485.02,-363.46 502.17,-368.84 518.17,-373.86"/>
<polygon fill="#63b8ff" stroke="#63b8ff" points="516.99,-377.15 527.58,-376.81 519.08,-370.48 516.99,-377.15"/>
</g>
<!-- Node13 -->
<g id="node13" class="node">
<title>Node13</title>
<g id="a_node13"><a xlink:href="../../d1/d97/namespacedoris_1_1simd.html#a654cb15803d4b93a304e5c59142922ce" target="_top" xlink:title=" ">
<polygon fill="white" stroke="#666666" points="624.5,-359 529.5,-359 529.5,-329 624.5,-329 624.5,-359"/>
<text text-anchor="start" x="537.5" y="-347" font-family="Helvetica,sans-Serif" font-size="10.00">doris::simd::count</text>
<text text-anchor="middle" x="577" y="-336" font-family="Helvetica,sans-Serif" font-size="10.00">_zero_num</text>
</a>
</g>
</g>
<!-- Node12&#45;&gt;Node13 -->
<g id="edge13" class="edge">
<title>Node12&#45;&gt;Node13</title>
<path fill="none" stroke="#63b8ff" d="M469.74,-344C484.87,-344 501.84,-344 517.71,-344"/>
<polygon fill="#63b8ff" stroke="#63b8ff" points="517.51,-347.5 527.51,-344 517.51,-340.5 517.51,-347.5"/>
</g>
<!-- Node12&#45;&gt;Node14 -->
<g id="edge15" class="edge">
<title>Node12&#45;&gt;Node14</title>
<path fill="none" stroke="#63b8ff" d="M447.11,-364.71C465.86,-380.15 492.98,-401.07 519,-416 521.16,-417.24 523.39,-418.45 525.67,-419.63"/>
<polygon fill="#63b8ff" stroke="#63b8ff" points="523.96,-422.68 534.48,-423.9 527.01,-416.39 523.96,-422.68"/>
</g>
<!-- Node12&#45;&gt;Node15 -->
<g id="edge16" class="edge">
<title>Node12&#45;&gt;Node15</title>
<path fill="none" stroke="#63b8ff" d="M469.74,-329.34C484.23,-324.79 500.42,-319.71 515.7,-314.92"/>
<polygon fill="#63b8ff" stroke="#63b8ff" points="516.69,-318.27 525.19,-311.94 514.6,-311.59 516.69,-318.27"/>
</g>
<!-- Node18 -->
<g id="node18" class="node">
<title>Node18</title>
<g id="a_node18"><a xlink:href="../../d9/d8d/classdoris_1_1_status.html#aafde58df1b2a6a91d5b674373be3ffc5" target="_top" xlink:title=" ">
<polygon fill="white" stroke="#666666" points="630.5,-262.5 523.5,-262.5 523.5,-243.5 630.5,-243.5 630.5,-262.5"/>
<text text-anchor="middle" x="577" y="-250.5" font-family="Helvetica,sans-Serif" font-size="10.00">doris::Status::Status</text>
</a>
</g>
</g>
<!-- Node17&#45;&gt;Node18 -->
<g id="edge20" class="edge">
<title>Node17&#45;&gt;Node18</title>
<path fill="none" stroke="#63b8ff" d="M468.49,-255.81C482.04,-255.46 497.16,-255.06 511.68,-254.68"/>
<polygon fill="#63b8ff" stroke="#63b8ff" points="511.73,-258.18 521.64,-254.42 511.55,-251.18 511.73,-258.18"/>
</g>
<!-- Node23&#45;&gt;Node23 -->
<g id="edge29" class="edge">
<title>Node23&#45;&gt;Node23</title>
<path fill="none" stroke="#63b8ff" d="M207.27,-30.28C200.22,-39.41 210.8,-48 239,-48 254.42,-48 264.58,-45.43 269.46,-41.61"/>
<polygon fill="#63b8ff" stroke="#63b8ff" points="272.92,-42.11 270.56,-31.78 265.97,-41.33 272.92,-42.11"/>
</g>
</g>
</svg>
