<?xml version="1.0" encoding="UTF-8" standalone="no"?>
<!DOCTYPE svg PUBLIC "-//W3C//DTD SVG 1.1//EN"
 "http://www.w3.org/Graphics/SVG/1.1/DTD/svg11.dtd">
<!-- Generated by graphviz version 7.1.0 (20230121.1956)
 -->
<!-- Title: reset Pages: 1 -->
<svg width="161pt" height="64pt"
 viewBox="0.00 0.00 161.00 64.00" xmlns="http://www.w3.org/2000/svg" xmlns:xlink="http://www.w3.org/1999/xlink">
<g id="graph0" class="graph" transform="scale(1 1) rotate(0) translate(4 60)">
<title>reset</title>
<!-- Node1 -->
<g id="node1" class="node">
<title>Node1</title>
<g id="a_node1"><a xlink:title=" ">
<polygon fill="#999999" stroke="#666666" points="38,-37 0,-37 0,-18 38,-18 38,-37"/>
<text text-anchor="middle" x="19" y="-25" font-family="Helvetica,sans-Serif" font-size="10.00">reset</text>
</a>
</g>
</g>
<!-- Node2 -->
<g id="node2" class="node">
<title>Node2</title>
<g id="a_node2"><a xlink:href="../../da/db7/class_c_o_w.html#a304ae13388fc1ef08b568f2c73c6485e" target="_top" xlink:title=" ">
<polygon fill="white" stroke="#666666" points="153,-56 74,-56 74,-37 153,-37 153,-56"/>
<text text-anchor="middle" x="113.5" y="-44" font-family="Helvetica,sans-Serif" font-size="10.00">COW::add_ref</text>
</a>
</g>
</g>
<!-- Node1&#45;&gt;Node2 -->
<g id="edge1" class="edge">
<title>Node1&#45;&gt;Node2</title>
<path fill="none" stroke="#63b8ff" d="M38.28,-31.25C45.38,-32.71 53.9,-34.46 62.6,-36.25"/>
<polygon fill="#63b8ff" stroke="#63b8ff" points="61.62,-39.62 72.12,-38.21 63.03,-32.77 61.62,-39.62"/>
</g>
<!-- Node3 -->
<g id="node3" class="node">
<title>Node3</title>
<g id="a_node3"><a xlink:href="../../d2/dcf/class_c_o_w_1_1intrusive__ptr.html#ae0004efc13971afea5b6a3e1b4b58874" target="_top" xlink:title=" ">
<polygon fill="white" stroke="#666666" points="148.5,-19 78.5,-19 78.5,0 148.5,0 148.5,-19"/>
<text text-anchor="middle" x="113.5" y="-7" font-family="Helvetica,sans-Serif" font-size="10.00">intrusive_ptr</text>
</a>
</g>
</g>
<!-- Node1&#45;&gt;Node3 -->
<g id="edge2" class="edge">
<title>Node1&#45;&gt;Node3</title>
<path fill="none" stroke="#63b8ff" d="M38.28,-23.94C46.63,-22.32 56.93,-20.31 67.17,-18.32"/>
<polygon fill="#63b8ff" stroke="#63b8ff" points="67.53,-21.82 76.68,-16.47 66.19,-14.95 67.53,-21.82"/>
</g>
</g>
</svg>
