<?xml version="1.0" encoding="UTF-8" standalone="no"?>
<!DOCTYPE svg PUBLIC "-//W3C//DTD SVG 1.1//EN"
 "http://www.w3.org/Graphics/SVG/1.1/DTD/svg11.dtd">
<!-- Generated by graphviz version 7.1.0 (20230121.1956)
 -->
<!-- Title: /Users/dabowang/doris/be/src/http/utils.h Pages: 1 -->
<svg width="1126pt" height="423pt"
 viewBox="0.00 0.00 1126.00 423.00" xmlns="http://www.w3.org/2000/svg" xmlns:xlink="http://www.w3.org/1999/xlink">
<g id="graph0" class="graph" transform="scale(1 1) rotate(0) translate(4 419)">
<title>/Users/dabowang/doris/be/src/http/utils.h</title>
<!-- Node1 -->
<g id="node1" class="node">
<title>Node1</title>
<g id="a_node1"><a xlink:title=" ">
<polygon fill="#999999" stroke="#666666" points="639,-415 522,-415 522,-385 639,-385 639,-415"/>
<text text-anchor="start" x="530" y="-403" font-family="Helvetica,sans-Serif" font-size="10.00">/Users/dabowang/doris</text>
<text text-anchor="middle" x="580.5" y="-392" font-family="Helvetica,sans-Serif" font-size="10.00">/be/src/http/utils.h</text>
</a>
</g>
</g>
<!-- Node2 -->
<g id="node2" class="node">
<title>Node2</title>
<g id="a_node2"><a xlink:href="../../d5/d0c/download__action_8cpp.html" target="_top" xlink:title=" ">
<polygon fill="white" stroke="#666666" points="281.5,-349 141.5,-349 141.5,-308 281.5,-308 281.5,-349"/>
<text text-anchor="start" x="149.5" y="-337" font-family="Helvetica,sans-Serif" font-size="10.00">/Users/dabowang/doris</text>
<text text-anchor="start" x="149.5" y="-326" font-family="Helvetica,sans-Serif" font-size="10.00">/be/src/http/action/download</text>
<text text-anchor="middle" x="211.5" y="-315" font-family="Helvetica,sans-Serif" font-size="10.00">_action.cpp</text>
</a>
</g>
</g>
<!-- Node1&#45;&gt;Node2 -->
<g id="edge1" class="edge">
<title>Node1&#45;&gt;Node2</title>
<path fill="none" stroke="#63b8ff" d="M510.63,-388.39C451.73,-379.09 365.31,-364.66 290.5,-349 287.6,-348.39 284.64,-347.75 281.65,-347.09"/>
<polygon fill="#63b8ff" stroke="#63b8ff" points="509.75,-391.79 520.17,-389.88 510.84,-384.87 509.75,-391.79"/>
</g>
<!-- Node3 -->
<g id="node3" class="node">
<title>Node3</title>
<g id="a_node3"><a xlink:href="../../d5/d78/stream__load_8cpp.html" target="_top" xlink:title=" ">
<polygon fill="white" stroke="#666666" points="427.5,-349 299.5,-349 299.5,-308 427.5,-308 427.5,-349"/>
<text text-anchor="start" x="307.5" y="-337" font-family="Helvetica,sans-Serif" font-size="10.00">/Users/dabowang/doris</text>
<text text-anchor="start" x="307.5" y="-326" font-family="Helvetica,sans-Serif" font-size="10.00">/be/src/http/action/stream</text>
<text text-anchor="middle" x="363.5" y="-315" font-family="Helvetica,sans-Serif" font-size="10.00">_load.cpp</text>
</a>
</g>
</g>
<!-- Node1&#45;&gt;Node3 -->
<g id="edge2" class="edge">
<title>Node1&#45;&gt;Node3</title>
<path fill="none" stroke="#63b8ff" d="M524.47,-381.05C494.18,-371.35 456.7,-359.35 425.54,-349.37"/>
<polygon fill="#63b8ff" stroke="#63b8ff" points="523.24,-384.34 533.83,-384.05 525.38,-377.67 523.24,-384.34"/>
</g>
<!-- Node4 -->
<g id="node4" class="node">
<title>Node4</title>
<g id="a_node4"><a xlink:href="../../d0/d77/stream__load__2pc_8cpp.html" target="_top" xlink:title=" ">
<polygon fill="white" stroke="#666666" points="573.5,-349 445.5,-349 445.5,-308 573.5,-308 573.5,-349"/>
<text text-anchor="start" x="453.5" y="-337" font-family="Helvetica,sans-Serif" font-size="10.00">/Users/dabowang/doris</text>
<text text-anchor="start" x="453.5" y="-326" font-family="Helvetica,sans-Serif" font-size="10.00">/be/src/http/action/stream</text>
<text text-anchor="middle" x="509.5" y="-315" font-family="Helvetica,sans-Serif" font-size="10.00">_load_2pc.cpp</text>
</a>
</g>
</g>
<!-- Node1&#45;&gt;Node4 -->
<g id="edge3" class="edge">
<title>Node1&#45;&gt;Node4</title>
<path fill="none" stroke="#63b8ff" d="M557.68,-376.66C548.73,-367.9 538.54,-357.93 529.85,-349.42"/>
<polygon fill="#63b8ff" stroke="#63b8ff" points="555.11,-379.05 564.71,-383.54 560.01,-374.04 555.11,-379.05"/>
</g>
<!-- Node5 -->
<g id="node5" class="node">
<title>Node5</title>
<g id="a_node5"><a xlink:href="../../d9/df2/http__client_8h.html" target="_top" xlink:title=" ">
<polygon fill="white" stroke="#666666" points="713.5,-343.5 591.5,-343.5 591.5,-313.5 713.5,-313.5 713.5,-343.5"/>
<text text-anchor="start" x="599.5" y="-331.5" font-family="Helvetica,sans-Serif" font-size="10.00">/Users/dabowang/doris</text>
<text text-anchor="middle" x="652.5" y="-320.5" font-family="Helvetica,sans-Serif" font-size="10.00">/be/src/http/http_client.h</text>
</a>
</g>
</g>
<!-- Node1&#45;&gt;Node5 -->
<g id="edge4" class="edge">
<title>Node1&#45;&gt;Node5</title>
<path fill="none" stroke="#63b8ff" d="M603.5,-376.8C614.66,-366.02 627.76,-353.38 637.6,-343.88"/>
<polygon fill="#63b8ff" stroke="#63b8ff" points="601.27,-374.09 596.51,-383.55 606.13,-379.12 601.27,-374.09"/>
</g>
<!-- Node22 -->
<g id="node22" class="node">
<title>Node22</title>
<g id="a_node22"><a xlink:href="../../d8/d96/http_2utils_8cpp.html" target="_top" xlink:title=" ">
<polygon fill="white" stroke="#666666" points="849,-343.5 732,-343.5 732,-313.5 849,-313.5 849,-343.5"/>
<text text-anchor="start" x="740" y="-331.5" font-family="Helvetica,sans-Serif" font-size="10.00">/Users/dabowang/doris</text>
<text text-anchor="middle" x="790.5" y="-320.5" font-family="Helvetica,sans-Serif" font-size="10.00">/be/src/http/utils.cpp</text>
</a>
</g>
</g>
<!-- Node1&#45;&gt;Node22 -->
<g id="edge23" class="edge">
<title>Node1&#45;&gt;Node22</title>
<path fill="none" stroke="#63b8ff" d="M635.19,-380.9C669.96,-369.39 714.37,-354.69 746.79,-343.97"/>
<polygon fill="#63b8ff" stroke="#63b8ff" points="634.1,-377.57 625.7,-384.04 636.3,-384.22 634.1,-377.57"/>
</g>
<!-- Node23 -->
<g id="node23" class="node">
<title>Node23</title>
<g id="a_node23"><a xlink:href="../../d7/d92/web__page__handler_8cpp.html" target="_top" xlink:title=" ">
<polygon fill="white" stroke="#666666" points="984,-349 867,-349 867,-308 984,-308 984,-349"/>
<text text-anchor="start" x="875" y="-337" font-family="Helvetica,sans-Serif" font-size="10.00">/Users/dabowang/doris</text>
<text text-anchor="start" x="875" y="-326" font-family="Helvetica,sans-Serif" font-size="10.00">/be/src/http/web_page</text>
<text text-anchor="middle" x="925.5" y="-315" font-family="Helvetica,sans-Serif" font-size="10.00">_handler.cpp</text>
</a>
</g>
</g>
<!-- Node1&#45;&gt;Node23 -->
<g id="edge24" class="edge">
<title>Node1&#45;&gt;Node23</title>
<path fill="none" stroke="#63b8ff" d="M650.75,-388.46C707.21,-379.49 788.38,-365.46 858.5,-349 861.21,-348.36 863.98,-347.68 866.77,-346.97"/>
<polygon fill="#63b8ff" stroke="#63b8ff" points="650.27,-385 640.94,-390.01 651.36,-391.91 650.27,-385"/>
</g>
<!-- Node6 -->
<g id="node6" class="node">
<title>Node6</title>
<g id="a_node6"><a xlink:href="../../df/d08/es__scan__reader_8h.html" target="_top" xlink:title=" ">
<polygon fill="white" stroke="#666666" points="283.5,-272 159.5,-272 159.5,-231 283.5,-231 283.5,-272"/>
<text text-anchor="start" x="167.5" y="-260" font-family="Helvetica,sans-Serif" font-size="10.00">/Users/dabowang/doris</text>
<text text-anchor="start" x="167.5" y="-249" font-family="Helvetica,sans-Serif" font-size="10.00">/be/src/exec/es/es_scan</text>
<text text-anchor="middle" x="221.5" y="-238" font-family="Helvetica,sans-Serif" font-size="10.00">_reader.h</text>
</a>
</g>
</g>
<!-- Node5&#45;&gt;Node6 -->
<g id="edge5" class="edge">
<title>Node5&#45;&gt;Node6</title>
<path fill="none" stroke="#63b8ff" d="M593.26,-310.34C589.63,-309.5 586.03,-308.71 582.5,-308 455.15,-282.5 419.9,-297.26 292.5,-272 289.62,-271.43 286.68,-270.8 283.72,-270.13"/>
<polygon fill="#63b8ff" stroke="#63b8ff" points="592.13,-313.67 602.68,-312.67 593.81,-306.87 592.13,-313.67"/>
</g>
<!-- Node16 -->
<g id="node16" class="node">
<title>Node16</title>
<g id="a_node16"><a xlink:href="../../d5/d08/http__client_8cpp.html" target="_top" xlink:title=" ">
<polygon fill="white" stroke="#666666" points="435,-266.5 302,-266.5 302,-236.5 435,-236.5 435,-266.5"/>
<text text-anchor="start" x="310" y="-254.5" font-family="Helvetica,sans-Serif" font-size="10.00">/Users/dabowang/doris</text>
<text text-anchor="middle" x="368.5" y="-243.5" font-family="Helvetica,sans-Serif" font-size="10.00">/be/src/http/http_client.cpp</text>
</a>
</g>
</g>
<!-- Node5&#45;&gt;Node16 -->
<g id="edge17" class="edge">
<title>Node5&#45;&gt;Node16</title>
<path fill="none" stroke="#63b8ff" d="M589.89,-310C587.4,-309.32 584.93,-308.65 582.5,-308 520.87,-291.44 505.27,-288.03 443.5,-272 437.25,-270.38 430.71,-268.68 424.2,-266.99"/>
<polygon fill="#63b8ff" stroke="#63b8ff" points="588.89,-313.35 599.46,-312.62 590.74,-306.6 588.89,-313.35"/>
</g>
<!-- Node17 -->
<g id="node17" class="node">
<title>Node17</title>
<g id="a_node17"><a xlink:href="../../d4/d6a/engine__batch__load__task_8cpp.html" target="_top" xlink:title=" ">
<polygon fill="white" stroke="#666666" points="574,-272 453,-272 453,-231 574,-231 574,-272"/>
<text text-anchor="start" x="461" y="-260" font-family="Helvetica,sans-Serif" font-size="10.00">/Users/dabowang/doris</text>
<text text-anchor="start" x="461" y="-249" font-family="Helvetica,sans-Serif" font-size="10.00">/be/src/olap/task/engine</text>
<text text-anchor="middle" x="513.5" y="-238" font-family="Helvetica,sans-Serif" font-size="10.00">_batch_load_task.cpp</text>
</a>
</g>
</g>
<!-- Node5&#45;&gt;Node17 -->
<g id="edge18" class="edge">
<title>Node5&#45;&gt;Node17</title>
<path fill="none" stroke="#63b8ff" d="M615.65,-307.62C595.5,-296.75 570.63,-283.32 550.46,-272.44"/>
<polygon fill="#63b8ff" stroke="#63b8ff" points="613.9,-310.65 624.37,-312.32 617.23,-304.49 613.9,-310.65"/>
</g>
<!-- Node18 -->
<g id="node18" class="node">
<title>Node18</title>
<g id="a_node18"><a xlink:href="../../dd/d55/engine__clone__task_8cpp.html" target="_top" xlink:title=" ">
<polygon fill="white" stroke="#666666" points="713,-272 592,-272 592,-231 713,-231 713,-272"/>
<text text-anchor="start" x="600" y="-260" font-family="Helvetica,sans-Serif" font-size="10.00">/Users/dabowang/doris</text>
<text text-anchor="start" x="600" y="-249" font-family="Helvetica,sans-Serif" font-size="10.00">/be/src/olap/task/engine</text>
<text text-anchor="middle" x="652.5" y="-238" font-family="Helvetica,sans-Serif" font-size="10.00">_clone_task.cpp</text>
</a>
</g>
</g>
<!-- Node5&#45;&gt;Node18 -->
<g id="edge19" class="edge">
<title>Node5&#45;&gt;Node18</title>
<path fill="none" stroke="#63b8ff" d="M652.5,-301.68C652.5,-292.06 652.5,-281.3 652.5,-272.3"/>
<polygon fill="#63b8ff" stroke="#63b8ff" points="649,-301.53 652.5,-311.53 656,-301.53 649,-301.53"/>
</g>
<!-- Node19 -->
<g id="node19" class="node">
<title>Node19</title>
<g id="a_node19"><a xlink:href="../../d8/d3a/small__file__mgr_8cpp.html" target="_top" xlink:title=" ">
<polygon fill="white" stroke="#666666" points="848,-272 731,-272 731,-231 848,-231 848,-272"/>
<text text-anchor="start" x="739" y="-260" font-family="Helvetica,sans-Serif" font-size="10.00">/Users/dabowang/doris</text>
<text text-anchor="start" x="739" y="-249" font-family="Helvetica,sans-Serif" font-size="10.00">/be/src/runtime/small</text>
<text text-anchor="middle" x="789.5" y="-238" font-family="Helvetica,sans-Serif" font-size="10.00">_file_mgr.cpp</text>
</a>
</g>
</g>
<!-- Node5&#45;&gt;Node19 -->
<g id="edge20" class="edge">
<title>Node5&#45;&gt;Node19</title>
<path fill="none" stroke="#63b8ff" d="M688.82,-307.62C708.68,-296.75 733.2,-283.32 753.07,-272.44"/>
<polygon fill="#63b8ff" stroke="#63b8ff" points="687.33,-304.44 680.24,-312.31 690.69,-310.58 687.33,-304.44"/>
</g>
<!-- Node20 -->
<g id="node20" class="node">
<title>Node20</title>
<g id="a_node20"><a xlink:href="../../d3/dbd/user__function__cache_8cpp.html" target="_top" xlink:title=" ">
<polygon fill="white" stroke="#666666" points="983,-272 866,-272 866,-231 983,-231 983,-272"/>
<text text-anchor="start" x="874" y="-260" font-family="Helvetica,sans-Serif" font-size="10.00">/Users/dabowang/doris</text>
<text text-anchor="start" x="874" y="-249" font-family="Helvetica,sans-Serif" font-size="10.00">/be/src/runtime/user</text>
<text text-anchor="middle" x="924.5" y="-238" font-family="Helvetica,sans-Serif" font-size="10.00">_function_cache.cpp</text>
</a>
</g>
</g>
<!-- Node5&#45;&gt;Node20 -->
<g id="edge21" class="edge">
<title>Node5&#45;&gt;Node20</title>
<path fill="none" stroke="#63b8ff" d="M715.72,-310.12C718.35,-309.4 720.95,-308.69 723.5,-308 783.01,-291.83 798.11,-288.62 857.5,-272 860.18,-271.25 862.93,-270.48 865.69,-269.69"/>
<polygon fill="#63b8ff" stroke="#63b8ff" points="715.02,-306.68 706.3,-312.69 716.86,-313.43 715.02,-306.68"/>
</g>
<!-- Node21 -->
<g id="node21" class="node">
<title>Node21</title>
<g id="a_node21"><a xlink:href="../../d3/deb/internal__service_8cpp.html" target="_top" xlink:title=" ">
<polygon fill="white" stroke="#666666" points="1118,-272 1001,-272 1001,-231 1118,-231 1118,-272"/>
<text text-anchor="start" x="1009" y="-260" font-family="Helvetica,sans-Serif" font-size="10.00">/Users/dabowang/doris</text>
<text text-anchor="start" x="1009" y="-249" font-family="Helvetica,sans-Serif" font-size="10.00">/be/src/service/internal</text>
<text text-anchor="middle" x="1059.5" y="-238" font-family="Helvetica,sans-Serif" font-size="10.00">_service.cpp</text>
</a>
</g>
</g>
<!-- Node5&#45;&gt;Node21 -->
<g id="edge22" class="edge">
<title>Node5&#45;&gt;Node21</title>
<path fill="none" stroke="#63b8ff" d="M713.13,-310.27C716.63,-309.45 720.1,-308.69 723.5,-308 841.7,-283.97 874.48,-296.92 992.5,-272 995.23,-271.42 998,-270.79 1000.8,-270.13"/>
<polygon fill="#63b8ff" stroke="#63b8ff" points="712.3,-306.87 703.42,-312.64 713.96,-313.67 712.3,-306.87"/>
</g>
<!-- Node7 -->
<g id="node7" class="node">
<title>Node7</title>
<g id="a_node7"><a xlink:href="../../d5/d87/es__scan__reader_8cpp.html" target="_top" xlink:title=" ">
<polygon fill="white" stroke="#666666" points="140.5,-195 16.5,-195 16.5,-154 140.5,-154 140.5,-195"/>
<text text-anchor="start" x="24.5" y="-183" font-family="Helvetica,sans-Serif" font-size="10.00">/Users/dabowang/doris</text>
<text text-anchor="start" x="24.5" y="-172" font-family="Helvetica,sans-Serif" font-size="10.00">/be/src/exec/es/es_scan</text>
<text text-anchor="middle" x="78.5" y="-161" font-family="Helvetica,sans-Serif" font-size="10.00">_reader.cpp</text>
</a>
</g>
</g>
<!-- Node6&#45;&gt;Node7 -->
<g id="edge6" class="edge">
<title>Node6&#45;&gt;Node7</title>
<path fill="none" stroke="#63b8ff" d="M173.54,-225.35C155.01,-215.63 134.1,-204.66 116.62,-195.49"/>
<polygon fill="#63b8ff" stroke="#63b8ff" points="171.73,-228.35 182.21,-229.9 174.98,-222.15 171.73,-228.35"/>
</g>
<!-- Node8 -->
<g id="node8" class="node">
<title>Node8</title>
<g id="a_node8"><a xlink:href="../../d8/d9b/es__scroll__query_8cpp.html" target="_top" xlink:title=" ">
<polygon fill="white" stroke="#666666" points="284.5,-195 158.5,-195 158.5,-154 284.5,-154 284.5,-195"/>
<text text-anchor="start" x="166.5" y="-183" font-family="Helvetica,sans-Serif" font-size="10.00">/Users/dabowang/doris</text>
<text text-anchor="start" x="166.5" y="-172" font-family="Helvetica,sans-Serif" font-size="10.00">/be/src/exec/es/es_scroll</text>
<text text-anchor="middle" x="221.5" y="-161" font-family="Helvetica,sans-Serif" font-size="10.00">_query.cpp</text>
</a>
</g>
</g>
<!-- Node6&#45;&gt;Node8 -->
<g id="edge7" class="edge">
<title>Node6&#45;&gt;Node8</title>
<path fill="none" stroke="#63b8ff" d="M221.5,-219.36C221.5,-211.24 221.5,-202.7 221.5,-195.33"/>
<polygon fill="#63b8ff" stroke="#63b8ff" points="218,-219.28 221.5,-229.28 225,-219.28 218,-219.28"/>
</g>
<!-- Node9 -->
<g id="node9" class="node">
<title>Node9</title>
<g id="a_node9"><a xlink:href="../../d7/d34/new__es__scanner_8h.html" target="_top" xlink:title=" ">
<polygon fill="white" stroke="#666666" points="420,-195 303,-195 303,-154 420,-154 420,-195"/>
<text text-anchor="start" x="311" y="-183" font-family="Helvetica,sans-Serif" font-size="10.00">/Users/dabowang/doris</text>
<text text-anchor="start" x="311" y="-172" font-family="Helvetica,sans-Serif" font-size="10.00">/be/src/vec/exec/scan</text>
<text text-anchor="middle" x="361.5" y="-161" font-family="Helvetica,sans-Serif" font-size="10.00">/new_es_scanner.h</text>
</a>
</g>
</g>
<!-- Node6&#45;&gt;Node9 -->
<g id="edge8" class="edge">
<title>Node6&#45;&gt;Node9</title>
<path fill="none" stroke="#63b8ff" d="M268.71,-225.21C286.79,-215.52 307.15,-204.62 324.18,-195.49"/>
<polygon fill="#63b8ff" stroke="#63b8ff" points="267.15,-222.08 259.98,-229.88 270.45,-228.25 267.15,-222.08"/>
</g>
<!-- Node10 -->
<g id="node10" class="node">
<title>Node10</title>
<g id="a_node10"><a xlink:href="../../d4/ddf/new__es__scan__node_8cpp.html" target="_top" xlink:title=" ">
<polygon fill="white" stroke="#666666" points="125,-41 0,-41 0,0 125,0 125,-41"/>
<text text-anchor="start" x="8" y="-29" font-family="Helvetica,sans-Serif" font-size="10.00">/Users/dabowang/doris</text>
<text text-anchor="start" x="8" y="-18" font-family="Helvetica,sans-Serif" font-size="10.00">/be/src/vec/exec/scan</text>
<text text-anchor="middle" x="62.5" y="-7" font-family="Helvetica,sans-Serif" font-size="10.00">/new_es_scan_node.cpp</text>
</a>
</g>
</g>
<!-- Node9&#45;&gt;Node10 -->
<g id="edge9" class="edge">
<title>Node9&#45;&gt;Node10</title>
<path fill="none" stroke="#63b8ff" d="M312.22,-148.45C253.23,-118.46 155.66,-68.86 101.6,-41.38"/>
<polygon fill="#63b8ff" stroke="#63b8ff" points="310.56,-151.53 321.06,-152.94 313.73,-145.29 310.56,-151.53"/>
</g>
<!-- Node11 -->
<g id="node11" class="node">
<title>Node11</title>
<g id="a_node11"><a xlink:href="../../d5/d9a/new__es__scan__node_8h.html" target="_top" xlink:title=" ">
<polygon fill="white" stroke="#666666" points="420,-118 303,-118 303,-77 420,-77 420,-118"/>
<text text-anchor="start" x="311" y="-106" font-family="Helvetica,sans-Serif" font-size="10.00">/Users/dabowang/doris</text>
<text text-anchor="start" x="311" y="-95" font-family="Helvetica,sans-Serif" font-size="10.00">/be/src/vec/exec/scan</text>
<text text-anchor="middle" x="361.5" y="-84" font-family="Helvetica,sans-Serif" font-size="10.00">/new_es_scan_node.h</text>
</a>
</g>
</g>
<!-- Node9&#45;&gt;Node11 -->
<g id="edge10" class="edge">
<title>Node9&#45;&gt;Node11</title>
<path fill="none" stroke="#63b8ff" d="M361.5,-142.36C361.5,-134.24 361.5,-125.7 361.5,-118.33"/>
<polygon fill="#63b8ff" stroke="#63b8ff" points="358,-142.28 361.5,-152.28 365,-142.28 358,-142.28"/>
</g>
<!-- Node15 -->
<g id="node15" class="node">
<title>Node15</title>
<g id="a_node15"><a xlink:href="../../df/dbd/new__es__scanner_8cpp.html" target="_top" xlink:title=" ">
<polygon fill="white" stroke="#666666" points="695,-41 578,-41 578,0 695,0 695,-41"/>
<text text-anchor="start" x="586" y="-29" font-family="Helvetica,sans-Serif" font-size="10.00">/Users/dabowang/doris</text>
<text text-anchor="start" x="586" y="-18" font-family="Helvetica,sans-Serif" font-size="10.00">/be/src/vec/exec/scan</text>
<text text-anchor="middle" x="636.5" y="-7" font-family="Helvetica,sans-Serif" font-size="10.00">/new_es_scanner.cpp</text>
</a>
</g>
</g>
<!-- Node9&#45;&gt;Node15 -->
<g id="edge16" class="edge">
<title>Node9&#45;&gt;Node15</title>
<path fill="none" stroke="#63b8ff" d="M407.5,-148.07C461.82,-118.05 551.02,-68.75 600.54,-41.38"/>
<polygon fill="#63b8ff" stroke="#63b8ff" points="405.84,-145 398.78,-152.9 409.22,-151.12 405.84,-145"/>
</g>
<!-- Node11&#45;&gt;Node10 -->
<g id="edge14" class="edge">
<title>Node11&#45;&gt;Node10</title>
<path fill="none" stroke="#63b8ff" d="M291.51,-79.86C246.58,-69.06 187.02,-54.53 134.5,-41 131.49,-40.22 128.41,-39.42 125.3,-38.61"/>
<polygon fill="#63b8ff" stroke="#63b8ff" points="290.6,-83.24 301.14,-82.17 292.23,-76.43 290.6,-83.24"/>
</g>
<!-- Node12 -->
<g id="node12" class="node">
<title>Node12</title>
<g id="a_node12"><a xlink:href="../../d2/d5d/exec__node_8cpp.html" target="_top" xlink:title=" ">
<polygon fill="white" stroke="#666666" points="283.5,-35.5 143.5,-35.5 143.5,-5.5 283.5,-5.5 283.5,-35.5"/>
<text text-anchor="start" x="151.5" y="-23.5" font-family="Helvetica,sans-Serif" font-size="10.00">/Users/dabowang/doris</text>
<text text-anchor="middle" x="213.5" y="-12.5" font-family="Helvetica,sans-Serif" font-size="10.00">/be/src/exec/exec_node.cpp</text>
</a>
</g>
</g>
<!-- Node11&#45;&gt;Node12 -->
<g id="edge11" class="edge">
<title>Node11&#45;&gt;Node12</title>
<path fill="none" stroke="#63b8ff" d="M312.11,-71.47C288.69,-59.6 261.56,-45.85 241.69,-35.79"/>
<polygon fill="#63b8ff" stroke="#63b8ff" points="310.38,-74.52 320.88,-75.91 313.54,-68.27 310.38,-74.52"/>
</g>
<!-- Node13 -->
<g id="node13" class="node">
<title>Node13</title>
<g id="a_node13"><a xlink:href="../../d4/d41/pipeline__fragment__context_8cpp.html" target="_top" xlink:title=" ">
<polygon fill="white" stroke="#666666" points="421,-41 302,-41 302,0 421,0 421,-41"/>
<text text-anchor="start" x="310" y="-29" font-family="Helvetica,sans-Serif" font-size="10.00">/Users/dabowang/doris</text>
<text text-anchor="start" x="310" y="-18" font-family="Helvetica,sans-Serif" font-size="10.00">/be/src/pipeline/pipeline</text>
<text text-anchor="middle" x="361.5" y="-7" font-family="Helvetica,sans-Serif" font-size="10.00">_fragment_context.cpp</text>
</a>
</g>
</g>
<!-- Node11&#45;&gt;Node13 -->
<g id="edge12" class="edge">
<title>Node11&#45;&gt;Node13</title>
<path fill="none" stroke="#63b8ff" d="M361.5,-65.36C361.5,-57.24 361.5,-48.7 361.5,-41.33"/>
<polygon fill="#63b8ff" stroke="#63b8ff" points="358,-65.28 361.5,-75.28 365,-65.28 358,-65.28"/>
</g>
<!-- Node14 -->
<g id="node14" class="node">
<title>Node14</title>
<g id="a_node14"><a xlink:href="../../dd/dfd/plan__fragment__executor_8cpp.html" target="_top" xlink:title=" ">
<polygon fill="white" stroke="#666666" points="560,-41 439,-41 439,0 560,0 560,-41"/>
<text text-anchor="start" x="447" y="-29" font-family="Helvetica,sans-Serif" font-size="10.00">/Users/dabowang/doris</text>
<text text-anchor="start" x="447" y="-18" font-family="Helvetica,sans-Serif" font-size="10.00">/be/src/runtime/plan</text>
<text text-anchor="middle" x="499.5" y="-7" font-family="Helvetica,sans-Serif" font-size="10.00">_fragment_executor.cpp</text>
</a>
</g>
</g>
<!-- Node11&#45;&gt;Node14 -->
<g id="edge13" class="edge">
<title>Node11&#45;&gt;Node14</title>
<path fill="none" stroke="#63b8ff" d="M407.78,-71.35C425.67,-61.63 445.84,-50.66 462.71,-41.49"/>
<polygon fill="#63b8ff" stroke="#63b8ff" points="406.56,-68.03 399.45,-75.88 409.91,-74.18 406.56,-68.03"/>
</g>
<!-- Node11&#45;&gt;Node15 -->
<g id="edge15" class="edge">
<title>Node11&#45;&gt;Node15</title>
<path fill="none" stroke="#63b8ff" d="M431.4,-78.27C471.82,-67.62 523.6,-53.8 569.5,-41 572.18,-40.25 574.93,-39.48 577.7,-38.7"/>
<polygon fill="#63b8ff" stroke="#63b8ff" points="430.56,-74.87 421.78,-80.8 432.35,-81.64 430.56,-74.87"/>
</g>
</g>
</svg>
