<?xml version="1.0" encoding="UTF-8" standalone="no"?>
<!DOCTYPE svg PUBLIC "-//W3C//DTD SVG 1.1//EN"
 "http://www.w3.org/Graphics/SVG/1.1/DTD/svg11.dtd">
<!-- Generated by graphviz version 7.1.0 (20230121.1956)
 -->
<!-- Title: CEscape Pages: 1 -->
<svg width="310pt" height="156pt"
 viewBox="0.00 0.00 310.00 156.00" xmlns="http://www.w3.org/2000/svg" xmlns:xlink="http://www.w3.org/1999/xlink">
<g id="graph0" class="graph" transform="scale(1 1) rotate(0) translate(4 152)">
<title>CEscape</title>
<!-- Node1 -->
<g id="node1" class="node">
<title>Node1</title>
<g id="a_node1"><a xlink:title=" ">
<polygon fill="#999999" stroke="#666666" points="57,-74 0,-74 0,-55 57,-55 57,-74"/>
<text text-anchor="middle" x="28.5" y="-62" font-family="Helvetica,sans-Serif" font-size="10.00">CEscape</text>
</a>
</g>
</g>
<!-- Node1&#45;&gt;Node1 -->
<g id="edge1" class="edge">
<title>Node1&#45;&gt;Node1</title>
<path fill="none" stroke="#63b8ff" d="M10.57,-74.37C2.4,-82.94 8.37,-92 28.5,-92 39.51,-92 46.28,-89.29 48.82,-85.43"/>
<polygon fill="#63b8ff" stroke="#63b8ff" points="52.29,-84.88 46.75,-75.85 45.44,-86.36 52.29,-84.88"/>
</g>
<!-- Node2 -->
<g id="node2" class="node">
<title>Node2</title>
<g id="a_node2"><a xlink:href="../../df/dcb/namespacestrings.html#a743322805de5e6b64ea906c9ac5a6f3f" target="_top" xlink:title=" ">
<polygon fill="white" stroke="#666666" points="187.5,-130 98.5,-130 98.5,-111 187.5,-111 187.5,-130"/>
<text text-anchor="middle" x="143" y="-118" font-family="Helvetica,sans-Serif" font-size="10.00">CEscapeInternal</text>
</a>
</g>
</g>
<!-- Node1&#45;&gt;Node2 -->
<g id="edge2" class="edge">
<title>Node1&#45;&gt;Node2</title>
<path fill="none" stroke="#63b8ff" d="M44.2,-74.38C56.8,-82.57 75.61,-94.19 93,-102.5 95.74,-103.81 98.61,-105.09 101.51,-106.31"/>
<polygon fill="#63b8ff" stroke="#63b8ff" points="100.1,-109.52 110.69,-109.97 102.69,-103.01 100.1,-109.52"/>
</g>
<!-- Node5 -->
<g id="node5" class="node">
<title>Node5</title>
<g id="a_node5"><a xlink:href="../../d4/d96/class_string_piece.html#aa3affb1becdd976aba1036a161a3134d" target="_top" xlink:title=" ">
<polygon fill="white" stroke="#666666" points="189,-93 97,-93 97,-74 189,-74 189,-93"/>
<text text-anchor="middle" x="143" y="-81" font-family="Helvetica,sans-Serif" font-size="10.00">StringPiece::data</text>
</a>
</g>
</g>
<!-- Node1&#45;&gt;Node5 -->
<g id="edge5" class="edge">
<title>Node1&#45;&gt;Node5</title>
<path fill="none" stroke="#63b8ff" d="M57.31,-69.2C65.82,-70.63 75.51,-72.27 85.22,-73.91"/>
<polygon fill="#63b8ff" stroke="#63b8ff" points="84.63,-77.36 95.07,-75.57 85.79,-70.46 84.63,-77.36"/>
</g>
<!-- Node6 -->
<g id="node6" class="node">
<title>Node6</title>
<g id="a_node6"><a xlink:href="../../db/dd9/classgscoped__array.html#a0aa175b22090a2b5df6abd89e12da846" target="_top" xlink:title=" ">
<polygon fill="white" stroke="#666666" points="193,-56 93,-56 93,-37 193,-37 193,-56"/>
<text text-anchor="middle" x="143" y="-44" font-family="Helvetica,sans-Serif" font-size="10.00">gscoped_array::get</text>
</a>
</g>
</g>
<!-- Node1&#45;&gt;Node6 -->
<g id="edge6" class="edge">
<title>Node1&#45;&gt;Node6</title>
<path fill="none" stroke="#63b8ff" d="M57.31,-60.05C64.73,-58.86 73.04,-57.53 81.49,-56.18"/>
<polygon fill="#63b8ff" stroke="#63b8ff" points="81.78,-59.68 91.11,-54.64 80.68,-52.77 81.78,-59.68"/>
</g>
<!-- Node7 -->
<g id="node7" class="node">
<title>Node7</title>
<g id="a_node7"><a xlink:href="../../d4/d96/class_string_piece.html#af9593d4a5ff4274efaf429cb4f9e57cc" target="_top" xlink:title=" ">
<polygon fill="white" stroke="#666666" points="188.5,-19 97.5,-19 97.5,0 188.5,0 188.5,-19"/>
<text text-anchor="middle" x="143" y="-7" font-family="Helvetica,sans-Serif" font-size="10.00">StringPiece::size</text>
</a>
</g>
</g>
<!-- Node1&#45;&gt;Node7 -->
<g id="edge7" class="edge">
<title>Node1&#45;&gt;Node7</title>
<path fill="none" stroke="#63b8ff" d="M45.6,-54.51C58.23,-46.88 76.4,-36.37 93,-28.5 96.49,-26.85 100.16,-25.22 103.86,-23.66"/>
<polygon fill="#63b8ff" stroke="#63b8ff" points="104.87,-27.02 112.83,-20.03 102.25,-20.54 104.87,-27.02"/>
</g>
<!-- Node3 -->
<g id="node3" class="node">
<title>Node3</title>
<g id="a_node3"><a xlink:href="../../d7/d81/ascii__ctype_8h.html#a1d3e5d969e999a3eb3cd9988e481608b" target="_top" xlink:title=" ">
<polygon fill="white" stroke="#666666" points="299.5,-148 231.5,-148 231.5,-129 299.5,-129 299.5,-148"/>
<text text-anchor="middle" x="265.5" y="-136" font-family="Helvetica,sans-Serif" font-size="10.00">ascii_isprint</text>
</a>
</g>
</g>
<!-- Node2&#45;&gt;Node3 -->
<g id="edge3" class="edge">
<title>Node2&#45;&gt;Node3</title>
<path fill="none" stroke="#63b8ff" d="M187.84,-127.05C198.32,-128.61 209.51,-130.29 220.02,-131.86"/>
<polygon fill="#63b8ff" stroke="#63b8ff" points="219.18,-135.27 229.58,-133.28 220.21,-128.35 219.18,-135.27"/>
</g>
<!-- Node4 -->
<g id="node4" class="node">
<title>Node4</title>
<g id="a_node4"><a xlink:href="../../d7/d81/ascii__ctype_8h.html#ae0fb91ccb3eb3be26931d11e6d903bb3" target="_top" xlink:title=" ">
<polygon fill="white" stroke="#666666" points="302,-111 229,-111 229,-92 302,-92 302,-111"/>
<text text-anchor="middle" x="265.5" y="-99" font-family="Helvetica,sans-Serif" font-size="10.00">ascii_isxdigit</text>
</a>
</g>
</g>
<!-- Node2&#45;&gt;Node4 -->
<g id="edge4" class="edge">
<title>Node2&#45;&gt;Node4</title>
<path fill="none" stroke="#63b8ff" d="M187.84,-113.59C197.52,-112.06 207.8,-110.44 217.59,-108.9"/>
<polygon fill="#63b8ff" stroke="#63b8ff" points="217.96,-112.38 227.29,-107.37 216.87,-105.47 217.96,-112.38"/>
</g>
</g>
</svg>
