<?xml version="1.0" encoding="UTF-8" standalone="no"?>
<!DOCTYPE svg PUBLIC "-//W3C//DTD SVG 1.1//EN"
 "http://www.w3.org/Graphics/SVG/1.1/DTD/svg11.dtd">
<!-- Generated by graphviz version 7.1.0 (20230121.1956)
 -->
<!-- Title: CHexEscapeString Pages: 1 -->
<svg width="343pt" height="64pt"
 viewBox="0.00 0.00 343.00 64.00" xmlns="http://www.w3.org/2000/svg" xmlns:xlink="http://www.w3.org/1999/xlink">
<g id="graph0" class="graph" transform="scale(1 1) rotate(0) translate(4 60)">
<title>CHexEscapeString</title>
<!-- Node1 -->
<g id="node1" class="node">
<title>Node1</title>
<g id="a_node1"><a xlink:title=" ">
<polygon fill="#999999" stroke="#666666" points="101,-37 0,-37 0,-18 101,-18 101,-37"/>
<text text-anchor="middle" x="50.5" y="-25" font-family="Helvetica,sans-Serif" font-size="10.00">CHexEscapeString</text>
</a>
</g>
</g>
<!-- Node1&#45;&gt;Node1 -->
<g id="edge4" class="edge">
<title>Node1&#45;&gt;Node1</title>
<path fill="none" stroke="#63b8ff" d="M29.99,-37.37C20.64,-45.94 27.47,-55 50.5,-55 63.09,-55 70.84,-52.29 73.75,-48.43"/>
<polygon fill="#63b8ff" stroke="#63b8ff" points="77.18,-47.7 71.37,-38.84 70.38,-49.39 77.18,-47.7"/>
</g>
<!-- Node2 -->
<g id="node2" class="node">
<title>Node2</title>
<g id="a_node2"><a xlink:href="../../df/dcb/namespacestrings.html#a743322805de5e6b64ea906c9ac5a6f3f" target="_top" xlink:title=" ">
<polygon fill="white" stroke="#666666" points="226,-37 137,-37 137,-18 226,-18 226,-37"/>
<text text-anchor="middle" x="181.5" y="-25" font-family="Helvetica,sans-Serif" font-size="10.00">CEscapeInternal</text>
</a>
</g>
</g>
<!-- Node1&#45;&gt;Node2 -->
<g id="edge1" class="edge">
<title>Node1&#45;&gt;Node2</title>
<path fill="none" stroke="#63b8ff" d="M101.37,-27.5C109.19,-27.5 117.3,-27.5 125.23,-27.5"/>
<polygon fill="#63b8ff" stroke="#63b8ff" points="125.13,-31 135.13,-27.5 125.13,-24 125.13,-31"/>
</g>
<!-- Node3 -->
<g id="node3" class="node">
<title>Node3</title>
<g id="a_node3"><a xlink:href="../../d7/d81/ascii__ctype_8h.html#a1d3e5d969e999a3eb3cd9988e481608b" target="_top" xlink:title=" ">
<polygon fill="white" stroke="#666666" points="332.5,-56 264.5,-56 264.5,-37 332.5,-37 332.5,-56"/>
<text text-anchor="middle" x="298.5" y="-44" font-family="Helvetica,sans-Serif" font-size="10.00">ascii_isprint</text>
</a>
</g>
</g>
<!-- Node2&#45;&gt;Node3 -->
<g id="edge2" class="edge">
<title>Node2&#45;&gt;Node3</title>
<path fill="none" stroke="#63b8ff" d="M226.3,-34.74C235.04,-36.18 244.23,-37.7 252.99,-39.15"/>
<polygon fill="#63b8ff" stroke="#63b8ff" points="252.26,-42.57 262.7,-40.75 253.4,-35.67 252.26,-42.57"/>
</g>
<!-- Node4 -->
<g id="node4" class="node">
<title>Node4</title>
<g id="a_node4"><a xlink:href="../../d7/d81/ascii__ctype_8h.html#ae0fb91ccb3eb3be26931d11e6d903bb3" target="_top" xlink:title=" ">
<polygon fill="white" stroke="#666666" points="335,-19 262,-19 262,0 335,0 335,-19"/>
<text text-anchor="middle" x="298.5" y="-7" font-family="Helvetica,sans-Serif" font-size="10.00">ascii_isxdigit</text>
</a>
</g>
</g>
<!-- Node2&#45;&gt;Node4 -->
<g id="edge3" class="edge">
<title>Node2&#45;&gt;Node4</title>
<path fill="none" stroke="#63b8ff" d="M226.3,-20.64C234.15,-19.42 242.36,-18.13 250.3,-16.89"/>
<polygon fill="#63b8ff" stroke="#63b8ff" points="250.83,-20.35 260.16,-15.34 249.74,-13.43 250.83,-20.35"/>
</g>
</g>
</svg>
