<?xml version="1.0" encoding="UTF-8" standalone="no"?>
<!DOCTYPE svg PUBLIC "-//W3C//DTD SVG 1.1//EN"
 "http://www.w3.org/Graphics/SVG/1.1/DTD/svg11.dtd">
<!-- Generated by graphviz version 7.1.0 (20230121.1956)
 -->
<!-- Title: is_directory Pages: 1 -->
<svg width="496pt" height="64pt"
 viewBox="0.00 0.00 496.00 64.00" xmlns="http://www.w3.org/2000/svg" xmlns:xlink="http://www.w3.org/1999/xlink">
<g id="graph0" class="graph" transform="scale(1 1) rotate(0) translate(4 60)">
<title>is_directory</title>
<!-- Node1 -->
<g id="node1" class="node">
<title>Node1</title>
<g id="a_node1"><a xlink:title=" ">
<polygon fill="#999999" stroke="#666666" points="67,-37 0,-37 0,-18 67,-18 67,-37"/>
<text text-anchor="middle" x="33.5" y="-25" font-family="Helvetica,sans-Serif" font-size="10.00">is_directory</text>
</a>
</g>
</g>
<!-- Node2 -->
<g id="node2" class="node">
<title>Node2</title>
<g id="a_node2"><a xlink:href="../../d6/d94/namespacedoris.html#a1b14155085c2ba09b6521735762a526e" target="_top" xlink:title=" ">
<polygon fill="white" stroke="#666666" points="187,-56 111,-56 111,-37 187,-37 187,-56"/>
<text text-anchor="middle" x="149" y="-44" font-family="Helvetica,sans-Serif" font-size="10.00">doris::io_error</text>
</a>
</g>
</g>
<!-- Node1&#45;&gt;Node2 -->
<g id="edge1" class="edge">
<title>Node1&#45;&gt;Node2</title>
<path fill="none" stroke="#63b8ff" d="M67.33,-33C77.44,-34.69 88.78,-36.59 99.7,-38.41"/>
<polygon fill="#63b8ff" stroke="#63b8ff" points="98.92,-41.83 109.36,-40.03 100.08,-34.93 98.92,-41.83"/>
</g>
<!-- Node5 -->
<g id="node5" class="node">
<title>Node5</title>
<g id="a_node5"><a xlink:href="../../d9/d8d/classdoris_1_1_status.html#a6ec1a217f203269ab53d2290d602db24" target="_top" xlink:title=" ">
<polygon fill="white" stroke="#666666" points="195,-19 103,-19 103,0 195,0 195,-19"/>
<text text-anchor="middle" x="149" y="-7" font-family="Helvetica,sans-Serif" font-size="10.00">doris::Status::OK</text>
</a>
</g>
</g>
<!-- Node1&#45;&gt;Node5 -->
<g id="edge4" class="edge">
<title>Node1&#45;&gt;Node5</title>
<path fill="none" stroke="#63b8ff" d="M67.33,-22.29C74.89,-21.09 83.15,-19.79 91.4,-18.48"/>
<polygon fill="#63b8ff" stroke="#63b8ff" points="91.76,-21.96 101.09,-16.94 90.66,-15.05 91.76,-21.96"/>
</g>
<!-- Node3 -->
<g id="node3" class="node">
<title>Node3</title>
<g id="a_node3"><a xlink:href="../../d6/d94/namespacedoris.html#af86b2d62b93cb1abf90d76b19f857466" target="_top" xlink:title=" ">
<polygon fill="white" stroke="#666666" points="339,-56 231,-56 231,-37 339,-37 339,-56"/>
<text text-anchor="middle" x="285" y="-44" font-family="Helvetica,sans-Serif" font-size="10.00">doris::errno_to_string</text>
</a>
</g>
</g>
<!-- Node2&#45;&gt;Node3 -->
<g id="edge2" class="edge">
<title>Node2&#45;&gt;Node3</title>
<path fill="none" stroke="#63b8ff" d="M187.33,-46.5C197.27,-46.5 208.31,-46.5 219.26,-46.5"/>
<polygon fill="#63b8ff" stroke="#63b8ff" points="219.09,-50 229.09,-46.5 219.09,-43 219.09,-50"/>
</g>
<!-- Node4 -->
<g id="node4" class="node">
<title>Node4</title>
<g id="a_node4"><a xlink:href="../../d6/d94/namespacedoris.html#aec883dd80f7b61509aa4395bf70c6d78" target="_top" xlink:title=" ">
<polygon fill="white" stroke="#666666" points="488,-56 375,-56 375,-37 488,-37 488,-56"/>
<text text-anchor="middle" x="431.5" y="-44" font-family="Helvetica,sans-Serif" font-size="10.00">doris::errno_to_cstring</text>
</a>
</g>
</g>
<!-- Node3&#45;&gt;Node4 -->
<g id="edge3" class="edge">
<title>Node3&#45;&gt;Node4</title>
<path fill="none" stroke="#63b8ff" d="M339.4,-46.5C347.26,-46.5 355.45,-46.5 363.55,-46.5"/>
<polygon fill="#63b8ff" stroke="#63b8ff" points="363.39,-50 373.39,-46.5 363.39,-43 363.39,-50"/>
</g>
<!-- Node6 -->
<g id="node6" class="node">
<title>Node6</title>
<g id="a_node6"><a xlink:href="../../d9/d8d/classdoris_1_1_status.html#aafde58df1b2a6a91d5b674373be3ffc5" target="_top" xlink:title=" ">
<polygon fill="white" stroke="#666666" points="338.5,-19 231.5,-19 231.5,0 338.5,0 338.5,-19"/>
<text text-anchor="middle" x="285" y="-7" font-family="Helvetica,sans-Serif" font-size="10.00">doris::Status::Status</text>
</a>
</g>
</g>
<!-- Node5&#45;&gt;Node6 -->
<g id="edge5" class="edge">
<title>Node5&#45;&gt;Node6</title>
<path fill="none" stroke="#63b8ff" d="M195.37,-9.5C203.3,-9.5 211.69,-9.5 220.01,-9.5"/>
<polygon fill="#63b8ff" stroke="#63b8ff" points="219.77,-13 229.77,-9.5 219.77,-6 219.77,-13"/>
</g>
</g>
</svg>
