<?xml version="1.0" encoding="UTF-8" standalone="no"?>
<!DOCTYPE svg PUBLIC "-//W3C//DTD SVG 1.1//EN"
 "http://www.w3.org/Graphics/SVG/1.1/DTD/svg11.dtd">
<!-- Generated by graphviz version 7.1.0 (20230121.1956)
 -->
<!-- Title: /Users/dabowang/doris/be/src/vec/exprs/table_function/vexplode_json_array.h Pages: 1 -->
<svg width="337pt" height="236pt"
 viewBox="0.00 0.00 336.50 236.00" xmlns="http://www.w3.org/2000/svg" xmlns:xlink="http://www.w3.org/1999/xlink">
<g id="graph0" class="graph" transform="scale(1 1) rotate(0) translate(4 232)">
<title>/Users/dabowang/doris/be/src/vec/exprs/table_function/vexplode_json_array.h</title>
<!-- Node1 -->
<g id="node1" class="node">
<title>Node1</title>
<g id="a_node1"><a xlink:title=" ">
<polygon fill="#999999" stroke="#666666" points="258.5,-228 136.5,-228 136.5,-176 258.5,-176 258.5,-228"/>
<text text-anchor="start" x="144.5" y="-216" font-family="Helvetica,sans-Serif" font-size="10.00">/Users/dabowang/doris</text>
<text text-anchor="start" x="144.5" y="-205" font-family="Helvetica,sans-Serif" font-size="10.00">/be/src/vec/exprs/table</text>
<text text-anchor="start" x="144.5" y="-194" font-family="Helvetica,sans-Serif" font-size="10.00">_function/vexplode_json</text>
<text text-anchor="middle" x="197.5" y="-183" font-family="Helvetica,sans-Serif" font-size="10.00">_array.h</text>
</a>
</g>
</g>
<!-- Node2 -->
<g id="node2" class="node">
<title>Node2</title>
<g id="a_node2"><a xlink:href="../../dd/d06/table__function__factory_8h.html" target="_top" xlink:title=" ">
<polygon fill="white" stroke="#666666" points="188.5,-140 68.5,-140 68.5,-88 188.5,-88 188.5,-140"/>
<text text-anchor="start" x="76.5" y="-128" font-family="Helvetica,sans-Serif" font-size="10.00">/Users/dabowang/doris</text>
<text text-anchor="start" x="76.5" y="-117" font-family="Helvetica,sans-Serif" font-size="10.00">/be/src/vec/exprs/table</text>
<text text-anchor="start" x="76.5" y="-106" font-family="Helvetica,sans-Serif" font-size="10.00">_function/table_function</text>
<text text-anchor="middle" x="128.5" y="-95" font-family="Helvetica,sans-Serif" font-size="10.00">_factory.h</text>
</a>
</g>
</g>
<!-- Node1&#45;&gt;Node2 -->
<g id="edge1" class="edge">
<title>Node1&#45;&gt;Node2</title>
<path fill="none" stroke="#63b8ff" d="M170.03,-166.76C162.99,-157.99 155.54,-148.7 148.92,-140.45"/>
<polygon fill="#63b8ff" stroke="#63b8ff" points="167.24,-168.87 176.22,-174.48 172.7,-164.49 167.24,-168.87"/>
</g>
<!-- Node5 -->
<g id="node5" class="node">
<title>Node5</title>
<g id="a_node5"><a xlink:href="../../d5/dc1/vexplode__json__array_8cpp.html" target="_top" xlink:title=" ">
<polygon fill="white" stroke="#666666" points="328.5,-140 206.5,-140 206.5,-88 328.5,-88 328.5,-140"/>
<text text-anchor="start" x="214.5" y="-128" font-family="Helvetica,sans-Serif" font-size="10.00">/Users/dabowang/doris</text>
<text text-anchor="start" x="214.5" y="-117" font-family="Helvetica,sans-Serif" font-size="10.00">/be/src/vec/exprs/table</text>
<text text-anchor="start" x="214.5" y="-106" font-family="Helvetica,sans-Serif" font-size="10.00">_function/vexplode_json</text>
<text text-anchor="middle" x="267.5" y="-95" font-family="Helvetica,sans-Serif" font-size="10.00">_array.cpp</text>
</a>
</g>
</g>
<!-- Node1&#45;&gt;Node5 -->
<g id="edge4" class="edge">
<title>Node1&#45;&gt;Node5</title>
<path fill="none" stroke="#63b8ff" d="M225.37,-166.76C232.51,-157.99 240.07,-148.7 246.78,-140.45"/>
<polygon fill="#63b8ff" stroke="#63b8ff" points="222.68,-164.52 219.08,-174.49 228.11,-168.94 222.68,-164.52"/>
</g>
<!-- Node3 -->
<g id="node3" class="node">
<title>Node3</title>
<g id="a_node3"><a xlink:href="../../d4/d0c/vtable__function__node_8cpp.html" target="_top" xlink:title=" ">
<polygon fill="white" stroke="#666666" points="119,-46.5 0,-46.5 0,-5.5 119,-5.5 119,-46.5"/>
<text text-anchor="start" x="8" y="-34.5" font-family="Helvetica,sans-Serif" font-size="10.00">/Users/dabowang/doris</text>
<text text-anchor="start" x="8" y="-23.5" font-family="Helvetica,sans-Serif" font-size="10.00">/be/src/vec/exec/vtable</text>
<text text-anchor="middle" x="59.5" y="-12.5" font-family="Helvetica,sans-Serif" font-size="10.00">_function_node.cpp</text>
</a>
</g>
</g>
<!-- Node2&#45;&gt;Node3 -->
<g id="edge2" class="edge">
<title>Node2&#45;&gt;Node3</title>
<path fill="none" stroke="#63b8ff" d="M101.09,-78.83C92.42,-68.03 83.13,-56.45 75.53,-46.98"/>
<polygon fill="#63b8ff" stroke="#63b8ff" points="98.24,-80.87 107.22,-86.48 103.7,-76.49 98.24,-80.87"/>
</g>
<!-- Node4 -->
<g id="node4" class="node">
<title>Node4</title>
<g id="a_node4"><a xlink:href="../../d5/db5/table__function__factory_8cpp.html" target="_top" xlink:title=" ">
<polygon fill="white" stroke="#666666" points="257.5,-52 137.5,-52 137.5,0 257.5,0 257.5,-52"/>
<text text-anchor="start" x="145.5" y="-40" font-family="Helvetica,sans-Serif" font-size="10.00">/Users/dabowang/doris</text>
<text text-anchor="start" x="145.5" y="-29" font-family="Helvetica,sans-Serif" font-size="10.00">/be/src/vec/exprs/table</text>
<text text-anchor="start" x="145.5" y="-18" font-family="Helvetica,sans-Serif" font-size="10.00">_function/table_function</text>
<text text-anchor="middle" x="197.5" y="-7" font-family="Helvetica,sans-Serif" font-size="10.00">_factory.cpp</text>
</a>
</g>
</g>
<!-- Node2&#45;&gt;Node4 -->
<g id="edge3" class="edge">
<title>Node2&#45;&gt;Node4</title>
<path fill="none" stroke="#63b8ff" d="M155.97,-78.76C163.01,-69.99 170.46,-60.7 177.08,-52.45"/>
<polygon fill="#63b8ff" stroke="#63b8ff" points="153.3,-76.49 149.78,-86.48 158.76,-80.87 153.3,-76.49"/>
</g>
</g>
</svg>
