<?xml version="1.0" encoding="UTF-8" standalone="no"?>
<!DOCTYPE svg PUBLIC "-//W3C//DTD SVG 1.1//EN"
 "http://www.w3.org/Graphics/SVG/1.1/DTD/svg11.dtd">
<!-- Generated by graphviz version 7.1.0 (20230121.1956)
 -->
<!-- Title: row_desc Pages: 1 -->
<!--zoomable 912 -->
<svg id="main" version="1.1" xmlns="http://www.w3.org/2000/svg" xmlns:xlink="http://www.w3.org/1999/xlink" xml:space="preserve" onload="init(evt)">
<style type="text/css"><![CDATA[
.edge:hover path { stroke: red; }
.edge:hover polygon { stroke: red; fill: red; }
]]></style>
<script type="text/javascript"><![CDATA[
var edges = document.getElementsByTagName('g');
if (edges && edges.length) {
  for (var i=0;i<edges.length;i++) {
    if (edges[i].id.substr(0,4)=='edge') {
      edges[i].setAttribute('class','edge');
    }
  }
}
]]></script>
        <defs>
                <circle id="rim" cx="0" cy="0" r="7"/>
                <circle id="rim2" cx="0" cy="0" r="3.5"/>
                <g id="zoomPlus">
                        <use xlink:href="#rim" fill="#404040">
                                <set attributeName="fill" to="#808080" begin="zoomplus.mouseover" end="zoomplus.mouseout"/>
                        </use>
                        <path d="M-4,0h8M0,-4v8" fill="none" stroke="white" stroke-width="1.5" pointer-events="none"/>
                </g>
                <g id="zoomMin">
                        <use xlink:href="#rim" fill="#404040">
                                <set attributeName="fill" to="#808080" begin="zoomminus.mouseover" end="zoomminus.mouseout"/>
                        </use>
                        <path d="M-4,0h8" fill="none" stroke="white" stroke-width="1.5" pointer-events="none"/>
                </g>
                <g id="dirArrow">
                        <path fill="none" stroke="white" stroke-width="1.5" d="M0,-3.0v7 M-2.5,-0.5L0,-3.0L2.5,-0.5"/>
                </g>
               <g id="resetDef">
                       <use xlink:href="#rim2" fill="#404040">
                               <set attributeName="fill" to="#808080" begin="reset.mouseover" end="reset.mouseout"/>
                       </use>
               </g>
        </defs>

<script type="text/javascript">
var viewWidth = 949;
var viewHeight = 912;
var sectionId = 'dynsection-40';
</script>
<script xlink:href="../../svgpan.js"/>
<svg id="graph" class="graph">
<g id="viewport">
<title>row_desc</title>
<!-- Node1 -->
<g id="node1" class="node">
<title>Node1</title>
<g id="a_node1"><a xlink:title=" ">
<polygon fill="#999999" stroke="#666666" points="941,-560.5 882,-560.5 882,-541.5 941,-541.5 941,-560.5"/>
<text text-anchor="middle" x="911.5" y="-548.5" font-family="Helvetica,sans-Serif" font-size="10.00">row_desc</text>
</a>
</g>
</g>
<!-- Node2 -->
<g id="node2" class="node">
<title>Node2</title>
<g id="a_node2"><a xlink:href="../../d8/d46/classdoris_1_1pipeline_1_1_pipeline_fragment_context.html#ae26df05798dc4ba4bfc8fd2c472ad3f5" target="_top" xlink:title=" ">
<polygon fill="white" stroke="#666666" points="836.5,-885.5 712.5,-885.5 712.5,-844.5 836.5,-844.5 836.5,-885.5"/>
<text text-anchor="start" x="720.5" y="-873.5" font-family="Helvetica,sans-Serif" font-size="10.00">doris::pipeline::Pipeline</text>
<text text-anchor="start" x="720.5" y="-862.5" font-family="Helvetica,sans-Serif" font-size="10.00">FragmentContext::_build</text>
<text text-anchor="middle" x="774.5" y="-851.5" font-family="Helvetica,sans-Serif" font-size="10.00">_pipelines</text>
</a>
</g>
</g>
<!-- Node1&#45;&gt;Node2 -->
<g id="edge1" class="edge">
<title>Node1&#45;&gt;Node2</title>
<path fill="none" stroke="#63b8ff" d="M907.95,-572.26C900.65,-630.22 878.09,-789.38 846,-830 841.68,-835.47 836.28,-840.15 830.41,-844.13"/>
<polygon fill="#63b8ff" stroke="#63b8ff" points="911.41,-572.79 909.16,-562.44 904.47,-571.94 911.41,-572.79"/>
</g>
<!-- Node4 -->
<g id="node4" class="node">
<title>Node4</title>
<g id="a_node4"><a xlink:href="../../d8/d46/classdoris_1_1pipeline_1_1_pipeline_fragment_context.html#a29b6a19bc1bd3cecb83354f5a4780e7c" target="_top" xlink:title=" ">
<polygon fill="white" stroke="#666666" points="648,-833 517,-833 517,-803 648,-803 648,-833"/>
<text text-anchor="start" x="525" y="-821" font-family="Helvetica,sans-Serif" font-size="10.00">doris::pipeline::Pipeline</text>
<text text-anchor="middle" x="582.5" y="-810" font-family="Helvetica,sans-Serif" font-size="10.00">FragmentContext::prepare</text>
</a>
</g>
</g>
<!-- Node1&#45;&gt;Node4 -->
<g id="edge10" class="edge">
<title>Node1&#45;&gt;Node4</title>
<path fill="none" stroke="#63b8ff" d="M908.07,-572.16C901.38,-626.32 880.86,-767.81 846,-797 817.08,-821.21 716.39,-822.94 648.46,-821.11"/>
<polygon fill="#63b8ff" stroke="#63b8ff" points="911.52,-572.76 909.23,-562.42 904.57,-571.93 911.52,-572.76"/>
</g>
<!-- Node5 -->
<g id="node5" class="node">
<title>Node5</title>
<g id="a_node5"><a xlink:href="../../da/df9/classdoris_1_1_plan_fragment_executor.html#a513e92911d2d60f6938b4d6d64f2acf4" target="_top" xlink:title=" ">
<polygon fill="white" stroke="#666666" points="846,-788 703,-788 703,-758 846,-758 846,-788"/>
<text text-anchor="start" x="711" y="-776" font-family="Helvetica,sans-Serif" font-size="10.00">doris::PlanFragmentExecutor</text>
<text text-anchor="middle" x="774.5" y="-765" font-family="Helvetica,sans-Serif" font-size="10.00">::get_vectorized_internal</text>
</a>
</g>
</g>
<!-- Node1&#45;&gt;Node5 -->
<g id="edge5" class="edge">
<title>Node1&#45;&gt;Node5</title>
<path fill="none" stroke="#63b8ff" d="M909.59,-572.25C906.74,-612.3 894.93,-699.42 846,-749 842.73,-752.31 838.99,-755.17 834.97,-757.63"/>
<polygon fill="#63b8ff" stroke="#63b8ff" points="913.09,-572.49 910.16,-562.3 906.1,-572.09 913.09,-572.49"/>
</g>
<!-- Node9 -->
<g id="node9" class="node">
<title>Node9</title>
<g id="a_node9"><a xlink:href="../../d6/d9d/classdoris_1_1vectorized_1_1_v_sort_node.html#a1be6bfdf0749477f7f8da2a1e8212143" target="_top" xlink:title=" ">
<polygon fill="white" stroke="#666666" points="822,-740 727,-740 727,-710 822,-710 822,-740"/>
<text text-anchor="start" x="735" y="-728" font-family="Helvetica,sans-Serif" font-size="10.00">doris::vectorized::</text>
<text text-anchor="middle" x="774.5" y="-717" font-family="Helvetica,sans-Serif" font-size="10.00">VSortNode::init</text>
</a>
</g>
</g>
<!-- Node1&#45;&gt;Node9 -->
<g id="edge9" class="edge">
<title>Node1&#45;&gt;Node9</title>
<path fill="none" stroke="#63b8ff" d="M907.11,-571.71C900.79,-603.84 884.21,-665.66 846,-701 839.26,-707.23 830.84,-711.85 822.18,-715.28"/>
<polygon fill="#63b8ff" stroke="#63b8ff" points="910.51,-572.57 908.84,-562.11 903.62,-571.33 910.51,-572.57"/>
</g>
<!-- Node10 -->
<g id="node10" class="node">
<title>Node10</title>
<g id="a_node10"><a xlink:href="../../db/d06/classdoris_1_1vectorized_1_1_v_nested_loop_join_node.html#aa1a9d3c8096a7d5dc7ae0b91b62b7e34" target="_top" xlink:title=" ">
<polygon fill="white" stroke="#666666" points="833,-691.5 716,-691.5 716,-650.5 833,-650.5 833,-691.5"/>
<text text-anchor="start" x="724" y="-679.5" font-family="Helvetica,sans-Serif" font-size="10.00">doris::vectorized::</text>
<text text-anchor="start" x="724" y="-668.5" font-family="Helvetica,sans-Serif" font-size="10.00">VNestedLoopJoinNode</text>
<text text-anchor="middle" x="774.5" y="-657.5" font-family="Helvetica,sans-Serif" font-size="10.00">::prepare</text>
</a>
</g>
</g>
<!-- Node1&#45;&gt;Node10 -->
<g id="edge11" class="edge">
<title>Node1&#45;&gt;Node10</title>
<path fill="none" stroke="#63b8ff" d="M900.47,-570.89C889.49,-590.94 870.19,-621.61 846,-641 841.85,-644.33 837.27,-647.35 832.51,-650.08"/>
<polygon fill="#63b8ff" stroke="#63b8ff" points="903.56,-572.55 905.12,-562.07 897.36,-569.29 903.56,-572.55"/>
</g>
<!-- Node11 -->
<g id="node11" class="node">
<title>Node11</title>
<g id="a_node11"><a xlink:href="../../d3/d76/classdoris_1_1vectorized_1_1_v_analytic_eval_node.html#aa1a9d3c8096a7d5dc7ae0b91b62b7e34" target="_top" xlink:title=" ">
<polygon fill="white" stroke="#666666" points="843.5,-614 705.5,-614 705.5,-584 843.5,-584 843.5,-614"/>
<text text-anchor="start" x="713.5" y="-602" font-family="Helvetica,sans-Serif" font-size="10.00">doris::vectorized::</text>
<text text-anchor="middle" x="774.5" y="-591" font-family="Helvetica,sans-Serif" font-size="10.00">VAnalyticEvalNode::prepare</text>
</a>
</g>
</g>
<!-- Node1&#45;&gt;Node11 -->
<g id="edge12" class="edge">
<title>Node1&#45;&gt;Node11</title>
<path fill="none" stroke="#63b8ff" d="M873.6,-564.93C864.59,-568.28 854.96,-571.81 846,-575 838.08,-577.82 829.64,-580.75 821.45,-583.57"/>
<polygon fill="#63b8ff" stroke="#63b8ff" points="874.64,-568.28 882.78,-561.51 872.19,-561.72 874.64,-568.28"/>
</g>
<!-- Node12 -->
<g id="node12" class="node">
<title>Node12</title>
<g id="a_node12"><a xlink:href="../../de/de9/classdoris_1_1vectorized_1_1_v_repeat_node.html#aa1a9d3c8096a7d5dc7ae0b91b62b7e34" target="_top" xlink:title=" ">
<polygon fill="white" stroke="#666666" points="832.5,-566 716.5,-566 716.5,-536 832.5,-536 832.5,-566"/>
<text text-anchor="start" x="724.5" y="-554" font-family="Helvetica,sans-Serif" font-size="10.00">doris::vectorized::</text>
<text text-anchor="middle" x="774.5" y="-543" font-family="Helvetica,sans-Serif" font-size="10.00">VRepeatNode::prepare</text>
</a>
</g>
</g>
<!-- Node1&#45;&gt;Node12 -->
<g id="edge14" class="edge">
<title>Node1&#45;&gt;Node12</title>
<path fill="none" stroke="#63b8ff" d="M870.27,-551C858.49,-551 845.37,-551 832.75,-551"/>
<polygon fill="#63b8ff" stroke="#63b8ff" points="870.03,-554.5 880.03,-551 870.03,-547.5 870.03,-554.5"/>
</g>
<!-- Node13 -->
<g id="node13" class="node">
<title>Node13</title>
<g id="a_node13"><a xlink:href="../../d6/d9d/classdoris_1_1vectorized_1_1_v_sort_node.html#aa1a9d3c8096a7d5dc7ae0b91b62b7e34" target="_top" xlink:title=" ">
<polygon fill="white" stroke="#666666" points="826,-518 723,-518 723,-488 826,-488 826,-518"/>
<text text-anchor="start" x="731" y="-506" font-family="Helvetica,sans-Serif" font-size="10.00">doris::vectorized::</text>
<text text-anchor="middle" x="774.5" y="-495" font-family="Helvetica,sans-Serif" font-size="10.00">VSortNode::prepare</text>
</a>
</g>
</g>
<!-- Node1&#45;&gt;Node13 -->
<g id="edge15" class="edge">
<title>Node1&#45;&gt;Node13</title>
<path fill="none" stroke="#63b8ff" d="M873.6,-537.07C864.59,-533.72 854.96,-530.19 846,-527 838.08,-524.18 829.64,-521.25 821.45,-518.43"/>
<polygon fill="#63b8ff" stroke="#63b8ff" points="872.19,-540.28 882.78,-540.49 874.64,-533.72 872.19,-540.28"/>
</g>
<!-- Node14 -->
<g id="node14" class="node">
<title>Node14</title>
<g id="a_node14"><a xlink:href="../../da/d4b/classdoris_1_1vectorized_1_1_v_table_function_node.html#aa1a9d3c8096a7d5dc7ae0b91b62b7e34" target="_top" xlink:title=" ">
<polygon fill="white" stroke="#666666" points="831,-469.5 718,-469.5 718,-428.5 831,-428.5 831,-469.5"/>
<text text-anchor="start" x="726" y="-457.5" font-family="Helvetica,sans-Serif" font-size="10.00">doris::vectorized::</text>
<text text-anchor="start" x="726" y="-446.5" font-family="Helvetica,sans-Serif" font-size="10.00">VTableFunctionNode::</text>
<text text-anchor="middle" x="774.5" y="-435.5" font-family="Helvetica,sans-Serif" font-size="10.00">prepare</text>
</a>
</g>
</g>
<!-- Node1&#45;&gt;Node14 -->
<g id="edge16" class="edge">
<title>Node1&#45;&gt;Node14</title>
<path fill="none" stroke="#63b8ff" d="M897.38,-532.22C885.48,-516.31 866.68,-493.8 846,-479 841.35,-475.67 836.27,-472.61 831.04,-469.83"/>
<polygon fill="#63b8ff" stroke="#63b8ff" points="894.25,-533.87 902.96,-539.91 899.92,-529.76 894.25,-533.87"/>
</g>
<!-- Node15 -->
<g id="node15" class="node">
<title>Node15</title>
<g id="a_node15"><a xlink:href="../../d5/d4d/classdoris_1_1vectorized_1_1_v_union_node.html#aa1a9d3c8096a7d5dc7ae0b91b62b7e34" target="_top" xlink:title=" ">
<polygon fill="white" stroke="#666666" points="829.5,-410 719.5,-410 719.5,-380 829.5,-380 829.5,-410"/>
<text text-anchor="start" x="727.5" y="-398" font-family="Helvetica,sans-Serif" font-size="10.00">doris::vectorized::</text>
<text text-anchor="middle" x="774.5" y="-387" font-family="Helvetica,sans-Serif" font-size="10.00">VUnionNode::prepare</text>
</a>
</g>
</g>
<!-- Node1&#45;&gt;Node15 -->
<g id="edge17" class="edge">
<title>Node1&#45;&gt;Node15</title>
<path fill="none" stroke="#63b8ff" d="M905.54,-530.14C897.67,-501.44 879.66,-449.94 846,-420 841.25,-415.77 835.73,-412.24 829.91,-409.31"/>
<polygon fill="#63b8ff" stroke="#63b8ff" points="902.13,-530.95 908,-539.77 908.91,-529.21 902.13,-530.95"/>
</g>
<!-- Node16 -->
<g id="node16" class="node">
<title>Node16</title>
<g id="a_node16"><a xlink:href="../../d7/d71/classdoris_1_1vectorized_1_1_aggregation_node.html#a77935adcf2c477011d9545128a4224eb" target="_top" xlink:title=" ">
<polygon fill="white" stroke="#666666" points="839.5,-361.5 709.5,-361.5 709.5,-320.5 839.5,-320.5 839.5,-361.5"/>
<text text-anchor="start" x="717.5" y="-349.5" font-family="Helvetica,sans-Serif" font-size="10.00">doris::vectorized::</text>
<text text-anchor="start" x="717.5" y="-338.5" font-family="Helvetica,sans-Serif" font-size="10.00">AggregationNode::prepare</text>
<text text-anchor="middle" x="774.5" y="-327.5" font-family="Helvetica,sans-Serif" font-size="10.00">_profile</text>
</a>
</g>
</g>
<!-- Node1&#45;&gt;Node16 -->
<g id="edge18" class="edge">
<title>Node1&#45;&gt;Node16</title>
<path fill="none" stroke="#63b8ff" d="M908.45,-530.22C903.79,-493.52 889.2,-416.79 846,-371 842.81,-367.61 839.17,-364.59 835.26,-361.9"/>
<polygon fill="#63b8ff" stroke="#63b8ff" points="904.95,-530.36 909.55,-539.91 911.9,-529.58 904.95,-530.36"/>
</g>
<!-- Node18 -->
<g id="node18" class="node">
<title>Node18</title>
<g id="a_node18"><a xlink:href="../../d2/d49/classdoris_1_1_exec_node.html#a2b8c5dbfc937a3dcc7e7413dc810e921" target="_top" xlink:title="Release all memory of block which got from child. The block">
<polygon fill="white" stroke="#666666" points="833,-240.5 716,-240.5 716,-221.5 833,-221.5 833,-240.5"/>
<text text-anchor="middle" x="774.5" y="-228.5" font-family="Helvetica,sans-Serif" font-size="10.00">release_block_memory</text>
</a>
</g>
</g>
<!-- Node1&#45;&gt;Node18 -->
<g id="edge21" class="edge">
<title>Node1&#45;&gt;Node18</title>
<path fill="none" stroke="#63b8ff" d="M908.08,-530.13C902.42,-487.12 885.67,-386.39 846,-312 830.39,-282.72 802.4,-255 786.8,-240.82"/>
<polygon fill="#63b8ff" stroke="#63b8ff" points="904.58,-530.32 909.28,-539.82 911.52,-529.46 904.58,-530.32"/>
</g>
<!-- Node34 -->
<g id="node34" class="node">
<title>Node34</title>
<g id="a_node34"><a xlink:href="../../da/df9/classdoris_1_1_plan_fragment_executor.html#a48a09d232178e1821ad6d3f9b39eaf55" target="_top" xlink:title=" ">
<polygon fill="white" stroke="#666666" points="846,-117 703,-117 703,-87 846,-87 846,-117"/>
<text text-anchor="start" x="711" y="-105" font-family="Helvetica,sans-Serif" font-size="10.00">doris::PlanFragmentExecutor</text>
<text text-anchor="middle" x="774.5" y="-94" font-family="Helvetica,sans-Serif" font-size="10.00">::row_desc</text>
</a>
</g>
</g>
<!-- Node1&#45;&gt;Node34 -->
<g id="edge39" class="edge">
<title>Node1&#45;&gt;Node34</title>
<path fill="none" stroke="#63b8ff" d="M909.28,-530C905.54,-475.61 891.56,-326.39 846,-212 831.4,-175.33 804.08,-137.69 788.07,-117.34"/>
<polygon fill="#63b8ff" stroke="#63b8ff" points="905.77,-529.92 909.9,-539.68 912.75,-529.47 905.77,-529.92"/>
</g>
<!-- Node2&#45;&gt;Node2 -->
<g id="edge3" class="edge">
<title>Node2&#45;&gt;Node2</title>
<path fill="none" stroke="#63b8ff" d="M796.72,-897.01C792.74,-900.93 785.34,-903.5 774.5,-903.5 755.23,-903.5 746.81,-895.38 749.21,-885.99"/>
<polygon fill="#63b8ff" stroke="#63b8ff" points="800.08,-898.02 799.38,-887.45 793.33,-896.15 800.08,-898.02"/>
</g>
<!-- Node3 -->
<g id="node3" class="node">
<title>Node3</title>
<g id="a_node3"><a xlink:href="../../d8/d46/classdoris_1_1pipeline_1_1_pipeline_fragment_context.html#ac8cb153f9184ab2a3cd8670cb7db3cdb" target="_top" xlink:title=" ">
<polygon fill="white" stroke="#666666" points="667,-892.5 498,-892.5 498,-851.5 667,-851.5 667,-892.5"/>
<text text-anchor="start" x="506" y="-880.5" font-family="Helvetica,sans-Serif" font-size="10.00">doris::pipeline::Pipeline</text>
<text text-anchor="start" x="506" y="-869.5" font-family="Helvetica,sans-Serif" font-size="10.00">FragmentContext::_build</text>
<text text-anchor="middle" x="582.5" y="-858.5" font-family="Helvetica,sans-Serif" font-size="10.00">_operators_for_set_operation_node</text>
</a>
</g>
</g>
<!-- Node2&#45;&gt;Node3 -->
<g id="edge2" class="edge">
<title>Node2&#45;&gt;Node3</title>
<path fill="none" stroke="#63b8ff" d="M700.8,-867.68C689.81,-868.08 678.39,-868.5 667.19,-868.92"/>
<polygon fill="#63b8ff" stroke="#63b8ff" points="700.7,-871.18 710.56,-867.32 700.44,-864.19 700.7,-871.18"/>
</g>
<!-- Node2&#45;&gt;Node4 -->
<g id="edge4" class="edge">
<title>Node2&#45;&gt;Node4</title>
<path fill="none" stroke="#63b8ff" d="M700.97,-847.06C682.86,-842.58 663.6,-837.81 646.02,-833.46"/>
<polygon fill="#63b8ff" stroke="#63b8ff" points="700.06,-850.44 710.61,-849.44 701.74,-843.64 700.06,-850.44"/>
</g>
<!-- Node6 -->
<g id="node6" class="node">
<title>Node6</title>
<g id="a_node6"><a xlink:href="../../da/df9/classdoris_1_1_plan_fragment_executor.html#ab5c7a47d9b360cfb71ab6b6cbc0bd67d" target="_top" xlink:title=" ">
<polygon fill="white" stroke="#666666" points="654,-785 511,-785 511,-755 654,-755 654,-785"/>
<text text-anchor="start" x="519" y="-773" font-family="Helvetica,sans-Serif" font-size="10.00">doris::PlanFragmentExecutor</text>
<text text-anchor="middle" x="582.5" y="-762" font-family="Helvetica,sans-Serif" font-size="10.00">::open_vectorized_internal</text>
</a>
</g>
</g>
<!-- Node5&#45;&gt;Node6 -->
<g id="edge6" class="edge">
<title>Node5&#45;&gt;Node6</title>
<path fill="none" stroke="#63b8ff" d="M691.49,-771.71C679.11,-771.51 666.43,-771.31 654.31,-771.12"/>
<polygon fill="#63b8ff" stroke="#63b8ff" points="691.18,-775.2 701.24,-771.86 691.29,-768.2 691.18,-775.2"/>
</g>
<!-- Node7 -->
<g id="node7" class="node">
<title>Node7</title>
<g id="a_node7"><a xlink:href="../../da/df9/classdoris_1_1_plan_fragment_executor.html#afbfe7ce3274db0eff63382a83d559439" target="_top" xlink:title=" ">
<polygon fill="white" stroke="#666666" points="462,-785 319,-785 319,-755 462,-755 462,-785"/>
<text text-anchor="start" x="327" y="-773" font-family="Helvetica,sans-Serif" font-size="10.00">doris::PlanFragmentExecutor</text>
<text text-anchor="middle" x="390.5" y="-762" font-family="Helvetica,sans-Serif" font-size="10.00">::open</text>
</a>
</g>
</g>
<!-- Node6&#45;&gt;Node7 -->
<g id="edge7" class="edge">
<title>Node6&#45;&gt;Node7</title>
<path fill="none" stroke="#63b8ff" d="M499.49,-770C487.11,-770 474.43,-770 462.31,-770"/>
<polygon fill="#63b8ff" stroke="#63b8ff" points="499.24,-773.5 509.24,-770 499.24,-766.5 499.24,-773.5"/>
</g>
<!-- Node8 -->
<g id="node8" class="node">
<title>Node8</title>
<g id="a_node8"><a xlink:href="../../d8/dc3/classdoris_1_1_fragment_exec_state.html#a288fb86e2f2bfd41128d4766a01cebad" target="_top" xlink:title=" ">
<polygon fill="white" stroke="#666666" points="281.5,-785 150.5,-785 150.5,-755 281.5,-755 281.5,-785"/>
<text text-anchor="start" x="158.5" y="-773" font-family="Helvetica,sans-Serif" font-size="10.00">doris::FragmentExecState</text>
<text text-anchor="middle" x="216" y="-762" font-family="Helvetica,sans-Serif" font-size="10.00">::execute</text>
</a>
</g>
</g>
<!-- Node7&#45;&gt;Node8 -->
<g id="edge8" class="edge">
<title>Node7&#45;&gt;Node8</title>
<path fill="none" stroke="#63b8ff" d="M307.52,-770C298.86,-770 290.15,-770 281.73,-770"/>
<polygon fill="#63b8ff" stroke="#63b8ff" points="307.33,-773.5 317.33,-770 307.33,-766.5 307.33,-773.5"/>
</g>
<!-- Node11&#45;&gt;Node11 -->
<g id="edge13" class="edge">
<title>Node11&#45;&gt;Node11</title>
<path fill="none" stroke="#63b8ff" d="M797.62,-625.61C793.91,-629.43 786.21,-632 774.5,-632 753.09,-632 745.07,-623.41 750.42,-614.28"/>
<polygon fill="#63b8ff" stroke="#63b8ff" points="801.09,-626.04 798.45,-615.78 794.12,-625.45 801.09,-626.04"/>
</g>
<!-- Node17 -->
<g id="node17" class="node">
<title>Node17</title>
<g id="a_node17"><a xlink:href="../../d7/d71/classdoris_1_1vectorized_1_1_aggregation_node.html#aa1a9d3c8096a7d5dc7ae0b91b62b7e34" target="_top" xlink:title=" ">
<polygon fill="white" stroke="#666666" points="647.5,-418 517.5,-418 517.5,-388 647.5,-388 647.5,-418"/>
<text text-anchor="start" x="525.5" y="-406" font-family="Helvetica,sans-Serif" font-size="10.00">doris::vectorized::</text>
<text text-anchor="middle" x="582.5" y="-395" font-family="Helvetica,sans-Serif" font-size="10.00">AggregationNode::prepare</text>
</a>
</g>
</g>
<!-- Node16&#45;&gt;Node17 -->
<g id="edge19" class="edge">
<title>Node16&#45;&gt;Node17</title>
<path fill="none" stroke="#63b8ff" d="M698.38,-359.55C687.88,-363.11 677.19,-366.72 667,-370 648.62,-375.91 627.75,-381.91 611.47,-387.56"/>
<polygon fill="#63b8ff" stroke="#63b8ff" points="699.46,-362.89 707.8,-356.36 697.21,-356.26 699.46,-362.89"/>
</g>
<!-- Node17&#45;&gt;Node16 -->
<g id="edge20" class="edge">
<title>Node17&#45;&gt;Node16</title>
<path fill="none" stroke="#63b8ff" d="M658.76,-390.6C661.54,-389.74 664.3,-388.87 667,-388 691.11,-380.24 717.96,-370.65 738.67,-361.9"/>
<polygon fill="#63b8ff" stroke="#63b8ff" points="657.91,-387.2 649.35,-393.45 659.94,-393.9 657.91,-387.2"/>
</g>
<!-- Node19 -->
<g id="node19" class="node">
<title>Node19</title>
<g id="a_node19"><a xlink:href="../../db/d06/classdoris_1_1vectorized_1_1_v_nested_loop_join_node.html#aa0ee42068d34d6a88eeebb14847cd5c9" target="_top" xlink:title=" ">
<polygon fill="white" stroke="#666666" points="641,-369.5 524,-369.5 524,-328.5 641,-328.5 641,-369.5"/>
<text text-anchor="start" x="532" y="-357.5" font-family="Helvetica,sans-Serif" font-size="10.00">doris::vectorized::</text>
<text text-anchor="start" x="532" y="-346.5" font-family="Helvetica,sans-Serif" font-size="10.00">VNestedLoopJoinNode</text>
<text text-anchor="middle" x="582.5" y="-335.5" font-family="Helvetica,sans-Serif" font-size="10.00">::_fresh_left_block</text>
</a>
</g>
</g>
<!-- Node18&#45;&gt;Node19 -->
<g id="edge22" class="edge">
<title>Node18&#45;&gt;Node19</title>
<path fill="none" stroke="#63b8ff" d="M756.04,-249.09C736.1,-268.86 701.73,-300.34 667,-320 658.99,-324.54 650.14,-328.54 641.3,-332.01"/>
<polygon fill="#63b8ff" stroke="#63b8ff" points="758.52,-251.56 763.07,-241.99 753.55,-246.63 758.52,-251.56"/>
</g>
<!-- Node21 -->
<g id="node21" class="node">
<title>Node21</title>
<g id="a_node21"><a xlink:href="../../d6/dc7/classdoris_1_1vectorized_1_1_hash_join_node.html#a3078cb7b70551c18b3427373b0b7c911" target="_top" xlink:title=" ">
<polygon fill="white" stroke="#666666" points="645,-310.5 520,-310.5 520,-269.5 645,-269.5 645,-310.5"/>
<text text-anchor="start" x="528" y="-298.5" font-family="Helvetica,sans-Serif" font-size="10.00">doris::vectorized::</text>
<text text-anchor="start" x="528" y="-287.5" font-family="Helvetica,sans-Serif" font-size="10.00">HashJoinNode::_prepare</text>
<text text-anchor="middle" x="582.5" y="-276.5" font-family="Helvetica,sans-Serif" font-size="10.00">_probe_block</text>
</a>
</g>
</g>
<!-- Node18&#45;&gt;Node21 -->
<g id="edge24" class="edge">
<title>Node18&#45;&gt;Node21</title>
<path fill="none" stroke="#63b8ff" d="M731.02,-244.19C705.82,-252.02 673.42,-262.08 645.41,-270.78"/>
<polygon fill="#63b8ff" stroke="#63b8ff" points="731.74,-247.63 740.25,-241.32 729.66,-240.95 731.74,-247.63"/>
</g>
<!-- Node24 -->
<g id="node24" class="node">
<title>Node24</title>
<g id="a_node24"><a xlink:href="../../da/d4b/classdoris_1_1vectorized_1_1_v_table_function_node.html#a92dec3a4f7d3663ad61fc1ad42a234b3" target="_top" xlink:title=" ">
<polygon fill="white" stroke="#666666" points="646,-251.5 519,-251.5 519,-210.5 646,-210.5 646,-251.5"/>
<text text-anchor="start" x="527" y="-239.5" font-family="Helvetica,sans-Serif" font-size="10.00">doris::vectorized::</text>
<text text-anchor="start" x="527" y="-228.5" font-family="Helvetica,sans-Serif" font-size="10.00">VTableFunctionNode::</text>
<text text-anchor="middle" x="582.5" y="-217.5" font-family="Helvetica,sans-Serif" font-size="10.00">_process_next_child_row</text>
</a>
</g>
</g>
<!-- Node18&#45;&gt;Node24 -->
<g id="edge27" class="edge">
<title>Node18&#45;&gt;Node24</title>
<path fill="none" stroke="#63b8ff" d="M704.42,-231C685.42,-231 664.92,-231 646.3,-231"/>
<polygon fill="#63b8ff" stroke="#63b8ff" points="704.21,-234.5 714.21,-231 704.21,-227.5 704.21,-234.5"/>
</g>
<!-- Node29 -->
<g id="node29" class="node">
<title>Node29</title>
<g id="a_node29"><a xlink:href="../../d7/d71/classdoris_1_1vectorized_1_1_aggregation_node.html#a919ab1c222d6846eb6395f8b2bdc880b" target="_top" xlink:title=" ">
<polygon fill="white" stroke="#666666" points="650,-192 515,-192 515,-162 650,-162 650,-192"/>
<text text-anchor="start" x="523" y="-180" font-family="Helvetica,sans-Serif" font-size="10.00">doris::vectorized::</text>
<text text-anchor="middle" x="582.5" y="-169" font-family="Helvetica,sans-Serif" font-size="10.00">AggregationNode::get_next</text>
</a>
</g>
</g>
<!-- Node18&#45;&gt;Node29 -->
<g id="edge33" class="edge">
<title>Node18&#45;&gt;Node29</title>
<path fill="none" stroke="#63b8ff" d="M727.92,-218.05C700.86,-210.36 666.38,-200.56 637.9,-192.46"/>
<polygon fill="#63b8ff" stroke="#63b8ff" points="726.62,-221.31 737.2,-220.68 728.53,-214.58 726.62,-221.31"/>
</g>
<!-- Node30 -->
<g id="node30" class="node">
<title>Node30</title>
<g id="a_node30"><a xlink:href="../../d7/d71/classdoris_1_1vectorized_1_1_aggregation_node.html#a019f7d127e3f74f7fea421a226699777" target="_top" xlink:title=" ">
<polygon fill="white" stroke="#666666" points="642,-126 523,-126 523,-96 642,-96 642,-126"/>
<text text-anchor="start" x="531" y="-114" font-family="Helvetica,sans-Serif" font-size="10.00">doris::vectorized::</text>
<text text-anchor="middle" x="582.5" y="-103" font-family="Helvetica,sans-Serif" font-size="10.00">AggregationNode::open</text>
</a>
</g>
</g>
<!-- Node18&#45;&gt;Node30 -->
<g id="edge34" class="edge">
<title>Node18&#45;&gt;Node30</title>
<path fill="none" stroke="#63b8ff" d="M752.54,-214.03C731.57,-197.45 698.05,-172 667,-153 651.08,-143.26 632.62,-133.8 617.1,-126.32"/>
<polygon fill="#63b8ff" stroke="#63b8ff" points="750.32,-216.74 760.32,-220.24 754.69,-211.27 750.32,-216.74"/>
</g>
<!-- Node32 -->
<g id="node32" class="node">
<title>Node32</title>
<g id="a_node32"><a xlink:href="../../de/de9/classdoris_1_1vectorized_1_1_v_repeat_node.html#a749d58c94b6ea4e2332c59ef62378a6e" target="_top" xlink:title=" ">
<polygon fill="white" stroke="#666666" points="632,-78 533,-78 533,-48 632,-48 632,-78"/>
<text text-anchor="start" x="541" y="-66" font-family="Helvetica,sans-Serif" font-size="10.00">doris::vectorized::</text>
<text text-anchor="middle" x="582.5" y="-55" font-family="Helvetica,sans-Serif" font-size="10.00">VRepeatNode::pull</text>
</a>
</g>
</g>
<!-- Node18&#45;&gt;Node32 -->
<g id="edge37" class="edge">
<title>Node18&#45;&gt;Node32</title>
<path fill="none" stroke="#63b8ff" d="M761.5,-211.76C739.23,-176.61 691.54,-104.04 667,-87 656.72,-79.86 644.32,-74.83 632.27,-71.28"/>
<polygon fill="#63b8ff" stroke="#63b8ff" points="758.45,-213.48 766.74,-220.09 764.37,-209.76 758.45,-213.48"/>
</g>
<!-- Node20 -->
<g id="node20" class="node">
<title>Node20</title>
<g id="a_node20"><a xlink:href="../../db/d06/classdoris_1_1vectorized_1_1_v_nested_loop_join_node.html#a919ab1c222d6846eb6395f8b2bdc880b" target="_top" xlink:title=" ">
<polygon fill="white" stroke="#666666" points="449,-369.5 332,-369.5 332,-328.5 449,-328.5 449,-369.5"/>
<text text-anchor="start" x="340" y="-357.5" font-family="Helvetica,sans-Serif" font-size="10.00">doris::vectorized::</text>
<text text-anchor="start" x="340" y="-346.5" font-family="Helvetica,sans-Serif" font-size="10.00">VNestedLoopJoinNode</text>
<text text-anchor="middle" x="390.5" y="-335.5" font-family="Helvetica,sans-Serif" font-size="10.00">::get_next</text>
</a>
</g>
</g>
<!-- Node19&#45;&gt;Node20 -->
<g id="edge23" class="edge">
<title>Node19&#45;&gt;Node20</title>
<path fill="none" stroke="#63b8ff" d="M512.43,-349C491.72,-349 469.23,-349 449.33,-349"/>
<polygon fill="#63b8ff" stroke="#63b8ff" points="512.21,-352.5 522.21,-349 512.21,-345.5 512.21,-352.5"/>
</g>
<!-- Node22 -->
<g id="node22" class="node">
<title>Node22</title>
<g id="a_node22"><a xlink:href="../../d6/dc7/classdoris_1_1vectorized_1_1_hash_join_node.html#a98fc2fbb7827062ef1bf0c0b5ee8538b" target="_top" xlink:title=" ">
<polygon fill="white" stroke="#666666" points="450,-310.5 331,-310.5 331,-269.5 450,-269.5 450,-310.5"/>
<text text-anchor="start" x="339" y="-298.5" font-family="Helvetica,sans-Serif" font-size="10.00">doris::vectorized::</text>
<text text-anchor="start" x="339" y="-287.5" font-family="Helvetica,sans-Serif" font-size="10.00">HashJoinNode::prepare</text>
<text text-anchor="middle" x="390.5" y="-276.5" font-family="Helvetica,sans-Serif" font-size="10.00">_for_next</text>
</a>
</g>
</g>
<!-- Node21&#45;&gt;Node22 -->
<g id="edge25" class="edge">
<title>Node21&#45;&gt;Node22</title>
<path fill="none" stroke="#63b8ff" d="M508.16,-290C489.05,-290 468.71,-290 450.46,-290"/>
<polygon fill="#63b8ff" stroke="#63b8ff" points="508.04,-293.5 518.04,-290 508.04,-286.5 508.04,-293.5"/>
</g>
<!-- Node23 -->
<g id="node23" class="node">
<title>Node23</title>
<g id="a_node23"><a xlink:href="../../d6/dc7/classdoris_1_1vectorized_1_1_hash_join_node.html#a919ab1c222d6846eb6395f8b2bdc880b" target="_top" xlink:title=" ">
<polygon fill="white" stroke="#666666" points="278.5,-305 153.5,-305 153.5,-275 278.5,-275 278.5,-305"/>
<text text-anchor="start" x="161.5" y="-293" font-family="Helvetica,sans-Serif" font-size="10.00">doris::vectorized::</text>
<text text-anchor="middle" x="216" y="-282" font-family="Helvetica,sans-Serif" font-size="10.00">HashJoinNode::get_next</text>
</a>
</g>
</g>
<!-- Node22&#45;&gt;Node23 -->
<g id="edge26" class="edge">
<title>Node22&#45;&gt;Node23</title>
<path fill="none" stroke="#63b8ff" d="M319.48,-290C306.02,-290 292.02,-290 278.85,-290"/>
<polygon fill="#63b8ff" stroke="#63b8ff" points="319.1,-293.5 329.1,-290 319.1,-286.5 319.1,-293.5"/>
</g>
<!-- Node25 -->
<g id="node25" class="node">
<title>Node25</title>
<g id="a_node25"><a xlink:href="../../da/d4b/classdoris_1_1vectorized_1_1_v_table_function_node.html#aec60f520024dbb8577a6dce9f2ab4b78" target="_top" xlink:title=" ">
<polygon fill="white" stroke="#666666" points="447,-251.5 334,-251.5 334,-210.5 447,-210.5 447,-251.5"/>
<text text-anchor="start" x="342" y="-239.5" font-family="Helvetica,sans-Serif" font-size="10.00">doris::vectorized::</text>
<text text-anchor="start" x="342" y="-228.5" font-family="Helvetica,sans-Serif" font-size="10.00">VTableFunctionNode::</text>
<text text-anchor="middle" x="390.5" y="-217.5" font-family="Helvetica,sans-Serif" font-size="10.00">_get_expanded_block</text>
</a>
</g>
</g>
<!-- Node24&#45;&gt;Node25 -->
<g id="edge28" class="edge">
<title>Node24&#45;&gt;Node25</title>
<path fill="none" stroke="#63b8ff" d="M507.5,-231C487.53,-231 466.26,-231 447.46,-231"/>
<polygon fill="#63b8ff" stroke="#63b8ff" points="507.25,-234.5 517.25,-231 507.25,-227.5 507.25,-234.5"/>
</g>
<!-- Node28 -->
<g id="node28" class="node">
<title>Node28</title>
<g id="a_node28"><a xlink:href="../../da/d4b/classdoris_1_1vectorized_1_1_v_table_function_node.html#a5ca22b53638bdf9755773d4f0c434927" target="_top" xlink:title=" ">
<polygon fill="white" stroke="#666666" points="283,-198 149,-198 149,-168 283,-168 283,-198"/>
<text text-anchor="start" x="157" y="-186" font-family="Helvetica,sans-Serif" font-size="10.00">doris::vectorized::</text>
<text text-anchor="middle" x="216" y="-175" font-family="Helvetica,sans-Serif" font-size="10.00">VTableFunctionNode::push</text>
</a>
</g>
</g>
<!-- Node24&#45;&gt;Node28 -->
<g id="edge31" class="edge">
<title>Node24&#45;&gt;Node28</title>
<path fill="none" stroke="#63b8ff" d="M507.85,-210.4C492.78,-206.78 476.95,-203.41 462,-201 402,-191.34 332.88,-186.86 283.39,-184.78"/>
<polygon fill="#63b8ff" stroke="#63b8ff" points="506.65,-213.71 517.19,-212.7 508.32,-206.91 506.65,-213.71"/>
</g>
<!-- Node26 -->
<g id="node26" class="node">
<title>Node26</title>
<g id="a_node26"><a xlink:href="../../da/d4b/classdoris_1_1vectorized_1_1_v_table_function_node.html#a3b911bbf2ce3da57b3e6d7275ef14aea" target="_top" xlink:title=" ">
<polygon fill="white" stroke="#666666" points="280,-246 152,-246 152,-216 280,-216 280,-246"/>
<text text-anchor="start" x="160" y="-234" font-family="Helvetica,sans-Serif" font-size="10.00">doris::vectorized::</text>
<text text-anchor="middle" x="216" y="-223" font-family="Helvetica,sans-Serif" font-size="10.00">VTableFunctionNode::pull</text>
</a>
</g>
</g>
<!-- Node25&#45;&gt;Node26 -->
<g id="edge29" class="edge">
<title>Node25&#45;&gt;Node26</title>
<path fill="none" stroke="#63b8ff" d="M322.49,-231C308.59,-231 293.98,-231 280.22,-231"/>
<polygon fill="#63b8ff" stroke="#63b8ff" points="322.46,-234.5 332.46,-231 322.46,-227.5 322.46,-234.5"/>
</g>
<!-- Node27 -->
<g id="node27" class="node">
<title>Node27</title>
<g id="a_node27"><a xlink:href="../../da/d4b/classdoris_1_1vectorized_1_1_v_table_function_node.html#a919ab1c222d6846eb6395f8b2bdc880b" target="_top" xlink:title=" ">
<polygon fill="white" stroke="#666666" points="113,-227.5 0,-227.5 0,-186.5 113,-186.5 113,-227.5"/>
<text text-anchor="start" x="8" y="-215.5" font-family="Helvetica,sans-Serif" font-size="10.00">doris::vectorized::</text>
<text text-anchor="start" x="8" y="-204.5" font-family="Helvetica,sans-Serif" font-size="10.00">VTableFunctionNode::</text>
<text text-anchor="middle" x="56.5" y="-193.5" font-family="Helvetica,sans-Serif" font-size="10.00">get_next</text>
</a>
</g>
</g>
<!-- Node26&#45;&gt;Node27 -->
<g id="edge30" class="edge">
<title>Node26&#45;&gt;Node27</title>
<path fill="none" stroke="#63b8ff" d="M140.68,-219.68C131.46,-218.27 122.17,-216.85 113.3,-215.5"/>
<polygon fill="#63b8ff" stroke="#63b8ff" points="139.94,-223.1 150.35,-221.15 140.99,-216.18 139.94,-223.1"/>
</g>
<!-- Node28&#45;&gt;Node27 -->
<g id="edge32" class="edge">
<title>Node28&#45;&gt;Node27</title>
<path fill="none" stroke="#63b8ff" d="M137.55,-194.8C129.37,-196.05 121.17,-197.3 113.3,-198.5"/>
<polygon fill="#63b8ff" stroke="#63b8ff" points="137.81,-198.3 147.17,-193.34 136.75,-191.38 137.81,-198.3"/>
</g>
<!-- Node30&#45;&gt;Node30 -->
<g id="edge36" class="edge">
<title>Node30&#45;&gt;Node30</title>
<path fill="none" stroke="#63b8ff" d="M614.9,-137.61C609.7,-141.43 598.91,-144 582.5,-144 552.5,-144 541.25,-135.41 548.75,-126.28"/>
<polygon fill="#63b8ff" stroke="#63b8ff" points="618.36,-138.12 616.07,-127.78 611.41,-137.29 618.36,-138.12"/>
</g>
<!-- Node31 -->
<g id="node31" class="node">
<title>Node31</title>
<g id="a_node31"><a xlink:href="../../d7/d71/classdoris_1_1vectorized_1_1_aggregation_node.html#a4563a8abb973cbbc4904c263665bb0fe" target="_top" xlink:title=" ">
<polygon fill="white" stroke="#666666" points="449.5,-137.5 331.5,-137.5 331.5,-96.5 449.5,-96.5 449.5,-137.5"/>
<text text-anchor="start" x="339.5" y="-125.5" font-family="Helvetica,sans-Serif" font-size="10.00">doris::vectorized::</text>
<text text-anchor="start" x="339.5" y="-114.5" font-family="Helvetica,sans-Serif" font-size="10.00">AggregationNode::alloc</text>
<text text-anchor="middle" x="390.5" y="-103.5" font-family="Helvetica,sans-Serif" font-size="10.00">_resource</text>
</a>
</g>
</g>
<!-- Node30&#45;&gt;Node31 -->
<g id="edge35" class="edge">
<title>Node30&#45;&gt;Node31</title>
<path fill="none" stroke="#63b8ff" d="M511.3,-113.22C491.04,-113.86 469.16,-114.55 449.71,-115.16"/>
<polygon fill="#63b8ff" stroke="#63b8ff" points="511.29,-116.72 521.17,-112.91 511.07,-109.72 511.29,-116.72"/>
</g>
<!-- Node33 -->
<g id="node33" class="node">
<title>Node33</title>
<g id="a_node33"><a xlink:href="../../de/de9/classdoris_1_1vectorized_1_1_v_repeat_node.html#a919ab1c222d6846eb6395f8b2bdc880b" target="_top" xlink:title=" ">
<polygon fill="white" stroke="#666666" points="451.5,-78 329.5,-78 329.5,-48 451.5,-48 451.5,-78"/>
<text text-anchor="start" x="337.5" y="-66" font-family="Helvetica,sans-Serif" font-size="10.00">doris::vectorized::</text>
<text text-anchor="middle" x="390.5" y="-55" font-family="Helvetica,sans-Serif" font-size="10.00">VRepeatNode::get_next</text>
</a>
</g>
</g>
<!-- Node32&#45;&gt;Node33 -->
<g id="edge38" class="edge">
<title>Node32&#45;&gt;Node33</title>
<path fill="none" stroke="#63b8ff" d="M521.27,-63C499.1,-63 473.99,-63 451.81,-63"/>
<polygon fill="#63b8ff" stroke="#63b8ff" points="521.06,-66.5 531.06,-63 521.06,-59.5 521.06,-66.5"/>
</g>
<!-- Node35 -->
<g id="node35" class="node">
<title>Node35</title>
<g id="a_node35"><a xlink:href="../../da/df9/classdoris_1_1_plan_fragment_executor.html#a1a1c11e2ea434ac4f99103a61f327ae7" target="_top" xlink:title=" ">
<polygon fill="white" stroke="#666666" points="654,-30 511,-30 511,0 654,0 654,-30"/>
<text text-anchor="start" x="519" y="-18" font-family="Helvetica,sans-Serif" font-size="10.00">doris::PlanFragmentExecutor</text>
<text text-anchor="middle" x="582.5" y="-7" font-family="Helvetica,sans-Serif" font-size="10.00">::prepare</text>
</a>
</g>
</g>
<!-- Node34&#45;&gt;Node35 -->
<g id="edge40" class="edge">
<title>Node34&#45;&gt;Node35</title>
<path fill="none" stroke="#63b8ff" d="M742.03,-80.5C721.4,-67.14 693.45,-50.4 667,-39 659.66,-35.84 651.78,-32.95 643.9,-30.37"/>
<polygon fill="#63b8ff" stroke="#63b8ff" points="739.99,-83.34 750.27,-85.91 743.83,-77.49 739.99,-83.34"/>
</g>
<!-- Node36 -->
<g id="node36" class="node">
<title>Node36</title>
<g id="a_node36"><a xlink:href="../../d8/dc3/classdoris_1_1_fragment_exec_state.html#af356cb45f9f562099e3ea38382f346fa" target="_top" xlink:title=" ">
<polygon fill="white" stroke="#666666" points="456,-30 325,-30 325,0 456,0 456,-30"/>
<text text-anchor="start" x="333" y="-18" font-family="Helvetica,sans-Serif" font-size="10.00">doris::FragmentExecState</text>
<text text-anchor="middle" x="390.5" y="-7" font-family="Helvetica,sans-Serif" font-size="10.00">::prepare</text>
</a>
</g>
</g>
<!-- Node35&#45;&gt;Node36 -->
<g id="edge41" class="edge">
<title>Node35&#45;&gt;Node36</title>
<path fill="none" stroke="#63b8ff" d="M499.33,-15C484.95,-15 470.17,-15 456.34,-15"/>
<polygon fill="#63b8ff" stroke="#63b8ff" points="499.24,-18.5 509.24,-15 499.24,-11.5 499.24,-18.5"/>
</g>
</g>
</svg>
        <g id="navigator" transform="translate(0 0)" fill="#404254">
                <rect fill="#f2f5e9" fill-opacity="0.5" stroke="#606060" stroke-width=".5" x="0" y="0" width="60" height="60"/>
                <use id="zoomplus" xlink:href="#zoomPlus" x="17" y="9" onmousedown="handleZoom(evt,'in')"/>
                <use id="zoomminus" xlink:href="#zoomMin" x="42" y="9" onmousedown="handleZoom(evt,'out')"/>
                <use id="reset" xlink:href="#resetDef" x="30" y="36" onmousedown="handleReset()"/>
                <g id="arrowUp" xlink:href="#dirArrow" transform="translate(30 24)" onmousedown="handlePan(0,-1)">
                  <use xlink:href="#rim" fill="#404040">
                        <set attributeName="fill" to="#808080" begin="arrowUp.mouseover" end="arrowUp.mouseout"/>
                  </use>
                  <path fill="none" stroke="white" stroke-width="1.5" d="M0,-3.0v7 M-2.5,-0.5L0,-3.0L2.5,-0.5"/>
                </g>
                <g id="arrowRight" xlink:href="#dirArrow" transform="rotate(90) translate(36 -43)" onmousedown="handlePan(1,0)">
                  <use xlink:href="#rim" fill="#404040">
                        <set attributeName="fill" to="#808080" begin="arrowRight.mouseover" end="arrowRight.mouseout"/>
                  </use>
                  <path fill="none" stroke="white" stroke-width="1.5" d="M0,-3.0v7 M-2.5,-0.5L0,-3.0L2.5,-0.5"/>
                </g>
                <g id="arrowDown" xlink:href="#dirArrow" transform="rotate(180) translate(-30 -48)" onmousedown="handlePan(0,1)">
                  <use xlink:href="#rim" fill="#404040">
                        <set attributeName="fill" to="#808080" begin="arrowDown.mouseover" end="arrowDown.mouseout"/>
                  </use>
                  <path fill="none" stroke="white" stroke-width="1.5" d="M0,-3.0v7 M-2.5,-0.5L0,-3.0L2.5,-0.5"/>
                </g>
                <g id="arrowLeft" xlink:href="#dirArrow" transform="rotate(270) translate(-36 17)" onmousedown="handlePan(-1,0)">
                  <use xlink:href="#rim" fill="#404040">
                        <set attributeName="fill" to="#808080" begin="arrowLeft.mouseover" end="arrowLeft.mouseout"/>
                  </use>
                  <path fill="none" stroke="white" stroke-width="1.5" d="M0,-3.0v7 M-2.5,-0.5L0,-3.0L2.5,-0.5"/>
                </g>
        </g>
        <svg viewBox="0 0 15 15" width="100%" height="30px" preserveAspectRatio="xMaxYMin meet">
         <g id="arrow_out" transform="scale(0.3 0.3)">
          <a xlink:href="classdoris_1_1_exec_node_ab64c00a9e2b0a87024a348747d047381_icgraph_org.svg" target="_base">
           <rect id="button" ry="5" rx="5" y="6" x="6" height="38" width="38"
                fill="#f2f5e9" fill-opacity="0.5" stroke="#606060" stroke-width="1.0"/>
           <path id="arrow"
             d="M 11.500037,31.436501 C 11.940474,20.09759 22.043105,11.32322 32.158766,21.979434 L 37.068811,17.246167 C 37.068811,17.246167 37.088388,32 37.088388,32 L 22.160133,31.978069 C 22.160133,31.978069 26.997745,27.140456 26.997745,27.140456 C 18.528582,18.264221 13.291696,25.230495 11.500037,31.436501 z"
             style="fill:#404040;"/>
          </a>
         </g>
        </svg>
</svg>
