<?xml version="1.0" encoding="UTF-8" standalone="no"?>
<!DOCTYPE svg PUBLIC "-//W3C//DTD SVG 1.1//EN"
 "http://www.w3.org/Graphics/SVG/1.1/DTD/svg11.dtd">
<!-- Generated by graphviz version 7.1.0 (20230121.1956)
 -->
<!-- Title: limit Pages: 1 -->
<svg width="409pt" height="376pt"
 viewBox="0.00 0.00 409.00 376.00" xmlns="http://www.w3.org/2000/svg" xmlns:xlink="http://www.w3.org/1999/xlink">
<g id="graph0" class="graph" transform="scale(1 1) rotate(0) translate(4 372)">
<title>limit</title>
<!-- Node1 -->
<g id="node1" class="node">
<title>Node1</title>
<g id="a_node1"><a xlink:title=" ">
<polygon fill="#999999" stroke="#666666" points="401,-180 366,-180 366,-161 401,-161 401,-180"/>
<text text-anchor="middle" x="383.5" y="-168" font-family="Helvetica,sans-Serif" font-size="10.00">limit</text>
</a>
</g>
</g>
<!-- Node2 -->
<g id="node2" class="node">
<title>Node2</title>
<g id="a_node2"><a xlink:href="../../d9/d19/classdoris_1_1vectorized_1_1_new_olap_scan_node.html#a2bf2c1da27d85e118ac8be6223bc339d" target="_top" xlink:title=" ">
<polygon fill="white" stroke="#666666" points="324.5,-368 190.5,-368 190.5,-327 324.5,-327 324.5,-368"/>
<text text-anchor="start" x="198.5" y="-356" font-family="Helvetica,sans-Serif" font-size="10.00">doris::vectorized::</text>
<text text-anchor="start" x="198.5" y="-345" font-family="Helvetica,sans-Serif" font-size="10.00">NewOlapScanNode::_build</text>
<text text-anchor="middle" x="257.5" y="-334" font-family="Helvetica,sans-Serif" font-size="10.00">_key_ranges_and_filters</text>
</a>
</g>
</g>
<!-- Node1&#45;&gt;Node2 -->
<g id="edge1" class="edge">
<title>Node1&#45;&gt;Node2</title>
<path fill="none" stroke="#63b8ff" d="M380.47,-191.5C376.35,-223.01 364.29,-282.66 330,-318.5 327.13,-321.5 323.91,-324.2 320.46,-326.63"/>
<polygon fill="#63b8ff" stroke="#63b8ff" points="383.93,-192.04 381.58,-181.71 376.97,-191.25 383.93,-192.04"/>
</g>
<!-- Node4 -->
<g id="node4" class="node">
<title>Node4</title>
<g id="a_node4"><a xlink:href="../../d7/d71/classdoris_1_1vectorized_1_1_aggregation_node.html#a26ff2d6f84e453000f5d6289ae441b46" target="_top" xlink:title=" ">
<polygon fill="white" stroke="#666666" points="327,-309 188,-309 188,-268 327,-268 327,-309"/>
<text text-anchor="start" x="196" y="-297" font-family="Helvetica,sans-Serif" font-size="10.00">doris::vectorized::</text>
<text text-anchor="start" x="196" y="-286" font-family="Helvetica,sans-Serif" font-size="10.00">AggregationNode::_execute</text>
<text text-anchor="middle" x="257.5" y="-275" font-family="Helvetica,sans-Serif" font-size="10.00">_with_serialized_key_helper</text>
</a>
</g>
</g>
<!-- Node1&#45;&gt;Node4 -->
<g id="edge3" class="edge">
<title>Node1&#45;&gt;Node4</title>
<path fill="none" stroke="#63b8ff" d="M374.89,-191.16C366.61,-211.08 351.59,-240.88 330,-259.5 326.55,-262.47 322.76,-265.17 318.77,-267.61"/>
<polygon fill="#63b8ff" stroke="#63b8ff" points="378.14,-192.47 378.53,-181.88 371.62,-189.91 378.14,-192.47"/>
</g>
<!-- Node5 -->
<g id="node5" class="node">
<title>Node5</title>
<g id="a_node5"><a xlink:href="../../d2/dc5/classdoris_1_1vectorized_1_1_new_es_scan_node.html#a0555e1f7ce5d98280b06347082340e30" target="_top" xlink:title=" ">
<polygon fill="white" stroke="#666666" points="317,-250 198,-250 198,-209 317,-209 317,-250"/>
<text text-anchor="start" x="206" y="-238" font-family="Helvetica,sans-Serif" font-size="10.00">doris::vectorized::</text>
<text text-anchor="start" x="206" y="-227" font-family="Helvetica,sans-Serif" font-size="10.00">NewEsScanNode::_init</text>
<text text-anchor="middle" x="257.5" y="-216" font-family="Helvetica,sans-Serif" font-size="10.00">_scanners</text>
</a>
</g>
</g>
<!-- Node1&#45;&gt;Node5 -->
<g id="edge4" class="edge">
<title>Node1&#45;&gt;Node5</title>
<path fill="none" stroke="#63b8ff" d="M357.04,-185.96C348.57,-190.86 339,-196.13 330,-200.5 324.34,-203.25 318.34,-205.97 312.33,-208.57"/>
<polygon fill="#63b8ff" stroke="#63b8ff" points="358.57,-189.12 365.41,-181.03 355.02,-183.09 358.57,-189.12"/>
</g>
<!-- Node6 -->
<g id="node6" class="node">
<title>Node6</title>
<g id="a_node6"><a xlink:href="../../d7/d71/classdoris_1_1vectorized_1_1_aggregation_node.html#a37f0bc27af1aec70366d6d52425a26e4" target="_top" xlink:title=" ">
<polygon fill="white" stroke="#666666" points="327,-191 188,-191 188,-150 327,-150 327,-191"/>
<text text-anchor="start" x="196" y="-179" font-family="Helvetica,sans-Serif" font-size="10.00">doris::vectorized::</text>
<text text-anchor="start" x="196" y="-168" font-family="Helvetica,sans-Serif" font-size="10.00">AggregationNode::_merge</text>
<text text-anchor="middle" x="257.5" y="-157" font-family="Helvetica,sans-Serif" font-size="10.00">_with_serialized_key_helper</text>
</a>
</g>
</g>
<!-- Node1&#45;&gt;Node6 -->
<g id="edge5" class="edge">
<title>Node1&#45;&gt;Node6</title>
<path fill="none" stroke="#63b8ff" d="M354.14,-170.5C346.01,-170.5 336.77,-170.5 327.31,-170.5"/>
<polygon fill="#63b8ff" stroke="#63b8ff" points="354,-174 364,-170.5 354,-167 354,-174"/>
</g>
<!-- Node7 -->
<g id="node7" class="node">
<title>Node7</title>
<g id="a_node7"><a xlink:href="../../de/dbb/classdoris_1_1vectorized_1_1_v_scan_node.html#a3163e2690c44151ce749dc6b24b2c871" target="_top" xlink:title=" ">
<polygon fill="white" stroke="#666666" points="330,-131.5 185,-131.5 185,-101.5 330,-101.5 330,-131.5"/>
<text text-anchor="start" x="193" y="-119.5" font-family="Helvetica,sans-Serif" font-size="10.00">doris::vectorized::</text>
<text text-anchor="middle" x="257.5" y="-108.5" font-family="Helvetica,sans-Serif" font-size="10.00">VScanNode::_start_scanners</text>
</a>
</g>
</g>
<!-- Node1&#45;&gt;Node7 -->
<g id="edge6" class="edge">
<title>Node1&#45;&gt;Node7</title>
<path fill="none" stroke="#63b8ff" d="M356.45,-154.98C348.15,-150.34 338.82,-145.45 330,-141.5 322.44,-138.12 314.27,-134.89 306.25,-131.94"/>
<polygon fill="#63b8ff" stroke="#63b8ff" points="354.58,-157.94 365,-159.88 358.06,-151.87 354.58,-157.94"/>
</g>
<!-- Node9 -->
<g id="node9" class="node">
<title>Node9</title>
<g id="a_node9"><a xlink:href="../../d6/dfe/classdoris_1_1vectorized_1_1_v_exchange_node.html#a939fd363d3b2dac6eb3d9e18db0c3573" target="_top" xlink:title=" ">
<polygon fill="white" stroke="#666666" points="324.5,-83.5 190.5,-83.5 190.5,-53.5 324.5,-53.5 324.5,-83.5"/>
<text text-anchor="start" x="198.5" y="-71.5" font-family="Helvetica,sans-Serif" font-size="10.00">doris::vectorized::</text>
<text text-anchor="middle" x="257.5" y="-60.5" font-family="Helvetica,sans-Serif" font-size="10.00">VExchangeNode::get_next</text>
</a>
</g>
</g>
<!-- Node1&#45;&gt;Node9 -->
<g id="edge8" class="edge">
<title>Node1&#45;&gt;Node9</title>
<path fill="none" stroke="#63b8ff" d="M373.56,-150.27C364.82,-132.67 349.92,-107.68 330,-92.5 325.73,-89.25 320.99,-86.42 316.05,-83.97"/>
<polygon fill="#63b8ff" stroke="#63b8ff" points="370.34,-151.65 377.76,-159.22 376.68,-148.68 370.34,-151.65"/>
</g>
<!-- Node10 -->
<g id="node10" class="node">
<title>Node10</title>
<g id="a_node10"><a xlink:href="../../da/d48/classdoris_1_1vectorized_1_1_new_olap_scanner.html#a489589c869322a485ac26bf125bbc7de" target="_top" xlink:title=" ">
<polygon fill="white" stroke="#666666" points="323,-35.5 192,-35.5 192,-5.5 323,-5.5 323,-35.5"/>
<text text-anchor="start" x="200" y="-23.5" font-family="Helvetica,sans-Serif" font-size="10.00">doris::vectorized::</text>
<text text-anchor="middle" x="257.5" y="-12.5" font-family="Helvetica,sans-Serif" font-size="10.00">NewOlapScanner::prepare</text>
</a>
</g>
</g>
<!-- Node1&#45;&gt;Node10 -->
<g id="edge9" class="edge">
<title>Node1&#45;&gt;Node10</title>
<path fill="none" stroke="#63b8ff" d="M379.27,-149.62C373.9,-121.84 360.53,-72.93 330,-44.5 326.45,-41.2 322.44,-38.35 318.17,-35.89"/>
<polygon fill="#63b8ff" stroke="#63b8ff" points="375.78,-150.01 380.95,-159.26 382.68,-148.81 375.78,-150.01"/>
</g>
<!-- Node3 -->
<g id="node3" class="node">
<title>Node3</title>
<g id="a_node3"><a xlink:href="../../d9/d19/classdoris_1_1vectorized_1_1_new_olap_scan_node.html#a542bd4a442f8fa85fd475e783ee7c746" target="_top" xlink:title=" ">
<polygon fill="white" stroke="#666666" points="149,-368 0,-368 0,-327 149,-327 149,-368"/>
<text text-anchor="start" x="8" y="-356" font-family="Helvetica,sans-Serif" font-size="10.00">doris::vectorized::</text>
<text text-anchor="start" x="8" y="-345" font-family="Helvetica,sans-Serif" font-size="10.00">NewOlapScanNode::_process</text>
<text text-anchor="middle" x="74.5" y="-334" font-family="Helvetica,sans-Serif" font-size="10.00">_conjuncts</text>
</a>
</g>
</g>
<!-- Node2&#45;&gt;Node3 -->
<g id="edge2" class="edge">
<title>Node2&#45;&gt;Node3</title>
<path fill="none" stroke="#63b8ff" d="M178.74,-347.5C168.94,-347.5 158.93,-347.5 149.19,-347.5"/>
<polygon fill="#63b8ff" stroke="#63b8ff" points="178.62,-351 188.62,-347.5 178.62,-344 178.62,-351"/>
</g>
<!-- Node8 -->
<g id="node8" class="node">
<title>Node8</title>
<g id="a_node8"><a xlink:href="../../de/dbb/classdoris_1_1vectorized_1_1_v_scan_node.html#a4563a8abb973cbbc4904c263665bb0fe" target="_top" xlink:title=" ">
<polygon fill="white" stroke="#666666" points="143.5,-131.5 5.5,-131.5 5.5,-101.5 143.5,-101.5 143.5,-131.5"/>
<text text-anchor="start" x="13.5" y="-119.5" font-family="Helvetica,sans-Serif" font-size="10.00">doris::vectorized::</text>
<text text-anchor="middle" x="74.5" y="-108.5" font-family="Helvetica,sans-Serif" font-size="10.00">VScanNode::alloc_resource</text>
</a>
</g>
</g>
<!-- Node7&#45;&gt;Node8 -->
<g id="edge7" class="edge">
<title>Node7&#45;&gt;Node8</title>
<path fill="none" stroke="#63b8ff" d="M173.27,-116.5C163.46,-116.5 153.54,-116.5 143.96,-116.5"/>
<polygon fill="#63b8ff" stroke="#63b8ff" points="173.19,-120 183.19,-116.5 173.19,-113 173.19,-120"/>
</g>
<!-- Node11 -->
<g id="node11" class="node">
<title>Node11</title>
<g id="a_node11"><a xlink:href="../../d9/d19/classdoris_1_1vectorized_1_1_new_olap_scan_node.html#a0555e1f7ce5d98280b06347082340e30" target="_top" xlink:title=" ">
<polygon fill="white" stroke="#666666" points="138,-41 11,-41 11,0 138,0 138,-41"/>
<text text-anchor="start" x="19" y="-29" font-family="Helvetica,sans-Serif" font-size="10.00">doris::vectorized::</text>
<text text-anchor="start" x="19" y="-18" font-family="Helvetica,sans-Serif" font-size="10.00">NewOlapScanNode::_init</text>
<text text-anchor="middle" x="74.5" y="-7" font-family="Helvetica,sans-Serif" font-size="10.00">_scanners</text>
</a>
</g>
</g>
<!-- Node10&#45;&gt;Node11 -->
<g id="edge10" class="edge">
<title>Node10&#45;&gt;Node11</title>
<path fill="none" stroke="#63b8ff" d="M180.53,-20.5C166.49,-20.5 151.97,-20.5 138.37,-20.5"/>
<polygon fill="#63b8ff" stroke="#63b8ff" points="180.15,-24 190.15,-20.5 180.15,-17 180.15,-24"/>
</g>
</g>
</svg>
