<?xml version="1.0" encoding="UTF-8" standalone="no"?>
<!DOCTYPE svg PUBLIC "-//W3C//DTD SVG 1.1//EN"
 "http://www.w3.org/Graphics/SVG/1.1/DTD/svg11.dtd">
<!-- Generated by graphviz version 7.1.0 (20230121.1956)
 -->
<!-- Title: release_block_memory Pages: 1 -->
<svg width="290pt" height="113pt"
 viewBox="0.00 0.00 290.00 113.00" xmlns="http://www.w3.org/2000/svg" xmlns:xlink="http://www.w3.org/1999/xlink">
<g id="graph0" class="graph" transform="scale(1 1) rotate(0) translate(4 109)">
<title>release_block_memory</title>
<!-- Node1 -->
<g id="node1" class="node">
<title>Node1</title>
<g id="a_node1"><a xlink:title="Release all memory of block which got from child. The block">
<polygon fill="#999999" stroke="#666666" points="117,-62 0,-62 0,-43 117,-43 117,-62"/>
<text text-anchor="middle" x="58.5" y="-50" font-family="Helvetica,sans-Serif" font-size="10.00">release_block_memory</text>
</a>
</g>
</g>
<!-- Node2 -->
<g id="node2" class="node">
<title>Node2</title>
<g id="a_node2"><a xlink:href="../../d2/d49/classdoris_1_1_exec_node.html#ac1ab5139036e2c86a19974da1cc031d1" target="_top" xlink:title=" ">
<polygon fill="white" stroke="#666666" points="236,-105 199,-105 199,-86 236,-86 236,-105"/>
<text text-anchor="middle" x="217.5" y="-93" font-family="Helvetica,sans-Serif" font-size="10.00">child</text>
</a>
</g>
</g>
<!-- Node1&#45;&gt;Node2 -->
<g id="edge1" class="edge">
<title>Node1&#45;&gt;Node2</title>
<path fill="none" stroke="#63b8ff" d="M95.91,-62.47C123.88,-70.13 161.96,-80.56 187.79,-87.64"/>
<polygon fill="#63b8ff" stroke="#63b8ff" points="186.69,-90.96 197.26,-90.23 188.54,-84.21 186.69,-90.96"/>
</g>
<!-- Node3 -->
<g id="node3" class="node">
<title>Node3</title>
<g id="a_node3"><a xlink:href="../../d2/d12/classdoris_1_1vectorized_1_1_block.html#a5383028d98be36cc4b09611b8ee0fa5a" target="_top" xlink:title=" ">
<polygon fill="white" stroke="#666666" points="282,-67.5 153,-67.5 153,-37.5 282,-37.5 282,-67.5"/>
<text text-anchor="start" x="161" y="-55.5" font-family="Helvetica,sans-Serif" font-size="10.00">doris::vectorized::</text>
<text text-anchor="middle" x="217.5" y="-44.5" font-family="Helvetica,sans-Serif" font-size="10.00">Block::clear_column_data</text>
</a>
</g>
</g>
<!-- Node1&#45;&gt;Node3 -->
<g id="edge2" class="edge">
<title>Node1&#45;&gt;Node3</title>
<path fill="none" stroke="#63b8ff" d="M117.07,-52.5C124.92,-52.5 133.07,-52.5 141.18,-52.5"/>
<polygon fill="#63b8ff" stroke="#63b8ff" points="141.06,-56 151.06,-52.5 141.06,-49 141.06,-56"/>
</g>
<!-- Node4 -->
<g id="node4" class="node">
<title>Node4</title>
<g id="a_node4"><a xlink:href="../../d2/d49/classdoris_1_1_exec_node.html#ab64c00a9e2b0a87024a348747d047381" target="_top" xlink:title=" ">
<polygon fill="white" stroke="#666666" points="247,-19 188,-19 188,0 247,0 247,-19"/>
<text text-anchor="middle" x="217.5" y="-7" font-family="Helvetica,sans-Serif" font-size="10.00">row_desc</text>
</a>
</g>
</g>
<!-- Node1&#45;&gt;Node4 -->
<g id="edge3" class="edge">
<title>Node1&#45;&gt;Node4</title>
<path fill="none" stroke="#63b8ff" d="M95.91,-42.53C120.11,-35.9 151.88,-27.2 176.73,-20.39"/>
<polygon fill="#63b8ff" stroke="#63b8ff" points="177.43,-23.83 186.15,-17.81 175.58,-17.08 177.43,-23.83"/>
</g>
</g>
</svg>
