<?xml version="1.0" encoding="UTF-8" standalone="no"?>
<!DOCTYPE svg PUBLIC "-//W3C//DTD SVG 1.1//EN"
 "http://www.w3.org/Graphics/SVG/1.1/DTD/svg11.dtd">
<!-- Generated by graphviz version 7.1.0 (20230121.1956)
 -->
<!-- Title: get_next_after_projects Pages: 1 -->
<svg width="587pt" height="220pt"
 viewBox="0.00 0.00 587.00 220.00" xmlns="http://www.w3.org/2000/svg" xmlns:xlink="http://www.w3.org/1999/xlink">
<g id="graph0" class="graph" transform="scale(1 1) rotate(0) translate(4 216)">
<title>get_next_after_projects</title>
<!-- Node1 -->
<g id="node1" class="node">
<title>Node1</title>
<g id="a_node1"><a xlink:title=" ">
<polygon fill="#999999" stroke="#666666" points="119,-115.5 0,-115.5 0,-96.5 119,-96.5 119,-115.5"/>
<text text-anchor="middle" x="59.5" y="-103.5" font-family="Helvetica,sans-Serif" font-size="10.00">get_next_after_projects</text>
</a>
</g>
</g>
<!-- Node2 -->
<g id="node2" class="node">
<title>Node2</title>
<g id="a_node2"><a xlink:href="../../d2/d12/classdoris_1_1vectorized_1_1_block.html#a5383028d98be36cc4b09611b8ee0fa5a" target="_top" xlink:title=" ">
<polygon fill="white" stroke="#666666" points="284,-164 155,-164 155,-134 284,-134 284,-164"/>
<text text-anchor="start" x="163" y="-152" font-family="Helvetica,sans-Serif" font-size="10.00">doris::vectorized::</text>
<text text-anchor="middle" x="219.5" y="-141" font-family="Helvetica,sans-Serif" font-size="10.00">Block::clear_column_data</text>
</a>
</g>
</g>
<!-- Node1&#45;&gt;Node2 -->
<g id="edge1" class="edge">
<title>Node1&#45;&gt;Node2</title>
<path fill="none" stroke="#63b8ff" d="M97.15,-115.97C113.07,-120.31 132.26,-125.53 150.63,-130.53"/>
<polygon fill="#63b8ff" stroke="#63b8ff" points="149.6,-133.88 160.17,-133.12 151.44,-127.12 149.6,-133.88"/>
</g>
<!-- Node3 -->
<g id="node3" class="node">
<title>Node3</title>
<g id="a_node3"><a xlink:href="../../d2/d49/classdoris_1_1_exec_node.html#afbf2bdb789181d6bf4721d0e10706208" target="_top" xlink:title="Only use in vectorized exec engine try to do projections to trans _row_desc &#45;&gt; _output_row_desc">
<polygon fill="white" stroke="#666666" points="259.5,-115.5 179.5,-115.5 179.5,-96.5 259.5,-96.5 259.5,-115.5"/>
<text text-anchor="middle" x="219.5" y="-103.5" font-family="Helvetica,sans-Serif" font-size="10.00">do_projections</text>
</a>
</g>
</g>
<!-- Node1&#45;&gt;Node3 -->
<g id="edge2" class="edge">
<title>Node1&#45;&gt;Node3</title>
<path fill="none" stroke="#63b8ff" d="M119.33,-106C135.27,-106 152.39,-106 167.84,-106"/>
<polygon fill="#63b8ff" stroke="#63b8ff" points="167.77,-109.5 177.77,-106 167.77,-102.5 167.77,-109.5"/>
</g>
<!-- Node10 -->
<g id="node10" class="node">
<title>Node10</title>
<g id="a_node10"><a xlink:href="../../d4/d87/classdoris_1_1_row_descriptor.html#a392928ef4d4c5d4c3b9161a74975cee0" target="_top" xlink:title=" ">
<polygon fill="white" stroke="#666666" points="282,-78 157,-78 157,-48 282,-48 282,-78"/>
<text text-anchor="start" x="165" y="-66" font-family="Helvetica,sans-Serif" font-size="10.00">doris::RowDescriptor</text>
<text text-anchor="middle" x="219.5" y="-55" font-family="Helvetica,sans-Serif" font-size="10.00">::num_materialized_slots</text>
</a>
</g>
</g>
<!-- Node1&#45;&gt;Node10 -->
<g id="edge9" class="edge">
<title>Node1&#45;&gt;Node10</title>
<path fill="none" stroke="#63b8ff" d="M97.15,-96.03C113.07,-91.69 132.26,-86.47 150.63,-81.47"/>
<polygon fill="#63b8ff" stroke="#63b8ff" points="151.44,-84.88 160.17,-78.88 149.6,-78.12 151.44,-84.88"/>
</g>
<!-- Node4 -->
<g id="node4" class="node">
<title>Node4</title>
<g id="a_node4"><a xlink:href="../../d2/d12/classdoris_1_1vectorized_1_1_block.html#a54f8f7eae676dfa49029fff7c7ce8f05" target="_top" xlink:title="References are invalidated after calling functions above.">
<polygon fill="white" stroke="#666666" points="436,-212 320,-212 320,-182 436,-182 436,-212"/>
<text text-anchor="start" x="328" y="-200" font-family="Helvetica,sans-Serif" font-size="10.00">doris::vectorized::</text>
<text text-anchor="middle" x="378" y="-189" font-family="Helvetica,sans-Serif" font-size="10.00">Block::get_by_position</text>
</a>
</g>
</g>
<!-- Node3&#45;&gt;Node4 -->
<g id="edge3" class="edge">
<title>Node3&#45;&gt;Node4</title>
<path fill="none" stroke="#63b8ff" d="M259.89,-113.55C268.32,-116.29 276.83,-120 284,-125 305.87,-140.25 298.98,-156.59 320,-173 321.3,-174.01 322.64,-174.99 324.02,-175.93"/>
<polygon fill="#63b8ff" stroke="#63b8ff" points="321.92,-178.75 332.3,-180.88 325.51,-172.74 321.92,-178.75"/>
</g>
<!-- Node5 -->
<g id="node5" class="node">
<title>Node5</title>
<g id="a_node5"><a xlink:href="../../d2/d12/classdoris_1_1vectorized_1_1_block.html#ad6aa07b95a35c43b05efc1fe5832a7db" target="_top" xlink:title=" ">
<polygon fill="white" stroke="#666666" points="427,-164 329,-164 329,-134 427,-134 427,-164"/>
<text text-anchor="start" x="337" y="-152" font-family="Helvetica,sans-Serif" font-size="10.00">doris::vectorized::</text>
<text text-anchor="middle" x="378" y="-141" font-family="Helvetica,sans-Serif" font-size="10.00">Block::mem_reuse</text>
</a>
</g>
</g>
<!-- Node3&#45;&gt;Node5 -->
<g id="edge4" class="edge">
<title>Node3&#45;&gt;Node5</title>
<path fill="none" stroke="#63b8ff" d="M256.8,-115.97C274.94,-120.96 297.35,-127.11 317.89,-132.76"/>
<polygon fill="#63b8ff" stroke="#63b8ff" points="316.71,-136.06 327.28,-135.34 318.57,-129.31 316.71,-136.06"/>
</g>
<!-- Node6 -->
<g id="node6" class="node">
<title>Node6</title>
<g id="a_node6"><a xlink:href="../../d9/d8d/classdoris_1_1_status.html#a6ec1a217f203269ab53d2290d602db24" target="_top" xlink:title=" ">
<polygon fill="white" stroke="#666666" points="424,-115.5 332,-115.5 332,-96.5 424,-96.5 424,-115.5"/>
<text text-anchor="middle" x="378" y="-103.5" font-family="Helvetica,sans-Serif" font-size="10.00">doris::Status::OK</text>
</a>
</g>
</g>
<!-- Node3&#45;&gt;Node6 -->
<g id="edge5" class="edge">
<title>Node3&#45;&gt;Node6</title>
<path fill="none" stroke="#63b8ff" d="M259.99,-106C278.23,-106 300.24,-106 320.22,-106"/>
<polygon fill="#63b8ff" stroke="#63b8ff" points="320.19,-109.5 330.19,-106 320.19,-102.5 320.19,-109.5"/>
</g>
<!-- Node8 -->
<g id="node8" class="node">
<title>Node8</title>
<g id="a_node8"><a xlink:href="../../d2/d12/classdoris_1_1vectorized_1_1_block.html#a9be86262d8ec3739dba5e0910c2339ad" target="_top" xlink:title="Returns number of rows from first column in block, not equal to nullptr. If no columns,...">
<polygon fill="white" stroke="#666666" points="425.5,-78 330.5,-78 330.5,-48 425.5,-48 425.5,-78"/>
<text text-anchor="start" x="338.5" y="-66" font-family="Helvetica,sans-Serif" font-size="10.00">doris::vectorized::</text>
<text text-anchor="middle" x="378" y="-55" font-family="Helvetica,sans-Serif" font-size="10.00">Block::rows</text>
</a>
</g>
</g>
<!-- Node3&#45;&gt;Node8 -->
<g id="edge7" class="edge">
<title>Node3&#45;&gt;Node8</title>
<path fill="none" stroke="#63b8ff" d="M256.8,-96.03C275.32,-90.94 298.3,-84.62 319.18,-78.89"/>
<polygon fill="#63b8ff" stroke="#63b8ff" points="320.03,-82.28 328.74,-76.26 318.17,-75.53 320.03,-82.28"/>
</g>
<!-- Node9 -->
<g id="node9" class="node">
<title>Node9</title>
<g id="a_node9"><a xlink:href="../../d2/d12/classdoris_1_1vectorized_1_1_block.html#a7c22bac5327618d6ac842348fe2a3780" target="_top" xlink:title=" ">
<polygon fill="white" stroke="#666666" points="425.5,-30 330.5,-30 330.5,0 425.5,0 425.5,-30"/>
<text text-anchor="start" x="338.5" y="-18" font-family="Helvetica,sans-Serif" font-size="10.00">doris::vectorized::</text>
<text text-anchor="middle" x="378" y="-7" font-family="Helvetica,sans-Serif" font-size="10.00">Block::swap</text>
</a>
</g>
</g>
<!-- Node3&#45;&gt;Node9 -->
<g id="edge8" class="edge">
<title>Node3&#45;&gt;Node9</title>
<path fill="none" stroke="#63b8ff" d="M259.89,-98.45C268.32,-95.71 276.83,-92 284,-87 305.87,-71.75 298.98,-55.41 320,-39 321.3,-37.99 322.64,-37.01 324.02,-36.07"/>
<polygon fill="#63b8ff" stroke="#63b8ff" points="325.51,-39.26 332.3,-31.12 321.92,-33.25 325.51,-39.26"/>
</g>
<!-- Node7 -->
<g id="node7" class="node">
<title>Node7</title>
<g id="a_node7"><a xlink:href="../../d9/d8d/classdoris_1_1_status.html#aafde58df1b2a6a91d5b674373be3ffc5" target="_top" xlink:title=" ">
<polygon fill="white" stroke="#666666" points="579,-115.5 472,-115.5 472,-96.5 579,-96.5 579,-115.5"/>
<text text-anchor="middle" x="525.5" y="-103.5" font-family="Helvetica,sans-Serif" font-size="10.00">doris::Status::Status</text>
</a>
</g>
</g>
<!-- Node6&#45;&gt;Node7 -->
<g id="edge6" class="edge">
<title>Node6&#45;&gt;Node7</title>
<path fill="none" stroke="#63b8ff" d="M424.24,-106C435.62,-106 448.05,-106 460.17,-106"/>
<polygon fill="#63b8ff" stroke="#63b8ff" points="460.13,-109.5 470.13,-106 460.13,-102.5 460.13,-109.5"/>
</g>
</g>
</svg>
