<?xml version="1.0" encoding="UTF-8" standalone="no"?>
<!DOCTYPE svg PUBLIC "-//W3C//DTD SVG 1.1//EN"
 "http://www.w3.org/Graphics/SVG/1.1/DTD/svg11.dtd">
<!-- Generated by graphviz version 7.1.0 (20230121.1956)
 -->
<!-- Title: total_allocated_bytes Pages: 1 -->
<svg width="300pt" height="98pt"
 viewBox="0.00 0.00 300.00 97.50" xmlns="http://www.w3.org/2000/svg" xmlns:xlink="http://www.w3.org/1999/xlink">
<g id="graph0" class="graph" transform="scale(1 1) rotate(0) translate(4 93.5)">
<title>total_allocated_bytes</title>
<!-- Node1 -->
<g id="node1" class="node">
<title>Node1</title>
<g id="a_node1"><a xlink:title=" ">
<polygon fill="#999999" stroke="#666666" points="292,-57 183,-57 183,-38 292,-38 292,-57"/>
<text text-anchor="middle" x="237.5" y="-45" font-family="Helvetica,sans-Serif" font-size="10.00">total_allocated_bytes</text>
</a>
</g>
</g>
<!-- Node2 -->
<g id="node2" class="node">
<title>Node2</title>
<g id="a_node2"><a xlink:href="../../d9/d5a/classdoris_1_1segment__v2_1_1_binary_dict_page_builder.html#a29c8248f6e0691cfce26b1ec9092b0b4" target="_top" xlink:title=" ">
<polygon fill="white" stroke="#666666" points="143,-89.5 4,-89.5 4,-59.5 143,-59.5 143,-89.5"/>
<text text-anchor="start" x="12" y="-77.5" font-family="Helvetica,sans-Serif" font-size="10.00">doris::segment_v2::</text>
<text text-anchor="middle" x="73.5" y="-66.5" font-family="Helvetica,sans-Serif" font-size="10.00">BinaryDictPageBuilder::size</text>
</a>
</g>
</g>
<!-- Node1&#45;&gt;Node2 -->
<g id="edge1" class="edge">
<title>Node1&#45;&gt;Node2</title>
<path fill="none" stroke="#63b8ff" d="M171.49,-58.33C162.27,-59.87 152.77,-61.45 143.48,-63"/>
<polygon fill="#63b8ff" stroke="#63b8ff" points="171.77,-61.84 181.06,-56.74 170.62,-54.93 171.77,-61.84"/>
</g>
<!-- Node3 -->
<g id="node3" class="node">
<title>Node3</title>
<g id="a_node3"><a xlink:href="../../db/dcb/classdoris_1_1segment__v2_1_1_n_gram_bloom_filter_index_writer_impl.html#abdd99a0b3af86238b5d0f152721d74ce" target="_top" xlink:title=" ">
<polygon fill="white" stroke="#666666" points="147,-41 0,-41 0,0 147,0 147,-41"/>
<text text-anchor="start" x="8" y="-29" font-family="Helvetica,sans-Serif" font-size="10.00">doris::segment_v2::</text>
<text text-anchor="start" x="8" y="-18" font-family="Helvetica,sans-Serif" font-size="10.00">NGramBloomFilterIndexWriter</text>
<text text-anchor="middle" x="73.5" y="-7" font-family="Helvetica,sans-Serif" font-size="10.00">Impl::size</text>
</a>
</g>
</g>
<!-- Node1&#45;&gt;Node3 -->
<g id="edge2" class="edge">
<title>Node1&#45;&gt;Node3</title>
<path fill="none" stroke="#63b8ff" d="M171.47,-36.66C163.5,-35.33 155.31,-33.97 147.24,-32.62"/>
<polygon fill="#63b8ff" stroke="#63b8ff" points="170.62,-40.07 181.06,-38.26 171.77,-33.16 170.62,-40.07"/>
</g>
</g>
</svg>
