<?xml version="1.0" encoding="UTF-8" standalone="no"?>
<!DOCTYPE svg PUBLIC "-//W3C//DTD SVG 1.1//EN"
 "http://www.w3.org/Graphics/SVG/1.1/DTD/svg11.dtd">
<!-- Generated by graphviz version 7.1.0 (20230121.1956)
 -->
<!-- Title: vec_call Pages: 1 -->
<svg width="580pt" height="372pt"
 viewBox="0.00 0.00 580.00 371.50" xmlns="http://www.w3.org/2000/svg" xmlns:xlink="http://www.w3.org/1999/xlink">
<g id="graph0" class="graph" transform="scale(1 1) rotate(0) translate(4 367.5)">
<title>vec_call</title>
<!-- Node1 -->
<g id="node1" class="node">
<title>Node1</title>
<g id="a_node1"><a xlink:title=" ">
<polygon fill="#999999" stroke="#666666" points="53,-134 0,-134 0,-115 53,-115 53,-134"/>
<text text-anchor="middle" x="26.5" y="-122" font-family="Helvetica,sans-Serif" font-size="10.00">vec_call</text>
</a>
</g>
</g>
<!-- Node2 -->
<g id="node2" class="node">
<title>Node2</title>
<g id="a_node2"><a xlink:href="../../d1/d2a/classdoris_1_1vectorized_1_1_r_p_c_fn_impl.html#a53353694f976d32072e7e1ee0038e8ac" target="_top" xlink:title=" ">
<polygon fill="white" stroke="#666666" points="212,-293 89,-293 89,-274 212,-274 212,-293"/>
<text text-anchor="middle" x="150.5" y="-281" font-family="Helvetica,sans-Serif" font-size="10.00">_convert_block_to_proto</text>
</a>
</g>
</g>
<!-- Node1&#45;&gt;Node2 -->
<g id="edge1" class="edge">
<title>Node1&#45;&gt;Node2</title>
<path fill="none" stroke="#63b8ff" d="M35.13,-134.45C55.07,-160.43 108.99,-230.7 135.03,-264.65"/>
<polygon fill="#63b8ff" stroke="#63b8ff" points="132.09,-266.55 140.95,-272.36 137.64,-262.29 132.09,-266.55"/>
</g>
<!-- Node6 -->
<g id="node6" class="node">
<title>Node6</title>
<g id="a_node6"><a xlink:href="../../d1/d2a/classdoris_1_1vectorized_1_1_r_p_c_fn_impl.html#a30af3b3ba436900c6014d2806df7be06" target="_top" xlink:title=" ">
<polygon fill="white" stroke="#666666" points="198.5,-134 102.5,-134 102.5,-115 198.5,-115 198.5,-134"/>
<text text-anchor="middle" x="150.5" y="-122" font-family="Helvetica,sans-Serif" font-size="10.00">_convert_to_block</text>
</a>
</g>
</g>
<!-- Node1&#45;&gt;Node6 -->
<g id="edge5" class="edge">
<title>Node1&#45;&gt;Node6</title>
<path fill="none" stroke="#63b8ff" d="M53.37,-124.5C64.41,-124.5 77.77,-124.5 90.98,-124.5"/>
<polygon fill="#63b8ff" stroke="#63b8ff" points="90.97,-128 100.97,-124.5 90.97,-121 90.97,-128"/>
</g>
<!-- Node11 -->
<g id="node11" class="node">
<title>Node11</title>
<g id="a_node11"><a xlink:href="../../d9/d8d/classdoris_1_1_status.html#a6ec1a217f203269ab53d2290d602db24" target="_top" xlink:title=" ">
<polygon fill="white" stroke="#666666" points="196.5,-70 104.5,-70 104.5,-51 196.5,-51 196.5,-70"/>
<text text-anchor="middle" x="150.5" y="-58" font-family="Helvetica,sans-Serif" font-size="10.00">doris::Status::OK</text>
</a>
</g>
</g>
<!-- Node1&#45;&gt;Node11 -->
<g id="edge12" class="edge">
<title>Node1&#45;&gt;Node11</title>
<path fill="none" stroke="#63b8ff" d="M46.56,-114.5C66.35,-104.12 97.54,-87.76 120.41,-75.76"/>
<polygon fill="#63b8ff" stroke="#63b8ff" points="122,-78.88 129.23,-71.13 118.75,-72.68 122,-78.88"/>
</g>
<!-- Node3 -->
<g id="node3" class="node">
<title>Node3</title>
<g id="a_node3"><a xlink:href="../../d1/d2a/classdoris_1_1vectorized_1_1_r_p_c_fn_impl.html#afe5aa9ee3221ee9bbf50e993e9f17750" target="_top" xlink:title=" ">
<polygon fill="white" stroke="#666666" points="389,-363.5 279,-363.5 279,-333.5 389,-333.5 389,-363.5"/>
<text text-anchor="start" x="287" y="-351.5" font-family="Helvetica,sans-Serif" font-size="10.00">_convert_nullable_col</text>
<text text-anchor="middle" x="334" y="-340.5" font-family="Helvetica,sans-Serif" font-size="10.00">_to_pvalue</text>
</a>
</g>
</g>
<!-- Node2&#45;&gt;Node3 -->
<g id="edge2" class="edge">
<title>Node2&#45;&gt;Node3</title>
<path fill="none" stroke="#63b8ff" d="M177.64,-293.48C197.01,-300.82 224.09,-310.96 248,-319.5 257.18,-322.78 266.94,-326.18 276.45,-329.46"/>
<polygon fill="#63b8ff" stroke="#63b8ff" points="275.01,-332.66 285.61,-332.59 277.28,-326.04 275.01,-332.66"/>
</g>
<!-- Node4 -->
<g id="node4" class="node">
<title>Node4</title>
<g id="a_node4"><a xlink:href="../../d2/d12/classdoris_1_1vectorized_1_1_block.html#a54f8f7eae676dfa49029fff7c7ce8f05" target="_top" xlink:title="References are invalidated after calling functions above.">
<polygon fill="white" stroke="#666666" points="572,-193.5 456,-193.5 456,-163.5 572,-163.5 572,-193.5"/>
<text text-anchor="start" x="464" y="-181.5" font-family="Helvetica,sans-Serif" font-size="10.00">doris::vectorized::</text>
<text text-anchor="middle" x="514" y="-170.5" font-family="Helvetica,sans-Serif" font-size="10.00">Block::get_by_position</text>
</a>
</g>
</g>
<!-- Node2&#45;&gt;Node4 -->
<g id="edge3" class="edge">
<title>Node2&#45;&gt;Node4</title>
<path fill="none" stroke="#63b8ff" d="M188.72,-293.49C242.53,-305.87 343.94,-321.38 420,-286.5 456.97,-269.55 484.8,-229.85 499.99,-203.6"/>
<polygon fill="#63b8ff" stroke="#63b8ff" points="503.01,-205.37 504.81,-194.93 496.89,-201.97 503.01,-205.37"/>
</g>
<!-- Node5 -->
<g id="node5" class="node">
<title>Node5</title>
<g id="a_node5"><a xlink:href="../../d2/d12/classdoris_1_1vectorized_1_1_block.html#a9be86262d8ec3739dba5e0910c2339ad" target="_top" xlink:title="Returns number of rows from first column in block, not equal to nullptr. If no columns,...">
<polygon fill="white" stroke="#666666" points="381.5,-277.5 286.5,-277.5 286.5,-247.5 381.5,-247.5 381.5,-277.5"/>
<text text-anchor="start" x="294.5" y="-265.5" font-family="Helvetica,sans-Serif" font-size="10.00">doris::vectorized::</text>
<text text-anchor="middle" x="334" y="-254.5" font-family="Helvetica,sans-Serif" font-size="10.00">Block::rows</text>
</a>
</g>
</g>
<!-- Node2&#45;&gt;Node5 -->
<g id="edge4" class="edge">
<title>Node2&#45;&gt;Node5</title>
<path fill="none" stroke="#63b8ff" d="M212.44,-276.45C232.59,-274.12 254.94,-271.53 274.86,-269.23"/>
<polygon fill="#63b8ff" stroke="#63b8ff" points="275.25,-272.71 284.78,-268.08 274.44,-265.75 275.25,-272.71"/>
</g>
<!-- Node7 -->
<g id="node7" class="node">
<title>Node7</title>
<g id="a_node7"><a xlink:href="../../da/d30/class_c_o_w_helper.html#aa14023f47995d24ce0ea777e90a4cb23" target="_top" xlink:title=" ">
<polygon fill="white" stroke="#666666" points="420,-229.5 248,-229.5 248,-199.5 420,-199.5 420,-229.5"/>
<text text-anchor="start" x="256" y="-217.5" font-family="Helvetica,sans-Serif" font-size="10.00">COWHelper&lt; ColumnVectorHelper,</text>
<text text-anchor="middle" x="334" y="-206.5" font-family="Helvetica,sans-Serif" font-size="10.00"> ColumnVector&lt; T &gt; &gt;::create</text>
</a>
</g>
</g>
<!-- Node6&#45;&gt;Node7 -->
<g id="edge6" class="edge">
<title>Node6&#45;&gt;Node7</title>
<path fill="none" stroke="#63b8ff" d="M163.22,-134.4C180.64,-148.68 214.91,-175.02 248,-190.5 251.51,-192.14 255.15,-193.69 258.87,-195.16"/>
<polygon fill="#63b8ff" stroke="#63b8ff" points="257.48,-198.37 268.08,-198.53 259.89,-191.8 257.48,-198.37"/>
</g>
<!-- Node8 -->
<g id="node8" class="node">
<title>Node8</title>
<g id="a_node8"><a xlink:href="../../d4/d41/classdoris_1_1vectorized_1_1_column_nullable.html#aa56bff67215caba11a6411e09b739913" target="_top" xlink:title=" ">
<polygon fill="white" stroke="#666666" points="393.5,-163.5 274.5,-163.5 274.5,-133.5 393.5,-133.5 393.5,-163.5"/>
<text text-anchor="start" x="282.5" y="-151.5" font-family="Helvetica,sans-Serif" font-size="10.00">doris::vectorized::</text>
<text text-anchor="middle" x="334" y="-140.5" font-family="Helvetica,sans-Serif" font-size="10.00">ColumnNullable::create</text>
</a>
</g>
</g>
<!-- Node6&#45;&gt;Node8 -->
<g id="edge7" class="edge">
<title>Node6&#45;&gt;Node8</title>
<path fill="none" stroke="#63b8ff" d="M198.71,-130.74C218.21,-133.32 241.22,-136.36 262.64,-139.2"/>
<polygon fill="#63b8ff" stroke="#63b8ff" points="262.13,-142.66 272.5,-140.5 263.05,-135.72 262.13,-142.66"/>
</g>
<!-- Node9 -->
<g id="node9" class="node">
<title>Node9</title>
<g id="a_node9"><a xlink:href="../../d2/d12/classdoris_1_1vectorized_1_1_block.html#a85a496189a842da2305b895635af220f" target="_top" xlink:title=" ">
<polygon fill="white" stroke="#666666" points="388.5,-115.5 279.5,-115.5 279.5,-85.5 388.5,-85.5 388.5,-115.5"/>
<text text-anchor="start" x="287.5" y="-103.5" font-family="Helvetica,sans-Serif" font-size="10.00">doris::vectorized::</text>
<text text-anchor="middle" x="334" y="-92.5" font-family="Helvetica,sans-Serif" font-size="10.00">Block::get_data_type</text>
</a>
</g>
</g>
<!-- Node6&#45;&gt;Node9 -->
<g id="edge9" class="edge">
<title>Node6&#45;&gt;Node9</title>
<path fill="none" stroke="#63b8ff" d="M198.71,-118.26C219.83,-115.46 245.07,-112.13 267.93,-109.1"/>
<polygon fill="#63b8ff" stroke="#63b8ff" points="268.33,-112.58 277.79,-107.8 267.41,-105.64 268.33,-112.58"/>
</g>
<!-- Node10 -->
<g id="node10" class="node">
<title>Node10</title>
<g id="a_node10"><a xlink:href="../../d2/d12/classdoris_1_1vectorized_1_1_block.html#a0f83afb1e34b7b73db116622fa569508" target="_top" xlink:title=" ">
<polygon fill="white" stroke="#666666" points="401,-67.5 267,-67.5 267,-37.5 401,-37.5 401,-67.5"/>
<text text-anchor="start" x="275" y="-55.5" font-family="Helvetica,sans-Serif" font-size="10.00">doris::vectorized::</text>
<text text-anchor="middle" x="334" y="-44.5" font-family="Helvetica,sans-Serif" font-size="10.00">Block::replace_by_position</text>
</a>
</g>
</g>
<!-- Node6&#45;&gt;Node10 -->
<g id="edge10" class="edge">
<title>Node6&#45;&gt;Node10</title>
<path fill="none" stroke="#63b8ff" d="M168.84,-114.64C187.82,-104.14 219.37,-87.55 248,-76.5 252.63,-74.71 257.45,-72.99 262.34,-71.35"/>
<polygon fill="#63b8ff" stroke="#63b8ff" points="263.2,-74.75 271.65,-68.36 261.06,-68.09 263.2,-74.75"/>
</g>
<!-- Node8&#45;&gt;Node8 -->
<g id="edge8" class="edge">
<title>Node8&#45;&gt;Node8</title>
<path fill="none" stroke="#63b8ff" d="M302.36,-163.78C295.33,-172.91 305.88,-181.5 334,-181.5 349.38,-181.5 359.5,-178.93 364.37,-175.11"/>
<polygon fill="#63b8ff" stroke="#63b8ff" points="367.84,-175.61 365.47,-165.28 360.88,-174.83 367.84,-175.61"/>
</g>
<!-- Node10&#45;&gt;Node4 -->
<g id="edge11" class="edge">
<title>Node10&#45;&gt;Node4</title>
<path fill="none" stroke="#63b8ff" d="M401.08,-67.15C407.7,-69.78 414.13,-72.87 420,-76.5 452.29,-96.45 480.22,-130.75 496.83,-154.02"/>
<polygon fill="#63b8ff" stroke="#63b8ff" points="493.79,-155.78 502.37,-161.99 499.54,-151.78 493.79,-155.78"/>
</g>
<!-- Node12 -->
<g id="node12" class="node">
<title>Node12</title>
<g id="a_node12"><a xlink:href="../../d9/d8d/classdoris_1_1_status.html#aafde58df1b2a6a91d5b674373be3ffc5" target="_top" xlink:title=" ">
<polygon fill="white" stroke="#666666" points="387.5,-19 280.5,-19 280.5,0 387.5,0 387.5,-19"/>
<text text-anchor="middle" x="334" y="-7" font-family="Helvetica,sans-Serif" font-size="10.00">doris::Status::Status</text>
</a>
</g>
</g>
<!-- Node11&#45;&gt;Node12 -->
<g id="edge13" class="edge">
<title>Node11&#45;&gt;Node12</title>
<path fill="none" stroke="#63b8ff" d="M179.14,-50.51C198.32,-43.79 224.53,-35 248,-28.5 256.21,-26.23 264.92,-24.04 273.51,-22"/>
<polygon fill="#63b8ff" stroke="#63b8ff" points="274.26,-25.42 283.22,-19.76 272.69,-18.6 274.26,-25.42"/>
</g>
</g>
</svg>
