<?xml version="1.0" encoding="UTF-8" standalone="no"?>
<!DOCTYPE svg PUBLIC "-//W3C//DTD SVG 1.1//EN"
 "http://www.w3.org/Graphics/SVG/1.1/DTD/svg11.dtd">
<!-- Generated by graphviz version 7.1.0 (20230121.1956)
 -->
<!-- Title: read_one_message Pages: 1 -->
<svg width="562pt" height="103pt"
 viewBox="0.00 0.00 562.00 103.00" xmlns="http://www.w3.org/2000/svg" xmlns:xlink="http://www.w3.org/1999/xlink">
<g id="graph0" class="graph" transform="scale(1 1) rotate(0) translate(4 99)">
<title>read_one_message</title>
<!-- Node1 -->
<g id="node1" class="node">
<title>Node1</title>
<g id="a_node1"><a xlink:title=" ">
<polygon fill="#999999" stroke="#666666" points="101,-57 0,-57 0,-38 101,-38 101,-57"/>
<text text-anchor="middle" x="50.5" y="-45" font-family="Helvetica,sans-Serif" font-size="10.00">read_one_message</text>
</a>
</g>
</g>
<!-- Node2 -->
<g id="node2" class="node">
<title>Node2</title>
<g id="a_node2"><a xlink:href="../../d4/daa/classdoris_1_1_stream_load_pipe.html#a1e6ad4b00b8e9d50be7b8b57c484d80f" target="_top" xlink:title=" ">
<polygon fill="white" stroke="#666666" points="232,-95 137,-95 137,-76 232,-76 232,-95"/>
<text text-anchor="middle" x="184.5" y="-83" font-family="Helvetica,sans-Serif" font-size="10.00">_read_next_buffer</text>
</a>
</g>
</g>
<!-- Node1&#45;&gt;Node2 -->
<g id="edge1" class="edge">
<title>Node1&#45;&gt;Node2</title>
<path fill="none" stroke="#63b8ff" d="M86.18,-57.48C102.1,-62.07 121.18,-67.56 138.21,-72.46"/>
<polygon fill="#63b8ff" stroke="#63b8ff" points="137.02,-75.76 147.6,-75.16 138.95,-69.03 137.02,-75.76"/>
</g>
<!-- Node3 -->
<g id="node3" class="node">
<title>Node3</title>
<g id="a_node3"><a xlink:href="../../d9/d8d/classdoris_1_1_status.html#a6ec1a217f203269ab53d2290d602db24" target="_top" xlink:title=" ">
<polygon fill="white" stroke="#666666" points="385.5,-57 293.5,-57 293.5,-38 385.5,-38 385.5,-57"/>
<text text-anchor="middle" x="339.5" y="-45" font-family="Helvetica,sans-Serif" font-size="10.00">doris::Status::OK</text>
</a>
</g>
</g>
<!-- Node1&#45;&gt;Node3 -->
<g id="edge4" class="edge">
<title>Node1&#45;&gt;Node3</title>
<path fill="none" stroke="#63b8ff" d="M101.49,-47.5C151.81,-47.5 229.29,-47.5 281.86,-47.5"/>
<polygon fill="#63b8ff" stroke="#63b8ff" points="281.82,-51 291.82,-47.5 281.82,-44 281.82,-51"/>
</g>
<!-- Node5 -->
<g id="node5" class="node">
<title>Node5</title>
<g id="a_node5"><a xlink:href="../../d4/daa/classdoris_1_1_stream_load_pipe.html#ae8c439eb0ea25847a7a4d4de0adf2ea8" target="_top" xlink:title=" ">
<polygon fill="white" stroke="#666666" points="202,-19 167,-19 167,0 202,0 202,-19"/>
<text text-anchor="middle" x="184.5" y="-7" font-family="Helvetica,sans-Serif" font-size="10.00">read</text>
</a>
</g>
</g>
<!-- Node1&#45;&gt;Node5 -->
<g id="edge5" class="edge">
<title>Node1&#45;&gt;Node5</title>
<path fill="none" stroke="#63b8ff" d="M86.18,-37.52C107.89,-31.27 135.49,-23.32 155.74,-17.49"/>
<polygon fill="#63b8ff" stroke="#63b8ff" points="156.63,-20.88 165.27,-14.75 154.69,-14.15 156.63,-20.88"/>
</g>
<!-- Node2&#45;&gt;Node3 -->
<g id="edge2" class="edge">
<title>Node2&#45;&gt;Node3</title>
<path fill="none" stroke="#63b8ff" d="M225.7,-75.52C244.51,-70.84 267.14,-65.22 287.17,-60.25"/>
<polygon fill="#63b8ff" stroke="#63b8ff" points="287.97,-63.66 296.84,-57.85 286.29,-56.86 287.97,-63.66"/>
</g>
<!-- Node4 -->
<g id="node4" class="node">
<title>Node4</title>
<g id="a_node4"><a xlink:href="../../d9/d8d/classdoris_1_1_status.html#aafde58df1b2a6a91d5b674373be3ffc5" target="_top" xlink:title=" ">
<polygon fill="white" stroke="#666666" points="554,-57 447,-57 447,-38 554,-38 554,-57"/>
<text text-anchor="middle" x="500.5" y="-45" font-family="Helvetica,sans-Serif" font-size="10.00">doris::Status::Status</text>
</a>
</g>
</g>
<!-- Node3&#45;&gt;Node4 -->
<g id="edge3" class="edge">
<title>Node3&#45;&gt;Node4</title>
<path fill="none" stroke="#63b8ff" d="M385.64,-47.5C401.08,-47.5 418.66,-47.5 435.31,-47.5"/>
<polygon fill="#63b8ff" stroke="#63b8ff" points="435.14,-51 445.14,-47.5 435.14,-44 435.14,-51"/>
</g>
<!-- Node5&#45;&gt;Node3 -->
<g id="edge7" class="edge">
<title>Node5&#45;&gt;Node3</title>
<path fill="none" stroke="#63b8ff" d="M202.46,-13.71C222.81,-18.77 257.88,-27.48 287.31,-34.79"/>
<polygon fill="#63b8ff" stroke="#63b8ff" points="286.25,-38.13 296.8,-37.14 287.94,-31.34 286.25,-38.13"/>
</g>
<!-- Node6 -->
<g id="node6" class="node">
<title>Node6</title>
<g id="a_node6"><a xlink:href="../../d9/dbd/classdoris_1_1_exec_env.html#a920023e1afb35093f05bf7b69cc5e889" target="_top" xlink:title=" ">
<polygon fill="white" stroke="#666666" points="411,-19 268,-19 268,0 411,0 411,-19"/>
<text text-anchor="middle" x="339.5" y="-7" font-family="Helvetica,sans-Serif" font-size="10.00">doris::ExecEnv::GetInstance</text>
</a>
</g>
</g>
<!-- Node5&#45;&gt;Node6 -->
<g id="edge6" class="edge">
<title>Node5&#45;&gt;Node6</title>
<path fill="none" stroke="#63b8ff" d="M202.46,-9.5C215.92,-9.5 235.81,-9.5 256.25,-9.5"/>
<polygon fill="#63b8ff" stroke="#63b8ff" points="256.11,-13 266.11,-9.5 256.11,-6 256.11,-13"/>
</g>
</g>
</svg>
