<?xml version="1.0" encoding="UTF-8" standalone="no"?>
<!DOCTYPE svg PUBLIC "-//W3C//DTD SVG 1.1//EN"
 "http://www.w3.org/Graphics/SVG/1.1/DTD/svg11.dtd">
<!-- Generated by graphviz version 7.1.0 (20230121.1956)
 -->
<!-- Title: no Pages: 1 -->
<!--zoomable 99 -->
<svg id="main" version="1.1" xmlns="http://www.w3.org/2000/svg" xmlns:xlink="http://www.w3.org/1999/xlink" xml:space="preserve" onload="init(evt)">
<style type="text/css"><![CDATA[
.edge:hover path { stroke: red; }
.edge:hover polygon { stroke: red; fill: red; }
]]></style>
<script type="text/javascript"><![CDATA[
var edges = document.getElementsByTagName('g');
if (edges && edges.length) {
  for (var i=0;i<edges.length;i++) {
    if (edges[i].id.substr(0,4)=='edge') {
      edges[i].setAttribute('class','edge');
    }
  }
}
]]></script>
        <defs>
                <circle id="rim" cx="0" cy="0" r="7"/>
                <circle id="rim2" cx="0" cy="0" r="3.5"/>
                <g id="zoomPlus">
                        <use xlink:href="#rim" fill="#404040">
                                <set attributeName="fill" to="#808080" begin="zoomplus.mouseover" end="zoomplus.mouseout"/>
                        </use>
                        <path d="M-4,0h8M0,-4v8" fill="none" stroke="white" stroke-width="1.5" pointer-events="none"/>
                </g>
                <g id="zoomMin">
                        <use xlink:href="#rim" fill="#404040">
                                <set attributeName="fill" to="#808080" begin="zoomminus.mouseover" end="zoomminus.mouseout"/>
                        </use>
                        <path d="M-4,0h8" fill="none" stroke="white" stroke-width="1.5" pointer-events="none"/>
                </g>
                <g id="dirArrow">
                        <path fill="none" stroke="white" stroke-width="1.5" d="M0,-3.0v7 M-2.5,-0.5L0,-3.0L2.5,-0.5"/>
                </g>
               <g id="resetDef">
                       <use xlink:href="#rim2" fill="#404040">
                               <set attributeName="fill" to="#808080" begin="reset.mouseover" end="reset.mouseout"/>
                       </use>
               </g>
        </defs>

<script type="text/javascript">
var viewWidth = 1052;
var viewHeight = 99;
var sectionId = 'dynsection-3';
</script>
<script xlink:href="../../svgpan.js"/>
<svg id="graph" class="graph">
<g id="viewport">
<title>no</title>
<!-- Node1 -->
<g id="node1" class="node">
<title>Node1</title>
<g id="a_node1"><a xlink:title=" ">
<polygon fill="#999999" stroke="#666666" points="1044,-54.5 1015,-54.5 1015,-35.5 1044,-35.5 1044,-54.5"/>
<text text-anchor="middle" x="1029.5" y="-42.5" font-family="Helvetica,sans-Serif" font-size="10.00">no</text>
</a>
</g>
</g>
<!-- Node2 -->
<g id="node2" class="node">
<title>Node2</title>
<g id="a_node2"><a xlink:href="../../de/d50/classdoris_1_1_beta_rowset.html#ac9ce7407e5e120776d685c33040d051a" target="_top" xlink:title=" ">
<polygon fill="white" stroke="#666666" points="979,-91 875,-91 875,-61 979,-61 979,-91"/>
<text text-anchor="start" x="883" y="-79" font-family="Helvetica,sans-Serif" font-size="10.00">doris::BetaRowset::</text>
<text text-anchor="middle" x="927" y="-68" font-family="Helvetica,sans-Serif" font-size="10.00">link_files_to</text>
</a>
</g>
</g>
<!-- Node1&#45;&gt;Node2 -->
<g id="edge1" class="edge">
<title>Node1&#45;&gt;Node2</title>
<path fill="none" stroke="#63b8ff" d="M1003.71,-52.65C995.93,-55.05 987.05,-57.79 978.17,-60.53"/>
<polygon fill="#63b8ff" stroke="#63b8ff" points="1004.56,-56.05 1013.08,-49.76 1002.49,-49.36 1004.56,-56.05"/>
</g>
<!-- Node3 -->
<g id="node3" class="node">
<title>Node3</title>
<g id="a_node3"><a xlink:href="../../d7/d7e/classdoris_1_1_errno.html#af40cf93303f30d6b5c6b28122467fbb1" target="_top" xlink:title=" ">
<polygon fill="white" stroke="#666666" points="941.5,-24.5 912.5,-24.5 912.5,-5.5 941.5,-5.5 941.5,-24.5"/>
<text text-anchor="middle" x="927" y="-12.5" font-family="Helvetica,sans-Serif" font-size="10.00">str</text>
</a>
</g>
</g>
<!-- Node1&#45;&gt;Node3 -->
<g id="edge2" class="edge">
<title>Node1&#45;&gt;Node3</title>
<path fill="none" stroke="#63b8ff" d="M1003.71,-37.6C984.22,-31.78 957.78,-23.89 941.86,-19.14"/>
<polygon fill="#63b8ff" stroke="#63b8ff" points="1002.49,-40.89 1013.08,-40.4 1004.49,-34.18 1002.49,-40.89"/>
</g>
<!-- Node3&#45;&gt;Node3 -->
<g id="edge9" class="edge">
<title>Node3&#45;&gt;Node3</title>
<path fill="none" stroke="#63b8ff" d="M945.9,-34.32C944.47,-39.01 938.17,-42.5 927,-42.5 908.18,-42.5 903.18,-32.61 912,-23.73"/>
<polygon fill="#63b8ff" stroke="#63b8ff" points="949.26,-33.32 942.52,-25.15 942.7,-35.74 949.26,-33.32"/>
</g>
<!-- Node4 -->
<g id="node4" class="node">
<title>Node4</title>
<g id="a_node4"><a xlink:href="../../d2/df7/classdoris_1_1_data_dir.html#a20b762cf97988bbae3750e0b59278105" target="_top" xlink:title=" ">
<polygon fill="white" stroke="#666666" points="839,-30 732,-30 732,0 839,0 839,-30"/>
<text text-anchor="start" x="740" y="-18" font-family="Helvetica,sans-Serif" font-size="10.00">doris::DataDir::move</text>
<text text-anchor="middle" x="785.5" y="-7" font-family="Helvetica,sans-Serif" font-size="10.00">_to_trash</text>
</a>
</g>
</g>
<!-- Node3&#45;&gt;Node4 -->
<g id="edge3" class="edge">
<title>Node3&#45;&gt;Node4</title>
<path fill="none" stroke="#63b8ff" d="M900.85,-15C883.71,-15 860.38,-15 839.26,-15"/>
<polygon fill="#63b8ff" stroke="#63b8ff" points="900.6,-18.5 910.6,-15 900.6,-11.5 900.6,-18.5"/>
</g>
<!-- Node5 -->
<g id="node5" class="node">
<title>Node5</title>
<g id="a_node5"><a xlink:href="../../d5/d7e/classdoris_1_1_tablet_manager.html#a6858ba3d88b0d21d9caea1969d79151a" target="_top" xlink:title=" ">
<polygon fill="white" stroke="#666666" points="696,-30 541,-30 541,0 696,0 696,-30"/>
<text text-anchor="start" x="549" y="-18" font-family="Helvetica,sans-Serif" font-size="10.00">doris::TabletManager</text>
<text text-anchor="middle" x="618.5" y="-7" font-family="Helvetica,sans-Serif" font-size="10.00">::try_delete_unused_tablet_path</text>
</a>
</g>
</g>
<!-- Node4&#45;&gt;Node5 -->
<g id="edge4" class="edge">
<title>Node4&#45;&gt;Node5</title>
<path fill="none" stroke="#63b8ff" d="M720.46,-15C712.54,-15 704.39,-15 696.32,-15"/>
<polygon fill="#63b8ff" stroke="#63b8ff" points="720.33,-18.5 730.33,-15 720.33,-11.5 720.33,-18.5"/>
</g>
<!-- Node6 -->
<g id="node6" class="node">
<title>Node6</title>
<g id="a_node6"><a xlink:href="../../d2/df7/classdoris_1_1_data_dir.html#add2dfd5ecbffed03dd0fd1d074dc0777" target="_top" xlink:title=" ">
<polygon fill="white" stroke="#666666" points="505,-30 389,-30 389,0 505,0 505,-30"/>
<text text-anchor="start" x="397" y="-18" font-family="Helvetica,sans-Serif" font-size="10.00">doris::DataDir::perform</text>
<text text-anchor="middle" x="447" y="-7" font-family="Helvetica,sans-Serif" font-size="10.00">_path_gc_by_tablet</text>
</a>
</g>
</g>
<!-- Node5&#45;&gt;Node6 -->
<g id="edge5" class="edge">
<title>Node5&#45;&gt;Node6</title>
<path fill="none" stroke="#63b8ff" d="M529.2,-15C521.08,-15 513,-15 505.27,-15"/>
<polygon fill="#63b8ff" stroke="#63b8ff" points="529.17,-18.5 539.17,-15 529.17,-11.5 529.17,-18.5"/>
</g>
<!-- Node7 -->
<g id="node7" class="node">
<title>Node7</title>
<g id="a_node7"><a xlink:href="../../d7/d82/classdoris_1_1_storage_engine.html#a65a19cd412bdc50df554d3ae59694ba6" target="_top" xlink:title=" ">
<polygon fill="white" stroke="#666666" points="353,-30 217,-30 217,0 353,0 353,-30"/>
<text text-anchor="start" x="225" y="-18" font-family="Helvetica,sans-Serif" font-size="10.00">doris::StorageEngine</text>
<text text-anchor="middle" x="285" y="-7" font-family="Helvetica,sans-Serif" font-size="10.00">::_path_gc_thread_callback</text>
</a>
</g>
</g>
<!-- Node6&#45;&gt;Node7 -->
<g id="edge6" class="edge">
<title>Node6&#45;&gt;Node7</title>
<path fill="none" stroke="#63b8ff" d="M377.21,-15C369.27,-15 361.19,-15 353.27,-15"/>
<polygon fill="#63b8ff" stroke="#63b8ff" points="377.17,-18.5 387.17,-15 377.17,-11.5 377.17,-18.5"/>
</g>
<!-- Node8 -->
<g id="node8" class="node">
<title>Node8</title>
<g id="a_node8"><a xlink:href="../../d7/d82/classdoris_1_1_storage_engine.html#a293e850f63fbf6c5faff6e84c619a0a5" target="_top" xlink:title=" ">
<polygon fill="white" stroke="#666666" points="181,-30 74,-30 74,0 181,0 181,-30"/>
<text text-anchor="start" x="82" y="-18" font-family="Helvetica,sans-Serif" font-size="10.00">doris::StorageEngine</text>
<text text-anchor="middle" x="127.5" y="-7" font-family="Helvetica,sans-Serif" font-size="10.00">::start_bg_threads</text>
</a>
</g>
</g>
<!-- Node7&#45;&gt;Node8 -->
<g id="edge7" class="edge">
<title>Node7&#45;&gt;Node8</title>
<path fill="none" stroke="#63b8ff" d="M205.28,-15C197.18,-15 189.09,-15 181.38,-15"/>
<polygon fill="#63b8ff" stroke="#63b8ff" points="205.19,-18.5 215.19,-15 205.19,-11.5 205.19,-18.5"/>
</g>
<!-- Node9 -->
<g id="node9" class="node">
<title>Node9</title>
<g id="a_node9"><a xlink:href="../../d7/dcc/doris__main_8cpp.html#a3c04138a5bfe5d72780bb7e82a18e627" target="_top" xlink:title=" ">
<polygon fill="white" stroke="#666666" points="38,-24.5 0,-24.5 0,-5.5 38,-5.5 38,-24.5"/>
<text text-anchor="middle" x="19" y="-12.5" font-family="Helvetica,sans-Serif" font-size="10.00">main</text>
</a>
</g>
</g>
<!-- Node8&#45;&gt;Node9 -->
<g id="edge8" class="edge">
<title>Node8&#45;&gt;Node9</title>
<path fill="none" stroke="#63b8ff" d="M62.29,-15C53.5,-15 45.13,-15 38.19,-15"/>
<polygon fill="#63b8ff" stroke="#63b8ff" points="62.05,-18.5 72.05,-15 62.05,-11.5 62.05,-18.5"/>
</g>
</g>
</svg>
        <g id="navigator" transform="translate(0 0)" fill="#404254">
                <rect fill="#f2f5e9" fill-opacity="0.5" stroke="#606060" stroke-width=".5" x="0" y="0" width="60" height="60"/>
                <use id="zoomplus" xlink:href="#zoomPlus" x="17" y="9" onmousedown="handleZoom(evt,'in')"/>
                <use id="zoomminus" xlink:href="#zoomMin" x="42" y="9" onmousedown="handleZoom(evt,'out')"/>
                <use id="reset" xlink:href="#resetDef" x="30" y="36" onmousedown="handleReset()"/>
                <g id="arrowUp" xlink:href="#dirArrow" transform="translate(30 24)" onmousedown="handlePan(0,-1)">
                  <use xlink:href="#rim" fill="#404040">
                        <set attributeName="fill" to="#808080" begin="arrowUp.mouseover" end="arrowUp.mouseout"/>
                  </use>
                  <path fill="none" stroke="white" stroke-width="1.5" d="M0,-3.0v7 M-2.5,-0.5L0,-3.0L2.5,-0.5"/>
                </g>
                <g id="arrowRight" xlink:href="#dirArrow" transform="rotate(90) translate(36 -43)" onmousedown="handlePan(1,0)">
                  <use xlink:href="#rim" fill="#404040">
                        <set attributeName="fill" to="#808080" begin="arrowRight.mouseover" end="arrowRight.mouseout"/>
                  </use>
                  <path fill="none" stroke="white" stroke-width="1.5" d="M0,-3.0v7 M-2.5,-0.5L0,-3.0L2.5,-0.5"/>
                </g>
                <g id="arrowDown" xlink:href="#dirArrow" transform="rotate(180) translate(-30 -48)" onmousedown="handlePan(0,1)">
                  <use xlink:href="#rim" fill="#404040">
                        <set attributeName="fill" to="#808080" begin="arrowDown.mouseover" end="arrowDown.mouseout"/>
                  </use>
                  <path fill="none" stroke="white" stroke-width="1.5" d="M0,-3.0v7 M-2.5,-0.5L0,-3.0L2.5,-0.5"/>
                </g>
                <g id="arrowLeft" xlink:href="#dirArrow" transform="rotate(270) translate(-36 17)" onmousedown="handlePan(-1,0)">
                  <use xlink:href="#rim" fill="#404040">
                        <set attributeName="fill" to="#808080" begin="arrowLeft.mouseover" end="arrowLeft.mouseout"/>
                  </use>
                  <path fill="none" stroke="white" stroke-width="1.5" d="M0,-3.0v7 M-2.5,-0.5L0,-3.0L2.5,-0.5"/>
                </g>
        </g>
        <svg viewBox="0 0 15 15" width="100%" height="30px" preserveAspectRatio="xMaxYMin meet">
         <g id="arrow_out" transform="scale(0.3 0.3)">
          <a xlink:href="classdoris_1_1_errno_a7d5e35926266fcfb0211b0dd501b30de_icgraph_org.svg" target="_base">
           <rect id="button" ry="5" rx="5" y="6" x="6" height="38" width="38"
                fill="#f2f5e9" fill-opacity="0.5" stroke="#606060" stroke-width="1.0"/>
           <path id="arrow"
             d="M 11.500037,31.436501 C 11.940474,20.09759 22.043105,11.32322 32.158766,21.979434 L 37.068811,17.246167 C 37.068811,17.246167 37.088388,32 37.088388,32 L 22.160133,31.978069 C 22.160133,31.978069 26.997745,27.140456 26.997745,27.140456 C 18.528582,18.264221 13.291696,25.230495 11.500037,31.436501 z"
             style="fill:#404040;"/>
          </a>
         </g>
        </svg>
</svg>
