<?xml version="1.0" encoding="UTF-8" standalone="no"?>
<!DOCTYPE svg PUBLIC "-//W3C//DTD SVG 1.1//EN"
 "http://www.w3.org/Graphics/SVG/1.1/DTD/svg11.dtd">
<!-- Generated by graphviz version 7.1.0 (20230121.1956)
 -->
<!-- Title: _check_exist Pages: 1 -->
<svg width="489pt" height="103pt"
 viewBox="0.00 0.00 489.00 103.00" xmlns="http://www.w3.org/2000/svg" xmlns:xlink="http://www.w3.org/1999/xlink">
<g id="graph0" class="graph" transform="scale(1 1) rotate(0) translate(4 99)">
<title>_check_exist</title>
<!-- Node1 -->
<g id="node1" class="node">
<title>Node1</title>
<g id="a_node1"><a xlink:title=" ">
<polygon fill="#999999" stroke="#666666" points="74,-57 0,-57 0,-38 74,-38 74,-57"/>
<text text-anchor="middle" x="37" y="-45" font-family="Helvetica,sans-Serif" font-size="10.00">_check_exist</text>
</a>
</g>
</g>
<!-- Node2 -->
<g id="node2" class="node">
<title>Node2</title>
<g id="a_node2"><a xlink:href="../../df/d88/classdoris_1_1_storage_backend_mgr.html#a701f3a67fae501dec20e00c59aa2049e" target="_top" xlink:title=" ">
<polygon fill="white" stroke="#666666" points="205,-95 115,-95 115,-76 205,-76 205,-95"/>
<text text-anchor="middle" x="160" y="-83" font-family="Helvetica,sans-Serif" font-size="10.00">_serialize_param</text>
</a>
</g>
</g>
<!-- Node1&#45;&gt;Node2 -->
<g id="edge1" class="edge">
<title>Node1&#45;&gt;Node2</title>
<path fill="none" stroke="#63b8ff" d="M69.79,-57.48C84.1,-61.98 101.2,-67.35 116.59,-72.18"/>
<polygon fill="#63b8ff" stroke="#63b8ff" points="115.39,-75.47 125.98,-75.13 117.49,-68.79 115.39,-75.47"/>
</g>
<!-- Node3 -->
<g id="node3" class="node">
<title>Node3</title>
<g id="a_node3"><a xlink:href="../../d9/d8d/classdoris_1_1_status.html#a6ec1a217f203269ab53d2290d602db24" target="_top" xlink:title=" ">
<polygon fill="white" stroke="#666666" points="338,-57 246,-57 246,-38 338,-38 338,-57"/>
<text text-anchor="middle" x="292" y="-45" font-family="Helvetica,sans-Serif" font-size="10.00">doris::Status::OK</text>
</a>
</g>
</g>
<!-- Node1&#45;&gt;Node3 -->
<g id="edge6" class="edge">
<title>Node1&#45;&gt;Node3</title>
<path fill="none" stroke="#63b8ff" d="M74.25,-47.5C116.12,-47.5 185.51,-47.5 234.48,-47.5"/>
<polygon fill="#63b8ff" stroke="#63b8ff" points="234.33,-51 244.33,-47.5 234.33,-44 234.33,-51"/>
</g>
<!-- Node5 -->
<g id="node5" class="node">
<title>Node5</title>
<g id="a_node5"><a xlink:href="../../df/d88/classdoris_1_1_storage_backend_mgr.html#a06a1b14c128b4eea5bde4976d403448b" target="_top" xlink:title=" ">
<polygon fill="white" stroke="#666666" points="210,-19 110,-19 110,0 210,0 210,-19"/>
<text text-anchor="middle" x="160" y="-7" font-family="Helvetica,sans-Serif" font-size="10.00">get_storage_param</text>
</a>
</g>
</g>
<!-- Node1&#45;&gt;Node5 -->
<g id="edge4" class="edge">
<title>Node1&#45;&gt;Node5</title>
<path fill="none" stroke="#63b8ff" d="M69.79,-37.52C84.1,-33.02 101.2,-27.65 116.59,-22.82"/>
<polygon fill="#63b8ff" stroke="#63b8ff" points="117.49,-26.21 125.98,-19.87 115.39,-19.53 117.49,-26.21"/>
</g>
<!-- Node2&#45;&gt;Node3 -->
<g id="edge2" class="edge">
<title>Node2&#45;&gt;Node3</title>
<path fill="none" stroke="#63b8ff" d="M195.16,-75.52C210.83,-70.93 229.62,-65.44 246.39,-60.54"/>
<polygon fill="#63b8ff" stroke="#63b8ff" points="247,-64.01 255.62,-57.84 245.04,-57.29 247,-64.01"/>
</g>
<!-- Node4 -->
<g id="node4" class="node">
<title>Node4</title>
<g id="a_node4"><a xlink:href="../../d9/d8d/classdoris_1_1_status.html#aafde58df1b2a6a91d5b674373be3ffc5" target="_top" xlink:title=" ">
<polygon fill="white" stroke="#666666" points="481,-57 374,-57 374,-38 481,-38 481,-57"/>
<text text-anchor="middle" x="427.5" y="-45" font-family="Helvetica,sans-Serif" font-size="10.00">doris::Status::Status</text>
</a>
</g>
</g>
<!-- Node3&#45;&gt;Node4 -->
<g id="edge3" class="edge">
<title>Node3&#45;&gt;Node4</title>
<path fill="none" stroke="#63b8ff" d="M338.2,-47.5C345.91,-47.5 354.05,-47.5 362.15,-47.5"/>
<polygon fill="#63b8ff" stroke="#63b8ff" points="362,-51 372,-47.5 362,-44 362,-51"/>
</g>
<!-- Node5&#45;&gt;Node3 -->
<g id="edge5" class="edge">
<title>Node5&#45;&gt;Node3</title>
<path fill="none" stroke="#63b8ff" d="M195.16,-19.48C210.83,-24.07 229.62,-29.56 246.39,-34.46"/>
<polygon fill="#63b8ff" stroke="#63b8ff" points="245.04,-37.71 255.62,-37.16 247,-30.99 245.04,-37.71"/>
</g>
</g>
</svg>
