<?xml version="1.0" encoding="UTF-8" standalone="no"?>
<!DOCTYPE svg PUBLIC "-//W3C//DTD SVG 1.1//EN"
 "http://www.w3.org/Graphics/SVG/1.1/DTD/svg11.dtd">
<!-- Generated by graphviz version 7.1.0 (20230121.1956)
 -->
<!-- Title: /Users/dabowang/be_all/vec/exec/format/parquet/vparquet_group_reader.h Pages: 1 -->
<svg width="556pt" height="225pt"
 viewBox="0.00 0.00 556.00 225.00" xmlns="http://www.w3.org/2000/svg" xmlns:xlink="http://www.w3.org/1999/xlink">
<g id="graph0" class="graph" transform="scale(1 1) rotate(0) translate(4 221)">
<title>/Users/dabowang/be_all/vec/exec/format/parquet/vparquet_group_reader.h</title>
<!-- Node1 -->
<g id="node1" class="node">
<title>Node1</title>
<g id="a_node1"><a xlink:title=" ">
<polygon fill="#999999" stroke="#666666" points="260.5,-217 138.5,-217 138.5,-165 260.5,-165 260.5,-217"/>
<text text-anchor="start" x="146.5" y="-205" font-family="Helvetica,sans-Serif" font-size="10.00">/Users/dabowang/be</text>
<text text-anchor="start" x="146.5" y="-194" font-family="Helvetica,sans-Serif" font-size="10.00">_all/vec/exec/format</text>
<text text-anchor="start" x="146.5" y="-183" font-family="Helvetica,sans-Serif" font-size="10.00">/parquet/vparquet_group</text>
<text text-anchor="middle" x="199.5" y="-172" font-family="Helvetica,sans-Serif" font-size="10.00">_reader.h</text>
</a>
</g>
</g>
<!-- Node2 -->
<g id="node2" class="node">
<title>Node2</title>
<g id="a_node2"><a xlink:href="../../d8/d71/vparquet__group__reader_8cpp.html" target="_top" xlink:title=" ">
<polygon fill="white" stroke="#666666" points="188.5,-129 66.5,-129 66.5,-77 188.5,-77 188.5,-129"/>
<text text-anchor="start" x="74.5" y="-117" font-family="Helvetica,sans-Serif" font-size="10.00">/Users/dabowang/be</text>
<text text-anchor="start" x="74.5" y="-106" font-family="Helvetica,sans-Serif" font-size="10.00">_all/vec/exec/format</text>
<text text-anchor="start" x="74.5" y="-95" font-family="Helvetica,sans-Serif" font-size="10.00">/parquet/vparquet_group</text>
<text text-anchor="middle" x="127.5" y="-84" font-family="Helvetica,sans-Serif" font-size="10.00">_reader.cpp</text>
</a>
</g>
</g>
<!-- Node1&#45;&gt;Node2 -->
<g id="edge1" class="edge">
<title>Node1&#45;&gt;Node2</title>
<path fill="none" stroke="#63b8ff" d="M171.07,-156.04C163.65,-147.18 155.79,-137.79 148.81,-129.45"/>
<polygon fill="#63b8ff" stroke="#63b8ff" points="168.21,-158.08 177.32,-163.5 173.58,-153.59 168.21,-158.08"/>
</g>
<!-- Node3 -->
<g id="node3" class="node">
<title>Node3</title>
<g id="a_node3"><a xlink:href="../../dd/d71/vparquet__reader_8h.html" target="_top" xlink:title=" ">
<polygon fill="white" stroke="#666666" points="338.5,-123.5 206.5,-123.5 206.5,-82.5 338.5,-82.5 338.5,-123.5"/>
<text text-anchor="start" x="214.5" y="-111.5" font-family="Helvetica,sans-Serif" font-size="10.00">/Users/dabowang/be</text>
<text text-anchor="start" x="214.5" y="-100.5" font-family="Helvetica,sans-Serif" font-size="10.00">_all/vec/exec/format</text>
<text text-anchor="middle" x="272.5" y="-89.5" font-family="Helvetica,sans-Serif" font-size="10.00">/parquet/vparquet_reader.h</text>
</a>
</g>
</g>
<!-- Node1&#45;&gt;Node3 -->
<g id="edge2" class="edge">
<title>Node1&#45;&gt;Node3</title>
<path fill="none" stroke="#63b8ff" d="M228.23,-156.16C237.48,-145.26 247.42,-133.54 255.54,-123.98"/>
<polygon fill="#63b8ff" stroke="#63b8ff" points="225.79,-153.62 221.99,-163.51 231.13,-158.15 225.79,-153.62"/>
</g>
<!-- Node4 -->
<g id="node4" class="node">
<title>Node4</title>
<g id="a_node4"><a xlink:href="../../d3/deb/internal__service_8cpp.html" target="_top" xlink:title=" ">
<polygon fill="white" stroke="#666666" points="107,-41 0,-41 0,0 107,0 107,-41"/>
<text text-anchor="start" x="8" y="-29" font-family="Helvetica,sans-Serif" font-size="10.00">/Users/dabowang/be</text>
<text text-anchor="start" x="8" y="-18" font-family="Helvetica,sans-Serif" font-size="10.00">_all/service/internal</text>
<text text-anchor="middle" x="53.5" y="-7" font-family="Helvetica,sans-Serif" font-size="10.00">_service.cpp</text>
</a>
</g>
</g>
<!-- Node3&#45;&gt;Node4 -->
<g id="edge3" class="edge">
<title>Node3&#45;&gt;Node4</title>
<path fill="none" stroke="#63b8ff" d="M207.79,-78.21C175.83,-66.47 137.73,-52.46 107.39,-41.31"/>
<polygon fill="#63b8ff" stroke="#63b8ff" points="206.35,-81.41 216.94,-81.58 208.77,-74.84 206.35,-81.41"/>
</g>
<!-- Node5 -->
<g id="node5" class="node">
<title>Node5</title>
<g id="a_node5"><a xlink:href="../../dc/d77/vparquet__reader_8cpp.html" target="_top" xlink:title=" ">
<polygon fill="white" stroke="#666666" points="268,-41 125,-41 125,0 268,0 268,-41"/>
<text text-anchor="start" x="133" y="-29" font-family="Helvetica,sans-Serif" font-size="10.00">/Users/dabowang/be</text>
<text text-anchor="start" x="133" y="-18" font-family="Helvetica,sans-Serif" font-size="10.00">_all/vec/exec/format</text>
<text text-anchor="middle" x="196.5" y="-7" font-family="Helvetica,sans-Serif" font-size="10.00">/parquet/vparquet_reader.cpp</text>
</a>
</g>
</g>
<!-- Node3&#45;&gt;Node5 -->
<g id="edge4" class="edge">
<title>Node3&#45;&gt;Node5</title>
<path fill="none" stroke="#63b8ff" d="M245.94,-73.86C235.84,-63.17 224.57,-51.23 215.33,-41.45"/>
<polygon fill="#63b8ff" stroke="#63b8ff" points="243.26,-76.13 252.67,-81 248.35,-71.33 243.26,-76.13"/>
</g>
<!-- Node6 -->
<g id="node6" class="node">
<title>Node6</title>
<g id="a_node6"><a xlink:href="../../dd/d43/iceberg__reader_8cpp.html" target="_top" xlink:title=" ">
<polygon fill="white" stroke="#666666" points="411,-41 286,-41 286,0 411,0 411,-41"/>
<text text-anchor="start" x="294" y="-29" font-family="Helvetica,sans-Serif" font-size="10.00">/Users/dabowang/be</text>
<text text-anchor="start" x="294" y="-18" font-family="Helvetica,sans-Serif" font-size="10.00">_all/vec/exec/format</text>
<text text-anchor="middle" x="348.5" y="-7" font-family="Helvetica,sans-Serif" font-size="10.00">/table/iceberg_reader.cpp</text>
</a>
</g>
</g>
<!-- Node3&#45;&gt;Node6 -->
<g id="edge5" class="edge">
<title>Node3&#45;&gt;Node6</title>
<path fill="none" stroke="#63b8ff" d="M299.06,-73.86C309.16,-63.17 320.43,-51.23 329.67,-41.45"/>
<polygon fill="#63b8ff" stroke="#63b8ff" points="296.65,-71.33 292.33,-81 301.74,-76.13 296.65,-71.33"/>
</g>
<!-- Node7 -->
<g id="node7" class="node">
<title>Node7</title>
<g id="a_node7"><a xlink:href="../../d9/df7/vfile__scanner_8cpp.html" target="_top" xlink:title=" ">
<polygon fill="white" stroke="#666666" points="548,-41 429,-41 429,0 548,0 548,-41"/>
<text text-anchor="start" x="437" y="-29" font-family="Helvetica,sans-Serif" font-size="10.00">/Users/dabowang/be</text>
<text text-anchor="start" x="437" y="-18" font-family="Helvetica,sans-Serif" font-size="10.00">_all/vec/exec/scan/vfile</text>
<text text-anchor="middle" x="488.5" y="-7" font-family="Helvetica,sans-Serif" font-size="10.00">_scanner.cpp</text>
</a>
</g>
</g>
<!-- Node3&#45;&gt;Node7 -->
<g id="edge6" class="edge">
<title>Node3&#45;&gt;Node7</title>
<path fill="none" stroke="#63b8ff" d="M336.29,-78.23C367.68,-66.53 405.09,-52.58 434.97,-41.45"/>
<polygon fill="#63b8ff" stroke="#63b8ff" points="335.46,-74.8 327.31,-81.57 337.9,-81.36 335.46,-74.8"/>
</g>
</g>
</svg>
