<?xml version="1.0" encoding="UTF-8" standalone="no"?>
<!DOCTYPE svg PUBLIC "-//W3C//DTD SVG 1.1//EN"
 "http://www.w3.org/Graphics/SVG/1.1/DTD/svg11.dtd">
<!-- Generated by graphviz version 7.1.0 (20230121.1956)
 -->
<!-- Title: get_cardinality Pages: 1 -->
<svg width="660pt" height="399pt"
 viewBox="0.00 0.00 660.00 399.00" xmlns="http://www.w3.org/2000/svg" xmlns:xlink="http://www.w3.org/1999/xlink">
<g id="graph0" class="graph" transform="scale(1 1) rotate(0) translate(4 395)">
<title>get_cardinality</title>
<!-- Node1 -->
<g id="node1" class="node">
<title>Node1</title>
<g id="a_node1"><a xlink:title=" ">
<polygon fill="#999999" stroke="#666666" points="80,-223 0,-223 0,-204 80,-204 80,-223"/>
<text text-anchor="middle" x="40" y="-211" font-family="Helvetica,sans-Serif" font-size="10.00">get_cardinality</text>
</a>
</g>
</g>
<!-- Node2 -->
<g id="node2" class="node">
<title>Node2</title>
<g id="a_node2"><a xlink:href="../../de/d93/classdoris_1_1_hyper_log_log.html#aafa1a03186e88af9d346ed5417da7d6a" target="_top" xlink:title=" ">
<polygon fill="white" stroke="#666666" points="226,-228.5 116,-228.5 116,-198.5 226,-198.5 226,-228.5"/>
<text text-anchor="start" x="124" y="-216.5" font-family="Helvetica,sans-Serif" font-size="10.00">doris::HyperLogLog</text>
<text text-anchor="middle" x="171" y="-205.5" font-family="Helvetica,sans-Serif" font-size="10.00">::estimate_cardinality</text>
</a>
</g>
</g>
<!-- Node1&#45;&gt;Node2 -->
<g id="edge1" class="edge">
<title>Node1&#45;&gt;Node2</title>
<path fill="none" stroke="#63b8ff" d="M80.41,-213.5C87.96,-213.5 96.06,-213.5 104.18,-213.5"/>
<polygon fill="#63b8ff" stroke="#63b8ff" points="104.12,-217 114.12,-213.5 104.12,-210 104.12,-217"/>
</g>
<!-- Node3 -->
<g id="node3" class="node">
<title>Node3</title>
<g id="a_node3"><a xlink:href="../../d7/df8/log_8c.html#adb302c9aafbaa5e180d9f60ee954bb82" target="_top" xlink:title=" ">
<polygon fill="white" stroke="#666666" points="295.5,-315 266.5,-315 266.5,-296 295.5,-296 295.5,-315"/>
<text text-anchor="middle" x="281" y="-303" font-family="Helvetica,sans-Serif" font-size="10.00">log</text>
</a>
</g>
</g>
<!-- Node2&#45;&gt;Node3 -->
<g id="edge2" class="edge">
<title>Node2&#45;&gt;Node3</title>
<path fill="none" stroke="#63b8ff" d="M189.83,-228.69C209.07,-245.08 239.65,-271.13 259.77,-288.27"/>
<polygon fill="#63b8ff" stroke="#63b8ff" points="257.43,-290.87 267.31,-294.69 261.97,-285.54 257.43,-290.87"/>
</g>
<!-- Node8 -->
<g id="node8" class="node">
<title>Node8</title>
<g id="a_node8"><a xlink:href="../../d3/d15/powf_8c.html#ac6b287549be087f6f0bf03b6fe30499e" target="_top" xlink:title=" ">
<polygon fill="white" stroke="#666666" points="300,-149 262,-149 262,-130 300,-130 300,-149"/>
<text text-anchor="middle" x="281" y="-137" font-family="Helvetica,sans-Serif" font-size="10.00">powf</text>
</a>
</g>
</g>
<!-- Node2&#45;&gt;Node8 -->
<g id="edge7" class="edge">
<title>Node2&#45;&gt;Node8</title>
<path fill="none" stroke="#63b8ff" d="M194.38,-198.17C212.41,-185.81 237.72,-168.47 256.14,-155.85"/>
<polygon fill="#63b8ff" stroke="#63b8ff" points="258.06,-158.78 264.33,-150.24 254.1,-153 258.06,-158.78"/>
</g>
<!-- Node4 -->
<g id="node4" class="node">
<title>Node4</title>
<g id="a_node4"><a xlink:href="../../da/da2/____math__divzero_8c.html#a8c10e0e17b8529cc85535823a84f2799" target="_top" xlink:title=" ">
<polygon fill="white" stroke="#666666" points="422,-278 336,-278 336,-259 422,-259 422,-278"/>
<text text-anchor="middle" x="379" y="-266" font-family="Helvetica,sans-Serif" font-size="10.00">__math_divzero</text>
</a>
</g>
</g>
<!-- Node3&#45;&gt;Node4 -->
<g id="edge3" class="edge">
<title>Node3&#45;&gt;Node4</title>
<path fill="none" stroke="#63b8ff" d="M295.75,-300.2C307.72,-295.59 325.6,-288.69 341.64,-282.51"/>
<polygon fill="#63b8ff" stroke="#63b8ff" points="342.87,-285.79 350.94,-278.93 340.35,-279.26 342.87,-285.79"/>
</g>
<!-- Node5 -->
<g id="node5" class="node">
<title>Node5</title>
<g id="a_node5"><a xlink:href="../../dc/db1/____math__invalid_8c.html#a11c62c401c5f851280dc0a4032943305" target="_top" xlink:title=" ">
<polygon fill="white" stroke="#666666" points="420,-391 338,-391 338,-372 420,-372 420,-391"/>
<text text-anchor="middle" x="379" y="-379" font-family="Helvetica,sans-Serif" font-size="10.00">__math_invalid</text>
</a>
</g>
</g>
<!-- Node3&#45;&gt;Node5 -->
<g id="edge4" class="edge">
<title>Node3&#45;&gt;Node5</title>
<path fill="none" stroke="#63b8ff" d="M290.92,-315.46C301.14,-326.53 318.71,-344.55 336,-357.5 339.93,-360.45 344.26,-363.3 348.6,-365.95"/>
<polygon fill="#63b8ff" stroke="#63b8ff" points="346.84,-368.97 357.25,-370.94 350.34,-362.91 346.84,-368.97"/>
</g>
<!-- Node6 -->
<g id="node6" class="node">
<title>Node6</title>
<g id="a_node6"><a xlink:href="../../d9/ded/libm_8h.html#a4e92ce39e6a616f6014883f1d05c33bc" target="_top" xlink:title=" ">
<polygon fill="white" stroke="#666666" points="542,-236 458,-236 458,-217 542,-217 542,-236"/>
<text text-anchor="middle" x="500" y="-224" font-family="Helvetica,sans-Serif" font-size="10.00">eval_as_double</text>
</a>
</g>
</g>
<!-- Node3&#45;&gt;Node6 -->
<g id="edge5" class="edge">
<title>Node3&#45;&gt;Node6</title>
<path fill="none" stroke="#63b8ff" d="M295.93,-312.33C322.07,-324.11 379.64,-345.09 422,-324.5 455.11,-308.41 478.23,-270.41 490,-246.74"/>
<polygon fill="#63b8ff" stroke="#63b8ff" points="493.12,-248.33 494.22,-237.8 486.79,-245.35 493.12,-248.33"/>
</g>
<!-- Node7 -->
<g id="node7" class="node">
<title>Node7</title>
<g id="a_node7"><a xlink:href="../../d7/df8/log_8c.html#ad659092c71fb8c0a80b32323a26a9c31" target="_top" xlink:title=" ">
<polygon fill="white" stroke="#666666" points="399.5,-315 358.5,-315 358.5,-296 399.5,-296 399.5,-315"/>
<text text-anchor="middle" x="379" y="-303" font-family="Helvetica,sans-Serif" font-size="10.00">top16</text>
</a>
</g>
</g>
<!-- Node3&#45;&gt;Node7 -->
<g id="edge6" class="edge">
<title>Node3&#45;&gt;Node7</title>
<path fill="none" stroke="#63b8ff" d="M295.75,-305.5C309.07,-305.5 329.71,-305.5 346.98,-305.5"/>
<polygon fill="#63b8ff" stroke="#63b8ff" points="346.76,-309 356.76,-305.5 346.76,-302 346.76,-309"/>
</g>
<!-- Node9 -->
<g id="node9" class="node">
<title>Node9</title>
<g id="a_node9"><a xlink:href="../../d0/d24/____math__invalidf_8c.html#a802c72b6344e404a3fb304a7a893df6d" target="_top" xlink:title=" ">
<polygon fill="white" stroke="#666666" points="421.5,-93 336.5,-93 336.5,-74 421.5,-74 421.5,-93"/>
<text text-anchor="middle" x="379" y="-81" font-family="Helvetica,sans-Serif" font-size="10.00">__math_invalidf</text>
</a>
</g>
</g>
<!-- Node8&#45;&gt;Node9 -->
<g id="edge8" class="edge">
<title>Node8&#45;&gt;Node9</title>
<path fill="none" stroke="#63b8ff" d="M294.9,-129.71C305.59,-121.83 321.34,-110.75 336,-102.5 338.5,-101.09 341.13,-99.7 343.79,-98.36"/>
<polygon fill="#63b8ff" stroke="#63b8ff" points="345.21,-101.56 352.73,-94.09 342.2,-95.25 345.21,-101.56"/>
</g>
<!-- Node10 -->
<g id="node10" class="node">
<title>Node10</title>
<g id="a_node10"><a xlink:href="../../d4/dd1/____math__oflowf_8c.html#ab5f6ac659c9f631f1e9a7e2b7e82650c" target="_top" xlink:title=" ">
<polygon fill="white" stroke="#666666" points="419,-56 339,-56 339,-37 419,-37 419,-56"/>
<text text-anchor="middle" x="379" y="-44" font-family="Helvetica,sans-Serif" font-size="10.00">__math_oflowf</text>
</a>
</g>
</g>
<!-- Node8&#45;&gt;Node10 -->
<g id="edge9" class="edge">
<title>Node8&#45;&gt;Node10</title>
<path fill="none" stroke="#63b8ff" d="M287.02,-129.61C295.33,-114.11 313.29,-83.96 336,-65.5 337.49,-64.29 339.08,-63.13 340.72,-62.04"/>
<polygon fill="#63b8ff" stroke="#63b8ff" points="342.31,-65.16 349.27,-57.17 338.85,-59.08 342.31,-65.16"/>
</g>
<!-- Node13 -->
<g id="node13" class="node">
<title>Node13</title>
<g id="a_node13"><a xlink:href="../../d7/d88/____math__uflowf_8c.html#ace2382e9c3c29fcfe65220887b6464f7" target="_top" xlink:title=" ">
<polygon fill="white" stroke="#666666" points="419,-19 339,-19 339,0 419,0 419,-19"/>
<text text-anchor="middle" x="379" y="-7" font-family="Helvetica,sans-Serif" font-size="10.00">__math_uflowf</text>
</a>
</g>
</g>
<!-- Node8&#45;&gt;Node13 -->
<g id="edge12" class="edge">
<title>Node8&#45;&gt;Node13</title>
<path fill="none" stroke="#63b8ff" d="M284.22,-129.73C289.55,-108.4 304.96,-57.19 336,-27.5 336.62,-26.9 337.27,-26.33 337.94,-25.77"/>
<polygon fill="#63b8ff" stroke="#63b8ff" points="339.8,-28.73 346.2,-20.28 335.93,-22.89 339.8,-28.73"/>
</g>
<!-- Node14 -->
<g id="node14" class="node">
<title>Node14</title>
<g id="a_node14"><a xlink:href="../../d3/d15/powf_8c.html#a11546aff5c2ce3c7030dacad4cb53515" target="_top" xlink:title=" ">
<polygon fill="white" stroke="#666666" points="405.5,-241 352.5,-241 352.5,-222 405.5,-222 405.5,-241"/>
<text text-anchor="middle" x="379" y="-229" font-family="Helvetica,sans-Serif" font-size="10.00">checkint</text>
</a>
</g>
</g>
<!-- Node8&#45;&gt;Node14 -->
<g id="edge14" class="edge">
<title>Node8&#45;&gt;Node14</title>
<path fill="none" stroke="#63b8ff" d="M286.98,-149.44C295.23,-165.02 313.11,-195.27 336,-213.5 337.97,-215.07 340.09,-216.52 342.3,-217.87"/>
<polygon fill="#63b8ff" stroke="#63b8ff" points="340.51,-220.88 351,-222.39 343.74,-214.67 340.51,-220.88"/>
</g>
<!-- Node15 -->
<g id="node15" class="node">
<title>Node15</title>
<g id="a_node15"><a xlink:href="../../d3/d15/powf_8c.html#a1f4c863dc764c9d54cb5bca749641667" target="_top" xlink:title=" ">
<polygon fill="white" stroke="#666666" points="411.5,-204 346.5,-204 346.5,-185 411.5,-185 411.5,-204"/>
<text text-anchor="middle" x="379" y="-192" font-family="Helvetica,sans-Serif" font-size="10.00">exp2_inline</text>
</a>
</g>
</g>
<!-- Node8&#45;&gt;Node15 -->
<g id="edge15" class="edge">
<title>Node8&#45;&gt;Node15</title>
<path fill="none" stroke="#63b8ff" d="M294.85,-149.37C305.52,-157.29 321.26,-168.39 336,-176.5 338.06,-177.63 340.21,-178.75 342.4,-179.83"/>
<polygon fill="#63b8ff" stroke="#63b8ff" points="340.83,-182.96 351.37,-183.99 343.77,-176.61 340.83,-182.96"/>
</g>
<!-- Node16 -->
<g id="node16" class="node">
<title>Node16</title>
<g id="a_node16"><a xlink:href="../../d3/d15/powf_8c.html#aa9784490cce24c8a91b180da9f9d1846" target="_top" xlink:title=" ">
<polygon fill="white" stroke="#666666" points="410,-167 348,-167 348,-148 410,-148 410,-167"/>
<text text-anchor="middle" x="379" y="-155" font-family="Helvetica,sans-Serif" font-size="10.00">log2_inline</text>
</a>
</g>
</g>
<!-- Node8&#45;&gt;Node16 -->
<g id="edge18" class="edge">
<title>Node8&#45;&gt;Node16</title>
<path fill="none" stroke="#63b8ff" d="M300.06,-142.89C310.39,-144.82 323.81,-147.34 336.59,-149.74"/>
<polygon fill="#63b8ff" stroke="#63b8ff" points="335.6,-153.11 346.08,-151.51 336.89,-146.23 335.6,-153.11"/>
</g>
<!-- Node17 -->
<g id="node17" class="node">
<title>Node17</title>
<g id="a_node17"><a xlink:href="../../d3/d15/powf_8c.html#aea594ed4fe8c275497d3f772065acdf1" target="_top" xlink:title=" ">
<polygon fill="white" stroke="#666666" points="410,-130 348,-130 348,-111 410,-111 410,-130"/>
<text text-anchor="middle" x="379" y="-118" font-family="Helvetica,sans-Serif" font-size="10.00">zeroinfnan</text>
</a>
</g>
</g>
<!-- Node8&#45;&gt;Node17 -->
<g id="edge19" class="edge">
<title>Node8&#45;&gt;Node17</title>
<path fill="none" stroke="#63b8ff" d="M300.06,-135.93C310.39,-133.88 323.81,-131.23 336.59,-128.7"/>
<polygon fill="#63b8ff" stroke="#63b8ff" points="336.95,-132.19 346.08,-126.82 335.59,-125.33 336.95,-132.19"/>
</g>
<!-- Node11 -->
<g id="node11" class="node">
<title>Node11</title>
<g id="a_node11"><a xlink:href="../../d2/d9c/____math__xflowf_8c.html#acea8b151a2de43e9a884a27bf9b4c979" target="_top" xlink:title=" ">
<polygon fill="white" stroke="#666666" points="540,-56 460,-56 460,-37 540,-37 540,-56"/>
<text text-anchor="middle" x="500" y="-44" font-family="Helvetica,sans-Serif" font-size="10.00">__math_xflowf</text>
</a>
</g>
</g>
<!-- Node10&#45;&gt;Node11 -->
<g id="edge10" class="edge">
<title>Node10&#45;&gt;Node11</title>
<path fill="none" stroke="#63b8ff" d="M419.29,-46.5C428.64,-46.5 438.73,-46.5 448.5,-46.5"/>
<polygon fill="#63b8ff" stroke="#63b8ff" points="448.23,-50 458.23,-46.5 448.23,-43 448.23,-50"/>
</g>
<!-- Node12 -->
<g id="node12" class="node">
<title>Node12</title>
<g id="a_node12"><a xlink:href="../../d9/ded/libm_8h.html#aaf30a9fe37d5706bbc69a71345653a01" target="_top" xlink:title=" ">
<polygon fill="white" stroke="#666666" points="652,-111 578,-111 578,-92 652,-92 652,-111"/>
<text text-anchor="middle" x="615" y="-99" font-family="Helvetica,sans-Serif" font-size="10.00">eval_as_float</text>
</a>
</g>
</g>
<!-- Node11&#45;&gt;Node12 -->
<g id="edge11" class="edge">
<title>Node11&#45;&gt;Node12</title>
<path fill="none" stroke="#63b8ff" d="M521.46,-56.46C538.74,-64.87 563.74,-77.04 583.4,-86.61"/>
<polygon fill="#63b8ff" stroke="#63b8ff" points="581.8,-89.72 592.33,-90.95 584.87,-83.43 581.8,-89.72"/>
</g>
<!-- Node13&#45;&gt;Node11 -->
<g id="edge13" class="edge">
<title>Node13&#45;&gt;Node11</title>
<path fill="none" stroke="#63b8ff" d="M411.89,-19.42C425.5,-23.65 441.58,-28.65 456.19,-33.19"/>
<polygon fill="#63b8ff" stroke="#63b8ff" points="454.99,-36.48 465.58,-36.11 457.07,-29.8 454.99,-36.48"/>
</g>
<!-- Node15&#45;&gt;Node6 -->
<g id="edge16" class="edge">
<title>Node15&#45;&gt;Node6</title>
<path fill="none" stroke="#63b8ff" d="M411.89,-203.08C423.94,-206.32 437.93,-210.08 451.12,-213.63"/>
<polygon fill="#63b8ff" stroke="#63b8ff" points="449.93,-216.93 460.5,-216.15 451.75,-210.17 449.93,-216.93"/>
</g>
<!-- Node15&#45;&gt;Node12 -->
<g id="edge17" class="edge">
<title>Node15&#45;&gt;Node12</title>
<path fill="none" stroke="#63b8ff" d="M405.04,-184.55C446.83,-167.94 530.88,-134.54 578.67,-115.54"/>
<polygon fill="#63b8ff" stroke="#63b8ff" points="579.73,-118.89 587.73,-111.94 577.15,-112.38 579.73,-118.89"/>
</g>
</g>
</svg>
