<?xml version="1.0" encoding="UTF-8" standalone="no"?>
<!DOCTYPE svg PUBLIC "-//W3C//DTD SVG 1.1//EN"
 "http://www.w3.org/Graphics/SVG/1.1/DTD/svg11.dtd">
<!-- Generated by graphviz version 7.1.0 (20230121.1956)
 -->
<!-- Title: ColumnIteratorOptions Pages: 1 -->
<svg width="309pt" height="159pt"
 viewBox="0.00 0.00 309.00 159.00" xmlns="http://www.w3.org/2000/svg" xmlns:xlink="http://www.w3.org/1999/xlink">
<g id="graph0" class="graph" transform="scale(1 1) rotate(0) translate(4 155)">
<title>ColumnIteratorOptions</title>
<!-- Node1 -->
<g id="node1" class="node">
<title>Node1</title>
<g id="a_node1"><a xlink:title=" ">
<polygon fill="#999999" stroke="#666666" points="194.5,-19 79.5,-19 79.5,0 194.5,0 194.5,-19"/>
<text text-anchor="middle" x="137" y="-7" font-family="Helvetica,sans-Serif" font-size="10.00">ColumnIteratorOptions</text>
</a>
</g>
</g>
<!-- Node2 -->
<g id="node2" class="node">
<title>Node2</title>
<g id="a_node2"><a xlink:href="../../de/dbf/classdoris_1_1io_1_1_file_reader.html" target="_top" xlink:title=" ">
<polygon fill="white" stroke="#666666" points="64,-85 0,-85 0,-66 64,-66 64,-85"/>
<text text-anchor="middle" x="32" y="-73" font-family="Helvetica,sans-Serif" font-size="10.00">FileReader</text>
</a>
</g>
</g>
<!-- Node2&#45;&gt;Node1 -->
<g id="edge1" class="edge">
<title>Node2&#45;&gt;Node1</title>
<path fill="none" stroke="#9a32cd" stroke-dasharray="5,2" d="M52.15,-58.8C61.59,-51.77 73.12,-43.59 84,-37 94.74,-30.5 107.28,-24.18 117.46,-19.34"/>
<polygon fill="#9a32cd" stroke="#9a32cd" points="50.25,-55.86 44.41,-64.69 54.49,-61.43 50.25,-55.86"/>
<text text-anchor="middle" x="108.5" y="-40" font-family="Helvetica,sans-Serif" font-size="10.00"> file_reader</text>
</g>
<!-- Node3 -->
<g id="node3" class="node">
<title>Node3</title>
<g id="a_node3"><a xlink:href="../../d7/d6c/structdoris_1_1_olap_reader_statistics.html" target="_top" xlink:title=" ">
<polygon fill="white" stroke="#666666" points="192,-85 82,-85 82,-66 192,-66 192,-85"/>
<text text-anchor="middle" x="137" y="-73" font-family="Helvetica,sans-Serif" font-size="10.00">OlapReaderStatistics</text>
</a>
</g>
</g>
<!-- Node3&#45;&gt;Node1 -->
<g id="edge2" class="edge">
<title>Node3&#45;&gt;Node1</title>
<path fill="none" stroke="#9a32cd" stroke-dasharray="5,2" d="M137,-54.18C137,-42.44 137,-28.27 137,-19.32"/>
<polygon fill="#9a32cd" stroke="#9a32cd" points="133.5,-54.09 137,-64.09 140.5,-54.09 133.5,-54.09"/>
<text text-anchor="middle" x="149.5" y="-40" font-family="Helvetica,sans-Serif" font-size="10.00"> stats</text>
</g>
<!-- Node4 -->
<g id="node4" class="node">
<title>Node4</title>
<g id="a_node4"><a xlink:href="../../df/d26/structdoris_1_1io_1_1_file_cache_statistics.html" target="_top" xlink:title=" ">
<polygon fill="white" stroke="#666666" points="239,-151 137,-151 137,-132 239,-132 239,-151"/>
<text text-anchor="middle" x="188" y="-139" font-family="Helvetica,sans-Serif" font-size="10.00">FileCacheStatistics</text>
</a>
</g>
</g>
<!-- Node4&#45;&gt;Node3 -->
<g id="edge3" class="edge">
<title>Node4&#45;&gt;Node3</title>
<path fill="none" stroke="#9a32cd" stroke-dasharray="5,2" d="M153.67,-125.66C149.15,-122.41 145.05,-118.55 142,-114 136.3,-105.49 135.69,-93.42 136.08,-85.3"/>
<polygon fill="#9a32cd" stroke="#9a32cd" points="151.63,-128.52 161.99,-130.72 155.26,-122.54 151.63,-128.52"/>
<text text-anchor="middle" x="179.5" y="-106" font-family="Helvetica,sans-Serif" font-size="10.00"> file_cache_stats</text>
</g>
<!-- Node5 -->
<g id="node5" class="node">
<title>Node5</title>
<g id="a_node5"><a xlink:href="../../d3/d61/classdoris_1_1io_1_1_i_o_context.html" target="_top" xlink:title=" ">
<polygon fill="white" stroke="#666666" points="272,-85 210,-85 210,-66 272,-66 272,-85"/>
<text text-anchor="middle" x="241" y="-73" font-family="Helvetica,sans-Serif" font-size="10.00">IOContext</text>
</a>
</g>
</g>
<!-- Node4&#45;&gt;Node5 -->
<g id="edge5" class="edge">
<title>Node4&#45;&gt;Node5</title>
<path fill="none" stroke="#9a32cd" stroke-dasharray="5,2" d="M207.6,-123.89C210.89,-120.75 214.15,-117.38 217,-114 224.67,-104.89 231.79,-93.17 236.26,-85.28"/>
<polygon fill="#9a32cd" stroke="#9a32cd" points="205.32,-121.24 200.24,-130.54 210.01,-126.44 205.32,-121.24"/>
<text text-anchor="middle" x="263.5" y="-106" font-family="Helvetica,sans-Serif" font-size="10.00"> file_cache_stats</text>
</g>
<!-- Node5&#45;&gt;Node1 -->
<g id="edge4" class="edge">
<title>Node5&#45;&gt;Node1</title>
<path fill="none" stroke="#9a32cd" stroke-dasharray="5,2" d="M216.76,-59.58C196.47,-47.1 168.2,-29.7 151.34,-19.32"/>
<polygon fill="#9a32cd" stroke="#9a32cd" points="214.9,-62.55 225.25,-64.81 218.57,-56.59 214.9,-62.55"/>
<text text-anchor="middle" x="211" y="-40" font-family="Helvetica,sans-Serif" font-size="10.00"> io_ctx</text>
</g>
</g>
</svg>
