<?xml version="1.0" encoding="UTF-8" standalone="no"?>
<!DOCTYPE svg PUBLIC "-//W3C//DTD SVG 1.1//EN"
 "http://www.w3.org/Graphics/SVG/1.1/DTD/svg11.dtd">
<!-- Generated by graphviz version 7.1.0 (20230121.1956)
 -->
<!-- Title: init_from_thrift Pages: 1 -->
<svg width="486pt" height="169pt"
 viewBox="0.00 0.00 486.00 168.50" xmlns="http://www.w3.org/2000/svg" xmlns:xlink="http://www.w3.org/1999/xlink">
<g id="graph0" class="graph" transform="scale(1 1) rotate(0) translate(4 164.5)">
<title>init_from_thrift</title>
<!-- Node1 -->
<g id="node1" class="node">
<title>Node1</title>
<g id="a_node1"><a xlink:title=" ">
<polygon fill="#999999" stroke="#666666" points="79,-101 0,-101 0,-82 79,-82 79,-101"/>
<text text-anchor="middle" x="39.5" y="-89" font-family="Helvetica,sans-Serif" font-size="10.00">init_from_thrift</text>
</a>
</g>
</g>
<!-- Node2 -->
<g id="node2" class="node">
<title>Node2</title>
<g id="a_node2"><a xlink:href="../../d9/da4/classdoris_1_1_tablet_meta.html#a0e027f8e0959aad0bd40b7471d396ab2" target="_top" xlink:title=" ">
<polygon fill="white" stroke="#666666" points="246,-142.5 115,-142.5 115,-112.5 246,-112.5 246,-142.5"/>
<text text-anchor="start" x="123" y="-130.5" font-family="Helvetica,sans-Serif" font-size="10.00">doris::TabletMeta::</text>
<text text-anchor="middle" x="180.5" y="-119.5" font-family="Helvetica,sans-Serif" font-size="10.00">init_column_from_tcolumn</text>
</a>
</g>
</g>
<!-- Node1&#45;&gt;Node2 -->
<g id="edge1" class="edge">
<title>Node1&#45;&gt;Node2</title>
<path fill="none" stroke="#63b8ff" d="M78.85,-101.43C88.27,-103.87 98.66,-106.56 109.07,-109.26"/>
<polygon fill="#63b8ff" stroke="#63b8ff" points="107.87,-112.56 118.43,-111.68 109.63,-105.79 107.87,-112.56"/>
</g>
<!-- Node5 -->
<g id="node5" class="node">
<title>Node5</title>
<g id="a_node5"><a xlink:href="../../d8/d28/classdoris_1_1_tablet_column.html#a6158e6093d6b46e19952cf0369734f7a" target="_top" xlink:title=" ">
<polygon fill="white" stroke="#666666" points="215.5,-71 145.5,-71 145.5,-52 215.5,-52 215.5,-71"/>
<text text-anchor="middle" x="180.5" y="-59" font-family="Helvetica,sans-Serif" font-size="10.00">init_from_pb</text>
</a>
</g>
</g>
<!-- Node1&#45;&gt;Node5 -->
<g id="edge5" class="edge">
<title>Node1&#45;&gt;Node5</title>
<path fill="none" stroke="#63b8ff" d="M79.22,-83.14C96.22,-79.47 116.3,-75.14 134.01,-71.32"/>
<polygon fill="#63b8ff" stroke="#63b8ff" points="134.73,-74.74 143.77,-69.21 133.26,-67.9 134.73,-74.74"/>
</g>
<!-- Node2&#45;&gt;Node2 -->
<g id="edge4" class="edge">
<title>Node2&#45;&gt;Node2</title>
<path fill="none" stroke="#63b8ff" d="M155.71,-142.78C150.21,-151.91 158.47,-160.5 180.5,-160.5 192.55,-160.5 200.48,-157.93 204.29,-154.11"/>
<polygon fill="#63b8ff" stroke="#63b8ff" points="207.77,-154.55 205.15,-144.28 200.79,-153.94 207.77,-154.55"/>
</g>
<!-- Node3 -->
<g id="node3" class="node">
<title>Node3</title>
<g id="a_node3"><a xlink:href="../../d8/d28/classdoris_1_1_tablet_column.html#a82fede132c0773fa6371f8f362e3f7ee" target="_top" xlink:title=" ">
<polygon fill="white" stroke="#666666" points="407,-142 282,-142 282,-123 407,-123 407,-142"/>
<text text-anchor="middle" x="344.5" y="-130" font-family="Helvetica,sans-Serif" font-size="10.00">get_field_length_by_type</text>
</a>
</g>
</g>
<!-- Node2&#45;&gt;Node3 -->
<g id="edge2" class="edge">
<title>Node2&#45;&gt;Node3</title>
<path fill="none" stroke="#63b8ff" d="M246.46,-129.5C254.27,-129.75 262.28,-129.99 270.19,-130.24"/>
<polygon fill="#63b8ff" stroke="#63b8ff" points="270.07,-133.74 280.17,-130.55 270.28,-126.74 270.07,-133.74"/>
</g>
<!-- Node4 -->
<g id="node4" class="node">
<title>Node4</title>
<g id="a_node4"><a xlink:href="../../d8/d28/classdoris_1_1_tablet_column.html#a29dc1ff17f4954924eab0c091400af77" target="_top" xlink:title=" ">
<polygon fill="white" stroke="#666666" points="478,-80 443,-80 443,-61 478,-61 478,-80"/>
<text text-anchor="middle" x="460.5" y="-68" font-family="Helvetica,sans-Serif" font-size="10.00">type</text>
</a>
</g>
</g>
<!-- Node3&#45;&gt;Node4 -->
<g id="edge3" class="edge">
<title>Node3&#45;&gt;Node4</title>
<path fill="none" stroke="#63b8ff" d="M388.1,-122.54C394.61,-120.31 401.11,-117.65 407,-114.5 419.87,-107.61 432.47,-97.21 442.1,-88.25"/>
<polygon fill="#63b8ff" stroke="#63b8ff" points="444.51,-90.8 449.25,-81.32 439.63,-85.77 444.51,-90.8"/>
</g>
<!-- Node5&#45;&gt;Node5 -->
<g id="edge10" class="edge">
<title>Node5&#45;&gt;Node5</title>
<path fill="none" stroke="#63b8ff" d="M158.43,-71.37C148.36,-79.94 155.71,-89 180.5,-89 194.05,-89 202.4,-86.29 205.53,-82.43"/>
<polygon fill="#63b8ff" stroke="#63b8ff" points="208.93,-81.59 202.96,-72.83 202.16,-83.39 208.93,-81.59"/>
</g>
<!-- Node6 -->
<g id="node6" class="node">
<title>Node6</title>
<g id="a_node6"><a xlink:href="../../d8/d28/classdoris_1_1_tablet_column.html#a49b79d1a6cee4cd14962c4c5412cc8d4" target="_top" xlink:title=" ">
<polygon fill="white" stroke="#666666" points="389.5,-105 299.5,-105 299.5,-86 389.5,-86 389.5,-105"/>
<text text-anchor="middle" x="344.5" y="-93" font-family="Helvetica,sans-Serif" font-size="10.00">add_sub_column</text>
</a>
</g>
</g>
<!-- Node5&#45;&gt;Node6 -->
<g id="edge6" class="edge">
<title>Node5&#45;&gt;Node6</title>
<path fill="none" stroke="#63b8ff" d="M215.86,-68.71C236.78,-73.1 264.01,-78.82 287.94,-83.84"/>
<polygon fill="#63b8ff" stroke="#63b8ff" points="287.04,-87.23 297.54,-85.85 288.48,-80.38 287.04,-87.23"/>
</g>
<!-- Node7 -->
<g id="node7" class="node">
<title>Node7</title>
<g id="a_node7"><a xlink:href="../../d8/d28/classdoris_1_1_tablet_column.html#a98625e36cf11345f380bccbee1571e2d" target="_top" xlink:title=" ">
<polygon fill="white" stroke="#666666" points="399.5,-67.5 289.5,-67.5 289.5,-37.5 399.5,-37.5 399.5,-67.5"/>
<text text-anchor="start" x="297.5" y="-55.5" font-family="Helvetica,sans-Serif" font-size="10.00">get_aggregation_type</text>
<text text-anchor="middle" x="344.5" y="-44.5" font-family="Helvetica,sans-Serif" font-size="10.00">_by_string</text>
</a>
</g>
</g>
<!-- Node5&#45;&gt;Node7 -->
<g id="edge7" class="edge">
<title>Node5&#45;&gt;Node7</title>
<path fill="none" stroke="#63b8ff" d="M215.86,-59.59C233.88,-58.59 256.59,-57.33 277.84,-56.15"/>
<polygon fill="#63b8ff" stroke="#63b8ff" points="277.81,-59.65 287.6,-55.61 277.42,-52.67 277.81,-59.65"/>
</g>
<!-- Node8 -->
<g id="node8" class="node">
<title>Node8</title>
<g id="a_node8"><a xlink:href="../../d8/d28/classdoris_1_1_tablet_column.html#a0ce403292f28f96d5bcb08e86a8e8a74" target="_top" xlink:title=" ">
<polygon fill="white" stroke="#666666" points="405.5,-19 283.5,-19 283.5,0 405.5,0 405.5,-19"/>
<text text-anchor="middle" x="344.5" y="-7" font-family="Helvetica,sans-Serif" font-size="10.00">get_field_type_by_string</text>
</a>
</g>
</g>
<!-- Node5&#45;&gt;Node8 -->
<g id="edge8" class="edge">
<title>Node5&#45;&gt;Node8</title>
<path fill="none" stroke="#63b8ff" d="M211.36,-51.54C231.33,-44.92 258.2,-36.08 282,-28.5 287.86,-26.63 294.03,-24.69 300.13,-22.79"/>
<polygon fill="#63b8ff" stroke="#63b8ff" points="300.95,-26.2 309.47,-19.9 298.88,-19.52 300.95,-26.2"/>
</g>
<!-- Node8&#45;&gt;Node4 -->
<g id="edge9" class="edge">
<title>Node8&#45;&gt;Node4</title>
<path fill="none" stroke="#63b8ff" d="M385.42,-19.43C392.8,-21.93 400.29,-24.94 407,-28.5 419.35,-35.04 431.63,-44.65 441.21,-53.03"/>
<polygon fill="#63b8ff" stroke="#63b8ff" points="438.6,-55.39 448.35,-59.53 443.31,-50.21 438.6,-55.39"/>
</g>
</g>
</svg>
