<?xml version="1.0" encoding="UTF-8" standalone="no"?>
<!DOCTYPE svg PUBLIC "-//W3C//DTD SVG 1.1//EN"
 "http://www.w3.org/Graphics/SVG/1.1/DTD/svg11.dtd">
<!-- Generated by graphviz version 7.1.0 (20230121.1956)
 -->
<!-- Title: ColumnIterator Pages: 1 -->
<svg width="262pt" height="286pt"
 viewBox="0.00 0.00 262.00 286.00" xmlns="http://www.w3.org/2000/svg" xmlns:xlink="http://www.w3.org/1999/xlink">
<g id="graph0" class="graph" transform="scale(1 1) rotate(0) translate(4 282)">
<title>ColumnIterator</title>
<!-- Node1 -->
<g id="node1" class="node">
<title>Node1</title>
<g id="a_node1"><a xlink:title=" ">
<polygon fill="#999999" stroke="#666666" points="81,-148 0,-148 0,-129 81,-129 81,-148"/>
<text text-anchor="middle" x="40.5" y="-136" font-family="Helvetica,sans-Serif" font-size="10.00">ColumnIterator</text>
</a>
</g>
</g>
<!-- Node2 -->
<g id="node2" class="node">
<title>Node2</title>
<g id="a_node2"><a xlink:href="../../da/da4/classdoris_1_1segment__v2_1_1_array_file_column_iterator.html" target="_top" xlink:title=" ">
<polygon fill="white" stroke="#666666" points="245.5,-278 125.5,-278 125.5,-259 245.5,-259 245.5,-278"/>
<text text-anchor="middle" x="185.5" y="-266" font-family="Helvetica,sans-Serif" font-size="10.00">ArrayFileColumnIterator</text>
</a>
</g>
</g>
<!-- Node1&#45;&gt;Node2 -->
<g id="edge1" class="edge">
<title>Node1&#45;&gt;Node2</title>
<path fill="none" stroke="#63b8ff" d="M49.66,-158.57C60.98,-183.87 83.88,-226.9 117,-250.5 121.54,-253.74 126.63,-256.39 131.93,-258.57"/>
<polygon fill="#63b8ff" stroke="#63b8ff" points="53.02,-157.53 45.87,-149.72 46.59,-160.29 53.02,-157.53"/>
</g>
<!-- Node3 -->
<g id="node3" class="node">
<title>Node3</title>
<g id="a_node3"><a xlink:href="../../d4/df6/classdoris_1_1segment__v2_1_1_default_value_column_iterator.html" target="_top" xlink:title=" ">
<polygon fill="white" stroke="#666666" points="254,-241 117,-241 117,-222 254,-222 254,-241"/>
<text text-anchor="middle" x="185.5" y="-229" font-family="Helvetica,sans-Serif" font-size="10.00">DefaultValueColumnIterator</text>
</a>
</g>
</g>
<!-- Node1&#45;&gt;Node3 -->
<g id="edge2" class="edge">
<title>Node1&#45;&gt;Node3</title>
<path fill="none" stroke="#63b8ff" d="M55.37,-157.01C69.17,-174.14 91.86,-199.06 117,-213.5 122.57,-216.7 128.73,-219.35 135,-221.53"/>
<polygon fill="#63b8ff" stroke="#63b8ff" points="58.51,-155.34 49.59,-149.61 52.99,-159.65 58.51,-155.34"/>
</g>
<!-- Node4 -->
<g id="node4" class="node">
<title>Node4</title>
<g id="a_node4"><a xlink:href="../../d5/d94/classdoris_1_1segment__v2_1_1_empty_file_column_iterator.html" target="_top" xlink:title=" ">
<polygon fill="white" stroke="#666666" points="248,-204 123,-204 123,-185 248,-185 248,-204"/>
<text text-anchor="middle" x="185.5" y="-192" font-family="Helvetica,sans-Serif" font-size="10.00">EmptyFileColumnIterator</text>
</a>
</g>
</g>
<!-- Node1&#45;&gt;Node4 -->
<g id="edge3" class="edge">
<title>Node1&#45;&gt;Node4</title>
<path fill="none" stroke="#63b8ff" d="M68.73,-153.92C82.83,-161.45 100.5,-170.22 117,-176.5 124.94,-179.52 133.58,-182.23 141.95,-184.58"/>
<polygon fill="#63b8ff" stroke="#63b8ff" points="70.52,-150.9 60.06,-149.18 67.16,-157.05 70.52,-150.9"/>
</g>
<!-- Node5 -->
<g id="node5" class="node">
<title>Node5</title>
<g id="a_node5"><a xlink:href="../../df/df3/classdoris_1_1segment__v2_1_1_file_column_iterator.html" target="_top" xlink:title=" ">
<polygon fill="white" stroke="#666666" points="234,-167 137,-167 137,-148 234,-148 234,-167"/>
<text text-anchor="middle" x="185.5" y="-155" font-family="Helvetica,sans-Serif" font-size="10.00">FileColumnIterator</text>
</a>
</g>
</g>
<!-- Node1&#45;&gt;Node5 -->
<g id="edge4" class="edge">
<title>Node1&#45;&gt;Node5</title>
<path fill="none" stroke="#63b8ff" d="M92.57,-145.29C106.97,-147.2 122.57,-149.27 136.76,-151.16"/>
<polygon fill="#63b8ff" stroke="#63b8ff" points="93.21,-141.84 82.83,-143.99 92.29,-148.78 93.21,-141.84"/>
</g>
<!-- Node6 -->
<g id="node6" class="node">
<title>Node6</title>
<g id="a_node6"><a xlink:href="../../df/de1/classdoris_1_1segment__v2_1_1_map_file_column_iterator.html" target="_top" xlink:title=" ">
<polygon fill="white" stroke="#666666" points="243.5,-130 127.5,-130 127.5,-111 243.5,-111 243.5,-130"/>
<text text-anchor="middle" x="185.5" y="-118" font-family="Helvetica,sans-Serif" font-size="10.00">MapFileColumnIterator</text>
</a>
</g>
</g>
<!-- Node1&#45;&gt;Node6 -->
<g id="edge5" class="edge">
<title>Node1&#45;&gt;Node6</title>
<path fill="none" stroke="#63b8ff" d="M92.69,-132.06C103.9,-130.65 115.82,-129.14 127.24,-127.71"/>
<polygon fill="#63b8ff" stroke="#63b8ff" points="92.32,-128.58 82.84,-133.3 93.19,-135.52 92.32,-128.58"/>
</g>
<!-- Node7 -->
<g id="node7" class="node">
<title>Node7</title>
<g id="a_node7"><a xlink:href="../../d9/d09/classdoris_1_1segment__v2_1_1_offset_file_column_iterator.html" target="_top" xlink:title=" ">
<polygon fill="white" stroke="#666666" points="247.5,-93 123.5,-93 123.5,-74 247.5,-74 247.5,-93"/>
<text text-anchor="middle" x="185.5" y="-81" font-family="Helvetica,sans-Serif" font-size="10.00">OffsetFileColumnIterator</text>
</a>
</g>
</g>
<!-- Node1&#45;&gt;Node7 -->
<g id="edge6" class="edge">
<title>Node1&#45;&gt;Node7</title>
<path fill="none" stroke="#63b8ff" d="M69.99,-123.5C83.92,-116.53 101.08,-108.49 117,-102.5 125.89,-99.16 135.63,-96.09 144.87,-93.44"/>
<polygon fill="#63b8ff" stroke="#63b8ff" points="68.71,-120.22 61.39,-127.88 71.89,-126.46 68.71,-120.22"/>
</g>
<!-- Node8 -->
<g id="node8" class="node">
<title>Node8</title>
<g id="a_node8"><a xlink:href="../../d8/d14/classdoris_1_1segment__v2_1_1_row_id_column_iterator.html" target="_top" xlink:title=" ">
<polygon fill="white" stroke="#666666" points="240.5,-56 130.5,-56 130.5,-37 240.5,-37 240.5,-56"/>
<text text-anchor="middle" x="185.5" y="-44" font-family="Helvetica,sans-Serif" font-size="10.00">RowIdColumnIterator</text>
</a>
</g>
</g>
<!-- Node1&#45;&gt;Node8 -->
<g id="edge7" class="edge">
<title>Node1&#45;&gt;Node8</title>
<path fill="none" stroke="#63b8ff" d="M55.91,-120.11C69.85,-103.52 92.42,-79.62 117,-65.5 123.33,-61.86 130.41,-58.88 137.52,-56.46"/>
<polygon fill="#63b8ff" stroke="#63b8ff" points="53.31,-117.76 49.71,-127.73 58.73,-122.18 53.31,-117.76"/>
</g>
<!-- Node9 -->
<g id="node9" class="node">
<title>Node9</title>
<g id="a_node9"><a xlink:href="../../d7/d2d/classdoris_1_1segment__v2_1_1_struct_file_column_iterator.html" target="_top" xlink:title=" ">
<polygon fill="white" stroke="#666666" points="247,-19 124,-19 124,0 247,0 247,-19"/>
<text text-anchor="middle" x="185.5" y="-7" font-family="Helvetica,sans-Serif" font-size="10.00">StructFileColumnIterator</text>
</a>
</g>
</g>
<!-- Node1&#45;&gt;Node9 -->
<g id="edge8" class="edge">
<title>Node1&#45;&gt;Node9</title>
<path fill="none" stroke="#63b8ff" d="M50.13,-118.15C61.72,-93.29 84.66,-51.68 117,-28.5 122.15,-24.81 127.99,-21.84 134.03,-19.44"/>
<polygon fill="#63b8ff" stroke="#63b8ff" points="46.98,-116.62 46.11,-127.18 53.38,-119.47 46.98,-116.62"/>
</g>
</g>
</svg>
