<?xml version="1.0" encoding="UTF-8" standalone="no"?>
<!DOCTYPE svg PUBLIC "-//W3C//DTD SVG 1.1//EN"
 "http://www.w3.org/Graphics/SVG/1.1/DTD/svg11.dtd">
<!-- Generated by graphviz version 7.1.0 (20230121.1956)
 -->
<!-- Title: close Pages: 1 -->
<svg width="355pt" height="159pt"
 viewBox="0.00 0.00 355.00 159.00" xmlns="http://www.w3.org/2000/svg" xmlns:xlink="http://www.w3.org/1999/xlink">
<g id="graph0" class="graph" transform="scale(1 1) rotate(0) translate(4 155)">
<title>close</title>
<!-- Node1 -->
<g id="node1" class="node">
<title>Node1</title>
<g id="a_node1"><a xlink:title=" ">
<polygon fill="#999999" stroke="#666666" points="40,-85.5 0,-85.5 0,-66.5 40,-66.5 40,-85.5"/>
<text text-anchor="middle" x="20" y="-73.5" font-family="Helvetica,sans-Serif" font-size="10.00">close</text>
</a>
</g>
</g>
<!-- Node2 -->
<g id="node2" class="node">
<title>Node2</title>
<g id="a_node2"><a xlink:href="../../d6/d94/namespacedoris.html#af5786aa2386a90ecb101bd8196fe44d7" target="_top" xlink:title=" ">
<polygon fill="white" stroke="#666666" points="184.5,-144.5 86.5,-144.5 86.5,-125.5 184.5,-125.5 184.5,-144.5"/>
<text text-anchor="middle" x="135.5" y="-132.5" font-family="Helvetica,sans-Serif" font-size="10.00">doris::client_cache</text>
</a>
</g>
</g>
<!-- Node1&#45;&gt;Node2 -->
<g id="edge1" class="edge">
<title>Node1&#45;&gt;Node2</title>
<path fill="none" stroke="#63b8ff" d="M33.59,-85.71C44.41,-93.75 60.66,-105.09 76,-113 81.49,-115.83 87.42,-118.48 93.34,-120.91"/>
<polygon fill="#63b8ff" stroke="#63b8ff" points="91.86,-124.09 102.45,-124.45 94.4,-117.56 91.86,-124.09"/>
</g>
<!-- Node4 -->
<g id="node4" class="node">
<title>Node4</title>
<g id="a_node4"><a xlink:href="../../d9/d8d/classdoris_1_1_status.html#a6ec1a217f203269ab53d2290d602db24" target="_top" xlink:title=" ">
<polygon fill="white" stroke="#666666" points="181.5,-104.5 89.5,-104.5 89.5,-85.5 181.5,-85.5 181.5,-104.5"/>
<text text-anchor="middle" x="135.5" y="-92.5" font-family="Helvetica,sans-Serif" font-size="10.00">doris::Status::OK</text>
</a>
</g>
</g>
<!-- Node1&#45;&gt;Node4 -->
<g id="edge3" class="edge">
<title>Node1&#45;&gt;Node4</title>
<path fill="none" stroke="#63b8ff" d="M40.25,-79.22C50.73,-80.98 64.29,-83.25 77.84,-85.52"/>
<polygon fill="#63b8ff" stroke="#63b8ff" points="77.22,-88.96 87.66,-87.16 78.38,-82.06 77.22,-88.96"/>
</g>
<!-- Node6 -->
<g id="node6" class="node">
<title>Node6</title>
<g id="a_node6"><a xlink:href="../../d9/d8d/classdoris_1_1_status.html#a03cb7eaa663dc83af68bc28a596d09e6" target="_top" xlink:title=" ">
<polygon fill="white" stroke="#666666" points="180,-67.5 91,-67.5 91,-48.5 180,-48.5 180,-67.5"/>
<text text-anchor="middle" x="135.5" y="-55.5" font-family="Helvetica,sans-Serif" font-size="10.00">doris::Status::ok</text>
</a>
</g>
</g>
<!-- Node1&#45;&gt;Node6 -->
<g id="edge5" class="edge">
<title>Node1&#45;&gt;Node6</title>
<path fill="none" stroke="#63b8ff" d="M40.25,-72.95C51.13,-71.22 65.34,-68.97 79.41,-66.74"/>
<polygon fill="#63b8ff" stroke="#63b8ff" points="79.78,-70.22 89.11,-65.2 78.68,-63.31 79.78,-70.22"/>
</g>
<!-- Node7 -->
<g id="node7" class="node">
<title>Node7</title>
<g id="a_node7"><a xlink:href="../../d7/d70/classdoris_1_1_client_connection.html#af962d700d7644aefc29ab69452faab0e" target="_top" xlink:title=" ">
<polygon fill="white" stroke="#666666" points="195,-30 76,-30 76,0 195,0 195,-30"/>
<text text-anchor="start" x="84" y="-18" font-family="Helvetica,sans-Serif" font-size="10.00">doris::ClientConnection</text>
<text text-anchor="middle" x="135.5" y="-7" font-family="Helvetica,sans-Serif" font-size="10.00">::reopen</text>
</a>
</g>
</g>
<!-- Node1&#45;&gt;Node7 -->
<g id="edge6" class="edge">
<title>Node1&#45;&gt;Node7</title>
<path fill="none" stroke="#63b8ff" d="M34.09,-66.09C44.94,-58.14 60.98,-47.03 76,-39 78.37,-37.73 80.82,-36.49 83.31,-35.28"/>
<polygon fill="#63b8ff" stroke="#63b8ff" points="84.74,-38.48 92.35,-31.11 81.8,-32.12 84.74,-38.48"/>
</g>
<!-- Node3 -->
<g id="node3" class="node">
<title>Node3</title>
<g id="a_node3"><a xlink:href="../../d9/dbd/classdoris_1_1_exec_env.html#a0e209ae5fa12dae6ed1775a984bc12db" target="_top" xlink:title=" ">
<polygon fill="white" stroke="#666666" points="347,-151 231,-151 231,-121 347,-121 347,-151"/>
<text text-anchor="start" x="239" y="-139" font-family="Helvetica,sans-Serif" font-size="10.00">doris::ExecEnv::broker</text>
<text text-anchor="middle" x="289" y="-128" font-family="Helvetica,sans-Serif" font-size="10.00">_client_cache</text>
</a>
</g>
</g>
<!-- Node2&#45;&gt;Node3 -->
<g id="edge2" class="edge">
<title>Node2&#45;&gt;Node3</title>
<path fill="none" stroke="#63b8ff" d="M184.85,-135.32C195.76,-135.39 207.55,-135.47 219.12,-135.55"/>
<polygon fill="#63b8ff" stroke="#63b8ff" points="219.05,-139.04 229.07,-135.61 219.09,-132.04 219.05,-139.04"/>
</g>
<!-- Node5 -->
<g id="node5" class="node">
<title>Node5</title>
<g id="a_node5"><a xlink:href="../../d9/d8d/classdoris_1_1_status.html#aafde58df1b2a6a91d5b674373be3ffc5" target="_top" xlink:title=" ">
<polygon fill="white" stroke="#666666" points="342.5,-102.5 235.5,-102.5 235.5,-83.5 342.5,-83.5 342.5,-102.5"/>
<text text-anchor="middle" x="289" y="-90.5" font-family="Helvetica,sans-Serif" font-size="10.00">doris::Status::Status</text>
</a>
</g>
</g>
<!-- Node4&#45;&gt;Node5 -->
<g id="edge4" class="edge">
<title>Node4&#45;&gt;Node5</title>
<path fill="none" stroke="#63b8ff" d="M181.95,-94.4C195.16,-94.23 209.83,-94.03 223.95,-93.85"/>
<polygon fill="#63b8ff" stroke="#63b8ff" points="223.65,-97.35 233.61,-93.72 223.56,-90.35 223.65,-97.35"/>
</g>
</g>
</svg>
