<?xml version="1.0" encoding="UTF-8" standalone="no"?>
<!DOCTYPE svg PUBLIC "-//W3C//DTD SVG 1.1//EN"
 "http://www.w3.org/Graphics/SVG/1.1/DTD/svg11.dtd">
<!-- Generated by graphviz version 7.1.0 (20230121.1956)
 -->
<!-- Title: safe_strto64 Pages: 1 -->
<svg width="1216pt" height="107pt"
 viewBox="0.00 0.00 1216.00 106.50" xmlns="http://www.w3.org/2000/svg" xmlns:xlink="http://www.w3.org/1999/xlink">
<g id="graph0" class="graph" transform="scale(1 1) rotate(0) translate(4 102.5)">
<title>safe_strto64</title>
<!-- Node1 -->
<g id="node1" class="node">
<title>Node1</title>
<g id="a_node1"><a xlink:title=" ">
<polygon fill="#999999" stroke="#666666" points="1208,-61.5 1137,-61.5 1137,-42.5 1208,-42.5 1208,-61.5"/>
<text text-anchor="middle" x="1172.5" y="-49.5" font-family="Helvetica,sans-Serif" font-size="10.00">safe_strto64</text>
</a>
</g>
</g>
<!-- Node2 -->
<g id="node2" class="node">
<title>Node2</title>
<g id="a_node2"><a xlink:href="../../d7/d8f/meta__tool_8cpp.html#a23eb8f881b01cc04e6ab61d0afab434e" target="_top" xlink:title=" ">
<polygon fill="white" stroke="#666666" points="1087,-98.5 988,-98.5 988,-79.5 1087,-79.5 1087,-98.5"/>
<text text-anchor="middle" x="1037.5" y="-86.5" font-family="Helvetica,sans-Serif" font-size="10.00">batch_delete_meta</text>
</a>
</g>
</g>
<!-- Node1&#45;&gt;Node2 -->
<g id="edge1" class="edge">
<title>Node1&#45;&gt;Node2</title>
<path fill="none" stroke="#63b8ff" d="M1125.79,-64.72C1108.9,-69.42 1090.01,-74.67 1074.14,-79.09"/>
<polygon fill="#63b8ff" stroke="#63b8ff" points="1126.4,-68.18 1135.1,-62.13 1124.53,-61.44 1126.4,-68.18"/>
</g>
<!-- Node4 -->
<g id="node4" class="node">
<title>Node4</title>
<g id="a_node4"><a xlink:href="../../d6/d94/namespacedoris.html#ad907ef2e6ccf0f207ff05f691b827851" target="_top" xlink:title=" ">
<polygon fill="white" stroke="#666666" points="1101,-61.5 974,-61.5 974,-42.5 1101,-42.5 1101,-61.5"/>
<text text-anchor="middle" x="1037.5" y="-49.5" font-family="Helvetica,sans-Serif" font-size="10.00">doris::is_being_debugged</text>
</a>
</g>
</g>
<!-- Node1&#45;&gt;Node4 -->
<g id="edge3" class="edge">
<title>Node1&#45;&gt;Node4</title>
<path fill="none" stroke="#63b8ff" d="M1125.19,-52C1117.45,-52 1109.31,-52 1101.25,-52"/>
<polygon fill="#63b8ff" stroke="#63b8ff" points="1125.04,-55.5 1135.04,-52 1125.04,-48.5 1125.04,-55.5"/>
</g>
<!-- Node5 -->
<g id="node5" class="node">
<title>Node5</title>
<g id="a_node5"><a xlink:href="../../d6/d94/namespacedoris.html#afd46a1aa0a2174bae3e5087e98ffcaa2" target="_top" xlink:title=" ">
<polygon fill="white" stroke="#666666" points="1082,-24.5 993,-24.5 993,-5.5 1082,-5.5 1082,-24.5"/>
<text text-anchor="middle" x="1037.5" y="-12.5" font-family="Helvetica,sans-Serif" font-size="10.00">doris::parse_stat</text>
</a>
</g>
</g>
<!-- Node1&#45;&gt;Node5 -->
<g id="edge4" class="edge">
<title>Node1&#45;&gt;Node5</title>
<path fill="none" stroke="#63b8ff" d="M1125.79,-39.28C1108.9,-34.58 1090.01,-29.33 1074.14,-24.91"/>
<polygon fill="#63b8ff" stroke="#63b8ff" points="1124.53,-42.56 1135.1,-41.87 1126.4,-35.82 1124.53,-42.56"/>
</g>
<!-- Node3 -->
<g id="node3" class="node">
<title>Node3</title>
<g id="a_node3"><a xlink:href="../../d7/d8f/meta__tool_8cpp.html#a3c04138a5bfe5d72780bb7e82a18e627" target="_top" xlink:title=" ">
<polygon fill="white" stroke="#666666" points="899,-98.5 861,-98.5 861,-79.5 899,-79.5 899,-98.5"/>
<text text-anchor="middle" x="880" y="-86.5" font-family="Helvetica,sans-Serif" font-size="10.00">main</text>
</a>
</g>
</g>
<!-- Node2&#45;&gt;Node3 -->
<g id="edge2" class="edge">
<title>Node2&#45;&gt;Node3</title>
<path fill="none" stroke="#63b8ff" d="M976.53,-89C948.92,-89 918.14,-89 899.17,-89"/>
<polygon fill="#63b8ff" stroke="#63b8ff" points="976.21,-92.5 986.21,-89 976.21,-85.5 976.21,-92.5"/>
</g>
<!-- Node6 -->
<g id="node6" class="node">
<title>Node6</title>
<g id="a_node6"><a xlink:href="../../d6/d94/namespacedoris.html#a48784f1be6c81f0f8130f63d11e7b604" target="_top" xlink:title=" ">
<polygon fill="white" stroke="#666666" points="938,-24.5 822,-24.5 822,-5.5 938,-5.5 938,-24.5"/>
<text text-anchor="middle" x="880" y="-12.5" font-family="Helvetica,sans-Serif" font-size="10.00">doris::get_thread_stats</text>
</a>
</g>
</g>
<!-- Node5&#45;&gt;Node6 -->
<g id="edge5" class="edge">
<title>Node5&#45;&gt;Node6</title>
<path fill="none" stroke="#63b8ff" d="M981.35,-15C967.4,-15 952.39,-15 938.34,-15"/>
<polygon fill="#63b8ff" stroke="#63b8ff" points="981.26,-18.5 991.26,-15 981.26,-11.5 981.26,-18.5"/>
</g>
<!-- Node7 -->
<g id="node7" class="node">
<title>Node7</title>
<g id="a_node7"><a xlink:href="../../d5/dc0/classdoris_1_1_thread_mgr.html#ac0a23bc481f2998fffac0628fc8e4e50" target="_top" xlink:title=" ">
<polygon fill="white" stroke="#666666" points="786,-30 642,-30 642,0 786,0 786,-30"/>
<text text-anchor="start" x="650" y="-18" font-family="Helvetica,sans-Serif" font-size="10.00">doris::ThreadMgr::summarize</text>
<text text-anchor="middle" x="714" y="-7" font-family="Helvetica,sans-Serif" font-size="10.00">_thread_descriptor</text>
</a>
</g>
</g>
<!-- Node6&#45;&gt;Node7 -->
<g id="edge6" class="edge">
<title>Node6&#45;&gt;Node7</title>
<path fill="none" stroke="#63b8ff" d="M810.27,-15C802.4,-15 794.36,-15 786.46,-15"/>
<polygon fill="#63b8ff" stroke="#63b8ff" points="810.13,-18.5 820.13,-15 810.13,-11.5 810.13,-18.5"/>
</g>
<!-- Node8 -->
<g id="node8" class="node">
<title>Node8</title>
<g id="a_node8"><a xlink:href="../../d5/dc0/classdoris_1_1_thread_mgr.html#a5a31a75a710e1d3badb5329543bada70" target="_top" xlink:title=" ">
<polygon fill="white" stroke="#666666" points="606,-30 479,-30 479,0 606,0 606,-30"/>
<text text-anchor="start" x="487" y="-18" font-family="Helvetica,sans-Serif" font-size="10.00">doris::ThreadMgr::display</text>
<text text-anchor="middle" x="542.5" y="-7" font-family="Helvetica,sans-Serif" font-size="10.00">_thread_callback</text>
</a>
</g>
</g>
<!-- Node7&#45;&gt;Node8 -->
<g id="edge7" class="edge">
<title>Node7&#45;&gt;Node8</title>
<path fill="none" stroke="#63b8ff" d="M630.32,-15C622.3,-15 614.25,-15 606.47,-15"/>
<polygon fill="#63b8ff" stroke="#63b8ff" points="630.09,-18.5 640.09,-15 630.09,-11.5 630.09,-18.5"/>
</g>
<!-- Node9 -->
<g id="node9" class="node">
<title>Node9</title>
<g id="a_node9"><a xlink:href="../../d6/d94/namespacedoris.html#ae883899878e5829bac7c4b37cd27c956" target="_top" xlink:title=" ">
<polygon fill="white" stroke="#666666" points="443,-30 335,-30 335,0 443,0 443,-30"/>
<text text-anchor="start" x="343" y="-18" font-family="Helvetica,sans-Serif" font-size="10.00">doris::register_thread</text>
<text text-anchor="middle" x="389" y="-7" font-family="Helvetica,sans-Serif" font-size="10.00">_display_page</text>
</a>
</g>
</g>
<!-- Node8&#45;&gt;Node9 -->
<g id="edge8" class="edge">
<title>Node8&#45;&gt;Node9</title>
<path fill="none" stroke="#63b8ff" d="M467.23,-15C459.17,-15 451.09,-15 443.35,-15"/>
<polygon fill="#63b8ff" stroke="#63b8ff" points="467.05,-18.5 477.05,-15 467.05,-11.5 467.05,-18.5"/>
</g>
<!-- Node10 -->
<g id="node10" class="node">
<title>Node10</title>
<g id="a_node10"><a xlink:href="../../d6/d94/namespacedoris.html#aa513e3622fb9d7855867389ccb866907" target="_top" xlink:title=" ">
<polygon fill="white" stroke="#666666" points="299,-30 205,-30 205,0 299,0 299,-30"/>
<text text-anchor="start" x="213" y="-18" font-family="Helvetica,sans-Serif" font-size="10.00">doris::add_default</text>
<text text-anchor="middle" x="252" y="-7" font-family="Helvetica,sans-Serif" font-size="10.00">_path_handlers</text>
</a>
</g>
</g>
<!-- Node9&#45;&gt;Node10 -->
<g id="edge9" class="edge">
<title>Node9&#45;&gt;Node10</title>
<path fill="none" stroke="#63b8ff" d="M323.32,-15C315.25,-15 307.13,-15 299.42,-15"/>
<polygon fill="#63b8ff" stroke="#63b8ff" points="323.13,-18.5 333.13,-15 323.13,-11.5 323.13,-18.5"/>
</g>
<!-- Node11 -->
<g id="node11" class="node">
<title>Node11</title>
<g id="a_node11"><a xlink:href="../../d7/db0/classdoris_1_1_http_service.html#a1ece7b40dc52b67186533a0ec4dadc49" target="_top" xlink:title=" ">
<polygon fill="white" stroke="#666666" points="169,-30 74,-30 74,0 169,0 169,-30"/>
<text text-anchor="start" x="82" y="-18" font-family="Helvetica,sans-Serif" font-size="10.00">doris::HttpService</text>
<text text-anchor="middle" x="121.5" y="-7" font-family="Helvetica,sans-Serif" font-size="10.00">::start</text>
</a>
</g>
</g>
<!-- Node10&#45;&gt;Node11 -->
<g id="edge10" class="edge">
<title>Node10&#45;&gt;Node11</title>
<path fill="none" stroke="#63b8ff" d="M193.35,-15C185.29,-15 177.08,-15 169.25,-15"/>
<polygon fill="#63b8ff" stroke="#63b8ff" points="193.1,-18.5 203.1,-15 193.09,-11.5 193.1,-18.5"/>
</g>
<!-- Node12 -->
<g id="node12" class="node">
<title>Node12</title>
<g id="a_node12"><a xlink:href="../../d7/dcc/doris__main_8cpp.html#a3c04138a5bfe5d72780bb7e82a18e627" target="_top" xlink:title=" ">
<polygon fill="white" stroke="#666666" points="38,-24.5 0,-24.5 0,-5.5 38,-5.5 38,-24.5"/>
<text text-anchor="middle" x="19" y="-12.5" font-family="Helvetica,sans-Serif" font-size="10.00">main</text>
</a>
</g>
</g>
<!-- Node11&#45;&gt;Node12 -->
<g id="edge11" class="edge">
<title>Node11&#45;&gt;Node12</title>
<path fill="none" stroke="#63b8ff" d="M62.35,-15C53.74,-15 45.43,-15 38.5,-15"/>
<polygon fill="#63b8ff" stroke="#63b8ff" points="62.27,-18.5 72.27,-15 62.27,-11.5 62.27,-18.5"/>
</g>
</g>
</svg>
