<?xml version="1.0" encoding="UTF-8" standalone="no"?>
<!DOCTYPE svg PUBLIC "-//W3C//DTD SVG 1.1//EN"
 "http://www.w3.org/Graphics/SVG/1.1/DTD/svg11.dtd">
<!-- Generated by graphviz version 7.1.0 (20230121.1956)
 -->
<!-- Title: begin Pages: 1 -->
<svg width="264pt" height="64pt"
 viewBox="0.00 0.00 264.00 64.00" xmlns="http://www.w3.org/2000/svg" xmlns:xlink="http://www.w3.org/1999/xlink">
<g id="graph0" class="graph" transform="scale(1 1) rotate(0) translate(4 60)">
<title>begin</title>
<!-- Node1 -->
<g id="node1" class="node">
<title>Node1</title>
<g id="a_node1"><a xlink:title=" ">
<polygon fill="#999999" stroke="#666666" points="40,-37 0,-37 0,-18 40,-18 40,-37"/>
<text text-anchor="middle" x="20" y="-25" font-family="Helvetica,sans-Serif" font-size="10.00">begin</text>
</a>
</g>
</g>
<!-- Node2 -->
<g id="node2" class="node">
<title>Node2</title>
<g id="a_node2"><a xlink:href="../../df/dc5/class_join_hash_table.html#accf9a4bd0c34d4a5f6a7dab66ea10cdc" target="_top" xlink:title=" ">
<polygon fill="white" stroke="#666666" points="134,-56 102,-56 102,-37 134,-37 134,-56"/>
<text text-anchor="middle" x="118" y="-44" font-family="Helvetica,sans-Serif" font-size="10.00">end</text>
</a>
</g>
</g>
<!-- Node1&#45;&gt;Node2 -->
<g id="edge1" class="edge">
<title>Node1&#45;&gt;Node2</title>
<path fill="none" stroke="#63b8ff" d="M40.43,-31.34C54.83,-34.2 74.64,-38.12 90.5,-41.26"/>
<polygon fill="#63b8ff" stroke="#63b8ff" points="89.73,-44.67 100.22,-43.18 91.09,-37.8 89.73,-44.67"/>
</g>
<!-- Node3 -->
<g id="node3" class="node">
<title>Node3</title>
<g id="a_node3"><a xlink:href="../../df/dc5/class_join_hash_table.html#a4cc9416f2a2ba1a4e2709d2e1093210d" target="_top" xlink:title=" ">
<polygon fill="white" stroke="#666666" points="160,-19 76,-19 76,0 160,0 160,-19"/>
<text text-anchor="middle" x="118" y="-7" font-family="Helvetica,sans-Serif" font-size="10.00">iterator_to_zero</text>
</a>
</g>
</g>
<!-- Node1&#45;&gt;Node3 -->
<g id="edge2" class="edge">
<title>Node1&#45;&gt;Node3</title>
<path fill="none" stroke="#63b8ff" d="M40.43,-23.86C47.51,-22.53 55.9,-20.96 64.49,-19.35"/>
<polygon fill="#63b8ff" stroke="#63b8ff" points="65.12,-22.79 74.31,-17.5 63.83,-15.91 65.12,-22.79"/>
</g>
<!-- Node4 -->
<g id="node4" class="node">
<title>Node4</title>
<g id="a_node4"><a xlink:href="../../df/dc5/class_join_hash_table.html#a7785e973f850b75a741ed6e5651c568b" target="_top" xlink:title=" ">
<polygon fill="white" stroke="#666666" points="256,-19 196,-19 196,0 256,0 256,-19"/>
<text text-anchor="middle" x="226" y="-7" font-family="Helvetica,sans-Serif" font-size="10.00">iterator_to</text>
</a>
</g>
</g>
<!-- Node3&#45;&gt;Node4 -->
<g id="edge3" class="edge">
<title>Node3&#45;&gt;Node4</title>
<path fill="none" stroke="#63b8ff" d="M160.29,-9.5C168.25,-9.5 176.59,-9.5 184.53,-9.5"/>
<polygon fill="#63b8ff" stroke="#63b8ff" points="184.28,-13 194.28,-9.5 184.28,-6 184.28,-13"/>
</g>
</g>
</svg>
