<?xml version="1.0" encoding="UTF-8" standalone="no"?>
<!DOCTYPE svg PUBLIC "-//W3C//DTD SVG 1.1//EN"
 "http://www.w3.org/Graphics/SVG/1.1/DTD/svg11.dtd">
<!-- Generated by graphviz version 7.1.0 (20230121.1956)
 -->
<!-- Title: _write_data_page Pages: 1 -->
<svg width="752pt" height="236pt"
 viewBox="0.00 0.00 752.00 236.00" xmlns="http://www.w3.org/2000/svg" xmlns:xlink="http://www.w3.org/1999/xlink">
<g id="graph0" class="graph" transform="scale(1 1) rotate(0) translate(4 232)">
<title>_write_data_page</title>
<!-- Node1 -->
<g id="node1" class="node">
<title>Node1</title>
<g id="a_node1"><a xlink:title=" ">
<polygon fill="#999999" stroke="#666666" points="93,-158 0,-158 0,-139 93,-139 93,-158"/>
<text text-anchor="middle" x="46.5" y="-146" font-family="Helvetica,sans-Serif" font-size="10.00">_write_data_page</text>
</a>
</g>
</g>
<!-- Node2 -->
<g id="node2" class="node">
<title>Node2</title>
<g id="a_node2"><a xlink:href="../../d9/d8d/classdoris_1_1_status.html#a6ec1a217f203269ab53d2290d602db24" target="_top" xlink:title=" ">
<polygon fill="white" stroke="#666666" points="367.5,-228 275.5,-228 275.5,-209 367.5,-209 367.5,-228"/>
<text text-anchor="middle" x="321.5" y="-216" font-family="Helvetica,sans-Serif" font-size="10.00">doris::Status::OK</text>
</a>
</g>
</g>
<!-- Node1&#45;&gt;Node2 -->
<g id="edge1" class="edge">
<title>Node1&#45;&gt;Node2</title>
<path fill="none" stroke="#63b8ff" d="M86.32,-158.45C134.84,-170.89 217.92,-192.2 270.97,-205.8"/>
<polygon fill="#63b8ff" stroke="#63b8ff" points="269.79,-209.11 280.34,-208.2 271.53,-202.33 269.79,-209.11"/>
</g>
<!-- Node4 -->
<g id="node4" class="node">
<title>Node4</title>
<g id="a_node4"><a xlink:href="../../d2/d03/classdoris_1_1segment__v2_1_1_page_i_o.html#acbe06b7c0a36ecfd9bc3ed341aa06d40" target="_top" xlink:title=" ">
<polygon fill="white" stroke="#666666" points="232,-142.5 129,-142.5 129,-112.5 232,-112.5 232,-142.5"/>
<text text-anchor="start" x="137" y="-130.5" font-family="Helvetica,sans-Serif" font-size="10.00">doris::segment_v2::</text>
<text text-anchor="middle" x="180.5" y="-119.5" font-family="Helvetica,sans-Serif" font-size="10.00">PageIO::write_page</text>
</a>
</g>
</g>
<!-- Node1&#45;&gt;Node4 -->
<g id="edge3" class="edge">
<title>Node1&#45;&gt;Node4</title>
<path fill="none" stroke="#63b8ff" d="M93.3,-141.21C101.18,-139.96 109.49,-138.64 117.71,-137.33"/>
<polygon fill="#63b8ff" stroke="#63b8ff" points="118,-140.83 127.33,-135.8 116.9,-133.92 118,-140.83"/>
</g>
<!-- Node3 -->
<g id="node3" class="node">
<title>Node3</title>
<g id="a_node3"><a xlink:href="../../d9/d8d/classdoris_1_1_status.html#aafde58df1b2a6a91d5b674373be3ffc5" target="_top" xlink:title=" ">
<polygon fill="white" stroke="#666666" points="527,-228 420,-228 420,-209 527,-209 527,-228"/>
<text text-anchor="middle" x="473.5" y="-216" font-family="Helvetica,sans-Serif" font-size="10.00">doris::Status::Status</text>
</a>
</g>
</g>
<!-- Node2&#45;&gt;Node3 -->
<g id="edge2" class="edge">
<title>Node2&#45;&gt;Node3</title>
<path fill="none" stroke="#63b8ff" d="M367.91,-218.5C380.64,-218.5 394.73,-218.5 408.33,-218.5"/>
<polygon fill="#63b8ff" stroke="#63b8ff" points="408.09,-222 418.09,-218.5 408.09,-215 408.09,-222"/>
</g>
<!-- Node4&#45;&gt;Node2 -->
<g id="edge9" class="edge">
<title>Node4&#45;&gt;Node2</title>
<path fill="none" stroke="#63b8ff" d="M196.51,-142.83C212.86,-158.8 240.37,-183.66 268,-199.5 270.84,-201.13 273.84,-202.66 276.91,-204.08"/>
<polygon fill="#63b8ff" stroke="#63b8ff" points="275.54,-207.3 286.11,-207.96 278.25,-200.85 275.54,-207.3"/>
</g>
<!-- Node5 -->
<g id="node5" class="node">
<title>Node5</title>
<g id="a_node5"><a xlink:href="../../d4/d4b/classdoris_1_1io_1_1_file_writer.html#ad3cbe0a7c67fab749f7d7476987fcb68" target="_top" xlink:title=" ">
<polygon fill="white" stroke="#666666" points="370.5,-190.5 272.5,-190.5 272.5,-160.5 370.5,-160.5 370.5,-190.5"/>
<text text-anchor="start" x="280.5" y="-178.5" font-family="Helvetica,sans-Serif" font-size="10.00">doris::io::FileWriter</text>
<text text-anchor="middle" x="321.5" y="-167.5" font-family="Helvetica,sans-Serif" font-size="10.00">::appendv</text>
</a>
</g>
</g>
<!-- Node4&#45;&gt;Node5 -->
<g id="edge4" class="edge">
<title>Node4&#45;&gt;Node5</title>
<path fill="none" stroke="#63b8ff" d="M226.25,-142.95C238.65,-147.23 252.26,-151.93 265.18,-156.4"/>
<polygon fill="#63b8ff" stroke="#63b8ff" points="263.81,-159.63 274.41,-159.58 266.1,-153.01 263.81,-159.63"/>
</g>
<!-- Node6 -->
<g id="node6" class="node">
<title>Node6</title>
<g id="a_node6"><a xlink:href="../../d4/d4b/classdoris_1_1io_1_1_file_writer.html#ad87b49eda56deb2aeb71da33654482fc" target="_top" xlink:title=" ">
<polygon fill="white" stroke="#666666" points="370.5,-142.5 272.5,-142.5 272.5,-112.5 370.5,-112.5 370.5,-142.5"/>
<text text-anchor="start" x="280.5" y="-130.5" font-family="Helvetica,sans-Serif" font-size="10.00">doris::io::FileWriter</text>
<text text-anchor="middle" x="321.5" y="-119.5" font-family="Helvetica,sans-Serif" font-size="10.00">::bytes_appended</text>
</a>
</g>
</g>
<!-- Node4&#45;&gt;Node6 -->
<g id="edge5" class="edge">
<title>Node4&#45;&gt;Node6</title>
<path fill="none" stroke="#63b8ff" d="M232.47,-127.5C241.72,-127.5 251.45,-127.5 260.93,-127.5"/>
<polygon fill="#63b8ff" stroke="#63b8ff" points="260.8,-131 270.8,-127.5 260.8,-124 260.8,-131"/>
</g>
<!-- Node7 -->
<g id="node7" class="node">
<title>Node7</title>
<g id="a_node7"><a xlink:href="../../d6/d94/namespacedoris.html#a343764117c996fb2e87e2eff6d19774c" target="_top" xlink:title=" ">
<polygon fill="white" stroke="#666666" points="536,-75 411,-75 411,-56 536,-56 536,-75"/>
<text text-anchor="middle" x="473.5" y="-63" font-family="Helvetica,sans-Serif" font-size="10.00">doris::encode_fixed32_le</text>
</a>
</g>
</g>
<!-- Node4&#45;&gt;Node7 -->
<g id="edge6" class="edge">
<title>Node4&#45;&gt;Node7</title>
<path fill="none" stroke="#63b8ff" d="M232.08,-112.67C243.82,-109.45 256.31,-106.2 268,-103.5 311.55,-93.43 360.8,-84.22 400.05,-77.38"/>
<polygon fill="#63b8ff" stroke="#63b8ff" points="400.61,-80.84 409.87,-75.69 399.42,-73.94 400.61,-80.84"/>
</g>
<!-- Node10 -->
<g id="node10" class="node">
<title>Node10</title>
<g id="a_node10"><a xlink:href="../../d6/d94/namespacedoris.html#ae4b159cd667e97f52562617ca1b83671" target="_top" xlink:title=" ">
<polygon fill="white" stroke="#666666" points="375,-56 268,-56 268,-37 375,-37 375,-56"/>
<text text-anchor="middle" x="321.5" y="-44" font-family="Helvetica,sans-Serif" font-size="10.00">doris::put_fixed32_le</text>
</a>
</g>
</g>
<!-- Node4&#45;&gt;Node10 -->
<g id="edge10" class="edge">
<title>Node4&#45;&gt;Node10</title>
<path fill="none" stroke="#63b8ff" d="M202.96,-112.02C220.12,-99.97 245.03,-83.22 268,-70.5 273.84,-67.27 280.2,-64.09 286.41,-61.16"/>
<polygon fill="#63b8ff" stroke="#63b8ff" points="287.58,-64.47 295.22,-57.13 284.67,-58.1 287.58,-64.47"/>
</g>
<!-- Node11 -->
<g id="node11" class="node">
<title>Node11</title>
<g id="a_node11"><a xlink:href="../../d6/d45/namespacedoris_1_1crc32c.html#a7b41a12744649aa424b4fcc440ff51a5" target="_top" xlink:title=" ">
<polygon fill="white" stroke="#666666" points="373,-19 270,-19 270,0 373,0 373,-19"/>
<text text-anchor="middle" x="321.5" y="-7" font-family="Helvetica,sans-Serif" font-size="10.00">doris::crc32c::Value</text>
</a>
</g>
</g>
<!-- Node4&#45;&gt;Node11 -->
<g id="edge12" class="edge">
<title>Node4&#45;&gt;Node11</title>
<path fill="none" stroke="#63b8ff" d="M191.03,-112.04C205.23,-90.22 233.95,-50.5 268,-27.5 269.77,-26.31 271.62,-25.19 273.53,-24.13"/>
<polygon fill="#63b8ff" stroke="#63b8ff" points="274.55,-27.52 282.08,-20.07 271.55,-21.2 274.55,-27.52"/>
</g>
<!-- Node8 -->
<g id="node8" class="node">
<title>Node8</title>
<g id="a_node8"><a xlink:href="../../d9/d1e/memcpy__aarch64_8cpp.html#a156c5821f16ed93be8c7d315303f7b2a" target="_top" xlink:title=" ">
<polygon fill="white" stroke="#666666" points="626,-75 572,-75 572,-56 626,-56 626,-75"/>
<text text-anchor="middle" x="599" y="-63" font-family="Helvetica,sans-Serif" font-size="10.00">memcpy</text>
</a>
</g>
</g>
<!-- Node7&#45;&gt;Node8 -->
<g id="edge7" class="edge">
<title>Node7&#45;&gt;Node8</title>
<path fill="none" stroke="#63b8ff" d="M536.25,-65.5C544.4,-65.5 552.55,-65.5 560.14,-65.5"/>
<polygon fill="#63b8ff" stroke="#63b8ff" points="559.99,-69 569.99,-65.5 559.99,-62 559.99,-69"/>
</g>
<!-- Node9 -->
<g id="node9" class="node">
<title>Node9</title>
<g id="a_node9"><a xlink:href="../../d9/d1e/memcpy__aarch64_8cpp.html#a11ebdd343428c466f2f35c376d7db6d0" target="_top" xlink:title=" ">
<polygon fill="white" stroke="#666666" points="744,-75 662,-75 662,-56 744,-56 744,-75"/>
<text text-anchor="middle" x="703" y="-63" font-family="Helvetica,sans-Serif" font-size="10.00">inline_memcpy</text>
</a>
</g>
</g>
<!-- Node8&#45;&gt;Node9 -->
<g id="edge8" class="edge">
<title>Node8&#45;&gt;Node9</title>
<path fill="none" stroke="#63b8ff" d="M626.27,-65.5C633.65,-65.5 641.95,-65.5 650.28,-65.5"/>
<polygon fill="#63b8ff" stroke="#63b8ff" points="650.05,-69 660.05,-65.5 650.05,-62 650.05,-69"/>
</g>
<!-- Node10&#45;&gt;Node7 -->
<g id="edge11" class="edge">
<title>Node10&#45;&gt;Node7</title>
<path fill="none" stroke="#63b8ff" d="M375.38,-53.2C383.12,-54.18 391.21,-55.2 399.27,-56.22"/>
<polygon fill="#63b8ff" stroke="#63b8ff" points="398.74,-59.68 409.1,-57.47 399.62,-52.74 398.74,-59.68"/>
</g>
<!-- Node12 -->
<g id="node12" class="node">
<title>Node12</title>
<g id="a_node12"><a xlink:href="../../d6/d45/namespacedoris_1_1crc32c.html#a616c7bbe1cb19253f0edcec89794271a" target="_top" xlink:title=" ">
<polygon fill="white" stroke="#666666" points="528.5,-19 418.5,-19 418.5,0 528.5,0 528.5,-19"/>
<text text-anchor="middle" x="473.5" y="-7" font-family="Helvetica,sans-Serif" font-size="10.00">doris::crc32c::Extend</text>
</a>
</g>
</g>
<!-- Node11&#45;&gt;Node12 -->
<g id="edge13" class="edge">
<title>Node11&#45;&gt;Node12</title>
<path fill="none" stroke="#63b8ff" d="M373.28,-9.5C384.12,-9.5 395.71,-9.5 407.01,-9.5"/>
<polygon fill="#63b8ff" stroke="#63b8ff" points="406.66,-13 416.66,-9.5 406.66,-6 406.66,-13"/>
</g>
</g>
</svg>
