<?xml version="1.0" encoding="UTF-8" standalone="no"?>
<!DOCTYPE svg PUBLIC "-//W3C//DTD SVG 1.1//EN"
 "http://www.w3.org/Graphics/SVG/1.1/DTD/svg11.dtd">
<!-- Generated by graphviz version 7.1.0 (20230121.1956)
 -->
<!-- Title: _insert_arr_column_data Pages: 1 -->
<svg width="682pt" height="27pt"
 viewBox="0.00 0.00 682.00 27.00" xmlns="http://www.w3.org/2000/svg" xmlns:xlink="http://www.w3.org/1999/xlink">
<g id="graph0" class="graph" transform="scale(1 1) rotate(0) translate(4 23)">
<title>_insert_arr_column_data</title>
<!-- Node1 -->
<g id="node1" class="node">
<title>Node1</title>
<g id="a_node1"><a xlink:title=" ">
<polygon fill="#999999" stroke="#666666" points="674,-19 551,-19 551,0 674,0 674,-19"/>
<text text-anchor="middle" x="612.5" y="-7" font-family="Helvetica,sans-Serif" font-size="10.00">_insert_arr_column_data</text>
</a>
</g>
</g>
<!-- Node2 -->
<g id="node2" class="node">
<title>Node2</title>
<g id="a_node2"><a xlink:href="../../d2/d96/classdoris_1_1vectorized_1_1_jdbc_connector.html#aef9d60287dbf039a85e4373b6ce1a4cf" target="_top" xlink:title=" ">
<polygon fill="white" stroke="#666666" points="515,-19 408,-19 408,0 515,0 515,-19"/>
<text text-anchor="middle" x="461.5" y="-7" font-family="Helvetica,sans-Serif" font-size="10.00">_insert_column_data</text>
</a>
</g>
</g>
<!-- Node1&#45;&gt;Node2 -->
<g id="edge1" class="edge">
<title>Node1&#45;&gt;Node2</title>
<path fill="none" stroke="#63b8ff" d="M539.49,-2.75C531.37,-2.73 523.21,-2.82 515.4,-3.01"/>
<polygon fill="#63b8ff" stroke="#63b8ff" points="539.35,-6.25 549.38,-2.84 539.41,0.75 539.35,-6.25"/>
</g>
<!-- Node2&#45;&gt;Node1 -->
<g id="edge5" class="edge">
<title>Node2&#45;&gt;Node1</title>
<path fill="none" stroke="#63b8ff" d="M526.91,-16.19C534.87,-16.28 542.99,-16.27 550.9,-16.14"/>
<polygon fill="#63b8ff" stroke="#63b8ff" points="526.97,-12.7 516.91,-16.02 526.85,-19.69 526.97,-12.7"/>
</g>
<!-- Node3 -->
<g id="node3" class="node">
<title>Node3</title>
<g id="a_node3"><a xlink:href="../../d2/d96/classdoris_1_1vectorized_1_1_jdbc_connector.html#a29031584a05cc44a8f464f8fed97a552" target="_top" xlink:title=" ">
<polygon fill="white" stroke="#666666" points="372,-19 257,-19 257,0 372,0 372,-19"/>
<text text-anchor="middle" x="314.5" y="-7" font-family="Helvetica,sans-Serif" font-size="10.00">_convert_column_data</text>
</a>
</g>
</g>
<!-- Node2&#45;&gt;Node3 -->
<g id="edge2" class="edge">
<title>Node2&#45;&gt;Node3</title>
<path fill="none" stroke="#63b8ff" d="M396.24,-9.5C388.29,-9.5 380.2,-9.5 372.38,-9.5"/>
<polygon fill="#63b8ff" stroke="#63b8ff" points="396.23,-13 406.23,-9.5 396.23,-6 396.23,-13"/>
</g>
<!-- Node4 -->
<g id="node4" class="node">
<title>Node4</title>
<g id="a_node4"><a xlink:href="../../d2/d96/classdoris_1_1vectorized_1_1_jdbc_connector.html#a83152cdce22ea81f1c6097454b19e523" target="_top" xlink:title=" ">
<polygon fill="white" stroke="#666666" points="221,-19 90,-19 90,0 221,0 221,-19"/>
<text text-anchor="middle" x="155.5" y="-7" font-family="Helvetica,sans-Serif" font-size="10.00">_convert_batch_result_set</text>
</a>
</g>
</g>
<!-- Node3&#45;&gt;Node4 -->
<g id="edge3" class="edge">
<title>Node3&#45;&gt;Node4</title>
<path fill="none" stroke="#63b8ff" d="M245.31,-9.5C237.36,-9.5 229.27,-9.5 221.36,-9.5"/>
<polygon fill="#63b8ff" stroke="#63b8ff" points="245.31,-13 255.31,-9.5 245.31,-6 245.31,-13"/>
</g>
<!-- Node5 -->
<g id="node5" class="node">
<title>Node5</title>
<g id="a_node5"><a xlink:href="../../d2/d96/classdoris_1_1vectorized_1_1_jdbc_connector.html#ade5260d8142076621fcc600308c4993f" target="_top" xlink:title=" ">
<polygon fill="white" stroke="#666666" points="54,-19 0,-19 0,0 54,0 54,-19"/>
<text text-anchor="middle" x="27" y="-7" font-family="Helvetica,sans-Serif" font-size="10.00">get_next</text>
</a>
</g>
</g>
<!-- Node4&#45;&gt;Node5 -->
<g id="edge4" class="edge">
<title>Node4&#45;&gt;Node5</title>
<path fill="none" stroke="#63b8ff" d="M78.4,-9.5C69.85,-9.5 61.63,-9.5 54.4,-9.5"/>
<polygon fill="#63b8ff" stroke="#63b8ff" points="78.25,-13 88.25,-9.5 78.25,-6 78.25,-13"/>
</g>
</g>
</svg>
