<?xml version="1.0" encoding="UTF-8" standalone="no"?>
<!DOCTYPE svg PUBLIC "-//W3C//DTD SVG 1.1//EN"
 "http://www.w3.org/Graphics/SVG/1.1/DTD/svg11.dtd">
<!-- Generated by graphviz version 7.1.0 (20230121.1956)
 -->
<!-- Title: insert_many_continuous_binary_data Pages: 1 -->
<svg width="373pt" height="101pt"
 viewBox="0.00 0.00 373.00 101.00" xmlns="http://www.w3.org/2000/svg" xmlns:xlink="http://www.w3.org/1999/xlink">
<g id="graph0" class="graph" transform="scale(1 1) rotate(0) translate(4 97)">
<title>insert_many_continuous_binary_data</title>
<!-- Node1 -->
<g id="node1" class="node">
<title>Node1</title>
<g id="a_node1"><a xlink:title=" ">
<polygon fill="#999999" stroke="#666666" points="122,-61.5 0,-61.5 0,-31.5 122,-31.5 122,-61.5"/>
<text text-anchor="start" x="8" y="-49.5" font-family="Helvetica,sans-Serif" font-size="10.00">insert_many_continuous</text>
<text text-anchor="middle" x="61" y="-38.5" font-family="Helvetica,sans-Serif" font-size="10.00">_binary_data</text>
</a>
</g>
</g>
<!-- Node2 -->
<g id="node2" class="node">
<title>Node2</title>
<g id="a_node2"><a xlink:href="../../dd/d4a/classdoris_1_1vectorized_1_1_column_complex_type.html#ac64997ed352dad2653ef6bf4dcc75873" target="_top" xlink:title=" ">
<polygon fill="white" stroke="#666666" points="254,-56 158,-56 158,-37 254,-37 254,-56"/>
<text text-anchor="middle" x="206" y="-44" font-family="Helvetica,sans-Serif" font-size="10.00">insert_binary_data</text>
</a>
</g>
</g>
<!-- Node1&#45;&gt;Node2 -->
<g id="edge1" class="edge">
<title>Node1&#45;&gt;Node2</title>
<path fill="none" stroke="#63b8ff" d="M122.23,-46.5C130.23,-46.5 138.42,-46.5 146.4,-46.5"/>
<polygon fill="#63b8ff" stroke="#63b8ff" points="146.36,-50 156.36,-46.5 146.36,-43 146.36,-50"/>
</g>
<!-- Node3 -->
<g id="node3" class="node">
<title>Node3</title>
<g id="a_node3"><a xlink:href="../../dd/d4a/classdoris_1_1vectorized_1_1_column_complex_type.html#a09230e0da400bb4b65270dd9d1a19a9b" target="_top" xlink:title=" ">
<polygon fill="white" stroke="#666666" points="362.5,-93 292.5,-93 292.5,-74 362.5,-74 362.5,-93"/>
<text text-anchor="middle" x="327.5" y="-81" font-family="Helvetica,sans-Serif" font-size="10.00">get_element</text>
</a>
</g>
</g>
<!-- Node2&#45;&gt;Node3 -->
<g id="edge2" class="edge">
<title>Node2&#45;&gt;Node3</title>
<path fill="none" stroke="#63b8ff" d="M239.02,-56.42C252.69,-60.65 268.83,-65.65 283.51,-70.19"/>
<polygon fill="#63b8ff" stroke="#63b8ff" points="282.35,-73.5 292.94,-73.11 284.42,-66.81 282.35,-73.5"/>
</g>
<!-- Node4 -->
<g id="node4" class="node">
<title>Node4</title>
<g id="a_node4"><a xlink:href="../../dd/d4a/classdoris_1_1vectorized_1_1_column_complex_type.html#a6df2ecbab548a51440ef47a89d5950a7" target="_top" xlink:title=" ">
<polygon fill="white" stroke="#666666" points="365,-56 290,-56 290,-37 365,-37 365,-56"/>
<text text-anchor="middle" x="327.5" y="-44" font-family="Helvetica,sans-Serif" font-size="10.00">insert_default</text>
</a>
</g>
</g>
<!-- Node2&#45;&gt;Node4 -->
<g id="edge3" class="edge">
<title>Node2&#45;&gt;Node4</title>
<path fill="none" stroke="#63b8ff" d="M254.23,-46.5C262.12,-46.5 270.31,-46.5 278.23,-46.5"/>
<polygon fill="#63b8ff" stroke="#63b8ff" points="278.05,-50 288.05,-46.5 278.05,-43 278.05,-50"/>
</g>
<!-- Node5 -->
<g id="node5" class="node">
<title>Node5</title>
<g id="a_node5"><a xlink:href="../../dd/d4a/classdoris_1_1vectorized_1_1_column_complex_type.html#ad7701a09a964eab360a8e51fa7ad2c16" target="_top" xlink:title=" ">
<polygon fill="white" stroke="#666666" points="345,-19 310,-19 310,0 345,0 345,-19"/>
<text text-anchor="middle" x="327.5" y="-7" font-family="Helvetica,sans-Serif" font-size="10.00">size</text>
</a>
</g>
</g>
<!-- Node2&#45;&gt;Node5 -->
<g id="edge4" class="edge">
<title>Node2&#45;&gt;Node5</title>
<path fill="none" stroke="#63b8ff" d="M239.02,-36.58C257.63,-30.83 280.83,-23.64 298.67,-18.12"/>
<polygon fill="#63b8ff" stroke="#63b8ff" points="299.55,-21.51 308.07,-15.21 297.48,-14.82 299.55,-21.51"/>
</g>
</g>
</svg>
