<?xml version="1.0" encoding="UTF-8" standalone="no"?>
<!DOCTYPE svg PUBLIC "-//W3C//DTD SVG 1.1//EN"
 "http://www.w3.org/Graphics/SVG/1.1/DTD/svg11.dtd">
<!-- Generated by graphviz version 7.1.0 (20230121.1956)
 -->
<!-- Title: contains_agg Pages: 1 -->
<svg width="317pt" height="27pt"
 viewBox="0.00 0.00 317.00 27.00" xmlns="http://www.w3.org/2000/svg" xmlns:xlink="http://www.w3.org/1999/xlink">
<g id="graph0" class="graph" transform="scale(1 1) rotate(0) translate(4 23)">
<title>contains_agg</title>
<!-- Node1 -->
<g id="node1" class="node">
<title>Node1</title>
<g id="a_node1"><a xlink:title=" ">
<polygon fill="#999999" stroke="#666666" points="74,-19 0,-19 0,0 74,0 74,-19"/>
<text text-anchor="middle" x="37" y="-7" font-family="Helvetica,sans-Serif" font-size="10.00">contains_agg</text>
</a>
</g>
</g>
<!-- Node2 -->
<g id="node2" class="node">
<title>Node2</title>
<g id="a_node2"><a xlink:href="../../d6/d6d/classdoris_1_1_delete_bitmap.html#ae569379a0d665fe3b520696000f4dde9" target="_top" xlink:title=" ">
<polygon fill="white" stroke="#666666" points="161,-19 110,-19 110,0 161,0 161,-19"/>
<text text-anchor="middle" x="135.5" y="-7" font-family="Helvetica,sans-Serif" font-size="10.00">get_agg</text>
</a>
</g>
</g>
<!-- Node1&#45;&gt;Node2 -->
<g id="edge1" class="edge">
<title>Node1&#45;&gt;Node2</title>
<path fill="none" stroke="#63b8ff" d="M74.48,-9.5C82.28,-9.5 90.51,-9.5 98.3,-9.5"/>
<polygon fill="#63b8ff" stroke="#63b8ff" points="98.15,-13 108.15,-9.5 98.15,-6 98.15,-13"/>
</g>
<!-- Node3 -->
<g id="node3" class="node">
<title>Node3</title>
<g id="a_node3"><a xlink:href="../../d6/d94/namespacedoris.html#aadf496015cbf03ee51eacff5da88338d" target="_top" xlink:title=" ">
<polygon fill="white" stroke="#666666" points="309,-19 197,-19 197,0 309,0 309,-19"/>
<text text-anchor="middle" x="253" y="-7" font-family="Helvetica,sans-Serif" font-size="10.00">doris::agg_cache_key</text>
</a>
</g>
</g>
<!-- Node2&#45;&gt;Node3 -->
<g id="edge2" class="edge">
<title>Node2&#45;&gt;Node3</title>
<path fill="none" stroke="#63b8ff" d="M161.28,-9.5C168.56,-9.5 176.89,-9.5 185.49,-9.5"/>
<polygon fill="#63b8ff" stroke="#63b8ff" points="185.37,-13 195.37,-9.5 185.37,-6 185.37,-13"/>
</g>
</g>
</svg>
