<?xml version="1.0" encoding="UTF-8" standalone="no"?>
<!DOCTYPE svg PUBLIC "-//W3C//DTD SVG 1.1//EN"
 "http://www.w3.org/Graphics/SVG/1.1/DTD/svg11.dtd">
<!-- Generated by graphviz version 7.1.0 (20230121.1956)
 -->
<!-- Title: from_unixtime Pages: 1 -->
<svg width="251pt" height="157pt"
 viewBox="0.00 0.00 251.00 156.50" xmlns="http://www.w3.org/2000/svg" xmlns:xlink="http://www.w3.org/1999/xlink">
<g id="graph0" class="graph" transform="scale(1 1) rotate(0) translate(4 152.5)">
<title>from_unixtime</title>
<!-- Node1 -->
<g id="node1" class="node">
<title>Node1</title>
<g id="a_node1"><a xlink:title=" ">
<polygon fill="#999999" stroke="#666666" points="243,-78.5 165,-78.5 165,-59.5 243,-59.5 243,-78.5"/>
<text text-anchor="middle" x="204" y="-66.5" font-family="Helvetica,sans-Serif" font-size="10.00">from_unixtime</text>
</a>
</g>
</g>
<!-- Node2 -->
<g id="node2" class="node">
<title>Node2</title>
<g id="a_node2"><a xlink:href="../../d3/d1e/namespacedoris_1_1vectorized.html#ad7443e30eb70df8141e179d768eb9ac8" target="_top" xlink:title=" ">
<polygon fill="white" stroke="#666666" points="119,-148.5 10,-148.5 10,-107.5 119,-107.5 119,-148.5"/>
<text text-anchor="start" x="18" y="-136.5" font-family="Helvetica,sans-Serif" font-size="10.00">doris::vectorized::</text>
<text text-anchor="start" x="18" y="-125.5" font-family="Helvetica,sans-Serif" font-size="10.00">convert_column_with</text>
<text text-anchor="middle" x="64.5" y="-114.5" font-family="Helvetica,sans-Serif" font-size="10.00">_date_v2_data</text>
</a>
</g>
</g>
<!-- Node1&#45;&gt;Node2 -->
<g id="edge1" class="edge">
<title>Node1&#45;&gt;Node2</title>
<path fill="none" stroke="#63b8ff" d="M169.67,-83.3C153.05,-90.43 132.63,-99.2 114.28,-107.07"/>
<polygon fill="#63b8ff" stroke="#63b8ff" points="170.79,-86.63 178.59,-79.47 168.02,-80.2 170.79,-86.63"/>
</g>
<!-- Node3 -->
<g id="node3" class="node">
<title>Node3</title>
<g id="a_node3"><a xlink:href="../../d3/d1e/namespacedoris_1_1vectorized.html#afdc8bad1c166ce7ce9c95d05e915cd8e" target="_top" xlink:title=" ">
<polygon fill="white" stroke="#666666" points="119,-89.5 10,-89.5 10,-48.5 119,-48.5 119,-89.5"/>
<text text-anchor="start" x="18" y="-77.5" font-family="Helvetica,sans-Serif" font-size="10.00">doris::vectorized::</text>
<text text-anchor="start" x="18" y="-66.5" font-family="Helvetica,sans-Serif" font-size="10.00">convert_column_with</text>
<text text-anchor="middle" x="64.5" y="-55.5" font-family="Helvetica,sans-Serif" font-size="10.00">_datetime_v2_data</text>
</a>
</g>
</g>
<!-- Node1&#45;&gt;Node3 -->
<g id="edge2" class="edge">
<title>Node1&#45;&gt;Node3</title>
<path fill="none" stroke="#63b8ff" d="M153.45,-69C142.35,-69 130.53,-69 119.27,-69"/>
<polygon fill="#63b8ff" stroke="#63b8ff" points="153.19,-72.5 163.19,-69 153.19,-65.5 153.19,-72.5"/>
</g>
<!-- Node4 -->
<g id="node4" class="node">
<title>Node4</title>
<g id="a_node4"><a xlink:href="../../df/de3/structdoris_1_1vectorized_1_1_current_date_impl.html#a144c3f2d3c73cc8da7e3fc461c684462" target="_top" xlink:title=" ">
<polygon fill="white" stroke="#666666" points="129,-30 0,-30 0,0 129,0 129,-30"/>
<text text-anchor="start" x="8" y="-18" font-family="Helvetica,sans-Serif" font-size="10.00">doris::vectorized::</text>
<text text-anchor="middle" x="64.5" y="-7" font-family="Helvetica,sans-Serif" font-size="10.00">CurrentDateImpl::execute</text>
</a>
</g>
</g>
<!-- Node1&#45;&gt;Node4 -->
<g id="edge3" class="edge">
<title>Node1&#45;&gt;Node4</title>
<path fill="none" stroke="#63b8ff" d="M167.11,-54.9C148,-47.4 124.47,-38.16 104.87,-30.46"/>
<polygon fill="#63b8ff" stroke="#63b8ff" points="165.78,-58.14 176.37,-58.54 168.34,-51.63 165.78,-58.14"/>
</g>
</g>
</svg>
