<?xml version="1.0" encoding="UTF-8" standalone="no"?>
<!DOCTYPE svg PUBLIC "-//W3C//DTD SVG 1.1//EN"
 "http://www.w3.org/Graphics/SVG/1.1/DTD/svg11.dtd">
<!-- Generated by graphviz version 7.1.0 (20230121.1956)
 -->
<!-- Title: microsecond Pages: 1 -->
<svg width="574pt" height="247pt"
 viewBox="0.00 0.00 574.00 246.50" xmlns="http://www.w3.org/2000/svg" xmlns:xlink="http://www.w3.org/1999/xlink">
<g id="graph0" class="graph" transform="scale(1 1) rotate(0) translate(4 242.5)">
<title>microsecond</title>
<!-- Node1 -->
<g id="node1" class="node">
<title>Node1</title>
<g id="a_node1"><a xlink:title=" ">
<polygon fill="#999999" stroke="#666666" points="566,-123 494,-123 494,-104 566,-104 566,-123"/>
<text text-anchor="middle" x="530" y="-111" font-family="Helvetica,sans-Serif" font-size="10.00">microsecond</text>
</a>
</g>
</g>
<!-- Node2 -->
<g id="node2" class="node">
<title>Node2</title>
<g id="a_node2"><a xlink:href="../../d8/d34/classdoris_1_1vectorized_1_1_date_v2_value.html#a66f98ee2b018a3d06604f84d8b6a56fe" target="_top" xlink:title=" ">
<polygon fill="white" stroke="#666666" points="455.5,-238.5 324.5,-238.5 324.5,-208.5 455.5,-208.5 455.5,-238.5"/>
<text text-anchor="start" x="332.5" y="-226.5" font-family="Helvetica,sans-Serif" font-size="10.00">can_cast_to_date_without</text>
<text text-anchor="middle" x="390" y="-215.5" font-family="Helvetica,sans-Serif" font-size="10.00">_loss_accuracy</text>
</a>
</g>
</g>
<!-- Node1&#45;&gt;Node2 -->
<g id="edge1" class="edge">
<title>Node1&#45;&gt;Node2</title>
<path fill="none" stroke="#63b8ff" d="M517.3,-133.09C504.83,-152.44 483.4,-181.66 458,-199.5 453.35,-202.77 448.21,-205.63 442.9,-208.14"/>
<polygon fill="#63b8ff" stroke="#63b8ff" points="520.17,-135.11 522.48,-124.77 514.22,-131.41 520.17,-135.11"/>
</g>
<!-- Node3 -->
<g id="node3" class="node">
<title>Node3</title>
<g id="a_node3"><a xlink:href="../../d8/d34/classdoris_1_1vectorized_1_1_date_v2_value.html#a78448df70adb20d500f7ebfdb1838383" target="_top" xlink:title=" ">
<polygon fill="white" stroke="#666666" points="458,-190 322,-190 322,-171 458,-171 458,-190"/>
<text text-anchor="middle" x="390" y="-178" font-family="Helvetica,sans-Serif" font-size="10.00">check_range_and_set_time</text>
</a>
</g>
</g>
<!-- Node1&#45;&gt;Node3 -->
<g id="edge2" class="edge">
<title>Node1&#45;&gt;Node3</title>
<path fill="none" stroke="#63b8ff" d="M508.18,-130.18C494.57,-140.41 476.02,-153.12 458,-161.5 450.44,-165.02 442.08,-168.02 433.91,-170.53"/>
<polygon fill="#63b8ff" stroke="#63b8ff" points="510.17,-133.07 515.95,-124.19 505.89,-127.53 510.17,-133.07"/>
</g>
<!-- Node8 -->
<g id="node8" class="node">
<title>Node8</title>
<g id="a_node8"><a xlink:href="../../d4/dde/classdoris_1_1_date_time_value.html#a6ac6f1dc095307ee63f3bb2198f7744e" target="_top" xlink:title=" ">
<polygon fill="white" stroke="#666666" points="449.5,-152.5 330.5,-152.5 330.5,-122.5 449.5,-122.5 449.5,-152.5"/>
<text text-anchor="start" x="338.5" y="-140.5" font-family="Helvetica,sans-Serif" font-size="10.00">doris::DateTimeValue</text>
<text text-anchor="middle" x="390" y="-129.5" font-family="Helvetica,sans-Serif" font-size="10.00">::convert_from_date_v2</text>
</a>
</g>
</g>
<!-- Node1&#45;&gt;Node8 -->
<g id="edge7" class="edge">
<title>Node1&#45;&gt;Node8</title>
<path fill="none" stroke="#63b8ff" d="M482.77,-121.54C472.25,-123.37 460.94,-125.34 449.97,-127.24"/>
<polygon fill="#63b8ff" stroke="#63b8ff" points="483.08,-125.04 492.33,-119.88 481.88,-118.14 483.08,-125.04"/>
</g>
<!-- Node10 -->
<g id="node10" class="node">
<title>Node10</title>
<g id="a_node10"><a xlink:href="../../d3/d1e/namespacedoris_1_1vectorized.html#a38df8b87b13336307286cfc51f7c7bd5" target="_top" xlink:title=" ">
<polygon fill="white" stroke="#666666" points="445,-104.5 335,-104.5 335,-74.5 445,-74.5 445,-104.5"/>
<text text-anchor="start" x="343" y="-92.5" font-family="Helvetica,sans-Serif" font-size="10.00">doris::vectorized::</text>
<text text-anchor="middle" x="390" y="-81.5" font-family="Helvetica,sans-Serif" font-size="10.00">convert_to_orc_literal</text>
</a>
</g>
</g>
<!-- Node1&#45;&gt;Node10 -->
<g id="edge9" class="edge">
<title>Node1&#45;&gt;Node10</title>
<path fill="none" stroke="#63b8ff" d="M482.72,-105.45C470.76,-103.37 457.77,-101.11 445.44,-98.97"/>
<polygon fill="#63b8ff" stroke="#63b8ff" points="481.88,-108.86 492.33,-107.12 483.08,-101.96 481.88,-108.86"/>
</g>
<!-- Node11 -->
<g id="node11" class="node">
<title>Node11</title>
<g id="a_node11"><a xlink:href="../../d8/d34/classdoris_1_1vectorized_1_1_date_v2_value.html#aeb71d5b10b07bbaae94b16130766e077" target="_top" xlink:title=" ">
<polygon fill="white" stroke="#666666" points="427,-56 353,-56 353,-37 427,-37 427,-56"/>
<text text-anchor="middle" x="390" y="-44" font-family="Helvetica,sans-Serif" font-size="10.00">is_valid_date</text>
</a>
</g>
</g>
<!-- Node1&#45;&gt;Node11 -->
<g id="edge10" class="edge">
<title>Node1&#45;&gt;Node11</title>
<path fill="none" stroke="#63b8ff" d="M508.18,-96.82C494.57,-86.59 476.02,-73.88 458,-65.5 448.35,-61.01 437.42,-57.36 427.23,-54.51"/>
<polygon fill="#63b8ff" stroke="#63b8ff" points="505.89,-99.47 515.95,-102.81 510.17,-93.93 505.89,-99.47"/>
</g>
<!-- Node12 -->
<g id="node12" class="node">
<title>Node12</title>
<g id="a_node12"><a xlink:href="../../d8/d34/classdoris_1_1vectorized_1_1_date_v2_value.html#a291ecdef9bbb147fb2f9259ae790b69a" target="_top" xlink:title=" ">
<polygon fill="white" stroke="#666666" points="442,-19 338,-19 338,0 442,0 442,-19"/>
<text text-anchor="middle" x="390" y="-7" font-family="Helvetica,sans-Serif" font-size="10.00">set_datetime_uint64</text>
</a>
</g>
</g>
<!-- Node1&#45;&gt;Node12 -->
<g id="edge11" class="edge">
<title>Node1&#45;&gt;Node12</title>
<path fill="none" stroke="#63b8ff" d="M517.79,-93.78C505.58,-74.09 484.24,-44.38 458,-27.5 452.93,-24.24 447.29,-21.57 441.49,-19.38"/>
<polygon fill="#63b8ff" stroke="#63b8ff" points="514.71,-95.45 522.83,-102.25 520.72,-91.87 514.71,-95.45"/>
</g>
<!-- Node4 -->
<g id="node4" class="node">
<title>Node4</title>
<g id="a_node4"><a xlink:href="../../d8/d34/classdoris_1_1vectorized_1_1_date_v2_value.html#aef8b88a959e1bb4dca478132a4d96a36" target="_top" xlink:title=" ">
<polygon fill="white" stroke="#666666" points="269.5,-227 186.5,-227 186.5,-208 269.5,-208 269.5,-227"/>
<text text-anchor="middle" x="228" y="-215" font-family="Helvetica,sans-Serif" font-size="10.00">from_olap_date</text>
</a>
</g>
</g>
<!-- Node3&#45;&gt;Node4 -->
<g id="edge3" class="edge">
<title>Node3&#45;&gt;Node4</title>
<path fill="none" stroke="#63b8ff" d="M334.94,-193C313.64,-197.93 289.59,-203.49 269.79,-208.07"/>
<polygon fill="#63b8ff" stroke="#63b8ff" points="335.69,-196.42 344.65,-190.76 334.12,-189.6 335.69,-196.42"/>
</g>
<!-- Node6 -->
<g id="node6" class="node">
<title>Node6</title>
<g id="a_node6"><a xlink:href="../../d8/d34/classdoris_1_1vectorized_1_1_date_v2_value.html#ac4d303ac8fb3a6c4cd799e5fe2a75059" target="_top" xlink:title=" ">
<polygon fill="white" stroke="#666666" points="279,-190 177,-190 177,-171 279,-171 279,-190"/>
<text text-anchor="middle" x="228" y="-178" font-family="Helvetica,sans-Serif" font-size="10.00">from_olap_datetime</text>
</a>
</g>
</g>
<!-- Node3&#45;&gt;Node6 -->
<g id="edge5" class="edge">
<title>Node3&#45;&gt;Node6</title>
<path fill="none" stroke="#63b8ff" d="M310.23,-180.5C299.7,-180.5 289.15,-180.5 279.29,-180.5"/>
<polygon fill="#63b8ff" stroke="#63b8ff" points="310.1,-184 320.1,-180.5 310.1,-177 310.1,-184"/>
</g>
<!-- Node5 -->
<g id="node5" class="node">
<title>Node5</title>
<g id="a_node5"><a xlink:href="../../d8/d34/classdoris_1_1vectorized_1_1_date_v2_value.html#a7745a25c7f7deb31a028c0252a1ee3f2" target="_top" xlink:title=" ">
<polygon fill="white" stroke="#666666" points="125,-227 9,-227 9,-208 125,-208 125,-227"/>
<text text-anchor="middle" x="67" y="-215" font-family="Helvetica,sans-Serif" font-size="10.00">create_from_olap_date</text>
</a>
</g>
</g>
<!-- Node4&#45;&gt;Node5 -->
<g id="edge4" class="edge">
<title>Node4&#45;&gt;Node5</title>
<path fill="none" stroke="#63b8ff" d="M174.84,-217.5C158.98,-217.5 141.46,-217.5 125.29,-217.5"/>
<polygon fill="#63b8ff" stroke="#63b8ff" points="174.54,-221 184.54,-217.5 174.54,-214 174.54,-221"/>
</g>
<!-- Node7 -->
<g id="node7" class="node">
<title>Node7</title>
<g id="a_node7"><a xlink:href="../../d8/d34/classdoris_1_1vectorized_1_1_date_v2_value.html#aa88b42b4e34e522a7e0b8805ea2b150d" target="_top" xlink:title=" ">
<polygon fill="white" stroke="#666666" points="134,-190 0,-190 0,-171 134,-171 134,-190"/>
<text text-anchor="middle" x="67" y="-178" font-family="Helvetica,sans-Serif" font-size="10.00">create_from_olap_datetime</text>
</a>
</g>
</g>
<!-- Node6&#45;&gt;Node7 -->
<g id="edge6" class="edge">
<title>Node6&#45;&gt;Node7</title>
<path fill="none" stroke="#63b8ff" d="M165.39,-180.5C155.2,-180.5 144.59,-180.5 134.28,-180.5"/>
<polygon fill="#63b8ff" stroke="#63b8ff" points="165.18,-184 175.18,-180.5 165.18,-177 165.18,-184"/>
</g>
<!-- Node9 -->
<g id="node9" class="node">
<title>Node9</title>
<g id="a_node9"><a xlink:href="../../de/dbe/classdoris_1_1_mysql_row_buffer.html#a14d38e860db53e405f511c0394b2df22" target="_top" xlink:title=" ">
<polygon fill="white" stroke="#666666" points="286,-152.5 170,-152.5 170,-122.5 286,-122.5 286,-152.5"/>
<text text-anchor="start" x="178" y="-140.5" font-family="Helvetica,sans-Serif" font-size="10.00">doris::MysqlRowBuffer</text>
<text text-anchor="middle" x="228" y="-129.5" font-family="Helvetica,sans-Serif" font-size="10.00">::push_vec_datetime</text>
</a>
</g>
</g>
<!-- Node8&#45;&gt;Node9 -->
<g id="edge8" class="edge">
<title>Node8&#45;&gt;Node9</title>
<path fill="none" stroke="#63b8ff" d="M319.06,-137.5C308.13,-137.5 296.94,-137.5 286.33,-137.5"/>
<polygon fill="#63b8ff" stroke="#63b8ff" points="318.82,-141 328.82,-137.5 318.82,-134 318.82,-141"/>
</g>
</g>
</svg>
