<?xml version="1.0" encoding="UTF-8" standalone="no"?>
<!DOCTYPE svg PUBLIC "-//W3C//DTD SVG 1.1//EN"
 "http://www.w3.org/Graphics/SVG/1.1/DTD/svg11.dtd">
<!-- Generated by graphviz version 7.1.0 (20230121.1956)
 -->
<!-- Title: InListPredicateBase&lt; Type, PT &gt; Pages: 1 -->
<svg width="260pt" height="203pt"
 viewBox="0.00 0.00 260.00 203.00" xmlns="http://www.w3.org/2000/svg" xmlns:xlink="http://www.w3.org/1999/xlink">
<g id="graph0" class="graph" transform="scale(1 1) rotate(0) translate(4 199)">
<title>InListPredicateBase&lt; Type, PT &gt;</title>
<!-- Node1 -->
<g id="node1" class="node">
<title>Node1</title>
<g id="a_node1"><a xlink:title=" ">
<polygon fill="#999999" stroke="#666666" points="140,-30 36,-30 36,0 140,0 140,-30"/>
<text text-anchor="start" x="44" y="-18" font-family="Helvetica,sans-Serif" font-size="10.00">InListPredicateBase</text>
<text text-anchor="middle" x="88" y="-7" font-family="Helvetica,sans-Serif" font-size="10.00">&lt; Type, PT &gt;</text>
</a>
</g>
</g>
<!-- Node2 -->
<g id="node2" class="node">
<title>Node2</title>
<g id="a_node2"><a xlink:href="../../db/d97/classdoris_1_1_column_predicate.html" target="_top" xlink:title=" ">
<polygon fill="white" stroke="#666666" points="92,-112.5 0,-112.5 0,-93.5 92,-93.5 92,-112.5"/>
<text text-anchor="middle" x="46" y="-100.5" font-family="Helvetica,sans-Serif" font-size="10.00">ColumnPredicate</text>
</a>
</g>
</g>
<!-- Node2&#45;&gt;Node1 -->
<g id="edge1" class="edge">
<title>Node2&#45;&gt;Node1</title>
<path fill="none" stroke="#63b8ff" d="M55.33,-82.89C63.09,-67.02 73.95,-44.78 80.98,-30.38"/>
<polygon fill="#63b8ff" stroke="#63b8ff" points="52.24,-81.24 51,-91.76 58.53,-84.31 52.24,-81.24"/>
</g>
<!-- Node3 -->
<g id="node3" class="node">
<title>Node3</title>
<g id="a_node3"><a xlink:href="../../db/dd0/structdoris_1_1_predicate_primitive_type_traits.html" target="_top" xlink:title=" ">
<polygon fill="white" stroke="#666666" points="252,-118 110,-118 110,-88 252,-88 252,-118"/>
<text text-anchor="start" x="118" y="-106" font-family="Helvetica,sans-Serif" font-size="10.00">PredicatePrimitiveTypeTraits</text>
<text text-anchor="middle" x="181" y="-95" font-family="Helvetica,sans-Serif" font-size="10.00">&lt; Type &gt;</text>
</a>
</g>
</g>
<!-- Node3&#45;&gt;Node1 -->
<g id="edge2" class="edge">
<title>Node3&#45;&gt;Node1</title>
<path fill="none" stroke="#9a32cd" stroke-dasharray="5,2" d="M157.34,-80.12C140.39,-64.45 118.06,-43.8 103.38,-30.22"/>
<polygon fill="#9a32cd" stroke="#9a32cd" points="154.81,-82.55 164.53,-86.77 159.57,-77.41 154.81,-82.55"/>
<text text-anchor="middle" x="173" y="-62" font-family="Helvetica,sans-Serif" font-size="10.00"> _max_value</text>
<text text-anchor="middle" x="173" y="-51" font-family="Helvetica,sans-Serif" font-size="10.00">_min_value</text>
</g>
<!-- Node4 -->
<g id="node4" class="node">
<title>Node4</title>
<g id="a_node4"><a xlink:href="../../db/dd0/structdoris_1_1_predicate_primitive_type_traits.html" target="_top" xlink:title=" ">
<polygon fill="white" stroke="#666666" points="252,-195 110,-195 110,-165 252,-165 252,-195"/>
<text text-anchor="start" x="118" y="-183" font-family="Helvetica,sans-Serif" font-size="10.00">PredicatePrimitiveTypeTraits</text>
<text text-anchor="middle" x="181" y="-172" font-family="Helvetica,sans-Serif" font-size="10.00">&lt; type &gt;</text>
</a>
</g>
</g>
<!-- Node4&#45;&gt;Node3 -->
<g id="edge3" class="edge">
<title>Node4&#45;&gt;Node3</title>
<path fill="none" stroke="orange" stroke-dasharray="5,2" d="M181,-153.23C181,-141.58 181,-128.26 181,-118.42"/>
<polygon fill="orange" stroke="orange" points="177.5,-153.03 181,-163.03 184.5,-153.03 177.5,-153.03"/>
<text text-anchor="middle" x="202.5" y="-139" font-family="Helvetica,sans-Serif" font-size="10.00"> &lt; Type &gt;</text>
</g>
</g>
</svg>
