<?xml version="1.0" encoding="UTF-8" standalone="no"?>
<!DOCTYPE svg PUBLIC "-//W3C//DTD SVG 1.1//EN"
 "http://www.w3.org/Graphics/SVG/1.1/DTD/svg11.dtd">
<!-- Generated by graphviz version 7.1.0 (20230121.1956)
 -->
<!-- Title: get_permutation Pages: 1 -->
<!--zoomable 285 -->
<svg id="main" version="1.1" xmlns="http://www.w3.org/2000/svg" xmlns:xlink="http://www.w3.org/1999/xlink" xml:space="preserve" onload="init(evt)">
<style type="text/css"><![CDATA[
.edge:hover path { stroke: red; }
.edge:hover polygon { stroke: red; fill: red; }
]]></style>
<script type="text/javascript"><![CDATA[
var edges = document.getElementsByTagName('g');
if (edges && edges.length) {
  for (var i=0;i<edges.length;i++) {
    if (edges[i].id.substr(0,4)=='edge') {
      edges[i].setAttribute('class','edge');
    }
  }
}
]]></script>
        <defs>
                <circle id="rim" cx="0" cy="0" r="7"/>
                <circle id="rim2" cx="0" cy="0" r="3.5"/>
                <g id="zoomPlus">
                        <use xlink:href="#rim" fill="#404040">
                                <set attributeName="fill" to="#808080" begin="zoomplus.mouseover" end="zoomplus.mouseout"/>
                        </use>
                        <path d="M-4,0h8M0,-4v8" fill="none" stroke="white" stroke-width="1.5" pointer-events="none"/>
                </g>
                <g id="zoomMin">
                        <use xlink:href="#rim" fill="#404040">
                                <set attributeName="fill" to="#808080" begin="zoomminus.mouseover" end="zoomminus.mouseout"/>
                        </use>
                        <path d="M-4,0h8" fill="none" stroke="white" stroke-width="1.5" pointer-events="none"/>
                </g>
                <g id="dirArrow">
                        <path fill="none" stroke="white" stroke-width="1.5" d="M0,-3.0v7 M-2.5,-0.5L0,-3.0L2.5,-0.5"/>
                </g>
               <g id="resetDef">
                       <use xlink:href="#rim2" fill="#404040">
                               <set attributeName="fill" to="#808080" begin="reset.mouseover" end="reset.mouseout"/>
                       </use>
               </g>
        </defs>

<script type="text/javascript">
var viewWidth = 943;
var viewHeight = 285;
var sectionId = 'dynsection-39';
</script>
<script xlink:href="../../svgpan.js"/>
<svg id="graph" class="graph">
<g id="viewport">
<title>get_permutation</title>
<!-- Node1 -->
<g id="node1" class="node">
<title>Node1</title>
<g id="a_node1"><a xlink:title=" ">
<polygon fill="#999999" stroke="#666666" points="86,-175 0,-175 0,-156 86,-156 86,-175"/>
<text text-anchor="middle" x="43" y="-163" font-family="Helvetica,sans-Serif" font-size="10.00">get_permutation</text>
</a>
</g>
</g>
<!-- Node2 -->
<g id="node2" class="node">
<title>Node2</title>
<g id="a_node2"><a xlink:href="../../df/db2/classdoris_1_1vectorized_1_1_p_o_d_array.html#ad69bd11391be1a1dba5c8202259664f8" target="_top" xlink:title=" ">
<polygon fill="white" stroke="#666666" points="227.5,-228.5 132.5,-228.5 132.5,-198.5 227.5,-198.5 227.5,-228.5"/>
<text text-anchor="start" x="140.5" y="-216.5" font-family="Helvetica,sans-Serif" font-size="10.00">doris::vectorized::</text>
<text text-anchor="middle" x="180" y="-205.5" font-family="Helvetica,sans-Serif" font-size="10.00">PODArray::begin</text>
</a>
</g>
</g>
<!-- Node1&#45;&gt;Node2 -->
<g id="edge1" class="edge">
<title>Node1&#45;&gt;Node2</title>
<path fill="none" stroke="#63b8ff" d="M71.97,-175.45C87.27,-180.88 106.74,-187.81 124.87,-194.25"/>
<polygon fill="#63b8ff" stroke="#63b8ff" points="123.62,-197.53 134.22,-197.58 125.97,-190.93 123.62,-197.53"/>
</g>
<!-- Node4 -->
<g id="node4" class="node">
<title>Node4</title>
<g id="a_node4"><a xlink:href="../../df/db2/classdoris_1_1vectorized_1_1_p_o_d_array.html#adc1e16b293a89a9ccc9541058b5ca560" target="_top" xlink:title=" ">
<polygon fill="white" stroke="#666666" points="227.5,-276.5 132.5,-276.5 132.5,-246.5 227.5,-246.5 227.5,-276.5"/>
<text text-anchor="start" x="140.5" y="-264.5" font-family="Helvetica,sans-Serif" font-size="10.00">doris::vectorized::</text>
<text text-anchor="middle" x="180" y="-253.5" font-family="Helvetica,sans-Serif" font-size="10.00">PODArray::data</text>
</a>
</g>
</g>
<!-- Node1&#45;&gt;Node4 -->
<g id="edge3" class="edge">
<title>Node1&#45;&gt;Node4</title>
<path fill="none" stroke="#63b8ff" d="M52.49,-175.27C65.97,-190.3 93.64,-219.24 122,-237.5 123.83,-238.68 125.72,-239.82 127.66,-240.92"/>
<polygon fill="#63b8ff" stroke="#63b8ff" points="125.82,-243.9 136.3,-245.42 129.05,-237.7 125.82,-243.9"/>
</g>
<!-- Node5 -->
<g id="node5" class="node">
<title>Node5</title>
<g id="a_node5"><a xlink:href="../../df/db2/classdoris_1_1vectorized_1_1_p_o_d_array.html#acad38d52497a975bfb6f2f6acd76631f" target="_top" xlink:title=" ">
<polygon fill="white" stroke="#666666" points="227.5,-180.5 132.5,-180.5 132.5,-150.5 227.5,-150.5 227.5,-180.5"/>
<text text-anchor="start" x="140.5" y="-168.5" font-family="Helvetica,sans-Serif" font-size="10.00">doris::vectorized::</text>
<text text-anchor="middle" x="180" y="-157.5" font-family="Helvetica,sans-Serif" font-size="10.00">PODArray::end</text>
</a>
</g>
</g>
<!-- Node1&#45;&gt;Node5 -->
<g id="edge5" class="edge">
<title>Node1&#45;&gt;Node5</title>
<path fill="none" stroke="#63b8ff" d="M86.34,-165.5C97.25,-165.5 109.17,-165.5 120.73,-165.5"/>
<polygon fill="#63b8ff" stroke="#63b8ff" points="120.6,-169 130.6,-165.5 120.6,-162 120.6,-169"/>
</g>
<!-- Node7 -->
<g id="node7" class="node">
<title>Node7</title>
<g id="a_node7"><a xlink:href="../../d8/d58/nan__utils_8h.html#af73fab0a6b346e88fe500b130a8d90b3" target="_top" xlink:title="To be sure, that this function is zero&#45;cost for non&#45;floating point types.">
<polygon fill="white" stroke="#666666" points="202.5,-132 157.5,-132 157.5,-113 202.5,-113 202.5,-132"/>
<text text-anchor="middle" x="180" y="-120" font-family="Helvetica,sans-Serif" font-size="10.00">is_nan</text>
</a>
</g>
</g>
<!-- Node1&#45;&gt;Node7 -->
<g id="edge7" class="edge">
<title>Node1&#45;&gt;Node7</title>
<path fill="none" stroke="#63b8ff" d="M75.31,-155.53C96.57,-148.76 124.63,-139.82 146.2,-132.95"/>
<polygon fill="#63b8ff" stroke="#63b8ff" points="147.21,-136.3 155.68,-129.93 145.09,-129.63 147.21,-136.3"/>
</g>
<!-- Node8 -->
<g id="node8" class="node">
<title>Node8</title>
<g id="a_node8"><a xlink:href="../../d5/d9d/classdoris_1_1vectorized_1_1_p_o_d_array_base.html#a0c895d2dd381326acf54873d9d3a5aa5" target="_top" xlink:title=" ">
<polygon fill="white" stroke="#666666" points="238,-94.5 122,-94.5 122,-64.5 238,-64.5 238,-94.5"/>
<text text-anchor="start" x="130" y="-82.5" font-family="Helvetica,sans-Serif" font-size="10.00">doris::vectorized::</text>
<text text-anchor="middle" x="180" y="-71.5" font-family="Helvetica,sans-Serif" font-size="10.00">PODArrayBase::resize</text>
</a>
</g>
</g>
<!-- Node1&#45;&gt;Node8 -->
<g id="edge8" class="edge">
<title>Node1&#45;&gt;Node8</title>
<path fill="none" stroke="#63b8ff" d="M54.42,-155.67C68.76,-142.51 95.81,-119.02 122,-103.5 124.02,-102.3 126.11,-101.13 128.25,-100"/>
<polygon fill="#63b8ff" stroke="#63b8ff" points="129.69,-103.19 137.1,-95.61 126.59,-96.91 129.69,-103.19"/>
</g>
<!-- Node3 -->
<g id="node3" class="node">
<title>Node3</title>
<g id="a_node3"><a xlink:href="../../df/db2/classdoris_1_1vectorized_1_1_p_o_d_array.html#a8e612adde07f46d3398ac6962d676a66" target="_top" xlink:title=" ">
<polygon fill="white" stroke="#666666" points="382.5,-252.5 287.5,-252.5 287.5,-222.5 382.5,-222.5 382.5,-252.5"/>
<text text-anchor="start" x="295.5" y="-240.5" font-family="Helvetica,sans-Serif" font-size="10.00">doris::vectorized::</text>
<text text-anchor="middle" x="335" y="-229.5" font-family="Helvetica,sans-Serif" font-size="10.00">PODArray::t_start</text>
</a>
</g>
</g>
<!-- Node2&#45;&gt;Node3 -->
<g id="edge2" class="edge">
<title>Node2&#45;&gt;Node3</title>
<path fill="none" stroke="#63b8ff" d="M227.74,-220.83C242.87,-223.21 259.84,-225.87 275.71,-228.36"/>
<polygon fill="#63b8ff" stroke="#63b8ff" points="275.11,-231.8 285.53,-229.9 276.19,-224.89 275.11,-231.8"/>
</g>
<!-- Node4&#45;&gt;Node3 -->
<g id="edge4" class="edge">
<title>Node4&#45;&gt;Node3</title>
<path fill="none" stroke="#63b8ff" d="M227.74,-254.17C242.87,-251.79 259.84,-249.13 275.71,-246.64"/>
<polygon fill="#63b8ff" stroke="#63b8ff" points="276.19,-250.11 285.53,-245.1 275.11,-243.2 276.19,-250.11"/>
</g>
<!-- Node6 -->
<g id="node6" class="node">
<title>Node6</title>
<g id="a_node6"><a xlink:href="../../df/db2/classdoris_1_1vectorized_1_1_p_o_d_array.html#a23330edc945b54dbc26dbfde57ae3be7" target="_top" xlink:title=" ">
<polygon fill="white" stroke="#666666" points="382.5,-180.5 287.5,-180.5 287.5,-150.5 382.5,-150.5 382.5,-180.5"/>
<text text-anchor="start" x="295.5" y="-168.5" font-family="Helvetica,sans-Serif" font-size="10.00">doris::vectorized::</text>
<text text-anchor="middle" x="335" y="-157.5" font-family="Helvetica,sans-Serif" font-size="10.00">PODArray::t_end</text>
</a>
</g>
</g>
<!-- Node5&#45;&gt;Node6 -->
<g id="edge6" class="edge">
<title>Node5&#45;&gt;Node6</title>
<path fill="none" stroke="#63b8ff" d="M227.74,-165.5C242.87,-165.5 259.84,-165.5 275.71,-165.5"/>
<polygon fill="#63b8ff" stroke="#63b8ff" points="275.51,-169 285.51,-165.5 275.51,-162 275.51,-169"/>
</g>
<!-- Node9 -->
<g id="node9" class="node">
<title>Node9</title>
<g id="a_node9"><a xlink:href="../../d5/d9d/classdoris_1_1vectorized_1_1_p_o_d_array_base.html#aa5a2bd4e24261d8f10f2f4e5d82fccf6" target="_top" xlink:title=" ">
<polygon fill="white" stroke="#666666" points="396,-113.5 274,-113.5 274,-83.5 396,-83.5 396,-113.5"/>
<text text-anchor="start" x="282" y="-101.5" font-family="Helvetica,sans-Serif" font-size="10.00">doris::vectorized::</text>
<text text-anchor="middle" x="335" y="-90.5" font-family="Helvetica,sans-Serif" font-size="10.00">PODArrayBase::reserve</text>
</a>
</g>
</g>
<!-- Node8&#45;&gt;Node9 -->
<g id="edge9" class="edge">
<title>Node8&#45;&gt;Node9</title>
<path fill="none" stroke="#63b8ff" d="M238.41,-86.63C246.24,-87.6 254.37,-88.61 262.42,-89.61"/>
<polygon fill="#63b8ff" stroke="#63b8ff" points="261.86,-93.07 272.21,-90.83 262.72,-86.12 261.86,-93.07"/>
</g>
<!-- Node19 -->
<g id="node19" class="node">
<title>Node19</title>
<g id="a_node19"><a xlink:href="../../d5/d9d/classdoris_1_1vectorized_1_1_p_o_d_array_base.html#afa97d17a5fedae2da8191c2c52aa6025" target="_top" xlink:title=" ">
<polygon fill="white" stroke="#666666" points="393,-41 277,-41 277,0 393,0 393,-41"/>
<text text-anchor="start" x="285" y="-29" font-family="Helvetica,sans-Serif" font-size="10.00">doris::vectorized::</text>
<text text-anchor="start" x="285" y="-18" font-family="Helvetica,sans-Serif" font-size="10.00">PODArrayBase::resize</text>
<text text-anchor="middle" x="335" y="-7" font-family="Helvetica,sans-Serif" font-size="10.00">_assume_reserved</text>
</a>
</g>
</g>
<!-- Node8&#45;&gt;Node19 -->
<g id="edge19" class="edge">
<title>Node8&#45;&gt;Node19</title>
<path fill="none" stroke="#63b8ff" d="M220.8,-64.15C235.54,-58.47 252.67,-51.86 269.07,-45.54"/>
<polygon fill="#63b8ff" stroke="#63b8ff" points="270.23,-48.84 278.3,-41.98 267.71,-42.31 270.23,-48.84"/>
</g>
<!-- Node10 -->
<g id="node10" class="node">
<title>Node10</title>
<g id="a_node10"><a xlink:href="../../d5/d9d/classdoris_1_1vectorized_1_1_p_o_d_array_base.html#a7223528283cd4e5872e0cc716bf9bd9d" target="_top" xlink:title=" ">
<polygon fill="white" stroke="#666666" points="560.5,-113.5 433.5,-113.5 433.5,-83.5 560.5,-83.5 560.5,-113.5"/>
<text text-anchor="start" x="441.5" y="-101.5" font-family="Helvetica,sans-Serif" font-size="10.00">doris::vectorized::</text>
<text text-anchor="middle" x="497" y="-90.5" font-family="Helvetica,sans-Serif" font-size="10.00">PODArrayBase::capacity</text>
</a>
</g>
</g>
<!-- Node9&#45;&gt;Node10 -->
<g id="edge10" class="edge">
<title>Node9&#45;&gt;Node10</title>
<path fill="none" stroke="#63b8ff" d="M396.49,-98.5C404.7,-98.5 413.21,-98.5 421.63,-98.5"/>
<polygon fill="#63b8ff" stroke="#63b8ff" points="421.51,-102 431.51,-98.5 421.51,-95 421.51,-102"/>
</g>
<!-- Node11 -->
<g id="node11" class="node">
<title>Node11</title>
<g id="a_node11"><a xlink:href="../../d5/d9d/classdoris_1_1vectorized_1_1_p_o_d_array_base.html#aa0ed9240c71cb15ddd75f2ebfae30c69" target="_top" xlink:title="Minimum amount of memory to allocate for num_elements, including padding.">
<polygon fill="white" stroke="#666666" points="562,-65 432,-65 432,-24 562,-24 562,-65"/>
<text text-anchor="start" x="440" y="-53" font-family="Helvetica,sans-Serif" font-size="10.00">doris::vectorized::</text>
<text text-anchor="start" x="440" y="-42" font-family="Helvetica,sans-Serif" font-size="10.00">PODArrayBase::minimum</text>
<text text-anchor="middle" x="497" y="-31" font-family="Helvetica,sans-Serif" font-size="10.00">_memory_for_elements</text>
</a>
</g>
</g>
<!-- Node9&#45;&gt;Node11 -->
<g id="edge11" class="edge">
<title>Node9&#45;&gt;Node11</title>
<path fill="none" stroke="#63b8ff" d="M381.85,-83.03C394.8,-78.65 409.22,-73.79 423.34,-69.02"/>
<polygon fill="#63b8ff" stroke="#63b8ff" points="424.25,-72.41 432.61,-65.9 422.01,-65.78 424.25,-72.41"/>
</g>
<!-- Node13 -->
<g id="node13" class="node">
<title>Node13</title>
<g id="a_node13"><a xlink:href="../../d5/d9d/classdoris_1_1vectorized_1_1_p_o_d_array_base.html#a9001e08f14a42d556978c322450da2f7" target="_top" xlink:title=" ">
<polygon fill="white" stroke="#666666" points="556.5,-209.5 437.5,-209.5 437.5,-179.5 556.5,-179.5 556.5,-209.5"/>
<text text-anchor="start" x="445.5" y="-197.5" font-family="Helvetica,sans-Serif" font-size="10.00">doris::vectorized::</text>
<text text-anchor="middle" x="497" y="-186.5" font-family="Helvetica,sans-Serif" font-size="10.00">PODArrayBase::realloc</text>
</a>
</g>
</g>
<!-- Node9&#45;&gt;Node13 -->
<g id="edge13" class="edge">
<title>Node9&#45;&gt;Node13</title>
<path fill="none" stroke="#63b8ff" d="M358.16,-113.93C369.58,-122 383.66,-132.12 396,-141.5 412.36,-153.93 414.15,-160.32 432,-170.5 434.3,-171.81 436.69,-173.08 439.14,-174.3"/>
<polygon fill="#63b8ff" stroke="#63b8ff" points="437.48,-177.39 448.02,-178.4 440.41,-171.04 437.48,-177.39"/>
</g>
<!-- Node18 -->
<g id="node18" class="node">
<title>Node18</title>
<g id="a_node18"><a xlink:href="../../dc/da2/bit__helpers_8h.html#ae2948c0075b86f9ca20fc36610b4aca8" target="_top" xlink:title=" ">
<polygon fill="white" stroke="#666666" points="554.5,-161.5 439.5,-161.5 439.5,-131.5 554.5,-131.5 554.5,-161.5"/>
<text text-anchor="start" x="447.5" y="-149.5" font-family="Helvetica,sans-Serif" font-size="10.00">round_up_to_power_of</text>
<text text-anchor="middle" x="497" y="-138.5" font-family="Helvetica,sans-Serif" font-size="10.00">_two_or_zero</text>
</a>
</g>
</g>
<!-- Node9&#45;&gt;Node18 -->
<g id="edge18" class="edge">
<title>Node9&#45;&gt;Node18</title>
<path fill="none" stroke="#63b8ff" d="M387.51,-113.95C402.21,-118.36 418.39,-123.22 433.66,-127.8"/>
<polygon fill="#63b8ff" stroke="#63b8ff" points="432.56,-131.12 443.14,-130.64 434.57,-124.42 432.56,-131.12"/>
</g>
<!-- Node12 -->
<g id="node12" class="node">
<title>Node12</title>
<g id="a_node12"><a xlink:href="../../d5/d9d/classdoris_1_1vectorized_1_1_p_o_d_array_base.html#a4fd871ea772d3f22957ed8dd6a0aebb6" target="_top" xlink:title="Does not include pad_right.">
<polygon fill="white" stroke="#666666" points="743,-35.5 611,-35.5 611,-5.5 743,-5.5 743,-35.5"/>
<text text-anchor="start" x="619" y="-23.5" font-family="Helvetica,sans-Serif" font-size="10.00">doris::vectorized::</text>
<text text-anchor="middle" x="677" y="-12.5" font-family="Helvetica,sans-Serif" font-size="10.00">PODArrayBase::byte_size</text>
</a>
</g>
</g>
<!-- Node11&#45;&gt;Node12 -->
<g id="edge12" class="edge">
<title>Node11&#45;&gt;Node12</title>
<path fill="none" stroke="#63b8ff" d="M562.26,-35.84C574.31,-34.21 587.01,-32.5 599.39,-30.83"/>
<polygon fill="#63b8ff" stroke="#63b8ff" points="599.69,-34.32 609.14,-29.52 598.76,-27.38 599.69,-34.32"/>
</g>
<!-- Node14 -->
<g id="node14" class="node">
<title>Node14</title>
<g id="a_node14"><a xlink:href="../../d5/d9d/classdoris_1_1vectorized_1_1_p_o_d_array_base.html#a0e716713ea1a6de012c8830d8ef03ca9" target="_top" xlink:title=" ">
<polygon fill="white" stroke="#666666" points="732,-209.5 622,-209.5 622,-179.5 732,-179.5 732,-209.5"/>
<text text-anchor="start" x="630" y="-197.5" font-family="Helvetica,sans-Serif" font-size="10.00">doris::vectorized::</text>
<text text-anchor="middle" x="677" y="-186.5" font-family="Helvetica,sans-Serif" font-size="10.00">PODArrayBase::alloc</text>
</a>
</g>
</g>
<!-- Node13&#45;&gt;Node14 -->
<g id="edge14" class="edge">
<title>Node13&#45;&gt;Node14</title>
<path fill="none" stroke="#63b8ff" d="M556.78,-194.5C573.89,-194.5 592.69,-194.5 610.21,-194.5"/>
<polygon fill="#63b8ff" stroke="#63b8ff" points="609.99,-198 619.99,-194.5 609.99,-191 609.99,-198"/>
</g>
<!-- Node15 -->
<g id="node15" class="node">
<title>Node15</title>
<g id="a_node15"><a xlink:href="../../d5/d9d/classdoris_1_1vectorized_1_1_p_o_d_array_base.html#acd47db4f184c2a88c3c8eee3406d13db" target="_top" xlink:title="This method is safe to use only for information about memory usage.">
<polygon fill="white" stroke="#666666" points="756,-161.5 598,-161.5 598,-131.5 756,-131.5 756,-161.5"/>
<text text-anchor="start" x="606" y="-149.5" font-family="Helvetica,sans-Serif" font-size="10.00">doris::vectorized::</text>
<text text-anchor="middle" x="677" y="-138.5" font-family="Helvetica,sans-Serif" font-size="10.00">PODArrayBase::allocated_bytes</text>
</a>
</g>
</g>
<!-- Node13&#45;&gt;Node15 -->
<g id="edge15" class="edge">
<title>Node13&#45;&gt;Node15</title>
<path fill="none" stroke="#63b8ff" d="M555.3,-179.05C572.13,-174.51 590.71,-169.5 608.13,-164.8"/>
<polygon fill="#63b8ff" stroke="#63b8ff" points="608.6,-168.3 617.35,-162.32 606.78,-161.54 608.6,-168.3"/>
</g>
<!-- Node16 -->
<g id="node16" class="node">
<title>Node16</title>
<g id="a_node16"><a xlink:href="../../d5/d9d/classdoris_1_1vectorized_1_1_p_o_d_array_base.html#a41d7b4a7908cc8905970d3d601d8634c" target="_top" xlink:title=" ">
<polygon fill="white" stroke="#666666" points="742.5,-257.5 611.5,-257.5 611.5,-227.5 742.5,-227.5 742.5,-257.5"/>
<text text-anchor="start" x="619.5" y="-245.5" font-family="Helvetica,sans-Serif" font-size="10.00">doris::vectorized::</text>
<text text-anchor="middle" x="677" y="-234.5" font-family="Helvetica,sans-Serif" font-size="10.00">PODArrayBase::unprotect</text>
</a>
</g>
</g>
<!-- Node13&#45;&gt;Node16 -->
<g id="edge16" class="edge">
<title>Node13&#45;&gt;Node16</title>
<path fill="none" stroke="#63b8ff" d="M555.3,-209.95C572.13,-214.49 590.71,-219.5 608.13,-224.2"/>
<polygon fill="#63b8ff" stroke="#63b8ff" points="606.78,-227.46 617.35,-226.68 608.6,-220.7 606.78,-227.46"/>
</g>
<!-- Node17 -->
<g id="node17" class="node">
<title>Node17</title>
<g id="a_node17"><a xlink:href="../../d5/d9d/classdoris_1_1vectorized_1_1_p_o_d_array_base.html#aabb38ffefd0c3a618756a9150e27a97a" target="_top" xlink:title=" ">
<polygon fill="white" stroke="#666666" points="935,-257.5 792,-257.5 792,-227.5 935,-227.5 935,-257.5"/>
<text text-anchor="start" x="800" y="-245.5" font-family="Helvetica,sans-Serif" font-size="10.00">doris::vectorized::</text>
<text text-anchor="middle" x="863.5" y="-234.5" font-family="Helvetica,sans-Serif" font-size="10.00">PODArrayBase::protect_impl</text>
</a>
</g>
</g>
<!-- Node16&#45;&gt;Node17 -->
<g id="edge17" class="edge">
<title>Node16&#45;&gt;Node17</title>
<path fill="none" stroke="#63b8ff" d="M742.79,-242.5C754.87,-242.5 767.65,-242.5 780.17,-242.5"/>
<polygon fill="#63b8ff" stroke="#63b8ff" points="780.07,-246 790.07,-242.5 780.07,-239 780.07,-246"/>
</g>
<!-- Node19&#45;&gt;Node12 -->
<g id="edge20" class="edge">
<title>Node19&#45;&gt;Node12</title>
<path fill="none" stroke="#63b8ff" d="M393.34,-16.33C406.06,-15.57 419.48,-14.89 432,-14.5 489.75,-12.7 504.24,-12.98 562,-14.5 574.06,-14.82 586.83,-15.32 599.29,-15.91"/>
<polygon fill="#63b8ff" stroke="#63b8ff" points="598.94,-19.4 609.1,-16.39 599.29,-12.4 598.94,-19.4"/>
</g>
</g>
</svg>
        <g id="navigator" transform="translate(0 0)" fill="#404254">
                <rect fill="#f2f5e9" fill-opacity="0.5" stroke="#606060" stroke-width=".5" x="0" y="0" width="60" height="60"/>
                <use id="zoomplus" xlink:href="#zoomPlus" x="17" y="9" onmousedown="handleZoom(evt,'in')"/>
                <use id="zoomminus" xlink:href="#zoomMin" x="42" y="9" onmousedown="handleZoom(evt,'out')"/>
                <use id="reset" xlink:href="#resetDef" x="30" y="36" onmousedown="handleReset()"/>
                <g id="arrowUp" xlink:href="#dirArrow" transform="translate(30 24)" onmousedown="handlePan(0,-1)">
                  <use xlink:href="#rim" fill="#404040">
                        <set attributeName="fill" to="#808080" begin="arrowUp.mouseover" end="arrowUp.mouseout"/>
                  </use>
                  <path fill="none" stroke="white" stroke-width="1.5" d="M0,-3.0v7 M-2.5,-0.5L0,-3.0L2.5,-0.5"/>
                </g>
                <g id="arrowRight" xlink:href="#dirArrow" transform="rotate(90) translate(36 -43)" onmousedown="handlePan(1,0)">
                  <use xlink:href="#rim" fill="#404040">
                        <set attributeName="fill" to="#808080" begin="arrowRight.mouseover" end="arrowRight.mouseout"/>
                  </use>
                  <path fill="none" stroke="white" stroke-width="1.5" d="M0,-3.0v7 M-2.5,-0.5L0,-3.0L2.5,-0.5"/>
                </g>
                <g id="arrowDown" xlink:href="#dirArrow" transform="rotate(180) translate(-30 -48)" onmousedown="handlePan(0,1)">
                  <use xlink:href="#rim" fill="#404040">
                        <set attributeName="fill" to="#808080" begin="arrowDown.mouseover" end="arrowDown.mouseout"/>
                  </use>
                  <path fill="none" stroke="white" stroke-width="1.5" d="M0,-3.0v7 M-2.5,-0.5L0,-3.0L2.5,-0.5"/>
                </g>
                <g id="arrowLeft" xlink:href="#dirArrow" transform="rotate(270) translate(-36 17)" onmousedown="handlePan(-1,0)">
                  <use xlink:href="#rim" fill="#404040">
                        <set attributeName="fill" to="#808080" begin="arrowLeft.mouseover" end="arrowLeft.mouseout"/>
                  </use>
                  <path fill="none" stroke="white" stroke-width="1.5" d="M0,-3.0v7 M-2.5,-0.5L0,-3.0L2.5,-0.5"/>
                </g>
        </g>
        <svg viewBox="0 0 15 15" width="100%" height="30px" preserveAspectRatio="xMaxYMin meet">
         <g id="arrow_out" transform="scale(0.3 0.3)">
          <a xlink:href="classdoris_1_1vectorized_1_1_column_vector_a1e1f8e32f6383046bb0528c316ca9534_cgraph_org.svg" target="_base">
           <rect id="button" ry="5" rx="5" y="6" x="6" height="38" width="38"
                fill="#f2f5e9" fill-opacity="0.5" stroke="#606060" stroke-width="1.0"/>
           <path id="arrow"
             d="M 11.500037,31.436501 C 11.940474,20.09759 22.043105,11.32322 32.158766,21.979434 L 37.068811,17.246167 C 37.068811,17.246167 37.088388,32 37.088388,32 L 22.160133,31.978069 C 22.160133,31.978069 26.997745,27.140456 26.997745,27.140456 C 18.528582,18.264221 13.291696,25.230495 11.500037,31.436501 z"
             style="fill:#404040;"/>
          </a>
         </g>
        </svg>
</svg>
