<?xml version="1.0" encoding="UTF-8" standalone="no"?>
<!DOCTYPE svg PUBLIC "-//W3C//DTD SVG 1.1//EN"
 "http://www.w3.org/Graphics/SVG/1.1/DTD/svg11.dtd">
<!-- Generated by graphviz version 7.1.0 (20230121.1956)
 -->
<!-- Title: insert_from Pages: 1 -->
<svg width="433pt" height="260pt"
 viewBox="0.00 0.00 433.00 260.00" xmlns="http://www.w3.org/2000/svg" xmlns:xlink="http://www.w3.org/1999/xlink">
<g id="graph0" class="graph" transform="scale(1 1) rotate(0) translate(4 256)">
<title>insert_from</title>
<!-- Node1 -->
<g id="node1" class="node">
<title>Node1</title>
<g id="a_node1"><a xlink:title=" ">
<polygon fill="#999999" stroke="#666666" points="65,-142.5 0,-142.5 0,-123.5 65,-123.5 65,-142.5"/>
<text text-anchor="middle" x="32.5" y="-130.5" font-family="Helvetica,sans-Serif" font-size="10.00">insert_from</text>
</a>
</g>
</g>
<!-- Node2 -->
<g id="node2" class="node">
<title>Node2</title>
<g id="a_node2"><a xlink:href="../../df/d15/classdoris_1_1vectorized_1_1_column_vector.html#a3206c08675c03058605f3a6e5a452b5c" target="_top" xlink:title=" ">
<polygon fill="white" stroke="#666666" points="185.5,-164.5 131.5,-164.5 131.5,-145.5 185.5,-145.5 185.5,-164.5"/>
<text text-anchor="middle" x="158.5" y="-152.5" font-family="Helvetica,sans-Serif" font-size="10.00">get_data</text>
</a>
</g>
</g>
<!-- Node1&#45;&gt;Node2 -->
<g id="edge1" class="edge">
<title>Node1&#45;&gt;Node2</title>
<path fill="none" stroke="#63b8ff" d="M65.43,-138.67C82.15,-141.63 102.72,-145.28 120.17,-148.38"/>
<polygon fill="#63b8ff" stroke="#63b8ff" points="119.16,-151.75 129.62,-150.05 120.39,-144.86 119.16,-151.75"/>
</g>
<!-- Node3 -->
<g id="node3" class="node">
<title>Node3</title>
<g id="a_node3"><a xlink:href="../../df/db2/classdoris_1_1vectorized_1_1_p_o_d_array.html#a4fe88e30f68ec72ad91dee2dcf5fc1b8" target="_top" xlink:title=" ">
<polygon fill="white" stroke="#666666" points="216,-127 101,-127 101,-97 216,-97 216,-127"/>
<text text-anchor="start" x="109" y="-115" font-family="Helvetica,sans-Serif" font-size="10.00">doris::vectorized::</text>
<text text-anchor="middle" x="158.5" y="-104" font-family="Helvetica,sans-Serif" font-size="10.00">PODArray::push_back</text>
</a>
</g>
</g>
<!-- Node1&#45;&gt;Node3 -->
<g id="edge2" class="edge">
<title>Node1&#45;&gt;Node3</title>
<path fill="none" stroke="#63b8ff" d="M65.43,-127.59C72.92,-126.32 81.17,-124.93 89.57,-123.5"/>
<polygon fill="#63b8ff" stroke="#63b8ff" points="89.88,-127 99.16,-121.88 88.72,-120.1 89.88,-127"/>
</g>
<!-- Node4 -->
<g id="node4" class="node">
<title>Node4</title>
<g id="a_node4"><a xlink:href="../../d5/d9d/classdoris_1_1vectorized_1_1_p_o_d_array_base.html#a4fd871ea772d3f22957ed8dd6a0aebb6" target="_top" xlink:title="The amount of memory occupied by the num_elements of the elements.">
<polygon fill="white" stroke="#666666" points="422,-252 255,-252 255,-200 422,-200 422,-252"/>
<text text-anchor="start" x="263" y="-240" font-family="Helvetica,sans-Serif" font-size="10.00">doris::vectorized::</text>
<text text-anchor="start" x="263" y="-229" font-family="Helvetica,sans-Serif" font-size="10.00">PODArrayBase&lt; sizeof</text>
<text text-anchor="start" x="263" y="-218" font-family="Helvetica,sans-Serif" font-size="10.00">(T), initial_bytes, TAllocator,</text>
<text text-anchor="middle" x="338.5" y="-207" font-family="Helvetica,sans-Serif" font-size="10.00"> pad_right_, pad_left_ &gt;::byte_size</text>
</a>
</g>
</g>
<!-- Node3&#45;&gt;Node4 -->
<g id="edge3" class="edge">
<title>Node3&#45;&gt;Node4</title>
<path fill="none" stroke="#63b8ff" d="M201.82,-127.48C206.87,-130.24 211.73,-133.41 216,-137 238.07,-155.58 229.67,-172.74 252,-191 252.96,-191.79 253.94,-192.56 254.94,-193.31"/>
<polygon fill="#63b8ff" stroke="#63b8ff" points="252.88,-196.15 263.12,-198.86 256.81,-190.35 252.88,-196.15"/>
</g>
<!-- Node5 -->
<g id="node5" class="node">
<title>Node5</title>
<g id="a_node5"><a xlink:href="../../d5/d9d/classdoris_1_1vectorized_1_1_p_o_d_array_base.html#a2598e4e0d6a05dd2650267b7a78e56aa" target="_top" xlink:title=" ">
<polygon fill="white" stroke="#666666" points="417.5,-181.5 259.5,-181.5 259.5,-118.5 417.5,-118.5 417.5,-181.5"/>
<text text-anchor="start" x="267.5" y="-169.5" font-family="Helvetica,sans-Serif" font-size="10.00">doris::vectorized::</text>
<text text-anchor="start" x="267.5" y="-158.5" font-family="Helvetica,sans-Serif" font-size="10.00">PODArrayBase&lt; sizeof</text>
<text text-anchor="start" x="267.5" y="-147.5" font-family="Helvetica,sans-Serif" font-size="10.00">(T), initial_bytes, TAllocator,</text>
<text text-anchor="start" x="267.5" y="-136.5" font-family="Helvetica,sans-Serif" font-size="10.00"> pad_right_, pad_left_ &gt;::reserve</text>
<text text-anchor="middle" x="338.5" y="-125.5" font-family="Helvetica,sans-Serif" font-size="10.00">_for_next_size</text>
</a>
</g>
</g>
<!-- Node3&#45;&gt;Node5 -->
<g id="edge4" class="edge">
<title>Node3&#45;&gt;Node5</title>
<path fill="none" stroke="#63b8ff" d="M216.31,-124.13C226.43,-126.29 237.19,-128.59 247.96,-130.88"/>
<polygon fill="#63b8ff" stroke="#63b8ff" points="247.17,-134.3 257.68,-132.96 248.63,-127.45 247.17,-134.3"/>
</g>
<!-- Node6 -->
<g id="node6" class="node">
<title>Node6</title>
<g id="a_node6"><a xlink:href="../../d5/d9d/classdoris_1_1vectorized_1_1_p_o_d_array_base.html#a20432b443b7527c0e50d859593839d3d" target="_top" xlink:title=" ">
<polygon fill="white" stroke="#666666" points="425,-100 252,-100 252,-48 425,-48 425,-100"/>
<text text-anchor="start" x="260" y="-88" font-family="Helvetica,sans-Serif" font-size="10.00">doris::vectorized::</text>
<text text-anchor="start" x="260" y="-77" font-family="Helvetica,sans-Serif" font-size="10.00">PODArrayBase&lt; sizeof</text>
<text text-anchor="start" x="260" y="-66" font-family="Helvetica,sans-Serif" font-size="10.00">(T), initial_bytes, TAllocator,</text>
<text text-anchor="middle" x="338.5" y="-55" font-family="Helvetica,sans-Serif" font-size="10.00"> pad_right_, pad_left_ &gt;::reset_peak</text>
</a>
</g>
</g>
<!-- Node3&#45;&gt;Node6 -->
<g id="edge5" class="edge">
<title>Node3&#45;&gt;Node6</title>
<path fill="none" stroke="#63b8ff" d="M216.31,-99.87C224.16,-98.2 232.4,-96.44 240.73,-94.66"/>
<polygon fill="#63b8ff" stroke="#63b8ff" points="241.18,-98.14 250.23,-92.63 239.72,-91.3 241.18,-98.14"/>
</g>
<!-- Node7 -->
<g id="node7" class="node">
<title>Node7</title>
<g id="a_node7"><a xlink:href="../../df/db2/classdoris_1_1vectorized_1_1_p_o_d_array.html#a23330edc945b54dbc26dbfde57ae3be7" target="_top" xlink:title=" ">
<polygon fill="white" stroke="#666666" points="386,-30 291,-30 291,0 386,0 386,-30"/>
<text text-anchor="start" x="299" y="-18" font-family="Helvetica,sans-Serif" font-size="10.00">doris::vectorized::</text>
<text text-anchor="middle" x="338.5" y="-7" font-family="Helvetica,sans-Serif" font-size="10.00">PODArray::t_end</text>
</a>
</g>
</g>
<!-- Node3&#45;&gt;Node7 -->
<g id="edge6" class="edge">
<title>Node3&#45;&gt;Node7</title>
<path fill="none" stroke="#63b8ff" d="M174.85,-96.69C192.19,-80.21 221.92,-54.31 252,-39 260.59,-34.63 270.09,-30.96 279.53,-27.91"/>
<polygon fill="#63b8ff" stroke="#63b8ff" points="280.52,-31.27 289.09,-25.05 278.51,-24.56 280.52,-31.27"/>
</g>
</g>
</svg>
