<?xml version="1.0" encoding="UTF-8" standalone="no"?>
<!DOCTYPE svg PUBLIC "-//W3C//DTD SVG 1.1//EN"
 "http://www.w3.org/Graphics/SVG/1.1/DTD/svg11.dtd">
<!-- Generated by graphviz version 7.1.0 (20230121.1956)
 -->
<!-- Title: get_tracer Pages: 1 -->
<!--zoomable 263 -->
<svg id="main" version="1.1" xmlns="http://www.w3.org/2000/svg" xmlns:xlink="http://www.w3.org/1999/xlink" xml:space="preserve" onload="init(evt)">
<style type="text/css"><![CDATA[
.edge:hover path { stroke: red; }
.edge:hover polygon { stroke: red; fill: red; }
]]></style>
<script type="text/javascript"><![CDATA[
var edges = document.getElementsByTagName('g');
if (edges && edges.length) {
  for (var i=0;i<edges.length;i++) {
    if (edges[i].id.substr(0,4)=='edge') {
      edges[i].setAttribute('class','edge');
    }
  }
}
]]></script>
        <defs>
                <circle id="rim" cx="0" cy="0" r="7"/>
                <circle id="rim2" cx="0" cy="0" r="3.5"/>
                <g id="zoomPlus">
                        <use xlink:href="#rim" fill="#404040">
                                <set attributeName="fill" to="#808080" begin="zoomplus.mouseover" end="zoomplus.mouseout"/>
                        </use>
                        <path d="M-4,0h8M0,-4v8" fill="none" stroke="white" stroke-width="1.5" pointer-events="none"/>
                </g>
                <g id="zoomMin">
                        <use xlink:href="#rim" fill="#404040">
                                <set attributeName="fill" to="#808080" begin="zoomminus.mouseover" end="zoomminus.mouseout"/>
                        </use>
                        <path d="M-4,0h8" fill="none" stroke="white" stroke-width="1.5" pointer-events="none"/>
                </g>
                <g id="dirArrow">
                        <path fill="none" stroke="white" stroke-width="1.5" d="M0,-3.0v7 M-2.5,-0.5L0,-3.0L2.5,-0.5"/>
                </g>
               <g id="resetDef">
                       <use xlink:href="#rim2" fill="#404040">
                               <set attributeName="fill" to="#808080" begin="reset.mouseover" end="reset.mouseout"/>
                       </use>
               </g>
        </defs>

<script type="text/javascript">
var viewWidth = 602;
var viewHeight = 263;
var sectionId = 'dynsection-4';
</script>
<script xlink:href="../../svgpan.js"/>
<svg id="graph" class="graph">
<g id="viewport">
<title>get_tracer</title>
<!-- Node1 -->
<g id="node1" class="node">
<title>Node1</title>
<g id="a_node1"><a xlink:title=" ">
<polygon fill="#999999" stroke="#666666" points="594,-177.5 534,-177.5 534,-158.5 594,-158.5 594,-177.5"/>
<text text-anchor="middle" x="564" y="-165.5" font-family="Helvetica,sans-Serif" font-size="10.00">get_tracer</text>
</a>
</g>
</g>
<!-- Node2 -->
<g id="node2" class="node">
<title>Node2</title>
<g id="a_node2"><a xlink:href="../../d2/d1a/classdoris_1_1_fragment_mgr.html#a6b4345bc5e86ca7bc7205da97dec12c9" target="_top" xlink:title=" ">
<polygon fill="white" stroke="#666666" points="481.5,-255 371.5,-255 371.5,-225 481.5,-225 481.5,-255"/>
<text text-anchor="start" x="379.5" y="-243" font-family="Helvetica,sans-Serif" font-size="10.00">doris::FragmentMgr</text>
<text text-anchor="middle" x="426.5" y="-232" font-family="Helvetica,sans-Serif" font-size="10.00">::exec_plan_fragment</text>
</a>
</g>
</g>
<!-- Node1&#45;&gt;Node2 -->
<g id="edge1" class="edge">
<title>Node1&#45;&gt;Node2</title>
<path fill="none" stroke="#63b8ff" d="M543.65,-184.77C531.25,-194.87 514.44,-207.4 498,-216 492.04,-219.12 485.6,-221.96 479.11,-224.51"/>
<polygon fill="#63b8ff" stroke="#63b8ff" points="545.61,-187.69 551.04,-178.59 541.12,-182.32 545.61,-187.69"/>
</g>
<!-- Node3 -->
<g id="node3" class="node">
<title>Node3</title>
<g id="a_node3"><a xlink:href="../../d8/d46/classdoris_1_1pipeline_1_1_pipeline_fragment_context.html#a29b6a19bc1bd3cecb83354f5a4780e7c" target="_top" xlink:title=" ">
<polygon fill="white" stroke="#666666" points="492,-207 361,-207 361,-177 492,-177 492,-207"/>
<text text-anchor="start" x="369" y="-195" font-family="Helvetica,sans-Serif" font-size="10.00">doris::pipeline::Pipeline</text>
<text text-anchor="middle" x="426.5" y="-184" font-family="Helvetica,sans-Serif" font-size="10.00">FragmentContext::prepare</text>
</a>
</g>
</g>
<!-- Node1&#45;&gt;Node3 -->
<g id="edge2" class="edge">
<title>Node1&#45;&gt;Node3</title>
<path fill="none" stroke="#63b8ff" d="M522.52,-175.17C513.03,-176.85 502.69,-178.68 492.44,-180.5"/>
<polygon fill="#63b8ff" stroke="#63b8ff" points="522.87,-178.66 532.11,-173.47 521.65,-171.77 522.87,-178.66"/>
</g>
<!-- Node4 -->
<g id="node4" class="node">
<title>Node4</title>
<g id="a_node4"><a xlink:href="../../da/df9/classdoris_1_1_plan_fragment_executor.html#a1a1c11e2ea434ac4f99103a61f327ae7" target="_top" xlink:title=" ">
<polygon fill="white" stroke="#666666" points="498,-159 355,-159 355,-129 498,-129 498,-159"/>
<text text-anchor="start" x="363" y="-147" font-family="Helvetica,sans-Serif" font-size="10.00">doris::PlanFragmentExecutor</text>
<text text-anchor="middle" x="426.5" y="-136" font-family="Helvetica,sans-Serif" font-size="10.00">::prepare</text>
</a>
</g>
</g>
<!-- Node1&#45;&gt;Node4 -->
<g id="edge3" class="edge">
<title>Node1&#45;&gt;Node4</title>
<path fill="none" stroke="#63b8ff" d="M522.45,-160.82C514.78,-159.46 506.56,-158 498.27,-156.53"/>
<polygon fill="#63b8ff" stroke="#63b8ff" points="521.65,-164.23 532.11,-162.53 522.87,-157.34 521.65,-164.23"/>
</g>
<!-- Node6 -->
<g id="node6" class="node">
<title>Node6</title>
<g id="a_node6"><a xlink:href="../../da/dbc/namespacedoris_1_1telemetry.html#a2e74735ef011dac32713376e6c96fa7f" target="_top" xlink:title=" ">
<polygon fill="white" stroke="#666666" points="483,-96.5 370,-96.5 370,-77.5 483,-77.5 483,-96.5"/>
<text text-anchor="middle" x="426.5" y="-84.5" font-family="Helvetica,sans-Serif" font-size="10.00">start_rpc_server_span</text>
</a>
</g>
</g>
<!-- Node1&#45;&gt;Node6 -->
<g id="edge5" class="edge">
<title>Node1&#45;&gt;Node6</title>
<path fill="none" stroke="#63b8ff" d="M542.39,-151.14C529.96,-141.39 513.56,-129.26 498,-120 483.14,-111.15 465.51,-102.9 451.6,-96.86"/>
<polygon fill="#63b8ff" stroke="#63b8ff" points="539.86,-153.6 549.86,-157.1 544.22,-148.12 539.86,-153.6"/>
</g>
<!-- Node5 -->
<g id="node5" class="node">
<title>Node5</title>
<g id="a_node5"><a xlink:href="../../d8/dc3/classdoris_1_1_fragment_exec_state.html#af356cb45f9f562099e3ea38382f346fa" target="_top" xlink:title=" ">
<polygon fill="white" stroke="#666666" points="317,-174 186,-174 186,-144 317,-144 317,-174"/>
<text text-anchor="start" x="194" y="-162" font-family="Helvetica,sans-Serif" font-size="10.00">doris::FragmentExecState</text>
<text text-anchor="middle" x="251.5" y="-151" font-family="Helvetica,sans-Serif" font-size="10.00">::prepare</text>
</a>
</g>
</g>
<!-- Node4&#45;&gt;Node5 -->
<g id="edge4" class="edge">
<title>Node4&#45;&gt;Node5</title>
<path fill="none" stroke="#63b8ff" d="M343.28,-151.13C334.6,-151.88 325.86,-152.64 317.41,-153.37"/>
<polygon fill="#63b8ff" stroke="#63b8ff" points="343.47,-154.63 353.13,-150.28 342.86,-147.65 343.47,-154.63"/>
</g>
<!-- Node7 -->
<g id="node7" class="node">
<title>Node7</title>
<g id="a_node7"><a xlink:href="../../d3/de9/classdoris_1_1_p_internal_service_impl.html#ac7da267cb3245027264fd3c2eb66f29c" target="_top" xlink:title=" ">
<polygon fill="white" stroke="#666666" points="318.5,-126 184.5,-126 184.5,-96 318.5,-96 318.5,-126"/>
<text text-anchor="start" x="192.5" y="-114" font-family="Helvetica,sans-Serif" font-size="10.00">doris::PInternalServiceImpl</text>
<text text-anchor="middle" x="251.5" y="-103" font-family="Helvetica,sans-Serif" font-size="10.00">::cancel_plan_fragment</text>
</a>
</g>
</g>
<!-- Node6&#45;&gt;Node7 -->
<g id="edge6" class="edge">
<title>Node6&#45;&gt;Node7</title>
<path fill="none" stroke="#63b8ff" d="M358.58,-96.28C345.57,-98.09 331.95,-99.98 318.96,-101.78"/>
<polygon fill="#63b8ff" stroke="#63b8ff" points="358.89,-99.77 368.31,-94.93 357.92,-92.84 358.89,-99.77"/>
</g>
<!-- Node8 -->
<g id="node8" class="node">
<title>Node8</title>
<g id="a_node8"><a xlink:href="../../d3/de9/classdoris_1_1_p_internal_service_impl.html#a1c4319671d302ef8c0cd6c2fadf1ca1d" target="_top" xlink:title=" ">
<polygon fill="white" stroke="#666666" points="318.5,-78 184.5,-78 184.5,-48 318.5,-48 318.5,-78"/>
<text text-anchor="start" x="192.5" y="-66" font-family="Helvetica,sans-Serif" font-size="10.00">doris::PInternalServiceImpl</text>
<text text-anchor="middle" x="251.5" y="-55" font-family="Helvetica,sans-Serif" font-size="10.00">::exec_plan_fragment</text>
</a>
</g>
</g>
<!-- Node6&#45;&gt;Node8 -->
<g id="edge7" class="edge">
<title>Node6&#45;&gt;Node8</title>
<path fill="none" stroke="#63b8ff" d="M358.58,-77.72C345.57,-75.91 331.95,-74.02 318.96,-72.22"/>
<polygon fill="#63b8ff" stroke="#63b8ff" points="357.92,-81.16 368.31,-79.07 358.89,-74.23 357.92,-81.16"/>
</g>
<!-- Node10 -->
<g id="node10" class="node">
<title>Node10</title>
<g id="a_node10"><a xlink:href="../../d3/de9/classdoris_1_1_p_internal_service_impl.html#af85d3bf25572243e9031b556cf570e54" target="_top" xlink:title=" ">
<polygon fill="white" stroke="#666666" points="319,-30 184,-30 184,0 319,0 319,-30"/>
<text text-anchor="start" x="192" y="-18" font-family="Helvetica,sans-Serif" font-size="10.00">doris::PInternalServiceImpl</text>
<text text-anchor="middle" x="251.5" y="-7" font-family="Helvetica,sans-Serif" font-size="10.00">::exec_plan_fragment_start</text>
</a>
</g>
</g>
<!-- Node6&#45;&gt;Node10 -->
<g id="edge9" class="edge">
<title>Node6&#45;&gt;Node10</title>
<path fill="none" stroke="#63b8ff" d="M394.6,-72.31C373.48,-62.46 344.77,-49.44 319,-39 311.83,-36.1 304.17,-33.17 296.68,-30.4"/>
<polygon fill="#63b8ff" stroke="#63b8ff" points="392.98,-75.42 403.52,-76.5 395.95,-69.08 392.98,-75.42"/>
</g>
<!-- Node9 -->
<g id="node9" class="node">
<title>Node9</title>
<g id="a_node9"><a xlink:href="../../d3/de9/classdoris_1_1_p_internal_service_impl.html#a345aa664a30657c6b2085fa7a92aa136" target="_top" xlink:title=" ">
<polygon fill="white" stroke="#666666" points="148,-78 0,-78 0,-48 148,-48 148,-78"/>
<text text-anchor="start" x="8" y="-66" font-family="Helvetica,sans-Serif" font-size="10.00">doris::PInternalServiceImpl</text>
<text text-anchor="middle" x="74" y="-55" font-family="Helvetica,sans-Serif" font-size="10.00">::exec_plan_fragment_prepare</text>
</a>
</g>
</g>
<!-- Node8&#45;&gt;Node9 -->
<g id="edge8" class="edge">
<title>Node8&#45;&gt;Node9</title>
<path fill="none" stroke="#63b8ff" d="M172.82,-63C164.73,-63 156.53,-63 148.49,-63"/>
<polygon fill="#63b8ff" stroke="#63b8ff" points="172.64,-66.5 182.64,-63 172.64,-59.5 172.64,-66.5"/>
</g>
</g>
</svg>
        <g id="navigator" transform="translate(0 0)" fill="#404254">
                <rect fill="#f2f5e9" fill-opacity="0.5" stroke="#606060" stroke-width=".5" x="0" y="0" width="60" height="60"/>
                <use id="zoomplus" xlink:href="#zoomPlus" x="17" y="9" onmousedown="handleZoom(evt,'in')"/>
                <use id="zoomminus" xlink:href="#zoomMin" x="42" y="9" onmousedown="handleZoom(evt,'out')"/>
                <use id="reset" xlink:href="#resetDef" x="30" y="36" onmousedown="handleReset()"/>
                <g id="arrowUp" xlink:href="#dirArrow" transform="translate(30 24)" onmousedown="handlePan(0,-1)">
                  <use xlink:href="#rim" fill="#404040">
                        <set attributeName="fill" to="#808080" begin="arrowUp.mouseover" end="arrowUp.mouseout"/>
                  </use>
                  <path fill="none" stroke="white" stroke-width="1.5" d="M0,-3.0v7 M-2.5,-0.5L0,-3.0L2.5,-0.5"/>
                </g>
                <g id="arrowRight" xlink:href="#dirArrow" transform="rotate(90) translate(36 -43)" onmousedown="handlePan(1,0)">
                  <use xlink:href="#rim" fill="#404040">
                        <set attributeName="fill" to="#808080" begin="arrowRight.mouseover" end="arrowRight.mouseout"/>
                  </use>
                  <path fill="none" stroke="white" stroke-width="1.5" d="M0,-3.0v7 M-2.5,-0.5L0,-3.0L2.5,-0.5"/>
                </g>
                <g id="arrowDown" xlink:href="#dirArrow" transform="rotate(180) translate(-30 -48)" onmousedown="handlePan(0,1)">
                  <use xlink:href="#rim" fill="#404040">
                        <set attributeName="fill" to="#808080" begin="arrowDown.mouseover" end="arrowDown.mouseout"/>
                  </use>
                  <path fill="none" stroke="white" stroke-width="1.5" d="M0,-3.0v7 M-2.5,-0.5L0,-3.0L2.5,-0.5"/>
                </g>
                <g id="arrowLeft" xlink:href="#dirArrow" transform="rotate(270) translate(-36 17)" onmousedown="handlePan(-1,0)">
                  <use xlink:href="#rim" fill="#404040">
                        <set attributeName="fill" to="#808080" begin="arrowLeft.mouseover" end="arrowLeft.mouseout"/>
                  </use>
                  <path fill="none" stroke="white" stroke-width="1.5" d="M0,-3.0v7 M-2.5,-0.5L0,-3.0L2.5,-0.5"/>
                </g>
        </g>
        <svg viewBox="0 0 15 15" width="100%" height="30px" preserveAspectRatio="xMaxYMin meet">
         <g id="arrow_out" transform="scale(0.3 0.3)">
          <a xlink:href="namespacedoris_1_1telemetry_ab9934daefaf5461368b73e2561d0d528_icgraph_org.svg" target="_base">
           <rect id="button" ry="5" rx="5" y="6" x="6" height="38" width="38"
                fill="#f2f5e9" fill-opacity="0.5" stroke="#606060" stroke-width="1.0"/>
           <path id="arrow"
             d="M 11.500037,31.436501 C 11.940474,20.09759 22.043105,11.32322 32.158766,21.979434 L 37.068811,17.246167 C 37.068811,17.246167 37.088388,32 37.088388,32 L 22.160133,31.978069 C 22.160133,31.978069 26.997745,27.140456 26.997745,27.140456 C 18.528582,18.264221 13.291696,25.230495 11.500037,31.436501 z"
             style="fill:#404040;"/>
          </a>
         </g>
        </svg>
</svg>
