<?xml version="1.0" encoding="UTF-8" standalone="no"?>
<!DOCTYPE svg PUBLIC "-//W3C//DTD SVG 1.1//EN"
 "http://www.w3.org/Graphics/SVG/1.1/DTD/svg11.dtd">
<!-- Generated by graphviz version 7.1.0 (20230121.1956)
 -->
<!-- Title: create_unsupport_wrapper Pages: 1 -->
<svg width="1051pt" height="278pt"
 viewBox="0.00 0.00 1051.00 277.84" xmlns="http://www.w3.org/2000/svg" xmlns:xlink="http://www.w3.org/1999/xlink">
<g id="graph0" class="graph" transform="scale(1 1) rotate(0) translate(4 273.84)">
<title>create_unsupport_wrapper</title>
<!-- Node1 -->
<g id="node1" class="node">
<title>Node1</title>
<g id="a_node1"><a xlink:title=" ">
<polygon fill="#999999" stroke="#666666" points="1043,-151 912,-151 912,-132 1043,-132 1043,-151"/>
<text text-anchor="middle" x="977.5" y="-139" font-family="Helvetica,sans-Serif" font-size="10.00">create_unsupport_wrapper</text>
</a>
</g>
</g>
<!-- Node2 -->
<g id="node2" class="node">
<title>Node2</title>
<g id="a_node2"><a xlink:href="../../d1/d1a/classdoris_1_1vectorized_1_1_function_cast.html#a18af675244dcbbeb16b11a4c7c1c4055" target="_top" xlink:title=" ">
<polygon fill="white" stroke="#666666" points="865.5,-133 755.5,-133 755.5,-114 865.5,-114 865.5,-133"/>
<text text-anchor="middle" x="810.5" y="-121" font-family="Helvetica,sans-Serif" font-size="10.00">create_array_wrapper</text>
</a>
</g>
</g>
<!-- Node1&#45;&gt;Node2 -->
<g id="edge1" class="edge">
<title>Node1&#45;&gt;Node2</title>
<path fill="none" stroke="#63b8ff" d="M900.62,-133.22C888.92,-131.95 877.03,-130.65 865.92,-129.44"/>
<polygon fill="#63b8ff" stroke="#63b8ff" points="899.94,-136.67 910.26,-134.27 900.7,-129.71 899.94,-136.67"/>
</g>
<!-- Node3 -->
<g id="node3" class="node">
<title>Node3</title>
<g id="a_node3"><a xlink:href="../../d1/d1a/classdoris_1_1vectorized_1_1_function_cast.html#ab575d330a437aeff6d56629c513fc8e8" target="_top" xlink:title=" ">
<polygon fill="white" stroke="#666666" points="709,-207 637,-207 637,-188 709,-188 709,-207"/>
<text text-anchor="middle" x="673" y="-195" font-family="Helvetica,sans-Serif" font-size="10.00">prepare_impl</text>
</a>
</g>
</g>
<!-- Node1&#45;&gt;Node3 -->
<g id="edge18" class="edge">
<title>Node1&#45;&gt;Node3</title>
<path fill="none" stroke="#63b8ff" d="M965.9,-161.29C950.3,-188.05 918.36,-234.6 876,-253.5 822.83,-277.23 800.01,-272.58 745,-253.5 718.6,-244.34 694.59,-220.85 682.4,-207.38"/>
<polygon fill="#63b8ff" stroke="#63b8ff" points="968.82,-163.23 970.66,-152.8 962.72,-159.81 968.82,-163.23"/>
</g>
<!-- Node5 -->
<g id="node5" class="node">
<title>Node5</title>
<g id="a_node5"><a xlink:href="../../d1/d1a/classdoris_1_1vectorized_1_1_function_cast.html#a6d1f7d24e39e3551057334c4434e3eaf" target="_top" xlink:title=" ">
<polygon fill="white" stroke="#666666" points="440,-133 300,-133 300,-114 440,-114 440,-133"/>
<text text-anchor="middle" x="370" y="-121" font-family="Helvetica,sans-Serif" font-size="10.00">prepare_unpack_dictionaries</text>
</a>
</g>
</g>
<!-- Node1&#45;&gt;Node5 -->
<g id="edge19" class="edge">
<title>Node1&#45;&gt;Node5</title>
<path fill="none" stroke="#63b8ff" d="M945.92,-127.03C926.4,-118.61 900.29,-108.83 876,-104.5 715.56,-75.9 522.08,-98.81 427.97,-113.53"/>
<polygon fill="#63b8ff" stroke="#63b8ff" points="944.36,-130.17 954.92,-131.04 947.21,-123.77 944.36,-130.17"/>
</g>
<!-- Node7 -->
<g id="node7" class="node">
<title>Node7</title>
<g id="a_node7"><a xlink:href="../../d1/d1a/classdoris_1_1vectorized_1_1_function_cast.html#a86ca07c7d3689fa6eb8d4d65f986482f" target="_top" xlink:title=" ">
<polygon fill="white" stroke="#666666" points="113,-114 0,-114 0,-95 113,-95 113,-114"/>
<text text-anchor="middle" x="56.5" y="-102" font-family="Helvetica,sans-Serif" font-size="10.00">create_struct_wrapper</text>
</a>
</g>
</g>
<!-- Node1&#45;&gt;Node7 -->
<g id="edge16" class="edge">
<title>Node1&#45;&gt;Node7</title>
<path fill="none" stroke="#63b8ff" d="M951.37,-125.66C931.58,-113.83 902.93,-98.11 876,-88.5 789.72,-57.71 765.61,-47.5 674,-47.5 674,-47.5 674,-47.5 369,-47.5 265.64,-47.5 146.1,-78.24 89.88,-94.57"/>
<polygon fill="#63b8ff" stroke="#63b8ff" points="949.47,-128.6 959.83,-130.81 953.12,-122.62 949.47,-128.6"/>
</g>
<!-- Node9 -->
<g id="node9" class="node">
<title>Node9</title>
<g id="a_node9"><a xlink:href="../../d1/d1a/classdoris_1_1vectorized_1_1_function_cast.html#ae6599dc88b1e13c8efc68c6919e77f8e" target="_top" xlink:title=" ">
<polygon fill="white" stroke="#666666" points="871.5,-244 749.5,-244 749.5,-225 871.5,-225 871.5,-244"/>
<text text-anchor="middle" x="810.5" y="-232" font-family="Helvetica,sans-Serif" font-size="10.00">create_decimal_wrapper</text>
</a>
</g>
</g>
<!-- Node1&#45;&gt;Node9 -->
<g id="edge10" class="edge">
<title>Node1&#45;&gt;Node9</title>
<path fill="none" stroke="#63b8ff" d="M957.83,-158.8C938.64,-175.73 907.23,-201.16 876,-216.5 869.63,-219.63 862.64,-222.29 855.68,-224.52"/>
<polygon fill="#63b8ff" stroke="#63b8ff" points="960,-161.56 965.09,-152.26 955.32,-156.35 960,-161.56"/>
</g>
<!-- Node10 -->
<g id="node10" class="node">
<title>Node10</title>
<g id="a_node10"><a xlink:href="../../d1/d1a/classdoris_1_1vectorized_1_1_function_cast.html#ae2f10461b38131de2e8fa2258aa51f05" target="_top" xlink:title=" ">
<polygon fill="white" stroke="#666666" points="866.5,-207 754.5,-207 754.5,-188 866.5,-188 866.5,-207"/>
<text text-anchor="middle" x="810.5" y="-195" font-family="Helvetica,sans-Serif" font-size="10.00">create_jsonb_wrapper</text>
</a>
</g>
</g>
<!-- Node1&#45;&gt;Node10 -->
<g id="edge12" class="edge">
<title>Node1&#45;&gt;Node10</title>
<path fill="none" stroke="#63b8ff" d="M941.3,-155.69C922.14,-163.19 897.93,-172.31 876,-179.5 867.38,-182.33 858.03,-185.1 849.19,-187.59"/>
<polygon fill="#63b8ff" stroke="#63b8ff" points="942.52,-158.98 950.53,-152.05 939.94,-152.46 942.52,-158.98"/>
</g>
<!-- Node11 -->
<g id="node11" class="node">
<title>Node11</title>
<g id="a_node11"><a xlink:href="../../d1/d1a/classdoris_1_1vectorized_1_1_function_cast.html#acb1324be5719df9501ec17a5c2634a82" target="_top" xlink:title=" ">
<polygon fill="white" stroke="#666666" points="864,-170 757,-170 757,-151 864,-151 864,-170"/>
<text text-anchor="middle" x="810.5" y="-158" font-family="Helvetica,sans-Serif" font-size="10.00">create_map_wrapper</text>
</a>
</g>
</g>
<!-- Node1&#45;&gt;Node11 -->
<g id="edge14" class="edge">
<title>Node1&#45;&gt;Node11</title>
<path fill="none" stroke="#63b8ff" d="M900.6,-150.24C888.35,-151.65 875.9,-153.08 864.35,-154.41"/>
<polygon fill="#63b8ff" stroke="#63b8ff" points="900.72,-153.75 910.26,-149.13 899.92,-146.79 900.72,-153.75"/>
</g>
<!-- Node12 -->
<g id="node12" class="node">
<title>Node12</title>
<g id="a_node12"><a xlink:href="../../d1/d1a/classdoris_1_1vectorized_1_1_function_cast.html#a41829ae13345d58ffebfa5df2300be3b" target="_top" xlink:title=" ">
<polygon fill="white" stroke="#666666" points="876,-19 745,-19 745,0 876,0 876,-19"/>
<text text-anchor="middle" x="810.5" y="-7" font-family="Helvetica,sans-Serif" font-size="10.00">create_unsupport_wrapper</text>
</a>
</g>
</g>
<!-- Node1&#45;&gt;Node12 -->
<g id="edge17" class="edge">
<title>Node1&#45;&gt;Node12</title>
<path fill="none" stroke="#63b8ff" d="M963.35,-122.67C945.89,-98.9 912.9,-58.14 876,-33.5 867.26,-27.66 856.9,-23 847.08,-19.4"/>
<polygon fill="#63b8ff" stroke="#63b8ff" points="960.3,-124.41 968.97,-130.49 965.98,-120.32 960.3,-124.41"/>
</g>
<!-- Node2&#45;&gt;Node3 -->
<g id="edge2" class="edge">
<title>Node2&#45;&gt;Node3</title>
<path fill="none" stroke="#63b8ff" d="M754.09,-137.38C750.97,-138.65 747.92,-140.02 745,-141.5 720.65,-153.87 696.6,-175.3 683.69,-187.75"/>
<polygon fill="#63b8ff" stroke="#63b8ff" points="755.28,-140.67 763.48,-133.96 752.89,-134.09 755.28,-140.67"/>
</g>
<!-- Node4 -->
<g id="node4" class="node">
<title>Node4</title>
<g id="a_node4"><a xlink:href="../../d1/d1a/classdoris_1_1vectorized_1_1_function_cast.html#a2cf40ff8750205832d9ee83e748d136e" target="_top" xlink:title=" ">
<polygon fill="white" stroke="#666666" points="601,-171 476,-171 476,-152 601,-152 601,-171"/>
<text text-anchor="middle" x="538.5" y="-159" font-family="Helvetica,sans-Serif" font-size="10.00">prepare_remove_nullable</text>
</a>
</g>
</g>
<!-- Node3&#45;&gt;Node4 -->
<g id="edge3" class="edge">
<title>Node3&#45;&gt;Node4</title>
<path fill="none" stroke="#63b8ff" d="M625.92,-184.98C609.66,-180.56 591.6,-175.66 576.21,-171.47"/>
<polygon fill="#63b8ff" stroke="#63b8ff" points="624.81,-188.31 635.38,-187.55 626.65,-181.55 624.81,-188.31"/>
</g>
<!-- Node4&#45;&gt;Node5 -->
<g id="edge4" class="edge">
<title>Node4&#45;&gt;Node5</title>
<path fill="none" stroke="#63b8ff" d="M482.55,-148.96C460.52,-143.93 435.5,-138.22 414.74,-133.48"/>
<polygon fill="#63b8ff" stroke="#63b8ff" points="481.75,-152.37 492.28,-151.18 483.31,-145.54 481.75,-152.37"/>
</g>
<!-- Node5&#45;&gt;Node2 -->
<g id="edge5" class="edge">
<title>Node5&#45;&gt;Node2</title>
<path fill="none" stroke="#63b8ff" d="M451.54,-123.5C539.86,-123.5 679.12,-123.5 755.29,-123.5"/>
<polygon fill="#63b8ff" stroke="#63b8ff" points="451.75,-120 441.75,-123.5 451.75,-127 451.75,-120"/>
</g>
<!-- Node6 -->
<g id="node6" class="node">
<title>Node6</title>
<g id="a_node6"><a xlink:href="../../d1/d1a/classdoris_1_1vectorized_1_1_function_cast.html#a7b9a0727f239f297e8e59d993f933369" target="_top" xlink:title=" ">
<polygon fill="white" stroke="#666666" points="264,-114 149,-114 149,-95 264,-95 264,-114"/>
<text text-anchor="middle" x="206.5" y="-102" font-family="Helvetica,sans-Serif" font-size="10.00">get_element_wrappers</text>
</a>
</g>
</g>
<!-- Node5&#45;&gt;Node6 -->
<g id="edge6" class="edge">
<title>Node5&#45;&gt;Node6</title>
<path fill="none" stroke="#63b8ff" d="M288.17,-113.99C280.08,-113.04 271.99,-112.09 264.23,-111.17"/>
<polygon fill="#63b8ff" stroke="#63b8ff" points="287.73,-117.46 298.07,-115.16 288.55,-110.51 287.73,-117.46"/>
</g>
<!-- Node8 -->
<g id="node8" class="node">
<title>Node8</title>
<g id="a_node8"><a xlink:href="../../d1/d1a/classdoris_1_1vectorized_1_1_function_cast.html#a54df05f03fe6fffefb668e7084780de1" target="_top" xlink:title=" ">
<polygon fill="white" stroke="#666666" points="231,-151 182,-151 182,-132 231,-132 231,-151"/>
<text text-anchor="middle" x="206.5" y="-139" font-family="Helvetica,sans-Serif" font-size="10.00">prepare</text>
</a>
</g>
</g>
<!-- Node5&#45;&gt;Node8 -->
<g id="edge9" class="edge">
<title>Node5&#45;&gt;Node8</title>
<path fill="none" stroke="#63b8ff" d="M288.33,-132.49C267.42,-134.82 246.51,-137.15 231.19,-138.86"/>
<polygon fill="#63b8ff" stroke="#63b8ff" points="288.52,-135.99 298.07,-131.41 287.74,-129.04 288.52,-135.99"/>
</g>
<!-- Node6&#45;&gt;Node7 -->
<g id="edge7" class="edge">
<title>Node6&#45;&gt;Node7</title>
<path fill="none" stroke="#63b8ff" d="M137.44,-104.5C129.39,-104.5 121.26,-104.5 113.41,-104.5"/>
<polygon fill="#63b8ff" stroke="#63b8ff" points="137.19,-108 147.19,-104.5 137.19,-101 137.19,-108"/>
</g>
<!-- Node7&#45;&gt;Node3 -->
<g id="edge8" class="edge">
<title>Node7&#45;&gt;Node3</title>
<path fill="none" stroke="#63b8ff" d="M78.12,-121.14C95.79,-134.37 122.51,-152.02 149,-160.5 324.98,-216.86 550.73,-207.1 636.66,-200.65"/>
<polygon fill="#63b8ff" stroke="#63b8ff" points="80.55,-118.6 70.49,-115.26 76.27,-124.14 80.55,-118.6"/>
</g>
<!-- Node9&#45;&gt;Node3 -->
<g id="edge11" class="edge">
<title>Node9&#45;&gt;Node3</title>
<path fill="none" stroke="#63b8ff" d="M762.15,-221.57C744.84,-216.84 725.57,-211.58 709.47,-207.19"/>
<polygon fill="#63b8ff" stroke="#63b8ff" points="761.16,-224.93 771.73,-224.19 763,-218.18 761.16,-224.93"/>
</g>
<!-- Node10&#45;&gt;Node3 -->
<g id="edge13" class="edge">
<title>Node10&#45;&gt;Node3</title>
<path fill="none" stroke="#63b8ff" d="M743.2,-197.5C731.47,-197.5 719.69,-197.5 709.25,-197.5"/>
<polygon fill="#63b8ff" stroke="#63b8ff" points="742.87,-201 752.87,-197.5 742.87,-194 742.87,-201"/>
</g>
<!-- Node11&#45;&gt;Node3 -->
<g id="edge15" class="edge">
<title>Node11&#45;&gt;Node3</title>
<path fill="none" stroke="#63b8ff" d="M762.15,-173.43C744.84,-178.16 725.57,-183.42 709.47,-187.81"/>
<polygon fill="#63b8ff" stroke="#63b8ff" points="763,-176.82 771.73,-170.81 761.16,-170.07 763,-176.82"/>
</g>
</g>
</svg>
