<?xml version="1.0" encoding="UTF-8" standalone="no"?>
<!DOCTYPE svg PUBLIC "-//W3C//DTD SVG 1.1//EN"
 "http://www.w3.org/Graphics/SVG/1.1/DTD/svg11.dtd">
<!-- Generated by graphviz version 7.1.0 (20230121.1956)
 -->
<!-- Title: evaluate Pages: 1 -->
<svg width="704pt" height="393pt"
 viewBox="0.00 0.00 704.00 393.00" xmlns="http://www.w3.org/2000/svg" xmlns:xlink="http://www.w3.org/1999/xlink">
<g id="graph0" class="graph" transform="scale(1 1) rotate(0) translate(4 389)">
<title>evaluate</title>
<!-- Node1 -->
<g id="node1" class="node">
<title>Node1</title>
<g id="a_node1"><a xlink:title=" ">
<polygon fill="#999999" stroke="#666666" points="53,-280.5 0,-280.5 0,-261.5 53,-261.5 53,-280.5"/>
<text text-anchor="middle" x="26.5" y="-268.5" font-family="Helvetica,sans-Serif" font-size="10.00">evaluate</text>
</a>
</g>
</g>
<!-- Node2 -->
<g id="node2" class="node">
<title>Node2</title>
<g id="a_node2"><a xlink:href="../../da/de3/classdoris_1_1_match_predicate.html#a9e36d717cd1b40073c96d176d9790256" target="_top" xlink:title=" ">
<polygon fill="white" stroke="#666666" points="205,-385 107,-385 107,-355 205,-355 205,-385"/>
<text text-anchor="start" x="115" y="-373" font-family="Helvetica,sans-Serif" font-size="10.00">_to_inverted_index</text>
<text text-anchor="middle" x="156" y="-362" font-family="Helvetica,sans-Serif" font-size="10.00">_query_type</text>
</a>
</g>
</g>
<!-- Node1&#45;&gt;Node2 -->
<g id="edge1" class="edge">
<title>Node1&#45;&gt;Node2</title>
<path fill="none" stroke="#63b8ff" d="M33.2,-280.95C42.78,-296.84 63.58,-327.99 89,-346 91.35,-347.67 93.83,-349.23 96.39,-350.69"/>
<polygon fill="#63b8ff" stroke="#63b8ff" points="94.75,-353.78 105.26,-355.18 97.91,-347.54 94.75,-353.78"/>
</g>
<!-- Node3 -->
<g id="node3" class="node">
<title>Node3</title>
<g id="a_node3"><a xlink:href="../../db/d8f/classdoris_1_1_schema.html#ad168f43170837b2bfc3aaec369b076eb" target="_top" xlink:title=" ">
<polygon fill="white" stroke="#666666" points="214.5,-336.5 97.5,-336.5 97.5,-317.5 214.5,-317.5 214.5,-336.5"/>
<text text-anchor="middle" x="156" y="-324.5" font-family="Helvetica,sans-Serif" font-size="10.00">doris::Schema::column</text>
</a>
</g>
</g>
<!-- Node1&#45;&gt;Node3 -->
<g id="edge2" class="edge">
<title>Node1&#45;&gt;Node3</title>
<path fill="none" stroke="#63b8ff" d="M41.04,-280.96C53.1,-289.43 71.5,-301.4 89,-309 92.76,-310.63 96.71,-312.16 100.72,-313.56"/>
<polygon fill="#63b8ff" stroke="#63b8ff" points="99.4,-316.81 109.99,-316.56 101.55,-310.15 99.4,-316.81"/>
</g>
<!-- Node4 -->
<g id="node4" class="node">
<title>Node4</title>
<g id="a_node4"><a xlink:href="../../d6/d94/namespacedoris.html#a8b4439cc120cea587c8f4df61ea8ce2c" target="_top" xlink:title=" ">
<polygon fill="white" stroke="#666666" points="213.5,-299.5 98.5,-299.5 98.5,-280.5 213.5,-280.5 213.5,-299.5"/>
<text text-anchor="middle" x="156" y="-287.5" font-family="Helvetica,sans-Serif" font-size="10.00">doris::is_numeric_type</text>
</a>
</g>
</g>
<!-- Node1&#45;&gt;Node4 -->
<g id="edge3" class="edge">
<title>Node1&#45;&gt;Node4</title>
<path fill="none" stroke="#63b8ff" d="M53.3,-274.84C63.22,-276.32 75.06,-278.09 87.1,-279.88"/>
<polygon fill="#63b8ff" stroke="#63b8ff" points="86.26,-283.3 96.67,-281.31 87.29,-276.37 86.26,-283.3"/>
</g>
<!-- Node5 -->
<g id="node5" class="node">
<title>Node5</title>
<g id="a_node5"><a xlink:href="../../d6/d94/namespacedoris.html#a0ab853c902f9806fd9cfe5eabc54a569" target="_top" xlink:title=" ">
<polygon fill="white" stroke="#666666" points="208,-262.5 104,-262.5 104,-243.5 208,-243.5 208,-262.5"/>
<text text-anchor="middle" x="156" y="-250.5" font-family="Helvetica,sans-Serif" font-size="10.00">doris::is_string_type</text>
</a>
</g>
</g>
<!-- Node1&#45;&gt;Node5 -->
<g id="edge4" class="edge">
<title>Node1&#45;&gt;Node5</title>
<path fill="none" stroke="#63b8ff" d="M53.3,-267.36C64.73,-265.74 78.71,-263.77 92.61,-261.81"/>
<polygon fill="#63b8ff" stroke="#63b8ff" points="92.77,-265.32 102.18,-260.46 91.79,-258.39 92.77,-265.32"/>
</g>
<!-- Node6 -->
<g id="node6" class="node">
<title>Node6</title>
<g id="a_node6"><a xlink:href="../../d9/d8d/classdoris_1_1_status.html#a6ec1a217f203269ab53d2290d602db24" target="_top" xlink:title=" ">
<polygon fill="white" stroke="#666666" points="545.5,-186.5 453.5,-186.5 453.5,-167.5 545.5,-167.5 545.5,-186.5"/>
<text text-anchor="middle" x="499.5" y="-174.5" font-family="Helvetica,sans-Serif" font-size="10.00">doris::Status::OK</text>
</a>
</g>
</g>
<!-- Node1&#45;&gt;Node6 -->
<g id="edge5" class="edge">
<title>Node1&#45;&gt;Node6</title>
<path fill="none" stroke="#63b8ff" d="M40.91,-261.07C52.89,-252.72 71.24,-241.19 89,-235 153.02,-212.7 345.38,-191.74 441.93,-182.28"/>
<polygon fill="#63b8ff" stroke="#63b8ff" points="442.1,-185.78 451.71,-181.33 441.42,-178.81 442.1,-185.78"/>
</g>
<!-- Node8 -->
<g id="node8" class="node">
<title>Node8</title>
<g id="a_node8"><a xlink:href="../../da/d3e/classdoris_1_1segment__v2_1_1_inverted_index_iterator.html#af764ced338b0f486114adb0323c070a0" target="_top" xlink:title=" ">
<polygon fill="white" stroke="#666666" points="223,-148.5 89,-148.5 89,-107.5 223,-107.5 223,-148.5"/>
<text text-anchor="start" x="97" y="-136.5" font-family="Helvetica,sans-Serif" font-size="10.00">doris::segment_v2::</text>
<text text-anchor="start" x="97" y="-125.5" font-family="Helvetica,sans-Serif" font-size="10.00">InvertedIndexIterator</text>
<text text-anchor="middle" x="156" y="-114.5" font-family="Helvetica,sans-Serif" font-size="10.00">::read_from_inverted_index</text>
</a>
</g>
</g>
<!-- Node1&#45;&gt;Node8 -->
<g id="edge7" class="edge">
<title>Node1&#45;&gt;Node8</title>
<path fill="none" stroke="#63b8ff" d="M35.81,-261.45C47.59,-247.94 69.84,-222.5 89,-201 101.96,-186.46 116.47,-170.39 128.58,-157.03"/>
<polygon fill="#63b8ff" stroke="#63b8ff" points="131,-159.57 135.13,-149.82 125.82,-154.87 131,-159.57"/>
</g>
<!-- Node7 -->
<g id="node7" class="node">
<title>Node7</title>
<g id="a_node7"><a xlink:href="../../d9/d8d/classdoris_1_1_status.html#aafde58df1b2a6a91d5b674373be3ffc5" target="_top" xlink:title=" ">
<polygon fill="white" stroke="#666666" points="696,-186.5 589,-186.5 589,-167.5 696,-167.5 696,-186.5"/>
<text text-anchor="middle" x="642.5" y="-174.5" font-family="Helvetica,sans-Serif" font-size="10.00">doris::Status::Status</text>
</a>
</g>
</g>
<!-- Node6&#45;&gt;Node7 -->
<g id="edge6" class="edge">
<title>Node6&#45;&gt;Node7</title>
<path fill="none" stroke="#63b8ff" d="M545.89,-177C555.94,-177 566.77,-177 577.41,-177"/>
<polygon fill="#63b8ff" stroke="#63b8ff" points="577.32,-180.5 587.32,-177 577.32,-173.5 577.32,-180.5"/>
</g>
<!-- Node8&#45;&gt;Node6 -->
<g id="edge8" class="edge">
<title>Node8&#45;&gt;Node6</title>
<path fill="none" stroke="#63b8ff" d="M220.72,-148.93C233.29,-152.44 246.48,-155.69 259,-158 320.9,-169.43 393.04,-173.99 441.84,-175.8"/>
<polygon fill="#63b8ff" stroke="#63b8ff" points="441.49,-179.29 451.6,-176.14 441.73,-172.3 441.49,-179.29"/>
</g>
<!-- Node9 -->
<g id="node9" class="node">
<title>Node9</title>
<g id="a_node9"><a xlink:href="../../d7/d23/classdoris_1_1segment__v2_1_1_inverted_index_reader.html#a233c132dfbd0e00562bc938fff94ebbe" target="_top" xlink:title=" ">
<polygon fill="white" stroke="#666666" points="388,-148.5 281,-148.5 281,-107.5 388,-107.5 388,-148.5"/>
<text text-anchor="start" x="289" y="-136.5" font-family="Helvetica,sans-Serif" font-size="10.00">doris::segment_v2::</text>
<text text-anchor="start" x="289" y="-125.5" font-family="Helvetica,sans-Serif" font-size="10.00">InvertedIndexReader</text>
<text text-anchor="middle" x="334.5" y="-114.5" font-family="Helvetica,sans-Serif" font-size="10.00">::query</text>
</a>
</g>
</g>
<!-- Node8&#45;&gt;Node9 -->
<g id="edge9" class="edge">
<title>Node8&#45;&gt;Node9</title>
<path fill="none" stroke="#63b8ff" d="M223.48,-128C238.5,-128 254.43,-128 269.36,-128"/>
<polygon fill="#63b8ff" stroke="#63b8ff" points="269.04,-131.5 279.04,-128 269.04,-124.5 269.04,-131.5"/>
</g>
<!-- Node10 -->
<g id="node10" class="node">
<title>Node10</title>
<g id="a_node10"><a xlink:href="../../da/d3e/classdoris_1_1segment__v2_1_1_inverted_index_iterator.html#a4077e06caa0ee69637f2b055a461516c" target="_top" xlink:title=" ">
<polygon fill="white" stroke="#666666" points="410,-89.5 259,-89.5 259,-48.5 410,-48.5 410,-89.5"/>
<text text-anchor="start" x="267" y="-77.5" font-family="Helvetica,sans-Serif" font-size="10.00">doris::segment_v2::</text>
<text text-anchor="start" x="267" y="-66.5" font-family="Helvetica,sans-Serif" font-size="10.00">InvertedIndexIterator</text>
<text text-anchor="middle" x="334.5" y="-55.5" font-family="Helvetica,sans-Serif" font-size="10.00">::try_read_from_inverted_index</text>
</a>
</g>
</g>
<!-- Node8&#45;&gt;Node10 -->
<g id="edge10" class="edge">
<title>Node8&#45;&gt;Node10</title>
<path fill="none" stroke="#63b8ff" d="M219.72,-107.03C232.78,-102.67 246.65,-98.03 260.06,-93.55"/>
<polygon fill="#63b8ff" stroke="#63b8ff" points="260.87,-96.97 269.25,-90.48 258.65,-90.33 260.87,-96.97"/>
</g>
<!-- Node12 -->
<g id="node12" class="node">
<title>Node12</title>
<g id="a_node12"><a xlink:href="../../d7/d23/classdoris_1_1segment__v2_1_1_inverted_index_reader.html#a95e95f66d26ccab295720d9343000cbb" target="_top" xlink:title=" ">
<polygon fill="white" stroke="#666666" points="400.5,-30 268.5,-30 268.5,0 400.5,0 400.5,-30"/>
<text text-anchor="start" x="276.5" y="-18" font-family="Helvetica,sans-Serif" font-size="10.00">doris::segment_v2::</text>
<text text-anchor="middle" x="334.5" y="-7" font-family="Helvetica,sans-Serif" font-size="10.00">InvertedIndexReader::type</text>
</a>
</g>
</g>
<!-- Node8&#45;&gt;Node12 -->
<g id="edge13" class="edge">
<title>Node8&#45;&gt;Node12</title>
<path fill="none" stroke="#63b8ff" d="M175.82,-107.27C195,-87.27 226.47,-57.39 259,-39 261.48,-37.6 264.06,-36.26 266.7,-34.99"/>
<polygon fill="#63b8ff" stroke="#63b8ff" points="267.98,-38.25 275.73,-31.04 265.17,-31.84 267.98,-38.25"/>
</g>
<!-- Node10&#45;&gt;Node6 -->
<g id="edge11" class="edge">
<title>Node10&#45;&gt;Node6</title>
<path fill="none" stroke="#63b8ff" d="M395,-89.9C400.19,-92.4 405.27,-95.1 410,-98 437.81,-115.05 465.09,-141.24 481.84,-158.74"/>
<polygon fill="#63b8ff" stroke="#63b8ff" points="479.16,-161 488.56,-165.9 484.27,-156.21 479.16,-161"/>
</g>
<!-- Node11 -->
<g id="node11" class="node">
<title>Node11</title>
<g id="a_node11"><a xlink:href="../../d7/d23/classdoris_1_1segment__v2_1_1_inverted_index_reader.html#aa539bddd43a1963af13a1a7cbc68fbe7" target="_top" xlink:title=" ">
<polygon fill="white" stroke="#666666" points="553,-89.5 446,-89.5 446,-48.5 553,-48.5 553,-89.5"/>
<text text-anchor="start" x="454" y="-77.5" font-family="Helvetica,sans-Serif" font-size="10.00">doris::segment_v2::</text>
<text text-anchor="start" x="454" y="-66.5" font-family="Helvetica,sans-Serif" font-size="10.00">InvertedIndexReader</text>
<text text-anchor="middle" x="499.5" y="-55.5" font-family="Helvetica,sans-Serif" font-size="10.00">::try_query</text>
</a>
</g>
</g>
<!-- Node10&#45;&gt;Node11 -->
<g id="edge12" class="edge">
<title>Node10&#45;&gt;Node11</title>
<path fill="none" stroke="#63b8ff" d="M410.32,-69C418.31,-69 426.38,-69 434.22,-69"/>
<polygon fill="#63b8ff" stroke="#63b8ff" points="434.01,-72.5 444.01,-69 434.01,-65.5 434.01,-72.5"/>
</g>
</g>
</svg>
