<?xml version="1.0" encoding="UTF-8" standalone="no"?>
<!DOCTYPE svg PUBLIC "-//W3C//DTD SVG 1.1//EN"
 "http://www.w3.org/Graphics/SVG/1.1/DTD/svg11.dtd">
<!-- Generated by graphviz version 7.1.0 (20230121.1956)
 -->
<!-- Title: close Pages: 1 -->
<svg width="334pt" height="38pt"
 viewBox="0.00 0.00 334.00 38.00" xmlns="http://www.w3.org/2000/svg" xmlns:xlink="http://www.w3.org/1999/xlink">
<g id="graph0" class="graph" transform="scale(1 1) rotate(0) translate(4 34)">
<title>close</title>
<!-- Node1 -->
<g id="node1" class="node">
<title>Node1</title>
<g id="a_node1"><a xlink:title=" ">
<polygon fill="#999999" stroke="#666666" points="40,-24.5 0,-24.5 0,-5.5 40,-5.5 40,-24.5"/>
<text text-anchor="middle" x="20" y="-12.5" font-family="Helvetica,sans-Serif" font-size="10.00">close</text>
</a>
</g>
</g>
<!-- Node2 -->
<g id="node2" class="node">
<title>Node2</title>
<g id="a_node2"><a xlink:href="../../df/d8e/classdoris_1_1_hdfs_fs_handle.html#ae5cb4469f650588f74c1dfc940171101" target="_top" xlink:title=" ">
<polygon fill="white" stroke="#666666" points="183,-30 76,-30 76,0 183,0 183,-30"/>
<text text-anchor="start" x="84" y="-18" font-family="Helvetica,sans-Serif" font-size="10.00">doris::HdfsFsHandle</text>
<text text-anchor="middle" x="129.5" y="-7" font-family="Helvetica,sans-Serif" font-size="10.00">::dec_ref</text>
</a>
</g>
</g>
<!-- Node1&#45;&gt;Node2 -->
<g id="edge1" class="edge">
<title>Node1&#45;&gt;Node2</title>
<path fill="none" stroke="#63b8ff" d="M40.22,-15C47.27,-15 55.69,-15 64.49,-15"/>
<polygon fill="#63b8ff" stroke="#63b8ff" points="64.26,-18.5 74.26,-15 64.26,-11.5 64.26,-18.5"/>
</g>
<!-- Node3 -->
<g id="node3" class="node">
<title>Node3</title>
<g id="a_node3"><a xlink:href="../../df/d8e/classdoris_1_1_hdfs_fs_handle.html#aa6931dd181cd842b52c3b052617a4ddd" target="_top" xlink:title=" ">
<polygon fill="white" stroke="#666666" points="326,-30 219,-30 219,0 326,0 326,-30"/>
<text text-anchor="start" x="227" y="-18" font-family="Helvetica,sans-Serif" font-size="10.00">doris::HdfsFsHandle</text>
<text text-anchor="middle" x="272.5" y="-7" font-family="Helvetica,sans-Serif" font-size="10.00">::_now</text>
</a>
</g>
</g>
<!-- Node2&#45;&gt;Node3 -->
<g id="edge2" class="edge">
<title>Node2&#45;&gt;Node3</title>
<path fill="none" stroke="#63b8ff" d="M183.4,-15C191.27,-15 199.44,-15 207.5,-15"/>
<polygon fill="#63b8ff" stroke="#63b8ff" points="207.25,-18.5 217.25,-15 207.25,-11.5 207.25,-18.5"/>
</g>
</g>
</svg>
