<?xml version="1.0" encoding="UTF-8" standalone="no"?>
<!DOCTYPE svg PUBLIC "-//W3C//DTD SVG 1.1//EN"
 "http://www.w3.org/Graphics/SVG/1.1/DTD/svg11.dtd">
<!-- Generated by graphviz version 7.1.0 (20230121.1956)
 -->
<!-- Title: prune Pages: 1 -->
<!--zoomable 412 -->
<svg id="main" version="1.1" xmlns="http://www.w3.org/2000/svg" xmlns:xlink="http://www.w3.org/1999/xlink" xml:space="preserve" onload="init(evt)">
<style type="text/css"><![CDATA[
.edge:hover path { stroke: red; }
.edge:hover polygon { stroke: red; fill: red; }
]]></style>
<script type="text/javascript"><![CDATA[
var edges = document.getElementsByTagName('g');
if (edges && edges.length) {
  for (var i=0;i<edges.length;i++) {
    if (edges[i].id.substr(0,4)=='edge') {
      edges[i].setAttribute('class','edge');
    }
  }
}
]]></script>
        <defs>
                <circle id="rim" cx="0" cy="0" r="7"/>
                <circle id="rim2" cx="0" cy="0" r="3.5"/>
                <g id="zoomPlus">
                        <use xlink:href="#rim" fill="#404040">
                                <set attributeName="fill" to="#808080" begin="zoomplus.mouseover" end="zoomplus.mouseout"/>
                        </use>
                        <path d="M-4,0h8M0,-4v8" fill="none" stroke="white" stroke-width="1.5" pointer-events="none"/>
                </g>
                <g id="zoomMin">
                        <use xlink:href="#rim" fill="#404040">
                                <set attributeName="fill" to="#808080" begin="zoomminus.mouseover" end="zoomminus.mouseout"/>
                        </use>
                        <path d="M-4,0h8" fill="none" stroke="white" stroke-width="1.5" pointer-events="none"/>
                </g>
                <g id="dirArrow">
                        <path fill="none" stroke="white" stroke-width="1.5" d="M0,-3.0v7 M-2.5,-0.5L0,-3.0L2.5,-0.5"/>
                </g>
               <g id="resetDef">
                       <use xlink:href="#rim2" fill="#404040">
                               <set attributeName="fill" to="#808080" begin="reset.mouseover" end="reset.mouseout"/>
                       </use>
               </g>
        </defs>

<script type="text/javascript">
var viewWidth = 678;
var viewHeight = 412;
var sectionId = 'dynsection-7';
</script>
<script xlink:href="../../svgpan.js"/>
<svg id="graph" class="graph">
<g id="viewport">
<title>prune</title>
<!-- Node1 -->
<g id="node1" class="node">
<title>Node1</title>
<g id="a_node1"><a xlink:title=" ">
<polygon fill="#999999" stroke="#666666" points="41,-264.5 0,-264.5 0,-245.5 41,-245.5 41,-264.5"/>
<text text-anchor="middle" x="20.5" y="-252.5" font-family="Helvetica,sans-Serif" font-size="10.00">prune</text>
</a>
</g>
</g>
<!-- Node2 -->
<g id="node2" class="node">
<title>Node2</title>
<g id="a_node2"><a xlink:href="../../d6/d94/namespacedoris.html#a8c65bebe79856558bd7eee43ca050450" target="_top" xlink:title=" ">
<polygon fill="white" stroke="#666666" points="355,-383.5 224,-383.5 224,-364.5 355,-364.5 355,-383.5"/>
<text text-anchor="middle" x="289.5" y="-371.5" font-family="Helvetica,sans-Serif" font-size="10.00">doris::find_min_time_node</text>
</a>
</g>
</g>
<!-- Node1&#45;&gt;Node2 -->
<g id="edge1" class="edge">
<title>Node1&#45;&gt;Node2</title>
<path fill="none" stroke="#63b8ff" d="M24.05,-264.84C29.76,-284.73 45.63,-329.56 77,-350 116.65,-375.84 169.55,-381.83 212.53,-381.37"/>
<polygon fill="#63b8ff" stroke="#63b8ff" points="212.37,-384.87 222.28,-381.13 212.2,-377.87 212.37,-384.87"/>
</g>
<!-- Node5 -->
<g id="node5" class="node">
<title>Node5</title>
<g id="a_node5"><a xlink:href="../../dd/d0a/classdoris_1_1_result_node.html#ab405e2368c0a8824228335fa8867d6aa" target="_top" xlink:title=" ">
<polygon fill="white" stroke="#666666" points="500.5,-356 399.5,-356 399.5,-326 500.5,-326 500.5,-356"/>
<text text-anchor="start" x="407.5" y="-344" font-family="Helvetica,sans-Serif" font-size="10.00">doris::ResultNode::</text>
<text text-anchor="middle" x="450" y="-333" font-family="Helvetica,sans-Serif" font-size="10.00">get_next</text>
</a>
</g>
</g>
<!-- Node1&#45;&gt;Node5 -->
<g id="edge8" class="edge">
<title>Node1&#45;&gt;Node5</title>
<path fill="none" stroke="#63b8ff" d="M31.6,-264.73C42.05,-274.17 59.31,-288.06 77,-295 180.87,-335.74 312.46,-342.54 388.06,-342.59"/>
<polygon fill="#63b8ff" stroke="#63b8ff" points="387.75,-346.09 397.73,-342.56 387.72,-339.09 387.75,-346.09"/>
</g>
<!-- Node6 -->
<g id="node6" class="node">
<title>Node6</title>
<g id="a_node6"><a xlink:href="../../dd/d0a/classdoris_1_1_result_node.html#a7b31badbe2bef8a43d67316c7c2dc18a" target="_top" xlink:title=" ">
<polygon fill="white" stroke="#666666" points="500.5,-308 399.5,-308 399.5,-278 500.5,-278 500.5,-308"/>
<text text-anchor="start" x="407.5" y="-296" font-family="Helvetica,sans-Serif" font-size="10.00">doris::ResultNode::</text>
<text text-anchor="middle" x="450" y="-285" font-family="Helvetica,sans-Serif" font-size="10.00">get_prev</text>
</a>
</g>
</g>
<!-- Node1&#45;&gt;Node6 -->
<g id="edge9" class="edge">
<title>Node1&#45;&gt;Node6</title>
<path fill="none" stroke="#63b8ff" d="M41.43,-263.33C51.84,-267.3 64.9,-271.67 77,-274 184.89,-294.8 313.44,-296.36 387.69,-295.06"/>
<polygon fill="#63b8ff" stroke="#63b8ff" points="387.69,-298.56 397.62,-294.85 387.55,-291.56 387.69,-298.56"/>
</g>
<!-- Node7 -->
<g id="node7" class="node">
<title>Node7</title>
<g id="a_node7"><a xlink:href="../../dd/d0a/classdoris_1_1_result_node.html#aba508f36133813e7844f14af0ae3175b" target="_top" xlink:title=" ">
<polygon fill="white" stroke="#666666" points="183,-227 82,-227 82,-197 183,-197 183,-227"/>
<text text-anchor="start" x="90" y="-215" font-family="Helvetica,sans-Serif" font-size="10.00">doris::ResultNode::</text>
<text text-anchor="middle" x="132.5" y="-204" font-family="Helvetica,sans-Serif" font-size="10.00">get_data_size</text>
</a>
</g>
</g>
<!-- Node1&#45;&gt;Node7 -->
<g id="edge6" class="edge">
<title>Node1&#45;&gt;Node7</title>
<path fill="none" stroke="#63b8ff" d="M41.42,-247.21C52.67,-242.82 67.28,-237.11 81.44,-231.57"/>
<polygon fill="#63b8ff" stroke="#63b8ff" points="82.68,-234.84 90.72,-227.94 80.13,-228.32 82.68,-234.84"/>
</g>
<!-- Node8 -->
<g id="node8" class="node">
<title>Node8</title>
<g id="a_node8"><a xlink:href="../../df/d27/classdoris_1_1_result_node_list.html#a7747db5c671606486e39240030dd3b3e" target="_top" xlink:title=" ">
<polygon fill="white" stroke="#666666" points="188,-179 77,-179 77,-149 188,-149 188,-179"/>
<text text-anchor="start" x="85" y="-167" font-family="Helvetica,sans-Serif" font-size="10.00">doris::ResultNodeList</text>
<text text-anchor="middle" x="132.5" y="-156" font-family="Helvetica,sans-Serif" font-size="10.00">::get_head</text>
</a>
</g>
</g>
<!-- Node1&#45;&gt;Node8 -->
<g id="edge7" class="edge">
<title>Node1&#45;&gt;Node8</title>
<path fill="none" stroke="#63b8ff" d="M27.53,-245.12C36.68,-230.85 55.31,-204.39 77,-188 78.31,-187.01 79.68,-186.04 81.08,-185.11"/>
<polygon fill="#63b8ff" stroke="#63b8ff" points="82.59,-188.28 89.42,-180.18 79.03,-182.26 82.59,-188.28"/>
</g>
<!-- Node9 -->
<g id="node9" class="node">
<title>Node9</title>
<g id="a_node9"><a xlink:href="../../dd/d0a/classdoris_1_1_result_node.html#a9929a20a2cff6d3e8adc87eee0b26220" target="_top" xlink:title=" ">
<polygon fill="white" stroke="#666666" points="183,-102 82,-102 82,-72 183,-72 183,-102"/>
<text text-anchor="start" x="90" y="-90" font-family="Helvetica,sans-Serif" font-size="10.00">doris::ResultNode::</text>
<text text-anchor="middle" x="132.5" y="-79" font-family="Helvetica,sans-Serif" font-size="10.00">prune_first</text>
</a>
</g>
</g>
<!-- Node1&#45;&gt;Node9 -->
<g id="edge10" class="edge">
<title>Node1&#45;&gt;Node9</title>
<path fill="none" stroke="#63b8ff" d="M24.92,-245.14C32.36,-224.43 51.47,-175.43 77,-140 84.8,-129.18 94.93,-118.64 104.34,-109.85"/>
<polygon fill="#63b8ff" stroke="#63b8ff" points="106.5,-112.62 111.57,-103.32 101.81,-107.43 106.5,-112.62"/>
</g>
<!-- Node14 -->
<g id="node14" class="node">
<title>Node14</title>
<g id="a_node14"><a xlink:href="../../d5/deb/classdoris_1_1_result_cache.html#a5dc17c16423de5ddade938f213ea3472" target="_top" xlink:title=" ">
<polygon fill="white" stroke="#666666" points="157,-264.5 108,-264.5 108,-245.5 157,-245.5 157,-264.5"/>
<text text-anchor="middle" x="132.5" y="-252.5" font-family="Helvetica,sans-Serif" font-size="10.00">remove</text>
</a>
</g>
</g>
<!-- Node1&#45;&gt;Node14 -->
<g id="edge15" class="edge">
<title>Node1&#45;&gt;Node14</title>
<path fill="none" stroke="#63b8ff" d="M41.42,-255C56.66,-255 78.06,-255 96.18,-255"/>
<polygon fill="#63b8ff" stroke="#63b8ff" points="96,-258.5 106,-255 96,-251.5 96,-258.5"/>
</g>
<!-- Node3 -->
<g id="node3" class="node">
<title>Node3</title>
<g id="a_node3"><a xlink:href="../../dd/d0a/classdoris_1_1_result_node.html#a42ea2c28fb2f608f71026e55317ab995" target="_top" xlink:title=" ">
<polygon fill="white" stroke="#666666" points="509,-404 391,-404 391,-374 509,-374 509,-404"/>
<text text-anchor="start" x="399" y="-392" font-family="Helvetica,sans-Serif" font-size="10.00">doris::ResultNode::</text>
<text text-anchor="middle" x="450" y="-381" font-family="Helvetica,sans-Serif" font-size="10.00">first_partition_last_time</text>
</a>
</g>
</g>
<!-- Node2&#45;&gt;Node3 -->
<g id="edge2" class="edge">
<title>Node2&#45;&gt;Node3</title>
<path fill="none" stroke="#63b8ff" d="M355.43,-380.14C363.24,-380.88 371.24,-381.64 379.12,-382.39"/>
<polygon fill="#63b8ff" stroke="#63b8ff" points="378.74,-385.87 389.03,-383.32 379.4,-378.9 378.74,-385.87"/>
</g>
<!-- Node2&#45;&gt;Node5 -->
<g id="edge4" class="edge">
<title>Node2&#45;&gt;Node5</title>
<path fill="none" stroke="#63b8ff" d="M338.49,-364.01C354.11,-360.76 371.66,-357.1 388.09,-353.68"/>
<polygon fill="#63b8ff" stroke="#63b8ff" points="388.7,-357.13 397.77,-351.67 387.27,-350.28 388.7,-357.13"/>
</g>
<!-- Node2&#45;&gt;Node6 -->
<g id="edge5" class="edge">
<title>Node2&#45;&gt;Node6</title>
<path fill="none" stroke="#63b8ff" d="M306.53,-364.09C326.09,-352.19 360.36,-331.96 391,-317 393.71,-315.68 396.51,-314.36 399.34,-313.07"/>
<polygon fill="#63b8ff" stroke="#63b8ff" points="400.59,-316.34 408.32,-309.1 397.76,-309.94 400.59,-316.34"/>
</g>
<!-- Node4 -->
<g id="node4" class="node">
<title>Node4</title>
<g id="a_node4"><a xlink:href="../../d1/dd7/classdoris_1_1_partition_row_batch.html#af369b1f7d0b63d7d518ef2cfcad19c30" target="_top" xlink:title=" ">
<polygon fill="white" stroke="#666666" points="670,-404 545,-404 545,-374 670,-374 670,-404"/>
<text text-anchor="start" x="553" y="-392" font-family="Helvetica,sans-Serif" font-size="10.00">doris::PartitionRowBatch</text>
<text text-anchor="middle" x="607.5" y="-381" font-family="Helvetica,sans-Serif" font-size="10.00">::get_stat</text>
</a>
</g>
</g>
<!-- Node3&#45;&gt;Node4 -->
<g id="edge3" class="edge">
<title>Node3&#45;&gt;Node4</title>
<path fill="none" stroke="#63b8ff" d="M509.34,-389C517.19,-389 525.32,-389 533.39,-389"/>
<polygon fill="#63b8ff" stroke="#63b8ff" points="533.2,-392.5 543.2,-389 533.2,-385.5 533.2,-392.5"/>
</g>
<!-- Node10 -->
<g id="node10" class="node">
<title>Node10</title>
<g id="a_node10"><a xlink:href="../../d1/dd7/classdoris_1_1_partition_row_batch.html#ac8bb3912a3ce86b15842e79d0b421204" target="_top" xlink:title=" ">
<polygon fill="white" stroke="#666666" points="352,-126 227,-126 227,-96 352,-96 352,-126"/>
<text text-anchor="start" x="235" y="-114" font-family="Helvetica,sans-Serif" font-size="10.00">doris::PartitionRowBatch</text>
<text text-anchor="middle" x="289.5" y="-103" font-family="Helvetica,sans-Serif" font-size="10.00">::clear</text>
</a>
</g>
</g>
<!-- Node9&#45;&gt;Node10 -->
<g id="edge11" class="edge">
<title>Node9&#45;&gt;Node10</title>
<path fill="none" stroke="#63b8ff" d="M183.4,-94.73C193.64,-96.31 204.63,-98.01 215.5,-99.7"/>
<polygon fill="#63b8ff" stroke="#63b8ff" points="214.83,-103.14 225.25,-101.21 215.9,-96.22 214.83,-103.14"/>
</g>
<!-- Node12 -->
<g id="node12" class="node">
<title>Node12</title>
<g id="a_node12"><a xlink:href="../../d1/dd7/classdoris_1_1_partition_row_batch.html#aaf160dde16f2bca6c31cc5dac131fcac" target="_top" xlink:title=" ">
<polygon fill="white" stroke="#666666" points="352,-78 227,-78 227,-48 352,-48 352,-78"/>
<text text-anchor="start" x="235" y="-66" font-family="Helvetica,sans-Serif" font-size="10.00">doris::PartitionRowBatch</text>
<text text-anchor="middle" x="289.5" y="-55" font-family="Helvetica,sans-Serif" font-size="10.00">::get_data_size</text>
</a>
</g>
</g>
<!-- Node9&#45;&gt;Node12 -->
<g id="edge13" class="edge">
<title>Node9&#45;&gt;Node12</title>
<path fill="none" stroke="#63b8ff" d="M183.4,-79.27C193.64,-77.69 204.63,-75.99 215.5,-74.3"/>
<polygon fill="#63b8ff" stroke="#63b8ff" points="215.9,-77.78 225.25,-72.79 214.83,-70.86 215.9,-77.78"/>
</g>
<!-- Node13 -->
<g id="node13" class="node">
<title>Node13</title>
<g id="a_node13"><a xlink:href="../../d1/dd7/classdoris_1_1_partition_row_batch.html#a23485dab8fdb9120b8634899c158fe55" target="_top" xlink:title=" ">
<polygon fill="white" stroke="#666666" points="352,-30 227,-30 227,0 352,0 352,-30"/>
<text text-anchor="start" x="235" y="-18" font-family="Helvetica,sans-Serif" font-size="10.00">doris::PartitionRowBatch</text>
<text text-anchor="middle" x="289.5" y="-7" font-family="Helvetica,sans-Serif" font-size="10.00">::get_partition_key</text>
</a>
</g>
</g>
<!-- Node9&#45;&gt;Node13 -->
<g id="edge14" class="edge">
<title>Node9&#45;&gt;Node13</title>
<path fill="none" stroke="#63b8ff" d="M160.36,-71.56C178.13,-61.64 202.1,-48.83 224,-39 227.32,-37.51 230.77,-36.03 234.27,-34.59"/>
<polygon fill="#63b8ff" stroke="#63b8ff" points="235.42,-37.89 243.41,-30.93 232.83,-31.39 235.42,-37.89"/>
</g>
<!-- Node11 -->
<g id="node11" class="node">
<title>Node11</title>
<g id="a_node11"><a xlink:href="../../d7/d2c/structdoris_1_1_cache_stat.html#a02fd73d861ef2e4aabb38c0c9ff82947" target="_top" xlink:title=" ">
<polygon fill="white" stroke="#666666" points="504.5,-120.5 395.5,-120.5 395.5,-101.5 504.5,-101.5 504.5,-120.5"/>
<text text-anchor="middle" x="450" y="-108.5" font-family="Helvetica,sans-Serif" font-size="10.00">doris::CacheStat::init</text>
</a>
</g>
</g>
<!-- Node10&#45;&gt;Node11 -->
<g id="edge12" class="edge">
<title>Node10&#45;&gt;Node11</title>
<path fill="none" stroke="#63b8ff" d="M352.23,-111C362.64,-111 373.47,-111 383.95,-111"/>
<polygon fill="#63b8ff" stroke="#63b8ff" points="383.65,-114.5 393.65,-111 383.65,-107.5 383.65,-114.5"/>
</g>
<!-- Node15 -->
<g id="node15" class="node">
<title>Node15</title>
<g id="a_node15"><a xlink:href="../../df/d27/classdoris_1_1_result_node_list.html#a376a000fca10ce7590f2a6f26fc9917a" target="_top" xlink:title=" ">
<polygon fill="white" stroke="#666666" points="345,-222 234,-222 234,-192 345,-192 345,-222"/>
<text text-anchor="start" x="242" y="-210" font-family="Helvetica,sans-Serif" font-size="10.00">doris::ResultNodeList</text>
<text text-anchor="middle" x="289.5" y="-199" font-family="Helvetica,sans-Serif" font-size="10.00">::delete_node</text>
</a>
</g>
</g>
<!-- Node14&#45;&gt;Node15 -->
<g id="edge16" class="edge">
<title>Node14&#45;&gt;Node15</title>
<path fill="none" stroke="#63b8ff" d="M157.38,-247.61C176.17,-241.79 203.2,-233.41 227.85,-225.78"/>
<polygon fill="#63b8ff" stroke="#63b8ff" points="228.64,-229.2 237.16,-222.9 226.57,-222.51 228.64,-229.2"/>
</g>
<!-- Node16 -->
<g id="node16" class="node">
<title>Node16</title>
<g id="a_node16"><a xlink:href="../../dd/d0a/classdoris_1_1_result_node.html#a99ef5bdf923599144a7ee51a53c84afc" target="_top" xlink:title=" ">
<polygon fill="white" stroke="#666666" points="340,-174 239,-174 239,-144 340,-144 340,-174"/>
<text text-anchor="start" x="247" y="-162" font-family="Helvetica,sans-Serif" font-size="10.00">doris::ResultNode::</text>
<text text-anchor="middle" x="289.5" y="-151" font-family="Helvetica,sans-Serif" font-size="10.00">get_sql_key</text>
</a>
</g>
</g>
<!-- Node14&#45;&gt;Node16 -->
<g id="edge17" class="edge">
<title>Node14&#45;&gt;Node16</title>
<path fill="none" stroke="#63b8ff" d="M157.38,-250.22C167.55,-247.33 179.1,-242.83 188,-236 210.59,-218.66 201.6,-200.58 224,-183 225.52,-181.81 227.1,-180.67 228.74,-179.59"/>
<polygon fill="#63b8ff" stroke="#63b8ff" points="230.32,-182.71 237.25,-174.69 226.83,-176.65 230.32,-182.71"/>
</g>
<!-- Node17 -->
<g id="node17" class="node">
<title>Node17</title>
<g id="a_node17"><a xlink:href="../../df/d27/classdoris_1_1_result_node_list.html#a30da27a365968c26269349f7fa3b0caa" target="_top" xlink:title=" ">
<polygon fill="white" stroke="#666666" points="345,-270 234,-270 234,-240 345,-240 345,-270"/>
<text text-anchor="start" x="242" y="-258" font-family="Helvetica,sans-Serif" font-size="10.00">doris::ResultNodeList</text>
<text text-anchor="middle" x="289.5" y="-247" font-family="Helvetica,sans-Serif" font-size="10.00">::remove</text>
</a>
</g>
</g>
<!-- Node14&#45;&gt;Node17 -->
<g id="edge18" class="edge">
<title>Node14&#45;&gt;Node17</title>
<path fill="none" stroke="#63b8ff" d="M157.38,-255C174.82,-255 199.37,-255 222.52,-255"/>
<polygon fill="#63b8ff" stroke="#63b8ff" points="222.22,-258.5 232.22,-255 222.22,-251.5 222.22,-258.5"/>
</g>
<!-- Node17&#45;&gt;Node5 -->
<g id="edge19" class="edge">
<title>Node17&#45;&gt;Node5</title>
<path fill="none" stroke="#63b8ff" d="M313.05,-270.36C333.03,-283.62 363.25,-302.82 391,-317 393.55,-318.3 396.18,-319.59 398.86,-320.85"/>
<polygon fill="#63b8ff" stroke="#63b8ff" points="397.37,-324.02 407.92,-324.95 400.25,-317.64 397.37,-324.02"/>
</g>
<!-- Node17&#45;&gt;Node6 -->
<g id="edge20" class="edge">
<title>Node17&#45;&gt;Node6</title>
<path fill="none" stroke="#63b8ff" d="M345.49,-268.18C359.25,-271.48 374.09,-275.04 388.11,-278.4"/>
<polygon fill="#63b8ff" stroke="#63b8ff" points="387.14,-281.77 397.68,-280.7 388.77,-274.96 387.14,-281.77"/>
</g>
<!-- Node18 -->
<g id="node18" class="node">
<title>Node18</title>
<g id="a_node18"><a xlink:href="../../dd/d0a/classdoris_1_1_result_node.html#acefbc7d5aa5a6fad7b468b9a84b3db7d" target="_top" xlink:title=" ">
<polygon fill="white" stroke="#666666" points="500.5,-260 399.5,-260 399.5,-230 500.5,-230 500.5,-260"/>
<text text-anchor="start" x="407.5" y="-248" font-family="Helvetica,sans-Serif" font-size="10.00">doris::ResultNode::</text>
<text text-anchor="middle" x="450" y="-237" font-family="Helvetica,sans-Serif" font-size="10.00">unlink</text>
</a>
</g>
</g>
<!-- Node17&#45;&gt;Node18 -->
<g id="edge21" class="edge">
<title>Node17&#45;&gt;Node18</title>
<path fill="none" stroke="#63b8ff" d="M345.49,-251.53C359.11,-250.67 373.79,-249.75 387.69,-248.87"/>
<polygon fill="#63b8ff" stroke="#63b8ff" points="387.88,-252.36 397.64,-248.24 387.44,-245.38 387.88,-252.36"/>
</g>
<!-- Node19 -->
<g id="node19" class="node">
<title>Node19</title>
<g id="a_node19"><a xlink:href="../../dd/d0a/classdoris_1_1_result_node.html#aaf4935d2c63b4fac034a337ca8ceafe5" target="_top" xlink:title=" ">
<polygon fill="white" stroke="#666666" points="658,-236 557,-236 557,-206 658,-206 658,-236"/>
<text text-anchor="start" x="565" y="-224" font-family="Helvetica,sans-Serif" font-size="10.00">doris::ResultNode::</text>
<text text-anchor="middle" x="607.5" y="-213" font-family="Helvetica,sans-Serif" font-size="10.00">set_next</text>
</a>
</g>
</g>
<!-- Node18&#45;&gt;Node19 -->
<g id="edge22" class="edge">
<title>Node18&#45;&gt;Node19</title>
<path fill="none" stroke="#63b8ff" d="M500.63,-237.34C514.87,-235.14 530.56,-232.72 545.4,-230.43"/>
<polygon fill="#63b8ff" stroke="#63b8ff" points="545.7,-233.93 555.05,-228.94 544.63,-227.01 545.7,-233.93"/>
</g>
<!-- Node20 -->
<g id="node20" class="node">
<title>Node20</title>
<g id="a_node20"><a xlink:href="../../dd/d0a/classdoris_1_1_result_node.html#a54d4bc6f4b46c44d0dfcac966251f22d" target="_top" xlink:title=" ">
<polygon fill="white" stroke="#666666" points="658,-284 557,-284 557,-254 658,-254 658,-284"/>
<text text-anchor="start" x="565" y="-272" font-family="Helvetica,sans-Serif" font-size="10.00">doris::ResultNode::</text>
<text text-anchor="middle" x="607.5" y="-261" font-family="Helvetica,sans-Serif" font-size="10.00">set_prev</text>
</a>
</g>
</g>
<!-- Node18&#45;&gt;Node20 -->
<g id="edge23" class="edge">
<title>Node18&#45;&gt;Node20</title>
<path fill="none" stroke="#63b8ff" d="M500.63,-252.66C514.87,-254.86 530.56,-257.28 545.4,-259.57"/>
<polygon fill="#63b8ff" stroke="#63b8ff" points="544.63,-262.99 555.05,-261.06 545.7,-256.07 544.63,-262.99"/>
</g>
</g>
</svg>
        <g id="navigator" transform="translate(0 0)" fill="#404254">
                <rect fill="#f2f5e9" fill-opacity="0.5" stroke="#606060" stroke-width=".5" x="0" y="0" width="60" height="60"/>
                <use id="zoomplus" xlink:href="#zoomPlus" x="17" y="9" onmousedown="handleZoom(evt,'in')"/>
                <use id="zoomminus" xlink:href="#zoomMin" x="42" y="9" onmousedown="handleZoom(evt,'out')"/>
                <use id="reset" xlink:href="#resetDef" x="30" y="36" onmousedown="handleReset()"/>
                <g id="arrowUp" xlink:href="#dirArrow" transform="translate(30 24)" onmousedown="handlePan(0,-1)">
                  <use xlink:href="#rim" fill="#404040">
                        <set attributeName="fill" to="#808080" begin="arrowUp.mouseover" end="arrowUp.mouseout"/>
                  </use>
                  <path fill="none" stroke="white" stroke-width="1.5" d="M0,-3.0v7 M-2.5,-0.5L0,-3.0L2.5,-0.5"/>
                </g>
                <g id="arrowRight" xlink:href="#dirArrow" transform="rotate(90) translate(36 -43)" onmousedown="handlePan(1,0)">
                  <use xlink:href="#rim" fill="#404040">
                        <set attributeName="fill" to="#808080" begin="arrowRight.mouseover" end="arrowRight.mouseout"/>
                  </use>
                  <path fill="none" stroke="white" stroke-width="1.5" d="M0,-3.0v7 M-2.5,-0.5L0,-3.0L2.5,-0.5"/>
                </g>
                <g id="arrowDown" xlink:href="#dirArrow" transform="rotate(180) translate(-30 -48)" onmousedown="handlePan(0,1)">
                  <use xlink:href="#rim" fill="#404040">
                        <set attributeName="fill" to="#808080" begin="arrowDown.mouseover" end="arrowDown.mouseout"/>
                  </use>
                  <path fill="none" stroke="white" stroke-width="1.5" d="M0,-3.0v7 M-2.5,-0.5L0,-3.0L2.5,-0.5"/>
                </g>
                <g id="arrowLeft" xlink:href="#dirArrow" transform="rotate(270) translate(-36 17)" onmousedown="handlePan(-1,0)">
                  <use xlink:href="#rim" fill="#404040">
                        <set attributeName="fill" to="#808080" begin="arrowLeft.mouseover" end="arrowLeft.mouseout"/>
                  </use>
                  <path fill="none" stroke="white" stroke-width="1.5" d="M0,-3.0v7 M-2.5,-0.5L0,-3.0L2.5,-0.5"/>
                </g>
        </g>
        <svg viewBox="0 0 15 15" width="100%" height="30px" preserveAspectRatio="xMaxYMin meet">
         <g id="arrow_out" transform="scale(0.3 0.3)">
          <a xlink:href="classdoris_1_1_result_cache_a66ec42d2ff5b84117b1da4cbba719f1b_cgraph_org.svg" target="_base">
           <rect id="button" ry="5" rx="5" y="6" x="6" height="38" width="38"
                fill="#f2f5e9" fill-opacity="0.5" stroke="#606060" stroke-width="1.0"/>
           <path id="arrow"
             d="M 11.500037,31.436501 C 11.940474,20.09759 22.043105,11.32322 32.158766,21.979434 L 37.068811,17.246167 C 37.068811,17.246167 37.088388,32 37.088388,32 L 22.160133,31.978069 C 22.160133,31.978069 26.997745,27.140456 26.997745,27.140456 C 18.528582,18.264221 13.291696,25.230495 11.500037,31.436501 z"
             style="fill:#404040;"/>
          </a>
         </g>
        </svg>
</svg>
