<?xml version="1.0" encoding="UTF-8" standalone="no"?>
<!DOCTYPE svg PUBLIC "-//W3C//DTD SVG 1.1//EN"
 "http://www.w3.org/Graphics/SVG/1.1/DTD/svg11.dtd">
<!-- Generated by graphviz version 7.1.0 (20230121.1956)
 -->
<!-- Title: streaming_agg_serialize_to_column Pages: 1 -->
<svg width="490pt" height="49pt"
 viewBox="0.00 0.00 490.00 49.00" xmlns="http://www.w3.org/2000/svg" xmlns:xlink="http://www.w3.org/1999/xlink">
<g id="graph0" class="graph" transform="scale(1 1) rotate(0) translate(4 45)">
<title>streaming_agg_serialize_to_column</title>
<!-- Node1 -->
<g id="node1" class="node">
<title>Node1</title>
<g id="a_node1"><a xlink:title=" ">
<polygon fill="#999999" stroke="#666666" points="122,-35.5 0,-35.5 0,-5.5 122,-5.5 122,-35.5"/>
<text text-anchor="start" x="8" y="-23.5" font-family="Helvetica,sans-Serif" font-size="10.00">streaming_agg_serialize</text>
<text text-anchor="middle" x="61" y="-12.5" font-family="Helvetica,sans-Serif" font-size="10.00">_to_column</text>
</a>
</g>
</g>
<!-- Node2 -->
<g id="node2" class="node">
<title>Node2</title>
<g id="a_node2"><a xlink:href="../../db/d6e/classdoris_1_1vectorized_1_1_column_fixed_length_object.html#a280b0ae61ce32f7696ca095e74a22290" target="_top" xlink:title=" ">
<polygon fill="white" stroke="#666666" points="290,-41 158,-41 158,0 290,0 290,-41"/>
<text text-anchor="start" x="166" y="-29" font-family="Helvetica,sans-Serif" font-size="10.00">doris::vectorized::</text>
<text text-anchor="start" x="166" y="-18" font-family="Helvetica,sans-Serif" font-size="10.00">ColumnFixedLengthObject</text>
<text text-anchor="middle" x="224" y="-7" font-family="Helvetica,sans-Serif" font-size="10.00">::set_item_size</text>
</a>
</g>
</g>
<!-- Node1&#45;&gt;Node2 -->
<g id="edge1" class="edge">
<title>Node1&#45;&gt;Node2</title>
<path fill="none" stroke="#63b8ff" d="M122.41,-20.5C130.23,-20.5 138.33,-20.5 146.37,-20.5"/>
<polygon fill="#63b8ff" stroke="#63b8ff" points="146.16,-24 156.16,-20.5 146.16,-17 146.16,-24"/>
</g>
<!-- Node3 -->
<g id="node3" class="node">
<title>Node3</title>
<g id="a_node3"><a xlink:href="../../db/d6e/classdoris_1_1vectorized_1_1_column_fixed_length_object.html#ad7701a09a964eab360a8e51fa7ad2c16" target="_top" xlink:title=" ">
<polygon fill="white" stroke="#666666" points="482,-35.5 326,-35.5 326,-5.5 482,-5.5 482,-35.5"/>
<text text-anchor="start" x="334" y="-23.5" font-family="Helvetica,sans-Serif" font-size="10.00">doris::vectorized::</text>
<text text-anchor="middle" x="404" y="-12.5" font-family="Helvetica,sans-Serif" font-size="10.00">ColumnFixedLengthObject::size</text>
</a>
</g>
</g>
<!-- Node2&#45;&gt;Node3 -->
<g id="edge2" class="edge">
<title>Node2&#45;&gt;Node3</title>
<path fill="none" stroke="#63b8ff" d="M290.27,-20.5C298.09,-20.5 306.18,-20.5 314.26,-20.5"/>
<polygon fill="#63b8ff" stroke="#63b8ff" points="314.15,-24 324.15,-20.5 314.15,-17 314.15,-24"/>
</g>
</g>
</svg>
