<?xml version="1.0" encoding="UTF-8" standalone="no"?>
<!DOCTYPE svg PUBLIC "-//W3C//DTD SVG 1.1//EN"
 "http://www.w3.org/Graphics/SVG/1.1/DTD/svg11.dtd">
<!-- Generated by graphviz version 7.1.0 (20230121.1956)
 -->
<!-- Title: get Pages: 1 -->
<svg width="138pt" height="64pt"
 viewBox="0.00 0.00 138.00 64.00" xmlns="http://www.w3.org/2000/svg" xmlns:xlink="http://www.w3.org/1999/xlink">
<g id="graph0" class="graph" transform="scale(1 1) rotate(0) translate(4 60)">
<title>get</title>
<!-- Node1 -->
<g id="node1" class="node">
<title>Node1</title>
<g id="a_node1"><a xlink:title=" ">
<polygon fill="#999999" stroke="#666666" points="130,-37 100,-37 100,-18 130,-18 130,-37"/>
<text text-anchor="middle" x="115" y="-25" font-family="Helvetica,sans-Serif" font-size="10.00">get</text>
</a>
</g>
</g>
<!-- Node2 -->
<g id="node2" class="node">
<title>Node2</title>
<g id="a_node2"><a xlink:href="../../d1/d0c/gscoped__ptr_8h.html#a67657adde82f03237cb1a2076a828cca" target="_top" xlink:title=" ">
<polygon fill="white" stroke="#666666" points="62.5,-56 1.5,-56 1.5,-37 62.5,-37 62.5,-56"/>
<text text-anchor="middle" x="32" y="-44" font-family="Helvetica,sans-Serif" font-size="10.00">operator!=</text>
</a>
</g>
</g>
<!-- Node1&#45;&gt;Node2 -->
<g id="edge1" class="edge">
<title>Node1&#45;&gt;Node2</title>
<path fill="none" stroke="#63b8ff" d="M88.44,-33.5C80.29,-35.41 71.21,-37.54 62.79,-39.51"/>
<polygon fill="#63b8ff" stroke="#63b8ff" points="89.11,-36.93 98.05,-31.24 87.51,-30.12 89.11,-36.93"/>
</g>
<!-- Node3 -->
<g id="node3" class="node">
<title>Node3</title>
<g id="a_node3"><a xlink:href="../../d1/d0c/gscoped__ptr_8h.html#a6401f9b599af3174af1d42750cbf0a2f" target="_top" xlink:title=" ">
<polygon fill="white" stroke="#666666" points="64,-19 0,-19 0,0 64,0 64,-19"/>
<text text-anchor="middle" x="32" y="-7" font-family="Helvetica,sans-Serif" font-size="10.00">operator==</text>
</a>
</g>
</g>
<!-- Node1&#45;&gt;Node3 -->
<g id="edge2" class="edge">
<title>Node1&#45;&gt;Node3</title>
<path fill="none" stroke="#63b8ff" d="M88.43,-21.82C80.83,-20.13 72.41,-18.26 64.47,-16.49"/>
<polygon fill="#63b8ff" stroke="#63b8ff" points="87.52,-25.2 98.04,-23.95 89.04,-18.37 87.52,-25.2"/>
</g>
</g>
</svg>
