<?xml version="1.0" encoding="UTF-8" standalone="no"?>
<!DOCTYPE svg PUBLIC "-//W3C//DTD SVG 1.1//EN"
 "http://www.w3.org/Graphics/SVG/1.1/DTD/svg11.dtd">
<!-- Generated by graphviz version 7.1.0 (20230121.1956)
 -->
<!-- Title: push_consumer_tracker Pages: 1 -->
<svg width="707pt" height="134pt"
 viewBox="0.00 0.00 707.00 134.00" xmlns="http://www.w3.org/2000/svg" xmlns:xlink="http://www.w3.org/1999/xlink">
<g id="graph0" class="graph" transform="scale(1 1) rotate(0) translate(4 130)">
<title>push_consumer_tracker</title>
<!-- Node1 -->
<g id="node1" class="node">
<title>Node1</title>
<g id="a_node1"><a xlink:title=" ">
<polygon fill="#999999" stroke="#666666" points="121,-48.5 0,-48.5 0,-29.5 121,-29.5 121,-48.5"/>
<text text-anchor="middle" x="60.5" y="-36.5" font-family="Helvetica,sans-Serif" font-size="10.00">push_consumer_tracker</text>
</a>
</g>
</g>
<!-- Node2 -->
<g id="node2" class="node">
<title>Node2</title>
<g id="a_node2"><a xlink:href="../../de/dfc/classdoris_1_1_thread_mem_tracker_mgr.html#abdb14ae2815cd8fa7ad7a6503d3b33aa" target="_top" xlink:title=" ">
<polygon fill="white" stroke="#666666" points="257,-72.5 161,-72.5 161,-53.5 257,-53.5 257,-72.5"/>
<text text-anchor="middle" x="209" y="-60.5" font-family="Helvetica,sans-Serif" font-size="10.00">print_debug_string</text>
</a>
</g>
</g>
<!-- Node1&#45;&gt;Node2 -->
<g id="edge1" class="edge">
<title>Node1&#45;&gt;Node2</title>
<path fill="none" stroke="#63b8ff" d="M121.09,-48.76C130.44,-50.29 140.09,-51.88 149.42,-53.4"/>
<polygon fill="#63b8ff" stroke="#63b8ff" points="148.66,-56.83 159.09,-54.99 149.79,-49.92 148.66,-56.83"/>
</g>
<!-- Node7 -->
<g id="node7" class="node">
<title>Node7</title>
<g id="a_node7"><a xlink:href="../../d4/d22/classdoris_1_1_mem_tracker.html#a95957cfddb30a4994895fac43c38e701" target="_top" xlink:title=" ">
<polygon fill="white" stroke="#666666" points="261,-33 157,-33 157,-3 261,-3 261,-33"/>
<text text-anchor="start" x="165" y="-21" font-family="Helvetica,sans-Serif" font-size="10.00">doris::MemTracker::</text>
<text text-anchor="middle" x="209" y="-10" font-family="Helvetica,sans-Serif" font-size="10.00">release</text>
</a>
</g>
</g>
<!-- Node1&#45;&gt;Node7 -->
<g id="edge7" class="edge">
<title>Node1&#45;&gt;Node7</title>
<path fill="none" stroke="#63b8ff" d="M121.09,-30.46C129.16,-29.3 137.47,-28.11 145.59,-26.95"/>
<polygon fill="#63b8ff" stroke="#63b8ff" points="146.02,-30.42 155.42,-25.54 145.02,-23.49 146.02,-30.42"/>
</g>
<!-- Node3 -->
<g id="node3" class="node">
<title>Node3</title>
<g id="a_node3"><a xlink:href="../../d4/d22/classdoris_1_1_mem_tracker.html#a374c86955dec8be60a072d81ab2143aa" target="_top" xlink:title=" ">
<polygon fill="white" stroke="#666666" points="413,-126 309,-126 309,-96 413,-96 413,-126"/>
<text text-anchor="start" x="317" y="-114" font-family="Helvetica,sans-Serif" font-size="10.00">doris::MemTracker::</text>
<text text-anchor="middle" x="361" y="-103" font-family="Helvetica,sans-Serif" font-size="10.00">log_usage</text>
</a>
</g>
</g>
<!-- Node2&#45;&gt;Node3 -->
<g id="edge2" class="edge">
<title>Node2&#45;&gt;Node3</title>
<path fill="none" stroke="#63b8ff" d="M241.08,-72.95C258.39,-78.49 280.52,-85.57 300.99,-92.12"/>
<polygon fill="#63b8ff" stroke="#63b8ff" points="299.79,-95.41 310.38,-95.12 301.93,-88.74 299.79,-95.41"/>
</g>
<!-- Node6 -->
<g id="node6" class="node">
<title>Node6</title>
<g id="a_node6"><a xlink:href="../../de/d1e/classdoris_1_1_mem_tracker_limiter.html#a374c86955dec8be60a072d81ab2143aa" target="_top" xlink:title=" ">
<polygon fill="white" stroke="#666666" points="425,-78 297,-78 297,-48 425,-48 425,-78"/>
<text text-anchor="start" x="305" y="-66" font-family="Helvetica,sans-Serif" font-size="10.00">doris::MemTrackerLimiter</text>
<text text-anchor="middle" x="361" y="-55" font-family="Helvetica,sans-Serif" font-size="10.00">::log_usage</text>
</a>
</g>
</g>
<!-- Node2&#45;&gt;Node6 -->
<g id="edge5" class="edge">
<title>Node2&#45;&gt;Node6</title>
<path fill="none" stroke="#63b8ff" d="M257.46,-63C266.31,-63 275.75,-63 285.19,-63"/>
<polygon fill="#63b8ff" stroke="#63b8ff" points="285.14,-66.5 295.14,-63 285.14,-59.5 285.14,-66.5"/>
</g>
<!-- Node4 -->
<g id="node4" class="node">
<title>Node4</title>
<g id="a_node4"><a xlink:href="../../d4/d22/classdoris_1_1_mem_tracker.html#afddbd1c6484c2068e82258ab23478339" target="_top" xlink:title=" ">
<polygon fill="white" stroke="#666666" points="565,-102 461,-102 461,-72 565,-72 565,-102"/>
<text text-anchor="start" x="469" y="-90" font-family="Helvetica,sans-Serif" font-size="10.00">doris::MemTracker::</text>
<text text-anchor="middle" x="513" y="-79" font-family="Helvetica,sans-Serif" font-size="10.00">print_bytes</text>
</a>
</g>
</g>
<!-- Node3&#45;&gt;Node4 -->
<g id="edge3" class="edge">
<title>Node3&#45;&gt;Node4</title>
<path fill="none" stroke="#63b8ff" d="M413.2,-102.81C424.78,-100.96 437.2,-98.97 449.19,-97.05"/>
<polygon fill="#63b8ff" stroke="#63b8ff" points="449.7,-100.51 459.02,-95.48 448.6,-93.6 449.7,-100.51"/>
</g>
<!-- Node5 -->
<g id="node5" class="node">
<title>Node5</title>
<g id="a_node5"><a xlink:href="../../d4/db8/classdoris_1_1_pretty_printer.html#aaa3ce08858081586e0f1e563733cadf2" target="_top" xlink:title=" ">
<polygon fill="white" stroke="#666666" points="699,-102 601,-102 601,-72 699,-72 699,-102"/>
<text text-anchor="start" x="609" y="-90" font-family="Helvetica,sans-Serif" font-size="10.00">doris::PrettyPrinter</text>
<text text-anchor="middle" x="650" y="-79" font-family="Helvetica,sans-Serif" font-size="10.00">::print</text>
</a>
</g>
</g>
<!-- Node4&#45;&gt;Node5 -->
<g id="edge4" class="edge">
<title>Node4&#45;&gt;Node5</title>
<path fill="none" stroke="#63b8ff" d="M565.42,-87C573.32,-87 581.54,-87 589.59,-87"/>
<polygon fill="#63b8ff" stroke="#63b8ff" points="589.32,-90.5 599.32,-87 589.32,-83.5 589.32,-90.5"/>
</g>
<!-- Node6&#45;&gt;Node4 -->
<g id="edge6" class="edge">
<title>Node6&#45;&gt;Node4</title>
<path fill="none" stroke="#63b8ff" d="M425.18,-73.11C433.23,-74.4 441.47,-75.72 449.52,-77"/>
<polygon fill="#63b8ff" stroke="#63b8ff" points="448.79,-80.43 459.22,-78.56 449.9,-73.52 448.79,-80.43"/>
</g>
<!-- Node8 -->
<g id="node8" class="node">
<title>Node8</title>
<g id="a_node8"><a xlink:href="../../d4/d22/classdoris_1_1_mem_tracker.html#a478672779d1bbdb836cecbdb6e78659a" target="_top" xlink:title=" ">
<polygon fill="white" stroke="#666666" points="413,-30 309,-30 309,0 413,0 413,-30"/>
<text text-anchor="start" x="317" y="-18" font-family="Helvetica,sans-Serif" font-size="10.00">doris::MemTracker::</text>
<text text-anchor="middle" x="361" y="-7" font-family="Helvetica,sans-Serif" font-size="10.00">consume</text>
</a>
</g>
</g>
<!-- Node7&#45;&gt;Node8 -->
<g id="edge8" class="edge">
<title>Node7&#45;&gt;Node8</title>
<path fill="none" stroke="#63b8ff" d="M261.2,-16.98C272.78,-16.74 285.2,-16.5 297.19,-16.26"/>
<polygon fill="#63b8ff" stroke="#63b8ff" points="297.08,-19.76 307.01,-16.06 296.94,-12.76 297.08,-19.76"/>
</g>
</g>
</svg>
