<?xml version="1.0" encoding="UTF-8" standalone="no"?>
<!DOCTYPE svg PUBLIC "-//W3C//DTD SVG 1.1//EN"
 "http://www.w3.org/Graphics/SVG/1.1/DTD/svg11.dtd">
<!-- Generated by graphviz version 7.1.0 (20230121.1956)
 -->
<!-- Title: 类继承关系图 Pages: 1 -->
<svg width="180pt" height="64pt"
 viewBox="0.00 0.00 180.00 64.00" xmlns="http://www.w3.org/2000/svg" xmlns:xlink="http://www.w3.org/1999/xlink">
<g id="graph0" class="graph" transform="scale(1 1) rotate(0) translate(4 60)">
<title>类继承关系图</title>
<!-- Node0 -->
<g id="node1" class="node">
<title>Node0</title>
<g id="a_node1"><a xlink:href="d4/d98/classdoris_1_1_type_info.html" target="_top" xlink:title=" ">
<polygon fill="white" stroke="#666666" points="54,-37 0,-37 0,-18 54,-18 54,-37"/>
<text text-anchor="middle" x="27" y="-25" font-family="Helvetica,sans-Serif" font-size="10.00">TypeInfo</text>
</a>
</g>
</g>
<!-- Node1 -->
<g id="node2" class="node">
<title>Node1</title>
<g id="a_node2"><a xlink:href="de/d2f/classdoris_1_1_array_type_info.html" target="_top" xlink:title=" ">
<polygon fill="white" stroke="#666666" points="169.5,-56 92.5,-56 92.5,-37 169.5,-37 169.5,-56"/>
<text text-anchor="middle" x="131" y="-44" font-family="Helvetica,sans-Serif" font-size="10.00">ArrayTypeInfo</text>
</a>
</g>
</g>
<!-- Node0&#45;&gt;Node1 -->
<g id="edge1" class="edge">
<title>Node0&#45;&gt;Node1</title>
<path fill="none" stroke="#63b8ff" d="M65.37,-34.46C74.14,-36.1 83.5,-37.84 92.29,-39.47"/>
<polygon fill="#63b8ff" stroke="#63b8ff" points="66.23,-31.06 55.76,-32.67 64.95,-37.94 66.23,-31.06"/>
</g>
<!-- Node2 -->
<g id="node3" class="node">
<title>Node2</title>
<g id="a_node3"><a xlink:href="d6/d79/classdoris_1_1_scalar_type_info.html" target="_top" xlink:title=" ">
<polygon fill="white" stroke="#666666" points="172,-19 90,-19 90,0 172,0 172,-19"/>
<text text-anchor="middle" x="131" y="-7" font-family="Helvetica,sans-Serif" font-size="10.00">ScalarTypeInfo</text>
</a>
</g>
</g>
<!-- Node0&#45;&gt;Node2 -->
<g id="edge2" class="edge">
<title>Node0&#45;&gt;Node2</title>
<path fill="none" stroke="#63b8ff" d="M65.37,-20.91C73.24,-19.52 81.58,-18.04 89.56,-16.64"/>
<polygon fill="#63b8ff" stroke="#63b8ff" points="65,-17.42 55.76,-22.6 66.21,-24.31 65,-17.42"/>
</g>
</g>
</svg>
