<?xml version="1.0" encoding="UTF-8" standalone="no"?>
<!DOCTYPE svg PUBLIC "-//W3C//DTD SVG 1.1//EN"
 "http://www.w3.org/Graphics/SVG/1.1/DTD/svg11.dtd">
<!-- Generated by graphviz version 7.1.0 (20230121.1956)
 -->
<!-- Title: update Pages: 1 -->
<svg width="328pt" height="76pt"
 viewBox="0.00 0.00 328.00 75.50" xmlns="http://www.w3.org/2000/svg" xmlns:xlink="http://www.w3.org/1999/xlink">
<g id="graph0" class="graph" transform="scale(1 1) rotate(0) translate(4 71.5)">
<title>update</title>
<!-- Node1 -->
<g id="node1" class="node">
<title>Node1</title>
<g id="a_node1"><a xlink:title=" ">
<polygon fill="#999999" stroke="#666666" points="46,-40 0,-40 0,-21 46,-21 46,-40"/>
<text text-anchor="middle" x="23" y="-28" font-family="Helvetica,sans-Serif" font-size="10.00">update</text>
</a>
</g>
</g>
<!-- Node2 -->
<g id="node2" class="node">
<title>Node2</title>
<g id="a_node2"><a xlink:href="../../d6/d34/classdoris_1_1vectorized_1_1_field.html#a54e61d2bb6c2a58d7b98180555af09e4" target="_top" xlink:title=" ">
<polygon fill="white" stroke="#666666" points="177,-67.5 82,-67.5 82,-37.5 177,-37.5 177,-67.5"/>
<text text-anchor="start" x="90" y="-55.5" font-family="Helvetica,sans-Serif" font-size="10.00">doris::vectorized::</text>
<text text-anchor="middle" x="129.5" y="-44.5" font-family="Helvetica,sans-Serif" font-size="10.00">Field::is_null</text>
</a>
</g>
</g>
<!-- Node1&#45;&gt;Node2 -->
<g id="edge1" class="edge">
<title>Node1&#45;&gt;Node2</title>
<path fill="none" stroke="#63b8ff" d="M46.42,-35.22C53.59,-36.73 61.89,-38.48 70.4,-40.27"/>
<polygon fill="#63b8ff" stroke="#63b8ff" points="69.64,-43.69 80.15,-42.32 71.08,-36.84 69.64,-43.69"/>
</g>
<!-- Node3 -->
<g id="node3" class="node">
<title>Node3</title>
<g id="a_node3"><a xlink:href="../../d9/d8d/classdoris_1_1_status.html#a6ec1a217f203269ab53d2290d602db24" target="_top" xlink:title=" ">
<polygon fill="white" stroke="#666666" points="175.5,-19 83.5,-19 83.5,0 175.5,0 175.5,-19"/>
<text text-anchor="middle" x="129.5" y="-7" font-family="Helvetica,sans-Serif" font-size="10.00">doris::Status::OK</text>
</a>
</g>
</g>
<!-- Node1&#45;&gt;Node3 -->
<g id="edge2" class="edge">
<title>Node1&#45;&gt;Node3</title>
<path fill="none" stroke="#63b8ff" d="M46.42,-25.99C54.09,-24.45 63.06,-22.65 72.19,-20.82"/>
<polygon fill="#63b8ff" stroke="#63b8ff" points="72.74,-24.28 81.85,-18.87 71.36,-17.41 72.74,-24.28"/>
</g>
<!-- Node4 -->
<g id="node4" class="node">
<title>Node4</title>
<g id="a_node4"><a xlink:href="../../d9/d8d/classdoris_1_1_status.html#aafde58df1b2a6a91d5b674373be3ffc5" target="_top" xlink:title=" ">
<polygon fill="white" stroke="#666666" points="320,-19 213,-19 213,0 320,0 320,-19"/>
<text text-anchor="middle" x="266.5" y="-7" font-family="Helvetica,sans-Serif" font-size="10.00">doris::Status::Status</text>
</a>
</g>
</g>
<!-- Node3&#45;&gt;Node4 -->
<g id="edge3" class="edge">
<title>Node3&#45;&gt;Node4</title>
<path fill="none" stroke="#63b8ff" d="M175.83,-9.5C184.03,-9.5 192.72,-9.5 201.34,-9.5"/>
<polygon fill="#63b8ff" stroke="#63b8ff" points="201.07,-13 211.07,-9.5 201.07,-6 201.07,-13"/>
</g>
</g>
</svg>
