<?xml version="1.0" encoding="UTF-8" standalone="no"?>
<!DOCTYPE svg PUBLIC "-//W3C//DTD SVG 1.1//EN"
 "http://www.w3.org/Graphics/SVG/1.1/DTD/svg11.dtd">
<!-- Generated by graphviz version 7.1.0 (20230121.1956)
 -->
<!-- Title: open Pages: 1 -->
<svg width="911pt" height="687pt"
 viewBox="0.00 0.00 911.00 686.50" xmlns="http://www.w3.org/2000/svg" xmlns:xlink="http://www.w3.org/1999/xlink">
<g id="graph0" class="graph" transform="scale(1 1) rotate(0) translate(4 682.5)">
<title>open</title>
<!-- Node1 -->
<g id="node1" class="node">
<title>Node1</title>
<g id="a_node1"><a xlink:title=" ">
<polygon fill="#999999" stroke="#666666" points="38,-145.5 0,-145.5 0,-126.5 38,-126.5 38,-145.5"/>
<text text-anchor="middle" x="19" y="-133.5" font-family="Helvetica,sans-Serif" font-size="10.00">open</text>
</a>
</g>
</g>
<!-- Node2 -->
<g id="node2" class="node">
<title>Node2</title>
<g id="a_node2"><a xlink:href="../../dd/da0/classdoris_1_1_base_scanner.html#a2059dd928a85c0bed0023d2ae99b1e36" target="_top" xlink:title=" ">
<polygon fill="white" stroke="#666666" points="157,-282.5 74,-282.5 74,-263.5 157,-263.5 157,-282.5"/>
<text text-anchor="middle" x="115.5" y="-270.5" font-family="Helvetica,sans-Serif" font-size="10.00">init_expr_ctxes</text>
</a>
</g>
</g>
<!-- Node1&#45;&gt;Node2 -->
<g id="edge1" class="edge">
<title>Node1&#45;&gt;Node2</title>
<path fill="none" stroke="#63b8ff" d="M26.8,-145.85C42.39,-168.46 80.98,-224.4 101.38,-253.97"/>
<polygon fill="#63b8ff" stroke="#63b8ff" points="98.35,-255.75 106.91,-261.99 104.11,-251.77 98.35,-255.75"/>
</g>
<!-- Node7 -->
<g id="node7" class="node">
<title>Node7</title>
<g id="a_node7"><a xlink:href="../../d9/d8d/classdoris_1_1_status.html#a6ec1a217f203269ab53d2290d602db24" target="_top" xlink:title=" ">
<polygon fill="white" stroke="#666666" points="749.5,-489.5 657.5,-489.5 657.5,-470.5 749.5,-470.5 749.5,-489.5"/>
<text text-anchor="middle" x="703.5" y="-477.5" font-family="Helvetica,sans-Serif" font-size="10.00">doris::Status::OK</text>
</a>
</g>
</g>
<!-- Node1&#45;&gt;Node7 -->
<g id="edge30" class="edge">
<title>Node1&#45;&gt;Node7</title>
<path fill="none" stroke="#63b8ff" d="M28.66,-126.22C57.29,-95.04 152.77,0 253,0 253,0 253,0 413.5,0 631.13,0 689.1,-366.64 700.26,-459.05"/>
<polygon fill="#63b8ff" stroke="#63b8ff" points="696.77,-459.37 701.38,-468.91 703.72,-458.58 696.77,-459.37"/>
</g>
<!-- Node3 -->
<g id="node3" class="node">
<title>Node3</title>
<g id="a_node3"><a xlink:href="../../d0/d2e/classdoris_1_1vectorized_1_1_v_expr.html#a8768a470a00ddf2aaf2bfd304746c382" target="_top" xlink:title=" ">
<polygon fill="white" stroke="#666666" points="315,-582 193,-582 193,-552 315,-552 315,-582"/>
<text text-anchor="start" x="201" y="-570" font-family="Helvetica,sans-Serif" font-size="10.00">doris::vectorized::</text>
<text text-anchor="middle" x="254" y="-559" font-family="Helvetica,sans-Serif" font-size="10.00">VExpr::create_expr_tree</text>
</a>
</g>
</g>
<!-- Node2&#45;&gt;Node3 -->
<g id="edge2" class="edge">
<title>Node2&#45;&gt;Node3</title>
<path fill="none" stroke="#63b8ff" d="M117.36,-282.99C120.84,-318.63 136.57,-441.72 193,-522 199.16,-530.76 207.55,-538.54 216.11,-545.06"/>
<polygon fill="#63b8ff" stroke="#63b8ff" points="213.95,-547.82 224.13,-550.75 218,-542.11 213.95,-547.82"/>
</g>
<!-- Node2&#45;&gt;Node7 -->
<g id="edge17" class="edge">
<title>Node2&#45;&gt;Node7</title>
<path fill="none" stroke="#63b8ff" d="M116.37,-282.56C116.5,-317.51 122.18,-438.95 193,-489 264.32,-539.4 528.66,-506.71 645.89,-489.11"/>
<polygon fill="#63b8ff" stroke="#63b8ff" points="646.24,-492.6 655.6,-487.64 645.19,-485.68 646.24,-492.6"/>
</g>
<!-- Node10 -->
<g id="node10" class="node">
<title>Node10</title>
<g id="a_node10"><a xlink:href="../../db/de8/classdoris_1_1_table_descriptor.html#a8e4dbeb1e43034f6d4519e9b9faf911f" target="_top" xlink:title=" ">
<polygon fill="white" stroke="#666666" points="310,-480 198,-480 198,-450 310,-450 310,-480"/>
<text text-anchor="start" x="206" y="-468" font-family="Helvetica,sans-Serif" font-size="10.00">doris::TableDescriptor</text>
<text text-anchor="middle" x="254" y="-457" font-family="Helvetica,sans-Serif" font-size="10.00">::database</text>
</a>
</g>
</g>
<!-- Node2&#45;&gt;Node10 -->
<g id="edge12" class="edge">
<title>Node2&#45;&gt;Node10</title>
<path fill="none" stroke="#63b8ff" d="M118.31,-282.82C124.02,-311.25 144.31,-394.54 193,-441 193.75,-441.71 194.52,-442.4 195.31,-443.07"/>
<polygon fill="#63b8ff" stroke="#63b8ff" points="193.04,-445.76 203.23,-448.67 197.08,-440.04 193.04,-445.76"/>
</g>
<!-- Node11 -->
<g id="node11" class="node">
<title>Node11</title>
<g id="a_node11"><a xlink:href="../../d7/dc1/classdoris_1_1_runtime_state.html#a30658623d7910cf0bc08751d2476b2d8" target="_top" xlink:title=" ">
<polygon fill="white" stroke="#666666" points="306,-432 202,-432 202,-402 306,-402 306,-432"/>
<text text-anchor="start" x="210" y="-420" font-family="Helvetica,sans-Serif" font-size="10.00">doris::RuntimeState</text>
<text text-anchor="middle" x="254" y="-409" font-family="Helvetica,sans-Serif" font-size="10.00">::desc_tbl</text>
</a>
</g>
</g>
<!-- Node2&#45;&gt;Node11 -->
<g id="edge13" class="edge">
<title>Node2&#45;&gt;Node11</title>
<path fill="none" stroke="#63b8ff" d="M120.28,-282.85C129.41,-305.41 154.76,-361.32 193,-393 194.09,-393.91 195.23,-394.78 196.39,-395.63"/>
<polygon fill="#63b8ff" stroke="#63b8ff" points="194.21,-398.39 204.55,-400.73 197.92,-392.46 194.21,-398.39"/>
</g>
<!-- Node12 -->
<g id="node12" class="node">
<title>Node12</title>
<g id="a_node12"><a xlink:href="../../da/d43/classdoris_1_1_descriptor_tbl.html#afe6eb6a823dd3fc7d47f2fd8a43e4f33" target="_top" xlink:title=" ">
<polygon fill="white" stroke="#666666" points="309,-384 199,-384 199,-354 309,-354 309,-384"/>
<text text-anchor="start" x="207" y="-372" font-family="Helvetica,sans-Serif" font-size="10.00">doris::DescriptorTbl</text>
<text text-anchor="middle" x="254" y="-361" font-family="Helvetica,sans-Serif" font-size="10.00">::get_tuple_descriptor</text>
</a>
</g>
</g>
<!-- Node2&#45;&gt;Node12 -->
<g id="edge14" class="edge">
<title>Node2&#45;&gt;Node12</title>
<path fill="none" stroke="#63b8ff" d="M124.75,-282.85C137.86,-297.97 164.86,-327.05 193,-345 194.84,-346.18 196.76,-347.31 198.71,-348.41"/>
<polygon fill="#63b8ff" stroke="#63b8ff" points="196.94,-351.43 207.44,-352.86 200.12,-345.2 196.94,-351.43"/>
</g>
<!-- Node13 -->
<g id="node13" class="node">
<title>Node13</title>
<g id="a_node13"><a xlink:href="../../db/de8/classdoris_1_1_table_descriptor.html#a24dcbf29c0d6cd766009a182a6484e3b" target="_top" xlink:title=" ">
<polygon fill="white" stroke="#666666" points="310,-336 198,-336 198,-306 310,-306 310,-336"/>
<text text-anchor="start" x="206" y="-324" font-family="Helvetica,sans-Serif" font-size="10.00">doris::TableDescriptor</text>
<text text-anchor="middle" x="254" y="-313" font-family="Helvetica,sans-Serif" font-size="10.00">::name</text>
</a>
</g>
</g>
<!-- Node2&#45;&gt;Node13 -->
<g id="edge15" class="edge">
<title>Node2&#45;&gt;Node13</title>
<path fill="none" stroke="#63b8ff" d="M144.78,-282.95C160.32,-288.41 180.12,-295.37 198.53,-301.85"/>
<polygon fill="#63b8ff" stroke="#63b8ff" points="197.14,-305.07 207.73,-305.08 199.46,-298.46 197.14,-305.07"/>
</g>
<!-- Node14 -->
<g id="node14" class="node">
<title>Node14</title>
<g id="a_node14"><a xlink:href="../../d7/dc1/classdoris_1_1_runtime_state.html#addf405633a735cd050e8128bdaebbecb" target="_top" xlink:title=" ">
<polygon fill="white" stroke="#666666" points="306,-288 202,-288 202,-258 306,-258 306,-288"/>
<text text-anchor="start" x="210" y="-276" font-family="Helvetica,sans-Serif" font-size="10.00">doris::RuntimeState</text>
<text text-anchor="middle" x="254" y="-265" font-family="Helvetica,sans-Serif" font-size="10.00">::obj_pool</text>
</a>
</g>
</g>
<!-- Node2&#45;&gt;Node14 -->
<g id="edge16" class="edge">
<title>Node2&#45;&gt;Node14</title>
<path fill="none" stroke="#63b8ff" d="M157.45,-273C167.94,-273 179.45,-273 190.74,-273"/>
<polygon fill="#63b8ff" stroke="#63b8ff" points="190.4,-276.5 200.4,-273 190.4,-269.5 190.4,-276.5"/>
</g>
<!-- Node15 -->
<g id="node15" class="node">
<title>Node15</title>
<g id="a_node15"><a xlink:href="../../d6/daf/classdoris_1_1vectorized_1_1_v_expr_context.html#a1626ed2dd8f7ca4996174e33d0e336ed" target="_top" xlink:title=" ">
<polygon fill="white" stroke="#666666" points="465,-415 360,-415 360,-385 465,-385 465,-415"/>
<text text-anchor="start" x="368" y="-403" font-family="Helvetica,sans-Serif" font-size="10.00">doris::vectorized::</text>
<text text-anchor="middle" x="412.5" y="-392" font-family="Helvetica,sans-Serif" font-size="10.00">VExprContext::open</text>
</a>
</g>
</g>
<!-- Node2&#45;&gt;Node15 -->
<g id="edge18" class="edge">
<title>Node2&#45;&gt;Node15</title>
<path fill="none" stroke="#63b8ff" d="M136.85,-263.12C174.55,-246.34 256.7,-217.07 315,-249 363.75,-275.7 391.46,-338.68 403.75,-374.3"/>
<polygon fill="#63b8ff" stroke="#63b8ff" points="400.29,-374.97 406.73,-383.38 406.94,-372.79 400.29,-374.97"/>
</g>
<!-- Node17 -->
<g id="node17" class="node">
<title>Node17</title>
<g id="a_node17"><a xlink:href="../../d6/daf/classdoris_1_1vectorized_1_1_v_expr_context.html#ab8d96cf12c329fd904a38c11ff86c3ad" target="_top" xlink:title=" ">
<polygon fill="white" stroke="#666666" points="312,-202 196,-202 196,-172 312,-172 312,-202"/>
<text text-anchor="start" x="204" y="-190" font-family="Helvetica,sans-Serif" font-size="10.00">doris::vectorized::</text>
<text text-anchor="middle" x="254" y="-179" font-family="Helvetica,sans-Serif" font-size="10.00">VExprContext::prepare</text>
</a>
</g>
</g>
<!-- Node2&#45;&gt;Node17 -->
<g id="edge23" class="edge">
<title>Node2&#45;&gt;Node17</title>
<path fill="none" stroke="#63b8ff" d="M128.19,-263.18C142.79,-251.19 168.79,-230.69 193,-216 197.82,-213.07 202.98,-210.21 208.18,-207.49"/>
<polygon fill="#63b8ff" stroke="#63b8ff" points="209.44,-210.78 216.79,-203.15 206.28,-204.53 209.44,-210.78"/>
</g>
<!-- Node19 -->
<g id="node19" class="node">
<title>Node19</title>
<g id="a_node19"><a xlink:href="../../d6/d50/classdoris_1_1_tuple_descriptor.html#ad440a6362417a001b2e0a11fb0fc54e9" target="_top" xlink:title=" ">
<polygon fill="white" stroke="#666666" points="310.5,-154 197.5,-154 197.5,-124 310.5,-124 310.5,-154"/>
<text text-anchor="start" x="205.5" y="-142" font-family="Helvetica,sans-Serif" font-size="10.00">doris::TupleDescriptor</text>
<text text-anchor="middle" x="254" y="-131" font-family="Helvetica,sans-Serif" font-size="10.00">::slots</text>
</a>
</g>
</g>
<!-- Node2&#45;&gt;Node19 -->
<g id="edge27" class="edge">
<title>Node2&#45;&gt;Node19</title>
<path fill="none" stroke="#63b8ff" d="M120.95,-263.03C130.9,-241.79 156.95,-191.67 193,-163 194.14,-162.1 195.31,-161.22 196.52,-160.38"/>
<polygon fill="#63b8ff" stroke="#63b8ff" points="198.24,-163.43 204.98,-155.25 194.61,-157.44 198.24,-163.43"/>
</g>
<!-- Node20 -->
<g id="node20" class="node">
<title>Node20</title>
<g id="a_node20"><a xlink:href="../../d6/d50/classdoris_1_1_tuple_descriptor.html#a1b423842524f5db006beb458e96502ed" target="_top" xlink:title=" ">
<polygon fill="white" stroke="#666666" points="310.5,-106 197.5,-106 197.5,-76 310.5,-76 310.5,-106"/>
<text text-anchor="start" x="205.5" y="-94" font-family="Helvetica,sans-Serif" font-size="10.00">doris::TupleDescriptor</text>
<text text-anchor="middle" x="254" y="-83" font-family="Helvetica,sans-Serif" font-size="10.00">::table_desc</text>
</a>
</g>
</g>
<!-- Node2&#45;&gt;Node20 -->
<g id="edge28" class="edge">
<title>Node2&#45;&gt;Node20</title>
<path fill="none" stroke="#63b8ff" d="M118.58,-263.37C124.9,-236.26 146.4,-158.43 193,-115 193.77,-114.28 194.57,-113.58 195.39,-112.9"/>
<polygon fill="#63b8ff" stroke="#63b8ff" points="197.36,-115.79 203.59,-107.23 193.38,-110.04 197.36,-115.79"/>
</g>
<!-- Node21 -->
<g id="node21" class="node">
<title>Node21</title>
<g id="a_node21"><a xlink:href="../../db/de8/classdoris_1_1_table_descriptor.html#a863a34d76f9cba34a7bc3714a20660ea" target="_top" xlink:title=" ">
<polygon fill="white" stroke="#666666" points="310,-58 198,-58 198,-28 310,-28 310,-58"/>
<text text-anchor="start" x="206" y="-46" font-family="Helvetica,sans-Serif" font-size="10.00">doris::TableDescriptor</text>
<text text-anchor="middle" x="254" y="-35" font-family="Helvetica,sans-Serif" font-size="10.00">::table_id</text>
</a>
</g>
</g>
<!-- Node2&#45;&gt;Node21 -->
<g id="edge29" class="edge">
<title>Node2&#45;&gt;Node21</title>
<path fill="none" stroke="#63b8ff" d="M117.35,-263.36C120.7,-231.11 135.73,-125.72 193,-67 193.6,-66.38 194.22,-65.78 194.86,-65.19"/>
<polygon fill="#63b8ff" stroke="#63b8ff" points="196.82,-68.1 202.71,-59.29 192.61,-62.5 196.82,-68.1"/>
</g>
<!-- Node4 -->
<g id="node4" class="node">
<title>Node4</title>
<g id="a_node4"><a xlink:href="../../d0/d2e/classdoris_1_1vectorized_1_1_v_expr.html#af5bb8f98762f0a2d1e88cdf2369f356c" target="_top" xlink:title=" ">
<polygon fill="white" stroke="#666666" points="474,-660.5 351,-660.5 351,-619.5 474,-619.5 474,-660.5"/>
<text text-anchor="start" x="359" y="-648.5" font-family="Helvetica,sans-Serif" font-size="10.00">doris::vectorized::</text>
<text text-anchor="start" x="359" y="-637.5" font-family="Helvetica,sans-Serif" font-size="10.00">VExpr::create_tree_from</text>
<text text-anchor="middle" x="412.5" y="-626.5" font-family="Helvetica,sans-Serif" font-size="10.00">_thrift</text>
</a>
</g>
</g>
<!-- Node3&#45;&gt;Node4 -->
<g id="edge3" class="edge">
<title>Node3&#45;&gt;Node4</title>
<path fill="none" stroke="#63b8ff" d="M288.19,-582.48C307.95,-591.7 333.53,-603.63 356.27,-614.24"/>
<polygon fill="#63b8ff" stroke="#63b8ff" points="354.57,-617.31 365.11,-618.36 357.53,-610.96 354.57,-617.31"/>
</g>
<!-- Node3&#45;&gt;Node7 -->
<g id="edge10" class="edge">
<title>Node3&#45;&gt;Node7</title>
<path fill="none" stroke="#63b8ff" d="M315.42,-568.06C359.66,-567.85 420.98,-565.49 474,-556 536.82,-544.75 550.53,-533.39 611,-513 628.98,-506.94 648.81,-499.84 665.4,-493.78"/>
<polygon fill="#63b8ff" stroke="#63b8ff" points="666.18,-497.22 674.36,-490.49 663.76,-490.65 666.18,-497.22"/>
</g>
<!-- Node9 -->
<g id="node9" class="node">
<title>Node9</title>
<g id="a_node9"><a xlink:href="../../d9/d8d/classdoris_1_1_status.html#a03cb7eaa663dc83af68bc28a596d09e6" target="_top" xlink:title=" ">
<polygon fill="white" stroke="#666666" points="457,-546.5 368,-546.5 368,-527.5 457,-527.5 457,-546.5"/>
<text text-anchor="middle" x="412.5" y="-534.5" font-family="Helvetica,sans-Serif" font-size="10.00">doris::Status::ok</text>
</a>
</g>
</g>
<!-- Node3&#45;&gt;Node9 -->
<g id="edge11" class="edge">
<title>Node3&#45;&gt;Node9</title>
<path fill="none" stroke="#63b8ff" d="M315.06,-555.49C328.8,-552.85 343.33,-550.07 356.82,-547.48"/>
<polygon fill="#63b8ff" stroke="#63b8ff" points="357.23,-550.97 366.39,-545.65 355.91,-544.09 357.23,-550.97"/>
</g>
<!-- Node5 -->
<g id="node5" class="node">
<title>Node5</title>
<g id="a_node5"><a xlink:href="../../d8/da1/classdoris_1_1_object_pool.html#a034148f79c9a093574ce5b6a020283f8" target="_top" xlink:title=" ">
<polygon fill="white" stroke="#666666" points="760,-678.5 647,-678.5 647,-659.5 760,-659.5 760,-678.5"/>
<text text-anchor="middle" x="703.5" y="-666.5" font-family="Helvetica,sans-Serif" font-size="10.00">doris::ObjectPool::add</text>
</a>
</g>
</g>
<!-- Node4&#45;&gt;Node5 -->
<g id="edge4" class="edge">
<title>Node4&#45;&gt;Node5</title>
<path fill="none" stroke="#63b8ff" d="M466.58,-660.97C480.49,-665.53 495.62,-669.68 510,-672 551.27,-678.66 598.16,-678.1 635.32,-675.78"/>
<polygon fill="#63b8ff" stroke="#63b8ff" points="635.28,-679.29 645.02,-675.12 634.8,-672.31 635.28,-679.29"/>
</g>
<!-- Node6 -->
<g id="node6" class="node">
<title>Node6</title>
<g id="a_node6"><a xlink:href="../../d0/d2e/classdoris_1_1vectorized_1_1_v_expr.html#a08909ac305378f716eb9aef099f5b328" target="_top" xlink:title=" ">
<polygon fill="white" stroke="#666666" points="611,-663 510,-663 510,-633 611,-633 611,-663"/>
<text text-anchor="start" x="518" y="-651" font-family="Helvetica,sans-Serif" font-size="10.00">doris::vectorized::</text>
<text text-anchor="middle" x="560.5" y="-640" font-family="Helvetica,sans-Serif" font-size="10.00">VExpr::create_expr</text>
</a>
</g>
</g>
<!-- Node4&#45;&gt;Node6 -->
<g id="edge5" class="edge">
<title>Node4&#45;&gt;Node6</title>
<path fill="none" stroke="#63b8ff" d="M474.15,-643.32C482.24,-643.77 490.55,-644.22 498.64,-644.67"/>
<polygon fill="#63b8ff" stroke="#63b8ff" points="498.22,-648.15 508.4,-645.2 498.61,-641.16 498.22,-648.15"/>
</g>
<!-- Node4&#45;&gt;Node7 -->
<g id="edge9" class="edge">
<title>Node4&#45;&gt;Node7</title>
<path fill="none" stroke="#63b8ff" d="M474.07,-630.74C515.1,-622.42 569.22,-607.34 611,-581 645.02,-559.55 674.2,-522.06 689.97,-499.29"/>
<polygon fill="#63b8ff" stroke="#63b8ff" points="692.72,-501.47 695.4,-491.22 686.91,-497.57 692.72,-501.47"/>
</g>
<!-- Node6&#45;&gt;Node5 -->
<g id="edge6" class="edge">
<title>Node6&#45;&gt;Node5</title>
<path fill="none" stroke="#63b8ff" d="M611.21,-655.4C618.97,-656.56 627.1,-657.77 635.17,-658.97"/>
<polygon fill="#63b8ff" stroke="#63b8ff" points="634.6,-662.43 645.01,-660.44 635.63,-655.5 634.6,-662.43"/>
</g>
<!-- Node6&#45;&gt;Node7 -->
<g id="edge7" class="edge">
<title>Node6&#45;&gt;Node7</title>
<path fill="none" stroke="#63b8ff" d="M592.88,-632.56C599.26,-628.64 605.65,-624.07 611,-619 648.74,-583.18 678.66,-528.97 693.09,-499.97"/>
<polygon fill="#63b8ff" stroke="#63b8ff" points="696.12,-501.74 697.34,-491.21 689.82,-498.68 696.12,-501.74"/>
</g>
<!-- Node8 -->
<g id="node8" class="node">
<title>Node8</title>
<g id="a_node8"><a xlink:href="../../d9/d8d/classdoris_1_1_status.html#aafde58df1b2a6a91d5b674373be3ffc5" target="_top" xlink:title=" ">
<polygon fill="white" stroke="#666666" points="903,-489.5 796,-489.5 796,-470.5 903,-470.5 903,-489.5"/>
<text text-anchor="middle" x="849.5" y="-477.5" font-family="Helvetica,sans-Serif" font-size="10.00">doris::Status::Status</text>
</a>
</g>
</g>
<!-- Node7&#45;&gt;Node8 -->
<g id="edge8" class="edge">
<title>Node7&#45;&gt;Node8</title>
<path fill="none" stroke="#63b8ff" d="M749.67,-480C760.62,-480 772.53,-480 784.18,-480"/>
<polygon fill="#63b8ff" stroke="#63b8ff" points="784.17,-483.5 794.17,-480 784.17,-476.5 784.17,-483.5"/>
</g>
<!-- Node15&#45;&gt;Node7 -->
<g id="edge19" class="edge">
<title>Node15&#45;&gt;Node7</title>
<path fill="none" stroke="#63b8ff" d="M444.14,-415.36C462.8,-424.2 487.33,-434.92 510,-442 554.84,-456 607.22,-465.95 646.01,-472.14"/>
<polygon fill="#63b8ff" stroke="#63b8ff" points="645.17,-475.55 655.59,-473.63 646.25,-468.63 645.17,-475.55"/>
</g>
<!-- Node16 -->
<g id="node16" class="node">
<title>Node16</title>
<g id="a_node16"><a xlink:href="../../d0/d2e/classdoris_1_1vectorized_1_1_v_expr.html#a23dd992dfdd884ef1afbc0573712ad5b" target="_top" xlink:title=" ">
<polygon fill="white" stroke="#666666" points="608,-415 513,-415 513,-385 608,-385 608,-415"/>
<text text-anchor="start" x="521" y="-403" font-family="Helvetica,sans-Serif" font-size="10.00">doris::vectorized::</text>
<text text-anchor="middle" x="560.5" y="-392" font-family="Helvetica,sans-Serif" font-size="10.00">VExpr::open</text>
</a>
</g>
</g>
<!-- Node15&#45;&gt;Node16 -->
<g id="edge20" class="edge">
<title>Node15&#45;&gt;Node16</title>
<path fill="none" stroke="#63b8ff" d="M465.39,-400C477.06,-400 489.53,-400 501.44,-400"/>
<polygon fill="#63b8ff" stroke="#63b8ff" points="501.13,-403.5 511.13,-400 501.13,-396.5 501.13,-403.5"/>
</g>
<!-- Node16&#45;&gt;Node7 -->
<g id="edge21" class="edge">
<title>Node16&#45;&gt;Node7</title>
<path fill="none" stroke="#63b8ff" d="M588.69,-415.42C613.61,-429.57 650.34,-450.4 675.28,-464.55"/>
<polygon fill="#63b8ff" stroke="#63b8ff" points="673.43,-467.53 683.86,-469.42 676.89,-461.44 673.43,-467.53"/>
</g>
<!-- Node16&#45;&gt;Node16 -->
<g id="edge22" class="edge">
<title>Node16&#45;&gt;Node16</title>
<path fill="none" stroke="#63b8ff" d="M535.36,-415.28C529.78,-424.41 538.16,-433 560.5,-433 572.72,-433 580.76,-430.43 584.63,-426.61"/>
<polygon fill="#63b8ff" stroke="#63b8ff" points="588.1,-427.05 585.5,-416.78 581.13,-426.43 588.1,-427.05"/>
</g>
<!-- Node18 -->
<g id="node18" class="node">
<title>Node18</title>
<g id="a_node18"><a xlink:href="../../d0/d2e/classdoris_1_1vectorized_1_1_v_expr.html#a26d52937535a52c99b0dd722dcae516b" target="_top" xlink:title=" ">
<polygon fill="white" stroke="#666666" points="608,-280 513,-280 513,-250 608,-250 608,-280"/>
<text text-anchor="start" x="521" y="-268" font-family="Helvetica,sans-Serif" font-size="10.00">doris::vectorized::</text>
<text text-anchor="middle" x="560.5" y="-257" font-family="Helvetica,sans-Serif" font-size="10.00">VExpr::prepare</text>
</a>
</g>
</g>
<!-- Node17&#45;&gt;Node18 -->
<g id="edge24" class="edge">
<title>Node17&#45;&gt;Node18</title>
<path fill="none" stroke="#63b8ff" d="M312.27,-201.67C366.59,-215.58 447.76,-236.38 502.11,-250.3"/>
<polygon fill="#63b8ff" stroke="#63b8ff" points="500.92,-253.61 511.48,-252.7 502.66,-246.83 500.92,-253.61"/>
</g>
<!-- Node18&#45;&gt;Node7 -->
<g id="edge25" class="edge">
<title>Node18&#45;&gt;Node7</title>
<path fill="none" stroke="#63b8ff" d="M571.64,-280.46C596.85,-318.9 662.31,-418.72 689.92,-460.82"/>
<polygon fill="#63b8ff" stroke="#63b8ff" points="686.98,-462.72 695.39,-469.16 692.83,-458.88 686.98,-462.72"/>
</g>
<!-- Node18&#45;&gt;Node18 -->
<g id="edge26" class="edge">
<title>Node18&#45;&gt;Node18</title>
<path fill="none" stroke="#63b8ff" d="M535.36,-280.28C529.78,-289.41 538.16,-298 560.5,-298 572.72,-298 580.76,-295.43 584.63,-291.61"/>
<polygon fill="#63b8ff" stroke="#63b8ff" points="588.1,-292.05 585.5,-281.78 581.13,-291.43 588.1,-292.05"/>
</g>
</g>
</svg>
