<?xml version="1.0" encoding="UTF-8" standalone="no"?>
<!DOCTYPE svg PUBLIC "-//W3C//DTD SVG 1.1//EN"
 "http://www.w3.org/Graphics/SVG/1.1/DTD/svg11.dtd">
<!-- Generated by graphviz version 7.1.0 (20230121.1956)
 -->
<!-- Title: init_expr_ctxes Pages: 1 -->
<svg width="311pt" height="38pt"
 viewBox="0.00 0.00 311.00 38.00" xmlns="http://www.w3.org/2000/svg" xmlns:xlink="http://www.w3.org/1999/xlink">
<g id="graph0" class="graph" transform="scale(1 1) rotate(0) translate(4 34)">
<title>init_expr_ctxes</title>
<!-- Node1 -->
<g id="node1" class="node">
<title>Node1</title>
<g id="a_node1"><a xlink:title=" ">
<polygon fill="#999999" stroke="#666666" points="303,-24.5 220,-24.5 220,-5.5 303,-5.5 303,-24.5"/>
<text text-anchor="middle" x="261.5" y="-12.5" font-family="Helvetica,sans-Serif" font-size="10.00">init_expr_ctxes</text>
</a>
</g>
</g>
<!-- Node2 -->
<g id="node2" class="node">
<title>Node2</title>
<g id="a_node2"><a xlink:href="../../dd/da0/classdoris_1_1_base_scanner.html#afbfe7ce3274db0eff63382a83d559439" target="_top" xlink:title=" ">
<polygon fill="white" stroke="#666666" points="184,-24.5 146,-24.5 146,-5.5 184,-5.5 184,-24.5"/>
<text text-anchor="middle" x="165" y="-12.5" font-family="Helvetica,sans-Serif" font-size="10.00">open</text>
</a>
</g>
</g>
<!-- Node1&#45;&gt;Node2 -->
<g id="edge1" class="edge">
<title>Node1&#45;&gt;Node2</title>
<path fill="none" stroke="#63b8ff" d="M208.23,-15C199.6,-15 191.2,-15 184.19,-15"/>
<polygon fill="#63b8ff" stroke="#63b8ff" points="208.09,-18.5 218.09,-15 208.09,-11.5 208.09,-18.5"/>
</g>
<!-- Node3 -->
<g id="node3" class="node">
<title>Node3</title>
<g id="a_node3"><a xlink:href="../../da/daa/classdoris_1_1vectorized_1_1_v_arrow_scanner.html#a9226d1cc21f91bcd9ef7c05d6115cc73" target="_top" xlink:title=" ">
<polygon fill="white" stroke="#666666" points="110,-30 0,-30 0,0 110,0 110,-30"/>
<text text-anchor="start" x="8" y="-18" font-family="Helvetica,sans-Serif" font-size="10.00">doris::vectorized::</text>
<text text-anchor="middle" x="55" y="-7" font-family="Helvetica,sans-Serif" font-size="10.00">VArrowScanner::open</text>
</a>
</g>
</g>
<!-- Node2&#45;&gt;Node3 -->
<g id="edge2" class="edge">
<title>Node2&#45;&gt;Node3</title>
<path fill="none" stroke="#63b8ff" d="M134.33,-15C126.84,-15 118.57,-15 110.29,-15"/>
<polygon fill="#63b8ff" stroke="#63b8ff" points="134.17,-18.5 144.17,-15 134.17,-11.5 134.17,-18.5"/>
</g>
</g>
</svg>
