<?xml version="1.0" encoding="UTF-8" standalone="no"?>
<!DOCTYPE svg PUBLIC "-//W3C//DTD SVG 1.1//EN"
 "http://www.w3.org/Graphics/SVG/1.1/DTD/svg11.dtd">
<!-- Generated by graphviz version 7.1.0 (20230121.1956)
 -->
<!-- Title: _fill_columns_from_path Pages: 1 -->
<!--zoomable 429 -->
<svg id="main" version="1.1" xmlns="http://www.w3.org/2000/svg" xmlns:xlink="http://www.w3.org/1999/xlink" xml:space="preserve" onload="init(evt)">
<style type="text/css"><![CDATA[
.edge:hover path { stroke: red; }
.edge:hover polygon { stroke: red; fill: red; }
]]></style>
<script type="text/javascript"><![CDATA[
var edges = document.getElementsByTagName('g');
if (edges && edges.length) {
  for (var i=0;i<edges.length;i++) {
    if (edges[i].id.substr(0,4)=='edge') {
      edges[i].setAttribute('class','edge');
    }
  }
}
]]></script>
        <defs>
                <circle id="rim" cx="0" cy="0" r="7"/>
                <circle id="rim2" cx="0" cy="0" r="3.5"/>
                <g id="zoomPlus">
                        <use xlink:href="#rim" fill="#404040">
                                <set attributeName="fill" to="#808080" begin="zoomplus.mouseover" end="zoomplus.mouseout"/>
                        </use>
                        <path d="M-4,0h8M0,-4v8" fill="none" stroke="white" stroke-width="1.5" pointer-events="none"/>
                </g>
                <g id="zoomMin">
                        <use xlink:href="#rim" fill="#404040">
                                <set attributeName="fill" to="#808080" begin="zoomminus.mouseover" end="zoomminus.mouseout"/>
                        </use>
                        <path d="M-4,0h8" fill="none" stroke="white" stroke-width="1.5" pointer-events="none"/>
                </g>
                <g id="dirArrow">
                        <path fill="none" stroke="white" stroke-width="1.5" d="M0,-3.0v7 M-2.5,-0.5L0,-3.0L2.5,-0.5"/>
                </g>
               <g id="resetDef">
                       <use xlink:href="#rim2" fill="#404040">
                               <set attributeName="fill" to="#808080" begin="reset.mouseover" end="reset.mouseout"/>
                       </use>
               </g>
        </defs>

<script type="text/javascript">
var viewWidth = 754;
var viewHeight = 429;
var sectionId = 'dynsection-16';
</script>
<script xlink:href="../../svgpan.js"/>
<svg id="graph" class="graph">
<g id="viewport">
<title>_fill_columns_from_path</title>
<!-- Node1 -->
<g id="node1" class="node">
<title>Node1</title>
<g id="a_node1"><a xlink:title=" ">
<polygon fill="#999999" stroke="#666666" points="122,-105.5 0,-105.5 0,-86.5 122,-86.5 122,-105.5"/>
<text text-anchor="middle" x="61" y="-93.5" font-family="Helvetica,sans-Serif" font-size="10.00">_fill_columns_from_path</text>
</a>
</g>
</g>
<!-- Node2 -->
<g id="node2" class="node">
<title>Node2</title>
<g id="a_node2"><a xlink:href="../../d2/db6/classdoris_1_1vectorized_1_1_data_type_factory.html#ac7b04e0645cc8b7e94c48a7eb786b0a6" target="_top" xlink:title=" ">
<polygon fill="white" stroke="#666666" points="287.5,-203.5 162.5,-203.5 162.5,-162.5 287.5,-162.5 287.5,-203.5"/>
<text text-anchor="start" x="170.5" y="-191.5" font-family="Helvetica,sans-Serif" font-size="10.00">doris::vectorized::</text>
<text text-anchor="start" x="170.5" y="-180.5" font-family="Helvetica,sans-Serif" font-size="10.00">DataTypeFactory::create</text>
<text text-anchor="middle" x="225" y="-169.5" font-family="Helvetica,sans-Serif" font-size="10.00">_data_type</text>
</a>
</g>
</g>
<!-- Node1&#45;&gt;Node2 -->
<g id="edge1" class="edge">
<title>Node1&#45;&gt;Node2</title>
<path fill="none" stroke="#63b8ff" d="M77.33,-105.81C96.04,-117.62 128.79,-137.75 158,-153 160.68,-154.4 163.44,-155.8 166.23,-157.19"/>
<polygon fill="#63b8ff" stroke="#63b8ff" points="164.58,-160.28 175.11,-161.49 167.64,-153.98 164.58,-160.28"/>
</g>
<!-- Node17 -->
<g id="node17" class="node">
<title>Node17</title>
<g id="a_node17"><a xlink:href="../../d2/d12/classdoris_1_1vectorized_1_1_block.html#a77f369726854ebacb96fb49e7146e980" target="_top" xlink:title="insert the column at the specified position">
<polygon fill="white" stroke="#666666" points="272.5,-144 177.5,-144 177.5,-114 272.5,-114 272.5,-144"/>
<text text-anchor="start" x="185.5" y="-132" font-family="Helvetica,sans-Serif" font-size="10.00">doris::vectorized::</text>
<text text-anchor="middle" x="225" y="-121" font-family="Helvetica,sans-Serif" font-size="10.00">Block::insert</text>
</a>
</g>
</g>
<!-- Node1&#45;&gt;Node17 -->
<g id="edge17" class="edge">
<title>Node1&#45;&gt;Node17</title>
<path fill="none" stroke="#63b8ff" d="M111.04,-105.99C128.32,-109.51 147.89,-113.5 165.84,-117.15"/>
<polygon fill="#63b8ff" stroke="#63b8ff" points="165.09,-120.57 175.58,-119.14 166.48,-113.71 165.09,-120.57"/>
</g>
<!-- Node18 -->
<g id="node18" class="node">
<title>Node18</title>
<g id="a_node18"><a xlink:href="../../d2/db6/classdoris_1_1vectorized_1_1_data_type_factory.html#a33dbf017076ce5cda6f8e1e3665c207f" target="_top" xlink:title=" ">
<polygon fill="white" stroke="#666666" points="292,-78 158,-78 158,-48 292,-48 292,-78"/>
<text text-anchor="start" x="166" y="-66" font-family="Helvetica,sans-Serif" font-size="10.00">doris::vectorized::</text>
<text text-anchor="middle" x="225" y="-55" font-family="Helvetica,sans-Serif" font-size="10.00">DataTypeFactory::instance</text>
</a>
</g>
</g>
<!-- Node1&#45;&gt;Node18 -->
<g id="edge18" class="edge">
<title>Node1&#45;&gt;Node18</title>
<path fill="none" stroke="#63b8ff" d="M111.04,-86.01C122.31,-83.71 134.56,-81.22 146.69,-78.75"/>
<polygon fill="#63b8ff" stroke="#63b8ff" points="147.19,-82.22 156.29,-76.79 145.8,-75.36 147.19,-82.22"/>
</g>
<!-- Node19 -->
<g id="node19" class="node">
<title>Node19</title>
<g id="a_node19"><a xlink:href="../../d2/d12/classdoris_1_1vectorized_1_1_block.html#a9be86262d8ec3739dba5e0910c2339ad" target="_top" xlink:title="Returns number of rows from first column in block, not equal to nullptr. If no columns,...">
<polygon fill="white" stroke="#666666" points="272.5,-30 177.5,-30 177.5,0 272.5,0 272.5,-30"/>
<text text-anchor="start" x="185.5" y="-18" font-family="Helvetica,sans-Serif" font-size="10.00">doris::vectorized::</text>
<text text-anchor="middle" x="225" y="-7" font-family="Helvetica,sans-Serif" font-size="10.00">Block::rows</text>
</a>
</g>
</g>
<!-- Node1&#45;&gt;Node19 -->
<g id="edge20" class="edge">
<title>Node1&#45;&gt;Node19</title>
<path fill="none" stroke="#63b8ff" d="M76.82,-86.01C95.27,-73.85 128.04,-53.19 158,-39 161.1,-37.53 164.31,-36.1 167.57,-34.71"/>
<polygon fill="#63b8ff" stroke="#63b8ff" points="168.75,-38.01 176.7,-31 166.11,-31.52 168.75,-38.01"/>
</g>
<!-- Node2&#45;&gt;Node2 -->
<g id="edge9" class="edge">
<title>Node2&#45;&gt;Node2</title>
<path fill="none" stroke="#63b8ff" d="M194.73,-203.99C191.85,-213.38 201.94,-221.5 225,-221.5 238.33,-221.5 247.33,-218.79 251.99,-214.68"/>
<polygon fill="#63b8ff" stroke="#63b8ff" points="255.24,-216.02 254.83,-205.44 248.55,-213.97 255.24,-216.02"/>
</g>
<!-- Node3 -->
<g id="node3" class="node">
<title>Node3</title>
<g id="a_node3"><a xlink:href="../../d2/db6/classdoris_1_1vectorized_1_1_data_type_factory.html#a6108850d517df74a387bbc29a61b86be" target="_top" xlink:title=" ">
<polygon fill="white" stroke="#666666" points="458,-355.5 328,-355.5 328,-314.5 458,-314.5 458,-355.5"/>
<text text-anchor="start" x="336" y="-343.5" font-family="Helvetica,sans-Serif" font-size="10.00">doris::vectorized::</text>
<text text-anchor="start" x="336" y="-332.5" font-family="Helvetica,sans-Serif" font-size="10.00">DataTypeFactory::_create</text>
<text text-anchor="middle" x="393" y="-321.5" font-family="Helvetica,sans-Serif" font-size="10.00">_primitive_data_type</text>
</a>
</g>
</g>
<!-- Node2&#45;&gt;Node3 -->
<g id="edge2" class="edge">
<title>Node2&#45;&gt;Node3</title>
<path fill="none" stroke="#63b8ff" d="M238.88,-203.76C256.3,-230.41 289.63,-276.71 328,-306 328.83,-306.63 329.67,-307.25 330.53,-307.86"/>
<polygon fill="#63b8ff" stroke="#63b8ff" points="328.57,-310.77 338.88,-313.22 332.35,-304.88 328.57,-310.77"/>
</g>
<!-- Node10 -->
<g id="node10" class="node">
<title>Node10</title>
<g id="a_node10"><a xlink:href="../../de/d5b/classdoris_1_1_field.html#ad2d792ad3f54c0b895ea43c42883813f" target="_top" xlink:title=" ">
<polygon fill="white" stroke="#666666" points="457,-296.5 329,-296.5 329,-277.5 457,-277.5 457,-296.5"/>
<text text-anchor="middle" x="393" y="-284.5" font-family="Helvetica,sans-Serif" font-size="10.00">doris::Field::get_precision</text>
</a>
</g>
</g>
<!-- Node2&#45;&gt;Node10 -->
<g id="edge10" class="edge">
<title>Node2&#45;&gt;Node10</title>
<path fill="none" stroke="#63b8ff" d="M245.65,-203.64C264.96,-222.82 296.1,-250.91 328,-268 331.48,-269.86 335.16,-271.56 338.93,-273.12"/>
<polygon fill="#63b8ff" stroke="#63b8ff" points="337.7,-276.39 348.29,-276.58 340.13,-269.83 337.7,-276.39"/>
</g>
<!-- Node11 -->
<g id="node11" class="node">
<title>Node11</title>
<g id="a_node11"><a xlink:href="../../de/d5b/classdoris_1_1_field.html#aeebcd0d06704bd0962fb1651e4fe8df7" target="_top" xlink:title=" ">
<polygon fill="white" stroke="#666666" points="449.5,-259.5 336.5,-259.5 336.5,-240.5 449.5,-240.5 449.5,-259.5"/>
<text text-anchor="middle" x="393" y="-247.5" font-family="Helvetica,sans-Serif" font-size="10.00">doris::Field::get_scale</text>
</a>
</g>
</g>
<!-- Node2&#45;&gt;Node11 -->
<g id="edge11" class="edge">
<title>Node2&#45;&gt;Node11</title>
<path fill="none" stroke="#63b8ff" d="M266.58,-203.83C285.04,-212.85 307.34,-223.12 328,-231 333.28,-233.01 338.87,-234.95 344.46,-236.76"/>
<polygon fill="#63b8ff" stroke="#63b8ff" points="343.1,-240 353.68,-239.64 345.18,-233.32 343.1,-240"/>
</g>
<!-- Node12 -->
<g id="node12" class="node">
<title>Node12</title>
<g id="a_node12"><a xlink:href="../../de/d5b/classdoris_1_1_field.html#aa9b02d35d659c49def0daa4a86588c55" target="_top" xlink:title=" ">
<polygon fill="white" stroke="#666666" points="445.5,-222 340.5,-222 340.5,-192 445.5,-192 445.5,-222"/>
<text text-anchor="start" x="348.5" y="-210" font-family="Helvetica,sans-Serif" font-size="10.00">doris::Field::get_sub</text>
<text text-anchor="middle" x="393" y="-199" font-family="Helvetica,sans-Serif" font-size="10.00">_field</text>
</a>
</g>
</g>
<!-- Node2&#45;&gt;Node12 -->
<g id="edge12" class="edge">
<title>Node2&#45;&gt;Node12</title>
<path fill="none" stroke="#63b8ff" d="M287.81,-191.94C301.28,-193.88 315.54,-195.95 329.05,-197.9"/>
<polygon fill="#63b8ff" stroke="#63b8ff" points="328.3,-201.33 338.69,-199.29 329.3,-194.4 328.3,-201.33"/>
</g>
<!-- Node13 -->
<g id="node13" class="node">
<title>Node13</title>
<g id="a_node13"><a xlink:href="../../de/d5b/classdoris_1_1_field.html#a89bf92362f0ae09fdfc7cf066a4a10d4" target="_top" xlink:title=" ">
<polygon fill="white" stroke="#666666" points="445.5,-174 340.5,-174 340.5,-144 445.5,-144 445.5,-174"/>
<text text-anchor="start" x="348.5" y="-162" font-family="Helvetica,sans-Serif" font-size="10.00">doris::Field::get_sub</text>
<text text-anchor="middle" x="393" y="-151" font-family="Helvetica,sans-Serif" font-size="10.00">_field_count</text>
</a>
</g>
</g>
<!-- Node2&#45;&gt;Node13 -->
<g id="edge13" class="edge">
<title>Node2&#45;&gt;Node13</title>
<path fill="none" stroke="#63b8ff" d="M287.81,-174.06C301.28,-172.12 315.54,-170.05 329.05,-168.1"/>
<polygon fill="#63b8ff" stroke="#63b8ff" points="329.3,-171.6 338.69,-166.71 328.3,-164.67 329.3,-171.6"/>
</g>
<!-- Node14 -->
<g id="node14" class="node">
<title>Node14</title>
<g id="a_node14"><a xlink:href="../../de/d5b/classdoris_1_1_field.html#a383b4bf9fa5747435372f741fd1747f3" target="_top" xlink:title=" ">
<polygon fill="white" stroke="#666666" points="451,-125.5 335,-125.5 335,-106.5 451,-106.5 451,-125.5"/>
<text text-anchor="middle" x="393" y="-113.5" font-family="Helvetica,sans-Serif" font-size="10.00">doris::Field::is_nullable</text>
</a>
</g>
</g>
<!-- Node2&#45;&gt;Node14 -->
<g id="edge14" class="edge">
<title>Node2&#45;&gt;Node14</title>
<path fill="none" stroke="#63b8ff" d="M272.61,-162.07C279.14,-159.07 285.75,-155.98 292,-153 308.15,-145.3 311.36,-141.57 328,-135 332.99,-133.03 338.27,-131.15 343.57,-129.39"/>
<polygon fill="#63b8ff" stroke="#63b8ff" points="344.48,-132.78 352.96,-126.42 342.37,-126.1 344.48,-132.78"/>
</g>
<!-- Node15 -->
<g id="node15" class="node">
<title>Node15</title>
<g id="a_node15"><a xlink:href="../../de/d5b/classdoris_1_1_field.html#a24dcbf29c0d6cd766009a182a6484e3b" target="_top" xlink:title=" ">
<polygon fill="white" stroke="#666666" points="440.5,-88.5 345.5,-88.5 345.5,-69.5 440.5,-69.5 440.5,-88.5"/>
<text text-anchor="middle" x="393" y="-76.5" font-family="Helvetica,sans-Serif" font-size="10.00">doris::Field::name</text>
</a>
</g>
</g>
<!-- Node2&#45;&gt;Node15 -->
<g id="edge15" class="edge">
<title>Node2&#45;&gt;Node15</title>
<path fill="none" stroke="#63b8ff" d="M279.54,-162C283.96,-159.29 288.19,-156.29 292,-153 314.38,-133.65 304.21,-114.59 328,-97 330.15,-95.41 332.44,-93.96 334.82,-92.63"/>
<polygon fill="#63b8ff" stroke="#63b8ff" points="336.07,-95.91 343.66,-88.52 333.12,-89.57 336.07,-95.91"/>
</g>
<!-- Node16 -->
<g id="node16" class="node">
<title>Node16</title>
<g id="a_node16"><a xlink:href="../../de/d5b/classdoris_1_1_field.html#a29dc1ff17f4954924eab0c091400af77" target="_top" xlink:title=" ">
<polygon fill="white" stroke="#666666" points="437.5,-51.5 348.5,-51.5 348.5,-32.5 437.5,-32.5 437.5,-51.5"/>
<text text-anchor="middle" x="393" y="-39.5" font-family="Helvetica,sans-Serif" font-size="10.00">doris::Field::type</text>
</a>
</g>
</g>
<!-- Node2&#45;&gt;Node16 -->
<g id="edge16" class="edge">
<title>Node2&#45;&gt;Node16</title>
<path fill="none" stroke="#63b8ff" d="M281.24,-162.13C285.15,-159.42 288.8,-156.39 292,-153 322.43,-120.77 295.2,-89.81 328,-60 330.95,-57.32 334.27,-55.03 337.81,-53.08"/>
<polygon fill="#63b8ff" stroke="#63b8ff" points="339.12,-56.33 346.83,-49.06 336.27,-49.93 339.12,-56.33"/>
</g>
<!-- Node4 -->
<g id="node4" class="node">
<title>Node4</title>
<g id="a_node4"><a xlink:href="../../d3/d1e/namespacedoris_1_1vectorized.html#ae68a088a478e13fbb106c40c7aa363a2" target="_top" xlink:title=" ">
<polygon fill="white" stroke="#666666" points="591,-374 494,-374 494,-344 591,-344 591,-374"/>
<text text-anchor="start" x="502" y="-362" font-family="Helvetica,sans-Serif" font-size="10.00">doris::vectorized::</text>
<text text-anchor="middle" x="542.5" y="-351" font-family="Helvetica,sans-Serif" font-size="10.00">create_datetimev2</text>
</a>
</g>
</g>
<!-- Node3&#45;&gt;Node4 -->
<g id="edge3" class="edge">
<title>Node3&#45;&gt;Node4</title>
<path fill="none" stroke="#63b8ff" d="M458.27,-345.46C466.39,-346.78 474.67,-348.13 482.71,-349.43"/>
<polygon fill="#63b8ff" stroke="#63b8ff" points="481.94,-352.85 492.37,-351.01 483.06,-345.95 481.94,-352.85"/>
</g>
<!-- Node5 -->
<g id="node5" class="node">
<title>Node5</title>
<g id="a_node5"><a xlink:href="../../d3/d1e/namespacedoris_1_1vectorized.html#a4d695185bb08659af526093f5fdafbeb" target="_top" xlink:title=" ">
<polygon fill="white" stroke="#666666" points="590,-326 495,-326 495,-296 590,-296 590,-326"/>
<text text-anchor="start" x="503" y="-314" font-family="Helvetica,sans-Serif" font-size="10.00">doris::vectorized::</text>
<text text-anchor="middle" x="542.5" y="-303" font-family="Helvetica,sans-Serif" font-size="10.00">create_decimal</text>
</a>
</g>
</g>
<!-- Node3&#45;&gt;Node5 -->
<g id="edge4" class="edge">
<title>Node3&#45;&gt;Node5</title>
<path fill="none" stroke="#63b8ff" d="M458.27,-324.54C466.7,-323.17 475.3,-321.77 483.62,-320.42"/>
<polygon fill="#63b8ff" stroke="#63b8ff" points="483.94,-323.91 493.25,-318.85 482.82,-317 483.94,-323.91"/>
</g>
<!-- Node6 -->
<g id="node6" class="node">
<title>Node6</title>
<g id="a_node6"><a xlink:href="../../d3/d1e/namespacedoris_1_1vectorized.html#a5cff254ec7496b115da93842ab00d06a" target="_top" xlink:title=" ">
<polygon fill="white" stroke="#666666" points="746,-420.5 627,-420.5 627,-379.5 746,-379.5 746,-420.5"/>
<text text-anchor="start" x="635" y="-408.5" font-family="Helvetica,sans-Serif" font-size="10.00">doris::vectorized::</text>
<text text-anchor="start" x="635" y="-397.5" font-family="Helvetica,sans-Serif" font-size="10.00">max_decimal_precision</text>
<text text-anchor="middle" x="686.5" y="-386.5" font-family="Helvetica,sans-Serif" font-size="10.00">&lt; Decimal128 &gt;</text>
</a>
</g>
</g>
<!-- Node5&#45;&gt;Node6 -->
<g id="edge5" class="edge">
<title>Node5&#45;&gt;Node6</title>
<path fill="none" stroke="#63b8ff" d="M577.25,-326.36C582.01,-329.01 586.73,-331.91 591,-335 609.33,-348.27 608.62,-357.8 627,-371 627.99,-371.71 629,-372.41 630.03,-373.11"/>
<polygon fill="#63b8ff" stroke="#63b8ff" points="628,-375.97 638.33,-378.28 631.7,-370.02 628,-375.97"/>
</g>
<!-- Node7 -->
<g id="node7" class="node">
<title>Node7</title>
<g id="a_node7"><a xlink:href="../../d3/d1e/namespacedoris_1_1vectorized.html#ac1b8103faee970032433d20d4b02a540" target="_top" xlink:title=" ">
<polygon fill="white" stroke="#666666" points="746,-361.5 627,-361.5 627,-320.5 746,-320.5 746,-361.5"/>
<text text-anchor="start" x="635" y="-349.5" font-family="Helvetica,sans-Serif" font-size="10.00">doris::vectorized::</text>
<text text-anchor="start" x="635" y="-338.5" font-family="Helvetica,sans-Serif" font-size="10.00">max_decimal_precision</text>
<text text-anchor="middle" x="686.5" y="-327.5" font-family="Helvetica,sans-Serif" font-size="10.00">&lt; Decimal32 &gt;</text>
</a>
</g>
</g>
<!-- Node5&#45;&gt;Node7 -->
<g id="edge6" class="edge">
<title>Node5&#45;&gt;Node7</title>
<path fill="none" stroke="#63b8ff" d="M590.39,-320.91C598.42,-322.6 606.92,-324.4 615.4,-326.19"/>
<polygon fill="#63b8ff" stroke="#63b8ff" points="614.52,-329.58 625.02,-328.22 615.96,-322.73 614.52,-329.58"/>
</g>
<!-- Node8 -->
<g id="node8" class="node">
<title>Node8</title>
<g id="a_node8"><a xlink:href="../../d3/d1e/namespacedoris_1_1vectorized.html#af9afb521d5f0ebde174b71cb17d20f97" target="_top" xlink:title=" ">
<polygon fill="white" stroke="#666666" points="746,-302.5 627,-302.5 627,-261.5 746,-261.5 746,-302.5"/>
<text text-anchor="start" x="635" y="-290.5" font-family="Helvetica,sans-Serif" font-size="10.00">doris::vectorized::</text>
<text text-anchor="start" x="635" y="-279.5" font-family="Helvetica,sans-Serif" font-size="10.00">max_decimal_precision</text>
<text text-anchor="middle" x="686.5" y="-268.5" font-family="Helvetica,sans-Serif" font-size="10.00">&lt; Decimal64 &gt;</text>
</a>
</g>
</g>
<!-- Node5&#45;&gt;Node8 -->
<g id="edge7" class="edge">
<title>Node5&#45;&gt;Node8</title>
<path fill="none" stroke="#63b8ff" d="M590.39,-301.42C598.42,-299.78 606.92,-298.05 615.4,-296.32"/>
<polygon fill="#63b8ff" stroke="#63b8ff" points="615.92,-299.78 625.02,-294.35 614.52,-292.92 615.92,-299.78"/>
</g>
<!-- Node9 -->
<g id="node9" class="node">
<title>Node9</title>
<g id="a_node9"><a xlink:href="../../d3/d1e/namespacedoris_1_1vectorized.html#a84dc146691438d02e4058ea0cdd1db19" target="_top" xlink:title=" ">
<polygon fill="white" stroke="#666666" points="744.5,-243 628.5,-243 628.5,-213 744.5,-213 744.5,-243"/>
<text text-anchor="start" x="636.5" y="-231" font-family="Helvetica,sans-Serif" font-size="10.00">doris::vectorized::</text>
<text text-anchor="middle" x="686.5" y="-220" font-family="Helvetica,sans-Serif" font-size="10.00">min_decimal_precision</text>
</a>
</g>
</g>
<!-- Node5&#45;&gt;Node9 -->
<g id="edge8" class="edge">
<title>Node5&#45;&gt;Node9</title>
<path fill="none" stroke="#63b8ff" d="M562.59,-295.62C579.01,-282.87 603.66,-264.82 627,-252 629.35,-250.71 631.79,-249.44 634.28,-248.21"/>
<polygon fill="#63b8ff" stroke="#63b8ff" points="635.71,-251.4 643.29,-244 632.75,-245.06 635.71,-251.4"/>
</g>
<!-- Node18&#45;&gt;Node18 -->
<g id="edge19" class="edge">
<title>Node18&#45;&gt;Node18</title>
<path fill="none" stroke="#63b8ff" d="M196.17,-78.28C189.77,-87.41 199.38,-96 225,-96 239.01,-96 248.24,-93.43 252.67,-89.61"/>
<polygon fill="#63b8ff" stroke="#63b8ff" points="256.14,-90.08 253.67,-79.78 249.18,-89.37 256.14,-90.08"/>
</g>
</g>
</svg>
        <g id="navigator" transform="translate(0 0)" fill="#404254">
                <rect fill="#f2f5e9" fill-opacity="0.5" stroke="#606060" stroke-width=".5" x="0" y="0" width="60" height="60"/>
                <use id="zoomplus" xlink:href="#zoomPlus" x="17" y="9" onmousedown="handleZoom(evt,'in')"/>
                <use id="zoomminus" xlink:href="#zoomMin" x="42" y="9" onmousedown="handleZoom(evt,'out')"/>
                <use id="reset" xlink:href="#resetDef" x="30" y="36" onmousedown="handleReset()"/>
                <g id="arrowUp" xlink:href="#dirArrow" transform="translate(30 24)" onmousedown="handlePan(0,-1)">
                  <use xlink:href="#rim" fill="#404040">
                        <set attributeName="fill" to="#808080" begin="arrowUp.mouseover" end="arrowUp.mouseout"/>
                  </use>
                  <path fill="none" stroke="white" stroke-width="1.5" d="M0,-3.0v7 M-2.5,-0.5L0,-3.0L2.5,-0.5"/>
                </g>
                <g id="arrowRight" xlink:href="#dirArrow" transform="rotate(90) translate(36 -43)" onmousedown="handlePan(1,0)">
                  <use xlink:href="#rim" fill="#404040">
                        <set attributeName="fill" to="#808080" begin="arrowRight.mouseover" end="arrowRight.mouseout"/>
                  </use>
                  <path fill="none" stroke="white" stroke-width="1.5" d="M0,-3.0v7 M-2.5,-0.5L0,-3.0L2.5,-0.5"/>
                </g>
                <g id="arrowDown" xlink:href="#dirArrow" transform="rotate(180) translate(-30 -48)" onmousedown="handlePan(0,1)">
                  <use xlink:href="#rim" fill="#404040">
                        <set attributeName="fill" to="#808080" begin="arrowDown.mouseover" end="arrowDown.mouseout"/>
                  </use>
                  <path fill="none" stroke="white" stroke-width="1.5" d="M0,-3.0v7 M-2.5,-0.5L0,-3.0L2.5,-0.5"/>
                </g>
                <g id="arrowLeft" xlink:href="#dirArrow" transform="rotate(270) translate(-36 17)" onmousedown="handlePan(-1,0)">
                  <use xlink:href="#rim" fill="#404040">
                        <set attributeName="fill" to="#808080" begin="arrowLeft.mouseover" end="arrowLeft.mouseout"/>
                  </use>
                  <path fill="none" stroke="white" stroke-width="1.5" d="M0,-3.0v7 M-2.5,-0.5L0,-3.0L2.5,-0.5"/>
                </g>
        </g>
        <svg viewBox="0 0 15 15" width="100%" height="30px" preserveAspectRatio="xMaxYMin meet">
         <g id="arrow_out" transform="scale(0.3 0.3)">
          <a xlink:href="classdoris_1_1_base_scanner_af04fe0dbe8e07f20587933b2fd2861d4_cgraph_org.svg" target="_base">
           <rect id="button" ry="5" rx="5" y="6" x="6" height="38" width="38"
                fill="#f2f5e9" fill-opacity="0.5" stroke="#606060" stroke-width="1.0"/>
           <path id="arrow"
             d="M 11.500037,31.436501 C 11.940474,20.09759 22.043105,11.32322 32.158766,21.979434 L 37.068811,17.246167 C 37.068811,17.246167 37.088388,32 37.088388,32 L 22.160133,31.978069 C 22.160133,31.978069 26.997745,27.140456 26.997745,27.140456 C 18.528582,18.264221 13.291696,25.230495 11.500037,31.436501 z"
             style="fill:#404040;"/>
          </a>
         </g>
        </svg>
</svg>
