<?xml version="1.0" encoding="UTF-8" standalone="no"?>
<!DOCTYPE svg PUBLIC "-//W3C//DTD SVG 1.1//EN"
 "http://www.w3.org/Graphics/SVG/1.1/DTD/svg11.dtd">
<!-- Generated by graphviz version 7.1.0 (20230121.1956)
 -->
<!-- Title: check_array_format Pages: 1 -->
<!--zoomable 357 -->
<svg id="main" version="1.1" xmlns="http://www.w3.org/2000/svg" xmlns:xlink="http://www.w3.org/1999/xlink" xml:space="preserve" onload="init(evt)">
<style type="text/css"><![CDATA[
.edge:hover path { stroke: red; }
.edge:hover polygon { stroke: red; fill: red; }
]]></style>
<script type="text/javascript"><![CDATA[
var edges = document.getElementsByTagName('g');
if (edges && edges.length) {
  for (var i=0;i<edges.length;i++) {
    if (edges[i].id.substr(0,4)=='edge') {
      edges[i].setAttribute('class','edge');
    }
  }
}
]]></script>
        <defs>
                <circle id="rim" cx="0" cy="0" r="7"/>
                <circle id="rim2" cx="0" cy="0" r="3.5"/>
                <g id="zoomPlus">
                        <use xlink:href="#rim" fill="#404040">
                                <set attributeName="fill" to="#808080" begin="zoomplus.mouseover" end="zoomplus.mouseout"/>
                        </use>
                        <path d="M-4,0h8M0,-4v8" fill="none" stroke="white" stroke-width="1.5" pointer-events="none"/>
                </g>
                <g id="zoomMin">
                        <use xlink:href="#rim" fill="#404040">
                                <set attributeName="fill" to="#808080" begin="zoomminus.mouseover" end="zoomminus.mouseout"/>
                        </use>
                        <path d="M-4,0h8" fill="none" stroke="white" stroke-width="1.5" pointer-events="none"/>
                </g>
                <g id="dirArrow">
                        <path fill="none" stroke="white" stroke-width="1.5" d="M0,-3.0v7 M-2.5,-0.5L0,-3.0L2.5,-0.5"/>
                </g>
               <g id="resetDef">
                       <use xlink:href="#rim2" fill="#404040">
                               <set attributeName="fill" to="#808080" begin="reset.mouseover" end="reset.mouseout"/>
                       </use>
               </g>
        </defs>

<script type="text/javascript">
var viewWidth = 900;
var viewHeight = 357;
var sectionId = 'dynsection-13';
</script>
<script xlink:href="../../svgpan.js"/>
<svg id="graph" class="graph">
<g id="viewport">
<title>check_array_format</title>
<!-- Node1 -->
<g id="node1" class="node">
<title>Node1</title>
<g id="a_node1"><a xlink:title=" ">
<polygon fill="#999999" stroke="#666666" points="103,-85.5 0,-85.5 0,-66.5 103,-66.5 103,-85.5"/>
<text text-anchor="middle" x="51.5" y="-73.5" font-family="Helvetica,sans-Serif" font-size="10.00">check_array_format</text>
</a>
</g>
</g>
<!-- Node2 -->
<g id="node2" class="node">
<title>Node2</title>
<g id="a_node2"><a xlink:href="../../d7/dc1/classdoris_1_1_runtime_state.html#ad72c0949368819b19747d543a7141f44" target="_top" xlink:title=" ">
<polygon fill="white" stroke="#666666" points="273,-153 139,-153 139,-123 273,-123 273,-153"/>
<text text-anchor="start" x="147" y="-141" font-family="Helvetica,sans-Serif" font-size="10.00">doris::RuntimeState</text>
<text text-anchor="middle" x="206" y="-130" font-family="Helvetica,sans-Serif" font-size="10.00">::append_error_msg_to_file</text>
</a>
</g>
</g>
<!-- Node1&#45;&gt;Node2 -->
<g id="edge1" class="edge">
<title>Node1&#45;&gt;Node2</title>
<path fill="none" stroke="#63b8ff" d="M74.8,-85.84C92.2,-93.45 117.03,-104.15 139,-113 143.41,-114.78 148,-116.59 152.62,-118.39"/>
<polygon fill="#63b8ff" stroke="#63b8ff" points="151.35,-121.65 161.94,-121.98 153.87,-115.12 151.35,-121.65"/>
</g>
<!-- Node12 -->
<g id="node12" class="node">
<title>Node12</title>
<g id="a_node12"><a xlink:href="../../dd/da0/classdoris_1_1_base_scanner.html#ae014e0a49d1005d66bbfe8c0815b18d4" target="_top" xlink:title=" ">
<polygon fill="white" stroke="#666666" points="231.5,-104.5 180.5,-104.5 180.5,-85.5 231.5,-85.5 231.5,-104.5"/>
<text text-anchor="middle" x="206" y="-92.5" font-family="Helvetica,sans-Serif" font-size="10.00">is_array</text>
</a>
</g>
</g>
<!-- Node1&#45;&gt;Node12 -->
<g id="edge13" class="edge">
<title>Node1&#45;&gt;Node12</title>
<path fill="none" stroke="#63b8ff" d="M103.28,-82.33C124.76,-85 149.29,-88.06 168.88,-90.5"/>
<polygon fill="#63b8ff" stroke="#63b8ff" points="168.22,-93.94 178.57,-91.71 169.08,-87 168.22,-93.94"/>
</g>
<!-- Node13 -->
<g id="node13" class="node">
<title>Node13</title>
<g id="a_node13"><a xlink:href="../../dd/da0/classdoris_1_1_base_scanner.html#a2db27fc5fceda3e9f1f3e384f18b4db5" target="_top" xlink:title=" ">
<polygon fill="white" stroke="#666666" points="228,-67.5 184,-67.5 184,-48.5 228,-48.5 228,-67.5"/>
<text text-anchor="middle" x="206" y="-55.5" font-family="Helvetica,sans-Serif" font-size="10.00">is_null</text>
</a>
</g>
</g>
<!-- Node1&#45;&gt;Node13 -->
<g id="edge14" class="edge">
<title>Node1&#45;&gt;Node13</title>
<path fill="none" stroke="#63b8ff" d="M103.28,-70.01C126.06,-67.32 152.27,-64.22 172.38,-61.85"/>
<polygon fill="#63b8ff" stroke="#63b8ff" points="172.71,-65.34 182.23,-60.69 171.89,-58.38 172.71,-65.34"/>
</g>
<!-- Node14 -->
<g id="node14" class="node">
<title>Node14</title>
<g id="a_node14"><a xlink:href="../../d6/d50/classdoris_1_1_tuple_descriptor.html#ad440a6362417a001b2e0a11fb0fc54e9" target="_top" xlink:title=" ">
<polygon fill="white" stroke="#666666" points="262.5,-30 149.5,-30 149.5,0 262.5,0 262.5,-30"/>
<text text-anchor="start" x="157.5" y="-18" font-family="Helvetica,sans-Serif" font-size="10.00">doris::TupleDescriptor</text>
<text text-anchor="middle" x="206" y="-7" font-family="Helvetica,sans-Serif" font-size="10.00">::slots</text>
</a>
</g>
</g>
<!-- Node1&#45;&gt;Node14 -->
<g id="edge15" class="edge">
<title>Node1&#45;&gt;Node14</title>
<path fill="none" stroke="#63b8ff" d="M74.76,-66.07C92.15,-58.42 116.98,-47.71 139,-39 142.86,-37.48 146.85,-35.93 150.88,-34.4"/>
<polygon fill="#63b8ff" stroke="#63b8ff" points="152,-37.72 160.14,-30.94 149.55,-31.17 152,-37.72"/>
</g>
<!-- Node3 -->
<g id="node3" class="node">
<title>Node3</title>
<g id="a_node3"><a xlink:href="../../d7/dc1/classdoris_1_1_runtime_state.html#a7cf7f657f6846c5abc6a3a9417849d01" target="_top" xlink:title=" ">
<polygon fill="white" stroke="#666666" points="419,-258 309,-258 309,-228 419,-228 419,-258"/>
<text text-anchor="start" x="317" y="-246" font-family="Helvetica,sans-Serif" font-size="10.00">doris::RuntimeState</text>
<text text-anchor="middle" x="364" y="-235" font-family="Helvetica,sans-Serif" font-size="10.00">::create_error_log_file</text>
</a>
</g>
</g>
<!-- Node2&#45;&gt;Node3 -->
<g id="edge2" class="edge">
<title>Node2&#45;&gt;Node3</title>
<path fill="none" stroke="#63b8ff" d="M230.02,-153.49C256.71,-171.46 300.88,-201.19 330.92,-221.41"/>
<polygon fill="#63b8ff" stroke="#63b8ff" points="328.64,-224.09 338.89,-226.77 332.54,-218.28 328.64,-224.09"/>
</g>
<!-- Node7 -->
<g id="node7" class="node">
<title>Node7</title>
<g id="a_node7"><a xlink:href="../../d9/d8d/classdoris_1_1_status.html#a6ec1a217f203269ab53d2290d602db24" target="_top" xlink:title=" ">
<polygon fill="white" stroke="#666666" points="741,-252.5 649,-252.5 649,-233.5 741,-233.5 741,-252.5"/>
<text text-anchor="middle" x="695" y="-240.5" font-family="Helvetica,sans-Serif" font-size="10.00">doris::Status::OK</text>
</a>
</g>
</g>
<!-- Node2&#45;&gt;Node7 -->
<g id="edge10" class="edge">
<title>Node2&#45;&gt;Node7</title>
<path fill="none" stroke="#63b8ff" d="M273.18,-139.98C370.28,-143.61 546.2,-153.18 605,-176 632.99,-186.86 659.76,-209.19 676.5,-225.08"/>
<polygon fill="#63b8ff" stroke="#63b8ff" points="674.04,-227.57 683.63,-232.08 678.94,-222.58 674.04,-227.57"/>
</g>
<!-- Node10 -->
<g id="node10" class="node">
<title>Node10</title>
<g id="a_node10"><a xlink:href="../../d9/d8d/classdoris_1_1_status.html#a03cb7eaa663dc83af68bc28a596d09e6" target="_top" xlink:title=" ">
<polygon fill="white" stroke="#666666" points="408.5,-128.5 319.5,-128.5 319.5,-109.5 408.5,-109.5 408.5,-128.5"/>
<text text-anchor="middle" x="364" y="-116.5" font-family="Helvetica,sans-Serif" font-size="10.00">doris::Status::ok</text>
</a>
</g>
</g>
<!-- Node2&#45;&gt;Node10 -->
<g id="edge11" class="edge">
<title>Node2&#45;&gt;Node10</title>
<path fill="none" stroke="#63b8ff" d="M273.16,-129.94C284.75,-128.53 296.69,-127.08 307.93,-125.71"/>
<polygon fill="#63b8ff" stroke="#63b8ff" points="308.35,-129.18 317.85,-124.5 307.51,-122.23 308.35,-129.18"/>
</g>
<!-- Node11 -->
<g id="node11" class="node">
<title>Node11</title>
<g id="a_node11"><a xlink:href="../../d7/dc1/classdoris_1_1_runtime_state.html#ad77fb2e49b586d0fe7d7ba8d6811cf67" target="_top" xlink:title=" ">
<polygon fill="white" stroke="#666666" points="416,-91 312,-91 312,-61 416,-61 416,-91"/>
<text text-anchor="start" x="320" y="-79" font-family="Helvetica,sans-Serif" font-size="10.00">doris::RuntimeState</text>
<text text-anchor="middle" x="364" y="-68" font-family="Helvetica,sans-Serif" font-size="10.00">::query_type</text>
</a>
</g>
</g>
<!-- Node2&#45;&gt;Node11 -->
<g id="edge12" class="edge">
<title>Node2&#45;&gt;Node11</title>
<path fill="none" stroke="#63b8ff" d="M248.26,-122.57C256.47,-119.45 265.02,-116.15 273,-113 287.02,-107.46 302.21,-101.29 316.04,-95.6"/>
<polygon fill="#63b8ff" stroke="#63b8ff" points="317.01,-98.98 324.91,-91.93 314.33,-92.51 317.01,-98.98"/>
</g>
<!-- Node4 -->
<g id="node4" class="node">
<title>Node4</title>
<g id="a_node4"><a xlink:href="../../dc/d5e/classdoris_1_1_load_path_mgr.html#a5ab0021ef5471daa07c9efaa9a3bea3b" target="_top" xlink:title=" ">
<polygon fill="white" stroke="#666666" points="605,-349 455,-349 455,-319 605,-319 605,-349"/>
<text text-anchor="start" x="463" y="-337" font-family="Helvetica,sans-Serif" font-size="10.00">doris::LoadPathMgr</text>
<text text-anchor="middle" x="530" y="-326" font-family="Helvetica,sans-Serif" font-size="10.00">::get_load_error_absolute_path</text>
</a>
</g>
</g>
<!-- Node3&#45;&gt;Node4 -->
<g id="edge3" class="edge">
<title>Node3&#45;&gt;Node4</title>
<path fill="none" stroke="#63b8ff" d="M382.12,-258.45C399.43,-273.38 427.48,-295.79 455,-310 457.87,-311.48 460.85,-312.9 463.89,-314.24"/>
<polygon fill="#63b8ff" stroke="#63b8ff" points="462.43,-317.43 473.01,-317.98 465.09,-310.95 462.43,-317.43"/>
</g>
<!-- Node5 -->
<g id="node5" class="node">
<title>Node5</title>
<g id="a_node5"><a xlink:href="../../dc/d5e/classdoris_1_1_load_path_mgr.html#a61bdd61c1f7d29f5935731c89cd3d61d" target="_top" xlink:title=" ">
<polygon fill="white" stroke="#666666" points="595.5,-301 464.5,-301 464.5,-271 595.5,-271 595.5,-301"/>
<text text-anchor="start" x="472.5" y="-289" font-family="Helvetica,sans-Serif" font-size="10.00">doris::LoadPathMgr</text>
<text text-anchor="middle" x="530" y="-278" font-family="Helvetica,sans-Serif" font-size="10.00">::get_load_error_file_name</text>
</a>
</g>
</g>
<!-- Node3&#45;&gt;Node5 -->
<g id="edge4" class="edge">
<title>Node3&#45;&gt;Node5</title>
<path fill="none" stroke="#63b8ff" d="M419.15,-257.2C431.91,-260.54 445.69,-264.16 459.03,-267.65"/>
<polygon fill="#63b8ff" stroke="#63b8ff" points="458.08,-271.02 468.64,-270.17 459.85,-264.25 458.08,-271.02"/>
</g>
<!-- Node3&#45;&gt;Node7 -->
<g id="edge9" class="edge">
<title>Node3&#45;&gt;Node7</title>
<path fill="none" stroke="#63b8ff" d="M419.33,-243C479.51,-243 576.1,-243 637.24,-243"/>
<polygon fill="#63b8ff" stroke="#63b8ff" points="637.09,-246.5 647.09,-243 637.09,-239.5 637.09,-246.5"/>
</g>
<!-- Node9 -->
<g id="node9" class="node">
<title>Node9</title>
<g id="a_node9"><a xlink:href="../../d9/dbd/classdoris_1_1_exec_env.html#a2225cda40ae99f128e78b8bab5b25045" target="_top" xlink:title=" ">
<polygon fill="white" stroke="#666666" points="583.5,-215 476.5,-215 476.5,-185 583.5,-185 583.5,-215"/>
<text text-anchor="start" x="484.5" y="-203" font-family="Helvetica,sans-Serif" font-size="10.00">doris::ExecEnv::load</text>
<text text-anchor="middle" x="530" y="-192" font-family="Helvetica,sans-Serif" font-size="10.00">_path_mgr</text>
</a>
</g>
</g>
<!-- Node3&#45;&gt;Node9 -->
<g id="edge8" class="edge">
<title>Node3&#45;&gt;Node9</title>
<path fill="none" stroke="#63b8ff" d="M419.15,-228.8C433.87,-224.94 449.94,-220.73 465.14,-216.74"/>
<polygon fill="#63b8ff" stroke="#63b8ff" points="465.77,-220.2 474.56,-214.28 463.99,-213.43 465.77,-220.2"/>
</g>
<!-- Node6 -->
<g id="node6" class="node">
<title>Node6</title>
<g id="a_node6"><a xlink:href="../../d4/d00/namespacedoris_1_1io.html#ae677fb4a94f6751e37e2a1941bba2f7f" target="_top" xlink:title=" ">
<polygon fill="white" stroke="#666666" points="749,-301 641,-301 641,-271 749,-271 749,-301"/>
<text text-anchor="start" x="649" y="-289" font-family="Helvetica,sans-Serif" font-size="10.00">doris::io::global_local</text>
<text text-anchor="middle" x="695" y="-278" font-family="Helvetica,sans-Serif" font-size="10.00">_filesystem</text>
</a>
</g>
</g>
<!-- Node5&#45;&gt;Node6 -->
<g id="edge5" class="edge">
<title>Node5&#45;&gt;Node6</title>
<path fill="none" stroke="#63b8ff" d="M595.89,-286C606.89,-286 618.32,-286 629.32,-286"/>
<polygon fill="#63b8ff" stroke="#63b8ff" points="629.08,-289.5 639.08,-286 629.08,-282.5 629.08,-289.5"/>
</g>
<!-- Node5&#45;&gt;Node7 -->
<g id="edge6" class="edge">
<title>Node5&#45;&gt;Node7</title>
<path fill="none" stroke="#63b8ff" d="M589.39,-270.6C607.76,-265.75 627.84,-260.45 645.45,-255.81"/>
<polygon fill="#63b8ff" stroke="#63b8ff" points="646.1,-259.26 654.88,-253.32 644.31,-252.49 646.1,-259.26"/>
</g>
<!-- Node8 -->
<g id="node8" class="node">
<title>Node8</title>
<g id="a_node8"><a xlink:href="../../d9/d8d/classdoris_1_1_status.html#aafde58df1b2a6a91d5b674373be3ffc5" target="_top" xlink:title=" ">
<polygon fill="white" stroke="#666666" points="892,-252.5 785,-252.5 785,-233.5 892,-233.5 892,-252.5"/>
<text text-anchor="middle" x="838.5" y="-240.5" font-family="Helvetica,sans-Serif" font-size="10.00">doris::Status::Status</text>
</a>
</g>
</g>
<!-- Node7&#45;&gt;Node8 -->
<g id="edge7" class="edge">
<title>Node7&#45;&gt;Node8</title>
<path fill="none" stroke="#63b8ff" d="M741.16,-243C751.43,-243 762.52,-243 773.4,-243"/>
<polygon fill="#63b8ff" stroke="#63b8ff" points="773.11,-246.5 783.11,-243 773.11,-239.5 773.11,-246.5"/>
</g>
</g>
</svg>
        <g id="navigator" transform="translate(0 0)" fill="#404254">
                <rect fill="#f2f5e9" fill-opacity="0.5" stroke="#606060" stroke-width=".5" x="0" y="0" width="60" height="60"/>
                <use id="zoomplus" xlink:href="#zoomPlus" x="17" y="9" onmousedown="handleZoom(evt,'in')"/>
                <use id="zoomminus" xlink:href="#zoomMin" x="42" y="9" onmousedown="handleZoom(evt,'out')"/>
                <use id="reset" xlink:href="#resetDef" x="30" y="36" onmousedown="handleReset()"/>
                <g id="arrowUp" xlink:href="#dirArrow" transform="translate(30 24)" onmousedown="handlePan(0,-1)">
                  <use xlink:href="#rim" fill="#404040">
                        <set attributeName="fill" to="#808080" begin="arrowUp.mouseover" end="arrowUp.mouseout"/>
                  </use>
                  <path fill="none" stroke="white" stroke-width="1.5" d="M0,-3.0v7 M-2.5,-0.5L0,-3.0L2.5,-0.5"/>
                </g>
                <g id="arrowRight" xlink:href="#dirArrow" transform="rotate(90) translate(36 -43)" onmousedown="handlePan(1,0)">
                  <use xlink:href="#rim" fill="#404040">
                        <set attributeName="fill" to="#808080" begin="arrowRight.mouseover" end="arrowRight.mouseout"/>
                  </use>
                  <path fill="none" stroke="white" stroke-width="1.5" d="M0,-3.0v7 M-2.5,-0.5L0,-3.0L2.5,-0.5"/>
                </g>
                <g id="arrowDown" xlink:href="#dirArrow" transform="rotate(180) translate(-30 -48)" onmousedown="handlePan(0,1)">
                  <use xlink:href="#rim" fill="#404040">
                        <set attributeName="fill" to="#808080" begin="arrowDown.mouseover" end="arrowDown.mouseout"/>
                  </use>
                  <path fill="none" stroke="white" stroke-width="1.5" d="M0,-3.0v7 M-2.5,-0.5L0,-3.0L2.5,-0.5"/>
                </g>
                <g id="arrowLeft" xlink:href="#dirArrow" transform="rotate(270) translate(-36 17)" onmousedown="handlePan(-1,0)">
                  <use xlink:href="#rim" fill="#404040">
                        <set attributeName="fill" to="#808080" begin="arrowLeft.mouseover" end="arrowLeft.mouseout"/>
                  </use>
                  <path fill="none" stroke="white" stroke-width="1.5" d="M0,-3.0v7 M-2.5,-0.5L0,-3.0L2.5,-0.5"/>
                </g>
        </g>
        <svg viewBox="0 0 15 15" width="100%" height="30px" preserveAspectRatio="xMaxYMin meet">
         <g id="arrow_out" transform="scale(0.3 0.3)">
          <a xlink:href="classdoris_1_1_base_scanner_ac6e7d07408fe12b2987350140e702a35_cgraph_org.svg" target="_base">
           <rect id="button" ry="5" rx="5" y="6" x="6" height="38" width="38"
                fill="#f2f5e9" fill-opacity="0.5" stroke="#606060" stroke-width="1.0"/>
           <path id="arrow"
             d="M 11.500037,31.436501 C 11.940474,20.09759 22.043105,11.32322 32.158766,21.979434 L 37.068811,17.246167 C 37.068811,17.246167 37.088388,32 37.088388,32 L 22.160133,31.978069 C 22.160133,31.978069 26.997745,27.140456 26.997745,27.140456 C 18.528582,18.264221 13.291696,25.230495 11.500037,31.436501 z"
             style="fill:#404040;"/>
          </a>
         </g>
        </svg>
</svg>
