<?xml version="1.0" encoding="UTF-8" standalone="no"?>
<!DOCTYPE svg PUBLIC "-//W3C//DTD SVG 1.1//EN"
 "http://www.w3.org/Graphics/SVG/1.1/DTD/svg11.dtd">
<!-- Generated by graphviz version 7.1.0 (20230121.1956)
 -->
<!-- Title: ColumnArrayExecutionData Pages: 1 -->
<!--zoomable 248 -->
<svg id="main" version="1.1" xmlns="http://www.w3.org/2000/svg" xmlns:xlink="http://www.w3.org/1999/xlink" xml:space="preserve" onload="init(evt)">
<style type="text/css"><![CDATA[
.edge:hover path { stroke: red; }
.edge:hover polygon { stroke: red; fill: red; }
]]></style>
<script type="text/javascript"><![CDATA[
var edges = document.getElementsByTagName('g');
if (edges && edges.length) {
  for (var i=0;i<edges.length;i++) {
    if (edges[i].id.substr(0,4)=='edge') {
      edges[i].setAttribute('class','edge');
    }
  }
}
]]></script>
        <defs>
                <circle id="rim" cx="0" cy="0" r="7"/>
                <circle id="rim2" cx="0" cy="0" r="3.5"/>
                <g id="zoomPlus">
                        <use xlink:href="#rim" fill="#404040">
                                <set attributeName="fill" to="#808080" begin="zoomplus.mouseover" end="zoomplus.mouseout"/>
                        </use>
                        <path d="M-4,0h8M0,-4v8" fill="none" stroke="white" stroke-width="1.5" pointer-events="none"/>
                </g>
                <g id="zoomMin">
                        <use xlink:href="#rim" fill="#404040">
                                <set attributeName="fill" to="#808080" begin="zoomminus.mouseover" end="zoomminus.mouseout"/>
                        </use>
                        <path d="M-4,0h8" fill="none" stroke="white" stroke-width="1.5" pointer-events="none"/>
                </g>
                <g id="dirArrow">
                        <path fill="none" stroke="white" stroke-width="1.5" d="M0,-3.0v7 M-2.5,-0.5L0,-3.0L2.5,-0.5"/>
                </g>
               <g id="resetDef">
                       <use xlink:href="#rim2" fill="#404040">
                               <set attributeName="fill" to="#808080" begin="reset.mouseover" end="reset.mouseout"/>
                       </use>
               </g>
        </defs>

<script type="text/javascript">
var viewWidth = 939;
var viewHeight = 248;
var sectionId = 'dynsection-0';
</script>
<script xlink:href="../../svgpan.js"/>
<svg id="graph" class="graph">
<g id="viewport">
<title>ColumnArrayExecutionData</title>
<!-- Node1 -->
<g id="node1" class="node">
<title>Node1</title>
<g id="a_node1"><a xlink:title=" ">
<polygon fill="#999999" stroke="#666666" points="931,-111 793,-111 793,-92 931,-92 931,-111"/>
<text text-anchor="middle" x="862" y="-99" font-family="Helvetica,sans-Serif" font-size="10.00">ColumnArrayExecutionData</text>
</a>
</g>
</g>
<!-- Node2 -->
<g id="node2" class="node">
<title>Node2</title>
<g id="a_node2"><a xlink:href="../../d9/d99/classdoris_1_1vectorized_1_1_column_array.html" target="_top" xlink:title=" ">
<polygon fill="white" stroke="#666666" points="685,-181 611,-181 611,-162 685,-162 685,-181"/>
<text text-anchor="middle" x="648" y="-169" font-family="Helvetica,sans-Serif" font-size="10.00">ColumnArray</text>
</a>
</g>
</g>
<!-- Node2&#45;&gt;Node1 -->
<g id="edge1" class="edge">
<title>Node2&#45;&gt;Node1</title>
<path fill="none" stroke="#9a32cd" stroke-dasharray="5,2" d="M689.7,-158.06C730.97,-144.43 793.89,-123.66 830.88,-111.44"/>
<polygon fill="#9a32cd" stroke="#9a32cd" points="688.76,-154.69 680.36,-161.14 690.96,-161.33 688.76,-154.69"/>
<text text-anchor="middle" x="749.5" y="-147.5" font-family="Helvetica,sans-Serif" font-size="10.00"> array_col</text>
</g>
<!-- Node3 -->
<g id="node3" class="node">
<title>Node3</title>
<g id="a_node3"><a xlink:href="../../da/d30/class_c_o_w_helper.html" target="_top" xlink:title=" ">
<polygon fill="white" stroke="#666666" points="543.5,-208.5 424.5,-208.5 424.5,-178.5 543.5,-178.5 543.5,-208.5"/>
<text text-anchor="start" x="432.5" y="-196.5" font-family="Helvetica,sans-Serif" font-size="10.00">COWHelper&lt; IColumn,</text>
<text text-anchor="middle" x="484" y="-185.5" font-family="Helvetica,sans-Serif" font-size="10.00"> ColumnArray &gt;</text>
</a>
</g>
</g>
<!-- Node3&#45;&gt;Node2 -->
<g id="edge2" class="edge">
<title>Node3&#45;&gt;Node2</title>
<path fill="none" stroke="#63b8ff" d="M555.15,-183.97C574.4,-181.36 594.49,-178.63 610.95,-176.4"/>
<polygon fill="#63b8ff" stroke="#63b8ff" points="554.88,-180.48 545.44,-185.29 555.82,-187.41 554.88,-180.48"/>
</g>
<!-- Node4 -->
<g id="node4" class="node">
<title>Node4</title>
<g id="a_node4"><a xlink:title=" ">
<polygon fill="white" stroke="#666666" points="209.5,-240 156.5,-240 156.5,-221 209.5,-221 209.5,-240"/>
<text text-anchor="middle" x="183" y="-228" font-family="Helvetica,sans-Serif" font-size="10.00">IColumn</text>
</a>
</g>
</g>
<!-- Node4&#45;&gt;Node3 -->
<g id="edge3" class="edge">
<title>Node4&#45;&gt;Node3</title>
<path fill="none" stroke="#63b8ff" d="M221.18,-227.45C263.76,-223.78 335.57,-217.02 397,-208.5 405.86,-207.27 415.2,-205.81 424.33,-204.29"/>
<polygon fill="#63b8ff" stroke="#63b8ff" points="221.15,-223.94 211.48,-228.28 221.74,-230.92 221.15,-223.94"/>
</g>
<!-- Node5 -->
<g id="node5" class="node">
<title>Node5</title>
<g id="a_node5"><a xlink:href="../../da/d30/class_c_o_w_helper.html" target="_top" xlink:title=" ">
<polygon fill="white" stroke="#666666" points="258,-203 108,-203 108,-184 258,-184 258,-203"/>
<text text-anchor="middle" x="183" y="-191" font-family="Helvetica,sans-Serif" font-size="10.00">COWHelper&lt; Base, Derived &gt;</text>
</a>
</g>
</g>
<!-- Node5&#45;&gt;Node3 -->
<g id="edge4" class="edge">
<title>Node5&#45;&gt;Node3</title>
<path fill="none" stroke="orange" stroke-dasharray="5,2" d="M269.63,-193.5C319.09,-193.5 380.03,-193.5 424.1,-193.5"/>
<polygon fill="orange" stroke="orange" points="269.81,-190 259.81,-193.5 269.81,-197 269.81,-190"/>
<text text-anchor="middle" x="336.5" y="-196.5" font-family="Helvetica,sans-Serif" font-size="10.00"> &lt; IColumn, ColumnArray &gt;</text>
</g>
<!-- Node6 -->
<g id="node6" class="node">
<title>Node6</title>
<g id="a_node6"><a xlink:title=" ">
<polygon fill="white" stroke="#666666" points="55,-203 16,-203 16,-184 55,-184 55,-203"/>
<text text-anchor="middle" x="35.5" y="-191" font-family="Helvetica,sans-Serif" font-size="10.00">Base</text>
</a>
</g>
</g>
<!-- Node6&#45;&gt;Node5 -->
<g id="edge5" class="edge">
<title>Node6&#45;&gt;Node5</title>
<path fill="none" stroke="#63b8ff" d="M66.4,-193.5C78.49,-193.5 93.03,-193.5 107.65,-193.5"/>
<polygon fill="#63b8ff" stroke="#63b8ff" points="66.74,-190 56.74,-193.5 66.74,-197 66.74,-190"/>
</g>
<!-- Node7 -->
<g id="node7" class="node">
<title>Node7</title>
<g id="a_node7"><a xlink:href="../../df/db2/classdoris_1_1vectorized_1_1_p_o_d_array.html" target="_top" xlink:title=" ">
<polygon fill="white" stroke="#666666" points="706,-122 590,-122 590,-81 706,-81 706,-122"/>
<text text-anchor="start" x="598" y="-110" font-family="Helvetica,sans-Serif" font-size="10.00">PODArray&lt; T, initial</text>
<text text-anchor="start" x="598" y="-99" font-family="Helvetica,sans-Serif" font-size="10.00">_bytes, TAllocator, pad</text>
<text text-anchor="middle" x="648" y="-88" font-family="Helvetica,sans-Serif" font-size="10.00">_right_, pad_left_ &gt;</text>
</a>
</g>
</g>
<!-- Node7&#45;&gt;Node1 -->
<g id="edge6" class="edge">
<title>Node7&#45;&gt;Node1</title>
<path fill="none" stroke="#9a32cd" stroke-dasharray="5,2" d="M717.88,-101.5C741.85,-101.5 768.73,-101.5 792.66,-101.5"/>
<polygon fill="#9a32cd" stroke="#9a32cd" points="717.88,-98 707.88,-101.5 717.88,-105 717.88,-98"/>
<text text-anchor="middle" x="749.5" y="-104.5" font-family="Helvetica,sans-Serif" font-size="10.00"> offsets_ptr</text>
</g>
<!-- Node8 -->
<g id="node8" class="node">
<title>Node8</title>
<g id="a_node8"><a xlink:href="../../d5/d9d/classdoris_1_1vectorized_1_1_p_o_d_array_base.html" target="_top" xlink:title=" ">
<polygon fill="white" stroke="#666666" points="553,-122 415,-122 415,-81 553,-81 553,-122"/>
<text text-anchor="start" x="423" y="-110" font-family="Helvetica,sans-Serif" font-size="10.00">PODArrayBase&lt; sizeof</text>
<text text-anchor="start" x="423" y="-99" font-family="Helvetica,sans-Serif" font-size="10.00">(T), initial_bytes, TAllocator,</text>
<text text-anchor="middle" x="484" y="-88" font-family="Helvetica,sans-Serif" font-size="10.00"> pad_right_, pad_left_ &gt;</text>
</a>
</g>
</g>
<!-- Node8&#45;&gt;Node7 -->
<g id="edge7" class="edge">
<title>Node8&#45;&gt;Node7</title>
<path fill="none" stroke="#63b8ff" d="M564.66,-101.5C573.08,-101.5 581.51,-101.5 589.6,-101.5"/>
<polygon fill="#63b8ff" stroke="#63b8ff" points="564.75,-98 554.75,-101.5 564.75,-105 564.75,-98"/>
</g>
<!-- Node9 -->
<g id="node9" class="node">
<title>Node9</title>
<g id="a_node9"><a xlink:title=" ">
<polygon fill="white" stroke="#666666" points="71,-151 0,-151 0,-132 71,-132 71,-151"/>
<text text-anchor="middle" x="35.5" y="-139" font-family="Helvetica,sans-Serif" font-size="10.00">noncopyable</text>
</a>
</g>
</g>
<!-- Node9&#45;&gt;Node8 -->
<g id="edge8" class="edge">
<title>Node9&#45;&gt;Node8</title>
<path fill="none" stroke="#8b1a1a" d="M82.62,-146.88C151.79,-153.66 286.12,-161.82 397,-138.5 412.75,-135.19 429.18,-128.9 443.4,-122.44"/>
<polygon fill="#8b1a1a" stroke="#8b1a1a" points="83.09,-143.41 72.79,-145.88 82.38,-150.37 83.09,-143.41"/>
</g>
<!-- Node11 -->
<g id="node11" class="node">
<title>Node11</title>
<g id="a_node11"><a xlink:href="../../d5/d9d/classdoris_1_1vectorized_1_1_p_o_d_array_base.html" target="_top" xlink:title="empty base optimization">
<polygon fill="white" stroke="#666666" points="253,-127.5 113,-127.5 113,-75.5 253,-75.5 253,-127.5"/>
<text text-anchor="start" x="121" y="-115.5" font-family="Helvetica,sans-Serif" font-size="10.00">PODArrayBase&lt; ELEMENT</text>
<text text-anchor="start" x="121" y="-104.5" font-family="Helvetica,sans-Serif" font-size="10.00">_SIZE, initial_bytes,</text>
<text text-anchor="start" x="121" y="-93.5" font-family="Helvetica,sans-Serif" font-size="10.00"> TAllocator, pad_right</text>
<text text-anchor="middle" x="183" y="-82.5" font-family="Helvetica,sans-Serif" font-size="10.00">_, pad_left_ &gt;</text>
</a>
</g>
</g>
<!-- Node9&#45;&gt;Node11 -->
<g id="edge11" class="edge">
<title>Node9&#45;&gt;Node11</title>
<path fill="none" stroke="#8b1a1a" d="M82.29,-128.91C91.93,-126.26 102.32,-123.41 112.61,-120.58"/>
<polygon fill="#8b1a1a" stroke="#8b1a1a" points="81.52,-125.49 72.81,-131.52 83.38,-132.24 81.52,-125.49"/>
</g>
<!-- Node10 -->
<g id="node10" class="node">
<title>Node10</title>
<g id="a_node10"><a xlink:title=" ">
<polygon fill="white" stroke="#666666" points="65.5,-91 5.5,-91 5.5,-72 65.5,-72 65.5,-91"/>
<text text-anchor="middle" x="35.5" y="-79" font-family="Helvetica,sans-Serif" font-size="10.00">TAllocator</text>
</a>
</g>
</g>
<!-- Node10&#45;&gt;Node8 -->
<g id="edge9" class="edge">
<title>Node10&#45;&gt;Node8</title>
<path fill="none" stroke="#8b1a1a" d="M76.86,-71.51C86.97,-69.43 97.83,-67.56 108,-66.5 214.99,-55.4 339.32,-73.02 414.53,-87.03"/>
<polygon fill="#8b1a1a" stroke="#8b1a1a" points="76.36,-68.04 67.33,-73.59 77.85,-74.88 76.36,-68.04"/>
</g>
<!-- Node10&#45;&gt;Node11 -->
<g id="edge12" class="edge">
<title>Node10&#45;&gt;Node11</title>
<path fill="none" stroke="#8b1a1a" d="M77.33,-87.11C88.32,-88.62 100.53,-90.3 112.61,-91.96"/>
<polygon fill="#8b1a1a" stroke="#8b1a1a" points="77.83,-83.65 67.44,-85.75 76.87,-90.58 77.83,-83.65"/>
</g>
<!-- Node11&#45;&gt;Node8 -->
<g id="edge10" class="edge">
<title>Node11&#45;&gt;Node8</title>
<path fill="none" stroke="orange" stroke-dasharray="5,2" d="M264.69,-101.5C311.55,-101.5 369.94,-101.5 414.54,-101.5"/>
<polygon fill="orange" stroke="orange" points="264.86,-98 254.86,-101.5 264.86,-105 264.86,-98"/>
<text text-anchor="start" x="286.5" y="-126.5" font-family="Helvetica,sans-Serif" font-size="10.00"> &lt; sizeof(T), initial</text>
<text text-anchor="start" x="286.5" y="-115.5" font-family="Helvetica,sans-Serif" font-size="10.00">_bytes, TAllocator, pad</text>
<text text-anchor="middle" x="336.5" y="-104.5" font-family="Helvetica,sans-Serif" font-size="10.00">_right_, pad_left_ &gt;</text>
</g>
<!-- Node12 -->
<g id="node12" class="node">
<title>Node12</title>
<g id="a_node12"><a xlink:href="../../da/dde/classdoris_1_1vectorized_1_1_i_column.html" target="_top" xlink:title="Declares interface to store columns in memory.">
<polygon fill="white" stroke="#666666" points="674.5,-63 621.5,-63 621.5,-44 674.5,-44 674.5,-63"/>
<text text-anchor="middle" x="648" y="-51" font-family="Helvetica,sans-Serif" font-size="10.00">IColumn</text>
</a>
</g>
</g>
<!-- Node12&#45;&gt;Node1 -->
<g id="edge13" class="edge">
<title>Node12&#45;&gt;Node1</title>
<path fill="none" stroke="#9a32cd" stroke-dasharray="5,2" d="M686.13,-61.91C722.64,-70.17 778.38,-82.79 817.07,-91.55"/>
<polygon fill="#9a32cd" stroke="#9a32cd" points="687,-58.51 676.47,-59.72 685.45,-65.34 687,-58.51"/>
<text text-anchor="middle" x="749.5" y="-84.5" font-family="Helvetica,sans-Serif" font-size="10.00"> nested_col</text>
</g>
<!-- Node13 -->
<g id="node13" class="node">
<title>Node13</title>
<g id="a_node13"><a xlink:href="../../da/db7/class_c_o_w.html" target="_top" xlink:title=" ">
<polygon fill="white" stroke="#666666" points="532,-41 436,-41 436,-22 532,-22 532,-41"/>
<text text-anchor="middle" x="484" y="-29" font-family="Helvetica,sans-Serif" font-size="10.00">COW&lt; IColumn &gt;</text>
</a>
</g>
</g>
<!-- Node13&#45;&gt;Node12 -->
<g id="edge14" class="edge">
<title>Node13&#45;&gt;Node12</title>
<path fill="none" stroke="#63b8ff" d="M543.44,-39.44C570.04,-43.05 600.17,-47.14 621.04,-49.98"/>
<polygon fill="#63b8ff" stroke="#63b8ff" points="544.17,-36 533.79,-38.13 543.23,-42.94 544.17,-36"/>
</g>
<!-- Node14 -->
<g id="node14" class="node">
<title>Node14</title>
<g id="a_node14"><a xlink:href="../../da/db7/class_c_o_w.html" target="_top" xlink:title=" ">
<polygon fill="white" stroke="#666666" points="229.5,-19 136.5,-19 136.5,0 229.5,0 229.5,-19"/>
<text text-anchor="middle" x="183" y="-7" font-family="Helvetica,sans-Serif" font-size="10.00">COW&lt; Derived &gt;</text>
</a>
</g>
</g>
<!-- Node14&#45;&gt;Node13 -->
<g id="edge15" class="edge">
<title>Node14&#45;&gt;Node13</title>
<path fill="none" stroke="orange" stroke-dasharray="5,2" d="M241.1,-12.31C284.01,-14.59 344.24,-18.13 397,-22.5 409.57,-23.54 423.15,-24.87 435.72,-26.18"/>
<polygon fill="orange" stroke="orange" points="241.43,-8.82 231.26,-11.8 241.06,-15.82 241.43,-8.82"/>
<text text-anchor="middle" x="336.5" y="-25.5" font-family="Helvetica,sans-Serif" font-size="10.00"> &lt; IColumn &gt;</text>
</g>
</g>
</svg>
        <g id="navigator" transform="translate(0 0)" fill="#404254">
                <rect fill="#f2f5e9" fill-opacity="0.5" stroke="#606060" stroke-width=".5" x="0" y="0" width="60" height="60"/>
                <use id="zoomplus" xlink:href="#zoomPlus" x="17" y="9" onmousedown="handleZoom(evt,'in')"/>
                <use id="zoomminus" xlink:href="#zoomMin" x="42" y="9" onmousedown="handleZoom(evt,'out')"/>
                <use id="reset" xlink:href="#resetDef" x="30" y="36" onmousedown="handleReset()"/>
                <g id="arrowUp" xlink:href="#dirArrow" transform="translate(30 24)" onmousedown="handlePan(0,-1)">
                  <use xlink:href="#rim" fill="#404040">
                        <set attributeName="fill" to="#808080" begin="arrowUp.mouseover" end="arrowUp.mouseout"/>
                  </use>
                  <path fill="none" stroke="white" stroke-width="1.5" d="M0,-3.0v7 M-2.5,-0.5L0,-3.0L2.5,-0.5"/>
                </g>
                <g id="arrowRight" xlink:href="#dirArrow" transform="rotate(90) translate(36 -43)" onmousedown="handlePan(1,0)">
                  <use xlink:href="#rim" fill="#404040">
                        <set attributeName="fill" to="#808080" begin="arrowRight.mouseover" end="arrowRight.mouseout"/>
                  </use>
                  <path fill="none" stroke="white" stroke-width="1.5" d="M0,-3.0v7 M-2.5,-0.5L0,-3.0L2.5,-0.5"/>
                </g>
                <g id="arrowDown" xlink:href="#dirArrow" transform="rotate(180) translate(-30 -48)" onmousedown="handlePan(0,1)">
                  <use xlink:href="#rim" fill="#404040">
                        <set attributeName="fill" to="#808080" begin="arrowDown.mouseover" end="arrowDown.mouseout"/>
                  </use>
                  <path fill="none" stroke="white" stroke-width="1.5" d="M0,-3.0v7 M-2.5,-0.5L0,-3.0L2.5,-0.5"/>
                </g>
                <g id="arrowLeft" xlink:href="#dirArrow" transform="rotate(270) translate(-36 17)" onmousedown="handlePan(-1,0)">
                  <use xlink:href="#rim" fill="#404040">
                        <set attributeName="fill" to="#808080" begin="arrowLeft.mouseover" end="arrowLeft.mouseout"/>
                  </use>
                  <path fill="none" stroke="white" stroke-width="1.5" d="M0,-3.0v7 M-2.5,-0.5L0,-3.0L2.5,-0.5"/>
                </g>
        </g>
        <svg viewBox="0 0 15 15" width="100%" height="30px" preserveAspectRatio="xMaxYMin meet">
         <g id="arrow_out" transform="scale(0.3 0.3)">
          <a xlink:href="structdoris_1_1vectorized_1_1_column_array_execution_data__coll__graph_org.svg" target="_base">
           <rect id="button" ry="5" rx="5" y="6" x="6" height="38" width="38"
                fill="#f2f5e9" fill-opacity="0.5" stroke="#606060" stroke-width="1.0"/>
           <path id="arrow"
             d="M 11.500037,31.436501 C 11.940474,20.09759 22.043105,11.32322 32.158766,21.979434 L 37.068811,17.246167 C 37.068811,17.246167 37.088388,32 37.088388,32 L 22.160133,31.978069 C 22.160133,31.978069 26.997745,27.140456 26.997745,27.140456 C 18.528582,18.264221 13.291696,25.230495 11.500037,31.436501 z"
             style="fill:#404040;"/>
          </a>
         </g>
        </svg>
</svg>
