<?xml version="1.0" encoding="UTF-8" standalone="no"?>
<!DOCTYPE svg PUBLIC "-//W3C//DTD SVG 1.1//EN"
 "http://www.w3.org/Graphics/SVG/1.1/DTD/svg11.dtd">
<!-- Generated by graphviz version 7.1.0 (20230121.1956)
 -->
<!-- Title: new_fulltext_field Pages: 1 -->
<svg width="259pt" height="64pt"
 viewBox="0.00 0.00 259.00 64.00" xmlns="http://www.w3.org/2000/svg" xmlns:xlink="http://www.w3.org/1999/xlink">
<g id="graph0" class="graph" transform="scale(1 1) rotate(0) translate(4 60)">
<title>new_fulltext_field</title>
<!-- Node1 -->
<g id="node1" class="node">
<title>Node1</title>
<g id="a_node1"><a xlink:title=" ">
<polygon fill="#999999" stroke="#666666" points="92,-37 0,-37 0,-18 92,-18 92,-37"/>
<text text-anchor="middle" x="46" y="-25" font-family="Helvetica,sans-Serif" font-size="10.00">new_fulltext_field</text>
</a>
</g>
</g>
<!-- Node2 -->
<g id="node2" class="node">
<title>Node2</title>
<g id="a_node2"><a xlink:href="../../dd/d5c/classdoris_1_1segment__v2_1_1_inverted_index_column_writer_impl.html#a50938025064a7bbc9de5aec073176f97" target="_top" xlink:title=" ">
<polygon fill="white" stroke="#666666" points="251,-56 128,-56 128,-37 251,-37 251,-56"/>
<text text-anchor="middle" x="189.5" y="-44" font-family="Helvetica,sans-Serif" font-size="10.00">new_char_token_stream</text>
</a>
</g>
</g>
<!-- Node1&#45;&gt;Node2 -->
<g id="edge1" class="edge">
<title>Node1&#45;&gt;Node2</title>
<path fill="none" stroke="#63b8ff" d="M92.16,-33.56C99.89,-34.6 108.09,-35.7 116.32,-36.81"/>
<polygon fill="#63b8ff" stroke="#63b8ff" points="115.63,-40.25 126.01,-38.11 116.56,-33.31 115.63,-40.25"/>
</g>
<!-- Node3 -->
<g id="node3" class="node">
<title>Node3</title>
<g id="a_node3"><a xlink:href="../../dd/d5c/classdoris_1_1segment__v2_1_1_inverted_index_column_writer_impl.html#a2cec6eefabe57e6c8cf14095cc202f56" target="_top" xlink:title=" ">
<polygon fill="white" stroke="#666666" points="232.5,-19 146.5,-19 146.5,0 232.5,0 232.5,-19"/>
<text text-anchor="middle" x="189.5" y="-7" font-family="Helvetica,sans-Serif" font-size="10.00">new_field_value</text>
</a>
</g>
</g>
<!-- Node1&#45;&gt;Node3 -->
<g id="edge2" class="edge">
<title>Node1&#45;&gt;Node3</title>
<path fill="none" stroke="#63b8ff" d="M92.16,-21.76C105.82,-20.02 120.95,-18.09 135.09,-16.29"/>
<polygon fill="#63b8ff" stroke="#63b8ff" points="135.19,-19.81 144.67,-15.08 134.31,-12.87 135.19,-19.81"/>
</g>
</g>
</svg>
