<?xml version="1.0" encoding="UTF-8" standalone="no"?>
<!DOCTYPE svg PUBLIC "-//W3C//DTD SVG 1.1//EN"
 "http://www.w3.org/Graphics/SVG/1.1/DTD/svg11.dtd">
<!-- Generated by graphviz version 7.1.0 (20230121.1956)
 -->
<!-- Title: add_values Pages: 1 -->
<!--zoomable 181 -->
<svg id="main" version="1.1" xmlns="http://www.w3.org/2000/svg" xmlns:xlink="http://www.w3.org/1999/xlink" xml:space="preserve" onload="init(evt)">
<style type="text/css"><![CDATA[
.edge:hover path { stroke: red; }
.edge:hover polygon { stroke: red; fill: red; }
]]></style>
<script type="text/javascript"><![CDATA[
var edges = document.getElementsByTagName('g');
if (edges && edges.length) {
  for (var i=0;i<edges.length;i++) {
    if (edges[i].id.substr(0,4)=='edge') {
      edges[i].setAttribute('class','edge');
    }
  }
}
]]></script>
        <defs>
                <circle id="rim" cx="0" cy="0" r="7"/>
                <circle id="rim2" cx="0" cy="0" r="3.5"/>
                <g id="zoomPlus">
                        <use xlink:href="#rim" fill="#404040">
                                <set attributeName="fill" to="#808080" begin="zoomplus.mouseover" end="zoomplus.mouseout"/>
                        </use>
                        <path d="M-4,0h8M0,-4v8" fill="none" stroke="white" stroke-width="1.5" pointer-events="none"/>
                </g>
                <g id="zoomMin">
                        <use xlink:href="#rim" fill="#404040">
                                <set attributeName="fill" to="#808080" begin="zoomminus.mouseover" end="zoomminus.mouseout"/>
                        </use>
                        <path d="M-4,0h8" fill="none" stroke="white" stroke-width="1.5" pointer-events="none"/>
                </g>
                <g id="dirArrow">
                        <path fill="none" stroke="white" stroke-width="1.5" d="M0,-3.0v7 M-2.5,-0.5L0,-3.0L2.5,-0.5"/>
                </g>
               <g id="resetDef">
                       <use xlink:href="#rim2" fill="#404040">
                               <set attributeName="fill" to="#808080" begin="reset.mouseover" end="reset.mouseout"/>
                       </use>
               </g>
        </defs>

<script type="text/javascript">
var viewWidth = 549;
var viewHeight = 181;
var sectionId = 'dynsection-15';
</script>
<script xlink:href="../../svgpan.js"/>
<svg id="graph" class="graph">
<g id="viewport">
<title>add_values</title>
<!-- Node1 -->
<g id="node1" class="node">
<title>Node1</title>
<g id="a_node1"><a xlink:title=" ">
<polygon fill="#999999" stroke="#666666" points="66,-93 0,-93 0,-74 66,-74 66,-93"/>
<text text-anchor="middle" x="33" y="-81" font-family="Helvetica,sans-Serif" font-size="10.00">add_values</text>
</a>
</g>
</g>
<!-- Node2 -->
<g id="node2" class="node">
<title>Node2</title>
<g id="a_node2"><a xlink:href="../../dd/d5c/classdoris_1_1segment__v2_1_1_inverted_index_column_writer_impl.html#aea0895f5d2be013333fae76fbf83fdd6" target="_top" xlink:title=" ">
<polygon fill="white" stroke="#666666" points="224,-167 118,-167 118,-148 224,-148 224,-167"/>
<text text-anchor="middle" x="171" y="-155" font-family="Helvetica,sans-Serif" font-size="10.00">add_numeric_values</text>
</a>
</g>
</g>
<!-- Node1&#45;&gt;Node2 -->
<g id="edge1" class="edge">
<title>Node1&#45;&gt;Node2</title>
<path fill="none" stroke="#63b8ff" d="M43.17,-93.32C55.42,-105.85 78.32,-127.36 102,-139.5 104.9,-140.99 107.94,-142.36 111.05,-143.63"/>
<polygon fill="#63b8ff" stroke="#63b8ff" points="109.82,-146.91 120.42,-147.02 112.21,-140.33 109.82,-146.91"/>
</g>
<!-- Node5 -->
<g id="node5" class="node">
<title>Node5</title>
<g id="a_node5"><a xlink:href="../../d6/d94/namespacedoris.html#a179cddb24523aea7ba5d462cf6e6c38e" target="_top" xlink:title=" ">
<polygon fill="white" stroke="#666666" points="240,-130 102,-130 102,-111 240,-111 240,-130"/>
<text text-anchor="middle" x="171" y="-118" font-family="Helvetica,sans-Serif" font-size="10.00">doris::field_is_numeric_type</text>
</a>
</g>
</g>
<!-- Node1&#45;&gt;Node5 -->
<g id="edge4" class="edge">
<title>Node1&#45;&gt;Node5</title>
<path fill="none" stroke="#63b8ff" d="M66.23,-92.27C83.09,-96.86 104.06,-102.56 122.72,-107.64"/>
<polygon fill="#63b8ff" stroke="#63b8ff" points="121.66,-110.98 132.23,-110.22 123.49,-104.22 121.66,-110.98"/>
</g>
<!-- Node6 -->
<g id="node6" class="node">
<title>Node6</title>
<g id="a_node6"><a xlink:href="../../d6/d94/namespacedoris.html#ad20529d39cacc275e7e243f8b4f47c56" target="_top" xlink:title=" ">
<polygon fill="white" stroke="#666666" points="233,-93 109,-93 109,-74 233,-74 233,-93"/>
<text text-anchor="middle" x="171" y="-81" font-family="Helvetica,sans-Serif" font-size="10.00">doris::field_is_slice_type</text>
</a>
</g>
</g>
<!-- Node1&#45;&gt;Node6 -->
<g id="edge5" class="edge">
<title>Node1&#45;&gt;Node6</title>
<path fill="none" stroke="#63b8ff" d="M66.23,-83.5C75.67,-83.5 86.41,-83.5 97.3,-83.5"/>
<polygon fill="#63b8ff" stroke="#63b8ff" points="97.15,-87 107.15,-83.5 97.15,-80 97.15,-87"/>
</g>
<!-- Node7 -->
<g id="node7" class="node">
<title>Node7</title>
<g id="a_node7"><a xlink:href="../../dd/d5c/classdoris_1_1segment__v2_1_1_inverted_index_column_writer_impl.html#ad60aa9276b8613eee4db421bf3e20558" target="_top" xlink:title=" ">
<polygon fill="white" stroke="#666666" points="217,-56 125,-56 125,-37 217,-37 217,-56"/>
<text text-anchor="middle" x="171" y="-44" font-family="Helvetica,sans-Serif" font-size="10.00">new_fulltext_field</text>
</a>
</g>
</g>
<!-- Node1&#45;&gt;Node7 -->
<g id="edge6" class="edge">
<title>Node1&#45;&gt;Node7</title>
<path fill="none" stroke="#63b8ff" d="M66.49,-74.32C77.73,-71.18 90.41,-67.65 102,-64.5 108.19,-62.82 114.7,-61.07 121.15,-59.35"/>
<polygon fill="#63b8ff" stroke="#63b8ff" points="121.62,-62.84 130.39,-56.89 119.83,-56.08 121.62,-62.84"/>
</g>
<!-- Node10 -->
<g id="node10" class="node">
<title>Node10</title>
<g id="a_node10"><a xlink:href="../../d9/d8d/classdoris_1_1_status.html#a6ec1a217f203269ab53d2290d602db24" target="_top" xlink:title=" ">
<polygon fill="white" stroke="#666666" points="217,-19 125,-19 125,0 217,0 217,-19"/>
<text text-anchor="middle" x="171" y="-7" font-family="Helvetica,sans-Serif" font-size="10.00">doris::Status::OK</text>
</a>
</g>
</g>
<!-- Node1&#45;&gt;Node10 -->
<g id="edge9" class="edge">
<title>Node1&#45;&gt;Node10</title>
<path fill="none" stroke="#63b8ff" d="M43.17,-73.68C55.42,-61.15 78.32,-39.64 102,-27.5 105.86,-25.52 109.96,-23.74 114.16,-22.15"/>
<polygon fill="#63b8ff" stroke="#63b8ff" points="114.95,-25.58 123.29,-19.05 112.69,-18.95 114.95,-25.58"/>
</g>
<!-- Node3 -->
<g id="node3" class="node">
<title>Node3</title>
<g id="a_node3"><a xlink:href="../../dd/d5c/classdoris_1_1segment__v2_1_1_inverted_index_column_writer_impl.html#aab444baafcddff753a4aaabe5bc3432d" target="_top" xlink:title=" ">
<polygon fill="white" stroke="#666666" points="368,-167 307,-167 307,-148 368,-148 368,-167"/>
<text text-anchor="middle" x="337.5" y="-155" font-family="Helvetica,sans-Serif" font-size="10.00">add_value</text>
</a>
</g>
</g>
<!-- Node2&#45;&gt;Node3 -->
<g id="edge2" class="edge">
<title>Node2&#45;&gt;Node3</title>
<path fill="none" stroke="#63b8ff" d="M224.05,-157.5C247.08,-157.5 273.78,-157.5 295.38,-157.5"/>
<polygon fill="#63b8ff" stroke="#63b8ff" points="295.29,-161 305.29,-157.5 295.29,-154 295.29,-161"/>
</g>
<!-- Node4 -->
<g id="node4" class="node">
<title>Node4</title>
<g id="a_node4"><a xlink:href="../../d2/d17/classdoris_1_1_key_coder.html#ab5519d5e985f0feb9917c688e3dc893b" target="_top" xlink:title=" ">
<polygon fill="white" stroke="#666666" points="541,-172.5 435,-172.5 435,-142.5 541,-142.5 541,-172.5"/>
<text text-anchor="start" x="443" y="-160.5" font-family="Helvetica,sans-Serif" font-size="10.00">doris::KeyCoder::full</text>
<text text-anchor="middle" x="488" y="-149.5" font-family="Helvetica,sans-Serif" font-size="10.00">_encode_ascending</text>
</a>
</g>
</g>
<!-- Node3&#45;&gt;Node4 -->
<g id="edge3" class="edge">
<title>Node3&#45;&gt;Node4</title>
<path fill="none" stroke="#63b8ff" d="M368.19,-157.5C383.97,-157.5 404,-157.5 423.1,-157.5"/>
<polygon fill="#63b8ff" stroke="#63b8ff" points="423,-161 433,-157.5 423,-154 423,-161"/>
</g>
<!-- Node8 -->
<g id="node8" class="node">
<title>Node8</title>
<g id="a_node8"><a xlink:href="../../dd/d5c/classdoris_1_1segment__v2_1_1_inverted_index_column_writer_impl.html#a50938025064a7bbc9de5aec073176f97" target="_top" xlink:title=" ">
<polygon fill="white" stroke="#666666" points="399,-93 276,-93 276,-74 399,-74 399,-93"/>
<text text-anchor="middle" x="337.5" y="-81" font-family="Helvetica,sans-Serif" font-size="10.00">new_char_token_stream</text>
</a>
</g>
</g>
<!-- Node7&#45;&gt;Node8 -->
<g id="edge7" class="edge">
<title>Node7&#45;&gt;Node8</title>
<path fill="none" stroke="#63b8ff" d="M216.08,-56.42C236.09,-60.92 259.97,-66.29 281.16,-71.05"/>
<polygon fill="#63b8ff" stroke="#63b8ff" points="280.29,-74.45 290.82,-73.23 281.83,-67.62 280.29,-74.45"/>
</g>
<!-- Node9 -->
<g id="node9" class="node">
<title>Node9</title>
<g id="a_node9"><a xlink:href="../../dd/d5c/classdoris_1_1segment__v2_1_1_inverted_index_column_writer_impl.html#a2cec6eefabe57e6c8cf14095cc202f56" target="_top" xlink:title=" ">
<polygon fill="white" stroke="#666666" points="380.5,-56 294.5,-56 294.5,-37 380.5,-37 380.5,-56"/>
<text text-anchor="middle" x="337.5" y="-44" font-family="Helvetica,sans-Serif" font-size="10.00">new_field_value</text>
</a>
</g>
</g>
<!-- Node7&#45;&gt;Node9 -->
<g id="edge8" class="edge">
<title>Node7&#45;&gt;Node9</title>
<path fill="none" stroke="#63b8ff" d="M217.39,-46.5C237.61,-46.5 261.57,-46.5 282.69,-46.5"/>
<polygon fill="#63b8ff" stroke="#63b8ff" points="282.57,-50 292.57,-46.5 282.57,-43 282.57,-50"/>
</g>
<!-- Node11 -->
<g id="node11" class="node">
<title>Node11</title>
<g id="a_node11"><a xlink:href="../../d9/d8d/classdoris_1_1_status.html#aafde58df1b2a6a91d5b674373be3ffc5" target="_top" xlink:title=" ">
<polygon fill="white" stroke="#666666" points="391,-19 284,-19 284,0 391,0 391,-19"/>
<text text-anchor="middle" x="337.5" y="-7" font-family="Helvetica,sans-Serif" font-size="10.00">doris::Status::Status</text>
</a>
</g>
</g>
<!-- Node10&#45;&gt;Node11 -->
<g id="edge10" class="edge">
<title>Node10&#45;&gt;Node11</title>
<path fill="none" stroke="#63b8ff" d="M217.39,-9.5C234.32,-9.5 253.87,-9.5 272.19,-9.5"/>
<polygon fill="#63b8ff" stroke="#63b8ff" points="272.18,-13 282.18,-9.5 272.18,-6 272.18,-13"/>
</g>
</g>
</svg>
        <g id="navigator" transform="translate(0 0)" fill="#404254">
                <rect fill="#f2f5e9" fill-opacity="0.5" stroke="#606060" stroke-width=".5" x="0" y="0" width="60" height="60"/>
                <use id="zoomplus" xlink:href="#zoomPlus" x="17" y="9" onmousedown="handleZoom(evt,'in')"/>
                <use id="zoomminus" xlink:href="#zoomMin" x="42" y="9" onmousedown="handleZoom(evt,'out')"/>
                <use id="reset" xlink:href="#resetDef" x="30" y="36" onmousedown="handleReset()"/>
                <g id="arrowUp" xlink:href="#dirArrow" transform="translate(30 24)" onmousedown="handlePan(0,-1)">
                  <use xlink:href="#rim" fill="#404040">
                        <set attributeName="fill" to="#808080" begin="arrowUp.mouseover" end="arrowUp.mouseout"/>
                  </use>
                  <path fill="none" stroke="white" stroke-width="1.5" d="M0,-3.0v7 M-2.5,-0.5L0,-3.0L2.5,-0.5"/>
                </g>
                <g id="arrowRight" xlink:href="#dirArrow" transform="rotate(90) translate(36 -43)" onmousedown="handlePan(1,0)">
                  <use xlink:href="#rim" fill="#404040">
                        <set attributeName="fill" to="#808080" begin="arrowRight.mouseover" end="arrowRight.mouseout"/>
                  </use>
                  <path fill="none" stroke="white" stroke-width="1.5" d="M0,-3.0v7 M-2.5,-0.5L0,-3.0L2.5,-0.5"/>
                </g>
                <g id="arrowDown" xlink:href="#dirArrow" transform="rotate(180) translate(-30 -48)" onmousedown="handlePan(0,1)">
                  <use xlink:href="#rim" fill="#404040">
                        <set attributeName="fill" to="#808080" begin="arrowDown.mouseover" end="arrowDown.mouseout"/>
                  </use>
                  <path fill="none" stroke="white" stroke-width="1.5" d="M0,-3.0v7 M-2.5,-0.5L0,-3.0L2.5,-0.5"/>
                </g>
                <g id="arrowLeft" xlink:href="#dirArrow" transform="rotate(270) translate(-36 17)" onmousedown="handlePan(-1,0)">
                  <use xlink:href="#rim" fill="#404040">
                        <set attributeName="fill" to="#808080" begin="arrowLeft.mouseover" end="arrowLeft.mouseout"/>
                  </use>
                  <path fill="none" stroke="white" stroke-width="1.5" d="M0,-3.0v7 M-2.5,-0.5L0,-3.0L2.5,-0.5"/>
                </g>
        </g>
        <svg viewBox="0 0 15 15" width="100%" height="30px" preserveAspectRatio="xMaxYMin meet">
         <g id="arrow_out" transform="scale(0.3 0.3)">
          <a xlink:href="classdoris_1_1segment__v2_1_1_inverted_index_column_writer_impl_a9e305b811ca9a61ef88e5949157b5302_cgraph_org.svg" target="_base">
           <rect id="button" ry="5" rx="5" y="6" x="6" height="38" width="38"
                fill="#f2f5e9" fill-opacity="0.5" stroke="#606060" stroke-width="1.0"/>
           <path id="arrow"
             d="M 11.500037,31.436501 C 11.940474,20.09759 22.043105,11.32322 32.158766,21.979434 L 37.068811,17.246167 C 37.068811,17.246167 37.088388,32 37.088388,32 L 22.160133,31.978069 C 22.160133,31.978069 26.997745,27.140456 26.997745,27.140456 C 18.528582,18.264221 13.291696,25.230495 11.500037,31.436501 z"
             style="fill:#404040;"/>
          </a>
         </g>
        </svg>
</svg>
