<?xml version="1.0" encoding="UTF-8" standalone="no"?>
<!DOCTYPE svg PUBLIC "-//W3C//DTD SVG 1.1//EN"
 "http://www.w3.org/Graphics/SVG/1.1/DTD/svg11.dtd">
<!-- Generated by graphviz version 7.1.0 (20230121.1956)
 -->
<!-- Title: release_resource Pages: 1 -->
<!--zoomable 747 -->
<svg id="main" version="1.1" xmlns="http://www.w3.org/2000/svg" xmlns:xlink="http://www.w3.org/1999/xlink" xml:space="preserve" onload="init(evt)">
<style type="text/css"><![CDATA[
.edge:hover path { stroke: red; }
.edge:hover polygon { stroke: red; fill: red; }
]]></style>
<script type="text/javascript"><![CDATA[
var edges = document.getElementsByTagName('g');
if (edges && edges.length) {
  for (var i=0;i<edges.length;i++) {
    if (edges[i].id.substr(0,4)=='edge') {
      edges[i].setAttribute('class','edge');
    }
  }
}
]]></script>
        <defs>
                <circle id="rim" cx="0" cy="0" r="7"/>
                <circle id="rim2" cx="0" cy="0" r="3.5"/>
                <g id="zoomPlus">
                        <use xlink:href="#rim" fill="#404040">
                                <set attributeName="fill" to="#808080" begin="zoomplus.mouseover" end="zoomplus.mouseout"/>
                        </use>
                        <path d="M-4,0h8M0,-4v8" fill="none" stroke="white" stroke-width="1.5" pointer-events="none"/>
                </g>
                <g id="zoomMin">
                        <use xlink:href="#rim" fill="#404040">
                                <set attributeName="fill" to="#808080" begin="zoomminus.mouseover" end="zoomminus.mouseout"/>
                        </use>
                        <path d="M-4,0h8" fill="none" stroke="white" stroke-width="1.5" pointer-events="none"/>
                </g>
                <g id="dirArrow">
                        <path fill="none" stroke="white" stroke-width="1.5" d="M0,-3.0v7 M-2.5,-0.5L0,-3.0L2.5,-0.5"/>
                </g>
               <g id="resetDef">
                       <use xlink:href="#rim2" fill="#404040">
                               <set attributeName="fill" to="#808080" begin="reset.mouseover" end="reset.mouseout"/>
                       </use>
               </g>
        </defs>

<script type="text/javascript">
var viewWidth = 979;
var viewHeight = 747;
var sectionId = 'dynsection-12';
</script>
<script xlink:href="../../svgpan.js"/>
<svg id="graph" class="graph">
<g id="viewport">
<title>release_resource</title>
<!-- Node1 -->
<g id="node1" class="node">
<title>Node1</title>
<g id="a_node1"><a xlink:title=" ">
<polygon fill="#999999" stroke="#666666" points="91,-215.5 0,-215.5 0,-196.5 91,-196.5 91,-215.5"/>
<text text-anchor="middle" x="45.5" y="-203.5" font-family="Helvetica,sans-Serif" font-size="10.00">release_resource</text>
</a>
</g>
</g>
<!-- Node2 -->
<g id="node2" class="node">
<title>Node2</title>
<g id="a_node2"><a xlink:href="../../d7/d71/classdoris_1_1vectorized_1_1_aggregation_node.html#a245b5be18a877b191a3a531a80270e08" target="_top" xlink:title=" ">
<polygon fill="white" stroke="#666666" points="230.5,-371.5 150.5,-371.5 150.5,-352.5 230.5,-352.5 230.5,-371.5"/>
<text text-anchor="middle" x="190.5" y="-359.5" font-family="Helvetica,sans-Serif" font-size="10.00">_release_mem</text>
</a>
</g>
</g>
<!-- Node1&#45;&gt;Node2 -->
<g id="edge1" class="edge">
<title>Node1&#45;&gt;Node2</title>
<path fill="none" stroke="#63b8ff" d="M55.45,-215.76C78.92,-241.37 142.56,-310.79 172.93,-343.93"/>
<polygon fill="#63b8ff" stroke="#63b8ff" points="170.2,-346.12 179.54,-351.13 175.36,-341.39 170.2,-346.12"/>
</g>
<!-- Node16 -->
<g id="node16" class="node">
<title>Node16</title>
<g id="a_node16"><a xlink:href="../../d0/d2e/classdoris_1_1vectorized_1_1_v_expr.html#ad61f341147ba83929acb09d735e20fc0" target="_top" xlink:title="Subclasses overriding this function should call VExpr::Close().">
<polygon fill="white" stroke="#666666" points="401.5,-221 306.5,-221 306.5,-191 401.5,-191 401.5,-221"/>
<text text-anchor="start" x="314.5" y="-209" font-family="Helvetica,sans-Serif" font-size="10.00">doris::vectorized::</text>
<text text-anchor="middle" x="354" y="-198" font-family="Helvetica,sans-Serif" font-size="10.00">VExpr::close</text>
</a>
</g>
</g>
<!-- Node1&#45;&gt;Node16 -->
<g id="edge22" class="edge">
<title>Node1&#45;&gt;Node16</title>
<path fill="none" stroke="#63b8ff" d="M91.4,-206C145.25,-206 235.67,-206 294.83,-206"/>
<polygon fill="#63b8ff" stroke="#63b8ff" points="294.71,-209.5 304.71,-206 294.71,-202.5 294.71,-209.5"/>
</g>
<!-- Node17 -->
<g id="node17" class="node">
<title>Node17</title>
<g id="a_node17"><a xlink:href="../../d2/d49/classdoris_1_1_exec_node.html#aa77e742bb47b77b33a3028a75c69076f" target="_top" xlink:title=" ">
<polygon fill="white" stroke="#666666" points="254,-167 127,-167 127,-137 254,-137 254,-167"/>
<text text-anchor="start" x="135" y="-155" font-family="Helvetica,sans-Serif" font-size="10.00">doris::ExecNode::release</text>
<text text-anchor="middle" x="190.5" y="-144" font-family="Helvetica,sans-Serif" font-size="10.00">_resource</text>
</a>
</g>
</g>
<!-- Node1&#45;&gt;Node17 -->
<g id="edge23" class="edge">
<title>Node1&#45;&gt;Node17</title>
<path fill="none" stroke="#63b8ff" d="M72.73,-196.1C90.95,-189.21 115.84,-179.82 137.96,-171.46"/>
<polygon fill="#63b8ff" stroke="#63b8ff" points="139.02,-174.8 147.14,-168 136.55,-168.25 139.02,-174.8"/>
</g>
<!-- Node3 -->
<g id="node3" class="node">
<title>Node3</title>
<g id="a_node3"><a xlink:href="../../df/db2/classdoris_1_1vectorized_1_1_p_o_d_array.html#ad5fa9e90952b95f1d6ab2989c9f481af" target="_top" xlink:title=" ">
<polygon fill="white" stroke="#666666" points="401.5,-514 306.5,-514 306.5,-484 401.5,-484 401.5,-514"/>
<text text-anchor="start" x="314.5" y="-502" font-family="Helvetica,sans-Serif" font-size="10.00">doris::vectorized::</text>
<text text-anchor="middle" x="354" y="-491" font-family="Helvetica,sans-Serif" font-size="10.00">PODArray::swap</text>
</a>
</g>
</g>
<!-- Node2&#45;&gt;Node3 -->
<g id="edge2" class="edge">
<title>Node2&#45;&gt;Node3</title>
<path fill="none" stroke="#63b8ff" d="M203.11,-371.85C228.72,-393.57 290.57,-446.04 326.3,-476.35"/>
<polygon fill="#63b8ff" stroke="#63b8ff" points="323.74,-478.77 333.63,-482.57 328.27,-473.43 323.74,-478.77"/>
</g>
<!-- Node4 -->
<g id="node4" class="node">
<title>Node4</title>
<g id="a_node4"><a xlink:href="../../d5/d9d/classdoris_1_1vectorized_1_1_p_o_d_array_base.html#acd47db4f184c2a88c3c8eee3406d13db" target="_top" xlink:title="This method is safe to use only for information about memory usage.">
<polygon fill="white" stroke="#666666" points="648,-595 454,-595 454,-543 648,-543 648,-595"/>
<text text-anchor="start" x="462" y="-583" font-family="Helvetica,sans-Serif" font-size="10.00">doris::vectorized::</text>
<text text-anchor="start" x="462" y="-572" font-family="Helvetica,sans-Serif" font-size="10.00">PODArrayBase&lt; sizeof</text>
<text text-anchor="start" x="462" y="-561" font-family="Helvetica,sans-Serif" font-size="10.00">(T), initial_bytes, TAllocator,</text>
<text text-anchor="middle" x="551" y="-550" font-family="Helvetica,sans-Serif" font-size="10.00"> pad_right_, pad_left_ &gt;::allocated_bytes</text>
</a>
</g>
</g>
<!-- Node3&#45;&gt;Node4 -->
<g id="edge3" class="edge">
<title>Node3&#45;&gt;Node4</title>
<path fill="none" stroke="#63b8ff" d="M401.71,-509.91C426.08,-517.71 456.32,-528.38 483.13,-538.55"/>
<polygon fill="#63b8ff" stroke="#63b8ff" points="481.6,-541.71 492.19,-542.03 484.1,-535.18 481.6,-541.71"/>
</g>
<!-- Node3&#45;&gt;Node4 -->
<g id="edge4" class="edge">
<title>Node3&#45;&gt;Node4</title>
<path fill="none" stroke="#63b8ff" d="M384.19,-514.46C401.24,-521.67 423.88,-530.39 446.94,-538.74"/>
<polygon fill="#63b8ff" stroke="#63b8ff" points="445.53,-541.96 456.12,-542.04 447.89,-535.37 445.53,-541.96"/>
</g>
<!-- Node5 -->
<g id="node5" class="node">
<title>Node5</title>
<g id="a_node5"><a xlink:href="../../d5/d9d/classdoris_1_1vectorized_1_1_p_o_d_array_base.html#a4fd871ea772d3f22957ed8dd6a0aebb6" target="_top" xlink:title="The amount of memory occupied by the num_elements of the elements.">
<polygon fill="white" stroke="#666666" points="634.5,-525 467.5,-525 467.5,-473 634.5,-473 634.5,-525"/>
<text text-anchor="start" x="475.5" y="-513" font-family="Helvetica,sans-Serif" font-size="10.00">doris::vectorized::</text>
<text text-anchor="start" x="475.5" y="-502" font-family="Helvetica,sans-Serif" font-size="10.00">PODArrayBase&lt; sizeof</text>
<text text-anchor="start" x="475.5" y="-491" font-family="Helvetica,sans-Serif" font-size="10.00">(T), initial_bytes, TAllocator,</text>
<text text-anchor="middle" x="551" y="-480" font-family="Helvetica,sans-Serif" font-size="10.00"> pad_right_, pad_left_ &gt;::byte_size</text>
</a>
</g>
</g>
<!-- Node3&#45;&gt;Node5 -->
<g id="edge5" class="edge">
<title>Node3&#45;&gt;Node5</title>
<path fill="none" stroke="#63b8ff" d="M401.71,-499C418.02,-499 436.96,-499 455.75,-499"/>
<polygon fill="#63b8ff" stroke="#63b8ff" points="455.57,-502.5 465.57,-499 455.57,-495.5 455.57,-502.5"/>
</g>
<!-- Node6 -->
<g id="node6" class="node">
<title>Node6</title>
<g id="a_node6"><a xlink:href="../../d9/dbd/classdoris_1_1_exec_env.html#a920023e1afb35093f05bf7b69cc5e889" target="_top" xlink:title=" ">
<polygon fill="white" stroke="#666666" points="827,-545.5 684,-545.5 684,-526.5 827,-526.5 827,-545.5"/>
<text text-anchor="middle" x="755.5" y="-533.5" font-family="Helvetica,sans-Serif" font-size="10.00">doris::ExecEnv::GetInstance</text>
</a>
</g>
</g>
<!-- Node3&#45;&gt;Node6 -->
<g id="edge6" class="edge">
<title>Node3&#45;&gt;Node6</title>
<path fill="none" stroke="#63b8ff" d="M389.5,-483.55C408.18,-476.02 431.9,-467.79 454,-464 538.98,-449.42 565.56,-438.75 648,-464 682.63,-474.61 716.16,-500.7 736.06,-518.39"/>
<polygon fill="#63b8ff" stroke="#63b8ff" points="733.59,-520.87 743.32,-525.04 738.31,-515.7 733.59,-520.87"/>
</g>
<!-- Node7 -->
<g id="node7" class="node">
<title>Node7</title>
<g id="a_node7"><a xlink:href="../../d5/d9d/classdoris_1_1vectorized_1_1_p_o_d_array_base.html#a87091e8bd70fd5b032dbbf8203ef52e5" target="_top" xlink:title=" ">
<polygon fill="white" stroke="#666666" points="620,-416.5 482,-416.5 482,-353.5 620,-353.5 620,-416.5"/>
<text text-anchor="start" x="490" y="-404.5" font-family="Helvetica,sans-Serif" font-size="10.00">doris::vectorized::</text>
<text text-anchor="start" x="490" y="-393.5" font-family="Helvetica,sans-Serif" font-size="10.00">PODArrayBase&lt; sizeof</text>
<text text-anchor="start" x="490" y="-382.5" font-family="Helvetica,sans-Serif" font-size="10.00">(T), initial_bytes, TAllocator,</text>
<text text-anchor="start" x="490" y="-371.5" font-family="Helvetica,sans-Serif" font-size="10.00"> pad_right_, pad_left_ &gt;::is</text>
<text text-anchor="middle" x="551" y="-360.5" font-family="Helvetica,sans-Serif" font-size="10.00">_allocated_from_stack</text>
</a>
</g>
</g>
<!-- Node3&#45;&gt;Node7 -->
<g id="edge7" class="edge">
<title>Node3&#45;&gt;Node7</title>
<path fill="none" stroke="#63b8ff" d="M367.4,-483.68C385.76,-466.78 421.51,-440.79 454,-422 459.64,-418.74 465.54,-415.51 471.53,-412.38"/>
<polygon fill="#63b8ff" stroke="#63b8ff" points="472.99,-415.56 480.31,-407.91 469.81,-409.32 472.99,-415.56"/>
</g>
<!-- Node3&#45;&gt;Node7 -->
<g id="edge8" class="edge">
<title>Node3&#45;&gt;Node7</title>
<path fill="none" stroke="#63b8ff" d="M385.85,-483.77C404.98,-471.16 430.35,-453.68 454,-440 464.77,-433.77 476.5,-427.64 487.96,-421.82"/>
<polygon fill="#63b8ff" stroke="#63b8ff" points="489.22,-425.11 496.57,-417.48 486.07,-418.86 489.22,-425.11"/>
</g>
<!-- Node8 -->
<g id="node8" class="node">
<title>Node8</title>
<g id="a_node8"><a xlink:href="../../d5/d9d/classdoris_1_1vectorized_1_1_p_o_d_array_base.html#a7a2108348656c73efe1d72702c96d5c5" target="_top" xlink:title=" ">
<polygon fill="white" stroke="#666666" points="620,-335.5 482,-335.5 482,-272.5 620,-272.5 620,-335.5"/>
<text text-anchor="start" x="490" y="-323.5" font-family="Helvetica,sans-Serif" font-size="10.00">doris::vectorized::</text>
<text text-anchor="start" x="490" y="-312.5" font-family="Helvetica,sans-Serif" font-size="10.00">PODArrayBase&lt; sizeof</text>
<text text-anchor="start" x="490" y="-301.5" font-family="Helvetica,sans-Serif" font-size="10.00">(T), initial_bytes, TAllocator,</text>
<text text-anchor="start" x="490" y="-290.5" font-family="Helvetica,sans-Serif" font-size="10.00"> pad_right_, pad_left_ &gt;::is</text>
<text text-anchor="middle" x="551" y="-279.5" font-family="Helvetica,sans-Serif" font-size="10.00">_initialized</text>
</a>
</g>
</g>
<!-- Node3&#45;&gt;Node8 -->
<g id="edge9" class="edge">
<title>Node3&#45;&gt;Node8</title>
<path fill="none" stroke="#63b8ff" d="M359.3,-483.73C370.69,-451.51 404.23,-378.05 454,-336 459.45,-331.39 465.5,-327.24 471.82,-323.53"/>
<polygon fill="#63b8ff" stroke="#63b8ff" points="473.48,-326.61 480.62,-318.79 470.16,-320.45 473.48,-326.61"/>
</g>
<!-- Node3&#45;&gt;Node8 -->
<g id="edge10" class="edge">
<title>Node3&#45;&gt;Node8</title>
<path fill="none" stroke="#63b8ff" d="M363.49,-483.92C377.73,-454.79 409.33,-391.74 454,-354 459.58,-349.28 465.78,-345.04 472.28,-341.19"/>
<polygon fill="#63b8ff" stroke="#63b8ff" points="473.57,-344.48 480.63,-336.57 470.19,-338.35 473.57,-344.48"/>
</g>
<!-- Node9 -->
<g id="node9" class="node">
<title>Node9</title>
<g id="a_node9"><a xlink:href="../../d9/d1e/memcpy__aarch64_8cpp.html#a156c5821f16ed93be8c7d315303f7b2a" target="_top" xlink:title=" ">
<polygon fill="white" stroke="#666666" points="578,-254.5 524,-254.5 524,-235.5 578,-235.5 578,-254.5"/>
<text text-anchor="middle" x="551" y="-242.5" font-family="Helvetica,sans-Serif" font-size="10.00">memcpy</text>
</a>
</g>
</g>
<!-- Node3&#45;&gt;Node9 -->
<g id="edge11" class="edge">
<title>Node3&#45;&gt;Node9</title>
<path fill="none" stroke="#63b8ff" d="M356.57,-483.75C361.78,-441.52 382.44,-322.31 454,-264 470.14,-250.85 492.83,-245.93 512.1,-244.38"/>
<polygon fill="#63b8ff" stroke="#63b8ff" points="512.24,-247.88 522.05,-243.89 511.89,-240.89 512.24,-247.88"/>
</g>
<!-- Node11 -->
<g id="node11" class="node">
<title>Node11</title>
<g id="a_node11"><a xlink:href="../../d9/dbd/classdoris_1_1_exec_env.html#a389d834891cbfc8e351eb81867175fb6" target="_top" xlink:title=" ">
<polygon fill="white" stroke="#666666" points="610.5,-217 491.5,-217 491.5,-187 610.5,-187 610.5,-217"/>
<text text-anchor="start" x="499.5" y="-205" font-family="Helvetica,sans-Serif" font-size="10.00">doris::ExecEnv::orphan</text>
<text text-anchor="middle" x="551" y="-194" font-family="Helvetica,sans-Serif" font-size="10.00">_mem_tracker_raw</text>
</a>
</g>
</g>
<!-- Node3&#45;&gt;Node11 -->
<g id="edge13" class="edge">
<title>Node3&#45;&gt;Node11</title>
<path fill="none" stroke="#63b8ff" d="M355.81,-483.68C359.1,-437.52 375.39,-298.53 454,-227 461.58,-220.11 470.82,-215.07 480.54,-211.39"/>
<polygon fill="#63b8ff" stroke="#63b8ff" points="481.35,-214.81 489.78,-208.38 479.18,-208.15 481.35,-214.81"/>
</g>
<!-- Node12 -->
<g id="node12" class="node">
<title>Node12</title>
<g id="a_node12"><a xlink:href="../../d5/d9d/classdoris_1_1vectorized_1_1_p_o_d_array_base.html#a20432b443b7527c0e50d859593839d3d" target="_top" xlink:title=" ">
<polygon fill="white" stroke="#666666" points="620,-643 482,-643 482,-613 620,-613 620,-643"/>
<text text-anchor="start" x="490" y="-631" font-family="Helvetica,sans-Serif" font-size="10.00">doris::vectorized::</text>
<text text-anchor="middle" x="551" y="-620" font-family="Helvetica,sans-Serif" font-size="10.00">PODArrayBase::reset_peak</text>
</a>
</g>
</g>
<!-- Node3&#45;&gt;Node12 -->
<g id="edge14" class="edge">
<title>Node3&#45;&gt;Node12</title>
<path fill="none" stroke="#63b8ff" d="M369.8,-514.47C387.14,-536.07 418.11,-573.98 454,-595 464.67,-601.25 476.93,-605.88 489.04,-609.51"/>
<polygon fill="#63b8ff" stroke="#63b8ff" points="488.03,-612.87 498.61,-612.18 489.91,-606.12 488.03,-612.87"/>
</g>
<!-- Node3&#45;&gt;Node12 -->
<g id="edge16" class="edge">
<title>Node3&#45;&gt;Node12</title>
<path fill="none" stroke="#63b8ff" d="M361.78,-514.47C376.11,-539.82 411.63,-588.18 454,-613 459.33,-616.12 465.05,-618.84 470.95,-621.18"/>
<polygon fill="#63b8ff" stroke="#63b8ff" points="469.71,-624.45 480.3,-624.49 472.04,-617.85 469.71,-624.45"/>
</g>
<!-- Node13 -->
<g id="node13" class="node">
<title>Node13</title>
<g id="a_node13"><a xlink:href="../../d5/d9d/classdoris_1_1vectorized_1_1_p_o_d_array_base.html#a259cb5a711406a8c3e5d937eb9350cca" target="_top" xlink:title=" ">
<polygon fill="white" stroke="#666666" points="605,-691 497,-691 497,-661 605,-661 605,-691"/>
<text text-anchor="start" x="505" y="-679" font-family="Helvetica,sans-Serif" font-size="10.00">doris::vectorized::</text>
<text text-anchor="middle" x="551" y="-668" font-family="Helvetica,sans-Serif" font-size="10.00">PODArrayBase::size</text>
</a>
</g>
</g>
<!-- Node3&#45;&gt;Node13 -->
<g id="edge17" class="edge">
<title>Node3&#45;&gt;Node13</title>
<path fill="none" stroke="#63b8ff" d="M362.63,-514.32C375.89,-544.22 406.39,-608.96 454,-643 463.43,-649.74 474.55,-654.59 485.82,-658.25"/>
<polygon fill="#63b8ff" stroke="#63b8ff" points="484.59,-661.54 495.17,-660.99 486.55,-654.82 484.59,-661.54"/>
</g>
<!-- Node3&#45;&gt;Node13 -->
<g id="edge18" class="edge">
<title>Node3&#45;&gt;Node13</title>
<path fill="none" stroke="#63b8ff" d="M358.79,-514.2C369.19,-547.12 400.98,-623.09 454,-661 463.33,-667.67 474.32,-672.49 485.47,-675.82"/>
<polygon fill="#63b8ff" stroke="#63b8ff" points="484.6,-679.21 495.15,-678.29 486.33,-672.43 484.6,-679.21"/>
</g>
<!-- Node14 -->
<g id="node14" class="node">
<title>Node14</title>
<g id="a_node14"><a xlink:href="../../d5/d9d/classdoris_1_1vectorized_1_1_p_o_d_array_base.html#a41d7b4a7908cc8905970d3d601d8634c" target="_top" xlink:title=" ">
<polygon fill="white" stroke="#666666" points="616.5,-739 485.5,-739 485.5,-709 616.5,-709 616.5,-739"/>
<text text-anchor="start" x="493.5" y="-727" font-family="Helvetica,sans-Serif" font-size="10.00">doris::vectorized::</text>
<text text-anchor="middle" x="551" y="-716" font-family="Helvetica,sans-Serif" font-size="10.00">PODArrayBase::unprotect</text>
</a>
</g>
</g>
<!-- Node3&#45;&gt;Node14 -->
<g id="edge19" class="edge">
<title>Node3&#45;&gt;Node14</title>
<path fill="none" stroke="#63b8ff" d="M359.06,-514.38C368.29,-551.2 394.82,-643.24 454,-691 461.35,-696.93 469.97,-701.42 478.98,-704.91"/>
<polygon fill="#63b8ff" stroke="#63b8ff" points="477.65,-708.15 488.25,-708.07 479.91,-701.53 477.65,-708.15"/>
</g>
<!-- Node3&#45;&gt;Node14 -->
<g id="edge21" class="edge">
<title>Node3&#45;&gt;Node14</title>
<path fill="none" stroke="#63b8ff" d="M357.13,-514.35C364.17,-553.84 389.98,-657.33 454,-709 460.18,-713.99 467.26,-717.96 474.7,-721.06"/>
<polygon fill="#63b8ff" stroke="#63b8ff" points="473.41,-724.31 484,-724.37 475.76,-717.72 473.41,-724.31"/>
</g>
<!-- Node10 -->
<g id="node10" class="node">
<title>Node10</title>
<g id="a_node10"><a xlink:href="../../d9/d1e/memcpy__aarch64_8cpp.html#a11ebdd343428c466f2f35c376d7db6d0" target="_top" xlink:title=" ">
<polygon fill="white" stroke="#666666" points="796.5,-254.5 714.5,-254.5 714.5,-235.5 796.5,-235.5 796.5,-254.5"/>
<text text-anchor="middle" x="755.5" y="-242.5" font-family="Helvetica,sans-Serif" font-size="10.00">inline_memcpy</text>
</a>
</g>
</g>
<!-- Node9&#45;&gt;Node10 -->
<g id="edge12" class="edge">
<title>Node9&#45;&gt;Node10</title>
<path fill="none" stroke="#63b8ff" d="M578.47,-245C609.89,-245 663.02,-245 702.7,-245"/>
<polygon fill="#63b8ff" stroke="#63b8ff" points="702.52,-248.5 712.52,-245 702.52,-241.5 702.52,-248.5"/>
</g>
<!-- Node12&#45;&gt;Node6 -->
<g id="edge15" class="edge">
<title>Node12&#45;&gt;Node6</title>
<path fill="none" stroke="#63b8ff" d="M620.3,-613.83C629.77,-611.03 639.24,-607.77 648,-604 679.51,-590.43 712.27,-568.06 732.99,-552.71"/>
<polygon fill="#63b8ff" stroke="#63b8ff" points="735.06,-555.53 740.93,-546.71 730.84,-549.95 735.06,-555.53"/>
</g>
<!-- Node15 -->
<g id="node15" class="node">
<title>Node15</title>
<g id="a_node15"><a xlink:href="../../d5/d9d/classdoris_1_1vectorized_1_1_p_o_d_array_base.html#aabb38ffefd0c3a618756a9150e27a97a" target="_top" xlink:title=" ">
<polygon fill="white" stroke="#666666" points="827,-739 684,-739 684,-709 827,-709 827,-739"/>
<text text-anchor="start" x="692" y="-727" font-family="Helvetica,sans-Serif" font-size="10.00">doris::vectorized::</text>
<text text-anchor="middle" x="755.5" y="-716" font-family="Helvetica,sans-Serif" font-size="10.00">PODArrayBase::protect_impl</text>
</a>
</g>
</g>
<!-- Node14&#45;&gt;Node15 -->
<g id="edge20" class="edge">
<title>Node14&#45;&gt;Node15</title>
<path fill="none" stroke="#63b8ff" d="M616.91,-724C634.54,-724 653.86,-724 672.3,-724"/>
<polygon fill="#63b8ff" stroke="#63b8ff" points="672.14,-727.5 682.14,-724 672.14,-720.5 672.14,-727.5"/>
</g>
<!-- Node17&#45;&gt;Node16 -->
<g id="edge35" class="edge">
<title>Node17&#45;&gt;Node16</title>
<path fill="none" stroke="#63b8ff" d="M237.78,-167.47C255.94,-173.55 276.97,-180.58 296.04,-186.96"/>
<polygon fill="#63b8ff" stroke="#63b8ff" points="294.68,-190.19 305.28,-190.04 296.9,-183.55 294.68,-190.19"/>
</g>
<!-- Node18 -->
<g id="node18" class="node">
<title>Node18</title>
<g id="a_node18"><a xlink:href="../../d9/d96/classdoris_1_1_runtime_profile.html#a7f9e4116502c6aa37ff850c1437ad95f" target="_top" xlink:title=" ">
<polygon fill="white" stroke="#666666" points="408,-155 300,-155 300,-125 408,-125 408,-155"/>
<text text-anchor="start" x="308" y="-143" font-family="Helvetica,sans-Serif" font-size="10.00">doris::RuntimeProfile</text>
<text text-anchor="middle" x="354" y="-132" font-family="Helvetica,sans-Serif" font-size="10.00">::add_to_span</text>
</a>
</g>
</g>
<!-- Node17&#45;&gt;Node18 -->
<g id="edge24" class="edge">
<title>Node17&#45;&gt;Node18</title>
<path fill="none" stroke="#63b8ff" d="M254.4,-147.33C265.51,-146.5 277.09,-145.64 288.25,-144.81"/>
<polygon fill="#63b8ff" stroke="#63b8ff" points="288.47,-148.3 298.18,-144.07 287.95,-141.32 288.47,-148.3"/>
</g>
<!-- Node25 -->
<g id="node25" class="node">
<title>Node25</title>
<g id="a_node25"><a xlink:href="../../d2/d49/classdoris_1_1_exec_node.html#a737390e183764beeb0052125fe1697c7" target="_top" xlink:title=" ">
<polygon fill="white" stroke="#666666" points="418,-107 290,-107 290,-77 418,-77 418,-107"/>
<text text-anchor="start" x="298" y="-95" font-family="Helvetica,sans-Serif" font-size="10.00">doris::ExecNode::runtime</text>
<text text-anchor="middle" x="354" y="-84" font-family="Helvetica,sans-Serif" font-size="10.00">_profile</text>
</a>
</g>
</g>
<!-- Node17&#45;&gt;Node25 -->
<g id="edge36" class="edge">
<title>Node17&#45;&gt;Node25</title>
<path fill="none" stroke="#63b8ff" d="M233.09,-136.55C253.81,-128.85 279.07,-119.47 301.06,-111.3"/>
<polygon fill="#63b8ff" stroke="#63b8ff" points="301.98,-114.69 310.13,-107.93 299.54,-108.13 301.98,-114.69"/>
</g>
<!-- Node18&#45;&gt;Node18 -->
<g id="edge32" class="edge">
<title>Node18&#45;&gt;Node18</title>
<path fill="none" stroke="#63b8ff" d="M325.26,-155.28C318.87,-164.41 328.45,-173 354,-173 367.97,-173 377.17,-170.43 381.59,-166.61"/>
<polygon fill="#63b8ff" stroke="#63b8ff" points="385.06,-167.08 382.59,-156.78 378.09,-166.38 385.06,-167.08"/>
</g>
<!-- Node19 -->
<g id="node19" class="node">
<title>Node19</title>
<g id="a_node19"><a xlink:href="../../d9/d96/classdoris_1_1_runtime_profile.html#a3547a57f51e7bba7e6b95d11c677c79f" target="_top" xlink:title=" ">
<polygon fill="white" stroke="#666666" points="605,-74.5 497,-74.5 497,-33.5 605,-33.5 605,-74.5"/>
<text text-anchor="start" x="505" y="-62.5" font-family="Helvetica,sans-Serif" font-size="10.00">doris::RuntimeProfile</text>
<text text-anchor="start" x="505" y="-51.5" font-family="Helvetica,sans-Serif" font-size="10.00">::add_child_counters</text>
<text text-anchor="middle" x="551" y="-40.5" font-family="Helvetica,sans-Serif" font-size="10.00">_to_span</text>
</a>
</g>
</g>
<!-- Node18&#45;&gt;Node19 -->
<g id="edge25" class="edge">
<title>Node18&#45;&gt;Node19</title>
<path fill="none" stroke="#63b8ff" d="M396.86,-124.56C403.95,-121.8 411.21,-118.88 418,-116 444.39,-104.79 473.26,-91.37 497.26,-79.88"/>
<polygon fill="#63b8ff" stroke="#63b8ff" points="498.71,-83.07 506.2,-75.58 495.67,-76.76 498.71,-83.07"/>
</g>
<!-- Node20 -->
<g id="node20" class="node">
<title>Node20</title>
<g id="a_node20"><a xlink:href="../../d9/d96/classdoris_1_1_runtime_profile.html#a62bc80998515452584ebcc745cabfe9f" target="_top" xlink:title=" ">
<polygon fill="white" stroke="#666666" points="809.5,-102 701.5,-102 701.5,-72 809.5,-72 809.5,-102"/>
<text text-anchor="start" x="709.5" y="-90" font-family="Helvetica,sans-Serif" font-size="10.00">doris::RuntimeProfile</text>
<text text-anchor="middle" x="755.5" y="-79" font-family="Helvetica,sans-Serif" font-size="10.00">::print_json_counter</text>
</a>
</g>
</g>
<!-- Node18&#45;&gt;Node20 -->
<g id="edge33" class="edge">
<title>Node18&#45;&gt;Node20</title>
<path fill="none" stroke="#63b8ff" d="M408.46,-132.91C481.32,-123.24 611.64,-105.95 689.88,-95.57"/>
<polygon fill="#63b8ff" stroke="#63b8ff" points="690.08,-99.08 699.53,-94.29 689.16,-92.14 690.08,-99.08"/>
</g>
<!-- Node22 -->
<g id="node22" class="node">
<title>Node22</title>
<g id="a_node22"><a xlink:href="../../d9/d96/classdoris_1_1_runtime_profile.html#a46cf59a00a2e66e400a585d412a87a71" target="_top" xlink:title=" ">
<polygon fill="white" stroke="#666666" points="971,-174 863,-174 863,-144 971,-144 971,-174"/>
<text text-anchor="start" x="871" y="-162" font-family="Helvetica,sans-Serif" font-size="10.00">doris::RuntimeProfile</text>
<text text-anchor="middle" x="917" y="-151" font-family="Helvetica,sans-Serif" font-size="10.00">::print_json_info</text>
</a>
</g>
</g>
<!-- Node18&#45;&gt;Node22 -->
<g id="edge34" class="edge">
<title>Node18&#45;&gt;Node22</title>
<path fill="none" stroke="#63b8ff" d="M408.28,-141.8C511.7,-145.31 739.28,-153.01 851.22,-156.81"/>
<polygon fill="#63b8ff" stroke="#63b8ff" points="851.04,-160.3 861.15,-157.14 851.27,-153.31 851.04,-160.3"/>
</g>
<!-- Node19&#45;&gt;Node19 -->
<g id="edge26" class="edge">
<title>Node19&#45;&gt;Node19</title>
<path fill="none" stroke="#63b8ff" d="M514.64,-74.99C511.18,-84.38 523.3,-92.5 551,-92.5 567.02,-92.5 577.82,-89.79 583.42,-85.68"/>
<polygon fill="#63b8ff" stroke="#63b8ff" points="586.67,-87 586.84,-76.41 580.1,-84.58 586.67,-87"/>
</g>
<!-- Node19&#45;&gt;Node20 -->
<g id="edge27" class="edge">
<title>Node19&#45;&gt;Node20</title>
<path fill="none" stroke="#63b8ff" d="M605.47,-62.71C631.42,-66.94 662.81,-72.06 690.07,-76.5"/>
<polygon fill="#63b8ff" stroke="#63b8ff" points="689.16,-79.9 699.59,-78.05 690.28,-72.99 689.16,-79.9"/>
</g>
<!-- Node21 -->
<g id="node21" class="node">
<title>Node21</title>
<g id="a_node21"><a xlink:href="../../d4/db8/classdoris_1_1_pretty_printer.html#aaa3ce08858081586e0f1e563733cadf2" target="_top" xlink:title=" ">
<polygon fill="white" stroke="#666666" points="966,-126 868,-126 868,-96 966,-96 966,-126"/>
<text text-anchor="start" x="876" y="-114" font-family="Helvetica,sans-Serif" font-size="10.00">doris::PrettyPrinter</text>
<text text-anchor="middle" x="917" y="-103" font-family="Helvetica,sans-Serif" font-size="10.00">::print</text>
</a>
</g>
</g>
<!-- Node20&#45;&gt;Node21 -->
<g id="edge28" class="edge">
<title>Node20&#45;&gt;Node21</title>
<path fill="none" stroke="#63b8ff" d="M809.61,-94.99C824.71,-97.26 841.24,-99.75 856.68,-102.07"/>
<polygon fill="#63b8ff" stroke="#63b8ff" points="855.78,-105.48 866.19,-103.51 856.83,-98.56 855.78,-105.48"/>
</g>
<!-- Node20&#45;&gt;Node22 -->
<g id="edge29" class="edge">
<title>Node20&#45;&gt;Node22</title>
<path fill="none" stroke="#63b8ff" d="M790.72,-102.45C814.37,-113.12 846.06,-127.43 871.65,-138.98"/>
<polygon fill="#63b8ff" stroke="#63b8ff" points="869.91,-142.03 880.46,-142.96 872.79,-135.65 869.91,-142.03"/>
</g>
<!-- Node23 -->
<g id="node23" class="node">
<title>Node23</title>
<g id="a_node23"><a xlink:href="../../da/d02/classdoris_1_1_runtime_profile_1_1_counter.html#a060cb58ca1914eb9f853b510f4585b25" target="_top" xlink:title=" ">
<polygon fill="white" stroke="#666666" points="971,-78 863,-78 863,-48 971,-48 971,-78"/>
<text text-anchor="start" x="871" y="-66" font-family="Helvetica,sans-Serif" font-size="10.00">doris::RuntimeProfile</text>
<text text-anchor="middle" x="917" y="-55" font-family="Helvetica,sans-Serif" font-size="10.00">::Counter::type</text>
</a>
</g>
</g>
<!-- Node20&#45;&gt;Node23 -->
<g id="edge30" class="edge">
<title>Node20&#45;&gt;Node23</title>
<path fill="none" stroke="#63b8ff" d="M809.61,-79.01C823.05,-76.99 837.64,-74.79 851.57,-72.69"/>
<polygon fill="#63b8ff" stroke="#63b8ff" points="851.71,-76.21 861.08,-71.26 850.67,-69.29 851.71,-76.21"/>
</g>
<!-- Node24 -->
<g id="node24" class="node">
<title>Node24</title>
<g id="a_node24"><a xlink:href="../../da/d02/classdoris_1_1_runtime_profile_1_1_counter.html#a3ad5729c8c11273b9cb61e59e3101f5e" target="_top" xlink:title=" ">
<polygon fill="white" stroke="#666666" points="971,-30 863,-30 863,0 971,0 971,-30"/>
<text text-anchor="start" x="871" y="-18" font-family="Helvetica,sans-Serif" font-size="10.00">doris::RuntimeProfile</text>
<text text-anchor="middle" x="917" y="-7" font-family="Helvetica,sans-Serif" font-size="10.00">::Counter::value</text>
</a>
</g>
</g>
<!-- Node20&#45;&gt;Node24 -->
<g id="edge31" class="edge">
<title>Node20&#45;&gt;Node24</title>
<path fill="none" stroke="#63b8ff" d="M790.72,-71.55C814.37,-60.88 846.06,-46.57 871.65,-35.02"/>
<polygon fill="#63b8ff" stroke="#63b8ff" points="872.79,-38.35 880.46,-31.04 869.91,-31.97 872.79,-38.35"/>
</g>
</g>
</svg>
        <g id="navigator" transform="translate(0 0)" fill="#404254">
                <rect fill="#f2f5e9" fill-opacity="0.5" stroke="#606060" stroke-width=".5" x="0" y="0" width="60" height="60"/>
                <use id="zoomplus" xlink:href="#zoomPlus" x="17" y="9" onmousedown="handleZoom(evt,'in')"/>
                <use id="zoomminus" xlink:href="#zoomMin" x="42" y="9" onmousedown="handleZoom(evt,'out')"/>
                <use id="reset" xlink:href="#resetDef" x="30" y="36" onmousedown="handleReset()"/>
                <g id="arrowUp" xlink:href="#dirArrow" transform="translate(30 24)" onmousedown="handlePan(0,-1)">
                  <use xlink:href="#rim" fill="#404040">
                        <set attributeName="fill" to="#808080" begin="arrowUp.mouseover" end="arrowUp.mouseout"/>
                  </use>
                  <path fill="none" stroke="white" stroke-width="1.5" d="M0,-3.0v7 M-2.5,-0.5L0,-3.0L2.5,-0.5"/>
                </g>
                <g id="arrowRight" xlink:href="#dirArrow" transform="rotate(90) translate(36 -43)" onmousedown="handlePan(1,0)">
                  <use xlink:href="#rim" fill="#404040">
                        <set attributeName="fill" to="#808080" begin="arrowRight.mouseover" end="arrowRight.mouseout"/>
                  </use>
                  <path fill="none" stroke="white" stroke-width="1.5" d="M0,-3.0v7 M-2.5,-0.5L0,-3.0L2.5,-0.5"/>
                </g>
                <g id="arrowDown" xlink:href="#dirArrow" transform="rotate(180) translate(-30 -48)" onmousedown="handlePan(0,1)">
                  <use xlink:href="#rim" fill="#404040">
                        <set attributeName="fill" to="#808080" begin="arrowDown.mouseover" end="arrowDown.mouseout"/>
                  </use>
                  <path fill="none" stroke="white" stroke-width="1.5" d="M0,-3.0v7 M-2.5,-0.5L0,-3.0L2.5,-0.5"/>
                </g>
                <g id="arrowLeft" xlink:href="#dirArrow" transform="rotate(270) translate(-36 17)" onmousedown="handlePan(-1,0)">
                  <use xlink:href="#rim" fill="#404040">
                        <set attributeName="fill" to="#808080" begin="arrowLeft.mouseover" end="arrowLeft.mouseout"/>
                  </use>
                  <path fill="none" stroke="white" stroke-width="1.5" d="M0,-3.0v7 M-2.5,-0.5L0,-3.0L2.5,-0.5"/>
                </g>
        </g>
        <svg viewBox="0 0 15 15" width="100%" height="30px" preserveAspectRatio="xMaxYMin meet">
         <g id="arrow_out" transform="scale(0.3 0.3)">
          <a xlink:href="classdoris_1_1vectorized_1_1_aggregation_node_a2313d4299d3fa11834e3516fb942c8cf_cgraph_org.svg" target="_base">
           <rect id="button" ry="5" rx="5" y="6" x="6" height="38" width="38"
                fill="#f2f5e9" fill-opacity="0.5" stroke="#606060" stroke-width="1.0"/>
           <path id="arrow"
             d="M 11.500037,31.436501 C 11.940474,20.09759 22.043105,11.32322 32.158766,21.979434 L 37.068811,17.246167 C 37.068811,17.246167 37.088388,32 37.088388,32 L 22.160133,31.978069 C 22.160133,31.978069 26.997745,27.140456 26.997745,27.140456 C 18.528582,18.264221 13.291696,25.230495 11.500037,31.436501 z"
             style="fill:#404040;"/>
          </a>
         </g>
        </svg>
</svg>
