<?xml version="1.0" encoding="UTF-8" standalone="no"?>
<!DOCTYPE svg PUBLIC "-//W3C//DTD SVG 1.1//EN"
 "http://www.w3.org/Graphics/SVG/1.1/DTD/svg11.dtd">
<!-- Generated by graphviz version 7.1.0 (20230121.1956)
 -->
<!-- Title: _get_with_serialized_key_result Pages: 1 -->
<svg width="314pt" height="38pt"
 viewBox="0.00 0.00 314.00 38.00" xmlns="http://www.w3.org/2000/svg" xmlns:xlink="http://www.w3.org/1999/xlink">
<g id="graph0" class="graph" transform="scale(1 1) rotate(0) translate(4 34)">
<title>_get_with_serialized_key_result</title>
<!-- Node1 -->
<g id="node1" class="node">
<title>Node1</title>
<g id="a_node1"><a xlink:title=" ">
<polygon fill="#999999" stroke="#666666" points="306,-30 201,-30 201,0 306,0 306,-30"/>
<text text-anchor="start" x="209" y="-18" font-family="Helvetica,sans-Serif" font-size="10.00">_get_with_serialized</text>
<text text-anchor="middle" x="253.5" y="-7" font-family="Helvetica,sans-Serif" font-size="10.00">_key_result</text>
</a>
</g>
</g>
<!-- Node2 -->
<g id="node2" class="node">
<title>Node2</title>
<g id="a_node2"><a xlink:href="../../d7/d71/classdoris_1_1vectorized_1_1_aggregation_node.html#a77935adcf2c477011d9545128a4224eb" target="_top" xlink:title=" ">
<polygon fill="white" stroke="#666666" points="165,-24.5 85,-24.5 85,-5.5 165,-5.5 165,-24.5"/>
<text text-anchor="middle" x="125" y="-12.5" font-family="Helvetica,sans-Serif" font-size="10.00">prepare_profile</text>
</a>
</g>
</g>
<!-- Node1&#45;&gt;Node2 -->
<g id="edge1" class="edge">
<title>Node1&#45;&gt;Node2</title>
<path fill="none" stroke="#63b8ff" d="M189.44,-15C181.16,-15 172.87,-15 165.15,-15"/>
<polygon fill="#63b8ff" stroke="#63b8ff" points="189.17,-18.5 199.17,-15 189.17,-11.5 189.17,-18.5"/>
</g>
<!-- Node3 -->
<g id="node3" class="node">
<title>Node3</title>
<g id="a_node3"><a xlink:href="../../d7/d71/classdoris_1_1vectorized_1_1_aggregation_node.html#aa1a9d3c8096a7d5dc7ae0b91b62b7e34" target="_top" xlink:title=" ">
<polygon fill="white" stroke="#666666" points="49,-24.5 0,-24.5 0,-5.5 49,-5.5 49,-24.5"/>
<text text-anchor="middle" x="24.5" y="-12.5" font-family="Helvetica,sans-Serif" font-size="10.00">prepare</text>
</a>
</g>
</g>
<!-- Node2&#45;&gt;Node3 -->
<g id="edge2" class="edge">
<title>Node2&#45;&gt;Node3</title>
<path fill="none" stroke="#63b8ff" d="M73.22,-8.25C64.91,-8.28 56.66,-8.57 49.41,-9.12"/>
<polygon fill="#63b8ff" stroke="#63b8ff" points="72.95,-11.75 82.99,-8.35 73.03,-4.75 72.95,-11.75"/>
</g>
<!-- Node3&#45;&gt;Node2 -->
<g id="edge3" class="edge">
<title>Node3&#45;&gt;Node2</title>
<path fill="none" stroke="#63b8ff" d="M60.64,-21.5C68.38,-21.78 76.61,-21.83 84.5,-21.63"/>
<polygon fill="#63b8ff" stroke="#63b8ff" points="61.1,-18.02 50.92,-20.97 60.71,-25.01 61.1,-18.02"/>
</g>
</g>
</svg>
