<?xml version="1.0" encoding="UTF-8" standalone="no"?>
<!DOCTYPE svg PUBLIC "-//W3C//DTD SVG 1.1//EN"
 "http://www.w3.org/Graphics/SVG/1.1/DTD/svg11.dtd">
<!-- Generated by graphviz version 7.1.0 (20230121.1956)
 -->
<!-- Title: init Pages: 1 -->
<!--zoomable 428 -->
<svg id="main" version="1.1" xmlns="http://www.w3.org/2000/svg" xmlns:xlink="http://www.w3.org/1999/xlink" xml:space="preserve" onload="init(evt)">
<style type="text/css"><![CDATA[
.edge:hover path { stroke: red; }
.edge:hover polygon { stroke: red; fill: red; }
]]></style>
<script type="text/javascript"><![CDATA[
var edges = document.getElementsByTagName('g');
if (edges && edges.length) {
  for (var i=0;i<edges.length;i++) {
    if (edges[i].id.substr(0,4)=='edge') {
      edges[i].setAttribute('class','edge');
    }
  }
}
]]></script>
        <defs>
                <circle id="rim" cx="0" cy="0" r="7"/>
                <circle id="rim2" cx="0" cy="0" r="3.5"/>
                <g id="zoomPlus">
                        <use xlink:href="#rim" fill="#404040">
                                <set attributeName="fill" to="#808080" begin="zoomplus.mouseover" end="zoomplus.mouseout"/>
                        </use>
                        <path d="M-4,0h8M0,-4v8" fill="none" stroke="white" stroke-width="1.5" pointer-events="none"/>
                </g>
                <g id="zoomMin">
                        <use xlink:href="#rim" fill="#404040">
                                <set attributeName="fill" to="#808080" begin="zoomminus.mouseover" end="zoomminus.mouseout"/>
                        </use>
                        <path d="M-4,0h8" fill="none" stroke="white" stroke-width="1.5" pointer-events="none"/>
                </g>
                <g id="dirArrow">
                        <path fill="none" stroke="white" stroke-width="1.5" d="M0,-3.0v7 M-2.5,-0.5L0,-3.0L2.5,-0.5"/>
                </g>
               <g id="resetDef">
                       <use xlink:href="#rim2" fill="#404040">
                               <set attributeName="fill" to="#808080" begin="reset.mouseover" end="reset.mouseout"/>
                       </use>
               </g>
        </defs>

<script type="text/javascript">
var viewWidth = 1122;
var viewHeight = 428;
var sectionId = 'dynsection-2';
</script>
<script xlink:href="../../svgpan.js"/>
<svg id="graph" class="graph">
<g id="viewport">
<title>init</title>
<!-- Node1 -->
<g id="node1" class="node">
<title>Node1</title>
<g id="a_node1"><a xlink:title=" ">
<polygon fill="#999999" stroke="#666666" points="29,-200.5 0,-200.5 0,-181.5 29,-181.5 29,-200.5"/>
<text text-anchor="middle" x="14.5" y="-188.5" font-family="Helvetica,sans-Serif" font-size="10.00">init</text>
</a>
</g>
</g>
<!-- Node2 -->
<g id="node2" class="node">
<title>Node2</title>
<g id="a_node2"><a xlink:href="../../d7/da1/classdoris_1_1vectorized_1_1_agg_fn_evaluator.html#aeb82f09d9ef8aa369b3756832be8adda" target="_top" xlink:title=" ">
<polygon fill="white" stroke="#666666" points="517.5,-328 398.5,-328 398.5,-298 517.5,-298 517.5,-328"/>
<text text-anchor="start" x="406.5" y="-316" font-family="Helvetica,sans-Serif" font-size="10.00">doris::vectorized::</text>
<text text-anchor="middle" x="458" y="-305" font-family="Helvetica,sans-Serif" font-size="10.00">AggFnEvaluator::create</text>
</a>
</g>
</g>
<!-- Node1&#45;&gt;Node2 -->
<g id="edge1" class="edge">
<title>Node1&#45;&gt;Node2</title>
<path fill="none" stroke="#63b8ff" d="M19.22,-200.77C25.8,-216.59 41.11,-247.49 65,-262 164.31,-322.3 303.69,-325.15 386.73,-320.16"/>
<polygon fill="#63b8ff" stroke="#63b8ff" points="386.8,-323.67 396.55,-319.51 386.34,-316.68 386.8,-323.67"/>
</g>
<!-- Node6 -->
<g id="node6" class="node">
<title>Node6</title>
<g id="a_node6"><a xlink:href="../../d9/d8d/classdoris_1_1_status.html#a6ec1a217f203269ab53d2290d602db24" target="_top" xlink:title=" ">
<polygon fill="white" stroke="#666666" points="960.5,-257.5 868.5,-257.5 868.5,-238.5 960.5,-238.5 960.5,-257.5"/>
<text text-anchor="middle" x="914.5" y="-245.5" font-family="Helvetica,sans-Serif" font-size="10.00">doris::Status::OK</text>
</a>
</g>
</g>
<!-- Node1&#45;&gt;Node6 -->
<g id="edge24" class="edge">
<title>Node1&#45;&gt;Node6</title>
<path fill="none" stroke="#63b8ff" d="M29.26,-196.06C68.47,-210.01 184.4,-248 284,-248 284,-248 284,-248 624.5,-248 705.4,-248 799.05,-248 857.29,-248"/>
<polygon fill="#63b8ff" stroke="#63b8ff" points="856.93,-251.5 866.93,-248 856.93,-244.5 856.93,-251.5"/>
</g>
<!-- Node8 -->
<g id="node8" class="node">
<title>Node8</title>
<g id="a_node8"><a xlink:href="../../d0/d2e/classdoris_1_1vectorized_1_1_v_expr.html#a99613799ebed9b5ded40f8a4652a3a5a" target="_top" xlink:title=" ">
<polygon fill="white" stroke="#666666" points="349,-206 221,-206 221,-176 349,-176 349,-206"/>
<text text-anchor="start" x="229" y="-194" font-family="Helvetica,sans-Serif" font-size="10.00">doris::vectorized::</text>
<text text-anchor="middle" x="285" y="-183" font-family="Helvetica,sans-Serif" font-size="10.00">VExpr::create_expr_trees</text>
</a>
</g>
</g>
<!-- Node1&#45;&gt;Node8 -->
<g id="edge11" class="edge">
<title>Node1&#45;&gt;Node8</title>
<path fill="none" stroke="#63b8ff" d="M29.18,-191C61.88,-191 146.49,-191 209.3,-191"/>
<polygon fill="#63b8ff" stroke="#63b8ff" points="209.24,-194.5 219.24,-191 209.24,-187.5 209.24,-194.5"/>
</g>
<!-- Node11 -->
<g id="node11" class="node">
<title>Node11</title>
<g id="a_node11"><a xlink:href="../../d2/d49/classdoris_1_1_exec_node.html#a9cf7e9655364634426158ff1bcbae7a5" target="_top" xlink:title=" ">
<polygon fill="white" stroke="#666666" points="176.5,-157.5 68.5,-157.5 68.5,-138.5 176.5,-138.5 176.5,-157.5"/>
<text text-anchor="middle" x="122.5" y="-145.5" font-family="Helvetica,sans-Serif" font-size="10.00">doris::ExecNode::init</text>
</a>
</g>
</g>
<!-- Node1&#45;&gt;Node11 -->
<g id="edge17" class="edge">
<title>Node1&#45;&gt;Node11</title>
<path fill="none" stroke="#63b8ff" d="M29.36,-185.38C43.78,-179.53 66.94,-170.13 86.43,-162.23"/>
<polygon fill="#63b8ff" stroke="#63b8ff" points="87.74,-165.47 95.69,-158.47 85.11,-158.99 87.74,-165.47"/>
</g>
<!-- Node15 -->
<g id="node15" class="node">
<title>Node15</title>
<g id="a_node15"><a xlink:href="../../d7/dc1/classdoris_1_1_runtime_state.html#afc6b6f1990e82f32ea64d63aa76eb5df" target="_top" xlink:title=" ">
<polygon fill="white" stroke="#666666" points="180,-120.5 65,-120.5 65,-79.5 180,-79.5 180,-120.5"/>
<text text-anchor="start" x="73" y="-108.5" font-family="Helvetica,sans-Serif" font-size="10.00">doris::RuntimeState</text>
<text text-anchor="start" x="73" y="-97.5" font-family="Helvetica,sans-Serif" font-size="10.00">::partitioned_hash_agg</text>
<text text-anchor="middle" x="122.5" y="-86.5" font-family="Helvetica,sans-Serif" font-size="10.00">_rows_threshold</text>
</a>
</g>
</g>
<!-- Node1&#45;&gt;Node15 -->
<g id="edge25" class="edge">
<title>Node1&#45;&gt;Node15</title>
<path fill="none" stroke="#63b8ff" d="M21.48,-181.12C29.88,-167.9 46.24,-144.35 65,-129 65.66,-128.46 66.32,-127.93 67,-127.41"/>
<polygon fill="#63b8ff" stroke="#63b8ff" points="68.83,-130.4 75.04,-121.81 64.84,-124.65 68.83,-130.4"/>
</g>
<!-- Node3 -->
<g id="node3" class="node">
<title>Node3</title>
<g id="a_node3"><a xlink:href="../../d8/da1/classdoris_1_1_object_pool.html#a034148f79c9a093574ce5b6a020283f8" target="_top" xlink:title=" ">
<polygon fill="white" stroke="#666666" points="971,-419.5 858,-419.5 858,-400.5 971,-400.5 971,-419.5"/>
<text text-anchor="middle" x="914.5" y="-407.5" font-family="Helvetica,sans-Serif" font-size="10.00">doris::ObjectPool::add</text>
</a>
</g>
</g>
<!-- Node2&#45;&gt;Node3 -->
<g id="edge2" class="edge">
<title>Node2&#45;&gt;Node3</title>
<path fill="none" stroke="#63b8ff" d="M486.37,-328.47C506.79,-339.6 535.59,-354.44 562,-365 630.54,-392.4 647.98,-402.22 721,-413 765.41,-419.56 777.12,-413.74 822,-413 829.89,-412.87 838.15,-412.68 846.35,-412.45"/>
<polygon fill="#63b8ff" stroke="#63b8ff" points="846.46,-415.95 856.35,-412.16 846.25,-408.96 846.46,-415.95"/>
</g>
<!-- Node4 -->
<g id="node4" class="node">
<title>Node4</title>
<g id="a_node4"><a xlink:href="../../d0/d2e/classdoris_1_1vectorized_1_1_v_expr.html#af5bb8f98762f0a2d1e88cdf2369f356c" target="_top" xlink:title=" ">
<polygon fill="white" stroke="#666666" points="685,-355.5 562,-355.5 562,-314.5 685,-314.5 685,-355.5"/>
<text text-anchor="start" x="570" y="-343.5" font-family="Helvetica,sans-Serif" font-size="10.00">doris::vectorized::</text>
<text text-anchor="start" x="570" y="-332.5" font-family="Helvetica,sans-Serif" font-size="10.00">VExpr::create_tree_from</text>
<text text-anchor="middle" x="623.5" y="-321.5" font-family="Helvetica,sans-Serif" font-size="10.00">_thrift</text>
</a>
</g>
</g>
<!-- Node2&#45;&gt;Node4 -->
<g id="edge3" class="edge">
<title>Node2&#45;&gt;Node4</title>
<path fill="none" stroke="#63b8ff" d="M517.57,-320.88C528.17,-322.31 539.35,-323.81 550.3,-325.28"/>
<polygon fill="#63b8ff" stroke="#63b8ff" points="549.71,-328.74 560.09,-326.6 550.64,-321.8 549.71,-328.74"/>
</g>
<!-- Node2&#45;&gt;Node6 -->
<g id="edge10" class="edge">
<title>Node2&#45;&gt;Node6</title>
<path fill="none" stroke="#63b8ff" d="M517.82,-304.96C589.64,-295.09 714.8,-277.73 822,-262 833.33,-260.34 845.44,-258.52 857.02,-256.75"/>
<polygon fill="#63b8ff" stroke="#63b8ff" points="857.52,-260.22 866.88,-255.25 856.46,-253.3 857.52,-260.22"/>
</g>
<!-- Node4&#45;&gt;Node3 -->
<g id="edge4" class="edge">
<title>Node4&#45;&gt;Node3</title>
<path fill="none" stroke="#63b8ff" d="M652.94,-355.88C671.39,-368.28 696.48,-383.09 721,-391 761.4,-404.04 808.85,-408.83 846.53,-410.34"/>
<polygon fill="#63b8ff" stroke="#63b8ff" points="846.26,-413.84 856.37,-410.66 846.49,-406.84 846.26,-413.84"/>
</g>
<!-- Node5 -->
<g id="node5" class="node">
<title>Node5</title>
<g id="a_node5"><a xlink:href="../../d0/d2e/classdoris_1_1vectorized_1_1_v_expr.html#a08909ac305378f716eb9aef099f5b328" target="_top" xlink:title=" ">
<polygon fill="white" stroke="#666666" points="822,-382 721,-382 721,-352 822,-352 822,-382"/>
<text text-anchor="start" x="729" y="-370" font-family="Helvetica,sans-Serif" font-size="10.00">doris::vectorized::</text>
<text text-anchor="middle" x="771.5" y="-359" font-family="Helvetica,sans-Serif" font-size="10.00">VExpr::create_expr</text>
</a>
</g>
</g>
<!-- Node4&#45;&gt;Node5 -->
<g id="edge5" class="edge">
<title>Node4&#45;&gt;Node5</title>
<path fill="none" stroke="#63b8ff" d="M685.15,-348.29C693.34,-350.09 701.74,-351.93 709.92,-353.72"/>
<polygon fill="#63b8ff" stroke="#63b8ff" points="708.92,-357.09 719.43,-355.81 710.41,-350.25 708.92,-357.09"/>
</g>
<!-- Node4&#45;&gt;Node6 -->
<g id="edge9" class="edge">
<title>Node4&#45;&gt;Node6</title>
<path fill="none" stroke="#63b8ff" d="M685.08,-329.68C724.88,-324.87 777.61,-316.01 822,-300 846.57,-291.14 872.23,-275.96 890.1,-264.28"/>
<polygon fill="#63b8ff" stroke="#63b8ff" points="892.04,-267.2 898.4,-258.73 888.14,-261.38 892.04,-267.2"/>
</g>
<!-- Node5&#45;&gt;Node3 -->
<g id="edge6" class="edge">
<title>Node5&#45;&gt;Node3</title>
<path fill="none" stroke="#63b8ff" d="M822.21,-382.16C837.91,-386.95 855.11,-392.19 870.31,-396.83"/>
<polygon fill="#63b8ff" stroke="#63b8ff" points="868.94,-400.07 879.53,-399.64 870.98,-393.37 868.94,-400.07"/>
</g>
<!-- Node5&#45;&gt;Node6 -->
<g id="edge7" class="edge">
<title>Node5&#45;&gt;Node6</title>
<path fill="none" stroke="#63b8ff" d="M801.55,-351.6C808.47,-347.49 815.67,-342.84 822,-338 850.89,-315.88 880.15,-285.36 897.55,-266.16"/>
<polygon fill="#63b8ff" stroke="#63b8ff" points="900.03,-268.64 904.08,-258.86 894.81,-263.98 900.03,-268.64"/>
</g>
<!-- Node7 -->
<g id="node7" class="node">
<title>Node7</title>
<g id="a_node7"><a xlink:href="../../d9/d8d/classdoris_1_1_status.html#aafde58df1b2a6a91d5b674373be3ffc5" target="_top" xlink:title=" ">
<polygon fill="white" stroke="#666666" points="1114,-257.5 1007,-257.5 1007,-238.5 1114,-238.5 1114,-257.5"/>
<text text-anchor="middle" x="1060.5" y="-245.5" font-family="Helvetica,sans-Serif" font-size="10.00">doris::Status::Status</text>
</a>
</g>
</g>
<!-- Node6&#45;&gt;Node7 -->
<g id="edge8" class="edge">
<title>Node6&#45;&gt;Node7</title>
<path fill="none" stroke="#63b8ff" d="M960.67,-248C971.62,-248 983.53,-248 995.18,-248"/>
<polygon fill="#63b8ff" stroke="#63b8ff" points="995.17,-251.5 1005.17,-248 995.17,-244.5 995.17,-251.5"/>
</g>
<!-- Node8&#45;&gt;Node6 -->
<g id="edge16" class="edge">
<title>Node8&#45;&gt;Node6</title>
<path fill="none" stroke="#63b8ff" d="M349.27,-194.6C449.68,-200.65 651.61,-214.16 822,-234 833.37,-235.32 845.5,-237 857.09,-238.72"/>
<polygon fill="#63b8ff" stroke="#63b8ff" points="856.53,-242.18 866.95,-240.22 857.59,-235.25 856.53,-242.18"/>
</g>
<!-- Node9 -->
<g id="node9" class="node">
<title>Node9</title>
<g id="a_node9"><a xlink:href="../../d0/d2e/classdoris_1_1vectorized_1_1_v_expr.html#a8768a470a00ddf2aaf2bfd304746c382" target="_top" xlink:title=" ">
<polygon fill="white" stroke="#666666" points="519,-182 397,-182 397,-152 519,-152 519,-182"/>
<text text-anchor="start" x="405" y="-170" font-family="Helvetica,sans-Serif" font-size="10.00">doris::vectorized::</text>
<text text-anchor="middle" x="458" y="-159" font-family="Helvetica,sans-Serif" font-size="10.00">VExpr::create_expr_tree</text>
</a>
</g>
</g>
<!-- Node8&#45;&gt;Node9 -->
<g id="edge12" class="edge">
<title>Node8&#45;&gt;Node9</title>
<path fill="none" stroke="#63b8ff" d="M349.19,-182.13C360.94,-180.48 373.3,-178.75 385.28,-177.07"/>
<polygon fill="#63b8ff" stroke="#63b8ff" points="385.71,-180.54 395.13,-175.68 384.74,-173.61 385.71,-180.54"/>
</g>
<!-- Node9&#45;&gt;Node4 -->
<g id="edge13" class="edge">
<title>Node9&#45;&gt;Node4</title>
<path fill="none" stroke="#63b8ff" d="M473.8,-182.21C501.02,-210.17 559.43,-270.19 594.39,-306.12"/>
<polygon fill="#63b8ff" stroke="#63b8ff" points="591.78,-308.46 601.27,-313.18 596.8,-303.57 591.78,-308.46"/>
</g>
<!-- Node9&#45;&gt;Node6 -->
<g id="edge14" class="edge">
<title>Node9&#45;&gt;Node6</title>
<path fill="none" stroke="#63b8ff" d="M519.27,-163.94C592.53,-161.99 719.12,-164.37 822,-196 847.38,-203.8 873.42,-219.5 891.2,-231.61"/>
<polygon fill="#63b8ff" stroke="#63b8ff" points="888.97,-234.33 899.17,-237.21 893,-228.6 888.97,-234.33"/>
</g>
<!-- Node10 -->
<g id="node10" class="node">
<title>Node10</title>
<g id="a_node10"><a xlink:href="../../d9/d8d/classdoris_1_1_status.html#a03cb7eaa663dc83af68bc28a596d09e6" target="_top" xlink:title=" ">
<polygon fill="white" stroke="#666666" points="668,-143.5 579,-143.5 579,-124.5 668,-124.5 668,-143.5"/>
<text text-anchor="middle" x="623.5" y="-131.5" font-family="Helvetica,sans-Serif" font-size="10.00">doris::Status::ok</text>
</a>
</g>
</g>
<!-- Node9&#45;&gt;Node10 -->
<g id="edge15" class="edge">
<title>Node9&#45;&gt;Node10</title>
<path fill="none" stroke="#63b8ff" d="M519.42,-154.81C535.23,-151.61 552.18,-148.19 567.69,-145.06"/>
<polygon fill="#63b8ff" stroke="#63b8ff" points="568.08,-148.55 577.19,-143.14 566.7,-141.69 568.08,-148.55"/>
</g>
<!-- Node11&#45;&gt;Node6 -->
<g id="edge23" class="edge">
<title>Node11&#45;&gt;Node6</title>
<path fill="none" stroke="#63b8ff" d="M161.71,-138.1C223.38,-123.01 348.89,-96 457,-96 457,-96 457,-96 624.5,-96 738.82,-96 852.36,-190.32 895.41,-230.36"/>
<polygon fill="#63b8ff" stroke="#63b8ff" points="892.74,-232.65 902.41,-236.99 897.56,-227.57 892.74,-232.65"/>
</g>
<!-- Node11&#45;&gt;Node8 -->
<g id="edge19" class="edge">
<title>Node11&#45;&gt;Node8</title>
<path fill="none" stroke="#63b8ff" d="M160.73,-157.97C176.98,-162.33 196.58,-167.58 215.32,-172.6"/>
<polygon fill="#63b8ff" stroke="#63b8ff" points="214.2,-175.92 224.76,-175.13 216.01,-169.16 214.2,-175.92"/>
</g>
<!-- Node11&#45;&gt;Node9 -->
<g id="edge18" class="edge">
<title>Node11&#45;&gt;Node9</title>
<path fill="none" stroke="#63b8ff" d="M176.71,-151.03C233.15,-154.25 322.64,-159.35 385.27,-162.91"/>
<polygon fill="#63b8ff" stroke="#63b8ff" points="384.95,-166.4 395.13,-163.48 385.34,-159.41 384.95,-166.4"/>
</g>
<!-- Node12 -->
<g id="node12" class="node">
<title>Node12</title>
<g id="a_node12"><a xlink:href="../../d2/d49/classdoris_1_1_exec_node.html#a636296572c928bb9baf49439e9726c30" target="_top" xlink:title=" ">
<polygon fill="white" stroke="#666666" points="354,-67.5 216,-67.5 216,-48.5 354,-48.5 354,-67.5"/>
<text text-anchor="middle" x="285" y="-55.5" font-family="Helvetica,sans-Serif" font-size="10.00">doris::ExecNode::get_name</text>
</a>
</g>
</g>
<!-- Node11&#45;&gt;Node12 -->
<g id="edge20" class="edge">
<title>Node11&#45;&gt;Node12</title>
<path fill="none" stroke="#63b8ff" d="M162.97,-138.11C168.97,-135.67 174.87,-132.67 180,-129 201.4,-113.69 194.71,-97.46 216,-82 221.26,-78.18 227.18,-74.93 233.27,-72.16"/>
<polygon fill="#63b8ff" stroke="#63b8ff" points="234.27,-75.53 242.21,-68.53 231.63,-69.05 234.27,-75.53"/>
</g>
<!-- Node14 -->
<g id="node14" class="node">
<title>Node14</title>
<g id="a_node14"><a xlink:href="../../d2/d49/classdoris_1_1_exec_node.html#adb2f9d7c4cfc670d2565b43e82c9aec0" target="_top" xlink:title=" ">
<polygon fill="white" stroke="#666666" points="339,-30 231,-30 231,0 339,0 339,-30"/>
<text text-anchor="start" x="239" y="-18" font-family="Helvetica,sans-Serif" font-size="10.00">doris::ExecNode::init</text>
<text text-anchor="middle" x="285" y="-7" font-family="Helvetica,sans-Serif" font-size="10.00">_runtime_profile</text>
</a>
</g>
</g>
<!-- Node11&#45;&gt;Node14 -->
<g id="edge22" class="edge">
<title>Node11&#45;&gt;Node14</title>
<path fill="none" stroke="#63b8ff" d="M166.5,-138.08C171.44,-135.68 176.09,-132.7 180,-129 211.31,-99.4 184.92,-68.83 216,-39 217.59,-37.47 219.29,-36.04 221.06,-34.7"/>
<polygon fill="#63b8ff" stroke="#63b8ff" points="222.66,-37.83 229.24,-29.53 218.92,-31.91 222.66,-37.83"/>
</g>
<!-- Node13 -->
<g id="node13" class="node">
<title>Node13</title>
<g id="a_node13"><a xlink:href="../../d6/d94/namespacedoris.html#a12ccc6bba0f118b3c8ea8f3128107284" target="_top" xlink:title=" ">
<polygon fill="white" stroke="#666666" points="526,-67.5 390,-67.5 390,-48.5 526,-48.5 526,-67.5"/>
<text text-anchor="middle" x="458" y="-55.5" font-family="Helvetica,sans-Serif" font-size="10.00">doris::print_plan_node_type</text>
</a>
</g>
</g>
<!-- Node12&#45;&gt;Node13 -->
<g id="edge21" class="edge">
<title>Node12&#45;&gt;Node13</title>
<path fill="none" stroke="#63b8ff" d="M354.08,-58C362.05,-58 370.24,-58 378.34,-58"/>
<polygon fill="#63b8ff" stroke="#63b8ff" points="378.2,-61.5 388.2,-58 378.2,-54.5 378.2,-61.5"/>
</g>
</g>
</svg>
        <g id="navigator" transform="translate(0 0)" fill="#404254">
                <rect fill="#f2f5e9" fill-opacity="0.5" stroke="#606060" stroke-width=".5" x="0" y="0" width="60" height="60"/>
                <use id="zoomplus" xlink:href="#zoomPlus" x="17" y="9" onmousedown="handleZoom(evt,'in')"/>
                <use id="zoomminus" xlink:href="#zoomMin" x="42" y="9" onmousedown="handleZoom(evt,'out')"/>
                <use id="reset" xlink:href="#resetDef" x="30" y="36" onmousedown="handleReset()"/>
                <g id="arrowUp" xlink:href="#dirArrow" transform="translate(30 24)" onmousedown="handlePan(0,-1)">
                  <use xlink:href="#rim" fill="#404040">
                        <set attributeName="fill" to="#808080" begin="arrowUp.mouseover" end="arrowUp.mouseout"/>
                  </use>
                  <path fill="none" stroke="white" stroke-width="1.5" d="M0,-3.0v7 M-2.5,-0.5L0,-3.0L2.5,-0.5"/>
                </g>
                <g id="arrowRight" xlink:href="#dirArrow" transform="rotate(90) translate(36 -43)" onmousedown="handlePan(1,0)">
                  <use xlink:href="#rim" fill="#404040">
                        <set attributeName="fill" to="#808080" begin="arrowRight.mouseover" end="arrowRight.mouseout"/>
                  </use>
                  <path fill="none" stroke="white" stroke-width="1.5" d="M0,-3.0v7 M-2.5,-0.5L0,-3.0L2.5,-0.5"/>
                </g>
                <g id="arrowDown" xlink:href="#dirArrow" transform="rotate(180) translate(-30 -48)" onmousedown="handlePan(0,1)">
                  <use xlink:href="#rim" fill="#404040">
                        <set attributeName="fill" to="#808080" begin="arrowDown.mouseover" end="arrowDown.mouseout"/>
                  </use>
                  <path fill="none" stroke="white" stroke-width="1.5" d="M0,-3.0v7 M-2.5,-0.5L0,-3.0L2.5,-0.5"/>
                </g>
                <g id="arrowLeft" xlink:href="#dirArrow" transform="rotate(270) translate(-36 17)" onmousedown="handlePan(-1,0)">
                  <use xlink:href="#rim" fill="#404040">
                        <set attributeName="fill" to="#808080" begin="arrowLeft.mouseover" end="arrowLeft.mouseout"/>
                  </use>
                  <path fill="none" stroke="white" stroke-width="1.5" d="M0,-3.0v7 M-2.5,-0.5L0,-3.0L2.5,-0.5"/>
                </g>
        </g>
        <svg viewBox="0 0 15 15" width="100%" height="30px" preserveAspectRatio="xMaxYMin meet">
         <g id="arrow_out" transform="scale(0.3 0.3)">
          <a xlink:href="classdoris_1_1vectorized_1_1_aggregation_node_a1be6bfdf0749477f7f8da2a1e8212143_cgraph_org.svg" target="_base">
           <rect id="button" ry="5" rx="5" y="6" x="6" height="38" width="38"
                fill="#f2f5e9" fill-opacity="0.5" stroke="#606060" stroke-width="1.0"/>
           <path id="arrow"
             d="M 11.500037,31.436501 C 11.940474,20.09759 22.043105,11.32322 32.158766,21.979434 L 37.068811,17.246167 C 37.068811,17.246167 37.088388,32 37.088388,32 L 22.160133,31.978069 C 22.160133,31.978069 26.997745,27.140456 26.997745,27.140456 C 18.528582,18.264221 13.291696,25.230495 11.500037,31.436501 z"
             style="fill:#404040;"/>
          </a>
         </g>
        </svg>
</svg>
