<?xml version="1.0" encoding="UTF-8" standalone="no"?>
<!DOCTYPE svg PUBLIC "-//W3C//DTD SVG 1.1//EN"
 "http://www.w3.org/Graphics/SVG/1.1/DTD/svg11.dtd">
<!-- Generated by graphviz version 7.1.0 (20230121.1956)
 -->
<!-- Title: search Pages: 1 -->
<!--zoomable 82 -->
<svg id="main" version="1.1" xmlns="http://www.w3.org/2000/svg" xmlns:xlink="http://www.w3.org/1999/xlink" xml:space="preserve" onload="init(evt)">
<style type="text/css"><![CDATA[
.edge:hover path { stroke: red; }
.edge:hover polygon { stroke: red; fill: red; }
]]></style>
<script type="text/javascript"><![CDATA[
var edges = document.getElementsByTagName('g');
if (edges && edges.length) {
  for (var i=0;i<edges.length;i++) {
    if (edges[i].id.substr(0,4)=='edge') {
      edges[i].setAttribute('class','edge');
    }
  }
}
]]></script>
        <defs>
                <circle id="rim" cx="0" cy="0" r="7"/>
                <circle id="rim2" cx="0" cy="0" r="3.5"/>
                <g id="zoomPlus">
                        <use xlink:href="#rim" fill="#404040">
                                <set attributeName="fill" to="#808080" begin="zoomplus.mouseover" end="zoomplus.mouseout"/>
                        </use>
                        <path d="M-4,0h8M0,-4v8" fill="none" stroke="white" stroke-width="1.5" pointer-events="none"/>
                </g>
                <g id="zoomMin">
                        <use xlink:href="#rim" fill="#404040">
                                <set attributeName="fill" to="#808080" begin="zoomminus.mouseover" end="zoomminus.mouseout"/>
                        </use>
                        <path d="M-4,0h8" fill="none" stroke="white" stroke-width="1.5" pointer-events="none"/>
                </g>
                <g id="dirArrow">
                        <path fill="none" stroke="white" stroke-width="1.5" d="M0,-3.0v7 M-2.5,-0.5L0,-3.0L2.5,-0.5"/>
                </g>
               <g id="resetDef">
                       <use xlink:href="#rim2" fill="#404040">
                               <set attributeName="fill" to="#808080" begin="reset.mouseover" end="reset.mouseout"/>
                       </use>
               </g>
        </defs>

<script type="text/javascript">
var viewWidth = 629;
var viewHeight = 82;
var sectionId = 'dynsection-6';
</script>
<script xlink:href="../../svgpan.js"/>
<svg id="graph" class="graph">
<g id="viewport">
<title>search</title>
<!-- Node1 -->
<g id="node1" class="node">
<title>Node1</title>
<g id="a_node1"><a xlink:title=" ">
<polygon fill="#999999" stroke="#666666" points="46,-37 0,-37 0,-18 46,-18 46,-37"/>
<text text-anchor="middle" x="23" y="-25" font-family="Helvetica,sans-Serif" font-size="10.00">search</text>
</a>
</g>
</g>
<!-- Node2 -->
<g id="node2" class="node">
<title>Node2</title>
<g id="a_node2"><a xlink:href="../../d4/de4/classdoris_1_1_token_searcher.html#a003b898419d69de5223be09915cd6988" target="_top" xlink:title=" ">
<polygon fill="white" stroke="#666666" points="128,-37 82,-37 82,-18 128,-18 128,-37"/>
<text text-anchor="middle" x="105" y="-25" font-family="Helvetica,sans-Serif" font-size="10.00">search</text>
</a>
</g>
</g>
<!-- Node1&#45;&gt;Node2 -->
<g id="edge1" class="edge">
<title>Node1&#45;&gt;Node2</title>
<path fill="none" stroke="#63b8ff" d="M46.28,-27.5C53.68,-27.5 62.08,-27.5 70.15,-27.5"/>
<polygon fill="#63b8ff" stroke="#63b8ff" points="70.04,-31 80.04,-27.5 70.04,-24 70.04,-31"/>
</g>
<!-- Node3 -->
<g id="node3" class="node">
<title>Node3</title>
<g id="a_node3"><a xlink:href="../../d4/de4/classdoris_1_1_token_searcher.html#a3eecf0e380490585da730ccd6290c950" target="_top" xlink:title=" ">
<polygon fill="white" stroke="#666666" points="214,-37 164,-37 164,-18 214,-18 214,-37"/>
<text text-anchor="middle" x="189" y="-25" font-family="Helvetica,sans-Serif" font-size="10.00">isToken</text>
</a>
</g>
</g>
<!-- Node2&#45;&gt;Node3 -->
<g id="edge2" class="edge">
<title>Node2&#45;&gt;Node3</title>
<path fill="none" stroke="#63b8ff" d="M128.41,-27.5C135.73,-27.5 144.07,-27.5 152.13,-27.5"/>
<polygon fill="#63b8ff" stroke="#63b8ff" points="152.09,-31 162.09,-27.5 152.09,-24 152.09,-31"/>
</g>
<!-- Node4 -->
<g id="node4" class="node">
<title>Node4</title>
<g id="a_node4"><a xlink:href="../../d4/de4/classdoris_1_1_token_searcher.html#a343781680b5a9260ccd193fd641378c4" target="_top" xlink:title=" ">
<polygon fill="white" stroke="#666666" points="342,-37 250,-37 250,-18 342,-18 342,-37"/>
<text text-anchor="middle" x="296" y="-25" font-family="Helvetica,sans-Serif" font-size="10.00">isTokenSeparator</text>
</a>
</g>
</g>
<!-- Node3&#45;&gt;Node4 -->
<g id="edge3" class="edge">
<title>Node3&#45;&gt;Node4</title>
<path fill="none" stroke="#63b8ff" d="M214.35,-27.5C221.6,-27.5 229.86,-27.5 238.27,-27.5"/>
<polygon fill="#63b8ff" stroke="#63b8ff" points="238.23,-31 248.23,-27.5 238.23,-24 238.23,-31"/>
</g>
<!-- Node5 -->
<g id="node5" class="node">
<title>Node5</title>
<g id="a_node5"><a xlink:href="../../d7/d2c/string__utils_8h.html#aea5252cb658eda02d0fee259b8576ad5" target="_top" xlink:title=" ">
<polygon fill="white" stroke="#666666" points="496,-56 378,-56 378,-37 496,-37 496,-56"/>
<text text-anchor="middle" x="437" y="-44" font-family="Helvetica,sans-Serif" font-size="10.00">is_alpha_numeric_ascii</text>
</a>
</g>
</g>
<!-- Node4&#45;&gt;Node5 -->
<g id="edge4" class="edge">
<title>Node4&#45;&gt;Node5</title>
<path fill="none" stroke="#63b8ff" d="M342.13,-33.67C349.98,-34.74 358.3,-35.88 366.62,-37.02"/>
<polygon fill="#63b8ff" stroke="#63b8ff" points="366.04,-40.47 376.42,-38.36 366.99,-33.53 366.04,-40.47"/>
</g>
<!-- Node8 -->
<g id="node8" class="node">
<title>Node8</title>
<g id="a_node8"><a xlink:href="../../d7/d2c/string__utils_8h.html#ac9c6f1fee60b239cfafb77a6f3b4398f" target="_top" xlink:title="More efficient than libc, because doesn&#39;t respect locale. But for some functions table implementation...">
<polygon fill="white" stroke="#666666" points="462,-19 412,-19 412,0 462,0 462,-19"/>
<text text-anchor="middle" x="437" y="-7" font-family="Helvetica,sans-Serif" font-size="10.00">is_ascii</text>
</a>
</g>
</g>
<!-- Node4&#45;&gt;Node8 -->
<g id="edge7" class="edge">
<title>Node4&#45;&gt;Node8</title>
<path fill="none" stroke="#63b8ff" d="M342.13,-21.66C361.03,-19.21 382.68,-16.41 400.42,-14.11"/>
<polygon fill="#63b8ff" stroke="#63b8ff" points="400.75,-17.59 410.22,-12.84 399.85,-10.65 400.75,-17.59"/>
</g>
<!-- Node6 -->
<g id="node6" class="node">
<title>Node6</title>
<g id="a_node6"><a xlink:href="../../d7/d2c/string__utils_8h.html#ae80759d9a2081a53a9b630786ec19db9" target="_top" xlink:title=" ">
<polygon fill="white" stroke="#666666" points="615.5,-74 537.5,-74 537.5,-55 615.5,-55 615.5,-74"/>
<text text-anchor="middle" x="576.5" y="-62" font-family="Helvetica,sans-Serif" font-size="10.00">is_alpha_ascii</text>
</a>
</g>
</g>
<!-- Node5&#45;&gt;Node6 -->
<g id="edge5" class="edge">
<title>Node5&#45;&gt;Node6</title>
<path fill="none" stroke="#63b8ff" d="M496.31,-54.13C506.1,-55.41 516.17,-56.73 525.71,-57.98"/>
<polygon fill="#63b8ff" stroke="#63b8ff" points="525.16,-61.44 535.53,-59.27 526.07,-54.5 525.16,-61.44"/>
</g>
<!-- Node7 -->
<g id="node7" class="node">
<title>Node7</title>
<g id="a_node7"><a xlink:href="../../d7/d2c/string__utils_8h.html#a89cfb66b6b07d286da68422b5d0824e9" target="_top" xlink:title=" ">
<polygon fill="white" stroke="#666666" points="621,-37 532,-37 532,-18 621,-18 621,-37"/>
<text text-anchor="middle" x="576.5" y="-25" font-family="Helvetica,sans-Serif" font-size="10.00">is_numeric_ascii</text>
</a>
</g>
</g>
<!-- Node5&#45;&gt;Node7 -->
<g id="edge6" class="edge">
<title>Node5&#45;&gt;Node7</title>
<path fill="none" stroke="#63b8ff" d="M496.31,-38.44C504.28,-37.34 512.44,-36.21 520.35,-35.12"/>
<polygon fill="#63b8ff" stroke="#63b8ff" points="520.78,-38.6 530.2,-33.76 519.82,-31.66 520.78,-38.6"/>
</g>
</g>
</svg>
        <g id="navigator" transform="translate(0 0)" fill="#404254">
                <rect fill="#f2f5e9" fill-opacity="0.5" stroke="#606060" stroke-width=".5" x="0" y="0" width="60" height="60"/>
                <use id="zoomplus" xlink:href="#zoomPlus" x="17" y="9" onmousedown="handleZoom(evt,'in')"/>
                <use id="zoomminus" xlink:href="#zoomMin" x="42" y="9" onmousedown="handleZoom(evt,'out')"/>
                <use id="reset" xlink:href="#resetDef" x="30" y="36" onmousedown="handleReset()"/>
                <g id="arrowUp" xlink:href="#dirArrow" transform="translate(30 24)" onmousedown="handlePan(0,-1)">
                  <use xlink:href="#rim" fill="#404040">
                        <set attributeName="fill" to="#808080" begin="arrowUp.mouseover" end="arrowUp.mouseout"/>
                  </use>
                  <path fill="none" stroke="white" stroke-width="1.5" d="M0,-3.0v7 M-2.5,-0.5L0,-3.0L2.5,-0.5"/>
                </g>
                <g id="arrowRight" xlink:href="#dirArrow" transform="rotate(90) translate(36 -43)" onmousedown="handlePan(1,0)">
                  <use xlink:href="#rim" fill="#404040">
                        <set attributeName="fill" to="#808080" begin="arrowRight.mouseover" end="arrowRight.mouseout"/>
                  </use>
                  <path fill="none" stroke="white" stroke-width="1.5" d="M0,-3.0v7 M-2.5,-0.5L0,-3.0L2.5,-0.5"/>
                </g>
                <g id="arrowDown" xlink:href="#dirArrow" transform="rotate(180) translate(-30 -48)" onmousedown="handlePan(0,1)">
                  <use xlink:href="#rim" fill="#404040">
                        <set attributeName="fill" to="#808080" begin="arrowDown.mouseover" end="arrowDown.mouseout"/>
                  </use>
                  <path fill="none" stroke="white" stroke-width="1.5" d="M0,-3.0v7 M-2.5,-0.5L0,-3.0L2.5,-0.5"/>
                </g>
                <g id="arrowLeft" xlink:href="#dirArrow" transform="rotate(270) translate(-36 17)" onmousedown="handlePan(-1,0)">
                  <use xlink:href="#rim" fill="#404040">
                        <set attributeName="fill" to="#808080" begin="arrowLeft.mouseover" end="arrowLeft.mouseout"/>
                  </use>
                  <path fill="none" stroke="white" stroke-width="1.5" d="M0,-3.0v7 M-2.5,-0.5L0,-3.0L2.5,-0.5"/>
                </g>
        </g>
        <svg viewBox="0 0 15 15" width="100%" height="30px" preserveAspectRatio="xMaxYMin meet">
         <g id="arrow_out" transform="scale(0.3 0.3)">
          <a xlink:href="classdoris_1_1_token_searcher_a5215f49b0435609165de7994bea7da51_cgraph_org.svg" target="_base">
           <rect id="button" ry="5" rx="5" y="6" x="6" height="38" width="38"
                fill="#f2f5e9" fill-opacity="0.5" stroke="#606060" stroke-width="1.0"/>
           <path id="arrow"
             d="M 11.500037,31.436501 C 11.940474,20.09759 22.043105,11.32322 32.158766,21.979434 L 37.068811,17.246167 C 37.068811,17.246167 37.088388,32 37.088388,32 L 22.160133,31.978069 C 22.160133,31.978069 26.997745,27.140456 26.997745,27.140456 C 18.528582,18.264221 13.291696,25.230495 11.500037,31.436501 z"
             style="fill:#404040;"/>
          </a>
         </g>
        </svg>
</svg>
