<?xml version="1.0" encoding="UTF-8" standalone="no"?>
<!DOCTYPE svg PUBLIC "-//W3C//DTD SVG 1.1//EN"
 "http://www.w3.org/Graphics/SVG/1.1/DTD/svg11.dtd">
<!-- Generated by graphviz version 7.1.0 (20230121.1956)
 -->
<!-- Title: _upload_worker_thread_callback Pages: 1 -->
<svg width="734pt" height="442pt"
 viewBox="0.00 0.00 734.00 441.50" xmlns="http://www.w3.org/2000/svg" xmlns:xlink="http://www.w3.org/1999/xlink">
<g id="graph0" class="graph" transform="scale(1 1) rotate(0) translate(4 437.5)">
<title>_upload_worker_thread_callback</title>
<!-- Node1 -->
<g id="node1" class="node">
<title>Node1</title>
<g id="a_node1"><a xlink:title=" ">
<polygon fill="#999999" stroke="#666666" points="117,-140 0,-140 0,-110 117,-110 117,-140"/>
<text text-anchor="start" x="8" y="-128" font-family="Helvetica,sans-Serif" font-size="10.00">_upload_worker_thread</text>
<text text-anchor="middle" x="58.5" y="-117" font-family="Helvetica,sans-Serif" font-size="10.00">_callback</text>
</a>
</g>
</g>
<!-- Node2 -->
<g id="node2" class="node">
<title>Node2</title>
<g id="a_node2"><a xlink:href="../../d0/db3/classdoris_1_1_task_worker_pool.html#a0052d7f8712862095f74635c1ecda14f" target="_top" xlink:title=" ">
<polygon fill="white" stroke="#666666" points="243,-286.5 174,-286.5 174,-267.5 243,-267.5 243,-286.5"/>
<text text-anchor="middle" x="208.5" y="-274.5" font-family="Helvetica,sans-Serif" font-size="10.00">_finish_task</text>
</a>
</g>
</g>
<!-- Node1&#45;&gt;Node2 -->
<g id="edge1" class="edge">
<title>Node1&#45;&gt;Node2</title>
<path fill="none" stroke="#63b8ff" d="M74.51,-140.41C102.2,-168.85 161.16,-229.41 190.37,-259.41"/>
<polygon fill="#63b8ff" stroke="#63b8ff" points="187.55,-261.53 197.04,-266.25 192.57,-256.65 187.55,-261.53"/>
</g>
<!-- Node7 -->
<g id="node7" class="node">
<title>Node7</title>
<g id="a_node7"><a xlink:href="../../d9/d8d/classdoris_1_1_status.html#a03cb7eaa663dc83af68bc28a596d09e6" target="_top" xlink:title=" ">
<polygon fill="white" stroke="#666666" points="568,-231.5 479,-231.5 479,-212.5 568,-212.5 568,-231.5"/>
<text text-anchor="middle" x="523.5" y="-219.5" font-family="Helvetica,sans-Serif" font-size="10.00">doris::Status::ok</text>
</a>
</g>
</g>
<!-- Node1&#45;&gt;Node7 -->
<g id="edge14" class="edge">
<title>Node1&#45;&gt;Node7</title>
<path fill="none" stroke="#63b8ff" d="M117.27,-127.77C206.15,-132.57 372.03,-143.8 428,-163 455.73,-172.51 483.75,-191.44 502,-205.31"/>
<polygon fill="#63b8ff" stroke="#63b8ff" points="499.37,-207.69 509.4,-211.09 503.67,-202.17 499.37,-207.69"/>
</g>
<!-- Node12 -->
<g id="node12" class="node">
<title>Node12</title>
<g id="a_node12"><a xlink:href="../../d0/db3/classdoris_1_1_task_worker_pool.html#acd6d410d7e3f171793ac7d5bf38fb086" target="_top" xlink:title=" ">
<polygon fill="white" stroke="#666666" points="258,-115.5 159,-115.5 159,-96.5 258,-96.5 258,-115.5"/>
<text text-anchor="middle" x="208.5" y="-103.5" font-family="Helvetica,sans-Serif" font-size="10.00">_remove_task_info</text>
</a>
</g>
</g>
<!-- Node1&#45;&gt;Node12 -->
<g id="edge13" class="edge">
<title>Node1&#45;&gt;Node12</title>
<path fill="none" stroke="#63b8ff" d="M117.14,-117.6C127.17,-116.31 137.62,-114.97 147.7,-113.68"/>
<polygon fill="#63b8ff" stroke="#63b8ff" points="147.91,-117.18 157.38,-112.43 147.02,-110.24 147.91,-117.18"/>
</g>
<!-- Node13 -->
<g id="node13" class="node">
<title>Node13</title>
<g id="a_node13"><a xlink:href="../../d9/d8d/classdoris_1_1_status.html#aeafda6361fe132c8ee62396a5077bdf5" target="_top" xlink:title=" ">
<polygon fill="white" stroke="#666666" points="264,-75.5 153,-75.5 153,-56.5 264,-56.5 264,-75.5"/>
<text text-anchor="middle" x="208.5" y="-63.5" font-family="Helvetica,sans-Serif" font-size="10.00">doris::Status::to_thrift</text>
</a>
</g>
</g>
<!-- Node1&#45;&gt;Node13 -->
<g id="edge15" class="edge">
<title>Node1&#45;&gt;Node13</title>
<path fill="none" stroke="#63b8ff" d="M98,-109.65C120.96,-100.5 149.91,-88.96 172.27,-80.05"/>
<polygon fill="#63b8ff" stroke="#63b8ff" points="173.26,-83.42 181.25,-76.46 170.67,-76.91 173.26,-83.42"/>
</g>
<!-- Node3 -->
<g id="node3" class="node">
<title>Node3</title>
<g id="a_node3"><a xlink:href="../../d9/d64/classdoris_1_1_master_server_client.html#a9c2399c772aaa52099f8f72a08648e6e" target="_top" xlink:title=" ">
<polygon fill="white" stroke="#666666" points="428,-402 300,-402 300,-372 428,-372 428,-402"/>
<text text-anchor="start" x="308" y="-390" font-family="Helvetica,sans-Serif" font-size="10.00">doris::MasterServerClient</text>
<text text-anchor="middle" x="364" y="-379" font-family="Helvetica,sans-Serif" font-size="10.00">::finish_task</text>
</a>
</g>
</g>
<!-- Node2&#45;&gt;Node3 -->
<g id="edge2" class="edge">
<title>Node2&#45;&gt;Node3</title>
<path fill="none" stroke="#63b8ff" d="M218.49,-286.77C233.94,-303.12 267.03,-336.37 300,-358 304.54,-360.98 309.44,-363.81 314.43,-366.45"/>
<polygon fill="#63b8ff" stroke="#63b8ff" points="312.85,-369.57 323.35,-370.92 315.98,-363.31 312.85,-369.57"/>
</g>
<!-- Node2&#45;&gt;Node7 -->
<g id="edge12" class="edge">
<title>Node2&#45;&gt;Node7</title>
<path fill="none" stroke="#63b8ff" d="M223.05,-286.93C240.02,-298.71 270.49,-317.66 300,-325 355.21,-338.73 375.92,-347.9 428,-325 466.7,-307.98 496.5,-266.43 511.58,-241.61"/>
<polygon fill="#63b8ff" stroke="#63b8ff" points="514.51,-243.53 516.53,-233.13 508.46,-240 514.51,-243.53"/>
</g>
<!-- Node9 -->
<g id="node9" class="node">
<title>Node9</title>
<g id="a_node9"><a xlink:href="../../db/d40/classdoris_1_1_core_local_counter.html#a6c7e8662093760ffbf15dfa08ef03eb2" target="_top" xlink:title=" ">
<polygon fill="white" stroke="#666666" points="425,-316 303,-316 303,-286 425,-286 425,-316"/>
<text text-anchor="start" x="311" y="-304" font-family="Helvetica,sans-Serif" font-size="10.00">doris::CoreLocalCounter</text>
<text text-anchor="middle" x="364" y="-293" font-family="Helvetica,sans-Serif" font-size="10.00">::increment</text>
</a>
</g>
</g>
<!-- Node2&#45;&gt;Node9 -->
<g id="edge8" class="edge">
<title>Node2&#45;&gt;Node9</title>
<path fill="none" stroke="#63b8ff" d="M243.19,-282.27C257.52,-284.51 274.82,-287.21 291.76,-289.86"/>
<polygon fill="#63b8ff" stroke="#63b8ff" points="290.88,-293.27 301.3,-291.35 291.96,-286.35 290.88,-293.27"/>
</g>
<!-- Node10 -->
<g id="node10" class="node">
<title>Node10</title>
<g id="a_node10"><a xlink:href="../../d9/d64/classdoris_1_1_master_server_client.html#a04ee5e289de119553c328ce0b88e4ae3" target="_top" xlink:title=" ">
<polygon fill="white" stroke="#666666" points="428,-268 300,-268 300,-238 428,-238 428,-268"/>
<text text-anchor="start" x="308" y="-256" font-family="Helvetica,sans-Serif" font-size="10.00">doris::MasterServerClient</text>
<text text-anchor="middle" x="364" y="-245" font-family="Helvetica,sans-Serif" font-size="10.00">::instance</text>
</a>
</g>
</g>
<!-- Node2&#45;&gt;Node10 -->
<g id="edge9" class="edge">
<title>Node2&#45;&gt;Node10</title>
<path fill="none" stroke="#63b8ff" d="M243.19,-271.73C256.67,-269.63 272.77,-267.11 288.73,-264.61"/>
<polygon fill="#63b8ff" stroke="#63b8ff" points="288.88,-268.13 298.22,-263.13 287.8,-261.21 288.88,-268.13"/>
</g>
<!-- Node11 -->
<g id="node11" class="node">
<title>Node11</title>
<g id="a_node11"><a xlink:href="../../d3/d7b/classdoris_1_1_doris_metrics.html#a4d0ce88513091aec833045b4eddeee8b" target="_top" xlink:title=" ">
<polygon fill="white" stroke="#666666" points="413.5,-202 314.5,-202 314.5,-172 413.5,-172 413.5,-202"/>
<text text-anchor="start" x="322.5" y="-190" font-family="Helvetica,sans-Serif" font-size="10.00">doris::DorisMetrics</text>
<text text-anchor="middle" x="364" y="-179" font-family="Helvetica,sans-Serif" font-size="10.00">::instance</text>
</a>
</g>
</g>
<!-- Node2&#45;&gt;Node11 -->
<g id="edge10" class="edge">
<title>Node2&#45;&gt;Node11</title>
<path fill="none" stroke="#63b8ff" d="M226.51,-267.02C250.6,-252.9 295.24,-226.73 326.9,-208.17"/>
<polygon fill="#63b8ff" stroke="#63b8ff" points="328.52,-211.27 335.37,-203.2 324.98,-205.24 328.52,-211.27"/>
</g>
<!-- Node4 -->
<g id="node4" class="node">
<title>Node4</title>
<g id="a_node4"><a xlink:href="../../d9/d8d/classdoris_1_1_status.html#a4aebcfaf2368eb240cf5111cc6fc140b" target="_top" xlink:title=" ">
<polygon fill="white" stroke="#666666" points="573,-433.5 474,-433.5 474,-414.5 573,-414.5 573,-433.5"/>
<text text-anchor="middle" x="523.5" y="-421.5" font-family="Helvetica,sans-Serif" font-size="10.00">doris::Status::code</text>
</a>
</g>
</g>
<!-- Node3&#45;&gt;Node4 -->
<g id="edge3" class="edge">
<title>Node3&#45;&gt;Node4</title>
<path fill="none" stroke="#63b8ff" d="M428.15,-401.84C441.66,-405.01 455.8,-408.33 468.9,-411.41"/>
<polygon fill="#63b8ff" stroke="#63b8ff" points="468.1,-414.81 478.63,-413.69 469.7,-408 468.1,-414.81"/>
</g>
<!-- Node5 -->
<g id="node5" class="node">
<title>Node5</title>
<g id="a_node5"><a xlink:href="../../d9/d8d/classdoris_1_1_status.html#a6ec1a217f203269ab53d2290d602db24" target="_top" xlink:title=" ">
<polygon fill="white" stroke="#666666" points="569.5,-396.5 477.5,-396.5 477.5,-377.5 569.5,-377.5 569.5,-396.5"/>
<text text-anchor="middle" x="523.5" y="-384.5" font-family="Helvetica,sans-Serif" font-size="10.00">doris::Status::OK</text>
</a>
</g>
</g>
<!-- Node3&#45;&gt;Node5 -->
<g id="edge4" class="edge">
<title>Node3&#45;&gt;Node5</title>
<path fill="none" stroke="#63b8ff" d="M428.15,-387C440.61,-387 453.6,-387 465.82,-387"/>
<polygon fill="#63b8ff" stroke="#63b8ff" points="465.75,-390.5 475.75,-387 465.75,-383.5 465.75,-390.5"/>
</g>
<!-- Node3&#45;&gt;Node7 -->
<g id="edge6" class="edge">
<title>Node3&#45;&gt;Node7</title>
<path fill="none" stroke="#63b8ff" d="M406.87,-371.56C414.34,-367.77 421.72,-363.26 428,-358 448.88,-340.5 490.63,-274.39 510.91,-241.23"/>
<polygon fill="#63b8ff" stroke="#63b8ff" points="513.7,-243.37 515.9,-233.01 507.71,-239.74 513.7,-243.37"/>
</g>
<!-- Node8 -->
<g id="node8" class="node">
<title>Node8</title>
<g id="a_node8"><a xlink:href="../../d7/d70/classdoris_1_1_client_connection.html#af962d700d7644aefc29ab69452faab0e" target="_top" xlink:title=" ">
<polygon fill="white" stroke="#666666" points="583,-359 464,-359 464,-329 583,-329 583,-359"/>
<text text-anchor="start" x="472" y="-347" font-family="Helvetica,sans-Serif" font-size="10.00">doris::ClientConnection</text>
<text text-anchor="middle" x="523.5" y="-336" font-family="Helvetica,sans-Serif" font-size="10.00">::reopen</text>
</a>
</g>
</g>
<!-- Node3&#45;&gt;Node8 -->
<g id="edge7" class="edge">
<title>Node3&#45;&gt;Node8</title>
<path fill="none" stroke="#63b8ff" d="M421.42,-371.6C432.27,-368.63 443.75,-365.5 454.92,-362.45"/>
<polygon fill="#63b8ff" stroke="#63b8ff" points="455.76,-365.85 464.49,-359.84 453.92,-359.1 455.76,-365.85"/>
</g>
<!-- Node6 -->
<g id="node6" class="node">
<title>Node6</title>
<g id="a_node6"><a xlink:href="../../d9/d8d/classdoris_1_1_status.html#aafde58df1b2a6a91d5b674373be3ffc5" target="_top" xlink:title=" ">
<polygon fill="white" stroke="#666666" points="726,-396.5 619,-396.5 619,-377.5 726,-377.5 726,-396.5"/>
<text text-anchor="middle" x="672.5" y="-384.5" font-family="Helvetica,sans-Serif" font-size="10.00">doris::Status::Status</text>
</a>
</g>
</g>
<!-- Node5&#45;&gt;Node6 -->
<g id="edge5" class="edge">
<title>Node5&#45;&gt;Node6</title>
<path fill="none" stroke="#63b8ff" d="M569.8,-387C581.62,-387 594.59,-387 607.19,-387"/>
<polygon fill="#63b8ff" stroke="#63b8ff" points="607.1,-390.5 617.1,-387 607.1,-383.5 607.1,-390.5"/>
</g>
<!-- Node11&#45;&gt;Node11 -->
<g id="edge11" class="edge">
<title>Node11&#45;&gt;Node11</title>
<path fill="none" stroke="#63b8ff" d="M336.67,-202.28C330.59,-211.41 339.7,-220 364,-220 377.29,-220 386.03,-217.43 390.24,-213.61"/>
<polygon fill="#63b8ff" stroke="#63b8ff" points="393.71,-214.07 391.19,-203.78 386.74,-213.4 393.71,-214.07"/>
</g>
<!-- Node13&#45;&gt;Node7 -->
<g id="edge19" class="edge">
<title>Node13&#45;&gt;Node7</title>
<path fill="none" stroke="#63b8ff" d="M252.31,-75.93C306.99,-89.06 398.13,-112.56 428,-130 460.95,-149.24 491.04,-182.4 508.03,-203.22"/>
<polygon fill="#63b8ff" stroke="#63b8ff" points="505.17,-205.25 514.14,-210.89 510.65,-200.89 505.17,-205.25"/>
</g>
<!-- Node14 -->
<g id="node14" class="node">
<title>Node14</title>
<g id="a_node14"><a xlink:href="../../d9/d8d/classdoris_1_1_status.html#a10d1af04498c2b7756612d7152497871" target="_top" xlink:title=" ">
<polygon fill="white" stroke="#666666" points="413.5,-78 314.5,-78 314.5,-48 413.5,-48 413.5,-78"/>
<text text-anchor="start" x="322.5" y="-66" font-family="Helvetica,sans-Serif" font-size="10.00">doris::Status::code</text>
<text text-anchor="middle" x="364" y="-55" font-family="Helvetica,sans-Serif" font-size="10.00">_as_string</text>
</a>
</g>
</g>
<!-- Node13&#45;&gt;Node14 -->
<g id="edge16" class="edge">
<title>Node13&#45;&gt;Node14</title>
<path fill="none" stroke="#63b8ff" d="M264.48,-64.93C276.87,-64.68 290.07,-64.43 302.66,-64.18"/>
<polygon fill="#63b8ff" stroke="#63b8ff" points="302.56,-67.68 312.49,-63.99 302.43,-60.68 302.56,-67.68"/>
</g>
<!-- Node16 -->
<g id="node16" class="node">
<title>Node16</title>
<g id="a_node16"><a xlink:href="../../db/d5f/classdoris_1_1_backend_options.html#a07e4505e62ab1e64490b48b117523422" target="_top" xlink:title=" ">
<polygon fill="white" stroke="#666666" points="422,-30 306,-30 306,0 422,0 422,-30"/>
<text text-anchor="start" x="314" y="-18" font-family="Helvetica,sans-Serif" font-size="10.00">doris::BackendOptions</text>
<text text-anchor="middle" x="364" y="-7" font-family="Helvetica,sans-Serif" font-size="10.00">::get_localhost</text>
</a>
</g>
</g>
<!-- Node13&#45;&gt;Node16 -->
<g id="edge18" class="edge">
<title>Node13&#45;&gt;Node16</title>
<path fill="none" stroke="#63b8ff" d="M239.46,-56.05C258.28,-49.79 283.17,-41.52 305.67,-34.05"/>
<polygon fill="#63b8ff" stroke="#63b8ff" points="306.67,-37.4 315.06,-30.93 304.46,-30.76 306.67,-37.4"/>
</g>
<!-- Node15 -->
<g id="node15" class="node">
<title>Node15</title>
<g id="a_node15"><a xlink:href="../../d6/d94/namespacedoris.html#a188d65a24975b2fdeee7a53fa69c5331" target="_top" xlink:title=" ">
<polygon fill="white" stroke="#666666" points="564,-72.5 483,-72.5 483,-53.5 564,-53.5 564,-72.5"/>
<text text-anchor="middle" x="523.5" y="-60.5" font-family="Helvetica,sans-Serif" font-size="10.00">doris::to_string</text>
</a>
</g>
</g>
<!-- Node14&#45;&gt;Node15 -->
<g id="edge17" class="edge">
<title>Node14&#45;&gt;Node15</title>
<path fill="none" stroke="#63b8ff" d="M413.97,-63C432.13,-63 452.77,-63 471.14,-63"/>
<polygon fill="#63b8ff" stroke="#63b8ff" points="471.02,-66.5 481.02,-63 471.02,-59.5 471.02,-66.5"/>
</g>
</g>
</svg>
