<?xml version="1.0" encoding="UTF-8" standalone="no"?>
<!DOCTYPE svg PUBLIC "-//W3C//DTD SVG 1.1//EN"
 "http://www.w3.org/Graphics/SVG/1.1/DTD/svg11.dtd">
<!-- Generated by graphviz version 7.1.0 (20230121.1956)
 -->
<!-- Title: _get_tablet_info Pages: 1 -->
<svg width="538pt" height="190pt"
 viewBox="0.00 0.00 538.00 189.50" xmlns="http://www.w3.org/2000/svg" xmlns:xlink="http://www.w3.org/1999/xlink">
<g id="graph0" class="graph" transform="scale(1 1) rotate(0) translate(4 185.5)">
<title>_get_tablet_info</title>
<!-- Node1 -->
<g id="node1" class="node">
<title>Node1</title>
<g id="a_node1"><a xlink:title=" ">
<polygon fill="#999999" stroke="#666666" points="86,-95 0,-95 0,-76 86,-76 86,-95"/>
<text text-anchor="middle" x="43" y="-83" font-family="Helvetica,sans-Serif" font-size="10.00">_get_tablet_info</text>
</a>
</g>
</g>
<!-- Node2 -->
<g id="node2" class="node">
<title>Node2</title>
<g id="a_node2"><a xlink:href="../../d7/d82/classdoris_1_1_storage_engine.html#a2a74d46f061869fa5465ac1269ef208f" target="_top" xlink:title=" ">
<polygon fill="white" stroke="#666666" points="229,-148.5 122,-148.5 122,-118.5 229,-118.5 229,-148.5"/>
<text text-anchor="start" x="130" y="-136.5" font-family="Helvetica,sans-Serif" font-size="10.00">doris::StorageEngine</text>
<text text-anchor="middle" x="175.5" y="-125.5" font-family="Helvetica,sans-Serif" font-size="10.00">::instance</text>
</a>
</g>
</g>
<!-- Node1&#45;&gt;Node2 -->
<g id="edge1" class="edge">
<title>Node1&#45;&gt;Node2</title>
<path fill="none" stroke="#63b8ff" d="M71.04,-95.45C85.75,-100.86 104.47,-107.74 121.93,-114.16"/>
<polygon fill="#63b8ff" stroke="#63b8ff" points="120.58,-117.39 131.17,-117.56 122.99,-110.83 120.58,-117.39"/>
</g>
<!-- Node3 -->
<g id="node3" class="node">
<title>Node3</title>
<g id="a_node3"><a xlink:href="../../d5/d7e/classdoris_1_1_tablet_manager.html#a5a8b95cb7f7bd31388db823cc30189e2" target="_top" xlink:title=" ">
<polygon fill="white" stroke="#666666" points="229,-100.5 122,-100.5 122,-70.5 229,-70.5 229,-100.5"/>
<text text-anchor="start" x="130" y="-88.5" font-family="Helvetica,sans-Serif" font-size="10.00">doris::TabletManager</text>
<text text-anchor="middle" x="175.5" y="-77.5" font-family="Helvetica,sans-Serif" font-size="10.00">::report_tablet_info</text>
</a>
</g>
</g>
<!-- Node1&#45;&gt;Node3 -->
<g id="edge2" class="edge">
<title>Node1&#45;&gt;Node3</title>
<path fill="none" stroke="#63b8ff" d="M86.37,-85.5C94.06,-85.5 102.23,-85.5 110.38,-85.5"/>
<polygon fill="#63b8ff" stroke="#63b8ff" points="110.32,-89 120.32,-85.5 110.32,-82 110.32,-89"/>
</g>
<!-- Node9 -->
<g id="node9" class="node">
<title>Node9</title>
<g id="a_node9"><a xlink:href="../../d7/d82/classdoris_1_1_storage_engine.html#adc0eb54af3511550e59e94eaa8bfc00a" target="_top" xlink:title=" ">
<polygon fill="white" stroke="#666666" points="229,-52.5 122,-52.5 122,-22.5 229,-22.5 229,-52.5"/>
<text text-anchor="start" x="130" y="-40.5" font-family="Helvetica,sans-Serif" font-size="10.00">doris::StorageEngine</text>
<text text-anchor="middle" x="175.5" y="-29.5" font-family="Helvetica,sans-Serif" font-size="10.00">::tablet_manager</text>
</a>
</g>
</g>
<!-- Node1&#45;&gt;Node9 -->
<g id="edge9" class="edge">
<title>Node1&#45;&gt;Node9</title>
<path fill="none" stroke="#63b8ff" d="M71.04,-75.55C85.75,-70.14 104.47,-63.26 121.93,-56.84"/>
<polygon fill="#63b8ff" stroke="#63b8ff" points="122.99,-60.17 131.17,-53.44 120.58,-53.61 122.99,-60.17"/>
</g>
<!-- Node4 -->
<g id="node4" class="node">
<title>Node4</title>
<g id="a_node4"><a xlink:href="../../d5/d7e/classdoris_1_1_tablet_manager.html#a7d26de6462f5c33ff7ef2e194b1361e0" target="_top" xlink:title=" ">
<polygon fill="white" stroke="#666666" points="379.5,-181.5 272.5,-181.5 272.5,-151.5 379.5,-151.5 379.5,-181.5"/>
<text text-anchor="start" x="280.5" y="-169.5" font-family="Helvetica,sans-Serif" font-size="10.00">doris::TabletManager</text>
<text text-anchor="middle" x="326" y="-158.5" font-family="Helvetica,sans-Serif" font-size="10.00">::get_tablet</text>
</a>
</g>
</g>
<!-- Node3&#45;&gt;Node4 -->
<g id="edge3" class="edge">
<title>Node3&#45;&gt;Node4</title>
<path fill="none" stroke="#63b8ff" d="M214,-100.88C219.18,-103.51 224.32,-106.4 229,-109.5 247.09,-121.49 246.62,-130.95 265,-142.5 266.97,-143.74 269.01,-144.93 271.1,-146.08"/>
<polygon fill="#63b8ff" stroke="#63b8ff" points="269.29,-149.09 279.79,-150.45 272.43,-142.83 269.29,-149.09"/>
</g>
<!-- Node5 -->
<g id="node5" class="node">
<title>Node5</title>
<g id="a_node5"><a xlink:href="../../db/d40/classdoris_1_1_core_local_counter.html#a6c7e8662093760ffbf15dfa08ef03eb2" target="_top" xlink:title=" ">
<polygon fill="white" stroke="#666666" points="387,-133.5 265,-133.5 265,-103.5 387,-103.5 387,-133.5"/>
<text text-anchor="start" x="273" y="-121.5" font-family="Helvetica,sans-Serif" font-size="10.00">doris::CoreLocalCounter</text>
<text text-anchor="middle" x="326" y="-110.5" font-family="Helvetica,sans-Serif" font-size="10.00">::increment</text>
</a>
</g>
</g>
<!-- Node3&#45;&gt;Node5 -->
<g id="edge4" class="edge">
<title>Node3&#45;&gt;Node5</title>
<path fill="none" stroke="#63b8ff" d="M229.27,-97.23C237.13,-98.97 245.33,-100.8 253.49,-102.61"/>
<polygon fill="#63b8ff" stroke="#63b8ff" points="252.55,-105.99 263.07,-104.74 254.07,-99.15 252.55,-105.99"/>
</g>
<!-- Node6 -->
<g id="node6" class="node">
<title>Node6</title>
<g id="a_node6"><a xlink:href="../../d3/d7b/classdoris_1_1_doris_metrics.html#a4d0ce88513091aec833045b4eddeee8b" target="_top" xlink:title=" ">
<polygon fill="white" stroke="#666666" points="375.5,-67.5 276.5,-67.5 276.5,-37.5 375.5,-37.5 375.5,-67.5"/>
<text text-anchor="start" x="284.5" y="-55.5" font-family="Helvetica,sans-Serif" font-size="10.00">doris::DorisMetrics</text>
<text text-anchor="middle" x="326" y="-44.5" font-family="Helvetica,sans-Serif" font-size="10.00">::instance</text>
</a>
</g>
</g>
<!-- Node3&#45;&gt;Node6 -->
<g id="edge5" class="edge">
<title>Node3&#45;&gt;Node6</title>
<path fill="none" stroke="#63b8ff" d="M229.27,-73.77C240.9,-71.19 253.29,-68.44 265.17,-65.8"/>
<polygon fill="#63b8ff" stroke="#63b8ff" points="265.88,-69.22 274.89,-63.64 264.36,-62.39 265.88,-69.22"/>
</g>
<!-- Node7 -->
<g id="node7" class="node">
<title>Node7</title>
<g id="a_node7"><a xlink:href="../../d9/d8d/classdoris_1_1_status.html#a6ec1a217f203269ab53d2290d602db24" target="_top" xlink:title=" ">
<polygon fill="white" stroke="#666666" points="372,-19 280,-19 280,0 372,0 372,-19"/>
<text text-anchor="middle" x="326" y="-7" font-family="Helvetica,sans-Serif" font-size="10.00">doris::Status::OK</text>
</a>
</g>
</g>
<!-- Node3&#45;&gt;Node7 -->
<g id="edge7" class="edge">
<title>Node3&#45;&gt;Node7</title>
<path fill="none" stroke="#63b8ff" d="M214,-70.12C219.18,-67.49 224.32,-64.6 229,-61.5 247.09,-49.51 246.21,-39.37 265,-28.5 268.12,-26.69 271.44,-25.04 274.84,-23.53"/>
<polygon fill="#63b8ff" stroke="#63b8ff" points="275.82,-26.9 283.82,-19.96 273.23,-20.4 275.82,-26.9"/>
</g>
<!-- Node6&#45;&gt;Node6 -->
<g id="edge6" class="edge">
<title>Node6&#45;&gt;Node6</title>
<path fill="none" stroke="#63b8ff" d="M299.54,-67.78C293.67,-76.91 302.48,-85.5 326,-85.5 338.86,-85.5 347.32,-82.93 351.39,-79.11"/>
<polygon fill="#63b8ff" stroke="#63b8ff" points="354.87,-79.57 352.31,-69.28 347.9,-78.91 354.87,-79.57"/>
</g>
<!-- Node8 -->
<g id="node8" class="node">
<title>Node8</title>
<g id="a_node8"><a xlink:href="../../d9/d8d/classdoris_1_1_status.html#aafde58df1b2a6a91d5b674373be3ffc5" target="_top" xlink:title=" ">
<polygon fill="white" stroke="#666666" points="530,-19 423,-19 423,0 530,0 530,-19"/>
<text text-anchor="middle" x="476.5" y="-7" font-family="Helvetica,sans-Serif" font-size="10.00">doris::Status::Status</text>
</a>
</g>
</g>
<!-- Node7&#45;&gt;Node8 -->
<g id="edge8" class="edge">
<title>Node7&#45;&gt;Node8</title>
<path fill="none" stroke="#63b8ff" d="M372.36,-9.5C384.63,-9.5 398.15,-9.5 411.24,-9.5"/>
<polygon fill="#63b8ff" stroke="#63b8ff" points="411.09,-13 421.09,-9.5 411.09,-6 411.09,-13"/>
</g>
</g>
</svg>
