<?xml version="1.0" encoding="UTF-8" standalone="no"?>
<!DOCTYPE svg PUBLIC "-//W3C//DTD SVG 1.1//EN"
 "http://www.w3.org/Graphics/SVG/1.1/DTD/svg11.dtd">
<!-- Generated by graphviz version 7.1.0 (20230121.1956)
 -->
<!-- Title: _storage_medium_migrate_worker_thread_callback Pages: 1 -->
<svg width="770pt" height="684pt"
 viewBox="0.00 0.00 770.00 683.50" xmlns="http://www.w3.org/2000/svg" xmlns:xlink="http://www.w3.org/1999/xlink">
<g id="graph0" class="graph" transform="scale(1 1) rotate(0) translate(4 679.5)">
<title>_storage_medium_migrate_worker_thread_callback</title>
<!-- Node1 -->
<g id="node1" class="node">
<title>Node1</title>
<g id="a_node1"><a xlink:title=" ">
<polygon fill="#999999" stroke="#666666" points="131,-187 0,-187 0,-157 131,-157 131,-187"/>
<text text-anchor="start" x="8" y="-175" font-family="Helvetica,sans-Serif" font-size="10.00">_storage_medium_migrate</text>
<text text-anchor="middle" x="65.5" y="-164" font-family="Helvetica,sans-Serif" font-size="10.00">_worker_thread_callback</text>
</a>
</g>
</g>
<!-- Node2 -->
<g id="node2" class="node">
<title>Node2</title>
<g id="a_node2"><a xlink:href="../../d0/db3/classdoris_1_1_task_worker_pool.html#aaa86dd27774ff80f011f2aef6eecc7c8" target="_top" xlink:title=" ">
<polygon fill="white" stroke="#666666" points="290,-478.5 167,-478.5 167,-459.5 290,-459.5 290,-478.5"/>
<text text-anchor="middle" x="228.5" y="-466.5" font-family="Helvetica,sans-Serif" font-size="10.00">_check_migrate_request</text>
</a>
</g>
</g>
<!-- Node1&#45;&gt;Node2 -->
<g id="edge1" class="edge">
<title>Node1&#45;&gt;Node2</title>
<path fill="none" stroke="#63b8ff" d="M74.71,-187.14C101.5,-236.57 186.46,-393.29 216.69,-449.06"/>
<polygon fill="#63b8ff" stroke="#63b8ff" points="213.56,-450.63 221.4,-457.75 219.71,-447.29 213.56,-450.63"/>
</g>
<!-- Node11 -->
<g id="node11" class="node">
<title>Node11</title>
<g id="a_node11"><a xlink:href="../../d0/db3/classdoris_1_1_task_worker_pool.html#a0052d7f8712862095f74635c1ecda14f" target="_top" xlink:title=" ">
<polygon fill="white" stroke="#666666" points="263,-181.5 194,-181.5 194,-162.5 263,-162.5 263,-181.5"/>
<text text-anchor="middle" x="228.5" y="-169.5" font-family="Helvetica,sans-Serif" font-size="10.00">_finish_task</text>
</a>
</g>
</g>
<!-- Node1&#45;&gt;Node11 -->
<g id="edge10" class="edge">
<title>Node1&#45;&gt;Node11</title>
<path fill="none" stroke="#63b8ff" d="M131.06,-172C148.37,-172 166.72,-172 182.7,-172"/>
<polygon fill="#63b8ff" stroke="#63b8ff" points="182.37,-175.5 192.37,-172 182.37,-168.5 182.37,-175.5"/>
</g>
<!-- Node19 -->
<g id="node19" class="node">
<title>Node19</title>
<g id="a_node19"><a xlink:href="../../d0/db3/classdoris_1_1_task_worker_pool.html#acd6d410d7e3f171793ac7d5bf38fb086" target="_top" xlink:title=" ">
<polygon fill="white" stroke="#666666" points="278,-144.5 179,-144.5 179,-125.5 278,-125.5 278,-144.5"/>
<text text-anchor="middle" x="228.5" y="-132.5" font-family="Helvetica,sans-Serif" font-size="10.00">_remove_task_info</text>
</a>
</g>
</g>
<!-- Node1&#45;&gt;Node19 -->
<g id="edge21" class="edge">
<title>Node1&#45;&gt;Node19</title>
<path fill="none" stroke="#63b8ff" d="M131.06,-157.16C145,-153.96 159.61,-150.6 173.11,-147.5"/>
<polygon fill="#63b8ff" stroke="#63b8ff" points="173.73,-150.95 182.69,-145.3 172.16,-144.13 173.73,-150.95"/>
</g>
<!-- Node20 -->
<g id="node20" class="node">
<title>Node20</title>
<g id="a_node20"><a xlink:href="../../d7/d82/classdoris_1_1_storage_engine.html#aa90647ce5a3aa8ae49b79d584fa6c6a1" target="_top" xlink:title=" ">
<polygon fill="white" stroke="#666666" points="282,-278 175,-278 175,-248 282,-248 282,-278"/>
<text text-anchor="start" x="183" y="-266" font-family="Helvetica,sans-Serif" font-size="10.00">doris::StorageEngine</text>
<text text-anchor="middle" x="228.5" y="-255" font-family="Helvetica,sans-Serif" font-size="10.00">::execute_task</text>
</a>
</g>
</g>
<!-- Node1&#45;&gt;Node20 -->
<g id="edge22" class="edge">
<title>Node1&#45;&gt;Node20</title>
<path fill="none" stroke="#63b8ff" d="M93.81,-187.44C120.38,-202.45 160.92,-225.37 190.4,-242.03"/>
<polygon fill="#63b8ff" stroke="#63b8ff" points="188.58,-245.02 199.01,-246.89 192.02,-238.93 188.58,-245.02"/>
</g>
<!-- Node23 -->
<g id="node23" class="node">
<title>Node23</title>
<g id="a_node23"><a xlink:href="../../d9/dbd/classdoris_1_1_exec_env.html#a6b93a5ecb3b9d58efeebcdbcd5e526f0" target="_top" xlink:title=" ">
<polygon fill="white" stroke="#666666" points="289.5,-107 167.5,-107 167.5,-77 289.5,-77 289.5,-107"/>
<text text-anchor="start" x="175.5" y="-95" font-family="Helvetica,sans-Serif" font-size="10.00">doris::ExecEnv::storage</text>
<text text-anchor="middle" x="228.5" y="-84" font-family="Helvetica,sans-Serif" font-size="10.00">_engine</text>
</a>
</g>
</g>
<!-- Node1&#45;&gt;Node23 -->
<g id="edge27" class="edge">
<title>Node1&#45;&gt;Node23</title>
<path fill="none" stroke="#63b8ff" d="M92.54,-156.73C112.59,-145.22 141.16,-129.36 167,-117 170.54,-115.31 174.23,-113.61 177.96,-111.95"/>
<polygon fill="#63b8ff" stroke="#63b8ff" points="179.32,-115.18 187.11,-107.99 176.54,-108.75 179.32,-115.18"/>
</g>
<!-- Node3 -->
<g id="node3" class="node">
<title>Node3</title>
<g id="a_node3"><a xlink:href="../../d7/d82/classdoris_1_1_storage_engine.html#a09e265b76d327346fcd3ea0911771b3b" target="_top" xlink:title=" ">
<polygon fill="white" stroke="#666666" points="464,-675.5 326,-675.5 326,-634.5 464,-634.5 464,-675.5"/>
<text text-anchor="start" x="334" y="-663.5" font-family="Helvetica,sans-Serif" font-size="10.00">doris::StorageEngine</text>
<text text-anchor="start" x="334" y="-652.5" font-family="Helvetica,sans-Serif" font-size="10.00">::available_storage_medium</text>
<text text-anchor="middle" x="395" y="-641.5" font-family="Helvetica,sans-Serif" font-size="10.00">_type_count</text>
</a>
</g>
</g>
<!-- Node2&#45;&gt;Node3 -->
<g id="edge2" class="edge">
<title>Node2&#45;&gt;Node3</title>
<path fill="none" stroke="#63b8ff" d="M233.14,-478.81C243.56,-505.71 276.03,-581.51 326,-625 327.1,-625.95 328.23,-626.88 329.39,-627.78"/>
<polygon fill="#63b8ff" stroke="#63b8ff" points="327.3,-630.59 337.53,-633.35 331.25,-624.82 327.3,-630.59"/>
</g>
<!-- Node4 -->
<g id="node4" class="node">
<title>Node4</title>
<g id="a_node4"><a xlink:href="../../d7/d82/classdoris_1_1_storage_engine.html#acf0481208bc869e6a62f1156e39a6075" target="_top" xlink:title=" ">
<polygon fill="white" stroke="#666666" points="448.5,-616 341.5,-616 341.5,-586 448.5,-586 448.5,-616"/>
<text text-anchor="start" x="349.5" y="-604" font-family="Helvetica,sans-Serif" font-size="10.00">doris::StorageEngine</text>
<text text-anchor="middle" x="395" y="-593" font-family="Helvetica,sans-Serif" font-size="10.00">::get_store</text>
</a>
</g>
</g>
<!-- Node2&#45;&gt;Node4 -->
<g id="edge3" class="edge">
<title>Node2&#45;&gt;Node4</title>
<path fill="none" stroke="#63b8ff" d="M235.75,-478.85C249.53,-499.83 284.64,-549.28 326,-577 327.79,-578.2 329.65,-579.35 331.57,-580.45"/>
<polygon fill="#63b8ff" stroke="#63b8ff" points="329.61,-583.38 340.11,-584.83 332.81,-577.15 329.61,-583.38"/>
</g>
<!-- Node5 -->
<g id="node5" class="node">
<title>Node5</title>
<g id="a_node5"><a xlink:href="../../d7/d82/classdoris_1_1_storage_engine.html#a1fb760cd006379b83efe7d17f031d630" target="_top" xlink:title=" ">
<polygon fill="white" stroke="#666666" points="453.5,-567.5 336.5,-567.5 336.5,-526.5 453.5,-526.5 453.5,-567.5"/>
<text text-anchor="start" x="344.5" y="-555.5" font-family="Helvetica,sans-Serif" font-size="10.00">doris::StorageEngine</text>
<text text-anchor="start" x="344.5" y="-544.5" font-family="Helvetica,sans-Serif" font-size="10.00">::get_stores_for_create</text>
<text text-anchor="middle" x="395" y="-533.5" font-family="Helvetica,sans-Serif" font-size="10.00">_tablet</text>
</a>
</g>
</g>
<!-- Node2&#45;&gt;Node5 -->
<g id="edge4" class="edge">
<title>Node2&#45;&gt;Node5</title>
<path fill="none" stroke="#63b8ff" d="M248.6,-478.82C267.98,-488.72 298.89,-504.29 326,-517 329.11,-518.46 332.31,-519.94 335.55,-521.42"/>
<polygon fill="#63b8ff" stroke="#63b8ff" points="334.02,-524.57 344.57,-525.51 336.91,-518.19 334.02,-524.57"/>
</g>
<!-- Node6 -->
<g id="node6" class="node">
<title>Node6</title>
<g id="a_node6"><a xlink:href="../../d5/d7e/classdoris_1_1_tablet_manager.html#a7d26de6462f5c33ff7ef2e194b1361e0" target="_top" xlink:title=" ">
<polygon fill="white" stroke="#666666" points="448.5,-508 341.5,-508 341.5,-478 448.5,-478 448.5,-508"/>
<text text-anchor="start" x="349.5" y="-496" font-family="Helvetica,sans-Serif" font-size="10.00">doris::TabletManager</text>
<text text-anchor="middle" x="395" y="-485" font-family="Helvetica,sans-Serif" font-size="10.00">::get_tablet</text>
</a>
</g>
</g>
<!-- Node2&#45;&gt;Node6 -->
<g id="edge5" class="edge">
<title>Node2&#45;&gt;Node6</title>
<path fill="none" stroke="#63b8ff" d="M290.29,-477.87C303.17,-479.75 316.81,-481.74 329.81,-483.64"/>
<polygon fill="#63b8ff" stroke="#63b8ff" points="329.15,-487.07 339.55,-485.06 330.16,-480.15 329.15,-487.07"/>
</g>
<!-- Node7 -->
<g id="node7" class="node">
<title>Node7</title>
<g id="a_node7"><a xlink:href="../../d7/d82/classdoris_1_1_storage_engine.html#a2a74d46f061869fa5465ac1269ef208f" target="_top" xlink:title=" ">
<polygon fill="white" stroke="#666666" points="448.5,-460 341.5,-460 341.5,-430 448.5,-430 448.5,-460"/>
<text text-anchor="start" x="349.5" y="-448" font-family="Helvetica,sans-Serif" font-size="10.00">doris::StorageEngine</text>
<text text-anchor="middle" x="395" y="-437" font-family="Helvetica,sans-Serif" font-size="10.00">::instance</text>
</a>
</g>
</g>
<!-- Node2&#45;&gt;Node7 -->
<g id="edge6" class="edge">
<title>Node2&#45;&gt;Node7</title>
<path fill="none" stroke="#63b8ff" d="M290.29,-460.13C303.17,-458.25 316.81,-456.26 329.81,-454.36"/>
<polygon fill="#63b8ff" stroke="#63b8ff" points="330.16,-457.85 339.55,-452.94 329.15,-450.93 330.16,-457.85"/>
</g>
<!-- Node8 -->
<g id="node8" class="node">
<title>Node8</title>
<g id="a_node8"><a xlink:href="../../d9/d8d/classdoris_1_1_status.html#a6ec1a217f203269ab53d2290d602db24" target="_top" xlink:title=" ">
<polygon fill="white" stroke="#666666" points="605.5,-312.5 513.5,-312.5 513.5,-293.5 605.5,-293.5 605.5,-312.5"/>
<text text-anchor="middle" x="559.5" y="-300.5" font-family="Helvetica,sans-Serif" font-size="10.00">doris::Status::OK</text>
</a>
</g>
</g>
<!-- Node2&#45;&gt;Node8 -->
<g id="edge7" class="edge">
<title>Node2&#45;&gt;Node8</title>
<path fill="none" stroke="#63b8ff" d="M246.83,-459.1C265.79,-448.58 297.34,-431.96 326,-421 385.42,-398.28 407.74,-412.69 464,-383 494.71,-366.79 524.3,-339.18 541.95,-321.01"/>
<polygon fill="#63b8ff" stroke="#63b8ff" points="544.22,-323.7 548.56,-314.04 539.14,-318.88 544.22,-323.7"/>
</g>
<!-- Node10 -->
<g id="node10" class="node">
<title>Node10</title>
<g id="a_node10"><a xlink:href="../../d7/d82/classdoris_1_1_storage_engine.html#adc0eb54af3511550e59e94eaa8bfc00a" target="_top" xlink:title=" ">
<polygon fill="white" stroke="#666666" points="448.5,-374 341.5,-374 341.5,-344 448.5,-344 448.5,-374"/>
<text text-anchor="start" x="349.5" y="-362" font-family="Helvetica,sans-Serif" font-size="10.00">doris::StorageEngine</text>
<text text-anchor="middle" x="395" y="-351" font-family="Helvetica,sans-Serif" font-size="10.00">::tablet_manager</text>
</a>
</g>
</g>
<!-- Node2&#45;&gt;Node10 -->
<g id="edge9" class="edge">
<title>Node2&#45;&gt;Node10</title>
<path fill="none" stroke="#63b8ff" d="M239.16,-459.18C255.72,-442.76 291.14,-409.4 326,-388 331.13,-384.85 336.66,-381.88 342.27,-379.14"/>
<polygon fill="#63b8ff" stroke="#63b8ff" points="343.42,-382.46 351.02,-375.07 340.47,-376.11 343.42,-382.46"/>
</g>
<!-- Node9 -->
<g id="node9" class="node">
<title>Node9</title>
<g id="a_node9"><a xlink:href="../../d9/d8d/classdoris_1_1_status.html#aafde58df1b2a6a91d5b674373be3ffc5" target="_top" xlink:title=" ">
<polygon fill="white" stroke="#666666" points="762,-312.5 655,-312.5 655,-293.5 762,-293.5 762,-312.5"/>
<text text-anchor="middle" x="708.5" y="-300.5" font-family="Helvetica,sans-Serif" font-size="10.00">doris::Status::Status</text>
</a>
</g>
</g>
<!-- Node8&#45;&gt;Node9 -->
<g id="edge8" class="edge">
<title>Node8&#45;&gt;Node9</title>
<path fill="none" stroke="#63b8ff" d="M605.8,-303C617.62,-303 630.59,-303 643.19,-303"/>
<polygon fill="#63b8ff" stroke="#63b8ff" points="643.1,-306.5 653.1,-303 643.1,-299.5 643.1,-306.5"/>
</g>
<!-- Node12 -->
<g id="node12" class="node">
<title>Node12</title>
<g id="a_node12"><a xlink:href="../../d9/d64/classdoris_1_1_master_server_client.html#a9c2399c772aaa52099f8f72a08648e6e" target="_top" xlink:title=" ">
<polygon fill="white" stroke="#666666" points="459,-230 331,-230 331,-200 459,-200 459,-230"/>
<text text-anchor="start" x="339" y="-218" font-family="Helvetica,sans-Serif" font-size="10.00">doris::MasterServerClient</text>
<text text-anchor="middle" x="395" y="-207" font-family="Helvetica,sans-Serif" font-size="10.00">::finish_task</text>
</a>
</g>
</g>
<!-- Node11&#45;&gt;Node12 -->
<g id="edge11" class="edge">
<title>Node11&#45;&gt;Node12</title>
<path fill="none" stroke="#63b8ff" d="M263.19,-180.81C280.72,-185.39 302.83,-191.17 323.87,-196.67"/>
<polygon fill="#63b8ff" stroke="#63b8ff" points="322.71,-199.98 333.27,-199.13 324.48,-193.21 322.71,-199.98"/>
</g>
<!-- Node14 -->
<g id="node14" class="node">
<title>Node14</title>
<g id="a_node14"><a xlink:href="../../d9/d8d/classdoris_1_1_status.html#a03cb7eaa663dc83af68bc28a596d09e6" target="_top" xlink:title=" ">
<polygon fill="white" stroke="#666666" points="604,-181.5 515,-181.5 515,-162.5 604,-162.5 604,-181.5"/>
<text text-anchor="middle" x="559.5" y="-169.5" font-family="Helvetica,sans-Serif" font-size="10.00">doris::Status::ok</text>
</a>
</g>
</g>
<!-- Node11&#45;&gt;Node14 -->
<g id="edge20" class="edge">
<title>Node11&#45;&gt;Node14</title>
<path fill="none" stroke="#63b8ff" d="M263.47,-172C320.19,-172 434.72,-172 503.19,-172"/>
<polygon fill="#63b8ff" stroke="#63b8ff" points="503.08,-175.5 513.08,-172 503.08,-168.5 503.08,-175.5"/>
</g>
<!-- Node16 -->
<g id="node16" class="node">
<title>Node16</title>
<g id="a_node16"><a xlink:href="../../db/d40/classdoris_1_1_core_local_counter.html#a6c7e8662093760ffbf15dfa08ef03eb2" target="_top" xlink:title=" ">
<polygon fill="white" stroke="#666666" points="456,-144 334,-144 334,-114 456,-114 456,-144"/>
<text text-anchor="start" x="342" y="-132" font-family="Helvetica,sans-Serif" font-size="10.00">doris::CoreLocalCounter</text>
<text text-anchor="middle" x="395" y="-121" font-family="Helvetica,sans-Serif" font-size="10.00">::increment</text>
</a>
</g>
</g>
<!-- Node11&#45;&gt;Node16 -->
<g id="edge16" class="edge">
<title>Node11&#45;&gt;Node16</title>
<path fill="none" stroke="#63b8ff" d="M263.19,-163.19C280.72,-158.61 302.83,-152.83 323.87,-147.33"/>
<polygon fill="#63b8ff" stroke="#63b8ff" points="324.48,-150.79 333.27,-144.87 322.71,-144.02 324.48,-150.79"/>
</g>
<!-- Node17 -->
<g id="node17" class="node">
<title>Node17</title>
<g id="a_node17"><a xlink:href="../../d9/d64/classdoris_1_1_master_server_client.html#a04ee5e289de119553c328ce0b88e4ae3" target="_top" xlink:title=" ">
<polygon fill="white" stroke="#666666" points="459,-96 331,-96 331,-66 459,-66 459,-96"/>
<text text-anchor="start" x="339" y="-84" font-family="Helvetica,sans-Serif" font-size="10.00">doris::MasterServerClient</text>
<text text-anchor="middle" x="395" y="-73" font-family="Helvetica,sans-Serif" font-size="10.00">::instance</text>
</a>
</g>
</g>
<!-- Node11&#45;&gt;Node17 -->
<g id="edge17" class="edge">
<title>Node11&#45;&gt;Node17</title>
<path fill="none" stroke="#63b8ff" d="M263.28,-166.09C272.5,-163.41 282.11,-159.55 290,-154 312.1,-138.45 304.3,-121.1 326,-105 327.52,-103.87 329.1,-102.79 330.72,-101.76"/>
<polygon fill="#63b8ff" stroke="#63b8ff" points="332.07,-105.02 339.11,-97.1 328.67,-98.9 332.07,-105.02"/>
</g>
<!-- Node18 -->
<g id="node18" class="node">
<title>Node18</title>
<g id="a_node18"><a xlink:href="../../d3/d7b/classdoris_1_1_doris_metrics.html#a4d0ce88513091aec833045b4eddeee8b" target="_top" xlink:title=" ">
<polygon fill="white" stroke="#666666" points="444.5,-30 345.5,-30 345.5,0 444.5,0 444.5,-30"/>
<text text-anchor="start" x="353.5" y="-18" font-family="Helvetica,sans-Serif" font-size="10.00">doris::DorisMetrics</text>
<text text-anchor="middle" x="395" y="-7" font-family="Helvetica,sans-Serif" font-size="10.00">::instance</text>
</a>
</g>
</g>
<!-- Node11&#45;&gt;Node18 -->
<g id="edge18" class="edge">
<title>Node11&#45;&gt;Node18</title>
<path fill="none" stroke="#63b8ff" d="M263.43,-167.7C272.97,-165.06 282.72,-160.81 290,-154 323.57,-122.58 296.86,-92.57 326,-57 332.59,-48.96 341.14,-42.03 349.95,-36.25"/>
<polygon fill="#63b8ff" stroke="#63b8ff" points="351.5,-39.4 358.23,-31.21 347.87,-33.42 351.5,-39.4"/>
</g>
<!-- Node12&#45;&gt;Node8 -->
<g id="edge13" class="edge">
<title>Node12&#45;&gt;Node8</title>
<path fill="none" stroke="#63b8ff" d="M448.1,-230.46C453.65,-232.96 459.06,-235.8 464,-239 483.51,-251.67 481,-263.57 500,-277 506.16,-281.35 513.16,-285.23 520.13,-288.57"/>
<polygon fill="#63b8ff" stroke="#63b8ff" points="518.27,-291.57 528.83,-292.46 521.13,-285.18 518.27,-291.57"/>
</g>
<!-- Node13 -->
<g id="node13" class="node">
<title>Node13</title>
<g id="a_node13"><a xlink:href="../../d9/d8d/classdoris_1_1_status.html#a4aebcfaf2368eb240cf5111cc6fc140b" target="_top" xlink:title=" ">
<polygon fill="white" stroke="#666666" points="609,-267.5 510,-267.5 510,-248.5 609,-248.5 609,-267.5"/>
<text text-anchor="middle" x="559.5" y="-255.5" font-family="Helvetica,sans-Serif" font-size="10.00">doris::Status::code</text>
</a>
</g>
</g>
<!-- Node12&#45;&gt;Node13 -->
<g id="edge12" class="edge">
<title>Node12&#45;&gt;Node13</title>
<path fill="none" stroke="#63b8ff" d="M454.21,-230.4C472.44,-235.23 492.35,-240.5 509.85,-245.13"/>
<polygon fill="#63b8ff" stroke="#63b8ff" points="508.93,-248.5 519.49,-247.68 510.72,-241.74 508.93,-248.5"/>
</g>
<!-- Node12&#45;&gt;Node14 -->
<g id="edge14" class="edge">
<title>Node12&#45;&gt;Node14</title>
<path fill="none" stroke="#63b8ff" d="M454.21,-199.6C472.44,-194.77 492.35,-189.5 509.85,-184.87"/>
<polygon fill="#63b8ff" stroke="#63b8ff" points="510.72,-188.26 519.49,-182.32 508.93,-181.5 510.72,-188.26"/>
</g>
<!-- Node15 -->
<g id="node15" class="node">
<title>Node15</title>
<g id="a_node15"><a xlink:href="../../d7/d70/classdoris_1_1_client_connection.html#af962d700d7644aefc29ab69452faab0e" target="_top" xlink:title=" ">
<polygon fill="white" stroke="#666666" points="619,-230 500,-230 500,-200 619,-200 619,-230"/>
<text text-anchor="start" x="508" y="-218" font-family="Helvetica,sans-Serif" font-size="10.00">doris::ClientConnection</text>
<text text-anchor="middle" x="559.5" y="-207" font-family="Helvetica,sans-Serif" font-size="10.00">::reopen</text>
</a>
</g>
</g>
<!-- Node12&#45;&gt;Node15 -->
<g id="edge15" class="edge">
<title>Node12&#45;&gt;Node15</title>
<path fill="none" stroke="#63b8ff" d="M459.29,-215C468.84,-215 478.73,-215 488.4,-215"/>
<polygon fill="#63b8ff" stroke="#63b8ff" points="488.12,-218.5 498.12,-215 488.12,-211.5 488.12,-218.5"/>
</g>
<!-- Node18&#45;&gt;Node18 -->
<g id="edge19" class="edge">
<title>Node18&#45;&gt;Node18</title>
<path fill="none" stroke="#63b8ff" d="M366.08,-30.28C359.66,-39.41 369.3,-48 395,-48 409.06,-48 418.31,-45.43 422.76,-41.61"/>
<polygon fill="#63b8ff" stroke="#63b8ff" points="426.23,-42.09 423.76,-31.78 419.26,-41.37 426.23,-42.09"/>
</g>
<!-- Node21 -->
<g id="node21" class="node">
<title>Node21</title>
<g id="a_node21"><a xlink:href="../../dd/dba/classdoris_1_1_engine_task.html#aa1635822f81e05b63ed7c984baf6c854" target="_top" xlink:title=" ">
<polygon fill="white" stroke="#666666" points="445.5,-326 344.5,-326 344.5,-296 445.5,-296 445.5,-326"/>
<text text-anchor="start" x="352.5" y="-314" font-family="Helvetica,sans-Serif" font-size="10.00">doris::EngineTask::</text>
<text text-anchor="middle" x="395" y="-303" font-family="Helvetica,sans-Serif" font-size="10.00">execute</text>
</a>
</g>
</g>
<!-- Node20&#45;&gt;Node21 -->
<g id="edge23" class="edge">
<title>Node20&#45;&gt;Node21</title>
<path fill="none" stroke="#63b8ff" d="M282.45,-278.45C298.71,-283.2 316.72,-288.45 333.45,-293.33"/>
<polygon fill="#63b8ff" stroke="#63b8ff" points="332.19,-296.61 342.77,-296.05 334.15,-289.89 332.19,-296.61"/>
</g>
<!-- Node22 -->
<g id="node22" class="node">
<title>Node22</title>
<g id="a_node22"><a xlink:href="../../dd/dba/classdoris_1_1_engine_task.html#a2d2e104cd8ea9144c6d50348ca043048" target="_top" xlink:title=" ">
<polygon fill="white" stroke="#666666" points="445.5,-278 344.5,-278 344.5,-248 445.5,-248 445.5,-278"/>
<text text-anchor="start" x="352.5" y="-266" font-family="Helvetica,sans-Serif" font-size="10.00">doris::EngineTask::</text>
<text text-anchor="middle" x="395" y="-255" font-family="Helvetica,sans-Serif" font-size="10.00">finish</text>
</a>
</g>
</g>
<!-- Node20&#45;&gt;Node22 -->
<g id="edge25" class="edge">
<title>Node20&#45;&gt;Node22</title>
<path fill="none" stroke="#63b8ff" d="M282.45,-263C298.56,-263 316.38,-263 332.97,-263"/>
<polygon fill="#63b8ff" stroke="#63b8ff" points="332.71,-266.5 342.71,-263 332.71,-259.5 332.71,-266.5"/>
</g>
<!-- Node21&#45;&gt;Node8 -->
<g id="edge24" class="edge">
<title>Node21&#45;&gt;Node8</title>
<path fill="none" stroke="#63b8ff" d="M445.64,-308.56C463.33,-307.69 483.4,-306.7 501.65,-305.8"/>
<polygon fill="#63b8ff" stroke="#63b8ff" points="501.71,-309.3 511.53,-305.31 501.37,-302.31 501.71,-309.3"/>
</g>
<!-- Node22&#45;&gt;Node8 -->
<g id="edge26" class="edge">
<title>Node22&#45;&gt;Node8</title>
<path fill="none" stroke="#63b8ff" d="M445.64,-275.22C464.99,-279.98 487.17,-285.44 506.72,-290.25"/>
<polygon fill="#63b8ff" stroke="#63b8ff" points="505.87,-293.65 516.42,-292.64 507.54,-286.85 505.87,-293.65"/>
</g>
</g>
</svg>
