<?xml version="1.0" encoding="UTF-8" standalone="no"?>
<!DOCTYPE svg PUBLIC "-//W3C//DTD SVG 1.1//EN"
 "http://www.w3.org/Graphics/SVG/1.1/DTD/svg11.dtd">
<!-- Generated by graphviz version 7.1.0 (20230121.1956)
 -->
<!-- Title: _submit_table_compaction_worker_thread_callback Pages: 1 -->
<!--zoomable 424 -->
<svg id="main" version="1.1" xmlns="http://www.w3.org/2000/svg" xmlns:xlink="http://www.w3.org/1999/xlink" xml:space="preserve" onload="init(evt)">
<style type="text/css"><![CDATA[
.edge:hover path { stroke: red; }
.edge:hover polygon { stroke: red; fill: red; }
]]></style>
<script type="text/javascript"><![CDATA[
var edges = document.getElementsByTagName('g');
if (edges && edges.length) {
  for (var i=0;i<edges.length;i++) {
    if (edges[i].id.substr(0,4)=='edge') {
      edges[i].setAttribute('class','edge');
    }
  }
}
]]></script>
        <defs>
                <circle id="rim" cx="0" cy="0" r="7"/>
                <circle id="rim2" cx="0" cy="0" r="3.5"/>
                <g id="zoomPlus">
                        <use xlink:href="#rim" fill="#404040">
                                <set attributeName="fill" to="#808080" begin="zoomplus.mouseover" end="zoomplus.mouseout"/>
                        </use>
                        <path d="M-4,0h8M0,-4v8" fill="none" stroke="white" stroke-width="1.5" pointer-events="none"/>
                </g>
                <g id="zoomMin">
                        <use xlink:href="#rim" fill="#404040">
                                <set attributeName="fill" to="#808080" begin="zoomminus.mouseover" end="zoomminus.mouseout"/>
                        </use>
                        <path d="M-4,0h8" fill="none" stroke="white" stroke-width="1.5" pointer-events="none"/>
                </g>
                <g id="dirArrow">
                        <path fill="none" stroke="white" stroke-width="1.5" d="M0,-3.0v7 M-2.5,-0.5L0,-3.0L2.5,-0.5"/>
                </g>
               <g id="resetDef">
                       <use xlink:href="#rim2" fill="#404040">
                               <set attributeName="fill" to="#808080" begin="reset.mouseover" end="reset.mouseout"/>
                       </use>
               </g>
        </defs>

<script type="text/javascript">
var viewWidth = 959;
var viewHeight = 424;
var sectionId = 'dynsection-49';
</script>
<script xlink:href="../../svgpan.js"/>
<svg id="graph" class="graph">
<g id="viewport">
<title>_submit_table_compaction_worker_thread_callback</title>
<!-- Node1 -->
<g id="node1" class="node">
<title>Node1</title>
<g id="a_node1"><a xlink:title=" ">
<polygon fill="#999999" stroke="#666666" points="133,-308.5 0,-308.5 0,-278.5 133,-278.5 133,-308.5"/>
<text text-anchor="start" x="8" y="-296.5" font-family="Helvetica,sans-Serif" font-size="10.00">_submit_table_compaction</text>
<text text-anchor="middle" x="66.5" y="-285.5" font-family="Helvetica,sans-Serif" font-size="10.00">_worker_thread_callback</text>
</a>
</g>
</g>
<!-- Node2 -->
<g id="node2" class="node">
<title>Node2</title>
<g id="a_node2"><a xlink:href="../../d0/db3/classdoris_1_1_task_worker_pool.html#acd6d410d7e3f171793ac7d5bf38fb086" target="_top" xlink:title=" ">
<polygon fill="white" stroke="#666666" points="284,-416 185,-416 185,-397 284,-397 284,-416"/>
<text text-anchor="middle" x="234.5" y="-404" font-family="Helvetica,sans-Serif" font-size="10.00">_remove_task_info</text>
</a>
</g>
</g>
<!-- Node1&#45;&gt;Node2 -->
<g id="edge1" class="edge">
<title>Node1&#45;&gt;Node2</title>
<path fill="none" stroke="#63b8ff" d="M79.97,-308.83C97.67,-329.6 132.04,-366.5 169,-387.5 172.2,-389.32 175.58,-390.97 179.07,-392.48"/>
<polygon fill="#63b8ff" stroke="#63b8ff" points="177.7,-395.71 188.29,-396.04 180.21,-389.18 177.7,-395.71"/>
</g>
<!-- Node3 -->
<g id="node3" class="node">
<title>Node3</title>
<g id="a_node3"><a xlink:href="../../d5/d7e/classdoris_1_1_tablet_manager.html#a7d26de6462f5c33ff7ef2e194b1361e0" target="_top" xlink:title=" ">
<polygon fill="white" stroke="#666666" points="288,-378.5 181,-378.5 181,-348.5 288,-348.5 288,-378.5"/>
<text text-anchor="start" x="189" y="-366.5" font-family="Helvetica,sans-Serif" font-size="10.00">doris::TabletManager</text>
<text text-anchor="middle" x="234.5" y="-355.5" font-family="Helvetica,sans-Serif" font-size="10.00">::get_tablet</text>
</a>
</g>
</g>
<!-- Node1&#45;&gt;Node3 -->
<g id="edge2" class="edge">
<title>Node1&#45;&gt;Node3</title>
<path fill="none" stroke="#63b8ff" d="M100.16,-309C119.94,-318.21 145.75,-329.92 169,-339.5 172.59,-340.98 176.3,-342.47 180.06,-343.94"/>
<polygon fill="#63b8ff" stroke="#63b8ff" points="178.66,-347.16 189.25,-347.49 181.18,-340.62 178.66,-347.16"/>
</g>
<!-- Node4 -->
<g id="node4" class="node">
<title>Node4</title>
<g id="a_node4"><a xlink:href="../../d7/d82/classdoris_1_1_storage_engine.html#a2a74d46f061869fa5465ac1269ef208f" target="_top" xlink:title=" ">
<polygon fill="white" stroke="#666666" points="288,-330.5 181,-330.5 181,-300.5 288,-300.5 288,-330.5"/>
<text text-anchor="start" x="189" y="-318.5" font-family="Helvetica,sans-Serif" font-size="10.00">doris::StorageEngine</text>
<text text-anchor="middle" x="234.5" y="-307.5" font-family="Helvetica,sans-Serif" font-size="10.00">::instance</text>
</a>
</g>
</g>
<!-- Node1&#45;&gt;Node4 -->
<g id="edge3" class="edge">
<title>Node1&#45;&gt;Node4</title>
<path fill="none" stroke="#63b8ff" d="M133.11,-302.19C145.06,-303.78 157.51,-305.43 169.42,-307.01"/>
<polygon fill="#63b8ff" stroke="#63b8ff" points="168.75,-310.45 179.13,-308.29 169.67,-303.51 168.75,-310.45"/>
</g>
<!-- Node5 -->
<g id="node5" class="node">
<title>Node5</title>
<g id="a_node5"><a xlink:href="../../d9/d8d/classdoris_1_1_status.html#a03cb7eaa663dc83af68bc28a596d09e6" target="_top" xlink:title=" ">
<polygon fill="white" stroke="#666666" points="634.5,-416 545.5,-416 545.5,-397 634.5,-397 634.5,-416"/>
<text text-anchor="middle" x="590" y="-404" font-family="Helvetica,sans-Serif" font-size="10.00">doris::Status::ok</text>
</a>
</g>
</g>
<!-- Node1&#45;&gt;Node5 -->
<g id="edge4" class="edge">
<title>Node1&#45;&gt;Node5</title>
<path fill="none" stroke="#63b8ff" d="M133.29,-292.01C145.18,-291.8 157.46,-291.61 169,-291.5 227.22,-290.93 243.15,-278.95 300,-291.5 400,-313.57 412.05,-355.52 509,-388.5 517.06,-391.24 525.72,-393.68 534.26,-395.82"/>
<polygon fill="#63b8ff" stroke="#63b8ff" points="533.34,-399.2 543.88,-398.1 534.96,-392.39 533.34,-399.2"/>
</g>
<!-- Node6 -->
<g id="node6" class="node">
<title>Node6</title>
<g id="a_node6"><a xlink:href="../../d7/d82/classdoris_1_1_storage_engine.html#a0c64b00a585a055f83ef024034dfdb5c" target="_top" xlink:title=" ">
<polygon fill="white" stroke="#666666" points="300,-244.5 169,-244.5 169,-214.5 300,-214.5 300,-244.5"/>
<text text-anchor="start" x="177" y="-232.5" font-family="Helvetica,sans-Serif" font-size="10.00">doris::StorageEngine</text>
<text text-anchor="middle" x="234.5" y="-221.5" font-family="Helvetica,sans-Serif" font-size="10.00">::submit_compaction_task</text>
</a>
</g>
</g>
<!-- Node1&#45;&gt;Node6 -->
<g id="edge5" class="edge">
<title>Node1&#45;&gt;Node6</title>
<path fill="none" stroke="#63b8ff" d="M107.68,-278.01C130.23,-269.31 158.59,-258.38 182.67,-249.1"/>
<polygon fill="#63b8ff" stroke="#63b8ff" points="183.92,-252.37 191.99,-245.51 181.4,-245.84 183.92,-252.37"/>
</g>
<!-- Node21 -->
<g id="node21" class="node">
<title>Node21</title>
<g id="a_node21"><a xlink:href="../../d7/d82/classdoris_1_1_storage_engine.html#adc0eb54af3511550e59e94eaa8bfc00a" target="_top" xlink:title=" ">
<polygon fill="white" stroke="#666666" points="288,-196.5 181,-196.5 181,-166.5 288,-166.5 288,-196.5"/>
<text text-anchor="start" x="189" y="-184.5" font-family="Helvetica,sans-Serif" font-size="10.00">doris::StorageEngine</text>
<text text-anchor="middle" x="234.5" y="-173.5" font-family="Helvetica,sans-Serif" font-size="10.00">::tablet_manager</text>
</a>
</g>
</g>
<!-- Node1&#45;&gt;Node21 -->
<g id="edge24" class="edge">
<title>Node1&#45;&gt;Node21</title>
<path fill="none" stroke="#63b8ff" d="M81.65,-278.24C100.14,-259.03 134.3,-226.08 169,-205.5 171.17,-204.21 173.42,-202.97 175.73,-201.79"/>
<polygon fill="#63b8ff" stroke="#63b8ff" points="177.17,-204.98 184.71,-197.54 174.18,-198.65 177.17,-204.98"/>
</g>
<!-- Node7 -->
<g id="node7" class="node">
<title>Node7</title>
<g id="a_node7"><a xlink:href="../../d7/d82/classdoris_1_1_storage_engine.html#a5aaaf2ab2e6e636e3cc0c874b6f347e7" target="_top" xlink:title=" ">
<polygon fill="white" stroke="#666666" points="473,-244.5 336,-244.5 336,-214.5 473,-214.5 473,-244.5"/>
<text text-anchor="start" x="344" y="-232.5" font-family="Helvetica,sans-Serif" font-size="10.00">doris::StorageEngine</text>
<text text-anchor="middle" x="404.5" y="-221.5" font-family="Helvetica,sans-Serif" font-size="10.00">::_submit_compaction_task</text>
</a>
</g>
</g>
<!-- Node6&#45;&gt;Node7 -->
<g id="edge6" class="edge">
<title>Node6&#45;&gt;Node7</title>
<path fill="none" stroke="#63b8ff" d="M300.45,-229.5C308.3,-229.5 316.38,-229.5 324.4,-229.5"/>
<polygon fill="#63b8ff" stroke="#63b8ff" points="324.15,-233 334.15,-229.5 324.15,-226 324.15,-233"/>
</g>
<!-- Node19 -->
<g id="node19" class="node">
<title>Node19</title>
<g id="a_node19"><a xlink:href="../../d7/d82/classdoris_1_1_storage_engine.html#a473e9bbd11d024f7b90d2f90692134a5" target="_top" xlink:title=" ">
<polygon fill="white" stroke="#666666" points="459.5,-129 349.5,-129 349.5,-88 459.5,-88 459.5,-129"/>
<text text-anchor="start" x="357.5" y="-117" font-family="Helvetica,sans-Serif" font-size="10.00">doris::StorageEngine</text>
<text text-anchor="start" x="357.5" y="-106" font-family="Helvetica,sans-Serif" font-size="10.00">::_update_cumulative</text>
<text text-anchor="middle" x="404.5" y="-95" font-family="Helvetica,sans-Serif" font-size="10.00">_compaction_policy</text>
</a>
</g>
</g>
<!-- Node6&#45;&gt;Node19 -->
<g id="edge22" class="edge">
<title>Node6&#45;&gt;Node19</title>
<path fill="none" stroke="#63b8ff" d="M283.71,-214C289.37,-211.48 294.92,-208.65 300,-205.5 329.99,-186.92 358.83,-158.76 378.41,-137.56"/>
<polygon fill="#63b8ff" stroke="#63b8ff" points="380.82,-140.11 384.94,-130.36 375.63,-135.41 380.82,-140.11"/>
</g>
<!-- Node7&#45;&gt;Node5 -->
<g id="edge11" class="edge">
<title>Node7&#45;&gt;Node5</title>
<path fill="none" stroke="#63b8ff" d="M455.78,-244.9C462.22,-248.55 468.22,-253.02 473,-258.5 512.42,-303.67 465.58,-347.16 509,-388.5 515.97,-395.13 524.83,-399.52 534.1,-402.38"/>
<polygon fill="#63b8ff" stroke="#63b8ff" points="533.06,-405.73 543.61,-404.72 534.74,-398.93 533.06,-405.73"/>
</g>
<!-- Node8 -->
<g id="node8" class="node">
<title>Node8</title>
<g id="a_node8"><a xlink:href="../../d7/d82/classdoris_1_1_storage_engine.html#ac3de8755d19962a330d6cafd27ca8d80" target="_top" xlink:title=" ">
<polygon fill="white" stroke="#666666" points="663,-379 517,-379 517,-338 663,-338 663,-379"/>
<text text-anchor="start" x="525" y="-367" font-family="Helvetica,sans-Serif" font-size="10.00">doris::StorageEngine</text>
<text text-anchor="start" x="525" y="-356" font-family="Helvetica,sans-Serif" font-size="10.00">::_pop_tablet_from_submitted</text>
<text text-anchor="middle" x="590" y="-345" font-family="Helvetica,sans-Serif" font-size="10.00">_compaction</text>
</a>
</g>
</g>
<!-- Node7&#45;&gt;Node8 -->
<g id="edge7" class="edge">
<title>Node7&#45;&gt;Node8</title>
<path fill="none" stroke="#63b8ff" d="M453.11,-244.9C460.3,-248.6 467.23,-253.09 473,-258.5 498.8,-282.71 482.51,-306.05 509,-329.5 509.64,-330.07 510.3,-330.63 510.96,-331.18"/>
<polygon fill="#63b8ff" stroke="#63b8ff" points="508.76,-333.91 518.95,-336.83 512.81,-328.19 508.76,-333.91"/>
</g>
<!-- Node9 -->
<g id="node9" class="node">
<title>Node9</title>
<g id="a_node9"><a xlink:href="../../d7/d82/classdoris_1_1_storage_engine.html#a536d38b95453885ee5eab57ab3b435ee" target="_top" xlink:title=" ">
<polygon fill="white" stroke="#666666" points="663.5,-320 516.5,-320 516.5,-279 663.5,-279 663.5,-320"/>
<text text-anchor="start" x="524.5" y="-308" font-family="Helvetica,sans-Serif" font-size="10.00">doris::StorageEngine</text>
<text text-anchor="start" x="524.5" y="-297" font-family="Helvetica,sans-Serif" font-size="10.00">::_push_tablet_into_submitted</text>
<text text-anchor="middle" x="590" y="-286" font-family="Helvetica,sans-Serif" font-size="10.00">_compaction</text>
</a>
</g>
</g>
<!-- Node7&#45;&gt;Node9 -->
<g id="edge8" class="edge">
<title>Node7&#45;&gt;Node9</title>
<path fill="none" stroke="#63b8ff" d="M443.73,-244.96C463.22,-252.75 487.31,-262.28 509,-270.5 512.63,-271.88 516.36,-273.28 520.13,-274.68"/>
<polygon fill="#63b8ff" stroke="#63b8ff" points="518.8,-277.92 529.39,-278.11 521.23,-271.36 518.8,-277.92"/>
</g>
<!-- Node10 -->
<g id="node10" class="node">
<title>Node10</title>
<g id="a_node10"><a xlink:href="../../d9/d8d/classdoris_1_1_status.html#a6ec1a217f203269ab53d2290d602db24" target="_top" xlink:title=" ">
<polygon fill="white" stroke="#666666" points="636,-261 544,-261 544,-242 636,-242 636,-261"/>
<text text-anchor="middle" x="590" y="-249" font-family="Helvetica,sans-Serif" font-size="10.00">doris::Status::OK</text>
</a>
</g>
</g>
<!-- Node7&#45;&gt;Node10 -->
<g id="edge9" class="edge">
<title>Node7&#45;&gt;Node10</title>
<path fill="none" stroke="#63b8ff" d="M473.31,-237.63C492.75,-239.96 513.74,-242.48 532.43,-244.72"/>
<polygon fill="#63b8ff" stroke="#63b8ff" points="531.89,-248.18 542.24,-245.89 532.73,-241.23 531.89,-248.18"/>
</g>
<!-- Node12 -->
<g id="node12" class="node">
<title>Node12</title>
<g id="a_node12"><a xlink:href="../../d5/df6/classdoris_1_1_compaction_permit_limiter.html#ab3dc31aa46758d78dcae372b8d4f3af5" target="_top" xlink:title=" ">
<polygon fill="white" stroke="#666666" points="667,-223.5 513,-223.5 513,-193.5 667,-193.5 667,-223.5"/>
<text text-anchor="start" x="521" y="-211.5" font-family="Helvetica,sans-Serif" font-size="10.00">doris::CompactionPermitLimiter</text>
<text text-anchor="middle" x="590" y="-200.5" font-family="Helvetica,sans-Serif" font-size="10.00">::release</text>
</a>
</g>
</g>
<!-- Node7&#45;&gt;Node12 -->
<g id="edge12" class="edge">
<title>Node7&#45;&gt;Node12</title>
<path fill="none" stroke="#63b8ff" d="M473.31,-221.74C482.38,-220.7 491.79,-219.62 501.14,-218.55"/>
<polygon fill="#63b8ff" stroke="#63b8ff" points="501.46,-222.04 511,-217.43 500.66,-215.09 501.46,-222.04"/>
</g>
<!-- Node16 -->
<g id="node16" class="node">
<title>Node16</title>
<g id="a_node16"><a xlink:href="../../d5/df6/classdoris_1_1_compaction_permit_limiter.html#ad5a1b5ebb8f494e20c778518f12edaf3" target="_top" xlink:title=" ">
<polygon fill="white" stroke="#666666" points="667,-175.5 513,-175.5 513,-145.5 667,-145.5 667,-175.5"/>
<text text-anchor="start" x="521" y="-163.5" font-family="Helvetica,sans-Serif" font-size="10.00">doris::CompactionPermitLimiter</text>
<text text-anchor="middle" x="590" y="-152.5" font-family="Helvetica,sans-Serif" font-size="10.00">::request</text>
</a>
</g>
</g>
<!-- Node7&#45;&gt;Node16 -->
<g id="edge17" class="edge">
<title>Node7&#45;&gt;Node16</title>
<path fill="none" stroke="#63b8ff" d="M438.19,-214.1C458.36,-204.9 484.9,-193.32 509,-184.5 513.72,-182.77 518.64,-181.07 523.6,-179.42"/>
<polygon fill="#63b8ff" stroke="#63b8ff" points="524.61,-182.77 533.05,-176.37 522.46,-176.11 524.61,-182.77"/>
</g>
<!-- Node17 -->
<g id="node17" class="node">
<title>Node17</title>
<g id="a_node17"><a xlink:href="../../d9/d8d/classdoris_1_1_status.html#aac993ecccd3d88aafefb6b8e3caa1dee" target="_top" xlink:title=" ">
<polygon fill="white" stroke="#666666" points="648,-127 532,-127 532,-108 648,-108 648,-127"/>
<text text-anchor="middle" x="590" y="-115" font-family="Helvetica,sans-Serif" font-size="10.00">doris::Status::to_string</text>
</a>
</g>
</g>
<!-- Node7&#45;&gt;Node17 -->
<g id="edge20" class="edge">
<title>Node7&#45;&gt;Node17</title>
<path fill="none" stroke="#63b8ff" d="M418.17,-214.07C436.15,-193.2 471.13,-156.34 509,-136.5 512.87,-134.47 516.96,-132.66 521.16,-131.03"/>
<polygon fill="#63b8ff" stroke="#63b8ff" points="522.03,-134.44 530.34,-127.87 519.75,-127.82 522.03,-134.44"/>
</g>
<!-- Node18 -->
<g id="node18" class="node">
<title>Node18</title>
<g id="a_node18"><a xlink:href="../../d5/df6/classdoris_1_1_compaction_permit_limiter.html#ae0db9f499eb0f5d2f965f563be4d369a" target="_top" xlink:title=" ">
<polygon fill="white" stroke="#666666" points="667,-89.5 513,-89.5 513,-59.5 667,-59.5 667,-89.5"/>
<text text-anchor="start" x="521" y="-77.5" font-family="Helvetica,sans-Serif" font-size="10.00">doris::CompactionPermitLimiter</text>
<text text-anchor="middle" x="590" y="-66.5" font-family="Helvetica,sans-Serif" font-size="10.00">::usage</text>
</a>
</g>
</g>
<!-- Node7&#45;&gt;Node18 -->
<g id="edge21" class="edge">
<title>Node7&#45;&gt;Node18</title>
<path fill="none" stroke="#63b8ff" d="M416.85,-214.24C441.19,-181.67 497.16,-107.61 509,-99.5 511.36,-97.88 513.84,-96.36 516.39,-94.94"/>
<polygon fill="#63b8ff" stroke="#63b8ff" points="517.79,-98.15 525.2,-90.58 514.68,-91.88 517.79,-98.15"/>
</g>
<!-- Node11 -->
<g id="node11" class="node">
<title>Node11</title>
<g id="a_node11"><a xlink:href="../../d9/d8d/classdoris_1_1_status.html#aafde58df1b2a6a91d5b674373be3ffc5" target="_top" xlink:title=" ">
<polygon fill="white" stroke="#666666" points="814,-279 707,-279 707,-260 814,-260 814,-279"/>
<text text-anchor="middle" x="760.5" y="-267" font-family="Helvetica,sans-Serif" font-size="10.00">doris::Status::Status</text>
</a>
</g>
</g>
<!-- Node10&#45;&gt;Node11 -->
<g id="edge10" class="edge">
<title>Node10&#45;&gt;Node11</title>
<path fill="none" stroke="#63b8ff" d="M636.15,-256.32C654.33,-258.26 675.62,-260.54 695.35,-262.65"/>
<polygon fill="#63b8ff" stroke="#63b8ff" points="694.93,-266.12 705.24,-263.7 695.67,-259.16 694.93,-266.12"/>
</g>
<!-- Node13 -->
<g id="node13" class="node">
<title>Node13</title>
<g id="a_node13"><a xlink:href="../../d3/d7b/classdoris_1_1_doris_metrics.html#a4d0ce88513091aec833045b4eddeee8b" target="_top" xlink:title=" ">
<polygon fill="white" stroke="#666666" points="810,-223.5 711,-223.5 711,-193.5 810,-193.5 810,-223.5"/>
<text text-anchor="start" x="719" y="-211.5" font-family="Helvetica,sans-Serif" font-size="10.00">doris::DorisMetrics</text>
<text text-anchor="middle" x="760.5" y="-200.5" font-family="Helvetica,sans-Serif" font-size="10.00">::instance</text>
</a>
</g>
</g>
<!-- Node12&#45;&gt;Node13 -->
<g id="edge13" class="edge">
<title>Node12&#45;&gt;Node13</title>
<path fill="none" stroke="#63b8ff" d="M667.36,-208.5C678.12,-208.5 689.05,-208.5 699.44,-208.5"/>
<polygon fill="#63b8ff" stroke="#63b8ff" points="699.39,-212 709.39,-208.5 699.39,-205 699.39,-212"/>
</g>
<!-- Node14 -->
<g id="node14" class="node">
<title>Node14</title>
<g id="a_node14"><a xlink:href="../../db/de2/classdoris_1_1_atomic_metric.html#aaec56faa8dfb1f0834da74de68cfbeed" target="_top" xlink:title=" ">
<polygon fill="white" stroke="#666666" points="811,-175.5 710,-175.5 710,-145.5 811,-145.5 811,-175.5"/>
<text text-anchor="start" x="718" y="-163.5" font-family="Helvetica,sans-Serif" font-size="10.00">doris::AtomicMetric</text>
<text text-anchor="middle" x="760.5" y="-152.5" font-family="Helvetica,sans-Serif" font-size="10.00">::set_value</text>
</a>
</g>
</g>
<!-- Node12&#45;&gt;Node14 -->
<g id="edge15" class="edge">
<title>Node12&#45;&gt;Node14</title>
<path fill="none" stroke="#63b8ff" d="M645.24,-193.05C662.37,-188.17 681.4,-182.75 698.95,-177.75"/>
<polygon fill="#63b8ff" stroke="#63b8ff" points="699.53,-181.22 708.19,-175.12 697.61,-174.49 699.53,-181.22"/>
</g>
<!-- Node13&#45;&gt;Node13 -->
<g id="edge14" class="edge">
<title>Node13&#45;&gt;Node13</title>
<path fill="none" stroke="#63b8ff" d="M735.89,-223.78C730.42,-232.91 738.62,-241.5 760.5,-241.5 772.46,-241.5 780.34,-238.93 784.12,-235.11"/>
<polygon fill="#63b8ff" stroke="#63b8ff" points="787.6,-235.55 784.98,-225.28 780.62,-234.94 787.6,-235.55"/>
</g>
<!-- Node15 -->
<g id="node15" class="node">
<title>Node15</title>
<g id="a_node15"><a xlink:href="../../db/de2/classdoris_1_1_atomic_metric.html#abcb6b42a914ed14eff8c75f623ca692a" target="_top" xlink:title=" ">
<polygon fill="white" stroke="#666666" points="951,-175.5 850,-175.5 850,-145.5 951,-145.5 951,-175.5"/>
<text text-anchor="start" x="858" y="-163.5" font-family="Helvetica,sans-Serif" font-size="10.00">doris::AtomicMetric</text>
<text text-anchor="middle" x="900.5" y="-152.5" font-family="Helvetica,sans-Serif" font-size="10.00">::value</text>
</a>
</g>
</g>
<!-- Node14&#45;&gt;Node15 -->
<g id="edge16" class="edge">
<title>Node14&#45;&gt;Node15</title>
<path fill="none" stroke="#63b8ff" d="M811.32,-160.5C820.12,-160.5 829.36,-160.5 838.42,-160.5"/>
<polygon fill="#63b8ff" stroke="#63b8ff" points="838.24,-164 848.24,-160.5 838.24,-157 838.24,-164"/>
</g>
<!-- Node16&#45;&gt;Node13 -->
<g id="edge18" class="edge">
<title>Node16&#45;&gt;Node13</title>
<path fill="none" stroke="#63b8ff" d="M645.24,-175.95C662.69,-180.92 682.11,-186.46 699.92,-191.53"/>
<polygon fill="#63b8ff" stroke="#63b8ff" points="698.74,-194.83 709.32,-194.2 700.66,-188.1 698.74,-194.83"/>
</g>
<!-- Node16&#45;&gt;Node14 -->
<g id="edge19" class="edge">
<title>Node16&#45;&gt;Node14</title>
<path fill="none" stroke="#63b8ff" d="M667.36,-160.5C677.86,-160.5 688.53,-160.5 698.7,-160.5"/>
<polygon fill="#63b8ff" stroke="#63b8ff" points="698.43,-164 708.43,-160.5 698.43,-157 698.43,-164"/>
</g>
<!-- Node20 -->
<g id="node20" class="node">
<title>Node20</title>
<g id="a_node20"><a xlink:href="../../d7/d0f/classdoris_1_1_cumulative_compaction_policy_factory.html#afa0a72f30456b873d4b9f9cd34d7d730" target="_top" xlink:title=" ">
<polygon fill="white" stroke="#666666" points="671,-41 509,-41 509,0 671,0 671,-41"/>
<text text-anchor="start" x="517" y="-29" font-family="Helvetica,sans-Serif" font-size="10.00">doris::CumulativeCompaction</text>
<text text-anchor="start" x="517" y="-18" font-family="Helvetica,sans-Serif" font-size="10.00">PolicyFactory::create_cumulative</text>
<text text-anchor="middle" x="590" y="-7" font-family="Helvetica,sans-Serif" font-size="10.00">_compaction_policy</text>
</a>
</g>
</g>
<!-- Node19&#45;&gt;Node20 -->
<g id="edge23" class="edge">
<title>Node19&#45;&gt;Node20</title>
<path fill="none" stroke="#63b8ff" d="M439.78,-87.55C459.62,-75.88 485.27,-61.52 509,-50.5 512.47,-48.89 516.05,-47.3 519.69,-45.74"/>
<polygon fill="#63b8ff" stroke="#63b8ff" points="520.74,-49.09 528.63,-42.03 518.05,-42.63 520.74,-49.09"/>
</g>
</g>
</svg>
        <g id="navigator" transform="translate(0 0)" fill="#404254">
                <rect fill="#f2f5e9" fill-opacity="0.5" stroke="#606060" stroke-width=".5" x="0" y="0" width="60" height="60"/>
                <use id="zoomplus" xlink:href="#zoomPlus" x="17" y="9" onmousedown="handleZoom(evt,'in')"/>
                <use id="zoomminus" xlink:href="#zoomMin" x="42" y="9" onmousedown="handleZoom(evt,'out')"/>
                <use id="reset" xlink:href="#resetDef" x="30" y="36" onmousedown="handleReset()"/>
                <g id="arrowUp" xlink:href="#dirArrow" transform="translate(30 24)" onmousedown="handlePan(0,-1)">
                  <use xlink:href="#rim" fill="#404040">
                        <set attributeName="fill" to="#808080" begin="arrowUp.mouseover" end="arrowUp.mouseout"/>
                  </use>
                  <path fill="none" stroke="white" stroke-width="1.5" d="M0,-3.0v7 M-2.5,-0.5L0,-3.0L2.5,-0.5"/>
                </g>
                <g id="arrowRight" xlink:href="#dirArrow" transform="rotate(90) translate(36 -43)" onmousedown="handlePan(1,0)">
                  <use xlink:href="#rim" fill="#404040">
                        <set attributeName="fill" to="#808080" begin="arrowRight.mouseover" end="arrowRight.mouseout"/>
                  </use>
                  <path fill="none" stroke="white" stroke-width="1.5" d="M0,-3.0v7 M-2.5,-0.5L0,-3.0L2.5,-0.5"/>
                </g>
                <g id="arrowDown" xlink:href="#dirArrow" transform="rotate(180) translate(-30 -48)" onmousedown="handlePan(0,1)">
                  <use xlink:href="#rim" fill="#404040">
                        <set attributeName="fill" to="#808080" begin="arrowDown.mouseover" end="arrowDown.mouseout"/>
                  </use>
                  <path fill="none" stroke="white" stroke-width="1.5" d="M0,-3.0v7 M-2.5,-0.5L0,-3.0L2.5,-0.5"/>
                </g>
                <g id="arrowLeft" xlink:href="#dirArrow" transform="rotate(270) translate(-36 17)" onmousedown="handlePan(-1,0)">
                  <use xlink:href="#rim" fill="#404040">
                        <set attributeName="fill" to="#808080" begin="arrowLeft.mouseover" end="arrowLeft.mouseout"/>
                  </use>
                  <path fill="none" stroke="white" stroke-width="1.5" d="M0,-3.0v7 M-2.5,-0.5L0,-3.0L2.5,-0.5"/>
                </g>
        </g>
        <svg viewBox="0 0 15 15" width="100%" height="30px" preserveAspectRatio="xMaxYMin meet">
         <g id="arrow_out" transform="scale(0.3 0.3)">
          <a xlink:href="classdoris_1_1_task_worker_pool_abfd036f7141644ce532780a554cf15a8_cgraph_org.svg" target="_base">
           <rect id="button" ry="5" rx="5" y="6" x="6" height="38" width="38"
                fill="#f2f5e9" fill-opacity="0.5" stroke="#606060" stroke-width="1.0"/>
           <path id="arrow"
             d="M 11.500037,31.436501 C 11.940474,20.09759 22.043105,11.32322 32.158766,21.979434 L 37.068811,17.246167 C 37.068811,17.246167 37.088388,32 37.088388,32 L 22.160133,31.978069 C 22.160133,31.978069 26.997745,27.140456 26.997745,27.140456 C 18.528582,18.264221 13.291696,25.230495 11.500037,31.436501 z"
             style="fill:#404040;"/>
          </a>
         </g>
        </svg>
</svg>
