<?xml version="1.0" encoding="UTF-8" standalone="no"?>
<!DOCTYPE svg PUBLIC "-//W3C//DTD SVG 1.1//EN"
 "http://www.w3.org/Graphics/SVG/1.1/DTD/svg11.dtd">
<!-- Generated by graphviz version 7.1.0 (20230121.1956)
 -->
<!-- Title: PushBack Pages: 1 -->
<!--zoomable 280 -->
<svg id="main" version="1.1" xmlns="http://www.w3.org/2000/svg" xmlns:xlink="http://www.w3.org/1999/xlink" xml:space="preserve" onload="init(evt)">
<style type="text/css"><![CDATA[
.edge:hover path { stroke: red; }
.edge:hover polygon { stroke: red; fill: red; }
]]></style>
<script type="text/javascript"><![CDATA[
var edges = document.getElementsByTagName('g');
if (edges && edges.length) {
  for (var i=0;i<edges.length;i++) {
    if (edges[i].id.substr(0,4)=='edge') {
      edges[i].setAttribute('class','edge');
    }
  }
}
]]></script>
        <defs>
                <circle id="rim" cx="0" cy="0" r="7"/>
                <circle id="rim2" cx="0" cy="0" r="3.5"/>
                <g id="zoomPlus">
                        <use xlink:href="#rim" fill="#404040">
                                <set attributeName="fill" to="#808080" begin="zoomplus.mouseover" end="zoomplus.mouseout"/>
                        </use>
                        <path d="M-4,0h8M0,-4v8" fill="none" stroke="white" stroke-width="1.5" pointer-events="none"/>
                </g>
                <g id="zoomMin">
                        <use xlink:href="#rim" fill="#404040">
                                <set attributeName="fill" to="#808080" begin="zoomminus.mouseover" end="zoomminus.mouseout"/>
                        </use>
                        <path d="M-4,0h8" fill="none" stroke="white" stroke-width="1.5" pointer-events="none"/>
                </g>
                <g id="dirArrow">
                        <path fill="none" stroke="white" stroke-width="1.5" d="M0,-3.0v7 M-2.5,-0.5L0,-3.0L2.5,-0.5"/>
                </g>
               <g id="resetDef">
                       <use xlink:href="#rim2" fill="#404040">
                               <set attributeName="fill" to="#808080" begin="reset.mouseover" end="reset.mouseout"/>
                       </use>
               </g>
        </defs>

<script type="text/javascript">
var viewWidth = 900;
var viewHeight = 280;
var sectionId = 'dynsection-7';
</script>
<script xlink:href="../../svgpan.js"/>
<svg id="graph" class="graph">
<g id="viewport">
<title>PushBack</title>
<!-- Node1 -->
<g id="node1" class="node">
<title>Node1</title>
<g id="a_node1"><a xlink:title=" ">
<polygon fill="#999999" stroke="#666666" points="892,-141.5 830,-141.5 830,-122.5 892,-122.5 892,-141.5"/>
<text text-anchor="middle" x="861" y="-129.5" font-family="Helvetica,sans-Serif" font-size="10.00">PushBack</text>
</a>
</g>
</g>
<!-- Node2 -->
<g id="node2" class="node">
<title>Node2</title>
<g id="a_node2"><a xlink:href="../../d5/dc0/classdoris_1_1_thread_mgr.html#a5a31a75a710e1d3badb5329543bada70" target="_top" xlink:title=" ">
<polygon fill="white" stroke="#666666" points="607,-126 480,-126 480,-96 607,-96 607,-126"/>
<text text-anchor="start" x="488" y="-114" font-family="Helvetica,sans-Serif" font-size="10.00">doris::ThreadMgr::display</text>
<text text-anchor="middle" x="543.5" y="-103" font-family="Helvetica,sans-Serif" font-size="10.00">_thread_callback</text>
</a>
</g>
</g>
<!-- Node1&#45;&gt;Node2 -->
<g id="edge1" class="edge">
<title>Node1&#45;&gt;Node2</title>
<path fill="none" stroke="#63b8ff" d="M818.3,-134.18C810.24,-134.52 801.86,-134.82 794,-135 726.91,-136.52 709.63,-143 643,-135 628.23,-133.23 612.48,-130.01 598.01,-126.49"/>
<polygon fill="#63b8ff" stroke="#63b8ff" points="818.44,-137.68 828.27,-133.73 818.12,-130.69 818.44,-137.68"/>
</g>
<!-- Node7 -->
<g id="node7" class="node">
<title>Node7</title>
<g id="a_node7"><a xlink:href="../../de/d20/classdoris_1_1_tablets_distribution_action.html#af9b0eb94c0d2157379476ca681294168" target="_top" xlink:title=" ">
<polygon fill="white" stroke="#666666" points="794,-271.5 643,-271.5 643,-230.5 794,-230.5 794,-271.5"/>
<text text-anchor="start" x="651" y="-259.5" font-family="Helvetica,sans-Serif" font-size="10.00">doris::TabletsDistribution</text>
<text text-anchor="start" x="651" y="-248.5" font-family="Helvetica,sans-Serif" font-size="10.00">Action::get_tablets_distribution</text>
<text text-anchor="middle" x="718.5" y="-237.5" font-family="Helvetica,sans-Serif" font-size="10.00">_group_by_partition</text>
</a>
</g>
</g>
<!-- Node1&#45;&gt;Node7 -->
<g id="edge6" class="edge">
<title>Node1&#45;&gt;Node7</title>
<path fill="none" stroke="#63b8ff" d="M849.64,-151.79C838.33,-171.69 818.53,-202.05 794,-221 789.7,-224.32 784.98,-227.33 780.06,-230.04"/>
<polygon fill="#63b8ff" stroke="#63b8ff" points="852.56,-153.74 854.29,-143.28 846.42,-150.38 852.56,-153.74"/>
</g>
<!-- Node9 -->
<g id="node9" class="node">
<title>Node9</title>
<g id="a_node9"><a xlink:href="../../d6/d83/classdoris_1_1_tablets_info_action.html#a39f80c59a6afaf62948cedec947eeb59" target="_top" xlink:title=" ">
<polygon fill="white" stroke="#666666" points="778,-212 659,-212 659,-182 778,-182 778,-212"/>
<text text-anchor="start" x="667" y="-200" font-family="Helvetica,sans-Serif" font-size="10.00">doris::TabletsInfoAction</text>
<text text-anchor="middle" x="718.5" y="-189" font-family="Helvetica,sans-Serif" font-size="10.00">::get_tablets_info</text>
</a>
</g>
</g>
<!-- Node1&#45;&gt;Node9 -->
<g id="edge8" class="edge">
<title>Node1&#45;&gt;Node9</title>
<path fill="none" stroke="#63b8ff" d="M833.47,-147.48C821.58,-154.15 807.27,-161.83 794,-168 783.81,-172.74 772.6,-177.38 762.05,-181.52"/>
<polygon fill="#63b8ff" stroke="#63b8ff" points="834.94,-150.67 841.9,-142.68 831.48,-144.59 834.94,-150.67"/>
</g>
<!-- Node12 -->
<g id="node12" class="node">
<title>Node12</title>
<g id="a_node12"><a xlink:href="../../d9/d22/classdoris_1_1_check_tablet_segment_action.html#ac19cf1dfbfc14c0169018218471fd806" target="_top" xlink:title=" ">
<polygon fill="white" stroke="#666666" points="787,-126 650,-126 650,-96 787,-96 787,-126"/>
<text text-anchor="start" x="658" y="-114" font-family="Helvetica,sans-Serif" font-size="10.00">doris::CheckTabletSegment</text>
<text text-anchor="middle" x="718.5" y="-103" font-family="Helvetica,sans-Serif" font-size="10.00">Action::handle</text>
</a>
</g>
</g>
<!-- Node1&#45;&gt;Node12 -->
<g id="edge12" class="edge">
<title>Node1&#45;&gt;Node12</title>
<path fill="none" stroke="#63b8ff" d="M818.18,-125.75C808.48,-124.3 797.91,-122.72 787.41,-121.15"/>
<polygon fill="#63b8ff" stroke="#63b8ff" points="817.61,-129.2 828.02,-127.22 818.64,-122.28 817.61,-129.2"/>
</g>
<!-- Node13 -->
<g id="node13" class="node">
<title>Node13</title>
<g id="a_node13"><a xlink:href="../../d3/d10/classdoris_1_1_web_page_handler.html#ab5cfb0fa2e1923b93a56856211bfbec8" target="_top" xlink:title=" ">
<polygon fill="white" stroke="#666666" points="778,-30 659,-30 659,0 778,0 778,-30"/>
<text text-anchor="start" x="667" y="-18" font-family="Helvetica,sans-Serif" font-size="10.00">doris::WebPageHandler</text>
<text text-anchor="middle" x="718.5" y="-7" font-family="Helvetica,sans-Serif" font-size="10.00">::render_main_template</text>
</a>
</g>
</g>
<!-- Node1&#45;&gt;Node13 -->
<g id="edge13" class="edge">
<title>Node1&#45;&gt;Node13</title>
<path fill="none" stroke="#63b8ff" d="M850.79,-112.21C840.01,-91.14 820.26,-58.25 794,-39 789.18,-35.46 783.81,-32.44 778.23,-29.84"/>
<polygon fill="#63b8ff" stroke="#63b8ff" points="847.51,-113.47 855.05,-120.91 853.8,-110.39 847.51,-113.47"/>
</g>
<!-- Node15 -->
<g id="node15" class="node">
<title>Node15</title>
<g id="a_node15"><a xlink:href="../../d5/dc0/classdoris_1_1_thread_mgr.html#ac0a23bc481f2998fffac0628fc8e4e50" target="_top" xlink:title=" ">
<polygon fill="white" stroke="#666666" points="790.5,-78 646.5,-78 646.5,-48 790.5,-48 790.5,-78"/>
<text text-anchor="start" x="654.5" y="-66" font-family="Helvetica,sans-Serif" font-size="10.00">doris::ThreadMgr::summarize</text>
<text text-anchor="middle" x="718.5" y="-55" font-family="Helvetica,sans-Serif" font-size="10.00">_thread_descriptor</text>
</a>
</g>
</g>
<!-- Node1&#45;&gt;Node15 -->
<g id="edge15" class="edge">
<title>Node1&#45;&gt;Node15</title>
<path fill="none" stroke="#63b8ff" d="M838.91,-115.31C826.4,-106.02 809.92,-94.79 794,-87 787.53,-83.83 780.55,-80.95 773.54,-78.37"/>
<polygon fill="#63b8ff" stroke="#63b8ff" points="836.72,-118.05 846.8,-121.33 840.97,-112.48 836.72,-118.05"/>
</g>
<!-- Node3 -->
<g id="node3" class="node">
<title>Node3</title>
<g id="a_node3"><a xlink:href="../../d6/d94/namespacedoris.html#ae883899878e5829bac7c4b37cd27c956" target="_top" xlink:title=" ">
<polygon fill="white" stroke="#666666" points="443.5,-147 335.5,-147 335.5,-117 443.5,-117 443.5,-147"/>
<text text-anchor="start" x="343.5" y="-135" font-family="Helvetica,sans-Serif" font-size="10.00">doris::register_thread</text>
<text text-anchor="middle" x="389.5" y="-124" font-family="Helvetica,sans-Serif" font-size="10.00">_display_page</text>
</a>
</g>
</g>
<!-- Node2&#45;&gt;Node3 -->
<g id="edge2" class="edge">
<title>Node2&#45;&gt;Node3</title>
<path fill="none" stroke="#63b8ff" d="M468.51,-121.22C460.19,-122.37 451.84,-123.53 443.85,-124.63"/>
<polygon fill="#63b8ff" stroke="#63b8ff" points="468.87,-124.71 478.3,-119.87 467.91,-117.77 468.87,-124.71"/>
</g>
<!-- Node4 -->
<g id="node4" class="node">
<title>Node4</title>
<g id="a_node4"><a xlink:href="../../d6/d94/namespacedoris.html#aa513e3622fb9d7855867389ccb866907" target="_top" xlink:title=" ">
<polygon fill="white" stroke="#666666" points="299,-171 205,-171 205,-141 299,-141 299,-171"/>
<text text-anchor="start" x="213" y="-159" font-family="Helvetica,sans-Serif" font-size="10.00">doris::add_default</text>
<text text-anchor="middle" x="252" y="-148" font-family="Helvetica,sans-Serif" font-size="10.00">_path_handlers</text>
</a>
</g>
</g>
<!-- Node3&#45;&gt;Node4 -->
<g id="edge3" class="edge">
<title>Node3&#45;&gt;Node4</title>
<path fill="none" stroke="#63b8ff" d="M324.08,-143.41C315.76,-144.88 307.37,-146.37 299.42,-147.78"/>
<polygon fill="#63b8ff" stroke="#63b8ff" points="324.61,-146.87 333.85,-141.68 323.39,-139.98 324.61,-146.87"/>
</g>
<!-- Node5 -->
<g id="node5" class="node">
<title>Node5</title>
<g id="a_node5"><a xlink:href="../../d7/db0/classdoris_1_1_http_service.html#a1ece7b40dc52b67186533a0ec4dadc49" target="_top" xlink:title=" ">
<polygon fill="white" stroke="#666666" points="169,-171 74,-171 74,-141 169,-141 169,-171"/>
<text text-anchor="start" x="82" y="-159" font-family="Helvetica,sans-Serif" font-size="10.00">doris::HttpService</text>
<text text-anchor="middle" x="121.5" y="-148" font-family="Helvetica,sans-Serif" font-size="10.00">::start</text>
</a>
</g>
</g>
<!-- Node4&#45;&gt;Node5 -->
<g id="edge4" class="edge">
<title>Node4&#45;&gt;Node5</title>
<path fill="none" stroke="#63b8ff" d="M193.35,-156C185.29,-156 177.08,-156 169.25,-156"/>
<polygon fill="#63b8ff" stroke="#63b8ff" points="193.1,-159.5 203.1,-156 193.09,-152.5 193.1,-159.5"/>
</g>
<!-- Node6 -->
<g id="node6" class="node">
<title>Node6</title>
<g id="a_node6"><a xlink:href="../../d7/dcc/doris__main_8cpp.html#a3c04138a5bfe5d72780bb7e82a18e627" target="_top" xlink:title=" ">
<polygon fill="white" stroke="#666666" points="38,-165.5 0,-165.5 0,-146.5 38,-146.5 38,-165.5"/>
<text text-anchor="middle" x="19" y="-153.5" font-family="Helvetica,sans-Serif" font-size="10.00">main</text>
</a>
</g>
</g>
<!-- Node5&#45;&gt;Node6 -->
<g id="edge5" class="edge">
<title>Node5&#45;&gt;Node6</title>
<path fill="none" stroke="#63b8ff" d="M62.35,-156C53.74,-156 45.43,-156 38.5,-156"/>
<polygon fill="#63b8ff" stroke="#63b8ff" points="62.27,-159.5 72.27,-156 62.27,-152.5 62.27,-159.5"/>
</g>
<!-- Node8 -->
<g id="node8" class="node">
<title>Node8</title>
<g id="a_node8"><a xlink:href="../../de/d20/classdoris_1_1_tablets_distribution_action.html#ac19cf1dfbfc14c0169018218471fd806" target="_top" xlink:title=" ">
<polygon fill="white" stroke="#666666" points="606,-266 481,-266 481,-236 606,-236 606,-266"/>
<text text-anchor="start" x="489" y="-254" font-family="Helvetica,sans-Serif" font-size="10.00">doris::TabletsDistribution</text>
<text text-anchor="middle" x="543.5" y="-243" font-family="Helvetica,sans-Serif" font-size="10.00">Action::handle</text>
</a>
</g>
</g>
<!-- Node7&#45;&gt;Node8 -->
<g id="edge7" class="edge">
<title>Node7&#45;&gt;Node8</title>
<path fill="none" stroke="#63b8ff" d="M631.18,-251C622.76,-251 614.34,-251 606.24,-251"/>
<polygon fill="#63b8ff" stroke="#63b8ff" points="631.11,-254.5 641.11,-251 631.11,-247.5 631.11,-254.5"/>
</g>
<!-- Node10 -->
<g id="node10" class="node">
<title>Node10</title>
<g id="a_node10"><a xlink:href="../../d6/d94/namespacedoris.html#a6b09a550d96a22f046c56a7221a1d29b" target="_top" xlink:title=" ">
<polygon fill="white" stroke="#666666" points="444,-206 335,-206 335,-176 444,-176 444,-206"/>
<text text-anchor="start" x="343" y="-194" font-family="Helvetica,sans-Serif" font-size="10.00">doris::display_tablets</text>
<text text-anchor="middle" x="389.5" y="-183" font-family="Helvetica,sans-Serif" font-size="10.00">_callback</text>
</a>
</g>
</g>
<!-- Node9&#45;&gt;Node10 -->
<g id="edge9" class="edge">
<title>Node9&#45;&gt;Node10</title>
<path fill="none" stroke="#63b8ff" d="M647.24,-195.71C586.4,-194.59 499.7,-193 444.26,-191.99"/>
<polygon fill="#63b8ff" stroke="#63b8ff" points="647.09,-199.21 657.15,-195.89 647.21,-192.21 647.09,-199.21"/>
</g>
<!-- Node11 -->
<g id="node11" class="node">
<title>Node11</title>
<g id="a_node11"><a xlink:href="../../d6/d83/classdoris_1_1_tablets_info_action.html#ac19cf1dfbfc14c0169018218471fd806" target="_top" xlink:title=" ">
<polygon fill="white" stroke="#666666" points="603,-174 484,-174 484,-144 603,-144 603,-174"/>
<text text-anchor="start" x="492" y="-162" font-family="Helvetica,sans-Serif" font-size="10.00">doris::TabletsInfoAction</text>
<text text-anchor="middle" x="543.5" y="-151" font-family="Helvetica,sans-Serif" font-size="10.00">::handle</text>
</a>
</g>
</g>
<!-- Node9&#45;&gt;Node11 -->
<g id="edge11" class="edge">
<title>Node9&#45;&gt;Node11</title>
<path fill="none" stroke="#63b8ff" d="M647.81,-181.69C633.05,-178.45 617.61,-175.06 603.3,-171.92"/>
<polygon fill="#63b8ff" stroke="#63b8ff" points="646.93,-185.08 657.45,-183.81 648.44,-178.25 646.93,-185.08"/>
</g>
<!-- Node10&#45;&gt;Node4 -->
<g id="edge10" class="edge">
<title>Node10&#45;&gt;Node4</title>
<path fill="none" stroke="#63b8ff" d="M323.5,-174.21C315.34,-172.1 307.12,-169.98 299.33,-167.97"/>
<polygon fill="#63b8ff" stroke="#63b8ff" points="322.53,-177.58 333.09,-176.69 324.29,-170.8 322.53,-177.58"/>
</g>
<!-- Node14 -->
<g id="node14" class="node">
<title>Node14</title>
<g id="a_node14"><a xlink:href="../../d3/d10/classdoris_1_1_web_page_handler.html#ac19cf1dfbfc14c0169018218471fd806" target="_top" xlink:title=" ">
<polygon fill="white" stroke="#666666" points="603,-30 484,-30 484,0 603,0 603,-30"/>
<text text-anchor="start" x="492" y="-18" font-family="Helvetica,sans-Serif" font-size="10.00">doris::WebPageHandler</text>
<text text-anchor="middle" x="543.5" y="-7" font-family="Helvetica,sans-Serif" font-size="10.00">::handle</text>
</a>
</g>
</g>
<!-- Node13&#45;&gt;Node14 -->
<g id="edge14" class="edge">
<title>Node13&#45;&gt;Node14</title>
<path fill="none" stroke="#63b8ff" d="M647.81,-15C633.05,-15 617.61,-15 603.3,-15"/>
<polygon fill="#63b8ff" stroke="#63b8ff" points="647.42,-18.5 657.42,-15 647.42,-11.5 647.42,-18.5"/>
</g>
<!-- Node15&#45;&gt;Node2 -->
<g id="edge16" class="edge">
<title>Node15&#45;&gt;Node2</title>
<path fill="none" stroke="#63b8ff" d="M650.95,-81.46C634.15,-86.13 616.28,-91.08 600.09,-95.58"/>
<polygon fill="#63b8ff" stroke="#63b8ff" points="651.65,-84.9 660.35,-78.86 649.78,-78.16 651.65,-84.9"/>
</g>
</g>
</svg>
        <g id="navigator" transform="translate(0 0)" fill="#404254">
                <rect fill="#f2f5e9" fill-opacity="0.5" stroke="#606060" stroke-width=".5" x="0" y="0" width="60" height="60"/>
                <use id="zoomplus" xlink:href="#zoomPlus" x="17" y="9" onmousedown="handleZoom(evt,'in')"/>
                <use id="zoomminus" xlink:href="#zoomMin" x="42" y="9" onmousedown="handleZoom(evt,'out')"/>
                <use id="reset" xlink:href="#resetDef" x="30" y="36" onmousedown="handleReset()"/>
                <g id="arrowUp" xlink:href="#dirArrow" transform="translate(30 24)" onmousedown="handlePan(0,-1)">
                  <use xlink:href="#rim" fill="#404040">
                        <set attributeName="fill" to="#808080" begin="arrowUp.mouseover" end="arrowUp.mouseout"/>
                  </use>
                  <path fill="none" stroke="white" stroke-width="1.5" d="M0,-3.0v7 M-2.5,-0.5L0,-3.0L2.5,-0.5"/>
                </g>
                <g id="arrowRight" xlink:href="#dirArrow" transform="rotate(90) translate(36 -43)" onmousedown="handlePan(1,0)">
                  <use xlink:href="#rim" fill="#404040">
                        <set attributeName="fill" to="#808080" begin="arrowRight.mouseover" end="arrowRight.mouseout"/>
                  </use>
                  <path fill="none" stroke="white" stroke-width="1.5" d="M0,-3.0v7 M-2.5,-0.5L0,-3.0L2.5,-0.5"/>
                </g>
                <g id="arrowDown" xlink:href="#dirArrow" transform="rotate(180) translate(-30 -48)" onmousedown="handlePan(0,1)">
                  <use xlink:href="#rim" fill="#404040">
                        <set attributeName="fill" to="#808080" begin="arrowDown.mouseover" end="arrowDown.mouseout"/>
                  </use>
                  <path fill="none" stroke="white" stroke-width="1.5" d="M0,-3.0v7 M-2.5,-0.5L0,-3.0L2.5,-0.5"/>
                </g>
                <g id="arrowLeft" xlink:href="#dirArrow" transform="rotate(270) translate(-36 17)" onmousedown="handlePan(-1,0)">
                  <use xlink:href="#rim" fill="#404040">
                        <set attributeName="fill" to="#808080" begin="arrowLeft.mouseover" end="arrowLeft.mouseout"/>
                  </use>
                  <path fill="none" stroke="white" stroke-width="1.5" d="M0,-3.0v7 M-2.5,-0.5L0,-3.0L2.5,-0.5"/>
                </g>
        </g>
        <svg viewBox="0 0 15 15" width="100%" height="30px" preserveAspectRatio="xMaxYMin meet">
         <g id="arrow_out" transform="scale(0.3 0.3)">
          <a xlink:href="classdoris_1_1_easy_json_ade4f73284b43fd82e24f5c38bcc5ff21_icgraph_org.svg" target="_base">
           <rect id="button" ry="5" rx="5" y="6" x="6" height="38" width="38"
                fill="#f2f5e9" fill-opacity="0.5" stroke="#606060" stroke-width="1.0"/>
           <path id="arrow"
             d="M 11.500037,31.436501 C 11.940474,20.09759 22.043105,11.32322 32.158766,21.979434 L 37.068811,17.246167 C 37.068811,17.246167 37.088388,32 37.088388,32 L 22.160133,31.978069 C 22.160133,31.978069 26.997745,27.140456 26.997745,27.140456 C 18.528582,18.264221 13.291696,25.230495 11.500037,31.436501 z"
             style="fill:#404040;"/>
          </a>
         </g>
        </svg>
</svg>
