<?xml version="1.0" encoding="UTF-8" standalone="no"?>
<!DOCTYPE svg PUBLIC "-//W3C//DTD SVG 1.1//EN"
 "http://www.w3.org/Graphics/SVG/1.1/DTD/svg11.dtd">
<!-- Generated by graphviz version 7.1.0 (20230121.1956)
 -->
<!-- Title: /Users/dabowang/doris/be/src/pipeline/exec/data_queue.h Pages: 1 -->
<svg width="804pt" height="225pt"
 viewBox="0.00 0.00 803.50 225.00" xmlns="http://www.w3.org/2000/svg" xmlns:xlink="http://www.w3.org/1999/xlink">
<g id="graph0" class="graph" transform="scale(1 1) rotate(0) translate(4 221)">
<title>/Users/dabowang/doris/be/src/pipeline/exec/data_queue.h</title>
<!-- Node1 -->
<g id="node1" class="node">
<title>Node1</title>
<g id="a_node1"><a xlink:title=" ">
<polygon fill="#999999" stroke="#666666" points="476,-217 359,-217 359,-176 476,-176 476,-217"/>
<text text-anchor="start" x="367" y="-205" font-family="Helvetica,sans-Serif" font-size="10.00">/Users/dabowang/doris</text>
<text text-anchor="start" x="367" y="-194" font-family="Helvetica,sans-Serif" font-size="10.00">/be/src/pipeline/exec</text>
<text text-anchor="middle" x="417.5" y="-183" font-family="Helvetica,sans-Serif" font-size="10.00">/data_queue.h</text>
</a>
</g>
</g>
<!-- Node2 -->
<g id="node2" class="node">
<title>Node2</title>
<g id="a_node2"><a xlink:href="../../da/d7a/data__queue_8cpp.html" target="_top" xlink:title=" ">
<polygon fill="white" stroke="#666666" points="117,-134.5 0,-134.5 0,-93.5 117,-93.5 117,-134.5"/>
<text text-anchor="start" x="8" y="-122.5" font-family="Helvetica,sans-Serif" font-size="10.00">/Users/dabowang/doris</text>
<text text-anchor="start" x="8" y="-111.5" font-family="Helvetica,sans-Serif" font-size="10.00">/be/src/pipeline/exec</text>
<text text-anchor="middle" x="58.5" y="-100.5" font-family="Helvetica,sans-Serif" font-size="10.00">/data_queue.cpp</text>
</a>
</g>
</g>
<!-- Node1&#45;&gt;Node2 -->
<g id="edge1" class="edge">
<title>Node1&#45;&gt;Node2</title>
<path fill="none" stroke="#63b8ff" d="M347.47,-185.45C288.06,-176.13 200.88,-160.62 126.5,-140 121.17,-138.52 115.66,-136.81 110.19,-135"/>
<polygon fill="#63b8ff" stroke="#63b8ff" points="346.69,-188.87 357.11,-186.94 347.76,-181.95 346.69,-188.87"/>
</g>
<!-- Node3 -->
<g id="node3" class="node">
<title>Node3</title>
<g id="a_node3"><a xlink:href="../../db/d02/streaming__aggregation__sink__operator_8h.html" target="_top" xlink:title=" ">
<polygon fill="white" stroke="#666666" points="253.5,-140 135.5,-140 135.5,-88 253.5,-88 253.5,-140"/>
<text text-anchor="start" x="143.5" y="-128" font-family="Helvetica,sans-Serif" font-size="10.00">/Users/dabowang/doris</text>
<text text-anchor="start" x="143.5" y="-117" font-family="Helvetica,sans-Serif" font-size="10.00">/be/src/pipeline/exec</text>
<text text-anchor="start" x="143.5" y="-106" font-family="Helvetica,sans-Serif" font-size="10.00">/streaming_aggregation</text>
<text text-anchor="middle" x="194.5" y="-95" font-family="Helvetica,sans-Serif" font-size="10.00">_sink_operator.h</text>
</a>
</g>
</g>
<!-- Node1&#45;&gt;Node3 -->
<g id="edge2" class="edge">
<title>Node1&#45;&gt;Node3</title>
<path fill="none" stroke="#63b8ff" d="M350.85,-171.78C323.46,-161.99 291.44,-150.5 262.5,-140 259.66,-138.97 256.76,-137.91 253.83,-136.85"/>
<polygon fill="#63b8ff" stroke="#63b8ff" points="349.48,-175 360.07,-175.07 351.83,-168.41 349.48,-175"/>
</g>
<!-- Node5 -->
<g id="node5" class="node">
<title>Node5</title>
<g id="a_node5"><a xlink:href="../../d4/d41/pipeline__fragment__context_8cpp.html" target="_top" xlink:title=" ">
<polygon fill="white" stroke="#666666" points="484,-46.5 365,-46.5 365,-5.5 484,-5.5 484,-46.5"/>
<text text-anchor="start" x="373" y="-34.5" font-family="Helvetica,sans-Serif" font-size="10.00">/Users/dabowang/doris</text>
<text text-anchor="start" x="373" y="-23.5" font-family="Helvetica,sans-Serif" font-size="10.00">/be/src/pipeline/pipeline</text>
<text text-anchor="middle" x="424.5" y="-12.5" font-family="Helvetica,sans-Serif" font-size="10.00">_fragment_context.cpp</text>
</a>
</g>
</g>
<!-- Node1&#45;&gt;Node5 -->
<g id="edge15" class="edge">
<title>Node1&#45;&gt;Node5</title>
<path fill="none" stroke="#63b8ff" d="M418.8,-164.28C420.22,-129.99 422.47,-75.96 423.67,-46.96"/>
<polygon fill="#63b8ff" stroke="#63b8ff" points="415.31,-163.86 418.39,-174 422.31,-164.15 415.31,-163.86"/>
</g>
<!-- Node6 -->
<g id="node6" class="node">
<title>Node6</title>
<g id="a_node6"><a xlink:href="../../da/d03/streaming__aggregation__source__operator_8h.html" target="_top" xlink:title=" ">
<polygon fill="white" stroke="#666666" points="389.5,-140 271.5,-140 271.5,-88 389.5,-88 389.5,-140"/>
<text text-anchor="start" x="279.5" y="-128" font-family="Helvetica,sans-Serif" font-size="10.00">/Users/dabowang/doris</text>
<text text-anchor="start" x="279.5" y="-117" font-family="Helvetica,sans-Serif" font-size="10.00">/be/src/pipeline/exec</text>
<text text-anchor="start" x="279.5" y="-106" font-family="Helvetica,sans-Serif" font-size="10.00">/streaming_aggregation</text>
<text text-anchor="middle" x="330.5" y="-95" font-family="Helvetica,sans-Serif" font-size="10.00">_source_operator.h</text>
</a>
</g>
</g>
<!-- Node1&#45;&gt;Node6 -->
<g id="edge5" class="edge">
<title>Node1&#45;&gt;Node6</title>
<path fill="none" stroke="#63b8ff" d="M387.83,-168.04C378.17,-159.11 367.5,-149.23 358.01,-140.45"/>
<polygon fill="#63b8ff" stroke="#63b8ff" points="385.17,-170.35 394.88,-174.57 389.92,-165.21 385.17,-170.35"/>
</g>
<!-- Node8 -->
<g id="node8" class="node">
<title>Node8</title>
<g id="a_node8"><a xlink:href="../../d2/dd5/union__sink__operator_8h.html" target="_top" xlink:title=" ">
<polygon fill="white" stroke="#666666" points="563,-134.5 446,-134.5 446,-93.5 563,-93.5 563,-134.5"/>
<text text-anchor="start" x="454" y="-122.5" font-family="Helvetica,sans-Serif" font-size="10.00">/Users/dabowang/doris</text>
<text text-anchor="start" x="454" y="-111.5" font-family="Helvetica,sans-Serif" font-size="10.00">/be/src/pipeline/exec</text>
<text text-anchor="middle" x="504.5" y="-100.5" font-family="Helvetica,sans-Serif" font-size="10.00">/union_sink_operator.h</text>
</a>
</g>
</g>
<!-- Node1&#45;&gt;Node8 -->
<g id="edge8" class="edge">
<title>Node1&#45;&gt;Node8</title>
<path fill="none" stroke="#63b8ff" d="M447.22,-168C458.95,-157.15 472.16,-144.92 482.94,-134.95"/>
<polygon fill="#63b8ff" stroke="#63b8ff" points="445.08,-165.21 440.12,-174.57 449.83,-170.35 445.08,-165.21"/>
</g>
<!-- Node10 -->
<g id="node10" class="node">
<title>Node10</title>
<g id="a_node10"><a xlink:href="../../d8/d87/union__source__operator_8cpp.html" target="_top" xlink:title=" ">
<polygon fill="white" stroke="#666666" points="795.5,-46.5 659.5,-46.5 659.5,-5.5 795.5,-5.5 795.5,-46.5"/>
<text text-anchor="start" x="667.5" y="-34.5" font-family="Helvetica,sans-Serif" font-size="10.00">/Users/dabowang/doris</text>
<text text-anchor="start" x="667.5" y="-23.5" font-family="Helvetica,sans-Serif" font-size="10.00">/be/src/pipeline/exec</text>
<text text-anchor="middle" x="727.5" y="-12.5" font-family="Helvetica,sans-Serif" font-size="10.00">/union_source_operator.cpp</text>
</a>
</g>
</g>
<!-- Node1&#45;&gt;Node10 -->
<g id="edge11" class="edge">
<title>Node1&#45;&gt;Node10</title>
<path fill="none" stroke="#63b8ff" d="M487.64,-191.89C565.87,-186.29 685.41,-172.55 715.5,-140 738.8,-114.8 735.97,-71.65 731.77,-46.6"/>
<polygon fill="#63b8ff" stroke="#63b8ff" points="487.66,-188.38 477.93,-192.55 488.14,-195.36 487.66,-188.38"/>
</g>
<!-- Node11 -->
<g id="node11" class="node">
<title>Node11</title>
<g id="a_node11"><a xlink:href="../../d9/dc1/union__source__operator_8h.html" target="_top" xlink:title=" ">
<polygon fill="white" stroke="#666666" points="706,-134.5 581,-134.5 581,-93.5 706,-93.5 706,-134.5"/>
<text text-anchor="start" x="589" y="-122.5" font-family="Helvetica,sans-Serif" font-size="10.00">/Users/dabowang/doris</text>
<text text-anchor="start" x="589" y="-111.5" font-family="Helvetica,sans-Serif" font-size="10.00">/be/src/pipeline/exec</text>
<text text-anchor="middle" x="643.5" y="-100.5" font-family="Helvetica,sans-Serif" font-size="10.00">/union_source_operator.h</text>
</a>
</g>
</g>
<!-- Node1&#45;&gt;Node11 -->
<g id="edge12" class="edge">
<title>Node1&#45;&gt;Node11</title>
<path fill="none" stroke="#63b8ff" d="M483.81,-171.88C516.75,-160.15 556.1,-146.13 587.49,-134.95"/>
<polygon fill="#63b8ff" stroke="#63b8ff" points="483.04,-168.44 474.79,-175.09 485.39,-175.03 483.04,-168.44"/>
</g>
<!-- Node4 -->
<g id="node4" class="node">
<title>Node4</title>
<g id="a_node4"><a xlink:href="../../d9/dfe/streaming__aggregation__sink__operator_8cpp.html" target="_top" xlink:title=" ">
<polygon fill="white" stroke="#666666" points="210.5,-52 92.5,-52 92.5,0 210.5,0 210.5,-52"/>
<text text-anchor="start" x="100.5" y="-40" font-family="Helvetica,sans-Serif" font-size="10.00">/Users/dabowang/doris</text>
<text text-anchor="start" x="100.5" y="-29" font-family="Helvetica,sans-Serif" font-size="10.00">/be/src/pipeline/exec</text>
<text text-anchor="start" x="100.5" y="-18" font-family="Helvetica,sans-Serif" font-size="10.00">/streaming_aggregation</text>
<text text-anchor="middle" x="151.5" y="-7" font-family="Helvetica,sans-Serif" font-size="10.00">_sink_operator.cpp</text>
</a>
</g>
</g>
<!-- Node3&#45;&gt;Node4 -->
<g id="edge3" class="edge">
<title>Node3&#45;&gt;Node4</title>
<path fill="none" stroke="#63b8ff" d="M176.69,-77.37C172.51,-69.01 168.13,-60.27 164.23,-52.45"/>
<polygon fill="#63b8ff" stroke="#63b8ff" points="173.55,-78.93 181.15,-86.31 179.81,-75.8 173.55,-78.93"/>
</g>
<!-- Node3&#45;&gt;Node5 -->
<g id="edge4" class="edge">
<title>Node3&#45;&gt;Node5</title>
<path fill="none" stroke="#63b8ff" d="M264.19,-86.94C298.62,-74.07 339.5,-58.78 371.36,-46.87"/>
<polygon fill="#63b8ff" stroke="#63b8ff" points="263.29,-83.54 255.15,-90.32 265.74,-90.1 263.29,-83.54"/>
</g>
<!-- Node6&#45;&gt;Node5 -->
<g id="edge7" class="edge">
<title>Node6&#45;&gt;Node5</title>
<path fill="none" stroke="#63b8ff" d="M366.43,-80.13C378.64,-68.96 391.9,-56.83 402.66,-46.98"/>
<polygon fill="#63b8ff" stroke="#63b8ff" points="364.33,-77.31 359.31,-86.64 369.05,-82.47 364.33,-77.31"/>
</g>
<!-- Node7 -->
<g id="node7" class="node">
<title>Node7</title>
<g id="a_node7"><a xlink:href="../../d2/d1f/streaming__aggregation__source__operator_8cpp.html" target="_top" xlink:title=" ">
<polygon fill="white" stroke="#666666" points="346.5,-52 228.5,-52 228.5,0 346.5,0 346.5,-52"/>
<text text-anchor="start" x="236.5" y="-40" font-family="Helvetica,sans-Serif" font-size="10.00">/Users/dabowang/doris</text>
<text text-anchor="start" x="236.5" y="-29" font-family="Helvetica,sans-Serif" font-size="10.00">/be/src/pipeline/exec</text>
<text text-anchor="start" x="236.5" y="-18" font-family="Helvetica,sans-Serif" font-size="10.00">/streaming_aggregation</text>
<text text-anchor="middle" x="287.5" y="-7" font-family="Helvetica,sans-Serif" font-size="10.00">_source_operator.cpp</text>
</a>
</g>
</g>
<!-- Node6&#45;&gt;Node7 -->
<g id="edge6" class="edge">
<title>Node6&#45;&gt;Node7</title>
<path fill="none" stroke="#63b8ff" d="M312.69,-77.37C308.51,-69.01 304.13,-60.27 300.23,-52.45"/>
<polygon fill="#63b8ff" stroke="#63b8ff" points="309.55,-78.93 317.15,-86.31 315.81,-75.8 309.55,-78.93"/>
</g>
<!-- Node8&#45;&gt;Node5 -->
<g id="edge10" class="edge">
<title>Node8&#45;&gt;Node5</title>
<path fill="none" stroke="#63b8ff" d="M478.28,-84.82C466.73,-72.4 453.44,-58.11 442.95,-46.84"/>
<polygon fill="#63b8ff" stroke="#63b8ff" points="475.54,-87.01 484.91,-91.95 480.67,-82.24 475.54,-87.01"/>
</g>
<!-- Node9 -->
<g id="node9" class="node">
<title>Node9</title>
<g id="a_node9"><a xlink:href="../../db/dc8/union__sink__operator_8cpp.html" target="_top" xlink:title=" ">
<polygon fill="white" stroke="#666666" points="627,-46.5 502,-46.5 502,-5.5 627,-5.5 627,-46.5"/>
<text text-anchor="start" x="510" y="-34.5" font-family="Helvetica,sans-Serif" font-size="10.00">/Users/dabowang/doris</text>
<text text-anchor="start" x="510" y="-23.5" font-family="Helvetica,sans-Serif" font-size="10.00">/be/src/pipeline/exec</text>
<text text-anchor="middle" x="564.5" y="-12.5" font-family="Helvetica,sans-Serif" font-size="10.00">/union_sink_operator.cpp</text>
</a>
</g>
</g>
<!-- Node8&#45;&gt;Node9 -->
<g id="edge9" class="edge">
<title>Node8&#45;&gt;Node9</title>
<path fill="none" stroke="#63b8ff" d="M524.91,-83.74C533.4,-71.58 543.02,-57.78 550.66,-46.84"/>
<polygon fill="#63b8ff" stroke="#63b8ff" points="522.13,-81.61 519.28,-91.81 527.87,-85.61 522.13,-81.61"/>
</g>
<!-- Node11&#45;&gt;Node5 -->
<g id="edge14" class="edge">
<title>Node11&#45;&gt;Node5</title>
<path fill="none" stroke="#63b8ff" d="M582.07,-88.88C548.43,-75.66 507.23,-59.49 475.4,-46.99"/>
<polygon fill="#63b8ff" stroke="#63b8ff" points="580.71,-92.1 591.3,-92.5 583.27,-85.59 580.71,-92.1"/>
</g>
<!-- Node11&#45;&gt;Node10 -->
<g id="edge13" class="edge">
<title>Node11&#45;&gt;Node10</title>
<path fill="none" stroke="#63b8ff" d="M671.03,-84.82C683.15,-72.4 697.12,-58.11 708.12,-46.84"/>
<polygon fill="#63b8ff" stroke="#63b8ff" points="668.52,-82.37 664.04,-91.97 673.53,-87.26 668.52,-82.37"/>
</g>
</g>
</svg>
