<?xml version="1.0" encoding="UTF-8" standalone="no"?>
<!DOCTYPE svg PUBLIC "-//W3C//DTD SVG 1.1//EN"
 "http://www.w3.org/Graphics/SVG/1.1/DTD/svg11.dtd">
<!-- Generated by graphviz version 7.1.0 (20230121.1956)
 -->
<!-- Title: do_tablet_meta_checkpoint Pages: 1 -->
<!--zoomable 161 -->
<svg id="main" version="1.1" xmlns="http://www.w3.org/2000/svg" xmlns:xlink="http://www.w3.org/1999/xlink" xml:space="preserve" onload="init(evt)">
<style type="text/css"><![CDATA[
.edge:hover path { stroke: red; }
.edge:hover polygon { stroke: red; fill: red; }
]]></style>
<script type="text/javascript"><![CDATA[
var edges = document.getElementsByTagName('g');
if (edges && edges.length) {
  for (var i=0;i<edges.length;i++) {
    if (edges[i].id.substr(0,4)=='edge') {
      edges[i].setAttribute('class','edge');
    }
  }
}
]]></script>
        <defs>
                <circle id="rim" cx="0" cy="0" r="7"/>
                <circle id="rim2" cx="0" cy="0" r="3.5"/>
                <g id="zoomPlus">
                        <use xlink:href="#rim" fill="#404040">
                                <set attributeName="fill" to="#808080" begin="zoomplus.mouseover" end="zoomplus.mouseout"/>
                        </use>
                        <path d="M-4,0h8M0,-4v8" fill="none" stroke="white" stroke-width="1.5" pointer-events="none"/>
                </g>
                <g id="zoomMin">
                        <use xlink:href="#rim" fill="#404040">
                                <set attributeName="fill" to="#808080" begin="zoomminus.mouseover" end="zoomminus.mouseout"/>
                        </use>
                        <path d="M-4,0h8" fill="none" stroke="white" stroke-width="1.5" pointer-events="none"/>
                </g>
                <g id="dirArrow">
                        <path fill="none" stroke="white" stroke-width="1.5" d="M0,-3.0v7 M-2.5,-0.5L0,-3.0L2.5,-0.5"/>
                </g>
               <g id="resetDef">
                       <use xlink:href="#rim2" fill="#404040">
                               <set attributeName="fill" to="#808080" begin="reset.mouseover" end="reset.mouseout"/>
                       </use>
               </g>
        </defs>

<script type="text/javascript">
var viewWidth = 531;
var viewHeight = 161;
var sectionId = 'dynsection-24';
</script>
<script xlink:href="../../svgpan.js"/>
<svg id="graph" class="graph">
<g id="viewport">
<title>do_tablet_meta_checkpoint</title>
<!-- Node1 -->
<g id="node1" class="node">
<title>Node1</title>
<g id="a_node1"><a xlink:title=" ">
<polygon fill="#999999" stroke="#666666" points="136,-85.5 0,-85.5 0,-66.5 136,-66.5 136,-85.5"/>
<text text-anchor="middle" x="68" y="-73.5" font-family="Helvetica,sans-Serif" font-size="10.00">do_tablet_meta_checkpoint</text>
</a>
</g>
</g>
<!-- Node2 -->
<g id="node2" class="node">
<title>Node2</title>
<g id="a_node2"><a xlink:href="../../d7/d16/classdoris_1_1_custom_stop_watch.html#adcda5684f125d03f01912ee2b400fd89" target="_top" xlink:title=" ">
<polygon fill="white" stroke="#666666" points="299,-153 173,-153 173,-123 299,-123 299,-153"/>
<text text-anchor="start" x="181" y="-141" font-family="Helvetica,sans-Serif" font-size="10.00">doris::CustomStopWatch</text>
<text text-anchor="middle" x="236" y="-130" font-family="Helvetica,sans-Serif" font-size="10.00">::elapsed_time</text>
</a>
</g>
</g>
<!-- Node1&#45;&gt;Node2 -->
<g id="edge1" class="edge">
<title>Node1&#45;&gt;Node2</title>
<path fill="none" stroke="#63b8ff" d="M95.67,-85.96C119.16,-94.73 154.04,-107.76 183.02,-118.59"/>
<polygon fill="#63b8ff" stroke="#63b8ff" points="181.79,-121.86 192.39,-122.08 184.24,-115.31 181.79,-121.86"/>
</g>
<!-- Node5 -->
<g id="node5" class="node">
<title>Node5</title>
<g id="a_node5"><a xlink:href="../../d2/df7/classdoris_1_1_data_dir.html#ab00e03d2eef5a496bd9c62006fcaf9e1" target="_top" xlink:title=" ">
<polygon fill="white" stroke="#666666" points="287,-104.5 185,-104.5 185,-85.5 287,-85.5 287,-104.5"/>
<text text-anchor="middle" x="236" y="-92.5" font-family="Helvetica,sans-Serif" font-size="10.00">doris::DataDir::path</text>
</a>
</g>
</g>
<!-- Node1&#45;&gt;Node5 -->
<g id="edge4" class="edge">
<title>Node1&#45;&gt;Node5</title>
<path fill="none" stroke="#63b8ff" d="M136.04,-83.67C148.31,-85.08 161.07,-86.54 173.19,-87.92"/>
<polygon fill="#63b8ff" stroke="#63b8ff" points="172.73,-91.4 183.06,-89.06 173.52,-84.44 172.73,-91.4"/>
</g>
<!-- Node6 -->
<g id="node6" class="node">
<title>Node6</title>
<g id="a_node6"><a xlink:href="../../d2/df7/classdoris_1_1_data_dir.html#ad9fc3e4195180791542069c283851f65" target="_top" xlink:title=" ">
<polygon fill="white" stroke="#666666" points="300,-67.5 172,-67.5 172,-48.5 300,-48.5 300,-67.5"/>
<text text-anchor="middle" x="236" y="-55.5" font-family="Helvetica,sans-Serif" font-size="10.00">doris::DataDir::path_hash</text>
</a>
</g>
</g>
<!-- Node1&#45;&gt;Node6 -->
<g id="edge5" class="edge">
<title>Node1&#45;&gt;Node6</title>
<path fill="none" stroke="#63b8ff" d="M136.04,-68.73C144.05,-67.86 152.27,-66.97 160.38,-66.09"/>
<polygon fill="#63b8ff" stroke="#63b8ff" points="160.67,-69.58 170.24,-65.02 159.92,-62.62 160.67,-69.58"/>
</g>
<!-- Node7 -->
<g id="node7" class="node">
<title>Node7</title>
<g id="a_node7"><a xlink:href="../../d7/d16/classdoris_1_1_custom_stop_watch.html#a60de64d75454385b23995437f1d72669" target="_top" xlink:title=" ">
<polygon fill="white" stroke="#666666" points="299,-30 173,-30 173,0 299,0 299,-30"/>
<text text-anchor="start" x="181" y="-18" font-family="Helvetica,sans-Serif" font-size="10.00">doris::CustomStopWatch</text>
<text text-anchor="middle" x="236" y="-7" font-family="Helvetica,sans-Serif" font-size="10.00">::start</text>
</a>
</g>
</g>
<!-- Node1&#45;&gt;Node7 -->
<g id="edge6" class="edge">
<title>Node1&#45;&gt;Node7</title>
<path fill="none" stroke="#63b8ff" d="M96.04,-66.06C119.34,-57.5 153.65,-44.89 182.35,-34.35"/>
<polygon fill="#63b8ff" stroke="#63b8ff" points="183.44,-37.68 191.62,-30.94 181.02,-31.11 183.44,-37.68"/>
</g>
<!-- Node3 -->
<g id="node3" class="node">
<title>Node3</title>
<g id="a_node3"><a xlink:href="../../dc/dd3/clock__gettime_8c.html#a1033612ad5e07b4883265544a5361377" target="_top" xlink:title=" ">
<polygon fill="white" stroke="#666666" points="413,-85.5 336,-85.5 336,-66.5 413,-66.5 413,-85.5"/>
<text text-anchor="middle" x="374.5" y="-73.5" font-family="Helvetica,sans-Serif" font-size="10.00">clock_gettime</text>
</a>
</g>
</g>
<!-- Node2&#45;&gt;Node3 -->
<g id="edge2" class="edge">
<title>Node2&#45;&gt;Node3</title>
<path fill="none" stroke="#63b8ff" d="M279.63,-122.51C286.49,-119.8 293.48,-116.91 300,-114 315.47,-107.08 332.28,-98.47 345.92,-91.2"/>
<polygon fill="#63b8ff" stroke="#63b8ff" points="347.18,-94.5 354.32,-86.67 343.86,-88.33 347.18,-94.5"/>
</g>
<!-- Node4 -->
<g id="node4" class="node">
<title>Node4</title>
<g id="a_node4"><a xlink:href="../../dc/df5/syscall__ret_8c.html#ac5a9fe7bbf4e56db4c22dbb286f18f45" target="_top" xlink:title=" ">
<polygon fill="white" stroke="#666666" points="523,-85.5 449,-85.5 449,-66.5 523,-66.5 523,-85.5"/>
<text text-anchor="middle" x="486" y="-73.5" font-family="Helvetica,sans-Serif" font-size="10.00">__syscall_ret</text>
</a>
</g>
</g>
<!-- Node3&#45;&gt;Node4 -->
<g id="edge3" class="edge">
<title>Node3&#45;&gt;Node4</title>
<path fill="none" stroke="#63b8ff" d="M413.49,-76C421.13,-76 429.24,-76 437.17,-76"/>
<polygon fill="#63b8ff" stroke="#63b8ff" points="437.04,-79.5 447.04,-76 437.04,-72.5 437.04,-79.5"/>
</g>
<!-- Node7&#45;&gt;Node3 -->
<g id="edge7" class="edge">
<title>Node7&#45;&gt;Node3</title>
<path fill="none" stroke="#63b8ff" d="M277.19,-30.41C284.81,-33.48 292.68,-36.76 300,-40 314.76,-46.53 330.9,-54.36 344.28,-61.04"/>
<polygon fill="#63b8ff" stroke="#63b8ff" points="342.49,-64.06 353,-65.43 345.64,-57.81 342.49,-64.06"/>
</g>
</g>
</svg>
        <g id="navigator" transform="translate(0 0)" fill="#404254">
                <rect fill="#f2f5e9" fill-opacity="0.5" stroke="#606060" stroke-width=".5" x="0" y="0" width="60" height="60"/>
                <use id="zoomplus" xlink:href="#zoomPlus" x="17" y="9" onmousedown="handleZoom(evt,'in')"/>
                <use id="zoomminus" xlink:href="#zoomMin" x="42" y="9" onmousedown="handleZoom(evt,'out')"/>
                <use id="reset" xlink:href="#resetDef" x="30" y="36" onmousedown="handleReset()"/>
                <g id="arrowUp" xlink:href="#dirArrow" transform="translate(30 24)" onmousedown="handlePan(0,-1)">
                  <use xlink:href="#rim" fill="#404040">
                        <set attributeName="fill" to="#808080" begin="arrowUp.mouseover" end="arrowUp.mouseout"/>
                  </use>
                  <path fill="none" stroke="white" stroke-width="1.5" d="M0,-3.0v7 M-2.5,-0.5L0,-3.0L2.5,-0.5"/>
                </g>
                <g id="arrowRight" xlink:href="#dirArrow" transform="rotate(90) translate(36 -43)" onmousedown="handlePan(1,0)">
                  <use xlink:href="#rim" fill="#404040">
                        <set attributeName="fill" to="#808080" begin="arrowRight.mouseover" end="arrowRight.mouseout"/>
                  </use>
                  <path fill="none" stroke="white" stroke-width="1.5" d="M0,-3.0v7 M-2.5,-0.5L0,-3.0L2.5,-0.5"/>
                </g>
                <g id="arrowDown" xlink:href="#dirArrow" transform="rotate(180) translate(-30 -48)" onmousedown="handlePan(0,1)">
                  <use xlink:href="#rim" fill="#404040">
                        <set attributeName="fill" to="#808080" begin="arrowDown.mouseover" end="arrowDown.mouseout"/>
                  </use>
                  <path fill="none" stroke="white" stroke-width="1.5" d="M0,-3.0v7 M-2.5,-0.5L0,-3.0L2.5,-0.5"/>
                </g>
                <g id="arrowLeft" xlink:href="#dirArrow" transform="rotate(270) translate(-36 17)" onmousedown="handlePan(-1,0)">
                  <use xlink:href="#rim" fill="#404040">
                        <set attributeName="fill" to="#808080" begin="arrowLeft.mouseover" end="arrowLeft.mouseout"/>
                  </use>
                  <path fill="none" stroke="white" stroke-width="1.5" d="M0,-3.0v7 M-2.5,-0.5L0,-3.0L2.5,-0.5"/>
                </g>
        </g>
        <svg viewBox="0 0 15 15" width="100%" height="30px" preserveAspectRatio="xMaxYMin meet">
         <g id="arrow_out" transform="scale(0.3 0.3)">
          <a xlink:href="classdoris_1_1_tablet_manager_a5b720fa13aff4a8fda3491c31e08c149_cgraph_org.svg" target="_base">
           <rect id="button" ry="5" rx="5" y="6" x="6" height="38" width="38"
                fill="#f2f5e9" fill-opacity="0.5" stroke="#606060" stroke-width="1.0"/>
           <path id="arrow"
             d="M 11.500037,31.436501 C 11.940474,20.09759 22.043105,11.32322 32.158766,21.979434 L 37.068811,17.246167 C 37.068811,17.246167 37.088388,32 37.088388,32 L 22.160133,31.978069 C 22.160133,31.978069 26.997745,27.140456 26.997745,27.140456 C 18.528582,18.264221 13.291696,25.230495 11.500037,31.436501 z"
             style="fill:#404040;"/>
          </a>
         </g>
        </svg>
</svg>
