<?xml version="1.0" encoding="UTF-8" standalone="no"?>
<!DOCTYPE svg PUBLIC "-//W3C//DTD SVG 1.1//EN"
 "http://www.w3.org/Graphics/SVG/1.1/DTD/svg11.dtd">
<!-- Generated by graphviz version 7.1.0 (20230121.1956)
 -->
<!-- Title: get_type_id Pages: 1 -->
<!--zoomable 175 -->
<svg id="main" version="1.1" xmlns="http://www.w3.org/2000/svg" xmlns:xlink="http://www.w3.org/1999/xlink" xml:space="preserve" onload="init(evt)">
<style type="text/css"><![CDATA[
.edge:hover path { stroke: red; }
.edge:hover polygon { stroke: red; fill: red; }
]]></style>
<script type="text/javascript"><![CDATA[
var edges = document.getElementsByTagName('g');
if (edges && edges.length) {
  for (var i=0;i<edges.length;i++) {
    if (edges[i].id.substr(0,4)=='edge') {
      edges[i].setAttribute('class','edge');
    }
  }
}
]]></script>
        <defs>
                <circle id="rim" cx="0" cy="0" r="7"/>
                <circle id="rim2" cx="0" cy="0" r="3.5"/>
                <g id="zoomPlus">
                        <use xlink:href="#rim" fill="#404040">
                                <set attributeName="fill" to="#808080" begin="zoomplus.mouseover" end="zoomplus.mouseout"/>
                        </use>
                        <path d="M-4,0h8M0,-4v8" fill="none" stroke="white" stroke-width="1.5" pointer-events="none"/>
                </g>
                <g id="zoomMin">
                        <use xlink:href="#rim" fill="#404040">
                                <set attributeName="fill" to="#808080" begin="zoomminus.mouseover" end="zoomminus.mouseout"/>
                        </use>
                        <path d="M-4,0h8" fill="none" stroke="white" stroke-width="1.5" pointer-events="none"/>
                </g>
                <g id="dirArrow">
                        <path fill="none" stroke="white" stroke-width="1.5" d="M0,-3.0v7 M-2.5,-0.5L0,-3.0L2.5,-0.5"/>
                </g>
               <g id="resetDef">
                       <use xlink:href="#rim2" fill="#404040">
                               <set attributeName="fill" to="#808080" begin="reset.mouseover" end="reset.mouseout"/>
                       </use>
               </g>
        </defs>

<script type="text/javascript">
var viewWidth = 551;
var viewHeight = 175;
var sectionId = 'dynsection-5';
</script>
<script xlink:href="../../svgpan.js"/>
<svg id="graph" class="graph">
<g id="viewport">
<title>get_type_id</title>
<!-- Node1 -->
<g id="node1" class="node">
<title>Node1</title>
<g id="a_node1"><a xlink:title="Data type id. It&#39;s used for runtime type checks.">
<polygon fill="#999999" stroke="#666666" points="543,-107 476,-107 476,-88 543,-88 543,-107"/>
<text text-anchor="middle" x="509.5" y="-95" font-family="Helvetica,sans-Serif" font-size="10.00">get_type_id</text>
</a>
</g>
</g>
<!-- Node2 -->
<g id="node2" class="node">
<title>Node2</title>
<g id="a_node2"><a xlink:href="../../d1/de1/classdoris_1_1vectorized_1_1_function_convert.html#addc3120590db01e8bbf9fe9e23f79594" target="_top" xlink:title="TODO: make const">
<polygon fill="white" stroke="#666666" points="440,-166.5 288,-166.5 288,-136.5 440,-136.5 440,-166.5"/>
<text text-anchor="start" x="296" y="-154.5" font-family="Helvetica,sans-Serif" font-size="10.00">doris::vectorized::</text>
<text text-anchor="middle" x="364" y="-143.5" font-family="Helvetica,sans-Serif" font-size="10.00">FunctionConvert::execute_impl</text>
</a>
</g>
</g>
<!-- Node1&#45;&gt;Node2 -->
<g id="edge1" class="edge">
<title>Node1&#45;&gt;Node2</title>
<path fill="none" stroke="#63b8ff" d="M476.99,-112.11C465.46,-117.24 452.24,-122.88 440,-127.5 432.2,-130.45 423.86,-133.35 415.68,-136.07"/>
<polygon fill="#63b8ff" stroke="#63b8ff" points="478.39,-115.32 486.06,-108.02 475.51,-108.94 478.39,-115.32"/>
</g>
<!-- Node3 -->
<g id="node3" class="node">
<title>Node3</title>
<g id="a_node3"><a xlink:href="../../df/d23/classdoris_1_1vectorized_1_1_function_convert_to_time_type.html#addc3120590db01e8bbf9fe9e23f79594" target="_top" xlink:title="TODO: make const">
<polygon fill="white" stroke="#666666" points="435,-118 293,-118 293,-77 435,-77 435,-118"/>
<text text-anchor="start" x="301" y="-106" font-family="Helvetica,sans-Serif" font-size="10.00">doris::vectorized::</text>
<text text-anchor="start" x="301" y="-95" font-family="Helvetica,sans-Serif" font-size="10.00">FunctionConvertToTimeType</text>
<text text-anchor="middle" x="364" y="-84" font-family="Helvetica,sans-Serif" font-size="10.00">::execute_impl</text>
</a>
</g>
</g>
<!-- Node1&#45;&gt;Node3 -->
<g id="edge2" class="edge">
<title>Node1&#45;&gt;Node3</title>
<path fill="none" stroke="#63b8ff" d="M464.32,-97.5C455.08,-97.5 445.13,-97.5 435.21,-97.5"/>
<polygon fill="#63b8ff" stroke="#63b8ff" points="464.06,-101 474.06,-97.5 464.06,-94 464.06,-101"/>
</g>
<!-- Node4 -->
<g id="node4" class="node">
<title>Node4</title>
<g id="a_node4"><a xlink:href="../../da/ddf/classdoris_1_1vectorized_1_1_i_data_type.html#a76da726a7b854e60ba44f7d5ae1ad3d0" target="_top" xlink:title=" ">
<polygon fill="white" stroke="#666666" points="405.5,-59 322.5,-59 322.5,-40 405.5,-40 405.5,-59"/>
<text text-anchor="middle" x="364" y="-47" font-family="Helvetica,sans-Serif" font-size="10.00">get_pdata_type</text>
</a>
</g>
</g>
<!-- Node1&#45;&gt;Node4 -->
<g id="edge3" class="edge">
<title>Node1&#45;&gt;Node4</title>
<path fill="none" stroke="#63b8ff" d="M476.84,-82.91C465.38,-77.94 452.24,-72.62 440,-68.5 429.05,-64.82 416.99,-61.47 405.81,-58.64"/>
<polygon fill="#63b8ff" stroke="#63b8ff" points="475.28,-86.05 485.84,-86.89 478.11,-79.64 475.28,-86.05"/>
</g>
<!-- Node5 -->
<g id="node5" class="node">
<title>Node5</title>
<g id="a_node5"><a xlink:href="../../da/ddf/classdoris_1_1vectorized_1_1_i_data_type.html#a196b4c0b7ee5ee0aedebff56bdfeaf79" target="_top" xlink:title=" ">
<polygon fill="white" stroke="#666666" points="252,-59 148,-59 148,-40 252,-40 252,-59"/>
<text text-anchor="middle" x="200" y="-47" font-family="Helvetica,sans-Serif" font-size="10.00">to_pb_column_meta</text>
</a>
</g>
</g>
<!-- Node4&#45;&gt;Node5 -->
<g id="edge4" class="edge">
<title>Node4&#45;&gt;Node5</title>
<path fill="none" stroke="#63b8ff" d="M310.81,-49.5C292.08,-49.5 270.98,-49.5 252.33,-49.5"/>
<polygon fill="#63b8ff" stroke="#63b8ff" points="310.61,-53 320.61,-49.5 310.61,-46 310.61,-53"/>
</g>
<!-- Node6 -->
<g id="node6" class="node">
<title>Node6</title>
<g id="a_node6"><a xlink:href="../../de/d17/classdoris_1_1vectorized_1_1_data_type_array.html#ad8bd2ebc01890ba42f0cae99421fe0b7" target="_top" xlink:title=" ">
<polygon fill="white" stroke="#666666" points="112,-100 0,-100 0,-59 112,-59 112,-100"/>
<text text-anchor="start" x="8" y="-88" font-family="Helvetica,sans-Serif" font-size="10.00">doris::vectorized::</text>
<text text-anchor="start" x="8" y="-77" font-family="Helvetica,sans-Serif" font-size="10.00">DataTypeArray::to_pb</text>
<text text-anchor="middle" x="56" y="-66" font-family="Helvetica,sans-Serif" font-size="10.00">_column_meta</text>
</a>
</g>
</g>
<!-- Node5&#45;&gt;Node6 -->
<g id="edge5" class="edge">
<title>Node5&#45;&gt;Node6</title>
<path fill="none" stroke="#63b8ff" d="M140.56,-61.85C131.27,-63.81 121.67,-65.84 112.44,-67.79"/>
<polygon fill="#63b8ff" stroke="#63b8ff" points="141.17,-65.29 150.24,-59.8 139.73,-58.45 141.17,-65.29"/>
</g>
<!-- Node7 -->
<g id="node7" class="node">
<title>Node7</title>
<g id="a_node7"><a xlink:href="../../d2/d45/classdoris_1_1vectorized_1_1_data_type_decimal.html#ad8bd2ebc01890ba42f0cae99421fe0b7" target="_top" xlink:title=" ">
<polygon fill="white" stroke="#666666" points="110.5,-41 1.5,-41 1.5,0 110.5,0 110.5,-41"/>
<text text-anchor="start" x="9.5" y="-29" font-family="Helvetica,sans-Serif" font-size="10.00">doris::vectorized::</text>
<text text-anchor="start" x="9.5" y="-18" font-family="Helvetica,sans-Serif" font-size="10.00">DataTypeDecimal::to</text>
<text text-anchor="middle" x="56" y="-7" font-family="Helvetica,sans-Serif" font-size="10.00">_pb_column_meta</text>
</a>
</g>
</g>
<!-- Node5&#45;&gt;Node7 -->
<g id="edge6" class="edge">
<title>Node5&#45;&gt;Node7</title>
<path fill="none" stroke="#63b8ff" d="M138.92,-37.23C129.59,-35.32 120,-33.37 110.82,-31.49"/>
<polygon fill="#63b8ff" stroke="#63b8ff" points="138.15,-40.65 148.65,-39.22 139.55,-33.79 138.15,-40.65"/>
</g>
</g>
</svg>
        <g id="navigator" transform="translate(0 0)" fill="#404254">
                <rect fill="#f2f5e9" fill-opacity="0.5" stroke="#606060" stroke-width=".5" x="0" y="0" width="60" height="60"/>
                <use id="zoomplus" xlink:href="#zoomPlus" x="17" y="9" onmousedown="handleZoom(evt,'in')"/>
                <use id="zoomminus" xlink:href="#zoomMin" x="42" y="9" onmousedown="handleZoom(evt,'out')"/>
                <use id="reset" xlink:href="#resetDef" x="30" y="36" onmousedown="handleReset()"/>
                <g id="arrowUp" xlink:href="#dirArrow" transform="translate(30 24)" onmousedown="handlePan(0,-1)">
                  <use xlink:href="#rim" fill="#404040">
                        <set attributeName="fill" to="#808080" begin="arrowUp.mouseover" end="arrowUp.mouseout"/>
                  </use>
                  <path fill="none" stroke="white" stroke-width="1.5" d="M0,-3.0v7 M-2.5,-0.5L0,-3.0L2.5,-0.5"/>
                </g>
                <g id="arrowRight" xlink:href="#dirArrow" transform="rotate(90) translate(36 -43)" onmousedown="handlePan(1,0)">
                  <use xlink:href="#rim" fill="#404040">
                        <set attributeName="fill" to="#808080" begin="arrowRight.mouseover" end="arrowRight.mouseout"/>
                  </use>
                  <path fill="none" stroke="white" stroke-width="1.5" d="M0,-3.0v7 M-2.5,-0.5L0,-3.0L2.5,-0.5"/>
                </g>
                <g id="arrowDown" xlink:href="#dirArrow" transform="rotate(180) translate(-30 -48)" onmousedown="handlePan(0,1)">
                  <use xlink:href="#rim" fill="#404040">
                        <set attributeName="fill" to="#808080" begin="arrowDown.mouseover" end="arrowDown.mouseout"/>
                  </use>
                  <path fill="none" stroke="white" stroke-width="1.5" d="M0,-3.0v7 M-2.5,-0.5L0,-3.0L2.5,-0.5"/>
                </g>
                <g id="arrowLeft" xlink:href="#dirArrow" transform="rotate(270) translate(-36 17)" onmousedown="handlePan(-1,0)">
                  <use xlink:href="#rim" fill="#404040">
                        <set attributeName="fill" to="#808080" begin="arrowLeft.mouseover" end="arrowLeft.mouseout"/>
                  </use>
                  <path fill="none" stroke="white" stroke-width="1.5" d="M0,-3.0v7 M-2.5,-0.5L0,-3.0L2.5,-0.5"/>
                </g>
        </g>
        <svg viewBox="0 0 15 15" width="100%" height="30px" preserveAspectRatio="xMaxYMin meet">
         <g id="arrow_out" transform="scale(0.3 0.3)">
          <a xlink:href="classdoris_1_1vectorized_1_1_i_data_type_a47a3cc42530f153029de5ded777e833e_icgraph_org.svg" target="_base">
           <rect id="button" ry="5" rx="5" y="6" x="6" height="38" width="38"
                fill="#f2f5e9" fill-opacity="0.5" stroke="#606060" stroke-width="1.0"/>
           <path id="arrow"
             d="M 11.500037,31.436501 C 11.940474,20.09759 22.043105,11.32322 32.158766,21.979434 L 37.068811,17.246167 C 37.068811,17.246167 37.088388,32 37.088388,32 L 22.160133,31.978069 C 22.160133,31.978069 26.997745,27.140456 26.997745,27.140456 C 18.528582,18.264221 13.291696,25.230495 11.500037,31.436501 z"
             style="fill:#404040;"/>
          </a>
         </g>
        </svg>
</svg>
