<?xml version="1.0" encoding="UTF-8" standalone="no"?>
<!DOCTYPE svg PUBLIC "-//W3C//DTD SVG 1.1//EN"
 "http://www.w3.org/Graphics/SVG/1.1/DTD/svg11.dtd">
<!-- Generated by graphviz version 7.1.0 (20230121.1956)
 -->
<!-- Title: insert_many_strings_without_reserve Pages: 1 -->
<svg width="410pt" height="60pt"
 viewBox="0.00 0.00 410.00 60.00" xmlns="http://www.w3.org/2000/svg" xmlns:xlink="http://www.w3.org/1999/xlink">
<g id="graph0" class="graph" transform="scale(1 1) rotate(0) translate(4 56)">
<title>insert_many_strings_without_reserve</title>
<!-- Node1 -->
<g id="node1" class="node">
<title>Node1</title>
<g id="a_node1"><a xlink:title=" ">
<polygon fill="#999999" stroke="#666666" points="402,-41 298,-41 298,-11 402,-11 402,-41"/>
<text text-anchor="start" x="306" y="-29" font-family="Helvetica,sans-Serif" font-size="10.00">insert_many_strings</text>
<text text-anchor="middle" x="350" y="-18" font-family="Helvetica,sans-Serif" font-size="10.00">_without_reserve</text>
</a>
</g>
</g>
<!-- Node2 -->
<g id="node2" class="node">
<title>Node2</title>
<g id="a_node2"><a xlink:href="../../db/dec/classdoris_1_1vectorized_1_1_predicate_column_type.html#a515dc183e50df6f78c1cc05b59750a6b" target="_top" xlink:title=" ">
<polygon fill="white" stroke="#666666" points="262,-52 149,-52 149,0 262,0 262,-52"/>
<text text-anchor="start" x="157" y="-40" font-family="Helvetica,sans-Serif" font-size="10.00">doris::vectorized::</text>
<text text-anchor="start" x="157" y="-29" font-family="Helvetica,sans-Serif" font-size="10.00">PredicateColumnType</text>
<text text-anchor="start" x="157" y="-18" font-family="Helvetica,sans-Serif" font-size="10.00">::insert_string_to_res</text>
<text text-anchor="middle" x="205.5" y="-7" font-family="Helvetica,sans-Serif" font-size="10.00">_column</text>
</a>
</g>
</g>
<!-- Node1&#45;&gt;Node2 -->
<g id="edge1" class="edge">
<title>Node1&#45;&gt;Node2</title>
<path fill="none" stroke="#63b8ff" d="M286.06,-26C278.11,-26 270.03,-26 262.21,-26"/>
<polygon fill="#63b8ff" stroke="#63b8ff" points="286.04,-29.5 296.04,-26 286.04,-22.5 286.04,-29.5"/>
</g>
<!-- Node3 -->
<g id="node3" class="node">
<title>Node3</title>
<g id="a_node3"><a xlink:href="../../db/dec/classdoris_1_1vectorized_1_1_predicate_column_type.html#a8e455152d923e71a139d9662574dfb8b" target="_top" xlink:title=" ">
<polygon fill="white" stroke="#666666" points="113,-46.5 0,-46.5 0,-5.5 113,-5.5 113,-46.5"/>
<text text-anchor="start" x="8" y="-34.5" font-family="Helvetica,sans-Serif" font-size="10.00">doris::vectorized::</text>
<text text-anchor="start" x="8" y="-23.5" font-family="Helvetica,sans-Serif" font-size="10.00">PredicateColumnType</text>
<text text-anchor="middle" x="56.5" y="-12.5" font-family="Helvetica,sans-Serif" font-size="10.00">::filter_by_selector</text>
</a>
</g>
</g>
<!-- Node2&#45;&gt;Node3 -->
<g id="edge2" class="edge">
<title>Node2&#45;&gt;Node3</title>
<path fill="none" stroke="#63b8ff" d="M137.01,-26C129.09,-26 121.08,-26 113.34,-26"/>
<polygon fill="#63b8ff" stroke="#63b8ff" points="136.99,-29.5 146.99,-26 136.99,-22.5 136.99,-29.5"/>
</g>
</g>
</svg>
