<?xml version="1.0" encoding="UTF-8" standalone="no"?>
<!DOCTYPE svg PUBLIC "-//W3C//DTD SVG 1.1//EN"
 "http://www.w3.org/Graphics/SVG/1.1/DTD/svg11.dtd">
<!-- Generated by graphviz version 7.1.0 (20230121.1956)
 -->
<!-- Title: index_impl Pages: 1 -->
<svg width="925pt" height="414pt"
 viewBox="0.00 0.00 925.00 413.50" xmlns="http://www.w3.org/2000/svg" xmlns:xlink="http://www.w3.org/1999/xlink">
<g id="graph0" class="graph" transform="scale(1 1) rotate(0) translate(4 409.5)">
<title>index_impl</title>
<!-- Node1 -->
<g id="node1" class="node">
<title>Node1</title>
<g id="a_node1"><a xlink:title=" ">
<polygon fill="#999999" stroke="#666666" points="63,-314.5 0,-314.5 0,-295.5 63,-295.5 63,-314.5"/>
<text text-anchor="middle" x="31.5" y="-302.5" font-family="Helvetica,sans-Serif" font-size="10.00">index_impl</text>
</a>
</g>
</g>
<!-- Node2 -->
<g id="node2" class="node">
<title>Node2</title>
<g id="a_node2"><a xlink:href="../../d7/d3c/classdoris_1_1vectorized_1_1_column_string.html#ab15ae3a50f8d1fbc7b1986af77263e2c" target="_top" xlink:title=" ">
<polygon fill="white" stroke="#666666" points="211.5,-405.5 107.5,-405.5 107.5,-386.5 211.5,-386.5 211.5,-405.5"/>
<text text-anchor="middle" x="159.5" y="-393.5" font-family="Helvetica,sans-Serif" font-size="10.00">check_chars_length</text>
</a>
</g>
</g>
<!-- Node1&#45;&gt;Node2 -->
<g id="edge1" class="edge">
<title>Node1&#45;&gt;Node2</title>
<path fill="none" stroke="#63b8ff" d="M39.06,-314.89C49.79,-330.34 72.59,-360.18 99,-377 101.57,-378.64 104.29,-380.14 107.1,-381.53"/>
<polygon fill="#63b8ff" stroke="#63b8ff" points="105.59,-384.69 116.16,-385.43 108.36,-378.26 105.59,-384.69"/>
</g>
<!-- Node3 -->
<g id="node3" class="node">
<title>Node3</title>
<g id="a_node3"><a xlink:href="../../da/d30/class_c_o_w_helper.html#aa14023f47995d24ce0ea777e90a4cb23" target="_top" xlink:title=" ">
<polygon fill="white" stroke="#666666" points="220,-368 99,-368 99,-338 220,-338 220,-368"/>
<text text-anchor="start" x="107" y="-356" font-family="Helvetica,sans-Serif" font-size="10.00">COWHelper&lt; IColumn,</text>
<text text-anchor="middle" x="159.5" y="-345" font-family="Helvetica,sans-Serif" font-size="10.00"> ColumnString &gt;::create</text>
</a>
</g>
</g>
<!-- Node1&#45;&gt;Node3 -->
<g id="edge2" class="edge">
<title>Node1&#45;&gt;Node3</title>
<path fill="none" stroke="#63b8ff" d="M58.61,-314.95C72.81,-320.36 90.89,-327.24 107.74,-333.66"/>
<polygon fill="#63b8ff" stroke="#63b8ff" points="106.03,-336.76 116.62,-337.05 108.52,-330.21 106.03,-336.76"/>
</g>
<!-- Node4 -->
<g id="node4" class="node">
<title>Node4</title>
<g id="a_node4"><a xlink:href="../../d7/d16/memcpy__small_8h.html#a1df3b415150f123dd87bece89f712794" target="_top" xlink:title="Implementation for other platforms.">
<polygon fill="white" stroke="#666666" points="219,-320 100,-320 100,-290 219,-290 219,-320"/>
<text text-anchor="start" x="108" y="-308" font-family="Helvetica,sans-Serif" font-size="10.00">memcpy_small_allow</text>
<text text-anchor="middle" x="159.5" y="-297" font-family="Helvetica,sans-Serif" font-size="10.00">_read_write_overflow15</text>
</a>
</g>
</g>
<!-- Node1&#45;&gt;Node4 -->
<g id="edge3" class="edge">
<title>Node1&#45;&gt;Node4</title>
<path fill="none" stroke="#63b8ff" d="M63.32,-305C71.11,-305 79.79,-305 88.66,-305"/>
<polygon fill="#63b8ff" stroke="#63b8ff" points="88.42,-308.5 98.42,-305 88.42,-301.5 88.42,-308.5"/>
</g>
<!-- Node7 -->
<g id="node7" class="node">
<title>Node7</title>
<g id="a_node7"><a xlink:href="../../d5/d9d/classdoris_1_1vectorized_1_1_p_o_d_array_base.html#a0c895d2dd381326acf54873d9d3a5aa5" target="_top" xlink:title=" ">
<polygon fill="white" stroke="#666666" points="217.5,-272 101.5,-272 101.5,-242 217.5,-242 217.5,-272"/>
<text text-anchor="start" x="109.5" y="-260" font-family="Helvetica,sans-Serif" font-size="10.00">doris::vectorized::</text>
<text text-anchor="middle" x="159.5" y="-249" font-family="Helvetica,sans-Serif" font-size="10.00">PODArrayBase::resize</text>
</a>
</g>
</g>
<!-- Node1&#45;&gt;Node7 -->
<g id="edge6" class="edge">
<title>Node1&#45;&gt;Node7</title>
<path fill="none" stroke="#63b8ff" d="M58.61,-295.05C72.81,-289.64 90.89,-282.76 107.74,-276.34"/>
<polygon fill="#63b8ff" stroke="#63b8ff" points="108.52,-279.79 116.62,-272.95 106.03,-273.24 108.52,-279.79"/>
</g>
<!-- Node19 -->
<g id="node19" class="node">
<title>Node19</title>
<g id="a_node19"><a xlink:href="../../d7/d3c/classdoris_1_1vectorized_1_1_column_string.html#a726061f0a079c883725f5ae6efde4683" target="_top" xlink:title="Size of i&#45;th element, including terminating zero.">
<polygon fill="white" stroke="#666666" points="183.5,-223.5 135.5,-223.5 135.5,-204.5 183.5,-204.5 183.5,-223.5"/>
<text text-anchor="middle" x="159.5" y="-211.5" font-family="Helvetica,sans-Serif" font-size="10.00">size_at</text>
</a>
</g>
</g>
<!-- Node1&#45;&gt;Node19 -->
<g id="edge19" class="edge">
<title>Node1&#45;&gt;Node19</title>
<path fill="none" stroke="#63b8ff" d="M39.06,-295.11C49.79,-279.66 72.59,-249.82 99,-233 106.63,-228.14 115.61,-224.43 124.24,-221.64"/>
<polygon fill="#63b8ff" stroke="#63b8ff" points="125.16,-225.01 133.8,-218.89 123.23,-218.29 125.16,-225.01"/>
</g>
<!-- Node5 -->
<g id="node5" class="node">
<title>Node5</title>
<g id="a_node5"><a xlink:href="../../d9/d1e/memcpy__aarch64_8cpp.html#a156c5821f16ed93be8c7d315303f7b2a" target="_top" xlink:title=" ">
<polygon fill="white" stroke="#666666" points="344,-314.5 290,-314.5 290,-295.5 344,-295.5 344,-314.5"/>
<text text-anchor="middle" x="317" y="-302.5" font-family="Helvetica,sans-Serif" font-size="10.00">memcpy</text>
</a>
</g>
</g>
<!-- Node4&#45;&gt;Node5 -->
<g id="edge4" class="edge">
<title>Node4&#45;&gt;Node5</title>
<path fill="none" stroke="#63b8ff" d="M219.29,-305C239.09,-305 260.64,-305 278.36,-305"/>
<polygon fill="#63b8ff" stroke="#63b8ff" points="278.15,-308.5 288.15,-305 278.15,-301.5 278.15,-308.5"/>
</g>
<!-- Node6 -->
<g id="node6" class="node">
<title>Node6</title>
<g id="a_node6"><a xlink:href="../../d9/d1e/memcpy__aarch64_8cpp.html#a11ebdd343428c466f2f35c376d7db6d0" target="_top" xlink:title=" ">
<polygon fill="white" stroke="#666666" points="520,-314.5 438,-314.5 438,-295.5 520,-295.5 520,-314.5"/>
<text text-anchor="middle" x="479" y="-302.5" font-family="Helvetica,sans-Serif" font-size="10.00">inline_memcpy</text>
</a>
</g>
</g>
<!-- Node5&#45;&gt;Node6 -->
<g id="edge5" class="edge">
<title>Node5&#45;&gt;Node6</title>
<path fill="none" stroke="#63b8ff" d="M344.42,-305C366.63,-305 399.04,-305 426.38,-305"/>
<polygon fill="#63b8ff" stroke="#63b8ff" points="426.22,-308.5 436.22,-305 426.22,-301.5 426.22,-308.5"/>
</g>
<!-- Node8 -->
<g id="node8" class="node">
<title>Node8</title>
<g id="a_node8"><a xlink:href="../../d5/d9d/classdoris_1_1vectorized_1_1_p_o_d_array_base.html#aa5a2bd4e24261d8f10f2f4e5d82fccf6" target="_top" xlink:title=" ">
<polygon fill="white" stroke="#666666" points="378,-186 256,-186 256,-156 378,-156 378,-186"/>
<text text-anchor="start" x="264" y="-174" font-family="Helvetica,sans-Serif" font-size="10.00">doris::vectorized::</text>
<text text-anchor="middle" x="317" y="-163" font-family="Helvetica,sans-Serif" font-size="10.00">PODArrayBase::reserve</text>
</a>
</g>
</g>
<!-- Node7&#45;&gt;Node8 -->
<g id="edge7" class="edge">
<title>Node7&#45;&gt;Node8</title>
<path fill="none" stroke="#63b8ff" d="M201.61,-241.61C207.86,-238.93 214.17,-236.03 220,-233 242.84,-221.15 267.18,-205.4 285.63,-192.73"/>
<polygon fill="#63b8ff" stroke="#63b8ff" points="287.51,-195.69 293.73,-187.11 283.52,-189.94 287.51,-195.69"/>
</g>
<!-- Node18 -->
<g id="node18" class="node">
<title>Node18</title>
<g id="a_node18"><a xlink:href="../../d5/d9d/classdoris_1_1vectorized_1_1_p_o_d_array_base.html#afa97d17a5fedae2da8191c2c52aa6025" target="_top" xlink:title=" ">
<polygon fill="white" stroke="#666666" points="375,-277.5 259,-277.5 259,-236.5 375,-236.5 375,-277.5"/>
<text text-anchor="start" x="267" y="-265.5" font-family="Helvetica,sans-Serif" font-size="10.00">doris::vectorized::</text>
<text text-anchor="start" x="267" y="-254.5" font-family="Helvetica,sans-Serif" font-size="10.00">PODArrayBase::resize</text>
<text text-anchor="middle" x="317" y="-243.5" font-family="Helvetica,sans-Serif" font-size="10.00">_assume_reserved</text>
</a>
</g>
</g>
<!-- Node7&#45;&gt;Node18 -->
<g id="edge17" class="edge">
<title>Node7&#45;&gt;Node18</title>
<path fill="none" stroke="#63b8ff" d="M217.96,-257C227.47,-257 237.42,-257 247.18,-257"/>
<polygon fill="#63b8ff" stroke="#63b8ff" points="247,-260.5 257,-257 247,-253.5 247,-260.5"/>
</g>
<!-- Node9 -->
<g id="node9" class="node">
<title>Node9</title>
<g id="a_node9"><a xlink:href="../../d5/d9d/classdoris_1_1vectorized_1_1_p_o_d_array_base.html#a7223528283cd4e5872e0cc716bf9bd9d" target="_top" xlink:title=" ">
<polygon fill="white" stroke="#666666" points="542.5,-186 415.5,-186 415.5,-156 542.5,-156 542.5,-186"/>
<text text-anchor="start" x="423.5" y="-174" font-family="Helvetica,sans-Serif" font-size="10.00">doris::vectorized::</text>
<text text-anchor="middle" x="479" y="-163" font-family="Helvetica,sans-Serif" font-size="10.00">PODArrayBase::capacity</text>
</a>
</g>
</g>
<!-- Node8&#45;&gt;Node9 -->
<g id="edge8" class="edge">
<title>Node8&#45;&gt;Node9</title>
<path fill="none" stroke="#63b8ff" d="M378.49,-171C386.7,-171 395.21,-171 403.63,-171"/>
<polygon fill="#63b8ff" stroke="#63b8ff" points="403.51,-174.5 413.51,-171 403.51,-167.5 403.51,-174.5"/>
</g>
<!-- Node10 -->
<g id="node10" class="node">
<title>Node10</title>
<g id="a_node10"><a xlink:href="../../d5/d9d/classdoris_1_1vectorized_1_1_p_o_d_array_base.html#aa0ed9240c71cb15ddd75f2ebfae30c69" target="_top" xlink:title="Minimum amount of memory to allocate for num_elements, including padding.">
<polygon fill="white" stroke="#666666" points="544,-137.5 414,-137.5 414,-96.5 544,-96.5 544,-137.5"/>
<text text-anchor="start" x="422" y="-125.5" font-family="Helvetica,sans-Serif" font-size="10.00">doris::vectorized::</text>
<text text-anchor="start" x="422" y="-114.5" font-family="Helvetica,sans-Serif" font-size="10.00">PODArrayBase::minimum</text>
<text text-anchor="middle" x="479" y="-103.5" font-family="Helvetica,sans-Serif" font-size="10.00">_memory_for_elements</text>
</a>
</g>
</g>
<!-- Node8&#45;&gt;Node10 -->
<g id="edge9" class="edge">
<title>Node8&#45;&gt;Node10</title>
<path fill="none" stroke="#63b8ff" d="M363.85,-155.53C376.8,-151.15 391.22,-146.29 405.34,-141.52"/>
<polygon fill="#63b8ff" stroke="#63b8ff" points="406.25,-144.91 414.61,-138.4 404.01,-138.28 406.25,-144.91"/>
</g>
<!-- Node12 -->
<g id="node12" class="node">
<title>Node12</title>
<g id="a_node12"><a xlink:href="../../d5/d9d/classdoris_1_1vectorized_1_1_p_o_d_array_base.html#a9001e08f14a42d556978c322450da2f7" target="_top" xlink:title=" ">
<polygon fill="white" stroke="#666666" points="538.5,-78 419.5,-78 419.5,-48 538.5,-48 538.5,-78"/>
<text text-anchor="start" x="427.5" y="-66" font-family="Helvetica,sans-Serif" font-size="10.00">doris::vectorized::</text>
<text text-anchor="middle" x="479" y="-55" font-family="Helvetica,sans-Serif" font-size="10.00">PODArrayBase::realloc</text>
</a>
</g>
</g>
<!-- Node8&#45;&gt;Node12 -->
<g id="edge11" class="edge">
<title>Node8&#45;&gt;Node12</title>
<path fill="none" stroke="#63b8ff" d="M332.36,-155.74C350.12,-137.6 381.93,-107.34 414,-88 416.73,-86.35 419.59,-84.78 422.51,-83.28"/>
<polygon fill="#63b8ff" stroke="#63b8ff" points="423.76,-86.56 431.29,-79.12 420.76,-80.24 423.76,-86.56"/>
</g>
<!-- Node17 -->
<g id="node17" class="node">
<title>Node17</title>
<g id="a_node17"><a xlink:href="../../dc/da2/bit__helpers_8h.html#ae2948c0075b86f9ca20fc36610b4aca8" target="_top" xlink:title=" ">
<polygon fill="white" stroke="#666666" points="536.5,-234 421.5,-234 421.5,-204 536.5,-204 536.5,-234"/>
<text text-anchor="start" x="429.5" y="-222" font-family="Helvetica,sans-Serif" font-size="10.00">round_up_to_power_of</text>
<text text-anchor="middle" x="479" y="-211" font-family="Helvetica,sans-Serif" font-size="10.00">_two_or_zero</text>
</a>
</g>
</g>
<!-- Node8&#45;&gt;Node17 -->
<g id="edge16" class="edge">
<title>Node8&#45;&gt;Node17</title>
<path fill="none" stroke="#63b8ff" d="M369.51,-186.45C384.21,-190.86 400.39,-195.72 415.66,-200.3"/>
<polygon fill="#63b8ff" stroke="#63b8ff" points="414.56,-203.62 425.14,-203.14 416.57,-196.92 414.56,-203.62"/>
</g>
<!-- Node11 -->
<g id="node11" class="node">
<title>Node11</title>
<g id="a_node11"><a xlink:href="../../d5/d9d/classdoris_1_1vectorized_1_1_p_o_d_array_base.html#a4fd871ea772d3f22957ed8dd6a0aebb6" target="_top" xlink:title="Does not include pad_right.">
<polygon fill="white" stroke="#666666" points="725,-225 593,-225 593,-195 725,-195 725,-225"/>
<text text-anchor="start" x="601" y="-213" font-family="Helvetica,sans-Serif" font-size="10.00">doris::vectorized::</text>
<text text-anchor="middle" x="659" y="-202" font-family="Helvetica,sans-Serif" font-size="10.00">PODArrayBase::byte_size</text>
</a>
</g>
</g>
<!-- Node10&#45;&gt;Node11 -->
<g id="edge10" class="edge">
<title>Node10&#45;&gt;Node11</title>
<path fill="none" stroke="#63b8ff" d="M525.63,-137.94C531.84,-140.91 538.1,-143.99 544,-147 570.26,-160.39 599.33,-176.48 621.55,-189.05"/>
<polygon fill="#63b8ff" stroke="#63b8ff" points="619.81,-192.08 630.23,-193.98 623.27,-186 619.81,-192.08"/>
</g>
<!-- Node13 -->
<g id="node13" class="node">
<title>Node13</title>
<g id="a_node13"><a xlink:href="../../d5/d9d/classdoris_1_1vectorized_1_1_p_o_d_array_base.html#a0e716713ea1a6de012c8830d8ef03ca9" target="_top" xlink:title=" ">
<polygon fill="white" stroke="#666666" points="714,-78 604,-78 604,-48 714,-48 714,-78"/>
<text text-anchor="start" x="612" y="-66" font-family="Helvetica,sans-Serif" font-size="10.00">doris::vectorized::</text>
<text text-anchor="middle" x="659" y="-55" font-family="Helvetica,sans-Serif" font-size="10.00">PODArrayBase::alloc</text>
</a>
</g>
</g>
<!-- Node12&#45;&gt;Node13 -->
<g id="edge12" class="edge">
<title>Node12&#45;&gt;Node13</title>
<path fill="none" stroke="#63b8ff" d="M538.78,-63C555.89,-63 574.69,-63 592.21,-63"/>
<polygon fill="#63b8ff" stroke="#63b8ff" points="591.99,-66.5 601.99,-63 591.99,-59.5 591.99,-66.5"/>
</g>
<!-- Node14 -->
<g id="node14" class="node">
<title>Node14</title>
<g id="a_node14"><a xlink:href="../../d5/d9d/classdoris_1_1vectorized_1_1_p_o_d_array_base.html#acd47db4f184c2a88c3c8eee3406d13db" target="_top" xlink:title="This method is safe to use only for information about memory usage.">
<polygon fill="white" stroke="#666666" points="738,-30 580,-30 580,0 738,0 738,-30"/>
<text text-anchor="start" x="588" y="-18" font-family="Helvetica,sans-Serif" font-size="10.00">doris::vectorized::</text>
<text text-anchor="middle" x="659" y="-7" font-family="Helvetica,sans-Serif" font-size="10.00">PODArrayBase::allocated_bytes</text>
</a>
</g>
</g>
<!-- Node12&#45;&gt;Node14 -->
<g id="edge13" class="edge">
<title>Node12&#45;&gt;Node14</title>
<path fill="none" stroke="#63b8ff" d="M537.3,-47.55C554.13,-43.01 572.71,-38 590.13,-33.3"/>
<polygon fill="#63b8ff" stroke="#63b8ff" points="590.6,-36.8 599.35,-30.82 588.78,-30.04 590.6,-36.8"/>
</g>
<!-- Node15 -->
<g id="node15" class="node">
<title>Node15</title>
<g id="a_node15"><a xlink:href="../../d5/d9d/classdoris_1_1vectorized_1_1_p_o_d_array_base.html#a41d7b4a7908cc8905970d3d601d8634c" target="_top" xlink:title=" ">
<polygon fill="white" stroke="#666666" points="724.5,-126 593.5,-126 593.5,-96 724.5,-96 724.5,-126"/>
<text text-anchor="start" x="601.5" y="-114" font-family="Helvetica,sans-Serif" font-size="10.00">doris::vectorized::</text>
<text text-anchor="middle" x="659" y="-103" font-family="Helvetica,sans-Serif" font-size="10.00">PODArrayBase::unprotect</text>
</a>
</g>
</g>
<!-- Node12&#45;&gt;Node15 -->
<g id="edge14" class="edge">
<title>Node12&#45;&gt;Node15</title>
<path fill="none" stroke="#63b8ff" d="M537.3,-78.45C554.13,-82.99 572.71,-88 590.13,-92.7"/>
<polygon fill="#63b8ff" stroke="#63b8ff" points="588.78,-95.96 599.35,-95.18 590.6,-89.2 588.78,-95.96"/>
</g>
<!-- Node16 -->
<g id="node16" class="node">
<title>Node16</title>
<g id="a_node16"><a xlink:href="../../d5/d9d/classdoris_1_1vectorized_1_1_p_o_d_array_base.html#aabb38ffefd0c3a618756a9150e27a97a" target="_top" xlink:title=" ">
<polygon fill="white" stroke="#666666" points="917,-126 774,-126 774,-96 917,-96 917,-126"/>
<text text-anchor="start" x="782" y="-114" font-family="Helvetica,sans-Serif" font-size="10.00">doris::vectorized::</text>
<text text-anchor="middle" x="845.5" y="-103" font-family="Helvetica,sans-Serif" font-size="10.00">PODArrayBase::protect_impl</text>
</a>
</g>
</g>
<!-- Node15&#45;&gt;Node16 -->
<g id="edge15" class="edge">
<title>Node15&#45;&gt;Node16</title>
<path fill="none" stroke="#63b8ff" d="M724.79,-111C736.87,-111 749.65,-111 762.17,-111"/>
<polygon fill="#63b8ff" stroke="#63b8ff" points="762.07,-114.5 772.07,-111 762.07,-107.5 762.07,-114.5"/>
</g>
<!-- Node18&#45;&gt;Node11 -->
<g id="edge18" class="edge">
<title>Node18&#45;&gt;Node11</title>
<path fill="none" stroke="#63b8ff" d="M375.06,-256.92C421,-256.03 487.06,-252.88 544,-243 563.26,-239.66 583.89,-234.26 602.24,-228.79"/>
<polygon fill="#63b8ff" stroke="#63b8ff" points="603.06,-232.2 611.6,-225.93 601.01,-225.51 603.06,-232.2"/>
</g>
</g>
</svg>
