<?xml version="1.0" encoding="UTF-8" standalone="no"?>
<!DOCTYPE svg PUBLIC "-//W3C//DTD SVG 1.1//EN"
 "http://www.w3.org/Graphics/SVG/1.1/DTD/svg11.dtd">
<!-- Generated by graphviz version 7.1.0 (20230121.1956)
 -->
<!-- Title: compare_at Pages: 1 -->
<svg width="356pt" height="161pt"
 viewBox="0.00 0.00 356.00 160.50" xmlns="http://www.w3.org/2000/svg" xmlns:xlink="http://www.w3.org/1999/xlink">
<g id="graph0" class="graph" transform="scale(1 1) rotate(0) translate(4 156.5)">
<title>compare_at</title>
<!-- Node1 -->
<g id="node1" class="node">
<title>Node1</title>
<g id="a_node1"><a xlink:title=" ">
<polygon fill="#999999" stroke="#666666" points="68,-77 0,-77 0,-58 68,-58 68,-77"/>
<text text-anchor="middle" x="34" y="-65" font-family="Helvetica,sans-Serif" font-size="10.00">compare_at</text>
</a>
</g>
</g>
<!-- Node2 -->
<g id="node2" class="node">
<title>Node2</title>
<g id="a_node2"><a xlink:href="../../df/db2/classdoris_1_1vectorized_1_1_p_o_d_array.html#adc1e16b293a89a9ccc9541058b5ca560" target="_top" xlink:title=" ">
<polygon fill="white" stroke="#666666" points="208,-152.5 113,-152.5 113,-122.5 208,-122.5 208,-152.5"/>
<text text-anchor="start" x="121" y="-140.5" font-family="Helvetica,sans-Serif" font-size="10.00">doris::vectorized::</text>
<text text-anchor="middle" x="160.5" y="-129.5" font-family="Helvetica,sans-Serif" font-size="10.00">PODArray::data</text>
</a>
</g>
</g>
<!-- Node1&#45;&gt;Node2 -->
<g id="edge1" class="edge">
<title>Node1&#45;&gt;Node2</title>
<path fill="none" stroke="#63b8ff" d="M48.29,-77.41C61.87,-87.28 83.76,-102.5 104,-113.5 106.33,-114.77 108.75,-116.02 111.21,-117.25"/>
<polygon fill="#63b8ff" stroke="#63b8ff" points="109.55,-120.34 120.08,-121.48 112.56,-114.02 109.55,-120.34"/>
</g>
<!-- Node4 -->
<g id="node4" class="node">
<title>Node4</title>
<g id="a_node4"><a xlink:href="../../de/ddb/memcmp__small_8h.html#a552819c3aa82421fb409e9cd9723a28a" target="_top" xlink:title=" ">
<polygon fill="white" stroke="#666666" points="217,-104.5 104,-104.5 104,-74.5 217,-74.5 217,-104.5"/>
<text text-anchor="start" x="112" y="-92.5" font-family="Helvetica,sans-Serif" font-size="10.00">memcmp_small_allow</text>
<text text-anchor="middle" x="160.5" y="-81.5" font-family="Helvetica,sans-Serif" font-size="10.00">_overflow15</text>
</a>
</g>
</g>
<!-- Node1&#45;&gt;Node4 -->
<g id="edge3" class="edge">
<title>Node1&#45;&gt;Node4</title>
<path fill="none" stroke="#63b8ff" d="M68.36,-73.4C75.98,-74.74 84.33,-76.22 92.79,-77.71"/>
<polygon fill="#63b8ff" stroke="#63b8ff" points="91.98,-81.12 102.44,-79.42 93.2,-74.23 91.98,-81.12"/>
</g>
<!-- Node6 -->
<g id="node6" class="node">
<title>Node6</title>
<g id="a_node6"><a xlink:href="../../d7/d3c/classdoris_1_1vectorized_1_1_column_string.html#a14f5314566df04c129cfce44afe0d0a6" target="_top" xlink:title=" ">
<polygon fill="white" stroke="#666666" points="188,-56 133,-56 133,-37 188,-37 188,-56"/>
<text text-anchor="middle" x="160.5" y="-44" font-family="Helvetica,sans-Serif" font-size="10.00">offset_at</text>
</a>
</g>
</g>
<!-- Node1&#45;&gt;Node6 -->
<g id="edge5" class="edge">
<title>Node1&#45;&gt;Node6</title>
<path fill="none" stroke="#63b8ff" d="M68.36,-61.87C84.75,-59.11 104.57,-55.77 121.53,-52.9"/>
<polygon fill="#63b8ff" stroke="#63b8ff" points="121.97,-56.38 131.25,-51.26 120.81,-49.48 121.97,-56.38"/>
</g>
<!-- Node7 -->
<g id="node7" class="node">
<title>Node7</title>
<g id="a_node7"><a xlink:href="../../d7/d3c/classdoris_1_1vectorized_1_1_column_string.html#a726061f0a079c883725f5ae6efde4683" target="_top" xlink:title="Size of i&#45;th element, including terminating zero.">
<polygon fill="white" stroke="#666666" points="184.5,-19 136.5,-19 136.5,0 184.5,0 184.5,-19"/>
<text text-anchor="middle" x="160.5" y="-7" font-family="Helvetica,sans-Serif" font-size="10.00">size_at</text>
</a>
</g>
</g>
<!-- Node1&#45;&gt;Node7 -->
<g id="edge6" class="edge">
<title>Node1&#45;&gt;Node7</title>
<path fill="none" stroke="#63b8ff" d="M49.86,-57.65C63.51,-48.9 84.53,-36.19 104,-27.5 110.74,-24.49 118.14,-21.74 125.27,-19.34"/>
<polygon fill="#63b8ff" stroke="#63b8ff" points="126.23,-22.71 134.7,-16.33 124.1,-16.04 126.23,-22.71"/>
</g>
<!-- Node3 -->
<g id="node3" class="node">
<title>Node3</title>
<g id="a_node3"><a xlink:href="../../df/db2/classdoris_1_1vectorized_1_1_p_o_d_array.html#a8e612adde07f46d3398ac6962d676a66" target="_top" xlink:title=" ">
<polygon fill="white" stroke="#666666" points="348,-152.5 253,-152.5 253,-122.5 348,-122.5 348,-152.5"/>
<text text-anchor="start" x="261" y="-140.5" font-family="Helvetica,sans-Serif" font-size="10.00">doris::vectorized::</text>
<text text-anchor="middle" x="300.5" y="-129.5" font-family="Helvetica,sans-Serif" font-size="10.00">PODArray::t_start</text>
</a>
</g>
</g>
<!-- Node2&#45;&gt;Node3 -->
<g id="edge2" class="edge">
<title>Node2&#45;&gt;Node3</title>
<path fill="none" stroke="#63b8ff" d="M208.22,-137.5C218.9,-137.5 230.37,-137.5 241.46,-137.5"/>
<polygon fill="#63b8ff" stroke="#63b8ff" points="241.31,-141 251.31,-137.5 241.31,-134 241.31,-141"/>
</g>
<!-- Node5 -->
<g id="node5" class="node">
<title>Node5</title>
<g id="a_node5"><a xlink:href="../../dd/d39/namespacedetail.html#ac4d3e47a5d087029797a330862ed1d2f" target="_top" xlink:title=" ">
<polygon fill="white" stroke="#666666" points="333,-99 268,-99 268,-80 333,-80 333,-99"/>
<text text-anchor="middle" x="300.5" y="-87" font-family="Helvetica,sans-Serif" font-size="10.00">detail::cmp</text>
</a>
</g>
</g>
<!-- Node4&#45;&gt;Node5 -->
<g id="edge4" class="edge">
<title>Node4&#45;&gt;Node5</title>
<path fill="none" stroke="#63b8ff" d="M217.23,-89.5C230.27,-89.5 243.97,-89.5 256.36,-89.5"/>
<polygon fill="#63b8ff" stroke="#63b8ff" points="256.27,-93 266.27,-89.5 256.27,-86 256.27,-93"/>
</g>
</g>
</svg>
