<?xml version="1.0" encoding="UTF-8" standalone="no"?>
<!DOCTYPE svg PUBLIC "-//W3C//DTD SVG 1.1//EN"
 "http://www.w3.org/Graphics/SVG/1.1/DTD/svg11.dtd">
<!-- Generated by graphviz version 7.1.0 (20230121.1956)
 -->
<!-- Title: compare_internal Pages: 1 -->
<svg width="405pt" height="230pt"
 viewBox="0.00 0.00 405.00 230.00" xmlns="http://www.w3.org/2000/svg" xmlns:xlink="http://www.w3.org/1999/xlink">
<g id="graph0" class="graph" transform="scale(1 1) rotate(0) translate(4 226)">
<title>compare_internal</title>
<!-- Node1 -->
<g id="node1" class="node">
<title>Node1</title>
<g id="a_node1"><a xlink:title=" ">
<polygon fill="#999999" stroke="#666666" points="91,-123.5 0,-123.5 0,-104.5 91,-104.5 91,-123.5"/>
<text text-anchor="middle" x="45.5" y="-111.5" font-family="Helvetica,sans-Serif" font-size="10.00">compare_internal</text>
</a>
</g>
</g>
<!-- Node2 -->
<g id="node2" class="node">
<title>Node2</title>
<g id="a_node2"><a xlink:href="../../d7/d3c/classdoris_1_1vectorized_1_1_column_string.html#a8c9599def28c3eb67923819a630734eb" target="_top" xlink:title=" ">
<polygon fill="white" stroke="#666666" points="201,-216.5 166,-216.5 166,-197.5 201,-197.5 201,-216.5"/>
<text text-anchor="middle" x="183.5" y="-204.5" font-family="Helvetica,sans-Serif" font-size="10.00">filter</text>
</a>
</g>
</g>
<!-- Node1&#45;&gt;Node2 -->
<g id="edge1" class="edge">
<title>Node1&#45;&gt;Node2</title>
<path fill="none" stroke="#63b8ff" d="M54.61,-123.97C68.07,-139.89 96.54,-171.08 127,-189 135.47,-193.98 145.49,-197.78 154.68,-200.56"/>
<polygon fill="#63b8ff" stroke="#63b8ff" points="153.65,-203.91 164.21,-203.17 155.49,-197.16 153.65,-203.91"/>
</g>
<!-- Node4 -->
<g id="node4" class="node">
<title>Node4</title>
<g id="a_node4"><a xlink:href="../../d1/d97/namespacedoris_1_1simd.html#a820c97bed2ac08e6adf23ea625118e1b" target="_top" xlink:title=" ">
<polygon fill="white" stroke="#666666" points="237,-179.5 130,-179.5 130,-160.5 237,-160.5 237,-179.5"/>
<text text-anchor="middle" x="183.5" y="-167.5" font-family="Helvetica,sans-Serif" font-size="10.00">doris::simd::find_one</text>
</a>
</g>
</g>
<!-- Node1&#45;&gt;Node4 -->
<g id="edge3" class="edge">
<title>Node1&#45;&gt;Node4</title>
<path fill="none" stroke="#63b8ff" d="M65.71,-123.92C81.83,-132.03 105.59,-143.52 127,-152 130.8,-153.51 134.79,-154.99 138.8,-156.41"/>
<polygon fill="#63b8ff" stroke="#63b8ff" points="137.36,-159.62 147.95,-159.54 139.62,-152.99 137.36,-159.62"/>
</g>
<!-- Node5 -->
<g id="node5" class="node">
<title>Node5</title>
<g id="a_node5"><a xlink:href="../../d1/d97/namespacedoris_1_1simd.html#a96a0285bb88cd14e78068db1599e9fd3" target="_top" xlink:title=" ">
<polygon fill="white" stroke="#666666" points="238.5,-142.5 128.5,-142.5 128.5,-123.5 238.5,-123.5 238.5,-142.5"/>
<text text-anchor="middle" x="183.5" y="-130.5" font-family="Helvetica,sans-Serif" font-size="10.00">doris::simd::find_zero</text>
</a>
</g>
</g>
<!-- Node1&#45;&gt;Node5 -->
<g id="edge4" class="edge">
<title>Node1&#45;&gt;Node5</title>
<path fill="none" stroke="#63b8ff" d="M91.41,-120.27C99.59,-121.42 108.27,-122.63 116.9,-123.84"/>
<polygon fill="#63b8ff" stroke="#63b8ff" points="116.28,-127.28 126.67,-125.2 117.25,-120.35 116.28,-127.28"/>
</g>
<!-- Node6 -->
<g id="node6" class="node">
<title>Node6</title>
<g id="a_node6"><a xlink:href="../../d7/d3c/classdoris_1_1vectorized_1_1_column_string.html#aa5ffe3159fd5a196e7fb17d2b88a1e30" target="_top" xlink:title=" ">
<polygon fill="white" stroke="#666666" points="217.5,-105.5 149.5,-105.5 149.5,-86.5 217.5,-86.5 217.5,-105.5"/>
<text text-anchor="middle" x="183.5" y="-93.5" font-family="Helvetica,sans-Serif" font-size="10.00">get_data_at</text>
</a>
</g>
</g>
<!-- Node1&#45;&gt;Node6 -->
<g id="edge5" class="edge">
<title>Node1&#45;&gt;Node6</title>
<path fill="none" stroke="#63b8ff" d="M91.41,-108.06C106.45,-106.07 123.21,-103.85 138.2,-101.86"/>
<polygon fill="#63b8ff" stroke="#63b8ff" points="138.32,-105.38 147.77,-100.6 137.4,-98.44 138.32,-105.38"/>
</g>
<!-- Node8 -->
<g id="node8" class="node">
<title>Node8</title>
<g id="a_node8"><a xlink:href="../../d7/d3c/classdoris_1_1vectorized_1_1_column_string.html#ad7701a09a964eab360a8e51fa7ad2c16" target="_top" xlink:title=" ">
<polygon fill="white" stroke="#666666" points="354,-67.5 319,-67.5 319,-48.5 354,-48.5 354,-67.5"/>
<text text-anchor="middle" x="336.5" y="-55.5" font-family="Helvetica,sans-Serif" font-size="10.00">size</text>
</a>
</g>
</g>
<!-- Node1&#45;&gt;Node8 -->
<g id="edge11" class="edge">
<title>Node1&#45;&gt;Node8</title>
<path fill="none" stroke="#63b8ff" d="M64.11,-104.11C80.02,-95.67 104.35,-83.98 127,-78 189.93,-61.39 266.78,-58.23 307.33,-57.83"/>
<polygon fill="#63b8ff" stroke="#63b8ff" points="307.19,-61.33 317.18,-57.79 307.16,-54.33 307.19,-61.33"/>
</g>
<!-- Node10 -->
<g id="node10" class="node">
<title>Node10</title>
<g id="a_node10"><a xlink:href="../../de/ddb/memcmp__small_8h.html#a552819c3aa82421fb409e9cd9723a28a" target="_top" xlink:title=" ">
<polygon fill="white" stroke="#666666" points="240,-30 127,-30 127,0 240,0 240,-30"/>
<text text-anchor="start" x="135" y="-18" font-family="Helvetica,sans-Serif" font-size="10.00">memcmp_small_allow</text>
<text text-anchor="middle" x="183.5" y="-7" font-family="Helvetica,sans-Serif" font-size="10.00">_overflow15</text>
</a>
</g>
</g>
<!-- Node1&#45;&gt;Node10 -->
<g id="edge9" class="edge">
<title>Node1&#45;&gt;Node10</title>
<path fill="none" stroke="#63b8ff" d="M56.29,-104.12C70.85,-89.76 99.46,-62.79 127,-44 131.1,-41.2 135.51,-38.48 139.98,-35.89"/>
<polygon fill="#63b8ff" stroke="#63b8ff" points="141.39,-39.11 148.44,-31.21 138,-32.99 141.39,-39.11"/>
</g>
<!-- Node3 -->
<g id="node3" class="node">
<title>Node3</title>
<g id="a_node3"><a xlink:href="../../da/d30/class_c_o_w_helper.html#aa14023f47995d24ce0ea777e90a4cb23" target="_top" xlink:title=" ">
<polygon fill="white" stroke="#666666" points="397,-222 276,-222 276,-192 397,-192 397,-222"/>
<text text-anchor="start" x="284" y="-210" font-family="Helvetica,sans-Serif" font-size="10.00">COWHelper&lt; IColumn,</text>
<text text-anchor="middle" x="336.5" y="-199" font-family="Helvetica,sans-Serif" font-size="10.00"> ColumnString &gt;::create</text>
</a>
</g>
</g>
<!-- Node2&#45;&gt;Node3 -->
<g id="edge2" class="edge">
<title>Node2&#45;&gt;Node3</title>
<path fill="none" stroke="#63b8ff" d="M201.24,-207C216.68,-207 240.7,-207 264.18,-207"/>
<polygon fill="#63b8ff" stroke="#63b8ff" points="264.11,-210.5 274.11,-207 264.11,-203.5 264.11,-210.5"/>
</g>
<!-- Node7 -->
<g id="node7" class="node">
<title>Node7</title>
<g id="a_node7"><a xlink:href="../../d7/d3c/classdoris_1_1vectorized_1_1_column_string.html#a14f5314566df04c129cfce44afe0d0a6" target="_top" xlink:title=" ">
<polygon fill="white" stroke="#666666" points="364,-142.5 309,-142.5 309,-123.5 364,-123.5 364,-142.5"/>
<text text-anchor="middle" x="336.5" y="-130.5" font-family="Helvetica,sans-Serif" font-size="10.00">offset_at</text>
</a>
</g>
</g>
<!-- Node6&#45;&gt;Node7 -->
<g id="edge6" class="edge">
<title>Node6&#45;&gt;Node7</title>
<path fill="none" stroke="#63b8ff" d="M217.64,-104.12C241.32,-109.92 273.23,-117.74 297.87,-123.78"/>
<polygon fill="#63b8ff" stroke="#63b8ff" points="296.95,-127.16 307.5,-126.14 298.62,-120.36 296.95,-127.16"/>
</g>
<!-- Node6&#45;&gt;Node8 -->
<g id="edge7" class="edge">
<title>Node6&#45;&gt;Node8</title>
<path fill="none" stroke="#63b8ff" d="M217.64,-87.66C244.62,-80.87 282.27,-71.4 307.7,-65"/>
<polygon fill="#63b8ff" stroke="#63b8ff" points="308.46,-68.41 317.3,-62.58 306.75,-61.63 308.46,-68.41"/>
</g>
<!-- Node9 -->
<g id="node9" class="node">
<title>Node9</title>
<g id="a_node9"><a xlink:href="../../d7/d3c/classdoris_1_1vectorized_1_1_column_string.html#a726061f0a079c883725f5ae6efde4683" target="_top" xlink:title="Size of i&#45;th element, including terminating zero.">
<polygon fill="white" stroke="#666666" points="360.5,-105.5 312.5,-105.5 312.5,-86.5 360.5,-86.5 360.5,-105.5"/>
<text text-anchor="middle" x="336.5" y="-93.5" font-family="Helvetica,sans-Serif" font-size="10.00">size_at</text>
</a>
</g>
</g>
<!-- Node6&#45;&gt;Node9 -->
<g id="edge8" class="edge">
<title>Node6&#45;&gt;Node9</title>
<path fill="none" stroke="#63b8ff" d="M217.64,-96C242.26,-96 275.76,-96 300.76,-96"/>
<polygon fill="#63b8ff" stroke="#63b8ff" points="300.76,-99.5 310.76,-96 300.76,-92.5 300.76,-99.5"/>
</g>
<!-- Node11 -->
<g id="node11" class="node">
<title>Node11</title>
<g id="a_node11"><a xlink:href="../../dd/d39/namespacedetail.html#ac4d3e47a5d087029797a330862ed1d2f" target="_top" xlink:title=" ">
<polygon fill="white" stroke="#666666" points="369,-24.5 304,-24.5 304,-5.5 369,-5.5 369,-24.5"/>
<text text-anchor="middle" x="336.5" y="-12.5" font-family="Helvetica,sans-Serif" font-size="10.00">detail::cmp</text>
</a>
</g>
</g>
<!-- Node10&#45;&gt;Node11 -->
<g id="edge10" class="edge">
<title>Node10&#45;&gt;Node11</title>
<path fill="none" stroke="#63b8ff" d="M240.3,-15C257.47,-15 276.1,-15 292.29,-15"/>
<polygon fill="#63b8ff" stroke="#63b8ff" points="292.08,-18.5 302.08,-15 292.08,-11.5 292.08,-18.5"/>
</g>
</g>
</svg>
