<?xml version="1.0" encoding="UTF-8" standalone="no"?>
<!DOCTYPE svg PUBLIC "-//W3C//DTD SVG 1.1//EN"
 "http://www.w3.org/Graphics/SVG/1.1/DTD/svg11.dtd">
<!-- Generated by graphviz version 7.1.0 (20230121.1956)
 -->
<!-- Title: get_task_state Pages: 1 -->
<svg width="418pt" height="27pt"
 viewBox="0.00 0.00 418.00 27.00" xmlns="http://www.w3.org/2000/svg" xmlns:xlink="http://www.w3.org/1999/xlink">
<g id="graph0" class="graph" transform="scale(1 1) rotate(0) translate(4 23)">
<title>get_task_state</title>
<!-- Node1 -->
<g id="node1" class="node">
<title>Node1</title>
<g id="a_node1"><a xlink:title=" ">
<polygon fill="#999999" stroke="#666666" points="410,-19 329,-19 329,0 410,0 410,-19"/>
<text text-anchor="middle" x="369.5" y="-7" font-family="Helvetica,sans-Serif" font-size="10.00">get_task_state</text>
</a>
</g>
</g>
<!-- Node2 -->
<g id="node2" class="node">
<title>Node2</title>
<g id="a_node2"><a xlink:href="../../d8/d71/classdoris_1_1_export_task_mgr.html#a50aaeb78f0cc0ab29b0109523b5a7899" target="_top" xlink:title=" ">
<polygon fill="white" stroke="#666666" points="293,-19 203,-19 203,0 293,0 293,-19"/>
<text text-anchor="middle" x="248" y="-7" font-family="Helvetica,sans-Serif" font-size="10.00">report_to_master</text>
</a>
</g>
</g>
<!-- Node1&#45;&gt;Node2 -->
<g id="edge1" class="edge">
<title>Node1&#45;&gt;Node2</title>
<path fill="none" stroke="#63b8ff" d="M317.47,-9.5C309.38,-9.5 301.07,-9.5 293.15,-9.5"/>
<polygon fill="#63b8ff" stroke="#63b8ff" points="317.19,-13 327.19,-9.5 317.19,-6 317.19,-13"/>
</g>
<!-- Node3 -->
<g id="node3" class="node">
<title>Node3</title>
<g id="a_node3"><a xlink:href="../../d8/d71/classdoris_1_1_export_task_mgr.html#a42e13455ac0839b1235df270eadd5cbc" target="_top" xlink:title=" ">
<polygon fill="white" stroke="#666666" points="167,-19 96,-19 96,0 167,0 167,-19"/>
<text text-anchor="middle" x="131.5" y="-7" font-family="Helvetica,sans-Serif" font-size="10.00">finalize_task</text>
</a>
</g>
</g>
<!-- Node2&#45;&gt;Node3 -->
<g id="edge2" class="edge">
<title>Node2&#45;&gt;Node3</title>
<path fill="none" stroke="#63b8ff" d="M191.32,-9.5C183.18,-9.5 174.99,-9.5 167.42,-9.5"/>
<polygon fill="#63b8ff" stroke="#63b8ff" points="191.22,-13 201.22,-9.5 191.22,-6 191.22,-13"/>
</g>
<!-- Node4 -->
<g id="node4" class="node">
<title>Node4</title>
<g id="a_node4"><a xlink:href="../../d8/d71/classdoris_1_1_export_task_mgr.html#ae9cf41451ebf9a2b4eaa11554c661d53" target="_top" xlink:title=" ">
<polygon fill="white" stroke="#666666" points="60,-19 0,-19 0,0 60,0 60,-19"/>
<text text-anchor="middle" x="30" y="-7" font-family="Helvetica,sans-Serif" font-size="10.00">start_task</text>
</a>
</g>
</g>
<!-- Node3&#45;&gt;Node4 -->
<g id="edge3" class="edge">
<title>Node3&#45;&gt;Node4</title>
<path fill="none" stroke="#63b8ff" d="M84.33,-9.5C76.17,-9.5 67.87,-9.5 60.34,-9.5"/>
<polygon fill="#63b8ff" stroke="#63b8ff" points="84.19,-13 94.19,-9.5 84.19,-6 84.19,-13"/>
</g>
</g>
</svg>
