<?xml version="1.0" encoding="UTF-8" standalone="no"?>
<!DOCTYPE svg PUBLIC "-//W3C//DTD SVG 1.1//EN"
 "http://www.w3.org/Graphics/SVG/1.1/DTD/svg11.dtd">
<!-- Generated by graphviz version 7.1.0 (20230121.1956)
 -->
<!-- Title: to_string Pages: 1 -->
<svg width="430pt" height="750pt"
 viewBox="0.00 0.00 430.00 749.50" xmlns="http://www.w3.org/2000/svg" xmlns:xlink="http://www.w3.org/1999/xlink">
<g id="graph0" class="graph" transform="scale(1 1) rotate(0) translate(4 745.5)">
<title>to_string</title>
<!-- Node1 -->
<g id="node1" class="node">
<title>Node1</title>
<g id="a_node1"><a xlink:title=" ">
<polygon fill="#999999" stroke="#666666" points="54,-377.5 0,-377.5 0,-358.5 54,-358.5 54,-377.5"/>
<text text-anchor="middle" x="27" y="-365.5" font-family="Helvetica,sans-Serif" font-size="10.00">to_string</text>
</a>
</g>
</g>
<!-- Node2 -->
<g id="node2" class="node">
<title>Node2</title>
<g id="a_node2"><a xlink:href="../../da/dde/classdoris_1_1vectorized_1_1_i_column.html#ad9be36102a53410151a9889c4686fb4d" target="_top" xlink:title=" ">
<polygon fill="white" stroke="#666666" points="215,-733.5 104,-733.5 104,-692.5 215,-692.5 215,-733.5"/>
<text text-anchor="start" x="112" y="-721.5" font-family="Helvetica,sans-Serif" font-size="10.00">doris::vectorized::</text>
<text text-anchor="start" x="112" y="-710.5" font-family="Helvetica,sans-Serif" font-size="10.00">IColumn::convert_to</text>
<text text-anchor="middle" x="159.5" y="-699.5" font-family="Helvetica,sans-Serif" font-size="10.00">_full_column_if_const</text>
</a>
</g>
</g>
<!-- Node1&#45;&gt;Node2 -->
<g id="edge1" class="edge">
<title>Node1&#45;&gt;Node2</title>
<path fill="none" stroke="#63b8ff" d="M27.56,-377.96C26.28,-417.76 26.09,-568.02 90,-665 95.11,-672.76 101.95,-679.63 109.32,-685.59"/>
<polygon fill="#63b8ff" stroke="#63b8ff" points="106.83,-688.09 116.95,-691.25 111,-682.47 106.83,-688.09"/>
</g>
<!-- Node4 -->
<g id="node4" class="node">
<title>Node4</title>
<g id="a_node4"><a xlink:href="../../d3/d1e/namespacedoris_1_1vectorized.html#ad96ef103991e343886db3cf325e8a1cf" target="_top" xlink:title=" ">
<polygon fill="white" stroke="#666666" points="208.5,-656 110.5,-656 110.5,-626 208.5,-626 208.5,-656"/>
<text text-anchor="start" x="118.5" y="-644" font-family="Helvetica,sans-Serif" font-size="10.00">doris::vectorized::</text>
<text text-anchor="middle" x="159.5" y="-633" font-family="Helvetica,sans-Serif" font-size="10.00">get_decimal_value</text>
</a>
</g>
</g>
<!-- Node1&#45;&gt;Node4 -->
<g id="edge3" class="edge">
<title>Node1&#45;&gt;Node4</title>
<path fill="none" stroke="#63b8ff" d="M31.48,-377.86C40.26,-402.47 64.47,-468.4 90,-521 106.42,-554.84 128.43,-592.24 143.01,-616.15"/>
<polygon fill="#63b8ff" stroke="#63b8ff" points="139.95,-617.85 148.17,-624.53 145.91,-614.18 139.95,-617.85"/>
</g>
<!-- Node7 -->
<g id="node7" class="node">
<title>Node7</title>
<g id="a_node7"><a xlink:href="../../d2/d24/structdoris_1_1vectorized_1_1_which_data_type.html#a3282696af0b40142b6739be5f194a236" target="_top" xlink:title=" ">
<polygon fill="white" stroke="#666666" points="229,-512 90,-512 90,-482 229,-482 229,-512"/>
<text text-anchor="start" x="98" y="-500" font-family="Helvetica,sans-Serif" font-size="10.00">doris::vectorized::</text>
<text text-anchor="middle" x="159.5" y="-489" font-family="Helvetica,sans-Serif" font-size="10.00">WhichDataType::is_decimal</text>
</a>
</g>
</g>
<!-- Node1&#45;&gt;Node7 -->
<g id="edge6" class="edge">
<title>Node1&#45;&gt;Node7</title>
<path fill="none" stroke="#63b8ff" d="M37.81,-377.7C58.31,-397.96 106.19,-445.29 135.1,-473.87"/>
<polygon fill="#63b8ff" stroke="#63b8ff" points="132.41,-476.13 141.99,-480.68 137.33,-471.16 132.41,-476.13"/>
</g>
<!-- Node12 -->
<g id="node12" class="node">
<title>Node12</title>
<g id="a_node12"><a xlink:href="../../d2/d24/structdoris_1_1vectorized_1_1_which_data_type.html#a8d0162c59154f981d7850a40e898283d" target="_top" xlink:title=" ">
<polygon fill="white" stroke="#666666" points="224,-388.5 95,-388.5 95,-347.5 224,-347.5 224,-388.5"/>
<text text-anchor="start" x="103" y="-376.5" font-family="Helvetica,sans-Serif" font-size="10.00">doris::vectorized::</text>
<text text-anchor="start" x="103" y="-365.5" font-family="Helvetica,sans-Serif" font-size="10.00">WhichDataType::is_string</text>
<text text-anchor="middle" x="159.5" y="-354.5" font-family="Helvetica,sans-Serif" font-size="10.00">_or_fixed_string</text>
</a>
</g>
</g>
<!-- Node1&#45;&gt;Node12 -->
<g id="edge11" class="edge">
<title>Node1&#45;&gt;Node12</title>
<path fill="none" stroke="#63b8ff" d="M54.41,-368C63,-368 72.99,-368 83.33,-368"/>
<polygon fill="#63b8ff" stroke="#63b8ff" points="83.12,-371.5 93.12,-368 83.12,-364.5 83.12,-371.5"/>
</g>
<!-- Node15 -->
<g id="node15" class="node">
<title>Node15</title>
<g id="a_node15"><a xlink:href="../../d3/d1e/namespacedoris_1_1vectorized.html#a174d35d751f410a19f4bfe649d3cc3a4" target="_top" xlink:title=" ">
<polygon fill="white" stroke="#666666" points="207,-284 112,-284 112,-254 207,-254 207,-284"/>
<text text-anchor="start" x="120" y="-272" font-family="Helvetica,sans-Serif" font-size="10.00">doris::vectorized::</text>
<text text-anchor="middle" x="159.5" y="-261" font-family="Helvetica,sans-Serif" font-size="10.00">remove_nullable</text>
</a>
</g>
</g>
<!-- Node1&#45;&gt;Node15 -->
<g id="edge14" class="edge">
<title>Node1&#45;&gt;Node15</title>
<path fill="none" stroke="#63b8ff" d="M40.99,-358.15C61.49,-342.59 101.87,-311.96 129.51,-290.99"/>
<polygon fill="#63b8ff" stroke="#63b8ff" points="131.3,-294.03 137.15,-285.2 127.07,-288.45 131.3,-294.03"/>
</g>
<!-- Node19 -->
<g id="node19" class="node">
<title>Node19</title>
<g id="a_node19"><a xlink:href="../../d1/d52/classdoris_1_1_decimal_v2_value.html#a2f8c615ad682e3bb1ceb8eb97d51fc4c" target="_top" xlink:title=" ">
<polygon fill="white" stroke="#666666" points="217.5,-148 101.5,-148 101.5,-118 217.5,-118 217.5,-148"/>
<text text-anchor="start" x="109.5" y="-136" font-family="Helvetica,sans-Serif" font-size="10.00">doris::DecimalV2Value</text>
<text text-anchor="middle" x="159.5" y="-125" font-family="Helvetica,sans-Serif" font-size="10.00">::to_string</text>
</a>
</g>
</g>
<!-- Node1&#45;&gt;Node19 -->
<g id="edge18" class="edge">
<title>Node1&#45;&gt;Node19</title>
<path fill="none" stroke="#63b8ff" d="M32.56,-358.29C42.48,-337.33 66.97,-286.37 90,-245 107.01,-214.43 128.25,-180.26 142.53,-157.79"/>
<polygon fill="#63b8ff" stroke="#63b8ff" points="145.31,-159.93 147.75,-149.62 139.42,-156.16 145.31,-159.93"/>
</g>
<!-- Node24 -->
<g id="node24" class="node">
<title>Node24</title>
<g id="a_node24"><a xlink:href="../../d6/d4e/classdoris_1_1vectorized_1_1_buffer_writable.html#a080e53a8a2f532c9ac2fb1ea9d49ab41" target="_top" xlink:title=" ">
<polygon fill="white" stroke="#666666" points="212,-100 107,-100 107,-70 212,-70 212,-100"/>
<text text-anchor="start" x="115" y="-88" font-family="Helvetica,sans-Serif" font-size="10.00">doris::vectorized::</text>
<text text-anchor="middle" x="159.5" y="-77" font-family="Helvetica,sans-Serif" font-size="10.00">BufferWritable::write</text>
</a>
</g>
</g>
<!-- Node1&#45;&gt;Node24 -->
<g id="edge23" class="edge">
<title>Node1&#45;&gt;Node24</title>
<path fill="none" stroke="#63b8ff" d="M29.1,-358.11C34.05,-315.4 55.45,-147.26 90,-109 92.1,-106.67 94.45,-104.56 96.97,-102.66"/>
<polygon fill="#63b8ff" stroke="#63b8ff" points="98.76,-105.67 105.43,-97.43 95.08,-99.71 98.76,-105.67"/>
</g>
<!-- Node3 -->
<g id="node3" class="node">
<title>Node3</title>
<g id="a_node3"><a xlink:href="../../da/db7/class_c_o_w.html#acedef9a1098c617ad7cce08beda367d5" target="_top" xlink:title=" ">
<polygon fill="white" stroke="#666666" points="409.5,-741.5 277.5,-741.5 277.5,-722.5 409.5,-722.5 409.5,-741.5"/>
<text text-anchor="middle" x="343.5" y="-729.5" font-family="Helvetica,sans-Serif" font-size="10.00">COW&lt; IColumn &gt;::get_ptr</text>
</a>
</g>
</g>
<!-- Node2&#45;&gt;Node3 -->
<g id="edge2" class="edge">
<title>Node2&#45;&gt;Node3</title>
<path fill="none" stroke="#63b8ff" d="M215.11,-718.7C231.08,-720.37 248.85,-722.22 265.92,-724.01"/>
<polygon fill="#63b8ff" stroke="#63b8ff" points="265.2,-727.45 275.51,-725.01 265.93,-720.49 265.2,-727.45"/>
</g>
<!-- Node5 -->
<g id="node5" class="node">
<title>Node5</title>
<g id="a_node5"><a xlink:href="../../da/dde/classdoris_1_1vectorized_1_1_i_column.html#ac276c99b237c085b9717447709dedb45" target="_top" xlink:title=" ">
<polygon fill="white" stroke="#666666" points="398.5,-704 288.5,-704 288.5,-674 398.5,-674 398.5,-704"/>
<text text-anchor="start" x="296.5" y="-692" font-family="Helvetica,sans-Serif" font-size="10.00">doris::vectorized::</text>
<text text-anchor="middle" x="343.5" y="-681" font-family="Helvetica,sans-Serif" font-size="10.00">IColumn::get_data_at</text>
</a>
</g>
</g>
<!-- Node4&#45;&gt;Node5 -->
<g id="edge4" class="edge">
<title>Node4&#45;&gt;Node5</title>
<path fill="none" stroke="#63b8ff" d="M208.79,-653.74C229.79,-659.27 254.71,-665.85 277.31,-671.81"/>
<polygon fill="#63b8ff" stroke="#63b8ff" points="276.17,-675.13 286.73,-674.29 277.95,-668.36 276.17,-675.13"/>
</g>
<!-- Node6 -->
<g id="node6" class="node">
<title>Node6</title>
<g id="a_node6"><a xlink:href="../../da/dde/classdoris_1_1vectorized_1_1_i_column.html#adf7bb7bb5661fd4437db8a5c333444b2" target="_top" xlink:title="Various properties on behaviour of column type.">
<polygon fill="white" stroke="#666666" points="396,-656 291,-656 291,-626 396,-626 396,-656"/>
<text text-anchor="start" x="299" y="-644" font-family="Helvetica,sans-Serif" font-size="10.00">doris::vectorized::</text>
<text text-anchor="middle" x="343.5" y="-633" font-family="Helvetica,sans-Serif" font-size="10.00">IColumn::is_nullable</text>
</a>
</g>
</g>
<!-- Node4&#45;&gt;Node6 -->
<g id="edge5" class="edge">
<title>Node4&#45;&gt;Node6</title>
<path fill="none" stroke="#63b8ff" d="M208.79,-641C230.42,-641 256.2,-641 279.33,-641"/>
<polygon fill="#63b8ff" stroke="#63b8ff" points="279.27,-644.5 289.27,-641 279.27,-637.5 279.27,-644.5"/>
</g>
<!-- Node8 -->
<g id="node8" class="node">
<title>Node8</title>
<g id="a_node8"><a xlink:href="../../d2/d24/structdoris_1_1vectorized_1_1_which_data_type.html#a9b8e79ea925891f830ab6cb55cb0db5b" target="_top" xlink:title=" ">
<polygon fill="white" stroke="#666666" points="421,-608 266,-608 266,-578 421,-578 421,-608"/>
<text text-anchor="start" x="274" y="-596" font-family="Helvetica,sans-Serif" font-size="10.00">doris::vectorized::</text>
<text text-anchor="middle" x="343.5" y="-585" font-family="Helvetica,sans-Serif" font-size="10.00">WhichDataType::is_decimal128</text>
</a>
</g>
</g>
<!-- Node7&#45;&gt;Node8 -->
<g id="edge7" class="edge">
<title>Node7&#45;&gt;Node8</title>
<path fill="none" stroke="#63b8ff" d="M179.06,-512.39C199.16,-528.42 232.69,-553.32 265,-569 268.23,-570.57 271.59,-572.06 275.01,-573.48"/>
<polygon fill="#63b8ff" stroke="#63b8ff" points="273.43,-576.62 284.02,-576.97 275.96,-570.09 273.43,-576.62"/>
</g>
<!-- Node9 -->
<g id="node9" class="node">
<title>Node9</title>
<g id="a_node9"><a xlink:href="../../d2/d24/structdoris_1_1vectorized_1_1_which_data_type.html#adc9e305988782a590ee182d722cf3f44" target="_top" xlink:title=" ">
<polygon fill="white" stroke="#666666" points="422,-560 265,-560 265,-530 422,-530 422,-560"/>
<text text-anchor="start" x="273" y="-548" font-family="Helvetica,sans-Serif" font-size="10.00">doris::vectorized::</text>
<text text-anchor="middle" x="343.5" y="-537" font-family="Helvetica,sans-Serif" font-size="10.00">WhichDataType::is_decimal128i</text>
</a>
</g>
</g>
<!-- Node7&#45;&gt;Node9 -->
<g id="edge8" class="edge">
<title>Node7&#45;&gt;Node9</title>
<path fill="none" stroke="#63b8ff" d="M219.09,-512.45C236.3,-516.99 255.29,-522 273.11,-526.7"/>
<polygon fill="#63b8ff" stroke="#63b8ff" points="272,-530.03 282.56,-529.19 273.78,-523.26 272,-530.03"/>
</g>
<!-- Node10 -->
<g id="node10" class="node">
<title>Node10</title>
<g id="a_node10"><a xlink:href="../../d2/d24/structdoris_1_1vectorized_1_1_which_data_type.html#a4fb7adc3d742b756e1c176033a5cb250" target="_top" xlink:title=" ">
<polygon fill="white" stroke="#666666" points="418,-512 269,-512 269,-482 418,-482 418,-512"/>
<text text-anchor="start" x="277" y="-500" font-family="Helvetica,sans-Serif" font-size="10.00">doris::vectorized::</text>
<text text-anchor="middle" x="343.5" y="-489" font-family="Helvetica,sans-Serif" font-size="10.00">WhichDataType::is_decimal32</text>
</a>
</g>
</g>
<!-- Node7&#45;&gt;Node10 -->
<g id="edge9" class="edge">
<title>Node7&#45;&gt;Node10</title>
<path fill="none" stroke="#63b8ff" d="M229.31,-497C238.47,-497 247.95,-497 257.34,-497"/>
<polygon fill="#63b8ff" stroke="#63b8ff" points="257.22,-500.5 267.22,-497 257.22,-493.5 257.22,-500.5"/>
</g>
<!-- Node11 -->
<g id="node11" class="node">
<title>Node11</title>
<g id="a_node11"><a xlink:href="../../d2/d24/structdoris_1_1vectorized_1_1_which_data_type.html#ac30acfe19b41cbee1bcd702322ddaefa" target="_top" xlink:title=" ">
<polygon fill="white" stroke="#666666" points="418,-464 269,-464 269,-434 418,-434 418,-464"/>
<text text-anchor="start" x="277" y="-452" font-family="Helvetica,sans-Serif" font-size="10.00">doris::vectorized::</text>
<text text-anchor="middle" x="343.5" y="-441" font-family="Helvetica,sans-Serif" font-size="10.00">WhichDataType::is_decimal64</text>
</a>
</g>
</g>
<!-- Node7&#45;&gt;Node11 -->
<g id="edge10" class="edge">
<title>Node7&#45;&gt;Node11</title>
<path fill="none" stroke="#63b8ff" d="M219.09,-481.55C236.3,-477.01 255.29,-472 273.11,-467.3"/>
<polygon fill="#63b8ff" stroke="#63b8ff" points="273.78,-470.74 282.56,-464.81 272,-463.97 273.78,-470.74"/>
</g>
<!-- Node13 -->
<g id="node13" class="node">
<title>Node13</title>
<g id="a_node13"><a xlink:href="../../d2/d24/structdoris_1_1vectorized_1_1_which_data_type.html#af0e8b06fd9ca2a7156cd7e2893976f37" target="_top" xlink:title=" ">
<polygon fill="white" stroke="#666666" points="406.5,-415.5 280.5,-415.5 280.5,-374.5 406.5,-374.5 406.5,-415.5"/>
<text text-anchor="start" x="288.5" y="-403.5" font-family="Helvetica,sans-Serif" font-size="10.00">doris::vectorized::</text>
<text text-anchor="start" x="288.5" y="-392.5" font-family="Helvetica,sans-Serif" font-size="10.00">WhichDataType::is_fixed</text>
<text text-anchor="middle" x="343.5" y="-381.5" font-family="Helvetica,sans-Serif" font-size="10.00">_string</text>
</a>
</g>
</g>
<!-- Node12&#45;&gt;Node13 -->
<g id="edge12" class="edge">
<title>Node12&#45;&gt;Node13</title>
<path fill="none" stroke="#63b8ff" d="M224.41,-377.48C238.86,-379.62 254.31,-381.92 269.11,-384.11"/>
<polygon fill="#63b8ff" stroke="#63b8ff" points="268.37,-387.54 278.78,-385.55 269.4,-380.62 268.37,-387.54"/>
</g>
<!-- Node14 -->
<g id="node14" class="node">
<title>Node14</title>
<g id="a_node14"><a xlink:href="../../d2/d24/structdoris_1_1vectorized_1_1_which_data_type.html#a4293e6e4ab9eedb048557be4900aa3af" target="_top" xlink:title=" ">
<polygon fill="white" stroke="#666666" points="408,-356 279,-356 279,-326 408,-326 408,-356"/>
<text text-anchor="start" x="287" y="-344" font-family="Helvetica,sans-Serif" font-size="10.00">doris::vectorized::</text>
<text text-anchor="middle" x="343.5" y="-333" font-family="Helvetica,sans-Serif" font-size="10.00">WhichDataType::is_string</text>
</a>
</g>
</g>
<!-- Node12&#45;&gt;Node14 -->
<g id="edge13" class="edge">
<title>Node12&#45;&gt;Node14</title>
<path fill="none" stroke="#63b8ff" d="M224.41,-358.52C238.31,-356.46 253.14,-354.26 267.43,-352.14"/>
<polygon fill="#63b8ff" stroke="#63b8ff" points="267.87,-355.61 277.25,-350.68 266.84,-348.69 267.87,-355.61"/>
</g>
<!-- Node16 -->
<g id="node16" class="node">
<title>Node16</title>
<g id="a_node16"><a xlink:href="../../da/d30/class_c_o_w_helper.html#aa14023f47995d24ce0ea777e90a4cb23" target="_top" xlink:title=" ">
<polygon fill="white" stroke="#666666" points="404.5,-308 282.5,-308 282.5,-278 404.5,-278 404.5,-308"/>
<text text-anchor="start" x="290.5" y="-296" font-family="Helvetica,sans-Serif" font-size="10.00">COWHelper&lt; IColumn,</text>
<text text-anchor="middle" x="343.5" y="-285" font-family="Helvetica,sans-Serif" font-size="10.00"> ColumnConst &gt;::create</text>
</a>
</g>
</g>
<!-- Node15&#45;&gt;Node16 -->
<g id="edge15" class="edge">
<title>Node15&#45;&gt;Node16</title>
<path fill="none" stroke="#63b8ff" d="M207.37,-275.18C226.65,-277.72 249.43,-280.73 270.73,-283.54"/>
<polygon fill="#63b8ff" stroke="#63b8ff" points="270.17,-286.99 280.54,-284.83 271.08,-280.05 270.17,-286.99"/>
</g>
<!-- Node17 -->
<g id="node17" class="node">
<title>Node17</title>
<g id="a_node17"><a xlink:href="../../d3/d1e/namespacedoris_1_1vectorized.html#a85dfa9ef8ec5a8555e00a9314d3a7f4d" target="_top" xlink:title="True if column&#39;s an ColumnConst instance. It&#39;s just a syntax sugar for type check.">
<polygon fill="white" stroke="#666666" points="391,-260 296,-260 296,-230 391,-230 391,-260"/>
<text text-anchor="start" x="304" y="-248" font-family="Helvetica,sans-Serif" font-size="10.00">doris::vectorized::</text>
<text text-anchor="middle" x="343.5" y="-237" font-family="Helvetica,sans-Serif" font-size="10.00">is_column_const</text>
</a>
</g>
</g>
<!-- Node15&#45;&gt;Node17 -->
<g id="edge16" class="edge">
<title>Node15&#45;&gt;Node17</title>
<path fill="none" stroke="#63b8ff" d="M207.37,-262.82C230.93,-259.71 259.71,-255.92 284.64,-252.63"/>
<polygon fill="#63b8ff" stroke="#63b8ff" points="284.83,-256.13 294.29,-251.36 283.92,-249.2 284.83,-256.13"/>
</g>
<!-- Node18 -->
<g id="node18" class="node">
<title>Node18</title>
<g id="a_node18"><a xlink:href="../../d3/d1e/namespacedoris_1_1vectorized.html#a53ba59a5e2f4e69160fec1ee139ff8df" target="_top" xlink:title="True if column&#39;s an ColumnNullable instance. It&#39;s just a syntax sugar for type check.">
<polygon fill="white" stroke="#666666" points="393,-212 294,-212 294,-182 393,-182 393,-212"/>
<text text-anchor="start" x="302" y="-200" font-family="Helvetica,sans-Serif" font-size="10.00">doris::vectorized::</text>
<text text-anchor="middle" x="343.5" y="-189" font-family="Helvetica,sans-Serif" font-size="10.00">is_column_nullable</text>
</a>
</g>
</g>
<!-- Node15&#45;&gt;Node18 -->
<g id="edge17" class="edge">
<title>Node15&#45;&gt;Node18</title>
<path fill="none" stroke="#63b8ff" d="M191.14,-253.64C211.73,-243.64 239.64,-230.7 265,-221 270.76,-218.8 276.81,-216.65 282.89,-214.6"/>
<polygon fill="#63b8ff" stroke="#63b8ff" points="283.95,-217.93 292.36,-211.49 281.77,-211.28 283.95,-217.93"/>
</g>
<!-- Node20 -->
<g id="node20" class="node">
<title>Node20</title>
<g id="a_node20"><a xlink:href="../../d6/d94/namespacedoris.html#a3e185a7a7ef1c3bff626a322b64986fb" target="_top" xlink:title=" ">
<polygon fill="white" stroke="#666666" points="373,-163.5 314,-163.5 314,-144.5 373,-144.5 373,-163.5"/>
<text text-anchor="middle" x="343.5" y="-151.5" font-family="Helvetica,sans-Serif" font-size="10.00">doris::abs</text>
</a>
</g>
</g>
<!-- Node19&#45;&gt;Node20 -->
<g id="edge19" class="edge">
<title>Node19&#45;&gt;Node20</title>
<path fill="none" stroke="#63b8ff" d="M217.59,-139.59C245.12,-142.76 277.5,-146.5 302.39,-149.37"/>
<polygon fill="#63b8ff" stroke="#63b8ff" points="301.76,-152.82 312.1,-150.49 302.56,-145.87 301.76,-152.82"/>
</g>
<!-- Node21 -->
<g id="node21" class="node">
<title>Node21</title>
<g id="a_node21"><a xlink:href="../../d1/d52/classdoris_1_1_decimal_v2_value.html#a89b910ab631c4066a9f2ecbdfa7e0a21" target="_top" xlink:title=" ">
<polygon fill="white" stroke="#666666" points="401.5,-126 285.5,-126 285.5,-96 401.5,-96 401.5,-126"/>
<text text-anchor="start" x="293.5" y="-114" font-family="Helvetica,sans-Serif" font-size="10.00">doris::DecimalV2Value</text>
<text text-anchor="middle" x="343.5" y="-103" font-family="Helvetica,sans-Serif" font-size="10.00">::frac_value</text>
</a>
</g>
</g>
<!-- Node19&#45;&gt;Node21 -->
<g id="edge20" class="edge">
<title>Node19&#45;&gt;Node21</title>
<path fill="none" stroke="#63b8ff" d="M217.59,-126.1C235.46,-123.94 255.36,-121.53 273.94,-119.29"/>
<polygon fill="#63b8ff" stroke="#63b8ff" points="274.29,-122.77 283.8,-118.1 273.45,-115.82 274.29,-122.77"/>
</g>
<!-- Node22 -->
<g id="node22" class="node">
<title>Node22</title>
<g id="a_node22"><a xlink:href="../../d1/d52/classdoris_1_1_decimal_v2_value.html#af2a6aa61c1849d3228b6bc659a7b0919" target="_top" xlink:title=" ">
<polygon fill="white" stroke="#666666" points="401.5,-78 285.5,-78 285.5,-48 401.5,-48 401.5,-78"/>
<text text-anchor="start" x="293.5" y="-66" font-family="Helvetica,sans-Serif" font-size="10.00">doris::DecimalV2Value</text>
<text text-anchor="middle" x="343.5" y="-55" font-family="Helvetica,sans-Serif" font-size="10.00">::int_value</text>
</a>
</g>
</g>
<!-- Node19&#45;&gt;Node22 -->
<g id="edge21" class="edge">
<title>Node19&#45;&gt;Node22</title>
<path fill="none" stroke="#63b8ff" d="M208.56,-117.62C215.51,-114.97 222.51,-112.08 229,-109 245.94,-100.97 247.91,-94.72 265,-87 268.57,-85.38 272.29,-83.84 276.07,-82.36"/>
<polygon fill="#63b8ff" stroke="#63b8ff" points="277.24,-85.66 285.42,-78.92 274.82,-79.09 277.24,-85.66"/>
</g>
<!-- Node23 -->
<g id="node23" class="node">
<title>Node23</title>
<g id="a_node23"><a xlink:href="../../d1/d52/classdoris_1_1_decimal_v2_value.html#a2a17b66cf1f72b4d254b41617322ce61" target="_top" xlink:title=" ">
<polygon fill="white" stroke="#666666" points="401.5,-30 285.5,-30 285.5,0 401.5,0 401.5,-30"/>
<text text-anchor="start" x="293.5" y="-18" font-family="Helvetica,sans-Serif" font-size="10.00">doris::DecimalV2Value</text>
<text text-anchor="middle" x="343.5" y="-7" font-family="Helvetica,sans-Serif" font-size="10.00">::scale</text>
</a>
</g>
</g>
<!-- Node19&#45;&gt;Node23 -->
<g id="edge22" class="edge">
<title>Node19&#45;&gt;Node23</title>
<path fill="none" stroke="#63b8ff" d="M216.39,-117.64C220.91,-115.17 225.2,-112.31 229,-109 255.38,-86.03 238.2,-61.49 265,-39 268.06,-36.43 271.39,-34.14 274.9,-32.09"/>
<polygon fill="#63b8ff" stroke="#63b8ff" points="276.45,-35.23 283.82,-27.62 273.31,-28.97 276.45,-35.23"/>
</g>
</g>
</svg>
