<?xml version="1.0" encoding="UTF-8" standalone="no"?>
<!DOCTYPE svg PUBLIC "-//W3C//DTD SVG 1.1//EN"
 "http://www.w3.org/Graphics/SVG/1.1/DTD/svg11.dtd">
<!-- Generated by graphviz version 7.1.0 (20230121.1956)
 -->
<!-- Title: /Users/dabowang/doris/be/src/runtime/user_function_cache.h Pages: 1 -->
<svg width="914pt" height="214pt"
 viewBox="0.00 0.00 914.00 214.00" xmlns="http://www.w3.org/2000/svg" xmlns:xlink="http://www.w3.org/1999/xlink">
<g id="graph0" class="graph" transform="scale(1 1) rotate(0) translate(4 210)">
<title>/Users/dabowang/doris/be/src/runtime/user_function_cache.h</title>
<!-- Node1 -->
<g id="node1" class="node">
<title>Node1</title>
<g id="a_node1"><a xlink:title=" ">
<polygon fill="#999999" stroke="#666666" points="517,-206 400,-206 400,-165 517,-165 517,-206"/>
<text text-anchor="start" x="408" y="-194" font-family="Helvetica,sans-Serif" font-size="10.00">/Users/dabowang/doris</text>
<text text-anchor="start" x="408" y="-183" font-family="Helvetica,sans-Serif" font-size="10.00">/be/src/runtime/user</text>
<text text-anchor="middle" x="458.5" y="-172" font-family="Helvetica,sans-Serif" font-size="10.00">_function_cache.h</text>
</a>
</g>
</g>
<!-- Node2 -->
<g id="node2" class="node">
<title>Node2</title>
<g id="a_node2"><a xlink:href="../../de/d2b/daemon_8cpp.html" target="_top" xlink:title=" ">
<polygon fill="white" stroke="#666666" points="143,-118 0,-118 0,-88 143,-88 143,-118"/>
<text text-anchor="start" x="8" y="-106" font-family="Helvetica,sans-Serif" font-size="10.00">/Users/dabowang/doris</text>
<text text-anchor="middle" x="71.5" y="-95" font-family="Helvetica,sans-Serif" font-size="10.00">/be/src/common/daemon.cpp</text>
</a>
</g>
</g>
<!-- Node1&#45;&gt;Node2 -->
<g id="edge1" class="edge">
<title>Node1&#45;&gt;Node2</title>
<path fill="none" stroke="#63b8ff" d="M388.46,-174.37C325.89,-164.73 231.97,-148.77 151.5,-129 139.35,-126.01 126.33,-122.21 114.4,-118.48"/>
<polygon fill="#63b8ff" stroke="#63b8ff" points="387.85,-177.82 398.27,-175.87 388.91,-170.9 387.85,-177.82"/>
</g>
<!-- Node3 -->
<g id="node3" class="node">
<title>Node3</title>
<g id="a_node3"><a xlink:href="../../d3/dbd/user__function__cache_8cpp.html" target="_top" xlink:title=" ">
<polygon fill="white" stroke="#666666" points="278,-123.5 161,-123.5 161,-82.5 278,-82.5 278,-123.5"/>
<text text-anchor="start" x="169" y="-111.5" font-family="Helvetica,sans-Serif" font-size="10.00">/Users/dabowang/doris</text>
<text text-anchor="start" x="169" y="-100.5" font-family="Helvetica,sans-Serif" font-size="10.00">/be/src/runtime/user</text>
<text text-anchor="middle" x="219.5" y="-89.5" font-family="Helvetica,sans-Serif" font-size="10.00">_function_cache.cpp</text>
</a>
</g>
</g>
<!-- Node1&#45;&gt;Node3 -->
<g id="edge2" class="edge">
<title>Node1&#45;&gt;Node3</title>
<path fill="none" stroke="#63b8ff" d="M389,-162.61C357.86,-152.63 320.75,-140.5 287.5,-129 282.86,-127.4 278.06,-125.7 273.25,-123.98"/>
<polygon fill="#63b8ff" stroke="#63b8ff" points="387.72,-165.88 398.31,-165.59 389.85,-159.21 387.72,-165.88"/>
</g>
<!-- Node4 -->
<g id="node4" class="node">
<title>Node4</title>
<g id="a_node4"><a xlink:href="../../d5/d79/aggregate__function__java__udaf_8h.html" target="_top" xlink:title=" ">
<polygon fill="white" stroke="#666666" points="443,-129 296,-129 296,-77 443,-77 443,-129"/>
<text text-anchor="start" x="304" y="-117" font-family="Helvetica,sans-Serif" font-size="10.00">/Users/dabowang/doris</text>
<text text-anchor="start" x="304" y="-106" font-family="Helvetica,sans-Serif" font-size="10.00">/be/src/vec/aggregate</text>
<text text-anchor="start" x="304" y="-95" font-family="Helvetica,sans-Serif" font-size="10.00">_functions/aggregate_function</text>
<text text-anchor="middle" x="369.5" y="-84" font-family="Helvetica,sans-Serif" font-size="10.00">_java_udaf.h</text>
</a>
</g>
</g>
<!-- Node1&#45;&gt;Node4 -->
<g id="edge3" class="edge">
<title>Node1&#45;&gt;Node4</title>
<path fill="none" stroke="#63b8ff" d="M428.14,-157.04C418.27,-148.11 407.35,-138.23 397.64,-129.45"/>
<polygon fill="#63b8ff" stroke="#63b8ff" points="425.61,-159.47 435.38,-163.59 430.31,-154.28 425.61,-159.47"/>
</g>
<!-- Node6 -->
<g id="node6" class="node">
<title>Node6</title>
<g id="a_node6"><a xlink:href="../../da/d78/aggregate__function__rpc_8h.html" target="_top" xlink:title=" ">
<polygon fill="white" stroke="#666666" points="635.5,-123.5 461.5,-123.5 461.5,-82.5 635.5,-82.5 635.5,-123.5"/>
<text text-anchor="start" x="469.5" y="-111.5" font-family="Helvetica,sans-Serif" font-size="10.00">/Users/dabowang/doris</text>
<text text-anchor="start" x="469.5" y="-100.5" font-family="Helvetica,sans-Serif" font-size="10.00">/be/src/vec/aggregate</text>
<text text-anchor="middle" x="548.5" y="-89.5" font-family="Helvetica,sans-Serif" font-size="10.00">_functions/aggregate_function_rpc.h</text>
</a>
</g>
</g>
<!-- Node1&#45;&gt;Node6 -->
<g id="edge5" class="edge">
<title>Node1&#45;&gt;Node6</title>
<path fill="none" stroke="#63b8ff" d="M489.25,-157C501.38,-146.15 515.05,-133.92 526.2,-123.95"/>
<polygon fill="#63b8ff" stroke="#63b8ff" points="487,-154.32 481.88,-163.59 491.66,-159.53 487,-154.32"/>
</g>
<!-- Node7 -->
<g id="node7" class="node">
<title>Node7</title>
<g id="a_node7"><a xlink:href="../../d5/de8/vjdbc__connector_8cpp.html" target="_top" xlink:title=" ">
<polygon fill="white" stroke="#666666" points="771,-123.5 654,-123.5 654,-82.5 771,-82.5 771,-123.5"/>
<text text-anchor="start" x="662" y="-111.5" font-family="Helvetica,sans-Serif" font-size="10.00">/Users/dabowang/doris</text>
<text text-anchor="start" x="662" y="-100.5" font-family="Helvetica,sans-Serif" font-size="10.00">/be/src/vec/exec/vjdbc</text>
<text text-anchor="middle" x="712.5" y="-89.5" font-family="Helvetica,sans-Serif" font-size="10.00">_connector.cpp</text>
</a>
</g>
</g>
<!-- Node1&#45;&gt;Node7 -->
<g id="edge7" class="edge">
<title>Node1&#45;&gt;Node7</title>
<path fill="none" stroke="#63b8ff" d="M528.05,-164.86C563.13,-154.68 606.25,-141.72 644.5,-129 649.27,-127.41 654.22,-125.71 659.16,-123.97"/>
<polygon fill="#63b8ff" stroke="#63b8ff" points="527.52,-161.37 518.89,-167.51 529.47,-168.1 527.52,-161.37"/>
</g>
<!-- Node8 -->
<g id="node8" class="node">
<title>Node8</title>
<g id="a_node8"><a xlink:href="../../dc/df7/function__java__udf_8cpp.html" target="_top" xlink:title=" ">
<polygon fill="white" stroke="#666666" points="906,-123.5 789,-123.5 789,-82.5 906,-82.5 906,-123.5"/>
<text text-anchor="start" x="797" y="-111.5" font-family="Helvetica,sans-Serif" font-size="10.00">/Users/dabowang/doris</text>
<text text-anchor="start" x="797" y="-100.5" font-family="Helvetica,sans-Serif" font-size="10.00">/be/src/vec/functions</text>
<text text-anchor="middle" x="847.5" y="-89.5" font-family="Helvetica,sans-Serif" font-size="10.00">/function_java_udf.cpp</text>
</a>
</g>
</g>
<!-- Node1&#45;&gt;Node8 -->
<g id="edge8" class="edge">
<title>Node1&#45;&gt;Node8</title>
<path fill="none" stroke="#63b8ff" d="M528.44,-176.27C594.22,-167.64 695.08,-152.08 780.5,-129 785.89,-127.54 791.46,-125.83 796.97,-123.98"/>
<polygon fill="#63b8ff" stroke="#63b8ff" points="528.35,-172.76 518.88,-177.51 529.25,-179.7 528.35,-172.76"/>
</g>
<!-- Node5 -->
<g id="node5" class="node">
<title>Node5</title>
<g id="a_node5"><a xlink:href="../../dc/dc5/vectorized__agg__fn_8cpp.html" target="_top" xlink:title=" ">
<polygon fill="white" stroke="#666666" points="528.5,-41 388.5,-41 388.5,0 528.5,0 528.5,-41"/>
<text text-anchor="start" x="396.5" y="-29" font-family="Helvetica,sans-Serif" font-size="10.00">/Users/dabowang/doris</text>
<text text-anchor="start" x="396.5" y="-18" font-family="Helvetica,sans-Serif" font-size="10.00">/be/src/vec/exprs/vectorized</text>
<text text-anchor="middle" x="458.5" y="-7" font-family="Helvetica,sans-Serif" font-size="10.00">_agg_fn.cpp</text>
</a>
</g>
</g>
<!-- Node4&#45;&gt;Node5 -->
<g id="edge4" class="edge">
<title>Node4&#45;&gt;Node5</title>
<path fill="none" stroke="#63b8ff" d="M406.12,-68.88C416.41,-59.57 427.29,-49.73 436.44,-41.45"/>
<polygon fill="#63b8ff" stroke="#63b8ff" points="403.85,-66.21 398.78,-75.51 408.55,-71.4 403.85,-66.21"/>
</g>
<!-- Node6&#45;&gt;Node5 -->
<g id="edge6" class="edge">
<title>Node6&#45;&gt;Node5</title>
<path fill="none" stroke="#63b8ff" d="M517.75,-74.5C505.62,-63.65 491.95,-51.42 480.8,-41.45"/>
<polygon fill="#63b8ff" stroke="#63b8ff" points="515.34,-77.03 525.12,-81.09 520,-71.82 515.34,-77.03"/>
</g>
</g>
</svg>
