<?xml version="1.0" encoding="UTF-8" standalone="no"?>
<!DOCTYPE svg PUBLIC "-//W3C//DTD SVG 1.1//EN"
 "http://www.w3.org/Graphics/SVG/1.1/DTD/svg11.dtd">
<!-- Generated by graphviz version 7.1.0 (20230121.1956)
 -->
<!-- Title: ColumnMapping Pages: 1 -->
<svg width="396pt" height="310pt"
 viewBox="0.00 0.00 395.50 310.00" xmlns="http://www.w3.org/2000/svg" xmlns:xlink="http://www.w3.org/1999/xlink">
<g id="graph0" class="graph" transform="scale(1 1) rotate(0) translate(4 306)">
<title>ColumnMapping</title>
<!-- Node1 -->
<g id="node1" class="node">
<title>Node1</title>
<g id="a_node1"><a xlink:title=" ">
<polygon fill="#999999" stroke="#666666" points="198.5,-19 111.5,-19 111.5,0 198.5,0 198.5,-19"/>
<text text-anchor="middle" x="155" y="-7" font-family="Helvetica,sans-Serif" font-size="10.00">ColumnMapping</text>
</a>
</g>
</g>
<!-- Node2 -->
<g id="node2" class="node">
<title>Node2</title>
<g id="a_node2"><a xlink:href="../../d9/dfb/classdoris_1_1_wrapper_field.html" target="_top" xlink:title=" ">
<polygon fill="white" stroke="#666666" points="116,-85 42,-85 42,-66 116,-66 116,-85"/>
<text text-anchor="middle" x="79" y="-73" font-family="Helvetica,sans-Serif" font-size="10.00">WrapperField</text>
</a>
</g>
</g>
<!-- Node2&#45;&gt;Node1 -->
<g id="edge1" class="edge">
<title>Node2&#45;&gt;Node1</title>
<path fill="none" stroke="#9a32cd" stroke-dasharray="5,2" d="M75.37,-54.14C75.34,-48.14 76.45,-41.88 80,-37 87.47,-26.73 99.26,-20.41 111.3,-16.54"/>
<polygon fill="#9a32cd" stroke="#9a32cd" points="71.88,-54.49 76.44,-64.06 78.84,-53.74 71.88,-54.49"/>
<text text-anchor="middle" x="110.5" y="-40" font-family="Helvetica,sans-Serif" font-size="10.00"> default_value</text>
</g>
<!-- Node3 -->
<g id="node3" class="node">
<title>Node3</title>
<g id="a_node3"><a xlink:href="../../de/d5b/classdoris_1_1_field.html" target="_top" xlink:title=" ">
<polygon fill="white" stroke="#666666" points="98,-159 60,-159 60,-140 98,-140 98,-159"/>
<text text-anchor="middle" x="79" y="-147" font-family="Helvetica,sans-Serif" font-size="10.00">Field</text>
</a>
</g>
</g>
<!-- Node3&#45;&gt;Node2 -->
<g id="edge2" class="edge">
<title>Node3&#45;&gt;Node2</title>
<path fill="none" stroke="#9a32cd" stroke-dasharray="5,2" d="M79,-128.18C79,-114.09 79,-96.01 79,-85.4"/>
<polygon fill="#9a32cd" stroke="#9a32cd" points="75.5,-128.16 79,-138.16 82.5,-128.16 75.5,-128.16"/>
<text text-anchor="middle" x="90" y="-110" font-family="Helvetica,sans-Serif" font-size="10.00"> _rep</text>
</g>
<!-- Node4 -->
<g id="node4" class="node">
<title>Node4</title>
<g id="a_node4"><a xlink:href="../../d2/d17/classdoris_1_1_key_coder.html" target="_top" xlink:title=" ">
<polygon fill="white" stroke="#666666" points="60,-236 0,-236 0,-217 60,-217 60,-236"/>
<text text-anchor="middle" x="30" y="-224" font-family="Helvetica,sans-Serif" font-size="10.00">KeyCoder</text>
</a>
</g>
</g>
<!-- Node4&#45;&gt;Node3 -->
<g id="edge3" class="edge">
<title>Node4&#45;&gt;Node3</title>
<path fill="none" stroke="#9a32cd" stroke-dasharray="5,2" d="M26.03,-205.23C25.27,-196.01 25.97,-185.33 31,-177 37.3,-166.57 49.3,-159.95 59.73,-155.93"/>
<polygon fill="#9a32cd" stroke="#9a32cd" points="22.55,-205.65 27.46,-215.04 29.48,-204.64 22.55,-205.65"/>
<text text-anchor="middle" x="58" y="-185.5" font-family="Helvetica,sans-Serif" font-size="10.00"> _key_coder</text>
</g>
<!-- Node5 -->
<g id="node5" class="node">
<title>Node5</title>
<g id="a_node5"><a xlink:href="../../d9/d8d/classdoris_1_1_status.html" target="_top" xlink:title=" ">
<polygon fill="white" stroke="#666666" points="52.5,-302 7.5,-302 7.5,-283 52.5,-283 52.5,-302"/>
<text text-anchor="middle" x="30" y="-290" font-family="Helvetica,sans-Serif" font-size="10.00">Status</text>
</a>
</g>
</g>
<!-- Node5&#45;&gt;Node4 -->
<g id="edge4" class="edge">
<title>Node5&#45;&gt;Node4</title>
<path fill="none" stroke="#9a32cd" stroke-dasharray="5,2" d="M30,-271.18C30,-259.44 30,-245.27 30,-236.32"/>
<polygon fill="#9a32cd" stroke="#9a32cd" points="26.5,-271.09 30,-281.09 33.5,-271.09 26.5,-271.09"/>
<text text-anchor="middle" x="75" y="-257" font-family="Helvetica,sans-Serif" font-size="10.00"> _decode_ascending</text>
</g>
<!-- Node6 -->
<g id="node6" class="node">
<title>Node6</title>
<g id="a_node6"><a xlink:title=" ">
<polygon fill="white" stroke="#666666" points="175.5,-236 134.5,-236 134.5,-217 175.5,-217 175.5,-236"/>
<text text-anchor="middle" x="155" y="-224" font-family="Helvetica,sans-Serif" font-size="10.00">string</text>
</a>
</g>
</g>
<!-- Node6&#45;&gt;Node1 -->
<g id="edge6" class="edge">
<title>Node6&#45;&gt;Node1</title>
<path fill="none" stroke="#9a32cd" stroke-dasharray="5,2" d="M153.67,-205.36C152.23,-181.09 150.22,-139.07 151,-103 151.66,-72.31 153.56,-35.92 154.49,-19.43"/>
<polygon fill="#9a32cd" stroke="#9a32cd" points="150.16,-205.32 154.28,-215.08 157.15,-204.88 150.16,-205.32"/>
<text text-anchor="middle" x="199" y="-110" font-family="Helvetica,sans-Serif" font-size="10.00"> materialized_function</text>
</g>
<!-- Node6&#45;&gt;Node3 -->
<g id="edge5" class="edge">
<title>Node6&#45;&gt;Node3</title>
<path fill="none" stroke="#9a32cd" stroke-dasharray="5,2" d="M124.49,-211.37C118.62,-207.83 112.81,-203.69 108,-199 96.06,-187.36 87.19,-169.79 82.58,-159.3"/>
<polygon fill="#9a32cd" stroke="#9a32cd" points="122.47,-214.26 132.92,-216 125.84,-208.12 122.47,-214.26"/>
<text text-anchor="middle" x="124.5" y="-185.5" font-family="Helvetica,sans-Serif" font-size="10.00"> _name</text>
</g>
<!-- Node7 -->
<g id="node7" class="node">
<title>Node7</title>
<g id="a_node7"><a xlink:href="../../d8/d28/classdoris_1_1_tablet_column.html" target="_top" xlink:title=" ">
<polygon fill="white" stroke="#666666" points="333.5,-122 256.5,-122 256.5,-103 333.5,-103 333.5,-122"/>
<text text-anchor="middle" x="295" y="-110" font-family="Helvetica,sans-Serif" font-size="10.00">TabletColumn</text>
</a>
</g>
</g>
<!-- Node6&#45;&gt;Node7 -->
<g id="edge8" class="edge">
<title>Node6&#45;&gt;Node7</title>
<path fill="none" stroke="#9a32cd" stroke-dasharray="5,2" d="M174.71,-209.73C204.63,-185.8 260.5,-141.1 284.07,-122.25"/>
<polygon fill="#9a32cd" stroke="#9a32cd" points="172.79,-206.79 167.17,-215.77 177.16,-212.25 172.79,-206.79"/>
<text text-anchor="middle" x="246" y="-191" font-family="Helvetica,sans-Serif" font-size="10.00"> _col_name</text>
<text text-anchor="middle" x="246" y="-180" font-family="Helvetica,sans-Serif" font-size="10.00">_default_value</text>
</g>
<!-- Node7&#45;&gt;Node1 -->
<g id="edge7" class="edge">
<title>Node7&#45;&gt;Node1</title>
<path fill="none" stroke="#9a32cd" stroke-dasharray="5,2" d="M273.43,-95.94C243.65,-74.46 190.94,-36.43 167.2,-19.3"/>
<polygon fill="#9a32cd" stroke="#9a32cd" points="271.19,-98.64 281.35,-101.65 275.29,-92.96 271.19,-98.64"/>
<text text-anchor="middle" x="285" y="-73" font-family="Helvetica,sans-Serif" font-size="10.00"> new_column</text>
</g>
<!-- Node7&#45;&gt;Node7 -->
<g id="edge9" class="edge">
<title>Node7&#45;&gt;Node7</title>
<path fill="none" stroke="#9a32cd" stroke-dasharray="5,2" d="M345.2,-117.74C349.09,-116.58 351.5,-114.84 351.5,-112.5 351.5,-108.34 343.9,-106.06 333.82,-105.63"/>
<polygon fill="#9a32cd" stroke="#9a32cd" points="344.72,-114.27 335.32,-119.15 345.71,-121.2 344.72,-114.27"/>
<text text-anchor="middle" x="369.5" y="-110" font-family="Helvetica,sans-Serif" font-size="10.00"> _parent</text>
</g>
</g>
</svg>
