<?xml version="1.0" encoding="UTF-8" standalone="no"?>
<!DOCTYPE svg PUBLIC "-//W3C//DTD SVG 1.1//EN"
 "http://www.w3.org/Graphics/SVG/1.1/DTD/svg11.dtd">
<!-- Generated by graphviz version 7.1.0 (20230121.1956)
 -->
<!-- Title: SplitStringToHashsetUsing Pages: 1 -->
<svg width="249pt" height="45pt"
 viewBox="0.00 0.00 249.00 45.00" xmlns="http://www.w3.org/2000/svg" xmlns:xlink="http://www.w3.org/1999/xlink">
<g id="graph0" class="graph" transform="scale(1 1) rotate(0) translate(4 41)">
<title>SplitStringToHashsetUsing</title>
<!-- Node1 -->
<g id="node1" class="node">
<title>Node1</title>
<g id="a_node1"><a xlink:title=" ">
<polygon fill="#999999" stroke="#666666" points="134,-19 0,-19 0,0 134,0 134,-19"/>
<text text-anchor="middle" x="67" y="-7" font-family="Helvetica,sans-Serif" font-size="10.00">SplitStringToHashsetUsing</text>
</a>
</g>
</g>
<!-- Node2 -->
<g id="node2" class="node">
<title>Node2</title>
<g id="a_node2"><a xlink:href="../../df/dcb/namespacestrings.html#a8390ba830c1679e1c19a93a151425139" target="_top" xlink:title=" ">
<polygon fill="white" stroke="#666666" points="241,-19 170,-19 170,0 241,0 241,-19"/>
<text text-anchor="middle" x="205.5" y="-7" font-family="Helvetica,sans-Serif" font-size="10.00">strings::Split</text>
</a>
</g>
</g>
<!-- Node1&#45;&gt;Node2 -->
<g id="edge1" class="edge">
<title>Node1&#45;&gt;Node2</title>
<path fill="none" stroke="#63b8ff" d="M134.25,-9.5C142.37,-9.5 150.53,-9.5 158.26,-9.5"/>
<polygon fill="#63b8ff" stroke="#63b8ff" points="158.1,-13 168.1,-9.5 158.1,-6 158.1,-13"/>
</g>
<!-- Node2&#45;&gt;Node2 -->
<g id="edge2" class="edge">
<title>Node2&#45;&gt;Node2</title>
<path fill="none" stroke="#63b8ff" d="M183.82,-19.37C173.93,-27.94 181.15,-37 205.5,-37 218.81,-37 227.01,-34.29 230.08,-30.43"/>
<polygon fill="#63b8ff" stroke="#63b8ff" points="233.49,-29.62 227.57,-20.83 226.72,-31.39 233.49,-29.62"/>
</g>
</g>
</svg>
