<?xml version="1.0" encoding="UTF-8" standalone="no"?>
<!DOCTYPE svg PUBLIC "-//W3C//DTD SVG 1.1//EN"
 "http://www.w3.org/Graphics/SVG/1.1/DTD/svg11.dtd">
<!-- Generated by graphviz version 7.1.0 (20230121.1956)
 -->
<!-- Title: strtou32_10 Pages: 1 -->
<svg width="289pt" height="27pt"
 viewBox="0.00 0.00 289.00 27.00" xmlns="http://www.w3.org/2000/svg" xmlns:xlink="http://www.w3.org/1999/xlink">
<g id="graph0" class="graph" transform="scale(1 1) rotate(0) translate(4 23)">
<title>strtou32_10</title>
<!-- Node1 -->
<g id="node1" class="node">
<title>Node1</title>
<g id="a_node1"><a xlink:title=" ">
<polygon fill="#999999" stroke="#666666" points="68,-19 0,-19 0,0 68,0 68,-19"/>
<text text-anchor="middle" x="34" y="-7" font-family="Helvetica,sans-Serif" font-size="10.00">strtou32_10</text>
</a>
</g>
</g>
<!-- Node2 -->
<g id="node2" class="node">
<title>Node2</title>
<g id="a_node2"><a xlink:href="../../d8/de4/strtoint_8h.html#a75b4ada681450ffbc63d5eecf5cee405" target="_top" xlink:title=" ">
<polygon fill="white" stroke="#666666" points="156,-19 104,-19 104,0 156,0 156,-19"/>
<text text-anchor="middle" x="130" y="-7" font-family="Helvetica,sans-Serif" font-size="10.00">strtou32</text>
</a>
</g>
</g>
<!-- Node1&#45;&gt;Node2 -->
<g id="edge1" class="edge">
<title>Node1&#45;&gt;Node2</title>
<path fill="none" stroke="#63b8ff" d="M68.41,-9.5C76.11,-9.5 84.36,-9.5 92.2,-9.5"/>
<polygon fill="#63b8ff" stroke="#63b8ff" points="92.17,-13 102.17,-9.5 92.17,-6 92.17,-13"/>
</g>
<!-- Node3 -->
<g id="node3" class="node">
<title>Node3</title>
<g id="a_node3"><a xlink:href="../../d9/d16/strtoint_8cc.html#afb309f6499b14bcf95bd99edfdb356fa" target="_top" xlink:title=" ">
<polygon fill="white" stroke="#666666" points="281,-19 192,-19 192,0 281,0 281,-19"/>
<text text-anchor="middle" x="236.5" y="-7" font-family="Helvetica,sans-Serif" font-size="10.00">strtou32_adapter</text>
</a>
</g>
</g>
<!-- Node2&#45;&gt;Node3 -->
<g id="edge2" class="edge">
<title>Node2&#45;&gt;Node3</title>
<path fill="none" stroke="#63b8ff" d="M156.3,-9.5C163.61,-9.5 171.88,-9.5 180.26,-9.5"/>
<polygon fill="#63b8ff" stroke="#63b8ff" points="180.16,-13 190.16,-9.5 180.16,-6 180.16,-13"/>
</g>
</g>
</svg>
