<?xml version="1.0" encoding="UTF-8" standalone="no"?>
<!DOCTYPE svg PUBLIC "-//W3C//DTD SVG 1.1//EN"
 "http://www.w3.org/Graphics/SVG/1.1/DTD/svg11.dtd">
<!-- Generated by graphviz version 7.1.0 (20230121.1956)
 -->
<!-- Title: Compress Pages: 1 -->
<svg width="500pt" height="175pt"
 viewBox="0.00 0.00 500.00 175.00" xmlns="http://www.w3.org/2000/svg" xmlns:xlink="http://www.w3.org/1999/xlink">
<g id="graph0" class="graph" transform="scale(1 1) rotate(0) translate(4 171)">
<title>Compress</title>
<!-- Node1 -->
<g id="node1" class="node">
<title>Node1</title>
<g id="a_node1"><a xlink:title=" ">
<polygon fill="#999999" stroke="#666666" points="62,-93 0,-93 0,-74 62,-74 62,-93"/>
<text text-anchor="middle" x="31" y="-81" font-family="Helvetica,sans-Serif" font-size="10.00">Compress</text>
</a>
</g>
</g>
<!-- Node2 -->
<g id="node2" class="node">
<title>Node2</title>
<g id="a_node2"><a xlink:href="../../d7/dc6/namespacedoris_1_1zlib.html#a1c62bd9b29718320524656062d9c9b88" target="_top" xlink:title=" ">
<polygon fill="white" stroke="#666666" points="183,-93 98,-93 98,-74 183,-74 183,-93"/>
<text text-anchor="middle" x="140.5" y="-81" font-family="Helvetica,sans-Serif" font-size="10.00">CompressLevel</text>
</a>
</g>
</g>
<!-- Node1&#45;&gt;Node2 -->
<g id="edge1" class="edge">
<title>Node1&#45;&gt;Node2</title>
<path fill="none" stroke="#63b8ff" d="M62.23,-83.5C69.83,-83.5 78.21,-83.5 86.57,-83.5"/>
<polygon fill="#63b8ff" stroke="#63b8ff" points="86.35,-87 96.35,-83.5 86.35,-80 86.35,-87"/>
</g>
<!-- Node3 -->
<g id="node3" class="node">
<title>Node3</title>
<g id="a_node3"><a xlink:href="../../d7/da2/structdoris_1_1_slice.html#adeac1643dd75193bb87fe54485a32600" target="_top" xlink:title=" ">
<polygon fill="white" stroke="#666666" points="338,-167 230,-167 230,-148 338,-148 338,-167"/>
<text text-anchor="middle" x="284" y="-155" font-family="Helvetica,sans-Serif" font-size="10.00">doris::Slice::get_size</text>
</a>
</g>
</g>
<!-- Node2&#45;&gt;Node3 -->
<g id="edge2" class="edge">
<title>Node2&#45;&gt;Node3</title>
<path fill="none" stroke="#63b8ff" d="M152.26,-93.19C166.53,-105.58 192.99,-126.94 219,-139.5 222.12,-141.01 225.39,-142.41 228.73,-143.71"/>
<polygon fill="#63b8ff" stroke="#63b8ff" points="227.52,-146.99 238.12,-147.02 229.85,-140.39 227.52,-146.99"/>
</g>
<!-- Node4 -->
<g id="node4" class="node">
<title>Node4</title>
<g id="a_node4"><a xlink:href="../../d9/d8d/classdoris_1_1_status.html#ace9b93173e591beddd3fdc3de5a49d05" target="_top" xlink:title=" ">
<polygon fill="white" stroke="#666666" points="327,-130 241,-130 241,-111 327,-111 327,-130"/>
<text text-anchor="middle" x="284" y="-118" font-family="Helvetica,sans-Serif" font-size="10.00">doris::Status::is</text>
</a>
</g>
</g>
<!-- Node2&#45;&gt;Node4 -->
<g id="edge3" class="edge">
<title>Node2&#45;&gt;Node4</title>
<path fill="none" stroke="#63b8ff" d="M179.42,-93.42C196.15,-97.79 216.03,-102.99 233.88,-107.66"/>
<polygon fill="#63b8ff" stroke="#63b8ff" points="232.95,-111.03 243.51,-110.17 234.72,-104.26 232.95,-111.03"/>
</g>
<!-- Node6 -->
<g id="node6" class="node">
<title>Node6</title>
<g id="a_node6"><a xlink:href="../../d7/da2/structdoris_1_1_slice.html#aae02cd55fd1199e66c2c6c06499f0c5b" target="_top" xlink:title=" ">
<polygon fill="white" stroke="#666666" points="349,-93 219,-93 219,-74 349,-74 349,-93"/>
<text text-anchor="middle" x="284" y="-81" font-family="Helvetica,sans-Serif" font-size="10.00">doris::Slice::mutable_data</text>
</a>
</g>
</g>
<!-- Node2&#45;&gt;Node6 -->
<g id="edge5" class="edge">
<title>Node2&#45;&gt;Node6</title>
<path fill="none" stroke="#63b8ff" d="M183.19,-83.5C190.81,-83.5 198.98,-83.5 207.24,-83.5"/>
<polygon fill="#63b8ff" stroke="#63b8ff" points="207,-87 217,-83.5 207,-80 207,-87"/>
</g>
<!-- Node7 -->
<g id="node7" class="node">
<title>Node7</title>
<g id="a_node7"><a xlink:href="../../d9/d8d/classdoris_1_1_status.html#a6ec1a217f203269ab53d2290d602db24" target="_top" xlink:title=" ">
<polygon fill="white" stroke="#666666" points="330,-56 238,-56 238,-37 330,-37 330,-56"/>
<text text-anchor="middle" x="284" y="-44" font-family="Helvetica,sans-Serif" font-size="10.00">doris::Status::OK</text>
</a>
</g>
</g>
<!-- Node2&#45;&gt;Node7 -->
<g id="edge6" class="edge">
<title>Node2&#45;&gt;Node7</title>
<path fill="none" stroke="#63b8ff" d="M179.42,-73.58C196.15,-69.21 216.03,-64.01 233.88,-59.34"/>
<polygon fill="#63b8ff" stroke="#63b8ff" points="234.72,-62.74 243.51,-56.83 232.95,-55.97 234.72,-62.74"/>
</g>
<!-- Node9 -->
<g id="node9" class="node">
<title>Node9</title>
<g id="a_node9"><a xlink:href="../../d9/d8d/classdoris_1_1_status.html#a03cb7eaa663dc83af68bc28a596d09e6" target="_top" xlink:title=" ">
<polygon fill="white" stroke="#666666" points="328.5,-19 239.5,-19 239.5,0 328.5,0 328.5,-19"/>
<text text-anchor="middle" x="284" y="-7" font-family="Helvetica,sans-Serif" font-size="10.00">doris::Status::ok</text>
</a>
</g>
</g>
<!-- Node2&#45;&gt;Node9 -->
<g id="edge8" class="edge">
<title>Node2&#45;&gt;Node9</title>
<path fill="none" stroke="#63b8ff" d="M152.81,-73.63C167.27,-61.48 193.48,-40.92 219,-28.5 222.99,-26.56 227.22,-24.77 231.52,-23.14"/>
<polygon fill="#63b8ff" stroke="#63b8ff" points="232.57,-26.48 240.86,-19.89 230.27,-19.87 232.57,-26.48"/>
</g>
<!-- Node5 -->
<g id="node5" class="node">
<title>Node5</title>
<g id="a_node5"><a xlink:href="../../d9/d8d/classdoris_1_1_status.html#a4aebcfaf2368eb240cf5111cc6fc140b" target="_top" xlink:title=" ">
<polygon fill="white" stroke="#666666" points="488,-130 389,-130 389,-111 488,-111 488,-130"/>
<text text-anchor="middle" x="438.5" y="-118" font-family="Helvetica,sans-Serif" font-size="10.00">doris::Status::code</text>
</a>
</g>
</g>
<!-- Node4&#45;&gt;Node5 -->
<g id="edge4" class="edge">
<title>Node4&#45;&gt;Node5</title>
<path fill="none" stroke="#63b8ff" d="M327.48,-120.5C342.88,-120.5 360.57,-120.5 377.21,-120.5"/>
<polygon fill="#63b8ff" stroke="#63b8ff" points="377,-124 387,-120.5 377,-117 377,-124"/>
</g>
<!-- Node8 -->
<g id="node8" class="node">
<title>Node8</title>
<g id="a_node8"><a xlink:href="../../d9/d8d/classdoris_1_1_status.html#aafde58df1b2a6a91d5b674373be3ffc5" target="_top" xlink:title=" ">
<polygon fill="white" stroke="#666666" points="492,-56 385,-56 385,-37 492,-37 492,-56"/>
<text text-anchor="middle" x="438.5" y="-44" font-family="Helvetica,sans-Serif" font-size="10.00">doris::Status::Status</text>
</a>
</g>
</g>
<!-- Node7&#45;&gt;Node8 -->
<g id="edge7" class="edge">
<title>Node7&#45;&gt;Node8</title>
<path fill="none" stroke="#63b8ff" d="M330.34,-46.5C343.78,-46.5 358.76,-46.5 373.17,-46.5"/>
<polygon fill="#63b8ff" stroke="#63b8ff" points="373.04,-50 383.04,-46.5 373.04,-43 373.04,-50"/>
</g>
</g>
</svg>
