<?xml version="1.0" encoding="UTF-8" standalone="no"?>
<!DOCTYPE svg PUBLIC "-//W3C//DTD SVG 1.1//EN"
 "http://www.w3.org/Graphics/SVG/1.1/DTD/svg11.dtd">
<!-- Generated by graphviz version 7.1.0 (20230121.1956)
 -->
<!-- Title: read_by_rowids Pages: 1 -->
<!--zoomable 271 -->
<svg id="main" version="1.1" xmlns="http://www.w3.org/2000/svg" xmlns:xlink="http://www.w3.org/1999/xlink" xml:space="preserve" onload="init(evt)">
<style type="text/css"><![CDATA[
.edge:hover path { stroke: red; }
.edge:hover polygon { stroke: red; fill: red; }
]]></style>
<script type="text/javascript"><![CDATA[
var edges = document.getElementsByTagName('g');
if (edges && edges.length) {
  for (var i=0;i<edges.length;i++) {
    if (edges[i].id.substr(0,4)=='edge') {
      edges[i].setAttribute('class','edge');
    }
  }
}
]]></script>
        <defs>
                <circle id="rim" cx="0" cy="0" r="7"/>
                <circle id="rim2" cx="0" cy="0" r="3.5"/>
                <g id="zoomPlus">
                        <use xlink:href="#rim" fill="#404040">
                                <set attributeName="fill" to="#808080" begin="zoomplus.mouseover" end="zoomplus.mouseout"/>
                        </use>
                        <path d="M-4,0h8M0,-4v8" fill="none" stroke="white" stroke-width="1.5" pointer-events="none"/>
                </g>
                <g id="zoomMin">
                        <use xlink:href="#rim" fill="#404040">
                                <set attributeName="fill" to="#808080" begin="zoomminus.mouseover" end="zoomminus.mouseout"/>
                        </use>
                        <path d="M-4,0h8" fill="none" stroke="white" stroke-width="1.5" pointer-events="none"/>
                </g>
                <g id="dirArrow">
                        <path fill="none" stroke="white" stroke-width="1.5" d="M0,-3.0v7 M-2.5,-0.5L0,-3.0L2.5,-0.5"/>
                </g>
               <g id="resetDef">
                       <use xlink:href="#rim2" fill="#404040">
                               <set attributeName="fill" to="#808080" begin="reset.mouseover" end="reset.mouseout"/>
                       </use>
               </g>
        </defs>

<script type="text/javascript">
var viewWidth = 655;
var viewHeight = 271;
var sectionId = 'dynsection-6';
</script>
<script xlink:href="../../svgpan.js"/>
<svg id="graph" class="graph">
<g id="viewport">
<title>read_by_rowids</title>
<!-- Node1 -->
<g id="node1" class="node">
<title>Node1</title>
<g id="a_node1"><a xlink:title=" ">
<polygon fill="#999999" stroke="#666666" points="85,-105.5 0,-105.5 0,-86.5 85,-86.5 85,-105.5"/>
<text text-anchor="middle" x="42.5" y="-93.5" font-family="Helvetica,sans-Serif" font-size="10.00">read_by_rowids</text>
</a>
</g>
</g>
<!-- Node2 -->
<g id="node2" class="node">
<title>Node2</title>
<g id="a_node2"><a xlink:href="../../da/da4/classdoris_1_1segment__v2_1_1_array_file_column_iterator.html#aefb4735e49ba8b5736be434e4b16fc17" target="_top" xlink:title=" ">
<polygon fill="white" stroke="#666666" points="196,-167.5 131,-167.5 131,-148.5 196,-148.5 196,-167.5"/>
<text text-anchor="middle" x="163.5" y="-155.5" font-family="Helvetica,sans-Serif" font-size="10.00">next_batch</text>
</a>
</g>
</g>
<!-- Node1&#45;&gt;Node2 -->
<g id="edge1" class="edge">
<title>Node1&#45;&gt;Node2</title>
<path fill="none" stroke="#63b8ff" d="M62.62,-105.96C81.7,-115.9 111.28,-131.31 133.3,-142.79"/>
<polygon fill="#63b8ff" stroke="#63b8ff" points="131.6,-145.85 142.09,-147.36 134.83,-139.64 131.6,-145.85"/>
</g>
<!-- Node5 -->
<g id="node5" class="node">
<title>Node5</title>
<g id="a_node5"><a xlink:href="../../d9/d8d/classdoris_1_1_status.html#a6ec1a217f203269ab53d2290d602db24" target="_top" xlink:title=" ">
<polygon fill="white" stroke="#666666" points="504,-105.5 412,-105.5 412,-86.5 504,-86.5 504,-105.5"/>
<text text-anchor="middle" x="458" y="-93.5" font-family="Helvetica,sans-Serif" font-size="10.00">doris::Status::OK</text>
</a>
</g>
</g>
<!-- Node1&#45;&gt;Node5 -->
<g id="edge6" class="edge">
<title>Node1&#45;&gt;Node5</title>
<path fill="none" stroke="#63b8ff" d="M85.42,-96C160.04,-96 315.93,-96 400.13,-96"/>
<polygon fill="#63b8ff" stroke="#63b8ff" points="400,-99.5 410,-96 400,-92.5 400,-99.5"/>
</g>
<!-- Node7 -->
<g id="node7" class="node">
<title>Node7</title>
<g id="a_node7"><a xlink:href="../../da/da4/classdoris_1_1segment__v2_1_1_array_file_column_iterator.html#a3f613fcd3cddfcd100427a54db9ce7c9" target="_top" xlink:title=" ">
<polygon fill="white" stroke="#666666" points="206,-67.5 121,-67.5 121,-48.5 206,-48.5 206,-67.5"/>
<text text-anchor="middle" x="163.5" y="-55.5" font-family="Helvetica,sans-Serif" font-size="10.00">seek_to_ordinal</text>
</a>
</g>
</g>
<!-- Node1&#45;&gt;Node7 -->
<g id="edge7" class="edge">
<title>Node1&#45;&gt;Node7</title>
<path fill="none" stroke="#63b8ff" d="M74.77,-86.02C88.84,-81.52 105.66,-76.15 120.79,-71.32"/>
<polygon fill="#63b8ff" stroke="#63b8ff" points="121.54,-74.75 130,-68.38 119.41,-68.09 121.54,-74.75"/>
</g>
<!-- Node3 -->
<g id="node3" class="node">
<title>Node3</title>
<g id="a_node3"><a xlink:href="../../d4/d41/classdoris_1_1vectorized_1_1_column_nullable.html#aa9e5d9e2d52e72e8d397e1f7f6ac943a" target="_top" xlink:title="Return the column that represents values.">
<polygon fill="white" stroke="#666666" points="361.5,-262.5 256.5,-262.5 256.5,-221.5 361.5,-221.5 361.5,-262.5"/>
<text text-anchor="start" x="264.5" y="-250.5" font-family="Helvetica,sans-Serif" font-size="10.00">doris::vectorized::</text>
<text text-anchor="start" x="264.5" y="-239.5" font-family="Helvetica,sans-Serif" font-size="10.00">ColumnNullable::get</text>
<text text-anchor="middle" x="309" y="-228.5" font-family="Helvetica,sans-Serif" font-size="10.00">_nested_column</text>
</a>
</g>
</g>
<!-- Node2&#45;&gt;Node3 -->
<g id="edge2" class="edge">
<title>Node2&#45;&gt;Node3</title>
<path fill="none" stroke="#63b8ff" d="M176.86,-167.98C191.74,-179.69 217.74,-199.25 242,-213 243.68,-213.95 245.41,-214.9 247.15,-215.83"/>
<polygon fill="#63b8ff" stroke="#63b8ff" points="245.54,-218.94 256.04,-220.35 248.71,-212.7 245.54,-218.94"/>
</g>
<!-- Node4 -->
<g id="node4" class="node">
<title>Node4</title>
<g id="a_node4"><a xlink:href="../../d4/d41/classdoris_1_1vectorized_1_1_column_nullable.html#ad54e8bef9eca6612d31ae59f3db7dacd" target="_top" xlink:title="Return the column that represents the byte map.">
<polygon fill="white" stroke="#666666" points="366,-203.5 252,-203.5 252,-162.5 366,-162.5 366,-203.5"/>
<text text-anchor="start" x="260" y="-191.5" font-family="Helvetica,sans-Serif" font-size="10.00">doris::vectorized::</text>
<text text-anchor="start" x="260" y="-180.5" font-family="Helvetica,sans-Serif" font-size="10.00">ColumnNullable::get</text>
<text text-anchor="middle" x="309" y="-169.5" font-family="Helvetica,sans-Serif" font-size="10.00">_null_map_column_ptr</text>
</a>
</g>
</g>
<!-- Node2&#45;&gt;Node4 -->
<g id="edge3" class="edge">
<title>Node2&#45;&gt;Node4</title>
<path fill="none" stroke="#63b8ff" d="M196.35,-163.55C209.44,-165.83 225.12,-168.56 240.55,-171.25"/>
<polygon fill="#63b8ff" stroke="#63b8ff" points="239.74,-174.66 250.2,-172.93 240.95,-167.77 239.74,-174.66"/>
</g>
<!-- Node2&#45;&gt;Node5 -->
<g id="edge4" class="edge">
<title>Node2&#45;&gt;Node5</title>
<path fill="none" stroke="#63b8ff" d="M196.36,-151.25C245.35,-140.86 339.89,-120.82 400.63,-107.95"/>
<polygon fill="#63b8ff" stroke="#63b8ff" points="401.03,-111.44 410.08,-105.94 399.57,-104.59 401.03,-111.44"/>
</g>
<!-- Node6 -->
<g id="node6" class="node">
<title>Node6</title>
<g id="a_node6"><a xlink:href="../../d9/d8d/classdoris_1_1_status.html#aafde58df1b2a6a91d5b674373be3ffc5" target="_top" xlink:title=" ">
<polygon fill="white" stroke="#666666" points="647,-105.5 540,-105.5 540,-86.5 647,-86.5 647,-105.5"/>
<text text-anchor="middle" x="593.5" y="-93.5" font-family="Helvetica,sans-Serif" font-size="10.00">doris::Status::Status</text>
</a>
</g>
</g>
<!-- Node5&#45;&gt;Node6 -->
<g id="edge5" class="edge">
<title>Node5&#45;&gt;Node6</title>
<path fill="none" stroke="#63b8ff" d="M504.2,-96C511.91,-96 520.05,-96 528.15,-96"/>
<polygon fill="#63b8ff" stroke="#63b8ff" points="528,-99.5 538,-96 528,-92.5 528,-99.5"/>
</g>
<!-- Node8 -->
<g id="node8" class="node">
<title>Node8</title>
<g id="a_node8"><a xlink:href="../../da/da4/classdoris_1_1segment__v2_1_1_array_file_column_iterator.html#acda89a8142ac36a35c5baa8b8f5b3217" target="_top" xlink:title=" ">
<polygon fill="white" stroke="#666666" points="356,-67.5 262,-67.5 262,-48.5 356,-48.5 356,-67.5"/>
<text text-anchor="middle" x="309" y="-55.5" font-family="Helvetica,sans-Serif" font-size="10.00">_seek_by_offsets</text>
</a>
</g>
</g>
<!-- Node7&#45;&gt;Node8 -->
<g id="edge8" class="edge">
<title>Node7&#45;&gt;Node8</title>
<path fill="none" stroke="#63b8ff" d="M206.39,-58C220.03,-58 235.43,-58 250.03,-58"/>
<polygon fill="#63b8ff" stroke="#63b8ff" points="250.01,-61.5 260.01,-58 250.01,-54.5 250.01,-61.5"/>
</g>
<!-- Node9 -->
<g id="node9" class="node">
<title>Node9</title>
<g id="a_node9"><a xlink:href="../../d3/d99/classdoris_1_1segment__v2_1_1_column_reader.html#a383b4bf9fa5747435372f741fd1747f3" target="_top" xlink:title=" ">
<polygon fill="white" stroke="#666666" points="376,-30 242,-30 242,0 376,0 376,-30"/>
<text text-anchor="start" x="250" y="-18" font-family="Helvetica,sans-Serif" font-size="10.00">doris::segment_v2::</text>
<text text-anchor="middle" x="309" y="-7" font-family="Helvetica,sans-Serif" font-size="10.00">ColumnReader::is_nullable</text>
</a>
</g>
</g>
<!-- Node7&#45;&gt;Node9 -->
<g id="edge10" class="edge">
<title>Node7&#45;&gt;Node9</title>
<path fill="none" stroke="#63b8ff" d="M197.78,-48.03C212.05,-43.75 229.19,-38.62 245.66,-33.68"/>
<polygon fill="#63b8ff" stroke="#63b8ff" points="246.32,-37.14 254.9,-30.91 244.31,-30.43 246.32,-37.14"/>
</g>
<!-- Node8&#45;&gt;Node5 -->
<g id="edge9" class="edge">
<title>Node8&#45;&gt;Node5</title>
<path fill="none" stroke="#63b8ff" d="M348.62,-67.98C366.61,-72.63 388.23,-78.22 407.41,-83.18"/>
<polygon fill="#63b8ff" stroke="#63b8ff" points="406.36,-86.52 416.92,-85.64 408.11,-79.75 406.36,-86.52"/>
</g>
</g>
</svg>
        <g id="navigator" transform="translate(0 0)" fill="#404254">
                <rect fill="#f2f5e9" fill-opacity="0.5" stroke="#606060" stroke-width=".5" x="0" y="0" width="60" height="60"/>
                <use id="zoomplus" xlink:href="#zoomPlus" x="17" y="9" onmousedown="handleZoom(evt,'in')"/>
                <use id="zoomminus" xlink:href="#zoomMin" x="42" y="9" onmousedown="handleZoom(evt,'out')"/>
                <use id="reset" xlink:href="#resetDef" x="30" y="36" onmousedown="handleReset()"/>
                <g id="arrowUp" xlink:href="#dirArrow" transform="translate(30 24)" onmousedown="handlePan(0,-1)">
                  <use xlink:href="#rim" fill="#404040">
                        <set attributeName="fill" to="#808080" begin="arrowUp.mouseover" end="arrowUp.mouseout"/>
                  </use>
                  <path fill="none" stroke="white" stroke-width="1.5" d="M0,-3.0v7 M-2.5,-0.5L0,-3.0L2.5,-0.5"/>
                </g>
                <g id="arrowRight" xlink:href="#dirArrow" transform="rotate(90) translate(36 -43)" onmousedown="handlePan(1,0)">
                  <use xlink:href="#rim" fill="#404040">
                        <set attributeName="fill" to="#808080" begin="arrowRight.mouseover" end="arrowRight.mouseout"/>
                  </use>
                  <path fill="none" stroke="white" stroke-width="1.5" d="M0,-3.0v7 M-2.5,-0.5L0,-3.0L2.5,-0.5"/>
                </g>
                <g id="arrowDown" xlink:href="#dirArrow" transform="rotate(180) translate(-30 -48)" onmousedown="handlePan(0,1)">
                  <use xlink:href="#rim" fill="#404040">
                        <set attributeName="fill" to="#808080" begin="arrowDown.mouseover" end="arrowDown.mouseout"/>
                  </use>
                  <path fill="none" stroke="white" stroke-width="1.5" d="M0,-3.0v7 M-2.5,-0.5L0,-3.0L2.5,-0.5"/>
                </g>
                <g id="arrowLeft" xlink:href="#dirArrow" transform="rotate(270) translate(-36 17)" onmousedown="handlePan(-1,0)">
                  <use xlink:href="#rim" fill="#404040">
                        <set attributeName="fill" to="#808080" begin="arrowLeft.mouseover" end="arrowLeft.mouseout"/>
                  </use>
                  <path fill="none" stroke="white" stroke-width="1.5" d="M0,-3.0v7 M-2.5,-0.5L0,-3.0L2.5,-0.5"/>
                </g>
        </g>
        <svg viewBox="0 0 15 15" width="100%" height="30px" preserveAspectRatio="xMaxYMin meet">
         <g id="arrow_out" transform="scale(0.3 0.3)">
          <a xlink:href="classdoris_1_1segment__v2_1_1_array_file_column_iterator_a7f95d6d729891be03ce952f2b51cee9e_cgraph_org.svg" target="_base">
           <rect id="button" ry="5" rx="5" y="6" x="6" height="38" width="38"
                fill="#f2f5e9" fill-opacity="0.5" stroke="#606060" stroke-width="1.0"/>
           <path id="arrow"
             d="M 11.500037,31.436501 C 11.940474,20.09759 22.043105,11.32322 32.158766,21.979434 L 37.068811,17.246167 C 37.068811,17.246167 37.088388,32 37.088388,32 L 22.160133,31.978069 C 22.160133,31.978069 26.997745,27.140456 26.997745,27.140456 C 18.528582,18.264221 13.291696,25.230495 11.500037,31.436501 z"
             style="fill:#404040;"/>
          </a>
         </g>
        </svg>
</svg>
