<?xml version="1.0" encoding="UTF-8" standalone="no"?>
<!DOCTYPE svg PUBLIC "-//W3C//DTD SVG 1.1//EN"
 "http://www.w3.org/Graphics/SVG/1.1/DTD/svg11.dtd">
<!-- Generated by graphviz version 7.1.0 (20230121.1956)
 -->
<!-- Title: handle_error_log Pages: 1 -->
<svg width="750pt" height="505pt"
 viewBox="0.00 0.00 750.00 504.50" xmlns="http://www.w3.org/2000/svg" xmlns:xlink="http://www.w3.org/1999/xlink">
<g id="graph0" class="graph" transform="scale(1 1) rotate(0) translate(4 500.5)">
<title>handle_error_log</title>
<!-- Node1 -->
<g id="node1" class="node">
<title>Node1</title>
<g id="a_node1"><a xlink:title=" ">
<polygon fill="#999999" stroke="#666666" points="88,-210.5 0,-210.5 0,-191.5 88,-191.5 88,-210.5"/>
<text text-anchor="middle" x="44" y="-198.5" font-family="Helvetica,sans-Serif" font-size="10.00">handle_error_log</text>
</a>
</g>
</g>
<!-- Node2 -->
<g id="node2" class="node">
<title>Node2</title>
<g id="a_node2"><a xlink:href="../../d7/d26/classdoris_1_1_download_action.html#a8480949a91f4b5291e42b9c91b9ff645" target="_top" xlink:title=" ">
<polygon fill="white" stroke="#666666" points="260,-429.5 124,-429.5 124,-410.5 260,-410.5 260,-429.5"/>
<text text-anchor="middle" x="192" y="-417.5" font-family="Helvetica,sans-Serif" font-size="10.00">check_log_path_is_allowed</text>
</a>
</g>
</g>
<!-- Node1&#45;&gt;Node2 -->
<g id="edge1" class="edge">
<title>Node1&#45;&gt;Node2</title>
<path fill="none" stroke="#63b8ff" d="M49.42,-210.97C60.38,-235.18 90.31,-298.55 124,-346 138.62,-366.6 158.31,-387.73 172.56,-402.11"/>
<polygon fill="#63b8ff" stroke="#63b8ff" points="170,-404.5 179.56,-409.06 174.93,-399.53 170,-404.5"/>
</g>
<!-- Node4 -->
<g id="node4" class="node">
<title>Node4</title>
<g id="a_node4"><a xlink:href="../../d4/d00/namespacedoris_1_1io.html#ae677fb4a94f6751e37e2a1941bba2f7f" target="_top" xlink:title=" ">
<polygon fill="white" stroke="#666666" points="415,-411 307,-411 307,-381 415,-381 415,-411"/>
<text text-anchor="start" x="315" y="-399" font-family="Helvetica,sans-Serif" font-size="10.00">doris::io::global_local</text>
<text text-anchor="middle" x="361" y="-388" font-family="Helvetica,sans-Serif" font-size="10.00">_filesystem</text>
</a>
</g>
</g>
<!-- Node1&#45;&gt;Node4 -->
<g id="edge22" class="edge">
<title>Node1&#45;&gt;Node4</title>
<path fill="none" stroke="#63b8ff" d="M57.13,-210.84C92.28,-239 197.94,-321.15 296,-372 298.67,-373.39 301.45,-374.73 304.27,-376.04"/>
<polygon fill="#63b8ff" stroke="#63b8ff" points="302.69,-379.17 313.26,-379.94 305.48,-372.75 302.69,-379.17"/>
</g>
<!-- Node7 -->
<g id="node7" class="node">
<title>Node7</title>
<g id="a_node7"><a xlink:href="../../d6/d94/namespacedoris.html#a945daa8602e211ef2f6783dc2177f09e" target="_top" xlink:title=" ">
<polygon fill="white" stroke="#666666" points="250.5,-229.5 133.5,-229.5 133.5,-210.5 250.5,-210.5 250.5,-229.5"/>
<text text-anchor="middle" x="192" y="-217.5" font-family="Helvetica,sans-Serif" font-size="10.00">doris::do_file_response</text>
</a>
</g>
</g>
<!-- Node1&#45;&gt;Node7 -->
<g id="edge6" class="edge">
<title>Node1&#45;&gt;Node7</title>
<path fill="none" stroke="#63b8ff" d="M88.41,-206.65C98.94,-208.02 110.45,-209.52 121.85,-211"/>
<polygon fill="#63b8ff" stroke="#63b8ff" points="121.28,-214.46 131.65,-212.28 122.19,-207.52 121.28,-214.46"/>
</g>
<!-- Node19 -->
<g id="node19" class="node">
<title>Node19</title>
<g id="a_node19"><a xlink:href="../../da/d8a/classdoris_1_1_http_channel.html#ab4c8549839cc4e117ae122a0218b1eb9" target="_top" xlink:title=" ">
<polygon fill="white" stroke="#666666" points="410,-30 312,-30 312,0 410,0 410,-30"/>
<text text-anchor="start" x="320" y="-18" font-family="Helvetica,sans-Serif" font-size="10.00">doris::HttpChannel</text>
<text text-anchor="middle" x="361" y="-7" font-family="Helvetica,sans-Serif" font-size="10.00">::send_reply</text>
</a>
</g>
</g>
<!-- Node1&#45;&gt;Node19 -->
<g id="edge24" class="edge">
<title>Node1&#45;&gt;Node19</title>
<path fill="none" stroke="#63b8ff" d="M88.39,-198.48C143.6,-194.43 234.83,-184.6 260,-163 297.76,-130.6 265.55,-96.34 296,-57 302.02,-49.22 309.91,-42.43 318.09,-36.7"/>
<polygon fill="#63b8ff" stroke="#63b8ff" points="319.95,-39.66 326.45,-31.3 316.15,-33.79 319.95,-39.66"/>
</g>
<!-- Node20 -->
<g id="node20" class="node">
<title>Node20</title>
<g id="a_node20"><a xlink:href="../../d9/d8d/classdoris_1_1_status.html#a03cb7eaa663dc83af68bc28a596d09e6" target="_top" xlink:title=" ">
<polygon fill="white" stroke="#666666" points="236.5,-153.5 147.5,-153.5 147.5,-134.5 236.5,-134.5 236.5,-153.5"/>
<text text-anchor="middle" x="192" y="-141.5" font-family="Helvetica,sans-Serif" font-size="10.00">doris::Status::ok</text>
</a>
</g>
</g>
<!-- Node1&#45;&gt;Node20 -->
<g id="edge23" class="edge">
<title>Node1&#45;&gt;Node20</title>
<path fill="none" stroke="#63b8ff" d="M68.03,-191.01C83.72,-184.29 105.01,-175.36 124,-168 132.85,-164.57 142.41,-161.04 151.47,-157.78"/>
<polygon fill="#63b8ff" stroke="#63b8ff" points="152.52,-161.12 160.76,-154.46 150.17,-154.53 152.52,-161.12"/>
</g>
<!-- Node21 -->
<g id="node21" class="node">
<title>Node21</title>
<g id="a_node21"><a xlink:href="../../d9/d8d/classdoris_1_1_status.html#aac993ecccd3d88aafefb6b8e3caa1dee" target="_top" xlink:title=" ">
<polygon fill="white" stroke="#666666" points="250,-116.5 134,-116.5 134,-97.5 250,-97.5 250,-116.5"/>
<text text-anchor="middle" x="192" y="-104.5" font-family="Helvetica,sans-Serif" font-size="10.00">doris::Status::to_string</text>
</a>
</g>
</g>
<!-- Node1&#45;&gt;Node21 -->
<g id="edge25" class="edge">
<title>Node1&#45;&gt;Node21</title>
<path fill="none" stroke="#63b8ff" d="M52.63,-191.15C65.58,-175.11 93.44,-143.41 124,-126 127.2,-124.17 130.6,-122.51 134.08,-121.01"/>
<polygon fill="#63b8ff" stroke="#63b8ff" points="135.25,-124.31 143.34,-117.46 132.75,-117.77 135.25,-124.31"/>
</g>
<!-- Node3 -->
<g id="node3" class="node">
<title>Node3</title>
<g id="a_node3"><a xlink:href="../../d9/d11/classdoris_1_1io_1_1_local_file_system.html#a75e1bf637317cf893d7bef3cca133908" target="_top" xlink:title=" ">
<polygon fill="white" stroke="#666666" points="426,-459 296,-459 296,-429 426,-429 426,-459"/>
<text text-anchor="start" x="304" y="-447" font-family="Helvetica,sans-Serif" font-size="10.00">doris::io::LocalFileSystem</text>
<text text-anchor="middle" x="361" y="-436" font-family="Helvetica,sans-Serif" font-size="10.00">::contain_path</text>
</a>
</g>
</g>
<!-- Node2&#45;&gt;Node3 -->
<g id="edge2" class="edge">
<title>Node2&#45;&gt;Node3</title>
<path fill="none" stroke="#63b8ff" d="M260.44,-429.69C268.32,-430.82 276.39,-431.98 284.37,-433.13"/>
<polygon fill="#63b8ff" stroke="#63b8ff" points="283.66,-436.56 294.05,-434.52 284.65,-429.64 283.66,-436.56"/>
</g>
<!-- Node2&#45;&gt;Node4 -->
<g id="edge3" class="edge">
<title>Node2&#45;&gt;Node4</title>
<path fill="none" stroke="#63b8ff" d="M260.44,-410.31C271.99,-408.65 283.95,-406.93 295.42,-405.28"/>
<polygon fill="#63b8ff" stroke="#63b8ff" points="295.78,-408.76 305.18,-403.88 294.79,-401.84 295.78,-408.76"/>
</g>
<!-- Node5 -->
<g id="node5" class="node">
<title>Node5</title>
<g id="a_node5"><a xlink:href="../../d9/d8d/classdoris_1_1_status.html#a6ec1a217f203269ab53d2290d602db24" target="_top" xlink:title=" ">
<polygon fill="white" stroke="#666666" points="407,-496.5 315,-496.5 315,-477.5 407,-477.5 407,-496.5"/>
<text text-anchor="middle" x="361" y="-484.5" font-family="Helvetica,sans-Serif" font-size="10.00">doris::Status::OK</text>
</a>
</g>
</g>
<!-- Node2&#45;&gt;Node5 -->
<g id="edge4" class="edge">
<title>Node2&#45;&gt;Node5</title>
<path fill="none" stroke="#63b8ff" d="M212,-429.89C232.4,-440.26 265.93,-456.6 296,-468 301.28,-470 306.88,-471.93 312.47,-473.74"/>
<polygon fill="#63b8ff" stroke="#63b8ff" points="311.1,-476.98 321.69,-476.62 313.19,-470.3 311.1,-476.98"/>
</g>
<!-- Node6 -->
<g id="node6" class="node">
<title>Node6</title>
<g id="a_node6"><a xlink:href="../../d9/d8d/classdoris_1_1_status.html#aafde58df1b2a6a91d5b674373be3ffc5" target="_top" xlink:title=" ">
<polygon fill="white" stroke="#666666" points="569,-496.5 462,-496.5 462,-477.5 569,-477.5 569,-496.5"/>
<text text-anchor="middle" x="515.5" y="-484.5" font-family="Helvetica,sans-Serif" font-size="10.00">doris::Status::Status</text>
</a>
</g>
</g>
<!-- Node5&#45;&gt;Node6 -->
<g id="edge5" class="edge">
<title>Node5&#45;&gt;Node6</title>
<path fill="none" stroke="#63b8ff" d="M407.34,-487C420.78,-487 435.76,-487 450.17,-487"/>
<polygon fill="#63b8ff" stroke="#63b8ff" points="450.04,-490.5 460.04,-487 450.04,-483.5 450.04,-490.5"/>
</g>
<!-- Node8 -->
<g id="node8" class="node">
<title>Node8</title>
<g id="a_node8"><a xlink:href="../../d0/d2e/classdoris_1_1_http_request.html#ab3bcd8f63f6e9b127279a3d875ab2309" target="_top" xlink:title=" ">
<polygon fill="white" stroke="#666666" points="413.5,-144 308.5,-144 308.5,-114 413.5,-114 413.5,-144"/>
<text text-anchor="start" x="316.5" y="-132" font-family="Helvetica,sans-Serif" font-size="10.00">doris::HttpRequest</text>
<text text-anchor="middle" x="361" y="-121" font-family="Helvetica,sans-Serif" font-size="10.00">::add_output_header</text>
</a>
</g>
</g>
<!-- Node7&#45;&gt;Node8 -->
<g id="edge7" class="edge">
<title>Node7&#45;&gt;Node8</title>
<path fill="none" stroke="#63b8ff" d="M231.56,-210.1C241.35,-206.56 251.49,-201.94 260,-196 280.45,-181.74 275.66,-167.41 296,-153 297.56,-151.89 299.19,-150.83 300.85,-149.81"/>
<polygon fill="#63b8ff" stroke="#63b8ff" points="302.33,-152.99 309.45,-145.15 298.99,-146.84 302.33,-152.99"/>
</g>
<!-- Node9 -->
<g id="node9" class="node">
<title>Node9</title>
<g id="a_node9"><a xlink:href="../../d6/d94/namespacedoris.html#a7b6e390bccc4f7f38e57d9a1a8685880" target="_top" xlink:title=" ">
<polygon fill="white" stroke="#666666" points="420.5,-229.5 301.5,-229.5 301.5,-210.5 420.5,-210.5 420.5,-229.5"/>
<text text-anchor="middle" x="361" y="-217.5" font-family="Helvetica,sans-Serif" font-size="10.00">doris::get_content_type</text>
</a>
</g>
</g>
<!-- Node7&#45;&gt;Node9 -->
<g id="edge8" class="edge">
<title>Node7&#45;&gt;Node9</title>
<path fill="none" stroke="#63b8ff" d="M250.94,-220C263.47,-220 276.85,-220 289.8,-220"/>
<polygon fill="#63b8ff" stroke="#63b8ff" points="289.52,-223.5 299.52,-220 289.52,-216.5 289.52,-223.5"/>
</g>
<!-- Node12 -->
<g id="node12" class="node">
<title>Node12</title>
<g id="a_node12"><a xlink:href="../../d0/d2e/classdoris_1_1_http_request.html#a0a6a9c95997853fc015dabe11d010b93" target="_top" xlink:title=" ">
<polygon fill="white" stroke="#666666" points="410.5,-363 311.5,-363 311.5,-333 410.5,-333 410.5,-363"/>
<text text-anchor="start" x="319.5" y="-351" font-family="Helvetica,sans-Serif" font-size="10.00">doris::HttpRequest</text>
<text text-anchor="middle" x="361" y="-340" font-family="Helvetica,sans-Serif" font-size="10.00">::header</text>
</a>
</g>
</g>
<!-- Node7&#45;&gt;Node12 -->
<g id="edge11" class="edge">
<title>Node7&#45;&gt;Node12</title>
<path fill="none" stroke="#63b8ff" d="M200.19,-229.69C215.63,-249.87 253.98,-296.8 296,-324 297.87,-325.21 299.81,-326.37 301.79,-327.48"/>
<polygon fill="#63b8ff" stroke="#63b8ff" points="300.19,-330.59 310.69,-331.97 303.34,-324.34 300.19,-330.59"/>
</g>
<!-- Node13 -->
<g id="node13" class="node">
<title>Node13</title>
<g id="a_node13"><a xlink:href="../../d0/d2e/classdoris_1_1_http_request.html#adf4e27b3872c8d71f752c44ddfeddde2" target="_top" xlink:title=" ">
<polygon fill="white" stroke="#666666" points="410.5,-315 311.5,-315 311.5,-285 410.5,-285 410.5,-315"/>
<text text-anchor="start" x="319.5" y="-303" font-family="Helvetica,sans-Serif" font-size="10.00">doris::HttpRequest</text>
<text text-anchor="middle" x="361" y="-292" font-family="Helvetica,sans-Serif" font-size="10.00">::method</text>
</a>
</g>
</g>
<!-- Node7&#45;&gt;Node13 -->
<g id="edge12" class="edge">
<title>Node7&#45;&gt;Node13</title>
<path fill="none" stroke="#63b8ff" d="M209.41,-229.85C229.43,-241.65 264.52,-261.63 296,-276 299.14,-277.43 302.39,-278.85 305.68,-280.24"/>
<polygon fill="#63b8ff" stroke="#63b8ff" points="304.3,-283.45 314.89,-283.97 306.94,-276.97 304.3,-283.45"/>
</g>
<!-- Node14 -->
<g id="node14" class="node">
<title>Node14</title>
<g id="a_node14"><a xlink:href="../../de/df8/glibc-compatibility_8c.html#a828f5d6ba54b58df48dabf85cde172e1" target="_top" xlink:title=" ">
<polygon fill="white" stroke="#666666" points="380,-266.5 342,-266.5 342,-247.5 380,-247.5 380,-266.5"/>
<text text-anchor="middle" x="361" y="-254.5" font-family="Helvetica,sans-Serif" font-size="10.00">open</text>
</a>
</g>
</g>
<!-- Node7&#45;&gt;Node14 -->
<g id="edge13" class="edge">
<title>Node7&#45;&gt;Node14</title>
<path fill="none" stroke="#63b8ff" d="M237.75,-229.92C267.11,-236.42 304.68,-244.74 330.38,-250.44"/>
<polygon fill="#63b8ff" stroke="#63b8ff" points="329.61,-253.85 340.13,-252.6 331.13,-247.02 329.61,-253.85"/>
</g>
<!-- Node15 -->
<g id="node15" class="node">
<title>Node15</title>
<g id="a_node15"><a xlink:href="../../da/d8a/classdoris_1_1_http_channel.html#a915054c0bc63d64e85f865559cc53fc4" target="_top" xlink:title=" ">
<polygon fill="white" stroke="#666666" points="410,-192 312,-192 312,-162 410,-162 410,-192"/>
<text text-anchor="start" x="320" y="-180" font-family="Helvetica,sans-Serif" font-size="10.00">doris::HttpChannel</text>
<text text-anchor="middle" x="361" y="-169" font-family="Helvetica,sans-Serif" font-size="10.00">::send_error</text>
</a>
</g>
</g>
<!-- Node7&#45;&gt;Node15 -->
<g id="edge14" class="edge">
<title>Node7&#45;&gt;Node15</title>
<path fill="none" stroke="#63b8ff" d="M231.73,-210.03C252.19,-204.76 277.73,-198.18 300.62,-192.29"/>
<polygon fill="#63b8ff" stroke="#63b8ff" points="301.34,-195.72 310.15,-189.84 299.59,-188.94 301.34,-195.72"/>
</g>
<!-- Node18 -->
<g id="node18" class="node">
<title>Node18</title>
<g id="a_node18"><a xlink:href="../../da/d8a/classdoris_1_1_http_channel.html#a1a13886a9ac6a0d29e72850e916a677b" target="_top" xlink:title=" ">
<polygon fill="white" stroke="#666666" points="410,-96 312,-96 312,-66 410,-66 410,-96"/>
<text text-anchor="start" x="320" y="-84" font-family="Helvetica,sans-Serif" font-size="10.00">doris::HttpChannel</text>
<text text-anchor="middle" x="361" y="-73" font-family="Helvetica,sans-Serif" font-size="10.00">::send_file</text>
</a>
</g>
</g>
<!-- Node7&#45;&gt;Node18 -->
<g id="edge17" class="edge">
<title>Node7&#45;&gt;Node18</title>
<path fill="none" stroke="#63b8ff" d="M237.52,-210.07C245.74,-206.66 253.7,-202.1 260,-196 291.25,-165.75 264.97,-135.48 296,-105 297.82,-103.21 299.79,-101.55 301.87,-100.01"/>
<polygon fill="#63b8ff" stroke="#63b8ff" points="303.6,-103.06 310.27,-94.82 299.92,-97.1 303.6,-103.06"/>
</g>
<!-- Node7&#45;&gt;Node19 -->
<g id="edge20" class="edge">
<title>Node7&#45;&gt;Node19</title>
<path fill="none" stroke="#63b8ff" d="M239.51,-210.07C247.17,-206.67 254.42,-202.11 260,-196 303.04,-148.88 258.83,-108.87 296,-57 301.67,-49.08 309.35,-42.25 317.41,-36.54"/>
<polygon fill="#63b8ff" stroke="#63b8ff" points="319.2,-39.55 325.69,-31.17 315.39,-33.68 319.2,-39.55"/>
</g>
<!-- Node10 -->
<g id="node10" class="node">
<title>Node10</title>
<g id="a_node10"><a xlink:href="../../d0/d3f/namespacedoris_1_1path__util.html#a98519b6e97ef0a74a17dffdc5ad90f35" target="_top" xlink:title=" ">
<polygon fill="white" stroke="#666666" points="565,-235 466,-235 466,-205 565,-205 565,-235"/>
<text text-anchor="start" x="474" y="-223" font-family="Helvetica,sans-Serif" font-size="10.00">doris::path_util::file</text>
<text text-anchor="middle" x="515.5" y="-212" font-family="Helvetica,sans-Serif" font-size="10.00">_extension</text>
</a>
</g>
</g>
<!-- Node9&#45;&gt;Node10 -->
<g id="edge9" class="edge">
<title>Node9&#45;&gt;Node10</title>
<path fill="none" stroke="#63b8ff" d="M420.96,-220C431.91,-220 443.36,-220 454.34,-220"/>
<polygon fill="#63b8ff" stroke="#63b8ff" points="454.07,-223.5 464.07,-220 454.07,-216.5 454.07,-223.5"/>
</g>
<!-- Node11 -->
<g id="node11" class="node">
<title>Node11</title>
<g id="a_node11"><a xlink:href="../../d0/d3f/namespacedoris_1_1path__util.html#ab532c6b36c8e8fa97653d098f54dc701" target="_top" xlink:title=" ">
<polygon fill="white" stroke="#666666" points="742,-229.5 605,-229.5 605,-210.5 742,-210.5 742,-229.5"/>
<text text-anchor="middle" x="673.5" y="-217.5" font-family="Helvetica,sans-Serif" font-size="10.00">doris::path_util::base_name</text>
</a>
</g>
</g>
<!-- Node10&#45;&gt;Node11 -->
<g id="edge10" class="edge">
<title>Node10&#45;&gt;Node11</title>
<path fill="none" stroke="#63b8ff" d="M565.43,-220C574.26,-220 583.67,-220 593.11,-220"/>
<polygon fill="#63b8ff" stroke="#63b8ff" points="593.08,-223.5 603.08,-220 593.08,-216.5 593.08,-223.5"/>
</g>
<!-- Node16 -->
<g id="node16" class="node">
<title>Node16</title>
<g id="a_node16"><a xlink:href="../../d6/d94/namespacedoris.html#a453050ea5c7c133b7a263ae85691b8ee" target="_top" xlink:title=" ">
<polygon fill="white" stroke="#666666" points="569,-102.5 462,-102.5 462,-83.5 569,-83.5 569,-102.5"/>
<text text-anchor="middle" x="515.5" y="-90.5" font-family="Helvetica,sans-Serif" font-size="10.00">doris::default_reason</text>
</a>
</g>
</g>
<!-- Node15&#45;&gt;Node16 -->
<g id="edge15" class="edge">
<title>Node15&#45;&gt;Node16</title>
<path fill="none" stroke="#63b8ff" d="M407.34,-161.53C413.71,-158.92 420.1,-156.05 426,-153 450.21,-140.48 475.76,-122.59 493.15,-109.6"/>
<polygon fill="#63b8ff" stroke="#63b8ff" points="494.85,-112.7 500.7,-103.87 490.62,-107.13 494.85,-112.7"/>
</g>
<!-- Node17 -->
<g id="node17" class="node">
<title>Node17</title>
<g id="a_node17"><a xlink:href="../../d0/d2e/classdoris_1_1_http_request.html#a66207943df17dd79d88a31cfb65e27cd" target="_top" xlink:title=" ">
<polygon fill="white" stroke="#666666" points="568.5,-175 462.5,-175 462.5,-145 568.5,-145 568.5,-175"/>
<text text-anchor="start" x="470.5" y="-163" font-family="Helvetica,sans-Serif" font-size="10.00">doris::HttpRequest</text>
<text text-anchor="middle" x="515.5" y="-152" font-family="Helvetica,sans-Serif" font-size="10.00">::get_evhttp_request</text>
</a>
</g>
</g>
<!-- Node15&#45;&gt;Node17 -->
<g id="edge16" class="edge">
<title>Node15&#45;&gt;Node17</title>
<path fill="none" stroke="#63b8ff" d="M410.25,-171.62C423.14,-170.18 437.26,-168.61 450.84,-167.1"/>
<polygon fill="#63b8ff" stroke="#63b8ff" points="451.02,-170.6 460.57,-166.01 450.24,-163.64 451.02,-170.6"/>
</g>
<!-- Node18&#45;&gt;Node16 -->
<g id="edge18" class="edge">
<title>Node18&#45;&gt;Node16</title>
<path fill="none" stroke="#63b8ff" d="M410.25,-84.8C423,-85.8 436.96,-86.9 450.4,-87.96"/>
<polygon fill="#63b8ff" stroke="#63b8ff" points="449.78,-91.42 460.03,-88.71 450.33,-84.44 449.78,-91.42"/>
</g>
<!-- Node18&#45;&gt;Node17 -->
<g id="edge19" class="edge">
<title>Node18&#45;&gt;Node17</title>
<path fill="none" stroke="#63b8ff" d="M406.55,-96.41C413.16,-99.07 419.82,-101.96 426,-105 445.81,-114.75 466.84,-127.7 483.44,-138.59"/>
<polygon fill="#63b8ff" stroke="#63b8ff" points="481.12,-141.26 491.39,-143.88 485,-135.43 481.12,-141.26"/>
</g>
<!-- Node19&#45;&gt;Node19 -->
<g id="edge21" class="edge">
<title>Node19&#45;&gt;Node19</title>
<path fill="none" stroke="#63b8ff" d="M333.84,-30.28C327.81,-39.41 336.86,-48 361,-48 374.2,-48 382.89,-45.43 387.07,-41.61"/>
<polygon fill="#63b8ff" stroke="#63b8ff" points="390.54,-42.07 388.01,-31.78 383.57,-41.4 390.54,-42.07"/>
</g>
</g>
</svg>
