<?xml version="1.0" encoding="UTF-8" standalone="no"?>
<!DOCTYPE svg PUBLIC "-//W3C//DTD SVG 1.1//EN"
 "http://www.w3.org/Graphics/SVG/1.1/DTD/svg11.dtd">
<!-- Generated by graphviz version 7.1.0 (20230121.1956)
 -->
<!-- Title: /Users/dabowang/doris/be/src/vec/exec/vempty_set_node.h Pages: 1 -->
<svg width="465pt" height="203pt"
 viewBox="0.00 0.00 464.50 203.00" xmlns="http://www.w3.org/2000/svg" xmlns:xlink="http://www.w3.org/1999/xlink">
<g id="graph0" class="graph" transform="scale(1 1) rotate(0) translate(4 199)">
<title>/Users/dabowang/doris/be/src/vec/exec/vempty_set_node.h</title>
<!-- Node1 -->
<g id="node1" class="node">
<title>Node1</title>
<g id="a_node1"><a xlink:title=" ">
<polygon fill="#999999" stroke="#666666" points="273.5,-195 148.5,-195 148.5,-154 273.5,-154 273.5,-195"/>
<text text-anchor="start" x="156.5" y="-183" font-family="Helvetica,sans-Serif" font-size="10.00">/Users/dabowang/doris</text>
<text text-anchor="start" x="156.5" y="-172" font-family="Helvetica,sans-Serif" font-size="10.00">/be/src/vec/exec/vempty</text>
<text text-anchor="middle" x="211" y="-161" font-family="Helvetica,sans-Serif" font-size="10.00">_set_node.h</text>
</a>
</g>
</g>
<!-- Node2 -->
<g id="node2" class="node">
<title>Node2</title>
<g id="a_node2"><a xlink:href="../../d2/d5d/exec__node_8cpp.html" target="_top" xlink:title=" ">
<polygon fill="white" stroke="#666666" points="140,-112.5 0,-112.5 0,-82.5 140,-82.5 140,-112.5"/>
<text text-anchor="start" x="8" y="-100.5" font-family="Helvetica,sans-Serif" font-size="10.00">/Users/dabowang/doris</text>
<text text-anchor="middle" x="70" y="-89.5" font-family="Helvetica,sans-Serif" font-size="10.00">/be/src/exec/exec_node.cpp</text>
</a>
</g>
</g>
<!-- Node1&#45;&gt;Node2 -->
<g id="edge1" class="edge">
<title>Node1&#45;&gt;Node2</title>
<path fill="none" stroke="#63b8ff" d="M163.65,-148.31C141.4,-136.48 115.7,-122.81 96.86,-112.79"/>
<polygon fill="#63b8ff" stroke="#63b8ff" points="161.78,-151.28 172.25,-152.89 165.06,-145.1 161.78,-151.28"/>
</g>
<!-- Node3 -->
<g id="node3" class="node">
<title>Node3</title>
<g id="a_node3"><a xlink:href="../../d5/d47/empty__set__operator_8cpp.html" target="_top" xlink:title=" ">
<polygon fill="white" stroke="#666666" points="230,-41 106,-41 106,0 230,0 230,-41"/>
<text text-anchor="start" x="114" y="-29" font-family="Helvetica,sans-Serif" font-size="10.00">/Users/dabowang/doris</text>
<text text-anchor="start" x="114" y="-18" font-family="Helvetica,sans-Serif" font-size="10.00">/be/src/pipeline/exec</text>
<text text-anchor="middle" x="168" y="-7" font-family="Helvetica,sans-Serif" font-size="10.00">/empty_set_operator.cpp</text>
</a>
</g>
</g>
<!-- Node1&#45;&gt;Node3 -->
<g id="edge2" class="edge">
<title>Node1&#45;&gt;Node3</title>
<path fill="none" stroke="#63b8ff" d="M197.2,-143.11C193.87,-135.06 190.55,-126.29 188,-118 180,-92 174.22,-61.07 170.99,-41.37"/>
<polygon fill="#63b8ff" stroke="#63b8ff" points="193.91,-144.33 201.06,-152.15 200.35,-141.58 193.91,-144.33"/>
</g>
<!-- Node4 -->
<g id="node4" class="node">
<title>Node4</title>
<g id="a_node4"><a xlink:href="../../d7/d70/empty__set__operator_8h.html" target="_top" xlink:title=" ">
<polygon fill="white" stroke="#666666" points="313.5,-118 196.5,-118 196.5,-77 313.5,-77 313.5,-118"/>
<text text-anchor="start" x="204.5" y="-106" font-family="Helvetica,sans-Serif" font-size="10.00">/Users/dabowang/doris</text>
<text text-anchor="start" x="204.5" y="-95" font-family="Helvetica,sans-Serif" font-size="10.00">/be/src/pipeline/exec</text>
<text text-anchor="middle" x="255" y="-84" font-family="Helvetica,sans-Serif" font-size="10.00">/empty_set_operator.h</text>
</a>
</g>
</g>
<!-- Node1&#45;&gt;Node4 -->
<g id="edge3" class="edge">
<title>Node1&#45;&gt;Node4</title>
<path fill="none" stroke="#63b8ff" d="M228.27,-144.06C233.33,-135.43 238.74,-126.21 243.36,-118.33"/>
<polygon fill="#63b8ff" stroke="#63b8ff" points="225.37,-142.09 223.33,-152.49 231.41,-145.63 225.37,-142.09"/>
</g>
<!-- Node6 -->
<g id="node6" class="node">
<title>Node6</title>
<g id="a_node6"><a xlink:href="../../da/df3/vempty__set__node_8cpp.html" target="_top" xlink:title=" ">
<polygon fill="white" stroke="#666666" points="456.5,-118 331.5,-118 331.5,-77 456.5,-77 456.5,-118"/>
<text text-anchor="start" x="339.5" y="-106" font-family="Helvetica,sans-Serif" font-size="10.00">/Users/dabowang/doris</text>
<text text-anchor="start" x="339.5" y="-95" font-family="Helvetica,sans-Serif" font-size="10.00">/be/src/vec/exec/vempty</text>
<text text-anchor="middle" x="394" y="-84" font-family="Helvetica,sans-Serif" font-size="10.00">_set_node.cpp</text>
</a>
</g>
</g>
<!-- Node1&#45;&gt;Node6 -->
<g id="edge6" class="edge">
<title>Node1&#45;&gt;Node6</title>
<path fill="none" stroke="#63b8ff" d="M270.08,-149.29C294.35,-139.34 322.12,-127.96 345.21,-118.49"/>
<polygon fill="#63b8ff" stroke="#63b8ff" points="268.89,-145.99 260.96,-153.02 271.54,-152.47 268.89,-145.99"/>
</g>
<!-- Node4&#45;&gt;Node3 -->
<g id="edge4" class="edge">
<title>Node4&#45;&gt;Node3</title>
<path fill="none" stroke="#63b8ff" d="M223.44,-69.29C212.71,-60.05 200.94,-49.89 191.01,-41.33"/>
<polygon fill="#63b8ff" stroke="#63b8ff" points="221.14,-71.93 231,-75.81 225.71,-66.63 221.14,-71.93"/>
</g>
<!-- Node5 -->
<g id="node5" class="node">
<title>Node5</title>
<g id="a_node5"><a xlink:href="../../d4/d41/pipeline__fragment__context_8cpp.html" target="_top" xlink:title=" ">
<polygon fill="white" stroke="#666666" points="367.5,-41 248.5,-41 248.5,0 367.5,0 367.5,-41"/>
<text text-anchor="start" x="256.5" y="-29" font-family="Helvetica,sans-Serif" font-size="10.00">/Users/dabowang/doris</text>
<text text-anchor="start" x="256.5" y="-18" font-family="Helvetica,sans-Serif" font-size="10.00">/be/src/pipeline/pipeline</text>
<text text-anchor="middle" x="308" y="-7" font-family="Helvetica,sans-Serif" font-size="10.00">_fragment_context.cpp</text>
</a>
</g>
</g>
<!-- Node4&#45;&gt;Node5 -->
<g id="edge5" class="edge">
<title>Node4&#45;&gt;Node5</title>
<path fill="none" stroke="#63b8ff" d="M275.41,-67.62C281.62,-58.83 288.3,-49.38 293.98,-41.33"/>
<polygon fill="#63b8ff" stroke="#63b8ff" points="272.71,-65.37 269.8,-75.56 278.43,-69.41 272.71,-65.37"/>
</g>
</g>
</svg>
