<?xml version="1.0" encoding="UTF-8" standalone="no"?>
<!DOCTYPE svg PUBLIC "-//W3C//DTD SVG 1.1//EN"
 "http://www.w3.org/Graphics/SVG/1.1/DTD/svg11.dtd">
<!-- Generated by graphviz version 7.1.0 (20230121.1956)
 -->
<!-- Title: prune_if Pages: 1 -->
<svg width="454pt" height="150pt"
 viewBox="0.00 0.00 454.00 150.00" xmlns="http://www.w3.org/2000/svg" xmlns:xlink="http://www.w3.org/1999/xlink">
<g id="graph0" class="graph" transform="scale(1 1) rotate(0) translate(4 146)">
<title>prune_if</title>
<!-- Node1 -->
<g id="node1" class="node">
<title>Node1</title>
<g id="a_node1"><a xlink:title=" ">
<polygon fill="#999999" stroke="#666666" points="51,-61 0,-61 0,-42 51,-42 51,-61"/>
<text text-anchor="middle" x="25.5" y="-49" font-family="Helvetica,sans-Serif" font-size="10.00">prune_if</text>
</a>
</g>
</g>
<!-- Node2 -->
<g id="node2" class="node">
<title>Node2</title>
<g id="a_node2"><a xlink:href="../../d0/d46/classdoris_1_1_l_r_u_cache.html#a79139423a2f7dcb66587788b46a8d924" target="_top" xlink:title=" ">
<polygon fill="white" stroke="#666666" points="178,-83 87,-83 87,-64 178,-64 178,-83"/>
<text text-anchor="middle" x="132.5" y="-71" font-family="Helvetica,sans-Serif" font-size="10.00">_evict_one_entry</text>
</a>
</g>
</g>
<!-- Node1&#45;&gt;Node2 -->
<g id="edge1" class="edge">
<title>Node1&#45;&gt;Node2</title>
<path fill="none" stroke="#63b8ff" d="M51.38,-56.71C58.72,-58.25 67.06,-60 75.53,-61.77"/>
<polygon fill="#63b8ff" stroke="#63b8ff" points="74.66,-65.17 85.17,-63.79 76.1,-58.32 74.66,-65.17"/>
</g>
<!-- Node7 -->
<g id="node7" class="node">
<title>Node7</title>
<g id="a_node7"><a xlink:href="../../dd/d4b/struct_l_r_u_handle.html#aafde19f7d36ca163a143579c1b125b6d" target="_top" xlink:title=" ">
<polygon fill="white" stroke="#666666" points="177.5,-43 87.5,-43 87.5,-24 177.5,-24 177.5,-43"/>
<text text-anchor="middle" x="132.5" y="-31" font-family="Helvetica,sans-Serif" font-size="10.00">LRUHandle::free</text>
</a>
</g>
</g>
<!-- Node1&#45;&gt;Node7 -->
<g id="edge6" class="edge">
<title>Node1&#45;&gt;Node7</title>
<path fill="none" stroke="#63b8ff" d="M51.38,-47.23C58.8,-45.96 67.26,-44.51 75.82,-43.05"/>
<polygon fill="#63b8ff" stroke="#63b8ff" points="76.31,-46.51 85.57,-41.37 75.13,-39.61 76.31,-46.51"/>
</g>
<!-- Node3 -->
<g id="node3" class="node">
<title>Node3</title>
<g id="a_node3"><a xlink:href="../../d0/d46/classdoris_1_1_l_r_u_cache.html#a556607c1165a96590ea0ec2db9f1790c" target="_top" xlink:title=" ">
<polygon fill="white" stroke="#666666" points="298,-142 228,-142 228,-123 298,-123 298,-142"/>
<text text-anchor="middle" x="263" y="-130" font-family="Helvetica,sans-Serif" font-size="10.00">_lru_remove</text>
</a>
</g>
</g>
<!-- Node2&#45;&gt;Node3 -->
<g id="edge2" class="edge">
<title>Node2&#45;&gt;Node3</title>
<path fill="none" stroke="#63b8ff" d="M151.44,-83.37C167.57,-92.07 192.04,-104.83 214,-114.5 216.98,-115.81 220.08,-117.12 223.22,-118.39"/>
<polygon fill="#63b8ff" stroke="#63b8ff" points="221.87,-121.62 232.46,-122 224.42,-115.1 221.87,-121.62"/>
</g>
<!-- Node4 -->
<g id="node4" class="node">
<title>Node4</title>
<g id="a_node4"><a xlink:href="../../d0/d46/classdoris_1_1_l_r_u_cache.html#a4d60849dd14fa488336eb61472d48e8d" target="_top" xlink:title=" ">
<polygon fill="white" stroke="#666666" points="285,-105 241,-105 241,-86 285,-86 285,-105"/>
<text text-anchor="middle" x="263" y="-93" font-family="Helvetica,sans-Serif" font-size="10.00">_unref</text>
</a>
</g>
</g>
<!-- Node2&#45;&gt;Node4 -->
<g id="edge3" class="edge">
<title>Node2&#45;&gt;Node4</title>
<path fill="none" stroke="#63b8ff" d="M178.44,-81.19C195.28,-84.08 214.08,-87.29 229.57,-89.95"/>
<polygon fill="#63b8ff" stroke="#63b8ff" points="228.74,-93.36 239.19,-91.59 229.92,-86.46 228.74,-93.36"/>
</g>
<!-- Node5 -->
<g id="node5" class="node">
<title>Node5</title>
<g id="a_node5"><a xlink:href="../../d6/d48/classdoris_1_1_handle_table.html#a471476600b28d5304187efe625632653" target="_top" xlink:title=" ">
<polygon fill="white" stroke="#666666" points="312,-67.5 214,-67.5 214,-37.5 312,-37.5 312,-67.5"/>
<text text-anchor="start" x="222" y="-55.5" font-family="Helvetica,sans-Serif" font-size="10.00">doris::HandleTable</text>
<text text-anchor="middle" x="263" y="-44.5" font-family="Helvetica,sans-Serif" font-size="10.00">::remove</text>
</a>
</g>
</g>
<!-- Node2&#45;&gt;Node5 -->
<g id="edge4" class="edge">
<title>Node2&#45;&gt;Node5</title>
<path fill="none" stroke="#63b8ff" d="M178.44,-66.16C186.22,-64.89 194.4,-63.55 202.49,-62.23"/>
<polygon fill="#63b8ff" stroke="#63b8ff" points="203,-65.69 212.31,-60.62 201.88,-58.78 203,-65.69"/>
</g>
<!-- Node6 -->
<g id="node6" class="node">
<title>Node6</title>
<g id="a_node6"><a xlink:href="../../d6/d48/classdoris_1_1_handle_table.html#a3d3bcf00098d6ab356b201741668160b" target="_top" xlink:title=" ">
<polygon fill="white" stroke="#666666" points="446,-67.5 348,-67.5 348,-37.5 446,-37.5 446,-67.5"/>
<text text-anchor="start" x="356" y="-55.5" font-family="Helvetica,sans-Serif" font-size="10.00">doris::HandleTable</text>
<text text-anchor="middle" x="397" y="-44.5" font-family="Helvetica,sans-Serif" font-size="10.00">::_find_pointer</text>
</a>
</g>
</g>
<!-- Node5&#45;&gt;Node6 -->
<g id="edge5" class="edge">
<title>Node5&#45;&gt;Node6</title>
<path fill="none" stroke="#63b8ff" d="M312.4,-52.5C320.11,-52.5 328.17,-52.5 336.11,-52.5"/>
<polygon fill="#63b8ff" stroke="#63b8ff" points="336.09,-56 346.09,-52.5 336.09,-49 336.09,-56"/>
</g>
<!-- Node8 -->
<g id="node8" class="node">
<title>Node8</title>
<g id="a_node8"><a xlink:href="../../d4/dc8/jemalloc__hook_8cpp.html#a3c12ec6b8e8368e804827d604b2979d7" target="_top" xlink:title=" ">
<polygon fill="white" stroke="#666666" points="279.5,-19 246.5,-19 246.5,0 279.5,0 279.5,-19"/>
<text text-anchor="middle" x="263" y="-7" font-family="Helvetica,sans-Serif" font-size="10.00">free</text>
</a>
</g>
</g>
<!-- Node7&#45;&gt;Node8 -->
<g id="edge7" class="edge">
<title>Node7&#45;&gt;Node8</title>
<path fill="none" stroke="#63b8ff" d="M177.72,-25.24C196.77,-21.68 218.42,-17.64 235.01,-14.54"/>
<polygon fill="#63b8ff" stroke="#63b8ff" points="235.41,-18.03 244.6,-12.75 234.12,-11.15 235.41,-18.03"/>
</g>
</g>
</svg>
