<?xml version="1.0" encoding="UTF-8" standalone="no"?>
<!DOCTYPE svg PUBLIC "-//W3C//DTD SVG 1.1//EN"
 "http://www.w3.org/Graphics/SVG/1.1/DTD/svg11.dtd">
<!-- Generated by graphviz version 7.1.0 (20230121.1956)
 -->
<!-- Title: _lru_remove Pages: 1 -->
<!--zoomable 324 -->
<svg id="main" version="1.1" xmlns="http://www.w3.org/2000/svg" xmlns:xlink="http://www.w3.org/1999/xlink" xml:space="preserve" onload="init(evt)">
<style type="text/css"><![CDATA[
.edge:hover path { stroke: red; }
.edge:hover polygon { stroke: red; fill: red; }
]]></style>
<script type="text/javascript"><![CDATA[
var edges = document.getElementsByTagName('g');
if (edges && edges.length) {
  for (var i=0;i<edges.length;i++) {
    if (edges[i].id.substr(0,4)=='edge') {
      edges[i].setAttribute('class','edge');
    }
  }
}
]]></script>
        <defs>
                <circle id="rim" cx="0" cy="0" r="7"/>
                <circle id="rim2" cx="0" cy="0" r="3.5"/>
                <g id="zoomPlus">
                        <use xlink:href="#rim" fill="#404040">
                                <set attributeName="fill" to="#808080" begin="zoomplus.mouseover" end="zoomplus.mouseout"/>
                        </use>
                        <path d="M-4,0h8M0,-4v8" fill="none" stroke="white" stroke-width="1.5" pointer-events="none"/>
                </g>
                <g id="zoomMin">
                        <use xlink:href="#rim" fill="#404040">
                                <set attributeName="fill" to="#808080" begin="zoomminus.mouseover" end="zoomminus.mouseout"/>
                        </use>
                        <path d="M-4,0h8" fill="none" stroke="white" stroke-width="1.5" pointer-events="none"/>
                </g>
                <g id="dirArrow">
                        <path fill="none" stroke="white" stroke-width="1.5" d="M0,-3.0v7 M-2.5,-0.5L0,-3.0L2.5,-0.5"/>
                </g>
               <g id="resetDef">
                       <use xlink:href="#rim2" fill="#404040">
                               <set attributeName="fill" to="#808080" begin="reset.mouseover" end="reset.mouseout"/>
                       </use>
               </g>
        </defs>

<script type="text/javascript">
var viewWidth = 700;
var viewHeight = 324;
var sectionId = 'dynsection-22';
</script>
<script xlink:href="../../svgpan.js"/>
<svg id="graph" class="graph">
<g id="viewport">
<title>_lru_remove</title>
<!-- Node1 -->
<g id="node1" class="node">
<title>Node1</title>
<g id="a_node1"><a xlink:title=" ">
<polygon fill="#999999" stroke="#666666" points="692,-95.5 622,-95.5 622,-76.5 692,-76.5 692,-95.5"/>
<text text-anchor="middle" x="657" y="-83.5" font-family="Helvetica,sans-Serif" font-size="10.00">_lru_remove</text>
</a>
</g>
</g>
<!-- Node2 -->
<g id="node2" class="node">
<title>Node2</title>
<g id="a_node2"><a xlink:href="../../d0/d46/classdoris_1_1_l_r_u_cache.html#a79139423a2f7dcb66587788b46a8d924" target="_top" xlink:title=" ">
<polygon fill="white" stroke="#666666" points="586,-190.5 495,-190.5 495,-171.5 586,-171.5 586,-190.5"/>
<text text-anchor="middle" x="540.5" y="-178.5" font-family="Helvetica,sans-Serif" font-size="10.00">_evict_one_entry</text>
</a>
</g>
</g>
<!-- Node1&#45;&gt;Node2 -->
<g id="edge1" class="edge">
<title>Node1&#45;&gt;Node2</title>
<path fill="none" stroke="#63b8ff" d="M635.52,-102.99C611.61,-122.83 572.87,-154.97 553.43,-171.1"/>
<polygon fill="#63b8ff" stroke="#63b8ff" points="637.55,-105.85 643.01,-96.78 633.08,-100.47 637.55,-105.85"/>
</g>
<!-- Node4 -->
<g id="node4" class="node">
<title>Node4</title>
<g id="a_node4"><a xlink:href="../../d0/d46/classdoris_1_1_l_r_u_cache.html#a740c90a45826932ff560351984aa422e" target="_top" xlink:title=" ">
<polygon fill="white" stroke="#666666" points="248.5,-153.5 207.5,-153.5 207.5,-134.5 248.5,-134.5 248.5,-153.5"/>
<text text-anchor="middle" x="228" y="-141.5" font-family="Helvetica,sans-Serif" font-size="10.00">insert</text>
</a>
</g>
</g>
<!-- Node1&#45;&gt;Node4 -->
<g id="edge14" class="edge">
<title>Node1&#45;&gt;Node4</title>
<path fill="none" stroke="#63b8ff" d="M610.74,-90.67C547.37,-97.41 428.65,-110.73 328,-126 300.37,-130.19 268.6,-136.18 248.67,-140.07"/>
<polygon fill="#63b8ff" stroke="#63b8ff" points="610.83,-94.18 620.41,-89.65 610.1,-87.22 610.83,-94.18"/>
</g>
<!-- Node12 -->
<g id="node12" class="node">
<title>Node12</title>
<g id="a_node12"><a xlink:href="../../d0/d46/classdoris_1_1_l_r_u_cache.html#a42a352841da0c65c3b1459045eaf0c2c" target="_top" xlink:title=" ">
<polygon fill="white" stroke="#666666" points="561,-74.5 520,-74.5 520,-55.5 561,-55.5 561,-74.5"/>
<text text-anchor="middle" x="540.5" y="-62.5" font-family="Helvetica,sans-Serif" font-size="10.00">erase</text>
</a>
</g>
</g>
<!-- Node1&#45;&gt;Node12 -->
<g id="edge12" class="edge">
<title>Node1&#45;&gt;Node12</title>
<path fill="none" stroke="#63b8ff" d="M610.64,-77.68C593.46,-74.53 574.78,-71.1 561.18,-68.61"/>
<polygon fill="#63b8ff" stroke="#63b8ff" points="609.69,-81.06 620.16,-79.43 610.95,-74.18 609.69,-81.06"/>
</g>
<!-- Node14 -->
<g id="node14" class="node">
<title>Node14</title>
<g id="a_node14"><a xlink:href="../../d0/d46/classdoris_1_1_l_r_u_cache.html#a0e06471a798162dfda1e0c3c98dcc5ab" target="_top" xlink:title=" ">
<polygon fill="white" stroke="#666666" points="563,-32.5 518,-32.5 518,-13.5 563,-13.5 563,-32.5"/>
<text text-anchor="middle" x="540.5" y="-20.5" font-family="Helvetica,sans-Serif" font-size="10.00">lookup</text>
</a>
</g>
</g>
<!-- Node1&#45;&gt;Node14 -->
<g id="edge15" class="edge">
<title>Node1&#45;&gt;Node14</title>
<path fill="none" stroke="#63b8ff" d="M629.41,-70.46C616.4,-62.94 600.46,-53.86 586,-46 577.9,-41.6 568.88,-36.9 561.09,-32.9"/>
<polygon fill="#63b8ff" stroke="#63b8ff" points="627.42,-73.35 637.83,-75.34 630.94,-67.29 627.42,-73.35"/>
</g>
<!-- Node3 -->
<g id="node3" class="node">
<title>Node3</title>
<g id="a_node3"><a xlink:href="../../d0/d46/classdoris_1_1_l_r_u_cache.html#a21bbccb9dc80b9c32cc6af816e5d4c05" target="_top" xlink:title=" ">
<polygon fill="white" stroke="#666666" points="435,-153.5 352,-153.5 352,-134.5 435,-134.5 435,-153.5"/>
<text text-anchor="middle" x="393.5" y="-141.5" font-family="Helvetica,sans-Serif" font-size="10.00">_evict_from_lru</text>
</a>
</g>
</g>
<!-- Node2&#45;&gt;Node3 -->
<g id="edge2" class="edge">
<title>Node2&#45;&gt;Node3</title>
<path fill="none" stroke="#63b8ff" d="M489.54,-168.25C471.19,-163.57 450.71,-158.34 433.46,-153.94"/>
<polygon fill="#63b8ff" stroke="#63b8ff" points="488.62,-171.63 499.18,-170.71 490.35,-164.85 488.62,-171.63"/>
</g>
<!-- Node6 -->
<g id="node6" class="node">
<title>Node6</title>
<g id="a_node6"><a xlink:href="../../d0/d46/classdoris_1_1_l_r_u_cache.html#aa6772fdd26c8f37f02e17c2827170a68" target="_top" xlink:title=" ">
<polygon fill="white" stroke="#666666" points="459,-190.5 328,-190.5 328,-171.5 459,-171.5 459,-190.5"/>
<text text-anchor="middle" x="393.5" y="-178.5" font-family="Helvetica,sans-Serif" font-size="10.00">_evict_from_lru_with_time</text>
</a>
</g>
</g>
<!-- Node2&#45;&gt;Node6 -->
<g id="edge5" class="edge">
<title>Node2&#45;&gt;Node6</title>
<path fill="none" stroke="#63b8ff" d="M483.46,-181C475.55,-181 467.36,-181 459.3,-181"/>
<polygon fill="#63b8ff" stroke="#63b8ff" points="483.3,-184.5 493.3,-181 483.3,-177.5 483.3,-184.5"/>
</g>
<!-- Node7 -->
<g id="node7" class="node">
<title>Node7</title>
<g id="a_node7"><a xlink:href="../../d0/d46/classdoris_1_1_l_r_u_cache.html#a3ebb147a273559e367282cef58c02197" target="_top" xlink:title=" ">
<polygon fill="white" stroke="#666666" points="414,-267.5 373,-267.5 373,-248.5 414,-248.5 414,-267.5"/>
<text text-anchor="middle" x="393.5" y="-255.5" font-family="Helvetica,sans-Serif" font-size="10.00">prune</text>
</a>
</g>
</g>
<!-- Node2&#45;&gt;Node7 -->
<g id="edge7" class="edge">
<title>Node2&#45;&gt;Node7</title>
<path fill="none" stroke="#63b8ff" d="M518.85,-197.91C503.19,-210.09 480.72,-226.21 459,-237 444.66,-244.13 427.35,-249.61 414.28,-253.18"/>
<polygon fill="#63b8ff" stroke="#63b8ff" points="520.81,-200.82 526.47,-191.86 516.46,-195.34 520.81,-200.82"/>
</g>
<!-- Node10 -->
<g id="node10" class="node">
<title>Node10</title>
<g id="a_node10"><a xlink:href="../../d0/d46/classdoris_1_1_l_r_u_cache.html#a9425a680eb0dda36666c2d8532ad9b92" target="_top" xlink:title=" ">
<polygon fill="white" stroke="#666666" points="419,-227.5 368,-227.5 368,-208.5 419,-208.5 419,-227.5"/>
<text text-anchor="middle" x="393.5" y="-215.5" font-family="Helvetica,sans-Serif" font-size="10.00">prune_if</text>
</a>
</g>
</g>
<!-- Node2&#45;&gt;Node10 -->
<g id="edge10" class="edge">
<title>Node2&#45;&gt;Node10</title>
<path fill="none" stroke="#63b8ff" d="M489.68,-193.71C465.94,-199.77 438.59,-206.75 419.32,-211.67"/>
<polygon fill="#63b8ff" stroke="#63b8ff" points="490.35,-197.15 499.18,-191.29 488.62,-190.37 490.35,-197.15"/>
</g>
<!-- Node3&#45;&gt;Node4 -->
<g id="edge3" class="edge">
<title>Node3&#45;&gt;Node4</title>
<path fill="none" stroke="#63b8ff" d="M340.48,-144C309.17,-144 271.14,-144 248.56,-144"/>
<polygon fill="#63b8ff" stroke="#63b8ff" points="340.15,-147.5 350.15,-144 340.15,-140.5 340.15,-147.5"/>
</g>
<!-- Node5 -->
<g id="node5" class="node">
<title>Node5</title>
<g id="a_node5"><a xlink:href="../../d0/d56/classdoris_1_1_sharded_l_r_u_cache.html#a9227f6317b1405045190c98f65978616" target="_top" xlink:title=" ">
<polygon fill="white" stroke="#666666" points="128,-159 0,-159 0,-129 128,-129 128,-159"/>
<text text-anchor="start" x="8" y="-147" font-family="Helvetica,sans-Serif" font-size="10.00">doris::ShardedLRUCache</text>
<text text-anchor="middle" x="64" y="-136" font-family="Helvetica,sans-Serif" font-size="10.00">::insert</text>
</a>
</g>
</g>
<!-- Node4&#45;&gt;Node5 -->
<g id="edge4" class="edge">
<title>Node4&#45;&gt;Node5</title>
<path fill="none" stroke="#63b8ff" d="M195.82,-144C176.72,-144 151.58,-144 128.45,-144"/>
<polygon fill="#63b8ff" stroke="#63b8ff" points="195.62,-147.5 205.62,-144 195.62,-140.5 195.62,-147.5"/>
</g>
<!-- Node6&#45;&gt;Node4 -->
<g id="edge6" class="edge">
<title>Node6&#45;&gt;Node4</title>
<path fill="none" stroke="#63b8ff" d="M337.68,-168.59C306.99,-161.65 270.61,-153.42 248.69,-148.46"/>
<polygon fill="#63b8ff" stroke="#63b8ff" points="336.68,-171.96 347.21,-170.75 338.23,-165.13 336.68,-171.96"/>
</g>
<!-- Node8 -->
<g id="node8" class="node">
<title>Node8</title>
<g id="a_node8"><a xlink:href="../../d0/d56/classdoris_1_1_sharded_l_r_u_cache.html#a36ca8b19b2044533d834ff1548265bc9" target="_top" xlink:title=" ">
<polygon fill="white" stroke="#666666" points="292,-316 164,-316 164,-286 292,-286 292,-316"/>
<text text-anchor="start" x="172" y="-304" font-family="Helvetica,sans-Serif" font-size="10.00">doris::ShardedLRUCache</text>
<text text-anchor="middle" x="228" y="-293" font-family="Helvetica,sans-Serif" font-size="10.00">::prune</text>
</a>
</g>
</g>
<!-- Node7&#45;&gt;Node8 -->
<g id="edge8" class="edge">
<title>Node7&#45;&gt;Node8</title>
<path fill="none" stroke="#63b8ff" d="M361.75,-266.09C340.96,-271.56 312.83,-278.95 287.82,-285.53"/>
<polygon fill="#63b8ff" stroke="#63b8ff" points="362.53,-269.5 371.31,-263.57 360.75,-262.73 362.53,-269.5"/>
</g>
<!-- Node9 -->
<g id="node9" class="node">
<title>Node9</title>
<g id="a_node9"><a xlink:href="../../d0/d46/classdoris_1_1_l_r_u_cache.html#aa08b45eec5b206669cd41058a6b02b65" target="_top" xlink:title=" ">
<polygon fill="white" stroke="#666666" points="263.5,-267.5 192.5,-267.5 192.5,-248.5 263.5,-248.5 263.5,-267.5"/>
<text text-anchor="middle" x="228" y="-255.5" font-family="Helvetica,sans-Serif" font-size="10.00">~LRUCache</text>
</a>
</g>
</g>
<!-- Node7&#45;&gt;Node9 -->
<g id="edge9" class="edge">
<title>Node7&#45;&gt;Node9</title>
<path fill="none" stroke="#63b8ff" d="M361.36,-258C333.56,-258 292.88,-258 263.96,-258"/>
<polygon fill="#63b8ff" stroke="#63b8ff" points="361.26,-261.5 371.26,-258 361.26,-254.5 361.26,-261.5"/>
</g>
<!-- Node11 -->
<g id="node11" class="node">
<title>Node11</title>
<g id="a_node11"><a xlink:href="../../d0/d56/classdoris_1_1_sharded_l_r_u_cache.html#af045a319508afb898ad5e8339d0f53d7" target="_top" xlink:title=" ">
<polygon fill="white" stroke="#666666" points="292,-230 164,-230 164,-200 292,-200 292,-230"/>
<text text-anchor="start" x="172" y="-218" font-family="Helvetica,sans-Serif" font-size="10.00">doris::ShardedLRUCache</text>
<text text-anchor="middle" x="228" y="-207" font-family="Helvetica,sans-Serif" font-size="10.00">::prune_if</text>
</a>
</g>
</g>
<!-- Node10&#45;&gt;Node11 -->
<g id="edge11" class="edge">
<title>Node10&#45;&gt;Node11</title>
<path fill="none" stroke="#63b8ff" d="M356.34,-217.34C337.53,-216.99 313.98,-216.56 292.27,-216.16"/>
<polygon fill="#63b8ff" stroke="#63b8ff" points="356.09,-220.83 366.15,-217.52 356.22,-213.83 356.09,-220.83"/>
</g>
<!-- Node13 -->
<g id="node13" class="node">
<title>Node13</title>
<g id="a_node13"><a xlink:href="../../d0/d56/classdoris_1_1_sharded_l_r_u_cache.html#ae8127331996978306563941f911bba30" target="_top" xlink:title=" ">
<polygon fill="white" stroke="#666666" points="457.5,-78 329.5,-78 329.5,-48 457.5,-48 457.5,-78"/>
<text text-anchor="start" x="337.5" y="-66" font-family="Helvetica,sans-Serif" font-size="10.00">doris::ShardedLRUCache</text>
<text text-anchor="middle" x="393.5" y="-55" font-family="Helvetica,sans-Serif" font-size="10.00">::erase</text>
</a>
</g>
</g>
<!-- Node12&#45;&gt;Node13 -->
<g id="edge13" class="edge">
<title>Node12&#45;&gt;Node13</title>
<path fill="none" stroke="#63b8ff" d="M508.57,-64.57C493.71,-64.37 475.35,-64.12 457.72,-63.87"/>
<polygon fill="#63b8ff" stroke="#63b8ff" points="508.08,-68.07 518.13,-64.71 508.18,-61.07 508.08,-68.07"/>
</g>
<!-- Node15 -->
<g id="node15" class="node">
<title>Node15</title>
<g id="a_node15"><a xlink:href="../../d0/d56/classdoris_1_1_sharded_l_r_u_cache.html#a94752127d1ce829f38600b0220d5c013" target="_top" xlink:title=" ">
<polygon fill="white" stroke="#666666" points="457.5,-30 329.5,-30 329.5,0 457.5,0 457.5,-30"/>
<text text-anchor="start" x="337.5" y="-18" font-family="Helvetica,sans-Serif" font-size="10.00">doris::ShardedLRUCache</text>
<text text-anchor="middle" x="393.5" y="-7" font-family="Helvetica,sans-Serif" font-size="10.00">::lookup</text>
</a>
</g>
</g>
<!-- Node14&#45;&gt;Node15 -->
<g id="edge16" class="edge">
<title>Node14&#45;&gt;Node15</title>
<path fill="none" stroke="#63b8ff" d="M506.45,-21.18C492.02,-20.38 474.58,-19.42 457.81,-18.49"/>
<polygon fill="#63b8ff" stroke="#63b8ff" points="506.1,-24.66 516.28,-21.72 506.49,-17.67 506.1,-24.66"/>
</g>
</g>
</svg>
        <g id="navigator" transform="translate(0 0)" fill="#404254">
                <rect fill="#f2f5e9" fill-opacity="0.5" stroke="#606060" stroke-width=".5" x="0" y="0" width="60" height="60"/>
                <use id="zoomplus" xlink:href="#zoomPlus" x="17" y="9" onmousedown="handleZoom(evt,'in')"/>
                <use id="zoomminus" xlink:href="#zoomMin" x="42" y="9" onmousedown="handleZoom(evt,'out')"/>
                <use id="reset" xlink:href="#resetDef" x="30" y="36" onmousedown="handleReset()"/>
                <g id="arrowUp" xlink:href="#dirArrow" transform="translate(30 24)" onmousedown="handlePan(0,-1)">
                  <use xlink:href="#rim" fill="#404040">
                        <set attributeName="fill" to="#808080" begin="arrowUp.mouseover" end="arrowUp.mouseout"/>
                  </use>
                  <path fill="none" stroke="white" stroke-width="1.5" d="M0,-3.0v7 M-2.5,-0.5L0,-3.0L2.5,-0.5"/>
                </g>
                <g id="arrowRight" xlink:href="#dirArrow" transform="rotate(90) translate(36 -43)" onmousedown="handlePan(1,0)">
                  <use xlink:href="#rim" fill="#404040">
                        <set attributeName="fill" to="#808080" begin="arrowRight.mouseover" end="arrowRight.mouseout"/>
                  </use>
                  <path fill="none" stroke="white" stroke-width="1.5" d="M0,-3.0v7 M-2.5,-0.5L0,-3.0L2.5,-0.5"/>
                </g>
                <g id="arrowDown" xlink:href="#dirArrow" transform="rotate(180) translate(-30 -48)" onmousedown="handlePan(0,1)">
                  <use xlink:href="#rim" fill="#404040">
                        <set attributeName="fill" to="#808080" begin="arrowDown.mouseover" end="arrowDown.mouseout"/>
                  </use>
                  <path fill="none" stroke="white" stroke-width="1.5" d="M0,-3.0v7 M-2.5,-0.5L0,-3.0L2.5,-0.5"/>
                </g>
                <g id="arrowLeft" xlink:href="#dirArrow" transform="rotate(270) translate(-36 17)" onmousedown="handlePan(-1,0)">
                  <use xlink:href="#rim" fill="#404040">
                        <set attributeName="fill" to="#808080" begin="arrowLeft.mouseover" end="arrowLeft.mouseout"/>
                  </use>
                  <path fill="none" stroke="white" stroke-width="1.5" d="M0,-3.0v7 M-2.5,-0.5L0,-3.0L2.5,-0.5"/>
                </g>
        </g>
        <svg viewBox="0 0 15 15" width="100%" height="30px" preserveAspectRatio="xMaxYMin meet">
         <g id="arrow_out" transform="scale(0.3 0.3)">
          <a xlink:href="classdoris_1_1_l_r_u_cache_a556607c1165a96590ea0ec2db9f1790c_icgraph_org.svg" target="_base">
           <rect id="button" ry="5" rx="5" y="6" x="6" height="38" width="38"
                fill="#f2f5e9" fill-opacity="0.5" stroke="#606060" stroke-width="1.0"/>
           <path id="arrow"
             d="M 11.500037,31.436501 C 11.940474,20.09759 22.043105,11.32322 32.158766,21.979434 L 37.068811,17.246167 C 37.068811,17.246167 37.088388,32 37.088388,32 L 22.160133,31.978069 C 22.160133,31.978069 26.997745,27.140456 26.997745,27.140456 C 18.528582,18.264221 13.291696,25.230495 11.500037,31.436501 z"
             style="fill:#404040;"/>
          </a>
         </g>
        </svg>
</svg>
