<?xml version="1.0" encoding="UTF-8" standalone="no"?>
<!DOCTYPE svg PUBLIC "-//W3C//DTD SVG 1.1//EN"
 "http://www.w3.org/Graphics/SVG/1.1/DTD/svg11.dtd">
<!-- Generated by graphviz version 7.1.0 (20230121.1956)
 -->
<!-- Title: gstrncasestr Pages: 1 -->
<svg width="296pt" height="27pt"
 viewBox="0.00 0.00 296.00 27.00" xmlns="http://www.w3.org/2000/svg" xmlns:xlink="http://www.w3.org/1999/xlink">
<g id="graph0" class="graph" transform="scale(1 1) rotate(0) translate(4 23)">
<title>gstrncasestr</title>
<!-- Node1 -->
<g id="node1" class="node">
<title>Node1</title>
<g id="a_node1"><a xlink:title=" ">
<polygon fill="#999999" stroke="#666666" points="71,-19 0,-19 0,0 71,0 71,-19"/>
<text text-anchor="middle" x="35.5" y="-7" font-family="Helvetica,sans-Serif" font-size="10.00">gstrncasestr</text>
</a>
</g>
</g>
<!-- Node2 -->
<g id="node2" class="node">
<title>Node2</title>
<g id="a_node2"><a xlink:href="../../d9/d6f/util_8cc.html#a98798c26b5a1204d3e73eefb1b3c01d5" target="_top" xlink:title=" ">
<polygon fill="white" stroke="#666666" points="178,-19 107,-19 107,0 178,0 178,-19"/>
<text text-anchor="middle" x="142.5" y="-7" font-family="Helvetica,sans-Serif" font-size="10.00">gstrncasestr</text>
</a>
</g>
</g>
<!-- Node1&#45;&gt;Node2 -->
<g id="edge1" class="edge">
<title>Node1&#45;&gt;Node2</title>
<path fill="none" stroke="#63b8ff" d="M71.46,-9.5C79.08,-9.5 87.25,-9.5 95.23,-9.5"/>
<polygon fill="#63b8ff" stroke="#63b8ff" points="95.18,-13 105.18,-9.5 95.18,-6 95.18,-13"/>
</g>
<!-- Node3 -->
<g id="node3" class="node">
<title>Node3</title>
<g id="a_node3"><a xlink:href="../../d7/d81/ascii__ctype_8h.html#aa0f334ce1731f1f3c97bf6f5850bbdf8" target="_top" xlink:title=" ">
<polygon fill="white" stroke="#666666" points="288,-19 214,-19 214,0 288,0 288,-19"/>
<text text-anchor="middle" x="251" y="-7" font-family="Helvetica,sans-Serif" font-size="10.00">ascii_tolower</text>
</a>
</g>
</g>
<!-- Node2&#45;&gt;Node3 -->
<g id="edge2" class="edge">
<title>Node2&#45;&gt;Node3</title>
<path fill="none" stroke="#63b8ff" d="M178.37,-9.5C185.95,-9.5 194.1,-9.5 202.09,-9.5"/>
<polygon fill="#63b8ff" stroke="#63b8ff" points="202.07,-13 212.07,-9.5 202.07,-6 202.07,-13"/>
</g>
</g>
</svg>
