<?xml version="1.0" encoding="UTF-8" standalone="no"?>
<!DOCTYPE svg PUBLIC "-//W3C//DTD SVG 1.1//EN"
 "http://www.w3.org/Graphics/SVG/1.1/DTD/svg11.dtd">
<!-- Generated by graphviz version 7.1.0 (20230121.1956)
 -->
<!-- Title: __getauxval Pages: 1 -->
<svg width="179pt" height="45pt"
 viewBox="0.00 0.00 179.00 45.00" xmlns="http://www.w3.org/2000/svg" xmlns:xlink="http://www.w3.org/1999/xlink">
<g id="graph0" class="graph" transform="scale(1 1) rotate(0) translate(4 41)">
<title>__getauxval</title>
<!-- Node1 -->
<g id="node1" class="node">
<title>Node1</title>
<g id="a_node1"><a xlink:title=" ">
<polygon fill="#999999" stroke="#666666" points="171,-19 102,-19 102,0 171,0 171,-19"/>
<text text-anchor="middle" x="136.5" y="-7" font-family="Helvetica,sans-Serif" font-size="10.00">__getauxval</text>
</a>
</g>
</g>
<!-- Node2 -->
<g id="node2" class="node">
<title>Node2</title>
<g id="a_node2"><a xlink:href="../../dd/d64/getauxval_8c.html#ad868caf16ac436b934fd2fe992b4f2b1" target="_top" xlink:title=" ">
<polygon fill="white" stroke="#666666" points="66,-19 0,-19 0,0 66,0 66,-19"/>
<text text-anchor="middle" x="33" y="-7" font-family="Helvetica,sans-Serif" font-size="10.00">__auxv_init</text>
</a>
</g>
</g>
<!-- Node1&#45;&gt;Node2 -->
<g id="edge1" class="edge">
<title>Node1&#45;&gt;Node2</title>
<path fill="none" stroke="#63b8ff" d="M90.42,-9.5C82.29,-9.5 73.95,-9.5 66.27,-9.5"/>
<polygon fill="#63b8ff" stroke="#63b8ff" points="90.19,-13 100.19,-9.5 90.19,-6 90.19,-13"/>
</g>
<!-- Node2&#45;&gt;Node2 -->
<g id="edge2" class="edge">
<title>Node2&#45;&gt;Node2</title>
<path fill="none" stroke="#63b8ff" d="M51.37,-30.43C49.07,-34.29 42.95,-37 33,-37 14.81,-37 9.41,-27.94 16.8,-19.37"/>
<polygon fill="#63b8ff" stroke="#63b8ff" points="54.85,-29.99 49.49,-20.85 47.98,-31.34 54.85,-29.99"/>
</g>
</g>
</svg>
