<?xml version="1.0" encoding="UTF-8" standalone="no"?>
<!DOCTYPE svg PUBLIC "-//W3C//DTD SVG 1.1//EN"
 "http://www.w3.org/Graphics/SVG/1.1/DTD/svg11.dtd">
<!-- Generated by graphviz version 7.1.0 (20230121.1956)
 -->
<!-- Title: strdup_with_new Pages: 1 -->
<svg width="437pt" height="27pt"
 viewBox="0.00 0.00 437.00 27.00" xmlns="http://www.w3.org/2000/svg" xmlns:xlink="http://www.w3.org/1999/xlink">
<g id="graph0" class="graph" transform="scale(1 1) rotate(0) translate(4 23)">
<title>strdup_with_new</title>
<!-- Node1 -->
<g id="node1" class="node">
<title>Node1</title>
<g id="a_node1"><a xlink:title=" ">
<polygon fill="#999999" stroke="#666666" points="90,-19 0,-19 0,0 90,0 90,-19"/>
<text text-anchor="middle" x="45" y="-7" font-family="Helvetica,sans-Serif" font-size="10.00">strdup_with_new</text>
</a>
</g>
</g>
<!-- Node2 -->
<g id="node2" class="node">
<title>Node2</title>
<g id="a_node2"><a xlink:href="../../d9/d6f/util_8cc.html#a55040a154a88ded0fed88a9bf35aff1b" target="_top" xlink:title=" ">
<polygon fill="white" stroke="#666666" points="221,-19 126,-19 126,0 221,0 221,-19"/>
<text text-anchor="middle" x="173.5" y="-7" font-family="Helvetica,sans-Serif" font-size="10.00">strndup_with_new</text>
</a>
</g>
</g>
<!-- Node1&#45;&gt;Node2 -->
<g id="edge1" class="edge">
<title>Node1&#45;&gt;Node2</title>
<path fill="none" stroke="#63b8ff" d="M90.24,-9.5C98.09,-9.5 106.36,-9.5 114.52,-9.5"/>
<polygon fill="#63b8ff" stroke="#63b8ff" points="114.4,-13 124.4,-9.5 114.4,-6 114.4,-13"/>
</g>
<!-- Node3 -->
<g id="node3" class="node">
<title>Node3</title>
<g id="a_node3"><a xlink:href="../../d9/d1e/memcpy__aarch64_8cpp.html#a156c5821f16ed93be8c7d315303f7b2a" target="_top" xlink:title=" ">
<polygon fill="white" stroke="#666666" points="311,-19 257,-19 257,0 311,0 311,-19"/>
<text text-anchor="middle" x="284" y="-7" font-family="Helvetica,sans-Serif" font-size="10.00">memcpy</text>
</a>
</g>
</g>
<!-- Node2&#45;&gt;Node3 -->
<g id="edge2" class="edge">
<title>Node2&#45;&gt;Node3</title>
<path fill="none" stroke="#63b8ff" d="M221.46,-9.5C229.35,-9.5 237.45,-9.5 245.08,-9.5"/>
<polygon fill="#63b8ff" stroke="#63b8ff" points="245.06,-13 255.06,-9.5 245.06,-6 245.06,-13"/>
</g>
<!-- Node4 -->
<g id="node4" class="node">
<title>Node4</title>
<g id="a_node4"><a xlink:href="../../d9/d1e/memcpy__aarch64_8cpp.html#a11ebdd343428c466f2f35c376d7db6d0" target="_top" xlink:title=" ">
<polygon fill="white" stroke="#666666" points="429,-19 347,-19 347,0 429,0 429,-19"/>
<text text-anchor="middle" x="388" y="-7" font-family="Helvetica,sans-Serif" font-size="10.00">inline_memcpy</text>
</a>
</g>
</g>
<!-- Node3&#45;&gt;Node4 -->
<g id="edge3" class="edge">
<title>Node3&#45;&gt;Node4</title>
<path fill="none" stroke="#63b8ff" d="M311.27,-9.5C318.65,-9.5 326.95,-9.5 335.28,-9.5"/>
<polygon fill="#63b8ff" stroke="#63b8ff" points="335.05,-13 345.05,-9.5 335.05,-6 335.05,-13"/>
</g>
</g>
</svg>
