<?xml version="1.0" encoding="UTF-8" standalone="no"?>
<!DOCTYPE svg PUBLIC "-//W3C//DTD SVG 1.1//EN"
 "http://www.w3.org/Graphics/SVG/1.1/DTD/svg11.dtd">
<!-- Generated by graphviz version 7.1.0 (20230121.1956)
 -->
<!-- Title: WeakHashLen32WithSeeds Pages: 1 -->
<svg width="806pt" height="101pt"
 viewBox="0.00 0.00 806.00 101.00" xmlns="http://www.w3.org/2000/svg" xmlns:xlink="http://www.w3.org/1999/xlink">
<g id="graph0" class="graph" transform="scale(1 1) rotate(0) translate(4 97)">
<title>WeakHashLen32WithSeeds</title>
<!-- Node1 -->
<g id="node1" class="node">
<title>Node1</title>
<g id="a_node1"><a xlink:title=" ">
<polygon fill="#999999" stroke="#666666" points="798,-56 659,-56 659,-37 798,-37 798,-56"/>
<text text-anchor="middle" x="728.5" y="-44" font-family="Helvetica,sans-Serif" font-size="10.00">WeakHashLen32WithSeeds</text>
</a>
</g>
</g>
<!-- Node2 -->
<g id="node2" class="node">
<title>Node2</title>
<g id="a_node2"><a xlink:href="../../dc/d61/namespace_city_hash__v1__0__2.html#abe254b73fecfa7a0b9ceb61f6d713c8d" target="_top" xlink:title=" ">
<polygon fill="white" stroke="#666666" points="611.5,-93 495.5,-93 495.5,-74 611.5,-74 611.5,-93"/>
<text text-anchor="middle" x="553.5" y="-81" font-family="Helvetica,sans-Serif" font-size="10.00">CityHash128WithSeed</text>
</a>
</g>
</g>
<!-- Node1&#45;&gt;Node2 -->
<g id="edge1" class="edge">
<title>Node1&#45;&gt;Node2</title>
<path fill="none" stroke="#63b8ff" d="M670.06,-58.79C647.62,-63.58 622.24,-69.01 600.99,-73.56"/>
<polygon fill="#63b8ff" stroke="#63b8ff" points="670.61,-62.25 679.66,-56.73 669.15,-55.4 670.61,-62.25"/>
</g>
<!-- Node4 -->
<g id="node4" class="node">
<title>Node4</title>
<g id="a_node4"><a xlink:href="../../dc/d61/namespace_city_hash__v1__0__2.html#ad0ba022ddd9dae3ad8f79eadc9568c76" target="_top" xlink:title=" ">
<polygon fill="white" stroke="#666666" points="587.5,-56 519.5,-56 519.5,-37 587.5,-37 587.5,-56"/>
<text text-anchor="middle" x="553.5" y="-44" font-family="Helvetica,sans-Serif" font-size="10.00">CityHash64</text>
</a>
</g>
</g>
<!-- Node1&#45;&gt;Node4 -->
<g id="edge3" class="edge">
<title>Node1&#45;&gt;Node4</title>
<path fill="none" stroke="#63b8ff" d="M647.32,-46.5C626.21,-46.5 604.6,-46.5 587.54,-46.5"/>
<polygon fill="#63b8ff" stroke="#63b8ff" points="647.12,-50 657.12,-46.5 647.12,-43 647.12,-50"/>
</g>
<!-- Node8 -->
<g id="node8" class="node">
<title>Node8</title>
<g id="a_node8"><a xlink:href="../../dc/d61/namespace_city_hash__v1__0__2.html#a6fcea2360e8ecc00c990b08d6d9b1d8e" target="_top" xlink:title=" ">
<polygon fill="white" stroke="#666666" points="623,-19 484,-19 484,0 623,0 623,-19"/>
<text text-anchor="middle" x="553.5" y="-7" font-family="Helvetica,sans-Serif" font-size="10.00">WeakHashLen32WithSeeds</text>
</a>
</g>
</g>
<!-- Node1&#45;&gt;Node8 -->
<g id="edge7" class="edge">
<title>Node1&#45;&gt;Node8</title>
<path fill="none" stroke="#63b8ff" d="M670.06,-34.21C647.62,-29.42 622.24,-23.99 600.99,-19.44"/>
<polygon fill="#63b8ff" stroke="#63b8ff" points="669.15,-37.6 679.66,-36.27 670.61,-30.75 669.15,-37.6"/>
</g>
<!-- Node3 -->
<g id="node3" class="node">
<title>Node3</title>
<g id="a_node3"><a xlink:href="../../dc/d61/namespace_city_hash__v1__0__2.html#ad487ffee003419a5c1394dc4117e6847" target="_top" xlink:title=" ">
<polygon fill="white" stroke="#666666" points="427,-93 353,-93 353,-74 427,-74 427,-93"/>
<text text-anchor="middle" x="390" y="-81" font-family="Helvetica,sans-Serif" font-size="10.00">CityHash128</text>
</a>
</g>
</g>
<!-- Node2&#45;&gt;Node3 -->
<g id="edge2" class="edge">
<title>Node2&#45;&gt;Node3</title>
<path fill="none" stroke="#63b8ff" d="M483.77,-83.5C464.27,-83.5 443.81,-83.5 427.08,-83.5"/>
<polygon fill="#63b8ff" stroke="#63b8ff" points="483.59,-87 493.59,-83.5 483.59,-80 483.59,-87"/>
</g>
<!-- Node5 -->
<g id="node5" class="node">
<title>Node5</title>
<g id="a_node5"><a xlink:href="../../dc/d61/namespace_city_hash__v1__0__2.html#abd356fce295f927ddb52e38ce76d10c2" target="_top" xlink:title=" ">
<polygon fill="white" stroke="#666666" points="448,-56 332,-56 332,-37 448,-37 448,-56"/>
<text text-anchor="middle" x="390" y="-44" font-family="Helvetica,sans-Serif" font-size="10.00">CityHash64WithSeeds</text>
</a>
</g>
</g>
<!-- Node4&#45;&gt;Node5 -->
<g id="edge4" class="edge">
<title>Node4&#45;&gt;Node5</title>
<path fill="none" stroke="#63b8ff" d="M507.74,-46.5C489.34,-46.5 467.81,-46.5 448.28,-46.5"/>
<polygon fill="#63b8ff" stroke="#63b8ff" points="507.52,-50 517.52,-46.5 507.52,-43 507.52,-50"/>
</g>
<!-- Node6 -->
<g id="node6" class="node">
<title>Node6</title>
<g id="a_node6"><a xlink:href="../../dc/d61/namespace_city_hash__v1__0__2.html#aed2a4750316c07de6ee99ee932bf28bd" target="_top" xlink:title=" ">
<polygon fill="white" stroke="#666666" points="296,-56 185,-56 185,-37 296,-37 296,-56"/>
<text text-anchor="middle" x="240.5" y="-44" font-family="Helvetica,sans-Serif" font-size="10.00">CityHash64WithSeed</text>
</a>
</g>
</g>
<!-- Node5&#45;&gt;Node6 -->
<g id="edge5" class="edge">
<title>Node5&#45;&gt;Node6</title>
<path fill="none" stroke="#63b8ff" d="M320.22,-46.5C312.14,-46.5 303.98,-46.5 296.14,-46.5"/>
<polygon fill="#63b8ff" stroke="#63b8ff" points="320.04,-50 330.04,-46.5 320.04,-43 320.04,-50"/>
</g>
<!-- Node7 -->
<g id="node7" class="node">
<title>Node7</title>
<g id="a_node7"><a xlink:href="../../d9/d0d/classdoris_1_1segment__v2_1_1_n_gram_bloom_filter.html#a1ca91582fc4b3139ae6b4c8d8a7d048d" target="_top" xlink:title=" ">
<polygon fill="white" stroke="#666666" points="149,-61.5 0,-61.5 0,-31.5 149,-31.5 149,-61.5"/>
<text text-anchor="start" x="8" y="-49.5" font-family="Helvetica,sans-Serif" font-size="10.00">doris::segment_v2::</text>
<text text-anchor="middle" x="74.5" y="-38.5" font-family="Helvetica,sans-Serif" font-size="10.00">NGramBloomFilter::add_bytes</text>
</a>
</g>
</g>
<!-- Node6&#45;&gt;Node7 -->
<g id="edge6" class="edge">
<title>Node6&#45;&gt;Node7</title>
<path fill="none" stroke="#63b8ff" d="M173.48,-46.5C165.57,-46.5 157.45,-46.5 149.43,-46.5"/>
<polygon fill="#63b8ff" stroke="#63b8ff" points="173.38,-50 183.38,-46.5 173.38,-43 173.38,-50"/>
</g>
</g>
</svg>
