<?xml version="1.0" encoding="UTF-8" standalone="no"?>
<!DOCTYPE svg PUBLIC "-//W3C//DTD SVG 1.1//EN"
 "http://www.w3.org/Graphics/SVG/1.1/DTD/svg11.dtd">
<!-- Generated by graphviz version 7.1.0 (20230121.1956)
 -->
<!-- Title: execute Pages: 1 -->
<svg width="469pt" height="64pt"
 viewBox="0.00 0.00 469.00 64.00" xmlns="http://www.w3.org/2000/svg" xmlns:xlink="http://www.w3.org/1999/xlink">
<g id="graph0" class="graph" transform="scale(1 1) rotate(0) translate(4 60)">
<title>execute</title>
<!-- Node1 -->
<g id="node1" class="node">
<title>Node1</title>
<g id="a_node1"><a xlink:title=" ">
<polygon fill="#999999" stroke="#666666" points="51,-38 0,-38 0,-19 51,-19 51,-38"/>
<text text-anchor="middle" x="25.5" y="-26" font-family="Helvetica,sans-Serif" font-size="10.00">execute</text>
</a>
</g>
</g>
<!-- Node2 -->
<g id="node2" class="node">
<title>Node2</title>
<g id="a_node2"><a xlink:href="../../d3/d1e/namespacedoris_1_1vectorized.html#ac8fe4597ad303d5ecc15c1ec7043e077" target="_top" xlink:title="Extracts scheme from given url.">
<polygon fill="white" stroke="#666666" points="182,-43.5 87,-43.5 87,-13.5 182,-13.5 182,-43.5"/>
<text text-anchor="start" x="95" y="-31.5" font-family="Helvetica,sans-Serif" font-size="10.00">doris::vectorized::</text>
<text text-anchor="middle" x="134.5" y="-20.5" font-family="Helvetica,sans-Serif" font-size="10.00">get_url_scheme</text>
</a>
</g>
</g>
<!-- Node1&#45;&gt;Node2 -->
<g id="edge1" class="edge">
<title>Node1&#45;&gt;Node2</title>
<path fill="none" stroke="#63b8ff" d="M51.32,-28.5C58.53,-28.5 66.74,-28.5 75.1,-28.5"/>
<polygon fill="#63b8ff" stroke="#63b8ff" points="75.02,-32 85.02,-28.5 75.02,-25 75.02,-32"/>
</g>
<!-- Node3 -->
<g id="node3" class="node">
<title>Node3</title>
<g id="a_node3"><a xlink:href="../../d7/d2c/string__utils_8h.html#ae80759d9a2081a53a9b630786ec19db9" target="_top" xlink:title=" ">
<polygon fill="white" stroke="#666666" points="455.5,-56 377.5,-56 377.5,-37 455.5,-37 455.5,-56"/>
<text text-anchor="middle" x="416.5" y="-44" font-family="Helvetica,sans-Serif" font-size="10.00">is_alpha_ascii</text>
</a>
</g>
</g>
<!-- Node2&#45;&gt;Node3 -->
<g id="edge2" class="edge">
<title>Node2&#45;&gt;Node3</title>
<path fill="none" stroke="#63b8ff" d="M182.37,-31.51C233.17,-34.78 313.91,-39.97 365.8,-43.3"/>
<polygon fill="#63b8ff" stroke="#63b8ff" points="365.34,-46.78 375.54,-43.93 365.78,-39.8 365.34,-46.78"/>
</g>
<!-- Node4 -->
<g id="node4" class="node">
<title>Node4</title>
<g id="a_node4"><a xlink:href="../../d7/d2c/string__utils_8h.html#aea5252cb658eda02d0fee259b8576ad5" target="_top" xlink:title=" ">
<polygon fill="white" stroke="#666666" points="336,-19 218,-19 218,0 336,0 336,-19"/>
<text text-anchor="middle" x="277" y="-7" font-family="Helvetica,sans-Serif" font-size="10.00">is_alpha_numeric_ascii</text>
</a>
</g>
</g>
<!-- Node2&#45;&gt;Node4 -->
<g id="edge3" class="edge">
<title>Node2&#45;&gt;Node4</title>
<path fill="none" stroke="#63b8ff" d="M182.28,-22.17C190.08,-21.12 198.31,-20.01 206.52,-18.9"/>
<polygon fill="#63b8ff" stroke="#63b8ff" points="206.73,-22.4 216.17,-17.59 205.79,-15.46 206.73,-22.4"/>
</g>
<!-- Node4&#45;&gt;Node3 -->
<g id="edge4" class="edge">
<title>Node4&#45;&gt;Node3</title>
<path fill="none" stroke="#63b8ff" d="M314.85,-19.42C331.03,-23.77 350.24,-28.94 367.53,-33.59"/>
<polygon fill="#63b8ff" stroke="#63b8ff" points="366.52,-36.95 377.09,-36.16 368.34,-30.19 366.52,-36.95"/>
</g>
<!-- Node5 -->
<g id="node5" class="node">
<title>Node5</title>
<g id="a_node5"><a xlink:href="../../d7/d2c/string__utils_8h.html#a89cfb66b6b07d286da68422b5d0824e9" target="_top" xlink:title=" ">
<polygon fill="white" stroke="#666666" points="461,-19 372,-19 372,0 461,0 461,-19"/>
<text text-anchor="middle" x="416.5" y="-7" font-family="Helvetica,sans-Serif" font-size="10.00">is_numeric_ascii</text>
</a>
</g>
</g>
<!-- Node4&#45;&gt;Node5 -->
<g id="edge5" class="edge">
<title>Node4&#45;&gt;Node5</title>
<path fill="none" stroke="#63b8ff" d="M336.31,-9.5C344.28,-9.5 352.44,-9.5 360.35,-9.5"/>
<polygon fill="#63b8ff" stroke="#63b8ff" points="360.19,-13 370.19,-9.5 360.19,-6 360.19,-13"/>
</g>
</g>
</svg>
