<?xml version="1.0" encoding="UTF-8" standalone="no"?>
<!DOCTYPE svg PUBLIC "-//W3C//DTD SVG 1.1//EN"
 "http://www.w3.org/Graphics/SVG/1.1/DTD/svg11.dtd">
<!-- Generated by graphviz version 7.1.0 (20230121.1956)
 -->
<!-- Title: create_aggregate_function_orthogonal Pages: 1 -->
<svg width="647pt" height="146pt"
 viewBox="0.00 0.00 647.00 146.00" xmlns="http://www.w3.org/2000/svg" xmlns:xlink="http://www.w3.org/1999/xlink">
<g id="graph0" class="graph" transform="scale(1 1) rotate(0) translate(4 142)">
<title>create_aggregate_function_orthogonal</title>
<!-- Node1 -->
<g id="node1" class="node">
<title>Node1</title>
<g id="a_node1"><a xlink:title=" ">
<polygon fill="#999999" stroke="#666666" points="131,-111 0,-111 0,-81 131,-81 131,-111"/>
<text text-anchor="start" x="8" y="-99" font-family="Helvetica,sans-Serif" font-size="10.00">create_aggregate_function</text>
<text text-anchor="middle" x="65.5" y="-88" font-family="Helvetica,sans-Serif" font-size="10.00">_orthogonal</text>
</a>
</g>
</g>
<!-- Node2 -->
<g id="node2" class="node">
<title>Node2</title>
<g id="a_node2"><a xlink:href="../../da/ddf/classdoris_1_1vectorized_1_1_i_data_type.html#a85572d16a2b625d19b71c76bd135dc99" target="_top" xlink:title="Name of data type (examples: UInt64, Array(String)).">
<polygon fill="white" stroke="#666666" points="286.5,-138 176.5,-138 176.5,-108 286.5,-108 286.5,-138"/>
<text text-anchor="start" x="184.5" y="-126" font-family="Helvetica,sans-Serif" font-size="10.00">doris::vectorized::</text>
<text text-anchor="middle" x="231.5" y="-115" font-family="Helvetica,sans-Serif" font-size="10.00">IDataType::get_name</text>
</a>
</g>
</g>
<!-- Node1&#45;&gt;Node2 -->
<g id="edge1" class="edge">
<title>Node1&#45;&gt;Node2</title>
<path fill="none" stroke="#63b8ff" d="M131.32,-106.67C142.35,-108.49 153.81,-110.37 164.86,-112.19"/>
<polygon fill="#63b8ff" stroke="#63b8ff" points="164.27,-115.64 174.7,-113.81 165.4,-108.74 164.27,-115.64"/>
</g>
<!-- Node5 -->
<g id="node5" class="node">
<title>Node5</title>
<g id="a_node5"><a xlink:href="../../d2/d24/structdoris_1_1vectorized_1_1_which_data_type.html#a8d0162c59154f981d7850a40e898283d" target="_top" xlink:title=" ">
<polygon fill="white" stroke="#666666" points="296,-89.5 167,-89.5 167,-48.5 296,-48.5 296,-89.5"/>
<text text-anchor="start" x="175" y="-77.5" font-family="Helvetica,sans-Serif" font-size="10.00">doris::vectorized::</text>
<text text-anchor="start" x="175" y="-66.5" font-family="Helvetica,sans-Serif" font-size="10.00">WhichDataType::is_string</text>
<text text-anchor="middle" x="231.5" y="-55.5" font-family="Helvetica,sans-Serif" font-size="10.00">_or_fixed_string</text>
</a>
</g>
</g>
<!-- Node1&#45;&gt;Node5 -->
<g id="edge4" class="edge">
<title>Node1&#45;&gt;Node5</title>
<path fill="none" stroke="#63b8ff" d="M131.32,-85.33C139.23,-84.03 147.36,-82.69 155.41,-81.36"/>
<polygon fill="#63b8ff" stroke="#63b8ff" points="155.9,-84.83 165.2,-79.75 154.76,-77.92 155.9,-84.83"/>
</g>
<!-- Node3 -->
<g id="node3" class="node">
<title>Node3</title>
<g id="a_node3"><a xlink:href="../../da/ddf/classdoris_1_1vectorized_1_1_i_data_type.html#a9065e669d8e05d5522c43130494b14f9" target="_top" xlink:title=" ">
<polygon fill="white" stroke="#666666" points="459.5,-138 333.5,-138 333.5,-108 459.5,-108 459.5,-138"/>
<text text-anchor="start" x="341.5" y="-126" font-family="Helvetica,sans-Serif" font-size="10.00">doris::vectorized::</text>
<text text-anchor="middle" x="396.5" y="-115" font-family="Helvetica,sans-Serif" font-size="10.00">IDataType::do_get_name</text>
</a>
</g>
</g>
<!-- Node2&#45;&gt;Node3 -->
<g id="edge2" class="edge">
<title>Node2&#45;&gt;Node3</title>
<path fill="none" stroke="#63b8ff" d="M286.78,-123C298.01,-123 310.01,-123 321.8,-123"/>
<polygon fill="#63b8ff" stroke="#63b8ff" points="321.49,-126.5 331.49,-123 321.49,-119.5 321.49,-126.5"/>
</g>
<!-- Node4 -->
<g id="node4" class="node">
<title>Node4</title>
<g id="a_node4"><a xlink:href="../../da/ddf/classdoris_1_1vectorized_1_1_i_data_type.html#aabc840d95ae450e1408c6f14f70c8bf9" target="_top" xlink:title="Name of data type family (example: FixedString, Array).">
<polygon fill="white" stroke="#666666" points="639,-138 497,-138 497,-108 639,-108 639,-138"/>
<text text-anchor="start" x="505" y="-126" font-family="Helvetica,sans-Serif" font-size="10.00">doris::vectorized::</text>
<text text-anchor="middle" x="568" y="-115" font-family="Helvetica,sans-Serif" font-size="10.00">IDataType::get_family_name</text>
</a>
</g>
</g>
<!-- Node3&#45;&gt;Node4 -->
<g id="edge3" class="edge">
<title>Node3&#45;&gt;Node4</title>
<path fill="none" stroke="#63b8ff" d="M459.65,-123C468,-123 476.65,-123 485.27,-123"/>
<polygon fill="#63b8ff" stroke="#63b8ff" points="485.03,-126.5 495.03,-123 485.03,-119.5 485.03,-126.5"/>
</g>
<!-- Node6 -->
<g id="node6" class="node">
<title>Node6</title>
<g id="a_node6"><a xlink:href="../../d2/d24/structdoris_1_1vectorized_1_1_which_data_type.html#af0e8b06fd9ca2a7156cd7e2893976f37" target="_top" xlink:title=" ">
<polygon fill="white" stroke="#666666" points="459.5,-89.5 333.5,-89.5 333.5,-48.5 459.5,-48.5 459.5,-89.5"/>
<text text-anchor="start" x="341.5" y="-77.5" font-family="Helvetica,sans-Serif" font-size="10.00">doris::vectorized::</text>
<text text-anchor="start" x="341.5" y="-66.5" font-family="Helvetica,sans-Serif" font-size="10.00">WhichDataType::is_fixed</text>
<text text-anchor="middle" x="396.5" y="-55.5" font-family="Helvetica,sans-Serif" font-size="10.00">_string</text>
</a>
</g>
</g>
<!-- Node5&#45;&gt;Node6 -->
<g id="edge5" class="edge">
<title>Node5&#45;&gt;Node6</title>
<path fill="none" stroke="#63b8ff" d="M296.45,-69C304.73,-69 313.26,-69 321.68,-69"/>
<polygon fill="#63b8ff" stroke="#63b8ff" points="321.55,-72.5 331.55,-69 321.55,-65.5 321.55,-72.5"/>
</g>
<!-- Node7 -->
<g id="node7" class="node">
<title>Node7</title>
<g id="a_node7"><a xlink:href="../../d2/d24/structdoris_1_1vectorized_1_1_which_data_type.html#a4293e6e4ab9eedb048557be4900aa3af" target="_top" xlink:title=" ">
<polygon fill="white" stroke="#666666" points="461,-30 332,-30 332,0 461,0 461,-30"/>
<text text-anchor="start" x="340" y="-18" font-family="Helvetica,sans-Serif" font-size="10.00">doris::vectorized::</text>
<text text-anchor="middle" x="396.5" y="-7" font-family="Helvetica,sans-Serif" font-size="10.00">WhichDataType::is_string</text>
</a>
</g>
</g>
<!-- Node5&#45;&gt;Node7 -->
<g id="edge6" class="edge">
<title>Node5&#45;&gt;Node7</title>
<path fill="none" stroke="#63b8ff" d="M295.52,-48.12C309.52,-43.49 324.28,-38.59 338.04,-34.04"/>
<polygon fill="#63b8ff" stroke="#63b8ff" points="339,-37.41 347.39,-30.94 336.8,-30.76 339,-37.41"/>
</g>
</g>
</svg>
