<?xml version="1.0" encoding="UTF-8" standalone="no"?>
<!DOCTYPE svg PUBLIC "-//W3C//DTD SVG 1.1//EN"
 "http://www.w3.org/Graphics/SVG/1.1/DTD/svg11.dtd">
<!-- Generated by graphviz version 7.1.0 (20230121.1956)
 -->
<!-- Title: register_aggregate_function_histogram Pages: 1 -->
<!--zoomable 200 -->
<svg id="main" version="1.1" xmlns="http://www.w3.org/2000/svg" xmlns:xlink="http://www.w3.org/1999/xlink" xml:space="preserve" onload="init(evt)">
<style type="text/css"><![CDATA[
.edge:hover path { stroke: red; }
.edge:hover polygon { stroke: red; fill: red; }
]]></style>
<script type="text/javascript"><![CDATA[
var edges = document.getElementsByTagName('g');
if (edges && edges.length) {
  for (var i=0;i<edges.length;i++) {
    if (edges[i].id.substr(0,4)=='edge') {
      edges[i].setAttribute('class','edge');
    }
  }
}
]]></script>
        <defs>
                <circle id="rim" cx="0" cy="0" r="7"/>
                <circle id="rim2" cx="0" cy="0" r="3.5"/>
                <g id="zoomPlus">
                        <use xlink:href="#rim" fill="#404040">
                                <set attributeName="fill" to="#808080" begin="zoomplus.mouseover" end="zoomplus.mouseout"/>
                        </use>
                        <path d="M-4,0h8M0,-4v8" fill="none" stroke="white" stroke-width="1.5" pointer-events="none"/>
                </g>
                <g id="zoomMin">
                        <use xlink:href="#rim" fill="#404040">
                                <set attributeName="fill" to="#808080" begin="zoomminus.mouseover" end="zoomminus.mouseout"/>
                        </use>
                        <path d="M-4,0h8" fill="none" stroke="white" stroke-width="1.5" pointer-events="none"/>
                </g>
                <g id="dirArrow">
                        <path fill="none" stroke="white" stroke-width="1.5" d="M0,-3.0v7 M-2.5,-0.5L0,-3.0L2.5,-0.5"/>
                </g>
               <g id="resetDef">
                       <use xlink:href="#rim2" fill="#404040">
                               <set attributeName="fill" to="#808080" begin="reset.mouseover" end="reset.mouseout"/>
                       </use>
               </g>
        </defs>

<script type="text/javascript">
var viewWidth = 664;
var viewHeight = 200;
var sectionId = 'dynsection-33';
</script>
<script xlink:href="../../svgpan.js"/>
<svg id="graph" class="graph">
<g id="viewport">
<title>register_aggregate_function_histogram</title>
<!-- Node1 -->
<g id="node1" class="node">
<title>Node1</title>
<g id="a_node1"><a xlink:title=" ">
<polygon fill="#999999" stroke="#666666" points="104,-94.5 0,-94.5 0,-64.5 104,-64.5 104,-94.5"/>
<text text-anchor="start" x="8" y="-82.5" font-family="Helvetica,sans-Serif" font-size="10.00">register_aggregate</text>
<text text-anchor="middle" x="52" y="-71.5" font-family="Helvetica,sans-Serif" font-size="10.00">_function_histogram</text>
</a>
</g>
</g>
<!-- Node2 -->
<g id="node2" class="node">
<title>Node2</title>
<g id="a_node2"><a xlink:href="../../d3/d1e/namespacedoris_1_1vectorized.html#a4d546ae42fe5f7523e4ff3c8caa298cb" target="_top" xlink:title=" ">
<polygon fill="white" stroke="#666666" points="286,-148.5 155,-148.5 155,-118.5 286,-118.5 286,-148.5"/>
<text text-anchor="start" x="163" y="-136.5" font-family="Helvetica,sans-Serif" font-size="10.00">create_aggregate_function</text>
<text text-anchor="middle" x="220.5" y="-125.5" font-family="Helvetica,sans-Serif" font-size="10.00">_histogram</text>
</a>
</g>
</g>
<!-- Node1&#45;&gt;Node2 -->
<g id="edge1" class="edge">
<title>Node1&#45;&gt;Node2</title>
<path fill="none" stroke="#63b8ff" d="M96.7,-94.94C110.51,-99.72 125.86,-104.93 140,-109.5 145.35,-111.23 150.92,-112.99 156.51,-114.73"/>
<polygon fill="#63b8ff" stroke="#63b8ff" points="155.2,-117.99 165.79,-117.59 157.27,-111.3 155.2,-117.99"/>
</g>
<!-- Node7 -->
<g id="node7" class="node">
<title>Node7</title>
<g id="a_node7"><a xlink:href="../../d6/d59/classdoris_1_1vectorized_1_1_aggregate_function_simple_factory.html#a8feb30502372b824486bd12c66725b7e" target="_top" xlink:title=" ">
<polygon fill="white" stroke="#666666" points="301,-100 140,-100 140,-59 301,-59 301,-100"/>
<text text-anchor="start" x="148" y="-88" font-family="Helvetica,sans-Serif" font-size="10.00">doris::vectorized::</text>
<text text-anchor="start" x="148" y="-77" font-family="Helvetica,sans-Serif" font-size="10.00">AggregateFunctionSimpleFactory</text>
<text text-anchor="middle" x="220.5" y="-66" font-family="Helvetica,sans-Serif" font-size="10.00">::register_alias</text>
</a>
</g>
</g>
<!-- Node1&#45;&gt;Node7 -->
<g id="edge6" class="edge">
<title>Node1&#45;&gt;Node7</title>
<path fill="none" stroke="#63b8ff" d="M104.31,-79.5C112,-79.5 120.11,-79.5 128.33,-79.5"/>
<polygon fill="#63b8ff" stroke="#63b8ff" points="128.06,-83 138.06,-79.5 128.06,-76 128.06,-83"/>
</g>
<!-- Node9 -->
<g id="node9" class="node">
<title>Node9</title>
<g id="a_node9"><a xlink:href="../../d6/d59/classdoris_1_1vectorized_1_1_aggregate_function_simple_factory.html#a5cb8a1a353175b86f37005131d291ca4" target="_top" xlink:title=" ">
<polygon fill="white" stroke="#666666" points="301,-41 140,-41 140,0 301,0 301,-41"/>
<text text-anchor="start" x="148" y="-29" font-family="Helvetica,sans-Serif" font-size="10.00">doris::vectorized::</text>
<text text-anchor="start" x="148" y="-18" font-family="Helvetica,sans-Serif" font-size="10.00">AggregateFunctionSimpleFactory</text>
<text text-anchor="middle" x="220.5" y="-7" font-family="Helvetica,sans-Serif" font-size="10.00">::register_function_both</text>
</a>
</g>
</g>
<!-- Node1&#45;&gt;Node9 -->
<g id="edge8" class="edge">
<title>Node1&#45;&gt;Node9</title>
<path fill="none" stroke="#63b8ff" d="M96.31,-64.15C112.59,-58.39 131.53,-51.67 149.61,-45.27"/>
<polygon fill="#63b8ff" stroke="#63b8ff" points="150.74,-48.58 159,-41.94 148.4,-41.98 150.74,-48.58"/>
</g>
<!-- Node3 -->
<g id="node3" class="node">
<title>Node3</title>
<g id="a_node3"><a xlink:href="../../d3/d1e/namespacedoris_1_1vectorized.html#a174d35d751f410a19f4bfe649d3cc3a4" target="_top" xlink:title=" ">
<polygon fill="white" stroke="#666666" points="461,-143 374,-143 374,-124 461,-124 461,-143"/>
<text text-anchor="middle" x="417.5" y="-131" font-family="Helvetica,sans-Serif" font-size="10.00">remove_nullable</text>
</a>
</g>
</g>
<!-- Node2&#45;&gt;Node3 -->
<g id="edge2" class="edge">
<title>Node2&#45;&gt;Node3</title>
<path fill="none" stroke="#63b8ff" d="M286.43,-133.5C310.98,-133.5 338.64,-133.5 362.12,-133.5"/>
<polygon fill="#63b8ff" stroke="#63b8ff" points="362.12,-137 372.12,-133.5 362.12,-130 362.12,-137"/>
</g>
<!-- Node4 -->
<g id="node4" class="node">
<title>Node4</title>
<g id="a_node4"><a xlink:href="../../da/d30/class_c_o_w_helper.html#aa14023f47995d24ce0ea777e90a4cb23" target="_top" xlink:title=" ">
<polygon fill="white" stroke="#666666" points="656,-191.5 534,-191.5 534,-161.5 656,-161.5 656,-191.5"/>
<text text-anchor="start" x="542" y="-179.5" font-family="Helvetica,sans-Serif" font-size="10.00">COWHelper&lt; IColumn,</text>
<text text-anchor="middle" x="595" y="-168.5" font-family="Helvetica,sans-Serif" font-size="10.00"> ColumnConst &gt;::create</text>
</a>
</g>
</g>
<!-- Node3&#45;&gt;Node4 -->
<g id="edge3" class="edge">
<title>Node3&#45;&gt;Node4</title>
<path fill="none" stroke="#63b8ff" d="M459.2,-143.47C478,-148.08 500.89,-153.69 522.43,-158.96"/>
<polygon fill="#63b8ff" stroke="#63b8ff" points="521.53,-162.35 532.07,-161.33 523.19,-155.55 521.53,-162.35"/>
</g>
<!-- Node5 -->
<g id="node5" class="node">
<title>Node5</title>
<g id="a_node5"><a xlink:href="../../d3/d1e/namespacedoris_1_1vectorized.html#a85dfa9ef8ec5a8555e00a9314d3a7f4d" target="_top" xlink:title="True if column&#39;s an ColumnConst instance. It&#39;s just a syntax sugar for type check.">
<polygon fill="white" stroke="#666666" points="640,-143 550,-143 550,-124 640,-124 640,-143"/>
<text text-anchor="middle" x="595" y="-131" font-family="Helvetica,sans-Serif" font-size="10.00">is_column_const</text>
</a>
</g>
</g>
<!-- Node3&#45;&gt;Node5 -->
<g id="edge4" class="edge">
<title>Node3&#45;&gt;Node5</title>
<path fill="none" stroke="#63b8ff" d="M461.43,-133.5C484.56,-133.5 513.36,-133.5 538.21,-133.5"/>
<polygon fill="#63b8ff" stroke="#63b8ff" points="538.16,-137 548.16,-133.5 538.16,-130 538.16,-137"/>
</g>
<!-- Node6 -->
<g id="node6" class="node">
<title>Node6</title>
<g id="a_node6"><a xlink:href="../../d3/d1e/namespacedoris_1_1vectorized.html#a53ba59a5e2f4e69160fec1ee139ff8df" target="_top" xlink:title="True if column&#39;s an ColumnNullable instance. It&#39;s just a syntax sugar for type check.">
<polygon fill="white" stroke="#666666" points="644.5,-106 545.5,-106 545.5,-87 644.5,-87 644.5,-106"/>
<text text-anchor="middle" x="595" y="-94" font-family="Helvetica,sans-Serif" font-size="10.00">is_column_nullable</text>
</a>
</g>
</g>
<!-- Node3&#45;&gt;Node6 -->
<g id="edge5" class="edge">
<title>Node3&#45;&gt;Node6</title>
<path fill="none" stroke="#63b8ff" d="M461.43,-124.45C483.68,-119.76 511.19,-113.96 535.37,-108.86"/>
<polygon fill="#63b8ff" stroke="#63b8ff" points="536.03,-112.3 545.09,-106.81 534.59,-105.45 536.03,-112.3"/>
</g>
<!-- Node8 -->
<g id="node8" class="node">
<title>Node8</title>
<g id="a_node8"><a xlink:href="../../de/df8/glibc-compatibility_8c.html#ae7a7aeeaf6d3e796f7f3cd8cfa46f37a" target="_top" xlink:title=" ">
<polygon fill="white" stroke="#666666" points="436,-89 399,-89 399,-70 436,-70 436,-89"/>
<text text-anchor="middle" x="417.5" y="-77" font-family="Helvetica,sans-Serif" font-size="10.00">alias</text>
</a>
</g>
</g>
<!-- Node7&#45;&gt;Node8 -->
<g id="edge7" class="edge">
<title>Node7&#45;&gt;Node8</title>
<path fill="none" stroke="#63b8ff" d="M301.38,-79.5C331.87,-79.5 364.74,-79.5 387.52,-79.5"/>
<polygon fill="#63b8ff" stroke="#63b8ff" points="387.24,-83 397.24,-79.5 387.24,-76 387.24,-83"/>
</g>
<!-- Node10 -->
<g id="node10" class="node">
<title>Node10</title>
<g id="a_node10"><a xlink:href="../../d6/d59/classdoris_1_1vectorized_1_1_aggregate_function_simple_factory.html#a3eb1cc3a50b3ac9bba414e99301b50b3" target="_top" xlink:title=" ">
<polygon fill="white" stroke="#666666" points="498,-41 337,-41 337,0 498,0 498,-41"/>
<text text-anchor="start" x="345" y="-29" font-family="Helvetica,sans-Serif" font-size="10.00">doris::vectorized::</text>
<text text-anchor="start" x="345" y="-18" font-family="Helvetica,sans-Serif" font-size="10.00">AggregateFunctionSimpleFactory</text>
<text text-anchor="middle" x="417.5" y="-7" font-family="Helvetica,sans-Serif" font-size="10.00">::register_function</text>
</a>
</g>
</g>
<!-- Node9&#45;&gt;Node10 -->
<g id="edge9" class="edge">
<title>Node9&#45;&gt;Node10</title>
<path fill="none" stroke="#63b8ff" d="M301.38,-20.5C309.31,-20.5 317.41,-20.5 325.45,-20.5"/>
<polygon fill="#63b8ff" stroke="#63b8ff" points="325.23,-24 335.23,-20.5 325.23,-17 325.23,-24"/>
</g>
</g>
</svg>
        <g id="navigator" transform="translate(0 0)" fill="#404254">
                <rect fill="#f2f5e9" fill-opacity="0.5" stroke="#606060" stroke-width=".5" x="0" y="0" width="60" height="60"/>
                <use id="zoomplus" xlink:href="#zoomPlus" x="17" y="9" onmousedown="handleZoom(evt,'in')"/>
                <use id="zoomminus" xlink:href="#zoomMin" x="42" y="9" onmousedown="handleZoom(evt,'out')"/>
                <use id="reset" xlink:href="#resetDef" x="30" y="36" onmousedown="handleReset()"/>
                <g id="arrowUp" xlink:href="#dirArrow" transform="translate(30 24)" onmousedown="handlePan(0,-1)">
                  <use xlink:href="#rim" fill="#404040">
                        <set attributeName="fill" to="#808080" begin="arrowUp.mouseover" end="arrowUp.mouseout"/>
                  </use>
                  <path fill="none" stroke="white" stroke-width="1.5" d="M0,-3.0v7 M-2.5,-0.5L0,-3.0L2.5,-0.5"/>
                </g>
                <g id="arrowRight" xlink:href="#dirArrow" transform="rotate(90) translate(36 -43)" onmousedown="handlePan(1,0)">
                  <use xlink:href="#rim" fill="#404040">
                        <set attributeName="fill" to="#808080" begin="arrowRight.mouseover" end="arrowRight.mouseout"/>
                  </use>
                  <path fill="none" stroke="white" stroke-width="1.5" d="M0,-3.0v7 M-2.5,-0.5L0,-3.0L2.5,-0.5"/>
                </g>
                <g id="arrowDown" xlink:href="#dirArrow" transform="rotate(180) translate(-30 -48)" onmousedown="handlePan(0,1)">
                  <use xlink:href="#rim" fill="#404040">
                        <set attributeName="fill" to="#808080" begin="arrowDown.mouseover" end="arrowDown.mouseout"/>
                  </use>
                  <path fill="none" stroke="white" stroke-width="1.5" d="M0,-3.0v7 M-2.5,-0.5L0,-3.0L2.5,-0.5"/>
                </g>
                <g id="arrowLeft" xlink:href="#dirArrow" transform="rotate(270) translate(-36 17)" onmousedown="handlePan(-1,0)">
                  <use xlink:href="#rim" fill="#404040">
                        <set attributeName="fill" to="#808080" begin="arrowLeft.mouseover" end="arrowLeft.mouseout"/>
                  </use>
                  <path fill="none" stroke="white" stroke-width="1.5" d="M0,-3.0v7 M-2.5,-0.5L0,-3.0L2.5,-0.5"/>
                </g>
        </g>
        <svg viewBox="0 0 15 15" width="100%" height="30px" preserveAspectRatio="xMaxYMin meet">
         <g id="arrow_out" transform="scale(0.3 0.3)">
          <a xlink:href="namespacedoris_1_1vectorized_a6d363a9f5ebf455e3c2ea73ca749a153_cgraph_org.svg" target="_base">
           <rect id="button" ry="5" rx="5" y="6" x="6" height="38" width="38"
                fill="#f2f5e9" fill-opacity="0.5" stroke="#606060" stroke-width="1.0"/>
           <path id="arrow"
             d="M 11.500037,31.436501 C 11.940474,20.09759 22.043105,11.32322 32.158766,21.979434 L 37.068811,17.246167 C 37.068811,17.246167 37.088388,32 37.088388,32 L 22.160133,31.978069 C 22.160133,31.978069 26.997745,27.140456 26.997745,27.140456 C 18.528582,18.264221 13.291696,25.230495 11.500037,31.436501 z"
             style="fill:#404040;"/>
          </a>
         </g>
        </svg>
</svg>
