<?xml version="1.0" encoding="UTF-8" standalone="no"?>
<!DOCTYPE svg PUBLIC "-//W3C//DTD SVG 1.1//EN"
 "http://www.w3.org/Graphics/SVG/1.1/DTD/svg11.dtd">
<!-- Generated by graphviz version 7.1.0 (20230121.1956)
 -->
<!-- Title: get_decimal_value Pages: 1 -->
<svg width="252pt" height="86pt"
 viewBox="0.00 0.00 252.00 86.00" xmlns="http://www.w3.org/2000/svg" xmlns:xlink="http://www.w3.org/1999/xlink">
<g id="graph0" class="graph" transform="scale(1 1) rotate(0) translate(4 82)">
<title>get_decimal_value</title>
<!-- Node1 -->
<g id="node1" class="node">
<title>Node1</title>
<g id="a_node1"><a xlink:title=" ">
<polygon fill="#999999" stroke="#666666" points="98,-48.5 0,-48.5 0,-29.5 98,-29.5 98,-48.5"/>
<text text-anchor="middle" x="49" y="-36.5" font-family="Helvetica,sans-Serif" font-size="10.00">get_decimal_value</text>
</a>
</g>
</g>
<!-- Node2 -->
<g id="node2" class="node">
<title>Node2</title>
<g id="a_node2"><a xlink:href="../../da/dde/classdoris_1_1vectorized_1_1_i_column.html#ac276c99b237c085b9717447709dedb45" target="_top" xlink:title=" ">
<polygon fill="white" stroke="#666666" points="244,-78 134,-78 134,-48 244,-48 244,-78"/>
<text text-anchor="start" x="142" y="-66" font-family="Helvetica,sans-Serif" font-size="10.00">doris::vectorized::</text>
<text text-anchor="middle" x="189" y="-55" font-family="Helvetica,sans-Serif" font-size="10.00">IColumn::get_data_at</text>
</a>
</g>
</g>
<!-- Node1&#45;&gt;Node2 -->
<g id="edge1" class="edge">
<title>Node1&#45;&gt;Node2</title>
<path fill="none" stroke="#63b8ff" d="M98.27,-47.39C106.17,-48.77 114.48,-50.21 122.72,-51.65"/>
<polygon fill="#63b8ff" stroke="#63b8ff" points="121.92,-55.06 132.38,-53.33 123.12,-48.16 121.92,-55.06"/>
</g>
<!-- Node3 -->
<g id="node3" class="node">
<title>Node3</title>
<g id="a_node3"><a xlink:href="../../da/dde/classdoris_1_1vectorized_1_1_i_column.html#adf7bb7bb5661fd4437db8a5c333444b2" target="_top" xlink:title="Various properties on behaviour of column type.">
<polygon fill="white" stroke="#666666" points="241.5,-30 136.5,-30 136.5,0 241.5,0 241.5,-30"/>
<text text-anchor="start" x="144.5" y="-18" font-family="Helvetica,sans-Serif" font-size="10.00">doris::vectorized::</text>
<text text-anchor="middle" x="189" y="-7" font-family="Helvetica,sans-Serif" font-size="10.00">IColumn::is_nullable</text>
</a>
</g>
</g>
<!-- Node1&#45;&gt;Node3 -->
<g id="edge2" class="edge">
<title>Node1&#45;&gt;Node3</title>
<path fill="none" stroke="#63b8ff" d="M98.27,-30.61C106.9,-29.1 116.01,-27.52 124.99,-25.96"/>
<polygon fill="#63b8ff" stroke="#63b8ff" points="125.5,-29.42 134.75,-24.26 124.3,-22.53 125.5,-29.42"/>
</g>
</g>
</svg>
