<?xml version="1.0" encoding="UTF-8" standalone="no"?>
<!DOCTYPE svg PUBLIC "-//W3C//DTD SVG 1.1//EN"
 "http://www.w3.org/Graphics/SVG/1.1/DTD/svg11.dtd">
<!-- Generated by graphviz version 7.1.0 (20230121.1956)
 -->
<!-- Title: check_and_get_column_const_string_or_fixedstring Pages: 1 -->
<svg width="480pt" height="157pt"
 viewBox="0.00 0.00 480.00 156.50" xmlns="http://www.w3.org/2000/svg" xmlns:xlink="http://www.w3.org/1999/xlink">
<g id="graph0" class="graph" transform="scale(1 1) rotate(0) translate(4 152.5)">
<title>check_and_get_column_const_string_or_fixedstring</title>
<!-- Node1 -->
<g id="node1" class="node">
<title>Node1</title>
<g id="a_node1"><a xlink:title="Returns non&#45;nullptr if column is ColumnConst with ColumnString or ColumnFixedString inside.">
<polygon fill="#999999" stroke="#666666" points="472,-94.5 333,-94.5 333,-64.5 472,-64.5 472,-94.5"/>
<text text-anchor="start" x="341" y="-82.5" font-family="Helvetica,sans-Serif" font-size="10.00">check_and_get_column</text>
<text text-anchor="middle" x="402.5" y="-71.5" font-family="Helvetica,sans-Serif" font-size="10.00">_const_string_or_fixedstring</text>
</a>
</g>
</g>
<!-- Node2 -->
<g id="node2" class="node">
<title>Node2</title>
<g id="a_node2"><a xlink:href="../../d6/df7/structdoris_1_1vectorized_1_1_murmur_hash3_impl.html#ad72352dfb65612d4a8310dc41da599f8" target="_top" xlink:title=" ">
<polygon fill="white" stroke="#666666" points="291.5,-148.5 154.5,-148.5 154.5,-118.5 291.5,-118.5 291.5,-148.5"/>
<text text-anchor="start" x="162.5" y="-136.5" font-family="Helvetica,sans-Serif" font-size="10.00">doris::vectorized::</text>
<text text-anchor="middle" x="223" y="-125.5" font-family="Helvetica,sans-Serif" font-size="10.00">MurmurHash3Impl::execute</text>
</a>
</g>
</g>
<!-- Node1&#45;&gt;Node2 -->
<g id="edge1" class="edge">
<title>Node1&#45;&gt;Node2</title>
<path fill="none" stroke="#63b8ff" d="M339.79,-98.27C318.59,-104.72 295.11,-111.87 274.87,-118.02"/>
<polygon fill="#63b8ff" stroke="#63b8ff" points="340.64,-101.67 349.19,-95.41 338.6,-94.98 340.64,-101.67"/>
</g>
<!-- Node3 -->
<g id="node3" class="node">
<title>Node3</title>
<g id="a_node3"><a xlink:href="../../d7/d22/classdoris_1_1vectorized_1_1_function_comparison.html#a0274c7a6711363a121f2c5a005bf87c4" target="_top" xlink:title=" ">
<polygon fill="white" stroke="#666666" points="279.5,-100 166.5,-100 166.5,-59 279.5,-59 279.5,-100"/>
<text text-anchor="start" x="174.5" y="-88" font-family="Helvetica,sans-Serif" font-size="10.00">doris::vectorized::</text>
<text text-anchor="start" x="174.5" y="-77" font-family="Helvetica,sans-Serif" font-size="10.00">FunctionComparison::</text>
<text text-anchor="middle" x="223" y="-66" font-family="Helvetica,sans-Serif" font-size="10.00">execute_string</text>
</a>
</g>
</g>
<!-- Node1&#45;&gt;Node3 -->
<g id="edge2" class="edge">
<title>Node1&#45;&gt;Node3</title>
<path fill="none" stroke="#63b8ff" d="M321.46,-79.5C307.44,-79.5 293.13,-79.5 279.94,-79.5"/>
<polygon fill="#63b8ff" stroke="#63b8ff" points="321.11,-83 331.11,-79.5 321.11,-76 321.11,-83"/>
</g>
<!-- Node5 -->
<g id="node5" class="node">
<title>Node5</title>
<g id="a_node5"><a xlink:href="../../dd/d26/structdoris_1_1vectorized_1_1_murmur_hash2_impl64.html#af400e623fa9bbdf5dc3ac07dcf0b1124" target="_top" xlink:title=" ">
<polygon fill="white" stroke="#666666" points="297,-41 149,-41 149,0 297,0 297,-41"/>
<text text-anchor="start" x="157" y="-29" font-family="Helvetica,sans-Serif" font-size="10.00">doris::vectorized::</text>
<text text-anchor="start" x="157" y="-18" font-family="Helvetica,sans-Serif" font-size="10.00">MurmurHash2Impl64::execute</text>
<text text-anchor="middle" x="223" y="-7" font-family="Helvetica,sans-Serif" font-size="10.00">_string</text>
</a>
</g>
</g>
<!-- Node1&#45;&gt;Node5 -->
<g id="edge4" class="edge">
<title>Node1&#45;&gt;Node5</title>
<path fill="none" stroke="#63b8ff" d="M344.5,-60.55C326.16,-54.46 305.73,-47.67 286.98,-41.43"/>
<polygon fill="#63b8ff" stroke="#63b8ff" points="343.3,-63.84 353.89,-63.68 345.51,-57.2 343.3,-63.84"/>
</g>
<!-- Node4 -->
<g id="node4" class="node">
<title>Node4</title>
<g id="a_node4"><a xlink:href="../../d7/d22/classdoris_1_1vectorized_1_1_function_comparison.html#addc3120590db01e8bbf9fe9e23f79594" target="_top" xlink:title="TODO: make const">
<polygon fill="white" stroke="#666666" points="113,-100 0,-100 0,-59 113,-59 113,-100"/>
<text text-anchor="start" x="8" y="-88" font-family="Helvetica,sans-Serif" font-size="10.00">doris::vectorized::</text>
<text text-anchor="start" x="8" y="-77" font-family="Helvetica,sans-Serif" font-size="10.00">FunctionComparison::</text>
<text text-anchor="middle" x="56.5" y="-66" font-family="Helvetica,sans-Serif" font-size="10.00">execute_impl</text>
</a>
</g>
</g>
<!-- Node3&#45;&gt;Node4 -->
<g id="edge3" class="edge">
<title>Node3&#45;&gt;Node4</title>
<path fill="none" stroke="#63b8ff" d="M154.9,-79.5C141.12,-79.5 126.75,-79.5 113.41,-79.5"/>
<polygon fill="#63b8ff" stroke="#63b8ff" points="154.79,-83 164.79,-79.5 154.79,-76 154.79,-83"/>
</g>
</g>
</svg>
