<?xml version="1.0" encoding="UTF-8" standalone="no"?>
<!DOCTYPE svg PUBLIC "-//W3C//DTD SVG 1.1//EN"
 "http://www.w3.org/Graphics/SVG/1.1/DTD/svg11.dtd">
<!-- Generated by graphviz version 7.1.0 (20230121.1956)
 -->
<!-- Title: create_mutable_data Pages: 1 -->
<svg width="459pt" height="269pt"
 viewBox="0.00 0.00 459.00 269.00" xmlns="http://www.w3.org/2000/svg" xmlns:xlink="http://www.w3.org/1999/xlink">
<g id="graph0" class="graph" transform="scale(1 1) rotate(0) translate(4 265)">
<title>create_mutable_data</title>
<!-- Node1 -->
<g id="node1" class="node">
<title>Node1</title>
<g id="a_node1"><a xlink:title=" ">
<polygon fill="#999999" stroke="#666666" points="451,-148 344,-148 344,-129 451,-129 451,-148"/>
<text text-anchor="middle" x="397.5" y="-136" font-family="Helvetica,sans-Serif" font-size="10.00">create_mutable_data</text>
</a>
</g>
</g>
<!-- Node2 -->
<g id="node2" class="node">
<title>Node2</title>
<g id="a_node2"><a xlink:href="../../df/dd9/structdoris_1_1vectorized_1_1_array_reverse_impl.html#a3c0911d7594350f133a79bef88634e3e" target="_top" xlink:title=" ">
<polygon fill="white" stroke="#666666" points="308,-255.5 167,-255.5 167,-225.5 308,-225.5 308,-255.5"/>
<text text-anchor="start" x="175" y="-243.5" font-family="Helvetica,sans-Serif" font-size="10.00">doris::vectorized::</text>
<text text-anchor="middle" x="237.5" y="-232.5" font-family="Helvetica,sans-Serif" font-size="10.00">ArrayReverseImpl::_execute</text>
</a>
</g>
</g>
<!-- Node1&#45;&gt;Node2 -->
<g id="edge1" class="edge">
<title>Node1&#45;&gt;Node2</title>
<path fill="none" stroke="#63b8ff" d="M380.21,-156.47C363.55,-173.91 336.18,-200.08 308,-216.5 302.48,-219.71 296.47,-222.59 290.37,-225.13"/>
<polygon fill="#63b8ff" stroke="#63b8ff" points="382.59,-159.05 386.86,-149.35 377.47,-154.27 382.59,-159.05"/>
</g>
<!-- Node4 -->
<g id="node4" class="node">
<title>Node4</title>
<g id="a_node4"><a xlink:href="../../d7/d3d/structdoris_1_1vectorized_1_1_array_set_impl.html#adc9e36fadf0c34204f3461576e894ee7" target="_top" xlink:title=" ">
<polygon fill="white" stroke="#666666" points="294.5,-207.5 180.5,-207.5 180.5,-177.5 294.5,-177.5 294.5,-207.5"/>
<text text-anchor="start" x="188.5" y="-195.5" font-family="Helvetica,sans-Serif" font-size="10.00">doris::vectorized::</text>
<text text-anchor="middle" x="237.5" y="-184.5" font-family="Helvetica,sans-Serif" font-size="10.00">ArraySetImpl::execute</text>
</a>
</g>
</g>
<!-- Node1&#45;&gt;Node4 -->
<g id="edge3" class="edge">
<title>Node1&#45;&gt;Node4</title>
<path fill="none" stroke="#63b8ff" d="M356.79,-152.07C334.57,-159.67 306.79,-169.16 283.74,-177.04"/>
<polygon fill="#63b8ff" stroke="#63b8ff" points="357.76,-155.44 366.09,-148.89 355.49,-148.82 357.76,-155.44"/>
</g>
<!-- Node5 -->
<g id="node5" class="node">
<title>Node5</title>
<g id="a_node5"><a xlink:href="../../db/dae/classdoris_1_1vectorized_1_1_function_array_popback.html#addc3120590db01e8bbf9fe9e23f79594" target="_top" xlink:title="TODO: make const">
<polygon fill="white" stroke="#666666" points="295.5,-159 179.5,-159 179.5,-118 295.5,-118 295.5,-159"/>
<text text-anchor="start" x="187.5" y="-147" font-family="Helvetica,sans-Serif" font-size="10.00">doris::vectorized::</text>
<text text-anchor="start" x="187.5" y="-136" font-family="Helvetica,sans-Serif" font-size="10.00">FunctionArrayPopback</text>
<text text-anchor="middle" x="237.5" y="-125" font-family="Helvetica,sans-Serif" font-size="10.00">::execute_impl</text>
</a>
</g>
</g>
<!-- Node1&#45;&gt;Node5 -->
<g id="edge4" class="edge">
<title>Node1&#45;&gt;Node5</title>
<path fill="none" stroke="#63b8ff" d="M332.44,-138.5C320.31,-138.5 307.68,-138.5 295.77,-138.5"/>
<polygon fill="#63b8ff" stroke="#63b8ff" points="332.37,-142 342.37,-138.5 332.37,-135 332.37,-142"/>
</g>
<!-- Node6 -->
<g id="node6" class="node">
<title>Node6</title>
<g id="a_node6"><a xlink:href="../../de/d5d/classdoris_1_1vectorized_1_1_function_array_popfront.html#addc3120590db01e8bbf9fe9e23f79594" target="_top" xlink:title="TODO: make const">
<polygon fill="white" stroke="#666666" points="294.5,-100 180.5,-100 180.5,-59 294.5,-59 294.5,-100"/>
<text text-anchor="start" x="188.5" y="-88" font-family="Helvetica,sans-Serif" font-size="10.00">doris::vectorized::</text>
<text text-anchor="start" x="188.5" y="-77" font-family="Helvetica,sans-Serif" font-size="10.00">FunctionArrayPopfront</text>
<text text-anchor="middle" x="237.5" y="-66" font-family="Helvetica,sans-Serif" font-size="10.00">::execute_impl</text>
</a>
</g>
</g>
<!-- Node1&#45;&gt;Node6 -->
<g id="edge5" class="edge">
<title>Node1&#45;&gt;Node6</title>
<path fill="none" stroke="#63b8ff" d="M359.29,-124.6C340,-117.4 316.04,-108.45 294.55,-100.43"/>
<polygon fill="#63b8ff" stroke="#63b8ff" points="358.04,-127.88 368.64,-128.1 360.49,-121.32 358.04,-127.88"/>
</g>
<!-- Node7 -->
<g id="node7" class="node">
<title>Node7</title>
<g id="a_node7"><a xlink:href="../../d6/dfb/classdoris_1_1vectorized_1_1_function_array_slice.html#addc3120590db01e8bbf9fe9e23f79594" target="_top" xlink:title="TODO: make const">
<polygon fill="white" stroke="#666666" points="290,-41 185,-41 185,0 290,0 290,-41"/>
<text text-anchor="start" x="193" y="-29" font-family="Helvetica,sans-Serif" font-size="10.00">doris::vectorized::</text>
<text text-anchor="start" x="193" y="-18" font-family="Helvetica,sans-Serif" font-size="10.00">FunctionArraySlice::</text>
<text text-anchor="middle" x="237.5" y="-7" font-family="Helvetica,sans-Serif" font-size="10.00">execute_impl</text>
</a>
</g>
</g>
<!-- Node1&#45;&gt;Node7 -->
<g id="edge6" class="edge">
<title>Node1&#45;&gt;Node7</title>
<path fill="none" stroke="#63b8ff" d="M381.39,-119.77C364.97,-100.39 337.17,-70.24 308,-50.5 302.45,-46.74 296.35,-43.29 290.15,-40.18"/>
<polygon fill="#63b8ff" stroke="#63b8ff" points="378.64,-121.94 387.72,-127.4 384.03,-117.47 378.64,-121.94"/>
</g>
<!-- Node3 -->
<g id="node3" class="node">
<title>Node3</title>
<g id="a_node3"><a xlink:href="../../de/d34/classdoris_1_1vectorized_1_1_function_reverse_common.html#addc3120590db01e8bbf9fe9e23f79594" target="_top" xlink:title="TODO: make const">
<polygon fill="white" stroke="#666666" points="131,-261 0,-261 0,-220 131,-220 131,-261"/>
<text text-anchor="start" x="8" y="-249" font-family="Helvetica,sans-Serif" font-size="10.00">doris::vectorized::</text>
<text text-anchor="start" x="8" y="-238" font-family="Helvetica,sans-Serif" font-size="10.00">FunctionReverseCommon</text>
<text text-anchor="middle" x="65.5" y="-227" font-family="Helvetica,sans-Serif" font-size="10.00">::execute_impl</text>
</a>
</g>
</g>
<!-- Node2&#45;&gt;Node3 -->
<g id="edge2" class="edge">
<title>Node2&#45;&gt;Node3</title>
<path fill="none" stroke="#63b8ff" d="M155.49,-240.5C147.4,-240.5 139.27,-240.5 131.38,-240.5"/>
<polygon fill="#63b8ff" stroke="#63b8ff" points="155.35,-244 165.35,-240.5 155.35,-237 155.35,-244"/>
</g>
</g>
</svg>
