<?xml version="1.0" encoding="UTF-8" standalone="no"?>
<!DOCTYPE svg PUBLIC "-//W3C//DTD SVG 1.1//EN"
 "http://www.w3.org/Graphics/SVG/1.1/DTD/svg11.dtd">
<!-- Generated by graphviz version 7.1.0 (20230121.1956)
 -->
<!-- Title: create_mutable_data Pages: 1 -->
<svg width="786pt" height="238pt"
 viewBox="0.00 0.00 786.00 237.50" xmlns="http://www.w3.org/2000/svg" xmlns:xlink="http://www.w3.org/1999/xlink">
<g id="graph0" class="graph" transform="scale(1 1) rotate(0) translate(4 233.5)">
<title>create_mutable_data</title>
<!-- Node1 -->
<g id="node1" class="node">
<title>Node1</title>
<g id="a_node1"><a xlink:title=" ">
<polygon fill="#999999" stroke="#666666" points="107,-110 0,-110 0,-91 107,-91 107,-110"/>
<text text-anchor="middle" x="53.5" y="-98" font-family="Helvetica,sans-Serif" font-size="10.00">create_mutable_data</text>
</a>
</g>
</g>
<!-- Node2 -->
<g id="node2" class="node">
<title>Node2</title>
<g id="a_node2"><a xlink:href="../../da/dde/classdoris_1_1vectorized_1_1_i_column.html#ae72eedd0de6aefce5514b9a425cb1d4e" target="_top" xlink:title="Creates empty column with the same type.">
<polygon fill="white" stroke="#666666" points="286.5,-229.5 171.5,-229.5 171.5,-199.5 286.5,-199.5 286.5,-229.5"/>
<text text-anchor="start" x="179.5" y="-217.5" font-family="Helvetica,sans-Serif" font-size="10.00">doris::vectorized::</text>
<text text-anchor="middle" x="229" y="-206.5" font-family="Helvetica,sans-Serif" font-size="10.00">IColumn::clone_empty</text>
</a>
</g>
</g>
<!-- Node1&#45;&gt;Node2 -->
<g id="edge1" class="edge">
<title>Node1&#45;&gt;Node2</title>
<path fill="none" stroke="#63b8ff" d="M61.33,-110.25C74.79,-128.74 106.61,-168.96 143,-190.5 148.58,-193.8 154.63,-196.67 160.86,-199.15"/>
<polygon fill="#63b8ff" stroke="#63b8ff" points="159.41,-202.35 170,-202.47 161.79,-195.77 159.41,-202.35"/>
</g>
<!-- Node6 -->
<g id="node6" class="node">
<title>Node6</title>
<g id="a_node6"><a xlink:href="../../da/d30/class_c_o_w_helper.html#aa14023f47995d24ce0ea777e90a4cb23" target="_top" xlink:title=" ">
<polygon fill="white" stroke="#666666" points="315,-181.5 143,-181.5 143,-151.5 315,-151.5 315,-181.5"/>
<text text-anchor="start" x="151" y="-169.5" font-family="Helvetica,sans-Serif" font-size="10.00">COWHelper&lt; ColumnVectorHelper,</text>
<text text-anchor="middle" x="229" y="-158.5" font-family="Helvetica,sans-Serif" font-size="10.00"> ColumnVector&lt; T &gt; &gt;::create</text>
</a>
</g>
</g>
<!-- Node1&#45;&gt;Node6 -->
<g id="edge5" class="edge">
<title>Node1&#45;&gt;Node6</title>
<path fill="none" stroke="#63b8ff" d="M73.09,-110.45C90.73,-119.62 118.16,-133.18 143,-142.5 147.73,-144.28 152.65,-145.99 157.64,-147.64"/>
<polygon fill="#63b8ff" stroke="#63b8ff" points="156.57,-150.97 167.16,-150.65 158.68,-144.29 156.57,-150.97"/>
</g>
<!-- Node7 -->
<g id="node7" class="node">
<title>Node7</title>
<g id="a_node7"><a xlink:href="../../d4/d41/classdoris_1_1vectorized_1_1_column_nullable.html#aa56bff67215caba11a6411e09b739913" target="_top" xlink:title=" ">
<polygon fill="white" stroke="#666666" points="288.5,-115.5 169.5,-115.5 169.5,-85.5 288.5,-85.5 288.5,-115.5"/>
<text text-anchor="start" x="177.5" y="-103.5" font-family="Helvetica,sans-Serif" font-size="10.00">doris::vectorized::</text>
<text text-anchor="middle" x="229" y="-92.5" font-family="Helvetica,sans-Serif" font-size="10.00">ColumnNullable::create</text>
</a>
</g>
</g>
<!-- Node1&#45;&gt;Node7 -->
<g id="edge6" class="edge">
<title>Node1&#45;&gt;Node7</title>
<path fill="none" stroke="#63b8ff" d="M107.5,-100.5C123.37,-100.5 141.02,-100.5 157.82,-100.5"/>
<polygon fill="#63b8ff" stroke="#63b8ff" points="157.76,-104 167.76,-100.5 157.76,-97 157.76,-104"/>
</g>
<!-- Node8 -->
<g id="node8" class="node">
<title>Node8</title>
<g id="a_node8"><a xlink:href="../../da/dde/classdoris_1_1vectorized_1_1_i_column.html#a71519a1ef85e0995614698c86be7f73e" target="_top" xlink:title="Like the previous one, but avoids extra copying if Field is in a container, for example.">
<polygon fill="white" stroke="#666666" points="276.5,-67.5 181.5,-67.5 181.5,-37.5 276.5,-37.5 276.5,-67.5"/>
<text text-anchor="start" x="189.5" y="-55.5" font-family="Helvetica,sans-Serif" font-size="10.00">doris::vectorized::</text>
<text text-anchor="middle" x="229" y="-44.5" font-family="Helvetica,sans-Serif" font-size="10.00">IColumn::get</text>
</a>
</g>
</g>
<!-- Node1&#45;&gt;Node8 -->
<g id="edge8" class="edge">
<title>Node1&#45;&gt;Node8</title>
<path fill="none" stroke="#63b8ff" d="M90.45,-90.55C113.46,-84.19 143.85,-75.78 170.2,-68.49"/>
<polygon fill="#63b8ff" stroke="#63b8ff" points="171.05,-71.89 179.76,-65.85 169.18,-65.14 171.05,-71.89"/>
</g>
<!-- Node9 -->
<g id="node9" class="node">
<title>Node9</title>
<g id="a_node9"><a xlink:href="../../d5/d29/uint24_8h.html#a2548205c24a5abb8e9a504a1f8cf5862" target="_top" xlink:title=" ">
<polygon fill="white" stroke="#666666" points="256,-19 202,-19 202,0 256,0 256,-19"/>
<text text-anchor="middle" x="229" y="-7" font-family="Helvetica,sans-Serif" font-size="10.00">get_data</text>
</a>
</g>
</g>
<!-- Node1&#45;&gt;Node9 -->
<g id="edge9" class="edge">
<title>Node1&#45;&gt;Node9</title>
<path fill="none" stroke="#63b8ff" d="M63.3,-90.9C78.15,-75.3 109.85,-44.57 143,-28.5 157.75,-21.35 175.24,-16.85 190.51,-14.04"/>
<polygon fill="#63b8ff" stroke="#63b8ff" points="190.89,-17.52 200.18,-12.44 189.75,-10.61 190.89,-17.52"/>
</g>
<!-- Node3 -->
<g id="node3" class="node">
<title>Node3</title>
<g id="a_node3"><a xlink:href="../../da/dde/classdoris_1_1vectorized_1_1_i_column.html#a1179155f1026179959c22a11511fc2bb" target="_top" xlink:title=" ">
<polygon fill="white" stroke="#666666" points="470,-229.5 351,-229.5 351,-199.5 470,-199.5 470,-229.5"/>
<text text-anchor="start" x="359" y="-217.5" font-family="Helvetica,sans-Serif" font-size="10.00">doris::vectorized::</text>
<text text-anchor="middle" x="410.5" y="-206.5" font-family="Helvetica,sans-Serif" font-size="10.00">IColumn::clone_resized</text>
</a>
</g>
</g>
<!-- Node2&#45;&gt;Node3 -->
<g id="edge2" class="edge">
<title>Node2&#45;&gt;Node3</title>
<path fill="none" stroke="#63b8ff" d="M286.79,-214.5C303.48,-214.5 321.92,-214.5 339.34,-214.5"/>
<polygon fill="#63b8ff" stroke="#63b8ff" points="339.09,-218 349.09,-214.5 339.09,-211 339.09,-218"/>
</g>
<!-- Node4 -->
<g id="node4" class="node">
<title>Node4</title>
<g id="a_node4"><a xlink:href="../../da/dde/classdoris_1_1vectorized_1_1_i_column.html#a1c3f0d49bb1075004684acd250caebd4" target="_top" xlink:title="Name of a Column. It is used in info messages.">
<polygon fill="white" stroke="#666666" points="608,-229.5 506,-229.5 506,-199.5 608,-199.5 608,-229.5"/>
<text text-anchor="start" x="514" y="-217.5" font-family="Helvetica,sans-Serif" font-size="10.00">doris::vectorized::</text>
<text text-anchor="middle" x="557" y="-206.5" font-family="Helvetica,sans-Serif" font-size="10.00">IColumn::get_name</text>
</a>
</g>
</g>
<!-- Node3&#45;&gt;Node4 -->
<g id="edge3" class="edge">
<title>Node3&#45;&gt;Node4</title>
<path fill="none" stroke="#63b8ff" d="M470.27,-214.5C478.15,-214.5 486.24,-214.5 494.17,-214.5"/>
<polygon fill="#63b8ff" stroke="#63b8ff" points="494.1,-218 504.1,-214.5 494.1,-211 494.1,-218"/>
</g>
<!-- Node5 -->
<g id="node5" class="node">
<title>Node5</title>
<g id="a_node5"><a xlink:href="../../da/dde/classdoris_1_1vectorized_1_1_i_column.html#aabc840d95ae450e1408c6f14f70c8bf9" target="_top" xlink:title="Name of a Column kind, without parameters (example: FixedString, Array).">
<polygon fill="white" stroke="#666666" points="778,-229.5 644,-229.5 644,-199.5 778,-199.5 778,-229.5"/>
<text text-anchor="start" x="652" y="-217.5" font-family="Helvetica,sans-Serif" font-size="10.00">doris::vectorized::</text>
<text text-anchor="middle" x="711" y="-206.5" font-family="Helvetica,sans-Serif" font-size="10.00">IColumn::get_family_name</text>
</a>
</g>
</g>
<!-- Node4&#45;&gt;Node5 -->
<g id="edge4" class="edge">
<title>Node4&#45;&gt;Node5</title>
<path fill="none" stroke="#63b8ff" d="M608.19,-214.5C615.89,-214.5 623.99,-214.5 632.12,-214.5"/>
<polygon fill="#63b8ff" stroke="#63b8ff" points="632.08,-218 642.08,-214.5 632.08,-211 632.08,-218"/>
</g>
<!-- Node7&#45;&gt;Node7 -->
<g id="edge7" class="edge">
<title>Node7&#45;&gt;Node7</title>
<path fill="none" stroke="#63b8ff" d="M198.15,-115.78C191.29,-124.91 201.58,-133.5 229,-133.5 244,-133.5 253.87,-130.93 258.61,-127.11"/>
<polygon fill="#63b8ff" stroke="#63b8ff" points="262.08,-127.6 259.69,-117.28 255.12,-126.84 262.08,-127.6"/>
</g>
</g>
</svg>
