<?xml version="1.0" encoding="UTF-8" standalone="no"?>
<!DOCTYPE svg PUBLIC "-//W3C//DTD SVG 1.1//EN"
 "http://www.w3.org/Graphics/SVG/1.1/DTD/svg11.dtd">
<!-- Generated by graphviz version 7.1.0 (20230121.1956)
 -->
<!-- Title: read_string_binary Pages: 1 -->
<!--zoomable 1523 -->
<svg id="main" version="1.1" xmlns="http://www.w3.org/2000/svg" xmlns:xlink="http://www.w3.org/1999/xlink" xml:space="preserve" onload="init(evt)">
<style type="text/css"><![CDATA[
.edge:hover path { stroke: red; }
.edge:hover polygon { stroke: red; fill: red; }
]]></style>
<script type="text/javascript"><![CDATA[
var edges = document.getElementsByTagName('g');
if (edges && edges.length) {
  for (var i=0;i<edges.length;i++) {
    if (edges[i].id.substr(0,4)=='edge') {
      edges[i].setAttribute('class','edge');
    }
  }
}
]]></script>
        <defs>
                <circle id="rim" cx="0" cy="0" r="7"/>
                <circle id="rim2" cx="0" cy="0" r="3.5"/>
                <g id="zoomPlus">
                        <use xlink:href="#rim" fill="#404040">
                                <set attributeName="fill" to="#808080" begin="zoomplus.mouseover" end="zoomplus.mouseout"/>
                        </use>
                        <path d="M-4,0h8M0,-4v8" fill="none" stroke="white" stroke-width="1.5" pointer-events="none"/>
                </g>
                <g id="zoomMin">
                        <use xlink:href="#rim" fill="#404040">
                                <set attributeName="fill" to="#808080" begin="zoomminus.mouseover" end="zoomminus.mouseout"/>
                        </use>
                        <path d="M-4,0h8" fill="none" stroke="white" stroke-width="1.5" pointer-events="none"/>
                </g>
                <g id="dirArrow">
                        <path fill="none" stroke="white" stroke-width="1.5" d="M0,-3.0v7 M-2.5,-0.5L0,-3.0L2.5,-0.5"/>
                </g>
               <g id="resetDef">
                       <use xlink:href="#rim2" fill="#404040">
                               <set attributeName="fill" to="#808080" begin="reset.mouseover" end="reset.mouseout"/>
                       </use>
               </g>
        </defs>

<script type="text/javascript">
var viewWidth = 909;
var viewHeight = 1523;
var sectionId = 'dynsection-568';
</script>
<script xlink:href="../../svgpan.js"/>
<svg id="graph" class="graph">
<g id="viewport">
<title>read_string_binary</title>
<!-- Node1 -->
<g id="node1" class="node">
<title>Node1</title>
<g id="a_node1"><a xlink:title=" ">
<polygon fill="#999999" stroke="#666666" points="901,-862 805,-862 805,-843 901,-843 901,-862"/>
<text text-anchor="middle" x="853" y="-850" font-family="Helvetica,sans-Serif" font-size="10.00">read_string_binary</text>
</a>
</g>
</g>
<!-- Node2 -->
<g id="node2" class="node">
<title>Node2</title>
<g id="a_node2"><a xlink:href="../../d3/d96/structdoris_1_1vectorized_1_1_aggregate_function_distinct_generic_data.html#ac1320f448c9598d33e5460e0dd3edb48" target="_top" xlink:title=" ">
<polygon fill="white" stroke="#666666" points="769,-1021 603,-1021 603,-980 769,-980 769,-1021"/>
<text text-anchor="start" x="611" y="-1009" font-family="Helvetica,sans-Serif" font-size="10.00">doris::vectorized::</text>
<text text-anchor="start" x="611" y="-998" font-family="Helvetica,sans-Serif" font-size="10.00">AggregateFunctionDistinctGeneric</text>
<text text-anchor="middle" x="686" y="-987" font-family="Helvetica,sans-Serif" font-size="10.00">Data::deserialize</text>
</a>
</g>
</g>
<!-- Node1&#45;&gt;Node2 -->
<g id="edge1" class="edge">
<title>Node1&#45;&gt;Node2</title>
<path fill="none" stroke="#63b8ff" d="M842.8,-872.41C829.82,-898.43 803.8,-943.81 769,-970.5 764.55,-973.91 759.67,-976.97 754.59,-979.69"/>
<polygon fill="#63b8ff" stroke="#63b8ff" points="845.84,-874.15 847.03,-863.62 839.54,-871.11 845.84,-874.15"/>
</g>
<!-- Node3 -->
<g id="node3" class="node">
<title>Node3</title>
<g id="a_node3"><a xlink:href="../../d9/ddd/classdoris_1_1vectorized_1_1_data_type_bit_map.html#a9a7bc77dd92bc9c1f8359974fb9e7c23" target="_top" xlink:title=" ">
<polygon fill="white" stroke="#666666" points="757,-962 615,-962 615,-921 757,-921 757,-962"/>
<text text-anchor="start" x="623" y="-950" font-family="Helvetica,sans-Serif" font-size="10.00">doris::vectorized::</text>
<text text-anchor="start" x="623" y="-939" font-family="Helvetica,sans-Serif" font-size="10.00">DataTypeBitMap::deserialize</text>
<text text-anchor="middle" x="686" y="-928" font-family="Helvetica,sans-Serif" font-size="10.00">_as_stream</text>
</a>
</g>
</g>
<!-- Node1&#45;&gt;Node3 -->
<g id="edge2" class="edge">
<title>Node1&#45;&gt;Node3</title>
<path fill="none" stroke="#63b8ff" d="M831.67,-869.31C815.45,-882.11 791.76,-899.53 769,-911.5 762.83,-914.75 756.23,-917.8 749.55,-920.61"/>
<polygon fill="#63b8ff" stroke="#63b8ff" points="833.51,-872.32 839.11,-863.32 829.12,-866.86 833.51,-872.32"/>
</g>
<!-- Node6 -->
<g id="node6" class="node">
<title>Node6</title>
<g id="a_node6"><a xlink:href="../../db/d7a/classdoris_1_1vectorized_1_1_data_type_h_l_l.html#a84d0d919eb9d0c9d9ab812bc6669c64a" target="_top" xlink:title=" ">
<polygon fill="white" stroke="#666666" points="750.5,-903 621.5,-903 621.5,-862 750.5,-862 750.5,-903"/>
<text text-anchor="start" x="629.5" y="-891" font-family="Helvetica,sans-Serif" font-size="10.00">doris::vectorized::</text>
<text text-anchor="start" x="629.5" y="-880" font-family="Helvetica,sans-Serif" font-size="10.00">DataTypeHLL::deserialize</text>
<text text-anchor="middle" x="686" y="-869" font-family="Helvetica,sans-Serif" font-size="10.00">_as_stream</text>
</a>
</g>
</g>
<!-- Node1&#45;&gt;Node6 -->
<g id="edge5" class="edge">
<title>Node1&#45;&gt;Node6</title>
<path fill="none" stroke="#63b8ff" d="M793.41,-863.15C779.64,-865.66 764.89,-868.34 750.9,-870.88"/>
<polygon fill="#63b8ff" stroke="#63b8ff" points="794.02,-866.6 803.23,-861.37 792.76,-859.71 794.02,-866.6"/>
</g>
<!-- Node7 -->
<g id="node7" class="node">
<title>Node7</title>
<g id="a_node7"><a xlink:href="../../d7/dce/structdoris_1_1vectorized_1_1_aggregate_function_collect_set_data_3_01_string_ref_01_4.html#adee1f511c659624c5e46db33f73bf249" target="_top" xlink:title=" ">
<polygon fill="white" stroke="#666666" points="758,-844 614,-844 614,-803 758,-803 758,-844"/>
<text text-anchor="start" x="622" y="-832" font-family="Helvetica,sans-Serif" font-size="10.00">doris::vectorized::</text>
<text text-anchor="start" x="622" y="-821" font-family="Helvetica,sans-Serif" font-size="10.00">AggregateFunctionCollectSet</text>
<text text-anchor="middle" x="686" y="-810" font-family="Helvetica,sans-Serif" font-size="10.00">Data&lt; StringRef &gt;::read</text>
</a>
</g>
</g>
<!-- Node1&#45;&gt;Node7 -->
<g id="edge6" class="edge">
<title>Node1&#45;&gt;Node7</title>
<path fill="none" stroke="#63b8ff" d="M793.56,-842.23C782.15,-840.22 770.06,-838.1 758.28,-836.03"/>
<polygon fill="#63b8ff" stroke="#63b8ff" points="792.77,-845.64 803.23,-843.93 793.98,-838.75 792.77,-845.64"/>
</g>
<!-- Node8 -->
<g id="node8" class="node">
<title>Node8</title>
<g id="a_node8"><a xlink:href="../../d3/d1e/namespacedoris_1_1vectorized.html#ac8e58b1be2f3db71f2f4b833c63dd1d8" target="_top" xlink:title=" ">
<polygon fill="white" stroke="#666666" points="513,-746 446,-746 446,-727 513,-727 513,-746"/>
<text text-anchor="middle" x="479.5" y="-734" font-family="Helvetica,sans-Serif" font-size="10.00">read_binary</text>
</a>
</g>
</g>
<!-- Node1&#45;&gt;Node8 -->
<g id="edge7" class="edge">
<title>Node1&#45;&gt;Node8</title>
<path fill="none" stroke="#63b8ff" d="M833.24,-835.6C817.28,-822.14 793.16,-803.9 769,-793.5 723.1,-773.74 578.71,-750.87 513.29,-741.2"/>
<polygon fill="#63b8ff" stroke="#63b8ff" points="830.64,-837.98 840.49,-841.88 835.22,-832.69 830.64,-837.98"/>
</g>
<!-- Node42 -->
<g id="node42" class="node">
<title>Node42</title>
<g id="a_node42"><a xlink:href="../../d3/d1e/namespacedoris_1_1vectorized.html#aca64d4f42e415be777a921e69e557fe1" target="_top" xlink:title=" ">
<polygon fill="white" stroke="#666666" points="731,-746 641,-746 641,-727 731,-727 731,-746"/>
<text text-anchor="middle" x="686" y="-734" font-family="Helvetica,sans-Serif" font-size="10.00">read_json_binary</text>
</a>
</g>
</g>
<!-- Node1&#45;&gt;Node42 -->
<g id="edge43" class="edge">
<title>Node1&#45;&gt;Node42</title>
<path fill="none" stroke="#63b8ff" d="M839.42,-833.09C824.88,-812.18 799.08,-779.39 769,-760.5 757.69,-753.4 744.2,-748.33 731.46,-744.73"/>
<polygon fill="#63b8ff" stroke="#63b8ff" points="836.45,-834.94 844.94,-841.28 842.25,-831.03 836.45,-834.94"/>
</g>
<!-- Node4 -->
<g id="node4" class="node">
<title>Node4</title>
<g id="a_node4"><a xlink:href="../../df/d13/structdoris_1_1vectorized_1_1_aggregate_function_bitmap_data.html#adee1f511c659624c5e46db33f73bf249" target="_top" xlink:title=" ">
<polygon fill="white" stroke="#666666" points="567,-999.5 392,-999.5 392,-969.5 567,-969.5 567,-999.5"/>
<text text-anchor="start" x="400" y="-987.5" font-family="Helvetica,sans-Serif" font-size="10.00">doris::vectorized::</text>
<text text-anchor="middle" x="479.5" y="-976.5" font-family="Helvetica,sans-Serif" font-size="10.00">AggregateFunctionBitmapData::read</text>
</a>
</g>
</g>
<!-- Node3&#45;&gt;Node4 -->
<g id="edge3" class="edge">
<title>Node3&#45;&gt;Node4</title>
<path fill="none" stroke="#63b8ff" d="M603.48,-958.64C587.18,-962.07 570.15,-965.65 554.14,-969.02"/>
<polygon fill="#63b8ff" stroke="#63b8ff" points="604.08,-962.09 613.14,-956.61 602.64,-955.24 604.08,-962.09"/>
</g>
<!-- Node5 -->
<g id="node5" class="node">
<title>Node5</title>
<g id="a_node5"><a xlink:href="../../d5/d44/structdoris_1_1vectorized_1_1_agg_orth_bit_map_intersect.html#adee1f511c659624c5e46db33f73bf249" target="_top" xlink:title=" ">
<polygon fill="white" stroke="#666666" points="340,-1514.5 194,-1514.5 194,-1484.5 340,-1484.5 340,-1514.5"/>
<text text-anchor="start" x="202" y="-1502.5" font-family="Helvetica,sans-Serif" font-size="10.00">doris::vectorized::</text>
<text text-anchor="middle" x="267" y="-1491.5" font-family="Helvetica,sans-Serif" font-size="10.00">AggOrthBitMapIntersect::read</text>
</a>
</g>
</g>
<!-- Node3&#45;&gt;Node5 -->
<g id="edge4" class="edge">
<title>Node3&#45;&gt;Node5</title>
<path fill="none" stroke="#63b8ff" d="M603.55,-920.8C537.28,-909.31 446.14,-906.63 392,-960.5 310.67,-1041.42 428.77,-1386.81 356,-1475.5 351.68,-1480.76 346.33,-1484.94 340.41,-1488.24"/>
<polygon fill="#63b8ff" stroke="#63b8ff" points="602.84,-924.22 613.31,-922.6 604.11,-917.34 602.84,-924.22"/>
</g>
<!-- Node8&#45;&gt;Node5 -->
<g id="edge24" class="edge">
<title>Node8&#45;&gt;Node5</title>
<path fill="none" stroke="#63b8ff" d="M466.86,-755.89C447.35,-789.46 408.6,-861.23 392,-927.5 377.17,-986.69 394.61,-1428.25 356,-1475.5 351.69,-1480.77 346.35,-1484.95 340.44,-1488.26"/>
<polygon fill="#63b8ff" stroke="#63b8ff" points="469.63,-758.08 471.69,-747.68 463.6,-754.52 469.63,-758.08"/>
</g>
<!-- Node8&#45;&gt;Node8 -->
<g id="edge41" class="edge">
<title>Node8&#45;&gt;Node8</title>
<path fill="none" stroke="#63b8ff" d="M517.16,-756.42C513.61,-760.8 501.05,-764 479.5,-764 443.2,-764 432.42,-754.94 447.17,-746.37"/>
<polygon fill="#63b8ff" stroke="#63b8ff" points="520.32,-754.9 512.54,-747.7 514.14,-758.18 520.32,-754.9"/>
</g>
<!-- Node9 -->
<g id="node9" class="node">
<title>Node9</title>
<g id="a_node9"><a xlink:href="../../d5/da9/classdoris_1_1vectorized_1_1_aggregate_function_null_base.html#a77f102c7c029218e3ff9612ec9b6dfac" target="_top" xlink:title="Deserializes state. This function is called only for empty (just created) states.">
<polygon fill="white" stroke="#666666" points="336,-1466 198,-1466 198,-1425 336,-1425 336,-1466"/>
<text text-anchor="start" x="206" y="-1454" font-family="Helvetica,sans-Serif" font-size="10.00">doris::vectorized::</text>
<text text-anchor="start" x="206" y="-1443" font-family="Helvetica,sans-Serif" font-size="10.00">AggregateFunctionNullBase</text>
<text text-anchor="middle" x="267" y="-1432" font-family="Helvetica,sans-Serif" font-size="10.00">::deserialize</text>
</a>
</g>
</g>
<!-- Node8&#45;&gt;Node9 -->
<g id="edge8" class="edge">
<title>Node8&#45;&gt;Node9</title>
<path fill="none" stroke="#63b8ff" d="M466.91,-755.9C447.49,-789.5 408.86,-861.29 392,-927.5 365.11,-1033.09 423.06,-1330.62 356,-1416.5 350.75,-1423.22 343.91,-1428.4 336.35,-1432.39"/>
<polygon fill="#63b8ff" stroke="#63b8ff" points="469.68,-758.09 471.72,-747.69 463.65,-754.55 469.68,-758.09"/>
</g>
<!-- Node10 -->
<g id="node10" class="node">
<title>Node10</title>
<g id="a_node10"><a xlink:href="../../d5/de5/structdoris_1_1vectorized_1_1_aggregate_rpc_udaf_data.html#a8a7b68c8c3d7f3021c9124d61defe7c4" target="_top" xlink:title=" ">
<polygon fill="white" stroke="#666666" points="327.5,-1407 206.5,-1407 206.5,-1366 327.5,-1366 327.5,-1407"/>
<text text-anchor="start" x="214.5" y="-1395" font-family="Helvetica,sans-Serif" font-size="10.00">doris::vectorized::</text>
<text text-anchor="start" x="214.5" y="-1384" font-family="Helvetica,sans-Serif" font-size="10.00">AggregateRpcUdafData</text>
<text text-anchor="middle" x="267" y="-1373" font-family="Helvetica,sans-Serif" font-size="10.00">::deserialize</text>
</a>
</g>
</g>
<!-- Node8&#45;&gt;Node10 -->
<g id="edge9" class="edge">
<title>Node8&#45;&gt;Node10</title>
<path fill="none" stroke="#63b8ff" d="M466.98,-755.92C447.67,-789.55 409.19,-861.38 392,-927.5 367.87,-1020.3 415.4,-1282.22 356,-1357.5 348.83,-1366.59 338.73,-1372.86 327.91,-1377.18"/>
<polygon fill="#63b8ff" stroke="#63b8ff" points="469.76,-758.11 471.77,-747.71 463.71,-754.59 469.76,-758.11"/>
</g>
<!-- Node11 -->
<g id="node11" class="node">
<title>Node11</title>
<g id="a_node11"><a xlink:href="../../d5/d27/structdoris_1_1vectorized_1_1_aggregate_function_sort_data.html#a8a7b68c8c3d7f3021c9124d61defe7c4" target="_top" xlink:title=" ">
<polygon fill="white" stroke="#666666" points="335.5,-1348 198.5,-1348 198.5,-1307 335.5,-1307 335.5,-1348"/>
<text text-anchor="start" x="206.5" y="-1336" font-family="Helvetica,sans-Serif" font-size="10.00">doris::vectorized::</text>
<text text-anchor="start" x="206.5" y="-1325" font-family="Helvetica,sans-Serif" font-size="10.00">AggregateFunctionSortData</text>
<text text-anchor="middle" x="267" y="-1314" font-family="Helvetica,sans-Serif" font-size="10.00">::deserialize</text>
</a>
</g>
</g>
<!-- Node8&#45;&gt;Node11 -->
<g id="edge10" class="edge">
<title>Node8&#45;&gt;Node11</title>
<path fill="none" stroke="#63b8ff" d="M466.83,-756.38C447.57,-790.23 409.55,-861.78 392,-927.5 370.63,-1007.53 407.74,-1233.81 356,-1298.5 350.57,-1305.28 343.52,-1310.5 335.77,-1314.5"/>
<polygon fill="#63b8ff" stroke="#63b8ff" points="469.86,-758.13 471.82,-747.72 463.79,-754.63 469.86,-758.13"/>
</g>
<!-- Node12 -->
<g id="node12" class="node">
<title>Node12</title>
<g id="a_node12"><a xlink:href="../../d5/da9/classdoris_1_1vectorized_1_1_aggregate_function_null_base.html#a75f733281a252b53aba6baee3a15c3cd" target="_top" xlink:title="Deserializes state and merge it with current aggregation function.">
<polygon fill="white" stroke="#666666" points="336,-1289 198,-1289 198,-1248 336,-1248 336,-1289"/>
<text text-anchor="start" x="206" y="-1277" font-family="Helvetica,sans-Serif" font-size="10.00">doris::vectorized::</text>
<text text-anchor="start" x="206" y="-1266" font-family="Helvetica,sans-Serif" font-size="10.00">AggregateFunctionNullBase</text>
<text text-anchor="middle" x="267" y="-1255" font-family="Helvetica,sans-Serif" font-size="10.00">::deserialize_and_merge</text>
</a>
</g>
</g>
<!-- Node8&#45;&gt;Node12 -->
<g id="edge11" class="edge">
<title>Node8&#45;&gt;Node12</title>
<path fill="none" stroke="#63b8ff" d="M466.96,-756.42C447.89,-790.32 410.15,-861.94 392,-927.5 373.38,-994.76 400.08,-1185.39 356,-1239.5 350.61,-1246.11 343.69,-1251.23 336.09,-1255.18"/>
<polygon fill="#63b8ff" stroke="#63b8ff" points="469.99,-758.17 471.9,-747.75 463.91,-754.7 469.99,-758.17"/>
</g>
<!-- Node14 -->
<g id="node14" class="node">
<title>Node14</title>
<g id="a_node14"><a xlink:href="../../d6/ddf/structdoris_1_1vectorized_1_1_aggregate_function_approx_count_distinct_data.html#adee1f511c659624c5e46db33f73bf249" target="_top" xlink:title=" ">
<polygon fill="white" stroke="#666666" points="344.5,-1230 189.5,-1230 189.5,-1189 344.5,-1189 344.5,-1230"/>
<text text-anchor="start" x="197.5" y="-1218" font-family="Helvetica,sans-Serif" font-size="10.00">doris::vectorized::</text>
<text text-anchor="start" x="197.5" y="-1207" font-family="Helvetica,sans-Serif" font-size="10.00">AggregateFunctionApproxCount</text>
<text text-anchor="middle" x="267" y="-1196" font-family="Helvetica,sans-Serif" font-size="10.00">DistinctData::read</text>
</a>
</g>
</g>
<!-- Node8&#45;&gt;Node14 -->
<g id="edge13" class="edge">
<title>Node8&#45;&gt;Node14</title>
<path fill="none" stroke="#63b8ff" d="M467.15,-756.47C448.37,-790.45 411.03,-862.19 392,-927.5 360.35,-1036.12 428.2,-1092.39 356,-1179.5 352.7,-1183.48 348.86,-1186.93 344.65,-1189.92"/>
<polygon fill="#63b8ff" stroke="#63b8ff" points="470.18,-758.22 472.01,-747.78 464.07,-754.8 470.18,-758.22"/>
</g>
<!-- Node15 -->
<g id="node15" class="node">
<title>Node15</title>
<g id="a_node15"><a xlink:href="../../d5/df5/structdoris_1_1vectorized_1_1_aggregate_function_avg_data.html#adee1f511c659624c5e46db33f73bf249" target="_top" xlink:title=" ">
<polygon fill="white" stroke="#666666" points="347.5,-1170.5 186.5,-1170.5 186.5,-1140.5 347.5,-1140.5 347.5,-1170.5"/>
<text text-anchor="start" x="194.5" y="-1158.5" font-family="Helvetica,sans-Serif" font-size="10.00">doris::vectorized::</text>
<text text-anchor="middle" x="267" y="-1147.5" font-family="Helvetica,sans-Serif" font-size="10.00">AggregateFunctionAvgData::read</text>
</a>
</g>
</g>
<!-- Node8&#45;&gt;Node15 -->
<g id="edge14" class="edge">
<title>Node8&#45;&gt;Node15</title>
<path fill="none" stroke="#63b8ff" d="M467.38,-756.54C448.95,-790.63 412.1,-862.51 392,-927.5 364.8,-1015.46 418.05,-1063.49 356,-1131.5 353.01,-1134.78 349.62,-1137.62 345.96,-1140.09"/>
<polygon fill="#63b8ff" stroke="#63b8ff" points="470.42,-758.28 472.15,-747.83 464.28,-754.92 470.42,-758.28"/>
</g>
<!-- Node16 -->
<g id="node16" class="node">
<title>Node16</title>
<g id="a_node16"><a xlink:href="../../dd/d27/structdoris_1_1vectorized_1_1_aggregate_function_avg_weighted_data.html#adee1f511c659624c5e46db33f73bf249" target="_top" xlink:title=" ">
<polygon fill="white" stroke="#666666" points="345,-1122 189,-1122 189,-1081 345,-1081 345,-1122"/>
<text text-anchor="start" x="197" y="-1110" font-family="Helvetica,sans-Serif" font-size="10.00">doris::vectorized::</text>
<text text-anchor="start" x="197" y="-1099" font-family="Helvetica,sans-Serif" font-size="10.00">AggregateFunctionAvgWeighted</text>
<text text-anchor="middle" x="267" y="-1088" font-family="Helvetica,sans-Serif" font-size="10.00">Data::read</text>
</a>
</g>
</g>
<!-- Node8&#45;&gt;Node16 -->
<g id="edge15" class="edge">
<title>Node8&#45;&gt;Node16</title>
<path fill="none" stroke="#63b8ff" d="M468.13,-756.21C450.52,-790.33 414.48,-862.95 392,-927.5 370.3,-989.8 400.66,-1022.94 356,-1071.5 352.83,-1074.95 349.25,-1078 345.39,-1080.69"/>
<polygon fill="#63b8ff" stroke="#63b8ff" points="471.14,-758.01 472.65,-747.53 464.93,-754.78 471.14,-758.01"/>
</g>
<!-- Node17 -->
<g id="node17" class="node">
<title>Node17</title>
<g id="a_node17"><a xlink:href="../../dc/d45/structdoris_1_1vectorized_1_1_aggregate_function_base_data.html#adee1f511c659624c5e46db33f73bf249" target="_top" xlink:title=" ">
<polygon fill="white" stroke="#666666" points="350.5,-1062.5 183.5,-1062.5 183.5,-1032.5 350.5,-1032.5 350.5,-1062.5"/>
<text text-anchor="start" x="191.5" y="-1050.5" font-family="Helvetica,sans-Serif" font-size="10.00">doris::vectorized::</text>
<text text-anchor="middle" x="267" y="-1039.5" font-family="Helvetica,sans-Serif" font-size="10.00">AggregateFunctionBaseData::read</text>
</a>
</g>
</g>
<!-- Node8&#45;&gt;Node17 -->
<g id="edge16" class="edge">
<title>Node8&#45;&gt;Node17</title>
<path fill="none" stroke="#63b8ff" d="M468.93,-756.52C452.52,-791.09 418.22,-864.38 392,-927.5 374.68,-969.2 389.26,-991.97 356,-1022.5 351.91,-1026.26 347.28,-1029.46 342.36,-1032.18"/>
<polygon fill="#63b8ff" stroke="#63b8ff" points="471.98,-758.25 473.12,-747.71 465.66,-755.24 471.98,-758.25"/>
</g>
<!-- Node18 -->
<g id="node18" class="node">
<title>Node18</title>
<g id="a_node18"><a xlink:href="../../d9/dbf/structdoris_1_1vectorized_1_1_aggregate_function_group_concat_data.html#adee1f511c659624c5e46db33f73bf249" target="_top" xlink:title=" ">
<polygon fill="white" stroke="#666666" points="345,-1014 189,-1014 189,-973 345,-973 345,-1014"/>
<text text-anchor="start" x="197" y="-1002" font-family="Helvetica,sans-Serif" font-size="10.00">doris::vectorized::</text>
<text text-anchor="start" x="197" y="-991" font-family="Helvetica,sans-Serif" font-size="10.00">AggregateFunctionGroupConcat</text>
<text text-anchor="middle" x="267" y="-980" font-family="Helvetica,sans-Serif" font-size="10.00">Data::read</text>
</a>
</g>
</g>
<!-- Node8&#45;&gt;Node18 -->
<g id="edge17" class="edge">
<title>Node8&#45;&gt;Node18</title>
<path fill="none" stroke="#63b8ff" d="M472.89,-757.41C459.93,-801.83 423.66,-906.25 356,-963.5 351.93,-966.94 347.45,-969.99 342.73,-972.7"/>
<polygon fill="#63b8ff" stroke="#63b8ff" points="476.26,-758.36 475.59,-747.79 469.52,-756.47 476.26,-758.36"/>
</g>
<!-- Node19 -->
<g id="node19" class="node">
<title>Node19</title>
<g id="a_node19"><a xlink:href="../../d1/d64/structdoris_1_1vectorized_1_1_aggregate_function_histogram_data.html#adee1f511c659624c5e46db33f73bf249" target="_top" xlink:title=" ">
<polygon fill="white" stroke="#666666" points="338.5,-955 195.5,-955 195.5,-914 338.5,-914 338.5,-955"/>
<text text-anchor="start" x="203.5" y="-943" font-family="Helvetica,sans-Serif" font-size="10.00">doris::vectorized::</text>
<text text-anchor="start" x="203.5" y="-932" font-family="Helvetica,sans-Serif" font-size="10.00">AggregateFunctionHistogram</text>
<text text-anchor="middle" x="267" y="-921" font-family="Helvetica,sans-Serif" font-size="10.00">Data::read</text>
</a>
</g>
</g>
<!-- Node8&#45;&gt;Node19 -->
<g id="edge18" class="edge">
<title>Node8&#45;&gt;Node19</title>
<path fill="none" stroke="#63b8ff" d="M469.14,-756.41C451.74,-791.38 411.08,-863.94 356,-904.5 350.67,-908.42 344.79,-911.86 338.67,-914.86"/>
<polygon fill="#63b8ff" stroke="#63b8ff" points="472.09,-758.36 473.31,-747.83 465.79,-755.3 472.09,-758.36"/>
</g>
<!-- Node20 -->
<g id="node20" class="node">
<title>Node20</title>
<g id="a_node20"><a xlink:href="../../d7/dd7/structdoris_1_1vectorized_1_1_aggregate_function_h_l_l_data.html#adee1f511c659624c5e46db33f73bf249" target="_top" xlink:title=" ">
<polygon fill="white" stroke="#666666" points="348,-895.5 186,-895.5 186,-865.5 348,-865.5 348,-895.5"/>
<text text-anchor="start" x="194" y="-883.5" font-family="Helvetica,sans-Serif" font-size="10.00">doris::vectorized::</text>
<text text-anchor="middle" x="267" y="-872.5" font-family="Helvetica,sans-Serif" font-size="10.00">AggregateFunctionHLLData::read</text>
</a>
</g>
</g>
<!-- Node8&#45;&gt;Node20 -->
<g id="edge19" class="edge">
<title>Node8&#45;&gt;Node20</title>
<path fill="none" stroke="#63b8ff" d="M464.51,-755.29C443.75,-781.82 402.26,-829.97 356,-856.5 350.23,-859.81 343.99,-862.68 337.58,-865.16"/>
<polygon fill="#63b8ff" stroke="#63b8ff" points="467.19,-757.54 470.49,-747.47 461.63,-753.29 467.19,-757.54"/>
</g>
<!-- Node21 -->
<g id="node21" class="node">
<title>Node21</title>
<g id="a_node21"><a xlink:href="../../df/db1/structdoris_1_1vectorized_1_1_aggregate_java_udaf_data.html#adee1f511c659624c5e46db33f73bf249" target="_top" xlink:title=" ">
<polygon fill="white" stroke="#666666" points="341.5,-847.5 192.5,-847.5 192.5,-817.5 341.5,-817.5 341.5,-847.5"/>
<text text-anchor="start" x="200.5" y="-835.5" font-family="Helvetica,sans-Serif" font-size="10.00">doris::vectorized::</text>
<text text-anchor="middle" x="267" y="-824.5" font-family="Helvetica,sans-Serif" font-size="10.00">AggregateJavaUdafData::read</text>
</a>
</g>
</g>
<!-- Node8&#45;&gt;Node21 -->
<g id="edge20" class="edge">
<title>Node8&#45;&gt;Node21</title>
<path fill="none" stroke="#63b8ff" d="M455.14,-752.78C431.19,-768.84 392.4,-793.16 356,-808.5 348.56,-811.64 340.59,-814.48 332.6,-817.01"/>
<polygon fill="#63b8ff" stroke="#63b8ff" points="456.89,-755.82 463.19,-747.3 452.96,-750.03 456.89,-755.82"/>
</g>
<!-- Node22 -->
<g id="node22" class="node">
<title>Node22</title>
<g id="a_node22"><a xlink:href="../../df/dd9/structdoris_1_1vectorized_1_1_single_value_data_fixed.html#adee1f511c659624c5e46db33f73bf249" target="_top" xlink:title=" ">
<polygon fill="white" stroke="#666666" points="335.5,-799.5 198.5,-799.5 198.5,-769.5 335.5,-769.5 335.5,-799.5"/>
<text text-anchor="start" x="206.5" y="-787.5" font-family="Helvetica,sans-Serif" font-size="10.00">doris::vectorized::</text>
<text text-anchor="middle" x="267" y="-776.5" font-family="Helvetica,sans-Serif" font-size="10.00">SingleValueDataFixed::read</text>
</a>
</g>
</g>
<!-- Node8&#45;&gt;Node22 -->
<g id="edge21" class="edge">
<title>Node8&#45;&gt;Node22</title>
<path fill="none" stroke="#63b8ff" d="M434.76,-746.47C406.21,-752.99 368.34,-761.62 335.91,-769.02"/>
<polygon fill="#63b8ff" stroke="#63b8ff" points="435.16,-749.97 444.13,-744.34 433.61,-743.15 435.16,-749.97"/>
</g>
<!-- Node23 -->
<g id="node23" class="node">
<title>Node23</title>
<g id="a_node23"><a xlink:href="../../db/d72/structdoris_1_1vectorized_1_1_single_value_data_decimal.html#adee1f511c659624c5e46db33f73bf249" target="_top" xlink:title=" ">
<polygon fill="white" stroke="#666666" points="341.5,-751.5 192.5,-751.5 192.5,-721.5 341.5,-721.5 341.5,-751.5"/>
<text text-anchor="start" x="200.5" y="-739.5" font-family="Helvetica,sans-Serif" font-size="10.00">doris::vectorized::</text>
<text text-anchor="middle" x="267" y="-728.5" font-family="Helvetica,sans-Serif" font-size="10.00">SingleValueDataDecimal::read</text>
</a>
</g>
</g>
<!-- Node8&#45;&gt;Node23 -->
<g id="edge22" class="edge">
<title>Node8&#45;&gt;Node23</title>
<path fill="none" stroke="#63b8ff" d="M434.27,-736.5C407.44,-736.5 372.52,-736.5 341.62,-736.5"/>
<polygon fill="#63b8ff" stroke="#63b8ff" points="434.1,-740 444.1,-736.5 434.1,-733 434.1,-740"/>
</g>
<!-- Node24 -->
<g id="node24" class="node">
<title>Node24</title>
<g id="a_node24"><a xlink:href="../../d9/d9f/structdoris_1_1vectorized_1_1_single_value_data_string.html#adee1f511c659624c5e46db33f73bf249" target="_top" xlink:title=" ">
<polygon fill="white" stroke="#666666" points="336.5,-703.5 197.5,-703.5 197.5,-673.5 336.5,-673.5 336.5,-703.5"/>
<text text-anchor="start" x="205.5" y="-691.5" font-family="Helvetica,sans-Serif" font-size="10.00">doris::vectorized::</text>
<text text-anchor="middle" x="267" y="-680.5" font-family="Helvetica,sans-Serif" font-size="10.00">SingleValueDataString::read</text>
</a>
</g>
</g>
<!-- Node8&#45;&gt;Node24 -->
<g id="edge23" class="edge">
<title>Node8&#45;&gt;Node24</title>
<path fill="none" stroke="#63b8ff" d="M434.76,-726.53C406.21,-720.01 368.34,-711.38 335.91,-703.98"/>
<polygon fill="#63b8ff" stroke="#63b8ff" points="433.61,-729.85 444.13,-728.66 435.16,-723.03 433.61,-729.85"/>
</g>
<!-- Node25 -->
<g id="node25" class="node">
<title>Node25</title>
<g id="a_node25"><a xlink:href="../../d5/dd3/structdoris_1_1vectorized_1_1_agg_intersect_count.html#adee1f511c659624c5e46db33f73bf249" target="_top" xlink:title=" ">
<polygon fill="white" stroke="#666666" points="328.5,-655.5 205.5,-655.5 205.5,-625.5 328.5,-625.5 328.5,-655.5"/>
<text text-anchor="start" x="213.5" y="-643.5" font-family="Helvetica,sans-Serif" font-size="10.00">doris::vectorized::</text>
<text text-anchor="middle" x="267" y="-632.5" font-family="Helvetica,sans-Serif" font-size="10.00">AggIntersectCount::read</text>
</a>
</g>
</g>
<!-- Node8&#45;&gt;Node25 -->
<g id="edge25" class="edge">
<title>Node8&#45;&gt;Node25</title>
<path fill="none" stroke="#63b8ff" d="M455.14,-720.22C431.19,-704.16 392.4,-679.84 356,-664.5 347.39,-660.87 338.07,-657.64 328.84,-654.82"/>
<polygon fill="#63b8ff" stroke="#63b8ff" points="452.96,-722.97 463.19,-725.7 456.89,-717.18 452.96,-722.97"/>
</g>
<!-- Node26 -->
<g id="node26" class="node">
<title>Node26</title>
<g id="a_node26"><a xlink:href="../../d1/d20/structdoris_1_1vectorized_1_1_agg_orth_bit_map_intersect_count.html#adee1f511c659624c5e46db33f73bf249" target="_top" xlink:title=" ">
<polygon fill="white" stroke="#666666" points="353.5,-607.5 180.5,-607.5 180.5,-577.5 353.5,-577.5 353.5,-607.5"/>
<text text-anchor="start" x="188.5" y="-595.5" font-family="Helvetica,sans-Serif" font-size="10.00">doris::vectorized::</text>
<text text-anchor="middle" x="267" y="-584.5" font-family="Helvetica,sans-Serif" font-size="10.00">AggOrthBitMapIntersectCount::read</text>
</a>
</g>
</g>
<!-- Node8&#45;&gt;Node26 -->
<g id="edge26" class="edge">
<title>Node8&#45;&gt;Node26</title>
<path fill="none" stroke="#63b8ff" d="M464.51,-717.71C443.75,-691.18 402.26,-643.03 356,-616.5 350.23,-613.19 343.99,-610.32 337.58,-607.84"/>
<polygon fill="#63b8ff" stroke="#63b8ff" points="461.63,-719.71 470.49,-725.53 467.19,-715.46 461.63,-719.71"/>
</g>
<!-- Node27 -->
<g id="node27" class="node">
<title>Node27</title>
<g id="a_node27"><a xlink:href="../../d7/d1d/structdoris_1_1vectorized_1_1_orth_bitmap_union_count_data.html#adee1f511c659624c5e46db33f73bf249" target="_top" xlink:title=" ">
<polygon fill="white" stroke="#666666" points="349,-559.5 185,-559.5 185,-529.5 349,-529.5 349,-559.5"/>
<text text-anchor="start" x="193" y="-547.5" font-family="Helvetica,sans-Serif" font-size="10.00">doris::vectorized::</text>
<text text-anchor="middle" x="267" y="-536.5" font-family="Helvetica,sans-Serif" font-size="10.00">OrthBitmapUnionCountData::read</text>
</a>
</g>
</g>
<!-- Node8&#45;&gt;Node27 -->
<g id="edge27" class="edge">
<title>Node8&#45;&gt;Node27</title>
<path fill="none" stroke="#63b8ff" d="M469.64,-716.74C452.76,-681.42 412.59,-607.5 356,-568.5 351.18,-565.17 345.91,-562.31 340.43,-559.84"/>
<polygon fill="#63b8ff" stroke="#63b8ff" points="466.27,-717.79 473.65,-725.39 472.61,-714.84 466.27,-717.79"/>
</g>
<!-- Node28 -->
<g id="node28" class="node">
<title>Node28</title>
<g id="a_node28"><a xlink:href="../../d5/d79/structdoris_1_1vectorized_1_1_percentile_approx_state.html#adee1f511c659624c5e46db33f73bf249" target="_top" xlink:title=" ">
<polygon fill="white" stroke="#666666" points="336.5,-511.5 197.5,-511.5 197.5,-481.5 336.5,-481.5 336.5,-511.5"/>
<text text-anchor="start" x="205.5" y="-499.5" font-family="Helvetica,sans-Serif" font-size="10.00">doris::vectorized::</text>
<text text-anchor="middle" x="267" y="-488.5" font-family="Helvetica,sans-Serif" font-size="10.00">PercentileApproxState::read</text>
</a>
</g>
</g>
<!-- Node8&#45;&gt;Node28 -->
<g id="edge28" class="edge">
<title>Node8&#45;&gt;Node28</title>
<path fill="none" stroke="#63b8ff" d="M472.67,-715.68C459.46,-672.45 423.07,-572.61 356,-520.5 350.25,-516.03 343.72,-512.39 336.89,-509.43"/>
<polygon fill="#63b8ff" stroke="#63b8ff" points="469.25,-716.45 475.42,-725.06 475.96,-714.48 469.25,-716.45"/>
</g>
<!-- Node30 -->
<g id="node30" class="node">
<title>Node30</title>
<g id="a_node30"><a xlink:href="../../dc/d7f/structdoris_1_1vectorized_1_1_percentile_state.html#adee1f511c659624c5e46db33f73bf249" target="_top" xlink:title=" ">
<polygon fill="white" stroke="#666666" points="321,-463.5 213,-463.5 213,-433.5 321,-433.5 321,-463.5"/>
<text text-anchor="start" x="221" y="-451.5" font-family="Helvetica,sans-Serif" font-size="10.00">doris::vectorized::</text>
<text text-anchor="middle" x="267" y="-440.5" font-family="Helvetica,sans-Serif" font-size="10.00">PercentileState::read</text>
</a>
</g>
</g>
<!-- Node8&#45;&gt;Node30 -->
<g id="edge30" class="edge">
<title>Node8&#45;&gt;Node30</title>
<path fill="none" stroke="#63b8ff" d="M474.91,-715.29C465.29,-665.13 434.13,-538.48 356,-472.5 346.2,-464.22 333.79,-458.78 321.41,-455.21"/>
<polygon fill="#63b8ff" stroke="#63b8ff" points="471.46,-715.86 476.68,-725.07 478.34,-714.61 471.46,-715.86"/>
</g>
<!-- Node33 -->
<g id="node33" class="node">
<title>Node33</title>
<g id="a_node33"><a xlink:href="../../d5/df3/structdoris_1_1vectorized_1_1_aggregate_function_sequence_match_data.html#adee1f511c659624c5e46db33f73bf249" target="_top" xlink:title=" ">
<polygon fill="white" stroke="#666666" points="351.5,-415 182.5,-415 182.5,-374 351.5,-374 351.5,-415"/>
<text text-anchor="start" x="190.5" y="-403" font-family="Helvetica,sans-Serif" font-size="10.00">doris::vectorized::</text>
<text text-anchor="start" x="190.5" y="-392" font-family="Helvetica,sans-Serif" font-size="10.00">AggregateFunctionSequenceMatch</text>
<text text-anchor="middle" x="267" y="-381" font-family="Helvetica,sans-Serif" font-size="10.00">Data::read</text>
</a>
</g>
</g>
<!-- Node8&#45;&gt;Node33 -->
<g id="edge33" class="edge">
<title>Node8&#45;&gt;Node33</title>
<path fill="none" stroke="#63b8ff" d="M476.32,-715.64C469.41,-660.18 443.05,-507.67 356,-424.5 352.38,-421.04 348.35,-417.98 344.06,-415.28"/>
<polygon fill="#63b8ff" stroke="#63b8ff" points="472.8,-715.71 477.42,-725.25 479.75,-714.91 472.8,-715.71"/>
</g>
<!-- Node34 -->
<g id="node34" class="node">
<title>Node34</title>
<g id="a_node34"><a xlink:href="../../dd/d6d/structdoris_1_1vectorized_1_1_base_data.html#adee1f511c659624c5e46db33f73bf249" target="_top" xlink:title=" ">
<polygon fill="white" stroke="#666666" points="314.5,-355.5 219.5,-355.5 219.5,-325.5 314.5,-325.5 314.5,-355.5"/>
<text text-anchor="start" x="227.5" y="-343.5" font-family="Helvetica,sans-Serif" font-size="10.00">doris::vectorized::</text>
<text text-anchor="middle" x="267" y="-332.5" font-family="Helvetica,sans-Serif" font-size="10.00">BaseData::read</text>
</a>
</g>
</g>
<!-- Node8&#45;&gt;Node34 -->
<g id="edge34" class="edge">
<title>Node8&#45;&gt;Node34</title>
<path fill="none" stroke="#63b8ff" d="M478.13,-715.6C475.86,-652.72 460.26,-463.49 356,-364.5 344.86,-353.92 329.53,-347.92 314.78,-344.53"/>
<polygon fill="#63b8ff" stroke="#63b8ff" points="474.62,-715.32 478.4,-725.22 481.62,-715.13 474.62,-715.32"/>
</g>
<!-- Node35 -->
<g id="node35" class="node">
<title>Node35</title>
<g id="a_node35"><a xlink:href="../../d6/d66/structdoris_1_1vectorized_1_1_base_datadecimal.html#adee1f511c659624c5e46db33f73bf249" target="_top" xlink:title=" ">
<polygon fill="white" stroke="#666666" points="326.5,-307.5 207.5,-307.5 207.5,-277.5 326.5,-277.5 326.5,-307.5"/>
<text text-anchor="start" x="215.5" y="-295.5" font-family="Helvetica,sans-Serif" font-size="10.00">doris::vectorized::</text>
<text text-anchor="middle" x="267" y="-284.5" font-family="Helvetica,sans-Serif" font-size="10.00">BaseDatadecimal::read</text>
</a>
</g>
</g>
<!-- Node8&#45;&gt;Node35 -->
<g id="edge35" class="edge">
<title>Node8&#45;&gt;Node35</title>
<path fill="none" stroke="#63b8ff" d="M479.05,-715.23C479.62,-646.82 471.79,-430.28 356,-316.5 347.98,-308.62 337.64,-303.26 326.88,-299.64"/>
<polygon fill="#63b8ff" stroke="#63b8ff" points="475.56,-714.98 478.89,-725.03 482.56,-715.09 475.56,-714.98"/>
</g>
<!-- Node36 -->
<g id="node36" class="node">
<title>Node36</title>
<g id="a_node36"><a xlink:href="../../d4/d86/structdoris_1_1vectorized_1_1_aggregate_function_sum_data.html#adee1f511c659624c5e46db33f73bf249" target="_top" xlink:title=" ">
<polygon fill="white" stroke="#666666" points="349,-259.5 185,-259.5 185,-229.5 349,-229.5 349,-259.5"/>
<text text-anchor="start" x="193" y="-247.5" font-family="Helvetica,sans-Serif" font-size="10.00">doris::vectorized::</text>
<text text-anchor="middle" x="267" y="-236.5" font-family="Helvetica,sans-Serif" font-size="10.00">AggregateFunctionSumData::read</text>
</a>
</g>
</g>
<!-- Node8&#45;&gt;Node36 -->
<g id="edge36" class="edge">
<title>Node8&#45;&gt;Node36</title>
<path fill="none" stroke="#63b8ff" d="M475.8,-715.48C464.84,-633.19 421.06,-334.23 356,-268.5 352.77,-265.24 349.14,-262.4 345.25,-259.95"/>
<polygon fill="#63b8ff" stroke="#63b8ff" points="472.31,-715.8 477.08,-725.26 479.25,-714.89 472.31,-715.8"/>
</g>
<!-- Node37 -->
<g id="node37" class="node">
<title>Node37</title>
<g id="a_node37"><a xlink:href="../../d0/dfa/structdoris_1_1vectorized_1_1_aggregate_function_top_n_data.html#adee1f511c659624c5e46db33f73bf249" target="_top" xlink:title=" ">
<polygon fill="white" stroke="#666666" points="350.5,-211.5 183.5,-211.5 183.5,-181.5 350.5,-181.5 350.5,-211.5"/>
<text text-anchor="start" x="191.5" y="-199.5" font-family="Helvetica,sans-Serif" font-size="10.00">doris::vectorized::</text>
<text text-anchor="middle" x="267" y="-188.5" font-family="Helvetica,sans-Serif" font-size="10.00">AggregateFunctionTopNData::read</text>
</a>
</g>
</g>
<!-- Node8&#45;&gt;Node37 -->
<g id="edge37" class="edge">
<title>Node8&#45;&gt;Node37</title>
<path fill="none" stroke="#63b8ff" d="M476.33,-715.32C466.94,-627.6 427.01,-293.91 356,-220.5 352.81,-217.2 349.21,-214.34 345.34,-211.86"/>
<polygon fill="#63b8ff" stroke="#63b8ff" points="472.84,-715.53 477.36,-725.11 479.8,-714.8 472.84,-715.53"/>
</g>
<!-- Node38 -->
<g id="node38" class="node">
<title>Node38</title>
<g id="a_node38"><a xlink:href="../../d4/dd7/structdoris_1_1vectorized_1_1_aggregate_function_product_data.html#a5ff515b49d144d5a4ac8e71403ba96fd" target="_top" xlink:title=" ">
<polygon fill="white" stroke="#666666" points="356,-163.5 178,-163.5 178,-133.5 356,-133.5 356,-163.5"/>
<text text-anchor="start" x="186" y="-151.5" font-family="Helvetica,sans-Serif" font-size="10.00">doris::vectorized::</text>
<text text-anchor="middle" x="267" y="-140.5" font-family="Helvetica,sans-Serif" font-size="10.00">AggregateFunctionProductData::read</text>
</a>
</g>
</g>
<!-- Node8&#45;&gt;Node38 -->
<g id="edge38" class="edge">
<title>Node8&#45;&gt;Node38</title>
<path fill="none" stroke="#63b8ff" d="M476.78,-715.17C468.86,-622.22 432.99,-253.64 356,-172.5 352.84,-169.17 349.26,-166.28 345.41,-163.79"/>
<polygon fill="#63b8ff" stroke="#63b8ff" points="473.29,-715.42 477.6,-725.1 480.26,-714.84 473.29,-715.42"/>
</g>
<!-- Node39 -->
<g id="node39" class="node">
<title>Node39</title>
<g id="a_node39"><a xlink:href="../../d1/de1/structdoris_1_1vectorized_1_1_aggregate_function_product_data_3_01_decimal128_01_4.html#a5ff515b49d144d5a4ac8e71403ba96fd" target="_top" xlink:title=" ">
<polygon fill="white" stroke="#666666" points="343.5,-115 190.5,-115 190.5,-74 343.5,-74 343.5,-115"/>
<text text-anchor="start" x="198.5" y="-103" font-family="Helvetica,sans-Serif" font-size="10.00">doris::vectorized::</text>
<text text-anchor="start" x="198.5" y="-92" font-family="Helvetica,sans-Serif" font-size="10.00">AggregateFunctionProductData</text>
<text text-anchor="middle" x="267" y="-81" font-family="Helvetica,sans-Serif" font-size="10.00">&lt; Decimal128 &gt;::read</text>
</a>
</g>
</g>
<!-- Node8&#45;&gt;Node39 -->
<g id="edge39" class="edge">
<title>Node8&#45;&gt;Node39</title>
<path fill="none" stroke="#63b8ff" d="M477.05,-715.36C470,-618.28 436.25,-216.02 356,-124.5 352.49,-120.5 348.42,-117.02 344,-114.02"/>
<polygon fill="#63b8ff" stroke="#63b8ff" points="473.55,-715.52 477.75,-725.24 480.54,-715.02 473.55,-715.52"/>
</g>
<!-- Node40 -->
<g id="node40" class="node">
<title>Node40</title>
<g id="a_node40"><a xlink:href="../../de/d32/struct_hash_table_cell.html#a0db73b6709ab812abce69276f2288d48" target="_top" xlink:title="Deserialization, in binary and text form.">
<polygon fill="white" stroke="#666666" points="319.5,-56 214.5,-56 214.5,-37 319.5,-37 319.5,-56"/>
<text text-anchor="middle" x="267" y="-44" font-family="Helvetica,sans-Serif" font-size="10.00">HashTableCell::read</text>
</a>
</g>
</g>
<!-- Node8&#45;&gt;Node40 -->
<g id="edge40" class="edge">
<title>Node8&#45;&gt;Node40</title>
<path fill="none" stroke="#63b8ff" d="M477.73,-715.36C473.51,-611.95 449.87,-160.4 356,-64.5 346.4,-54.69 333,-49.5 319.55,-46.91"/>
<polygon fill="#63b8ff" stroke="#63b8ff" points="474.22,-715.3 478.11,-725.15 481.22,-715.03 474.22,-715.3"/>
</g>
<!-- Node41 -->
<g id="node41" class="node">
<title>Node41</title>
<g id="a_node41"><a xlink:href="../../d3/d1e/namespacedoris_1_1vectorized.html#a39a41633a6f580d075027937bec15104" target="_top" xlink:title=" ">
<polygon fill="white" stroke="#666666" points="316.5,-19 217.5,-19 217.5,0 316.5,0 316.5,-19"/>
<text text-anchor="middle" x="267" y="-7" font-family="Helvetica,sans-Serif" font-size="10.00">read_vector_binary</text>
</a>
</g>
</g>
<!-- Node8&#45;&gt;Node41 -->
<g id="edge42" class="edge">
<title>Node8&#45;&gt;Node41</title>
<path fill="none" stroke="#63b8ff" d="M477.94,-715.23C474.69,-608.15 454.72,-129.29 356,-27.5 345.8,-16.98 331.22,-11.76 316.86,-9.36"/>
<polygon fill="#63b8ff" stroke="#63b8ff" points="474.44,-715.22 478.22,-725.12 481.44,-715.02 474.44,-715.22"/>
</g>
<!-- Node13 -->
<g id="node13" class="node">
<title>Node13</title>
<g id="a_node13"><a xlink:href="../../d5/da9/classdoris_1_1vectorized_1_1_aggregate_function_null_base.html#a2aa49f7da97dab9b08fb6cbe62268f9f" target="_top" xlink:title=" ">
<polygon fill="white" stroke="#666666" points="140,-1294.5 2,-1294.5 2,-1242.5 140,-1242.5 140,-1294.5"/>
<text text-anchor="start" x="10" y="-1282.5" font-family="Helvetica,sans-Serif" font-size="10.00">doris::vectorized::</text>
<text text-anchor="start" x="10" y="-1271.5" font-family="Helvetica,sans-Serif" font-size="10.00">AggregateFunctionNullBase</text>
<text text-anchor="start" x="10" y="-1260.5" font-family="Helvetica,sans-Serif" font-size="10.00">::deserialize_and_merge</text>
<text text-anchor="middle" x="71" y="-1249.5" font-family="Helvetica,sans-Serif" font-size="10.00">_from_column</text>
</a>
</g>
</g>
<!-- Node12&#45;&gt;Node13 -->
<g id="edge12" class="edge">
<title>Node12&#45;&gt;Node13</title>
<path fill="none" stroke="#63b8ff" d="M186.14,-1268.5C170.96,-1268.5 155.21,-1268.5 140.43,-1268.5"/>
<polygon fill="#63b8ff" stroke="#63b8ff" points="186.09,-1272 196.09,-1268.5 186.09,-1265 186.09,-1272"/>
</g>
<!-- Node29 -->
<g id="node29" class="node">
<title>Node29</title>
<g id="a_node29"><a xlink:href="../../dd/dae/classdoris_1_1vectorized_1_1_aggregate_function_percentile_approx.html#a1ec7bd073eba83357d823adc0743051c" target="_top" xlink:title="Deserializes state. This function is called only for empty (just created) states.">
<polygon fill="white" stroke="#666666" points="142,-528 0,-528 0,-487 142,-487 142,-528"/>
<text text-anchor="start" x="8" y="-516" font-family="Helvetica,sans-Serif" font-size="10.00">doris::vectorized::</text>
<text text-anchor="start" x="8" y="-505" font-family="Helvetica,sans-Serif" font-size="10.00">AggregateFunctionPercentile</text>
<text text-anchor="middle" x="71" y="-494" font-family="Helvetica,sans-Serif" font-size="10.00">Approx::deserialize</text>
</a>
</g>
</g>
<!-- Node28&#45;&gt;Node29 -->
<g id="edge29" class="edge">
<title>Node28&#45;&gt;Node29</title>
<path fill="none" stroke="#63b8ff" d="M185.66,-501.06C171.29,-501.87 156.42,-502.71 142.36,-503.51"/>
<polygon fill="#63b8ff" stroke="#63b8ff" points="185.76,-504.56 195.55,-500.49 185.36,-497.57 185.76,-504.56"/>
</g>
<!-- Node31 -->
<g id="node31" class="node">
<title>Node31</title>
<g id="a_node31"><a xlink:href="../../d4/d83/classdoris_1_1vectorized_1_1_aggregate_function_percentile.html#a1ec7bd073eba83357d823adc0743051c" target="_top" xlink:title="Deserializes state. This function is called only for empty (just created) states.">
<polygon fill="white" stroke="#666666" points="142,-469 0,-469 0,-428 142,-428 142,-469"/>
<text text-anchor="start" x="8" y="-457" font-family="Helvetica,sans-Serif" font-size="10.00">doris::vectorized::</text>
<text text-anchor="start" x="8" y="-446" font-family="Helvetica,sans-Serif" font-size="10.00">AggregateFunctionPercentile</text>
<text text-anchor="middle" x="71" y="-435" font-family="Helvetica,sans-Serif" font-size="10.00">::deserialize</text>
</a>
</g>
</g>
<!-- Node30&#45;&gt;Node31 -->
<g id="edge31" class="edge">
<title>Node30&#45;&gt;Node31</title>
<path fill="none" stroke="#63b8ff" d="M201.48,-448.5C182.48,-448.5 161.59,-448.5 142.25,-448.5"/>
<polygon fill="#63b8ff" stroke="#63b8ff" points="201.22,-452 211.22,-448.5 201.22,-445 201.22,-452"/>
</g>
<!-- Node32 -->
<g id="node32" class="node">
<title>Node32</title>
<g id="a_node32"><a xlink:href="../../d3/d9d/classdoris_1_1vectorized_1_1_aggregate_function_percentile_array.html#a1ec7bd073eba83357d823adc0743051c" target="_top" xlink:title="Deserializes state. This function is called only for empty (just created) states.">
<polygon fill="white" stroke="#666666" points="142,-410 0,-410 0,-369 142,-369 142,-410"/>
<text text-anchor="start" x="8" y="-398" font-family="Helvetica,sans-Serif" font-size="10.00">doris::vectorized::</text>
<text text-anchor="start" x="8" y="-387" font-family="Helvetica,sans-Serif" font-size="10.00">AggregateFunctionPercentile</text>
<text text-anchor="middle" x="71" y="-376" font-family="Helvetica,sans-Serif" font-size="10.00">Array::deserialize</text>
</a>
</g>
</g>
<!-- Node30&#45;&gt;Node32 -->
<g id="edge32" class="edge">
<title>Node30&#45;&gt;Node32</title>
<path fill="none" stroke="#63b8ff" d="M201.94,-430.57C193.87,-428.23 185.73,-425.84 178,-423.5 164.4,-419.39 149.88,-414.84 136.07,-410.43"/>
<polygon fill="#63b8ff" stroke="#63b8ff" points="200.83,-433.9 211.41,-433.3 202.77,-427.17 200.83,-433.9"/>
</g>
<!-- Node42&#45;&gt;Node8 -->
<g id="edge44" class="edge">
<title>Node42&#45;&gt;Node8</title>
<path fill="none" stroke="#63b8ff" d="M629.46,-736.5C592.3,-736.5 544.65,-736.5 513.38,-736.5"/>
<polygon fill="#63b8ff" stroke="#63b8ff" points="629.11,-740 639.11,-736.5 629.11,-733 629.11,-740"/>
</g>
</g>
</svg>
        <g id="navigator" transform="translate(0 0)" fill="#404254">
                <rect fill="#f2f5e9" fill-opacity="0.5" stroke="#606060" stroke-width=".5" x="0" y="0" width="60" height="60"/>
                <use id="zoomplus" xlink:href="#zoomPlus" x="17" y="9" onmousedown="handleZoom(evt,'in')"/>
                <use id="zoomminus" xlink:href="#zoomMin" x="42" y="9" onmousedown="handleZoom(evt,'out')"/>
                <use id="reset" xlink:href="#resetDef" x="30" y="36" onmousedown="handleReset()"/>
                <g id="arrowUp" xlink:href="#dirArrow" transform="translate(30 24)" onmousedown="handlePan(0,-1)">
                  <use xlink:href="#rim" fill="#404040">
                        <set attributeName="fill" to="#808080" begin="arrowUp.mouseover" end="arrowUp.mouseout"/>
                  </use>
                  <path fill="none" stroke="white" stroke-width="1.5" d="M0,-3.0v7 M-2.5,-0.5L0,-3.0L2.5,-0.5"/>
                </g>
                <g id="arrowRight" xlink:href="#dirArrow" transform="rotate(90) translate(36 -43)" onmousedown="handlePan(1,0)">
                  <use xlink:href="#rim" fill="#404040">
                        <set attributeName="fill" to="#808080" begin="arrowRight.mouseover" end="arrowRight.mouseout"/>
                  </use>
                  <path fill="none" stroke="white" stroke-width="1.5" d="M0,-3.0v7 M-2.5,-0.5L0,-3.0L2.5,-0.5"/>
                </g>
                <g id="arrowDown" xlink:href="#dirArrow" transform="rotate(180) translate(-30 -48)" onmousedown="handlePan(0,1)">
                  <use xlink:href="#rim" fill="#404040">
                        <set attributeName="fill" to="#808080" begin="arrowDown.mouseover" end="arrowDown.mouseout"/>
                  </use>
                  <path fill="none" stroke="white" stroke-width="1.5" d="M0,-3.0v7 M-2.5,-0.5L0,-3.0L2.5,-0.5"/>
                </g>
                <g id="arrowLeft" xlink:href="#dirArrow" transform="rotate(270) translate(-36 17)" onmousedown="handlePan(-1,0)">
                  <use xlink:href="#rim" fill="#404040">
                        <set attributeName="fill" to="#808080" begin="arrowLeft.mouseover" end="arrowLeft.mouseout"/>
                  </use>
                  <path fill="none" stroke="white" stroke-width="1.5" d="M0,-3.0v7 M-2.5,-0.5L0,-3.0L2.5,-0.5"/>
                </g>
        </g>
        <svg viewBox="0 0 15 15" width="100%" height="30px" preserveAspectRatio="xMaxYMin meet">
         <g id="arrow_out" transform="scale(0.3 0.3)">
          <a xlink:href="namespacedoris_1_1vectorized_aa20606e398b08b72ebdb23f450af4b98_icgraph_org.svg" target="_base">
           <rect id="button" ry="5" rx="5" y="6" x="6" height="38" width="38"
                fill="#f2f5e9" fill-opacity="0.5" stroke="#606060" stroke-width="1.0"/>
           <path id="arrow"
             d="M 11.500037,31.436501 C 11.940474,20.09759 22.043105,11.32322 32.158766,21.979434 L 37.068811,17.246167 C 37.068811,17.246167 37.088388,32 37.088388,32 L 22.160133,31.978069 C 22.160133,31.978069 26.997745,27.140456 26.997745,27.140456 C 18.528582,18.264221 13.291696,25.230495 11.500037,31.436501 z"
             style="fill:#404040;"/>
          </a>
         </g>
        </svg>
</svg>
