<?xml version="1.0" encoding="UTF-8" standalone="no"?>
<!DOCTYPE svg PUBLIC "-//W3C//DTD SVG 1.1//EN"
 "http://www.w3.org/Graphics/SVG/1.1/DTD/svg11.dtd">
<!-- Generated by graphviz version 7.1.0 (20230121.1956)
 -->
<!-- Title: multiply Pages: 1 -->
<svg width="393pt" height="49pt"
 viewBox="0.00 0.00 393.00 49.00" xmlns="http://www.w3.org/2000/svg" xmlns:xlink="http://www.w3.org/1999/xlink">
<g id="graph0" class="graph" transform="scale(1 1) rotate(0) translate(4 45)">
<title>multiply</title>
<!-- Node1 -->
<g id="node1" class="node">
<title>Node1</title>
<g id="a_node1"><a xlink:title=" ">
<polygon fill="#999999" stroke="#666666" points="385,-30 335,-30 335,-11 385,-11 385,-30"/>
<text text-anchor="middle" x="360" y="-18" font-family="Helvetica,sans-Serif" font-size="10.00">multiply</text>
</a>
</g>
</g>
<!-- Node2 -->
<g id="node2" class="node">
<title>Node2</title>
<g id="a_node2"><a xlink:href="../../df/dc8/classdoris_1_1vectorized_1_1_float_rounding_computation.html#ac0f3943cbd23765b48e144256b078704" target="_top" xlink:title=" ">
<polygon fill="white" stroke="#666666" points="299,-41 164,-41 164,0 299,0 299,-41"/>
<text text-anchor="start" x="172" y="-29" font-family="Helvetica,sans-Serif" font-size="10.00">doris::vectorized::</text>
<text text-anchor="start" x="172" y="-18" font-family="Helvetica,sans-Serif" font-size="10.00">FloatRoundingComputation</text>
<text text-anchor="middle" x="231.5" y="-7" font-family="Helvetica,sans-Serif" font-size="10.00">::compute</text>
</a>
</g>
</g>
<!-- Node1&#45;&gt;Node2 -->
<g id="edge1" class="edge">
<title>Node1&#45;&gt;Node2</title>
<path fill="none" stroke="#63b8ff" d="M323.13,-20.5C315.68,-20.5 307.59,-20.5 299.43,-20.5"/>
<polygon fill="#63b8ff" stroke="#63b8ff" points="323.1,-24 333.1,-20.5 323.1,-17 323.1,-24"/>
</g>
<!-- Node3 -->
<g id="node3" class="node">
<title>Node3</title>
<g id="a_node3"><a xlink:href="../../d7/d27/structdoris_1_1vectorized_1_1_float_rounding_impl.html#a5f0c2732c1ce02a727f0d714ed68ef2f" target="_top" xlink:title=" ">
<polygon fill="white" stroke="#666666" points="128,-35.5 0,-35.5 0,-5.5 128,-5.5 128,-35.5"/>
<text text-anchor="start" x="8" y="-23.5" font-family="Helvetica,sans-Serif" font-size="10.00">doris::vectorized::</text>
<text text-anchor="middle" x="64" y="-12.5" font-family="Helvetica,sans-Serif" font-size="10.00">FloatRoundingImpl::apply</text>
</a>
</g>
</g>
<!-- Node2&#45;&gt;Node3 -->
<g id="edge2" class="edge">
<title>Node2&#45;&gt;Node3</title>
<path fill="none" stroke="#63b8ff" d="M152.35,-20.5C144.3,-20.5 136.19,-20.5 128.33,-20.5"/>
<polygon fill="#63b8ff" stroke="#63b8ff" points="152.15,-24 162.15,-20.5 152.15,-17 152.15,-24"/>
</g>
</g>
</svg>
