<?xml version="1.0" encoding="UTF-8" standalone="no"?>
<!DOCTYPE svg PUBLIC "-//W3C//DTD SVG 1.1//EN"
 "http://www.w3.org/Graphics/SVG/1.1/DTD/svg11.dtd">
<!-- Generated by graphviz version 7.1.0 (20230121.1956)
 -->
<!-- Title: add Pages: 1 -->
<svg width="322pt" height="64pt"
 viewBox="0.00 0.00 322.00 64.00" xmlns="http://www.w3.org/2000/svg" xmlns:xlink="http://www.w3.org/1999/xlink">
<g id="graph0" class="graph" transform="scale(1 1) rotate(0) translate(4 60)">
<title>add</title>
<!-- Node1 -->
<g id="node1" class="node">
<title>Node1</title>
<g id="a_node1"><a xlink:title=" ">
<polygon fill="#999999" stroke="#666666" points="32,-37 0,-37 0,-18 32,-18 32,-37"/>
<text text-anchor="middle" x="16" y="-25" font-family="Helvetica,sans-Serif" font-size="10.00">add</text>
</a>
</g>
</g>
<!-- Node2 -->
<g id="node2" class="node">
<title>Node2</title>
<g id="a_node2"><a xlink:href="../../da/dae/class_hash_table.html#a129c4582c39f1121609be23f4dcc27ee" target="_top" xlink:title=" ">
<polygon fill="white" stroke="#666666" points="174,-37 68,-37 68,-18 174,-18 174,-37"/>
<text text-anchor="middle" x="121" y="-25" font-family="Helvetica,sans-Serif" font-size="10.00">HashTable::emplace</text>
</a>
</g>
</g>
<!-- Node1&#45;&gt;Node2 -->
<g id="edge1" class="edge">
<title>Node1&#45;&gt;Node2</title>
<path fill="none" stroke="#63b8ff" d="M32.2,-27.5C38.89,-27.5 47.24,-27.5 56.11,-27.5"/>
<polygon fill="#63b8ff" stroke="#63b8ff" points="56.03,-31 66.03,-27.5 56.03,-24 56.03,-31"/>
</g>
<!-- Node2&#45;&gt;Node2 -->
<g id="edge2" class="edge">
<title>Node2&#45;&gt;Node2</title>
<path fill="none" stroke="#63b8ff" d="M104.56,-37.37C97.06,-45.94 102.54,-55 121,-55 131.09,-55 137.31,-52.29 139.64,-48.43"/>
<polygon fill="#63b8ff" stroke="#63b8ff" points="143.12,-47.98 137.73,-38.85 136.25,-49.34 143.12,-47.98"/>
</g>
<!-- Node3 -->
<g id="node3" class="node">
<title>Node3</title>
<g id="a_node3"><a xlink:href="../../da/dae/class_hash_table.html#a0902d3327344aca5739605fd268a2481" target="_top" xlink:title=" ">
<polygon fill="white" stroke="#666666" points="307,-56 217,-56 217,-37 307,-37 307,-56"/>
<text text-anchor="middle" x="262" y="-44" font-family="Helvetica,sans-Serif" font-size="10.00">HashTable::hash</text>
</a>
</g>
</g>
<!-- Node2&#45;&gt;Node3 -->
<g id="edge3" class="edge">
<title>Node2&#45;&gt;Node3</title>
<path fill="none" stroke="#63b8ff" d="M174.15,-34.63C184.34,-36.02 195.06,-37.49 205.35,-38.89"/>
<polygon fill="#63b8ff" stroke="#63b8ff" points="204.86,-42.36 215.25,-40.25 205.81,-35.42 204.86,-42.36"/>
</g>
<!-- Node4 -->
<g id="node4" class="node">
<title>Node4</title>
<g id="a_node4"><a xlink:href="../../db/d36/hash__table__key__holder_8h.html#a4fac8bfd05ae4013aa33bd42a824f9eb" target="_top" xlink:title=" ">
<polygon fill="white" stroke="#666666" points="314,-19 210,-19 210,0 314,0 314,-19"/>
<text text-anchor="middle" x="262" y="-7" font-family="Helvetica,sans-Serif" font-size="10.00">key_holder_get_key</text>
</a>
</g>
</g>
<!-- Node2&#45;&gt;Node4 -->
<g id="edge4" class="edge">
<title>Node2&#45;&gt;Node4</title>
<path fill="none" stroke="#63b8ff" d="M174.15,-20.75C182.11,-19.72 190.4,-18.64 198.55,-17.59"/>
<polygon fill="#63b8ff" stroke="#63b8ff" points="198.97,-21.06 208.44,-16.31 198.07,-14.12 198.97,-21.06"/>
</g>
</g>
</svg>
