<?xml version="1.0" encoding="UTF-8" standalone="no"?>
<!DOCTYPE svg PUBLIC "-//W3C//DTD SVG 1.1//EN"
 "http://www.w3.org/Graphics/SVG/1.1/DTD/svg11.dtd">
<!-- Generated by graphviz version 7.1.0 (20230121.1956)
 -->
<!-- Title: range_intersection Pages: 1 -->
<svg width="974pt" height="130pt"
 viewBox="0.00 0.00 974.00 130.00" xmlns="http://www.w3.org/2000/svg" xmlns:xlink="http://www.w3.org/1999/xlink">
<g id="graph0" class="graph" transform="scale(1 1) rotate(0) translate(4 126)">
<title>range_intersection</title>
<!-- Node1 -->
<g id="node1" class="node">
<title>Node1</title>
<g id="a_node1"><a xlink:title=" ">
<polygon fill="#999999" stroke="#666666" points="966,-69.5 870,-69.5 870,-50.5 966,-50.5 966,-69.5"/>
<text text-anchor="middle" x="918" y="-57.5" font-family="Helvetica,sans-Serif" font-size="10.00">range_intersection</text>
</a>
</g>
</g>
<!-- Node2 -->
<g id="node2" class="node">
<title>Node2</title>
<g id="a_node2"><a xlink:href="../../de/d4a/classdoris_1_1segment__v2_1_1_row_ranges.html#a4f59b68cd5edae2559f903a01016067f" target="_top" xlink:title=" ">
<polygon fill="white" stroke="#666666" points="834,-75 673,-75 673,-45 834,-45 834,-75"/>
<text text-anchor="start" x="681" y="-63" font-family="Helvetica,sans-Serif" font-size="10.00">doris::segment_v2::</text>
<text text-anchor="middle" x="753.5" y="-52" font-family="Helvetica,sans-Serif" font-size="10.00">RowRanges::ranges_intersection</text>
</a>
</g>
</g>
<!-- Node1&#45;&gt;Node2 -->
<g id="edge1" class="edge">
<title>Node1&#45;&gt;Node2</title>
<path fill="none" stroke="#63b8ff" d="M858.12,-60C850.4,-60 842.39,-60 834.41,-60"/>
<polygon fill="#63b8ff" stroke="#63b8ff" points="858.05,-63.5 868.05,-60 858.05,-56.5 858.05,-63.5"/>
</g>
<!-- Node3 -->
<g id="node3" class="node">
<title>Node3</title>
<g id="a_node3"><a xlink:href="../../db/d2b/classdoris_1_1segment__v2_1_1_segment_iterator.html#a12d76f7b550ef51d43fd52e38560f393" target="_top" xlink:title=" ">
<polygon fill="white" stroke="#666666" points="637,-113.5 491,-113.5 491,-72.5 637,-72.5 637,-113.5"/>
<text text-anchor="start" x="499" y="-101.5" font-family="Helvetica,sans-Serif" font-size="10.00">doris::segment_v2::</text>
<text text-anchor="start" x="499" y="-90.5" font-family="Helvetica,sans-Serif" font-size="10.00">SegmentIterator::_get</text>
<text text-anchor="middle" x="564" y="-79.5" font-family="Helvetica,sans-Serif" font-size="10.00">_row_ranges_from_conditions</text>
</a>
</g>
</g>
<!-- Node2&#45;&gt;Node3 -->
<g id="edge2" class="edge">
<title>Node2&#45;&gt;Node3</title>
<path fill="none" stroke="#63b8ff" d="M661.62,-75.99C653.46,-77.43 645.26,-78.87 637.29,-80.28"/>
<polygon fill="#63b8ff" stroke="#63b8ff" points="661.98,-79.49 671.22,-74.31 660.77,-72.59 661.98,-79.49"/>
</g>
<!-- Node7 -->
<g id="node7" class="node">
<title>Node7</title>
<g id="a_node7"><a xlink:href="../../d3/d99/classdoris_1_1segment__v2_1_1_column_reader.html#ae540577aa7df4ce063265637f431d788" target="_top" xlink:title=" ">
<polygon fill="white" stroke="#666666" points="625,-51.5 503,-51.5 503,-10.5 625,-10.5 625,-51.5"/>
<text text-anchor="start" x="511" y="-39.5" font-family="Helvetica,sans-Serif" font-size="10.00">doris::segment_v2::</text>
<text text-anchor="start" x="511" y="-28.5" font-family="Helvetica,sans-Serif" font-size="10.00">ColumnReader::get_row</text>
<text text-anchor="middle" x="564" y="-17.5" font-family="Helvetica,sans-Serif" font-size="10.00">_ranges_by_bloom_filter</text>
</a>
</g>
</g>
<!-- Node2&#45;&gt;Node7 -->
<g id="edge6" class="edge">
<title>Node2&#45;&gt;Node7</title>
<path fill="none" stroke="#63b8ff" d="M661.5,-45.93C649.25,-44.03 636.94,-42.13 625.4,-40.34"/>
<polygon fill="#63b8ff" stroke="#63b8ff" points="660.8,-49.36 671.22,-47.43 661.87,-42.44 660.8,-49.36"/>
</g>
<!-- Node4 -->
<g id="node4" class="node">
<title>Node4</title>
<g id="a_node4"><a xlink:href="../../db/d2b/classdoris_1_1segment__v2_1_1_segment_iterator.html#aad4518b5b7aa8b8a6c1c28f12a29e1c9" target="_top" xlink:title=" ">
<polygon fill="white" stroke="#666666" points="451,-122 326,-122 326,-70 451,-70 451,-122"/>
<text text-anchor="start" x="334" y="-110" font-family="Helvetica,sans-Serif" font-size="10.00">doris::segment_v2::</text>
<text text-anchor="start" x="334" y="-99" font-family="Helvetica,sans-Serif" font-size="10.00">SegmentIterator::_get</text>
<text text-anchor="start" x="334" y="-88" font-family="Helvetica,sans-Serif" font-size="10.00">_row_ranges_by_column</text>
<text text-anchor="middle" x="388.5" y="-77" font-family="Helvetica,sans-Serif" font-size="10.00">_conditions</text>
</a>
</g>
</g>
<!-- Node3&#45;&gt;Node4 -->
<g id="edge3" class="edge">
<title>Node3&#45;&gt;Node4</title>
<path fill="none" stroke="#63b8ff" d="M479.22,-94.45C469.79,-94.61 460.31,-94.78 451.23,-94.93"/>
<polygon fill="#63b8ff" stroke="#63b8ff" points="479.23,-97.95 489.16,-94.28 479.1,-90.95 479.23,-97.95"/>
</g>
<!-- Node5 -->
<g id="node5" class="node">
<title>Node5</title>
<g id="a_node5"><a xlink:href="../../db/d2b/classdoris_1_1segment__v2_1_1_segment_iterator.html#a3806c3b24a834a10d748689d4139ab1c" target="_top" xlink:title=" ">
<polygon fill="white" stroke="#666666" points="286,-111 176,-111 176,-81 286,-81 286,-111"/>
<text text-anchor="start" x="184" y="-99" font-family="Helvetica,sans-Serif" font-size="10.00">doris::segment_v2::</text>
<text text-anchor="middle" x="231" y="-88" font-family="Helvetica,sans-Serif" font-size="10.00">SegmentIterator::_init</text>
</a>
</g>
</g>
<!-- Node4&#45;&gt;Node5 -->
<g id="edge4" class="edge">
<title>Node4&#45;&gt;Node5</title>
<path fill="none" stroke="#63b8ff" d="M314.17,-96C304.73,-96 295.21,-96 286.16,-96"/>
<polygon fill="#63b8ff" stroke="#63b8ff" points="314.08,-99.5 324.08,-96 314.08,-92.5 314.08,-99.5"/>
</g>
<!-- Node6 -->
<g id="node6" class="node">
<title>Node6</title>
<g id="a_node6"><a xlink:href="../../db/d2b/classdoris_1_1segment__v2_1_1_segment_iterator.html#a2170c68d68be4b5b3ecd64e7ed93a021" target="_top" xlink:title=" ">
<polygon fill="white" stroke="#666666" points="140,-111 0,-111 0,-81 140,-81 140,-111"/>
<text text-anchor="start" x="8" y="-99" font-family="Helvetica,sans-Serif" font-size="10.00">doris::segment_v2::</text>
<text text-anchor="middle" x="70" y="-88" font-family="Helvetica,sans-Serif" font-size="10.00">SegmentIterator::next_batch</text>
</a>
</g>
</g>
<!-- Node5&#45;&gt;Node6 -->
<g id="edge5" class="edge">
<title>Node5&#45;&gt;Node6</title>
<path fill="none" stroke="#63b8ff" d="M164.36,-96C156.48,-96 148.42,-96 140.49,-96"/>
<polygon fill="#63b8ff" stroke="#63b8ff" points="164.21,-99.5 174.21,-96 164.21,-92.5 164.21,-99.5"/>
</g>
<!-- Node8 -->
<g id="node8" class="node">
<title>Node8</title>
<g id="a_node8"><a xlink:href="../../df/df3/classdoris_1_1segment__v2_1_1_file_column_iterator.html#ae87d41d1473507031232db91c676aa3e" target="_top" xlink:title=" ">
<polygon fill="white" stroke="#666666" points="455,-52 322,-52 322,0 455,0 455,-52"/>
<text text-anchor="start" x="330" y="-40" font-family="Helvetica,sans-Serif" font-size="10.00">doris::segment_v2::</text>
<text text-anchor="start" x="330" y="-29" font-family="Helvetica,sans-Serif" font-size="10.00">FileColumnIterator::</text>
<text text-anchor="start" x="330" y="-18" font-family="Helvetica,sans-Serif" font-size="10.00">get_row_ranges_by_bloom</text>
<text text-anchor="middle" x="388.5" y="-7" font-family="Helvetica,sans-Serif" font-size="10.00">_filter</text>
</a>
</g>
</g>
<!-- Node7&#45;&gt;Node8 -->
<g id="edge7" class="edge">
<title>Node7&#45;&gt;Node8</title>
<path fill="none" stroke="#63b8ff" d="M491.46,-28.94C479.46,-28.59 467.06,-28.24 455.22,-27.89"/>
<polygon fill="#63b8ff" stroke="#63b8ff" points="491.2,-32.43 501.29,-29.22 491.4,-25.43 491.2,-32.43"/>
</g>
</g>
</svg>
