<?xml version="1.0" encoding="UTF-8" standalone="no"?>
<!DOCTYPE svg PUBLIC "-//W3C//DTD SVG 1.1//EN"
 "http://www.w3.org/Graphics/SVG/1.1/DTD/svg11.dtd">
<!-- Generated by graphviz version 7.1.0 (20230121.1956)
 -->
<!-- Title: execute_impl Pages: 1 -->
<!--zoomable 336 -->
<svg id="main" version="1.1" xmlns="http://www.w3.org/2000/svg" xmlns:xlink="http://www.w3.org/1999/xlink" xml:space="preserve" onload="init(evt)">
<style type="text/css"><![CDATA[
.edge:hover path { stroke: red; }
.edge:hover polygon { stroke: red; fill: red; }
]]></style>
<script type="text/javascript"><![CDATA[
var edges = document.getElementsByTagName('g');
if (edges && edges.length) {
  for (var i=0;i<edges.length;i++) {
    if (edges[i].id.substr(0,4)=='edge') {
      edges[i].setAttribute('class','edge');
    }
  }
}
]]></script>
        <defs>
                <circle id="rim" cx="0" cy="0" r="7"/>
                <circle id="rim2" cx="0" cy="0" r="3.5"/>
                <g id="zoomPlus">
                        <use xlink:href="#rim" fill="#404040">
                                <set attributeName="fill" to="#808080" begin="zoomplus.mouseover" end="zoomplus.mouseout"/>
                        </use>
                        <path d="M-4,0h8M0,-4v8" fill="none" stroke="white" stroke-width="1.5" pointer-events="none"/>
                </g>
                <g id="zoomMin">
                        <use xlink:href="#rim" fill="#404040">
                                <set attributeName="fill" to="#808080" begin="zoomminus.mouseover" end="zoomminus.mouseout"/>
                        </use>
                        <path d="M-4,0h8" fill="none" stroke="white" stroke-width="1.5" pointer-events="none"/>
                </g>
                <g id="dirArrow">
                        <path fill="none" stroke="white" stroke-width="1.5" d="M0,-3.0v7 M-2.5,-0.5L0,-3.0L2.5,-0.5"/>
                </g>
               <g id="resetDef">
                       <use xlink:href="#rim2" fill="#404040">
                               <set attributeName="fill" to="#808080" begin="reset.mouseover" end="reset.mouseout"/>
                       </use>
               </g>
        </defs>

<script type="text/javascript">
var viewWidth = 574;
var viewHeight = 336;
var sectionId = 'dynsection-4';
</script>
<script xlink:href="../../svgpan.js"/>
<svg id="graph" class="graph">
<g id="viewport">
<title>execute_impl</title>
<!-- Node1 -->
<g id="node1" class="node">
<title>Node1</title>
<g id="a_node1"><a xlink:title="TODO: make const">
<polygon fill="#999999" stroke="#666666" points="74,-105 0,-105 0,-86 74,-86 74,-105"/>
<text text-anchor="middle" x="37" y="-93" font-family="Helvetica,sans-Serif" font-size="10.00">execute_impl</text>
</a>
</g>
</g>
<!-- Node2 -->
<g id="node2" class="node">
<title>Node2</title>
<g id="a_node2"><a xlink:href="../../d7/d99/classdoris_1_1vectorized_1_1_function_array_difference.html#a390cf448a121ba086ab609343781a258" target="_top" xlink:title=" ">
<polygon fill="white" stroke="#666666" points="235,-188 119,-188 119,-169 235,-169 235,-188"/>
<text text-anchor="middle" x="177" y="-176" font-family="Helvetica,sans-Serif" font-size="10.00">_execute_non_nullable</text>
</a>
</g>
</g>
<!-- Node1&#45;&gt;Node2 -->
<g id="edge1" class="edge">
<title>Node1&#45;&gt;Node2</title>
<path fill="none" stroke="#63b8ff" d="M50.26,-105.45C64.22,-116.5 87.95,-134.51 110,-147.5 120.04,-153.41 131.39,-159.08 141.81,-163.92"/>
<polygon fill="#63b8ff" stroke="#63b8ff" points="140.31,-167.08 150.86,-168 143.19,-160.7 140.31,-167.08"/>
</g>
<!-- Node10 -->
<g id="node10" class="node">
<title>Node10</title>
<g id="a_node10"><a xlink:href="../../d2/d12/classdoris_1_1vectorized_1_1_block.html#a54f8f7eae676dfa49029fff7c7ce8f05" target="_top" xlink:title="References are invalidated after calling functions above.">
<polygon fill="white" stroke="#666666" points="402,-67.5 286,-67.5 286,-37.5 402,-37.5 402,-67.5"/>
<text text-anchor="start" x="294" y="-55.5" font-family="Helvetica,sans-Serif" font-size="10.00">doris::vectorized::</text>
<text text-anchor="middle" x="344" y="-44.5" font-family="Helvetica,sans-Serif" font-size="10.00">Block::get_by_position</text>
</a>
</g>
</g>
<!-- Node1&#45;&gt;Node10 -->
<g id="edge11" class="edge">
<title>Node1&#45;&gt;Node10</title>
<path fill="none" stroke="#63b8ff" d="M63.64,-105.47C103.87,-119.49 183.46,-140.54 244,-114.5 265.37,-105.31 260.65,-89.41 280,-76.5 281.79,-75.31 283.65,-74.16 285.55,-73.06"/>
<polygon fill="#63b8ff" stroke="#63b8ff" points="286.79,-76.36 294.06,-68.65 283.57,-70.15 286.79,-76.36"/>
</g>
<!-- Node11 -->
<g id="node11" class="node">
<title>Node11</title>
<g id="a_node11"><a xlink:href="../../d7/d99/classdoris_1_1vectorized_1_1_function_array_difference.html#ab9010f82586f714358e9fa84c4af7c53" target="_top" xlink:title="Get the main function name.">
<polygon fill="white" stroke="#666666" points="206.5,-105 147.5,-105 147.5,-86 206.5,-86 206.5,-105"/>
<text text-anchor="middle" x="177" y="-93" font-family="Helvetica,sans-Serif" font-size="10.00">get_name</text>
</a>
</g>
</g>
<!-- Node1&#45;&gt;Node11 -->
<g id="edge12" class="edge">
<title>Node1&#45;&gt;Node11</title>
<path fill="none" stroke="#63b8ff" d="M74.26,-95.5C93.26,-95.5 116.58,-95.5 136.09,-95.5"/>
<polygon fill="#63b8ff" stroke="#63b8ff" points="135.87,-99 145.87,-95.5 135.87,-92 135.87,-99"/>
</g>
<!-- Node12 -->
<g id="node12" class="node">
<title>Node12</title>
<g id="a_node12"><a xlink:href="../../d9/d8d/classdoris_1_1_status.html#a6ec1a217f203269ab53d2290d602db24" target="_top" xlink:title=" ">
<polygon fill="white" stroke="#666666" points="223,-19 131,-19 131,0 223,0 223,-19"/>
<text text-anchor="middle" x="177" y="-7" font-family="Helvetica,sans-Serif" font-size="10.00">doris::Status::OK</text>
</a>
</g>
</g>
<!-- Node1&#45;&gt;Node12 -->
<g id="edge13" class="edge">
<title>Node1&#45;&gt;Node12</title>
<path fill="none" stroke="#63b8ff" d="M45.79,-85.78C57.97,-71.21 82.95,-43.8 110,-28.5 113.22,-26.68 116.62,-25.02 120.12,-23.51"/>
<polygon fill="#63b8ff" stroke="#63b8ff" points="121.32,-26.8 129.41,-19.97 118.82,-20.27 121.32,-26.8"/>
</g>
<!-- Node14 -->
<g id="node14" class="node">
<title>Node14</title>
<g id="a_node14"><a xlink:href="../../d2/d12/classdoris_1_1vectorized_1_1_block.html#a0f83afb1e34b7b73db116622fa569508" target="_top" xlink:title=" ">
<polygon fill="white" stroke="#666666" points="244,-67.5 110,-67.5 110,-37.5 244,-37.5 244,-67.5"/>
<text text-anchor="start" x="118" y="-55.5" font-family="Helvetica,sans-Serif" font-size="10.00">doris::vectorized::</text>
<text text-anchor="middle" x="177" y="-44.5" font-family="Helvetica,sans-Serif" font-size="10.00">Block::replace_by_position</text>
</a>
</g>
</g>
<!-- Node1&#45;&gt;Node14 -->
<g id="edge15" class="edge">
<title>Node1&#45;&gt;Node14</title>
<path fill="none" stroke="#63b8ff" d="M70.01,-85.53C83.59,-81.29 99.89,-76.21 115.59,-71.32"/>
<polygon fill="#63b8ff" stroke="#63b8ff" points="116.37,-74.75 124.88,-68.43 114.29,-68.06 116.37,-74.75"/>
</g>
<!-- Node3 -->
<g id="node3" class="node">
<title>Node3</title>
<g id="a_node3"><a xlink:href="../../d9/d99/classdoris_1_1vectorized_1_1_column_array.html#ac5d66b71cbe4e8c43bfcb089ec2dec1e" target="_top" xlink:title=" ">
<polygon fill="white" stroke="#666666" points="397.5,-309.5 290.5,-309.5 290.5,-279.5 397.5,-279.5 397.5,-309.5"/>
<text text-anchor="start" x="298.5" y="-297.5" font-family="Helvetica,sans-Serif" font-size="10.00">doris::vectorized::</text>
<text text-anchor="middle" x="344" y="-286.5" font-family="Helvetica,sans-Serif" font-size="10.00">ColumnArray::create</text>
</a>
</g>
</g>
<!-- Node2&#45;&gt;Node3 -->
<g id="edge2" class="edge">
<title>Node2&#45;&gt;Node3</title>
<path fill="none" stroke="#63b8ff" d="M186.61,-188.4C203.1,-206.8 240.94,-246.61 280,-270.5 282.03,-271.74 284.13,-272.94 286.28,-274.08"/>
<polygon fill="#63b8ff" stroke="#63b8ff" points="284.75,-277.23 295.27,-278.46 287.81,-270.93 284.75,-277.23"/>
</g>
<!-- Node4 -->
<g id="node4" class="node">
<title>Node4</title>
<g id="a_node4"><a xlink:href="../../d4/d41/classdoris_1_1vectorized_1_1_column_nullable.html#a3b3d7919998e1640a2bc9c7226662143" target="_top" xlink:title=" ">
<polygon fill="white" stroke="#666666" points="396.5,-261 291.5,-261 291.5,-220 396.5,-220 396.5,-261"/>
<text text-anchor="start" x="299.5" y="-249" font-family="Helvetica,sans-Serif" font-size="10.00">doris::vectorized::</text>
<text text-anchor="start" x="299.5" y="-238" font-family="Helvetica,sans-Serif" font-size="10.00">ColumnNullable::get</text>
<text text-anchor="middle" x="344" y="-227" font-family="Helvetica,sans-Serif" font-size="10.00">_nested_column_ptr</text>
</a>
</g>
</g>
<!-- Node2&#45;&gt;Node4 -->
<g id="edge4" class="edge">
<title>Node2&#45;&gt;Node4</title>
<path fill="none" stroke="#63b8ff" d="M204.51,-188.46C225.01,-196.16 254.23,-207.15 280.56,-217.04"/>
<polygon fill="#63b8ff" stroke="#63b8ff" points="279.24,-220.28 289.83,-220.52 281.7,-213.73 279.24,-220.28"/>
</g>
<!-- Node5 -->
<g id="node5" class="node">
<title>Node5</title>
<g id="a_node5"><a xlink:href="../../d9/d99/classdoris_1_1vectorized_1_1_column_array.html#ae092f2b5b91f22349bed8dcb7865ca76" target="_top" xlink:title=" ">
<polygon fill="white" stroke="#666666" points="408,-201.5 280,-201.5 280,-171.5 408,-171.5 408,-201.5"/>
<text text-anchor="start" x="288" y="-189.5" font-family="Helvetica,sans-Serif" font-size="10.00">doris::vectorized::</text>
<text text-anchor="middle" x="344" y="-178.5" font-family="Helvetica,sans-Serif" font-size="10.00">ColumnArray::get_offsets</text>
</a>
</g>
</g>
<!-- Node2&#45;&gt;Node5 -->
<g id="edge5" class="edge">
<title>Node2&#45;&gt;Node5</title>
<path fill="none" stroke="#63b8ff" d="M235.25,-181.28C245.88,-181.79 257.14,-182.34 268.21,-182.87"/>
<polygon fill="#63b8ff" stroke="#63b8ff" points="267.98,-186.37 278.14,-183.36 268.32,-179.37 267.98,-186.37"/>
</g>
<!-- Node6 -->
<g id="node6" class="node">
<title>Node6</title>
<g id="a_node6"><a xlink:href="../../d3/d1e/namespacedoris_1_1vectorized.html#a53ba59a5e2f4e69160fec1ee139ff8df" target="_top" xlink:title="True if column&#39;s an ColumnNullable instance. It&#39;s just a syntax sugar for type check.">
<polygon fill="white" stroke="#666666" points="554.5,-160.5 455.5,-160.5 455.5,-130.5 554.5,-130.5 554.5,-160.5"/>
<text text-anchor="start" x="463.5" y="-148.5" font-family="Helvetica,sans-Serif" font-size="10.00">doris::vectorized::</text>
<text text-anchor="middle" x="505" y="-137.5" font-family="Helvetica,sans-Serif" font-size="10.00">is_column_nullable</text>
</a>
</g>
</g>
<!-- Node2&#45;&gt;Node6 -->
<g id="edge6" class="edge">
<title>Node2&#45;&gt;Node6</title>
<path fill="none" stroke="#63b8ff" d="M235.34,-168.68C249.88,-166.42 265.49,-164.19 280,-162.5 335.42,-156.06 398.84,-151.51 444.02,-148.75"/>
<polygon fill="#63b8ff" stroke="#63b8ff" points="444.11,-152.25 453.88,-148.16 443.69,-145.26 444.11,-152.25"/>
</g>
<!-- Node7 -->
<g id="node7" class="node">
<title>Node7</title>
<g id="a_node7"><a xlink:href="../../d3/d1e/namespacedoris_1_1vectorized.html#a174d35d751f410a19f4bfe649d3cc3a4" target="_top" xlink:title=" ">
<polygon fill="white" stroke="#666666" points="391.5,-115.5 296.5,-115.5 296.5,-85.5 391.5,-85.5 391.5,-115.5"/>
<text text-anchor="start" x="304.5" y="-103.5" font-family="Helvetica,sans-Serif" font-size="10.00">doris::vectorized::</text>
<text text-anchor="middle" x="344" y="-92.5" font-family="Helvetica,sans-Serif" font-size="10.00">remove_nullable</text>
</a>
</g>
</g>
<!-- Node2&#45;&gt;Node7 -->
<g id="edge7" class="edge">
<title>Node2&#45;&gt;Node7</title>
<path fill="none" stroke="#63b8ff" d="M199.46,-168.58C212.4,-162.56 229.19,-154.68 244,-147.5 260.1,-139.7 263.87,-137.24 280,-129.5 285.98,-126.63 292.3,-123.65 298.55,-120.74"/>
<polygon fill="#63b8ff" stroke="#63b8ff" points="299.92,-123.96 307.53,-116.59 296.98,-117.61 299.92,-123.96"/>
</g>
<!-- Node3&#45;&gt;Node3 -->
<g id="edge3" class="edge">
<title>Node3&#45;&gt;Node3</title>
<path fill="none" stroke="#63b8ff" d="M315.7,-309.78C309.41,-318.91 318.84,-327.5 344,-327.5 357.76,-327.5 366.81,-324.93 371.17,-321.11"/>
<polygon fill="#63b8ff" stroke="#63b8ff" points="374.64,-321.58 372.15,-311.28 367.67,-320.88 374.64,-321.58"/>
</g>
<!-- Node7&#45;&gt;Node6 -->
<g id="edge10" class="edge">
<title>Node7&#45;&gt;Node6</title>
<path fill="none" stroke="#63b8ff" d="M391.85,-113.76C408.31,-118.42 427.03,-123.72 444.4,-128.63"/>
<polygon fill="#63b8ff" stroke="#63b8ff" points="442.97,-131.87 453.55,-131.22 444.88,-125.13 442.97,-131.87"/>
</g>
<!-- Node8 -->
<g id="node8" class="node">
<title>Node8</title>
<g id="a_node8"><a xlink:href="../../da/d30/class_c_o_w_helper.html#aa14023f47995d24ce0ea777e90a4cb23" target="_top" xlink:title=" ">
<polygon fill="white" stroke="#666666" points="566,-112.5 444,-112.5 444,-82.5 566,-82.5 566,-112.5"/>
<text text-anchor="start" x="452" y="-100.5" font-family="Helvetica,sans-Serif" font-size="10.00">COWHelper&lt; IColumn,</text>
<text text-anchor="middle" x="505" y="-89.5" font-family="Helvetica,sans-Serif" font-size="10.00"> ColumnConst &gt;::create</text>
</a>
</g>
</g>
<!-- Node7&#45;&gt;Node8 -->
<g id="edge8" class="edge">
<title>Node7&#45;&gt;Node8</title>
<path fill="none" stroke="#63b8ff" d="M391.85,-99.62C404.51,-99.38 418.52,-99.11 432.22,-98.85"/>
<polygon fill="#63b8ff" stroke="#63b8ff" points="432.17,-102.36 442.1,-98.67 432.04,-95.36 432.17,-102.36"/>
</g>
<!-- Node9 -->
<g id="node9" class="node">
<title>Node9</title>
<g id="a_node9"><a xlink:href="../../d3/d1e/namespacedoris_1_1vectorized.html#a85dfa9ef8ec5a8555e00a9314d3a7f4d" target="_top" xlink:title="True if column&#39;s an ColumnConst instance. It&#39;s just a syntax sugar for type check.">
<polygon fill="white" stroke="#666666" points="552.5,-64.5 457.5,-64.5 457.5,-34.5 552.5,-34.5 552.5,-64.5"/>
<text text-anchor="start" x="465.5" y="-52.5" font-family="Helvetica,sans-Serif" font-size="10.00">doris::vectorized::</text>
<text text-anchor="middle" x="505" y="-41.5" font-family="Helvetica,sans-Serif" font-size="10.00">is_column_const</text>
</a>
</g>
</g>
<!-- Node7&#45;&gt;Node9 -->
<g id="edge9" class="edge">
<title>Node7&#45;&gt;Node9</title>
<path fill="none" stroke="#63b8ff" d="M391.85,-85.47C408.91,-80 428.41,-73.75 446.31,-68"/>
<polygon fill="#63b8ff" stroke="#63b8ff" points="447.32,-71.36 455.77,-64.97 445.18,-64.69 447.32,-71.36"/>
</g>
<!-- Node13 -->
<g id="node13" class="node">
<title>Node13</title>
<g id="a_node13"><a xlink:href="../../d9/d8d/classdoris_1_1_status.html#aafde58df1b2a6a91d5b674373be3ffc5" target="_top" xlink:title=" ">
<polygon fill="white" stroke="#666666" points="397.5,-19 290.5,-19 290.5,0 397.5,0 397.5,-19"/>
<text text-anchor="middle" x="344" y="-7" font-family="Helvetica,sans-Serif" font-size="10.00">doris::Status::Status</text>
</a>
</g>
</g>
<!-- Node12&#45;&gt;Node13 -->
<g id="edge14" class="edge">
<title>Node12&#45;&gt;Node13</title>
<path fill="none" stroke="#63b8ff" d="M223.09,-9.5C240.23,-9.5 260.12,-9.5 278.7,-9.5"/>
<polygon fill="#63b8ff" stroke="#63b8ff" points="278.56,-13 288.56,-9.5 278.56,-6 278.56,-13"/>
</g>
<!-- Node14&#45;&gt;Node10 -->
<g id="edge16" class="edge">
<title>Node14&#45;&gt;Node10</title>
<path fill="none" stroke="#63b8ff" d="M244.16,-52.5C254.02,-52.5 264.2,-52.5 274.12,-52.5"/>
<polygon fill="#63b8ff" stroke="#63b8ff" points="274.08,-56 284.08,-52.5 274.08,-49 274.08,-56"/>
</g>
</g>
</svg>
        <g id="navigator" transform="translate(0 0)" fill="#404254">
                <rect fill="#f2f5e9" fill-opacity="0.5" stroke="#606060" stroke-width=".5" x="0" y="0" width="60" height="60"/>
                <use id="zoomplus" xlink:href="#zoomPlus" x="17" y="9" onmousedown="handleZoom(evt,'in')"/>
                <use id="zoomminus" xlink:href="#zoomMin" x="42" y="9" onmousedown="handleZoom(evt,'out')"/>
                <use id="reset" xlink:href="#resetDef" x="30" y="36" onmousedown="handleReset()"/>
                <g id="arrowUp" xlink:href="#dirArrow" transform="translate(30 24)" onmousedown="handlePan(0,-1)">
                  <use xlink:href="#rim" fill="#404040">
                        <set attributeName="fill" to="#808080" begin="arrowUp.mouseover" end="arrowUp.mouseout"/>
                  </use>
                  <path fill="none" stroke="white" stroke-width="1.5" d="M0,-3.0v7 M-2.5,-0.5L0,-3.0L2.5,-0.5"/>
                </g>
                <g id="arrowRight" xlink:href="#dirArrow" transform="rotate(90) translate(36 -43)" onmousedown="handlePan(1,0)">
                  <use xlink:href="#rim" fill="#404040">
                        <set attributeName="fill" to="#808080" begin="arrowRight.mouseover" end="arrowRight.mouseout"/>
                  </use>
                  <path fill="none" stroke="white" stroke-width="1.5" d="M0,-3.0v7 M-2.5,-0.5L0,-3.0L2.5,-0.5"/>
                </g>
                <g id="arrowDown" xlink:href="#dirArrow" transform="rotate(180) translate(-30 -48)" onmousedown="handlePan(0,1)">
                  <use xlink:href="#rim" fill="#404040">
                        <set attributeName="fill" to="#808080" begin="arrowDown.mouseover" end="arrowDown.mouseout"/>
                  </use>
                  <path fill="none" stroke="white" stroke-width="1.5" d="M0,-3.0v7 M-2.5,-0.5L0,-3.0L2.5,-0.5"/>
                </g>
                <g id="arrowLeft" xlink:href="#dirArrow" transform="rotate(270) translate(-36 17)" onmousedown="handlePan(-1,0)">
                  <use xlink:href="#rim" fill="#404040">
                        <set attributeName="fill" to="#808080" begin="arrowLeft.mouseover" end="arrowLeft.mouseout"/>
                  </use>
                  <path fill="none" stroke="white" stroke-width="1.5" d="M0,-3.0v7 M-2.5,-0.5L0,-3.0L2.5,-0.5"/>
                </g>
        </g>
        <svg viewBox="0 0 15 15" width="100%" height="30px" preserveAspectRatio="xMaxYMin meet">
         <g id="arrow_out" transform="scale(0.3 0.3)">
          <a xlink:href="classdoris_1_1vectorized_1_1_function_array_difference_addc3120590db01e8bbf9fe9e23f79594_cgraph_org.svg" target="_base">
           <rect id="button" ry="5" rx="5" y="6" x="6" height="38" width="38"
                fill="#f2f5e9" fill-opacity="0.5" stroke="#606060" stroke-width="1.0"/>
           <path id="arrow"
             d="M 11.500037,31.436501 C 11.940474,20.09759 22.043105,11.32322 32.158766,21.979434 L 37.068811,17.246167 C 37.068811,17.246167 37.088388,32 37.088388,32 L 22.160133,31.978069 C 22.160133,31.978069 26.997745,27.140456 26.997745,27.140456 C 18.528582,18.264221 13.291696,25.230495 11.500037,31.436501 z"
             style="fill:#404040;"/>
          </a>
         </g>
        </svg>
</svg>
