<?xml version="1.0" encoding="UTF-8" standalone="no"?>
<!DOCTYPE svg PUBLIC "-//W3C//DTD SVG 1.1//EN"
 "http://www.w3.org/Graphics/SVG/1.1/DTD/svg11.dtd">
<!-- Generated by graphviz version 7.1.0 (20230121.1956)
 -->
<!-- Title: _seek_to_pos_in_page Pages: 1 -->
<svg width="388pt" height="138pt"
 viewBox="0.00 0.00 388.00 138.00" xmlns="http://www.w3.org/2000/svg" xmlns:xlink="http://www.w3.org/1999/xlink">
<g id="graph0" class="graph" transform="scale(1 1) rotate(0) translate(4 134)">
<title>_seek_to_pos_in_page</title>
<!-- Node1 -->
<g id="node1" class="node">
<title>Node1</title>
<g id="a_node1"><a xlink:title=" ">
<polygon fill="#999999" stroke="#666666" points="380,-93 264,-93 264,-74 380,-74 380,-93"/>
<text text-anchor="middle" x="322" y="-81" font-family="Helvetica,sans-Serif" font-size="10.00">_seek_to_pos_in_page</text>
</a>
</g>
</g>
<!-- Node2 -->
<g id="node2" class="node">
<title>Node2</title>
<g id="a_node2"><a xlink:href="../../df/df3/classdoris_1_1segment__v2_1_1_file_column_iterator.html#ad5e548efdbbc038a3c46b7b90911faf4" target="_top" xlink:title=" ">
<polygon fill="white" stroke="#666666" points="228,-130 138,-130 138,-111 228,-111 228,-130"/>
<text text-anchor="middle" x="183" y="-118" font-family="Helvetica,sans-Serif" font-size="10.00">_load_next_page</text>
</a>
</g>
</g>
<!-- Node1&#45;&gt;Node2 -->
<g id="edge1" class="edge">
<title>Node1&#45;&gt;Node2</title>
<path fill="none" stroke="#63b8ff" d="M273.31,-96.38C256.1,-101.03 236.95,-106.2 220.81,-110.56"/>
<polygon fill="#63b8ff" stroke="#63b8ff" points="274.08,-99.8 282.83,-93.81 272.26,-93.04 274.08,-99.8"/>
</g>
<!-- Node4 -->
<g id="node4" class="node">
<title>Node4</title>
<g id="a_node4"><a xlink:href="../../df/df3/classdoris_1_1segment__v2_1_1_file_column_iterator.html#aeb71301d563002d3f52a042eb3f98327" target="_top" xlink:title=" ">
<polygon fill="white" stroke="#666666" points="219.5,-93 146.5,-93 146.5,-74 219.5,-74 219.5,-93"/>
<text text-anchor="middle" x="183" y="-81" font-family="Helvetica,sans-Serif" font-size="10.00">seek_to_first</text>
</a>
</g>
</g>
<!-- Node1&#45;&gt;Node4 -->
<g id="edge3" class="edge">
<title>Node1&#45;&gt;Node4</title>
<path fill="none" stroke="#63b8ff" d="M252.5,-83.5C241.25,-83.5 230.01,-83.5 219.98,-83.5"/>
<polygon fill="#63b8ff" stroke="#63b8ff" points="252.18,-87 262.18,-83.5 252.18,-80 252.18,-87"/>
</g>
<!-- Node5 -->
<g id="node5" class="node">
<title>Node5</title>
<g id="a_node5"><a xlink:href="../../df/df3/classdoris_1_1segment__v2_1_1_file_column_iterator.html#a3f613fcd3cddfcd100427a54db9ce7c9" target="_top" xlink:title=" ">
<polygon fill="white" stroke="#666666" points="225.5,-56 140.5,-56 140.5,-37 225.5,-37 225.5,-56"/>
<text text-anchor="middle" x="183" y="-44" font-family="Helvetica,sans-Serif" font-size="10.00">seek_to_ordinal</text>
</a>
</g>
</g>
<!-- Node1&#45;&gt;Node5 -->
<g id="edge4" class="edge">
<title>Node1&#45;&gt;Node5</title>
<path fill="none" stroke="#63b8ff" d="M273.31,-70.62C256.1,-65.97 236.95,-60.8 220.81,-56.44"/>
<polygon fill="#63b8ff" stroke="#63b8ff" points="272.26,-73.96 282.83,-73.19 274.08,-67.2 272.26,-73.96"/>
</g>
<!-- Node3 -->
<g id="node3" class="node">
<title>Node3</title>
<g id="a_node3"><a xlink:href="../../df/df3/classdoris_1_1segment__v2_1_1_file_column_iterator.html#aefb4735e49ba8b5736be434e4b16fc17" target="_top" xlink:title=" ">
<polygon fill="white" stroke="#666666" points="83.5,-130 18.5,-130 18.5,-111 83.5,-111 83.5,-130"/>
<text text-anchor="middle" x="51" y="-118" font-family="Helvetica,sans-Serif" font-size="10.00">next_batch</text>
</a>
</g>
</g>
<!-- Node2&#45;&gt;Node3 -->
<g id="edge2" class="edge">
<title>Node2&#45;&gt;Node3</title>
<path fill="none" stroke="#63b8ff" d="M126.21,-120.5C111.74,-120.5 96.64,-120.5 83.87,-120.5"/>
<polygon fill="#63b8ff" stroke="#63b8ff" points="126.11,-124 136.11,-120.5 126.11,-117 126.11,-124"/>
</g>
<!-- Node6 -->
<g id="node6" class="node">
<title>Node6</title>
<g id="a_node6"><a xlink:href="../../df/df3/classdoris_1_1segment__v2_1_1_file_column_iterator.html#a71aa82243ea95139e8a8c2675ed20683" target="_top" xlink:title=" ">
<polygon fill="white" stroke="#666666" points="65.5,-93 36.5,-93 36.5,-74 65.5,-74 65.5,-93"/>
<text text-anchor="middle" x="51" y="-81" font-family="Helvetica,sans-Serif" font-size="10.00">init</text>
</a>
</g>
</g>
<!-- Node5&#45;&gt;Node6 -->
<g id="edge5" class="edge">
<title>Node5&#45;&gt;Node6</title>
<path fill="none" stroke="#63b8ff" d="M136.15,-59.55C111.44,-66.58 82.68,-74.77 65.99,-79.52"/>
<polygon fill="#63b8ff" stroke="#63b8ff" points="137.05,-62.93 145.71,-56.83 135.13,-56.2 137.05,-62.93"/>
</g>
<!-- Node7 -->
<g id="node7" class="node">
<title>Node7</title>
<g id="a_node7"><a xlink:href="../../df/df3/classdoris_1_1segment__v2_1_1_file_column_iterator.html#a7f95d6d729891be03ce952f2b51cee9e" target="_top" xlink:title=" ">
<polygon fill="white" stroke="#666666" points="93.5,-56 8.5,-56 8.5,-37 93.5,-37 93.5,-56"/>
<text text-anchor="middle" x="51" y="-44" font-family="Helvetica,sans-Serif" font-size="10.00">read_by_rowids</text>
</a>
</g>
</g>
<!-- Node5&#45;&gt;Node7 -->
<g id="edge6" class="edge">
<title>Node5&#45;&gt;Node7</title>
<path fill="none" stroke="#63b8ff" d="M128.73,-46.5C117.07,-46.5 104.9,-46.5 93.77,-46.5"/>
<polygon fill="#63b8ff" stroke="#63b8ff" points="128.64,-50 138.64,-46.5 128.64,-43 128.64,-50"/>
</g>
<!-- Node8 -->
<g id="node8" class="node">
<title>Node8</title>
<g id="a_node8"><a xlink:href="../../df/df3/classdoris_1_1segment__v2_1_1_file_column_iterator.html#a349421f5e1ce324b55edfda2ba6e36c9" target="_top" xlink:title=" ">
<polygon fill="white" stroke="#666666" points="102,-19 0,-19 0,0 102,0 102,-19"/>
<text text-anchor="middle" x="51" y="-7" font-family="Helvetica,sans-Serif" font-size="10.00">seek_to_page_start</text>
</a>
</g>
</g>
<!-- Node5&#45;&gt;Node8 -->
<g id="edge7" class="edge">
<title>Node5&#45;&gt;Node8</title>
<path fill="none" stroke="#63b8ff" d="M136.28,-33.49C120.07,-28.87 102.1,-23.76 86.93,-19.44"/>
<polygon fill="#63b8ff" stroke="#63b8ff" points="135.13,-36.8 145.71,-36.17 137.05,-30.07 135.13,-36.8"/>
</g>
</g>
</svg>
