<?xml version="1.0" encoding="UTF-8" standalone="no"?>
<!DOCTYPE svg PUBLIC "-//W3C//DTD SVG 1.1//EN"
 "http://www.w3.org/Graphics/SVG/1.1/DTD/svg11.dtd">
<!-- Generated by graphviz version 7.1.0 (20230121.1956)
 -->
<!-- Title: /Users/dabowang/doris/be/src/vec/exec/format/parquet/vparquet_file_metadata.h Pages: 1 -->
<!--zoomable 346 -->
<svg id="main" version="1.1" xmlns="http://www.w3.org/2000/svg" xmlns:xlink="http://www.w3.org/1999/xlink" xml:space="preserve" onload="init(evt)">
<style type="text/css"><![CDATA[
.edge:hover path { stroke: red; }
.edge:hover polygon { stroke: red; fill: red; }
]]></style>
<script type="text/javascript"><![CDATA[
var edges = document.getElementsByTagName('g');
if (edges && edges.length) {
  for (var i=0;i<edges.length;i++) {
    if (edges[i].id.substr(0,4)=='edge') {
      edges[i].setAttribute('class','edge');
    }
  }
}
]]></script>
        <defs>
                <circle id="rim" cx="0" cy="0" r="7"/>
                <circle id="rim2" cx="0" cy="0" r="3.5"/>
                <g id="zoomPlus">
                        <use xlink:href="#rim" fill="#404040">
                                <set attributeName="fill" to="#808080" begin="zoomplus.mouseover" end="zoomplus.mouseout"/>
                        </use>
                        <path d="M-4,0h8M0,-4v8" fill="none" stroke="white" stroke-width="1.5" pointer-events="none"/>
                </g>
                <g id="zoomMin">
                        <use xlink:href="#rim" fill="#404040">
                                <set attributeName="fill" to="#808080" begin="zoomminus.mouseover" end="zoomminus.mouseout"/>
                        </use>
                        <path d="M-4,0h8" fill="none" stroke="white" stroke-width="1.5" pointer-events="none"/>
                </g>
                <g id="dirArrow">
                        <path fill="none" stroke="white" stroke-width="1.5" d="M0,-3.0v7 M-2.5,-0.5L0,-3.0L2.5,-0.5"/>
                </g>
               <g id="resetDef">
                       <use xlink:href="#rim2" fill="#404040">
                               <set attributeName="fill" to="#808080" begin="reset.mouseover" end="reset.mouseout"/>
                       </use>
               </g>
        </defs>

<script type="text/javascript">
var viewWidth = 1127;
var viewHeight = 346;
var sectionId = 'dynsection-0';
</script>
<script xlink:href="../../svgpan.js"/>
<svg id="graph" class="graph">
<g id="viewport">
<title>/Users/dabowang/doris/be/src/vec/exec/format/parquet/vparquet_file_metadata.h</title>
<!-- Node1 -->
<g id="node1" class="node">
<title>Node1</title>
<g id="a_node1"><a xlink:title=" ">
<polygon fill="#999999" stroke="#666666" points="869,-338 749,-338 749,-286 869,-286 869,-338"/>
<text text-anchor="start" x="757" y="-326" font-family="Helvetica,sans-Serif" font-size="10.00">/Users/dabowang/doris</text>
<text text-anchor="start" x="757" y="-315" font-family="Helvetica,sans-Serif" font-size="10.00">/be/src/vec/exec/format</text>
<text text-anchor="start" x="757" y="-304" font-family="Helvetica,sans-Serif" font-size="10.00">/parquet/vparquet_file</text>
<text text-anchor="middle" x="809" y="-293" font-family="Helvetica,sans-Serif" font-size="10.00">_metadata.h</text>
</a>
</g>
</g>
<!-- Node2 -->
<g id="node2" class="node">
<title>Node2</title>
<g id="a_node2"><a xlink:href="../../d1/d13/status_8h.html" target="_top" xlink:title=" ">
<polygon fill="white" stroke="#666666" points="800,-74 708,-74 708,-55 800,-55 800,-74"/>
<text text-anchor="middle" x="754" y="-62" font-family="Helvetica,sans-Serif" font-size="10.00">common/status.h</text>
</a>
</g>
</g>
<!-- Node1&#45;&gt;Node2 -->
<g id="edge1" class="edge">
<title>Node1&#45;&gt;Node2</title>
<path fill="none" stroke="#63b8ff" d="M838.21,-285.6C865.27,-258.82 898.84,-215.16 881,-176 860.65,-131.31 812.31,-97.69 781.48,-79.85"/>
<polygon fill="#63b8ff" stroke="#63b8ff" points="783.52,-76.98 773.09,-75.15 780.11,-83.09 783.52,-76.98"/>
</g>
<!-- Node10 -->
<g id="node10" class="node">
<title>Node10</title>
<g id="a_node10"><a xlink:title=" ">
<polygon fill="#e0e0e0" stroke="#999999" points="872,-195 746,-195 746,-176 872,-176 872,-195"/>
<text text-anchor="middle" x="809" y="-183" font-family="Helvetica,sans-Serif" font-size="10.00">gen_cpp/parquet_types.h</text>
</a>
</g>
</g>
<!-- Node1&#45;&gt;Node10 -->
<g id="edge9" class="edge">
<title>Node1&#45;&gt;Node10</title>
<path fill="none" stroke="#63b8ff" d="M809,-285.51C809,-262.18 809,-228.14 809,-206.66"/>
<polygon fill="#63b8ff" stroke="#63b8ff" points="812.5,-206.9 809,-196.9 805.5,-206.9 812.5,-206.9"/>
</g>
<!-- Node11 -->
<g id="node11" class="node">
<title>Node11</title>
<g id="a_node11"><a xlink:href="../../de/df4/schema__desc_8h.html" target="_top" xlink:title=" ">
<polygon fill="white" stroke="#666666" points="726,-250 640,-250 640,-231 726,-231 726,-250"/>
<text text-anchor="middle" x="683" y="-238" font-family="Helvetica,sans-Serif" font-size="10.00">schema_desc.h</text>
</a>
</g>
</g>
<!-- Node1&#45;&gt;Node11 -->
<g id="edge10" class="edge">
<title>Node1&#45;&gt;Node11</title>
<path fill="none" stroke="#63b8ff" d="M762.8,-285.52C744.65,-275.51 724.5,-264.39 708.98,-255.83"/>
<polygon fill="#63b8ff" stroke="#63b8ff" points="710.84,-252.86 700.39,-251.09 707.46,-258.99 710.84,-252.86"/>
</g>
<!-- Node3 -->
<g id="node3" class="node">
<title>Node3</title>
<g id="a_node3"><a xlink:title=" ">
<polygon fill="#e0e0e0" stroke="#999999" points="589,-19 519,-19 519,0 589,0 589,-19"/>
<text text-anchor="middle" x="554" y="-7" font-family="Helvetica,sans-Serif" font-size="10.00">fmt/format.h</text>
</a>
</g>
</g>
<!-- Node2&#45;&gt;Node3 -->
<g id="edge2" class="edge">
<title>Node2&#45;&gt;Node3</title>
<path fill="none" stroke="#63b8ff" d="M720.07,-54.51C686.64,-45.65 635.38,-32.07 598.65,-22.33"/>
<polygon fill="#63b8ff" stroke="#63b8ff" points="599.79,-19.01 589.22,-19.83 597.99,-25.78 599.79,-19.01"/>
</g>
<!-- Node4 -->
<g id="node4" class="node">
<title>Node4</title>
<g id="a_node4"><a xlink:title=" ">
<polygon fill="#e0e0e0" stroke="#999999" points="684.5,-19 607.5,-19 607.5,0 684.5,0 684.5,-19"/>
<text text-anchor="middle" x="646" y="-7" font-family="Helvetica,sans-Serif" font-size="10.00">glog/logging.h</text>
</a>
</g>
</g>
<!-- Node2&#45;&gt;Node4 -->
<g id="edge3" class="edge">
<title>Node2&#45;&gt;Node4</title>
<path fill="none" stroke="#63b8ff" d="M735.68,-54.51C718.82,-46.24 693.57,-33.84 674.15,-24.31"/>
<polygon fill="#63b8ff" stroke="#63b8ff" points="675.93,-21.29 665.41,-20.02 672.84,-27.57 675.93,-21.29"/>
</g>
<!-- Node5 -->
<g id="node5" class="node">
<title>Node5</title>
<g id="a_node5"><a xlink:title=" ">
<polygon fill="#e0e0e0" stroke="#999999" points="757,-19 703,-19 703,0 757,0 757,-19"/>
<text text-anchor="middle" x="730" y="-7" font-family="Helvetica,sans-Serif" font-size="10.00">iostream</text>
</a>
</g>
</g>
<!-- Node2&#45;&gt;Node5 -->
<g id="edge4" class="edge">
<title>Node2&#45;&gt;Node5</title>
<path fill="none" stroke="#63b8ff" d="M750.04,-54.75C746.96,-47.96 742.59,-38.3 738.71,-29.73"/>
<polygon fill="#63b8ff" stroke="#63b8ff" points="741.99,-28.49 734.67,-20.82 735.61,-31.37 741.99,-28.49"/>
</g>
<!-- Node6 -->
<g id="node6" class="node">
<title>Node6</title>
<g id="a_node6"><a xlink:title=" ">
<polygon fill="#e0e0e0" stroke="#999999" points="451.5,-19 410.5,-19 410.5,0 451.5,0 451.5,-19"/>
<text text-anchor="middle" x="431" y="-7" font-family="Helvetica,sans-Serif" font-size="10.00">string</text>
</a>
</g>
</g>
<!-- Node2&#45;&gt;Node6 -->
<g id="edge5" class="edge">
<title>Node2&#45;&gt;Node6</title>
<path fill="none" stroke="#63b8ff" d="M707.72,-55.91C641.28,-45 520.54,-25.19 463.07,-15.76"/>
<polygon fill="#63b8ff" stroke="#63b8ff" points="463.73,-12.32 453.3,-14.16 462.6,-19.23 463.73,-12.32"/>
</g>
<!-- Node7 -->
<g id="node7" class="node">
<title>Node7</title>
<g id="a_node7"><a xlink:title=" ">
<polygon fill="#e0e0e0" stroke="#999999" points="841,-19 775,-19 775,0 841,0 841,-19"/>
<text text-anchor="middle" x="808" y="-7" font-family="Helvetica,sans-Serif" font-size="10.00">string_view</text>
</a>
</g>
</g>
<!-- Node2&#45;&gt;Node7 -->
<g id="edge6" class="edge">
<title>Node2&#45;&gt;Node7</title>
<path fill="none" stroke="#63b8ff" d="M762.92,-54.75C770.45,-47.35 781.47,-36.54 790.73,-27.45"/>
<polygon fill="#63b8ff" stroke="#63b8ff" points="793.12,-30 797.81,-20.5 788.22,-25.01 793.12,-30"/>
</g>
<!-- Node8 -->
<g id="node8" class="node">
<title>Node8</title>
<g id="a_node8"><a xlink:href="../../d4/d10/compiler__util_8h.html" target="_top" xlink:title=" ">
<polygon fill="white" stroke="#666666" points="979,-19 859,-19 859,0 979,0 979,-19"/>
<text text-anchor="middle" x="919" y="-7" font-family="Helvetica,sans-Serif" font-size="10.00">common/compiler_util.h</text>
</a>
</g>
</g>
<!-- Node2&#45;&gt;Node8 -->
<g id="edge7" class="edge">
<title>Node2&#45;&gt;Node8</title>
<path fill="none" stroke="#63b8ff" d="M781.99,-54.51C809.09,-45.8 850.41,-32.53 880.58,-22.84"/>
<polygon fill="#63b8ff" stroke="#63b8ff" points="881.26,-26.3 889.71,-19.91 879.12,-19.64 881.26,-26.3"/>
</g>
<!-- Node9 -->
<g id="node9" class="node">
<title>Node9</title>
<g id="a_node9"><a xlink:title=" ">
<polygon fill="#e0e0e0" stroke="#999999" points="1119,-19 997,-19 997,0 1119,0 1119,-19"/>
<text text-anchor="middle" x="1058" y="-7" font-family="Helvetica,sans-Serif" font-size="10.00">gen_cpp/Status_types.h</text>
</a>
</g>
</g>
<!-- Node2&#45;&gt;Node9 -->
<g id="edge8" class="edge">
<title>Node2&#45;&gt;Node9</title>
<path fill="none" stroke="#63b8ff" d="M800.17,-55.45C852.26,-46.37 937.26,-31.55 995.32,-21.43"/>
<polygon fill="#63b8ff" stroke="#63b8ff" points="995.81,-24.89 1005.06,-19.73 994.61,-18 995.81,-24.89"/>
</g>
<!-- Node11&#45;&gt;Node2 -->
<g id="edge14" class="edge">
<title>Node11&#45;&gt;Node2</title>
<path fill="none" stroke="#63b8ff" d="M686.62,-230.63C697.63,-203.64 730.93,-122.03 746.2,-84.61"/>
<polygon fill="#63b8ff" stroke="#63b8ff" points="749.36,-86.13 749.9,-75.54 742.88,-83.48 749.36,-86.13"/>
</g>
<!-- Node11&#45;&gt;Node10 -->
<g id="edge11" class="edge">
<title>Node11&#45;&gt;Node10</title>
<path fill="none" stroke="#63b8ff" d="M704.37,-230.51C724.41,-222.08 754.6,-209.38 777.41,-199.79"/>
<polygon fill="#63b8ff" stroke="#63b8ff" points="778.69,-203.05 786.55,-195.94 775.97,-196.6 778.69,-203.05"/>
</g>
<!-- Node12 -->
<g id="node12" class="node">
<title>Node12</title>
<g id="a_node12"><a xlink:title=" ">
<polygon fill="#e0e0e0" stroke="#999999" points="689.5,-195 606.5,-195 606.5,-176 689.5,-176 689.5,-195"/>
<text text-anchor="middle" x="648" y="-183" font-family="Helvetica,sans-Serif" font-size="10.00">unordered_map</text>
</a>
</g>
</g>
<!-- Node11&#45;&gt;Node12 -->
<g id="edge12" class="edge">
<title>Node11&#45;&gt;Node12</title>
<path fill="none" stroke="#63b8ff" d="M677.22,-230.75C672.59,-223.73 665.93,-213.64 660.13,-204.87"/>
<polygon fill="#63b8ff" stroke="#63b8ff" points="663.17,-203.12 654.74,-196.71 657.33,-206.98 663.17,-203.12"/>
</g>
<!-- Node13 -->
<g id="node13" class="node">
<title>Node13</title>
<g id="a_node13"><a xlink:title=" ">
<polygon fill="#e0e0e0" stroke="#999999" points="44,-19 0,-19 0,0 44,0 44,-19"/>
<text text-anchor="middle" x="22" y="-7" font-family="Helvetica,sans-Serif" font-size="10.00">vector</text>
</a>
</g>
</g>
<!-- Node11&#45;&gt;Node13 -->
<g id="edge13" class="edge">
<title>Node11&#45;&gt;Node13</title>
<path fill="none" stroke="#63b8ff" d="M639.95,-239.61C506.8,-238.97 105.51,-229.54 20,-140 -8.13,-110.55 4.55,-57.95 14.37,-29.7"/>
<polygon fill="#63b8ff" stroke="#63b8ff" points="17.53,-31.23 17.75,-20.64 10.97,-28.78 17.53,-31.23"/>
</g>
<!-- Node14 -->
<g id="node14" class="node">
<title>Node14</title>
<g id="a_node14"><a xlink:href="../../dc/da7/runtime_2types_8h.html" target="_top" xlink:title=" ">
<polygon fill="white" stroke="#666666" points="440,-195 356,-195 356,-176 440,-176 440,-195"/>
<text text-anchor="middle" x="398" y="-183" font-family="Helvetica,sans-Serif" font-size="10.00">runtime/types.h</text>
</a>
</g>
</g>
<!-- Node11&#45;&gt;Node14 -->
<g id="edge15" class="edge">
<title>Node11&#45;&gt;Node14</title>
<path fill="none" stroke="#63b8ff" d="M639.71,-231.45C589.27,-222.07 505.89,-206.56 451.45,-196.44"/>
<polygon fill="#63b8ff" stroke="#63b8ff" points="452.25,-193.03 441.78,-194.64 450.97,-199.91 452.25,-193.03"/>
</g>
<!-- Node14&#45;&gt;Node6 -->
<g id="edge16" class="edge">
<title>Node14&#45;&gt;Node6</title>
<path fill="none" stroke="#63b8ff" d="M440.27,-183.71C507.3,-181.46 633.24,-172.85 661,-140 721.36,-68.57 539.31,-28.73 462.99,-15.5"/>
<polygon fill="#63b8ff" stroke="#63b8ff" points="463.64,-12.06 453.19,-13.86 462.48,-18.97 463.64,-12.06"/>
</g>
<!-- Node14&#45;&gt;Node13 -->
<g id="edge17" class="edge">
<title>Node14&#45;&gt;Node13</title>
<path fill="none" stroke="#63b8ff" d="M355.57,-185.37C270.77,-186.15 84.75,-182.81 41,-140 11.85,-111.47 14.24,-59.28 18.27,-30.63"/>
<polygon fill="#63b8ff" stroke="#63b8ff" points="21.72,-31.23 19.88,-20.79 14.81,-30.1 21.72,-31.23"/>
</g>
<!-- Node15 -->
<g id="node15" class="node">
<title>Node15</title>
<g id="a_node15"><a xlink:href="../../d8/da8/common_2config_8h.html" target="_top" xlink:title=" ">
<polygon fill="white" stroke="#666666" points="256,-134.5 164,-134.5 164,-115.5 256,-115.5 256,-134.5"/>
<text text-anchor="middle" x="210" y="-122.5" font-family="Helvetica,sans-Serif" font-size="10.00">common/config.h</text>
</a>
</g>
</g>
<!-- Node14&#45;&gt;Node15 -->
<g id="edge18" class="edge">
<title>Node14&#45;&gt;Node15</title>
<path fill="none" stroke="#63b8ff" d="M369.45,-175.62C337.42,-165.65 285.28,-149.43 249.4,-138.26"/>
<polygon fill="#63b8ff" stroke="#63b8ff" points="250.86,-135.05 240.27,-135.42 248.78,-141.73 250.86,-135.05"/>
</g>
<!-- Node21 -->
<g id="node21" class="node">
<title>Node21</title>
<g id="a_node21"><a xlink:title=" ">
<polygon fill="#e0e0e0" stroke="#999999" points="394,-134.5 274,-134.5 274,-115.5 394,-115.5 394,-134.5"/>
<text text-anchor="middle" x="334" y="-122.5" font-family="Helvetica,sans-Serif" font-size="10.00">gen_cpp/Types_types.h</text>
</a>
</g>
</g>
<!-- Node14&#45;&gt;Node21 -->
<g id="edge26" class="edge">
<title>Node14&#45;&gt;Node21</title>
<path fill="none" stroke="#63b8ff" d="M388.28,-175.62C378.69,-166.85 363.81,-153.25 352.06,-142.5"/>
<polygon fill="#63b8ff" stroke="#63b8ff" points="354.67,-140.15 344.93,-135.99 349.95,-145.32 354.67,-140.15"/>
</g>
<!-- Node22 -->
<g id="node22" class="node">
<title>Node22</title>
<g id="a_node22"><a xlink:title=" ">
<polygon fill="#e0e0e0" stroke="#999999" points="514,-134.5 412,-134.5 412,-115.5 514,-115.5 514,-134.5"/>
<text text-anchor="middle" x="463" y="-122.5" font-family="Helvetica,sans-Serif" font-size="10.00">gen_cpp/types.pb.h</text>
</a>
</g>
</g>
<!-- Node14&#45;&gt;Node22 -->
<g id="edge27" class="edge">
<title>Node14&#45;&gt;Node22</title>
<path fill="none" stroke="#63b8ff" d="M407.87,-175.62C417.61,-166.85 432.72,-153.25 444.66,-142.5"/>
<polygon fill="#63b8ff" stroke="#63b8ff" points="446.82,-145.27 451.91,-135.98 442.14,-140.07 446.82,-145.27"/>
</g>
<!-- Node23 -->
<g id="node23" class="node">
<title>Node23</title>
<g id="a_node23"><a xlink:href="../../d4/da9/olap__define_8h.html" target="_top" xlink:title=" ">
<polygon fill="white" stroke="#666666" points="145.5,-134.5 50.5,-134.5 50.5,-115.5 145.5,-115.5 145.5,-134.5"/>
<text text-anchor="middle" x="98" y="-122.5" font-family="Helvetica,sans-Serif" font-size="10.00">olap/olap_define.h</text>
</a>
</g>
</g>
<!-- Node14&#45;&gt;Node23 -->
<g id="edge28" class="edge">
<title>Node14&#45;&gt;Node23</title>
<path fill="none" stroke="#63b8ff" d="M355.71,-177.54C307.11,-169.37 225.04,-155 155,-140 151.46,-139.24 147.81,-138.43 144.14,-137.58"/>
<polygon fill="#63b8ff" stroke="#63b8ff" points="145.21,-134.24 134.67,-135.34 143.59,-141.05 145.21,-134.24"/>
</g>
<!-- Node27 -->
<g id="node27" class="node">
<title>Node27</title>
<g id="a_node27"><a xlink:href="../../dd/d4c/define__primitive__type_8h.html" target="_top" xlink:title=" ">
<polygon fill="white" stroke="#666666" points="652,-140 532,-140 532,-110 652,-110 652,-140"/>
<text text-anchor="start" x="540" y="-128" font-family="Helvetica,sans-Serif" font-size="10.00">runtime/define_primitive</text>
<text text-anchor="middle" x="592" y="-117" font-family="Helvetica,sans-Serif" font-size="10.00">_type.h</text>
</a>
</g>
</g>
<!-- Node14&#45;&gt;Node27 -->
<g id="edge34" class="edge">
<title>Node14&#45;&gt;Node27</title>
<path fill="none" stroke="#63b8ff" d="M427.46,-175.62C455.51,-167.16 498.52,-154.19 533.53,-143.63"/>
<polygon fill="#63b8ff" stroke="#63b8ff" points="534.1,-147.11 542.67,-140.88 532.08,-140.41 534.1,-147.11"/>
</g>
<!-- Node16 -->
<g id="node16" class="node">
<title>Node16</title>
<g id="a_node16"><a xlink:href="../../df/d7f/configbase_8h.html" target="_top" xlink:title=" ">
<polygon fill="white" stroke="#666666" points="323,-74 251,-74 251,-55 323,-55 323,-74"/>
<text text-anchor="middle" x="287" y="-62" font-family="Helvetica,sans-Serif" font-size="10.00">configbase.h</text>
</a>
</g>
</g>
<!-- Node15&#45;&gt;Node16 -->
<g id="edge19" class="edge">
<title>Node15&#45;&gt;Node16</title>
<path fill="none" stroke="#63b8ff" d="M221.69,-115.12C233.45,-106.18 251.84,-92.22 266.11,-81.37"/>
<polygon fill="#63b8ff" stroke="#63b8ff" points="268.14,-84.22 273.99,-75.38 263.91,-78.65 268.14,-84.22"/>
</g>
<!-- Node16&#45;&gt;Node6 -->
<g id="edge24" class="edge">
<title>Node16&#45;&gt;Node6</title>
<path fill="none" stroke="#63b8ff" d="M311.43,-54.51C335.72,-45.57 373.09,-31.81 399.58,-22.06"/>
<polygon fill="#63b8ff" stroke="#63b8ff" points="400.6,-25.42 408.78,-18.68 398.18,-18.85 400.6,-25.42"/>
</g>
<!-- Node16&#45;&gt;Node13 -->
<g id="edge25" class="edge">
<title>Node16&#45;&gt;Node13</title>
<path fill="none" stroke="#63b8ff" d="M250.71,-56.24C199.13,-45.93 105.37,-27.17 55.42,-17.18"/>
<polygon fill="#63b8ff" stroke="#63b8ff" points="56.27,-13.78 45.78,-15.26 54.9,-20.65 56.27,-13.78"/>
</g>
<!-- Node17 -->
<g id="node17" class="node">
<title>Node17</title>
<g id="a_node17"><a xlink:title=" ">
<polygon fill="#e0e0e0" stroke="#999999" points="186,-19 140,-19 140,0 186,0 186,-19"/>
<text text-anchor="middle" x="163" y="-7" font-family="Helvetica,sans-Serif" font-size="10.00">cstdint</text>
</a>
</g>
</g>
<!-- Node16&#45;&gt;Node17 -->
<g id="edge20" class="edge">
<title>Node16&#45;&gt;Node17</title>
<path fill="none" stroke="#63b8ff" d="M265.97,-54.51C246.25,-46.08 216.53,-33.38 194.09,-23.79"/>
<polygon fill="#63b8ff" stroke="#63b8ff" points="195.69,-20.66 185.12,-19.95 192.94,-27.1 195.69,-20.66"/>
</g>
<!-- Node18 -->
<g id="node18" class="node">
<title>Node18</title>
<g id="a_node18"><a xlink:title=" ">
<polygon fill="#e0e0e0" stroke="#999999" points="263.5,-19 204.5,-19 204.5,0 263.5,0 263.5,-19"/>
<text text-anchor="middle" x="234" y="-7" font-family="Helvetica,sans-Serif" font-size="10.00">functional</text>
</a>
</g>
</g>
<!-- Node16&#45;&gt;Node18 -->
<g id="edge21" class="edge">
<title>Node16&#45;&gt;Node18</title>
<path fill="none" stroke="#63b8ff" d="M278.25,-54.75C270.85,-47.35 260.04,-36.54 250.95,-27.45"/>
<polygon fill="#63b8ff" stroke="#63b8ff" points="253.56,-25.11 244.01,-20.51 248.61,-30.06 253.56,-25.11"/>
</g>
<!-- Node19 -->
<g id="node19" class="node">
<title>Node19</title>
<g id="a_node19"><a xlink:title=" ">
<polygon fill="#e0e0e0" stroke="#999999" points="316.5,-19 281.5,-19 281.5,0 316.5,0 316.5,-19"/>
<text text-anchor="middle" x="299" y="-7" font-family="Helvetica,sans-Serif" font-size="10.00">map</text>
</a>
</g>
</g>
<!-- Node16&#45;&gt;Node19 -->
<g id="edge22" class="edge">
<title>Node16&#45;&gt;Node19</title>
<path fill="none" stroke="#63b8ff" d="M288.98,-54.75C290.47,-48.19 292.56,-38.95 294.45,-30.6"/>
<polygon fill="#63b8ff" stroke="#63b8ff" points="297.85,-31.44 296.64,-20.92 291.02,-29.9 297.85,-31.44"/>
</g>
<!-- Node20 -->
<g id="node20" class="node">
<title>Node20</title>
<g id="a_node20"><a xlink:title=" ">
<polygon fill="#e0e0e0" stroke="#999999" points="379,-19 335,-19 335,0 379,0 379,-19"/>
<text text-anchor="middle" x="357" y="-7" font-family="Helvetica,sans-Serif" font-size="10.00">mutex</text>
</a>
</g>
</g>
<!-- Node16&#45;&gt;Node20 -->
<g id="edge23" class="edge">
<title>Node16&#45;&gt;Node20</title>
<path fill="none" stroke="#63b8ff" d="M298.87,-54.51C309.09,-46.77 324.07,-35.43 336.26,-26.2"/>
<polygon fill="#63b8ff" stroke="#63b8ff" points="338.23,-29.1 344.09,-20.27 334.01,-23.52 338.23,-29.1"/>
</g>
<!-- Node23&#45;&gt;Node2 -->
<g id="edge33" class="edge">
<title>Node23&#45;&gt;Node2</title>
<path fill="none" stroke="#63b8ff" d="M130.36,-115.06C138.36,-113.13 146.95,-111.28 155,-110 352.05,-78.71 589.14,-69.33 696.36,-66.59"/>
<polygon fill="#63b8ff" stroke="#63b8ff" points="696.43,-70.09 706.34,-66.35 696.26,-63.09 696.43,-70.09"/>
</g>
<!-- Node23&#45;&gt;Node6 -->
<g id="edge32" class="edge">
<title>Node23&#45;&gt;Node6</title>
<path fill="none" stroke="#63b8ff" d="M133.52,-115.04C140.62,-113.32 148.04,-111.56 155,-110 233.33,-92.42 257.61,-104.18 332,-74 361.65,-61.97 392.09,-40.88 411.25,-26.32"/>
<polygon fill="#63b8ff" stroke="#63b8ff" points="413.23,-29.22 418.98,-20.32 408.93,-23.69 413.23,-29.22"/>
</g>
<!-- Node24 -->
<g id="node24" class="node">
<title>Node24</title>
<g id="a_node24"><a xlink:title=" ">
<polygon fill="#e0e0e0" stroke="#999999" points="99.5,-74 50.5,-74 50.5,-55 99.5,-55 99.5,-74"/>
<text text-anchor="middle" x="75" y="-62" font-family="Helvetica,sans-Serif" font-size="10.00">stdint.h</text>
</a>
</g>
</g>
<!-- Node23&#45;&gt;Node24 -->
<g id="edge29" class="edge">
<title>Node23&#45;&gt;Node24</title>
<path fill="none" stroke="#63b8ff" d="M94.61,-115.37C91.45,-107.33 86.63,-95.07 82.56,-84.72"/>
<polygon fill="#63b8ff" stroke="#63b8ff" points="85.88,-83.6 78.96,-75.58 79.36,-86.16 85.88,-83.6"/>
</g>
<!-- Node25 -->
<g id="node25" class="node">
<title>Node25</title>
<g id="a_node25"><a xlink:title=" ">
<polygon fill="#e0e0e0" stroke="#999999" points="162.5,-74 117.5,-74 117.5,-55 162.5,-55 162.5,-74"/>
<text text-anchor="middle" x="140" y="-62" font-family="Helvetica,sans-Serif" font-size="10.00">cstdlib</text>
</a>
</g>
</g>
<!-- Node23&#45;&gt;Node25 -->
<g id="edge30" class="edge">
<title>Node23&#45;&gt;Node25</title>
<path fill="none" stroke="#63b8ff" d="M104.2,-115.37C110.21,-106.99 119.53,-94.01 127.15,-83.39"/>
<polygon fill="#63b8ff" stroke="#63b8ff" points="129.91,-85.56 132.89,-75.4 124.22,-81.48 129.91,-85.56"/>
</g>
<!-- Node26 -->
<g id="node26" class="node">
<title>Node26</title>
<g id="a_node26"><a xlink:title=" ">
<polygon fill="#e0e0e0" stroke="#999999" points="233,-74 181,-74 181,-55 233,-55 233,-74"/>
<text text-anchor="middle" x="207" y="-62" font-family="Helvetica,sans-Serif" font-size="10.00">sstream</text>
</a>
</g>
</g>
<!-- Node23&#45;&gt;Node26 -->
<g id="edge31" class="edge">
<title>Node23&#45;&gt;Node26</title>
<path fill="none" stroke="#63b8ff" d="M114.55,-115.12C132,-105.75 159.75,-90.86 180.29,-79.83"/>
<polygon fill="#63b8ff" stroke="#63b8ff" points="181.8,-83 188.96,-75.18 178.49,-76.83 181.8,-83"/>
</g>
</g>
</svg>
        <g id="navigator" transform="translate(0 0)" fill="#404254">
                <rect fill="#f2f5e9" fill-opacity="0.5" stroke="#606060" stroke-width=".5" x="0" y="0" width="60" height="60"/>
                <use id="zoomplus" xlink:href="#zoomPlus" x="17" y="9" onmousedown="handleZoom(evt,'in')"/>
                <use id="zoomminus" xlink:href="#zoomMin" x="42" y="9" onmousedown="handleZoom(evt,'out')"/>
                <use id="reset" xlink:href="#resetDef" x="30" y="36" onmousedown="handleReset()"/>
                <g id="arrowUp" xlink:href="#dirArrow" transform="translate(30 24)" onmousedown="handlePan(0,-1)">
                  <use xlink:href="#rim" fill="#404040">
                        <set attributeName="fill" to="#808080" begin="arrowUp.mouseover" end="arrowUp.mouseout"/>
                  </use>
                  <path fill="none" stroke="white" stroke-width="1.5" d="M0,-3.0v7 M-2.5,-0.5L0,-3.0L2.5,-0.5"/>
                </g>
                <g id="arrowRight" xlink:href="#dirArrow" transform="rotate(90) translate(36 -43)" onmousedown="handlePan(1,0)">
                  <use xlink:href="#rim" fill="#404040">
                        <set attributeName="fill" to="#808080" begin="arrowRight.mouseover" end="arrowRight.mouseout"/>
                  </use>
                  <path fill="none" stroke="white" stroke-width="1.5" d="M0,-3.0v7 M-2.5,-0.5L0,-3.0L2.5,-0.5"/>
                </g>
                <g id="arrowDown" xlink:href="#dirArrow" transform="rotate(180) translate(-30 -48)" onmousedown="handlePan(0,1)">
                  <use xlink:href="#rim" fill="#404040">
                        <set attributeName="fill" to="#808080" begin="arrowDown.mouseover" end="arrowDown.mouseout"/>
                  </use>
                  <path fill="none" stroke="white" stroke-width="1.5" d="M0,-3.0v7 M-2.5,-0.5L0,-3.0L2.5,-0.5"/>
                </g>
                <g id="arrowLeft" xlink:href="#dirArrow" transform="rotate(270) translate(-36 17)" onmousedown="handlePan(-1,0)">
                  <use xlink:href="#rim" fill="#404040">
                        <set attributeName="fill" to="#808080" begin="arrowLeft.mouseover" end="arrowLeft.mouseout"/>
                  </use>
                  <path fill="none" stroke="white" stroke-width="1.5" d="M0,-3.0v7 M-2.5,-0.5L0,-3.0L2.5,-0.5"/>
                </g>
        </g>
        <svg viewBox="0 0 15 15" width="100%" height="30px" preserveAspectRatio="xMaxYMin meet">
         <g id="arrow_out" transform="scale(0.3 0.3)">
          <a xlink:href="vparquet__file__metadata_8h__incl_org.svg" target="_base">
           <rect id="button" ry="5" rx="5" y="6" x="6" height="38" width="38"
                fill="#f2f5e9" fill-opacity="0.5" stroke="#606060" stroke-width="1.0"/>
           <path id="arrow"
             d="M 11.500037,31.436501 C 11.940474,20.09759 22.043105,11.32322 32.158766,21.979434 L 37.068811,17.246167 C 37.068811,17.246167 37.088388,32 37.088388,32 L 22.160133,31.978069 C 22.160133,31.978069 26.997745,27.140456 26.997745,27.140456 C 18.528582,18.264221 13.291696,25.230495 11.500037,31.436501 z"
             style="fill:#404040;"/>
          </a>
         </g>
        </svg>
</svg>
