<?xml version="1.0" encoding="UTF-8" standalone="no"?>
<!DOCTYPE svg PUBLIC "-//W3C//DTD SVG 1.1//EN"
 "http://www.w3.org/Graphics/SVG/1.1/DTD/svg11.dtd">
<!-- Generated by graphviz version 7.1.0 (20230121.1956)
 -->
<!-- Title: get_samp_result Pages: 1 -->
<!--zoomable 199 -->
<svg id="main" version="1.1" xmlns="http://www.w3.org/2000/svg" xmlns:xlink="http://www.w3.org/1999/xlink" xml:space="preserve" onload="init(evt)">
<style type="text/css"><![CDATA[
.edge:hover path { stroke: red; }
.edge:hover polygon { stroke: red; fill: red; }
]]></style>
<script type="text/javascript"><![CDATA[
var edges = document.getElementsByTagName('g');
if (edges && edges.length) {
  for (var i=0;i<edges.length;i++) {
    if (edges[i].id.substr(0,4)=='edge') {
      edges[i].setAttribute('class','edge');
    }
  }
}
]]></script>
        <defs>
                <circle id="rim" cx="0" cy="0" r="7"/>
                <circle id="rim2" cx="0" cy="0" r="3.5"/>
                <g id="zoomPlus">
                        <use xlink:href="#rim" fill="#404040">
                                <set attributeName="fill" to="#808080" begin="zoomplus.mouseover" end="zoomplus.mouseout"/>
                        </use>
                        <path d="M-4,0h8M0,-4v8" fill="none" stroke="white" stroke-width="1.5" pointer-events="none"/>
                </g>
                <g id="zoomMin">
                        <use xlink:href="#rim" fill="#404040">
                                <set attributeName="fill" to="#808080" begin="zoomminus.mouseover" end="zoomminus.mouseout"/>
                        </use>
                        <path d="M-4,0h8" fill="none" stroke="white" stroke-width="1.5" pointer-events="none"/>
                </g>
                <g id="dirArrow">
                        <path fill="none" stroke="white" stroke-width="1.5" d="M0,-3.0v7 M-2.5,-0.5L0,-3.0L2.5,-0.5"/>
                </g>
               <g id="resetDef">
                       <use xlink:href="#rim2" fill="#404040">
                               <set attributeName="fill" to="#808080" begin="reset.mouseover" end="reset.mouseout"/>
                       </use>
               </g>
        </defs>

<script type="text/javascript">
var viewWidth = 875;
var viewHeight = 199;
var sectionId = 'dynsection-6';
</script>
<script xlink:href="../../svgpan.js"/>
<svg id="graph" class="graph">
<g id="viewport">
<title>get_samp_result</title>
<!-- Node1 -->
<g id="node1" class="node">
<title>Node1</title>
<g id="a_node1"><a xlink:title=" ">
<polygon fill="#999999" stroke="#666666" points="89,-125.5 0,-125.5 0,-106.5 89,-106.5 89,-125.5"/>
<text text-anchor="middle" x="44.5" y="-113.5" font-family="Helvetica,sans-Serif" font-size="10.00">get_samp_result</text>
</a>
</g>
</g>
<!-- Node2 -->
<g id="node2" class="node">
<title>Node2</title>
<g id="a_node2"><a xlink:href="../../d1/d52/classdoris_1_1_decimal_v2_value.html#a1ebf7faffc84b59037dff5c7d23dd097" target="_top" xlink:title=" ">
<polygon fill="white" stroke="#666666" points="241,-153 125,-153 125,-123 241,-123 241,-153"/>
<text text-anchor="start" x="133" y="-141" font-family="Helvetica,sans-Serif" font-size="10.00">doris::DecimalV2Value</text>
<text text-anchor="middle" x="183" y="-130" font-family="Helvetica,sans-Serif" font-size="10.00">::assign_from_double</text>
</a>
</g>
</g>
<!-- Node1&#45;&gt;Node2 -->
<g id="edge1" class="edge">
<title>Node1&#45;&gt;Node2</title>
<path fill="none" stroke="#63b8ff" d="M89.44,-123.08C97.16,-124.33 105.35,-125.65 113.55,-126.97"/>
<polygon fill="#63b8ff" stroke="#63b8ff" points="112.76,-130.38 123.19,-128.52 113.87,-123.47 112.76,-130.38"/>
</g>
<!-- Node3 -->
<g id="node3" class="node">
<title>Node3</title>
<g id="a_node3"><a xlink:href="../../d6/d66/structdoris_1_1vectorized_1_1_base_datadecimal.html#af44cdd8c0dd1731b39b37edbbfb26b57" target="_top" xlink:title=" ">
<polygon fill="white" stroke="#666666" points="212.5,-104.5 153.5,-104.5 153.5,-85.5 212.5,-85.5 212.5,-104.5"/>
<text text-anchor="middle" x="183" y="-92.5" font-family="Helvetica,sans-Serif" font-size="10.00">get_result</text>
</a>
</g>
</g>
<!-- Node1&#45;&gt;Node3 -->
<g id="edge2" class="edge">
<title>Node1&#45;&gt;Node3</title>
<path fill="none" stroke="#63b8ff" d="M89.44,-109.24C106.41,-106.63 125.69,-103.66 142.24,-101.12"/>
<polygon fill="#63b8ff" stroke="#63b8ff" points="142.36,-104.64 151.71,-99.66 141.29,-97.72 142.36,-104.64"/>
</g>
<!-- Node4 -->
<g id="node4" class="node">
<title>Node4</title>
<g id="a_node4"><a xlink:href="../../d1/d52/classdoris_1_1_decimal_v2_value.html#a3f9f7969e197f0f94154395feca4e30e" target="_top" xlink:title=" ">
<polygon fill="white" stroke="#666666" points="393,-110 277,-110 277,-80 393,-80 393,-110"/>
<text text-anchor="start" x="285" y="-98" font-family="Helvetica,sans-Serif" font-size="10.00">doris::DecimalV2Value</text>
<text text-anchor="middle" x="335" y="-87" font-family="Helvetica,sans-Serif" font-size="10.00">::sqrt</text>
</a>
</g>
</g>
<!-- Node3&#45;&gt;Node4 -->
<g id="edge3" class="edge">
<title>Node3&#45;&gt;Node4</title>
<path fill="none" stroke="#63b8ff" d="M212.92,-95C227.87,-95 246.8,-95 265.23,-95"/>
<polygon fill="#63b8ff" stroke="#63b8ff" points="265.08,-98.5 275.08,-95 265.08,-91.5 265.08,-98.5"/>
</g>
<!-- Node5 -->
<g id="node5" class="node">
<title>Node5</title>
<g id="a_node5"><a xlink:href="../../d6/d94/namespacedoris.html#a3e185a7a7ef1c3bff626a322b64986fb" target="_top" xlink:title=" ">
<polygon fill="white" stroke="#666666" points="516.5,-190.5 457.5,-190.5 457.5,-171.5 516.5,-171.5 516.5,-190.5"/>
<text text-anchor="middle" x="487" y="-178.5" font-family="Helvetica,sans-Serif" font-size="10.00">doris::abs</text>
</a>
</g>
</g>
<!-- Node4&#45;&gt;Node5 -->
<g id="edge4" class="edge">
<title>Node4&#45;&gt;Node5</title>
<path fill="none" stroke="#63b8ff" d="M353.81,-110.36C371.78,-125.23 400.83,-147.59 429,-162 434.51,-164.82 440.54,-167.36 446.53,-169.59"/>
<polygon fill="#63b8ff" stroke="#63b8ff" points="445.16,-172.82 455.76,-172.77 447.45,-166.2 445.16,-172.82"/>
</g>
<!-- Node6 -->
<g id="node6" class="node">
<title>Node6</title>
<g id="a_node6"><a xlink:href="../../d1/d52/classdoris_1_1_decimal_v2_value.html#acd8ceb60955ae60d52c4958159b9e3b3" target="_top" xlink:title=" ">
<polygon fill="white" stroke="#666666" points="545,-153 429,-153 429,-123 545,-123 545,-153"/>
<text text-anchor="start" x="437" y="-141" font-family="Helvetica,sans-Serif" font-size="10.00">doris::DecimalV2Value</text>
<text text-anchor="middle" x="487" y="-130" font-family="Helvetica,sans-Serif" font-size="10.00">::DecimalV2Value</text>
</a>
</g>
</g>
<!-- Node4&#45;&gt;Node6 -->
<g id="edge5" class="edge">
<title>Node4&#45;&gt;Node6</title>
<path fill="none" stroke="#63b8ff" d="M389.73,-110.4C399.96,-113.34 410.77,-116.43 421.3,-119.45"/>
<polygon fill="#63b8ff" stroke="#63b8ff" points="420.11,-122.75 430.69,-122.14 422.04,-116.02 420.11,-122.75"/>
</g>
<!-- Node7 -->
<g id="node7" class="node">
<title>Node7</title>
<g id="a_node7"><a xlink:href="../../d6/d94/namespacedoris.html#ab3a02c9a14d1bd2da682b807d0305b08" target="_top" xlink:title=" ">
<polygon fill="white" stroke="#666666" points="539.5,-104.5 434.5,-104.5 434.5,-85.5 539.5,-85.5 539.5,-104.5"/>
<text text-anchor="middle" x="487" y="-92.5" font-family="Helvetica,sans-Serif" font-size="10.00">doris::sqrt_fractional</text>
</a>
</g>
</g>
<!-- Node4&#45;&gt;Node7 -->
<g id="edge6" class="edge">
<title>Node4&#45;&gt;Node7</title>
<path fill="none" stroke="#63b8ff" d="M393.14,-95C402.9,-95 413.08,-95 422.98,-95"/>
<polygon fill="#63b8ff" stroke="#63b8ff" points="422.92,-98.5 432.92,-95 422.92,-91.5 422.92,-98.5"/>
</g>
<!-- Node11 -->
<g id="node11" class="node">
<title>Node11</title>
<g id="a_node11"><a xlink:href="../../d6/d94/namespacedoris.html#a8f48940c44c6bb3b84b6bf3d25d90e7a" target="_top" xlink:title=" ">
<polygon fill="white" stroke="#666666" points="534.5,-67.5 439.5,-67.5 439.5,-48.5 534.5,-48.5 534.5,-67.5"/>
<text text-anchor="middle" x="487" y="-55.5" font-family="Helvetica,sans-Serif" font-size="10.00">doris::sqrt_integer</text>
</a>
</g>
</g>
<!-- Node4&#45;&gt;Node11 -->
<g id="edge10" class="edge">
<title>Node4&#45;&gt;Node11</title>
<path fill="none" stroke="#63b8ff" d="M393.14,-80.91C406.85,-77.52 421.41,-73.93 434.83,-70.62"/>
<polygon fill="#63b8ff" stroke="#63b8ff" points="435.45,-74.07 444.32,-68.28 433.78,-67.28 435.45,-74.07"/>
</g>
<!-- Node12 -->
<g id="node12" class="node">
<title>Node12</title>
<g id="a_node12"><a xlink:href="../../d1/d52/classdoris_1_1_decimal_v2_value.html#a81748e63071bc2b5ca9ea7869d25fb90" target="_top" xlink:title=" ">
<polygon fill="white" stroke="#666666" points="545,-30 429,-30 429,0 545,0 545,-30"/>
<text text-anchor="start" x="437" y="-18" font-family="Helvetica,sans-Serif" font-size="10.00">doris::DecimalV2Value</text>
<text text-anchor="middle" x="487" y="-7" font-family="Helvetica,sans-Serif" font-size="10.00">::value</text>
</a>
</g>
</g>
<!-- Node4&#45;&gt;Node12 -->
<g id="edge11" class="edge">
<title>Node4&#45;&gt;Node12</title>
<path fill="none" stroke="#63b8ff" d="M360.02,-79.71C378.54,-68.18 404.96,-52.32 429,-40 432.07,-38.42 435.27,-36.85 438.51,-35.31"/>
<polygon fill="#63b8ff" stroke="#63b8ff" points="439.92,-38.51 447.53,-31.13 436.98,-32.16 439.92,-38.51"/>
</g>
<!-- Node8 -->
<g id="node8" class="node">
<title>Node8</title>
<g id="a_node8"><a xlink:href="../../d6/d94/namespacedoris.html#a407a1a5a9551ba266332ddce3994b20c" target="_top" xlink:title=" ">
<polygon fill="white" stroke="#666666" points="706,-110 581,-110 581,-80 706,-80 706,-110"/>
<text text-anchor="start" x="589" y="-98" font-family="Helvetica,sans-Serif" font-size="10.00">doris::quadratic_equation</text>
<text text-anchor="middle" x="643.5" y="-87" font-family="Helvetica,sans-Serif" font-size="10.00">_better</text>
</a>
</g>
</g>
<!-- Node7&#45;&gt;Node8 -->
<g id="edge7" class="edge">
<title>Node7&#45;&gt;Node8</title>
<path fill="none" stroke="#63b8ff" d="M539.88,-95C549.26,-95 559.22,-95 569.08,-95"/>
<polygon fill="#63b8ff" stroke="#63b8ff" points="569.07,-98.5 579.07,-95 569.07,-91.5 569.07,-98.5"/>
</g>
<!-- Node9 -->
<g id="node9" class="node">
<title>Node9</title>
<g id="a_node9"><a xlink:href="../../d6/d94/namespacedoris.html#adce28f71a9fad223154cd57bf5917889" target="_top" xlink:title=" ">
<polygon fill="white" stroke="#666666" points="867,-132 742,-132 742,-102 867,-102 867,-132"/>
<text text-anchor="start" x="750" y="-120" font-family="Helvetica,sans-Serif" font-size="10.00">doris::quadratic_equation</text>
<text text-anchor="middle" x="804.5" y="-109" font-family="Helvetica,sans-Serif" font-size="10.00">_naive</text>
</a>
</g>
</g>
<!-- Node8&#45;&gt;Node9 -->
<g id="edge8" class="edge">
<title>Node8&#45;&gt;Node9</title>
<path fill="none" stroke="#63b8ff" d="M706.43,-103.57C714.31,-104.66 722.44,-105.78 730.47,-106.9"/>
<polygon fill="#63b8ff" stroke="#63b8ff" points="729.86,-110.34 740.24,-108.25 730.82,-103.41 729.86,-110.34"/>
</g>
<!-- Node10 -->
<g id="node10" class="node">
<title>Node10</title>
<g id="a_node10"><a xlink:href="../../d6/d94/namespacedoris.html#a00b3b3bc29260da526d0d67881db33fc" target="_top" xlink:title=" ">
<polygon fill="white" stroke="#666666" points="834,-83.5 775,-83.5 775,-64.5 834,-64.5 834,-83.5"/>
<text text-anchor="middle" x="804.5" y="-71.5" font-family="Helvetica,sans-Serif" font-size="10.00">doris::sgn</text>
</a>
</g>
</g>
<!-- Node8&#45;&gt;Node10 -->
<g id="edge9" class="edge">
<title>Node8&#45;&gt;Node10</title>
<path fill="none" stroke="#63b8ff" d="M706.43,-86.82C725.56,-84.29 746.11,-81.58 763.36,-79.3"/>
<polygon fill="#63b8ff" stroke="#63b8ff" points="763.76,-82.78 773.22,-78 762.85,-75.84 763.76,-82.78"/>
</g>
</g>
</svg>
        <g id="navigator" transform="translate(0 0)" fill="#404254">
                <rect fill="#f2f5e9" fill-opacity="0.5" stroke="#606060" stroke-width=".5" x="0" y="0" width="60" height="60"/>
                <use id="zoomplus" xlink:href="#zoomPlus" x="17" y="9" onmousedown="handleZoom(evt,'in')"/>
                <use id="zoomminus" xlink:href="#zoomMin" x="42" y="9" onmousedown="handleZoom(evt,'out')"/>
                <use id="reset" xlink:href="#resetDef" x="30" y="36" onmousedown="handleReset()"/>
                <g id="arrowUp" xlink:href="#dirArrow" transform="translate(30 24)" onmousedown="handlePan(0,-1)">
                  <use xlink:href="#rim" fill="#404040">
                        <set attributeName="fill" to="#808080" begin="arrowUp.mouseover" end="arrowUp.mouseout"/>
                  </use>
                  <path fill="none" stroke="white" stroke-width="1.5" d="M0,-3.0v7 M-2.5,-0.5L0,-3.0L2.5,-0.5"/>
                </g>
                <g id="arrowRight" xlink:href="#dirArrow" transform="rotate(90) translate(36 -43)" onmousedown="handlePan(1,0)">
                  <use xlink:href="#rim" fill="#404040">
                        <set attributeName="fill" to="#808080" begin="arrowRight.mouseover" end="arrowRight.mouseout"/>
                  </use>
                  <path fill="none" stroke="white" stroke-width="1.5" d="M0,-3.0v7 M-2.5,-0.5L0,-3.0L2.5,-0.5"/>
                </g>
                <g id="arrowDown" xlink:href="#dirArrow" transform="rotate(180) translate(-30 -48)" onmousedown="handlePan(0,1)">
                  <use xlink:href="#rim" fill="#404040">
                        <set attributeName="fill" to="#808080" begin="arrowDown.mouseover" end="arrowDown.mouseout"/>
                  </use>
                  <path fill="none" stroke="white" stroke-width="1.5" d="M0,-3.0v7 M-2.5,-0.5L0,-3.0L2.5,-0.5"/>
                </g>
                <g id="arrowLeft" xlink:href="#dirArrow" transform="rotate(270) translate(-36 17)" onmousedown="handlePan(-1,0)">
                  <use xlink:href="#rim" fill="#404040">
                        <set attributeName="fill" to="#808080" begin="arrowLeft.mouseover" end="arrowLeft.mouseout"/>
                  </use>
                  <path fill="none" stroke="white" stroke-width="1.5" d="M0,-3.0v7 M-2.5,-0.5L0,-3.0L2.5,-0.5"/>
                </g>
        </g>
        <svg viewBox="0 0 15 15" width="100%" height="30px" preserveAspectRatio="xMaxYMin meet">
         <g id="arrow_out" transform="scale(0.3 0.3)">
          <a xlink:href="structdoris_1_1vectorized_1_1_base_datadecimal_a6eb1070a5600b2320ed5b3f4b8426eb9_cgraph_org.svg" target="_base">
           <rect id="button" ry="5" rx="5" y="6" x="6" height="38" width="38"
                fill="#f2f5e9" fill-opacity="0.5" stroke="#606060" stroke-width="1.0"/>
           <path id="arrow"
             d="M 11.500037,31.436501 C 11.940474,20.09759 22.043105,11.32322 32.158766,21.979434 L 37.068811,17.246167 C 37.068811,17.246167 37.088388,32 37.088388,32 L 22.160133,31.978069 C 22.160133,31.978069 26.997745,27.140456 26.997745,27.140456 C 18.528582,18.264221 13.291696,25.230495 11.500037,31.436501 z"
             style="fill:#404040;"/>
          </a>
         </g>
        </svg>
</svg>
