<?xml version="1.0" encoding="UTF-8" standalone="no"?>
<!DOCTYPE svg PUBLIC "-//W3C//DTD SVG 1.1//EN"
 "http://www.w3.org/Graphics/SVG/1.1/DTD/svg11.dtd">
<!-- Generated by graphviz version 7.1.0 (20230121.1956)
 -->
<!-- Title: /Users/dabowang/be_all/vec/exprs/vcase_expr.h Pages: 1 -->
<svg width="256pt" height="126pt"
 viewBox="0.00 0.00 255.50 126.00" xmlns="http://www.w3.org/2000/svg" xmlns:xlink="http://www.w3.org/1999/xlink">
<g id="graph0" class="graph" transform="scale(1 1) rotate(0) translate(4 122)">
<title>/Users/dabowang/be_all/vec/exprs/vcase_expr.h</title>
<!-- Node1 -->
<g id="node1" class="node">
<title>Node1</title>
<g id="a_node1"><a xlink:title=" ">
<polygon fill="#999999" stroke="#666666" points="173,-118 66,-118 66,-77 173,-77 173,-118"/>
<text text-anchor="start" x="74" y="-106" font-family="Helvetica,sans-Serif" font-size="10.00">/Users/dabowang/be</text>
<text text-anchor="start" x="74" y="-95" font-family="Helvetica,sans-Serif" font-size="10.00">_all/vec/exprs/vcase</text>
<text text-anchor="middle" x="119.5" y="-84" font-family="Helvetica,sans-Serif" font-size="10.00">_expr.h</text>
</a>
</g>
</g>
<!-- Node2 -->
<g id="node2" class="node">
<title>Node2</title>
<g id="a_node2"><a xlink:href="../../db/dd9/vcase__expr_8cpp.html" target="_top" xlink:title=" ">
<polygon fill="white" stroke="#666666" points="107,-41 0,-41 0,0 107,0 107,-41"/>
<text text-anchor="start" x="8" y="-29" font-family="Helvetica,sans-Serif" font-size="10.00">/Users/dabowang/be</text>
<text text-anchor="start" x="8" y="-18" font-family="Helvetica,sans-Serif" font-size="10.00">_all/vec/exprs/vcase</text>
<text text-anchor="middle" x="53.5" y="-7" font-family="Helvetica,sans-Serif" font-size="10.00">_expr.cpp</text>
</a>
</g>
</g>
<!-- Node1&#45;&gt;Node2 -->
<g id="edge1" class="edge">
<title>Node1&#45;&gt;Node2</title>
<path fill="none" stroke="#63b8ff" d="M94.58,-68.18C86.71,-59.24 78.19,-49.55 70.95,-41.33"/>
<polygon fill="#63b8ff" stroke="#63b8ff" points="91.93,-70.46 101.16,-75.66 97.18,-65.84 91.93,-70.46"/>
</g>
<!-- Node3 -->
<g id="node3" class="node">
<title>Node3</title>
<g id="a_node3"><a xlink:href="../../d2/d44/vexpr_8cpp.html" target="_top" xlink:title=" ">
<polygon fill="white" stroke="#666666" points="247.5,-35.5 125.5,-35.5 125.5,-5.5 247.5,-5.5 247.5,-35.5"/>
<text text-anchor="start" x="133.5" y="-23.5" font-family="Helvetica,sans-Serif" font-size="10.00">/Users/dabowang/be</text>
<text text-anchor="middle" x="186.5" y="-12.5" font-family="Helvetica,sans-Serif" font-size="10.00">_all/vec/exprs/vexpr.cpp</text>
</a>
</g>
</g>
<!-- Node1&#45;&gt;Node3 -->
<g id="edge2" class="edge">
<title>Node1&#45;&gt;Node3</title>
<path fill="none" stroke="#63b8ff" d="M144.73,-68.26C154.6,-57.21 165.48,-45.02 173.67,-35.86"/>
<polygon fill="#63b8ff" stroke="#63b8ff" points="142.16,-65.88 138.11,-75.67 147.38,-70.54 142.16,-65.88"/>
</g>
</g>
</svg>
