<?xml version="1.0" encoding="UTF-8" standalone="no"?>
<!DOCTYPE svg PUBLIC "-//W3C//DTD SVG 1.1//EN"
 "http://www.w3.org/Graphics/SVG/1.1/DTD/svg11.dtd">
<!-- Generated by graphviz version 7.1.0 (20230121.1956)
 -->
<!-- Title: Append2 Pages: 1 -->
<svg width="314pt" height="101pt"
 viewBox="0.00 0.00 314.00 101.00" xmlns="http://www.w3.org/2000/svg" xmlns:xlink="http://www.w3.org/1999/xlink">
<g id="graph0" class="graph" transform="scale(1 1) rotate(0) translate(4 97)">
<title>Append2</title>
<!-- Node1 -->
<g id="node1" class="node">
<title>Node1</title>
<g id="a_node1"><a xlink:title=" ">
<polygon fill="#999999" stroke="#666666" points="55,-56 0,-56 0,-37 55,-37 55,-56"/>
<text text-anchor="middle" x="27.5" y="-44" font-family="Helvetica,sans-Serif" font-size="10.00">Append2</text>
</a>
</g>
</g>
<!-- Node2 -->
<g id="node2" class="node">
<title>Node2</title>
<g id="a_node2"><a xlink:href="../../df/da5/struct_alpha_num.html#aa3affb1becdd976aba1036a161a3134d" target="_top" xlink:title=" ">
<polygon fill="white" stroke="#666666" points="178,-93 91,-93 91,-74 178,-74 178,-93"/>
<text text-anchor="middle" x="134.5" y="-81" font-family="Helvetica,sans-Serif" font-size="10.00">AlphaNum::data</text>
</a>
</g>
</g>
<!-- Node1&#45;&gt;Node2 -->
<g id="edge1" class="edge">
<title>Node1&#45;&gt;Node2</title>
<path fill="none" stroke="#63b8ff" d="M55.27,-55.93C67.23,-60.15 81.56,-65.2 94.67,-69.82"/>
<polygon fill="#63b8ff" stroke="#63b8ff" points="93.29,-73.04 103.88,-73.06 95.62,-66.44 93.29,-73.04"/>
</g>
<!-- Node4 -->
<g id="node4" class="node">
<title>Node4</title>
<g id="a_node4"><a xlink:href="../../d9/d1e/memcpy__aarch64_8cpp.html#a156c5821f16ed93be8c7d315303f7b2a" target="_top" xlink:title=" ">
<polygon fill="white" stroke="#666666" points="161.5,-56 107.5,-56 107.5,-37 161.5,-37 161.5,-56"/>
<text text-anchor="middle" x="134.5" y="-44" font-family="Helvetica,sans-Serif" font-size="10.00">memcpy</text>
</a>
</g>
</g>
<!-- Node1&#45;&gt;Node4 -->
<g id="edge3" class="edge">
<title>Node1&#45;&gt;Node4</title>
<path fill="none" stroke="#63b8ff" d="M55.27,-46.5C67.58,-46.5 82.4,-46.5 95.82,-46.5"/>
<polygon fill="#63b8ff" stroke="#63b8ff" points="95.63,-50 105.63,-46.5 95.63,-43 95.63,-50"/>
</g>
<!-- Node6 -->
<g id="node6" class="node">
<title>Node6</title>
<g id="a_node6"><a xlink:href="../../df/da5/struct_alpha_num.html#a42c66144e85bbbb002aa5c2048f68f7b" target="_top" xlink:title=" ">
<polygon fill="white" stroke="#666666" points="177.5,-19 91.5,-19 91.5,0 177.5,0 177.5,-19"/>
<text text-anchor="middle" x="134.5" y="-7" font-family="Helvetica,sans-Serif" font-size="10.00">AlphaNum::size</text>
</a>
</g>
</g>
<!-- Node1&#45;&gt;Node6 -->
<g id="edge5" class="edge">
<title>Node1&#45;&gt;Node6</title>
<path fill="none" stroke="#63b8ff" d="M55.27,-37.07C67.23,-32.85 81.56,-27.8 94.67,-23.18"/>
<polygon fill="#63b8ff" stroke="#63b8ff" points="95.62,-26.56 103.88,-19.94 93.29,-19.96 95.62,-26.56"/>
</g>
<!-- Node3 -->
<g id="node3" class="node">
<title>Node3</title>
<g id="a_node3"><a xlink:href="../../d4/d96/class_string_piece.html#aa3affb1becdd976aba1036a161a3134d" target="_top" xlink:title=" ">
<polygon fill="white" stroke="#666666" points="306,-93 214,-93 214,-74 306,-74 306,-93"/>
<text text-anchor="middle" x="260" y="-81" font-family="Helvetica,sans-Serif" font-size="10.00">StringPiece::data</text>
</a>
</g>
</g>
<!-- Node2&#45;&gt;Node3 -->
<g id="edge2" class="edge">
<title>Node2&#45;&gt;Node3</title>
<path fill="none" stroke="#63b8ff" d="M178.35,-83.5C186.11,-83.5 194.32,-83.5 202.41,-83.5"/>
<polygon fill="#63b8ff" stroke="#63b8ff" points="202.19,-87 212.19,-83.5 202.19,-80 202.19,-87"/>
</g>
<!-- Node5 -->
<g id="node5" class="node">
<title>Node5</title>
<g id="a_node5"><a xlink:href="../../d9/d1e/memcpy__aarch64_8cpp.html#a11ebdd343428c466f2f35c376d7db6d0" target="_top" xlink:title=" ">
<polygon fill="white" stroke="#666666" points="301,-56 219,-56 219,-37 301,-37 301,-56"/>
<text text-anchor="middle" x="260" y="-44" font-family="Helvetica,sans-Serif" font-size="10.00">inline_memcpy</text>
</a>
</g>
</g>
<!-- Node4&#45;&gt;Node5 -->
<g id="edge4" class="edge">
<title>Node4&#45;&gt;Node5</title>
<path fill="none" stroke="#63b8ff" d="M161.99,-46.5C175.34,-46.5 191.99,-46.5 207.71,-46.5"/>
<polygon fill="#63b8ff" stroke="#63b8ff" points="207.41,-50 217.41,-46.5 207.41,-43 207.41,-50"/>
</g>
<!-- Node7 -->
<g id="node7" class="node">
<title>Node7</title>
<g id="a_node7"><a xlink:href="../../d4/d96/class_string_piece.html#af9593d4a5ff4274efaf429cb4f9e57cc" target="_top" xlink:title=" ">
<polygon fill="white" stroke="#666666" points="305.5,-19 214.5,-19 214.5,0 305.5,0 305.5,-19"/>
<text text-anchor="middle" x="260" y="-7" font-family="Helvetica,sans-Serif" font-size="10.00">StringPiece::size</text>
</a>
</g>
</g>
<!-- Node6&#45;&gt;Node7 -->
<g id="edge6" class="edge">
<title>Node6&#45;&gt;Node7</title>
<path fill="none" stroke="#63b8ff" d="M177.66,-9.5C185.73,-9.5 194.3,-9.5 202.73,-9.5"/>
<polygon fill="#63b8ff" stroke="#63b8ff" points="202.57,-13 212.57,-9.5 202.57,-6 202.57,-13"/>
</g>
</g>
</svg>
