<?xml version="1.0" encoding="UTF-8" standalone="no"?>
<!DOCTYPE svg PUBLIC "-//W3C//DTD SVG 1.1//EN"
 "http://www.w3.org/Graphics/SVG/1.1/DTD/svg11.dtd">
<!-- Generated by graphviz version 7.1.0 (20230121.1956)
 -->
<!-- Title: DataTypeNumberBase&lt; T &gt; Pages: 1 -->
<!--zoomable 220 -->
<svg id="main" version="1.1" xmlns="http://www.w3.org/2000/svg" xmlns:xlink="http://www.w3.org/1999/xlink" xml:space="preserve" onload="init(evt)">
<style type="text/css"><![CDATA[
.edge:hover path { stroke: red; }
.edge:hover polygon { stroke: red; fill: red; }
]]></style>
<script type="text/javascript"><![CDATA[
var edges = document.getElementsByTagName('g');
if (edges && edges.length) {
  for (var i=0;i<edges.length;i++) {
    if (edges[i].id.substr(0,4)=='edge') {
      edges[i].setAttribute('class','edge');
    }
  }
}
]]></script>
        <defs>
                <circle id="rim" cx="0" cy="0" r="7"/>
                <circle id="rim2" cx="0" cy="0" r="3.5"/>
                <g id="zoomPlus">
                        <use xlink:href="#rim" fill="#404040">
                                <set attributeName="fill" to="#808080" begin="zoomplus.mouseover" end="zoomplus.mouseout"/>
                        </use>
                        <path d="M-4,0h8M0,-4v8" fill="none" stroke="white" stroke-width="1.5" pointer-events="none"/>
                </g>
                <g id="zoomMin">
                        <use xlink:href="#rim" fill="#404040">
                                <set attributeName="fill" to="#808080" begin="zoomminus.mouseover" end="zoomminus.mouseout"/>
                        </use>
                        <path d="M-4,0h8" fill="none" stroke="white" stroke-width="1.5" pointer-events="none"/>
                </g>
                <g id="dirArrow">
                        <path fill="none" stroke="white" stroke-width="1.5" d="M0,-3.0v7 M-2.5,-0.5L0,-3.0L2.5,-0.5"/>
                </g>
               <g id="resetDef">
                       <use xlink:href="#rim2" fill="#404040">
                               <set attributeName="fill" to="#808080" begin="reset.mouseover" end="reset.mouseout"/>
                       </use>
               </g>
        </defs>

<script type="text/javascript">
var viewWidth = 712;
var viewHeight = 220;
var sectionId = 'dynsection-0';
</script>
<script xlink:href="../../svgpan.js"/>
<svg id="graph" class="graph">
<g id="viewport">
<title>DataTypeNumberBase&lt; T &gt;</title>
<!-- Node1 -->
<g id="node1" class="node">
<title>Node1</title>
<g id="a_node1"><a xlink:title=" ">
<polygon fill="#999999" stroke="#666666" points="347,-120.5 207,-120.5 207,-101.5 347,-101.5 347,-120.5"/>
<text text-anchor="middle" x="277" y="-108.5" font-family="Helvetica,sans-Serif" font-size="10.00">DataTypeNumberBase&lt; T &gt;</text>
</a>
</g>
</g>
<!-- Node4 -->
<g id="node4" class="node">
<title>Node4</title>
<g id="a_node4"><a xlink:href="../../dc/db2/classdoris_1_1vectorized_1_1_data_type_number.html" target="_top" xlink:title=" ">
<polygon fill="white" stroke="#666666" points="554,-211.5 437,-211.5 437,-192.5 554,-192.5 554,-211.5"/>
<text text-anchor="middle" x="495.5" y="-199.5" font-family="Helvetica,sans-Serif" font-size="10.00">DataTypeNumber&lt; T &gt;</text>
</a>
</g>
</g>
<!-- Node1&#45;&gt;Node4 -->
<g id="edge3" class="edge">
<title>Node1&#45;&gt;Node4</title>
<path fill="none" stroke="#63b8ff" d="M304.75,-126.39C321.72,-135.84 344.3,-147.84 365,-157 396.11,-170.76 404.84,-171.88 437,-183 445.74,-186.02 455.27,-189.21 464.01,-192.1"/>
<polygon fill="#63b8ff" stroke="#63b8ff" points="306.73,-123.49 296.3,-121.63 303.29,-129.59 306.73,-123.49"/>
</g>
<!-- Node5 -->
<g id="node5" class="node">
<title>Node5</title>
<g id="a_node5"><a xlink:href="../../d1/dcb/classdoris_1_1vectorized_1_1_data_type_number_base.html" target="_top" xlink:title=" ">
<polygon fill="white" stroke="#666666" points="553.5,-174 437.5,-174 437.5,-144 553.5,-144 553.5,-174"/>
<text text-anchor="start" x="445.5" y="-162" font-family="Helvetica,sans-Serif" font-size="10.00">DataTypeNumberBase</text>
<text text-anchor="middle" x="495.5" y="-151" font-family="Helvetica,sans-Serif" font-size="10.00">&lt; Int64 &gt;</text>
</a>
</g>
</g>
<!-- Node1&#45;&gt;Node5 -->
<g id="edge4" class="edge">
<title>Node1&#45;&gt;Node5</title>
<path fill="none" stroke="orange" stroke-dasharray="5,2" d="M333.75,-123.36C365.54,-130.41 405.3,-139.22 437.33,-146.32"/>
<polygon fill="orange" stroke="orange" points="334.86,-120.02 324.34,-121.27 333.34,-126.85 334.86,-120.02"/>
<text text-anchor="middle" x="392" y="-145" font-family="Helvetica,sans-Serif" font-size="10.00"> &lt; Int64 &gt;</text>
</g>
<!-- Node8 -->
<g id="node8" class="node">
<title>Node8</title>
<g id="a_node8"><a xlink:href="../../d1/dcb/classdoris_1_1vectorized_1_1_data_type_number_base.html" target="_top" xlink:title=" ">
<polygon fill="white" stroke="#666666" points="553.5,-126 437.5,-126 437.5,-96 553.5,-96 553.5,-126"/>
<text text-anchor="start" x="445.5" y="-114" font-family="Helvetica,sans-Serif" font-size="10.00">DataTypeNumberBase</text>
<text text-anchor="middle" x="495.5" y="-103" font-family="Helvetica,sans-Serif" font-size="10.00">&lt; UInt64 &gt;</text>
</a>
</g>
</g>
<!-- Node1&#45;&gt;Node8 -->
<g id="edge7" class="edge">
<title>Node1&#45;&gt;Node8</title>
<path fill="none" stroke="orange" stroke-dasharray="5,2" d="M358.78,-111C384.81,-111 413.1,-111 437.09,-111"/>
<polygon fill="orange" stroke="orange" points="358.91,-107.5 348.91,-111 358.91,-114.5 358.91,-107.5"/>
<text text-anchor="middle" x="392" y="-114" font-family="Helvetica,sans-Serif" font-size="10.00"> &lt; UInt64 &gt;</text>
</g>
<!-- Node10 -->
<g id="node10" class="node">
<title>Node10</title>
<g id="a_node10"><a xlink:href="../../d1/dcb/classdoris_1_1vectorized_1_1_data_type_number_base.html" target="_top" xlink:title=" ">
<polygon fill="white" stroke="#666666" points="553.5,-78 437.5,-78 437.5,-48 553.5,-48 553.5,-78"/>
<text text-anchor="start" x="445.5" y="-66" font-family="Helvetica,sans-Serif" font-size="10.00">DataTypeNumberBase</text>
<text text-anchor="middle" x="495.5" y="-55" font-family="Helvetica,sans-Serif" font-size="10.00">&lt; UInt32 &gt;</text>
</a>
</g>
</g>
<!-- Node1&#45;&gt;Node10 -->
<g id="edge9" class="edge">
<title>Node1&#45;&gt;Node10</title>
<path fill="none" stroke="orange" stroke-dasharray="5,2" d="M333.75,-98.64C365.54,-91.59 405.3,-82.78 437.33,-75.68"/>
<polygon fill="orange" stroke="orange" points="333.34,-95.15 324.34,-100.73 334.86,-101.98 333.34,-95.15"/>
<text text-anchor="middle" x="392" y="-95" font-family="Helvetica,sans-Serif" font-size="10.00"> &lt; UInt32 &gt;</text>
</g>
<!-- Node12 -->
<g id="node12" class="node">
<title>Node12</title>
<g id="a_node12"><a xlink:href="../../d1/dcb/classdoris_1_1vectorized_1_1_data_type_number_base.html" target="_top" xlink:title=" ">
<polygon fill="white" stroke="#666666" points="553.5,-30 437.5,-30 437.5,0 553.5,0 553.5,-30"/>
<text text-anchor="start" x="445.5" y="-18" font-family="Helvetica,sans-Serif" font-size="10.00">DataTypeNumberBase</text>
<text text-anchor="middle" x="495.5" y="-7" font-family="Helvetica,sans-Serif" font-size="10.00">&lt; Float64 &gt;</text>
</a>
</g>
</g>
<!-- Node1&#45;&gt;Node12 -->
<g id="edge11" class="edge">
<title>Node1&#45;&gt;Node12</title>
<path fill="none" stroke="orange" stroke-dasharray="5,2" d="M305.14,-95.59C322.1,-86.23 344.53,-74.33 365,-65 393.07,-52.21 425.45,-39.71 450.8,-30.41"/>
<polygon fill="orange" stroke="orange" points="303.71,-92.38 296.68,-100.31 307.12,-98.49 303.71,-92.38"/>
<text text-anchor="middle" x="392" y="-68" font-family="Helvetica,sans-Serif" font-size="10.00"> &lt; Float64 &gt;</text>
</g>
<!-- Node2 -->
<g id="node2" class="node">
<title>Node2</title>
<g id="a_node2"><a xlink:href="../../da/ddf/classdoris_1_1vectorized_1_1_i_data_type.html" target="_top" xlink:title=" ">
<polygon fill="white" stroke="#666666" points="170,-120.5 108,-120.5 108,-101.5 170,-101.5 170,-120.5"/>
<text text-anchor="middle" x="139" y="-108.5" font-family="Helvetica,sans-Serif" font-size="10.00">IDataType</text>
</a>
</g>
</g>
<!-- Node2&#45;&gt;Node1 -->
<g id="edge1" class="edge">
<title>Node2&#45;&gt;Node1</title>
<path fill="none" stroke="#63b8ff" d="M181.44,-111C189.45,-111 198.04,-111 206.66,-111"/>
<polygon fill="#63b8ff" stroke="#63b8ff" points="181.7,-107.5 171.7,-111 181.7,-114.5 181.7,-107.5"/>
</g>
<!-- Node3 -->
<g id="node3" class="node">
<title>Node3</title>
<g id="a_node3"><a xlink:title=" ">
<polygon fill="white" stroke="#666666" points="71,-120.5 0,-120.5 0,-101.5 71,-101.5 71,-120.5"/>
<text text-anchor="middle" x="35.5" y="-108.5" font-family="Helvetica,sans-Serif" font-size="10.00">noncopyable</text>
</a>
</g>
</g>
<!-- Node3&#45;&gt;Node2 -->
<g id="edge2" class="edge">
<title>Node3&#45;&gt;Node2</title>
<path fill="none" stroke="#8b1a1a" d="M82.79,-111C91.26,-111 99.9,-111 107.75,-111"/>
<polygon fill="#8b1a1a" stroke="#8b1a1a" points="82.94,-107.5 72.94,-111 82.94,-114.5 82.94,-107.5"/>
</g>
<!-- Node6 -->
<g id="node6" class="node">
<title>Node6</title>
<g id="a_node6"><a xlink:href="../../d2/d4c/classdoris_1_1vectorized_1_1_data_type_date.html" target="_top" xlink:title=" ">
<polygon fill="white" stroke="#666666" points="687.5,-199.5 607.5,-199.5 607.5,-180.5 687.5,-180.5 687.5,-199.5"/>
<text text-anchor="middle" x="647.5" y="-187.5" font-family="Helvetica,sans-Serif" font-size="10.00">DataTypeDate</text>
</a>
</g>
</g>
<!-- Node5&#45;&gt;Node6 -->
<g id="edge5" class="edge">
<title>Node5&#45;&gt;Node6</title>
<path fill="none" stroke="#63b8ff" d="M564.68,-173.09C579.25,-176.1 594.17,-179.18 607.21,-181.88"/>
<polygon fill="#63b8ff" stroke="#63b8ff" points="565.62,-169.71 555.12,-171.11 564.2,-176.57 565.62,-169.71"/>
</g>
<!-- Node7 -->
<g id="node7" class="node">
<title>Node7</title>
<g id="a_node7"><a xlink:href="../../d7/df9/classdoris_1_1vectorized_1_1_data_type_date_time.html" target="_top" xlink:title=" ">
<polygon fill="white" stroke="#666666" points="698,-162.5 597,-162.5 597,-143.5 698,-143.5 698,-162.5"/>
<text text-anchor="middle" x="647.5" y="-150.5" font-family="Helvetica,sans-Serif" font-size="10.00">DataTypeDateTime</text>
</a>
</g>
</g>
<!-- Node5&#45;&gt;Node7 -->
<g id="edge6" class="edge">
<title>Node5&#45;&gt;Node7</title>
<path fill="none" stroke="#63b8ff" d="M565.14,-156.25C575.83,-155.83 586.71,-155.39 596.87,-154.99"/>
<polygon fill="#63b8ff" stroke="#63b8ff" points="565,-152.76 555.15,-156.65 565.28,-159.75 565,-152.76"/>
</g>
<!-- Node9 -->
<g id="node9" class="node">
<title>Node9</title>
<g id="a_node9"><a xlink:href="../../db/d12/classdoris_1_1vectorized_1_1_data_type_date_time_v2.html" target="_top" xlink:title=" ">
<polygon fill="white" stroke="#666666" points="704,-120.5 591,-120.5 591,-101.5 704,-101.5 704,-120.5"/>
<text text-anchor="middle" x="647.5" y="-108.5" font-family="Helvetica,sans-Serif" font-size="10.00">DataTypeDateTimeV2</text>
</a>
</g>
</g>
<!-- Node8&#45;&gt;Node9 -->
<g id="edge8" class="edge">
<title>Node8&#45;&gt;Node9</title>
<path fill="none" stroke="#63b8ff" d="M565.12,-111C573.62,-111 582.23,-111 590.51,-111"/>
<polygon fill="#63b8ff" stroke="#63b8ff" points="565.15,-107.5 555.15,-111 565.15,-114.5 565.15,-107.5"/>
</g>
<!-- Node11 -->
<g id="node11" class="node">
<title>Node11</title>
<g id="a_node11"><a xlink:href="../../db/d63/classdoris_1_1vectorized_1_1_data_type_date_v2.html" target="_top" xlink:title=" ">
<polygon fill="white" stroke="#666666" points="693.5,-72.5 601.5,-72.5 601.5,-53.5 693.5,-53.5 693.5,-72.5"/>
<text text-anchor="middle" x="647.5" y="-60.5" font-family="Helvetica,sans-Serif" font-size="10.00">DataTypeDateV2</text>
</a>
</g>
</g>
<!-- Node10&#45;&gt;Node11 -->
<g id="edge10" class="edge">
<title>Node10&#45;&gt;Node11</title>
<path fill="none" stroke="#63b8ff" d="M564.84,-63C577.16,-63 589.72,-63 601.18,-63"/>
<polygon fill="#63b8ff" stroke="#63b8ff" points="565.15,-59.5 555.15,-63 565.15,-66.5 565.15,-59.5"/>
</g>
<!-- Node13 -->
<g id="node13" class="node">
<title>Node13</title>
<g id="a_node13"><a xlink:href="../../db/dee/classdoris_1_1vectorized_1_1_data_type_time.html" target="_top" xlink:title=" ">
<polygon fill="white" stroke="#666666" points="687.5,-24.5 607.5,-24.5 607.5,-5.5 687.5,-5.5 687.5,-24.5"/>
<text text-anchor="middle" x="647.5" y="-12.5" font-family="Helvetica,sans-Serif" font-size="10.00">DataTypeTime</text>
</a>
</g>
</g>
<!-- Node12&#45;&gt;Node13 -->
<g id="edge12" class="edge">
<title>Node12&#45;&gt;Node13</title>
<path fill="none" stroke="#63b8ff" d="M565.1,-15C579.54,-15 594.29,-15 607.21,-15"/>
<polygon fill="#63b8ff" stroke="#63b8ff" points="565.15,-11.5 555.15,-15 565.15,-18.5 565.15,-11.5"/>
</g>
</g>
</svg>
        <g id="navigator" transform="translate(0 0)" fill="#404254">
                <rect fill="#f2f5e9" fill-opacity="0.5" stroke="#606060" stroke-width=".5" x="0" y="0" width="60" height="60"/>
                <use id="zoomplus" xlink:href="#zoomPlus" x="17" y="9" onmousedown="handleZoom(evt,'in')"/>
                <use id="zoomminus" xlink:href="#zoomMin" x="42" y="9" onmousedown="handleZoom(evt,'out')"/>
                <use id="reset" xlink:href="#resetDef" x="30" y="36" onmousedown="handleReset()"/>
                <g id="arrowUp" xlink:href="#dirArrow" transform="translate(30 24)" onmousedown="handlePan(0,-1)">
                  <use xlink:href="#rim" fill="#404040">
                        <set attributeName="fill" to="#808080" begin="arrowUp.mouseover" end="arrowUp.mouseout"/>
                  </use>
                  <path fill="none" stroke="white" stroke-width="1.5" d="M0,-3.0v7 M-2.5,-0.5L0,-3.0L2.5,-0.5"/>
                </g>
                <g id="arrowRight" xlink:href="#dirArrow" transform="rotate(90) translate(36 -43)" onmousedown="handlePan(1,0)">
                  <use xlink:href="#rim" fill="#404040">
                        <set attributeName="fill" to="#808080" begin="arrowRight.mouseover" end="arrowRight.mouseout"/>
                  </use>
                  <path fill="none" stroke="white" stroke-width="1.5" d="M0,-3.0v7 M-2.5,-0.5L0,-3.0L2.5,-0.5"/>
                </g>
                <g id="arrowDown" xlink:href="#dirArrow" transform="rotate(180) translate(-30 -48)" onmousedown="handlePan(0,1)">
                  <use xlink:href="#rim" fill="#404040">
                        <set attributeName="fill" to="#808080" begin="arrowDown.mouseover" end="arrowDown.mouseout"/>
                  </use>
                  <path fill="none" stroke="white" stroke-width="1.5" d="M0,-3.0v7 M-2.5,-0.5L0,-3.0L2.5,-0.5"/>
                </g>
                <g id="arrowLeft" xlink:href="#dirArrow" transform="rotate(270) translate(-36 17)" onmousedown="handlePan(-1,0)">
                  <use xlink:href="#rim" fill="#404040">
                        <set attributeName="fill" to="#808080" begin="arrowLeft.mouseover" end="arrowLeft.mouseout"/>
                  </use>
                  <path fill="none" stroke="white" stroke-width="1.5" d="M0,-3.0v7 M-2.5,-0.5L0,-3.0L2.5,-0.5"/>
                </g>
        </g>
        <svg viewBox="0 0 15 15" width="100%" height="30px" preserveAspectRatio="xMaxYMin meet">
         <g id="arrow_out" transform="scale(0.3 0.3)">
          <a xlink:href="classdoris_1_1vectorized_1_1_data_type_number_base__inherit__graph_org.svg" target="_base">
           <rect id="button" ry="5" rx="5" y="6" x="6" height="38" width="38"
                fill="#f2f5e9" fill-opacity="0.5" stroke="#606060" stroke-width="1.0"/>
           <path id="arrow"
             d="M 11.500037,31.436501 C 11.940474,20.09759 22.043105,11.32322 32.158766,21.979434 L 37.068811,17.246167 C 37.068811,17.246167 37.088388,32 37.088388,32 L 22.160133,31.978069 C 22.160133,31.978069 26.997745,27.140456 26.997745,27.140456 C 18.528582,18.264221 13.291696,25.230495 11.500037,31.436501 z"
             style="fill:#404040;"/>
          </a>
         </g>
        </svg>
</svg>
