<?xml version="1.0" encoding="UTF-8" standalone="no"?>
<!DOCTYPE svg PUBLIC "-//W3C//DTD SVG 1.1//EN"
 "http://www.w3.org/Graphics/SVG/1.1/DTD/svg11.dtd">
<!-- Generated by graphviz version 7.1.0 (20230121.1956)
 -->
<!-- Title: insert_result_into Pages: 1 -->
<svg width="701pt" height="458pt"
 viewBox="0.00 0.00 701.00 458.00" xmlns="http://www.w3.org/2000/svg" xmlns:xlink="http://www.w3.org/1999/xlink">
<g id="graph0" class="graph" transform="scale(1 1) rotate(0) translate(4 454)">
<title>insert_result_into</title>
<!-- Node1 -->
<g id="node1" class="node">
<title>Node1</title>
<g id="a_node1"><a xlink:title="Inserts results into a column.">
<polygon fill="#999999" stroke="#666666" points="91,-295.5 0,-295.5 0,-276.5 91,-276.5 91,-295.5"/>
<text text-anchor="middle" x="45.5" y="-283.5" font-family="Helvetica,sans-Serif" font-size="10.00">insert_result_into</text>
</a>
</g>
</g>
<!-- Node2 -->
<g id="node2" class="node">
<title>Node2</title>
<g id="a_node2"><a xlink:href="../../dc/d55/classdoris_1_1vectorized_1_1_i_aggregate_function_data_helper.html#a4d9713caf23038dda12a0742d0ea1800" target="_top" xlink:title=" ">
<polygon fill="white" stroke="#666666" points="336,-450 127,-450 127,-398 336,-398 336,-450"/>
<text text-anchor="start" x="135" y="-438" font-family="Helvetica,sans-Serif" font-size="10.00">doris::vectorized::</text>
<text text-anchor="start" x="135" y="-427" font-family="Helvetica,sans-Serif" font-size="10.00">IAggregateFunctionDataHelper</text>
<text text-anchor="start" x="135" y="-416" font-family="Helvetica,sans-Serif" font-size="10.00">&lt; PercentileApproxState,</text>
<text text-anchor="middle" x="231.5" y="-405" font-family="Helvetica,sans-Serif" font-size="10.00"> AggregateFunctionPercentileApprox &gt;::data</text>
</a>
</g>
</g>
<!-- Node1&#45;&gt;Node2 -->
<g id="edge1" class="edge">
<title>Node1&#45;&gt;Node2</title>
<path fill="none" stroke="#63b8ff" d="M51.54,-295.77C62.52,-316.09 90.53,-363.14 127,-389 128.38,-389.98 129.79,-390.93 131.22,-391.86"/>
<polygon fill="#63b8ff" stroke="#63b8ff" points="129.31,-394.79 139.71,-396.85 132.86,-388.76 129.31,-394.79"/>
</g>
<!-- Node3 -->
<g id="node3" class="node">
<title>Node3</title>
<g id="a_node3"><a xlink:href="../../d5/d79/structdoris_1_1vectorized_1_1_percentile_approx_state.html#af53ec2e557ea14cce1373e0f77954c82" target="_top" xlink:title=" ">
<polygon fill="white" stroke="#666666" points="298.5,-380 164.5,-380 164.5,-350 298.5,-350 298.5,-380"/>
<text text-anchor="start" x="172.5" y="-368" font-family="Helvetica,sans-Serif" font-size="10.00">doris::vectorized::</text>
<text text-anchor="middle" x="231.5" y="-357" font-family="Helvetica,sans-Serif" font-size="10.00">PercentileApproxState::get</text>
</a>
</g>
</g>
<!-- Node1&#45;&gt;Node3 -->
<g id="edge2" class="edge">
<title>Node1&#45;&gt;Node3</title>
<path fill="none" stroke="#63b8ff" d="M57.94,-295.88C72.85,-308.25 100.19,-329.23 127,-341 135.29,-344.64 144.2,-347.76 153.19,-350.44"/>
<polygon fill="#63b8ff" stroke="#63b8ff" points="152.13,-353.77 162.7,-353.07 154,-347.03 152.13,-353.77"/>
</g>
<!-- Node4 -->
<g id="node4" class="node">
<title>Node4</title>
<g id="a_node4"><a xlink:href="../../d4/d41/classdoris_1_1vectorized_1_1_column_nullable.html#aa9e5d9e2d52e72e8d397e1f7f6ac943a" target="_top" xlink:title="Return the column that represents values.">
<polygon fill="white" stroke="#666666" points="483.5,-282.5 378.5,-282.5 378.5,-241.5 483.5,-241.5 483.5,-282.5"/>
<text text-anchor="start" x="386.5" y="-270.5" font-family="Helvetica,sans-Serif" font-size="10.00">doris::vectorized::</text>
<text text-anchor="start" x="386.5" y="-259.5" font-family="Helvetica,sans-Serif" font-size="10.00">ColumnNullable::get</text>
<text text-anchor="middle" x="431" y="-248.5" font-family="Helvetica,sans-Serif" font-size="10.00">_nested_column</text>
</a>
</g>
</g>
<!-- Node1&#45;&gt;Node4 -->
<g id="edge3" class="edge">
<title>Node1&#45;&gt;Node4</title>
<path fill="none" stroke="#63b8ff" d="M91.24,-283.2C159.42,-278.93 289.55,-270.79 367.17,-265.93"/>
<polygon fill="#63b8ff" stroke="#63b8ff" points="366.95,-269.45 376.72,-265.33 366.52,-262.47 366.95,-269.45"/>
</g>
<!-- Node5 -->
<g id="node5" class="node">
<title>Node5</title>
<g id="a_node5"><a xlink:href="../../d4/d41/classdoris_1_1vectorized_1_1_column_nullable.html#a329544ef446bb324378a2f28efa2b53a" target="_top" xlink:title=" ">
<polygon fill="white" stroke="#666666" points="284,-331.5 179,-331.5 179,-290.5 284,-290.5 284,-331.5"/>
<text text-anchor="start" x="187" y="-319.5" font-family="Helvetica,sans-Serif" font-size="10.00">doris::vectorized::</text>
<text text-anchor="start" x="187" y="-308.5" font-family="Helvetica,sans-Serif" font-size="10.00">ColumnNullable::get</text>
<text text-anchor="middle" x="231.5" y="-297.5" font-family="Helvetica,sans-Serif" font-size="10.00">_null_map_data</text>
</a>
</g>
</g>
<!-- Node1&#45;&gt;Node5 -->
<g id="edge4" class="edge">
<title>Node1&#45;&gt;Node5</title>
<path fill="none" stroke="#63b8ff" d="M91.04,-292.05C113.91,-295.16 142.18,-299 167.27,-302.41"/>
<polygon fill="#63b8ff" stroke="#63b8ff" points="166.66,-305.86 177.04,-303.74 167.6,-298.92 166.66,-305.86"/>
</g>
<!-- Node8 -->
<g id="node8" class="node">
<title>Node8</title>
<g id="a_node8"><a xlink:href="../../d4/d41/classdoris_1_1vectorized_1_1_column_nullable.html#a6df2ecbab548a51440ef47a89d5950a7" target="_top" xlink:title=" ">
<polygon fill="white" stroke="#666666" points="289.5,-223.5 173.5,-223.5 173.5,-182.5 289.5,-182.5 289.5,-223.5"/>
<text text-anchor="start" x="181.5" y="-211.5" font-family="Helvetica,sans-Serif" font-size="10.00">doris::vectorized::</text>
<text text-anchor="start" x="181.5" y="-200.5" font-family="Helvetica,sans-Serif" font-size="10.00">ColumnNullable::insert</text>
<text text-anchor="middle" x="231.5" y="-189.5" font-family="Helvetica,sans-Serif" font-size="10.00">_default</text>
</a>
</g>
</g>
<!-- Node1&#45;&gt;Node8 -->
<g id="edge7" class="edge">
<title>Node1&#45;&gt;Node8</title>
<path fill="none" stroke="#63b8ff" d="M66.93,-276.14C83.16,-268.37 106.45,-257.32 127,-248 141.22,-241.56 156.61,-234.76 171.07,-228.47"/>
<polygon fill="#63b8ff" stroke="#63b8ff" points="172.23,-231.78 180.01,-224.58 169.44,-225.36 172.23,-231.78"/>
</g>
<!-- Node12 -->
<g id="node12" class="node">
<title>Node12</title>
<g id="a_node12"><a xlink:href="../../df/db2/classdoris_1_1vectorized_1_1_p_o_d_array.html#a4fe88e30f68ec72ad91dee2dcf5fc1b8" target="_top" xlink:title=" ">
<polygon fill="white" stroke="#666666" points="488.5,-116 373.5,-116 373.5,-86 488.5,-86 488.5,-116"/>
<text text-anchor="start" x="381.5" y="-104" font-family="Helvetica,sans-Serif" font-size="10.00">doris::vectorized::</text>
<text text-anchor="middle" x="431" y="-93" font-family="Helvetica,sans-Serif" font-size="10.00">PODArray::push_back</text>
</a>
</g>
</g>
<!-- Node1&#45;&gt;Node12 -->
<g id="edge17" class="edge">
<title>Node1&#45;&gt;Node12</title>
<path fill="none" stroke="#63b8ff" d="M50.63,-276.01C60.38,-253.74 87.04,-199.9 127,-173 197.76,-125.36 296.4,-109.09 361.66,-103.62"/>
<polygon fill="#63b8ff" stroke="#63b8ff" points="361.83,-107.12 371.54,-102.87 361.3,-100.14 361.83,-107.12"/>
</g>
<!-- Node6 -->
<g id="node6" class="node">
<title>Node6</title>
<g id="a_node6"><a xlink:href="../../df/d15/classdoris_1_1vectorized_1_1_column_vector.html#a3206c08675c03058605f3a6e5a452b5c" target="_top" xlink:title=" ">
<polygon fill="white" stroke="#666666" points="670.5,-329 548.5,-329 548.5,-299 670.5,-299 670.5,-329"/>
<text text-anchor="start" x="556.5" y="-317" font-family="Helvetica,sans-Serif" font-size="10.00">doris::vectorized::</text>
<text text-anchor="middle" x="609.5" y="-306" font-family="Helvetica,sans-Serif" font-size="10.00">ColumnVector::get_data</text>
</a>
</g>
</g>
<!-- Node5&#45;&gt;Node6 -->
<g id="edge5" class="edge">
<title>Node5&#45;&gt;Node6</title>
<path fill="none" stroke="#63b8ff" d="M284.41,-326.06C323.11,-337.27 369.68,-350.67 372,-351 423.93,-358.3 438.15,-358.91 490,-351 513.03,-347.49 537.73,-340.35 558.59,-333.27"/>
<polygon fill="#63b8ff" stroke="#63b8ff" points="559.72,-336.58 568.01,-329.98 557.41,-329.97 559.72,-336.58"/>
</g>
<!-- Node7 -->
<g id="node7" class="node">
<title>Node7</title>
<g id="a_node7"><a xlink:href="../../d4/d41/classdoris_1_1vectorized_1_1_column_nullable.html#ae0e77dedb4ba70d2b17b3eecf148ffe2" target="_top" xlink:title=" ">
<polygon fill="white" stroke="#666666" points="483.5,-341.5 378.5,-341.5 378.5,-300.5 483.5,-300.5 483.5,-341.5"/>
<text text-anchor="start" x="386.5" y="-329.5" font-family="Helvetica,sans-Serif" font-size="10.00">doris::vectorized::</text>
<text text-anchor="start" x="386.5" y="-318.5" font-family="Helvetica,sans-Serif" font-size="10.00">ColumnNullable::get</text>
<text text-anchor="middle" x="431" y="-307.5" font-family="Helvetica,sans-Serif" font-size="10.00">_null_map_column</text>
</a>
</g>
</g>
<!-- Node5&#45;&gt;Node7 -->
<g id="edge6" class="edge">
<title>Node5&#45;&gt;Node7</title>
<path fill="none" stroke="#63b8ff" d="M284.39,-313.63C309.69,-314.91 340.33,-316.46 366.97,-317.81"/>
<polygon fill="#63b8ff" stroke="#63b8ff" points="366.44,-321.29 376.6,-318.3 366.79,-314.29 366.44,-321.29"/>
</g>
<!-- Node8&#45;&gt;Node4 -->
<g id="edge11" class="edge">
<title>Node8&#45;&gt;Node4</title>
<path fill="none" stroke="#63b8ff" d="M289.89,-220.14C314.2,-227.41 342.58,-235.89 367.43,-243.31"/>
<polygon fill="#63b8ff" stroke="#63b8ff" points="366.16,-246.58 376.75,-246.09 368.17,-239.88 366.16,-246.58"/>
</g>
<!-- Node9 -->
<g id="node9" class="node">
<title>Node9</title>
<g id="a_node9"><a xlink:href="../../d4/d41/classdoris_1_1vectorized_1_1_column_nullable.html#a0f8865d89784bb302f7fd4792ab7d8c1" target="_top" xlink:title=" ">
<polygon fill="white" stroke="#666666" points="486,-223.5 376,-223.5 376,-182.5 486,-182.5 486,-223.5"/>
<text text-anchor="start" x="384" y="-211.5" font-family="Helvetica,sans-Serif" font-size="10.00">doris::vectorized::</text>
<text text-anchor="start" x="384" y="-200.5" font-family="Helvetica,sans-Serif" font-size="10.00">ColumnNullable::_get</text>
<text text-anchor="middle" x="431" y="-189.5" font-family="Helvetica,sans-Serif" font-size="10.00">_null_map_data</text>
</a>
</g>
</g>
<!-- Node8&#45;&gt;Node9 -->
<g id="edge8" class="edge">
<title>Node8&#45;&gt;Node9</title>
<path fill="none" stroke="#63b8ff" d="M289.89,-203C313.19,-203 340.24,-203 364.33,-203"/>
<polygon fill="#63b8ff" stroke="#63b8ff" points="364.01,-206.5 374.01,-203 364.01,-199.5 364.01,-206.5"/>
</g>
<!-- Node11 -->
<g id="node11" class="node">
<title>Node11</title>
<g id="a_node11"><a xlink:href="../../da/dde/classdoris_1_1vectorized_1_1_i_column.html#a63c25b8c7843d76d95e1654d52fc76fc" target="_top" xlink:title=" ">
<polygon fill="white" stroke="#666666" points="490,-164 372,-164 372,-134 490,-134 490,-164"/>
<text text-anchor="start" x="380" y="-152" font-family="Helvetica,sans-Serif" font-size="10.00">doris::vectorized::</text>
<text text-anchor="middle" x="431" y="-141" font-family="Helvetica,sans-Serif" font-size="10.00">IColumn::insert_default</text>
</a>
</g>
</g>
<!-- Node8&#45;&gt;Node11 -->
<g id="edge12" class="edge">
<title>Node8&#45;&gt;Node11</title>
<path fill="none" stroke="#63b8ff" d="M289.89,-187.31C312.6,-181.1 338.88,-173.91 362.49,-167.46"/>
<polygon fill="#63b8ff" stroke="#63b8ff" points="363.31,-170.86 372.03,-164.85 361.46,-164.11 363.31,-170.86"/>
</g>
<!-- Node8&#45;&gt;Node12 -->
<g id="edge13" class="edge">
<title>Node8&#45;&gt;Node12</title>
<path fill="none" stroke="#63b8ff" d="M267.15,-182.12C295.02,-165.7 335.42,-142.72 372,-125 374.85,-123.62 377.8,-122.24 380.79,-120.89"/>
<polygon fill="#63b8ff" stroke="#63b8ff" points="381.9,-124.22 389.65,-116.99 379.09,-117.81 381.9,-124.22"/>
</g>
<!-- Node9&#45;&gt;Node6 -->
<g id="edge10" class="edge">
<title>Node9&#45;&gt;Node6</title>
<path fill="none" stroke="#63b8ff" d="M475.44,-223.87C480.4,-226.51 485.35,-229.25 490,-232 521.41,-250.59 555.51,-274.63 579.03,-291.86"/>
<polygon fill="#63b8ff" stroke="#63b8ff" points="576.77,-294.55 586.89,-297.67 580.93,-288.91 576.77,-294.55"/>
</g>
<!-- Node10 -->
<g id="node10" class="node">
<title>Node10</title>
<g id="a_node10"><a xlink:href="../../d4/d41/classdoris_1_1vectorized_1_1_column_nullable.html#a8e1fb6e9e0cb5708c3ad8f557bf2cc14" target="_top" xlink:title=" ">
<polygon fill="white" stroke="#666666" points="664.5,-240.5 554.5,-240.5 554.5,-199.5 664.5,-199.5 664.5,-240.5"/>
<text text-anchor="start" x="562.5" y="-228.5" font-family="Helvetica,sans-Serif" font-size="10.00">doris::vectorized::</text>
<text text-anchor="start" x="562.5" y="-217.5" font-family="Helvetica,sans-Serif" font-size="10.00">ColumnNullable::_get</text>
<text text-anchor="middle" x="609.5" y="-206.5" font-family="Helvetica,sans-Serif" font-size="10.00">_null_map_column</text>
</a>
</g>
</g>
<!-- Node9&#45;&gt;Node10 -->
<g id="edge9" class="edge">
<title>Node9&#45;&gt;Node10</title>
<path fill="none" stroke="#63b8ff" d="M486.4,-208.24C504.26,-209.96 524.31,-211.89 542.92,-213.68"/>
<polygon fill="#63b8ff" stroke="#63b8ff" points="542.49,-217.16 552.78,-214.63 543.16,-210.19 542.49,-217.16"/>
</g>
<!-- Node13 -->
<g id="node13" class="node">
<title>Node13</title>
<g id="a_node13"><a xlink:href="../../d5/d9d/classdoris_1_1vectorized_1_1_p_o_d_array_base.html#a4fd871ea772d3f22957ed8dd6a0aebb6" target="_top" xlink:title="Does not include pad_right.">
<polygon fill="white" stroke="#666666" points="693,-52 526,-52 526,0 693,0 693,-52"/>
<text text-anchor="start" x="534" y="-40" font-family="Helvetica,sans-Serif" font-size="10.00">doris::vectorized::</text>
<text text-anchor="start" x="534" y="-29" font-family="Helvetica,sans-Serif" font-size="10.00">PODArrayBase&lt; sizeof</text>
<text text-anchor="start" x="534" y="-18" font-family="Helvetica,sans-Serif" font-size="10.00">(T), initial_bytes, TAllocator,</text>
<text text-anchor="middle" x="609.5" y="-7" font-family="Helvetica,sans-Serif" font-size="10.00"> pad_right_, pad_left_ &gt;::byte_size</text>
</a>
</g>
</g>
<!-- Node12&#45;&gt;Node13 -->
<g id="edge14" class="edge">
<title>Node12&#45;&gt;Node13</title>
<path fill="none" stroke="#63b8ff" d="M468.15,-85.61C485.63,-78.17 506.9,-69.11 526,-61 529.19,-59.64 532.45,-58.26 535.74,-56.86"/>
<polygon fill="#63b8ff" stroke="#63b8ff" points="537.1,-60.09 544.94,-52.96 534.37,-53.64 537.1,-60.09"/>
</g>
<!-- Node14 -->
<g id="node14" class="node">
<title>Node14</title>
<g id="a_node14"><a xlink:href="../../d5/d9d/classdoris_1_1vectorized_1_1_p_o_d_array_base.html#a2598e4e0d6a05dd2650267b7a78e56aa" target="_top" xlink:title=" ">
<polygon fill="white" stroke="#666666" points="688.5,-181.5 530.5,-181.5 530.5,-118.5 688.5,-118.5 688.5,-181.5"/>
<text text-anchor="start" x="538.5" y="-169.5" font-family="Helvetica,sans-Serif" font-size="10.00">doris::vectorized::</text>
<text text-anchor="start" x="538.5" y="-158.5" font-family="Helvetica,sans-Serif" font-size="10.00">PODArrayBase&lt; sizeof</text>
<text text-anchor="start" x="538.5" y="-147.5" font-family="Helvetica,sans-Serif" font-size="10.00">(T), initial_bytes, TAllocator,</text>
<text text-anchor="start" x="538.5" y="-136.5" font-family="Helvetica,sans-Serif" font-size="10.00"> pad_right_, pad_left_ &gt;::reserve</text>
<text text-anchor="middle" x="609.5" y="-125.5" font-family="Helvetica,sans-Serif" font-size="10.00">_for_next_size</text>
</a>
</g>
</g>
<!-- Node12&#45;&gt;Node14 -->
<g id="edge15" class="edge">
<title>Node12&#45;&gt;Node14</title>
<path fill="none" stroke="#63b8ff" d="M487.36,-116.37C497.52,-119.19 508.36,-122.2 519.22,-125.21"/>
<polygon fill="#63b8ff" stroke="#63b8ff" points="518.03,-128.52 528.6,-127.82 519.91,-121.77 518.03,-128.52"/>
</g>
<!-- Node15 -->
<g id="node15" class="node">
<title>Node15</title>
<g id="a_node15"><a xlink:href="../../df/db2/classdoris_1_1vectorized_1_1_p_o_d_array.html#a23330edc945b54dbc26dbfde57ae3be7" target="_top" xlink:title=" ">
<polygon fill="white" stroke="#666666" points="657,-100 562,-100 562,-70 657,-70 657,-100"/>
<text text-anchor="start" x="570" y="-88" font-family="Helvetica,sans-Serif" font-size="10.00">doris::vectorized::</text>
<text text-anchor="middle" x="609.5" y="-77" font-family="Helvetica,sans-Serif" font-size="10.00">PODArray::t_end</text>
</a>
</g>
</g>
<!-- Node12&#45;&gt;Node15 -->
<g id="edge16" class="edge">
<title>Node12&#45;&gt;Node15</title>
<path fill="none" stroke="#63b8ff" d="M488.82,-95.85C508.45,-94.07 530.46,-92.07 550.2,-90.28"/>
<polygon fill="#63b8ff" stroke="#63b8ff" points="550.38,-93.78 560.03,-89.39 549.75,-86.81 550.38,-93.78"/>
</g>
</g>
</svg>
