<?xml version="1.0" encoding="UTF-8" standalone="no"?>
<!DOCTYPE svg PUBLIC "-//W3C//DTD SVG 1.1//EN"
 "http://www.w3.org/Graphics/SVG/1.1/DTD/svg11.dtd">
<!-- Generated by graphviz version 7.1.0 (20230121.1956)
 -->
<!-- Title: /Users/dabowang/be_all/vec/exec/format/parquet/vparquet_reader.h Pages: 1 -->
<svg width="556pt" height="126pt"
 viewBox="0.00 0.00 556.00 126.00" xmlns="http://www.w3.org/2000/svg" xmlns:xlink="http://www.w3.org/1999/xlink">
<g id="graph0" class="graph" transform="scale(1 1) rotate(0) translate(4 122)">
<title>/Users/dabowang/be_all/vec/exec/format/parquet/vparquet_reader.h</title>
<!-- Node1 -->
<g id="node1" class="node">
<title>Node1</title>
<g id="a_node1"><a xlink:title=" ">
<polygon fill="#999999" stroke="#666666" points="338.5,-118 206.5,-118 206.5,-77 338.5,-77 338.5,-118"/>
<text text-anchor="start" x="214.5" y="-106" font-family="Helvetica,sans-Serif" font-size="10.00">/Users/dabowang/be</text>
<text text-anchor="start" x="214.5" y="-95" font-family="Helvetica,sans-Serif" font-size="10.00">_all/vec/exec/format</text>
<text text-anchor="middle" x="272.5" y="-84" font-family="Helvetica,sans-Serif" font-size="10.00">/parquet/vparquet_reader.h</text>
</a>
</g>
</g>
<!-- Node2 -->
<g id="node2" class="node">
<title>Node2</title>
<g id="a_node2"><a xlink:href="../../d3/deb/internal__service_8cpp.html" target="_top" xlink:title=" ">
<polygon fill="white" stroke="#666666" points="107,-41 0,-41 0,0 107,0 107,-41"/>
<text text-anchor="start" x="8" y="-29" font-family="Helvetica,sans-Serif" font-size="10.00">/Users/dabowang/be</text>
<text text-anchor="start" x="8" y="-18" font-family="Helvetica,sans-Serif" font-size="10.00">_all/service/internal</text>
<text text-anchor="middle" x="53.5" y="-7" font-family="Helvetica,sans-Serif" font-size="10.00">_service.cpp</text>
</a>
</g>
</g>
<!-- Node1&#45;&gt;Node2 -->
<g id="edge1" class="edge">
<title>Node1&#45;&gt;Node2</title>
<path fill="none" stroke="#63b8ff" d="M203.63,-72.91C172.56,-62.28 136.41,-49.89 107.37,-39.95"/>
<polygon fill="#63b8ff" stroke="#63b8ff" points="202.36,-76.18 212.96,-76.11 204.63,-69.56 202.36,-76.18"/>
</g>
<!-- Node3 -->
<g id="node3" class="node">
<title>Node3</title>
<g id="a_node3"><a xlink:href="../../dc/d77/vparquet__reader_8cpp.html" target="_top" xlink:title=" ">
<polygon fill="white" stroke="#666666" points="268,-41 125,-41 125,0 268,0 268,-41"/>
<text text-anchor="start" x="133" y="-29" font-family="Helvetica,sans-Serif" font-size="10.00">/Users/dabowang/be</text>
<text text-anchor="start" x="133" y="-18" font-family="Helvetica,sans-Serif" font-size="10.00">_all/vec/exec/format</text>
<text text-anchor="middle" x="196.5" y="-7" font-family="Helvetica,sans-Serif" font-size="10.00">/parquet/vparquet_reader.cpp</text>
</a>
</g>
</g>
<!-- Node1&#45;&gt;Node3 -->
<g id="edge2" class="edge">
<title>Node1&#45;&gt;Node3</title>
<path fill="none" stroke="#63b8ff" d="M244.37,-68.74C235.15,-59.64 225.1,-49.72 216.6,-41.33"/>
<polygon fill="#63b8ff" stroke="#63b8ff" points="241.88,-71.2 251.45,-75.73 246.8,-66.22 241.88,-71.2"/>
</g>
<!-- Node4 -->
<g id="node4" class="node">
<title>Node4</title>
<g id="a_node4"><a xlink:href="../../dd/d43/iceberg__reader_8cpp.html" target="_top" xlink:title=" ">
<polygon fill="white" stroke="#666666" points="411,-41 286,-41 286,0 411,0 411,-41"/>
<text text-anchor="start" x="294" y="-29" font-family="Helvetica,sans-Serif" font-size="10.00">/Users/dabowang/be</text>
<text text-anchor="start" x="294" y="-18" font-family="Helvetica,sans-Serif" font-size="10.00">_all/vec/exec/format</text>
<text text-anchor="middle" x="348.5" y="-7" font-family="Helvetica,sans-Serif" font-size="10.00">/table/iceberg_reader.cpp</text>
</a>
</g>
</g>
<!-- Node1&#45;&gt;Node4 -->
<g id="edge3" class="edge">
<title>Node1&#45;&gt;Node4</title>
<path fill="none" stroke="#63b8ff" d="M300.63,-68.74C309.85,-59.64 319.9,-49.72 328.4,-41.33"/>
<polygon fill="#63b8ff" stroke="#63b8ff" points="298.2,-66.22 293.55,-75.73 303.12,-71.2 298.2,-66.22"/>
</g>
<!-- Node5 -->
<g id="node5" class="node">
<title>Node5</title>
<g id="a_node5"><a xlink:href="../../d9/df7/vfile__scanner_8cpp.html" target="_top" xlink:title=" ">
<polygon fill="white" stroke="#666666" points="548,-41 429,-41 429,0 548,0 548,-41"/>
<text text-anchor="start" x="437" y="-29" font-family="Helvetica,sans-Serif" font-size="10.00">/Users/dabowang/be</text>
<text text-anchor="start" x="437" y="-18" font-family="Helvetica,sans-Serif" font-size="10.00">_all/vec/exec/scan/vfile</text>
<text text-anchor="middle" x="488.5" y="-7" font-family="Helvetica,sans-Serif" font-size="10.00">_scanner.cpp</text>
</a>
</g>
</g>
<!-- Node1&#45;&gt;Node5 -->
<g id="edge4" class="edge">
<title>Node1&#45;&gt;Node5</title>
<path fill="none" stroke="#63b8ff" d="M340.31,-72.95C369.41,-62.85 403.05,-51.17 430.92,-41.49"/>
<polygon fill="#63b8ff" stroke="#63b8ff" points="339.55,-69.52 331.25,-76.1 341.84,-76.13 339.55,-69.52"/>
</g>
</g>
</svg>
