<?xml version="1.0" encoding="UTF-8" standalone="no"?>
<!DOCTYPE svg PUBLIC "-//W3C//DTD SVG 1.1//EN"
 "http://www.w3.org/Graphics/SVG/1.1/DTD/svg11.dtd">
<!-- Generated by graphviz version 7.1.0 (20230121.1956)
 -->
<!-- Title: to_protobuf Pages: 1 -->
<svg width="342pt" height="113pt"
 viewBox="0.00 0.00 342.00 113.00" xmlns="http://www.w3.org/2000/svg" xmlns:xlink="http://www.w3.org/1999/xlink">
<g id="graph0" class="graph" transform="scale(1 1) rotate(0) translate(4 109)">
<title>to_protobuf</title>
<!-- Node1 -->
<g id="node1" class="node">
<title>Node1</title>
<g id="a_node1"><a xlink:title=" ">
<polygon fill="#999999" stroke="#666666" points="65,-62 0,-62 0,-43 65,-43 65,-62"/>
<text text-anchor="middle" x="32.5" y="-50" font-family="Helvetica,sans-Serif" font-size="10.00">to_protobuf</text>
</a>
</g>
</g>
<!-- Node2 -->
<g id="node2" class="node">
<title>Node2</title>
<g id="a_node2"><a xlink:href="../../d9/d8d/classdoris_1_1_status.html#a10d1af04498c2b7756612d7152497871" target="_top" xlink:title=" ">
<polygon fill="white" stroke="#666666" points="200.5,-105 117.5,-105 117.5,-86 200.5,-86 200.5,-105"/>
<text text-anchor="middle" x="159" y="-93" font-family="Helvetica,sans-Serif" font-size="10.00">code_as_string</text>
</a>
</g>
</g>
<!-- Node1&#45;&gt;Node2 -->
<g id="edge1" class="edge">
<title>Node1&#45;&gt;Node2</title>
<path fill="none" stroke="#63b8ff" d="M61.04,-62.43C73.26,-66.8 87.83,-71.96 101,-76.5 106.15,-78.27 111.58,-80.12 116.95,-81.92"/>
<polygon fill="#63b8ff" stroke="#63b8ff" points="115.76,-85.22 126.35,-85.07 117.98,-78.58 115.76,-85.22"/>
</g>
<!-- Node4 -->
<g id="node4" class="node">
<title>Node4</title>
<g id="a_node4"><a xlink:href="../../db/d5f/classdoris_1_1_backend_options.html#a07e4505e62ab1e64490b48b117523422" target="_top" xlink:title=" ">
<polygon fill="white" stroke="#666666" points="217,-67.5 101,-67.5 101,-37.5 217,-37.5 217,-67.5"/>
<text text-anchor="start" x="109" y="-55.5" font-family="Helvetica,sans-Serif" font-size="10.00">doris::BackendOptions</text>
<text text-anchor="middle" x="159" y="-44.5" font-family="Helvetica,sans-Serif" font-size="10.00">::get_localhost</text>
</a>
</g>
</g>
<!-- Node1&#45;&gt;Node4 -->
<g id="edge3" class="edge">
<title>Node1&#45;&gt;Node4</title>
<path fill="none" stroke="#63b8ff" d="M65.24,-52.5C72.67,-52.5 80.87,-52.5 89.23,-52.5"/>
<polygon fill="#63b8ff" stroke="#63b8ff" points="89.15,-56 99.15,-52.5 89.15,-49 89.15,-56"/>
</g>
<!-- Node5 -->
<g id="node5" class="node">
<title>Node5</title>
<g id="a_node5"><a xlink:href="../../d9/d8d/classdoris_1_1_status.html#a03cb7eaa663dc83af68bc28a596d09e6" target="_top" xlink:title=" ">
<polygon fill="white" stroke="#666666" points="173.5,-19 144.5,-19 144.5,0 173.5,0 173.5,-19"/>
<text text-anchor="middle" x="159" y="-7" font-family="Helvetica,sans-Serif" font-size="10.00">ok</text>
</a>
</g>
</g>
<!-- Node1&#45;&gt;Node5 -->
<g id="edge4" class="edge">
<title>Node1&#45;&gt;Node5</title>
<path fill="none" stroke="#63b8ff" d="M61.04,-42.57C73.26,-38.2 87.83,-33.04 101,-28.5 111.63,-24.84 123.42,-20.89 133.5,-17.55"/>
<polygon fill="#63b8ff" stroke="#63b8ff" points="134.55,-20.89 142.95,-14.43 132.35,-14.24 134.55,-20.89"/>
</g>
<!-- Node3 -->
<g id="node3" class="node">
<title>Node3</title>
<g id="a_node3"><a xlink:href="../../d6/d94/namespacedoris.html#a188d65a24975b2fdeee7a53fa69c5331" target="_top" xlink:title=" ">
<polygon fill="white" stroke="#666666" points="334,-105 253,-105 253,-86 334,-86 334,-105"/>
<text text-anchor="middle" x="293.5" y="-93" font-family="Helvetica,sans-Serif" font-size="10.00">doris::to_string</text>
</a>
</g>
</g>
<!-- Node2&#45;&gt;Node3 -->
<g id="edge2" class="edge">
<title>Node2&#45;&gt;Node3</title>
<path fill="none" stroke="#63b8ff" d="M200.84,-95.5C213.79,-95.5 228.26,-95.5 241.82,-95.5"/>
<polygon fill="#63b8ff" stroke="#63b8ff" points="241.42,-99 251.42,-95.5 241.42,-92 241.42,-99"/>
</g>
</g>
</svg>
