<?xml version="1.0" encoding="UTF-8" standalone="no"?>
<!DOCTYPE svg PUBLIC "-//W3C//DTD SVG 1.1//EN"
 "http://www.w3.org/Graphics/SVG/1.1/DTD/svg11.dtd">
<!-- Generated by graphviz version 7.1.0 (20230121.1956)
 -->
<!-- Title: set_t_status Pages: 1 -->
<svg width="165pt" height="45pt"
 viewBox="0.00 0.00 165.00 45.00" xmlns="http://www.w3.org/2000/svg" xmlns:xlink="http://www.w3.org/1999/xlink">
<g id="graph0" class="graph" transform="scale(1 1) rotate(0) translate(4 41)">
<title>set_t_status</title>
<!-- Node1 -->
<g id="node1" class="node">
<title>Node1</title>
<g id="a_node1"><a xlink:title=" ">
<polygon fill="#999999" stroke="#666666" points="71,-19 0,-19 0,0 71,0 71,-19"/>
<text text-anchor="middle" x="35.5" y="-7" font-family="Helvetica,sans-Serif" font-size="10.00">set_t_status</text>
</a>
</g>
</g>
<!-- Node2 -->
<g id="node2" class="node">
<title>Node2</title>
<g id="a_node2"><a xlink:href="../../d9/d8d/classdoris_1_1_status.html#a5318fa45349a77a34f2287cdffc3e6a4" target="_top" xlink:title=" ">
<polygon fill="white" stroke="#666666" points="157,-19 107,-19 107,0 157,0 157,-19"/>
<text text-anchor="middle" x="132" y="-7" font-family="Helvetica,sans-Serif" font-size="10.00">to_thrift</text>
</a>
</g>
</g>
<!-- Node1&#45;&gt;Node2 -->
<g id="edge1" class="edge">
<title>Node1&#45;&gt;Node2</title>
<path fill="none" stroke="#63b8ff" d="M71.42,-9.5C79.17,-9.5 87.4,-9.5 95.18,-9.5"/>
<polygon fill="#63b8ff" stroke="#63b8ff" points="95.03,-13 105.03,-9.5 95.03,-6 95.03,-13"/>
</g>
<!-- Node2&#45;&gt;Node2 -->
<g id="edge2" class="edge">
<title>Node2&#45;&gt;Node2</title>
<path fill="none" stroke="#63b8ff" d="M116.89,-19.37C110,-27.94 115.04,-37 132,-37 141.28,-37 146.99,-34.29 149.13,-30.43"/>
<polygon fill="#63b8ff" stroke="#63b8ff" points="152.62,-30.07 147.38,-20.86 145.73,-31.32 152.62,-30.07"/>
</g>
</g>
</svg>
