<?xml version="1.0" encoding="UTF-8" standalone="no"?>
<!DOCTYPE svg PUBLIC "-//W3C//DTD SVG 1.1//EN"
 "http://www.w3.org/Graphics/SVG/1.1/DTD/svg11.dtd">
<!-- Generated by graphviz version 7.1.0 (20230121.1956)
 -->
<!-- Title: append Pages: 1 -->
<svg width="1276pt" height="412pt"
 viewBox="0.00 0.00 1276.00 412.00" xmlns="http://www.w3.org/2000/svg" xmlns:xlink="http://www.w3.org/1999/xlink">
<g id="graph0" class="graph" transform="scale(1 1) rotate(0) translate(4 408)">
<title>append</title>
<!-- Node1 -->
<g id="node1" class="node">
<title>Node1</title>
<g id="a_node1"><a xlink:title=" ">
<polygon fill="#999999" stroke="#666666" points="1268,-120.5 1220,-120.5 1220,-101.5 1268,-101.5 1268,-120.5"/>
<text text-anchor="middle" x="1244" y="-108.5" font-family="Helvetica,sans-Serif" font-size="10.00">append</text>
</a>
</g>
</g>
<!-- Node2 -->
<g id="node2" class="node">
<title>Node2</title>
<g id="a_node2"><a xlink:href="../../dd/d28/classdoris_1_1_http_client.html#aafc2096c28ffde7015ed37433cb2b0a5" target="_top" xlink:title=" ">
<polygon fill="white" stroke="#666666" points="1157.5,-260 1063.5,-260 1063.5,-230 1157.5,-230 1157.5,-260"/>
<text text-anchor="start" x="1071.5" y="-248" font-family="Helvetica,sans-Serif" font-size="10.00">doris::HttpClient::</text>
<text text-anchor="middle" x="1110.5" y="-237" font-family="Helvetica,sans-Serif" font-size="10.00">execute</text>
</a>
</g>
</g>
<!-- Node1&#45;&gt;Node2 -->
<g id="edge1" class="edge">
<title>Node1&#45;&gt;Node2</title>
<path fill="none" stroke="#63b8ff" d="M1231.98,-130.62C1221.24,-148.66 1203.69,-175.48 1184,-195 1170.43,-208.46 1152.82,-220.69 1138.36,-229.69"/>
<polygon fill="#63b8ff" stroke="#63b8ff" points="1234.86,-132.62 1236.85,-122.21 1228.81,-129.11 1234.86,-132.62"/>
</g>
<!-- Node17 -->
<g id="node17" class="node">
<title>Node17</title>
<g id="a_node17"><a xlink:href="../../d8/d0f/classdoris_1_1segment__v2_1_1_doris_compound_directory_1_1_f_s_index_output.html#adb5aad4f0ce207ea6d7c18a4fba067f9" target="_top" xlink:title=" ">
<polygon fill="white" stroke="#666666" points="1181.5,-185.5 1039.5,-185.5 1039.5,-144.5 1181.5,-144.5 1181.5,-185.5"/>
<text text-anchor="start" x="1047.5" y="-173.5" font-family="Helvetica,sans-Serif" font-size="10.00">doris::segment_v2::</text>
<text text-anchor="start" x="1047.5" y="-162.5" font-family="Helvetica,sans-Serif" font-size="10.00">DorisCompoundDirectory</text>
<text text-anchor="middle" x="1110.5" y="-151.5" font-family="Helvetica,sans-Serif" font-size="10.00">::FSIndexOutput::flushBuffer</text>
</a>
</g>
</g>
<!-- Node1&#45;&gt;Node17 -->
<g id="edge17" class="edge">
<title>Node1&#45;&gt;Node17</title>
<path fill="none" stroke="#63b8ff" d="M1209.48,-124.76C1195.23,-130.62 1178.29,-137.57 1162.54,-144.04"/>
<polygon fill="#63b8ff" stroke="#63b8ff" points="1210.47,-128.14 1218.39,-121.1 1207.81,-121.67 1210.47,-128.14"/>
</g>
<!-- Node18 -->
<g id="node18" class="node">
<title>Node18</title>
<g id="a_node18"><a xlink:href="../../d5/d93/classdoris_1_1_schema_change_handler.html#aa7f160dfe971788c9421c686a6988d9f" target="_top" xlink:title=" ">
<polygon fill="white" stroke="#666666" points="1184,-126 1037,-126 1037,-96 1184,-96 1184,-126"/>
<text text-anchor="start" x="1045" y="-114" font-family="Helvetica,sans-Serif" font-size="10.00">doris::SchemaChangeHandler</text>
<text text-anchor="middle" x="1110.5" y="-103" font-family="Helvetica,sans-Serif" font-size="10.00">::process_alter_tablet_v2</text>
</a>
</g>
</g>
<!-- Node1&#45;&gt;Node18 -->
<g id="edge18" class="edge">
<title>Node1&#45;&gt;Node18</title>
<path fill="none" stroke="#63b8ff" d="M1208.35,-111C1200.89,-111 1192.74,-111 1184.43,-111"/>
<polygon fill="#63b8ff" stroke="#63b8ff" points="1208.28,-114.5 1218.28,-111 1208.28,-107.5 1208.28,-114.5"/>
</g>
<!-- Node20 -->
<g id="node20" class="node">
<title>Node20</title>
<g id="a_node20"><a xlink:href="../../d6/d94/namespacedoris.html#a6486259adb845c3670104e727f3a026b" target="_top" xlink:title=" ">
<polygon fill="white" stroke="#666666" points="1165.5,-78 1055.5,-78 1055.5,-48 1165.5,-48 1165.5,-78"/>
<text text-anchor="start" x="1063.5" y="-66" font-family="Helvetica,sans-Serif" font-size="10.00">doris::request_embed</text>
<text text-anchor="middle" x="1110.5" y="-55" font-family="Helvetica,sans-Serif" font-size="10.00">_attachment</text>
</a>
</g>
</g>
<!-- Node1&#45;&gt;Node20 -->
<g id="edge20" class="edge">
<title>Node1&#45;&gt;Node20</title>
<path fill="none" stroke="#63b8ff" d="M1208.95,-96.7C1200.82,-93.41 1192.13,-90 1184,-87 1176.16,-84.11 1167.79,-81.19 1159.62,-78.43"/>
<polygon fill="#63b8ff" stroke="#63b8ff" points="1207.62,-99.94 1218.2,-100.49 1210.27,-93.46 1207.62,-99.94"/>
</g>
<!-- Node35 -->
<g id="node35" class="node">
<title>Node35</title>
<g id="a_node35"><a xlink:href="../../d3/de9/classdoris_1_1_p_internal_service_impl.html#aaa4a480ad5800b593a4ab1599d8e10dc" target="_top" xlink:title=" ">
<polygon fill="white" stroke="#666666" points="1177.5,-30 1043.5,-30 1043.5,0 1177.5,0 1177.5,-30"/>
<text text-anchor="start" x="1051.5" y="-18" font-family="Helvetica,sans-Serif" font-size="10.00">doris::PInternalServiceImpl</text>
<text text-anchor="middle" x="1110.5" y="-7" font-family="Helvetica,sans-Serif" font-size="10.00">::send_data</text>
</a>
</g>
</g>
<!-- Node1&#45;&gt;Node35 -->
<g id="edge37" class="edge">
<title>Node1&#45;&gt;Node35</title>
<path fill="none" stroke="#63b8ff" d="M1231.5,-91.55C1221.01,-75.37 1204.1,-52.81 1184,-39 1179.3,-35.77 1174.14,-32.95 1168.79,-30.49"/>
<polygon fill="#63b8ff" stroke="#63b8ff" points="1228.39,-93.18 1236.64,-99.83 1234.34,-89.49 1228.39,-93.18"/>
</g>
<!-- Node2&#45;&gt;Node2 -->
<g id="edge10" class="edge">
<title>Node2&#45;&gt;Node2</title>
<path fill="none" stroke="#63b8ff" d="M1133.03,-271.61C1129.42,-275.43 1121.91,-278 1110.5,-278 1089.64,-278 1081.82,-269.41 1087.03,-260.28"/>
<polygon fill="#63b8ff" stroke="#63b8ff" points="1136.5,-272.04 1133.84,-261.78 1129.53,-271.46 1136.5,-272.04"/>
</g>
<!-- Node3 -->
<g id="node3" class="node">
<title>Node3</title>
<g id="a_node3"><a xlink:href="../../d6/d68/classdoris_1_1_small_file_mgr.html#a80e7c79427a2e56388c0c869a78ce6c3" target="_top" xlink:title=" ">
<polygon fill="white" stroke="#666666" points="983.5,-404 882.5,-404 882.5,-374 983.5,-374 983.5,-404"/>
<text text-anchor="start" x="890.5" y="-392" font-family="Helvetica,sans-Serif" font-size="10.00">doris::SmallFileMgr</text>
<text text-anchor="middle" x="933" y="-381" font-family="Helvetica,sans-Serif" font-size="10.00">::_download_file</text>
</a>
</g>
</g>
<!-- Node2&#45;&gt;Node3 -->
<g id="edge2" class="edge">
<title>Node2&#45;&gt;Node3</title>
<path fill="none" stroke="#63b8ff" d="M1092.95,-269.62C1073.72,-296.49 1039.67,-339.12 1001,-365 995.66,-368.57 989.73,-371.69 983.66,-374.38"/>
<polygon fill="#63b8ff" stroke="#63b8ff" points="1095.6,-271.93 1098.47,-261.73 1089.87,-267.91 1095.6,-271.93"/>
</g>
<!-- Node5 -->
<g id="node5" class="node">
<title>Node5</title>
<g id="a_node5"><a xlink:href="../../d3/d7d/classdoris_1_1_user_function_cache.html#a990ee32ae9bf581f8325833b546b8f9a" target="_top" xlink:title=" ">
<polygon fill="white" stroke="#666666" points="998.5,-356 867.5,-356 867.5,-326 998.5,-326 998.5,-356"/>
<text text-anchor="start" x="875.5" y="-344" font-family="Helvetica,sans-Serif" font-size="10.00">doris::UserFunctionCache</text>
<text text-anchor="middle" x="933" y="-333" font-family="Helvetica,sans-Serif" font-size="10.00">::_download_lib</text>
</a>
</g>
</g>
<!-- Node2&#45;&gt;Node5 -->
<g id="edge4" class="edge">
<title>Node2&#45;&gt;Node5</title>
<path fill="none" stroke="#63b8ff" d="M1080.5,-267.05C1059.29,-282.47 1029.39,-302.76 1001,-317 994.82,-320.1 988.13,-323 981.46,-325.62"/>
<polygon fill="#63b8ff" stroke="#63b8ff" points="1082.4,-270 1088.38,-261.25 1078.25,-264.36 1082.4,-270"/>
</g>
<!-- Node10 -->
<g id="node10" class="node">
<title>Node10</title>
<g id="a_node10"><a xlink:href="../../dd/d28/classdoris_1_1_http_client.html#a74f008bc08c0f9cb07460ebd47b18811" target="_top" xlink:title=" ">
<polygon fill="white" stroke="#666666" points="980,-308 886,-308 886,-278 980,-278 980,-308"/>
<text text-anchor="start" x="894" y="-296" font-family="Helvetica,sans-Serif" font-size="10.00">doris::HttpClient::</text>
<text text-anchor="middle" x="933" y="-285" font-family="Helvetica,sans-Serif" font-size="10.00">download</text>
</a>
</g>
</g>
<!-- Node2&#45;&gt;Node10 -->
<g id="edge9" class="edge">
<title>Node2&#45;&gt;Node10</title>
<path fill="none" stroke="#63b8ff" d="M1052.58,-260.57C1029.23,-266.95 1002.55,-274.25 980.41,-280.31"/>
<polygon fill="#63b8ff" stroke="#63b8ff" points="1053.21,-264.02 1061.93,-258.01 1051.36,-257.27 1053.21,-264.02"/>
</g>
<!-- Node11 -->
<g id="node11" class="node">
<title>Node11</title>
<g id="a_node11"><a xlink:href="../../dd/d28/classdoris_1_1_http_client.html#a954aad0243fa00c0fdd0ec0de45344a9" target="_top" xlink:title=" ">
<polygon fill="white" stroke="#666666" points="993,-260 873,-260 873,-230 993,-230 993,-260"/>
<text text-anchor="start" x="881" y="-248" font-family="Helvetica,sans-Serif" font-size="10.00">doris::HttpClient::</text>
<text text-anchor="middle" x="933" y="-237" font-family="Helvetica,sans-Serif" font-size="10.00">execute_delete_request</text>
</a>
</g>
</g>
<!-- Node2&#45;&gt;Node11 -->
<g id="edge11" class="edge">
<title>Node2&#45;&gt;Node11</title>
<path fill="none" stroke="#63b8ff" d="M1051.99,-245C1033.2,-245 1012.29,-245 993.36,-245"/>
<polygon fill="#63b8ff" stroke="#63b8ff" points="1051.88,-248.5 1061.88,-245 1051.88,-241.5 1051.88,-248.5"/>
</g>
<!-- Node13 -->
<g id="node13" class="node">
<title>Node13</title>
<g id="a_node13"><a xlink:href="../../dd/d28/classdoris_1_1_http_client.html#aa334e2c4d296dd94a525c55bde46ae5f" target="_top" xlink:title=" ">
<polygon fill="white" stroke="#666666" points="989.5,-212 876.5,-212 876.5,-182 989.5,-182 989.5,-212"/>
<text text-anchor="start" x="884.5" y="-200" font-family="Helvetica,sans-Serif" font-size="10.00">doris::HttpClient::</text>
<text text-anchor="middle" x="933" y="-189" font-family="Helvetica,sans-Serif" font-size="10.00">execute_post_request</text>
</a>
</g>
</g>
<!-- Node2&#45;&gt;Node13 -->
<g id="edge13" class="edge">
<title>Node2&#45;&gt;Node13</title>
<path fill="none" stroke="#63b8ff" d="M1052.5,-229.41C1032.39,-223.91 1009.82,-217.74 989.81,-212.26"/>
<polygon fill="#63b8ff" stroke="#63b8ff" points="1051.36,-232.73 1061.93,-231.99 1053.21,-225.98 1051.36,-232.73"/>
</g>
<!-- Node16 -->
<g id="node16" class="node">
<title>Node16</title>
<g id="a_node16"><a xlink:href="../../dd/d28/classdoris_1_1_http_client.html#a7956f373127fe8169242a0a97918e27d" target="_top" xlink:title=" ">
<polygon fill="white" stroke="#666666" points="990.5,-163.5 875.5,-163.5 875.5,-144.5 990.5,-144.5 990.5,-163.5"/>
<text text-anchor="middle" x="933" y="-151.5" font-family="Helvetica,sans-Serif" font-size="10.00">doris::HttpClient::head</text>
</a>
</g>
</g>
<!-- Node2&#45;&gt;Node16 -->
<g id="edge16" class="edge">
<title>Node2&#45;&gt;Node16</title>
<path fill="none" stroke="#63b8ff" d="M1077.61,-223.11C1048.6,-203.33 1009.12,-176.73 1001,-173 993.31,-169.46 984.82,-166.44 976.53,-163.91"/>
<polygon fill="#63b8ff" stroke="#63b8ff" points="1075.5,-225.91 1085.73,-228.66 1079.45,-220.13 1075.5,-225.91"/>
</g>
<!-- Node4 -->
<g id="node4" class="node">
<title>Node4</title>
<g id="a_node4"><a xlink:href="../../d6/d68/classdoris_1_1_small_file_mgr.html#a00b6297795875d57df9edb3ff05d8b2a" target="_top" xlink:title=" ">
<polygon fill="white" stroke="#666666" points="814,-404 713,-404 713,-374 814,-374 814,-404"/>
<text text-anchor="start" x="721" y="-392" font-family="Helvetica,sans-Serif" font-size="10.00">doris::SmallFileMgr</text>
<text text-anchor="middle" x="763.5" y="-381" font-family="Helvetica,sans-Serif" font-size="10.00">::get_file</text>
</a>
</g>
</g>
<!-- Node3&#45;&gt;Node4 -->
<g id="edge3" class="edge">
<title>Node3&#45;&gt;Node4</title>
<path fill="none" stroke="#63b8ff" d="M870.88,-389C852.31,-389 832.14,-389 814.4,-389"/>
<polygon fill="#63b8ff" stroke="#63b8ff" points="870.68,-392.5 880.68,-389 870.68,-385.5 870.68,-392.5"/>
</g>
<!-- Node6 -->
<g id="node6" class="node">
<title>Node6</title>
<g id="a_node6"><a xlink:href="../../d3/d7d/classdoris_1_1_user_function_cache.html#a00f95fe24424e62760a82d96efcc24a9" target="_top" xlink:title=" ">
<polygon fill="white" stroke="#666666" points="829,-356 698,-356 698,-326 829,-326 829,-356"/>
<text text-anchor="start" x="706" y="-344" font-family="Helvetica,sans-Serif" font-size="10.00">doris::UserFunctionCache</text>
<text text-anchor="middle" x="763.5" y="-333" font-family="Helvetica,sans-Serif" font-size="10.00">::_load_cache_entry</text>
</a>
</g>
</g>
<!-- Node5&#45;&gt;Node6 -->
<g id="edge5" class="edge">
<title>Node5&#45;&gt;Node6</title>
<path fill="none" stroke="#63b8ff" d="M855.75,-341C846.93,-341 838.01,-341 829.36,-341"/>
<polygon fill="#63b8ff" stroke="#63b8ff" points="855.73,-344.5 865.73,-341 855.73,-337.5 855.73,-344.5"/>
</g>
<!-- Node7 -->
<g id="node7" class="node">
<title>Node7</title>
<g id="a_node7"><a xlink:href="../../d3/d7d/classdoris_1_1_user_function_cache.html#a122f2494920b286ebd65f42d6b5dcdff" target="_top" xlink:title=" ">
<polygon fill="white" stroke="#666666" points="662,-356 531,-356 531,-326 662,-326 662,-356"/>
<text text-anchor="start" x="539" y="-344" font-family="Helvetica,sans-Serif" font-size="10.00">doris::UserFunctionCache</text>
<text text-anchor="middle" x="596.5" y="-333" font-family="Helvetica,sans-Serif" font-size="10.00">::_get_cache_entry</text>
</a>
</g>
</g>
<!-- Node6&#45;&gt;Node7 -->
<g id="edge6" class="edge">
<title>Node6&#45;&gt;Node7</title>
<path fill="none" stroke="#63b8ff" d="M686.45,-341C678.39,-341 670.24,-341 662.32,-341"/>
<polygon fill="#63b8ff" stroke="#63b8ff" points="686.25,-344.5 696.25,-341 686.25,-337.5 686.25,-344.5"/>
</g>
<!-- Node8 -->
<g id="node8" class="node">
<title>Node8</title>
<g id="a_node8"><a xlink:href="../../d3/d7d/classdoris_1_1_user_function_cache.html#a9dd55a5c27973d1b3da9a3fef0d3a65d" target="_top" xlink:title=" ">
<polygon fill="white" stroke="#666666" points="489,-380 358,-380 358,-350 489,-350 489,-380"/>
<text text-anchor="start" x="366" y="-368" font-family="Helvetica,sans-Serif" font-size="10.00">doris::UserFunctionCache</text>
<text text-anchor="middle" x="423.5" y="-357" font-family="Helvetica,sans-Serif" font-size="10.00">::get_function_ptr</text>
</a>
</g>
</g>
<!-- Node7&#45;&gt;Node8 -->
<g id="edge7" class="edge">
<title>Node7&#45;&gt;Node8</title>
<path fill="none" stroke="#63b8ff" d="M519.54,-351.66C509.43,-353.08 499.14,-354.52 489.24,-355.91"/>
<polygon fill="#63b8ff" stroke="#63b8ff" points="519.94,-355.14 529.35,-350.28 518.96,-348.21 519.94,-355.14"/>
</g>
<!-- Node9 -->
<g id="node9" class="node">
<title>Node9</title>
<g id="a_node9"><a xlink:href="../../d3/d7d/classdoris_1_1_user_function_cache.html#a3688b2df69cb82531ec5499f7da5f15a" target="_top" xlink:title=" ">
<polygon fill="white" stroke="#666666" points="489,-332 358,-332 358,-302 489,-302 489,-332"/>
<text text-anchor="start" x="366" y="-320" font-family="Helvetica,sans-Serif" font-size="10.00">doris::UserFunctionCache</text>
<text text-anchor="middle" x="423.5" y="-309" font-family="Helvetica,sans-Serif" font-size="10.00">::get_jarpath</text>
</a>
</g>
</g>
<!-- Node7&#45;&gt;Node9 -->
<g id="edge8" class="edge">
<title>Node7&#45;&gt;Node9</title>
<path fill="none" stroke="#63b8ff" d="M519.54,-330.34C509.43,-328.92 499.14,-327.48 489.24,-326.09"/>
<polygon fill="#63b8ff" stroke="#63b8ff" points="518.96,-333.79 529.35,-331.72 519.94,-326.86 518.96,-333.79"/>
</g>
<!-- Node12 -->
<g id="node12" class="node">
<title>Node12</title>
<g id="a_node12"><a xlink:href="../../dd/d93/classdoris_1_1_e_s_scan_reader.html#aee1c6f7d85af14d039dec07dc31ae862" target="_top" xlink:title=" ">
<polygon fill="white" stroke="#666666" points="819,-260 708,-260 708,-230 819,-230 819,-260"/>
<text text-anchor="start" x="716" y="-248" font-family="Helvetica,sans-Serif" font-size="10.00">doris::ESScanReader</text>
<text text-anchor="middle" x="763.5" y="-237" font-family="Helvetica,sans-Serif" font-size="10.00">::close</text>
</a>
</g>
</g>
<!-- Node11&#45;&gt;Node12 -->
<g id="edge12" class="edge">
<title>Node11&#45;&gt;Node12</title>
<path fill="none" stroke="#63b8ff" d="M861.74,-245C847.59,-245 832.91,-245 819.38,-245"/>
<polygon fill="#63b8ff" stroke="#63b8ff" points="861.43,-248.5 871.43,-245 861.43,-241.5 861.43,-248.5"/>
</g>
<!-- Node14 -->
<g id="node14" class="node">
<title>Node14</title>
<g id="a_node14"><a xlink:href="../../dd/d93/classdoris_1_1_e_s_scan_reader.html#a3ae9fc2841e130d9ff71a86467bc537c" target="_top" xlink:title=" ">
<polygon fill="white" stroke="#666666" points="819,-212 708,-212 708,-182 819,-182 819,-212"/>
<text text-anchor="start" x="716" y="-200" font-family="Helvetica,sans-Serif" font-size="10.00">doris::ESScanReader</text>
<text text-anchor="middle" x="763.5" y="-189" font-family="Helvetica,sans-Serif" font-size="10.00">::get_next</text>
</a>
</g>
</g>
<!-- Node13&#45;&gt;Node14 -->
<g id="edge14" class="edge">
<title>Node13&#45;&gt;Node14</title>
<path fill="none" stroke="#63b8ff" d="M864.88,-197C849.8,-197 833.97,-197 819.46,-197"/>
<polygon fill="#63b8ff" stroke="#63b8ff" points="864.71,-200.5 874.71,-197 864.71,-193.5 864.71,-200.5"/>
</g>
<!-- Node15 -->
<g id="node15" class="node">
<title>Node15</title>
<g id="a_node15"><a xlink:href="../../dd/d93/classdoris_1_1_e_s_scan_reader.html#afbfe7ce3274db0eff63382a83d559439" target="_top" xlink:title=" ">
<polygon fill="white" stroke="#666666" points="819,-164 708,-164 708,-134 819,-134 819,-164"/>
<text text-anchor="start" x="716" y="-152" font-family="Helvetica,sans-Serif" font-size="10.00">doris::ESScanReader</text>
<text text-anchor="middle" x="763.5" y="-141" font-family="Helvetica,sans-Serif" font-size="10.00">::open</text>
</a>
</g>
</g>
<!-- Node13&#45;&gt;Node15 -->
<g id="edge15" class="edge">
<title>Node13&#45;&gt;Node15</title>
<path fill="none" stroke="#63b8ff" d="M867.1,-178.4C850.97,-173.78 833.85,-168.87 818.32,-164.42"/>
<polygon fill="#63b8ff" stroke="#63b8ff" points="866.05,-181.74 876.62,-181.13 867.98,-175.01 866.05,-181.74"/>
</g>
<!-- Node19 -->
<g id="node19" class="node">
<title>Node19</title>
<g id="a_node19"><a xlink:href="../../d7/d20/classdoris_1_1_engine_alter_tablet_task.html#ab0cf7f03970c1cd25cb333e63ffc069d" target="_top" xlink:title=" ">
<polygon fill="white" stroke="#666666" points="993,-126 873,-126 873,-96 993,-96 993,-126"/>
<text text-anchor="start" x="881" y="-114" font-family="Helvetica,sans-Serif" font-size="10.00">doris::EngineAlterTablet</text>
<text text-anchor="middle" x="933" y="-103" font-family="Helvetica,sans-Serif" font-size="10.00">Task::execute</text>
</a>
</g>
</g>
<!-- Node18&#45;&gt;Node19 -->
<g id="edge19" class="edge">
<title>Node18&#45;&gt;Node19</title>
<path fill="none" stroke="#63b8ff" d="M1025.37,-111C1014.55,-111 1003.65,-111 993.34,-111"/>
<polygon fill="#63b8ff" stroke="#63b8ff" points="1025.08,-114.5 1035.08,-111 1025.08,-107.5 1025.08,-114.5"/>
</g>
<!-- Node21 -->
<g id="node21" class="node">
<title>Node21</title>
<g id="a_node21"><a xlink:href="../../d6/d94/namespacedoris.html#a1117854620df512df75b33a23ebd4011" target="_top" xlink:title=" ">
<polygon fill="white" stroke="#666666" points="1001,-78 865,-78 865,-48 1001,-48 1001,-78"/>
<text text-anchor="start" x="873" y="-66" font-family="Helvetica,sans-Serif" font-size="10.00">doris::request_embed</text>
<text text-anchor="middle" x="933" y="-55" font-family="Helvetica,sans-Serif" font-size="10.00">_attachment_contain_block</text>
</a>
</g>
</g>
<!-- Node20&#45;&gt;Node21 -->
<g id="edge21" class="edge">
<title>Node20&#45;&gt;Node21</title>
<path fill="none" stroke="#63b8ff" d="M1043.92,-63C1029.98,-63 1015.23,-63 1001.23,-63"/>
<polygon fill="#63b8ff" stroke="#63b8ff" points="1043.9,-66.5 1053.9,-63 1043.9,-59.5 1043.9,-66.5"/>
</g>
<!-- Node22 -->
<g id="node22" class="node">
<title>Node22</title>
<g id="a_node22"><a xlink:href="../../d6/d94/namespacedoris.html#a5beb9b967bd429ede8fbf6f0114b3f04" target="_top" xlink:title=" ">
<polygon fill="white" stroke="#666666" points="828,-94.5 699,-94.5 699,-75.5 828,-75.5 828,-94.5"/>
<text text-anchor="middle" x="763.5" y="-82.5" font-family="Helvetica,sans-Serif" font-size="10.00">doris::transmit_block_http</text>
</a>
</g>
</g>
<!-- Node21&#45;&gt;Node22 -->
<g id="edge22" class="edge">
<title>Node21&#45;&gt;Node22</title>
<path fill="none" stroke="#63b8ff" d="M853.47,-73.31C845.07,-74.42 836.61,-75.53 828.41,-76.61"/>
<polygon fill="#63b8ff" stroke="#63b8ff" points="853.88,-76.79 863.34,-72.02 852.97,-69.85 853.88,-76.79"/>
</g>
<!-- Node33 -->
<g id="node33" class="node">
<title>Node33</title>
<g id="a_node33"><a xlink:href="../../d3/d24/classdoris_1_1stream__load_1_1_v_node_channel.html#abae4d50a34f2cb19824dbc7824e55679" target="_top" xlink:title=" ">
<polygon fill="white" stroke="#666666" points="816.5,-54.5 710.5,-54.5 710.5,-13.5 816.5,-13.5 816.5,-54.5"/>
<text text-anchor="start" x="718.5" y="-42.5" font-family="Helvetica,sans-Serif" font-size="10.00">doris::stream_load</text>
<text text-anchor="start" x="718.5" y="-31.5" font-family="Helvetica,sans-Serif" font-size="10.00">::VNodeChannel::try</text>
<text text-anchor="middle" x="763.5" y="-20.5" font-family="Helvetica,sans-Serif" font-size="10.00">_send_block</text>
</a>
</g>
</g>
<!-- Node21&#45;&gt;Node33 -->
<g id="edge35" class="edge">
<title>Node21&#45;&gt;Node33</title>
<path fill="none" stroke="#63b8ff" d="M853.53,-49.41C841.14,-47.27 828.59,-45.1 816.98,-43.09"/>
<polygon fill="#63b8ff" stroke="#63b8ff" points="852.89,-52.86 863.35,-51.11 854.09,-45.96 852.89,-52.86"/>
</g>
<!-- Node23 -->
<g id="node23" class="node">
<title>Node23</title>
<g id="a_node23"><a xlink:href="../../d6/df4/classdoris_1_1pipeline_1_1_exchange_sink_buffer.html#ae7fa9ca7cbcc605b418f1c4512468e82" target="_top" xlink:title=" ">
<polygon fill="white" stroke="#666666" points="659.5,-158 533.5,-158 533.5,-128 659.5,-128 659.5,-158"/>
<text text-anchor="start" x="541.5" y="-146" font-family="Helvetica,sans-Serif" font-size="10.00">doris::pipeline::Exchange</text>
<text text-anchor="middle" x="596.5" y="-135" font-family="Helvetica,sans-Serif" font-size="10.00">SinkBuffer::_send_rpc</text>
</a>
</g>
</g>
<!-- Node22&#45;&gt;Node23 -->
<g id="edge23" class="edge">
<title>Node22&#45;&gt;Node23</title>
<path fill="none" stroke="#63b8ff" d="M723.36,-98.76C698.7,-107.43 666.81,-118.64 641.3,-127.6"/>
<polygon fill="#63b8ff" stroke="#63b8ff" points="724.43,-102.09 732.71,-95.47 722.11,-95.49 724.43,-102.09"/>
</g>
<!-- Node27 -->
<g id="node27" class="node">
<title>Node27</title>
<g id="a_node27"><a xlink:href="../../d9/d08/classdoris_1_1vectorized_1_1_channel.html#a0c27bc94400627799fe7b677ae0639cc" target="_top" xlink:title=" ">
<polygon fill="white" stroke="#666666" points="650.5,-100 542.5,-100 542.5,-70 650.5,-70 650.5,-100"/>
<text text-anchor="start" x="550.5" y="-88" font-family="Helvetica,sans-Serif" font-size="10.00">doris::vectorized::</text>
<text text-anchor="middle" x="596.5" y="-77" font-family="Helvetica,sans-Serif" font-size="10.00">Channel::send_block</text>
</a>
</g>
</g>
<!-- Node22&#45;&gt;Node27 -->
<g id="edge28" class="edge">
<title>Node22&#45;&gt;Node27</title>
<path fill="none" stroke="#63b8ff" d="M687.48,-85C675.16,-85 662.61,-85 650.96,-85"/>
<polygon fill="#63b8ff" stroke="#63b8ff" points="687.19,-88.5 697.19,-85 687.19,-81.5 687.19,-88.5"/>
</g>
<!-- Node23&#45;&gt;Node23 -->
<g id="edge24" class="edge">
<title>Node23&#45;&gt;Node23</title>
<path fill="none" stroke="#63b8ff" d="M624.68,-169.61C620.16,-173.43 610.77,-176 596.5,-176 570.41,-176 560.62,-167.41 567.14,-158.28"/>
<polygon fill="#63b8ff" stroke="#63b8ff" points="628.15,-170.09 625.7,-159.78 621.18,-169.37 628.15,-170.09"/>
</g>
<!-- Node24 -->
<g id="node24" class="node">
<title>Node24</title>
<g id="a_node24"><a xlink:href="../../d6/df4/classdoris_1_1pipeline_1_1_exchange_sink_buffer.html#a6bf5c5e10d840ac7f687a74699645e91" target="_top" xlink:title=" ">
<polygon fill="white" stroke="#666666" points="486.5,-177 360.5,-177 360.5,-147 486.5,-147 486.5,-177"/>
<text text-anchor="start" x="368.5" y="-165" font-family="Helvetica,sans-Serif" font-size="10.00">doris::pipeline::Exchange</text>
<text text-anchor="middle" x="423.5" y="-154" font-family="Helvetica,sans-Serif" font-size="10.00">SinkBuffer::add_block</text>
</a>
</g>
</g>
<!-- Node23&#45;&gt;Node24 -->
<g id="edge25" class="edge">
<title>Node23&#45;&gt;Node24</title>
<path fill="none" stroke="#63b8ff" d="M522.16,-151.15C510.44,-152.45 498.4,-153.79 486.96,-155.06"/>
<polygon fill="#63b8ff" stroke="#63b8ff" points="522.22,-154.66 531.78,-150.08 521.45,-147.71 522.22,-154.66"/>
</g>
<!-- Node25 -->
<g id="node25" class="node">
<title>Node25</title>
<g id="a_node25"><a xlink:href="../../da/d7b/classdoris_1_1vectorized_1_1_pip_channel.html#abc87cb3fe080d337daec540b52526f53" target="_top" xlink:title=" ">
<polygon fill="white" stroke="#666666" points="316,-177 194,-177 194,-147 316,-147 316,-177"/>
<text text-anchor="start" x="202" y="-165" font-family="Helvetica,sans-Serif" font-size="10.00">doris::vectorized::</text>
<text text-anchor="middle" x="255" y="-154" font-family="Helvetica,sans-Serif" font-size="10.00">PipChannel::send_block</text>
</a>
</g>
</g>
<!-- Node24&#45;&gt;Node25 -->
<g id="edge26" class="edge">
<title>Node24&#45;&gt;Node25</title>
<path fill="none" stroke="#63b8ff" d="M348.82,-162C337.96,-162 326.88,-162 316.34,-162"/>
<polygon fill="#63b8ff" stroke="#63b8ff" points="348.51,-165.5 358.51,-162 348.51,-158.5 348.51,-165.5"/>
</g>
<!-- Node26 -->
<g id="node26" class="node">
<title>Node26</title>
<g id="a_node26"><a xlink:href="../../da/d7b/classdoris_1_1vectorized_1_1_pip_channel.html#a68ad42171b2669c2525ceacbbcd0c21d" target="_top" xlink:title=" ">
<polygon fill="white" stroke="#666666" points="158,-177 0,-177 0,-147 158,-147 158,-177"/>
<text text-anchor="start" x="8" y="-165" font-family="Helvetica,sans-Serif" font-size="10.00">doris::vectorized::</text>
<text text-anchor="middle" x="79" y="-154" font-family="Helvetica,sans-Serif" font-size="10.00">PipChannel::send_current_block</text>
</a>
</g>
</g>
<!-- Node25&#45;&gt;Node26 -->
<g id="edge27" class="edge">
<title>Node25&#45;&gt;Node26</title>
<path fill="none" stroke="#63b8ff" d="M182.24,-162C174.35,-162 166.3,-162 158.34,-162"/>
<polygon fill="#63b8ff" stroke="#63b8ff" points="182.12,-165.5 192.12,-162 182.12,-158.5 182.12,-165.5"/>
</g>
<!-- Node28 -->
<g id="node28" class="node">
<title>Node28</title>
<g id="a_node28"><a xlink:href="../../d9/d08/classdoris_1_1vectorized_1_1_channel.html#a13d55729866c5017614abb0de589237d" target="_top" xlink:title=" ">
<polygon fill="white" stroke="#666666" points="314.5,-110 195.5,-110 195.5,-80 314.5,-80 314.5,-110"/>
<text text-anchor="start" x="203.5" y="-98" font-family="Helvetica,sans-Serif" font-size="10.00">doris::vectorized::</text>
<text text-anchor="middle" x="255" y="-87" font-family="Helvetica,sans-Serif" font-size="10.00">Channel::close_internal</text>
</a>
</g>
</g>
<!-- Node27&#45;&gt;Node28 -->
<g id="edge29" class="edge">
<title>Node27&#45;&gt;Node28</title>
<path fill="none" stroke="#63b8ff" d="M530.95,-96.08C519.03,-97.71 506.67,-99.13 495,-100 431.62,-104.7 415.53,-101.65 352,-100 339.99,-99.69 327.14,-99.16 314.87,-98.55"/>
<polygon fill="#63b8ff" stroke="#63b8ff" points="531.31,-99.56 540.71,-94.67 530.31,-92.63 531.31,-99.56"/>
</g>
<!-- Node30 -->
<g id="node30" class="node">
<title>Node30</title>
<g id="a_node30"><a xlink:href="../../d3/dca/classdoris_1_1vectorized_1_1_v_data_stream_sender.html#ae6e28a41372229bdbf6076675d85615d" target="_top" xlink:title=" ">
<polygon fill="white" stroke="#666666" points="490.5,-91 356.5,-91 356.5,-61 490.5,-61 490.5,-91"/>
<text text-anchor="start" x="364.5" y="-79" font-family="Helvetica,sans-Serif" font-size="10.00">doris::vectorized::</text>
<text text-anchor="middle" x="423.5" y="-68" font-family="Helvetica,sans-Serif" font-size="10.00">VDataStreamSender::send</text>
</a>
</g>
</g>
<!-- Node27&#45;&gt;Node30 -->
<g id="edge31" class="edge">
<title>Node27&#45;&gt;Node30</title>
<path fill="none" stroke="#63b8ff" d="M531.02,-81.61C517.91,-80.92 504.09,-80.19 490.91,-79.5"/>
<polygon fill="#63b8ff" stroke="#63b8ff" points="530.65,-85.09 540.82,-82.12 531.02,-78.1 530.65,-85.09"/>
</g>
<!-- Node31 -->
<g id="node31" class="node">
<title>Node31</title>
<g id="a_node31"><a xlink:href="../../d9/d08/classdoris_1_1vectorized_1_1_channel.html#a2b293ca3505c879c10f473314a8cffdb" target="_top" xlink:title=" ">
<polygon fill="white" stroke="#666666" points="495,-43 352,-43 352,-13 495,-13 495,-43"/>
<text text-anchor="start" x="360" y="-31" font-family="Helvetica,sans-Serif" font-size="10.00">doris::vectorized::</text>
<text text-anchor="middle" x="423.5" y="-20" font-family="Helvetica,sans-Serif" font-size="10.00">Channel::send_current_block</text>
</a>
</g>
</g>
<!-- Node27&#45;&gt;Node31 -->
<g id="edge32" class="edge">
<title>Node27&#45;&gt;Node31</title>
<path fill="none" stroke="#63b8ff" d="M538.37,-65.96C516.41,-58.64 491.63,-50.38 470.81,-43.44"/>
<polygon fill="#63b8ff" stroke="#63b8ff" points="537.2,-69.25 547.79,-69.1 539.41,-62.61 537.2,-69.25"/>
</g>
<!-- Node29 -->
<g id="node29" class="node">
<title>Node29</title>
<g id="a_node29"><a xlink:href="../../d9/d08/classdoris_1_1vectorized_1_1_channel.html#a4cd0274c89d380200b7a409715948fc3" target="_top" xlink:title=" ">
<polygon fill="white" stroke="#666666" points="126.5,-110 31.5,-110 31.5,-80 126.5,-80 126.5,-110"/>
<text text-anchor="start" x="39.5" y="-98" font-family="Helvetica,sans-Serif" font-size="10.00">doris::vectorized::</text>
<text text-anchor="middle" x="79" y="-87" font-family="Helvetica,sans-Serif" font-size="10.00">Channel::close</text>
</a>
</g>
</g>
<!-- Node28&#45;&gt;Node29 -->
<g id="edge30" class="edge">
<title>Node28&#45;&gt;Node29</title>
<path fill="none" stroke="#63b8ff" d="M183.66,-95C164.51,-95 144.24,-95 126.76,-95"/>
<polygon fill="#63b8ff" stroke="#63b8ff" points="183.58,-98.5 193.58,-95 183.58,-91.5 183.58,-98.5"/>
</g>
<!-- Node31&#45;&gt;Node28 -->
<g id="edge34" class="edge">
<title>Node31&#45;&gt;Node28</title>
<path fill="none" stroke="#63b8ff" d="M364.59,-47.23C360.32,-48.8 356.08,-50.4 352,-52 330.59,-60.42 307,-70.97 288.56,-79.51"/>
<polygon fill="#63b8ff" stroke="#63b8ff" points="365.6,-50.58 373.83,-43.92 363.24,-44 365.6,-50.58"/>
</g>
<!-- Node32 -->
<g id="node32" class="node">
<title>Node32</title>
<g id="a_node32"><a xlink:href="../../d9/d08/classdoris_1_1vectorized_1_1_channel.html#a48c290ba2be0c5b3eb2c771cb5b92f0f" target="_top" xlink:title=" ">
<polygon fill="white" stroke="#666666" points="305.5,-43 204.5,-43 204.5,-13 305.5,-13 305.5,-43"/>
<text text-anchor="start" x="212.5" y="-31" font-family="Helvetica,sans-Serif" font-size="10.00">doris::vectorized::</text>
<text text-anchor="middle" x="255" y="-20" font-family="Helvetica,sans-Serif" font-size="10.00">Channel::add_rows</text>
</a>
</g>
</g>
<!-- Node31&#45;&gt;Node32 -->
<g id="edge33" class="edge">
<title>Node31&#45;&gt;Node32</title>
<path fill="none" stroke="#63b8ff" d="M340.48,-28C328.54,-28 316.56,-28 305.53,-28"/>
<polygon fill="#63b8ff" stroke="#63b8ff" points="340.38,-31.5 350.38,-28 340.38,-24.5 340.38,-31.5"/>
</g>
<!-- Node34 -->
<g id="node34" class="node">
<title>Node34</title>
<g id="a_node34"><a xlink:href="../../d3/d24/classdoris_1_1stream__load_1_1_v_node_channel.html#a63c429d7ef9b59e59df3aa715c8d230a" target="_top" xlink:title=" ">
<polygon fill="white" stroke="#666666" points="658,-51.5 535,-51.5 535,-10.5 658,-10.5 658,-51.5"/>
<text text-anchor="start" x="543" y="-39.5" font-family="Helvetica,sans-Serif" font-size="10.00">doris::stream_load</text>
<text text-anchor="start" x="543" y="-28.5" font-family="Helvetica,sans-Serif" font-size="10.00">::VNodeChannel::try</text>
<text text-anchor="middle" x="596.5" y="-17.5" font-family="Helvetica,sans-Serif" font-size="10.00">_send_and_fetch_status</text>
</a>
</g>
</g>
<!-- Node33&#45;&gt;Node34 -->
<g id="edge36" class="edge">
<title>Node33&#45;&gt;Node34</title>
<path fill="none" stroke="#63b8ff" d="M698.81,-32.84C685.5,-32.6 671.5,-32.35 658.3,-32.11"/>
<polygon fill="#63b8ff" stroke="#63b8ff" points="698.72,-36.34 708.78,-33.02 698.84,-29.34 698.72,-36.34"/>
</g>
</g>
</svg>
