<?xml version="1.0" encoding="UTF-8" standalone="no"?>
<!DOCTYPE svg PUBLIC "-//W3C//DTD SVG 1.1//EN"
 "http://www.w3.org/Graphics/SVG/1.1/DTD/svg11.dtd">
<!-- Generated by graphviz version 7.1.0 (20230121.1956)
 -->
<!-- Title: set_precision Pages: 1 -->
<!--zoomable 190 -->
<svg id="main" version="1.1" xmlns="http://www.w3.org/2000/svg" xmlns:xlink="http://www.w3.org/1999/xlink" xml:space="preserve" onload="init(evt)">
<style type="text/css"><![CDATA[
.edge:hover path { stroke: red; }
.edge:hover polygon { stroke: red; fill: red; }
]]></style>
<script type="text/javascript"><![CDATA[
var edges = document.getElementsByTagName('g');
if (edges && edges.length) {
  for (var i=0;i<edges.length;i++) {
    if (edges[i].id.substr(0,4)=='edge') {
      edges[i].setAttribute('class','edge');
    }
  }
}
]]></script>
        <defs>
                <circle id="rim" cx="0" cy="0" r="7"/>
                <circle id="rim2" cx="0" cy="0" r="3.5"/>
                <g id="zoomPlus">
                        <use xlink:href="#rim" fill="#404040">
                                <set attributeName="fill" to="#808080" begin="zoomplus.mouseover" end="zoomplus.mouseout"/>
                        </use>
                        <path d="M-4,0h8M0,-4v8" fill="none" stroke="white" stroke-width="1.5" pointer-events="none"/>
                </g>
                <g id="zoomMin">
                        <use xlink:href="#rim" fill="#404040">
                                <set attributeName="fill" to="#808080" begin="zoomminus.mouseover" end="zoomminus.mouseout"/>
                        </use>
                        <path d="M-4,0h8" fill="none" stroke="white" stroke-width="1.5" pointer-events="none"/>
                </g>
                <g id="dirArrow">
                        <path fill="none" stroke="white" stroke-width="1.5" d="M0,-3.0v7 M-2.5,-0.5L0,-3.0L2.5,-0.5"/>
                </g>
               <g id="resetDef">
                       <use xlink:href="#rim2" fill="#404040">
                               <set attributeName="fill" to="#808080" begin="reset.mouseover" end="reset.mouseout"/>
                       </use>
               </g>
        </defs>

<script type="text/javascript">
var viewWidth = 1432;
var viewHeight = 190;
var sectionId = 'dynsection-37';
</script>
<script xlink:href="../../svgpan.js"/>
<svg id="graph" class="graph">
<g id="viewport">
<title>set_precision</title>
<!-- Node1 -->
<g id="node1" class="node">
<title>Node1</title>
<g id="a_node1"><a xlink:title=" ">
<polygon fill="#999999" stroke="#666666" points="1424,-96.5 1350,-96.5 1350,-77.5 1424,-77.5 1424,-96.5"/>
<text text-anchor="middle" x="1387" y="-84.5" font-family="Helvetica,sans-Serif" font-size="10.00">set_precision</text>
</a>
</g>
</g>
<!-- Node2 -->
<g id="node2" class="node">
<title>Node2</title>
<g id="a_node2"><a xlink:href="../../dd/da2/classdoris_1_1_field_factory.html#a1e2af113b32961ac6eaef4bf29f2b2af" target="_top" xlink:title=" ">
<polygon fill="white" stroke="#666666" points="1314,-102 1216,-102 1216,-72 1314,-72 1314,-102"/>
<text text-anchor="start" x="1224" y="-90" font-family="Helvetica,sans-Serif" font-size="10.00">doris::FieldFactory</text>
<text text-anchor="middle" x="1265" y="-79" font-family="Helvetica,sans-Serif" font-size="10.00">::create</text>
</a>
</g>
</g>
<!-- Node1&#45;&gt;Node2 -->
<g id="edge1" class="edge">
<title>Node1&#45;&gt;Node2</title>
<path fill="none" stroke="#63b8ff" d="M1338.32,-87C1330.37,-87 1322.13,-87 1314.18,-87"/>
<polygon fill="#63b8ff" stroke="#63b8ff" points="1338.16,-90.5 1348.16,-87 1338.16,-83.5 1338.16,-90.5"/>
</g>
<!-- Node2&#45;&gt;Node2 -->
<g id="edge7" class="edge">
<title>Node2&#45;&gt;Node2</title>
<path fill="none" stroke="#63b8ff" d="M1285.58,-113.61C1282.29,-117.43 1275.42,-120 1265,-120 1245.94,-120 1238.79,-111.41 1243.55,-102.28"/>
<polygon fill="#63b8ff" stroke="#63b8ff" points="1289.06,-114.02 1286.33,-103.78 1282.08,-113.49 1289.06,-114.02"/>
</g>
<!-- Node3 -->
<g id="node3" class="node">
<title>Node3</title>
<g id="a_node3"><a xlink:href="../../db/d8f/classdoris_1_1_schema.html#a34ef225e80f30801b463d530e93c7d2f" target="_top" xlink:title=" ">
<polygon fill="white" stroke="#666666" points="1177.5,-181.5 1073.5,-181.5 1073.5,-162.5 1177.5,-162.5 1177.5,-181.5"/>
<text text-anchor="middle" x="1125.5" y="-169.5" font-family="Helvetica,sans-Serif" font-size="10.00">doris::Schema::_init</text>
</a>
</g>
</g>
<!-- Node2&#45;&gt;Node3 -->
<g id="edge2" class="edge">
<title>Node2&#45;&gt;Node3</title>
<path fill="none" stroke="#63b8ff" d="M1239.53,-109.73C1223.54,-123.67 1201.65,-141.07 1180,-153 1173.7,-156.47 1166.64,-159.51 1159.77,-162.08"/>
<polygon fill="#63b8ff" stroke="#63b8ff" points="1241.5,-112.66 1246.65,-103.4 1236.85,-107.43 1241.5,-112.66"/>
</g>
<!-- Node5 -->
<g id="node5" class="node">
<title>Node5</title>
<g id="a_node5"><a xlink:href="../../dc/d7c/classdoris_1_1segment__v2_1_1_column_writer.html#a6cb958085a0e31bf0fa475d9f9b20d33" target="_top" xlink:title=" ">
<polygon fill="white" stroke="#666666" points="1180,-126 1071,-126 1071,-96 1180,-96 1180,-126"/>
<text text-anchor="start" x="1079" y="-114" font-family="Helvetica,sans-Serif" font-size="10.00">doris::segment_v2::</text>
<text text-anchor="middle" x="1125.5" y="-103" font-family="Helvetica,sans-Serif" font-size="10.00">ColumnWriter::create</text>
</a>
</g>
</g>
<!-- Node2&#45;&gt;Node5 -->
<g id="edge4" class="edge">
<title>Node2&#45;&gt;Node5</title>
<path fill="none" stroke="#63b8ff" d="M1204.32,-97.42C1196.28,-98.82 1188.08,-100.25 1180.16,-101.63"/>
<polygon fill="#63b8ff" stroke="#63b8ff" points="1204.78,-100.89 1214.03,-95.72 1203.58,-93.99 1204.78,-100.89"/>
</g>
<!-- Node7 -->
<g id="node7" class="node">
<title>Node7</title>
<g id="a_node7"><a xlink:href="../../d9/dfb/classdoris_1_1_wrapper_field.html#a30eee30b69ea27cb3c3e5e2a5ec8d127" target="_top" xlink:title=" ">
<polygon fill="white" stroke="#666666" points="1176,-78 1075,-78 1075,-48 1176,-48 1176,-78"/>
<text text-anchor="start" x="1083" y="-66" font-family="Helvetica,sans-Serif" font-size="10.00">doris::WrapperField</text>
<text text-anchor="middle" x="1125.5" y="-55" font-family="Helvetica,sans-Serif" font-size="10.00">::create</text>
</a>
</g>
</g>
<!-- Node2&#45;&gt;Node7 -->
<g id="edge8" class="edge">
<title>Node2&#45;&gt;Node7</title>
<path fill="none" stroke="#63b8ff" d="M1204.32,-76.58C1195.01,-74.96 1185.47,-73.29 1176.4,-71.71"/>
<polygon fill="#63b8ff" stroke="#63b8ff" points="1203.58,-80.01 1214.03,-78.28 1204.78,-73.11 1203.58,-80.01"/>
</g>
<!-- Node14 -->
<g id="node14" class="node">
<title>Node14</title>
<g id="a_node14"><a xlink:href="../../dd/da2/classdoris_1_1_field_factory.html#aeece6778c22be076313a2c96ef6ef377" target="_top" xlink:title=" ">
<polygon fill="white" stroke="#666666" points="1174.5,-30 1076.5,-30 1076.5,0 1174.5,0 1174.5,-30"/>
<text text-anchor="start" x="1084.5" y="-18" font-family="Helvetica,sans-Serif" font-size="10.00">doris::FieldFactory</text>
<text text-anchor="middle" x="1125.5" y="-7" font-family="Helvetica,sans-Serif" font-size="10.00">::create_by_type</text>
</a>
</g>
</g>
<!-- Node2&#45;&gt;Node14 -->
<g id="edge15" class="edge">
<title>Node2&#45;&gt;Node14</title>
<path fill="none" stroke="#63b8ff" d="M1228.81,-65.87C1213.93,-57.21 1196.3,-47.29 1180,-39 1174.28,-36.09 1168.14,-33.16 1162.13,-30.4"/>
<polygon fill="#63b8ff" stroke="#63b8ff" points="1226.92,-68.82 1237.32,-70.87 1230.47,-62.79 1226.92,-68.82"/>
</g>
<!-- Node4 -->
<g id="node4" class="node">
<title>Node4</title>
<g id="a_node4"><a xlink:href="../../db/d8f/classdoris_1_1_schema.html#a9e1d30f938764fb8e0d302459295e24c" target="_top" xlink:title=" ">
<polygon fill="white" stroke="#666666" points="1022.5,-181.5 900.5,-181.5 900.5,-162.5 1022.5,-162.5 1022.5,-181.5"/>
<text text-anchor="middle" x="961.5" y="-169.5" font-family="Helvetica,sans-Serif" font-size="10.00">doris::Schema::Schema</text>
</a>
</g>
</g>
<!-- Node3&#45;&gt;Node4 -->
<g id="edge3" class="edge">
<title>Node3&#45;&gt;Node4</title>
<path fill="none" stroke="#63b8ff" d="M1062.1,-172C1049.18,-172 1035.6,-172 1022.77,-172"/>
<polygon fill="#63b8ff" stroke="#63b8ff" points="1061.73,-175.5 1071.73,-172 1061.73,-168.5 1061.73,-175.5"/>
</g>
<!-- Node5&#45;&gt;Node5 -->
<g id="edge5" class="edge">
<title>Node5&#45;&gt;Node5</title>
<path fill="none" stroke="#63b8ff" d="M1149.04,-137.61C1145.27,-141.43 1137.42,-144 1125.5,-144 1103.7,-144 1095.53,-135.41 1100.98,-126.28"/>
<polygon fill="#63b8ff" stroke="#63b8ff" points="1152.51,-138.05 1149.89,-127.78 1145.54,-137.44 1152.51,-138.05"/>
</g>
<!-- Node6 -->
<g id="node6" class="node">
<title>Node6</title>
<g id="a_node6"><a xlink:href="../../dd/db2/classdoris_1_1segment__v2_1_1_segment_writer.html#a69520bf7a8bcf5791b326063929e7c68" target="_top" xlink:title=" ">
<polygon fill="white" stroke="#666666" points="1013,-126 910,-126 910,-96 1013,-96 1013,-126"/>
<text text-anchor="start" x="918" y="-114" font-family="Helvetica,sans-Serif" font-size="10.00">doris::segment_v2::</text>
<text text-anchor="middle" x="961.5" y="-103" font-family="Helvetica,sans-Serif" font-size="10.00">SegmentWriter::init</text>
</a>
</g>
</g>
<!-- Node5&#45;&gt;Node6 -->
<g id="edge6" class="edge">
<title>Node5&#45;&gt;Node6</title>
<path fill="none" stroke="#63b8ff" d="M1059.12,-111C1043.91,-111 1027.94,-111 1013.47,-111"/>
<polygon fill="#63b8ff" stroke="#63b8ff" points="1059.04,-114.5 1069.04,-111 1059.04,-107.5 1059.04,-114.5"/>
</g>
<!-- Node8 -->
<g id="node8" class="node">
<title>Node8</title>
<g id="a_node8"><a xlink:href="../../d5/d93/classdoris_1_1_schema_change_handler.html#a00c1ce1a96d782c6015a63dc129a9afc" target="_top" xlink:title=" ">
<polygon fill="white" stroke="#666666" points="1035,-78 888,-78 888,-48 1035,-48 1035,-78"/>
<text text-anchor="start" x="896" y="-66" font-family="Helvetica,sans-Serif" font-size="10.00">doris::SchemaChangeHandler</text>
<text text-anchor="middle" x="961.5" y="-55" font-family="Helvetica,sans-Serif" font-size="10.00">::_init_column_mapping</text>
</a>
</g>
</g>
<!-- Node7&#45;&gt;Node8 -->
<g id="edge9" class="edge">
<title>Node7&#45;&gt;Node8</title>
<path fill="none" stroke="#63b8ff" d="M1063.3,-63C1054.22,-63 1044.78,-63 1035.49,-63"/>
<polygon fill="#63b8ff" stroke="#63b8ff" points="1063.06,-66.5 1073.06,-63 1063.06,-59.5 1063.06,-66.5"/>
</g>
<!-- Node9 -->
<g id="node9" class="node">
<title>Node9</title>
<g id="a_node9"><a xlink:href="../../d5/d93/classdoris_1_1_schema_change_handler.html#a158ac5f3db97560c7b015bf12f441693" target="_top" xlink:title=" ">
<polygon fill="white" stroke="#666666" points="852,-78 705,-78 705,-48 852,-48 852,-78"/>
<text text-anchor="start" x="713" y="-66" font-family="Helvetica,sans-Serif" font-size="10.00">doris::SchemaChangeHandler</text>
<text text-anchor="middle" x="778.5" y="-55" font-family="Helvetica,sans-Serif" font-size="10.00">::_parse_request</text>
</a>
</g>
</g>
<!-- Node8&#45;&gt;Node9 -->
<g id="edge10" class="edge">
<title>Node8&#45;&gt;Node9</title>
<path fill="none" stroke="#63b8ff" d="M876.15,-63C868.24,-63 860.27,-63 852.48,-63"/>
<polygon fill="#63b8ff" stroke="#63b8ff" points="876.15,-66.5 886.15,-63 876.15,-59.5 876.15,-66.5"/>
</g>
<!-- Node10 -->
<g id="node10" class="node">
<title>Node10</title>
<g id="a_node10"><a xlink:href="../../d5/d93/classdoris_1_1_schema_change_handler.html#a4695eea517ee59a8ab9f7cf442c1ac24" target="_top" xlink:title=" ">
<polygon fill="white" stroke="#666666" points="669,-78 522,-78 522,-48 669,-48 669,-78"/>
<text text-anchor="start" x="530" y="-66" font-family="Helvetica,sans-Serif" font-size="10.00">doris::SchemaChangeHandler</text>
<text text-anchor="middle" x="595.5" y="-55" font-family="Helvetica,sans-Serif" font-size="10.00">::_convert_historical_rowsets</text>
</a>
</g>
</g>
<!-- Node9&#45;&gt;Node10 -->
<g id="edge11" class="edge">
<title>Node9&#45;&gt;Node10</title>
<path fill="none" stroke="#63b8ff" d="M693.15,-63C685.24,-63 677.27,-63 669.48,-63"/>
<polygon fill="#63b8ff" stroke="#63b8ff" points="693.15,-66.5 703.15,-63 693.15,-59.5 693.15,-66.5"/>
</g>
<!-- Node11 -->
<g id="node11" class="node">
<title>Node11</title>
<g id="a_node11"><a xlink:href="../../d5/d93/classdoris_1_1_schema_change_handler.html#a70eb38465eb761d944f32619f780a563" target="_top" xlink:title=" ">
<polygon fill="white" stroke="#666666" points="486,-78 339,-78 339,-48 486,-48 486,-78"/>
<text text-anchor="start" x="347" y="-66" font-family="Helvetica,sans-Serif" font-size="10.00">doris::SchemaChangeHandler</text>
<text text-anchor="middle" x="412.5" y="-55" font-family="Helvetica,sans-Serif" font-size="10.00">::_do_process_alter_tablet_v2</text>
</a>
</g>
</g>
<!-- Node10&#45;&gt;Node11 -->
<g id="edge12" class="edge">
<title>Node10&#45;&gt;Node11</title>
<path fill="none" stroke="#63b8ff" d="M510.15,-63C502.24,-63 494.27,-63 486.48,-63"/>
<polygon fill="#63b8ff" stroke="#63b8ff" points="510.15,-66.5 520.15,-63 510.15,-59.5 510.15,-66.5"/>
</g>
<!-- Node12 -->
<g id="node12" class="node">
<title>Node12</title>
<g id="a_node12"><a xlink:href="../../d5/d93/classdoris_1_1_schema_change_handler.html#aa7f160dfe971788c9421c686a6988d9f" target="_top" xlink:title=" ">
<polygon fill="white" stroke="#666666" points="303,-78 156,-78 156,-48 303,-48 303,-78"/>
<text text-anchor="start" x="164" y="-66" font-family="Helvetica,sans-Serif" font-size="10.00">doris::SchemaChangeHandler</text>
<text text-anchor="middle" x="229.5" y="-55" font-family="Helvetica,sans-Serif" font-size="10.00">::process_alter_tablet_v2</text>
</a>
</g>
</g>
<!-- Node11&#45;&gt;Node12 -->
<g id="edge13" class="edge">
<title>Node11&#45;&gt;Node12</title>
<path fill="none" stroke="#63b8ff" d="M327.15,-63C319.24,-63 311.27,-63 303.48,-63"/>
<polygon fill="#63b8ff" stroke="#63b8ff" points="327.15,-66.5 337.15,-63 327.15,-59.5 327.15,-66.5"/>
</g>
<!-- Node13 -->
<g id="node13" class="node">
<title>Node13</title>
<g id="a_node13"><a xlink:href="../../d7/d20/classdoris_1_1_engine_alter_tablet_task.html#ab0cf7f03970c1cd25cb333e63ffc069d" target="_top" xlink:title=" ">
<polygon fill="white" stroke="#666666" points="120,-78 0,-78 0,-48 120,-48 120,-78"/>
<text text-anchor="start" x="8" y="-66" font-family="Helvetica,sans-Serif" font-size="10.00">doris::EngineAlterTablet</text>
<text text-anchor="middle" x="60" y="-55" font-family="Helvetica,sans-Serif" font-size="10.00">Task::execute</text>
</a>
</g>
</g>
<!-- Node12&#45;&gt;Node13 -->
<g id="edge14" class="edge">
<title>Node12&#45;&gt;Node13</title>
<path fill="none" stroke="#63b8ff" d="M144.19,-63C136.17,-63 128.14,-63 120.42,-63"/>
<polygon fill="#63b8ff" stroke="#63b8ff" points="144.01,-66.5 154.01,-63 144.01,-59.5 144.01,-66.5"/>
</g>
<!-- Node15 -->
<g id="node15" class="node">
<title>Node15</title>
<g id="a_node15"><a xlink:href="../../d9/dfb/classdoris_1_1_wrapper_field.html#a55cb93598a67157be48278cab17c1a83" target="_top" xlink:title=" ">
<polygon fill="white" stroke="#666666" points="1012,-30 911,-30 911,0 1012,0 1012,-30"/>
<text text-anchor="start" x="919" y="-18" font-family="Helvetica,sans-Serif" font-size="10.00">doris::WrapperField</text>
<text text-anchor="middle" x="961.5" y="-7" font-family="Helvetica,sans-Serif" font-size="10.00">::create_by_type</text>
</a>
</g>
</g>
<!-- Node14&#45;&gt;Node15 -->
<g id="edge16" class="edge">
<title>Node14&#45;&gt;Node15</title>
<path fill="none" stroke="#63b8ff" d="M1065.19,-15C1047.87,-15 1029.13,-15 1012.45,-15"/>
<polygon fill="#63b8ff" stroke="#63b8ff" points="1064.82,-18.5 1074.82,-15 1064.82,-11.5 1064.82,-18.5"/>
</g>
</g>
</svg>
        <g id="navigator" transform="translate(0 0)" fill="#404254">
                <rect fill="#f2f5e9" fill-opacity="0.5" stroke="#606060" stroke-width=".5" x="0" y="0" width="60" height="60"/>
                <use id="zoomplus" xlink:href="#zoomPlus" x="17" y="9" onmousedown="handleZoom(evt,'in')"/>
                <use id="zoomminus" xlink:href="#zoomMin" x="42" y="9" onmousedown="handleZoom(evt,'out')"/>
                <use id="reset" xlink:href="#resetDef" x="30" y="36" onmousedown="handleReset()"/>
                <g id="arrowUp" xlink:href="#dirArrow" transform="translate(30 24)" onmousedown="handlePan(0,-1)">
                  <use xlink:href="#rim" fill="#404040">
                        <set attributeName="fill" to="#808080" begin="arrowUp.mouseover" end="arrowUp.mouseout"/>
                  </use>
                  <path fill="none" stroke="white" stroke-width="1.5" d="M0,-3.0v7 M-2.5,-0.5L0,-3.0L2.5,-0.5"/>
                </g>
                <g id="arrowRight" xlink:href="#dirArrow" transform="rotate(90) translate(36 -43)" onmousedown="handlePan(1,0)">
                  <use xlink:href="#rim" fill="#404040">
                        <set attributeName="fill" to="#808080" begin="arrowRight.mouseover" end="arrowRight.mouseout"/>
                  </use>
                  <path fill="none" stroke="white" stroke-width="1.5" d="M0,-3.0v7 M-2.5,-0.5L0,-3.0L2.5,-0.5"/>
                </g>
                <g id="arrowDown" xlink:href="#dirArrow" transform="rotate(180) translate(-30 -48)" onmousedown="handlePan(0,1)">
                  <use xlink:href="#rim" fill="#404040">
                        <set attributeName="fill" to="#808080" begin="arrowDown.mouseover" end="arrowDown.mouseout"/>
                  </use>
                  <path fill="none" stroke="white" stroke-width="1.5" d="M0,-3.0v7 M-2.5,-0.5L0,-3.0L2.5,-0.5"/>
                </g>
                <g id="arrowLeft" xlink:href="#dirArrow" transform="rotate(270) translate(-36 17)" onmousedown="handlePan(-1,0)">
                  <use xlink:href="#rim" fill="#404040">
                        <set attributeName="fill" to="#808080" begin="arrowLeft.mouseover" end="arrowLeft.mouseout"/>
                  </use>
                  <path fill="none" stroke="white" stroke-width="1.5" d="M0,-3.0v7 M-2.5,-0.5L0,-3.0L2.5,-0.5"/>
                </g>
        </g>
        <svg viewBox="0 0 15 15" width="100%" height="30px" preserveAspectRatio="xMaxYMin meet">
         <g id="arrow_out" transform="scale(0.3 0.3)">
          <a xlink:href="classdoris_1_1_field_ae79b0d60f27963d06f8b452ae04b0286_icgraph_org.svg" target="_base">
           <rect id="button" ry="5" rx="5" y="6" x="6" height="38" width="38"
                fill="#f2f5e9" fill-opacity="0.5" stroke="#606060" stroke-width="1.0"/>
           <path id="arrow"
             d="M 11.500037,31.436501 C 11.940474,20.09759 22.043105,11.32322 32.158766,21.979434 L 37.068811,17.246167 C 37.068811,17.246167 37.088388,32 37.088388,32 L 22.160133,31.978069 C 22.160133,31.978069 26.997745,27.140456 26.997745,27.140456 C 18.528582,18.264221 13.291696,25.230495 11.500037,31.436501 z"
             style="fill:#404040;"/>
          </a>
         </g>
        </svg>
</svg>
