<?xml version="1.0" encoding="UTF-8" standalone="no"?>
<!DOCTYPE svg PUBLIC "-//W3C//DTD SVG 1.1//EN"
 "http://www.w3.org/Graphics/SVG/1.1/DTD/svg11.dtd">
<!-- Generated by graphviz version 7.1.0 (20230121.1956)
 -->
<!-- Title: update Pages: 1 -->
<!--zoomable 405 -->
<svg id="main" version="1.1" xmlns="http://www.w3.org/2000/svg" xmlns:xlink="http://www.w3.org/1999/xlink" xml:space="preserve" onload="init(evt)">
<style type="text/css"><![CDATA[
.edge:hover path { stroke: red; }
.edge:hover polygon { stroke: red; fill: red; }
]]></style>
<script type="text/javascript"><![CDATA[
var edges = document.getElementsByTagName('g');
if (edges && edges.length) {
  for (var i=0;i<edges.length;i++) {
    if (edges[i].id.substr(0,4)=='edge') {
      edges[i].setAttribute('class','edge');
    }
  }
}
]]></script>
        <defs>
                <circle id="rim" cx="0" cy="0" r="7"/>
                <circle id="rim2" cx="0" cy="0" r="3.5"/>
                <g id="zoomPlus">
                        <use xlink:href="#rim" fill="#404040">
                                <set attributeName="fill" to="#808080" begin="zoomplus.mouseover" end="zoomplus.mouseout"/>
                        </use>
                        <path d="M-4,0h8M0,-4v8" fill="none" stroke="white" stroke-width="1.5" pointer-events="none"/>
                </g>
                <g id="zoomMin">
                        <use xlink:href="#rim" fill="#404040">
                                <set attributeName="fill" to="#808080" begin="zoomminus.mouseover" end="zoomminus.mouseout"/>
                        </use>
                        <path d="M-4,0h8" fill="none" stroke="white" stroke-width="1.5" pointer-events="none"/>
                </g>
                <g id="dirArrow">
                        <path fill="none" stroke="white" stroke-width="1.5" d="M0,-3.0v7 M-2.5,-0.5L0,-3.0L2.5,-0.5"/>
                </g>
               <g id="resetDef">
                       <use xlink:href="#rim2" fill="#404040">
                               <set attributeName="fill" to="#808080" begin="reset.mouseover" end="reset.mouseout"/>
                       </use>
               </g>
        </defs>

<script type="text/javascript">
var viewWidth = 545;
var viewHeight = 405;
var sectionId = 'dynsection-3';
</script>
<script xlink:href="../../svgpan.js"/>
<svg id="graph" class="graph">
<g id="viewport">
<title>update</title>
<!-- Node1 -->
<g id="node1" class="node">
<title>Node1</title>
<g id="a_node1"><a xlink:title=" ">
<polygon fill="#999999" stroke="#666666" points="46,-259 0,-259 0,-240 46,-240 46,-259"/>
<text text-anchor="middle" x="23" y="-247" font-family="Helvetica,sans-Serif" font-size="10.00">update</text>
</a>
</g>
</g>
<!-- Node2 -->
<g id="node2" class="node">
<title>Node2</title>
<g id="a_node2"><a xlink:href="../../d3/d52/classdoris_1_1_system_metrics.html#a079db5b6726f3f8fbc18e7120c629c90" target="_top" xlink:title=" ">
<polygon fill="white" stroke="#666666" points="364,-397 254,-397 254,-378 364,-378 364,-397"/>
<text text-anchor="middle" x="309" y="-385" font-family="Helvetica,sans-Serif" font-size="10.00">_update_cpu_metrics</text>
</a>
</g>
</g>
<!-- Node1&#45;&gt;Node2 -->
<g id="edge1" class="edge">
<title>Node1&#45;&gt;Node2</title>
<path fill="none" stroke="#63b8ff" d="M26.2,-259.49C31.55,-281.19 47.42,-332.58 82,-356.5 128.74,-388.83 194.09,-394.66 242.5,-393.53"/>
<polygon fill="#63b8ff" stroke="#63b8ff" points="242.41,-397.04 252.28,-393.19 242.17,-390.04 242.41,-397.04"/>
</g>
<!-- Node5 -->
<g id="node5" class="node">
<title>Node5</title>
<g id="a_node5"><a xlink:href="../../d3/d52/classdoris_1_1_system_metrics.html#a9d06ecb07c6783bc5fd391904e985014" target="_top" xlink:title=" ">
<polygon fill="white" stroke="#666666" points="365,-360 253,-360 253,-341 365,-341 365,-360"/>
<text text-anchor="middle" x="309" y="-348" font-family="Helvetica,sans-Serif" font-size="10.00">_update_disk_metrics</text>
</a>
</g>
</g>
<!-- Node1&#45;&gt;Node5 -->
<g id="edge4" class="edge">
<title>Node1&#45;&gt;Node5</title>
<path fill="none" stroke="#63b8ff" d="M27.97,-259.36C35.56,-276.74 53.9,-312.51 82,-328.5 130.27,-355.96 193.86,-359.86 241.29,-357.82"/>
<polygon fill="#63b8ff" stroke="#63b8ff" points="241.36,-361.32 251.16,-357.28 240.98,-354.33 241.36,-361.32"/>
</g>
<!-- Node6 -->
<g id="node6" class="node">
<title>Node6</title>
<g id="a_node6"><a xlink:href="../../d3/d52/classdoris_1_1_system_metrics.html#aba2c57a0b728272620a6c16eed3ac448" target="_top" xlink:title=" ">
<polygon fill="white" stroke="#666666" points="199.5,-319 97.5,-319 97.5,-300 199.5,-300 199.5,-319"/>
<text text-anchor="middle" x="148.5" y="-307" font-family="Helvetica,sans-Serif" font-size="10.00">_update_fd_metrics</text>
</a>
</g>
</g>
<!-- Node1&#45;&gt;Node6 -->
<g id="edge6" class="edge">
<title>Node1&#45;&gt;Node6</title>
<path fill="none" stroke="#63b8ff" d="M35.27,-259.21C46.47,-268.41 64.45,-282.05 82,-290.5 86.03,-292.44 90.29,-294.22 94.63,-295.84"/>
<polygon fill="#63b8ff" stroke="#63b8ff" points="93.47,-299.15 104.06,-299.08 95.74,-292.52 93.47,-299.15"/>
</g>
<!-- Node7 -->
<g id="node7" class="node">
<title>Node7</title>
<g id="a_node7"><a xlink:href="../../d3/d52/classdoris_1_1_system_metrics.html#ace033b5df22175f7f567ed89baf5ac26" target="_top" xlink:title=" ">
<polygon fill="white" stroke="#666666" points="215,-281 82,-281 82,-262 215,-262 215,-281"/>
<text text-anchor="middle" x="148.5" y="-269" font-family="Helvetica,sans-Serif" font-size="10.00">_update_load_avg_metrics</text>
</a>
</g>
</g>
<!-- Node1&#45;&gt;Node7 -->
<g id="edge8" class="edge">
<title>Node1&#45;&gt;Node7</title>
<path fill="none" stroke="#63b8ff" d="M46.36,-253.48C56.05,-255.21 67.96,-257.33 80.15,-259.5"/>
<polygon fill="#63b8ff" stroke="#63b8ff" points="79.43,-262.93 89.89,-261.24 80.66,-256.04 79.43,-262.93"/>
</g>
<!-- Node8 -->
<g id="node8" class="node">
<title>Node8</title>
<g id="a_node8"><a xlink:href="../../d3/d52/classdoris_1_1_system_metrics.html#a5e4fe874d3cbfff6378280345909eae6" target="_top" xlink:title=" ">
<polygon fill="white" stroke="#666666" points="213,-241 84,-241 84,-222 213,-222 213,-241"/>
<text text-anchor="middle" x="148.5" y="-229" font-family="Helvetica,sans-Serif" font-size="10.00">_update_memory_metrics</text>
</a>
</g>
</g>
<!-- Node1&#45;&gt;Node8 -->
<g id="edge10" class="edge">
<title>Node1&#45;&gt;Node8</title>
<path fill="none" stroke="#63b8ff" d="M46.36,-246.24C54.01,-245.13 63.03,-243.81 72.5,-242.43"/>
<polygon fill="#63b8ff" stroke="#63b8ff" points="72.86,-245.92 82.25,-241.01 71.85,-238.99 72.86,-245.92"/>
</g>
<!-- Node11 -->
<g id="node11" class="node">
<title>Node11</title>
<g id="a_node11"><a xlink:href="../../d3/d52/classdoris_1_1_system_metrics.html#a18d4597a6c3aafc39665fd61e62246df" target="_top" xlink:title=" ">
<polygon fill="white" stroke="#666666" points="202,-190 95,-190 95,-171 202,-171 202,-190"/>
<text text-anchor="middle" x="148.5" y="-178" font-family="Helvetica,sans-Serif" font-size="10.00">_update_net_metrics</text>
</a>
</g>
</g>
<!-- Node1&#45;&gt;Node11 -->
<g id="edge14" class="edge">
<title>Node1&#45;&gt;Node11</title>
<path fill="none" stroke="#63b8ff" d="M39.04,-239.65C50.62,-232.19 67.11,-221.85 82,-213.5 93.11,-207.27 105.54,-200.87 116.56,-195.38"/>
<polygon fill="#63b8ff" stroke="#63b8ff" points="117.82,-198.66 125.25,-191.11 114.73,-192.38 117.82,-198.66"/>
</g>
<!-- Node12 -->
<g id="node12" class="node">
<title>Node12</title>
<g id="a_node12"><a xlink:href="../../d3/d52/classdoris_1_1_system_metrics.html#a1532ab1eb77f5f6f7cba829fc2d13a61" target="_top" xlink:title=" ">
<polygon fill="white" stroke="#666666" points="205,-126 92,-126 92,-107 205,-107 205,-126"/>
<text text-anchor="middle" x="148.5" y="-114" font-family="Helvetica,sans-Serif" font-size="10.00">_update_proc_metrics</text>
</a>
</g>
</g>
<!-- Node1&#45;&gt;Node12 -->
<g id="edge16" class="edge">
<title>Node1&#45;&gt;Node12</title>
<path fill="none" stroke="#63b8ff" d="M29.06,-239.52C38.06,-222.39 58.16,-186.92 82,-162.5 93.26,-150.97 107.76,-140.44 120.26,-132.38"/>
<polygon fill="#63b8ff" stroke="#63b8ff" points="121.83,-135.52 128.46,-127.27 118.12,-129.58 121.83,-135.52"/>
</g>
<!-- Node13 -->
<g id="node13" class="node">
<title>Node13</title>
<g id="a_node13"><a xlink:href="../../d3/d52/classdoris_1_1_system_metrics.html#a34624cb16c12e02b6ab407959dee531d" target="_top" xlink:title=" ">
<polygon fill="white" stroke="#666666" points="207.5,-74 89.5,-74 89.5,-55 207.5,-55 207.5,-74"/>
<text text-anchor="middle" x="148.5" y="-62" font-family="Helvetica,sans-Serif" font-size="10.00">_update_snmp_metrics</text>
</a>
</g>
</g>
<!-- Node1&#45;&gt;Node13 -->
<g id="edge18" class="edge">
<title>Node1&#45;&gt;Node13</title>
<path fill="none" stroke="#63b8ff" d="M25.3,-239.79C29.25,-213.82 43.26,-141.84 82,-98.5 89.09,-90.57 98.46,-84.21 107.89,-79.24"/>
<polygon fill="#63b8ff" stroke="#63b8ff" points="109.18,-82.5 116.69,-75.02 106.16,-76.19 109.18,-82.5"/>
</g>
<!-- Node3 -->
<g id="node3" class="node">
<title>Node3</title>
<g id="a_node3"><a xlink:href="../../de/df8/glibc-compatibility_8c.html#a57988014940bd8fc5159d4c1bac16969" target="_top" xlink:title=" ">
<polygon fill="white" stroke="#666666" points="449.5,-284 403.5,-284 403.5,-265 449.5,-265 449.5,-284"/>
<text text-anchor="middle" x="426.5" y="-272" font-family="Helvetica,sans-Serif" font-size="10.00">sscanf</text>
</a>
</g>
</g>
<!-- Node2&#45;&gt;Node3 -->
<g id="edge2" class="edge">
<title>Node2&#45;&gt;Node3</title>
<path fill="none" stroke="#63b8ff" d="M353.09,-377.62C358.05,-375.43 362.83,-372.75 367,-369.5 392,-350 408.95,-316.6 417.92,-295.04"/>
<polygon fill="#63b8ff" stroke="#63b8ff" points="421.13,-296.45 421.53,-285.86 414.61,-293.89 421.13,-296.45"/>
</g>
<!-- Node4 -->
<g id="node4" class="node">
<title>Node4</title>
<g id="a_node4"><a xlink:href="../../de/df8/glibc-compatibility_8c.html#ab1c4552aba80fe03c9b45fe27f4331ad" target="_top" xlink:title=" ">
<polygon fill="white" stroke="#666666" points="537,-284 486,-284 486,-265 537,-265 537,-284"/>
<text text-anchor="middle" x="511.5" y="-272" font-family="Helvetica,sans-Serif" font-size="10.00">vsscanf</text>
</a>
</g>
</g>
<!-- Node3&#45;&gt;Node4 -->
<g id="edge3" class="edge">
<title>Node3&#45;&gt;Node4</title>
<path fill="none" stroke="#63b8ff" d="M449.74,-274.5C457.25,-274.5 465.84,-274.5 474.14,-274.5"/>
<polygon fill="#63b8ff" stroke="#63b8ff" points="474.05,-278 484.05,-274.5 474.05,-271 474.05,-278"/>
</g>
<!-- Node5&#45;&gt;Node3 -->
<g id="edge5" class="edge">
<title>Node5&#45;&gt;Node3</title>
<path fill="none" stroke="#63b8ff" d="M338.75,-340.54C348.09,-336.75 358.28,-332 367,-326.5 382.24,-316.89 397.38,-303.29 408.44,-292.41"/>
<polygon fill="#63b8ff" stroke="#63b8ff" points="410.76,-295.04 415.3,-285.47 405.78,-290.12 410.76,-295.04"/>
</g>
<!-- Node6&#45;&gt;Node3 -->
<g id="edge7" class="edge">
<title>Node6&#45;&gt;Node3</title>
<path fill="none" stroke="#63b8ff" d="M199.78,-305.58C243.98,-301.79 309.97,-295.34 367,-286.5 375.15,-285.24 383.88,-283.6 392.04,-281.94"/>
<polygon fill="#63b8ff" stroke="#63b8ff" points="392.54,-285.42 401.61,-279.94 391.1,-278.57 392.54,-285.42"/>
</g>
<!-- Node7&#45;&gt;Node3 -->
<g id="edge9" class="edge">
<title>Node7&#45;&gt;Node3</title>
<path fill="none" stroke="#63b8ff" d="M215.26,-272.21C270.79,-272.82 348.05,-273.66 391.78,-274.13"/>
<polygon fill="#63b8ff" stroke="#63b8ff" points="391.63,-277.63 401.67,-274.24 391.71,-270.63 391.63,-277.63"/>
</g>
<!-- Node9 -->
<g id="node9" class="node">
<title>Node9</title>
<g id="a_node9"><a xlink:href="../../d3/d52/classdoris_1_1_system_metrics.html#ae77d30f79518897b96999ad48c033b18" target="_top" xlink:title=" ">
<polygon fill="white" stroke="#666666" points="367,-246.5 251,-246.5 251,-216.5 367,-216.5 367,-246.5"/>
<text text-anchor="start" x="259" y="-234.5" font-family="Helvetica,sans-Serif" font-size="10.00">get_metrics_from_proc</text>
<text text-anchor="middle" x="309" y="-223.5" font-family="Helvetica,sans-Serif" font-size="10.00">_vmstat</text>
</a>
</g>
</g>
<!-- Node8&#45;&gt;Node9 -->
<g id="edge11" class="edge">
<title>Node8&#45;&gt;Node9</title>
<path fill="none" stroke="#63b8ff" d="M213.05,-231.5C221.68,-231.5 230.56,-231.5 239.27,-231.5"/>
<polygon fill="#63b8ff" stroke="#63b8ff" points="239.07,-235 249.07,-231.5 239.07,-228 239.07,-235"/>
</g>
<!-- Node10 -->
<g id="node10" class="node">
<title>Node10</title>
<g id="a_node10"><a xlink:href="../../d6/d2f/classdoris_1_1_perf_counters.html#a8e6d5083a1ea075837a99f0b4beaf6cd" target="_top" xlink:title=" ">
<polygon fill="white" stroke="#666666" points="359.5,-198.5 258.5,-198.5 258.5,-168.5 359.5,-168.5 359.5,-198.5"/>
<text text-anchor="start" x="266.5" y="-186.5" font-family="Helvetica,sans-Serif" font-size="10.00">doris::PerfCounters</text>
<text text-anchor="middle" x="309" y="-175.5" font-family="Helvetica,sans-Serif" font-size="10.00">::get_vm_rss</text>
</a>
</g>
</g>
<!-- Node8&#45;&gt;Node10 -->
<g id="edge13" class="edge">
<title>Node8&#45;&gt;Node10</title>
<path fill="none" stroke="#63b8ff" d="M182.34,-221.55C201.04,-215.89 225.05,-208.62 247.07,-201.95"/>
<polygon fill="#63b8ff" stroke="#63b8ff" points="248.02,-205.32 256.57,-199.07 245.99,-198.62 248.02,-205.32"/>
</g>
<!-- Node9&#45;&gt;Node3 -->
<g id="edge12" class="edge">
<title>Node9&#45;&gt;Node3</title>
<path fill="none" stroke="#63b8ff" d="M351.37,-246.9C364.89,-251.93 379.71,-257.45 392.53,-262.22"/>
<polygon fill="#63b8ff" stroke="#63b8ff" points="391.18,-265.46 401.77,-265.66 393.62,-258.9 391.18,-265.46"/>
</g>
<!-- Node11&#45;&gt;Node3 -->
<g id="edge15" class="edge">
<title>Node11&#45;&gt;Node3</title>
<path fill="none" stroke="#63b8ff" d="M170.55,-170.63C211.71,-152.92 304.26,-121.03 367,-159.5 400.62,-180.11 415.66,-226.76 421.78,-253.88"/>
<polygon fill="#63b8ff" stroke="#63b8ff" points="418.28,-254.22 423.7,-263.33 425.14,-252.83 418.28,-254.22"/>
</g>
<!-- Node12&#45;&gt;Node3 -->
<g id="edge17" class="edge">
<title>Node12&#45;&gt;Node3</title>
<path fill="none" stroke="#63b8ff" d="M205.45,-106.84C252.95,-101.83 320.61,-102.62 367,-136.5 405.23,-164.42 418.67,-222.36 423.24,-253.54"/>
<polygon fill="#63b8ff" stroke="#63b8ff" points="419.75,-253.78 424.48,-263.26 426.69,-252.9 419.75,-253.78"/>
</g>
<!-- Node14 -->
<g id="node14" class="node">
<title>Node14</title>
<g id="a_node14"><a xlink:href="../../d8/de4/strtoint_8h.html#a4ea768da60c3ed14a309a0875d572c83" target="_top" xlink:title=" ">
<polygon fill="white" stroke="#666666" points="330.5,-74 287.5,-74 287.5,-55 330.5,-55 330.5,-74"/>
<text text-anchor="middle" x="309" y="-62" font-family="Helvetica,sans-Serif" font-size="10.00">atoi64</text>
</a>
</g>
</g>
<!-- Node13&#45;&gt;Node14 -->
<g id="edge19" class="edge">
<title>Node13&#45;&gt;Node14</title>
<path fill="none" stroke="#63b8ff" d="M207.62,-64.5C230.59,-64.5 256.12,-64.5 275.69,-64.5"/>
<polygon fill="#63b8ff" stroke="#63b8ff" points="275.51,-68 285.51,-64.5 275.51,-61 275.51,-68"/>
</g>
<!-- Node16 -->
<g id="node16" class="node">
<title>Node16</title>
<g id="a_node16"><a xlink:href="../../df/dcb/namespacestrings.html#a8390ba830c1679e1c19a93a151425139" target="_top" xlink:title=" ">
<polygon fill="white" stroke="#666666" points="344.5,-19 273.5,-19 273.5,0 344.5,0 344.5,-19"/>
<text text-anchor="middle" x="309" y="-7" font-family="Helvetica,sans-Serif" font-size="10.00">strings::Split</text>
</a>
</g>
</g>
<!-- Node13&#45;&gt;Node16 -->
<g id="edge21" class="edge">
<title>Node13&#45;&gt;Node16</title>
<path fill="none" stroke="#63b8ff" d="M178.2,-54.54C203.48,-45.77 240.54,-32.91 268.6,-23.17"/>
<polygon fill="#63b8ff" stroke="#63b8ff" points="269.51,-26.56 277.81,-19.97 267.22,-19.95 269.51,-26.56"/>
</g>
<!-- Node15 -->
<g id="node15" class="node">
<title>Node15</title>
<g id="a_node15"><a xlink:href="../../d8/de4/strtoint_8h.html#accb4ff6d505057f64bcbb4017f03fad1" target="_top" xlink:title=" ">
<polygon fill="white" stroke="#666666" points="450,-74 403,-74 403,-55 450,-55 450,-74"/>
<text text-anchor="middle" x="426.5" y="-62" font-family="Helvetica,sans-Serif" font-size="10.00">strto64</text>
</a>
</g>
</g>
<!-- Node14&#45;&gt;Node15 -->
<g id="edge20" class="edge">
<title>Node14&#45;&gt;Node15</title>
<path fill="none" stroke="#63b8ff" d="M330.92,-64.5C347.79,-64.5 371.87,-64.5 391.51,-64.5"/>
<polygon fill="#63b8ff" stroke="#63b8ff" points="391.25,-68 401.25,-64.5 391.25,-61 391.25,-68"/>
</g>
<!-- Node16&#45;&gt;Node16 -->
<g id="edge22" class="edge">
<title>Node16&#45;&gt;Node16</title>
<path fill="none" stroke="#63b8ff" d="M290.6,-19.37C282.21,-27.94 288.35,-37 309,-37 320.3,-37 327.25,-34.29 329.86,-30.43"/>
<polygon fill="#63b8ff" stroke="#63b8ff" points="333.31,-29.85 327.72,-20.85 326.48,-31.37 333.31,-29.85"/>
</g>
</g>
</svg>
        <g id="navigator" transform="translate(0 0)" fill="#404254">
                <rect fill="#f2f5e9" fill-opacity="0.5" stroke="#606060" stroke-width=".5" x="0" y="0" width="60" height="60"/>
                <use id="zoomplus" xlink:href="#zoomPlus" x="17" y="9" onmousedown="handleZoom(evt,'in')"/>
                <use id="zoomminus" xlink:href="#zoomMin" x="42" y="9" onmousedown="handleZoom(evt,'out')"/>
                <use id="reset" xlink:href="#resetDef" x="30" y="36" onmousedown="handleReset()"/>
                <g id="arrowUp" xlink:href="#dirArrow" transform="translate(30 24)" onmousedown="handlePan(0,-1)">
                  <use xlink:href="#rim" fill="#404040">
                        <set attributeName="fill" to="#808080" begin="arrowUp.mouseover" end="arrowUp.mouseout"/>
                  </use>
                  <path fill="none" stroke="white" stroke-width="1.5" d="M0,-3.0v7 M-2.5,-0.5L0,-3.0L2.5,-0.5"/>
                </g>
                <g id="arrowRight" xlink:href="#dirArrow" transform="rotate(90) translate(36 -43)" onmousedown="handlePan(1,0)">
                  <use xlink:href="#rim" fill="#404040">
                        <set attributeName="fill" to="#808080" begin="arrowRight.mouseover" end="arrowRight.mouseout"/>
                  </use>
                  <path fill="none" stroke="white" stroke-width="1.5" d="M0,-3.0v7 M-2.5,-0.5L0,-3.0L2.5,-0.5"/>
                </g>
                <g id="arrowDown" xlink:href="#dirArrow" transform="rotate(180) translate(-30 -48)" onmousedown="handlePan(0,1)">
                  <use xlink:href="#rim" fill="#404040">
                        <set attributeName="fill" to="#808080" begin="arrowDown.mouseover" end="arrowDown.mouseout"/>
                  </use>
                  <path fill="none" stroke="white" stroke-width="1.5" d="M0,-3.0v7 M-2.5,-0.5L0,-3.0L2.5,-0.5"/>
                </g>
                <g id="arrowLeft" xlink:href="#dirArrow" transform="rotate(270) translate(-36 17)" onmousedown="handlePan(-1,0)">
                  <use xlink:href="#rim" fill="#404040">
                        <set attributeName="fill" to="#808080" begin="arrowLeft.mouseover" end="arrowLeft.mouseout"/>
                  </use>
                  <path fill="none" stroke="white" stroke-width="1.5" d="M0,-3.0v7 M-2.5,-0.5L0,-3.0L2.5,-0.5"/>
                </g>
        </g>
        <svg viewBox="0 0 15 15" width="100%" height="30px" preserveAspectRatio="xMaxYMin meet">
         <g id="arrow_out" transform="scale(0.3 0.3)">
          <a xlink:href="classdoris_1_1_system_metrics_ac5c54df7ed3b930268c8d7752c101725_cgraph_org.svg" target="_base">
           <rect id="button" ry="5" rx="5" y="6" x="6" height="38" width="38"
                fill="#f2f5e9" fill-opacity="0.5" stroke="#606060" stroke-width="1.0"/>
           <path id="arrow"
             d="M 11.500037,31.436501 C 11.940474,20.09759 22.043105,11.32322 32.158766,21.979434 L 37.068811,17.246167 C 37.068811,17.246167 37.088388,32 37.088388,32 L 22.160133,31.978069 C 22.160133,31.978069 26.997745,27.140456 26.997745,27.140456 C 18.528582,18.264221 13.291696,25.230495 11.500037,31.436501 z"
             style="fill:#404040;"/>
          </a>
         </g>
        </svg>
</svg>
