<?xml version="1.0" encoding="UTF-8" standalone="no"?>
<!DOCTYPE svg PUBLIC "-//W3C//DTD SVG 1.1//EN"
 "http://www.w3.org/Graphics/SVG/1.1/DTD/svg11.dtd">
<!-- Generated by graphviz version 7.1.0 (20230121.1956)
 -->
<!-- Title: update_crcs_with_value Pages: 1 -->
<svg width="736pt" height="320pt"
 viewBox="0.00 0.00 736.00 320.08" xmlns="http://www.w3.org/2000/svg" xmlns:xlink="http://www.w3.org/1999/xlink">
<g id="graph0" class="graph" transform="scale(1 1) rotate(0) translate(4 316.08)">
<title>update_crcs_with_value</title>
<!-- Node1 -->
<g id="node1" class="node">
<title>Node1</title>
<g id="a_node1"><a xlink:title=" ">
<polygon fill="#999999" stroke="#666666" points="122,-162.08 0,-162.08 0,-143.08 122,-143.08 122,-162.08"/>
<text text-anchor="middle" x="61" y="-150.08" font-family="Helvetica,sans-Serif" font-size="10.00">update_crcs_with_value</text>
</a>
</g>
</g>
<!-- Node2 -->
<g id="node2" class="node">
<title>Node2</title>
<g id="a_node2"><a xlink:href="../../d4/d41/classdoris_1_1vectorized_1_1_column_nullable.html#acf4915330168b52465f3597d4699c6a0" target="_top" xlink:title=" ">
<polygon fill="white" stroke="#666666" points="236,-203.08 183,-203.08 183,-184.08 236,-184.08 236,-203.08"/>
<text text-anchor="middle" x="209.5" y="-191.08" font-family="Helvetica,sans-Serif" font-size="10.00">has_null</text>
</a>
</g>
</g>
<!-- Node1&#45;&gt;Node2 -->
<g id="edge1" class="edge">
<title>Node1&#45;&gt;Node2</title>
<path fill="none" stroke="#63b8ff" d="M97.46,-162.5C119.92,-168.79 148.9,-176.9 171.63,-183.26"/>
<polygon fill="#63b8ff" stroke="#63b8ff" points="170.52,-186.58 181.09,-185.9 172.4,-179.84 170.52,-186.58"/>
</g>
<!-- Node10 -->
<g id="node10" class="node">
<title>Node10</title>
<g id="a_node10"><a xlink:href="../../d4/d41/classdoris_1_1vectorized_1_1_column_nullable.html#ad7701a09a964eab360a8e51fa7ad2c16" target="_top" xlink:title=" ">
<polygon fill="white" stroke="#666666" points="523.5,-162.08 488.5,-162.08 488.5,-143.08 523.5,-143.08 523.5,-162.08"/>
<text text-anchor="middle" x="506" y="-150.08" font-family="Helvetica,sans-Serif" font-size="10.00">size</text>
</a>
</g>
</g>
<!-- Node1&#45;&gt;Node10 -->
<g id="edge10" class="edge">
<title>Node1&#45;&gt;Node10</title>
<path fill="none" stroke="#63b8ff" d="M122.21,-152.58C219.06,-152.58 405.79,-152.58 476.72,-152.58"/>
<polygon fill="#63b8ff" stroke="#63b8ff" points="476.69,-156.08 486.69,-152.58 476.69,-149.08 476.69,-156.08"/>
</g>
<!-- Node11 -->
<g id="node11" class="node">
<title>Node11</title>
<g id="a_node11"><a xlink:href="../../d8/d08/classdoris_1_1_hash_util.html#a63765991025bee8229a2e09ea14e4a69" target="_top" xlink:title=" ">
<polygon fill="white" stroke="#666666" points="261,-109.58 158,-109.58 158,-79.58 261,-79.58 261,-109.58"/>
<text text-anchor="start" x="166" y="-97.58" font-family="Helvetica,sans-Serif" font-size="10.00">doris::HashUtil::zlib</text>
<text text-anchor="middle" x="209.5" y="-86.58" font-family="Helvetica,sans-Serif" font-size="10.00">_crc_hash_null</text>
</a>
</g>
</g>
<!-- Node1&#45;&gt;Node11 -->
<g id="edge11" class="edge">
<title>Node1&#45;&gt;Node11</title>
<path fill="none" stroke="#63b8ff" d="M87.18,-142.61C106.92,-134.79 135,-123.67 159.18,-114.1"/>
<polygon fill="#63b8ff" stroke="#63b8ff" points="160.19,-117.46 168.2,-110.53 157.62,-110.96 160.19,-117.46"/>
</g>
<!-- Node3 -->
<g id="node3" class="node">
<title>Node3</title>
<g id="a_node3"><a xlink:href="../../d4/d41/classdoris_1_1vectorized_1_1_column_nullable.html#a1e2a4b3c19575d6a0a071f8d0ea7f32f" target="_top" xlink:title=" ">
<polygon fill="white" stroke="#666666" points="397.5,-205.08 305.5,-205.08 305.5,-186.08 397.5,-186.08 397.5,-205.08"/>
<text text-anchor="middle" x="351.5" y="-193.08" font-family="Helvetica,sans-Serif" font-size="10.00">_update_has_null</text>
</a>
</g>
</g>
<!-- Node2&#45;&gt;Node3 -->
<g id="edge2" class="edge">
<title>Node2&#45;&gt;Node3</title>
<path fill="none" stroke="#63b8ff" d="M236.18,-193.94C252.35,-194.17 273.9,-194.48 293.92,-194.77"/>
<polygon fill="#63b8ff" stroke="#63b8ff" points="293.59,-198.26 303.64,-194.91 293.69,-191.26 293.59,-198.26"/>
</g>
<!-- Node4 -->
<g id="node4" class="node">
<title>Node4</title>
<g id="a_node4"><a xlink:href="../../d4/d41/classdoris_1_1vectorized_1_1_column_nullable.html#a0f8865d89784bb302f7fd4792ab7d8c1" target="_top" xlink:title=" ">
<polygon fill="white" stroke="#666666" points="558,-285.08 454,-285.08 454,-266.08 558,-266.08 558,-285.08"/>
<text text-anchor="middle" x="506" y="-273.08" font-family="Helvetica,sans-Serif" font-size="10.00">_get_null_map_data</text>
</a>
</g>
</g>
<!-- Node3&#45;&gt;Node4 -->
<g id="edge3" class="edge">
<title>Node3&#45;&gt;Node4</title>
<path fill="none" stroke="#63b8ff" d="M364.17,-205.56C380.55,-219.1 411.76,-243.26 442,-257.58 445.29,-259.13 448.74,-260.58 452.26,-261.93"/>
<polygon fill="#63b8ff" stroke="#63b8ff" points="450.92,-265.17 461.52,-265.15 453.22,-258.55 450.92,-265.17"/>
</g>
<!-- Node7 -->
<g id="node7" class="node">
<title>Node7</title>
<g id="a_node7"><a xlink:href="../../d1/d97/namespacedoris_1_1simd.html#a293f86d35066403fe8f258df672929d1" target="_top" xlink:title=" ">
<polygon fill="white" stroke="#666666" points="569,-248.08 443,-248.08 443,-229.08 569,-229.08 569,-248.08"/>
<text text-anchor="middle" x="506" y="-236.08" font-family="Helvetica,sans-Serif" font-size="10.00">doris::simd::contain_byte</text>
</a>
</g>
</g>
<!-- Node3&#45;&gt;Node7 -->
<g id="edge6" class="edge">
<title>Node3&#45;&gt;Node7</title>
<path fill="none" stroke="#63b8ff" d="M387.87,-205.55C408.97,-211.5 435.99,-219.12 458.76,-225.54"/>
<polygon fill="#63b8ff" stroke="#63b8ff" points="457.53,-228.83 468.1,-228.17 459.43,-222.09 457.53,-228.83"/>
</g>
<!-- Node8 -->
<g id="node8" class="node">
<title>Node8</title>
<g id="a_node8"><a xlink:href="../../df/db2/classdoris_1_1vectorized_1_1_p_o_d_array.html#adc1e16b293a89a9ccc9541058b5ca560" target="_top" xlink:title=" ">
<polygon fill="white" stroke="#666666" points="553.5,-210.58 458.5,-210.58 458.5,-180.58 553.5,-180.58 553.5,-210.58"/>
<text text-anchor="start" x="466.5" y="-198.58" font-family="Helvetica,sans-Serif" font-size="10.00">doris::vectorized::</text>
<text text-anchor="middle" x="506" y="-187.58" font-family="Helvetica,sans-Serif" font-size="10.00">PODArray::data</text>
</a>
</g>
</g>
<!-- Node3&#45;&gt;Node8 -->
<g id="edge7" class="edge">
<title>Node3&#45;&gt;Node8</title>
<path fill="none" stroke="#63b8ff" d="M397.84,-195.58C413.32,-195.58 430.85,-195.58 447.17,-195.58"/>
<polygon fill="#63b8ff" stroke="#63b8ff" points="446.73,-199.08 456.73,-195.58 446.73,-192.08 446.73,-199.08"/>
</g>
<!-- Node3&#45;&gt;Node10 -->
<g id="edge9" class="edge">
<title>Node3&#45;&gt;Node10</title>
<path fill="none" stroke="#63b8ff" d="M387.87,-185.6C415.06,-177.93 452.1,-167.49 477.2,-160.42"/>
<polygon fill="#63b8ff" stroke="#63b8ff" points="478,-163.82 486.68,-157.74 476.1,-157.09 478,-163.82"/>
</g>
<!-- Node5 -->
<g id="node5" class="node">
<title>Node5</title>
<g id="a_node5"><a xlink:href="../../d4/d41/classdoris_1_1vectorized_1_1_column_nullable.html#a8e1fb6e9e0cb5708c3ad8f557bf2cc14" target="_top" xlink:title=" ">
<polygon fill="white" stroke="#666666" points="725,-312.08 609,-312.08 609,-293.08 725,-293.08 725,-312.08"/>
<text text-anchor="middle" x="667" y="-300.08" font-family="Helvetica,sans-Serif" font-size="10.00">_get_null_map_column</text>
</a>
</g>
</g>
<!-- Node4&#45;&gt;Node5 -->
<g id="edge4" class="edge">
<title>Node4&#45;&gt;Node5</title>
<path fill="none" stroke="#63b8ff" d="M558.18,-284.27C570.74,-286.4 584.37,-288.71 597.59,-290.96"/>
<polygon fill="#63b8ff" stroke="#63b8ff" points="596.63,-294.35 607.08,-292.57 597.8,-287.44 596.63,-294.35"/>
</g>
<!-- Node6 -->
<g id="node6" class="node">
<title>Node6</title>
<g id="a_node6"><a xlink:href="../../df/d15/classdoris_1_1vectorized_1_1_column_vector.html#a3206c08675c03058605f3a6e5a452b5c" target="_top" xlink:title=" ">
<polygon fill="white" stroke="#666666" points="728,-274.58 606,-274.58 606,-244.58 728,-244.58 728,-274.58"/>
<text text-anchor="start" x="614" y="-262.58" font-family="Helvetica,sans-Serif" font-size="10.00">doris::vectorized::</text>
<text text-anchor="middle" x="667" y="-251.58" font-family="Helvetica,sans-Serif" font-size="10.00">ColumnVector::get_data</text>
</a>
</g>
</g>
<!-- Node4&#45;&gt;Node6 -->
<g id="edge5" class="edge">
<title>Node4&#45;&gt;Node6</title>
<path fill="none" stroke="#63b8ff" d="M558.18,-270.43C569.79,-269.26 582.33,-268 594.6,-266.76"/>
<polygon fill="#63b8ff" stroke="#63b8ff" points="594.66,-270.27 604.26,-265.79 593.96,-263.31 594.66,-270.27"/>
</g>
<!-- Node9 -->
<g id="node9" class="node">
<title>Node9</title>
<g id="a_node9"><a xlink:href="../../df/db2/classdoris_1_1vectorized_1_1_p_o_d_array.html#a8e612adde07f46d3398ac6962d676a66" target="_top" xlink:title=" ">
<polygon fill="white" stroke="#666666" points="714.5,-210.58 619.5,-210.58 619.5,-180.58 714.5,-180.58 714.5,-210.58"/>
<text text-anchor="start" x="627.5" y="-198.58" font-family="Helvetica,sans-Serif" font-size="10.00">doris::vectorized::</text>
<text text-anchor="middle" x="667" y="-187.58" font-family="Helvetica,sans-Serif" font-size="10.00">PODArray::t_start</text>
</a>
</g>
</g>
<!-- Node8&#45;&gt;Node9 -->
<g id="edge8" class="edge">
<title>Node8&#45;&gt;Node9</title>
<path fill="none" stroke="#63b8ff" d="M553.85,-195.58C570.75,-195.58 590.04,-195.58 607.81,-195.58"/>
<polygon fill="#63b8ff" stroke="#63b8ff" points="607.7,-199.08 617.7,-195.58 607.7,-192.08 607.7,-199.08"/>
</g>
<!-- Node12 -->
<g id="node12" class="node">
<title>Node12</title>
<g id="a_node12"><a xlink:href="../../d8/d08/classdoris_1_1_hash_util.html#af859ad5532f11b9fb98fed728353cc75" target="_top" xlink:title=" ">
<polygon fill="white" stroke="#666666" points="406,-88.08 297,-88.08 297,-69.08 406,-69.08 406,-88.08"/>
<text text-anchor="middle" x="351.5" y="-76.08" font-family="Helvetica,sans-Serif" font-size="10.00">doris::HashUtil::hash</text>
</a>
</g>
</g>
<!-- Node11&#45;&gt;Node12 -->
<g id="edge12" class="edge">
<title>Node11&#45;&gt;Node12</title>
<path fill="none" stroke="#63b8ff" d="M261.44,-88.75C269.2,-87.87 277.29,-86.94 285.31,-86.03"/>
<polygon fill="#63b8ff" stroke="#63b8ff" points="285.49,-89.53 295.03,-84.92 284.7,-82.57 285.49,-89.53"/>
</g>
<!-- Node13 -->
<g id="node13" class="node">
<title>Node13</title>
<g id="a_node13"><a xlink:href="../../d8/d08/classdoris_1_1_hash_util.html#a752603dfbd85c37afdb627dc7ff30a34" target="_top" xlink:title=" ">
<polygon fill="white" stroke="#666666" points="570,-125.08 442,-125.08 442,-106.08 570,-106.08 570,-125.08"/>
<text text-anchor="middle" x="506" y="-113.08" font-family="Helvetica,sans-Serif" font-size="10.00">doris::HashUtil::crc_hash</text>
</a>
</g>
</g>
<!-- Node12&#45;&gt;Node13 -->
<g id="edge13" class="edge">
<title>Node12&#45;&gt;Node13</title>
<path fill="none" stroke="#63b8ff" d="M406.27,-85.14C428.53,-89.99 453.6,-96.36 472.9,-102.17"/>
<polygon fill="#63b8ff" stroke="#63b8ff" points="471.79,-105.48 482.38,-105.14 473.88,-98.81 471.79,-105.48"/>
</g>
<!-- Node15 -->
<g id="node15" class="node">
<title>Node15</title>
<g id="a_node15"><a xlink:href="../../d8/d08/classdoris_1_1_hash_util.html#a3dddbd7b2e35ca9369f00e777e22506f" target="_top" xlink:title=" ">
<polygon fill="white" stroke="#666666" points="570,-88.08 442,-88.08 442,-69.08 570,-69.08 570,-88.08"/>
<text text-anchor="middle" x="506" y="-76.08" font-family="Helvetica,sans-Serif" font-size="10.00">doris::HashUtil::fnv_hash</text>
</a>
</g>
</g>
<!-- Node12&#45;&gt;Node15 -->
<g id="edge17" class="edge">
<title>Node12&#45;&gt;Node15</title>
<path fill="none" stroke="#63b8ff" d="M406.27,-72.09C414.02,-71.9 422.11,-71.81 430.18,-71.83"/>
<polygon fill="#63b8ff" stroke="#63b8ff" points="430,-75.33 440.03,-71.9 430.05,-68.33 430,-75.33"/>
</g>
<!-- Node16 -->
<g id="node16" class="node">
<title>Node16</title>
<g id="a_node16"><a xlink:href="../../d5/dad/classdoris_1_1_cpu_info.html#aea45f507e2255521fd09399856dce532" target="_top" xlink:title="Returns whether of not the cpu supports this flag">
<polygon fill="white" stroke="#666666" points="552,-50.58 460,-50.58 460,-20.58 552,-20.58 552,-50.58"/>
<text text-anchor="start" x="468" y="-38.58" font-family="Helvetica,sans-Serif" font-size="10.00">doris::CpuInfo::is</text>
<text text-anchor="middle" x="506" y="-27.58" font-family="Helvetica,sans-Serif" font-size="10.00">_supported</text>
</a>
</g>
</g>
<!-- Node12&#45;&gt;Node16 -->
<g id="edge19" class="edge">
<title>Node12&#45;&gt;Node16</title>
<path fill="none" stroke="#63b8ff" d="M387.87,-68.6C405.91,-63.52 428.29,-57.21 448.63,-51.47"/>
<polygon fill="#63b8ff" stroke="#63b8ff" points="449.55,-54.85 458.23,-48.76 447.65,-48.11 449.55,-54.85"/>
</g>
<!-- Node13&#45;&gt;Node12 -->
<g id="edge14" class="edge">
<title>Node13&#45;&gt;Node12</title>
<path fill="none" stroke="#63b8ff" d="M441.82,-106.91C422.07,-102.39 401.12,-96.95 384.47,-91.95"/>
<polygon fill="#63b8ff" stroke="#63b8ff" points="385.74,-88.68 375.15,-89.02 383.64,-95.35 385.74,-88.68"/>
</g>
<!-- Node14 -->
<g id="node14" class="node">
<title>Node14</title>
<g id="a_node14"><a xlink:href="../../d8/d08/classdoris_1_1_hash_util.html#a67fb8509416d6acc53ca130fd6b80eb7" target="_top" xlink:title=" ">
<polygon fill="white" stroke="#666666" points="718.5,-69.58 615.5,-69.58 615.5,-39.58 718.5,-39.58 718.5,-69.58"/>
<text text-anchor="start" x="623.5" y="-57.58" font-family="Helvetica,sans-Serif" font-size="10.00">doris::HashUtil::zlib</text>
<text text-anchor="middle" x="667" y="-46.58" font-family="Helvetica,sans-Serif" font-size="10.00">_crc_hash</text>
</a>
</g>
</g>
<!-- Node13&#45;&gt;Node14 -->
<g id="edge15" class="edge">
<title>Node13&#45;&gt;Node14</title>
<path fill="none" stroke="#63b8ff" d="M545.26,-105.59C553.49,-103.18 562.09,-100.46 570,-97.58 588.19,-90.94 607.77,-82.43 624.48,-74.73"/>
<polygon fill="#63b8ff" stroke="#63b8ff" points="625.52,-78.11 633.1,-70.71 622.56,-71.77 625.52,-78.11"/>
</g>
<!-- Node14&#45;&gt;Node12 -->
<g id="edge16" class="edge">
<title>Node14&#45;&gt;Node12</title>
<path fill="none" stroke="#63b8ff" d="M639.73,-39.16C620.99,-29.1 594.82,-16.88 570,-11.58 514.37,0.31 495.98,6.39 442,-11.58 412.99,-21.23 385.79,-44.38 369.16,-60.75"/>
<polygon fill="#63b8ff" stroke="#63b8ff" points="367.03,-57.92 362.53,-67.51 372.03,-62.82 367.03,-57.92"/>
</g>
<!-- Node15&#45;&gt;Node12 -->
<g id="edge18" class="edge">
<title>Node15&#45;&gt;Node12</title>
<path fill="none" stroke="#63b8ff" d="M441.54,-85.24C433.66,-85.35 425.59,-85.35 417.69,-85.26"/>
<polygon fill="#63b8ff" stroke="#63b8ff" points="417.84,-81.76 407.78,-85.08 417.71,-88.76 417.84,-81.76"/>
</g>
</g>
</svg>
