<?xml version="1.0" encoding="UTF-8" standalone="no"?>
<!DOCTYPE svg PUBLIC "-//W3C//DTD SVG 1.1//EN"
 "http://www.w3.org/Graphics/SVG/1.1/DTD/svg11.dtd">
<!-- Generated by graphviz version 7.1.0 (20230121.1956)
 -->
<!-- Title: get Pages: 1 -->
<svg width="398pt" height="288pt"
 viewBox="0.00 0.00 398.00 287.50" xmlns="http://www.w3.org/2000/svg" xmlns:xlink="http://www.w3.org/1999/xlink">
<g id="graph0" class="graph" transform="scale(1 1) rotate(0) translate(4 283.5)">
<title>get</title>
<!-- Node1 -->
<g id="node1" class="node">
<title>Node1</title>
<g id="a_node1"><a xlink:title=" ">
<polygon fill="#999999" stroke="#666666" points="390,-138 360,-138 360,-119 390,-119 390,-138"/>
<text text-anchor="middle" x="375" y="-126" font-family="Helvetica,sans-Serif" font-size="10.00">get</text>
</a>
</g>
</g>
<!-- Node2 -->
<g id="node2" class="node">
<title>Node2</title>
<g id="a_node2"><a xlink:href="../../db/dce/classdoris_1_1vectorized_1_1_vcompound_pred.html#a4693d6c157e4f273adedb1e888bb04dd" target="_top" xlink:title=" ">
<polygon fill="white" stroke="#666666" points="301,-267 188,-267 188,-226 301,-226 301,-267"/>
<text text-anchor="start" x="196" y="-255" font-family="Helvetica,sans-Serif" font-size="10.00">doris::vectorized::</text>
<text text-anchor="start" x="196" y="-244" font-family="Helvetica,sans-Serif" font-size="10.00">VcompoundPred::_get</text>
<text text-anchor="middle" x="244.5" y="-233" font-family="Helvetica,sans-Serif" font-size="10.00">_null_map</text>
</a>
</g>
</g>
<!-- Node1&#45;&gt;Node2 -->
<g id="edge1" class="edge">
<title>Node1&#45;&gt;Node2</title>
<path fill="none" stroke="#63b8ff" d="M367.24,-148.99C359.67,-169.02 345.54,-199.12 324,-217.5 317.37,-223.16 309.53,-227.76 301.42,-231.48"/>
<polygon fill="#63b8ff" stroke="#63b8ff" points="370.5,-150.29 370.54,-139.69 363.9,-147.95 370.5,-150.29"/>
</g>
<!-- Node4 -->
<g id="node4" class="node">
<title>Node4</title>
<g id="a_node4"><a xlink:href="../../df/d84/classdoris_1_1vectorized_1_1_v_explode_bitmap_table_function.html#a668ab34ee81593525f713a52e7c761bd" target="_top" xlink:title=" ">
<polygon fill="white" stroke="#666666" points="319.5,-208 169.5,-208 169.5,-167 319.5,-167 319.5,-208"/>
<text text-anchor="start" x="177.5" y="-196" font-family="Helvetica,sans-Serif" font-size="10.00">doris::vectorized::</text>
<text text-anchor="start" x="177.5" y="-185" font-family="Helvetica,sans-Serif" font-size="10.00">VExplodeBitmapTableFunction</text>
<text text-anchor="middle" x="244.5" y="-174" font-family="Helvetica,sans-Serif" font-size="10.00">::get_value</text>
</a>
</g>
</g>
<!-- Node1&#45;&gt;Node4 -->
<g id="edge4" class="edge">
<title>Node1&#45;&gt;Node4</title>
<path fill="none" stroke="#63b8ff" d="M349.99,-144.14C341.91,-149.07 332.73,-154.31 324,-158.5 318.1,-161.33 311.86,-164.06 305.56,-166.63"/>
<polygon fill="#63b8ff" stroke="#63b8ff" points="351.62,-147.25 358.24,-138.98 347.91,-141.32 351.62,-147.25"/>
</g>
<!-- Node5 -->
<g id="node5" class="node">
<title>Node5</title>
<g id="a_node5"><a xlink:href="../../d5/d44/classdoris_1_1vectorized_1_1_v_explode_numbers_table_function.html#a9834cb066a767a2fef48956b1b88d338" target="_top" xlink:title=" ">
<polygon fill="white" stroke="#666666" points="324,-149 165,-149 165,-108 324,-108 324,-149"/>
<text text-anchor="start" x="173" y="-137" font-family="Helvetica,sans-Serif" font-size="10.00">doris::vectorized::</text>
<text text-anchor="start" x="173" y="-126" font-family="Helvetica,sans-Serif" font-size="10.00">VExplodeNumbersTableFunction</text>
<text text-anchor="middle" x="244.5" y="-115" font-family="Helvetica,sans-Serif" font-size="10.00">::get_value</text>
</a>
</g>
</g>
<!-- Node1&#45;&gt;Node5 -->
<g id="edge5" class="edge">
<title>Node1&#45;&gt;Node5</title>
<path fill="none" stroke="#63b8ff" d="M348.38,-128.5C341.17,-128.5 332.92,-128.5 324.31,-128.5"/>
<polygon fill="#63b8ff" stroke="#63b8ff" points="348.24,-132 358.24,-128.5 348.24,-125 348.24,-132"/>
</g>
<!-- Node6 -->
<g id="node6" class="node">
<title>Node6</title>
<g id="a_node6"><a xlink:href="../../d0/d20/classdoris_1_1vectorized_1_1_v_orc_writer_wrapper.html#abe858af0027a0628e3a80ea2bfc9d56c" target="_top" xlink:title=" ">
<polygon fill="white" stroke="#666666" points="308.5,-89.5 180.5,-89.5 180.5,-59.5 308.5,-59.5 308.5,-89.5"/>
<text text-anchor="start" x="188.5" y="-77.5" font-family="Helvetica,sans-Serif" font-size="10.00">doris::vectorized::</text>
<text text-anchor="middle" x="244.5" y="-66.5" font-family="Helvetica,sans-Serif" font-size="10.00">VOrcWriterWrapper::write</text>
</a>
</g>
</g>
<!-- Node1&#45;&gt;Node6 -->
<g id="edge6" class="edge">
<title>Node1&#45;&gt;Node6</title>
<path fill="none" stroke="#63b8ff" d="M349.78,-113.03C341.77,-108.3 332.68,-103.34 324,-99.5 316.15,-96.02 307.67,-92.81 299.29,-89.91"/>
<polygon fill="#63b8ff" stroke="#63b8ff" points="347.91,-115.99 358.27,-118.21 351.56,-110.02 347.91,-115.99"/>
</g>
<!-- Node7 -->
<g id="node7" class="node">
<title>Node7</title>
<g id="a_node7"><a xlink:href="../../df/d24/classdoris_1_1vectorized_1_1_v_parquet_writer_wrapper.html#abe858af0027a0628e3a80ea2bfc9d56c" target="_top" xlink:title=" ">
<polygon fill="white" stroke="#666666" points="304,-41 185,-41 185,0 304,0 304,-41"/>
<text text-anchor="start" x="193" y="-29" font-family="Helvetica,sans-Serif" font-size="10.00">doris::vectorized::</text>
<text text-anchor="start" x="193" y="-18" font-family="Helvetica,sans-Serif" font-size="10.00">VParquetWriterWrapper</text>
<text text-anchor="middle" x="244.5" y="-7" font-family="Helvetica,sans-Serif" font-size="10.00">::write</text>
</a>
</g>
</g>
<!-- Node1&#45;&gt;Node7 -->
<g id="edge7" class="edge">
<title>Node1&#45;&gt;Node7</title>
<path fill="none" stroke="#63b8ff" d="M365.57,-108.46C357.3,-90.99 343.14,-66.07 324,-50.5 318.11,-45.71 311.38,-41.63 304.39,-38.17"/>
<polygon fill="#63b8ff" stroke="#63b8ff" points="362.25,-109.61 369.53,-117.31 368.64,-106.75 362.25,-109.61"/>
</g>
<!-- Node3 -->
<g id="node3" class="node">
<title>Node3</title>
<g id="a_node3"><a xlink:href="../../db/dce/classdoris_1_1vectorized_1_1_vcompound_pred.html#a40d833847dd889e39724bf1b34741e6d" target="_top" xlink:title=" ">
<polygon fill="white" stroke="#666666" points="129,-261.5 0,-261.5 0,-231.5 129,-231.5 129,-261.5"/>
<text text-anchor="start" x="8" y="-249.5" font-family="Helvetica,sans-Serif" font-size="10.00">doris::vectorized::</text>
<text text-anchor="middle" x="64.5" y="-238.5" font-family="Helvetica,sans-Serif" font-size="10.00">VcompoundPred::execute</text>
</a>
</g>
</g>
<!-- Node2&#45;&gt;Node3 -->
<g id="edge2" class="edge">
<title>Node2&#45;&gt;Node3</title>
<path fill="none" stroke="#63b8ff" d="M176.57,-246.5C161.05,-246.5 144.58,-246.5 129.21,-246.5"/>
<polygon fill="#63b8ff" stroke="#63b8ff" points="176.15,-250 186.15,-246.5 176.15,-243 176.15,-250"/>
</g>
<!-- Node3&#45;&gt;Node3 -->
<g id="edge3" class="edge">
<title>Node3&#45;&gt;Node3</title>
<path fill="none" stroke="#63b8ff" d="M94.87,-273.11C90,-276.93 79.88,-279.5 64.5,-279.5 36.38,-279.5 25.83,-270.91 32.86,-261.78"/>
<polygon fill="#63b8ff" stroke="#63b8ff" points="98.34,-273.61 95.97,-263.28 91.38,-272.83 98.34,-273.61"/>
</g>
</g>
</svg>
