<?xml version="1.0" encoding="UTF-8" standalone="no"?>
<!DOCTYPE svg PUBLIC "-//W3C//DTD SVG 1.1//EN"
 "http://www.w3.org/Graphics/SVG/1.1/DTD/svg11.dtd">
<!-- Generated by graphviz version 7.1.0 (20230121.1956)
 -->
<!-- Title: pop_back Pages: 1 -->
<svg width="550pt" height="161pt"
 viewBox="0.00 0.00 550.00 160.50" xmlns="http://www.w3.org/2000/svg" xmlns:xlink="http://www.w3.org/1999/xlink">
<g id="graph0" class="graph" transform="scale(1 1) rotate(0) translate(4 156.5)">
<title>pop_back</title>
<!-- Node1 -->
<g id="node1" class="node">
<title>Node1</title>
<g id="a_node1"><a xlink:title=" ">
<polygon fill="#999999" stroke="#666666" points="59,-93.5 0,-93.5 0,-74.5 59,-74.5 59,-93.5"/>
<text text-anchor="middle" x="29.5" y="-81.5" font-family="Helvetica,sans-Serif" font-size="10.00">pop_back</text>
</a>
</g>
</g>
<!-- Node2 -->
<g id="node2" class="node">
<title>Node2</title>
<g id="a_node2"><a xlink:href="../../d4/d41/classdoris_1_1vectorized_1_1_column_nullable.html#aa9e5d9e2d52e72e8d397e1f7f6ac943a" target="_top" xlink:title="Return the column that represents values.">
<polygon fill="white" stroke="#666666" points="209,-152.5 108,-152.5 108,-133.5 209,-133.5 209,-152.5"/>
<text text-anchor="middle" x="158.5" y="-140.5" font-family="Helvetica,sans-Serif" font-size="10.00">get_nested_column</text>
</a>
</g>
</g>
<!-- Node1&#45;&gt;Node2 -->
<g id="edge1" class="edge">
<title>Node1&#45;&gt;Node2</title>
<path fill="none" stroke="#63b8ff" d="M43.7,-93.99C56.3,-103.13 76.13,-116.5 95,-125 98.5,-126.58 102.18,-128.06 105.92,-129.43"/>
<polygon fill="#63b8ff" stroke="#63b8ff" points="104.52,-132.65 115.12,-132.55 106.77,-126.02 104.52,-132.65"/>
</g>
<!-- Node3 -->
<g id="node3" class="node">
<title>Node3</title>
<g id="a_node3"><a xlink:href="../../d4/d41/classdoris_1_1vectorized_1_1_column_nullable.html#ae0e77dedb4ba70d2b17b3eecf148ffe2" target="_top" xlink:title=" ">
<polygon fill="white" stroke="#666666" points="214,-115.5 103,-115.5 103,-96.5 214,-96.5 214,-115.5"/>
<text text-anchor="middle" x="158.5" y="-103.5" font-family="Helvetica,sans-Serif" font-size="10.00">get_null_map_column</text>
</a>
</g>
</g>
<!-- Node1&#45;&gt;Node3 -->
<g id="edge2" class="edge">
<title>Node1&#45;&gt;Node3</title>
<path fill="none" stroke="#63b8ff" d="M59.32,-88.99C68.92,-90.66 80.06,-92.58 91.3,-94.53"/>
<polygon fill="#63b8ff" stroke="#63b8ff" points="90.59,-97.96 101.04,-96.22 91.79,-91.06 90.59,-97.96"/>
</g>
<!-- Node4 -->
<g id="node4" class="node">
<title>Node4</title>
<g id="a_node4"><a xlink:href="../../df/d15/classdoris_1_1vectorized_1_1_column_vector.html#ae599ccb1de56315c080bd5c6549d7cc5" target="_top" xlink:title=" ">
<polygon fill="white" stroke="#666666" points="222,-78 95,-78 95,-48 222,-48 222,-78"/>
<text text-anchor="start" x="103" y="-66" font-family="Helvetica,sans-Serif" font-size="10.00">doris::vectorized::</text>
<text text-anchor="middle" x="158.5" y="-55" font-family="Helvetica,sans-Serif" font-size="10.00">ColumnVector::pop_back</text>
</a>
</g>
</g>
<!-- Node1&#45;&gt;Node4 -->
<g id="edge3" class="edge">
<title>Node1&#45;&gt;Node4</title>
<path fill="none" stroke="#63b8ff" d="M59.32,-79.23C66.65,-78.02 74.86,-76.66 83.34,-75.26"/>
<polygon fill="#63b8ff" stroke="#63b8ff" points="83.79,-78.74 93.09,-73.65 82.65,-71.83 83.79,-78.74"/>
</g>
<!-- Node8 -->
<g id="node8" class="node">
<title>Node8</title>
<g id="a_node8"><a xlink:href="../../da/dde/classdoris_1_1vectorized_1_1_i_column.html#a860335bc2a847db0a6c9a23ae07caad2" target="_top" xlink:title=" ">
<polygon fill="white" stroke="#666666" points="209,-30 108,-30 108,0 209,0 209,-30"/>
<text text-anchor="start" x="116" y="-18" font-family="Helvetica,sans-Serif" font-size="10.00">doris::vectorized::</text>
<text text-anchor="middle" x="158.5" y="-7" font-family="Helvetica,sans-Serif" font-size="10.00">IColumn::pop_back</text>
</a>
</g>
</g>
<!-- Node1&#45;&gt;Node8 -->
<g id="edge7" class="edge">
<title>Node1&#45;&gt;Node8</title>
<path fill="none" stroke="#63b8ff" d="M42.77,-74.08C55.33,-64.26 75.7,-49.24 95,-39 97.52,-37.67 100.12,-36.37 102.78,-35.11"/>
<polygon fill="#63b8ff" stroke="#63b8ff" points="104.1,-38.35 111.81,-31.09 101.25,-31.96 104.1,-38.35"/>
</g>
<!-- Node5 -->
<g id="node5" class="node">
<title>Node5</title>
<g id="a_node5"><a xlink:href="../../d5/d9d/classdoris_1_1vectorized_1_1_p_o_d_array_base.html#afa97d17a5fedae2da8191c2c52aa6025" target="_top" xlink:title=" ">
<polygon fill="white" stroke="#666666" points="374,-110.5 258,-110.5 258,-69.5 374,-69.5 374,-110.5"/>
<text text-anchor="start" x="266" y="-98.5" font-family="Helvetica,sans-Serif" font-size="10.00">doris::vectorized::</text>
<text text-anchor="start" x="266" y="-87.5" font-family="Helvetica,sans-Serif" font-size="10.00">PODArrayBase::resize</text>
<text text-anchor="middle" x="316" y="-76.5" font-family="Helvetica,sans-Serif" font-size="10.00">_assume_reserved</text>
</a>
</g>
</g>
<!-- Node4&#45;&gt;Node5 -->
<g id="edge4" class="edge">
<title>Node4&#45;&gt;Node5</title>
<path fill="none" stroke="#63b8ff" d="M222.3,-73.9C230.32,-75.3 238.56,-76.73 246.66,-78.13"/>
<polygon fill="#63b8ff" stroke="#63b8ff" points="246.05,-81.58 256.5,-79.84 247.25,-74.68 246.05,-81.58"/>
</g>
<!-- Node7 -->
<g id="node7" class="node">
<title>Node7</title>
<g id="a_node7"><a xlink:href="../../d5/d9d/classdoris_1_1vectorized_1_1_p_o_d_array_base.html#a259cb5a711406a8c3e5d937eb9350cca" target="_top" xlink:title=" ">
<polygon fill="white" stroke="#666666" points="370,-51 262,-51 262,-21 370,-21 370,-51"/>
<text text-anchor="start" x="270" y="-39" font-family="Helvetica,sans-Serif" font-size="10.00">doris::vectorized::</text>
<text text-anchor="middle" x="316" y="-28" font-family="Helvetica,sans-Serif" font-size="10.00">PODArrayBase::size</text>
</a>
</g>
</g>
<!-- Node4&#45;&gt;Node7 -->
<g id="edge6" class="edge">
<title>Node4&#45;&gt;Node7</title>
<path fill="none" stroke="#63b8ff" d="M222.3,-52.1C231.65,-50.47 241.3,-48.8 250.68,-47.17"/>
<polygon fill="#63b8ff" stroke="#63b8ff" points="251.2,-50.63 260.45,-45.47 250,-43.73 251.2,-50.63"/>
</g>
<!-- Node6 -->
<g id="node6" class="node">
<title>Node6</title>
<g id="a_node6"><a xlink:href="../../d5/d9d/classdoris_1_1vectorized_1_1_p_o_d_array_base.html#a4fd871ea772d3f22957ed8dd6a0aebb6" target="_top" xlink:title="Does not include pad_right.">
<polygon fill="white" stroke="#666666" points="542,-105 410,-105 410,-75 542,-75 542,-105"/>
<text text-anchor="start" x="418" y="-93" font-family="Helvetica,sans-Serif" font-size="10.00">doris::vectorized::</text>
<text text-anchor="middle" x="476" y="-82" font-family="Helvetica,sans-Serif" font-size="10.00">PODArrayBase::byte_size</text>
</a>
</g>
</g>
<!-- Node5&#45;&gt;Node6 -->
<g id="edge5" class="edge">
<title>Node5&#45;&gt;Node6</title>
<path fill="none" stroke="#63b8ff" d="M374.49,-90C382.22,-90 390.26,-90 398.26,-90"/>
<polygon fill="#63b8ff" stroke="#63b8ff" points="398.01,-93.5 408.01,-90 398.01,-86.5 398.01,-93.5"/>
</g>
</g>
</svg>
