<?xml version="1.0" encoding="UTF-8" standalone="no"?>
<!DOCTYPE svg PUBLIC "-//W3C//DTD SVG 1.1//EN"
 "http://www.w3.org/Graphics/SVG/1.1/DTD/svg11.dtd">
<!-- Generated by graphviz version 7.1.0 (20230121.1956)
 -->
<!-- Title: round_up_numi_64 Pages: 1 -->
<svg width="428pt" height="131pt"
 viewBox="0.00 0.00 428.00 130.50" xmlns="http://www.w3.org/2000/svg" xmlns:xlink="http://www.w3.org/1999/xlink">
<g id="graph0" class="graph" transform="scale(1 1) rotate(0) translate(4 126.5)">
<title>round_up_numi_64</title>
<!-- Node1 -->
<g id="node1" class="node">
<title>Node1</title>
<g id="a_node1"><a xlink:title=" ">
<polygon fill="#999999" stroke="#666666" points="420,-85.5 322,-85.5 322,-66.5 420,-66.5 420,-85.5"/>
<text text-anchor="middle" x="371" y="-73.5" font-family="Helvetica,sans-Serif" font-size="10.00">round_up_numi_64</text>
</a>
</g>
</g>
<!-- Node2 -->
<g id="node2" class="node">
<title>Node2</title>
<g id="a_node2"><a xlink:href="../../df/de9/classdoris_1_1_bitmap.html#a3ce8347a9e90dff4c94f779e2b350d19" target="_top" xlink:title=" ">
<polygon fill="white" stroke="#666666" points="276,-122.5 165,-122.5 165,-103.5 276,-103.5 276,-122.5"/>
<text text-anchor="middle" x="220.5" y="-110.5" font-family="Helvetica,sans-Serif" font-size="10.00">doris::Bitmap::Bitmap</text>
</a>
</g>
</g>
<!-- Node1&#45;&gt;Node2 -->
<g id="edge1" class="edge">
<title>Node1&#45;&gt;Node2</title>
<path fill="none" stroke="#63b8ff" d="M319.1,-88.68C300.24,-93.38 279.15,-98.64 261.41,-103.06"/>
<polygon fill="#63b8ff" stroke="#63b8ff" points="319.88,-92.1 328.74,-86.28 318.19,-85.3 319.88,-92.1"/>
</g>
<!-- Node3 -->
<g id="node3" class="node">
<title>Node3</title>
<g id="a_node3"><a xlink:href="../../df/de9/classdoris_1_1_bitmap.html#a3261a0da7e831599b182eba23a3e46a1" target="_top" xlink:title="Compute memory usage of a bitmap, not including the Bitmap object itself.">
<polygon fill="white" stroke="#666666" points="286,-85.5 155,-85.5 155,-66.5 286,-66.5 286,-85.5"/>
<text text-anchor="middle" x="220.5" y="-73.5" font-family="Helvetica,sans-Serif" font-size="10.00">doris::Bitmap::MemUsage</text>
</a>
</g>
</g>
<!-- Node1&#45;&gt;Node3 -->
<g id="edge2" class="edge">
<title>Node1&#45;&gt;Node3</title>
<path fill="none" stroke="#63b8ff" d="M310.45,-76C302.56,-76 294.45,-76 286.48,-76"/>
<polygon fill="#63b8ff" stroke="#63b8ff" points="310.27,-79.5 320.27,-76 310.27,-72.5 310.27,-79.5"/>
</g>
<!-- Node4 -->
<g id="node4" class="node">
<title>Node4</title>
<g id="a_node4"><a xlink:href="../../df/de9/classdoris_1_1_bitmap.html#a9951fbf88756cdabf48fe7722f78fba7" target="_top" xlink:title="Resize bitmap and set all bits to zero.">
<polygon fill="white" stroke="#666666" points="274,-48.5 167,-48.5 167,-29.5 274,-29.5 274,-48.5"/>
<text text-anchor="middle" x="220.5" y="-36.5" font-family="Helvetica,sans-Serif" font-size="10.00">doris::Bitmap::Reset</text>
</a>
</g>
</g>
<!-- Node1&#45;&gt;Node4 -->
<g id="edge3" class="edge">
<title>Node1&#45;&gt;Node4</title>
<path fill="none" stroke="#63b8ff" d="M319.1,-63.32C300.24,-58.62 279.15,-53.36 261.41,-48.94"/>
<polygon fill="#63b8ff" stroke="#63b8ff" points="318.19,-66.7 328.74,-65.72 319.88,-59.9 318.19,-66.7"/>
</g>
<!-- Node5 -->
<g id="node5" class="node">
<title>Node5</title>
<g id="a_node5"><a xlink:href="../../df/dd9/classdoris_1_1_tablets_channel.html#aeed2f12e31d76d3dc81ebfa0aca1f14d" target="_top" xlink:title=" ">
<polygon fill="white" stroke="#666666" points="115,-78 4,-78 4,-48 115,-48 115,-78"/>
<text text-anchor="start" x="12" y="-66" font-family="Helvetica,sans-Serif" font-size="10.00">doris::TabletsChannel</text>
<text text-anchor="middle" x="59.5" y="-55" font-family="Helvetica,sans-Serif" font-size="10.00">::open</text>
</a>
</g>
</g>
<!-- Node4&#45;&gt;Node5 -->
<g id="edge4" class="edge">
<title>Node4&#45;&gt;Node5</title>
<path fill="none" stroke="#63b8ff" d="M155.55,-48.65C142.25,-50.66 128.34,-52.76 115.39,-54.71"/>
<polygon fill="#63b8ff" stroke="#63b8ff" points="155.69,-52.17 165.06,-47.22 154.65,-45.25 155.69,-52.17"/>
</g>
<!-- Node6 -->
<g id="node6" class="node">
<title>Node6</title>
<g id="a_node6"><a xlink:href="../../d2/d6d/classdoris_1_1stream__load_1_1_v_olap_table_sink.html#a3d7b622f77d10de8f3cae03426932329" target="_top" xlink:title=" ">
<polygon fill="white" stroke="#666666" points="119,-30 0,-30 0,0 119,0 119,-30"/>
<text text-anchor="start" x="8" y="-18" font-family="Helvetica,sans-Serif" font-size="10.00">doris::stream_load</text>
<text text-anchor="middle" x="59.5" y="-7" font-family="Helvetica,sans-Serif" font-size="10.00">::VOlapTableSink::send</text>
</a>
</g>
</g>
<!-- Node4&#45;&gt;Node6 -->
<g id="edge5" class="edge">
<title>Node4&#45;&gt;Node6</title>
<path fill="none" stroke="#63b8ff" d="M155.31,-29.31C143.39,-27.51 130.99,-25.64 119.24,-23.87"/>
<polygon fill="#63b8ff" stroke="#63b8ff" points="154.65,-32.75 165.06,-30.78 155.69,-25.83 154.65,-32.75"/>
</g>
</g>
</svg>
