<?xml version="1.0" encoding="UTF-8" standalone="no"?>
<!DOCTYPE svg PUBLIC "-//W3C//DTD SVG 1.1//EN"
 "http://www.w3.org/Graphics/SVG/1.1/DTD/svg11.dtd">
<!-- Generated by graphviz version 7.1.0 (20230121.1956)
 -->
<!-- Title: _decode_datetime64 Pages: 1 -->
<svg width="416pt" height="301pt"
 viewBox="0.00 0.00 416.00 301.00" xmlns="http://www.w3.org/2000/svg" xmlns:xlink="http://www.w3.org/1999/xlink">
<g id="graph0" class="graph" transform="scale(1 1) rotate(0) translate(4 297)">
<title>_decode_datetime64</title>
<!-- Node1 -->
<g id="node1" class="node">
<title>Node1</title>
<g id="a_node1"><a xlink:title=" ">
<polygon fill="#999999" stroke="#666666" points="107,-144.5 0,-144.5 0,-125.5 107,-125.5 107,-144.5"/>
<text text-anchor="middle" x="53.5" y="-132.5" font-family="Helvetica,sans-Serif" font-size="10.00">_decode_datetime64</text>
</a>
</g>
</g>
<!-- Node2 -->
<g id="node2" class="node">
<title>Node2</title>
<g id="a_node2"><a xlink:href="../../df/d15/classdoris_1_1vectorized_1_1_column_vector.html#a3206c08675c03058605f3a6e5a452b5c" target="_top" xlink:title=" ">
<polygon fill="white" stroke="#666666" points="265,-293 143,-293 143,-263 265,-263 265,-293"/>
<text text-anchor="start" x="151" y="-281" font-family="Helvetica,sans-Serif" font-size="10.00">doris::vectorized::</text>
<text text-anchor="middle" x="204" y="-270" font-family="Helvetica,sans-Serif" font-size="10.00">ColumnVector::get_data</text>
</a>
</g>
</g>
<!-- Node1&#45;&gt;Node2 -->
<g id="edge1" class="edge">
<title>Node1&#45;&gt;Node2</title>
<path fill="none" stroke="#63b8ff" d="M59.32,-144.75C70.82,-167.08 101.99,-222.44 143,-254 144.31,-255 145.66,-255.97 147.05,-256.91"/>
<polygon fill="#63b8ff" stroke="#63b8ff" points="144.98,-259.75 155.38,-261.79 148.52,-253.71 144.98,-259.75"/>
</g>
<!-- Node3 -->
<g id="node3" class="node">
<title>Node3</title>
<g id="a_node3"><a xlink:href="../../d6/d78/classdoris_1_1vectorized_1_1_column_select_vector.html#a0b3ec8559c7b62480cfa742d18e08da5" target="_top" xlink:title=" ">
<polygon fill="white" stroke="#666666" points="260.5,-244.5 147.5,-244.5 147.5,-203.5 260.5,-203.5 260.5,-244.5"/>
<text text-anchor="start" x="155.5" y="-232.5" font-family="Helvetica,sans-Serif" font-size="10.00">doris::vectorized::</text>
<text text-anchor="start" x="155.5" y="-221.5" font-family="Helvetica,sans-Serif" font-size="10.00">ColumnSelectVector::</text>
<text text-anchor="middle" x="204" y="-210.5" font-family="Helvetica,sans-Serif" font-size="10.00">get_next_run</text>
</a>
</g>
</g>
<!-- Node1&#45;&gt;Node3 -->
<g id="edge2" class="edge">
<title>Node1&#45;&gt;Node3</title>
<path fill="none" stroke="#63b8ff" d="M67.9,-144.99C84.9,-157.45 115.34,-179.05 143,-195 144.62,-195.93 146.27,-196.86 147.95,-197.79"/>
<polygon fill="#63b8ff" stroke="#63b8ff" points="145.94,-200.68 156.41,-202.29 149.23,-194.5 145.94,-200.68"/>
</g>
<!-- Node4 -->
<g id="node4" class="node">
<title>Node4</title>
<g id="a_node4"><a xlink:href="../../d6/d78/classdoris_1_1vectorized_1_1_column_select_vector.html#a6ddde92e8f43be3f6b2bda2a8e15b6cc" target="_top" xlink:title=" ">
<polygon fill="white" stroke="#666666" points="260.5,-185.5 147.5,-185.5 147.5,-144.5 260.5,-144.5 260.5,-185.5"/>
<text text-anchor="start" x="155.5" y="-173.5" font-family="Helvetica,sans-Serif" font-size="10.00">doris::vectorized::</text>
<text text-anchor="start" x="155.5" y="-162.5" font-family="Helvetica,sans-Serif" font-size="10.00">ColumnSelectVector::</text>
<text text-anchor="middle" x="204" y="-151.5" font-family="Helvetica,sans-Serif" font-size="10.00">num_filtered</text>
</a>
</g>
</g>
<!-- Node1&#45;&gt;Node4 -->
<g id="edge3" class="edge">
<title>Node1&#45;&gt;Node4</title>
<path fill="none" stroke="#63b8ff" d="M103.95,-144.99C114.22,-147.06 125.2,-149.28 135.98,-151.46"/>
<polygon fill="#63b8ff" stroke="#63b8ff" points="135.12,-154.86 145.62,-153.41 136.51,-148 135.12,-154.86"/>
</g>
<!-- Node5 -->
<g id="node5" class="node">
<title>Node5</title>
<g id="a_node5"><a xlink:href="../../d6/d78/classdoris_1_1vectorized_1_1_column_select_vector.html#aac8e28a698cd201286d75eb3f5ad3e1c" target="_top" xlink:title=" ">
<polygon fill="white" stroke="#666666" points="260.5,-126.5 147.5,-126.5 147.5,-85.5 260.5,-85.5 260.5,-126.5"/>
<text text-anchor="start" x="155.5" y="-114.5" font-family="Helvetica,sans-Serif" font-size="10.00">doris::vectorized::</text>
<text text-anchor="start" x="155.5" y="-103.5" font-family="Helvetica,sans-Serif" font-size="10.00">ColumnSelectVector::</text>
<text text-anchor="middle" x="204" y="-92.5" font-family="Helvetica,sans-Serif" font-size="10.00">num_values</text>
</a>
</g>
</g>
<!-- Node1&#45;&gt;Node5 -->
<g id="edge4" class="edge">
<title>Node1&#45;&gt;Node5</title>
<path fill="none" stroke="#63b8ff" d="M105.61,-125.02C115.46,-123.09 125.93,-121.05 136.2,-119.05"/>
<polygon fill="#63b8ff" stroke="#63b8ff" points="136.6,-122.53 145.74,-117.18 135.26,-115.66 136.6,-122.53"/>
</g>
<!-- Node6 -->
<g id="node6" class="node">
<title>Node6</title>
<g id="a_node6"><a xlink:href="../../d9/d8d/classdoris_1_1_status.html#a6ec1a217f203269ab53d2290d602db24" target="_top" xlink:title=" ">
<polygon fill="white" stroke="#666666" points="250,-67.5 158,-67.5 158,-48.5 250,-48.5 250,-67.5"/>
<text text-anchor="middle" x="204" y="-55.5" font-family="Helvetica,sans-Serif" font-size="10.00">doris::Status::OK</text>
</a>
</g>
</g>
<!-- Node1&#45;&gt;Node6 -->
<g id="edge5" class="edge">
<title>Node1&#45;&gt;Node6</title>
<path fill="none" stroke="#63b8ff" d="M67.04,-125.18C83.62,-112.58 114.13,-90.71 143,-77 146.99,-75.1 151.22,-73.33 155.52,-71.69"/>
<polygon fill="#63b8ff" stroke="#63b8ff" points="156.54,-75.04 164.79,-68.4 154.2,-68.45 156.54,-75.04"/>
</g>
<!-- Node8 -->
<g id="node8" class="node">
<title>Node8</title>
<g id="a_node8"><a xlink:href="../../d5/d9d/classdoris_1_1vectorized_1_1_p_o_d_array_base.html#a259cb5a711406a8c3e5d937eb9350cca" target="_top" xlink:title=" ">
<polygon fill="white" stroke="#666666" points="258,-30 150,-30 150,0 258,0 258,-30"/>
<text text-anchor="start" x="158" y="-18" font-family="Helvetica,sans-Serif" font-size="10.00">doris::vectorized::</text>
<text text-anchor="middle" x="204" y="-7" font-family="Helvetica,sans-Serif" font-size="10.00">PODArrayBase::size</text>
</a>
</g>
</g>
<!-- Node1&#45;&gt;Node8 -->
<g id="edge7" class="edge">
<title>Node1&#45;&gt;Node8</title>
<path fill="none" stroke="#63b8ff" d="M61.45,-125.09C75.12,-106.22 107.29,-64.84 143,-40 145.07,-38.56 147.24,-37.18 149.46,-35.86"/>
<polygon fill="#63b8ff" stroke="#63b8ff" points="151.04,-38.99 158.21,-31.19 147.74,-32.82 151.04,-38.99"/>
</g>
<!-- Node7 -->
<g id="node7" class="node">
<title>Node7</title>
<g id="a_node7"><a xlink:href="../../d9/d8d/classdoris_1_1_status.html#aafde58df1b2a6a91d5b674373be3ffc5" target="_top" xlink:title=" ">
<polygon fill="white" stroke="#666666" points="408,-67.5 301,-67.5 301,-48.5 408,-48.5 408,-67.5"/>
<text text-anchor="middle" x="354.5" y="-55.5" font-family="Helvetica,sans-Serif" font-size="10.00">doris::Status::Status</text>
</a>
</g>
</g>
<!-- Node6&#45;&gt;Node7 -->
<g id="edge6" class="edge">
<title>Node6&#45;&gt;Node7</title>
<path fill="none" stroke="#63b8ff" d="M250.36,-58C262.63,-58 276.15,-58 289.24,-58"/>
<polygon fill="#63b8ff" stroke="#63b8ff" points="289.09,-61.5 299.09,-58 289.09,-54.5 289.09,-61.5"/>
</g>
</g>
</svg>
