<?xml version="1.0" encoding="UTF-8" standalone="no"?>
<!DOCTYPE svg PUBLIC "-//W3C//DTD SVG 1.1//EN"
 "http://www.w3.org/Graphics/SVG/1.1/DTD/svg11.dtd">
<!-- Generated by graphviz version 7.1.0 (20230121.1956)
 -->
<!-- Title: insert Pages: 1 -->
<svg width="638pt" height="134pt"
 viewBox="0.00 0.00 638.00 134.00" xmlns="http://www.w3.org/2000/svg" xmlns:xlink="http://www.w3.org/1999/xlink">
<g id="graph0" class="graph" transform="scale(1 1) rotate(0) translate(4 130)">
<title>insert</title>
<!-- Node1 -->
<g id="node1" class="node">
<title>Node1</title>
<g id="a_node1"><a xlink:title="insert element after current one">
<polygon fill="#999999" stroke="#666666" points="41,-48.5 0,-48.5 0,-29.5 41,-29.5 41,-48.5"/>
<text text-anchor="middle" x="20.5" y="-36.5" font-family="Helvetica,sans-Serif" font-size="10.00">insert</text>
</a>
</g>
</g>
<!-- Node2 -->
<g id="node2" class="node">
<title>Node2</title>
<g id="a_node2"><a xlink:href="../../d8/dc2/classdoris_1_1vectorized_1_1_arena.html#aeb27080055c9e3a4b7844ccabbd6b823" target="_top" xlink:title="Get piece of memory, without alignment.">
<polygon fill="white" stroke="#666666" points="172,-54 77,-54 77,-24 172,-24 172,-54"/>
<text text-anchor="start" x="85" y="-42" font-family="Helvetica,sans-Serif" font-size="10.00">doris::vectorized::</text>
<text text-anchor="middle" x="124.5" y="-31" font-family="Helvetica,sans-Serif" font-size="10.00">Arena::alloc</text>
</a>
</g>
</g>
<!-- Node1&#45;&gt;Node2 -->
<g id="edge1" class="edge">
<title>Node1&#45;&gt;Node2</title>
<path fill="none" stroke="#63b8ff" d="M41.17,-39C48.25,-39 56.65,-39 65.34,-39"/>
<polygon fill="#63b8ff" stroke="#63b8ff" points="65.31,-42.5 75.31,-39 65.31,-35.5 65.31,-42.5"/>
</g>
<!-- Node3 -->
<g id="node3" class="node">
<title>Node3</title>
<g id="a_node3"><a xlink:href="../../d8/dc2/classdoris_1_1vectorized_1_1_arena.html#a21541f1fef5f7191182d945a65deb819" target="_top" xlink:title="Add next contiguous chunk of memory with size not less than specified.">
<polygon fill="white" stroke="#666666" points="303,-78 208,-78 208,-48 303,-48 303,-78"/>
<text text-anchor="start" x="216" y="-66" font-family="Helvetica,sans-Serif" font-size="10.00">doris::vectorized::</text>
<text text-anchor="middle" x="255.5" y="-55" font-family="Helvetica,sans-Serif" font-size="10.00">Arena::add_chunk</text>
</a>
</g>
</g>
<!-- Node2&#45;&gt;Node3 -->
<g id="edge2" class="edge">
<title>Node2&#45;&gt;Node3</title>
<path fill="none" stroke="#63b8ff" d="M172.44,-47.73C180.27,-49.19 188.48,-50.72 196.55,-52.22"/>
<polygon fill="#63b8ff" stroke="#63b8ff" points="195.85,-55.65 206.33,-54.04 197.13,-48.77 195.85,-55.65"/>
</g>
<!-- Node8 -->
<g id="node8" class="node">
<title>Node8</title>
<g id="a_node8"><a xlink:href="../../d8/dc2/classdoris_1_1vectorized_1_1_arena.html#a259cb5a711406a8c3e5d937eb9350cca" target="_top" xlink:title="Size of chunks in bytes.">
<polygon fill="white" stroke="#666666" points="303,-30 208,-30 208,0 303,0 303,-30"/>
<text text-anchor="start" x="216" y="-18" font-family="Helvetica,sans-Serif" font-size="10.00">doris::vectorized::</text>
<text text-anchor="middle" x="255.5" y="-7" font-family="Helvetica,sans-Serif" font-size="10.00">Arena::size</text>
</a>
</g>
</g>
<!-- Node2&#45;&gt;Node8 -->
<g id="edge8" class="edge">
<title>Node2&#45;&gt;Node8</title>
<path fill="none" stroke="#63b8ff" d="M172.44,-30.27C180.27,-28.81 188.48,-27.28 196.55,-25.78"/>
<polygon fill="#63b8ff" stroke="#63b8ff" points="197.13,-29.23 206.33,-23.96 195.85,-22.35 197.13,-29.23"/>
</g>
<!-- Node4 -->
<g id="node4" class="node">
<title>Node4</title>
<g id="a_node4"><a xlink:href="../../d8/dc2/classdoris_1_1vectorized_1_1_arena.html#a1a9c7b2d340ab77e9684bab78edab105" target="_top" xlink:title=" ">
<polygon fill="white" stroke="#666666" points="438.5,-121 343.5,-121 343.5,-91 438.5,-91 438.5,-121"/>
<text text-anchor="start" x="351.5" y="-109" font-family="Helvetica,sans-Serif" font-size="10.00">doris::vectorized::</text>
<text text-anchor="middle" x="391" y="-98" font-family="Helvetica,sans-Serif" font-size="10.00">Arena::next_size</text>
</a>
</g>
</g>
<!-- Node3&#45;&gt;Node4 -->
<g id="edge3" class="edge">
<title>Node3&#45;&gt;Node4</title>
<path fill="none" stroke="#63b8ff" d="M303.19,-78.04C312.59,-81.07 322.57,-84.28 332.29,-87.41"/>
<polygon fill="#63b8ff" stroke="#63b8ff" points="331.08,-90.7 341.67,-90.43 333.22,-84.04 331.08,-90.7"/>
</g>
<!-- Node6 -->
<g id="node6" class="node">
<title>Node6</title>
<g id="a_node6"><a xlink:href="../../d8/d39/structdoris_1_1vectorized_1_1_arena_1_1_chunk.html#a259cb5a711406a8c3e5d937eb9350cca" target="_top" xlink:title=" ">
<polygon fill="white" stroke="#666666" points="605,-78 504,-78 504,-48 605,-48 605,-78"/>
<text text-anchor="start" x="512" y="-66" font-family="Helvetica,sans-Serif" font-size="10.00">doris::vectorized::</text>
<text text-anchor="middle" x="554.5" y="-55" font-family="Helvetica,sans-Serif" font-size="10.00">Arena::Chunk::size</text>
</a>
</g>
</g>
<!-- Node3&#45;&gt;Node6 -->
<g id="edge6" class="edge">
<title>Node3&#45;&gt;Node6</title>
<path fill="none" stroke="#63b8ff" d="M303.23,-63C354.28,-63 436.23,-63 492.36,-63"/>
<polygon fill="#63b8ff" stroke="#63b8ff" points="492.06,-66.5 502.06,-63 492.06,-59.5 492.06,-66.5"/>
</g>
<!-- Node7 -->
<g id="node7" class="node">
<title>Node7</title>
<g id="a_node7"><a xlink:href="../../d8/d39/structdoris_1_1vectorized_1_1_arena_1_1_chunk.html#a45b3de73f90ad71af703a8fddb0075b8" target="_top" xlink:title=" ">
<polygon fill="white" stroke="#666666" points="443,-35 339,-35 339,-5 443,-5 443,-35"/>
<text text-anchor="start" x="347" y="-23" font-family="Helvetica,sans-Serif" font-size="10.00">doris::vectorized::</text>
<text text-anchor="middle" x="391" y="-12" font-family="Helvetica,sans-Serif" font-size="10.00">Arena::Chunk::used</text>
</a>
</g>
</g>
<!-- Node3&#45;&gt;Node7 -->
<g id="edge7" class="edge">
<title>Node3&#45;&gt;Node7</title>
<path fill="none" stroke="#63b8ff" d="M303.19,-47.96C312.27,-45.04 321.9,-41.94 331.3,-38.91"/>
<polygon fill="#63b8ff" stroke="#63b8ff" points="332.32,-42.26 340.76,-35.86 330.17,-35.59 332.32,-42.26"/>
</g>
<!-- Node5 -->
<g id="node5" class="node">
<title>Node5</title>
<g id="a_node5"><a xlink:href="../../d8/dc2/classdoris_1_1vectorized_1_1_arena.html#adc38d1cfb3e544603e6ae4beb23da369" target="_top" xlink:title=" ">
<polygon fill="white" stroke="#666666" points="630,-126 479,-126 479,-96 630,-96 630,-126"/>
<text text-anchor="start" x="487" y="-114" font-family="Helvetica,sans-Serif" font-size="10.00">doris::vectorized::</text>
<text text-anchor="middle" x="554.5" y="-103" font-family="Helvetica,sans-Serif" font-size="10.00">Arena::round_up_to_page_size</text>
</a>
</g>
</g>
<!-- Node4&#45;&gt;Node5 -->
<g id="edge4" class="edge">
<title>Node4&#45;&gt;Node5</title>
<path fill="none" stroke="#63b8ff" d="M438.71,-107.45C447.68,-107.72 457.34,-108.02 467.11,-108.33"/>
<polygon fill="#63b8ff" stroke="#63b8ff" points="466.98,-111.82 477.08,-108.63 467.2,-104.83 466.98,-111.82"/>
</g>
<!-- Node4&#45;&gt;Node6 -->
<g id="edge5" class="edge">
<title>Node4&#45;&gt;Node6</title>
<path fill="none" stroke="#63b8ff" d="M438.71,-93.56C455.53,-89.08 474.76,-83.96 492.61,-79.21"/>
<polygon fill="#63b8ff" stroke="#63b8ff" points="493.28,-82.65 502.05,-76.7 491.48,-75.89 493.28,-82.65"/>
</g>
</g>
</svg>
