<?xml version="1.0" encoding="UTF-8" standalone="no"?>
<!DOCTYPE svg PUBLIC "-//W3C//DTD SVG 1.1//EN"
 "http://www.w3.org/Graphics/SVG/1.1/DTD/svg11.dtd">
<!-- Generated by graphviz version 7.1.0 (20230121.1956)
 -->
<!-- Title: ArrayColumnWriter Pages: 1 -->
<svg width="344pt" height="225pt"
 viewBox="0.00 0.00 344.00 225.00" xmlns="http://www.w3.org/2000/svg" xmlns:xlink="http://www.w3.org/1999/xlink">
<g id="graph0" class="graph" transform="scale(1 1) rotate(0) translate(4 221)">
<title>ArrayColumnWriter</title>
<!-- Node1 -->
<g id="node1" class="node">
<title>Node1</title>
<g id="a_node1"><a xlink:title=" ">
<polygon fill="#999999" stroke="#666666" points="194.5,-19 95.5,-19 95.5,0 194.5,0 194.5,-19"/>
<text text-anchor="middle" x="145" y="-7" font-family="Helvetica,sans-Serif" font-size="10.00">ArrayColumnWriter</text>
</a>
</g>
</g>
<!-- Node2 -->
<g id="node2" class="node">
<title>Node2</title>
<g id="a_node2"><a xlink:href="../../dc/d7c/classdoris_1_1segment__v2_1_1_column_writer.html" target="_top" xlink:title=" ">
<polygon fill="white" stroke="#666666" points="76,-85 0,-85 0,-66 76,-66 76,-85"/>
<text text-anchor="middle" x="38" y="-73" font-family="Helvetica,sans-Serif" font-size="10.00">ColumnWriter</text>
</a>
</g>
</g>
<!-- Node2&#45;&gt;Node1 -->
<g id="edge1" class="edge">
<title>Node2&#45;&gt;Node1</title>
<path fill="none" stroke="#63b8ff" d="M62.65,-59.75C83.55,-47.26 112.82,-29.75 130.25,-19.32"/>
<polygon fill="#63b8ff" stroke="#63b8ff" points="60.96,-56.69 54.18,-64.82 64.56,-62.69 60.96,-56.69"/>
</g>
<!-- Node3 -->
<g id="node3" class="node">
<title>Node3</title>
<g id="a_node3"><a xlink:href="../../d5/d46/classdoris_1_1segment__v2_1_1_flush_page_callback.html" target="_top" xlink:title=" ">
<polygon fill="white" stroke="#666666" points="195.5,-85 94.5,-85 94.5,-66 195.5,-66 195.5,-85"/>
<text text-anchor="middle" x="145" y="-73" font-family="Helvetica,sans-Serif" font-size="10.00">FlushPageCallback</text>
</a>
</g>
</g>
<!-- Node3&#45;&gt;Node1 -->
<g id="edge2" class="edge">
<title>Node3&#45;&gt;Node1</title>
<path fill="none" stroke="#63b8ff" d="M145,-54.18C145,-42.44 145,-28.27 145,-19.32"/>
<polygon fill="#63b8ff" stroke="#63b8ff" points="141.5,-54.09 145,-64.09 148.5,-54.09 141.5,-54.09"/>
</g>
<!-- Node4 -->
<g id="node4" class="node">
<title>Node4</title>
<g id="a_node4"><a xlink:href="../../d5/d98/structdoris_1_1segment__v2_1_1_column_writer_options.html" target="_top" xlink:title=" ">
<polygon fill="white" stroke="#666666" points="324,-85 214,-85 214,-66 324,-66 324,-85"/>
<text text-anchor="middle" x="269" y="-73" font-family="Helvetica,sans-Serif" font-size="10.00">ColumnWriterOptions</text>
</a>
</g>
</g>
<!-- Node4&#45;&gt;Node1 -->
<g id="edge3" class="edge">
<title>Node4&#45;&gt;Node1</title>
<path fill="none" stroke="#9a32cd" stroke-dasharray="5,2" d="M241.75,-60.43C217.46,-47.9 182.66,-29.94 162.1,-19.32"/>
<polygon fill="#9a32cd" stroke="#9a32cd" points="239.92,-63.43 250.41,-64.91 243.13,-57.21 239.92,-63.43"/>
<text text-anchor="middle" x="228" y="-40" font-family="Helvetica,sans-Serif" font-size="10.00"> _opts</text>
</g>
<!-- Node5 -->
<g id="node5" class="node">
<title>Node5</title>
<g id="a_node5"><a xlink:href="../../d1/da0/classdoris_1_1_tablet_index.html" target="_top" xlink:title=" ">
<polygon fill="white" stroke="#666666" points="302.5,-151 235.5,-151 235.5,-132 302.5,-132 302.5,-151"/>
<text text-anchor="middle" x="269" y="-139" font-family="Helvetica,sans-Serif" font-size="10.00">TabletIndex</text>
</a>
</g>
</g>
<!-- Node5&#45;&gt;Node4 -->
<g id="edge4" class="edge">
<title>Node5&#45;&gt;Node4</title>
<path fill="none" stroke="#9a32cd" stroke-dasharray="5,2" d="M269,-120.18C269,-108.44 269,-94.27 269,-85.32"/>
<polygon fill="#9a32cd" stroke="#9a32cd" points="265.5,-120.09 269,-130.09 272.5,-120.09 265.5,-120.09"/>
<text text-anchor="middle" x="302.5" y="-106" font-family="Helvetica,sans-Serif" font-size="10.00"> inverted_index</text>
</g>
<!-- Node6 -->
<g id="node6" class="node">
<title>Node6</title>
<g id="a_node6"><a xlink:title=" ">
<polygon fill="white" stroke="#666666" points="289.5,-217 248.5,-217 248.5,-198 289.5,-198 289.5,-217"/>
<text text-anchor="middle" x="269" y="-205" font-family="Helvetica,sans-Serif" font-size="10.00">string</text>
</a>
</g>
</g>
<!-- Node6&#45;&gt;Node5 -->
<g id="edge5" class="edge">
<title>Node6&#45;&gt;Node5</title>
<path fill="none" stroke="#9a32cd" stroke-dasharray="5,2" d="M269,-186.18C269,-174.44 269,-160.27 269,-151.32"/>
<polygon fill="#9a32cd" stroke="#9a32cd" points="265.5,-186.09 269,-196.09 272.5,-186.09 265.5,-186.09"/>
<text text-anchor="middle" x="299.5" y="-172" font-family="Helvetica,sans-Serif" font-size="10.00"> _index_name</text>
</g>
</g>
</svg>
