<?xml version="1.0" encoding="UTF-8" standalone="no"?>
<!DOCTYPE svg PUBLIC "-//W3C//DTD SVG 1.1//EN"
 "http://www.w3.org/Graphics/SVG/1.1/DTD/svg11.dtd">
<!-- Generated by graphviz version 7.1.0 (20230121.1956)
 -->
<!-- Title: deserialize Pages: 1 -->
<svg width="404pt" height="49pt"
 viewBox="0.00 0.00 404.00 49.00" xmlns="http://www.w3.org/2000/svg" xmlns:xlink="http://www.w3.org/1999/xlink">
<g id="graph0" class="graph" transform="scale(1 1) rotate(0) translate(4 45)">
<title>deserialize</title>
<!-- Node1 -->
<g id="node1" class="node">
<title>Node1</title>
<g id="a_node1"><a xlink:title="Deserializes state. This function is called only for empty (just created) states.">
<polygon fill="#999999" stroke="#666666" points="396,-30 333,-30 333,-11 396,-11 396,-30"/>
<text text-anchor="middle" x="364.5" y="-18" font-family="Helvetica,sans-Serif" font-size="10.00">deserialize</text>
</a>
</g>
</g>
<!-- Node2 -->
<g id="node2" class="node">
<title>Node2</title>
<g id="a_node2"><a xlink:href="../../da/d62/classdoris_1_1vectorized_1_1_i_aggregate_function_helper.html#aaab80ffdcd4e02ab114f966b803a81fb" target="_top" xlink:title=" ">
<polygon fill="white" stroke="#666666" points="297,-41 167,-41 167,0 297,0 297,-41"/>
<text text-anchor="start" x="175" y="-29" font-family="Helvetica,sans-Serif" font-size="10.00">doris::vectorized::</text>
<text text-anchor="start" x="175" y="-18" font-family="Helvetica,sans-Serif" font-size="10.00">IAggregateFunctionHelper</text>
<text text-anchor="middle" x="232" y="-7" font-family="Helvetica,sans-Serif" font-size="10.00">::deserialize_vec</text>
</a>
</g>
</g>
<!-- Node1&#45;&gt;Node2 -->
<g id="edge1" class="edge">
<title>Node1&#45;&gt;Node2</title>
<path fill="none" stroke="#63b8ff" d="M321.08,-20.5C313.48,-20.5 305.4,-20.5 297.34,-20.5"/>
<polygon fill="#63b8ff" stroke="#63b8ff" points="321.06,-24 331.06,-20.5 321.06,-17 321.06,-24"/>
</g>
<!-- Node3 -->
<g id="node3" class="node">
<title>Node3</title>
<g id="a_node3"><a xlink:href="../../da/d62/classdoris_1_1vectorized_1_1_i_aggregate_function_helper.html#a4a5ae8b9b4d8d1e1dbbf5bb683a726c5" target="_top" xlink:title=" ">
<polygon fill="white" stroke="#666666" points="131,-41 0,-41 0,0 131,0 131,-41"/>
<text text-anchor="start" x="8" y="-29" font-family="Helvetica,sans-Serif" font-size="10.00">doris::vectorized::</text>
<text text-anchor="start" x="8" y="-18" font-family="Helvetica,sans-Serif" font-size="10.00">IAggregateFunctionHelper</text>
<text text-anchor="middle" x="65.5" y="-7" font-family="Helvetica,sans-Serif" font-size="10.00">::deserialize_from_column</text>
</a>
</g>
</g>
<!-- Node2&#45;&gt;Node3 -->
<g id="edge2" class="edge">
<title>Node2&#45;&gt;Node3</title>
<path fill="none" stroke="#63b8ff" d="M155.62,-20.5C147.56,-20.5 139.41,-20.5 131.48,-20.5"/>
<polygon fill="#63b8ff" stroke="#63b8ff" points="155.42,-24 165.42,-20.5 155.42,-17 155.42,-24"/>
</g>
</g>
</svg>
