<?xml version="1.0" encoding="UTF-8" standalone="no"?>
<!DOCTYPE svg PUBLIC "-//W3C//DTD SVG 1.1//EN"
 "http://www.w3.org/Graphics/SVG/1.1/DTD/svg11.dtd">
<!-- Generated by graphviz version 7.1.0 (20230121.1956)
 -->
<!-- Title: sys_mem_available Pages: 1 -->
<svg width="1938pt" height="632pt"
 viewBox="0.00 0.00 1938.00 632.00" xmlns="http://www.w3.org/2000/svg" xmlns:xlink="http://www.w3.org/1999/xlink">
<g id="graph0" class="graph" transform="scale(1 1) rotate(0) translate(4 628)">
<title>sys_mem_available</title>
<!-- Node1 -->
<g id="node1" class="node">
<title>Node1</title>
<g id="a_node1"><a xlink:title=" ">
<polygon fill="#999999" stroke="#666666" points="1930,-486.5 1827,-486.5 1827,-467.5 1930,-467.5 1930,-486.5"/>
<text text-anchor="middle" x="1878.5" y="-474.5" font-family="Helvetica,sans-Serif" font-size="10.00">sys_mem_available</text>
</a>
</g>
</g>
<!-- Node2 -->
<g id="node2" class="node">
<title>Node2</title>
<g id="a_node2"><a xlink:href="../../d3/d5f/classdoris_1_1_daemon.html#a3245722211b7296ed5bd4ef20d09fb6b" target="_top" xlink:title=" ">
<polygon fill="white" stroke="#666666" points="1773.5,-537 1651.5,-537 1651.5,-507 1773.5,-507 1773.5,-537"/>
<text text-anchor="start" x="1659.5" y="-525" font-family="Helvetica,sans-Serif" font-size="10.00">doris::Daemon::memory</text>
<text text-anchor="middle" x="1712.5" y="-514" font-family="Helvetica,sans-Serif" font-size="10.00">_gc_thread</text>
</a>
</g>
</g>
<!-- Node1&#45;&gt;Node2 -->
<g id="edge1" class="edge">
<title>Node1&#45;&gt;Node2</title>
<path fill="none" stroke="#63b8ff" d="M1830.1,-490.01C1811.25,-495.18 1789.42,-501.17 1769.77,-506.56"/>
<polygon fill="#63b8ff" stroke="#63b8ff" points="1830.93,-493.41 1839.64,-487.39 1829.07,-486.66 1830.93,-493.41"/>
</g>
<!-- Node5 -->
<g id="node5" class="node">
<title>Node5</title>
<g id="a_node5"><a xlink:href="../../de/d1e/classdoris_1_1_mem_tracker_limiter.html#a200fbcfa5718b35dcb5c42834653cfcb" target="_top" xlink:title=" ">
<polygon fill="white" stroke="#666666" points="1791,-468 1634,-468 1634,-438 1791,-438 1791,-468"/>
<text text-anchor="start" x="1642" y="-456" font-family="Helvetica,sans-Serif" font-size="10.00">doris::MemTrackerLimiter</text>
<text text-anchor="middle" x="1712.5" y="-445" font-family="Helvetica,sans-Serif" font-size="10.00">::sys_mem_exceed_limit_check</text>
</a>
</g>
</g>
<!-- Node1&#45;&gt;Node5 -->
<g id="edge4" class="edge">
<title>Node1&#45;&gt;Node5</title>
<path fill="none" stroke="#63b8ff" d="M1815.24,-467.89C1807.4,-466.74 1799.3,-465.56 1791.25,-464.38"/>
<polygon fill="#63b8ff" stroke="#63b8ff" points="1814.61,-471.33 1825.01,-469.32 1815.62,-464.41 1814.61,-471.33"/>
</g>
<!-- Node3 -->
<g id="node3" class="node">
<title>Node3</title>
<g id="a_node3"><a xlink:href="../../d3/d5f/classdoris_1_1_daemon.html#a60de64d75454385b23995437f1d72669" target="_top" xlink:title=" ">
<polygon fill="white" stroke="#666666" points="1580,-553.5 1474,-553.5 1474,-534.5 1580,-534.5 1580,-553.5"/>
<text text-anchor="middle" x="1527" y="-541.5" font-family="Helvetica,sans-Serif" font-size="10.00">doris::Daemon::start</text>
</a>
</g>
</g>
<!-- Node2&#45;&gt;Node3 -->
<g id="edge2" class="edge">
<title>Node2&#45;&gt;Node3</title>
<path fill="none" stroke="#63b8ff" d="M1639.97,-530.58C1620.1,-532.96 1598.91,-535.5 1580.36,-537.72"/>
<polygon fill="#63b8ff" stroke="#63b8ff" points="1640.15,-534.08 1649.66,-529.41 1639.31,-527.13 1640.15,-534.08"/>
</g>
<!-- Node4 -->
<g id="node4" class="node">
<title>Node4</title>
<g id="a_node4"><a xlink:href="../../d7/dcc/doris__main_8cpp.html#a3c04138a5bfe5d72780bb7e82a18e627" target="_top" xlink:title=" ">
<polygon fill="white" stroke="#666666" points="1366.5,-553.5 1328.5,-553.5 1328.5,-534.5 1366.5,-534.5 1366.5,-553.5"/>
<text text-anchor="middle" x="1347.5" y="-541.5" font-family="Helvetica,sans-Serif" font-size="10.00">main</text>
</a>
</g>
</g>
<!-- Node3&#45;&gt;Node4 -->
<g id="edge3" class="edge">
<title>Node3&#45;&gt;Node4</title>
<path fill="none" stroke="#63b8ff" d="M1462.47,-544C1428.64,-544 1389.49,-544 1366.99,-544"/>
<polygon fill="#63b8ff" stroke="#63b8ff" points="1462.19,-547.5 1472.19,-544 1462.19,-540.5 1462.19,-547.5"/>
</g>
<!-- Node6 -->
<g id="node6" class="node">
<title>Node6</title>
<g id="a_node6"><a xlink:href="../../d7/dfb/classdoris_1_1_segcompaction_worker.html#a2ded14a9c2246dd39d2915afc697c5f3" target="_top" xlink:title=" ">
<polygon fill="white" stroke="#666666" points="1598,-516 1456,-516 1456,-486 1598,-486 1598,-516"/>
<text text-anchor="start" x="1464" y="-504" font-family="Helvetica,sans-Serif" font-size="10.00">doris::SegcompactionWorker</text>
<text text-anchor="middle" x="1527" y="-493" font-family="Helvetica,sans-Serif" font-size="10.00">::_do_compact_segments</text>
</a>
</g>
</g>
<!-- Node5&#45;&gt;Node6 -->
<g id="edge5" class="edge">
<title>Node5&#45;&gt;Node6</title>
<path fill="none" stroke="#63b8ff" d="M1641.42,-471.33C1623.45,-476.03 1604.31,-481.04 1586.96,-485.58"/>
<polygon fill="#63b8ff" stroke="#63b8ff" points="1642.18,-474.75 1650.97,-468.83 1640.4,-467.98 1642.18,-474.75"/>
</g>
<!-- Node14 -->
<g id="node14" class="node">
<title>Node14</title>
<g id="a_node14"><a xlink:href="../../de/d1e/classdoris_1_1_mem_tracker_limiter.html#a4083f6dcf450f3fe82113b213f2b816c" target="_top" xlink:title=" ">
<polygon fill="white" stroke="#666666" points="1591,-468 1463,-468 1463,-438 1591,-438 1591,-468"/>
<text text-anchor="start" x="1471" y="-456" font-family="Helvetica,sans-Serif" font-size="10.00">doris::MemTrackerLimiter</text>
<text text-anchor="middle" x="1527" y="-445" font-family="Helvetica,sans-Serif" font-size="10.00">::check_limit</text>
</a>
</g>
</g>
<!-- Node5&#45;&gt;Node14 -->
<g id="edge13" class="edge">
<title>Node5&#45;&gt;Node14</title>
<path fill="none" stroke="#63b8ff" d="M1622.32,-453C1611.82,-453 1601.27,-453 1591.22,-453"/>
<polygon fill="#63b8ff" stroke="#63b8ff" points="1622.17,-456.5 1632.17,-453 1622.17,-449.5 1622.17,-456.5"/>
</g>
<!-- Node15 -->
<g id="node15" class="node">
<title>Node15</title>
<g id="a_node15"><a xlink:href="../../d0/dc1/class_allocator.html#a8e08404b2e8bf6a8e9720622eec19e64" target="_top" xlink:title=" ">
<polygon fill="white" stroke="#666666" points="1585.5,-420 1468.5,-420 1468.5,-390 1585.5,-390 1585.5,-420"/>
<text text-anchor="start" x="1476.5" y="-408" font-family="Helvetica,sans-Serif" font-size="10.00">Allocator::sys_memory</text>
<text text-anchor="middle" x="1527" y="-397" font-family="Helvetica,sans-Serif" font-size="10.00">_check</text>
</a>
</g>
</g>
<!-- Node5&#45;&gt;Node15 -->
<g id="edge14" class="edge">
<title>Node5&#45;&gt;Node15</title>
<path fill="none" stroke="#63b8ff" d="M1641.46,-434.68C1623.04,-429.86 1603.39,-424.72 1585.71,-420.09"/>
<polygon fill="#63b8ff" stroke="#63b8ff" points="1640.4,-438.02 1650.97,-437.17 1642.18,-431.25 1640.4,-438.02"/>
</g>
<!-- Node48 -->
<g id="node48" class="node">
<title>Node48</title>
<g id="a_node48"><a xlink:href="../../de/d1e/classdoris_1_1_mem_tracker_limiter.html#a69bda7c2ec6961b6e8047483ac13ebfb" target="_top" xlink:title=" ">
<polygon fill="white" stroke="#666666" points="1591,-364 1463,-364 1463,-334 1591,-334 1591,-364"/>
<text text-anchor="start" x="1471" y="-352" font-family="Helvetica,sans-Serif" font-size="10.00">doris::MemTrackerLimiter</text>
<text text-anchor="middle" x="1527" y="-341" font-family="Helvetica,sans-Serif" font-size="10.00">::try_consume</text>
</a>
</g>
</g>
<!-- Node5&#45;&gt;Node48 -->
<g id="edge51" class="edge">
<title>Node5&#45;&gt;Node48</title>
<path fill="none" stroke="#63b8ff" d="M1680.09,-431.44C1657.69,-416.47 1626.59,-396.51 1598,-381 1587.19,-375.14 1575.11,-369.36 1564.07,-364.35"/>
<polygon fill="#63b8ff" stroke="#63b8ff" points="1677.93,-434.2 1688.18,-436.88 1681.84,-428.4 1677.93,-434.2"/>
</g>
<!-- Node7 -->
<g id="node7" class="node">
<title>Node7</title>
<g id="a_node7"><a xlink:href="../../d7/dfb/classdoris_1_1_segcompaction_worker.html#a548d2bc41a34f911d87aa63c831dcb6f" target="_top" xlink:title=" ">
<polygon fill="white" stroke="#666666" points="1418.5,-516 1276.5,-516 1276.5,-486 1418.5,-486 1418.5,-516"/>
<text text-anchor="start" x="1284.5" y="-504" font-family="Helvetica,sans-Serif" font-size="10.00">doris::SegcompactionWorker</text>
<text text-anchor="middle" x="1347.5" y="-493" font-family="Helvetica,sans-Serif" font-size="10.00">::compact_segments</text>
</a>
</g>
</g>
<!-- Node6&#45;&gt;Node7 -->
<g id="edge6" class="edge">
<title>Node6&#45;&gt;Node7</title>
<path fill="none" stroke="#63b8ff" d="M1444.14,-501C1435.68,-501 1427.14,-501 1418.82,-501"/>
<polygon fill="#63b8ff" stroke="#63b8ff" points="1444.08,-504.5 1454.08,-501 1444.08,-497.5 1444.08,-504.5"/>
</g>
<!-- Node8 -->
<g id="node8" class="node">
<title>Node8</title>
<g id="a_node8"><a xlink:href="../../d7/d82/classdoris_1_1_storage_engine.html#aa1e24139652d85ecf111df5cd3f6a120" target="_top" xlink:title=" ">
<polygon fill="white" stroke="#666666" points="1239,-573 1106,-573 1106,-543 1239,-543 1239,-573"/>
<text text-anchor="start" x="1114" y="-561" font-family="Helvetica,sans-Serif" font-size="10.00">doris::StorageEngine</text>
<text text-anchor="middle" x="1172.5" y="-550" font-family="Helvetica,sans-Serif" font-size="10.00">::_handle_seg_compaction</text>
</a>
</g>
</g>
<!-- Node7&#45;&gt;Node8 -->
<g id="edge7" class="edge">
<title>Node7&#45;&gt;Node8</title>
<path fill="none" stroke="#63b8ff" d="M1289,-519.94C1266.71,-527.29 1241.51,-535.59 1220.35,-542.56"/>
<polygon fill="#63b8ff" stroke="#63b8ff" points="1289.84,-523.35 1298.25,-516.9 1287.65,-516.7 1289.84,-523.35"/>
</g>
<!-- Node9 -->
<g id="node9" class="node">
<title>Node9</title>
<g id="a_node9"><a xlink:href="../../d7/d82/classdoris_1_1_storage_engine.html#a156410a96aa07f45bf9de052a3d86c50" target="_top" xlink:title=" ">
<polygon fill="white" stroke="#666666" points="1070,-597 918,-597 918,-567 1070,-567 1070,-597"/>
<text text-anchor="start" x="926" y="-585" font-family="Helvetica,sans-Serif" font-size="10.00">doris::StorageEngine</text>
<text text-anchor="middle" x="994" y="-574" font-family="Helvetica,sans-Serif" font-size="10.00">::submit_seg_compaction_task</text>
</a>
</g>
</g>
<!-- Node8&#45;&gt;Node9 -->
<g id="edge8" class="edge">
<title>Node8&#45;&gt;Node9</title>
<path fill="none" stroke="#63b8ff" d="M1094.38,-568.49C1086.42,-569.57 1078.34,-570.67 1070.39,-571.75"/>
<polygon fill="#63b8ff" stroke="#63b8ff" points="1094.59,-571.99 1104.03,-567.17 1093.65,-565.05 1094.59,-571.99"/>
</g>
<!-- Node10 -->
<g id="node10" class="node">
<title>Node10</title>
<g id="a_node10"><a xlink:href="../../d1/d88/classdoris_1_1_beta_rowset_writer.html#aa3d5f49a59fd19516269465dd693dd71" target="_top" xlink:title=" ">
<polygon fill="white" stroke="#666666" points="882,-624 727,-624 727,-594 882,-594 882,-624"/>
<text text-anchor="start" x="735" y="-612" font-family="Helvetica,sans-Serif" font-size="10.00">doris::BetaRowsetWriter</text>
<text text-anchor="middle" x="804.5" y="-601" font-family="Helvetica,sans-Serif" font-size="10.00">::_segcompaction_if_necessary</text>
</a>
</g>
</g>
<!-- Node9&#45;&gt;Node10 -->
<g id="edge9" class="edge">
<title>Node9&#45;&gt;Node10</title>
<path fill="none" stroke="#63b8ff" d="M906.3,-594.48C898.3,-595.64 890.23,-596.8 882.33,-597.94"/>
<polygon fill="#63b8ff" stroke="#63b8ff" points="906.65,-597.97 916.05,-593.08 905.65,-591.04 906.65,-597.97"/>
</g>
<!-- Node12 -->
<g id="node12" class="node">
<title>Node12</title>
<g id="a_node12"><a xlink:href="../../d1/d88/classdoris_1_1_beta_rowset_writer.html#a84396a1034def3d4bfcbccaf2697b687" target="_top" xlink:title=" ">
<polygon fill="white" stroke="#666666" points="875,-575.5 734,-575.5 734,-534.5 875,-534.5 875,-575.5"/>
<text text-anchor="start" x="742" y="-563.5" font-family="Helvetica,sans-Serif" font-size="10.00">doris::BetaRowsetWriter</text>
<text text-anchor="start" x="742" y="-552.5" font-family="Helvetica,sans-Serif" font-size="10.00">::_segcompaction_ramaining</text>
<text text-anchor="middle" x="804.5" y="-541.5" font-family="Helvetica,sans-Serif" font-size="10.00">_if_necessary</text>
</a>
</g>
</g>
<!-- Node9&#45;&gt;Node12 -->
<g id="edge11" class="edge">
<title>Node9&#45;&gt;Node12</title>
<path fill="none" stroke="#63b8ff" d="M906.34,-569.52C895.95,-568.03 885.45,-566.51 875.34,-565.06"/>
<polygon fill="#63b8ff" stroke="#63b8ff" points="905.65,-572.96 916.05,-570.92 906.65,-566.03 905.65,-572.96"/>
</g>
<!-- Node11 -->
<g id="node11" class="node">
<title>Node11</title>
<g id="a_node11"><a xlink:href="../../d1/d88/classdoris_1_1_beta_rowset_writer.html#a90bf2bf2d217c60cc9b223e8d038803c" target="_top" xlink:title=" ">
<polygon fill="white" stroke="#666666" points="688,-624 565,-624 565,-594 688,-594 688,-624"/>
<text text-anchor="start" x="573" y="-612" font-family="Helvetica,sans-Serif" font-size="10.00">doris::BetaRowsetWriter</text>
<text text-anchor="middle" x="626.5" y="-601" font-family="Helvetica,sans-Serif" font-size="10.00">::flush_single_memtable</text>
</a>
</g>
</g>
<!-- Node10&#45;&gt;Node11 -->
<g id="edge10" class="edge">
<title>Node10&#45;&gt;Node11</title>
<path fill="none" stroke="#63b8ff" d="M715.14,-609C706.1,-609 697.06,-609 688.42,-609"/>
<polygon fill="#63b8ff" stroke="#63b8ff" points="715.05,-612.5 725.05,-609 715.05,-605.5 715.05,-612.5"/>
</g>
<!-- Node13 -->
<g id="node13" class="node">
<title>Node13</title>
<g id="a_node13"><a xlink:href="../../d1/d88/classdoris_1_1_beta_rowset_writer.html#acf428e29464c852836f548de61c7aa4c" target="_top" xlink:title=" ">
<polygon fill="white" stroke="#666666" points="688,-570 565,-570 565,-540 688,-540 688,-570"/>
<text text-anchor="start" x="573" y="-558" font-family="Helvetica,sans-Serif" font-size="10.00">doris::BetaRowsetWriter</text>
<text text-anchor="middle" x="626.5" y="-547" font-family="Helvetica,sans-Serif" font-size="10.00">::build</text>
</a>
</g>
</g>
<!-- Node12&#45;&gt;Node13 -->
<g id="edge12" class="edge">
<title>Node12&#45;&gt;Node13</title>
<path fill="none" stroke="#63b8ff" d="M722.35,-555C710.93,-555 699.36,-555 688.41,-555"/>
<polygon fill="#63b8ff" stroke="#63b8ff" points="722.17,-558.5 732.17,-555 722.17,-551.5 722.17,-558.5"/>
</g>
<!-- Node16 -->
<g id="node16" class="node">
<title>Node16</title>
<g id="a_node16"><a xlink:href="../../d0/dc1/class_allocator.html#a35677db523083f8c3a508d75cd9bb77b" target="_top" xlink:title="Allocate memory range.">
<polygon fill="white" stroke="#666666" points="1388,-423.5 1307,-423.5 1307,-404.5 1388,-404.5 1388,-423.5"/>
<text text-anchor="middle" x="1347.5" y="-411.5" font-family="Helvetica,sans-Serif" font-size="10.00">Allocator::alloc</text>
</a>
</g>
</g>
<!-- Node15&#45;&gt;Node16 -->
<g id="edge15" class="edge">
<title>Node15&#45;&gt;Node16</title>
<path fill="none" stroke="#63b8ff" d="M1457.14,-408.49C1433.88,-409.67 1408.71,-410.95 1388.45,-411.97"/>
<polygon fill="#63b8ff" stroke="#63b8ff" points="1457.05,-412 1466.86,-408 1456.69,-405.01 1457.05,-412"/>
</g>
<!-- Node27 -->
<g id="node27" class="node">
<title>Node27</title>
<g id="a_node27"><a xlink:href="../../d0/dc1/class_allocator.html#af48b30af68c846da954ef85a876ac5a9" target="_top" xlink:title=" ">
<polygon fill="white" stroke="#666666" points="1217,-341.5 1128,-341.5 1128,-322.5 1217,-322.5 1217,-341.5"/>
<text text-anchor="middle" x="1172.5" y="-329.5" font-family="Helvetica,sans-Serif" font-size="10.00">Allocator::realloc</text>
</a>
</g>
</g>
<!-- Node15&#45;&gt;Node27 -->
<g id="edge50" class="edge">
<title>Node15&#45;&gt;Node27</title>
<path fill="none" stroke="#63b8ff" d="M1456.89,-392.79C1406.36,-383.62 1336.25,-370.39 1275,-357 1254.08,-352.43 1230.88,-346.76 1211.95,-341.97"/>
<polygon fill="#63b8ff" stroke="#63b8ff" points="1456.05,-396.2 1466.51,-394.53 1457.29,-389.31 1456.05,-396.2"/>
</g>
<!-- Node17 -->
<g id="node17" class="node">
<title>Node17</title>
<g id="a_node17"><a xlink:href="../../df/dd4/class_fixed_hash_table.html#a84da126492aa15ed1e0a848026779237" target="_top" xlink:title="A piece of memory for all elements.">
<polygon fill="white" stroke="#666666" points="1229,-500.5 1116,-500.5 1116,-481.5 1229,-481.5 1229,-500.5"/>
<text text-anchor="middle" x="1172.5" y="-488.5" font-family="Helvetica,sans-Serif" font-size="10.00">FixedHashTable::alloc</text>
</a>
</g>
</g>
<!-- Node16&#45;&gt;Node17 -->
<g id="edge16" class="edge">
<title>Node16&#45;&gt;Node17</title>
<path fill="none" stroke="#63b8ff" d="M1313.76,-428.57C1279.29,-443.91 1225.94,-467.66 1195.95,-481.01"/>
<polygon fill="#63b8ff" stroke="#63b8ff" points="1315.14,-431.79 1322.85,-424.52 1312.3,-425.39 1315.14,-431.79"/>
</g>
<!-- Node20 -->
<g id="node20" class="node">
<title>Node20</title>
<g id="a_node20"><a xlink:href="../../da/dae/class_hash_table.html#a256858c1c899655cd657e7fb5b2e3ffb" target="_top" xlink:title=" ">
<polygon fill="white" stroke="#666666" points="1217,-445.5 1128,-445.5 1128,-426.5 1217,-426.5 1217,-445.5"/>
<text text-anchor="middle" x="1172.5" y="-433.5" font-family="Helvetica,sans-Serif" font-size="10.00">HashTable::alloc</text>
</a>
</g>
</g>
<!-- Node16&#45;&gt;Node20 -->
<g id="edge19" class="edge">
<title>Node16&#45;&gt;Node20</title>
<path fill="none" stroke="#63b8ff" d="M1295.41,-420.5C1270.58,-423.66 1241.04,-427.41 1217.26,-430.44"/>
<polygon fill="#63b8ff" stroke="#63b8ff" points="1295.83,-423.97 1305.31,-419.24 1294.95,-417.03 1295.83,-423.97"/>
</g>
<!-- Node26 -->
<g id="node26" class="node">
<title>Node26</title>
<g id="a_node26"><a xlink:href="../../d8/d39/structdoris_1_1vectorized_1_1_arena_1_1_chunk.html#a8cb8b955856744c831f48accf17c4907" target="_top" xlink:title=" ">
<polygon fill="white" stroke="#666666" points="1228,-408 1117,-408 1117,-378 1228,-378 1228,-408"/>
<text text-anchor="start" x="1125" y="-396" font-family="Helvetica,sans-Serif" font-size="10.00">doris::vectorized::</text>
<text text-anchor="middle" x="1172.5" y="-385" font-family="Helvetica,sans-Serif" font-size="10.00">Arena::Chunk::Chunk</text>
</a>
</g>
</g>
<!-- Node16&#45;&gt;Node26 -->
<g id="edge25" class="edge">
<title>Node16&#45;&gt;Node26</title>
<path fill="none" stroke="#63b8ff" d="M1295.48,-407.81C1274.39,-405.25 1249.89,-402.27 1228.41,-399.67"/>
<polygon fill="#63b8ff" stroke="#63b8ff" points="1294.96,-411.27 1305.31,-409 1295.8,-404.32 1294.96,-411.27"/>
</g>
<!-- Node16&#45;&gt;Node27 -->
<g id="edge26" class="edge">
<title>Node16&#45;&gt;Node27</title>
<path fill="none" stroke="#63b8ff" d="M1301.48,-400.45C1292.57,-397.34 1283.39,-393.81 1275,-390 1258.13,-382.35 1255.06,-378.22 1239,-369 1222.92,-359.77 1204.52,-349.39 1191.33,-341.98"/>
<polygon fill="#63b8ff" stroke="#63b8ff" points="1300.1,-403.68 1310.69,-403.55 1302.33,-397.05 1300.1,-403.68"/>
</g>
<!-- Node18 -->
<g id="node18" class="node">
<title>Node18</title>
<g id="a_node18"><a xlink:href="../../df/dd4/class_fixed_hash_table.html#a29be08f0d348d9970c388902252264e7" target="_top" xlink:title=" ">
<polygon fill="white" stroke="#666666" points="1064,-549 924,-549 924,-519 1064,-519 1064,-549"/>
<text text-anchor="start" x="932" y="-537" font-family="Helvetica,sans-Serif" font-size="10.00">FixedHashTable::FixedHash</text>
<text text-anchor="middle" x="994" y="-526" font-family="Helvetica,sans-Serif" font-size="10.00">Table</text>
</a>
</g>
</g>
<!-- Node17&#45;&gt;Node18 -->
<g id="edge17" class="edge">
<title>Node17&#45;&gt;Node18</title>
<path fill="none" stroke="#63b8ff" d="M1119.38,-503.7C1100.3,-508.35 1078.5,-513.66 1058.53,-518.52"/>
<polygon fill="#63b8ff" stroke="#63b8ff" points="1120.21,-507.1 1129.09,-501.33 1118.55,-500.3 1120.21,-507.1"/>
</g>
<!-- Node19 -->
<g id="node19" class="node">
<title>Node19</title>
<g id="a_node19"><a xlink:href="../../df/dd4/class_fixed_hash_table.html#a0db73b6709ab812abce69276f2288d48" target="_top" xlink:title=" ">
<polygon fill="white" stroke="#666666" points="1050,-500.5 938,-500.5 938,-481.5 1050,-481.5 1050,-500.5"/>
<text text-anchor="middle" x="994" y="-488.5" font-family="Helvetica,sans-Serif" font-size="10.00">FixedHashTable::read</text>
</a>
</g>
</g>
<!-- Node17&#45;&gt;Node19 -->
<g id="edge18" class="edge">
<title>Node17&#45;&gt;Node19</title>
<path fill="none" stroke="#63b8ff" d="M1104.2,-491C1086.46,-491 1067.52,-491 1050.48,-491"/>
<polygon fill="#63b8ff" stroke="#63b8ff" points="1104.14,-494.5 1114.14,-491 1104.14,-487.5 1104.14,-494.5"/>
</g>
<!-- Node21 -->
<g id="node21" class="node">
<title>Node21</title>
<g id="a_node21"><a xlink:href="../../da/dae/class_hash_table.html#abc1566bdf3ca2a21dfbd293f3ef33e99" target="_top" xlink:title=" ">
<polygon fill="white" stroke="#666666" points="1052,-463.5 936,-463.5 936,-444.5 1052,-444.5 1052,-463.5"/>
<text text-anchor="middle" x="994" y="-451.5" font-family="Helvetica,sans-Serif" font-size="10.00">HashTable::HashTable</text>
</a>
</g>
</g>
<!-- Node20&#45;&gt;Node21 -->
<g id="edge20" class="edge">
<title>Node20&#45;&gt;Node21</title>
<path fill="none" stroke="#63b8ff" d="M1116.56,-441.6C1096.19,-443.68 1073.04,-446.04 1052.45,-448.14"/>
<polygon fill="#63b8ff" stroke="#63b8ff" points="1116.77,-445.1 1126.37,-440.6 1116.06,-438.14 1116.77,-445.1"/>
</g>
<!-- Node22 -->
<g id="node22" class="node">
<title>Node22</title>
<g id="a_node22"><a xlink:href="../../da/dae/class_hash_table.html#a0fd651eb7a6d6844fafcc8cb3b130d62" target="_top" xlink:title=" ">
<polygon fill="white" stroke="#666666" points="1056,-426.5 932,-426.5 932,-407.5 1056,-407.5 1056,-426.5"/>
<text text-anchor="middle" x="994" y="-414.5" font-family="Helvetica,sans-Serif" font-size="10.00">HashTable::init_buf_size</text>
</a>
</g>
</g>
<!-- Node20&#45;&gt;Node22 -->
<g id="edge21" class="edge">
<title>Node20&#45;&gt;Node22</title>
<path fill="none" stroke="#63b8ff" d="M1116.65,-430.09C1097.56,-428.04 1076.02,-425.72 1056.44,-423.61"/>
<polygon fill="#63b8ff" stroke="#63b8ff" points="1116.05,-433.55 1126.37,-431.14 1116.8,-426.59 1116.05,-433.55"/>
</g>
<!-- Node23 -->
<g id="node23" class="node">
<title>Node23</title>
<g id="a_node23"><a xlink:href="../../da/dae/class_hash_table.html#a0db73b6709ab812abce69276f2288d48" target="_top" xlink:title=" ">
<polygon fill="white" stroke="#666666" points="322,-449.5 234,-449.5 234,-430.5 322,-430.5 322,-449.5"/>
<text text-anchor="middle" x="278" y="-437.5" font-family="Helvetica,sans-Serif" font-size="10.00">HashTable::read</text>
</a>
</g>
</g>
<!-- Node20&#45;&gt;Node23 -->
<g id="edge22" class="edge">
<title>Node20&#45;&gt;Node23</title>
<path fill="none" stroke="#63b8ff" d="M1122.36,-422.8C1116.79,-421 1111.24,-419.05 1106,-417 1089.34,-410.48 1087.24,-403.76 1070,-399 956.37,-367.6 923.39,-379 805.5,-379 805.5,-379 805.5,-379 625.5,-379 566.94,-379 401.71,-413.22 322.46,-430.4"/>
<polygon fill="#63b8ff" stroke="#63b8ff" points="1120.98,-426.04 1131.56,-425.65 1123.05,-419.35 1120.98,-426.04"/>
</g>
<!-- Node24 -->
<g id="node24" class="node">
<title>Node24</title>
<g id="a_node24"><a xlink:href="../../d6/d0c/structdoris_1_1vectorized_1_1_aggregate_function_distinct_single_numeric_data.html#a7b69a6d9cbecfce9053f07ff9baeef4b" target="_top" xlink:title=" ">
<polygon fill="white" stroke="#666666" points="159,-489.5 0,-489.5 0,-448.5 159,-448.5 159,-489.5"/>
<text text-anchor="start" x="8" y="-477.5" font-family="Helvetica,sans-Serif" font-size="10.00">doris::vectorized::</text>
<text text-anchor="start" x="8" y="-466.5" font-family="Helvetica,sans-Serif" font-size="10.00">AggregateFunctionDistinctSingle</text>
<text text-anchor="middle" x="79.5" y="-455.5" font-family="Helvetica,sans-Serif" font-size="10.00">NumericData::deserialize</text>
</a>
</g>
</g>
<!-- Node23&#45;&gt;Node24 -->
<g id="edge23" class="edge">
<title>Node23&#45;&gt;Node24</title>
<path fill="none" stroke="#63b8ff" d="M222.68,-448.02C203.04,-450.91 180.45,-454.25 159.14,-457.39"/>
<polygon fill="#63b8ff" stroke="#63b8ff" points="223,-451.51 232.38,-446.59 221.98,-444.58 223,-451.51"/>
</g>
<!-- Node25 -->
<g id="node25" class="node">
<title>Node25</title>
<g id="a_node25"><a xlink:href="../../dc/d92/structdoris_1_1vectorized_1_1_aggregate_function_collect_set_data.html#adee1f511c659624c5e46db33f73bf249" target="_top" xlink:title=" ">
<polygon fill="white" stroke="#666666" points="151.5,-430.5 7.5,-430.5 7.5,-389.5 151.5,-389.5 151.5,-430.5"/>
<text text-anchor="start" x="15.5" y="-418.5" font-family="Helvetica,sans-Serif" font-size="10.00">doris::vectorized::</text>
<text text-anchor="start" x="15.5" y="-407.5" font-family="Helvetica,sans-Serif" font-size="10.00">AggregateFunctionCollectSet</text>
<text text-anchor="middle" x="79.5" y="-396.5" font-family="Helvetica,sans-Serif" font-size="10.00">Data::read</text>
</a>
</g>
</g>
<!-- Node23&#45;&gt;Node25 -->
<g id="edge24" class="edge">
<title>Node23&#45;&gt;Node25</title>
<path fill="none" stroke="#63b8ff" d="M222.76,-431.72C200.8,-428.37 175.14,-424.45 151.71,-420.87"/>
<polygon fill="#63b8ff" stroke="#63b8ff" points="221.97,-435.14 232.38,-433.19 223.02,-428.22 221.97,-435.14"/>
</g>
<!-- Node27&#45;&gt;Node27 -->
<g id="edge27" class="edge">
<title>Node27&#45;&gt;Node27</title>
<path fill="none" stroke="#63b8ff" d="M1203.88,-352.6C1200.26,-356.63 1189.8,-359.5 1172.5,-359.5 1141.74,-359.5 1132.61,-350.44 1145.1,-341.87"/>
<polygon fill="#63b8ff" stroke="#63b8ff" points="1207.18,-351.44 1200.42,-343.29 1200.62,-353.88 1207.18,-351.44"/>
</g>
<!-- Node28 -->
<g id="node28" class="node">
<title>Node28</title>
<g id="a_node28"><a xlink:href="../../da/dae/class_hash_table.html#ac69dffcd6a75ec433c96b6bb4bab9fc9" target="_top" xlink:title="Increase the size of the buffer.">
<polygon fill="white" stroke="#666666" points="1041.5,-289.5 946.5,-289.5 946.5,-270.5 1041.5,-270.5 1041.5,-289.5"/>
<text text-anchor="middle" x="994" y="-277.5" font-family="Helvetica,sans-Serif" font-size="10.00">HashTable::resize</text>
</a>
</g>
</g>
<!-- Node27&#45;&gt;Node28 -->
<g id="edge28" class="edge">
<title>Node27&#45;&gt;Node28</title>
<path fill="none" stroke="#63b8ff" d="M1127.11,-318.92C1096.6,-309.93 1056.72,-298.18 1028.79,-289.95"/>
<polygon fill="#63b8ff" stroke="#63b8ff" points="1125.85,-322.2 1136.43,-321.67 1127.83,-315.49 1125.85,-322.2"/>
</g>
<!-- Node29 -->
<g id="node29" class="node">
<title>Node29</title>
<g id="a_node29"><a xlink:href="../../da/dae/class_hash_table.html#ad38274e8ab8bdbad219e8453c4354f49" target="_top" xlink:title=" ">
<polygon fill="white" stroke="#666666" points="857.5,-343 751.5,-343 751.5,-313 857.5,-313 857.5,-343"/>
<text text-anchor="start" x="759.5" y="-331" font-family="Helvetica,sans-Serif" font-size="10.00">HashTable::emplace</text>
<text text-anchor="middle" x="804.5" y="-320" font-family="Helvetica,sans-Serif" font-size="10.00">_non_zero_impl</text>
</a>
</g>
</g>
<!-- Node28&#45;&gt;Node29 -->
<g id="edge29" class="edge">
<title>Node28&#45;&gt;Node29</title>
<path fill="none" stroke="#63b8ff" d="M943.26,-292.73C916.9,-299.48 884.55,-307.76 857.81,-314.61"/>
<polygon fill="#63b8ff" stroke="#63b8ff" points="943.86,-296.19 952.68,-290.32 942.13,-289.41 943.86,-296.19"/>
</g>
<!-- Node43 -->
<g id="node43" class="node">
<title>Node43</title>
<g id="a_node43"><a xlink:href="../../da/dae/class_hash_table.html#ab85a944cc0646798534178eff0913a4b" target="_top" xlink:title=" ">
<polygon fill="white" stroke="#666666" points="857.5,-295 751.5,-295 751.5,-265 857.5,-265 857.5,-295"/>
<text text-anchor="start" x="759.5" y="-283" font-family="Helvetica,sans-Serif" font-size="10.00">HashTable::expanse</text>
<text text-anchor="middle" x="804.5" y="-272" font-family="Helvetica,sans-Serif" font-size="10.00">_for_add_elem</text>
</a>
</g>
</g>
<!-- Node28&#45;&gt;Node43 -->
<g id="edge45" class="edge">
<title>Node28&#45;&gt;Node43</title>
<path fill="none" stroke="#63b8ff" d="M934.78,-280C910.13,-280 881.63,-280 857.67,-280"/>
<polygon fill="#63b8ff" stroke="#63b8ff" points="934.66,-283.5 944.66,-280 934.66,-276.5 934.66,-283.5"/>
</g>
<!-- Node44 -->
<g id="node44" class="node">
<title>Node44</title>
<g id="a_node44"><a xlink:href="../../da/dae/class_hash_table.html#a1a046fc2104742bf01ed6fb62654efe9" target="_top" xlink:title="Copy the cell from another hash table. It is assumed that the cell is not zero, and also that there w...">
<polygon fill="white" stroke="#666666" points="868,-247 741,-247 741,-217 868,-217 868,-247"/>
<text text-anchor="start" x="749" y="-235" font-family="Helvetica,sans-Serif" font-size="10.00">HashTable::insert_unique</text>
<text text-anchor="middle" x="804.5" y="-224" font-family="Helvetica,sans-Serif" font-size="10.00">_non_zero</text>
</a>
</g>
</g>
<!-- Node28&#45;&gt;Node44 -->
<g id="edge46" class="edge">
<title>Node28&#45;&gt;Node44</title>
<path fill="none" stroke="#63b8ff" d="M943.24,-267.26C919.44,-261.17 890.74,-253.82 865.72,-247.42"/>
<polygon fill="#63b8ff" stroke="#63b8ff" points="942.13,-270.59 952.68,-269.68 943.86,-263.81 942.13,-270.59"/>
</g>
<!-- Node45 -->
<g id="node45" class="node">
<title>Node45</title>
<g id="a_node45"><a xlink:href="../../da/dae/class_hash_table.html#a82f3aee114e5104b3a7652ebc147f8ca" target="_top" xlink:title=" ">
<polygon fill="white" stroke="#666666" points="869,-199 740,-199 740,-169 869,-169 869,-199"/>
<text text-anchor="start" x="748" y="-187" font-family="Helvetica,sans-Serif" font-size="10.00">HashTable::lazy_emplace</text>
<text text-anchor="middle" x="804.5" y="-176" font-family="Helvetica,sans-Serif" font-size="10.00">_non_zero_impl</text>
</a>
</g>
</g>
<!-- Node28&#45;&gt;Node45 -->
<g id="edge47" class="edge">
<title>Node28&#45;&gt;Node45</title>
<path fill="none" stroke="#63b8ff" d="M971.38,-263.43C949.73,-247.46 914.98,-223.52 882,-208 875.32,-204.86 868.13,-201.99 860.93,-199.42"/>
<polygon fill="#63b8ff" stroke="#63b8ff" points="969.03,-266.04 979.14,-269.23 973.23,-260.44 969.03,-266.04"/>
</g>
<!-- Node30 -->
<g id="node30" class="node">
<title>Node30</title>
<g id="a_node30"><a xlink:href="../../da/dae/class_hash_table.html#a6bada0a43283c01c3fd7f97e5f25749c" target="_top" xlink:title="Only for non&#45;zero keys. Find the right place, insert the key there, if it does not already exist....">
<polygon fill="white" stroke="#666666" points="679.5,-334 573.5,-334 573.5,-304 679.5,-304 679.5,-334"/>
<text text-anchor="start" x="581.5" y="-322" font-family="Helvetica,sans-Serif" font-size="10.00">HashTable::emplace</text>
<text text-anchor="middle" x="626.5" y="-311" font-family="Helvetica,sans-Serif" font-size="10.00">_non_zero</text>
</a>
</g>
</g>
<!-- Node29&#45;&gt;Node30 -->
<g id="edge30" class="edge">
<title>Node29&#45;&gt;Node30</title>
<path fill="none" stroke="#63b8ff" d="M739.83,-324.74C720.17,-323.74 698.75,-322.64 679.93,-321.68"/>
<polygon fill="#63b8ff" stroke="#63b8ff" points="739.49,-328.23 749.66,-325.25 739.85,-321.24 739.49,-328.23"/>
</g>
<!-- Node31 -->
<g id="node31" class="node">
<title>Node31</title>
<g id="a_node31"><a xlink:href="../../da/dae/class_hash_table.html#ac7904158a86835fa740687596ff2f6c9" target="_top" xlink:title=" ">
<polygon fill="white" stroke="#666666" points="514.5,-328.5 408.5,-328.5 408.5,-309.5 514.5,-309.5 514.5,-328.5"/>
<text text-anchor="middle" x="461.5" y="-316.5" font-family="Helvetica,sans-Serif" font-size="10.00">HashTable::emplace</text>
</a>
</g>
</g>
<!-- Node30&#45;&gt;Node31 -->
<g id="edge31" class="edge">
<title>Node30&#45;&gt;Node31</title>
<path fill="none" stroke="#63b8ff" d="M561.89,-319C546.33,-319 529.84,-319 514.87,-319"/>
<polygon fill="#63b8ff" stroke="#63b8ff" points="561.52,-322.5 571.52,-319 561.51,-315.5 561.52,-322.5"/>
</g>
<!-- Node32 -->
<g id="node32" class="node">
<title>Node32</title>
<g id="a_node32"><a xlink:href="../../da/dae/class_hash_table.html#a05734408db6e4cbe4a77ce6e1fb07aa1" target="_top" xlink:title="Insert a value. In the case of any more complex values, it is better to use the emplace function.">
<polygon fill="white" stroke="#666666" points="508,-256.5 415,-256.5 415,-237.5 508,-237.5 508,-256.5"/>
<text text-anchor="middle" x="461.5" y="-244.5" font-family="Helvetica,sans-Serif" font-size="10.00">HashTable::insert</text>
</a>
</g>
</g>
<!-- Node30&#45;&gt;Node32 -->
<g id="edge32" class="edge">
<title>Node30&#45;&gt;Node32</title>
<path fill="none" stroke="#63b8ff" d="M580.37,-299.07C549.32,-285.35 509.39,-267.71 484.89,-256.89"/>
<polygon fill="#63b8ff" stroke="#63b8ff" points="578.59,-302.1 589.15,-302.94 581.41,-295.7 578.59,-302.1"/>
</g>
<!-- Node32&#45;&gt;Node23 -->
<g id="edge44" class="edge">
<title>Node32&#45;&gt;Node23</title>
<path fill="none" stroke="#63b8ff" d="M434.4,-263.34C421.47,-272.65 406.61,-285.37 397,-300 365.97,-347.25 402.37,-383.47 361,-422 350.55,-431.74 336.08,-436.66 322.21,-439.02"/>
<polygon fill="#63b8ff" stroke="#63b8ff" points="436.27,-266.31 442.54,-257.77 432.31,-260.53 436.27,-266.31"/>
</g>
<!-- Node33 -->
<g id="node33" class="node">
<title>Node33</title>
<g id="a_node33"><a xlink:href="../../dc/d92/structdoris_1_1vectorized_1_1_aggregate_function_collect_set_data.html#a13a69962c07c086b601a3da4a8204e9e" target="_top" xlink:title=" ">
<polygon fill="white" stroke="#666666" points="350,-412.5 206,-412.5 206,-371.5 350,-371.5 350,-412.5"/>
<text text-anchor="start" x="214" y="-400.5" font-family="Helvetica,sans-Serif" font-size="10.00">doris::vectorized::</text>
<text text-anchor="start" x="214" y="-389.5" font-family="Helvetica,sans-Serif" font-size="10.00">AggregateFunctionCollectSet</text>
<text text-anchor="middle" x="278" y="-378.5" font-family="Helvetica,sans-Serif" font-size="10.00">Data::add</text>
</a>
</g>
</g>
<!-- Node32&#45;&gt;Node33 -->
<g id="edge33" class="edge">
<title>Node32&#45;&gt;Node33</title>
<path fill="none" stroke="#63b8ff" d="M436.72,-263.6C423.96,-273.26 408.54,-286.23 397,-300 376.29,-324.72 385.75,-342.33 361,-363 357.41,-366 353.48,-368.7 349.36,-371.13"/>
<polygon fill="#63b8ff" stroke="#63b8ff" points="438.64,-266.53 444.63,-257.79 434.5,-260.89 438.64,-266.53"/>
</g>
<!-- Node34 -->
<g id="node34" class="node">
<title>Node34</title>
<g id="a_node34"><a xlink:href="../../d6/d0c/structdoris_1_1vectorized_1_1_aggregate_function_distinct_single_numeric_data.html#a35d55fa56e6893ee8f94c361106d6383" target="_top" xlink:title=" ">
<polygon fill="white" stroke="#666666" points="357.5,-353.5 198.5,-353.5 198.5,-312.5 357.5,-312.5 357.5,-353.5"/>
<text text-anchor="start" x="206.5" y="-341.5" font-family="Helvetica,sans-Serif" font-size="10.00">doris::vectorized::</text>
<text text-anchor="start" x="206.5" y="-330.5" font-family="Helvetica,sans-Serif" font-size="10.00">AggregateFunctionDistinctSingle</text>
<text text-anchor="middle" x="278" y="-319.5" font-family="Helvetica,sans-Serif" font-size="10.00">NumericData::add</text>
</a>
</g>
</g>
<!-- Node32&#45;&gt;Node34 -->
<g id="edge34" class="edge">
<title>Node32&#45;&gt;Node34</title>
<path fill="none" stroke="#63b8ff" d="M434.96,-262.89C415.21,-274.81 386.94,-291.05 361,-303 354.12,-306.17 346.79,-309.25 339.46,-312.15"/>
<polygon fill="#63b8ff" stroke="#63b8ff" points="436.71,-265.92 443.43,-257.73 433.07,-259.95 436.71,-265.92"/>
</g>
<!-- Node35 -->
<g id="node35" class="node">
<title>Node35</title>
<g id="a_node35"><a xlink:href="../../d3/d96/structdoris_1_1vectorized_1_1_aggregate_function_distinct_generic_data.html#ac1320f448c9598d33e5460e0dd3edb48" target="_top" xlink:title=" ">
<polygon fill="white" stroke="#666666" points="361,-294.5 195,-294.5 195,-253.5 361,-253.5 361,-294.5"/>
<text text-anchor="start" x="203" y="-282.5" font-family="Helvetica,sans-Serif" font-size="10.00">doris::vectorized::</text>
<text text-anchor="start" x="203" y="-271.5" font-family="Helvetica,sans-Serif" font-size="10.00">AggregateFunctionDistinctGeneric</text>
<text text-anchor="middle" x="278" y="-260.5" font-family="Helvetica,sans-Serif" font-size="10.00">Data::deserialize</text>
</a>
</g>
</g>
<!-- Node32&#45;&gt;Node35 -->
<g id="edge35" class="edge">
<title>Node32&#45;&gt;Node35</title>
<path fill="none" stroke="#63b8ff" d="M403.68,-255.45C390.19,-257.46 375.54,-259.64 361.18,-261.78"/>
<polygon fill="#63b8ff" stroke="#63b8ff" points="403.83,-258.97 413.2,-254.04 402.8,-252.05 403.83,-258.97"/>
</g>
<!-- Node36 -->
<g id="node36" class="node">
<title>Node36</title>
<g id="a_node36"><a xlink:href="../../d5/d44/structdoris_1_1vectorized_1_1_overlap_set_impl.html#a1bf1459367e77839af4774acee800e09" target="_top" xlink:title=" ">
<polygon fill="white" stroke="#666666" points="348.5,-235 207.5,-235 207.5,-205 348.5,-205 348.5,-235"/>
<text text-anchor="start" x="215.5" y="-223" font-family="Helvetica,sans-Serif" font-size="10.00">doris::vectorized::</text>
<text text-anchor="middle" x="278" y="-212" font-family="Helvetica,sans-Serif" font-size="10.00">OverlapSetImpl::insert_array</text>
</a>
</g>
</g>
<!-- Node32&#45;&gt;Node36 -->
<g id="edge36" class="edge">
<title>Node32&#45;&gt;Node36</title>
<path fill="none" stroke="#63b8ff" d="M403.6,-238.54C386.24,-235.95 366.95,-233.08 348.83,-230.39"/>
<polygon fill="#63b8ff" stroke="#63b8ff" points="402.8,-241.95 413.2,-239.96 403.83,-235.03 402.8,-241.95"/>
</g>
<!-- Node38 -->
<g id="node38" class="node">
<title>Node38</title>
<g id="a_node38"><a xlink:href="../../dd/d3f/structdoris_1_1vectorized_1_1_overlap_set_impl_3_01_column_string_01_4.html#a1bf1459367e77839af4774acee800e09" target="_top" xlink:title=" ">
<polygon fill="white" stroke="#666666" points="354,-186.5 202,-186.5 202,-145.5 354,-145.5 354,-186.5"/>
<text text-anchor="start" x="210" y="-174.5" font-family="Helvetica,sans-Serif" font-size="10.00">doris::vectorized::</text>
<text text-anchor="start" x="210" y="-163.5" font-family="Helvetica,sans-Serif" font-size="10.00">OverlapSetImpl&lt; ColumnString</text>
<text text-anchor="middle" x="278" y="-152.5" font-family="Helvetica,sans-Serif" font-size="10.00"> &gt;::insert_array</text>
</a>
</g>
</g>
<!-- Node32&#45;&gt;Node38 -->
<g id="edge38" class="edge">
<title>Node32&#45;&gt;Node38</title>
<path fill="none" stroke="#63b8ff" d="M433.01,-231.75C413.27,-221.09 385.88,-206.88 361,-196 353.92,-192.9 346.4,-189.85 338.91,-186.94"/>
<polygon fill="#63b8ff" stroke="#63b8ff" points="431.06,-234.68 441.52,-236.39 434.41,-228.53 431.06,-234.68"/>
</g>
<!-- Node39 -->
<g id="node39" class="node">
<title>Node39</title>
<g id="a_node39"><a xlink:href="../../d6/da6/class_hash_set_table.html#a42f1f9112c37cf4b6781ae40a563d350" target="_top" xlink:title=" ">
<polygon fill="white" stroke="#666666" points="333.5,-127.5 222.5,-127.5 222.5,-108.5 333.5,-108.5 333.5,-127.5"/>
<text text-anchor="middle" x="278" y="-115.5" font-family="Helvetica,sans-Serif" font-size="10.00">HashSetTable::merge</text>
</a>
</g>
</g>
<!-- Node32&#45;&gt;Node39 -->
<g id="edge39" class="edge">
<title>Node32&#45;&gt;Node39</title>
<path fill="none" stroke="#63b8ff" d="M432.53,-231.14C420.59,-223.43 407.1,-213.36 397,-202 374.8,-177.03 387.73,-156.06 361,-136 353.07,-130.05 343.57,-125.99 333.89,-123.24"/>
<polygon fill="#63b8ff" stroke="#63b8ff" points="430.46,-233.98 440.81,-236.25 434.14,-228.02 430.46,-233.98"/>
</g>
<!-- Node41 -->
<g id="node41" class="node">
<title>Node41</title>
<g id="a_node41"><a xlink:href="../../dc/d92/structdoris_1_1vectorized_1_1_aggregate_function_collect_set_data.html#a4044c88e2fff94f8f2eaf41fa8592e42" target="_top" xlink:title=" ">
<polygon fill="white" stroke="#666666" points="151.5,-100.5 7.5,-100.5 7.5,-59.5 151.5,-59.5 151.5,-100.5"/>
<text text-anchor="start" x="15.5" y="-88.5" font-family="Helvetica,sans-Serif" font-size="10.00">doris::vectorized::</text>
<text text-anchor="start" x="15.5" y="-77.5" font-family="Helvetica,sans-Serif" font-size="10.00">AggregateFunctionCollectSet</text>
<text text-anchor="middle" x="79.5" y="-66.5" font-family="Helvetica,sans-Serif" font-size="10.00">Data::merge</text>
</a>
</g>
</g>
<!-- Node32&#45;&gt;Node41 -->
<g id="edge42" class="edge">
<title>Node32&#45;&gt;Node41</title>
<path fill="none" stroke="#63b8ff" d="M430.87,-231.4C418.96,-223.88 405.95,-213.89 397,-202 367.84,-163.26 399.57,-128.39 361,-99 329.31,-74.85 223.97,-73.78 151.8,-76.17"/>
<polygon fill="#63b8ff" stroke="#63b8ff" points="428.82,-234.26 439.21,-236.36 432.4,-228.24 428.82,-234.26"/>
</g>
<!-- Node42 -->
<g id="node42" class="node">
<title>Node42</title>
<g id="a_node42"><a xlink:href="../../d6/ddb/structdoris_1_1vectorized_1_1_aggregate_function_collect_set_data_3_01_string_ref_00_01_has_limit_01_4.html#adee1f511c659624c5e46db33f73bf249" target="_top" xlink:title=" ">
<polygon fill="white" stroke="#666666" points="350,-52 206,-52 206,0 350,0 350,-52"/>
<text text-anchor="start" x="214" y="-40" font-family="Helvetica,sans-Serif" font-size="10.00">doris::vectorized::</text>
<text text-anchor="start" x="214" y="-29" font-family="Helvetica,sans-Serif" font-size="10.00">AggregateFunctionCollectSet</text>
<text text-anchor="start" x="214" y="-18" font-family="Helvetica,sans-Serif" font-size="10.00">Data&lt; StringRef, HasLimit</text>
<text text-anchor="middle" x="278" y="-7" font-family="Helvetica,sans-Serif" font-size="10.00"> &gt;::read</text>
</a>
</g>
</g>
<!-- Node32&#45;&gt;Node42 -->
<g id="edge43" class="edge">
<title>Node32&#45;&gt;Node42</title>
<path fill="none" stroke="#63b8ff" d="M429.9,-231.41C418.06,-223.98 405.36,-214.06 397,-202 361.36,-150.63 400.7,-114.31 361,-66 356.78,-60.86 351.73,-56.33 346.25,-52.35"/>
<polygon fill="#63b8ff" stroke="#63b8ff" points="427.84,-234.26 438.24,-236.3 431.38,-228.22 427.84,-234.26"/>
</g>
<!-- Node37 -->
<g id="node37" class="node">
<title>Node37</title>
<g id="a_node37"><a xlink:href="../../dd/dd7/classdoris_1_1vectorized_1_1_function_arrays_overlap.html#a8ae8729b30320a1b6b8444e6fd19f661" target="_top" xlink:title=" ">
<polygon fill="white" stroke="#666666" points="137.5,-240.5 21.5,-240.5 21.5,-199.5 137.5,-199.5 137.5,-240.5"/>
<text text-anchor="start" x="29.5" y="-228.5" font-family="Helvetica,sans-Serif" font-size="10.00">doris::vectorized::</text>
<text text-anchor="start" x="29.5" y="-217.5" font-family="Helvetica,sans-Serif" font-size="10.00">FunctionArraysOverlap</text>
<text text-anchor="middle" x="79.5" y="-206.5" font-family="Helvetica,sans-Serif" font-size="10.00">::_execute_internal</text>
</a>
</g>
</g>
<!-- Node36&#45;&gt;Node37 -->
<g id="edge37" class="edge">
<title>Node36&#45;&gt;Node37</title>
<path fill="none" stroke="#63b8ff" d="M195.83,-220C176.35,-220 155.94,-220 137.8,-220"/>
<polygon fill="#63b8ff" stroke="#63b8ff" points="195.65,-223.5 205.65,-220 195.65,-216.5 195.65,-223.5"/>
</g>
<!-- Node40 -->
<g id="node40" class="node">
<title>Node40</title>
<g id="a_node40"><a xlink:href="../../d6/d0c/structdoris_1_1vectorized_1_1_aggregate_function_distinct_single_numeric_data.html#a9b90a6f1bc9350091e5b434ec50481b1" target="_top" xlink:title=" ">
<polygon fill="white" stroke="#666666" points="159,-159.5 0,-159.5 0,-118.5 159,-118.5 159,-159.5"/>
<text text-anchor="start" x="8" y="-147.5" font-family="Helvetica,sans-Serif" font-size="10.00">doris::vectorized::</text>
<text text-anchor="start" x="8" y="-136.5" font-family="Helvetica,sans-Serif" font-size="10.00">AggregateFunctionDistinctSingle</text>
<text text-anchor="middle" x="79.5" y="-125.5" font-family="Helvetica,sans-Serif" font-size="10.00">NumericData::merge</text>
</a>
</g>
</g>
<!-- Node39&#45;&gt;Node40 -->
<g id="edge40" class="edge">
<title>Node39&#45;&gt;Node40</title>
<path fill="none" stroke="#63b8ff" d="M210.81,-125.07C194.29,-126.84 176.42,-128.75 159.36,-130.57"/>
<polygon fill="#63b8ff" stroke="#63b8ff" points="210.93,-128.58 220.5,-124.04 210.18,-121.62 210.93,-128.58"/>
</g>
<!-- Node39&#45;&gt;Node41 -->
<g id="edge41" class="edge">
<title>Node39&#45;&gt;Node41</title>
<path fill="none" stroke="#63b8ff" d="M214.25,-105.87C194.35,-102.02 172.19,-97.73 151.73,-93.77"/>
<polygon fill="#63b8ff" stroke="#63b8ff" points="213.4,-109.27 223.89,-107.73 214.73,-102.39 213.4,-109.27"/>
</g>
<!-- Node46 -->
<g id="node46" class="node">
<title>Node46</title>
<g id="a_node46"><a xlink:href="../../da/dae/class_hash_table.html#a295dfa11b7ef0d2718f9e770b55a8f14" target="_top" xlink:title=" ">
<polygon fill="white" stroke="#666666" points="691,-199 562,-199 562,-169 691,-169 691,-199"/>
<text text-anchor="start" x="570" y="-187" font-family="Helvetica,sans-Serif" font-size="10.00">HashTable::lazy_emplace</text>
<text text-anchor="middle" x="626.5" y="-176" font-family="Helvetica,sans-Serif" font-size="10.00">_non_zero</text>
</a>
</g>
</g>
<!-- Node45&#45;&gt;Node46 -->
<g id="edge48" class="edge">
<title>Node45&#45;&gt;Node46</title>
<path fill="none" stroke="#63b8ff" d="M728.65,-184C716.2,-184 703.39,-184 691.24,-184"/>
<polygon fill="#63b8ff" stroke="#63b8ff" points="728.45,-187.5 738.45,-184 728.45,-180.5 728.45,-187.5"/>
</g>
<!-- Node47 -->
<g id="node47" class="node">
<title>Node47</title>
<g id="a_node47"><a xlink:href="../../da/dae/class_hash_table.html#a5e2fcd31687cdf66fe293d48cff80c73" target="_top" xlink:title=" ">
<polygon fill="white" stroke="#666666" points="526,-193.5 397,-193.5 397,-174.5 526,-174.5 526,-193.5"/>
<text text-anchor="middle" x="461.5" y="-181.5" font-family="Helvetica,sans-Serif" font-size="10.00">HashTable::lazy_emplace</text>
</a>
</g>
</g>
<!-- Node46&#45;&gt;Node47 -->
<g id="edge49" class="edge">
<title>Node46&#45;&gt;Node47</title>
<path fill="none" stroke="#63b8ff" d="M550.28,-184C542.26,-184 534.15,-184 526.27,-184"/>
<polygon fill="#63b8ff" stroke="#63b8ff" points="550.03,-187.5 560.03,-184 550.03,-180.5 550.03,-187.5"/>
</g>
<!-- Node49 -->
<g id="node49" class="node">
<title>Node49</title>
<g id="a_node49"><a xlink:href="../../de/dfc/classdoris_1_1_thread_mem_tracker_mgr.html#a67a3674febee939ee9f6d82808d2eb75" target="_top" xlink:title=" ">
<polygon fill="white" stroke="#666666" points="1420,-348 1275,-348 1275,-318 1420,-318 1420,-348"/>
<text text-anchor="start" x="1283" y="-336" font-family="Helvetica,sans-Serif" font-size="10.00">doris::ThreadMemTrackerMgr</text>
<text text-anchor="middle" x="1347.5" y="-325" font-family="Helvetica,sans-Serif" font-size="10.00">::flush_untracked_mem</text>
</a>
</g>
</g>
<!-- Node48&#45;&gt;Node49 -->
<g id="edge52" class="edge">
<title>Node48&#45;&gt;Node49</title>
<path fill="none" stroke="#63b8ff" d="M1451.23,-342.26C1440.98,-341.34 1430.46,-340.39 1420.27,-339.47"/>
<polygon fill="#63b8ff" stroke="#63b8ff" points="1450.89,-345.74 1461.16,-343.16 1451.52,-338.77 1450.89,-345.74"/>
</g>
</g>
</svg>
