<?xml version="1.0" encoding="UTF-8" standalone="no"?>
<!DOCTYPE svg PUBLIC "-//W3C//DTD SVG 1.1//EN"
 "http://www.w3.org/Graphics/SVG/1.1/DTD/svg11.dtd">
<!-- Generated by graphviz version 7.1.0 (20230121.1956)
 -->
<!-- Title: lazy_emplace Pages: 1 -->
<svg width="737pt" height="183pt"
 viewBox="0.00 0.00 737.00 182.83" xmlns="http://www.w3.org/2000/svg" xmlns:xlink="http://www.w3.org/1999/xlink">
<g id="graph0" class="graph" transform="scale(1 1) rotate(0) translate(4 178.83)">
<title>lazy_emplace</title>
<!-- Node1 -->
<g id="node1" class="node">
<title>Node1</title>
<g id="a_node1"><a xlink:title=" ">
<polygon fill="#999999" stroke="#666666" points="77,-74.33 0,-74.33 0,-55.33 77,-55.33 77,-74.33"/>
<text text-anchor="middle" x="38.5" y="-62.33" font-family="Helvetica,sans-Serif" font-size="10.00">lazy_emplace</text>
</a>
</g>
</g>
<!-- Node2 -->
<g id="node2" class="node">
<title>Node2</title>
<g id="a_node2"><a xlink:href="../../d9/d60/class_partitioned_hash_table.html#a9ec5a20ecf0758073d84c3380ff1b8f4" target="_top" xlink:title=" ">
<polygon fill="white" stroke="#666666" points="226,-74.33 113,-74.33 113,-55.33 226,-55.33 226,-74.33"/>
<text text-anchor="middle" x="169.5" y="-62.33" font-family="Helvetica,sans-Serif" font-size="10.00">convert_to_partitioned</text>
</a>
</g>
</g>
<!-- Node1&#45;&gt;Node2 -->
<g id="edge1" class="edge">
<title>Node1&#45;&gt;Node2</title>
<path fill="none" stroke="#63b8ff" d="M77.16,-64.83C84.83,-64.83 93.11,-64.83 101.46,-64.83"/>
<polygon fill="#63b8ff" stroke="#63b8ff" points="101.3,-68.33 111.3,-64.83 101.3,-61.33 101.3,-68.33"/>
</g>
<!-- Node3 -->
<g id="node3" class="node">
<title>Node3</title>
<g id="a_node3"><a xlink:href="../../d9/d60/class_partitioned_hash_table.html#a12cd899b87a703c835d316c6f883ff72" target="_top" xlink:title="NOTE Bad for hash tables with more than 2^32 cells.">
<polygon fill="white" stroke="#666666" points="390,-112.33 262,-112.33 262,-93.33 390,-93.33 390,-112.33"/>
<text text-anchor="middle" x="326" y="-100.33" font-family="Helvetica,sans-Serif" font-size="10.00">get_sub_table_from_hash</text>
</a>
</g>
</g>
<!-- Node1&#45;&gt;Node3 -->
<g id="edge12" class="edge">
<title>Node1&#45;&gt;Node3</title>
<path fill="none" stroke="#63b8ff" d="M73.28,-74.8C85.68,-78.13 99.88,-81.57 113,-83.83 158.17,-91.64 209.34,-96.34 250.09,-99.12"/>
<polygon fill="#63b8ff" stroke="#63b8ff" points="249.85,-102.61 260.06,-99.77 250.31,-95.62 249.85,-102.61"/>
</g>
<!-- Node7 -->
<g id="node7" class="node">
<title>Node7</title>
<g id="a_node7"><a xlink:href="../../db/d36/hash__table__key__holder_8h.html#a928f207f55160e77313c49feb25fc211" target="_top" xlink:title=" ">
<polygon fill="white" stroke="#666666" points="714,-44.33 610,-44.33 610,-25.33 714,-25.33 714,-44.33"/>
<text text-anchor="middle" x="662" y="-32.33" font-family="Helvetica,sans-Serif" font-size="10.00">key_holder_get_key</text>
</a>
</g>
</g>
<!-- Node1&#45;&gt;Node7 -->
<g id="edge13" class="edge">
<title>Node1&#45;&gt;Node7</title>
<path fill="none" stroke="#63b8ff" d="M74.05,-54.85C86.27,-51.6 100.17,-48.22 113,-45.83 308.52,-9.5 361.57,14.01 559,-9.83 578.69,-12.21 600.07,-17.08 618.14,-21.9"/>
<polygon fill="#63b8ff" stroke="#63b8ff" points="617.18,-25.27 627.75,-24.55 619.04,-18.52 617.18,-25.27"/>
</g>
<!-- Node2&#45;&gt;Node3 -->
<g id="edge2" class="edge">
<title>Node2&#45;&gt;Node3</title>
<path fill="none" stroke="#63b8ff" d="M211.09,-74.82C230.18,-79.51 253.15,-85.16 273.45,-90.15"/>
<polygon fill="#63b8ff" stroke="#63b8ff" points="272.39,-93.5 282.94,-92.49 274.07,-86.7 272.39,-93.5"/>
</g>
<!-- Node4 -->
<g id="node4" class="node">
<title>Node4</title>
<g id="a_node4"><a xlink:href="../../d9/d60/class_partitioned_hash_table.html#a05734408db6e4cbe4a77ce6e1fb07aa1" target="_top" xlink:title="Insert a value. In the case of any more complex values, it is better to use the emplace function.">
<polygon fill="white" stroke="#666666" points="346.5,-75.33 305.5,-75.33 305.5,-56.33 346.5,-56.33 346.5,-75.33"/>
<text text-anchor="middle" x="326" y="-63.33" font-family="Helvetica,sans-Serif" font-size="10.00">insert</text>
</a>
</g>
</g>
<!-- Node2&#45;&gt;Node4 -->
<g id="edge3" class="edge">
<title>Node2&#45;&gt;Node4</title>
<path fill="none" stroke="#63b8ff" d="M226.28,-65.19C248.93,-65.34 274.26,-65.51 293.59,-65.63"/>
<polygon fill="#63b8ff" stroke="#63b8ff" points="293.52,-69.13 303.55,-65.69 293.57,-62.13 293.52,-69.13"/>
</g>
<!-- Node5 -->
<g id="node5" class="node">
<title>Node5</title>
<g id="a_node5"><a xlink:href="../../d9/d60/class_partitioned_hash_table.html#a129c4582c39f1121609be23f4dcc27ee" target="_top" xlink:title=" ">
<polygon fill="white" stroke="#666666" points="519,-75.33 466,-75.33 466,-56.33 519,-56.33 519,-75.33"/>
<text text-anchor="middle" x="492.5" y="-63.33" font-family="Helvetica,sans-Serif" font-size="10.00">emplace</text>
</a>
</g>
</g>
<!-- Node4&#45;&gt;Node5 -->
<g id="edge4" class="edge">
<title>Node4&#45;&gt;Node5</title>
<path fill="none" stroke="#63b8ff" d="M346.84,-65.83C373.44,-65.83 421.17,-65.83 454.5,-65.83"/>
<polygon fill="#63b8ff" stroke="#63b8ff" points="454.12,-69.33 464.12,-65.83 454.12,-62.33 454.12,-69.33"/>
</g>
<!-- Node6 -->
<g id="node6" class="node">
<title>Node6</title>
<g id="a_node6"><a xlink:href="../../d9/d60/class_partitioned_hash_table.html#a0902d3327344aca5739605fd268a2481" target="_top" xlink:title=" ">
<polygon fill="white" stroke="#666666" points="681,-100.33 643,-100.33 643,-81.33 681,-81.33 681,-100.33"/>
<text text-anchor="middle" x="662" y="-88.33" font-family="Helvetica,sans-Serif" font-size="10.00">hash</text>
</a>
</g>
</g>
<!-- Node4&#45;&gt;Node6 -->
<g id="edge8" class="edge">
<title>Node4&#45;&gt;Node6</title>
<path fill="none" stroke="#63b8ff" d="M346.88,-70.89C359.43,-74.31 375.88,-79.22 390,-84.83 406.62,-91.44 408.59,-98.72 426,-102.83 498.29,-119.9 586.44,-106.67 631.46,-97.57"/>
<polygon fill="#63b8ff" stroke="#63b8ff" points="632.16,-101 641.22,-95.51 630.72,-94.15 632.16,-101"/>
</g>
<!-- Node8 -->
<g id="node8" class="node">
<title>Node8</title>
<g id="a_node8"><a xlink:href="../../d4/ddb/hash__table_8h.html#acb564f0bbdb75b37894b874f5743c96d" target="_top" xlink:title=" ">
<polygon fill="white" stroke="#666666" points="542,-38.33 443,-38.33 443,-19.33 542,-19.33 542,-38.33"/>
<text text-anchor="middle" x="492.5" y="-26.33" font-family="Helvetica,sans-Serif" font-size="10.00">insert_set_mapped</text>
</a>
</g>
</g>
<!-- Node4&#45;&gt;Node8 -->
<g id="edge9" class="edge">
<title>Node4&#45;&gt;Node8</title>
<path fill="none" stroke="#63b8ff" d="M346.84,-61.37C368.84,-56.42 405.28,-48.23 436.08,-41.3"/>
<polygon fill="#63b8ff" stroke="#63b8ff" points="436.67,-44.75 445.66,-39.14 435.13,-37.92 436.67,-44.75"/>
</g>
<!-- Node9 -->
<g id="node9" class="node">
<title>Node9</title>
<g id="a_node9"><a xlink:href="../../d5/d07/fixed__hash__map_8h.html#aa108eac6ca26f3273743dc16932510f6" target="_top" xlink:title=" ">
<polygon fill="white" stroke="#666666" points="559,-169.33 426,-169.33 426,-150.33 559,-150.33 559,-169.33"/>
<text text-anchor="middle" x="492.5" y="-157.33" font-family="Helvetica,sans-Serif" font-size="10.00">lookup_result_get_mapped</text>
</a>
</g>
</g>
<!-- Node4&#45;&gt;Node9 -->
<g id="edge10" class="edge">
<title>Node4&#45;&gt;Node9</title>
<path fill="none" stroke="#63b8ff" d="M346.95,-68.4C360.15,-70.88 377.3,-75.68 390,-84.83 412.51,-101.06 403.97,-118.96 426,-135.83 430.87,-139.56 436.37,-142.75 442.07,-145.48"/>
<polygon fill="#63b8ff" stroke="#63b8ff" points="440.47,-148.6 451.05,-149.29 443.21,-142.16 440.47,-148.6"/>
</g>
<!-- Node5&#45;&gt;Node5 -->
<g id="edge5" class="edge">
<title>Node5&#45;&gt;Node5</title>
<path fill="none" stroke="#63b8ff" d="M466.43,-75.7C454.54,-84.27 463.23,-93.33 492.5,-93.33 508.96,-93.33 518.91,-90.47 522.36,-86.43"/>
<polygon fill="#63b8ff" stroke="#63b8ff" points="525.7,-85.39 519.07,-77.13 519.1,-87.72 525.7,-85.39"/>
</g>
<!-- Node5&#45;&gt;Node6 -->
<g id="edge6" class="edge">
<title>Node5&#45;&gt;Node6</title>
<path fill="none" stroke="#63b8ff" d="M519.3,-69.69C549.58,-74.2 599.65,-81.68 631.45,-86.42"/>
<polygon fill="#63b8ff" stroke="#63b8ff" points="630.76,-89.86 641.17,-87.87 631.8,-82.94 630.76,-89.86"/>
</g>
<!-- Node5&#45;&gt;Node7 -->
<g id="edge7" class="edge">
<title>Node5&#45;&gt;Node7</title>
<path fill="none" stroke="#63b8ff" d="M519.3,-61.06C540.44,-57.15 571.22,-51.45 598.7,-46.36"/>
<polygon fill="#63b8ff" stroke="#63b8ff" points="599.16,-49.84 608.35,-44.58 597.88,-42.96 599.16,-49.84"/>
</g>
<!-- Node10 -->
<g id="node10" class="node">
<title>Node10</title>
<g id="a_node10"><a xlink:href="../../dc/d30/struct_fixed_hash_map_implicit_zero_cell.html#ac8507ca4b1cb5601e84f0feb8b2cb2d4" target="_top" xlink:title=" ">
<polygon fill="white" stroke="#666666" points="729,-174.83 595,-174.83 595,-144.83 729,-144.83 729,-174.83"/>
<text text-anchor="start" x="603" y="-162.83" font-family="Helvetica,sans-Serif" font-size="10.00">FixedHashMapImplicitZero</text>
<text text-anchor="middle" x="662" y="-151.83" font-family="Helvetica,sans-Serif" font-size="10.00">Cell::get_second</text>
</a>
</g>
</g>
<!-- Node9&#45;&gt;Node10 -->
<g id="edge11" class="edge">
<title>Node9&#45;&gt;Node10</title>
<path fill="none" stroke="#63b8ff" d="M559.22,-159.83C567.13,-159.83 575.27,-159.83 583.33,-159.83"/>
<polygon fill="#63b8ff" stroke="#63b8ff" points="583.13,-163.33 593.13,-159.83 583.13,-156.33 583.13,-163.33"/>
</g>
</g>
</svg>
