<?xml version="1.0" encoding="UTF-8" standalone="no"?>
<!DOCTYPE svg PUBLIC "-//W3C//DTD SVG 1.1//EN"
 "http://www.w3.org/Graphics/SVG/1.1/DTD/svg11.dtd">
<!-- Generated by graphviz version 7.1.0 (20230121.1956)
 -->
<!-- Title: bkd_query Pages: 1 -->
<!--zoomable 515 -->
<svg id="main" version="1.1" xmlns="http://www.w3.org/2000/svg" xmlns:xlink="http://www.w3.org/1999/xlink" xml:space="preserve" onload="init(evt)">
<style type="text/css"><![CDATA[
.edge:hover path { stroke: red; }
.edge:hover polygon { stroke: red; fill: red; }
]]></style>
<script type="text/javascript"><![CDATA[
var edges = document.getElementsByTagName('g');
if (edges && edges.length) {
  for (var i=0;i<edges.length;i++) {
    if (edges[i].id.substr(0,4)=='edge') {
      edges[i].setAttribute('class','edge');
    }
  }
}
]]></script>
        <defs>
                <circle id="rim" cx="0" cy="0" r="7"/>
                <circle id="rim2" cx="0" cy="0" r="3.5"/>
                <g id="zoomPlus">
                        <use xlink:href="#rim" fill="#404040">
                                <set attributeName="fill" to="#808080" begin="zoomplus.mouseover" end="zoomplus.mouseout"/>
                        </use>
                        <path d="M-4,0h8M0,-4v8" fill="none" stroke="white" stroke-width="1.5" pointer-events="none"/>
                </g>
                <g id="zoomMin">
                        <use xlink:href="#rim" fill="#404040">
                                <set attributeName="fill" to="#808080" begin="zoomminus.mouseover" end="zoomminus.mouseout"/>
                        </use>
                        <path d="M-4,0h8" fill="none" stroke="white" stroke-width="1.5" pointer-events="none"/>
                </g>
                <g id="dirArrow">
                        <path fill="none" stroke="white" stroke-width="1.5" d="M0,-3.0v7 M-2.5,-0.5L0,-3.0L2.5,-0.5"/>
                </g>
               <g id="resetDef">
                       <use xlink:href="#rim2" fill="#404040">
                               <set attributeName="fill" to="#808080" begin="reset.mouseover" end="reset.mouseout"/>
                       </use>
               </g>
        </defs>

<script type="text/javascript">
var viewWidth = 544;
var viewHeight = 515;
var sectionId = 'dynsection-7';
</script>
<script xlink:href="../../svgpan.js"/>
<svg id="graph" class="graph">
<g id="viewport">
<title>bkd_query</title>
<!-- Node1 -->
<g id="node1" class="node">
<title>Node1</title>
<g id="a_node1"><a xlink:title=" ">
<polygon fill="#999999" stroke="#666666" points="62,-150.5 0,-150.5 0,-131.5 62,-131.5 62,-150.5"/>
<text text-anchor="middle" x="31" y="-138.5" font-family="Helvetica,sans-Serif" font-size="10.00">bkd_query</text>
</a>
</g>
</g>
<!-- Node2 -->
<g id="node2" class="node">
<title>Node2</title>
<g id="a_node2"><a xlink:href="../../d2/d17/classdoris_1_1_key_coder.html#ab5519d5e985f0feb9917c688e3dc893b" target="_top" xlink:title=" ">
<polygon fill="white" stroke="#666666" points="204,-262 98,-262 98,-232 204,-232 204,-262"/>
<text text-anchor="start" x="106" y="-250" font-family="Helvetica,sans-Serif" font-size="10.00">doris::KeyCoder::full</text>
<text text-anchor="middle" x="151" y="-239" font-family="Helvetica,sans-Serif" font-size="10.00">_encode_ascending</text>
</a>
</g>
</g>
<!-- Node1&#45;&gt;Node2 -->
<g id="edge1" class="edge">
<title>Node1&#45;&gt;Node2</title>
<path fill="none" stroke="#63b8ff" d="M37.76,-150.81C48.02,-167.55 70.92,-201.86 98,-223 99.15,-223.89 100.33,-224.77 101.55,-225.61"/>
<polygon fill="#63b8ff" stroke="#63b8ff" points="99.69,-228.58 110.04,-230.84 103.36,-222.62 99.69,-228.58"/>
</g>
<!-- Node3 -->
<g id="node3" class="node">
<title>Node3</title>
<g id="a_node3"><a xlink:href="../../d4/da2/classdoris_1_1segment__v2_1_1_bkd_index_reader.html#af96eec14674d01c55cc288afcf7b9b35" target="_top" xlink:title=" ">
<polygon fill="white" stroke="#666666" points="192.5,-213.5 109.5,-213.5 109.5,-194.5 192.5,-194.5 192.5,-213.5"/>
<text text-anchor="middle" x="151" y="-201.5" font-family="Helvetica,sans-Serif" font-size="10.00">get_bkd_reader</text>
</a>
</g>
</g>
<!-- Node1&#45;&gt;Node3 -->
<g id="edge2" class="edge">
<title>Node1&#45;&gt;Node3</title>
<path fill="none" stroke="#63b8ff" d="M47.75,-150.92C60.96,-159.09 80.44,-170.79 98,-180 104.04,-183.17 110.57,-186.36 116.9,-189.33"/>
<polygon fill="#63b8ff" stroke="#63b8ff" points="115.31,-192.46 125.86,-193.46 118.24,-186.1 115.31,-192.46"/>
</g>
<!-- Node11 -->
<g id="node11" class="node">
<title>Node11</title>
<g id="a_node11"><a xlink:href="../../d9/d8d/classdoris_1_1_status.html#a6ec1a217f203269ab53d2290d602db24" target="_top" xlink:title=" ">
<polygon fill="white" stroke="#666666" points="353,-59.5 261,-59.5 261,-40.5 353,-40.5 353,-59.5"/>
<text text-anchor="middle" x="307" y="-47.5" font-family="Helvetica,sans-Serif" font-size="10.00">doris::Status::OK</text>
</a>
</g>
</g>
<!-- Node1&#45;&gt;Node11 -->
<g id="edge15" class="edge">
<title>Node1&#45;&gt;Node11</title>
<path fill="none" stroke="#63b8ff" d="M59.55,-150.92C95.8,-162.1 160.02,-175.29 204,-147 236.45,-126.13 210.61,-93 240,-68 243.17,-65.3 246.71,-63.01 250.46,-61.05"/>
<polygon fill="#63b8ff" stroke="#63b8ff" points="251.56,-64.39 259.38,-57.23 248.81,-57.95 251.56,-64.39"/>
</g>
<!-- Node16 -->
<g id="node16" class="node">
<title>Node16</title>
<g id="a_node16"><a xlink:href="../../d9/d4e/classdoris_1_1segment__v2_1_1_inverted_index_visitor.html#a887f348404752781d6a518c09632435d" target="_top" xlink:title=" ">
<polygon fill="white" stroke="#666666" points="203,-137.5 99,-137.5 99,-96.5 203,-96.5 203,-137.5"/>
<text text-anchor="start" x="107" y="-125.5" font-family="Helvetica,sans-Serif" font-size="10.00">doris::segment_v2::</text>
<text text-anchor="start" x="107" y="-114.5" font-family="Helvetica,sans-Serif" font-size="10.00">InvertedIndexVisitor</text>
<text text-anchor="middle" x="151" y="-103.5" font-family="Helvetica,sans-Serif" font-size="10.00">::set_reader</text>
</a>
</g>
</g>
<!-- Node1&#45;&gt;Node16 -->
<g id="edge16" class="edge">
<title>Node1&#45;&gt;Node16</title>
<path fill="none" stroke="#63b8ff" d="M62.39,-134.82C70.17,-133.24 78.82,-131.48 87.57,-129.7"/>
<polygon fill="#63b8ff" stroke="#63b8ff" points="88.07,-133.17 97.18,-127.74 86.68,-126.31 88.07,-133.17"/>
</g>
<!-- Node17 -->
<g id="node17" class="node">
<title>Node17</title>
<g id="a_node17"><a xlink:href="../../d4/d98/classdoris_1_1_type_info.html#a39f5c703286c275f49d7cc1268fdf3b2" target="_top" xlink:title=" ">
<polygon fill="white" stroke="#666666" points="201.5,-78 100.5,-78 100.5,-48 201.5,-48 201.5,-78"/>
<text text-anchor="start" x="108.5" y="-66" font-family="Helvetica,sans-Serif" font-size="10.00">doris::TypeInfo::set</text>
<text text-anchor="middle" x="151" y="-55" font-family="Helvetica,sans-Serif" font-size="10.00">_to_max</text>
</a>
</g>
</g>
<!-- Node1&#45;&gt;Node17 -->
<g id="edge17" class="edge">
<title>Node1&#45;&gt;Node17</title>
<path fill="none" stroke="#63b8ff" d="M42.12,-131.33C54.56,-119.78 76.66,-100.35 98,-87 99.83,-85.85 101.73,-84.73 103.67,-83.63"/>
<polygon fill="#63b8ff" stroke="#63b8ff" points="105.04,-86.86 112.23,-79.08 101.76,-80.68 105.04,-86.86"/>
</g>
<!-- Node18 -->
<g id="node18" class="node">
<title>Node18</title>
<g id="a_node18"><a xlink:href="../../d4/d98/classdoris_1_1_type_info.html#a9d641c91e3debb713720759b4ae1e6f2" target="_top" xlink:title=" ">
<polygon fill="white" stroke="#666666" points="201.5,-30 100.5,-30 100.5,0 201.5,0 201.5,-30"/>
<text text-anchor="start" x="108.5" y="-18" font-family="Helvetica,sans-Serif" font-size="10.00">doris::TypeInfo::set</text>
<text text-anchor="middle" x="151" y="-7" font-family="Helvetica,sans-Serif" font-size="10.00">_to_min</text>
</a>
</g>
</g>
<!-- Node1&#45;&gt;Node18 -->
<g id="edge18" class="edge">
<title>Node1&#45;&gt;Node18</title>
<path fill="none" stroke="#63b8ff" d="M36.03,-131.28C44.67,-111.49 66.77,-66.09 98,-39 98.92,-38.2 99.87,-37.43 100.85,-36.67"/>
<polygon fill="#63b8ff" stroke="#63b8ff" points="102.56,-39.73 108.95,-31.28 98.68,-33.91 102.56,-39.73"/>
</g>
<!-- Node4 -->
<g id="node4" class="node">
<title>Node4</title>
<g id="a_node4"><a xlink:href="../../d6/d94/namespacedoris.html#a97a2582a3c8c114c4bb4cbe0633e83b0" target="_top" xlink:title=" ">
<polygon fill="white" stroke="#666666" points="360.5,-477.5 253.5,-477.5 253.5,-458.5 360.5,-458.5 360.5,-477.5"/>
<text text-anchor="middle" x="307" y="-465.5" font-family="Helvetica,sans-Serif" font-size="10.00">doris::get_key_coder</text>
</a>
</g>
</g>
<!-- Node3&#45;&gt;Node4 -->
<g id="edge3" class="edge">
<title>Node3&#45;&gt;Node4</title>
<path fill="none" stroke="#63b8ff" d="M192.89,-213.9C197.1,-216.3 200.95,-219.29 204,-223 268.93,-301.86 171.81,-373.94 240,-450 241.16,-451.3 242.41,-452.51 243.73,-453.63"/>
<polygon fill="#63b8ff" stroke="#63b8ff" points="241.76,-456.53 252.04,-459.08 245.6,-450.67 241.76,-456.53"/>
</g>
<!-- Node7 -->
<g id="node7" class="node">
<title>Node7</title>
<g id="a_node7"><a xlink:href="../../d6/d94/namespacedoris.html#a81ef817ea2452253ed26d7ad9c113264" target="_top" xlink:title=" ">
<polygon fill="white" stroke="#666666" points="374,-440.5 240,-440.5 240,-421.5 374,-421.5 374,-440.5"/>
<text text-anchor="middle" x="307" y="-428.5" font-family="Helvetica,sans-Serif" font-size="10.00">doris::get_scalar_type_info</text>
</a>
</g>
</g>
<!-- Node3&#45;&gt;Node7 -->
<g id="edge6" class="edge">
<title>Node3&#45;&gt;Node7</title>
<path fill="none" stroke="#63b8ff" d="M192.78,-213.99C197.01,-216.38 200.89,-219.34 204,-223 259.37,-288.16 182.38,-348.82 240,-412 240.84,-412.93 241.73,-413.81 242.65,-414.65"/>
<polygon fill="#63b8ff" stroke="#63b8ff" points="240.4,-417.34 250.58,-420.25 244.44,-411.62 240.4,-417.34"/>
</g>
<!-- Node8 -->
<g id="node8" class="node">
<title>Node8</title>
<g id="a_node8"><a xlink:href="../../df/d82/classdoris_1_1segment__v2_1_1_inverted_index_descriptor.html#a2708166658fe4dce29c77194a2822f9b" target="_top" xlink:title=" ">
<polygon fill="white" stroke="#666666" points="374,-403 240,-403 240,-351 374,-351 374,-403"/>
<text text-anchor="start" x="248" y="-391" font-family="Helvetica,sans-Serif" font-size="10.00">doris::segment_v2::</text>
<text text-anchor="start" x="248" y="-380" font-family="Helvetica,sans-Serif" font-size="10.00">InvertedIndexDescriptor</text>
<text text-anchor="start" x="248" y="-369" font-family="Helvetica,sans-Serif" font-size="10.00">::get_temporary_bkd_index</text>
<text text-anchor="middle" x="307" y="-358" font-family="Helvetica,sans-Serif" font-size="10.00">_data_file_name</text>
</a>
</g>
</g>
<!-- Node3&#45;&gt;Node8 -->
<g id="edge7" class="edge">
<title>Node3&#45;&gt;Node8</title>
<path fill="none" stroke="#63b8ff" d="M191.64,-213.91C196.22,-216.31 200.5,-219.3 204,-223 241.95,-263.16 204.89,-299.33 240,-342 240.16,-342.19 240.32,-342.39 240.48,-342.58"/>
<polygon fill="#63b8ff" stroke="#63b8ff" points="237.95,-344.99 247.51,-349.55 242.87,-340.02 237.95,-344.99"/>
</g>
<!-- Node9 -->
<g id="node9" class="node">
<title>Node9</title>
<g id="a_node9"><a xlink:href="../../df/d82/classdoris_1_1segment__v2_1_1_inverted_index_descriptor.html#a163fb69a1db3d133fb818e8698cec552" target="_top" xlink:title=" ">
<polygon fill="white" stroke="#666666" points="374,-333 240,-333 240,-281 374,-281 374,-333"/>
<text text-anchor="start" x="248" y="-321" font-family="Helvetica,sans-Serif" font-size="10.00">doris::segment_v2::</text>
<text text-anchor="start" x="248" y="-310" font-family="Helvetica,sans-Serif" font-size="10.00">InvertedIndexDescriptor</text>
<text text-anchor="start" x="248" y="-299" font-family="Helvetica,sans-Serif" font-size="10.00">::get_temporary_bkd_index</text>
<text text-anchor="middle" x="307" y="-288" font-family="Helvetica,sans-Serif" font-size="10.00">_file_name</text>
</a>
</g>
</g>
<!-- Node3&#45;&gt;Node9 -->
<g id="edge8" class="edge">
<title>Node3&#45;&gt;Node9</title>
<path fill="none" stroke="#63b8ff" d="M187.84,-213.92C193.55,-216.37 199.16,-219.37 204,-223 225.61,-239.22 219.55,-254.34 240,-272 240.77,-272.67 241.56,-273.33 242.36,-273.98"/>
<polygon fill="#63b8ff" stroke="#63b8ff" points="240.04,-276.61 250.16,-279.74 244.2,-270.98 240.04,-276.61"/>
</g>
<!-- Node10 -->
<g id="node10" class="node">
<title>Node10</title>
<g id="a_node10"><a xlink:href="../../df/d82/classdoris_1_1segment__v2_1_1_inverted_index_descriptor.html#ad6967266c757f7ec4ecd258940e631b0" target="_top" xlink:title=" ">
<polygon fill="white" stroke="#666666" points="374,-263 240,-263 240,-211 374,-211 374,-263"/>
<text text-anchor="start" x="248" y="-251" font-family="Helvetica,sans-Serif" font-size="10.00">doris::segment_v2::</text>
<text text-anchor="start" x="248" y="-240" font-family="Helvetica,sans-Serif" font-size="10.00">InvertedIndexDescriptor</text>
<text text-anchor="start" x="248" y="-229" font-family="Helvetica,sans-Serif" font-size="10.00">::get_temporary_bkd_index</text>
<text text-anchor="middle" x="307" y="-218" font-family="Helvetica,sans-Serif" font-size="10.00">_meta_file_name</text>
</a>
</g>
</g>
<!-- Node3&#45;&gt;Node10 -->
<g id="edge9" class="edge">
<title>Node3&#45;&gt;Node10</title>
<path fill="none" stroke="#63b8ff" d="M192.86,-212.76C203.85,-215.11 216.1,-217.74 228.38,-220.37"/>
<polygon fill="#63b8ff" stroke="#63b8ff" points="227.63,-223.78 238.14,-222.46 229.09,-216.94 227.63,-223.78"/>
</g>
<!-- Node3&#45;&gt;Node11 -->
<g id="edge10" class="edge">
<title>Node3&#45;&gt;Node11</title>
<path fill="none" stroke="#63b8ff" d="M184.46,-194.01C191.67,-190.53 198.73,-185.96 204,-180 238.66,-140.85 202.21,-104.14 240,-68 243.06,-65.08 246.54,-62.62 250.27,-60.56"/>
<polygon fill="#63b8ff" stroke="#63b8ff" points="251.51,-63.84 259.22,-56.57 248.66,-57.44 251.51,-63.84"/>
</g>
<!-- Node13 -->
<g id="node13" class="node">
<title>Node13</title>
<g id="a_node13"><a xlink:href="../../dc/df7/classdoris_1_1segment__v2_1_1_doris_compound_reader.html#ad6742b808251dbddd0a5cc824065a07d" target="_top" xlink:title=" ">
<polygon fill="white" stroke="#666666" points="366.5,-192.5 247.5,-192.5 247.5,-151.5 366.5,-151.5 366.5,-192.5"/>
<text text-anchor="start" x="255.5" y="-180.5" font-family="Helvetica,sans-Serif" font-size="10.00">doris::segment_v2::</text>
<text text-anchor="start" x="255.5" y="-169.5" font-family="Helvetica,sans-Serif" font-size="10.00">DorisCompoundReader</text>
<text text-anchor="middle" x="307" y="-158.5" font-family="Helvetica,sans-Serif" font-size="10.00">::openInput</text>
</a>
</g>
</g>
<!-- Node3&#45;&gt;Node13 -->
<g id="edge12" class="edge">
<title>Node3&#45;&gt;Node13</title>
<path fill="none" stroke="#63b8ff" d="M192.86,-195.51C206.14,-192.75 221.28,-189.6 236.06,-186.53"/>
<polygon fill="#63b8ff" stroke="#63b8ff" points="236.7,-189.98 245.78,-184.51 235.27,-183.12 236.7,-189.98"/>
</g>
<!-- Node14 -->
<g id="node14" class="node">
<title>Node14</title>
<g id="a_node14"><a xlink:href="../../d4/d98/classdoris_1_1_type_info.html#a90b8bc1e7390958b60887bf9a816d388" target="_top" xlink:title=" ">
<polygon fill="white" stroke="#666666" points="360,-133.5 254,-133.5 254,-114.5 360,-114.5 360,-133.5"/>
<text text-anchor="middle" x="307" y="-121.5" font-family="Helvetica,sans-Serif" font-size="10.00">doris::TypeInfo::type</text>
</a>
</g>
</g>
<!-- Node3&#45;&gt;Node14 -->
<g id="edge13" class="edge">
<title>Node3&#45;&gt;Node14</title>
<path fill="none" stroke="#63b8ff" d="M178.42,-194.05C186.95,-190.27 196.21,-185.51 204,-180 222.73,-166.75 220.32,-154.79 240,-143 242.97,-141.22 246.12,-139.6 249.37,-138.12"/>
<polygon fill="#63b8ff" stroke="#63b8ff" points="250.57,-141.41 258.56,-134.45 247.98,-134.91 250.57,-141.41"/>
</g>
<!-- Node15 -->
<g id="node15" class="node">
<title>Node15</title>
<g id="a_node15"><a xlink:href="../../d4/da2/classdoris_1_1segment__v2_1_1_bkd_index_reader.html#a191ee7e20ae8b2f7ac2ea667c472334f" target="_top" xlink:title=" ">
<polygon fill="white" stroke="#666666" points="324.5,-96.5 289.5,-96.5 289.5,-77.5 324.5,-77.5 324.5,-96.5"/>
<text text-anchor="middle" x="307" y="-84.5" font-family="Helvetica,sans-Serif" font-size="10.00">type</text>
</a>
</g>
</g>
<!-- Node3&#45;&gt;Node15 -->
<g id="edge14" class="edge">
<title>Node3&#45;&gt;Node15</title>
<path fill="none" stroke="#63b8ff" d="M182.53,-194.1C190.2,-190.55 197.96,-185.91 204,-180 230.12,-154.4 212.01,-129.54 240,-106 250.62,-97.07 265.22,-92.33 277.99,-89.82"/>
<polygon fill="#63b8ff" stroke="#63b8ff" points="278.21,-93.33 287.55,-88.32 277.12,-86.42 278.21,-93.33"/>
</g>
<!-- Node5 -->
<g id="node5" class="node">
<title>Node5</title>
<g id="a_node5"><a xlink:href="../../d2/d4c/classdoris_1_1_key_coder_resolver.html#a525b403dc70fdbd52e21056065471e36" target="_top" xlink:title=" ">
<polygon fill="white" stroke="#666666" points="536,-507 410,-507 410,-477 536,-477 536,-507"/>
<text text-anchor="start" x="418" y="-495" font-family="Helvetica,sans-Serif" font-size="10.00">doris::KeyCoderResolver</text>
<text text-anchor="middle" x="473" y="-484" font-family="Helvetica,sans-Serif" font-size="10.00">::get_coder</text>
</a>
</g>
</g>
<!-- Node4&#45;&gt;Node5 -->
<g id="edge4" class="edge">
<title>Node4&#45;&gt;Node5</title>
<path fill="none" stroke="#63b8ff" d="M360.79,-475.73C372.82,-477.49 385.8,-479.39 398.51,-481.25"/>
<polygon fill="#63b8ff" stroke="#63b8ff" points="397.68,-484.66 408.08,-482.65 398.69,-477.73 397.68,-484.66"/>
</g>
<!-- Node6 -->
<g id="node6" class="node">
<title>Node6</title>
<g id="a_node6"><a xlink:href="../../d2/d4c/classdoris_1_1_key_coder_resolver.html#a3e04498cf94b9f6f6fc14f53fb93df45" target="_top" xlink:title=" ">
<polygon fill="white" stroke="#666666" points="536,-459 410,-459 410,-429 536,-429 536,-459"/>
<text text-anchor="start" x="418" y="-447" font-family="Helvetica,sans-Serif" font-size="10.00">doris::KeyCoderResolver</text>
<text text-anchor="middle" x="473" y="-436" font-family="Helvetica,sans-Serif" font-size="10.00">::instance</text>
</a>
</g>
</g>
<!-- Node4&#45;&gt;Node6 -->
<g id="edge5" class="edge">
<title>Node4&#45;&gt;Node6</title>
<path fill="none" stroke="#63b8ff" d="M360.79,-460.27C372.82,-458.51 385.8,-456.61 398.51,-454.75"/>
<polygon fill="#63b8ff" stroke="#63b8ff" points="398.69,-458.27 408.08,-453.35 397.68,-451.34 398.69,-458.27"/>
</g>
<!-- Node12 -->
<g id="node12" class="node">
<title>Node12</title>
<g id="a_node12"><a xlink:href="../../d9/d8d/classdoris_1_1_status.html#aafde58df1b2a6a91d5b674373be3ffc5" target="_top" xlink:title=" ">
<polygon fill="white" stroke="#666666" points="526.5,-59.5 419.5,-59.5 419.5,-40.5 526.5,-40.5 526.5,-59.5"/>
<text text-anchor="middle" x="473" y="-47.5" font-family="Helvetica,sans-Serif" font-size="10.00">doris::Status::Status</text>
</a>
</g>
</g>
<!-- Node11&#45;&gt;Node12 -->
<g id="edge11" class="edge">
<title>Node11&#45;&gt;Node12</title>
<path fill="none" stroke="#63b8ff" d="M353.25,-50C370.05,-50 389.45,-50 407.63,-50"/>
<polygon fill="#63b8ff" stroke="#63b8ff" points="407.55,-53.5 417.55,-50 407.55,-46.5 407.55,-53.5"/>
</g>
</g>
</svg>
        <g id="navigator" transform="translate(0 0)" fill="#404254">
                <rect fill="#f2f5e9" fill-opacity="0.5" stroke="#606060" stroke-width=".5" x="0" y="0" width="60" height="60"/>
                <use id="zoomplus" xlink:href="#zoomPlus" x="17" y="9" onmousedown="handleZoom(evt,'in')"/>
                <use id="zoomminus" xlink:href="#zoomMin" x="42" y="9" onmousedown="handleZoom(evt,'out')"/>
                <use id="reset" xlink:href="#resetDef" x="30" y="36" onmousedown="handleReset()"/>
                <g id="arrowUp" xlink:href="#dirArrow" transform="translate(30 24)" onmousedown="handlePan(0,-1)">
                  <use xlink:href="#rim" fill="#404040">
                        <set attributeName="fill" to="#808080" begin="arrowUp.mouseover" end="arrowUp.mouseout"/>
                  </use>
                  <path fill="none" stroke="white" stroke-width="1.5" d="M0,-3.0v7 M-2.5,-0.5L0,-3.0L2.5,-0.5"/>
                </g>
                <g id="arrowRight" xlink:href="#dirArrow" transform="rotate(90) translate(36 -43)" onmousedown="handlePan(1,0)">
                  <use xlink:href="#rim" fill="#404040">
                        <set attributeName="fill" to="#808080" begin="arrowRight.mouseover" end="arrowRight.mouseout"/>
                  </use>
                  <path fill="none" stroke="white" stroke-width="1.5" d="M0,-3.0v7 M-2.5,-0.5L0,-3.0L2.5,-0.5"/>
                </g>
                <g id="arrowDown" xlink:href="#dirArrow" transform="rotate(180) translate(-30 -48)" onmousedown="handlePan(0,1)">
                  <use xlink:href="#rim" fill="#404040">
                        <set attributeName="fill" to="#808080" begin="arrowDown.mouseover" end="arrowDown.mouseout"/>
                  </use>
                  <path fill="none" stroke="white" stroke-width="1.5" d="M0,-3.0v7 M-2.5,-0.5L0,-3.0L2.5,-0.5"/>
                </g>
                <g id="arrowLeft" xlink:href="#dirArrow" transform="rotate(270) translate(-36 17)" onmousedown="handlePan(-1,0)">
                  <use xlink:href="#rim" fill="#404040">
                        <set attributeName="fill" to="#808080" begin="arrowLeft.mouseover" end="arrowLeft.mouseout"/>
                  </use>
                  <path fill="none" stroke="white" stroke-width="1.5" d="M0,-3.0v7 M-2.5,-0.5L0,-3.0L2.5,-0.5"/>
                </g>
        </g>
        <svg viewBox="0 0 15 15" width="100%" height="30px" preserveAspectRatio="xMaxYMin meet">
         <g id="arrow_out" transform="scale(0.3 0.3)">
          <a xlink:href="classdoris_1_1segment__v2_1_1_bkd_index_reader_aeac33f2c47ee36694c068c3e8d7fb145_cgraph_org.svg" target="_base">
           <rect id="button" ry="5" rx="5" y="6" x="6" height="38" width="38"
                fill="#f2f5e9" fill-opacity="0.5" stroke="#606060" stroke-width="1.0"/>
           <path id="arrow"
             d="M 11.500037,31.436501 C 11.940474,20.09759 22.043105,11.32322 32.158766,21.979434 L 37.068811,17.246167 C 37.068811,17.246167 37.088388,32 37.088388,32 L 22.160133,31.978069 C 22.160133,31.978069 26.997745,27.140456 26.997745,27.140456 C 18.528582,18.264221 13.291696,25.230495 11.500037,31.436501 z"
             style="fill:#404040;"/>
          </a>
         </g>
        </svg>
</svg>
