<?xml version="1.0" encoding="UTF-8" standalone="no"?>
<!DOCTYPE svg PUBLIC "-//W3C//DTD SVG 1.1//EN"
 "http://www.w3.org/Graphics/SVG/1.1/DTD/svg11.dtd">
<!-- Generated by graphviz version 7.1.0 (20230121.1956)
 -->
<!-- Title: get_bkd_reader Pages: 1 -->
<svg width="282pt" height="64pt"
 viewBox="0.00 0.00 282.00 64.00" xmlns="http://www.w3.org/2000/svg" xmlns:xlink="http://www.w3.org/1999/xlink">
<g id="graph0" class="graph" transform="scale(1 1) rotate(0) translate(4 60)">
<title>get_bkd_reader</title>
<!-- Node1 -->
<g id="node1" class="node">
<title>Node1</title>
<g id="a_node1"><a xlink:title=" ">
<polygon fill="#999999" stroke="#666666" points="274,-37 191,-37 191,-18 274,-18 274,-37"/>
<text text-anchor="middle" x="232.5" y="-25" font-family="Helvetica,sans-Serif" font-size="10.00">get_bkd_reader</text>
</a>
</g>
</g>
<!-- Node2 -->
<g id="node2" class="node">
<title>Node2</title>
<g id="a_node2"><a xlink:href="../../d4/da2/classdoris_1_1segment__v2_1_1_bkd_index_reader.html#aeac33f2c47ee36694c068c3e8d7fb145" target="_top" xlink:title=" ">
<polygon fill="white" stroke="#666666" points="155,-37 93,-37 93,-18 155,-18 155,-37"/>
<text text-anchor="middle" x="124" y="-25" font-family="Helvetica,sans-Serif" font-size="10.00">bkd_query</text>
</a>
</g>
</g>
<!-- Node1&#45;&gt;Node2 -->
<g id="edge1" class="edge">
<title>Node1&#45;&gt;Node2</title>
<path fill="none" stroke="#63b8ff" d="M179.17,-27.5C171,-27.5 162.8,-27.5 155.34,-27.5"/>
<polygon fill="#63b8ff" stroke="#63b8ff" points="179.12,-31 189.12,-27.5 179.12,-24 179.12,-31"/>
</g>
<!-- Node3 -->
<g id="node3" class="node">
<title>Node3</title>
<g id="a_node3"><a xlink:href="../../d4/da2/classdoris_1_1segment__v2_1_1_bkd_index_reader.html#a5fb46417b2a09a290b29893c284cb609" target="_top" xlink:title=" ">
<polygon fill="white" stroke="#666666" points="49,-56 8,-56 8,-37 49,-37 49,-56"/>
<text text-anchor="middle" x="28.5" y="-44" font-family="Helvetica,sans-Serif" font-size="10.00">query</text>
</a>
</g>
</g>
<!-- Node2&#45;&gt;Node3 -->
<g id="edge2" class="edge">
<title>Node2&#45;&gt;Node3</title>
<path fill="none" stroke="#63b8ff" d="M81.67,-35.9C70.46,-38.18 58.83,-40.54 49.4,-42.46"/>
<polygon fill="#63b8ff" stroke="#63b8ff" points="82.06,-39.39 91.16,-33.97 80.66,-32.53 82.06,-39.39"/>
</g>
<!-- Node4 -->
<g id="node4" class="node">
<title>Node4</title>
<g id="a_node4"><a xlink:href="../../d4/da2/classdoris_1_1segment__v2_1_1_bkd_index_reader.html#a92cb1b96d7406ae5173c6a67d843106d" target="_top" xlink:title=" ">
<polygon fill="white" stroke="#666666" points="57,-19 0,-19 0,0 57,0 57,-19"/>
<text text-anchor="middle" x="28.5" y="-7" font-family="Helvetica,sans-Serif" font-size="10.00">try_query</text>
</a>
</g>
</g>
<!-- Node2&#45;&gt;Node4 -->
<g id="edge3" class="edge">
<title>Node2&#45;&gt;Node4</title>
<path fill="none" stroke="#63b8ff" d="M81.43,-19.5C73.33,-17.94 65.02,-16.34 57.49,-14.89"/>
<polygon fill="#63b8ff" stroke="#63b8ff" points="80.68,-22.92 91.16,-21.37 82,-16.04 80.68,-22.92"/>
</g>
</g>
</svg>
