<?xml version="1.0" encoding="UTF-8" standalone="no"?>
<!DOCTYPE svg PUBLIC "-//W3C//DTD SVG 1.1//EN"
 "http://www.w3.org/Graphics/SVG/1.1/DTD/svg11.dtd">
<!-- Generated by graphviz version 7.1.0 (20230121.1956)
 -->
<!-- Title: estimate_cardinality Pages: 1 -->
<svg width="538pt" height="399pt"
 viewBox="0.00 0.00 538.00 399.00" xmlns="http://www.w3.org/2000/svg" xmlns:xlink="http://www.w3.org/1999/xlink">
<g id="graph0" class="graph" transform="scale(1 1) rotate(0) translate(4 395)">
<title>estimate_cardinality</title>
<!-- Node1 -->
<g id="node1" class="node">
<title>Node1</title>
<g id="a_node1"><a xlink:title=" ">
<polygon fill="#999999" stroke="#666666" points="104,-223 0,-223 0,-204 104,-204 104,-223"/>
<text text-anchor="middle" x="52" y="-211" font-family="Helvetica,sans-Serif" font-size="10.00">estimate_cardinality</text>
</a>
</g>
</g>
<!-- Node2 -->
<g id="node2" class="node">
<title>Node2</title>
<g id="a_node2"><a xlink:href="../../d7/df8/log_8c.html#adb302c9aafbaa5e180d9f60ee954bb82" target="_top" xlink:title=" ">
<polygon fill="white" stroke="#666666" points="173.5,-315 144.5,-315 144.5,-296 173.5,-296 173.5,-315"/>
<text text-anchor="middle" x="159" y="-303" font-family="Helvetica,sans-Serif" font-size="10.00">log</text>
</a>
</g>
</g>
<!-- Node1&#45;&gt;Node2 -->
<g id="edge1" class="edge">
<title>Node1&#45;&gt;Node2</title>
<path fill="none" stroke="#63b8ff" d="M64.24,-223.35C81.92,-238.84 116.48,-269.12 138.34,-288.27"/>
<polygon fill="#63b8ff" stroke="#63b8ff" points="135.88,-290.77 145.71,-294.73 140.49,-285.51 135.88,-290.77"/>
</g>
<!-- Node7 -->
<g id="node7" class="node">
<title>Node7</title>
<g id="a_node7"><a xlink:href="../../d3/d15/powf_8c.html#ac6b287549be087f6f0bf03b6fe30499e" target="_top" xlink:title=" ">
<polygon fill="white" stroke="#666666" points="178,-149 140,-149 140,-130 178,-130 178,-149"/>
<text text-anchor="middle" x="159" y="-137" font-family="Helvetica,sans-Serif" font-size="10.00">powf</text>
</a>
</g>
</g>
<!-- Node1&#45;&gt;Node7 -->
<g id="edge6" class="edge">
<title>Node1&#45;&gt;Node7</title>
<path fill="none" stroke="#63b8ff" d="M67.16,-203.52C84.48,-191.31 114.03,-170.48 134.72,-155.91"/>
<polygon fill="#63b8ff" stroke="#63b8ff" points="136.67,-158.82 142.83,-150.19 132.64,-153.09 136.67,-158.82"/>
</g>
<!-- Node3 -->
<g id="node3" class="node">
<title>Node3</title>
<g id="a_node3"><a xlink:href="../../da/da2/____math__divzero_8c.html#a8c10e0e17b8529cc85535823a84f2799" target="_top" xlink:title=" ">
<polygon fill="white" stroke="#666666" points="300,-278 214,-278 214,-259 300,-259 300,-278"/>
<text text-anchor="middle" x="257" y="-266" font-family="Helvetica,sans-Serif" font-size="10.00">__math_divzero</text>
</a>
</g>
</g>
<!-- Node2&#45;&gt;Node3 -->
<g id="edge2" class="edge">
<title>Node2&#45;&gt;Node3</title>
<path fill="none" stroke="#63b8ff" d="M173.75,-300.2C185.72,-295.59 203.6,-288.69 219.64,-282.51"/>
<polygon fill="#63b8ff" stroke="#63b8ff" points="220.87,-285.79 228.94,-278.93 218.35,-279.26 220.87,-285.79"/>
</g>
<!-- Node4 -->
<g id="node4" class="node">
<title>Node4</title>
<g id="a_node4"><a xlink:href="../../dc/db1/____math__invalid_8c.html#a11c62c401c5f851280dc0a4032943305" target="_top" xlink:title=" ">
<polygon fill="white" stroke="#666666" points="298,-391 216,-391 216,-372 298,-372 298,-391"/>
<text text-anchor="middle" x="257" y="-379" font-family="Helvetica,sans-Serif" font-size="10.00">__math_invalid</text>
</a>
</g>
</g>
<!-- Node2&#45;&gt;Node4 -->
<g id="edge3" class="edge">
<title>Node2&#45;&gt;Node4</title>
<path fill="none" stroke="#63b8ff" d="M168.92,-315.46C179.14,-326.53 196.71,-344.55 214,-357.5 217.93,-360.45 222.26,-363.3 226.6,-365.95"/>
<polygon fill="#63b8ff" stroke="#63b8ff" points="224.84,-368.97 235.25,-370.94 228.34,-362.91 224.84,-368.97"/>
</g>
<!-- Node5 -->
<g id="node5" class="node">
<title>Node5</title>
<g id="a_node5"><a xlink:href="../../d9/ded/libm_8h.html#a4e92ce39e6a616f6014883f1d05c33bc" target="_top" xlink:title=" ">
<polygon fill="white" stroke="#666666" points="420,-236 336,-236 336,-217 420,-217 420,-236"/>
<text text-anchor="middle" x="378" y="-224" font-family="Helvetica,sans-Serif" font-size="10.00">eval_as_double</text>
</a>
</g>
</g>
<!-- Node2&#45;&gt;Node5 -->
<g id="edge4" class="edge">
<title>Node2&#45;&gt;Node5</title>
<path fill="none" stroke="#63b8ff" d="M173.93,-312.33C200.07,-324.11 257.64,-345.09 300,-324.5 333.11,-308.41 356.23,-270.41 368,-246.74"/>
<polygon fill="#63b8ff" stroke="#63b8ff" points="371.12,-248.33 372.22,-237.8 364.79,-245.35 371.12,-248.33"/>
</g>
<!-- Node6 -->
<g id="node6" class="node">
<title>Node6</title>
<g id="a_node6"><a xlink:href="../../d7/df8/log_8c.html#ad659092c71fb8c0a80b32323a26a9c31" target="_top" xlink:title=" ">
<polygon fill="white" stroke="#666666" points="277.5,-315 236.5,-315 236.5,-296 277.5,-296 277.5,-315"/>
<text text-anchor="middle" x="257" y="-303" font-family="Helvetica,sans-Serif" font-size="10.00">top16</text>
</a>
</g>
</g>
<!-- Node2&#45;&gt;Node6 -->
<g id="edge5" class="edge">
<title>Node2&#45;&gt;Node6</title>
<path fill="none" stroke="#63b8ff" d="M173.75,-305.5C187.07,-305.5 207.71,-305.5 224.98,-305.5"/>
<polygon fill="#63b8ff" stroke="#63b8ff" points="224.76,-309 234.76,-305.5 224.76,-302 224.76,-309"/>
</g>
<!-- Node8 -->
<g id="node8" class="node">
<title>Node8</title>
<g id="a_node8"><a xlink:href="../../d0/d24/____math__invalidf_8c.html#a802c72b6344e404a3fb304a7a893df6d" target="_top" xlink:title=" ">
<polygon fill="white" stroke="#666666" points="299.5,-93 214.5,-93 214.5,-74 299.5,-74 299.5,-93"/>
<text text-anchor="middle" x="257" y="-81" font-family="Helvetica,sans-Serif" font-size="10.00">__math_invalidf</text>
</a>
</g>
</g>
<!-- Node7&#45;&gt;Node8 -->
<g id="edge7" class="edge">
<title>Node7&#45;&gt;Node8</title>
<path fill="none" stroke="#63b8ff" d="M172.9,-129.71C183.59,-121.83 199.34,-110.75 214,-102.5 216.5,-101.09 219.13,-99.7 221.79,-98.36"/>
<polygon fill="#63b8ff" stroke="#63b8ff" points="223.21,-101.56 230.73,-94.09 220.2,-95.25 223.21,-101.56"/>
</g>
<!-- Node9 -->
<g id="node9" class="node">
<title>Node9</title>
<g id="a_node9"><a xlink:href="../../d4/dd1/____math__oflowf_8c.html#ab5f6ac659c9f631f1e9a7e2b7e82650c" target="_top" xlink:title=" ">
<polygon fill="white" stroke="#666666" points="297,-56 217,-56 217,-37 297,-37 297,-56"/>
<text text-anchor="middle" x="257" y="-44" font-family="Helvetica,sans-Serif" font-size="10.00">__math_oflowf</text>
</a>
</g>
</g>
<!-- Node7&#45;&gt;Node9 -->
<g id="edge8" class="edge">
<title>Node7&#45;&gt;Node9</title>
<path fill="none" stroke="#63b8ff" d="M165.02,-129.61C173.33,-114.11 191.29,-83.96 214,-65.5 215.49,-64.29 217.08,-63.13 218.72,-62.04"/>
<polygon fill="#63b8ff" stroke="#63b8ff" points="220.31,-65.16 227.27,-57.17 216.85,-59.08 220.31,-65.16"/>
</g>
<!-- Node12 -->
<g id="node12" class="node">
<title>Node12</title>
<g id="a_node12"><a xlink:href="../../d7/d88/____math__uflowf_8c.html#ace2382e9c3c29fcfe65220887b6464f7" target="_top" xlink:title=" ">
<polygon fill="white" stroke="#666666" points="297,-19 217,-19 217,0 297,0 297,-19"/>
<text text-anchor="middle" x="257" y="-7" font-family="Helvetica,sans-Serif" font-size="10.00">__math_uflowf</text>
</a>
</g>
</g>
<!-- Node7&#45;&gt;Node12 -->
<g id="edge11" class="edge">
<title>Node7&#45;&gt;Node12</title>
<path fill="none" stroke="#63b8ff" d="M162.22,-129.73C167.55,-108.4 182.96,-57.19 214,-27.5 214.62,-26.9 215.27,-26.33 215.94,-25.77"/>
<polygon fill="#63b8ff" stroke="#63b8ff" points="217.8,-28.73 224.2,-20.28 213.93,-22.89 217.8,-28.73"/>
</g>
<!-- Node13 -->
<g id="node13" class="node">
<title>Node13</title>
<g id="a_node13"><a xlink:href="../../d3/d15/powf_8c.html#a11546aff5c2ce3c7030dacad4cb53515" target="_top" xlink:title=" ">
<polygon fill="white" stroke="#666666" points="283.5,-241 230.5,-241 230.5,-222 283.5,-222 283.5,-241"/>
<text text-anchor="middle" x="257" y="-229" font-family="Helvetica,sans-Serif" font-size="10.00">checkint</text>
</a>
</g>
</g>
<!-- Node7&#45;&gt;Node13 -->
<g id="edge13" class="edge">
<title>Node7&#45;&gt;Node13</title>
<path fill="none" stroke="#63b8ff" d="M164.98,-149.44C173.23,-165.02 191.11,-195.27 214,-213.5 215.97,-215.07 218.09,-216.52 220.3,-217.87"/>
<polygon fill="#63b8ff" stroke="#63b8ff" points="218.51,-220.88 229,-222.39 221.74,-214.67 218.51,-220.88"/>
</g>
<!-- Node14 -->
<g id="node14" class="node">
<title>Node14</title>
<g id="a_node14"><a xlink:href="../../d3/d15/powf_8c.html#a1f4c863dc764c9d54cb5bca749641667" target="_top" xlink:title=" ">
<polygon fill="white" stroke="#666666" points="289.5,-204 224.5,-204 224.5,-185 289.5,-185 289.5,-204"/>
<text text-anchor="middle" x="257" y="-192" font-family="Helvetica,sans-Serif" font-size="10.00">exp2_inline</text>
</a>
</g>
</g>
<!-- Node7&#45;&gt;Node14 -->
<g id="edge14" class="edge">
<title>Node7&#45;&gt;Node14</title>
<path fill="none" stroke="#63b8ff" d="M172.85,-149.37C183.52,-157.29 199.26,-168.39 214,-176.5 216.06,-177.63 218.21,-178.75 220.4,-179.83"/>
<polygon fill="#63b8ff" stroke="#63b8ff" points="218.83,-182.96 229.37,-183.99 221.77,-176.61 218.83,-182.96"/>
</g>
<!-- Node15 -->
<g id="node15" class="node">
<title>Node15</title>
<g id="a_node15"><a xlink:href="../../d3/d15/powf_8c.html#aa9784490cce24c8a91b180da9f9d1846" target="_top" xlink:title=" ">
<polygon fill="white" stroke="#666666" points="288,-167 226,-167 226,-148 288,-148 288,-167"/>
<text text-anchor="middle" x="257" y="-155" font-family="Helvetica,sans-Serif" font-size="10.00">log2_inline</text>
</a>
</g>
</g>
<!-- Node7&#45;&gt;Node15 -->
<g id="edge17" class="edge">
<title>Node7&#45;&gt;Node15</title>
<path fill="none" stroke="#63b8ff" d="M178.06,-142.89C188.39,-144.82 201.81,-147.34 214.59,-149.74"/>
<polygon fill="#63b8ff" stroke="#63b8ff" points="213.6,-153.11 224.08,-151.51 214.89,-146.23 213.6,-153.11"/>
</g>
<!-- Node16 -->
<g id="node16" class="node">
<title>Node16</title>
<g id="a_node16"><a xlink:href="../../d3/d15/powf_8c.html#aea594ed4fe8c275497d3f772065acdf1" target="_top" xlink:title=" ">
<polygon fill="white" stroke="#666666" points="288,-130 226,-130 226,-111 288,-111 288,-130"/>
<text text-anchor="middle" x="257" y="-118" font-family="Helvetica,sans-Serif" font-size="10.00">zeroinfnan</text>
</a>
</g>
</g>
<!-- Node7&#45;&gt;Node16 -->
<g id="edge18" class="edge">
<title>Node7&#45;&gt;Node16</title>
<path fill="none" stroke="#63b8ff" d="M178.06,-135.93C188.39,-133.88 201.81,-131.23 214.59,-128.7"/>
<polygon fill="#63b8ff" stroke="#63b8ff" points="214.95,-132.19 224.08,-126.82 213.59,-125.33 214.95,-132.19"/>
</g>
<!-- Node10 -->
<g id="node10" class="node">
<title>Node10</title>
<g id="a_node10"><a xlink:href="../../d2/d9c/____math__xflowf_8c.html#acea8b151a2de43e9a884a27bf9b4c979" target="_top" xlink:title=" ">
<polygon fill="white" stroke="#666666" points="418,-56 338,-56 338,-37 418,-37 418,-56"/>
<text text-anchor="middle" x="378" y="-44" font-family="Helvetica,sans-Serif" font-size="10.00">__math_xflowf</text>
</a>
</g>
</g>
<!-- Node9&#45;&gt;Node10 -->
<g id="edge9" class="edge">
<title>Node9&#45;&gt;Node10</title>
<path fill="none" stroke="#63b8ff" d="M297.29,-46.5C306.64,-46.5 316.73,-46.5 326.5,-46.5"/>
<polygon fill="#63b8ff" stroke="#63b8ff" points="326.23,-50 336.23,-46.5 326.23,-43 326.23,-50"/>
</g>
<!-- Node11 -->
<g id="node11" class="node">
<title>Node11</title>
<g id="a_node11"><a xlink:href="../../d9/ded/libm_8h.html#aaf30a9fe37d5706bbc69a71345653a01" target="_top" xlink:title=" ">
<polygon fill="white" stroke="#666666" points="530,-111 456,-111 456,-92 530,-92 530,-111"/>
<text text-anchor="middle" x="493" y="-99" font-family="Helvetica,sans-Serif" font-size="10.00">eval_as_float</text>
</a>
</g>
</g>
<!-- Node10&#45;&gt;Node11 -->
<g id="edge10" class="edge">
<title>Node10&#45;&gt;Node11</title>
<path fill="none" stroke="#63b8ff" d="M399.46,-56.46C416.74,-64.87 441.74,-77.04 461.4,-86.61"/>
<polygon fill="#63b8ff" stroke="#63b8ff" points="459.8,-89.72 470.33,-90.95 462.87,-83.43 459.8,-89.72"/>
</g>
<!-- Node12&#45;&gt;Node10 -->
<g id="edge12" class="edge">
<title>Node12&#45;&gt;Node10</title>
<path fill="none" stroke="#63b8ff" d="M289.89,-19.42C303.5,-23.65 319.58,-28.65 334.19,-33.19"/>
<polygon fill="#63b8ff" stroke="#63b8ff" points="332.99,-36.48 343.58,-36.11 335.07,-29.8 332.99,-36.48"/>
</g>
<!-- Node14&#45;&gt;Node5 -->
<g id="edge15" class="edge">
<title>Node14&#45;&gt;Node5</title>
<path fill="none" stroke="#63b8ff" d="M289.89,-203.08C301.94,-206.32 315.93,-210.08 329.12,-213.63"/>
<polygon fill="#63b8ff" stroke="#63b8ff" points="327.93,-216.93 338.5,-216.15 329.75,-210.17 327.93,-216.93"/>
</g>
<!-- Node14&#45;&gt;Node11 -->
<g id="edge16" class="edge">
<title>Node14&#45;&gt;Node11</title>
<path fill="none" stroke="#63b8ff" d="M283.04,-184.55C324.83,-167.94 408.88,-134.54 456.67,-115.54"/>
<polygon fill="#63b8ff" stroke="#63b8ff" points="457.73,-118.89 465.73,-111.94 455.15,-112.38 457.73,-118.89"/>
</g>
</g>
</svg>
