<?xml version="1.0" encoding="UTF-8" standalone="no"?>
<!DOCTYPE svg PUBLIC "-//W3C//DTD SVG 1.1//EN"
 "http://www.w3.org/Graphics/SVG/1.1/DTD/svg11.dtd">
<!-- Generated by graphviz version 7.1.0 (20230121.1956)
 -->
<!-- Title: _read_one_message Pages: 1 -->
<!--zoomable 113 -->
<svg id="main" version="1.1" xmlns="http://www.w3.org/2000/svg" xmlns:xlink="http://www.w3.org/1999/xlink" xml:space="preserve" onload="init(evt)">
<style type="text/css"><![CDATA[
.edge:hover path { stroke: red; }
.edge:hover polygon { stroke: red; fill: red; }
]]></style>
<script type="text/javascript"><![CDATA[
var edges = document.getElementsByTagName('g');
if (edges && edges.length) {
  for (var i=0;i<edges.length;i++) {
    if (edges[i].id.substr(0,4)=='edge') {
      edges[i].setAttribute('class','edge');
    }
  }
}
]]></script>
        <defs>
                <circle id="rim" cx="0" cy="0" r="7"/>
                <circle id="rim2" cx="0" cy="0" r="3.5"/>
                <g id="zoomPlus">
                        <use xlink:href="#rim" fill="#404040">
                                <set attributeName="fill" to="#808080" begin="zoomplus.mouseover" end="zoomplus.mouseout"/>
                        </use>
                        <path d="M-4,0h8M0,-4v8" fill="none" stroke="white" stroke-width="1.5" pointer-events="none"/>
                </g>
                <g id="zoomMin">
                        <use xlink:href="#rim" fill="#404040">
                                <set attributeName="fill" to="#808080" begin="zoomminus.mouseover" end="zoomminus.mouseout"/>
                        </use>
                        <path d="M-4,0h8" fill="none" stroke="white" stroke-width="1.5" pointer-events="none"/>
                </g>
                <g id="dirArrow">
                        <path fill="none" stroke="white" stroke-width="1.5" d="M0,-3.0v7 M-2.5,-0.5L0,-3.0L2.5,-0.5"/>
                </g>
               <g id="resetDef">
                       <use xlink:href="#rim2" fill="#404040">
                               <set attributeName="fill" to="#808080" begin="reset.mouseover" end="reset.mouseout"/>
                       </use>
               </g>
        </defs>

<script type="text/javascript">
var viewWidth = 649;
var viewHeight = 113;
var sectionId = 'dynsection-35';
</script>
<script xlink:href="../../svgpan.js"/>
<svg id="graph" class="graph">
<g id="viewport">
<title>_read_one_message</title>
<!-- Node1 -->
<g id="node1" class="node">
<title>Node1</title>
<g id="a_node1"><a xlink:title=" ">
<polygon fill="#999999" stroke="#666666" points="641,-37 534,-37 534,-18 641,-18 641,-37"/>
<text text-anchor="middle" x="587.5" y="-25" font-family="Helvetica,sans-Serif" font-size="10.00">_read_one_message</text>
</a>
</g>
</g>
<!-- Node2 -->
<g id="node2" class="node">
<title>Node2</title>
<g id="a_node2"><a xlink:href="../../de/d4e/classdoris_1_1vectorized_1_1_new_json_reader.html#ac17a39eef7f09e89e94fe08b3fb4bcf8" target="_top" xlink:title=" ">
<polygon fill="white" stroke="#666666" points="491,-56 401,-56 401,-37 491,-37 491,-56"/>
<text text-anchor="middle" x="446" y="-44" font-family="Helvetica,sans-Serif" font-size="10.00">_parse_json_doc</text>
</a>
</g>
</g>
<!-- Node1&#45;&gt;Node2 -->
<g id="edge1" class="edge">
<title>Node1&#45;&gt;Node2</title>
<path fill="none" stroke="#63b8ff" d="M522.41,-36.23C511.84,-37.67 501.1,-39.13 491.17,-40.48"/>
<polygon fill="#63b8ff" stroke="#63b8ff" points="522.83,-39.7 532.26,-34.89 521.88,-32.77 522.83,-39.7"/>
</g>
<!-- Node8 -->
<g id="node8" class="node">
<title>Node8</title>
<g id="a_node8"><a xlink:href="../../de/d4e/classdoris_1_1vectorized_1_1_new_json_reader.html#a265c877933414be4f75f60d7764e21ce" target="_top" xlink:title=" ">
<polygon fill="white" stroke="#666666" points="498,-19 394,-19 394,0 498,0 498,-19"/>
<text text-anchor="middle" x="446" y="-7" font-family="Helvetica,sans-Serif" font-size="10.00">get_parsed_schema</text>
</a>
</g>
</g>
<!-- Node1&#45;&gt;Node8 -->
<g id="edge9" class="edge">
<title>Node1&#45;&gt;Node8</title>
<path fill="none" stroke="#63b8ff" d="M522.48,-19.24C514.42,-18.2 506.26,-17.15 498.43,-16.14"/>
<polygon fill="#63b8ff" stroke="#63b8ff" points="521.89,-22.69 532.26,-20.5 522.79,-15.75 521.89,-22.69"/>
</g>
<!-- Node3 -->
<g id="node3" class="node">
<title>Node3</title>
<g id="a_node3"><a xlink:href="../../de/d4e/classdoris_1_1vectorized_1_1_new_json_reader.html#a73abd021ec2f9a8d5251d001980643ab" target="_top" xlink:title=" ">
<polygon fill="white" stroke="#666666" points="358,-56 289,-56 289,-37 358,-37 358,-56"/>
<text text-anchor="middle" x="323.5" y="-44" font-family="Helvetica,sans-Serif" font-size="10.00">_parse_json</text>
</a>
</g>
</g>
<!-- Node2&#45;&gt;Node3 -->
<g id="edge2" class="edge">
<title>Node2&#45;&gt;Node3</title>
<path fill="none" stroke="#63b8ff" d="M389.48,-46.5C378.91,-46.5 368.14,-46.5 358.49,-46.5"/>
<polygon fill="#63b8ff" stroke="#63b8ff" points="389.3,-50 399.3,-46.5 389.3,-43 389.3,-50"/>
</g>
<!-- Node4 -->
<g id="node4" class="node">
<title>Node4</title>
<g id="a_node4"><a xlink:href="../../de/d4e/classdoris_1_1vectorized_1_1_new_json_reader.html#aba4fd4578471bea600eb1933327463fc" target="_top" xlink:title=" ">
<polygon fill="white" stroke="#666666" points="226,-104.5 125,-104.5 125,-74.5 226,-74.5 226,-104.5"/>
<text text-anchor="start" x="133" y="-92.5" font-family="Helvetica,sans-Serif" font-size="10.00">_vhandle_flat_array</text>
<text text-anchor="middle" x="175.5" y="-81.5" font-family="Helvetica,sans-Serif" font-size="10.00">_complex_json</text>
</a>
</g>
</g>
<!-- Node3&#45;&gt;Node4 -->
<g id="edge3" class="edge">
<title>Node3&#45;&gt;Node4</title>
<path fill="none" stroke="#63b8ff" d="M277.76,-59.68C261.46,-64.48 242.94,-69.93 226.23,-74.85"/>
<polygon fill="#63b8ff" stroke="#63b8ff" points="278.58,-63.08 287.19,-56.9 276.6,-56.37 278.58,-63.08"/>
</g>
<!-- Node6 -->
<g id="node6" class="node">
<title>Node6</title>
<g id="a_node6"><a xlink:href="../../de/d4e/classdoris_1_1vectorized_1_1_new_json_reader.html#acde0212fb3d228d7eff2163e6d32b247" target="_top" xlink:title=" ">
<polygon fill="white" stroke="#666666" points="253,-56 98,-56 98,-37 253,-37 253,-56"/>
<text text-anchor="middle" x="175.5" y="-44" font-family="Helvetica,sans-Serif" font-size="10.00">_vhandle_nested_complex_json</text>
</a>
</g>
</g>
<!-- Node3&#45;&gt;Node6 -->
<g id="edge5" class="edge">
<title>Node3&#45;&gt;Node6</title>
<path fill="none" stroke="#63b8ff" d="M277.37,-46.5C269.67,-46.5 261.47,-46.5 253.21,-46.5"/>
<polygon fill="#63b8ff" stroke="#63b8ff" points="277.12,-50 287.12,-46.5 277.12,-43 277.12,-50"/>
</g>
<!-- Node7 -->
<g id="node7" class="node">
<title>Node7</title>
<g id="a_node7"><a xlink:href="../../de/d4e/classdoris_1_1vectorized_1_1_new_json_reader.html#a7b9cf1bc72717c9585da7583f4a43c07" target="_top" xlink:title=" ">
<polygon fill="white" stroke="#666666" points="232,-19 119,-19 119,0 232,0 232,-19"/>
<text text-anchor="middle" x="175.5" y="-7" font-family="Helvetica,sans-Serif" font-size="10.00">_vhandle_simple_json</text>
</a>
</g>
</g>
<!-- Node3&#45;&gt;Node7 -->
<g id="edge7" class="edge">
<title>Node3&#45;&gt;Node7</title>
<path fill="none" stroke="#63b8ff" d="M277.65,-34.81C269.46,-32.7 260.97,-30.52 253,-28.5 241.33,-25.54 228.64,-22.37 217.01,-19.48"/>
<polygon fill="#63b8ff" stroke="#63b8ff" points="276.56,-38.15 287.12,-37.26 278.31,-31.37 276.56,-38.15"/>
</g>
<!-- Node5 -->
<g id="node5" class="node">
<title>Node5</title>
<g id="a_node5"><a xlink:href="../../de/d4e/classdoris_1_1vectorized_1_1_new_json_reader.html#ab4f42ffccc18a8c874a12a03d740c6b6" target="_top" xlink:title=" ">
<polygon fill="white" stroke="#666666" points="62,-56 0,-56 0,-37 62,-37 62,-56"/>
<text text-anchor="middle" x="31" y="-44" font-family="Helvetica,sans-Serif" font-size="10.00">init_reader</text>
</a>
</g>
</g>
<!-- Node4&#45;&gt;Node5 -->
<g id="edge4" class="edge">
<title>Node4&#45;&gt;Node5</title>
<path fill="none" stroke="#63b8ff" d="M113.79,-71.18C96.08,-65.84 77.48,-60.22 62.5,-55.7"/>
<polygon fill="#63b8ff" stroke="#63b8ff" points="112.63,-74.49 123.21,-74.02 114.65,-67.78 112.63,-74.49"/>
</g>
<!-- Node6&#45;&gt;Node5 -->
<g id="edge6" class="edge">
<title>Node6&#45;&gt;Node5</title>
<path fill="none" stroke="#63b8ff" d="M86.38,-46.5C77.78,-46.5 69.54,-46.5 62.18,-46.5"/>
<polygon fill="#63b8ff" stroke="#63b8ff" points="86.31,-50 96.31,-46.5 86.31,-43 86.31,-50"/>
</g>
<!-- Node7&#45;&gt;Node5 -->
<g id="edge8" class="edge">
<title>Node7&#45;&gt;Node5</title>
<path fill="none" stroke="#63b8ff" d="M122.53,-22.24C114.32,-24.3 105.92,-26.44 98,-28.5 86.28,-31.55 73.42,-35.03 62.19,-38.11"/>
<polygon fill="#63b8ff" stroke="#63b8ff" points="123.24,-25.67 132.1,-19.85 121.55,-18.88 123.24,-25.67"/>
</g>
</g>
</svg>
        <g id="navigator" transform="translate(0 0)" fill="#404254">
                <rect fill="#f2f5e9" fill-opacity="0.5" stroke="#606060" stroke-width=".5" x="0" y="0" width="60" height="60"/>
                <use id="zoomplus" xlink:href="#zoomPlus" x="17" y="9" onmousedown="handleZoom(evt,'in')"/>
                <use id="zoomminus" xlink:href="#zoomMin" x="42" y="9" onmousedown="handleZoom(evt,'out')"/>
                <use id="reset" xlink:href="#resetDef" x="30" y="36" onmousedown="handleReset()"/>
                <g id="arrowUp" xlink:href="#dirArrow" transform="translate(30 24)" onmousedown="handlePan(0,-1)">
                  <use xlink:href="#rim" fill="#404040">
                        <set attributeName="fill" to="#808080" begin="arrowUp.mouseover" end="arrowUp.mouseout"/>
                  </use>
                  <path fill="none" stroke="white" stroke-width="1.5" d="M0,-3.0v7 M-2.5,-0.5L0,-3.0L2.5,-0.5"/>
                </g>
                <g id="arrowRight" xlink:href="#dirArrow" transform="rotate(90) translate(36 -43)" onmousedown="handlePan(1,0)">
                  <use xlink:href="#rim" fill="#404040">
                        <set attributeName="fill" to="#808080" begin="arrowRight.mouseover" end="arrowRight.mouseout"/>
                  </use>
                  <path fill="none" stroke="white" stroke-width="1.5" d="M0,-3.0v7 M-2.5,-0.5L0,-3.0L2.5,-0.5"/>
                </g>
                <g id="arrowDown" xlink:href="#dirArrow" transform="rotate(180) translate(-30 -48)" onmousedown="handlePan(0,1)">
                  <use xlink:href="#rim" fill="#404040">
                        <set attributeName="fill" to="#808080" begin="arrowDown.mouseover" end="arrowDown.mouseout"/>
                  </use>
                  <path fill="none" stroke="white" stroke-width="1.5" d="M0,-3.0v7 M-2.5,-0.5L0,-3.0L2.5,-0.5"/>
                </g>
                <g id="arrowLeft" xlink:href="#dirArrow" transform="rotate(270) translate(-36 17)" onmousedown="handlePan(-1,0)">
                  <use xlink:href="#rim" fill="#404040">
                        <set attributeName="fill" to="#808080" begin="arrowLeft.mouseover" end="arrowLeft.mouseout"/>
                  </use>
                  <path fill="none" stroke="white" stroke-width="1.5" d="M0,-3.0v7 M-2.5,-0.5L0,-3.0L2.5,-0.5"/>
                </g>
        </g>
        <svg viewBox="0 0 15 15" width="100%" height="30px" preserveAspectRatio="xMaxYMin meet">
         <g id="arrow_out" transform="scale(0.3 0.3)">
          <a xlink:href="classdoris_1_1vectorized_1_1_new_json_reader_a398ae61a0bbebe408f7431749f2a203c_icgraph_org.svg" target="_base">
           <rect id="button" ry="5" rx="5" y="6" x="6" height="38" width="38"
                fill="#f2f5e9" fill-opacity="0.5" stroke="#606060" stroke-width="1.0"/>
           <path id="arrow"
             d="M 11.500037,31.436501 C 11.940474,20.09759 22.043105,11.32322 32.158766,21.979434 L 37.068811,17.246167 C 37.068811,17.246167 37.088388,32 37.088388,32 L 22.160133,31.978069 C 22.160133,31.978069 26.997745,27.140456 26.997745,27.140456 C 18.528582,18.264221 13.291696,25.230495 11.500037,31.436501 z"
             style="fill:#404040;"/>
          </a>
         </g>
        </svg>
</svg>
