<?xml version="1.0" encoding="UTF-8" standalone="no"?>
<!DOCTYPE svg PUBLIC "-//W3C//DTD SVG 1.1//EN"
 "http://www.w3.org/Graphics/SVG/1.1/DTD/svg11.dtd">
<!-- Generated by graphviz version 7.1.0 (20230121.1956)
 -->
<!-- Title: vector_vector Pages: 1 -->
<svg width="288pt" height="82pt"
 viewBox="0.00 0.00 288.00 82.00" xmlns="http://www.w3.org/2000/svg" xmlns:xlink="http://www.w3.org/1999/xlink">
<g id="graph0" class="graph" transform="scale(1 1) rotate(0) translate(4 78)">
<title>vector_vector</title>
<!-- Node1 -->
<g id="node1" class="node">
<title>Node1</title>
<g id="a_node1"><a xlink:title="null_map for divide and mod">
<polygon fill="#999999" stroke="#666666" points="76,-56 0,-56 0,-37 76,-37 76,-56"/>
<text text-anchor="middle" x="38" y="-44" font-family="Helvetica,sans-Serif" font-size="10.00">vector_vector</text>
</a>
</g>
</g>
<!-- Node2 -->
<g id="node2" class="node">
<title>Node2</title>
<g id="a_node2"><a xlink:href="../../d1/d7f/structdoris_1_1vectorized_1_1_decimal_binary_operation.html#ae034c697a037a2236d4b2cce185cdf8f" target="_top" xlink:title="there&#39;s implicit type conversion here">
<polygon fill="white" stroke="#666666" points="280,-56 240,-56 240,-37 280,-37 280,-56"/>
<text text-anchor="middle" x="260" y="-44" font-family="Helvetica,sans-Serif" font-size="10.00">apply</text>
</a>
</g>
</g>
<!-- Node1&#45;&gt;Node2 -->
<g id="edge1" class="edge">
<title>Node1&#45;&gt;Node2</title>
<path fill="none" stroke="#63b8ff" d="M69.92,-56.41C82.79,-60.04 97.97,-63.7 112,-65.5 152.56,-70.69 163.68,-72.27 204,-65.5 212.26,-64.11 220.94,-61.63 228.9,-58.91"/>
<polygon fill="#63b8ff" stroke="#63b8ff" points="229.96,-62.25 238.14,-55.51 227.54,-55.68 229.96,-62.25"/>
</g>
<!-- Node3 -->
<g id="node3" class="node">
<title>Node3</title>
<g id="a_node3"><a xlink:href="../../d1/d7f/structdoris_1_1vectorized_1_1_decimal_binary_operation.html#a67c9237b7770af43d1353915b9542550" target="_top" xlink:title=" ">
<polygon fill="white" stroke="#666666" points="201.5,-56 114.5,-56 114.5,-37 201.5,-37 201.5,-56"/>
<text text-anchor="middle" x="158" y="-44" font-family="Helvetica,sans-Serif" font-size="10.00">apply_op_safely</text>
</a>
</g>
</g>
<!-- Node1&#45;&gt;Node3 -->
<g id="edge3" class="edge">
<title>Node1&#45;&gt;Node3</title>
<path fill="none" stroke="#63b8ff" d="M76.34,-46.5C84.79,-46.5 93.93,-46.5 102.91,-46.5"/>
<polygon fill="#63b8ff" stroke="#63b8ff" points="102.64,-50 112.64,-46.5 102.64,-43 102.64,-50"/>
</g>
<!-- Node4 -->
<g id="node4" class="node">
<title>Node4</title>
<g id="a_node4"><a xlink:href="../../d1/d7f/structdoris_1_1vectorized_1_1_decimal_binary_operation.html#a683c0ee699089af2b7720391431764e6" target="_top" xlink:title=" ">
<polygon fill="white" stroke="#666666" points="204,-19 112,-19 112,0 204,0 204,-19"/>
<text text-anchor="middle" x="158" y="-7" font-family="Helvetica,sans-Serif" font-size="10.00">apply_scaled_div</text>
</a>
</g>
</g>
<!-- Node1&#45;&gt;Node4 -->
<g id="edge5" class="edge">
<title>Node1&#45;&gt;Node4</title>
<path fill="none" stroke="#63b8ff" d="M70.62,-36.58C84.11,-32.35 100.06,-27.35 114.55,-22.81"/>
<polygon fill="#63b8ff" stroke="#63b8ff" points="115.35,-26.23 123.85,-19.9 113.26,-19.55 115.35,-26.23"/>
</g>
<!-- Node2&#45;&gt;Node2 -->
<g id="edge2" class="edge">
<title>Node2&#45;&gt;Node2</title>
<path fill="none" stroke="#63b8ff" d="M244.03,-56.37C236.75,-64.94 242.07,-74 260,-74 269.81,-74 275.84,-71.29 278.1,-67.43"/>
<polygon fill="#63b8ff" stroke="#63b8ff" points="281.59,-67.01 276.26,-57.85 274.72,-68.34 281.59,-67.01"/>
</g>
<!-- Node3&#45;&gt;Node2 -->
<g id="edge4" class="edge">
<title>Node3&#45;&gt;Node2</title>
<path fill="none" stroke="#63b8ff" d="M201.99,-46.5C210.81,-46.5 219.93,-46.5 228.21,-46.5"/>
<polygon fill="#63b8ff" stroke="#63b8ff" points="228.12,-50 238.12,-46.5 228.12,-43 228.12,-50"/>
</g>
<!-- Node4&#45;&gt;Node2 -->
<g id="edge6" class="edge">
<title>Node4&#45;&gt;Node2</title>
<path fill="none" stroke="#63b8ff" d="M185.8,-19.42C199.22,-24.38 215.51,-30.41 229.31,-35.51"/>
<polygon fill="#63b8ff" stroke="#63b8ff" points="227.73,-38.66 238.32,-38.85 230.16,-32.1 227.73,-38.66"/>
</g>
</g>
</svg>
