<?xml version="1.0" encoding="UTF-8" standalone="no"?>
<!DOCTYPE svg PUBLIC "-//W3C//DTD SVG 1.1//EN"
 "http://www.w3.org/Graphics/SVG/1.1/DTD/svg11.dtd">
<!-- Generated by graphviz version 7.1.0 (20230121.1956)
 -->
<!-- Title: AggregateFunctionBitmapCount&lt; arg_is_nullable, ColVecType &gt; Pages: 1 -->
<!--zoomable 95 -->
<svg id="main" version="1.1" xmlns="http://www.w3.org/2000/svg" xmlns:xlink="http://www.w3.org/1999/xlink" xml:space="preserve" onload="init(evt)">
<style type="text/css"><![CDATA[
.edge:hover path { stroke: red; }
.edge:hover polygon { stroke: red; fill: red; }
]]></style>
<script type="text/javascript"><![CDATA[
var edges = document.getElementsByTagName('g');
if (edges && edges.length) {
  for (var i=0;i<edges.length;i++) {
    if (edges[i].id.substr(0,4)=='edge') {
      edges[i].setAttribute('class','edge');
    }
  }
}
]]></script>
        <defs>
                <circle id="rim" cx="0" cy="0" r="7"/>
                <circle id="rim2" cx="0" cy="0" r="3.5"/>
                <g id="zoomPlus">
                        <use xlink:href="#rim" fill="#404040">
                                <set attributeName="fill" to="#808080" begin="zoomplus.mouseover" end="zoomplus.mouseout"/>
                        </use>
                        <path d="M-4,0h8M0,-4v8" fill="none" stroke="white" stroke-width="1.5" pointer-events="none"/>
                </g>
                <g id="zoomMin">
                        <use xlink:href="#rim" fill="#404040">
                                <set attributeName="fill" to="#808080" begin="zoomminus.mouseover" end="zoomminus.mouseout"/>
                        </use>
                        <path d="M-4,0h8" fill="none" stroke="white" stroke-width="1.5" pointer-events="none"/>
                </g>
                <g id="dirArrow">
                        <path fill="none" stroke="white" stroke-width="1.5" d="M0,-3.0v7 M-2.5,-0.5L0,-3.0L2.5,-0.5"/>
                </g>
               <g id="resetDef">
                       <use xlink:href="#rim2" fill="#404040">
                               <set attributeName="fill" to="#808080" begin="reset.mouseover" end="reset.mouseout"/>
                       </use>
               </g>
        </defs>

<script type="text/javascript">
var viewWidth = 1168;
var viewHeight = 95;
var sectionId = 'dynsection-0';
</script>
<script xlink:href="../../svgpan.js"/>
<svg id="graph" class="graph">
<g id="viewport">
<title>AggregateFunctionBitmapCount&lt; arg_is_nullable, ColVecType &gt;</title>
<!-- Node1 -->
<g id="node1" class="node">
<title>Node1</title>
<g id="a_node1"><a xlink:title=" ">
<polygon fill="#999999" stroke="#666666" points="1160,-58 1002,-58 1002,-28 1160,-28 1160,-58"/>
<text text-anchor="start" x="1010" y="-46" font-family="Helvetica,sans-Serif" font-size="10.00">AggregateFunctionBitmapCount</text>
<text text-anchor="middle" x="1081" y="-35" font-family="Helvetica,sans-Serif" font-size="10.00">&lt; arg_is_nullable, ColVecType &gt;</text>
</a>
</g>
</g>
<!-- Node2 -->
<g id="node2" class="node">
<title>Node2</title>
<g id="a_node2"><a xlink:href="../../dc/d55/classdoris_1_1vectorized_1_1_i_aggregate_function_data_helper.html" target="_top" xlink:title=" ">
<polygon fill="white" stroke="#666666" points="965,-74.5 789,-74.5 789,-11.5 965,-11.5 965,-74.5"/>
<text text-anchor="start" x="797" y="-62.5" font-family="Helvetica,sans-Serif" font-size="10.00">IAggregateFunctionDataHelper</text>
<text text-anchor="start" x="797" y="-51.5" font-family="Helvetica,sans-Serif" font-size="10.00">&lt; AggregateFunctionBitmapData</text>
<text text-anchor="start" x="797" y="-40.5" font-family="Helvetica,sans-Serif" font-size="10.00">&lt; AggregateFunctionBitmapUnionOp</text>
<text text-anchor="start" x="797" y="-29.5" font-family="Helvetica,sans-Serif" font-size="10.00"> &gt;, AggregateFunctionBitmapCount</text>
<text text-anchor="middle" x="877" y="-18.5" font-family="Helvetica,sans-Serif" font-size="10.00">&lt; arg_is_nullable, ColVecType &gt; &gt;</text>
</a>
</g>
</g>
<!-- Node2&#45;&gt;Node1 -->
<g id="edge1" class="edge">
<title>Node2&#45;&gt;Node1</title>
<path fill="none" stroke="#63b8ff" d="M976.78,-43C985.13,-43 993.5,-43 1001.66,-43"/>
<polygon fill="#63b8ff" stroke="#63b8ff" points="976.94,-39.5 966.94,-43 976.94,-46.5 976.94,-39.5"/>
</g>
<!-- Node3 -->
<g id="node3" class="node">
<title>Node3</title>
<g id="a_node3"><a xlink:href="../../da/d62/classdoris_1_1vectorized_1_1_i_aggregate_function_helper.html" target="_top" xlink:title="Implement method to obtain an address of &#39;add&#39; function.">
<polygon fill="white" stroke="#666666" points="416,-87 286,-87 286,-57 416,-57 416,-87"/>
<text text-anchor="start" x="294" y="-75" font-family="Helvetica,sans-Serif" font-size="10.00">IAggregateFunctionHelper</text>
<text text-anchor="middle" x="351" y="-64" font-family="Helvetica,sans-Serif" font-size="10.00">&lt; Derived &gt;</text>
</a>
</g>
</g>
<!-- Node3&#45;&gt;Node2 -->
<g id="edge2" class="edge">
<title>Node3&#45;&gt;Node2</title>
<path fill="none" stroke="#63b8ff" d="M427.88,-72.38C511.94,-72.17 651.42,-69.93 771,-59 776.78,-58.47 782.74,-57.83 788.72,-57.11"/>
<polygon fill="#63b8ff" stroke="#63b8ff" points="427.9,-68.88 417.9,-72.4 427.91,-75.88 427.9,-68.88"/>
</g>
<!-- Node4 -->
<g id="node4" class="node">
<title>Node4</title>
<g id="a_node4"><a xlink:href="../../d1/dec/classdoris_1_1vectorized_1_1_i_aggregate_function.html" target="_top" xlink:title=" ">
<polygon fill="white" stroke="#666666" points="101,-59.5 0,-59.5 0,-40.5 101,-40.5 101,-59.5"/>
<text text-anchor="middle" x="50.5" y="-47.5" font-family="Helvetica,sans-Serif" font-size="10.00">IAggregateFunction</text>
</a>
</g>
</g>
<!-- Node4&#45;&gt;Node3 -->
<g id="edge3" class="edge">
<title>Node4&#45;&gt;Node3</title>
<path fill="none" stroke="#63b8ff" d="M112.83,-54.52C163.2,-58.23 234.32,-63.47 285.53,-67.25"/>
<polygon fill="#63b8ff" stroke="#63b8ff" points="113.2,-51.04 102.97,-53.79 112.69,-58.02 113.2,-51.04"/>
</g>
<!-- Node6 -->
<g id="node6" class="node">
<title>Node6</title>
<g id="a_node6"><a xlink:href="../../da/d62/classdoris_1_1vectorized_1_1_i_aggregate_function_helper.html" target="_top" xlink:title="Implement method to obtain an address of &#39;add&#39; function.">
<polygon fill="white" stroke="#666666" points="268,-42 138,-42 138,-12 268,-12 268,-42"/>
<text text-anchor="start" x="146" y="-30" font-family="Helvetica,sans-Serif" font-size="10.00">IAggregateFunctionHelper</text>
<text text-anchor="middle" x="203" y="-19" font-family="Helvetica,sans-Serif" font-size="10.00">&lt; Derived &gt;</text>
</a>
</g>
</g>
<!-- Node4&#45;&gt;Node6 -->
<g id="edge6" class="edge">
<title>Node4&#45;&gt;Node6</title>
<path fill="none" stroke="#63b8ff" d="M112.34,-40.7C120.66,-39.43 129.22,-38.12 137.59,-36.84"/>
<polygon fill="#63b8ff" stroke="#63b8ff" points="112.05,-37.21 102.69,-42.18 113.11,-44.13 112.05,-37.21"/>
</g>
<!-- Node5 -->
<g id="node5" class="node">
<title>Node5</title>
<g id="a_node5"><a xlink:href="../../dc/d55/classdoris_1_1vectorized_1_1_i_aggregate_function_data_helper.html" target="_top" xlink:title="Implements several methods for manipulation with data. T &#45; type of structure with data for aggregatio...">
<polygon fill="white" stroke="#666666" points="585,-30 434,-30 434,0 585,0 585,-30"/>
<text text-anchor="start" x="442" y="-18" font-family="Helvetica,sans-Serif" font-size="10.00">IAggregateFunctionDataHelper</text>
<text text-anchor="middle" x="509.5" y="-7" font-family="Helvetica,sans-Serif" font-size="10.00">&lt; T, Derived &gt;</text>
</a>
</g>
</g>
<!-- Node5&#45;&gt;Node2 -->
<g id="edge4" class="edge">
<title>Node5&#45;&gt;Node2</title>
<path fill="none" stroke="orange" stroke-dasharray="5,2" d="M596.52,-9.4C647.46,-7.48 713.16,-7.42 771,-15 776.8,-15.76 782.73,-16.75 788.68,-17.89"/>
<polygon fill="orange" stroke="orange" points="596.58,-5.9 586.74,-9.81 596.87,-12.89 596.58,-5.9"/>
<text text-anchor="start" x="603" y="-51" font-family="Helvetica,sans-Serif" font-size="10.00"> &lt; AggregateFunctionBitmap</text>
<text text-anchor="start" x="603" y="-40" font-family="Helvetica,sans-Serif" font-size="10.00">Data&lt; AggregateFunctionBitmapUnion</text>
<text text-anchor="start" x="603" y="-29" font-family="Helvetica,sans-Serif" font-size="10.00">Op &gt;, AggregateFunctionBitmapCount</text>
<text text-anchor="middle" x="687" y="-18" font-family="Helvetica,sans-Serif" font-size="10.00">&lt; arg_is_nullable, ColVecType &gt; &gt;</text>
</g>
<!-- Node6&#45;&gt;Node5 -->
<g id="edge5" class="edge">
<title>Node6&#45;&gt;Node5</title>
<path fill="none" stroke="#63b8ff" d="M279.55,-24.02C326.56,-22.17 386.77,-19.8 433.65,-17.95"/>
<polygon fill="#63b8ff" stroke="#63b8ff" points="279.57,-20.52 269.72,-24.41 279.85,-27.51 279.57,-20.52"/>
</g>
</g>
</svg>
        <g id="navigator" transform="translate(0 0)" fill="#404254">
                <rect fill="#f2f5e9" fill-opacity="0.5" stroke="#606060" stroke-width=".5" x="0" y="0" width="60" height="60"/>
                <use id="zoomplus" xlink:href="#zoomPlus" x="17" y="9" onmousedown="handleZoom(evt,'in')"/>
                <use id="zoomminus" xlink:href="#zoomMin" x="42" y="9" onmousedown="handleZoom(evt,'out')"/>
                <use id="reset" xlink:href="#resetDef" x="30" y="36" onmousedown="handleReset()"/>
                <g id="arrowUp" xlink:href="#dirArrow" transform="translate(30 24)" onmousedown="handlePan(0,-1)">
                  <use xlink:href="#rim" fill="#404040">
                        <set attributeName="fill" to="#808080" begin="arrowUp.mouseover" end="arrowUp.mouseout"/>
                  </use>
                  <path fill="none" stroke="white" stroke-width="1.5" d="M0,-3.0v7 M-2.5,-0.5L0,-3.0L2.5,-0.5"/>
                </g>
                <g id="arrowRight" xlink:href="#dirArrow" transform="rotate(90) translate(36 -43)" onmousedown="handlePan(1,0)">
                  <use xlink:href="#rim" fill="#404040">
                        <set attributeName="fill" to="#808080" begin="arrowRight.mouseover" end="arrowRight.mouseout"/>
                  </use>
                  <path fill="none" stroke="white" stroke-width="1.5" d="M0,-3.0v7 M-2.5,-0.5L0,-3.0L2.5,-0.5"/>
                </g>
                <g id="arrowDown" xlink:href="#dirArrow" transform="rotate(180) translate(-30 -48)" onmousedown="handlePan(0,1)">
                  <use xlink:href="#rim" fill="#404040">
                        <set attributeName="fill" to="#808080" begin="arrowDown.mouseover" end="arrowDown.mouseout"/>
                  </use>
                  <path fill="none" stroke="white" stroke-width="1.5" d="M0,-3.0v7 M-2.5,-0.5L0,-3.0L2.5,-0.5"/>
                </g>
                <g id="arrowLeft" xlink:href="#dirArrow" transform="rotate(270) translate(-36 17)" onmousedown="handlePan(-1,0)">
                  <use xlink:href="#rim" fill="#404040">
                        <set attributeName="fill" to="#808080" begin="arrowLeft.mouseover" end="arrowLeft.mouseout"/>
                  </use>
                  <path fill="none" stroke="white" stroke-width="1.5" d="M0,-3.0v7 M-2.5,-0.5L0,-3.0L2.5,-0.5"/>
                </g>
        </g>
        <svg viewBox="0 0 15 15" width="100%" height="30px" preserveAspectRatio="xMaxYMin meet">
         <g id="arrow_out" transform="scale(0.3 0.3)">
          <a xlink:href="classdoris_1_1vectorized_1_1_aggregate_function_bitmap_count__inherit__graph_org.svg" target="_base">
           <rect id="button" ry="5" rx="5" y="6" x="6" height="38" width="38"
                fill="#f2f5e9" fill-opacity="0.5" stroke="#606060" stroke-width="1.0"/>
           <path id="arrow"
             d="M 11.500037,31.436501 C 11.940474,20.09759 22.043105,11.32322 32.158766,21.979434 L 37.068811,17.246167 C 37.068811,17.246167 37.088388,32 37.088388,32 L 22.160133,31.978069 C 22.160133,31.978069 26.997745,27.140456 26.997745,27.140456 C 18.528582,18.264221 13.291696,25.230495 11.500037,31.436501 z"
             style="fill:#404040;"/>
          </a>
         </g>
        </svg>
</svg>
