<?xml version="1.0" encoding="UTF-8" standalone="no"?>
<!DOCTYPE svg PUBLIC "-//W3C//DTD SVG 1.1//EN"
 "http://www.w3.org/Graphics/SVG/1.1/DTD/svg11.dtd">
<!-- Generated by graphviz version 7.1.0 (20230121.1956)
 -->
<!-- Title: num_nulls Pages: 1 -->
<!--zoomable 462 -->
<svg id="main" version="1.1" xmlns="http://www.w3.org/2000/svg" xmlns:xlink="http://www.w3.org/1999/xlink" xml:space="preserve" onload="init(evt)">
<style type="text/css"><![CDATA[
.edge:hover path { stroke: red; }
.edge:hover polygon { stroke: red; fill: red; }
]]></style>
<script type="text/javascript"><![CDATA[
var edges = document.getElementsByTagName('g');
if (edges && edges.length) {
  for (var i=0;i<edges.length;i++) {
    if (edges[i].id.substr(0,4)=='edge') {
      edges[i].setAttribute('class','edge');
    }
  }
}
]]></script>
        <defs>
                <circle id="rim" cx="0" cy="0" r="7"/>
                <circle id="rim2" cx="0" cy="0" r="3.5"/>
                <g id="zoomPlus">
                        <use xlink:href="#rim" fill="#404040">
                                <set attributeName="fill" to="#808080" begin="zoomplus.mouseover" end="zoomplus.mouseout"/>
                        </use>
                        <path d="M-4,0h8M0,-4v8" fill="none" stroke="white" stroke-width="1.5" pointer-events="none"/>
                </g>
                <g id="zoomMin">
                        <use xlink:href="#rim" fill="#404040">
                                <set attributeName="fill" to="#808080" begin="zoomminus.mouseover" end="zoomminus.mouseout"/>
                        </use>
                        <path d="M-4,0h8" fill="none" stroke="white" stroke-width="1.5" pointer-events="none"/>
                </g>
                <g id="dirArrow">
                        <path fill="none" stroke="white" stroke-width="1.5" d="M0,-3.0v7 M-2.5,-0.5L0,-3.0L2.5,-0.5"/>
                </g>
               <g id="resetDef">
                       <use xlink:href="#rim2" fill="#404040">
                               <set attributeName="fill" to="#808080" begin="reset.mouseover" end="reset.mouseout"/>
                       </use>
               </g>
        </defs>

<script type="text/javascript">
var viewWidth = 254;
var viewHeight = 462;
var sectionId = 'dynsection-5';
</script>
<script xlink:href="../../svgpan.js"/>
<svg id="graph" class="graph">
<g id="viewport">
<title>num_nulls</title>
<!-- Node1 -->
<g id="node1" class="node">
<title>Node1</title>
<g id="a_node1"><a xlink:title=" ">
<polygon fill="#999999" stroke="#666666" points="246,-236 185,-236 185,-217 246,-217 246,-236"/>
<text text-anchor="middle" x="215.5" y="-224" font-family="Helvetica,sans-Serif" font-size="10.00">num_nulls</text>
</a>
</g>
</g>
<!-- Node2 -->
<g id="node2" class="node">
<title>Node2</title>
<g id="a_node2"><a xlink:href="../../da/dc1/classdoris_1_1vectorized_1_1_bool_r_l_e_decoder.html#a58057839b21efe6d7ae2d063f4bf7677" target="_top" xlink:title=" ">
<polygon fill="white" stroke="#666666" points="139.5,-454 9.5,-454 9.5,-413 139.5,-413 139.5,-454"/>
<text text-anchor="start" x="17.5" y="-442" font-family="Helvetica,sans-Serif" font-size="10.00">doris::vectorized::</text>
<text text-anchor="start" x="17.5" y="-431" font-family="Helvetica,sans-Serif" font-size="10.00">BoolRLEDecoder::decode</text>
<text text-anchor="middle" x="74.5" y="-420" font-family="Helvetica,sans-Serif" font-size="10.00">_values</text>
</a>
</g>
</g>
<!-- Node1&#45;&gt;Node2 -->
<g id="edge1" class="edge">
<title>Node1&#45;&gt;Node2</title>
<path fill="none" stroke="#63b8ff" d="M212.31,-247.7C207.43,-284.38 192.43,-360.05 149,-404.5 146.03,-407.54 142.7,-410.27 139.14,-412.72"/>
<polygon fill="#63b8ff" stroke="#63b8ff" points="215.76,-248.31 213.46,-237.96 208.81,-247.48 215.76,-248.31"/>
</g>
<!-- Node3 -->
<g id="node3" class="node">
<title>Node3</title>
<g id="a_node3"><a xlink:href="../../d0/d5a/classdoris_1_1vectorized_1_1_byte_array_dict_decoder.html#a58057839b21efe6d7ae2d063f4bf7677" target="_top" xlink:title=" ">
<polygon fill="white" stroke="#666666" points="132,-395 17,-395 17,-354 132,-354 132,-395"/>
<text text-anchor="start" x="25" y="-383" font-family="Helvetica,sans-Serif" font-size="10.00">doris::vectorized::</text>
<text text-anchor="start" x="25" y="-372" font-family="Helvetica,sans-Serif" font-size="10.00">ByteArrayDictDecoder</text>
<text text-anchor="middle" x="74.5" y="-361" font-family="Helvetica,sans-Serif" font-size="10.00">::decode_values</text>
</a>
</g>
</g>
<!-- Node1&#45;&gt;Node3 -->
<g id="edge2" class="edge">
<title>Node1&#45;&gt;Node3</title>
<path fill="none" stroke="#63b8ff" d="M208.05,-247.18C198.89,-273.41 179.72,-318.46 149,-345.5 144.06,-349.85 138.38,-353.59 132.43,-356.79"/>
<polygon fill="#63b8ff" stroke="#63b8ff" points="211.36,-248.31 211.18,-237.72 204.72,-246.11 211.36,-248.31"/>
</g>
<!-- Node4 -->
<g id="node4" class="node">
<title>Node4</title>
<g id="a_node4"><a xlink:href="../../d4/d8a/classdoris_1_1vectorized_1_1_delta_bit_pack_decoder.html#a58057839b21efe6d7ae2d063f4bf7677" target="_top" xlink:title=" ">
<polygon fill="white" stroke="#666666" points="130,-336 19,-336 19,-295 130,-295 130,-336"/>
<text text-anchor="start" x="27" y="-324" font-family="Helvetica,sans-Serif" font-size="10.00">doris::vectorized::</text>
<text text-anchor="start" x="27" y="-313" font-family="Helvetica,sans-Serif" font-size="10.00">DeltaBitPackDecoder</text>
<text text-anchor="middle" x="74.5" y="-302" font-family="Helvetica,sans-Serif" font-size="10.00">::decode_values</text>
</a>
</g>
</g>
<!-- Node1&#45;&gt;Node4 -->
<g id="edge3" class="edge">
<title>Node1&#45;&gt;Node4</title>
<path fill="none" stroke="#63b8ff" d="M198.41,-244.42C185.95,-257.46 167.7,-274.81 149,-286.5 143.18,-290.14 136.84,-293.46 130.39,-296.45"/>
<polygon fill="#63b8ff" stroke="#63b8ff" points="200.77,-247.02 205.02,-237.31 195.65,-242.25 200.77,-247.02"/>
</g>
<!-- Node5 -->
<g id="node5" class="node">
<title>Node5</title>
<g id="a_node5"><a xlink:href="../../de/d96/classdoris_1_1vectorized_1_1_delta_length_byte_array_decoder.html#a58057839b21efe6d7ae2d063f4bf7677" target="_top" xlink:title=" ">
<polygon fill="white" stroke="#666666" points="149,-277 0,-277 0,-236 149,-236 149,-277"/>
<text text-anchor="start" x="8" y="-265" font-family="Helvetica,sans-Serif" font-size="10.00">doris::vectorized::</text>
<text text-anchor="start" x="8" y="-254" font-family="Helvetica,sans-Serif" font-size="10.00">DeltaLengthByteArrayDecoder</text>
<text text-anchor="middle" x="74.5" y="-243" font-family="Helvetica,sans-Serif" font-size="10.00">::decode_values</text>
</a>
</g>
</g>
<!-- Node1&#45;&gt;Node5 -->
<g id="edge4" class="edge">
<title>Node1&#45;&gt;Node5</title>
<path fill="none" stroke="#63b8ff" d="M173.51,-235.35C165.83,-237 157.58,-238.78 149.25,-240.58"/>
<polygon fill="#63b8ff" stroke="#63b8ff" points="174.17,-238.79 183.2,-233.26 172.69,-231.94 174.17,-238.79"/>
</g>
<!-- Node6 -->
<g id="node6" class="node">
<title>Node6</title>
<g id="a_node6"><a xlink:href="../../d6/dec/classdoris_1_1vectorized_1_1_delta_byte_array_decoder.html#a58057839b21efe6d7ae2d063f4bf7677" target="_top" xlink:title=" ">
<polygon fill="white" stroke="#666666" points="134.5,-218 14.5,-218 14.5,-177 134.5,-177 134.5,-218"/>
<text text-anchor="start" x="22.5" y="-206" font-family="Helvetica,sans-Serif" font-size="10.00">doris::vectorized::</text>
<text text-anchor="start" x="22.5" y="-195" font-family="Helvetica,sans-Serif" font-size="10.00">DeltaByteArrayDecoder</text>
<text text-anchor="middle" x="74.5" y="-184" font-family="Helvetica,sans-Serif" font-size="10.00">::decode_values</text>
</a>
</g>
</g>
<!-- Node1&#45;&gt;Node6 -->
<g id="edge5" class="edge">
<title>Node1&#45;&gt;Node6</title>
<path fill="none" stroke="#63b8ff" d="M173.52,-217.95C161.36,-215.41 147.8,-212.58 134.72,-209.86"/>
<polygon fill="#63b8ff" stroke="#63b8ff" points="172.7,-221.35 183.2,-219.97 174.13,-214.5 172.7,-221.35"/>
</g>
<!-- Node7 -->
<g id="node7" class="node">
<title>Node7</title>
<g id="a_node7"><a xlink:href="../../db/de7/classdoris_1_1vectorized_1_1_fix_length_dict_decoder.html#a58057839b21efe6d7ae2d063f4bf7677" target="_top" xlink:title=" ">
<polygon fill="white" stroke="#666666" points="131.5,-159 17.5,-159 17.5,-118 131.5,-118 131.5,-159"/>
<text text-anchor="start" x="25.5" y="-147" font-family="Helvetica,sans-Serif" font-size="10.00">doris::vectorized::</text>
<text text-anchor="start" x="25.5" y="-136" font-family="Helvetica,sans-Serif" font-size="10.00">FixLengthDictDecoder</text>
<text text-anchor="middle" x="74.5" y="-125" font-family="Helvetica,sans-Serif" font-size="10.00">::decode_values</text>
</a>
</g>
</g>
<!-- Node1&#45;&gt;Node7 -->
<g id="edge6" class="edge">
<title>Node1&#45;&gt;Node7</title>
<path fill="none" stroke="#63b8ff" d="M197.83,-208.85C185.31,-196.34 167.24,-179.84 149,-168.5 143.62,-165.15 137.79,-162.04 131.86,-159.19"/>
<polygon fill="#63b8ff" stroke="#63b8ff" points="195.01,-210.96 204.5,-215.67 200.01,-206.07 195.01,-210.96"/>
</g>
<!-- Node8 -->
<g id="node8" class="node">
<title>Node8</title>
<g id="a_node8"><a xlink:href="../../d9/d02/classdoris_1_1vectorized_1_1_fix_length_dict_decoder_3_01char_01_5_01_4.html#a58057839b21efe6d7ae2d063f4bf7677" target="_top" xlink:title=" ">
<polygon fill="white" stroke="#666666" points="140,-100 9,-100 9,-59 140,-59 140,-100"/>
<text text-anchor="start" x="17" y="-88" font-family="Helvetica,sans-Serif" font-size="10.00">doris::vectorized::</text>
<text text-anchor="start" x="17" y="-77" font-family="Helvetica,sans-Serif" font-size="10.00">FixLengthDictDecoder</text>
<text text-anchor="middle" x="74.5" y="-66" font-family="Helvetica,sans-Serif" font-size="10.00">&lt; char * &gt;::decode_values</text>
</a>
</g>
</g>
<!-- Node1&#45;&gt;Node8 -->
<g id="edge7" class="edge">
<title>Node1&#45;&gt;Node8</title>
<path fill="none" stroke="#63b8ff" d="M207.77,-205.84C198.4,-180.05 179.11,-136.12 149,-109.5 145.18,-106.12 140.93,-103.09 136.45,-100.39"/>
<polygon fill="#63b8ff" stroke="#63b8ff" points="204.41,-206.84 210.98,-215.15 211.03,-204.56 204.41,-206.84"/>
</g>
<!-- Node9 -->
<g id="node9" class="node">
<title>Node9</title>
<g id="a_node9"><a xlink:href="../../d6/d40/classdoris_1_1vectorized_1_1_fix_length_plain_decoder.html#a58057839b21efe6d7ae2d063f4bf7677" target="_top" xlink:title=" ">
<polygon fill="white" stroke="#666666" points="133.5,-41 15.5,-41 15.5,0 133.5,0 133.5,-41"/>
<text text-anchor="start" x="23.5" y="-29" font-family="Helvetica,sans-Serif" font-size="10.00">doris::vectorized::</text>
<text text-anchor="start" x="23.5" y="-18" font-family="Helvetica,sans-Serif" font-size="10.00">FixLengthPlainDecoder</text>
<text text-anchor="middle" x="74.5" y="-7" font-family="Helvetica,sans-Serif" font-size="10.00">::decode_values</text>
</a>
</g>
</g>
<!-- Node1&#45;&gt;Node9 -->
<g id="edge8" class="edge">
<title>Node1&#45;&gt;Node9</title>
<path fill="none" stroke="#63b8ff" d="M212.18,-205.59C207.11,-169.39 191.83,-94.69 149,-50.5 144.59,-45.95 139.39,-42.06 133.83,-38.75"/>
<polygon fill="#63b8ff" stroke="#63b8ff" points="208.67,-205.69 213.39,-215.17 215.61,-204.82 208.67,-205.69"/>
</g>
</g>
</svg>
        <g id="navigator" transform="translate(0 0)" fill="#404254">
                <rect fill="#f2f5e9" fill-opacity="0.5" stroke="#606060" stroke-width=".5" x="0" y="0" width="60" height="60"/>
                <use id="zoomplus" xlink:href="#zoomPlus" x="17" y="9" onmousedown="handleZoom(evt,'in')"/>
                <use id="zoomminus" xlink:href="#zoomMin" x="42" y="9" onmousedown="handleZoom(evt,'out')"/>
                <use id="reset" xlink:href="#resetDef" x="30" y="36" onmousedown="handleReset()"/>
                <g id="arrowUp" xlink:href="#dirArrow" transform="translate(30 24)" onmousedown="handlePan(0,-1)">
                  <use xlink:href="#rim" fill="#404040">
                        <set attributeName="fill" to="#808080" begin="arrowUp.mouseover" end="arrowUp.mouseout"/>
                  </use>
                  <path fill="none" stroke="white" stroke-width="1.5" d="M0,-3.0v7 M-2.5,-0.5L0,-3.0L2.5,-0.5"/>
                </g>
                <g id="arrowRight" xlink:href="#dirArrow" transform="rotate(90) translate(36 -43)" onmousedown="handlePan(1,0)">
                  <use xlink:href="#rim" fill="#404040">
                        <set attributeName="fill" to="#808080" begin="arrowRight.mouseover" end="arrowRight.mouseout"/>
                  </use>
                  <path fill="none" stroke="white" stroke-width="1.5" d="M0,-3.0v7 M-2.5,-0.5L0,-3.0L2.5,-0.5"/>
                </g>
                <g id="arrowDown" xlink:href="#dirArrow" transform="rotate(180) translate(-30 -48)" onmousedown="handlePan(0,1)">
                  <use xlink:href="#rim" fill="#404040">
                        <set attributeName="fill" to="#808080" begin="arrowDown.mouseover" end="arrowDown.mouseout"/>
                  </use>
                  <path fill="none" stroke="white" stroke-width="1.5" d="M0,-3.0v7 M-2.5,-0.5L0,-3.0L2.5,-0.5"/>
                </g>
                <g id="arrowLeft" xlink:href="#dirArrow" transform="rotate(270) translate(-36 17)" onmousedown="handlePan(-1,0)">
                  <use xlink:href="#rim" fill="#404040">
                        <set attributeName="fill" to="#808080" begin="arrowLeft.mouseover" end="arrowLeft.mouseout"/>
                  </use>
                  <path fill="none" stroke="white" stroke-width="1.5" d="M0,-3.0v7 M-2.5,-0.5L0,-3.0L2.5,-0.5"/>
                </g>
        </g>
        <svg viewBox="0 0 15 15" width="100%" height="30px" preserveAspectRatio="xMaxYMin meet">
         <g id="arrow_out" transform="scale(0.3 0.3)">
          <a xlink:href="classdoris_1_1vectorized_1_1_column_select_vector_a209bf17495293dc528d6b3de45964f88_icgraph_org.svg" target="_base">
           <rect id="button" ry="5" rx="5" y="6" x="6" height="38" width="38"
                fill="#f2f5e9" fill-opacity="0.5" stroke="#606060" stroke-width="1.0"/>
           <path id="arrow"
             d="M 11.500037,31.436501 C 11.940474,20.09759 22.043105,11.32322 32.158766,21.979434 L 37.068811,17.246167 C 37.068811,17.246167 37.088388,32 37.088388,32 L 22.160133,31.978069 C 22.160133,31.978069 26.997745,27.140456 26.997745,27.140456 C 18.528582,18.264221 13.291696,25.230495 11.500037,31.436501 z"
             style="fill:#404040;"/>
          </a>
         </g>
        </svg>
</svg>
