<?xml version="1.0" encoding="UTF-8" standalone="no"?>
<!DOCTYPE svg PUBLIC "-//W3C//DTD SVG 1.1//EN"
 "http://www.w3.org/Graphics/SVG/1.1/DTD/svg11.dtd">
<!-- Generated by graphviz version 7.1.0 (20230121.1956)
 -->
<!-- Title: to_datetime_v2 Pages: 1 -->
<svg width="175pt" height="212pt"
 viewBox="0.00 0.00 175.00 212.00" xmlns="http://www.w3.org/2000/svg" xmlns:xlink="http://www.w3.org/1999/xlink">
<g id="graph0" class="graph" transform="scale(1 1) rotate(0) translate(4 208)">
<title>to_datetime_v2</title>
<!-- Node1 -->
<g id="node1" class="node">
<title>Node1</title>
<g id="a_node1"><a xlink:title=" ">
<polygon fill="#999999" stroke="#666666" points="83,-111 0,-111 0,-92 83,-92 83,-111"/>
<text text-anchor="middle" x="41.5" y="-99" font-family="Helvetica,sans-Serif" font-size="10.00">to_datetime_v2</text>
</a>
</g>
</g>
<!-- Node2 -->
<g id="node2" class="node">
<title>Node2</title>
<g id="a_node2"><a xlink:href="../../d5/d3d/classdoris_1_1vectorized_1_1_vec_date_time_value.html#a912344e9b0a67db916e2bac3c43337dc" target="_top" xlink:title=" ">
<polygon fill="white" stroke="#666666" points="159,-204 127,-204 127,-185 159,-185 159,-204"/>
<text text-anchor="middle" x="143" y="-192" font-family="Helvetica,sans-Serif" font-size="10.00">day</text>
</a>
</g>
</g>
<!-- Node1&#45;&gt;Node2 -->
<g id="edge1" class="edge">
<title>Node1&#45;&gt;Node2</title>
<path fill="none" stroke="#63b8ff" d="M51.6,-111.08C65.62,-125.69 93.55,-154.19 119,-176.5 119.5,-176.94 120.01,-177.38 120.53,-177.82"/>
<polygon fill="#63b8ff" stroke="#63b8ff" points="118.01,-180.28 127.97,-183.89 122.43,-174.86 118.01,-180.28"/>
</g>
<!-- Node3 -->
<g id="node3" class="node">
<title>Node3</title>
<g id="a_node3"><a xlink:href="../../d5/d3d/classdoris_1_1vectorized_1_1_vec_date_time_value.html#a110d566ff7f9edf7cbfe15355f8c637c" target="_top" xlink:title=" ">
<polygon fill="white" stroke="#666666" points="160.5,-167 125.5,-167 125.5,-148 160.5,-148 160.5,-167"/>
<text text-anchor="middle" x="143" y="-155" font-family="Helvetica,sans-Serif" font-size="10.00">hour</text>
</a>
</g>
</g>
<!-- Node1&#45;&gt;Node3 -->
<g id="edge2" class="edge">
<title>Node1&#45;&gt;Node3</title>
<path fill="none" stroke="#63b8ff" d="M59.83,-111.25C75.19,-119.9 97.85,-132.65 115.49,-142.58"/>
<polygon fill="#63b8ff" stroke="#63b8ff" points="113.45,-145.45 123.88,-147.3 116.88,-139.35 113.45,-145.45"/>
</g>
<!-- Node4 -->
<g id="node4" class="node">
<title>Node4</title>
<g id="a_node4"><a xlink:href="../../d5/d3d/classdoris_1_1vectorized_1_1_vec_date_time_value.html#ae91256ab81b246d3f40eddbd4c016f5f" target="_top" xlink:title=" ">
<polygon fill="white" stroke="#666666" points="166,-130 120,-130 120,-111 166,-111 166,-130"/>
<text text-anchor="middle" x="143" y="-118" font-family="Helvetica,sans-Serif" font-size="10.00">minute</text>
</a>
</g>
</g>
<!-- Node1&#45;&gt;Node4 -->
<g id="edge3" class="edge">
<title>Node1&#45;&gt;Node4</title>
<path fill="none" stroke="#63b8ff" d="M83.26,-109.28C91.62,-110.88 100.34,-112.54 108.42,-114.09"/>
<polygon fill="#63b8ff" stroke="#63b8ff" points="107.72,-117.52 118.2,-115.95 109.03,-110.64 107.72,-117.52"/>
</g>
<!-- Node5 -->
<g id="node5" class="node">
<title>Node5</title>
<g id="a_node5"><a xlink:href="../../d5/d3d/classdoris_1_1vectorized_1_1_vec_date_time_value.html#a9418bae7320038816691fbb13ce3b90a" target="_top" xlink:title=" ">
<polygon fill="white" stroke="#666666" points="165,-93 121,-93 121,-74 165,-74 165,-93"/>
<text text-anchor="middle" x="143" y="-81" font-family="Helvetica,sans-Serif" font-size="10.00">month</text>
</a>
</g>
</g>
<!-- Node1&#45;&gt;Node5 -->
<g id="edge4" class="edge">
<title>Node1&#45;&gt;Node5</title>
<path fill="none" stroke="#63b8ff" d="M83.26,-94.13C91.94,-92.56 101,-90.92 109.33,-89.41"/>
<polygon fill="#63b8ff" stroke="#63b8ff" points="109.8,-92.88 119.02,-87.66 108.56,-85.99 109.8,-92.88"/>
</g>
<!-- Node6 -->
<g id="node6" class="node">
<title>Node6</title>
<g id="a_node6"><a xlink:href="../../d5/d3d/classdoris_1_1vectorized_1_1_vec_date_time_value.html#aa0cba22e21d8081f564e6a68edab1ae0" target="_top" xlink:title=" ">
<polygon fill="white" stroke="#666666" points="167,-56 119,-56 119,-37 167,-37 167,-56"/>
<text text-anchor="middle" x="143" y="-44" font-family="Helvetica,sans-Serif" font-size="10.00">second</text>
</a>
</g>
</g>
<!-- Node1&#45;&gt;Node6 -->
<g id="edge5" class="edge">
<title>Node1&#45;&gt;Node6</title>
<path fill="none" stroke="#63b8ff" d="M60.29,-91.67C75.19,-83.43 96.74,-71.52 113.96,-62"/>
<polygon fill="#63b8ff" stroke="#63b8ff" points="115.65,-65.07 122.71,-57.17 112.26,-58.94 115.65,-65.07"/>
</g>
<!-- Node7 -->
<g id="node7" class="node">
<title>Node7</title>
<g id="a_node7"><a xlink:href="../../d5/d3d/classdoris_1_1vectorized_1_1_vec_date_time_value.html#a1b5cb174b9b809888ca1cadfb32791f4" target="_top" xlink:title=" ">
<polygon fill="white" stroke="#666666" points="160.5,-19 125.5,-19 125.5,0 160.5,0 160.5,-19"/>
<text text-anchor="middle" x="143" y="-7" font-family="Helvetica,sans-Serif" font-size="10.00">year</text>
</a>
</g>
</g>
<!-- Node1&#45;&gt;Node7 -->
<g id="edge6" class="edge">
<title>Node1&#45;&gt;Node7</title>
<path fill="none" stroke="#63b8ff" d="M52.19,-91.82C66.51,-77.62 94.29,-50.44 119,-28.5 119.64,-27.93 120.29,-27.36 120.95,-26.78"/>
<polygon fill="#63b8ff" stroke="#63b8ff" points="123.16,-29.5 128.53,-20.38 118.64,-24.16 123.16,-29.5"/>
</g>
</g>
</svg>
