<?xml version="1.0" encoding="UTF-8" standalone="no"?>
<!DOCTYPE svg PUBLIC "-//W3C//DTD SVG 1.1//EN"
 "http://www.w3.org/Graphics/SVG/1.1/DTD/svg11.dtd">
<!-- Generated by graphviz version 7.1.0 (20230121.1956)
 -->
<!-- Title: create_from_date_v2 Pages: 1 -->
<svg width="334pt" height="261pt"
 viewBox="0.00 0.00 334.00 260.50" xmlns="http://www.w3.org/2000/svg" xmlns:xlink="http://www.w3.org/1999/xlink">
<g id="graph0" class="graph" transform="scale(1 1) rotate(0) translate(4 256.5)">
<title>create_from_date_v2</title>
<!-- Node1 -->
<g id="node1" class="node">
<title>Node1</title>
<g id="a_node1"><a xlink:title=" ">
<polygon fill="#999999" stroke="#666666" points="108,-67.5 0,-67.5 0,-48.5 108,-48.5 108,-67.5"/>
<text text-anchor="middle" x="54" y="-55.5" font-family="Helvetica,sans-Serif" font-size="10.00">create_from_date_v2</text>
</a>
</g>
</g>
<!-- Node2 -->
<g id="node2" class="node">
<title>Node2</title>
<g id="a_node2"><a xlink:href="../../d5/d3d/classdoris_1_1vectorized_1_1_vec_date_time_value.html#ae376147e9dbafc22deb3a826afb77192" target="_top" xlink:title=" ">
<polygon fill="white" stroke="#666666" points="220,-141.5 166,-141.5 166,-122.5 220,-122.5 220,-141.5"/>
<text text-anchor="middle" x="193" y="-129.5" font-family="Helvetica,sans-Serif" font-size="10.00">set_time</text>
</a>
</g>
</g>
<!-- Node1&#45;&gt;Node2 -->
<g id="edge1" class="edge">
<title>Node1&#45;&gt;Node2</title>
<path fill="none" stroke="#63b8ff" d="M73.48,-67.98C96.69,-80.52 136.75,-102.16 163.8,-116.77"/>
<polygon fill="#63b8ff" stroke="#63b8ff" points="162.02,-119.79 172.48,-121.46 165.35,-113.63 162.02,-119.79"/>
</g>
<!-- Node9 -->
<g id="node9" class="node">
<title>Node9</title>
<g id="a_node9"><a xlink:href="../../d5/d3d/classdoris_1_1vectorized_1_1_vec_date_time_value.html#a6c2997a9067e0bae7c072ee52160dddb" target="_top" xlink:title=" ">
<polygon fill="white" stroke="#666666" points="220,-67.5 166,-67.5 166,-48.5 220,-48.5 220,-67.5"/>
<text text-anchor="middle" x="193" y="-55.5" font-family="Helvetica,sans-Serif" font-size="10.00">set_type</text>
</a>
</g>
</g>
<!-- Node1&#45;&gt;Node9 -->
<g id="edge8" class="edge">
<title>Node1&#45;&gt;Node9</title>
<path fill="none" stroke="#63b8ff" d="M108.36,-58C123.74,-58 140.19,-58 154.4,-58"/>
<polygon fill="#63b8ff" stroke="#63b8ff" points="154.22,-61.5 164.22,-58 154.22,-54.5 154.22,-61.5"/>
</g>
<!-- Node11 -->
<g id="node11" class="node">
<title>Node11</title>
<g id="a_node11"><a xlink:href="../../d8/d34/classdoris_1_1vectorized_1_1_date_v2_value.html#ab8480b60562032559f43b1dd117888d0" target="_top" xlink:title=" ">
<polygon fill="white" stroke="#666666" points="242,-30 144,-30 144,0 242,0 242,-30"/>
<text text-anchor="start" x="152" y="-18" font-family="Helvetica,sans-Serif" font-size="10.00">doris::vectorized::</text>
<text text-anchor="middle" x="193" y="-7" font-family="Helvetica,sans-Serif" font-size="10.00">DateV2Value::year</text>
</a>
</g>
</g>
<!-- Node1&#45;&gt;Node11 -->
<g id="edge10" class="edge">
<title>Node1&#45;&gt;Node11</title>
<path fill="none" stroke="#63b8ff" d="M86.77,-48.03C100.52,-43.71 117.06,-38.52 132.92,-33.54"/>
<polygon fill="#63b8ff" stroke="#63b8ff" points="133.81,-36.93 142.3,-30.6 131.71,-30.25 133.81,-36.93"/>
</g>
<!-- Node3 -->
<g id="node3" class="node">
<title>Node3</title>
<g id="a_node3"><a xlink:href="../../d5/d3d/classdoris_1_1vectorized_1_1_vec_date_time_value.html#a912344e9b0a67db916e2bac3c43337dc" target="_top" xlink:title=" ">
<polygon fill="white" stroke="#666666" points="318,-252.5 286,-252.5 286,-233.5 318,-233.5 318,-252.5"/>
<text text-anchor="middle" x="302" y="-240.5" font-family="Helvetica,sans-Serif" font-size="10.00">day</text>
</a>
</g>
</g>
<!-- Node2&#45;&gt;Node3 -->
<g id="edge2" class="edge">
<title>Node2&#45;&gt;Node3</title>
<path fill="none" stroke="#63b8ff" d="M201.84,-141.74C216.14,-159.24 247.76,-196.82 278,-225 278.28,-225.26 278.56,-225.52 278.84,-225.78"/>
<polygon fill="#63b8ff" stroke="#63b8ff" points="276.48,-228.36 286.38,-232.12 280.99,-223.01 276.48,-228.36"/>
</g>
<!-- Node4 -->
<g id="node4" class="node">
<title>Node4</title>
<g id="a_node4"><a xlink:href="../../d5/d3d/classdoris_1_1vectorized_1_1_vec_date_time_value.html#a110d566ff7f9edf7cbfe15355f8c637c" target="_top" xlink:title=" ">
<polygon fill="white" stroke="#666666" points="319.5,-215.5 284.5,-215.5 284.5,-196.5 319.5,-196.5 319.5,-215.5"/>
<text text-anchor="middle" x="302" y="-203.5" font-family="Helvetica,sans-Serif" font-size="10.00">hour</text>
</a>
</g>
</g>
<!-- Node2&#45;&gt;Node4 -->
<g id="edge3" class="edge">
<title>Node2&#45;&gt;Node4</title>
<path fill="none" stroke="#63b8ff" d="M208.43,-141.98C226.16,-154.24 256.47,-175.2 277.56,-189.79"/>
<polygon fill="#63b8ff" stroke="#63b8ff" points="275.34,-192.51 285.55,-195.32 279.32,-186.75 275.34,-192.51"/>
</g>
<!-- Node5 -->
<g id="node5" class="node">
<title>Node5</title>
<g id="a_node5"><a xlink:href="../../d5/d3d/classdoris_1_1vectorized_1_1_vec_date_time_value.html#ae91256ab81b246d3f40eddbd4c016f5f" target="_top" xlink:title=" ">
<polygon fill="white" stroke="#666666" points="325,-178.5 279,-178.5 279,-159.5 325,-159.5 325,-178.5"/>
<text text-anchor="middle" x="302" y="-166.5" font-family="Helvetica,sans-Serif" font-size="10.00">minute</text>
</a>
</g>
</g>
<!-- Node2&#45;&gt;Node5 -->
<g id="edge4" class="edge">
<title>Node2&#45;&gt;Node5</title>
<path fill="none" stroke="#63b8ff" d="M220.45,-141.15C234.89,-146.14 252.9,-152.37 268.23,-157.67"/>
<polygon fill="#63b8ff" stroke="#63b8ff" points="266.8,-160.88 277.39,-160.84 269.09,-154.26 266.8,-160.88"/>
</g>
<!-- Node6 -->
<g id="node6" class="node">
<title>Node6</title>
<g id="a_node6"><a xlink:href="../../d5/d3d/classdoris_1_1vectorized_1_1_vec_date_time_value.html#a9418bae7320038816691fbb13ce3b90a" target="_top" xlink:title=" ">
<polygon fill="white" stroke="#666666" points="324,-141.5 280,-141.5 280,-122.5 324,-122.5 324,-141.5"/>
<text text-anchor="middle" x="302" y="-129.5" font-family="Helvetica,sans-Serif" font-size="10.00">month</text>
</a>
</g>
</g>
<!-- Node2&#45;&gt;Node6 -->
<g id="edge5" class="edge">
<title>Node2&#45;&gt;Node6</title>
<path fill="none" stroke="#63b8ff" d="M220.45,-132C234.95,-132 253.04,-132 268.41,-132"/>
<polygon fill="#63b8ff" stroke="#63b8ff" points="268.01,-135.5 278.01,-132 268.01,-128.5 268.01,-135.5"/>
</g>
<!-- Node7 -->
<g id="node7" class="node">
<title>Node7</title>
<g id="a_node7"><a xlink:href="../../d5/d3d/classdoris_1_1vectorized_1_1_vec_date_time_value.html#aa0cba22e21d8081f564e6a68edab1ae0" target="_top" xlink:title=" ">
<polygon fill="white" stroke="#666666" points="326,-104.5 278,-104.5 278,-85.5 326,-85.5 326,-104.5"/>
<text text-anchor="middle" x="302" y="-92.5" font-family="Helvetica,sans-Serif" font-size="10.00">second</text>
</a>
</g>
</g>
<!-- Node2&#45;&gt;Node7 -->
<g id="edge6" class="edge">
<title>Node2&#45;&gt;Node7</title>
<path fill="none" stroke="#63b8ff" d="M220.45,-122.85C234.59,-117.96 252.16,-111.89 267.27,-106.66"/>
<polygon fill="#63b8ff" stroke="#63b8ff" points="268.02,-110.11 276.33,-103.53 265.74,-103.49 268.02,-110.11"/>
</g>
<!-- Node8 -->
<g id="node8" class="node">
<title>Node8</title>
<g id="a_node8"><a xlink:href="../../d5/d3d/classdoris_1_1vectorized_1_1_vec_date_time_value.html#a1b5cb174b9b809888ca1cadfb32791f4" target="_top" xlink:title=" ">
<polygon fill="white" stroke="#666666" points="319.5,-67.5 284.5,-67.5 284.5,-48.5 319.5,-48.5 319.5,-67.5"/>
<text text-anchor="middle" x="302" y="-55.5" font-family="Helvetica,sans-Serif" font-size="10.00">year</text>
</a>
</g>
</g>
<!-- Node2&#45;&gt;Node8 -->
<g id="edge7" class="edge">
<title>Node2&#45;&gt;Node8</title>
<path fill="none" stroke="#63b8ff" d="M208.43,-122.02C226.16,-109.76 256.47,-88.8 277.56,-74.21"/>
<polygon fill="#63b8ff" stroke="#63b8ff" points="279.32,-77.25 285.55,-68.68 275.34,-71.49 279.32,-77.25"/>
</g>
<!-- Node10 -->
<g id="node10" class="node">
<title>Node10</title>
<g id="a_node10"><a xlink:href="../../d5/d3d/classdoris_1_1vectorized_1_1_vec_date_time_value.html#ac7669d23a52243a270e53e53051bcd86" target="_top" xlink:title=" ">
<polygon fill="white" stroke="#666666" points="319.5,-30.5 284.5,-30.5 284.5,-11.5 319.5,-11.5 319.5,-30.5"/>
<text text-anchor="middle" x="302" y="-18.5" font-family="Helvetica,sans-Serif" font-size="10.00">type</text>
</a>
</g>
</g>
<!-- Node9&#45;&gt;Node10 -->
<g id="edge9" class="edge">
<title>Node9&#45;&gt;Node10</title>
<path fill="none" stroke="#63b8ff" d="M220.45,-48.85C236.64,-43.26 257.32,-36.11 273.67,-30.45"/>
<polygon fill="#63b8ff" stroke="#63b8ff" points="274.45,-33.88 282.76,-27.31 272.16,-27.27 274.45,-33.88"/>
</g>
</g>
</svg>
