<?xml version="1.0" encoding="UTF-8" standalone="no"?>
<!DOCTYPE svg PUBLIC "-//W3C//DTD SVG 1.1//EN"
 "http://www.w3.org/Graphics/SVG/1.1/DTD/svg11.dtd">
<!-- Generated by graphviz version 7.1.0 (20230121.1956)
 -->
<!-- Title: check_range_and_set_time Pages: 1 -->
<!--zoomable 504 -->
<svg id="main" version="1.1" xmlns="http://www.w3.org/2000/svg" xmlns:xlink="http://www.w3.org/1999/xlink" xml:space="preserve" onload="init(evt)">
<style type="text/css"><![CDATA[
.edge:hover path { stroke: red; }
.edge:hover polygon { stroke: red; fill: red; }
]]></style>
<script type="text/javascript"><![CDATA[
var edges = document.getElementsByTagName('g');
if (edges && edges.length) {
  for (var i=0;i<edges.length;i++) {
    if (edges[i].id.substr(0,4)=='edge') {
      edges[i].setAttribute('class','edge');
    }
  }
}
]]></script>
        <defs>
                <circle id="rim" cx="0" cy="0" r="7"/>
                <circle id="rim2" cx="0" cy="0" r="3.5"/>
                <g id="zoomPlus">
                        <use xlink:href="#rim" fill="#404040">
                                <set attributeName="fill" to="#808080" begin="zoomplus.mouseover" end="zoomplus.mouseout"/>
                        </use>
                        <path d="M-4,0h8M0,-4v8" fill="none" stroke="white" stroke-width="1.5" pointer-events="none"/>
                </g>
                <g id="zoomMin">
                        <use xlink:href="#rim" fill="#404040">
                                <set attributeName="fill" to="#808080" begin="zoomminus.mouseover" end="zoomminus.mouseout"/>
                        </use>
                        <path d="M-4,0h8" fill="none" stroke="white" stroke-width="1.5" pointer-events="none"/>
                </g>
                <g id="dirArrow">
                        <path fill="none" stroke="white" stroke-width="1.5" d="M0,-3.0v7 M-2.5,-0.5L0,-3.0L2.5,-0.5"/>
                </g>
               <g id="resetDef">
                       <use xlink:href="#rim2" fill="#404040">
                               <set attributeName="fill" to="#808080" begin="reset.mouseover" end="reset.mouseout"/>
                       </use>
               </g>
        </defs>

<script type="text/javascript">
var viewWidth = 974;
var viewHeight = 504;
var sectionId = 'dynsection-36';
</script>
<script xlink:href="../../svgpan.js"/>
<svg id="graph" class="graph">
<g id="viewport">
<title>check_range_and_set_time</title>
<!-- Node1 -->
<g id="node1" class="node">
<title>Node1</title>
<g id="a_node1"><a xlink:title=" ">
<polygon fill="#999999" stroke="#666666" points="966,-226 830,-226 830,-207 966,-207 966,-226"/>
<text text-anchor="middle" x="898" y="-214" font-family="Helvetica,sans-Serif" font-size="10.00">check_range_and_set_time</text>
</a>
</g>
</g>
<!-- Node2 -->
<g id="node2" class="node">
<title>Node2</title>
<g id="a_node2"><a xlink:href="../../d5/d3d/classdoris_1_1vectorized_1_1_vec_date_time_value.html#a7a0fa294ad561a11e746805bc672df5b" target="_top" xlink:title=" ">
<polygon fill="white" stroke="#666666" points="786,-459 700,-459 700,-440 786,-440 786,-459"/>
<text text-anchor="middle" x="743" y="-447" font-family="Helvetica,sans-Serif" font-size="10.00">from_date_int64</text>
</a>
</g>
</g>
<!-- Node1&#45;&gt;Node2 -->
<g id="edge1" class="edge">
<title>Node1&#45;&gt;Node2</title>
<path fill="none" stroke="#63b8ff" d="M884.45,-235.62C853.35,-282.98 773.59,-404.44 750.41,-439.74"/>
<polygon fill="#63b8ff" stroke="#63b8ff" points="887.23,-237.76 889.79,-227.48 881.38,-233.92 887.23,-237.76"/>
</g>
<!-- Node5 -->
<g id="node5" class="node">
<title>Node5</title>
<g id="a_node5"><a xlink:href="../../d5/d3d/classdoris_1_1vectorized_1_1_vec_date_time_value.html#a56b5d31cb0b23eb0fa2b94d90db2ad1d" target="_top" xlink:title=" ">
<polygon fill="white" stroke="#666666" points="781.5,-296 704.5,-296 704.5,-277 781.5,-277 781.5,-296"/>
<text text-anchor="middle" x="743" y="-284" font-family="Helvetica,sans-Serif" font-size="10.00">from_date_str</text>
</a>
</g>
</g>
<!-- Node1&#45;&gt;Node5 -->
<g id="edge4" class="edge">
<title>Node1&#45;&gt;Node5</title>
<path fill="none" stroke="#63b8ff" d="M865.09,-231.1C835.21,-244.77 791.41,-264.81 765.49,-276.67"/>
<polygon fill="#63b8ff" stroke="#63b8ff" points="866.39,-234.35 874.03,-227.01 863.48,-227.99 866.39,-234.35"/>
</g>
<!-- Node15 -->
<g id="node15" class="node">
<title>Node15</title>
<g id="a_node15"><a xlink:href="../../d5/d3d/classdoris_1_1vectorized_1_1_vec_date_time_value.html#aef8b88a959e1bb4dca478132a4d96a36" target="_top" xlink:title=" ">
<polygon fill="white" stroke="#666666" points="784.5,-181 701.5,-181 701.5,-162 784.5,-162 784.5,-181"/>
<text text-anchor="middle" x="743" y="-169" font-family="Helvetica,sans-Serif" font-size="10.00">from_olap_date</text>
</a>
</g>
</g>
<!-- Node1&#45;&gt;Node15 -->
<g id="edge14" class="edge">
<title>Node1&#45;&gt;Node15</title>
<path fill="none" stroke="#63b8ff" d="M852.18,-203.32C828.43,-196.33 799.73,-187.89 777.86,-181.46"/>
<polygon fill="#63b8ff" stroke="#63b8ff" points="851.01,-206.62 861.59,-206.09 852.99,-199.91 851.01,-206.62"/>
</g>
<!-- Node21 -->
<g id="node21" class="node">
<title>Node21</title>
<g id="a_node21"><a xlink:href="../../d5/d3d/classdoris_1_1vectorized_1_1_vec_date_time_value.html#ac4d303ac8fb3a6c4cd799e5fe2a75059" target="_top" xlink:title=" ">
<polygon fill="white" stroke="#666666" points="794,-120 692,-120 692,-101 794,-101 794,-120"/>
<text text-anchor="middle" x="743" y="-108" font-family="Helvetica,sans-Serif" font-size="10.00">from_olap_datetime</text>
</a>
</g>
</g>
<!-- Node1&#45;&gt;Node21 -->
<g id="edge20" class="edge">
<title>Node1&#45;&gt;Node21</title>
<path fill="none" stroke="#63b8ff" d="M873.45,-200.18C841.2,-177.84 784.3,-138.42 758.02,-120.22"/>
<polygon fill="#63b8ff" stroke="#63b8ff" points="871.15,-202.85 881.36,-205.67 875.14,-197.09 871.15,-202.85"/>
</g>
<!-- Node3 -->
<g id="node3" class="node">
<title>Node3</title>
<g id="a_node3"><a xlink:href="../../d5/d3d/classdoris_1_1vectorized_1_1_vec_date_time_value.html#a205bb17d8d4f51293d0100845aa20409" target="_top" xlink:title=" ">
<polygon fill="white" stroke="#666666" points="607,-496 547,-496 547,-477 607,-477 607,-496"/>
<text text-anchor="middle" x="577" y="-484" font-family="Helvetica,sans-Serif" font-size="10.00">from_date</text>
</a>
</g>
</g>
<!-- Node2&#45;&gt;Node3 -->
<g id="edge2" class="edge">
<title>Node2&#45;&gt;Node3</title>
<path fill="none" stroke="#63b8ff" d="M688.54,-461.56C661.59,-467.64 629.93,-474.78 607.42,-479.86"/>
<polygon fill="#63b8ff" stroke="#63b8ff" points="689.3,-464.98 698.29,-459.36 687.76,-458.15 689.3,-464.98"/>
</g>
<!-- Node4 -->
<g id="node4" class="node">
<title>Node4</title>
<g id="a_node4"><a xlink:href="../../d5/d3d/classdoris_1_1vectorized_1_1_vec_date_time_value.html#a76cdb42f842dc2e7afb7b3babe631b7c" target="_top" xlink:title=" ">
<polygon fill="white" stroke="#666666" points="620,-459 534,-459 534,-440 620,-440 620,-459"/>
<text text-anchor="middle" x="577" y="-447" font-family="Helvetica,sans-Serif" font-size="10.00">from_time_int64</text>
</a>
</g>
</g>
<!-- Node2&#45;&gt;Node4 -->
<g id="edge3" class="edge">
<title>Node2&#45;&gt;Node4</title>
<path fill="none" stroke="#63b8ff" d="M688.54,-449.5C666.43,-449.5 641.17,-449.5 620.38,-449.5"/>
<polygon fill="#63b8ff" stroke="#63b8ff" points="688.25,-453 698.25,-449.5 688.25,-446 688.25,-453"/>
</g>
<!-- Node6 -->
<g id="node6" class="node">
<title>Node6</title>
<g id="a_node6"><a xlink:href="../../db/d9a/classdoris_1_1_v_olap_table_partition_param.html#ae5b7e01f7fb94a97904d3553faa0a4ef" target="_top" xlink:title=" ">
<polygon fill="white" stroke="#666666" points="649,-421.5 505,-421.5 505,-391.5 649,-391.5 649,-421.5"/>
<text text-anchor="start" x="513" y="-409.5" font-family="Helvetica,sans-Serif" font-size="10.00">doris::VOlapTablePartition</text>
<text text-anchor="middle" x="577" y="-398.5" font-family="Helvetica,sans-Serif" font-size="10.00">Param::_create_partition_key</text>
</a>
</g>
</g>
<!-- Node5&#45;&gt;Node6 -->
<g id="edge5" class="edge">
<title>Node5&#45;&gt;Node6</title>
<path fill="none" stroke="#63b8ff" d="M729.61,-305.71C714.67,-327.4 687.58,-362.28 656,-382.5 650.87,-385.78 645.26,-388.64 639.48,-391.13"/>
<polygon fill="#63b8ff" stroke="#63b8ff" points="732.45,-307.76 735.1,-297.51 726.63,-303.87 732.45,-307.76"/>
</g>
<!-- Node10 -->
<g id="node10" class="node">
<title>Node10</title>
<g id="a_node10"><a xlink:href="../../d6/dc8/classdoris_1_1_runtime_predicate_wrapper.html#a8b9487bd366d30f5fb79388f4efdf070" target="_top" xlink:title=" ">
<polygon fill="white" stroke="#666666" points="656,-373.5 498,-373.5 498,-343.5 656,-343.5 656,-373.5"/>
<text text-anchor="start" x="506" y="-361.5" font-family="Helvetica,sans-Serif" font-size="10.00">doris::RuntimePredicateWrapper</text>
<text text-anchor="middle" x="577" y="-350.5" font-family="Helvetica,sans-Serif" font-size="10.00">::assign</text>
</a>
</g>
</g>
<!-- Node5&#45;&gt;Node10 -->
<g id="edge9" class="edge">
<title>Node5&#45;&gt;Node10</title>
<path fill="none" stroke="#63b8ff" d="M717.05,-302.27C700.26,-312.42 677.35,-325.38 656,-334.5 648.83,-337.56 641.15,-340.42 633.49,-343.01"/>
<polygon fill="#63b8ff" stroke="#63b8ff" points="718.68,-305.38 725.36,-297.17 715.01,-299.42 718.68,-305.38"/>
</g>
<!-- Node11 -->
<g id="node11" class="node">
<title>Node11</title>
<g id="a_node11"><a xlink:href="../../d7/dc1/classdoris_1_1_runtime_state.html#a494be8ca0090fd61541cf6011ce6ea75" target="_top" xlink:title=" ">
<polygon fill="white" stroke="#666666" points="629,-325.5 525,-325.5 525,-295.5 629,-295.5 629,-325.5"/>
<text text-anchor="start" x="533" y="-313.5" font-family="Helvetica,sans-Serif" font-size="10.00">doris::RuntimeState</text>
<text text-anchor="middle" x="577" y="-302.5" font-family="Helvetica,sans-Serif" font-size="10.00">::init</text>
</a>
</g>
</g>
<!-- Node5&#45;&gt;Node11 -->
<g id="edge10" class="edge">
<title>Node5&#45;&gt;Node11</title>
<path fill="none" stroke="#63b8ff" d="M693.26,-293.63C673.15,-296.58 649.82,-299.99 629.43,-302.97"/>
<polygon fill="#63b8ff" stroke="#63b8ff" points="693.49,-297.14 702.88,-292.23 692.48,-290.21 693.49,-297.14"/>
</g>
<!-- Node13 -->
<g id="node13" class="node">
<title>Node13</title>
<g id="a_node13"><a xlink:href="../../d7/dc1/classdoris_1_1_runtime_state.html#ab654c515568bb8ab5900df35889052d3" target="_top" xlink:title=" ">
<polygon fill="white" stroke="#666666" points="629,-277.5 525,-277.5 525,-247.5 629,-247.5 629,-277.5"/>
<text text-anchor="start" x="533" y="-265.5" font-family="Helvetica,sans-Serif" font-size="10.00">doris::RuntimeState</text>
<text text-anchor="middle" x="577" y="-254.5" font-family="Helvetica,sans-Serif" font-size="10.00">::RuntimeState</text>
</a>
</g>
</g>
<!-- Node5&#45;&gt;Node13 -->
<g id="edge12" class="edge">
<title>Node5&#45;&gt;Node13</title>
<path fill="none" stroke="#63b8ff" d="M693.26,-279.37C673.15,-276.42 649.82,-273.01 629.43,-270.03"/>
<polygon fill="#63b8ff" stroke="#63b8ff" points="692.48,-282.79 702.88,-280.77 693.49,-275.86 692.48,-282.79"/>
</g>
<!-- Node14 -->
<g id="node14" class="node">
<title>Node14</title>
<g id="a_node14"><a xlink:href="../../d7/dfa/classdoris_1_1_text_converter.html#aeb63498228b02f3372e0a337f8a8c574" target="_top" xlink:title="Write consecutive rows of the same data.">
<polygon fill="white" stroke="#666666" points="629.5,-229.5 524.5,-229.5 524.5,-199.5 629.5,-199.5 629.5,-229.5"/>
<text text-anchor="start" x="532.5" y="-217.5" font-family="Helvetica,sans-Serif" font-size="10.00">doris::TextConverter</text>
<text text-anchor="middle" x="577" y="-206.5" font-family="Helvetica,sans-Serif" font-size="10.00">::write_vec_column</text>
</a>
</g>
</g>
<!-- Node5&#45;&gt;Node14 -->
<g id="edge13" class="edge">
<title>Node5&#45;&gt;Node14</title>
<path fill="none" stroke="#63b8ff" d="M717.05,-270.73C700.26,-260.58 677.35,-247.62 656,-238.5 647.66,-234.94 638.62,-231.66 629.74,-228.74"/>
<polygon fill="#63b8ff" stroke="#63b8ff" points="715.01,-273.58 725.36,-275.83 718.68,-267.62 715.01,-273.58"/>
</g>
<!-- Node7 -->
<g id="node7" class="node">
<title>Node7</title>
<g id="a_node7"><a xlink:href="../../db/d9a/classdoris_1_1_v_olap_table_partition_param.html#a9aaba55a94ab7467ffb807bf4d04cfbc" target="_top" xlink:title=" ">
<polygon fill="white" stroke="#666666" points="462,-421.5 313,-421.5 313,-391.5 462,-391.5 462,-421.5"/>
<text text-anchor="start" x="321" y="-409.5" font-family="Helvetica,sans-Serif" font-size="10.00">doris::VOlapTablePartition</text>
<text text-anchor="middle" x="387.5" y="-398.5" font-family="Helvetica,sans-Serif" font-size="10.00">Param::_create_partition_keys</text>
</a>
</g>
</g>
<!-- Node6&#45;&gt;Node7 -->
<g id="edge6" class="edge">
<title>Node6&#45;&gt;Node7</title>
<path fill="none" stroke="#63b8ff" d="M493.08,-406.5C482.8,-406.5 472.34,-406.5 462.21,-406.5"/>
<polygon fill="#63b8ff" stroke="#63b8ff" points="493.07,-410 503.07,-406.5 493.07,-403 493.07,-410"/>
</g>
<!-- Node8 -->
<g id="node8" class="node">
<title>Node8</title>
<g id="a_node8"><a xlink:href="../../db/d9a/classdoris_1_1_v_olap_table_partition_param.html#a223508714f7b7c2a338265d09a23a25f" target="_top" xlink:title=" ">
<polygon fill="white" stroke="#666666" points="277,-421.5 147,-421.5 147,-391.5 277,-391.5 277,-421.5"/>
<text text-anchor="start" x="155" y="-409.5" font-family="Helvetica,sans-Serif" font-size="10.00">doris::VOlapTablePartition</text>
<text text-anchor="middle" x="212" y="-398.5" font-family="Helvetica,sans-Serif" font-size="10.00">Param::init</text>
</a>
</g>
</g>
<!-- Node7&#45;&gt;Node8 -->
<g id="edge7" class="edge">
<title>Node7&#45;&gt;Node8</title>
<path fill="none" stroke="#63b8ff" d="M301.34,-406.5C293.3,-406.5 285.24,-406.5 277.44,-406.5"/>
<polygon fill="#63b8ff" stroke="#63b8ff" points="301.16,-410 311.16,-406.5 301.16,-403 301.16,-410"/>
</g>
<!-- Node9 -->
<g id="node9" class="node">
<title>Node9</title>
<g id="a_node9"><a xlink:href="../../d2/d6d/classdoris_1_1stream__load_1_1_v_olap_table_sink.html#a51c6b01980e9b13663050ab946ac739b" target="_top" xlink:title=" ">
<polygon fill="white" stroke="#666666" points="111,-421.5 0,-421.5 0,-391.5 111,-391.5 111,-421.5"/>
<text text-anchor="start" x="8" y="-409.5" font-family="Helvetica,sans-Serif" font-size="10.00">doris::stream_load</text>
<text text-anchor="middle" x="55.5" y="-398.5" font-family="Helvetica,sans-Serif" font-size="10.00">::VOlapTableSink::init</text>
</a>
</g>
</g>
<!-- Node8&#45;&gt;Node9 -->
<g id="edge8" class="edge">
<title>Node8&#45;&gt;Node9</title>
<path fill="none" stroke="#63b8ff" d="M135.42,-406.5C127.31,-406.5 119.18,-406.5 111.39,-406.5"/>
<polygon fill="#63b8ff" stroke="#63b8ff" points="135.31,-410 145.31,-406.5 135.31,-403 135.31,-410"/>
</g>
<!-- Node12 -->
<g id="node12" class="node">
<title>Node12</title>
<g id="a_node12"><a xlink:href="../../d7/dc1/classdoris_1_1_runtime_state.html#a6ea9fcf726da02d11649ac0adec9f17b" target="_top" xlink:title=" ">
<polygon fill="white" stroke="#666666" points="439.5,-325.5 335.5,-325.5 335.5,-295.5 439.5,-295.5 439.5,-325.5"/>
<text text-anchor="start" x="343.5" y="-313.5" font-family="Helvetica,sans-Serif" font-size="10.00">doris::RuntimeState</text>
<text text-anchor="middle" x="387.5" y="-302.5" font-family="Helvetica,sans-Serif" font-size="10.00">::RuntimeState</text>
</a>
</g>
</g>
<!-- Node11&#45;&gt;Node12 -->
<g id="edge11" class="edge">
<title>Node11&#45;&gt;Node12</title>
<path fill="none" stroke="#63b8ff" d="M513.34,-310.5C489.52,-310.5 462.67,-310.5 440,-310.5"/>
<polygon fill="#63b8ff" stroke="#63b8ff" points="513.25,-314 523.25,-310.5 513.25,-307 513.25,-314"/>
</g>
<!-- Node16 -->
<g id="node16" class="node">
<title>Node16</title>
<g id="a_node16"><a xlink:href="../../d5/d3d/classdoris_1_1vectorized_1_1_vec_date_time_value.html#ae4c5624b25f196ff38f4cfc895318f75" target="_top" xlink:title=" ">
<polygon fill="white" stroke="#666666" points="635,-181 519,-181 519,-162 635,-162 635,-181"/>
<text text-anchor="middle" x="577" y="-169" font-family="Helvetica,sans-Serif" font-size="10.00">create_from_olap_date</text>
</a>
</g>
</g>
<!-- Node15&#45;&gt;Node16 -->
<g id="edge15" class="edge">
<title>Node15&#45;&gt;Node16</title>
<path fill="none" stroke="#63b8ff" d="M689.97,-171.5C672.62,-171.5 653.18,-171.5 635.44,-171.5"/>
<polygon fill="#63b8ff" stroke="#63b8ff" points="689.53,-175 699.53,-171.5 689.53,-168 689.53,-175"/>
</g>
<!-- Node20 -->
<g id="node20" class="node">
<title>Node20</title>
<g id="a_node20"><a xlink:href="../../dd/d9b/structdoris_1_1_date_find_op.html#a18ed4a17612b448e5980b83c0454267d" target="_top" xlink:title=" ">
<polygon fill="white" stroke="#666666" points="628,-143.5 526,-143.5 526,-113.5 628,-113.5 628,-143.5"/>
<text text-anchor="start" x="534" y="-131.5" font-family="Helvetica,sans-Serif" font-size="10.00">doris::DateFindOp::</text>
<text text-anchor="middle" x="577" y="-120.5" font-family="Helvetica,sans-Serif" font-size="10.00">find_olap_engine</text>
</a>
</g>
</g>
<!-- Node15&#45;&gt;Node20 -->
<g id="edge19" class="edge">
<title>Node15&#45;&gt;Node20</title>
<path fill="none" stroke="#63b8ff" d="M692.99,-158.65C672.55,-153.29 648.83,-147.07 628.26,-141.68"/>
<polygon fill="#63b8ff" stroke="#63b8ff" points="691.94,-161.99 702.5,-161.14 693.71,-155.22 691.94,-161.99"/>
</g>
<!-- Node17 -->
<g id="node17" class="node">
<title>Node17</title>
<g id="a_node17"><a xlink:href="../../d1/d2a/classdoris_1_1vectorized_1_1_r_p_c_fn_impl.html#a063579247509f97dc03ddf540835bea9" target="_top" xlink:title=" ">
<polygon fill="white" stroke="#666666" points="450,-171 325,-171 325,-130 450,-130 450,-171"/>
<text text-anchor="start" x="333" y="-159" font-family="Helvetica,sans-Serif" font-size="10.00">doris::vectorized::</text>
<text text-anchor="start" x="333" y="-148" font-family="Helvetica,sans-Serif" font-size="10.00">RPCFnImpl::convert_col</text>
<text text-anchor="middle" x="387.5" y="-137" font-family="Helvetica,sans-Serif" font-size="10.00">_to_pvalue</text>
</a>
</g>
</g>
<!-- Node16&#45;&gt;Node17 -->
<g id="edge16" class="edge">
<title>Node16&#45;&gt;Node17</title>
<path fill="none" stroke="#63b8ff" d="M507.32,-163.81C488.66,-161.72 468.57,-159.47 450.31,-157.42"/>
<polygon fill="#63b8ff" stroke="#63b8ff" points="506.89,-167.28 517.22,-164.92 507.67,-160.33 506.89,-167.28"/>
</g>
<!-- Node18 -->
<g id="node18" class="node">
<title>Node18</title>
<g id="a_node18"><a xlink:href="../../db/dec/classdoris_1_1vectorized_1_1_predicate_column_type.html#a12e248c7ec51e816cce4908822713113" target="_top" xlink:title=" ">
<polygon fill="white" stroke="#666666" points="444,-241.5 331,-241.5 331,-189.5 444,-189.5 444,-241.5"/>
<text text-anchor="start" x="339" y="-229.5" font-family="Helvetica,sans-Serif" font-size="10.00">doris::vectorized::</text>
<text text-anchor="start" x="339" y="-218.5" font-family="Helvetica,sans-Serif" font-size="10.00">PredicateColumnType</text>
<text text-anchor="start" x="339" y="-207.5" font-family="Helvetica,sans-Serif" font-size="10.00">::insert_date_to_res</text>
<text text-anchor="middle" x="387.5" y="-196.5" font-family="Helvetica,sans-Serif" font-size="10.00">_column</text>
</a>
</g>
</g>
<!-- Node16&#45;&gt;Node18 -->
<g id="edge17" class="edge">
<title>Node16&#45;&gt;Node18</title>
<path fill="none" stroke="#63b8ff" d="M522.57,-184.04C498.12,-189.78 469.14,-196.58 444.4,-202.38"/>
<polygon fill="#63b8ff" stroke="#63b8ff" points="523.04,-187.52 531.98,-181.83 521.44,-180.71 523.04,-187.52"/>
</g>
<!-- Node19 -->
<g id="node19" class="node">
<title>Node19</title>
<g id="a_node19"><a xlink:href="../../db/dec/classdoris_1_1vectorized_1_1_predicate_column_type.html#a8e455152d923e71a139d9662574dfb8b" target="_top" xlink:title=" ">
<polygon fill="white" stroke="#666666" points="268.5,-171 155.5,-171 155.5,-130 268.5,-130 268.5,-171"/>
<text text-anchor="start" x="163.5" y="-159" font-family="Helvetica,sans-Serif" font-size="10.00">doris::vectorized::</text>
<text text-anchor="start" x="163.5" y="-148" font-family="Helvetica,sans-Serif" font-size="10.00">PredicateColumnType</text>
<text text-anchor="middle" x="212" y="-137" font-family="Helvetica,sans-Serif" font-size="10.00">::filter_by_selector</text>
</a>
</g>
</g>
<!-- Node18&#45;&gt;Node19 -->
<g id="edge18" class="edge">
<title>Node18&#45;&gt;Node19</title>
<path fill="none" stroke="#63b8ff" d="M320.24,-190.68C303.25,-184.31 285.15,-177.53 268.75,-171.38"/>
<polygon fill="#63b8ff" stroke="#63b8ff" points="318.64,-193.81 329.23,-194.04 321.09,-187.26 318.64,-193.81"/>
</g>
<!-- Node22 -->
<g id="node22" class="node">
<title>Node22</title>
<g id="a_node22"><a xlink:href="../../d5/d3d/classdoris_1_1vectorized_1_1_vec_date_time_value.html#a87689a75ebeb2d864b72d478e67f76c3" target="_top" xlink:title=" ">
<polygon fill="white" stroke="#666666" points="644,-95 510,-95 510,-76 644,-76 644,-95"/>
<text text-anchor="middle" x="577" y="-83" font-family="Helvetica,sans-Serif" font-size="10.00">create_from_olap_datetime</text>
</a>
</g>
</g>
<!-- Node21&#45;&gt;Node22 -->
<g id="edge21" class="edge">
<title>Node21&#45;&gt;Node22</title>
<path fill="none" stroke="#63b8ff" d="M680.55,-101.13C668.46,-99.29 655.73,-97.35 643.52,-95.49"/>
<polygon fill="#63b8ff" stroke="#63b8ff" points="679.99,-104.59 690.41,-102.64 681.05,-97.67 679.99,-104.59"/>
</g>
<!-- Node22&#45;&gt;Node17 -->
<g id="edge22" class="edge">
<title>Node22&#45;&gt;Node17</title>
<path fill="none" stroke="#63b8ff" d="M518.52,-98.25C511.56,-100.17 504.58,-102.26 498,-104.5 481.43,-110.15 478.11,-113.64 462,-120.5 455.03,-123.47 447.66,-126.55 440.38,-129.56"/>
<polygon fill="#63b8ff" stroke="#63b8ff" points="519.16,-101.71 527.95,-95.78 517.39,-94.93 519.16,-101.71"/>
</g>
<!-- Node23 -->
<g id="node23" class="node">
<title>Node23</title>
<g id="a_node23"><a xlink:href="../../df/d15/classdoris_1_1vectorized_1_1_column_vector.html#ab0da77ac5326fb2479508e058cff7e58" target="_top" xlink:title=" ">
<polygon fill="white" stroke="#666666" points="442,-41 333,-41 333,0 442,0 442,-41"/>
<text text-anchor="start" x="341" y="-29" font-family="Helvetica,sans-Serif" font-size="10.00">doris::vectorized::</text>
<text text-anchor="start" x="341" y="-18" font-family="Helvetica,sans-Serif" font-size="10.00">ColumnVector::insert</text>
<text text-anchor="middle" x="387.5" y="-7" font-family="Helvetica,sans-Serif" font-size="10.00">_datetime_column</text>
</a>
</g>
</g>
<!-- Node22&#45;&gt;Node23 -->
<g id="edge23" class="edge">
<title>Node22&#45;&gt;Node23</title>
<path fill="none" stroke="#63b8ff" d="M536.77,-71.9C509.34,-62.39 472.36,-49.57 442.2,-39.12"/>
<polygon fill="#63b8ff" stroke="#63b8ff" points="535.5,-75.16 546.09,-75.13 537.79,-68.55 535.5,-75.16"/>
</g>
<!-- Node25 -->
<g id="node25" class="node">
<title>Node25</title>
<g id="a_node25"><a xlink:href="../../db/dec/classdoris_1_1vectorized_1_1_predicate_column_type.html#a0c035884cc28571e568b02327a5f086e" target="_top" xlink:title=" ">
<polygon fill="white" stroke="#666666" points="444,-111.5 331,-111.5 331,-59.5 444,-59.5 444,-111.5"/>
<text text-anchor="start" x="339" y="-99.5" font-family="Helvetica,sans-Serif" font-size="10.00">doris::vectorized::</text>
<text text-anchor="start" x="339" y="-88.5" font-family="Helvetica,sans-Serif" font-size="10.00">PredicateColumnType</text>
<text text-anchor="start" x="339" y="-77.5" font-family="Helvetica,sans-Serif" font-size="10.00">::insert_datetime_to</text>
<text text-anchor="middle" x="387.5" y="-66.5" font-family="Helvetica,sans-Serif" font-size="10.00">_res_column</text>
</a>
</g>
</g>
<!-- Node22&#45;&gt;Node25 -->
<g id="edge25" class="edge">
<title>Node22&#45;&gt;Node25</title>
<path fill="none" stroke="#63b8ff" d="M498.19,-85.5C480.08,-85.5 461.17,-85.5 444.24,-85.5"/>
<polygon fill="#63b8ff" stroke="#63b8ff" points="498.12,-89 508.12,-85.5 498.12,-82 498.12,-89"/>
</g>
<!-- Node24 -->
<g id="node24" class="node">
<title>Node24</title>
<g id="a_node24"><a xlink:href="../../df/d15/classdoris_1_1vectorized_1_1_column_vector.html#a25fb187f907df63615b085fe4b37effd" target="_top" xlink:title=" ">
<polygon fill="white" stroke="#666666" points="266.5,-41 157.5,-41 157.5,0 266.5,0 266.5,-41"/>
<text text-anchor="start" x="165.5" y="-29" font-family="Helvetica,sans-Serif" font-size="10.00">doris::vectorized::</text>
<text text-anchor="start" x="165.5" y="-18" font-family="Helvetica,sans-Serif" font-size="10.00">ColumnVector::insert</text>
<text text-anchor="middle" x="212" y="-7" font-family="Helvetica,sans-Serif" font-size="10.00">_many_fix_len_data</text>
</a>
</g>
</g>
<!-- Node23&#45;&gt;Node24 -->
<g id="edge24" class="edge">
<title>Node23&#45;&gt;Node24</title>
<path fill="none" stroke="#63b8ff" d="M321.29,-20.5C303.37,-20.5 284.13,-20.5 266.91,-20.5"/>
<polygon fill="#63b8ff" stroke="#63b8ff" points="321.04,-24 331.04,-20.5 321.04,-17 321.04,-24"/>
</g>
<!-- Node25&#45;&gt;Node19 -->
<g id="edge26" class="edge">
<title>Node25&#45;&gt;Node19</title>
<path fill="none" stroke="#63b8ff" d="M320.24,-110.32C303.25,-116.69 285.15,-123.47 268.75,-129.62"/>
<polygon fill="#63b8ff" stroke="#63b8ff" points="321.09,-113.74 329.23,-106.96 318.64,-107.19 321.09,-113.74"/>
</g>
</g>
</svg>
        <g id="navigator" transform="translate(0 0)" fill="#404254">
                <rect fill="#f2f5e9" fill-opacity="0.5" stroke="#606060" stroke-width=".5" x="0" y="0" width="60" height="60"/>
                <use id="zoomplus" xlink:href="#zoomPlus" x="17" y="9" onmousedown="handleZoom(evt,'in')"/>
                <use id="zoomminus" xlink:href="#zoomMin" x="42" y="9" onmousedown="handleZoom(evt,'out')"/>
                <use id="reset" xlink:href="#resetDef" x="30" y="36" onmousedown="handleReset()"/>
                <g id="arrowUp" xlink:href="#dirArrow" transform="translate(30 24)" onmousedown="handlePan(0,-1)">
                  <use xlink:href="#rim" fill="#404040">
                        <set attributeName="fill" to="#808080" begin="arrowUp.mouseover" end="arrowUp.mouseout"/>
                  </use>
                  <path fill="none" stroke="white" stroke-width="1.5" d="M0,-3.0v7 M-2.5,-0.5L0,-3.0L2.5,-0.5"/>
                </g>
                <g id="arrowRight" xlink:href="#dirArrow" transform="rotate(90) translate(36 -43)" onmousedown="handlePan(1,0)">
                  <use xlink:href="#rim" fill="#404040">
                        <set attributeName="fill" to="#808080" begin="arrowRight.mouseover" end="arrowRight.mouseout"/>
                  </use>
                  <path fill="none" stroke="white" stroke-width="1.5" d="M0,-3.0v7 M-2.5,-0.5L0,-3.0L2.5,-0.5"/>
                </g>
                <g id="arrowDown" xlink:href="#dirArrow" transform="rotate(180) translate(-30 -48)" onmousedown="handlePan(0,1)">
                  <use xlink:href="#rim" fill="#404040">
                        <set attributeName="fill" to="#808080" begin="arrowDown.mouseover" end="arrowDown.mouseout"/>
                  </use>
                  <path fill="none" stroke="white" stroke-width="1.5" d="M0,-3.0v7 M-2.5,-0.5L0,-3.0L2.5,-0.5"/>
                </g>
                <g id="arrowLeft" xlink:href="#dirArrow" transform="rotate(270) translate(-36 17)" onmousedown="handlePan(-1,0)">
                  <use xlink:href="#rim" fill="#404040">
                        <set attributeName="fill" to="#808080" begin="arrowLeft.mouseover" end="arrowLeft.mouseout"/>
                  </use>
                  <path fill="none" stroke="white" stroke-width="1.5" d="M0,-3.0v7 M-2.5,-0.5L0,-3.0L2.5,-0.5"/>
                </g>
        </g>
        <svg viewBox="0 0 15 15" width="100%" height="30px" preserveAspectRatio="xMaxYMin meet">
         <g id="arrow_out" transform="scale(0.3 0.3)">
          <a xlink:href="classdoris_1_1vectorized_1_1_vec_date_time_value_ac1c241291894170685ddb360aab1d26d_icgraph_org.svg" target="_base">
           <rect id="button" ry="5" rx="5" y="6" x="6" height="38" width="38"
                fill="#f2f5e9" fill-opacity="0.5" stroke="#606060" stroke-width="1.0"/>
           <path id="arrow"
             d="M 11.500037,31.436501 C 11.940474,20.09759 22.043105,11.32322 32.158766,21.979434 L 37.068811,17.246167 C 37.068811,17.246167 37.088388,32 37.088388,32 L 22.160133,31.978069 C 22.160133,31.978069 26.997745,27.140456 26.997745,27.140456 C 18.528582,18.264221 13.291696,25.230495 11.500037,31.436501 z"
             style="fill:#404040;"/>
          </a>
         </g>
        </svg>
</svg>
