<?xml version="1.0" encoding="UTF-8" standalone="no"?>
<!DOCTYPE svg PUBLIC "-//W3C//DTD SVG 1.1//EN"
 "http://www.w3.org/Graphics/SVG/1.1/DTD/svg11.dtd">
<!-- Generated by graphviz version 7.1.0 (20230121.1956)
 -->
<!-- Title: datetime_trunc Pages: 1 -->
<!--zoomable 289 -->
<svg id="main" version="1.1" xmlns="http://www.w3.org/2000/svg" xmlns:xlink="http://www.w3.org/1999/xlink" xml:space="preserve" onload="init(evt)">
<style type="text/css"><![CDATA[
.edge:hover path { stroke: red; }
.edge:hover polygon { stroke: red; fill: red; }
]]></style>
<script type="text/javascript"><![CDATA[
var edges = document.getElementsByTagName('g');
if (edges && edges.length) {
  for (var i=0;i<edges.length;i++) {
    if (edges[i].id.substr(0,4)=='edge') {
      edges[i].setAttribute('class','edge');
    }
  }
}
]]></script>
        <defs>
                <circle id="rim" cx="0" cy="0" r="7"/>
                <circle id="rim2" cx="0" cy="0" r="3.5"/>
                <g id="zoomPlus">
                        <use xlink:href="#rim" fill="#404040">
                                <set attributeName="fill" to="#808080" begin="zoomplus.mouseover" end="zoomplus.mouseout"/>
                        </use>
                        <path d="M-4,0h8M0,-4v8" fill="none" stroke="white" stroke-width="1.5" pointer-events="none"/>
                </g>
                <g id="zoomMin">
                        <use xlink:href="#rim" fill="#404040">
                                <set attributeName="fill" to="#808080" begin="zoomminus.mouseover" end="zoomminus.mouseout"/>
                        </use>
                        <path d="M-4,0h8" fill="none" stroke="white" stroke-width="1.5" pointer-events="none"/>
                </g>
                <g id="dirArrow">
                        <path fill="none" stroke="white" stroke-width="1.5" d="M0,-3.0v7 M-2.5,-0.5L0,-3.0L2.5,-0.5"/>
                </g>
               <g id="resetDef">
                       <use xlink:href="#rim2" fill="#404040">
                               <set attributeName="fill" to="#808080" begin="reset.mouseover" end="reset.mouseout"/>
                       </use>
               </g>
        </defs>

<script type="text/javascript">
var viewWidth = 520;
var viewHeight = 289;
var sectionId = 'dynsection-57';
</script>
<script xlink:href="../../svgpan.js"/>
<svg id="graph" class="graph">
<g id="viewport">
<title>datetime_trunc</title>
<!-- Node1 -->
<g id="node1" class="node">
<title>Node1</title>
<g id="a_node1"><a xlink:title=" ">
<polygon fill="#999999" stroke="#666666" points="81,-149 0,-149 0,-130 81,-130 81,-149"/>
<text text-anchor="middle" x="40.5" y="-137" font-family="Helvetica,sans-Serif" font-size="10.00">datetime_trunc</text>
</a>
</g>
</g>
<!-- Node2 -->
<g id="node2" class="node">
<title>Node2</title>
<g id="a_node2"><a xlink:href="../../d5/d3d/classdoris_1_1vectorized_1_1_vec_date_time_value.html#aeb71d5b10b07bbaae94b16130766e077" target="_top" xlink:title=" ">
<polygon fill="white" stroke="#666666" points="191,-149 117,-149 117,-130 191,-130 191,-149"/>
<text text-anchor="middle" x="154" y="-137" font-family="Helvetica,sans-Serif" font-size="10.00">is_valid_date</text>
</a>
</g>
</g>
<!-- Node1&#45;&gt;Node2 -->
<g id="edge1" class="edge">
<title>Node1&#45;&gt;Node2</title>
<path fill="none" stroke="#63b8ff" d="M81.44,-139.5C89.16,-139.5 97.33,-139.5 105.28,-139.5"/>
<polygon fill="#63b8ff" stroke="#63b8ff" points="105.17,-143 115.17,-139.5 105.17,-136 105.17,-143"/>
</g>
<!-- Node3 -->
<g id="node3" class="node">
<title>Node3</title>
<g id="a_node3"><a xlink:href="../../d5/d3d/classdoris_1_1vectorized_1_1_vec_date_time_value.html#a46fd9802e16eeafdeccd55a4477b3b11" target="_top" xlink:title=" ">
<polygon fill="white" stroke="#666666" points="299,-149 227,-149 227,-130 299,-130 299,-149"/>
<text text-anchor="middle" x="263" y="-137" font-family="Helvetica,sans-Serif" font-size="10.00">check_range</text>
</a>
</g>
</g>
<!-- Node2&#45;&gt;Node3 -->
<g id="edge2" class="edge">
<title>Node2&#45;&gt;Node3</title>
<path fill="none" stroke="#63b8ff" d="M191.23,-139.5C198.88,-139.5 207.07,-139.5 215.06,-139.5"/>
<polygon fill="#63b8ff" stroke="#63b8ff" points="215.02,-143 225.02,-139.5 215.02,-136 215.02,-143"/>
</g>
<!-- Node4 -->
<g id="node4" class="node">
<title>Node4</title>
<g id="a_node4"><a xlink:href="../../d5/d3d/classdoris_1_1vectorized_1_1_vec_date_time_value.html#afa27cb082c3b1b49d0a97a9c44ed674f" target="_top" xlink:title=" ">
<polygon fill="white" stroke="#666666" points="402,-244 335,-244 335,-225 402,-225 402,-244"/>
<text text-anchor="middle" x="368.5" y="-232" font-family="Helvetica,sans-Serif" font-size="10.00">check_date</text>
</a>
</g>
</g>
<!-- Node3&#45;&gt;Node4 -->
<g id="edge3" class="edge">
<title>Node3&#45;&gt;Node4</title>
<path fill="none" stroke="#63b8ff" d="M272.77,-149.14C285.78,-163.24 311.22,-190.03 335,-210.5 337.87,-212.97 340.98,-215.47 344.09,-217.87"/>
<polygon fill="#63b8ff" stroke="#63b8ff" points="341.9,-220.6 352.01,-223.76 346.08,-214.99 341.9,-220.6"/>
</g>
<!-- Node5 -->
<g id="node5" class="node">
<title>Node5</title>
<g id="a_node5"><a xlink:href="../../d5/d3d/classdoris_1_1vectorized_1_1_vec_date_time_value.html#a912344e9b0a67db916e2bac3c43337dc" target="_top" xlink:title=" ">
<polygon fill="white" stroke="#666666" points="491,-281 459,-281 459,-262 491,-262 491,-281"/>
<text text-anchor="middle" x="475" y="-269" font-family="Helvetica,sans-Serif" font-size="10.00">day</text>
</a>
</g>
</g>
<!-- Node3&#45;&gt;Node5 -->
<g id="edge8" class="edge">
<title>Node3&#45;&gt;Node5</title>
<path fill="none" stroke="#63b8ff" d="M266.86,-149.18C274.08,-171.78 295.38,-228.03 335,-253.5 369.18,-275.47 417.92,-276.44 447.67,-274.45"/>
<polygon fill="#63b8ff" stroke="#63b8ff" points="447.62,-277.97 457.29,-273.64 447.03,-270.99 447.62,-277.97"/>
</g>
<!-- Node7 -->
<g id="node7" class="node">
<title>Node7</title>
<g id="a_node7"><a xlink:href="../../d5/d3d/classdoris_1_1vectorized_1_1_vec_date_time_value.html#a9418bae7320038816691fbb13ce3b90a" target="_top" xlink:title=" ">
<polygon fill="white" stroke="#666666" points="497,-206 453,-206 453,-187 497,-187 497,-206"/>
<text text-anchor="middle" x="475" y="-194" font-family="Helvetica,sans-Serif" font-size="10.00">month</text>
</a>
</g>
</g>
<!-- Node3&#45;&gt;Node7 -->
<g id="edge11" class="edge">
<title>Node3&#45;&gt;Node7</title>
<path fill="none" stroke="#63b8ff" d="M291.46,-149.45C304.55,-154.02 320.49,-159.34 335,-163.5 371.09,-173.86 413.1,-183.51 441.41,-189.66"/>
<polygon fill="#63b8ff" stroke="#63b8ff" points="440.65,-193.08 451.17,-191.76 442.13,-186.23 440.65,-193.08"/>
</g>
<!-- Node8 -->
<g id="node8" class="node">
<title>Node8</title>
<g id="a_node8"><a xlink:href="../../d5/d3d/classdoris_1_1vectorized_1_1_vec_date_time_value.html#a1b5cb174b9b809888ca1cadfb32791f4" target="_top" xlink:title=" ">
<polygon fill="white" stroke="#666666" points="492.5,-169 457.5,-169 457.5,-150 492.5,-150 492.5,-169"/>
<text text-anchor="middle" x="475" y="-157" font-family="Helvetica,sans-Serif" font-size="10.00">year</text>
</a>
</g>
</g>
<!-- Node3&#45;&gt;Node8 -->
<g id="edge14" class="edge">
<title>Node3&#45;&gt;Node8</title>
<path fill="none" stroke="#63b8ff" d="M299.15,-142.85C340.45,-146.78 408.14,-153.23 446.04,-156.84"/>
<polygon fill="#63b8ff" stroke="#63b8ff" points="445.44,-160.3 455.72,-157.76 446.1,-153.33 445.44,-160.3"/>
</g>
<!-- Node9 -->
<g id="node9" class="node">
<title>Node9</title>
<g id="a_node9"><a xlink:href="../../d5/d3d/classdoris_1_1vectorized_1_1_vec_date_time_value.html#a110d566ff7f9edf7cbfe15355f8c637c" target="_top" xlink:title=" ">
<polygon fill="white" stroke="#666666" points="386,-130 351,-130 351,-111 386,-111 386,-130"/>
<text text-anchor="middle" x="368.5" y="-118" font-family="Helvetica,sans-Serif" font-size="10.00">hour</text>
</a>
</g>
</g>
<!-- Node3&#45;&gt;Node9 -->
<g id="edge9" class="edge">
<title>Node3&#45;&gt;Node9</title>
<path fill="none" stroke="#63b8ff" d="M299.33,-133.01C312.47,-130.6 327.18,-127.9 339.56,-125.63"/>
<polygon fill="#63b8ff" stroke="#63b8ff" points="339.9,-129.12 349.1,-123.88 338.64,-122.24 339.9,-129.12"/>
</g>
<!-- Node10 -->
<g id="node10" class="node">
<title>Node10</title>
<g id="a_node10"><a xlink:href="../../d5/d3d/classdoris_1_1vectorized_1_1_vec_date_time_value.html#ae91256ab81b246d3f40eddbd4c016f5f" target="_top" xlink:title=" ">
<polygon fill="white" stroke="#666666" points="391.5,-93 345.5,-93 345.5,-74 391.5,-74 391.5,-93"/>
<text text-anchor="middle" x="368.5" y="-81" font-family="Helvetica,sans-Serif" font-size="10.00">minute</text>
</a>
</g>
</g>
<!-- Node3&#45;&gt;Node10 -->
<g id="edge10" class="edge">
<title>Node3&#45;&gt;Node10</title>
<path fill="none" stroke="#63b8ff" d="M282.03,-129.75C297.81,-121.21 321.01,-108.66 339.25,-98.78"/>
<polygon fill="#63b8ff" stroke="#63b8ff" points="340.87,-101.89 348,-94.05 337.54,-95.73 340.87,-101.89"/>
</g>
<!-- Node11 -->
<g id="node11" class="node">
<title>Node11</title>
<g id="a_node11"><a xlink:href="../../d5/d3d/classdoris_1_1vectorized_1_1_vec_date_time_value.html#aa0cba22e21d8081f564e6a68edab1ae0" target="_top" xlink:title=" ">
<polygon fill="white" stroke="#666666" points="392.5,-56 344.5,-56 344.5,-37 392.5,-37 392.5,-56"/>
<text text-anchor="middle" x="368.5" y="-44" font-family="Helvetica,sans-Serif" font-size="10.00">second</text>
</a>
</g>
</g>
<!-- Node3&#45;&gt;Node11 -->
<g id="edge12" class="edge">
<title>Node3&#45;&gt;Node11</title>
<path fill="none" stroke="#63b8ff" d="M271.7,-129.59C283.93,-114.29 309.06,-84.6 335,-64.5 335.94,-63.77 336.92,-63.05 337.92,-62.34"/>
<polygon fill="#63b8ff" stroke="#63b8ff" points="339.43,-65.53 346.02,-57.23 335.69,-59.61 339.43,-65.53"/>
</g>
<!-- Node12 -->
<g id="node12" class="node">
<title>Node12</title>
<g id="a_node12"><a xlink:href="../../d5/d3d/classdoris_1_1vectorized_1_1_vec_date_time_value.html#ac7669d23a52243a270e53e53051bcd86" target="_top" xlink:title=" ">
<polygon fill="white" stroke="#666666" points="386,-19 351,-19 351,0 386,0 386,-19"/>
<text text-anchor="middle" x="368.5" y="-7" font-family="Helvetica,sans-Serif" font-size="10.00">type</text>
</a>
</g>
</g>
<!-- Node3&#45;&gt;Node12 -->
<g id="edge13" class="edge">
<title>Node3&#45;&gt;Node12</title>
<path fill="none" stroke="#63b8ff" d="M268.17,-129.67C277.5,-108.67 301.83,-58.76 335,-27.5 336.83,-25.77 338.86,-24.16 340.98,-22.66"/>
<polygon fill="#63b8ff" stroke="#63b8ff" points="342.54,-25.8 349.27,-17.61 338.91,-19.82 342.54,-25.8"/>
</g>
<!-- Node4&#45;&gt;Node5 -->
<g id="edge4" class="edge">
<title>Node4&#45;&gt;Node5</title>
<path fill="none" stroke="#63b8ff" d="M397.5,-244.42C413.11,-249.94 432.43,-256.78 447.75,-262.21"/>
<polygon fill="#63b8ff" stroke="#63b8ff" points="446.53,-265.49 457.13,-265.53 448.87,-258.89 446.53,-265.49"/>
</g>
<!-- Node6 -->
<g id="node6" class="node">
<title>Node6</title>
<g id="a_node6"><a xlink:href="../../d6/d94/namespacedoris.html#ab3bf7ae1998587a6e9699350e5da1ef2" target="_top" xlink:title=" ">
<polygon fill="white" stroke="#666666" points="512,-244 438,-244 438,-225 512,-225 512,-244"/>
<text text-anchor="middle" x="475" y="-232" font-family="Helvetica,sans-Serif" font-size="10.00">doris::is_leap</text>
</a>
</g>
</g>
<!-- Node4&#45;&gt;Node6 -->
<g id="edge5" class="edge">
<title>Node4&#45;&gt;Node6</title>
<path fill="none" stroke="#63b8ff" d="M402.28,-234.5C409.93,-234.5 418.22,-234.5 426.37,-234.5"/>
<polygon fill="#63b8ff" stroke="#63b8ff" points="426.19,-238 436.19,-234.5 426.19,-231 426.19,-238"/>
</g>
<!-- Node4&#45;&gt;Node7 -->
<g id="edge6" class="edge">
<title>Node4&#45;&gt;Node7</title>
<path fill="none" stroke="#63b8ff" d="M396.96,-224.52C410.83,-219.47 427.75,-213.32 442.19,-208.07"/>
<polygon fill="#63b8ff" stroke="#63b8ff" points="443.04,-211.48 451.24,-204.78 440.65,-204.9 443.04,-211.48"/>
</g>
<!-- Node4&#45;&gt;Node8 -->
<g id="edge7" class="edge">
<title>Node4&#45;&gt;Node8</title>
<path fill="none" stroke="#63b8ff" d="M379.59,-224.82C392.46,-212.78 415.72,-192.06 438,-177.5 440.8,-175.67 443.8,-173.9 446.85,-172.22"/>
<polygon fill="#63b8ff" stroke="#63b8ff" points="448.43,-175.35 455.72,-167.66 445.23,-169.12 448.43,-175.35"/>
</g>
</g>
</svg>
        <g id="navigator" transform="translate(0 0)" fill="#404254">
                <rect fill="#f2f5e9" fill-opacity="0.5" stroke="#606060" stroke-width=".5" x="0" y="0" width="60" height="60"/>
                <use id="zoomplus" xlink:href="#zoomPlus" x="17" y="9" onmousedown="handleZoom(evt,'in')"/>
                <use id="zoomminus" xlink:href="#zoomMin" x="42" y="9" onmousedown="handleZoom(evt,'out')"/>
                <use id="reset" xlink:href="#resetDef" x="30" y="36" onmousedown="handleReset()"/>
                <g id="arrowUp" xlink:href="#dirArrow" transform="translate(30 24)" onmousedown="handlePan(0,-1)">
                  <use xlink:href="#rim" fill="#404040">
                        <set attributeName="fill" to="#808080" begin="arrowUp.mouseover" end="arrowUp.mouseout"/>
                  </use>
                  <path fill="none" stroke="white" stroke-width="1.5" d="M0,-3.0v7 M-2.5,-0.5L0,-3.0L2.5,-0.5"/>
                </g>
                <g id="arrowRight" xlink:href="#dirArrow" transform="rotate(90) translate(36 -43)" onmousedown="handlePan(1,0)">
                  <use xlink:href="#rim" fill="#404040">
                        <set attributeName="fill" to="#808080" begin="arrowRight.mouseover" end="arrowRight.mouseout"/>
                  </use>
                  <path fill="none" stroke="white" stroke-width="1.5" d="M0,-3.0v7 M-2.5,-0.5L0,-3.0L2.5,-0.5"/>
                </g>
                <g id="arrowDown" xlink:href="#dirArrow" transform="rotate(180) translate(-30 -48)" onmousedown="handlePan(0,1)">
                  <use xlink:href="#rim" fill="#404040">
                        <set attributeName="fill" to="#808080" begin="arrowDown.mouseover" end="arrowDown.mouseout"/>
                  </use>
                  <path fill="none" stroke="white" stroke-width="1.5" d="M0,-3.0v7 M-2.5,-0.5L0,-3.0L2.5,-0.5"/>
                </g>
                <g id="arrowLeft" xlink:href="#dirArrow" transform="rotate(270) translate(-36 17)" onmousedown="handlePan(-1,0)">
                  <use xlink:href="#rim" fill="#404040">
                        <set attributeName="fill" to="#808080" begin="arrowLeft.mouseover" end="arrowLeft.mouseout"/>
                  </use>
                  <path fill="none" stroke="white" stroke-width="1.5" d="M0,-3.0v7 M-2.5,-0.5L0,-3.0L2.5,-0.5"/>
                </g>
        </g>
        <svg viewBox="0 0 15 15" width="100%" height="30px" preserveAspectRatio="xMaxYMin meet">
         <g id="arrow_out" transform="scale(0.3 0.3)">
          <a xlink:href="classdoris_1_1vectorized_1_1_vec_date_time_value_adf1098272944ccb4925f8575e68ab47f_cgraph_org.svg" target="_base">
           <rect id="button" ry="5" rx="5" y="6" x="6" height="38" width="38"
                fill="#f2f5e9" fill-opacity="0.5" stroke="#606060" stroke-width="1.0"/>
           <path id="arrow"
             d="M 11.500037,31.436501 C 11.940474,20.09759 22.043105,11.32322 32.158766,21.979434 L 37.068811,17.246167 C 37.068811,17.246167 37.088388,32 37.088388,32 L 22.160133,31.978069 C 22.160133,31.978069 26.997745,27.140456 26.997745,27.140456 C 18.528582,18.264221 13.291696,25.230495 11.500037,31.436501 z"
             style="fill:#404040;"/>
          </a>
         </g>
        </svg>
</svg>
