<?xml version="1.0" encoding="UTF-8" standalone="no"?>
<!DOCTYPE svg PUBLIC "-//W3C//DTD SVG 1.1//EN"
 "http://www.w3.org/Graphics/SVG/1.1/DTD/svg11.dtd">
<!-- Generated by graphviz version 7.1.0 (20230121.1956)
 -->
<!-- Title: type Pages: 1 -->
<svg width="1153pt" height="581pt"
 viewBox="0.00 0.00 1153.00 580.50" xmlns="http://www.w3.org/2000/svg" xmlns:xlink="http://www.w3.org/1999/xlink">
<g id="graph0" class="graph" transform="scale(1 1) rotate(0) translate(4 576.5)">
<title>type</title>
<!-- Node1 -->
<g id="node1" class="node">
<title>Node1</title>
<g id="a_node1"><a xlink:title=" ">
<polygon fill="#999999" stroke="#666666" points="1145,-111 1110,-111 1110,-92 1145,-92 1145,-111"/>
<text text-anchor="middle" x="1127.5" y="-99" font-family="Helvetica,sans-Serif" font-size="10.00">type</text>
</a>
</g>
</g>
<!-- Node2 -->
<g id="node2" class="node">
<title>Node2</title>
<g id="a_node2"><a xlink:href="../../d5/d3d/classdoris_1_1vectorized_1_1_vec_date_time_value.html#a46fd9802e16eeafdeccd55a4477b3b11" target="_top" xlink:title=" ">
<polygon fill="white" stroke="#666666" points="1074,-130 1002,-130 1002,-111 1074,-111 1074,-130"/>
<text text-anchor="middle" x="1038" y="-118" font-family="Helvetica,sans-Serif" font-size="10.00">check_range</text>
</a>
</g>
</g>
<!-- Node1&#45;&gt;Node2 -->
<g id="edge1" class="edge">
<title>Node1&#45;&gt;Node2</title>
<path fill="none" stroke="#63b8ff" d="M1098.63,-107.55C1090.89,-109.23 1082.39,-111.08 1074.29,-112.84"/>
<polygon fill="#63b8ff" stroke="#63b8ff" points="1099.12,-111.03 1108.15,-105.48 1097.64,-104.19 1099.12,-111.03"/>
</g>
<!-- Node3 -->
<g id="node3" class="node">
<title>Node3</title>
<g id="a_node3"><a xlink:href="../../d5/d3d/classdoris_1_1vectorized_1_1_vec_date_time_value.html#ac1c241291894170685ddb360aab1d26d" target="_top" xlink:title=" ">
<polygon fill="white" stroke="#666666" points="966,-222 830,-222 830,-203 966,-203 966,-222"/>
<text text-anchor="middle" x="898" y="-210" font-family="Helvetica,sans-Serif" font-size="10.00">check_range_and_set_time</text>
</a>
</g>
</g>
<!-- Node1&#45;&gt;Node3 -->
<g id="edge37" class="edge">
<title>Node1&#45;&gt;Node3</title>
<path fill="none" stroke="#63b8ff" d="M1105.62,-118.32C1096.28,-125.39 1084.93,-133.38 1074,-139.5 1025.18,-166.86 964.03,-190.08 928.45,-202.58"/>
<polygon fill="#63b8ff" stroke="#63b8ff" points="1107.58,-121.23 1113.33,-112.33 1103.28,-115.71 1107.58,-121.23"/>
</g>
<!-- Node34 -->
<g id="node34" class="node">
<title>Node34</title>
<g id="a_node34"><a xlink:href="../../d5/d3d/classdoris_1_1vectorized_1_1_vec_date_time_value.html#a6c2997a9067e0bae7c072ee52160dddb" target="_top" xlink:title=" ">
<polygon fill="white" stroke="#666666" points="1065,-74 1011,-74 1011,-55 1065,-55 1065,-74"/>
<text text-anchor="middle" x="1038" y="-62" font-family="Helvetica,sans-Serif" font-size="10.00">set_type</text>
</a>
</g>
</g>
<!-- Node1&#45;&gt;Node34 -->
<g id="edge38" class="edge">
<title>Node1&#45;&gt;Node34</title>
<path fill="none" stroke="#63b8ff" d="M1099.05,-89.89C1087.3,-84.92 1073.71,-79.18 1062.43,-74.41"/>
<polygon fill="#63b8ff" stroke="#63b8ff" points="1097.66,-93.11 1108.24,-93.78 1100.39,-86.66 1097.66,-93.11"/>
</g>
<!-- Node36 -->
<g id="node36" class="node">
<title>Node36</title>
<g id="a_node36"><a xlink:href="../../d5/d3d/classdoris_1_1vectorized_1_1_vec_date_time_value.html#a4735ffdc4e787ecbf8f0f00790934796" target="_top" xlink:title=" ">
<polygon fill="white" stroke="#666666" points="1065,-37 1011,-37 1011,-18 1065,-18 1065,-37"/>
<text text-anchor="middle" x="1038" y="-25" font-family="Helvetica,sans-Serif" font-size="10.00">set_zero</text>
</a>
</g>
</g>
<!-- Node1&#45;&gt;Node36 -->
<g id="edge40" class="edge">
<title>Node1&#45;&gt;Node36</title>
<path fill="none" stroke="#63b8ff" d="M1112.18,-83.24C1102.32,-71.48 1088.44,-56.39 1074,-45.5 1070.07,-42.54 1065.59,-39.82 1061.16,-37.44"/>
<polygon fill="#63b8ff" stroke="#63b8ff" points="1109.18,-85.1 1118.21,-90.65 1114.62,-80.69 1109.18,-85.1"/>
</g>
<!-- Node2&#45;&gt;Node3 -->
<g id="edge2" class="edge">
<title>Node2&#45;&gt;Node3</title>
<path fill="none" stroke="#63b8ff" d="M1017.24,-137.62C1003.37,-149.25 984.13,-164.61 966,-176.5 951.09,-186.28 933.28,-195.75 919.76,-202.53"/>
<polygon fill="#63b8ff" stroke="#63b8ff" points="1019.39,-140.38 1024.75,-131.24 1014.86,-135.05 1019.39,-140.38"/>
</g>
<!-- Node28 -->
<g id="node28" class="node">
<title>Node28</title>
<g id="a_node28"><a xlink:href="../../d5/d3d/classdoris_1_1vectorized_1_1_vec_date_time_value.html#a7e997d8114d92eb76420cd2ca57afdce" target="_top" xlink:title=" ">
<polygon fill="white" stroke="#666666" points="952,-167 844,-167 844,-148 952,-148 952,-167"/>
<text text-anchor="middle" x="898" y="-155" font-family="Helvetica,sans-Serif" font-size="10.00">get_date_from_daynr</text>
</a>
</g>
</g>
<!-- Node2&#45;&gt;Node28 -->
<g id="edge30" class="edge">
<title>Node2&#45;&gt;Node28</title>
<path fill="none" stroke="#63b8ff" d="M990.79,-132.89C972.98,-137.67 952.88,-143.05 936.05,-147.57"/>
<polygon fill="#63b8ff" stroke="#63b8ff" points="991.61,-136.29 1000.36,-130.32 989.79,-129.53 991.61,-136.29"/>
</g>
<!-- Node31 -->
<g id="node31" class="node">
<title>Node31</title>
<g id="a_node31"><a xlink:href="../../d5/d3d/classdoris_1_1vectorized_1_1_vec_date_time_value.html#aeb71d5b10b07bbaae94b16130766e077" target="_top" xlink:title=" ">
<polygon fill="white" stroke="#666666" points="935,-130 861,-130 861,-111 935,-111 935,-130"/>
<text text-anchor="middle" x="898" y="-118" font-family="Helvetica,sans-Serif" font-size="10.00">is_valid_date</text>
</a>
</g>
</g>
<!-- Node2&#45;&gt;Node31 -->
<g id="edge33" class="edge">
<title>Node2&#45;&gt;Node31</title>
<path fill="none" stroke="#63b8ff" d="M990.35,-120.5C972.3,-120.5 951.97,-120.5 935.08,-120.5"/>
<polygon fill="#63b8ff" stroke="#63b8ff" points="990.31,-124 1000.31,-120.5 990.31,-117 990.31,-124"/>
</g>
<!-- Node33 -->
<g id="node33" class="node">
<title>Node33</title>
<g id="a_node33"><a xlink:href="../../d5/d3d/classdoris_1_1vectorized_1_1_vec_date_time_value.html#a54826e9baac7f02cd0ca64280ac5d064" target="_top" xlink:title=" ">
<polygon fill="white" stroke="#666666" points="941.5,-93 854.5,-93 854.5,-74 941.5,-74 941.5,-93"/>
<text text-anchor="middle" x="898" y="-81" font-family="Helvetica,sans-Serif" font-size="10.00">to_format_string</text>
</a>
</g>
</g>
<!-- Node2&#45;&gt;Node33 -->
<g id="edge36" class="edge">
<title>Node2&#45;&gt;Node33</title>
<path fill="none" stroke="#63b8ff" d="M990.79,-108.11C972.98,-103.33 952.88,-97.95 936.05,-93.43"/>
<polygon fill="#63b8ff" stroke="#63b8ff" points="989.79,-111.47 1000.36,-110.68 991.61,-104.71 989.79,-111.47"/>
</g>
<!-- Node4 -->
<g id="node4" class="node">
<title>Node4</title>
<g id="a_node4"><a xlink:href="../../d5/d3d/classdoris_1_1vectorized_1_1_vec_date_time_value.html#a7a0fa294ad561a11e746805bc672df5b" target="_top" xlink:title=" ">
<polygon fill="white" stroke="#666666" points="786,-204 700,-204 700,-185 786,-185 786,-204"/>
<text text-anchor="middle" x="743" y="-192" font-family="Helvetica,sans-Serif" font-size="10.00">from_date_int64</text>
</a>
</g>
</g>
<!-- Node3&#45;&gt;Node4 -->
<g id="edge3" class="edge">
<title>Node3&#45;&gt;Node4</title>
<path fill="none" stroke="#63b8ff" d="M818.76,-203.3C807.61,-201.98 796.5,-200.68 786.4,-199.49"/>
<polygon fill="#63b8ff" stroke="#63b8ff" points="818.05,-206.74 828.39,-204.43 818.87,-199.78 818.05,-206.74"/>
</g>
<!-- Node7 -->
<g id="node7" class="node">
<title>Node7</title>
<g id="a_node7"><a xlink:href="../../d5/d3d/classdoris_1_1vectorized_1_1_vec_date_time_value.html#a56b5d31cb0b23eb0fa2b94d90db2ad1d" target="_top" xlink:title=" ">
<polygon fill="white" stroke="#666666" points="781.5,-459 704.5,-459 704.5,-440 781.5,-440 781.5,-459"/>
<text text-anchor="middle" x="743" y="-447" font-family="Helvetica,sans-Serif" font-size="10.00">from_date_str</text>
</a>
</g>
</g>
<!-- Node3&#45;&gt;Node7 -->
<g id="edge6" class="edge">
<title>Node3&#45;&gt;Node7</title>
<path fill="none" stroke="#63b8ff" d="M884.45,-231.95C853.35,-280.12 773.59,-403.67 750.41,-439.58"/>
<polygon fill="#63b8ff" stroke="#63b8ff" points="887.32,-233.95 889.8,-223.65 881.44,-230.16 887.32,-233.95"/>
</g>
<!-- Node16 -->
<g id="node16" class="node">
<title>Node16</title>
<g id="a_node16"><a xlink:href="../../d5/d3d/classdoris_1_1vectorized_1_1_vec_date_time_value.html#aef8b88a959e1bb4dca478132a4d96a36" target="_top" xlink:title=" ">
<polygon fill="white" stroke="#666666" points="784.5,-241 701.5,-241 701.5,-222 784.5,-222 784.5,-241"/>
<text text-anchor="middle" x="743" y="-229" font-family="Helvetica,sans-Serif" font-size="10.00">from_olap_date</text>
</a>
</g>
</g>
<!-- Node3&#45;&gt;Node16 -->
<g id="edge15" class="edge">
<title>Node3&#45;&gt;Node16</title>
<path fill="none" stroke="#63b8ff" d="M818.64,-222.23C806.88,-223.69 795.18,-225.14 784.65,-226.45"/>
<polygon fill="#63b8ff" stroke="#63b8ff" points="818.9,-225.73 828.39,-221.02 818.03,-218.78 818.9,-225.73"/>
</g>
<!-- Node23 -->
<g id="node23" class="node">
<title>Node23</title>
<g id="a_node23"><a xlink:href="../../d5/d3d/classdoris_1_1vectorized_1_1_vec_date_time_value.html#ac4d303ac8fb3a6c4cd799e5fe2a75059" target="_top" xlink:title=" ">
<polygon fill="white" stroke="#666666" points="794,-278 692,-278 692,-259 794,-259 794,-278"/>
<text text-anchor="middle" x="743" y="-266" font-family="Helvetica,sans-Serif" font-size="10.00">from_olap_datetime</text>
</a>
</g>
</g>
<!-- Node3&#45;&gt;Node23 -->
<g id="edge22" class="edge">
<title>Node3&#45;&gt;Node23</title>
<path fill="none" stroke="#63b8ff" d="M859.73,-226.33C840.18,-233.57 815.81,-242.55 794,-250.5 786.81,-253.12 779.02,-255.94 771.78,-258.54"/>
<polygon fill="#63b8ff" stroke="#63b8ff" points="860.76,-229.68 868.93,-222.93 858.33,-223.12 860.76,-229.68"/>
</g>
<!-- Node5 -->
<g id="node5" class="node">
<title>Node5</title>
<g id="a_node5"><a xlink:href="../../d5/d3d/classdoris_1_1vectorized_1_1_vec_date_time_value.html#a205bb17d8d4f51293d0100845aa20409" target="_top" xlink:title=" ">
<polygon fill="white" stroke="#666666" points="607,-155 547,-155 547,-136 607,-136 607,-155"/>
<text text-anchor="middle" x="577" y="-143" font-family="Helvetica,sans-Serif" font-size="10.00">from_date</text>
</a>
</g>
</g>
<!-- Node4&#45;&gt;Node5 -->
<g id="edge4" class="edge">
<title>Node4&#45;&gt;Node5</title>
<path fill="none" stroke="#63b8ff" d="M703.72,-180.74C685.32,-174.21 665.27,-167.24 656,-164.5 640.09,-159.8 622.12,-155.36 607.44,-151.96"/>
<polygon fill="#63b8ff" stroke="#63b8ff" points="702.55,-184.04 713.14,-184.1 704.9,-177.44 702.55,-184.04"/>
</g>
<!-- Node6 -->
<g id="node6" class="node">
<title>Node6</title>
<g id="a_node6"><a xlink:href="../../d5/d3d/classdoris_1_1vectorized_1_1_vec_date_time_value.html#a76cdb42f842dc2e7afb7b3babe631b7c" target="_top" xlink:title=" ">
<polygon fill="white" stroke="#666666" points="620,-87 534,-87 534,-68 620,-68 620,-87"/>
<text text-anchor="middle" x="577" y="-75" font-family="Helvetica,sans-Serif" font-size="10.00">from_time_int64</text>
</a>
</g>
</g>
<!-- Node4&#45;&gt;Node6 -->
<g id="edge5" class="edge">
<title>Node4&#45;&gt;Node6</title>
<path fill="none" stroke="#63b8ff" d="M696.19,-179.35C694.74,-178.45 693.34,-177.5 692,-176.5 670.35,-160.33 675.71,-145.99 656,-127.5 638.29,-110.88 614.33,-96.47 597.66,-87.45"/>
<polygon fill="#63b8ff" stroke="#63b8ff" points="694.41,-182.37 704.89,-183.9 697.65,-176.16 694.41,-182.37"/>
</g>
<!-- Node8 -->
<g id="node8" class="node">
<title>Node8</title>
<g id="a_node8"><a xlink:href="../../db/d9a/classdoris_1_1_v_olap_table_partition_param.html#ae5b7e01f7fb94a97904d3553faa0a4ef" target="_top" xlink:title=" ">
<polygon fill="white" stroke="#666666" points="649,-416.5 505,-416.5 505,-386.5 649,-386.5 649,-416.5"/>
<text text-anchor="start" x="513" y="-404.5" font-family="Helvetica,sans-Serif" font-size="10.00">doris::VOlapTablePartition</text>
<text text-anchor="middle" x="577" y="-393.5" font-family="Helvetica,sans-Serif" font-size="10.00">Param::_create_partition_key</text>
</a>
</g>
</g>
<!-- Node7&#45;&gt;Node8 -->
<g id="edge7" class="edge">
<title>Node7&#45;&gt;Node8</title>
<path fill="none" stroke="#63b8ff" d="M697.06,-436.35C676.52,-430.34 652.06,-423.18 630.67,-416.92"/>
<polygon fill="#63b8ff" stroke="#63b8ff" points="695.99,-439.68 706.57,-439.13 697.95,-432.96 695.99,-439.68"/>
</g>
<!-- Node12 -->
<g id="node12" class="node">
<title>Node12</title>
<g id="a_node12"><a xlink:href="../../d6/dc8/classdoris_1_1_runtime_predicate_wrapper.html#a8b9487bd366d30f5fb79388f4efdf070" target="_top" xlink:title=" ">
<polygon fill="white" stroke="#666666" points="656,-572.5 498,-572.5 498,-542.5 656,-542.5 656,-572.5"/>
<text text-anchor="start" x="506" y="-560.5" font-family="Helvetica,sans-Serif" font-size="10.00">doris::RuntimePredicateWrapper</text>
<text text-anchor="middle" x="577" y="-549.5" font-family="Helvetica,sans-Serif" font-size="10.00">::assign</text>
</a>
</g>
</g>
<!-- Node7&#45;&gt;Node12 -->
<g id="edge11" class="edge">
<title>Node7&#45;&gt;Node12</title>
<path fill="none" stroke="#63b8ff" d="M727.43,-468.25C711.72,-487.25 685.03,-516.25 656,-533.5 650.52,-536.76 644.55,-539.61 638.45,-542.1"/>
<polygon fill="#63b8ff" stroke="#63b8ff" points="730.11,-470.5 733.65,-460.51 724.65,-466.11 730.11,-470.5"/>
</g>
<!-- Node13 -->
<g id="node13" class="node">
<title>Node13</title>
<g id="a_node13"><a xlink:href="../../dc/d0f/classdoris_1_1_scroll_parser.html#a48c253f376d39336501d6749b9ab6a9e" target="_top" xlink:title=" ">
<polygon fill="white" stroke="#666666" points="626,-524 528,-524 528,-483 626,-483 626,-524"/>
<text text-anchor="start" x="536" y="-512" font-family="Helvetica,sans-Serif" font-size="10.00">doris::ScrollParser</text>
<text text-anchor="start" x="536" y="-501" font-family="Helvetica,sans-Serif" font-size="10.00">::fill_date_col_with</text>
<text text-anchor="middle" x="577" y="-490" font-family="Helvetica,sans-Serif" font-size="10.00">_strval</text>
</a>
</g>
</g>
<!-- Node7&#45;&gt;Node13 -->
<g id="edge12" class="edge">
<title>Node7&#45;&gt;Node13</title>
<path fill="none" stroke="#63b8ff" d="M701.27,-462.91C678.53,-470.4 650.08,-479.77 626.24,-487.62"/>
<polygon fill="#63b8ff" stroke="#63b8ff" points="702.08,-466.33 710.48,-459.88 699.89,-459.68 702.08,-466.33"/>
</g>
<!-- Node15 -->
<g id="node15" class="node">
<title>Node15</title>
<g id="a_node15"><a xlink:href="../../d7/dfa/classdoris_1_1_text_converter.html#aeb63498228b02f3372e0a337f8a8c574" target="_top" xlink:title="Write consecutive rows of the same data.">
<polygon fill="white" stroke="#666666" points="629.5,-464.5 524.5,-464.5 524.5,-434.5 629.5,-434.5 629.5,-464.5"/>
<text text-anchor="start" x="532.5" y="-452.5" font-family="Helvetica,sans-Serif" font-size="10.00">doris::TextConverter</text>
<text text-anchor="middle" x="577" y="-441.5" font-family="Helvetica,sans-Serif" font-size="10.00">::write_vec_column</text>
</a>
</g>
</g>
<!-- Node7&#45;&gt;Node15 -->
<g id="edge14" class="edge">
<title>Node7&#45;&gt;Node15</title>
<path fill="none" stroke="#63b8ff" d="M693.03,-449.5C673.07,-449.5 649.98,-449.5 629.74,-449.5"/>
<polygon fill="#63b8ff" stroke="#63b8ff" points="692.86,-453 702.86,-449.5 692.86,-446 692.86,-453"/>
</g>
<!-- Node9 -->
<g id="node9" class="node">
<title>Node9</title>
<g id="a_node9"><a xlink:href="../../db/d9a/classdoris_1_1_v_olap_table_partition_param.html#a9aaba55a94ab7467ffb807bf4d04cfbc" target="_top" xlink:title=" ">
<polygon fill="white" stroke="#666666" points="462,-443.5 313,-443.5 313,-413.5 462,-413.5 462,-443.5"/>
<text text-anchor="start" x="321" y="-431.5" font-family="Helvetica,sans-Serif" font-size="10.00">doris::VOlapTablePartition</text>
<text text-anchor="middle" x="387.5" y="-420.5" font-family="Helvetica,sans-Serif" font-size="10.00">Param::_create_partition_keys</text>
</a>
</g>
</g>
<!-- Node8&#45;&gt;Node9 -->
<g id="edge8" class="edge">
<title>Node8&#45;&gt;Node9</title>
<path fill="none" stroke="#63b8ff" d="M493.41,-413.39C483.02,-414.89 472.45,-416.41 462.21,-417.89"/>
<polygon fill="#63b8ff" stroke="#63b8ff" points="493.68,-416.89 503.08,-412 492.68,-409.96 493.68,-416.89"/>
</g>
<!-- Node10 -->
<g id="node10" class="node">
<title>Node10</title>
<g id="a_node10"><a xlink:href="../../db/d9a/classdoris_1_1_v_olap_table_partition_param.html#a223508714f7b7c2a338265d09a23a25f" target="_top" xlink:title=" ">
<polygon fill="white" stroke="#666666" points="277,-443.5 147,-443.5 147,-413.5 277,-413.5 277,-443.5"/>
<text text-anchor="start" x="155" y="-431.5" font-family="Helvetica,sans-Serif" font-size="10.00">doris::VOlapTablePartition</text>
<text text-anchor="middle" x="212" y="-420.5" font-family="Helvetica,sans-Serif" font-size="10.00">Param::init</text>
</a>
</g>
</g>
<!-- Node9&#45;&gt;Node10 -->
<g id="edge9" class="edge">
<title>Node9&#45;&gt;Node10</title>
<path fill="none" stroke="#63b8ff" d="M301.34,-428.5C293.3,-428.5 285.24,-428.5 277.44,-428.5"/>
<polygon fill="#63b8ff" stroke="#63b8ff" points="301.16,-432 311.16,-428.5 301.16,-425 301.16,-432"/>
</g>
<!-- Node11 -->
<g id="node11" class="node">
<title>Node11</title>
<g id="a_node11"><a xlink:href="../../d2/d6d/classdoris_1_1stream__load_1_1_v_olap_table_sink.html#a51c6b01980e9b13663050ab946ac739b" target="_top" xlink:title=" ">
<polygon fill="white" stroke="#666666" points="111,-443.5 0,-443.5 0,-413.5 111,-413.5 111,-443.5"/>
<text text-anchor="start" x="8" y="-431.5" font-family="Helvetica,sans-Serif" font-size="10.00">doris::stream_load</text>
<text text-anchor="middle" x="55.5" y="-420.5" font-family="Helvetica,sans-Serif" font-size="10.00">::VOlapTableSink::init</text>
</a>
</g>
</g>
<!-- Node10&#45;&gt;Node11 -->
<g id="edge10" class="edge">
<title>Node10&#45;&gt;Node11</title>
<path fill="none" stroke="#63b8ff" d="M135.42,-428.5C127.31,-428.5 119.18,-428.5 111.39,-428.5"/>
<polygon fill="#63b8ff" stroke="#63b8ff" points="135.31,-432 145.31,-428.5 135.31,-425 135.31,-432"/>
</g>
<!-- Node14 -->
<g id="node14" class="node">
<title>Node14</title>
<g id="a_node14"><a xlink:href="../../dc/d0f/classdoris_1_1_scroll_parser.html#a804c5658607debd8ec4688a8b77fceb9" target="_top" xlink:title=" ">
<polygon fill="white" stroke="#666666" points="436,-518.5 339,-518.5 339,-488.5 436,-488.5 436,-518.5"/>
<text text-anchor="start" x="347" y="-506.5" font-family="Helvetica,sans-Serif" font-size="10.00">doris::ScrollParser</text>
<text text-anchor="middle" x="387.5" y="-495.5" font-family="Helvetica,sans-Serif" font-size="10.00">::fill_columns</text>
</a>
</g>
</g>
<!-- Node13&#45;&gt;Node14 -->
<g id="edge13" class="edge">
<title>Node13&#45;&gt;Node14</title>
<path fill="none" stroke="#63b8ff" d="M516.52,-503.5C490.63,-503.5 460.7,-503.5 436.3,-503.5"/>
<polygon fill="#63b8ff" stroke="#63b8ff" points="516.2,-507 526.2,-503.5 516.2,-500 516.2,-507"/>
</g>
<!-- Node17 -->
<g id="node17" class="node">
<title>Node17</title>
<g id="a_node17"><a xlink:href="../../d5/d3d/classdoris_1_1vectorized_1_1_vec_date_time_value.html#ae4c5624b25f196ff38f4cfc895318f75" target="_top" xlink:title=" ">
<polygon fill="white" stroke="#666666" points="635,-241 519,-241 519,-222 635,-222 635,-241"/>
<text text-anchor="middle" x="577" y="-229" font-family="Helvetica,sans-Serif" font-size="10.00">create_from_olap_date</text>
</a>
</g>
</g>
<!-- Node16&#45;&gt;Node17 -->
<g id="edge16" class="edge">
<title>Node16&#45;&gt;Node17</title>
<path fill="none" stroke="#63b8ff" d="M689.97,-231.5C672.62,-231.5 653.18,-231.5 635.44,-231.5"/>
<polygon fill="#63b8ff" stroke="#63b8ff" points="689.53,-235 699.53,-231.5 689.53,-228 689.53,-235"/>
</g>
<!-- Node22 -->
<g id="node22" class="node">
<title>Node22</title>
<g id="a_node22"><a xlink:href="../../dd/d9b/structdoris_1_1_date_find_op.html#a18ed4a17612b448e5980b83c0454267d" target="_top" xlink:title=" ">
<polygon fill="white" stroke="#666666" points="628,-203.5 526,-203.5 526,-173.5 628,-173.5 628,-203.5"/>
<text text-anchor="start" x="534" y="-191.5" font-family="Helvetica,sans-Serif" font-size="10.00">doris::DateFindOp::</text>
<text text-anchor="middle" x="577" y="-180.5" font-family="Helvetica,sans-Serif" font-size="10.00">find_olap_engine</text>
</a>
</g>
</g>
<!-- Node16&#45;&gt;Node22 -->
<g id="edge21" class="edge">
<title>Node16&#45;&gt;Node22</title>
<path fill="none" stroke="#63b8ff" d="M692.99,-218.65C672.55,-213.29 648.83,-207.07 628.26,-201.68"/>
<polygon fill="#63b8ff" stroke="#63b8ff" points="691.94,-221.99 702.5,-221.14 693.71,-215.22 691.94,-221.99"/>
</g>
<!-- Node18 -->
<g id="node18" class="node">
<title>Node18</title>
<g id="a_node18"><a xlink:href="../../d1/d2a/classdoris_1_1vectorized_1_1_r_p_c_fn_impl.html#ae23866de603056ffd37bd91a7e62eda1" target="_top" xlink:title=" ">
<polygon fill="white" stroke="#666666" points="443.5,-217 331.5,-217 331.5,-176 443.5,-176 443.5,-217"/>
<text text-anchor="start" x="339.5" y="-205" font-family="Helvetica,sans-Serif" font-size="10.00">doris::vectorized::</text>
<text text-anchor="start" x="339.5" y="-194" font-family="Helvetica,sans-Serif" font-size="10.00">RPCFnImpl::_convert</text>
<text text-anchor="middle" x="387.5" y="-183" font-family="Helvetica,sans-Serif" font-size="10.00">_col_to_pvalue</text>
</a>
</g>
</g>
<!-- Node17&#45;&gt;Node18 -->
<g id="edge17" class="edge">
<title>Node17&#45;&gt;Node18</title>
<path fill="none" stroke="#63b8ff" d="M511.26,-219.41C489.25,-215.31 464.87,-210.76 443.68,-206.8"/>
<polygon fill="#63b8ff" stroke="#63b8ff" points="510.56,-222.85 521.03,-221.24 511.85,-215.96 510.56,-222.85"/>
</g>
<!-- Node19 -->
<g id="node19" class="node">
<title>Node19</title>
<g id="a_node19"><a xlink:href="../../d3/d1e/namespacedoris_1_1vectorized.html#a063579247509f97dc03ddf540835bea9" target="_top" xlink:title=" ">
<polygon fill="white" stroke="#666666" points="444.5,-265.5 330.5,-265.5 330.5,-235.5 444.5,-235.5 444.5,-265.5"/>
<text text-anchor="start" x="338.5" y="-253.5" font-family="Helvetica,sans-Serif" font-size="10.00">doris::vectorized::</text>
<text text-anchor="middle" x="387.5" y="-242.5" font-family="Helvetica,sans-Serif" font-size="10.00">convert_col_to_pvalue</text>
</a>
</g>
</g>
<!-- Node17&#45;&gt;Node19 -->
<g id="edge18" class="edge">
<title>Node17&#45;&gt;Node19</title>
<path fill="none" stroke="#63b8ff" d="M507.48,-238.44C486.87,-240.53 464.5,-242.8 444.78,-244.8"/>
<polygon fill="#63b8ff" stroke="#63b8ff" points="507.62,-241.95 517.22,-237.46 506.92,-234.98 507.62,-241.95"/>
</g>
<!-- Node20 -->
<g id="node20" class="node">
<title>Node20</title>
<g id="a_node20"><a xlink:href="../../db/dec/classdoris_1_1vectorized_1_1_predicate_column_type.html#a12e248c7ec51e816cce4908822713113" target="_top" xlink:title=" ">
<polygon fill="white" stroke="#666666" points="444,-157.5 331,-157.5 331,-105.5 444,-105.5 444,-157.5"/>
<text text-anchor="start" x="339" y="-145.5" font-family="Helvetica,sans-Serif" font-size="10.00">doris::vectorized::</text>
<text text-anchor="start" x="339" y="-134.5" font-family="Helvetica,sans-Serif" font-size="10.00">PredicateColumnType</text>
<text text-anchor="start" x="339" y="-123.5" font-family="Helvetica,sans-Serif" font-size="10.00">::insert_date_to_res</text>
<text text-anchor="middle" x="387.5" y="-112.5" font-family="Helvetica,sans-Serif" font-size="10.00">_column</text>
</a>
</g>
</g>
<!-- Node17&#45;&gt;Node20 -->
<g id="edge19" class="edge">
<title>Node17&#45;&gt;Node20</title>
<path fill="none" stroke="#63b8ff" d="M508.37,-218.1C504.76,-216.44 501.27,-214.59 498,-212.5 476.4,-198.73 481.98,-183.52 462,-167.5 456.57,-163.15 450.52,-159.14 444.3,-155.51"/>
<polygon fill="#63b8ff" stroke="#63b8ff" points="506.81,-221.24 517.4,-221.68 509.39,-214.74 506.81,-221.24"/>
</g>
<!-- Node21 -->
<g id="node21" class="node">
<title>Node21</title>
<g id="a_node21"><a xlink:href="../../db/dec/classdoris_1_1vectorized_1_1_predicate_column_type.html#a8e455152d923e71a139d9662574dfb8b" target="_top" xlink:title=" ">
<polygon fill="white" stroke="#666666" points="268.5,-241 155.5,-241 155.5,-200 268.5,-200 268.5,-241"/>
<text text-anchor="start" x="163.5" y="-229" font-family="Helvetica,sans-Serif" font-size="10.00">doris::vectorized::</text>
<text text-anchor="start" x="163.5" y="-218" font-family="Helvetica,sans-Serif" font-size="10.00">PredicateColumnType</text>
<text text-anchor="middle" x="212" y="-207" font-family="Helvetica,sans-Serif" font-size="10.00">::filter_by_selector</text>
</a>
</g>
</g>
<!-- Node20&#45;&gt;Node21 -->
<g id="edge20" class="edge">
<title>Node20&#45;&gt;Node21</title>
<path fill="none" stroke="#63b8ff" d="M322.2,-162.85C319.08,-164.41 316,-165.97 313,-167.5 292.69,-177.85 270.26,-189.7 251.79,-199.57"/>
<polygon fill="#63b8ff" stroke="#63b8ff" points="323.48,-166.12 330.86,-158.52 320.35,-159.86 323.48,-166.12"/>
</g>
<!-- Node24 -->
<g id="node24" class="node">
<title>Node24</title>
<g id="a_node24"><a xlink:href="../../d5/d3d/classdoris_1_1vectorized_1_1_vec_date_time_value.html#a87689a75ebeb2d864b72d478e67f76c3" target="_top" xlink:title=" ">
<polygon fill="white" stroke="#666666" points="644,-278 510,-278 510,-259 644,-259 644,-278"/>
<text text-anchor="middle" x="577" y="-266" font-family="Helvetica,sans-Serif" font-size="10.00">create_from_olap_datetime</text>
</a>
</g>
</g>
<!-- Node23&#45;&gt;Node24 -->
<g id="edge23" class="edge">
<title>Node23&#45;&gt;Node24</title>
<path fill="none" stroke="#63b8ff" d="M680.39,-268.5C668.65,-268.5 656.3,-268.5 644.41,-268.5"/>
<polygon fill="#63b8ff" stroke="#63b8ff" points="680.39,-272 690.39,-268.5 680.39,-265 680.39,-272"/>
</g>
<!-- Node24&#45;&gt;Node18 -->
<g id="edge24" class="edge">
<title>Node24&#45;&gt;Node18</title>
<path fill="none" stroke="#63b8ff" d="M510.62,-255.28C506.29,-253.84 502.05,-252.25 498,-250.5 480.34,-242.88 478.99,-235.51 462,-226.5 456.03,-223.34 449.66,-220.28 443.25,-217.42"/>
<polygon fill="#63b8ff" stroke="#63b8ff" points="509.45,-258.58 520.03,-258.14 511.48,-251.89 509.45,-258.58"/>
</g>
<!-- Node24&#45;&gt;Node19 -->
<g id="edge25" class="edge">
<title>Node24&#45;&gt;Node19</title>
<path fill="none" stroke="#63b8ff" d="M498.3,-261.04C480.38,-259.32 461.65,-257.52 444.85,-255.91"/>
<polygon fill="#63b8ff" stroke="#63b8ff" points="497.84,-264.51 508.12,-261.98 498.5,-257.54 497.84,-264.51"/>
</g>
<!-- Node25 -->
<g id="node25" class="node">
<title>Node25</title>
<g id="a_node25"><a xlink:href="../../df/d15/classdoris_1_1vectorized_1_1_column_vector.html#ab0da77ac5326fb2479508e058cff7e58" target="_top" xlink:title=" ">
<polygon fill="white" stroke="#666666" points="442,-395 333,-395 333,-354 442,-354 442,-395"/>
<text text-anchor="start" x="341" y="-383" font-family="Helvetica,sans-Serif" font-size="10.00">doris::vectorized::</text>
<text text-anchor="start" x="341" y="-372" font-family="Helvetica,sans-Serif" font-size="10.00">ColumnVector::insert</text>
<text text-anchor="middle" x="387.5" y="-361" font-family="Helvetica,sans-Serif" font-size="10.00">_datetime_column</text>
</a>
</g>
</g>
<!-- Node24&#45;&gt;Node25 -->
<g id="edge26" class="edge">
<title>Node24&#45;&gt;Node25</title>
<path fill="none" stroke="#63b8ff" d="M554.23,-284.94C531.87,-301.35 495.68,-326.63 462,-344.5 455.79,-347.79 449.14,-350.97 442.47,-353.93"/>
<polygon fill="#63b8ff" stroke="#63b8ff" points="556.03,-287.96 561.98,-279.19 551.86,-282.33 556.03,-287.96"/>
</g>
<!-- Node27 -->
<g id="node27" class="node">
<title>Node27</title>
<g id="a_node27"><a xlink:href="../../db/dec/classdoris_1_1vectorized_1_1_predicate_column_type.html#a0c035884cc28571e568b02327a5f086e" target="_top" xlink:title=" ">
<polygon fill="white" stroke="#666666" points="444,-335.5 331,-335.5 331,-283.5 444,-283.5 444,-335.5"/>
<text text-anchor="start" x="339" y="-323.5" font-family="Helvetica,sans-Serif" font-size="10.00">doris::vectorized::</text>
<text text-anchor="start" x="339" y="-312.5" font-family="Helvetica,sans-Serif" font-size="10.00">PredicateColumnType</text>
<text text-anchor="start" x="339" y="-301.5" font-family="Helvetica,sans-Serif" font-size="10.00">::insert_datetime_to</text>
<text text-anchor="middle" x="387.5" y="-290.5" font-family="Helvetica,sans-Serif" font-size="10.00">_res_column</text>
</a>
</g>
</g>
<!-- Node24&#45;&gt;Node27 -->
<g id="edge28" class="edge">
<title>Node24&#45;&gt;Node27</title>
<path fill="none" stroke="#63b8ff" d="M519.59,-280.83C495.72,-286.06 467.98,-292.12 444.19,-297.32"/>
<polygon fill="#63b8ff" stroke="#63b8ff" points="520.11,-284.3 529.13,-278.75 518.62,-277.47 520.11,-284.3"/>
</g>
<!-- Node26 -->
<g id="node26" class="node">
<title>Node26</title>
<g id="a_node26"><a xlink:href="../../df/d15/classdoris_1_1vectorized_1_1_column_vector.html#a25fb187f907df63615b085fe4b37effd" target="_top" xlink:title=" ">
<polygon fill="white" stroke="#666666" points="266.5,-395 157.5,-395 157.5,-354 266.5,-354 266.5,-395"/>
<text text-anchor="start" x="165.5" y="-383" font-family="Helvetica,sans-Serif" font-size="10.00">doris::vectorized::</text>
<text text-anchor="start" x="165.5" y="-372" font-family="Helvetica,sans-Serif" font-size="10.00">ColumnVector::insert</text>
<text text-anchor="middle" x="212" y="-361" font-family="Helvetica,sans-Serif" font-size="10.00">_many_fix_len_data</text>
</a>
</g>
</g>
<!-- Node25&#45;&gt;Node26 -->
<g id="edge27" class="edge">
<title>Node25&#45;&gt;Node26</title>
<path fill="none" stroke="#63b8ff" d="M321.29,-374.5C303.37,-374.5 284.13,-374.5 266.91,-374.5"/>
<polygon fill="#63b8ff" stroke="#63b8ff" points="321.04,-378 331.04,-374.5 321.04,-371 321.04,-378"/>
</g>
<!-- Node27&#45;&gt;Node21 -->
<g id="edge29" class="edge">
<title>Node27&#45;&gt;Node21</title>
<path fill="none" stroke="#63b8ff" d="M320.3,-278.17C317.83,-276.94 315.39,-275.71 313,-274.5 292.24,-263.96 269.37,-251.66 250.75,-241.47"/>
<polygon fill="#63b8ff" stroke="#63b8ff" points="318.7,-281.28 329.21,-282.56 321.79,-275 318.7,-281.28"/>
</g>
<!-- Node29 -->
<g id="node29" class="node">
<title>Node29</title>
<g id="a_node29"><a xlink:href="../../d5/d3d/classdoris_1_1vectorized_1_1_vec_date_time_value.html#aafbe8989a0969d3e3a0873594a7bb199" target="_top" xlink:title=" ">
<polygon fill="white" stroke="#666666" points="789.5,-130 696.5,-130 696.5,-111 789.5,-111 789.5,-130"/>
<text text-anchor="middle" x="743" y="-118" font-family="Helvetica,sans-Serif" font-size="10.00">date_add_interval</text>
</a>
</g>
</g>
<!-- Node28&#45;&gt;Node29 -->
<g id="edge31" class="edge">
<title>Node28&#45;&gt;Node29</title>
<path fill="none" stroke="#63b8ff" d="M844.83,-144.88C825.33,-140.17 803.48,-134.88 785.11,-130.44"/>
<polygon fill="#63b8ff" stroke="#63b8ff" points="843.99,-148.28 854.53,-147.23 845.63,-141.48 843.99,-148.28"/>
</g>
<!-- Node30 -->
<g id="node30" class="node">
<title>Node30</title>
<g id="a_node30"><a xlink:href="../../d5/d3d/classdoris_1_1vectorized_1_1_vec_date_time_value.html#aab051c942fce50b824d373e9f7f07768" target="_top" xlink:title=" ">
<polygon fill="white" stroke="#666666" points="787.5,-167 698.5,-167 698.5,-148 787.5,-148 787.5,-167"/>
<text text-anchor="middle" x="743" y="-155" font-family="Helvetica,sans-Serif" font-size="10.00">from_date_daynr</text>
</a>
</g>
</g>
<!-- Node28&#45;&gt;Node30 -->
<g id="edge32" class="edge">
<title>Node28&#45;&gt;Node30</title>
<path fill="none" stroke="#63b8ff" d="M832.56,-157.5C817.5,-157.5 801.79,-157.5 787.87,-157.5"/>
<polygon fill="#63b8ff" stroke="#63b8ff" points="832.4,-161 842.4,-157.5 832.4,-154 832.4,-161"/>
</g>
<!-- Node31&#45;&gt;Node29 -->
<g id="edge34" class="edge">
<title>Node31&#45;&gt;Node29</title>
<path fill="none" stroke="#63b8ff" d="M849.35,-120.5C830.39,-120.5 808.66,-120.5 789.88,-120.5"/>
<polygon fill="#63b8ff" stroke="#63b8ff" points="849.23,-124 859.23,-120.5 849.23,-117 849.23,-124"/>
</g>
<!-- Node32 -->
<g id="node32" class="node">
<title>Node32</title>
<g id="a_node32"><a xlink:href="../../d5/d3d/classdoris_1_1vectorized_1_1_vec_date_time_value.html#adf1098272944ccb4925f8575e68ab47f" target="_top" xlink:title=" ">
<polygon fill="white" stroke="#666666" points="783.5,-93 702.5,-93 702.5,-74 783.5,-74 783.5,-93"/>
<text text-anchor="middle" x="743" y="-81" font-family="Helvetica,sans-Serif" font-size="10.00">datetime_trunc</text>
</a>
</g>
</g>
<!-- Node31&#45;&gt;Node32 -->
<g id="edge35" class="edge">
<title>Node31&#45;&gt;Node32</title>
<path fill="none" stroke="#63b8ff" d="M849.73,-109.07C828.58,-103.96 803.94,-97.99 783.76,-93.11"/>
<polygon fill="#63b8ff" stroke="#63b8ff" points="848.73,-112.43 859.27,-111.38 850.37,-105.62 848.73,-112.43"/>
</g>
<!-- Node35 -->
<g id="node35" class="node">
<title>Node35</title>
<g id="a_node35"><a xlink:href="../../d5/d3d/classdoris_1_1vectorized_1_1_vec_date_time_value.html#a86afeea640ad37db9ce4ad111ba072c1" target="_top" xlink:title=" ">
<polygon fill="white" stroke="#666666" points="952,-56 844,-56 844,-37 952,-37 952,-56"/>
<text text-anchor="middle" x="898" y="-44" font-family="Helvetica,sans-Serif" font-size="10.00">create_from_date_v2</text>
</a>
</g>
</g>
<!-- Node34&#45;&gt;Node35 -->
<g id="edge39" class="edge">
<title>Node34&#45;&gt;Node35</title>
<path fill="none" stroke="#63b8ff" d="M999.63,-59.63C985.07,-57.73 968.12,-55.52 952.33,-53.46"/>
<polygon fill="#63b8ff" stroke="#63b8ff" points="998.85,-63.05 1009.22,-60.88 999.75,-56.11 998.85,-63.05"/>
</g>
<!-- Node37 -->
<g id="node37" class="node">
<title>Node37</title>
<g id="a_node37"><a xlink:href="../../d5/d3d/classdoris_1_1vectorized_1_1_vec_date_time_value.html#a79bbf6d60126756893279ec708cc2edf" target="_top" xlink:title=" ">
<polygon fill="white" stroke="#666666" points="937,-19 859,-19 859,0 937,0 937,-19"/>
<text text-anchor="middle" x="898" y="-7" font-family="Helvetica,sans-Serif" font-size="10.00">set_max_time</text>
</a>
</g>
</g>
<!-- Node36&#45;&gt;Node37 -->
<g id="edge41" class="edge">
<title>Node36&#45;&gt;Node37</title>
<path fill="none" stroke="#63b8ff" d="M999.35,-22.59C980.13,-20.08 956.78,-17.04 937.45,-14.51"/>
<polygon fill="#63b8ff" stroke="#63b8ff" points="998.85,-26.05 1009.22,-23.88 999.75,-19.11 998.85,-26.05"/>
</g>
<!-- Node37&#45;&gt;Node6 -->
<g id="edge42" class="edge">
<title>Node37&#45;&gt;Node6</title>
<path fill="none" stroke="#63b8ff" d="M847.41,-20.07C785.08,-33.36 679.17,-55.93 620.42,-68.46"/>
<polygon fill="#63b8ff" stroke="#63b8ff" points="847.99,-23.53 857.04,-18.02 846.53,-16.68 847.99,-23.53"/>
</g>
</g>
</svg>
