<?xml version="1.0" encoding="UTF-8" standalone="no"?>
<!DOCTYPE svg PUBLIC "-//W3C//DTD SVG 1.1//EN"
 "http://www.w3.org/Graphics/SVG/1.1/DTD/svg11.dtd">
<!-- Generated by graphviz version 7.1.0 (20230121.1956)
 -->
<!-- Title: rtrim Pages: 1 -->
<svg width="175pt" height="76pt"
 viewBox="0.00 0.00 175.00 75.50" xmlns="http://www.w3.org/2000/svg" xmlns:xlink="http://www.w3.org/1999/xlink">
<g id="graph0" class="graph" transform="scale(1 1) rotate(0) translate(4 71.5)">
<title>rtrim</title>
<!-- Node1 -->
<g id="node1" class="node">
<title>Node1</title>
<g id="a_node1"><a xlink:title=" ">
<polygon fill="#999999" stroke="#666666" points="167,-45.5 131,-45.5 131,-26.5 167,-26.5 167,-45.5"/>
<text text-anchor="middle" x="149" y="-33.5" font-family="Helvetica,sans-Serif" font-size="10.00">rtrim</text>
</a>
</g>
</g>
<!-- Node2 -->
<g id="node2" class="node">
<title>Node2</title>
<g id="a_node2"><a xlink:href="../../de/d0a/classdoris_1_1simd_1_1_v_string_functions.html#a44a499cdf442251882128e807b591b28" target="_top" xlink:title=" ">
<polygon fill="white" stroke="#666666" points="64,-67.5 31,-67.5 31,-48.5 64,-48.5 64,-67.5"/>
<text text-anchor="middle" x="47.5" y="-55.5" font-family="Helvetica,sans-Serif" font-size="10.00">trim</text>
</a>
</g>
</g>
<!-- Node1&#45;&gt;Node2 -->
<g id="edge1" class="edge">
<title>Node1&#45;&gt;Node2</title>
<path fill="none" stroke="#63b8ff" d="M119.66,-42.27C101.71,-46.23 79.17,-51.22 64.32,-54.5"/>
<polygon fill="#63b8ff" stroke="#63b8ff" points="120.18,-45.74 129.19,-40.16 118.67,-38.9 120.18,-45.74"/>
</g>
<!-- Node3 -->
<g id="node3" class="node">
<title>Node3</title>
<g id="a_node3"><a xlink:href="../../d0/da4/structdoris_1_1vectorized_1_1_trim_impl.html#a56aff9bbe110a463c0b550d1206768bd" target="_top" xlink:title=" ">
<polygon fill="white" stroke="#666666" points="95,-30 0,-30 0,0 95,0 95,-30"/>
<text text-anchor="start" x="8" y="-18" font-family="Helvetica,sans-Serif" font-size="10.00">doris::vectorized::</text>
<text text-anchor="middle" x="47.5" y="-7" font-family="Helvetica,sans-Serif" font-size="10.00">TrimImpl::vector</text>
</a>
</g>
</g>
<!-- Node1&#45;&gt;Node3 -->
<g id="edge2" class="edge">
<title>Node1&#45;&gt;Node3</title>
<path fill="none" stroke="#63b8ff" d="M119.5,-29.99C111.89,-28.38 103.45,-26.6 95.13,-24.84"/>
<polygon fill="#63b8ff" stroke="#63b8ff" points="118.68,-33.39 129.19,-32.03 120.13,-26.54 118.68,-33.39"/>
</g>
</g>
</svg>
