<?xml version="1.0" encoding="UTF-8" standalone="no"?>
<!DOCTYPE svg PUBLIC "-//W3C//DTD SVG 1.1//EN"
 "http://www.w3.org/Graphics/SVG/1.1/DTD/svg11.dtd">
<!-- Generated by graphviz version 7.1.0 (20230121.1956)
 -->
<!-- Title: operator+= Pages: 1 -->
<!--zoomable 608 -->
<svg id="main" version="1.1" xmlns="http://www.w3.org/2000/svg" xmlns:xlink="http://www.w3.org/1999/xlink" xml:space="preserve" onload="init(evt)">
<style type="text/css"><![CDATA[
.edge:hover path { stroke: red; }
.edge:hover polygon { stroke: red; fill: red; }
]]></style>
<script type="text/javascript"><![CDATA[
var edges = document.getElementsByTagName('g');
if (edges && edges.length) {
  for (var i=0;i<edges.length;i++) {
    if (edges[i].id.substr(0,4)=='edge') {
      edges[i].setAttribute('class','edge');
    }
  }
}
]]></script>
        <defs>
                <circle id="rim" cx="0" cy="0" r="7"/>
                <circle id="rim2" cx="0" cy="0" r="3.5"/>
                <g id="zoomPlus">
                        <use xlink:href="#rim" fill="#404040">
                                <set attributeName="fill" to="#808080" begin="zoomplus.mouseover" end="zoomplus.mouseout"/>
                        </use>
                        <path d="M-4,0h8M0,-4v8" fill="none" stroke="white" stroke-width="1.5" pointer-events="none"/>
                </g>
                <g id="zoomMin">
                        <use xlink:href="#rim" fill="#404040">
                                <set attributeName="fill" to="#808080" begin="zoomminus.mouseover" end="zoomminus.mouseout"/>
                        </use>
                        <path d="M-4,0h8" fill="none" stroke="white" stroke-width="1.5" pointer-events="none"/>
                </g>
                <g id="dirArrow">
                        <path fill="none" stroke="white" stroke-width="1.5" d="M0,-3.0v7 M-2.5,-0.5L0,-3.0L2.5,-0.5"/>
                </g>
               <g id="resetDef">
                       <use xlink:href="#rim2" fill="#404040">
                               <set attributeName="fill" to="#808080" begin="reset.mouseover" end="reset.mouseout"/>
                       </use>
               </g>
        </defs>

<script type="text/javascript">
var viewWidth = 671;
var viewHeight = 608;
var sectionId = 'dynsection-61';
</script>
<script xlink:href="../../svgpan.js"/>
<svg id="graph" class="graph">
<g id="viewport">
<title>operator+=</title>
<!-- Node1 -->
<g id="node1" class="node">
<title>Node1</title>
<g id="a_node1"><a xlink:title=" ">
<polygon fill="#999999" stroke="#666666" points="64,-433 0,-433 0,-414 64,-414 64,-433"/>
<text text-anchor="middle" x="32" y="-421" font-family="Helvetica,sans-Serif" font-size="10.00">operator+=</text>
</a>
</g>
</g>
<!-- Node2 -->
<g id="node2" class="node">
<title>Node2</title>
<g id="a_node2"><a xlink:href="../../d4/dde/classdoris_1_1_date_time_value.html#a8d44a73ae235b5681fc802c1a92aada5" target="_top" xlink:title=" ">
<polygon fill="white" stroke="#666666" points="193,-433 100,-433 100,-414 193,-414 193,-433"/>
<text text-anchor="middle" x="146.5" y="-421" font-family="Helvetica,sans-Serif" font-size="10.00">date_add_interval</text>
</a>
</g>
</g>
<!-- Node1&#45;&gt;Node2 -->
<g id="edge1" class="edge">
<title>Node1&#45;&gt;Node2</title>
<path fill="none" stroke="#63b8ff" d="M64.34,-423.5C71.85,-423.5 80.1,-423.5 88.38,-423.5"/>
<polygon fill="#63b8ff" stroke="#63b8ff" points="88.1,-427 98.1,-423.5 88.1,-420 88.1,-427"/>
</g>
<!-- Node3 -->
<g id="node3" class="node">
<title>Node3</title>
<g id="a_node3"><a xlink:href="../../d4/dde/classdoris_1_1_date_time_value.html#a68a7bef2af9df52ac0609de431ff0d6b" target="_top" xlink:title=" ">
<polygon fill="white" stroke="#666666" points="549,-585 485,-585 485,-566 549,-566 549,-585"/>
<text text-anchor="middle" x="517" y="-573" font-family="Helvetica,sans-Serif" font-size="10.00">calc_daynr</text>
</a>
</g>
</g>
<!-- Node2&#45;&gt;Node3 -->
<g id="edge2" class="edge">
<title>Node2&#45;&gt;Node3</title>
<path fill="none" stroke="#63b8ff" d="M156.42,-433.42C170.55,-448.67 199.54,-478.05 229,-496.5 287.61,-533.22 306.23,-537.46 373,-555.5 406.07,-564.44 444.59,-569.53 473.31,-572.34"/>
<polygon fill="#63b8ff" stroke="#63b8ff" points="472.8,-575.81 483.08,-573.24 473.44,-568.84 472.8,-575.81"/>
</g>
<!-- Node7 -->
<g id="node7" class="node">
<title>Node7</title>
<g id="a_node7"><a xlink:href="../../d4/dde/classdoris_1_1_date_time_value.html#a93fb61889d5982fafc14754dd985e869" target="_top" xlink:title=" ">
<polygon fill="white" stroke="#666666" points="429.5,-547 388.5,-547 388.5,-528 429.5,-528 429.5,-547"/>
<text text-anchor="middle" x="409" y="-535" font-family="Helvetica,sans-Serif" font-size="10.00">daynr</text>
</a>
</g>
</g>
<!-- Node2&#45;&gt;Node7 -->
<g id="edge6" class="edge">
<title>Node2&#45;&gt;Node7</title>
<path fill="none" stroke="#63b8ff" d="M170.16,-433.42C217.08,-453.95 324.88,-501.13 377.7,-524.24"/>
<polygon fill="#63b8ff" stroke="#63b8ff" points="376.15,-527.38 386.71,-528.18 378.96,-520.97 376.15,-527.38"/>
</g>
<!-- Node8 -->
<g id="node8" class="node">
<title>Node8</title>
<g id="a_node8"><a xlink:href="../../d4/dde/classdoris_1_1_date_time_value.html#a7e997d8114d92eb76420cd2ca57afdce" target="_top" xlink:title=" ">
<polygon fill="white" stroke="#666666" points="337,-433 229,-433 229,-414 337,-414 337,-433"/>
<text text-anchor="middle" x="283" y="-421" font-family="Helvetica,sans-Serif" font-size="10.00">get_date_from_daynr</text>
</a>
</g>
</g>
<!-- Node2&#45;&gt;Node8 -->
<g id="edge8" class="edge">
<title>Node2&#45;&gt;Node8</title>
<path fill="none" stroke="#63b8ff" d="M193.41,-423.5C201.17,-423.5 209.35,-423.5 217.48,-423.5"/>
<polygon fill="#63b8ff" stroke="#63b8ff" points="217.37,-427 227.37,-423.5 217.37,-420 217.37,-427"/>
</g>
<!-- Node11 -->
<g id="node11" class="node">
<title>Node11</title>
<g id="a_node11"><a xlink:href="../../d6/d94/namespacedoris.html#ab3bf7ae1998587a6e9699350e5da1ef2" target="_top" xlink:title=" ">
<polygon fill="white" stroke="#666666" points="663,-19 589,-19 589,0 663,0 663,-19"/>
<text text-anchor="middle" x="626" y="-7" font-family="Helvetica,sans-Serif" font-size="10.00">doris::is_leap</text>
</a>
</g>
</g>
<!-- Node2&#45;&gt;Node11 -->
<g id="edge37" class="edge">
<title>Node2&#45;&gt;Node11</title>
<path fill="none" stroke="#63b8ff" d="M150.74,-413.57C166.67,-366.19 241.39,-160.99 373,-54.5 431.38,-7.26 522.49,-2.78 577.68,-5.19"/>
<polygon fill="#63b8ff" stroke="#63b8ff" points="577.2,-8.67 587.38,-5.71 577.58,-1.68 577.2,-8.67"/>
</g>
<!-- Node18 -->
<g id="node18" class="node">
<title>Node18</title>
<g id="a_node18"><a xlink:href="../../d4/dde/classdoris_1_1_date_time_value.html#aeb71d5b10b07bbaae94b16130766e077" target="_top" xlink:title=" ">
<polygon fill="white" stroke="#666666" points="320,-340 246,-340 246,-321 320,-321 320,-340"/>
<text text-anchor="middle" x="283" y="-328" font-family="Helvetica,sans-Serif" font-size="10.00">is_valid_date</text>
</a>
</g>
</g>
<!-- Node2&#45;&gt;Node18 -->
<g id="edge38" class="edge">
<title>Node2&#45;&gt;Node18</title>
<path fill="none" stroke="#63b8ff" d="M161.89,-413.55C184.95,-397.61 230.4,-366.18 258.3,-346.89"/>
<polygon fill="#63b8ff" stroke="#63b8ff" points="260.23,-349.81 266.46,-341.24 256.25,-344.05 260.23,-349.81"/>
</g>
<!-- Node4 -->
<g id="node4" class="node">
<title>Node4</title>
<g id="a_node4"><a xlink:href="../../d4/dde/classdoris_1_1_date_time_value.html#a912344e9b0a67db916e2bac3c43337dc" target="_top" xlink:title=" ">
<polygon fill="white" stroke="#666666" points="642,-170 610,-170 610,-151 642,-151 642,-170"/>
<text text-anchor="middle" x="626" y="-158" font-family="Helvetica,sans-Serif" font-size="10.00">day</text>
</a>
</g>
</g>
<!-- Node3&#45;&gt;Node4 -->
<g id="edge3" class="edge">
<title>Node3&#45;&gt;Node4</title>
<path fill="none" stroke="#63b8ff" d="M520.54,-565.65C534.33,-512.17 600.31,-256.27 619.66,-181.23"/>
<polygon fill="#63b8ff" stroke="#63b8ff" points="622.95,-182.46 622.06,-171.91 616.17,-180.72 622.95,-182.46"/>
</g>
<!-- Node5 -->
<g id="node5" class="node">
<title>Node5</title>
<g id="a_node5"><a xlink:href="../../d4/dde/classdoris_1_1_date_time_value.html#a9418bae7320038816691fbb13ce3b90a" target="_top" xlink:title=" ">
<polygon fill="white" stroke="#666666" points="648,-547 604,-547 604,-528 648,-528 648,-547"/>
<text text-anchor="middle" x="626" y="-535" font-family="Helvetica,sans-Serif" font-size="10.00">month</text>
</a>
</g>
</g>
<!-- Node3&#45;&gt;Node5 -->
<g id="edge4" class="edge">
<title>Node3&#45;&gt;Node5</title>
<path fill="none" stroke="#63b8ff" d="M546.11,-565.52C560.52,-560.4 578.13,-554.15 593.05,-548.85"/>
<polygon fill="#63b8ff" stroke="#63b8ff" points="594.16,-552.17 602.41,-545.52 591.82,-545.57 594.16,-552.17"/>
</g>
<!-- Node6 -->
<g id="node6" class="node">
<title>Node6</title>
<g id="a_node6"><a xlink:href="../../d4/dde/classdoris_1_1_date_time_value.html#a1b5cb174b9b809888ca1cadfb32791f4" target="_top" xlink:title=" ">
<polygon fill="white" stroke="#666666" points="643.5,-471 608.5,-471 608.5,-452 643.5,-452 643.5,-471"/>
<text text-anchor="middle" x="626" y="-459" font-family="Helvetica,sans-Serif" font-size="10.00">year</text>
</a>
</g>
</g>
<!-- Node3&#45;&gt;Node6 -->
<g id="edge5" class="edge">
<title>Node3&#45;&gt;Node6</title>
<path fill="none" stroke="#63b8ff" d="M527.12,-565.78C545.05,-546.68 585.11,-504 608.03,-479.58"/>
<polygon fill="#63b8ff" stroke="#63b8ff" points="610.57,-481.99 614.86,-472.3 605.47,-477.19 610.57,-481.99"/>
</g>
<!-- Node7&#45;&gt;Node3 -->
<g id="edge7" class="edge">
<title>Node7&#45;&gt;Node3</title>
<path fill="none" stroke="#63b8ff" d="M429.94,-544.65C443.29,-549.43 461.3,-555.89 477.4,-561.66"/>
<polygon fill="#63b8ff" stroke="#63b8ff" points="476.13,-564.93 486.73,-565.01 478.49,-558.34 476.13,-564.93"/>
</g>
<!-- Node8&#45;&gt;Node3 -->
<g id="edge9" class="edge">
<title>Node8&#45;&gt;Node3</title>
<path fill="none" stroke="#63b8ff" d="M300.97,-433.43C340.96,-456.83 438.23,-513.82 445,-518.5 462.96,-530.91 482.21,-546.53 496.13,-558.27"/>
<polygon fill="#63b8ff" stroke="#63b8ff" points="493.8,-560.89 503.68,-564.71 498.34,-555.56 493.8,-560.89"/>
</g>
<!-- Node8&#45;&gt;Node4 -->
<g id="edge24" class="edge">
<title>Node8&#45;&gt;Node4</title>
<path fill="none" stroke="#63b8ff" d="M292.03,-413.82C303.2,-400 323.59,-373.51 337,-348.5 357.95,-309.44 352.75,-294.93 373,-255.5 413.04,-177.54 403.9,-132.18 481,-90.5 509.15,-75.28 523.35,-78.46 553,-90.5 578.25,-100.75 599.51,-124.58 612.24,-141.59"/>
<polygon fill="#63b8ff" stroke="#63b8ff" points="609.17,-143.32 617.83,-149.43 614.87,-139.25 609.17,-143.32"/>
</g>
<!-- Node8&#45;&gt;Node5 -->
<g id="edge27" class="edge">
<title>Node8&#45;&gt;Node5</title>
<path fill="none" stroke="#63b8ff" d="M288,-433.36C298.36,-457.67 328.39,-521.02 373,-555.5 413.26,-586.62 430.84,-584.93 481,-593.5 512.54,-598.89 522.73,-603.89 553,-593.5 574.87,-586 595.22,-568.83 608.66,-555.47"/>
<polygon fill="#63b8ff" stroke="#63b8ff" points="610.99,-558.1 615.4,-548.47 605.94,-553.25 610.99,-558.1"/>
</g>
<!-- Node8&#45;&gt;Node6 -->
<g id="edge36" class="edge">
<title>Node8&#45;&gt;Node6</title>
<path fill="none" stroke="#63b8ff" d="M326.75,-433.44C366.46,-442.17 427.36,-454.26 481,-459.5 521.06,-463.41 567.69,-463.19 596.78,-462.49"/>
<polygon fill="#63b8ff" stroke="#63b8ff" points="596.69,-466 606.59,-462.22 596.49,-459 596.69,-466"/>
</g>
<!-- Node8&#45;&gt;Node7 -->
<g id="edge25" class="edge">
<title>Node8&#45;&gt;Node7</title>
<path fill="none" stroke="#63b8ff" d="M292.55,-433.3C307.81,-450.51 341.13,-486.87 373,-513.5 376.09,-516.08 379.46,-518.66 382.84,-521.11"/>
<polygon fill="#63b8ff" stroke="#63b8ff" points="380.75,-523.92 390.96,-526.73 384.73,-518.16 380.75,-523.92"/>
</g>
<!-- Node9 -->
<g id="node9" class="node">
<title>Node9</title>
<g id="a_node9"><a xlink:href="../../d4/dde/classdoris_1_1_date_time_value.html#a887074b47f26777710ac9194a2dee3bf" target="_top" xlink:title=" ">
<polygon fill="white" stroke="#666666" points="445,-284 373,-284 373,-265 445,-265 445,-284"/>
<text text-anchor="middle" x="409" y="-272" font-family="Helvetica,sans-Serif" font-size="10.00">check_range</text>
</a>
</g>
</g>
<!-- Node8&#45;&gt;Node9 -->
<g id="edge10" class="edge">
<title>Node8&#45;&gt;Node9</title>
<path fill="none" stroke="#63b8ff" d="M292.14,-413.72C312.55,-389.2 366.18,-324.75 392.7,-292.88"/>
<polygon fill="#63b8ff" stroke="#63b8ff" points="395.32,-295.21 399.03,-285.28 389.94,-290.73 395.32,-295.21"/>
</g>
<!-- Node8&#45;&gt;Node11 -->
<g id="edge26" class="edge">
<title>Node8&#45;&gt;Node11</title>
<path fill="none" stroke="#63b8ff" d="M293.22,-413.73C305.39,-400.21 326.51,-374.53 337,-348.5 376.68,-250.1 307.36,-195.86 373,-112.5 423.3,-48.62 519.8,-24.08 577.69,-14.86"/>
<polygon fill="#63b8ff" stroke="#63b8ff" points="577.85,-18.37 587.23,-13.43 576.82,-11.45 577.85,-18.37"/>
</g>
<!-- Node17 -->
<g id="node17" class="node">
<title>Node17</title>
<g id="a_node17"><a xlink:href="../../d4/dde/classdoris_1_1_date_time_value.html#a54b108cccba88abced3b1df465a5c9a2" target="_top" xlink:title=" ">
<polygon fill="white" stroke="#666666" points="436,-414 382,-414 382,-395 436,-395 436,-414"/>
<text text-anchor="middle" x="409" y="-402" font-family="Helvetica,sans-Serif" font-size="10.00">set_time</text>
</a>
</g>
</g>
<!-- Node8&#45;&gt;Node17 -->
<g id="edge28" class="edge">
<title>Node8&#45;&gt;Node17</title>
<path fill="none" stroke="#63b8ff" d="M337.31,-415.33C348.47,-413.62 360.01,-411.85 370.45,-410.25"/>
<polygon fill="#63b8ff" stroke="#63b8ff" points="370.84,-413.73 380.2,-408.76 369.78,-406.82 370.84,-413.73"/>
</g>
<!-- Node9&#45;&gt;Node4 -->
<g id="edge16" class="edge">
<title>Node9&#45;&gt;Node4</title>
<path fill="none" stroke="#63b8ff" d="M410.54,-264.92C412.8,-234.87 424.3,-142.27 481,-104.5 507.63,-86.76 522.73,-94.11 553,-104.5 574.87,-112 595.22,-129.17 608.66,-142.53"/>
<polygon fill="#63b8ff" stroke="#63b8ff" points="605.94,-144.75 615.4,-149.53 610.99,-139.9 605.94,-144.75"/>
</g>
<!-- Node9&#45;&gt;Node5 -->
<g id="edge20" class="edge">
<title>Node9&#45;&gt;Node5</title>
<path fill="none" stroke="#63b8ff" d="M427.32,-264.73C456.84,-249.52 517.16,-224.96 553,-255.5 629.75,-320.9 553.72,-385.04 589,-479.5 594.22,-493.47 603,-507.71 610.58,-518.59"/>
<polygon fill="#63b8ff" stroke="#63b8ff" points="607.73,-520.62 616.44,-526.64 613.39,-516.5 607.73,-520.62"/>
</g>
<!-- Node9&#45;&gt;Node6 -->
<g id="edge23" class="edge">
<title>Node9&#45;&gt;Node6</title>
<path fill="none" stroke="#63b8ff" d="M418.98,-264.89C431.47,-252.3 455.44,-230.86 481,-222.5 511.41,-212.55 527.32,-203.41 553,-222.5 588.75,-249.07 613.51,-387.06 621.88,-440.41"/>
<polygon fill="#63b8ff" stroke="#63b8ff" points="618.42,-440.92 623.38,-450.27 625.34,-439.86 618.42,-440.92"/>
</g>
<!-- Node10 -->
<g id="node10" class="node">
<title>Node10</title>
<g id="a_node10"><a xlink:href="../../d4/dde/classdoris_1_1_date_time_value.html#afa27cb082c3b1b49d0a97a9c44ed674f" target="_top" xlink:title=" ">
<polygon fill="white" stroke="#666666" points="550.5,-170 483.5,-170 483.5,-151 550.5,-151 550.5,-170"/>
<text text-anchor="middle" x="517" y="-158" font-family="Helvetica,sans-Serif" font-size="10.00">check_date</text>
</a>
</g>
</g>
<!-- Node9&#45;&gt;Node10 -->
<g id="edge11" class="edge">
<title>Node9&#45;&gt;Node10</title>
<path fill="none" stroke="#63b8ff" d="M416.4,-264.51C427.92,-247 453.53,-210.19 481,-184.5 483.89,-181.8 487.1,-179.18 490.37,-176.72"/>
<polygon fill="#63b8ff" stroke="#63b8ff" points="492.13,-179.77 498.31,-171.17 488.11,-174.03 492.13,-179.77"/>
</g>
<!-- Node12 -->
<g id="node12" class="node">
<title>Node12</title>
<g id="a_node12"><a xlink:href="../../d4/dde/classdoris_1_1_date_time_value.html#a110d566ff7f9edf7cbfe15355f8c637c" target="_top" xlink:title=" ">
<polygon fill="white" stroke="#666666" points="534.5,-395 499.5,-395 499.5,-376 534.5,-376 534.5,-395"/>
<text text-anchor="middle" x="517" y="-383" font-family="Helvetica,sans-Serif" font-size="10.00">hour</text>
</a>
</g>
</g>
<!-- Node9&#45;&gt;Node12 -->
<g id="edge17" class="edge">
<title>Node9&#45;&gt;Node12</title>
<path fill="none" stroke="#63b8ff" d="M415.73,-284.45C426.58,-302.6 451.66,-341.52 481,-366.5 483.52,-368.64 486.31,-370.65 489.2,-372.49"/>
<polygon fill="#63b8ff" stroke="#63b8ff" points="487.33,-375.46 497.75,-377.36 490.79,-369.37 487.33,-375.46"/>
</g>
<!-- Node13 -->
<g id="node13" class="node">
<title>Node13</title>
<g id="a_node13"><a xlink:href="../../d4/dde/classdoris_1_1_date_time_value.html#a503f92b1e74d5767e8fb7b81beef881c" target="_top" xlink:title=" ">
<polygon fill="white" stroke="#666666" points="553,-358 481,-358 481,-339 553,-339 553,-358"/>
<text text-anchor="middle" x="517" y="-346" font-family="Helvetica,sans-Serif" font-size="10.00">microsecond</text>
</a>
</g>
</g>
<!-- Node9&#45;&gt;Node13 -->
<g id="edge18" class="edge">
<title>Node9&#45;&gt;Node13</title>
<path fill="none" stroke="#63b8ff" d="M421.62,-284.45C435.34,-295.97 459.06,-315.18 481,-329.5 482.82,-330.69 484.73,-331.88 486.67,-333.04"/>
<polygon fill="#63b8ff" stroke="#63b8ff" points="484.68,-335.94 495.1,-337.84 488.15,-329.85 484.68,-335.94"/>
</g>
<!-- Node14 -->
<g id="node14" class="node">
<title>Node14</title>
<g id="a_node14"><a xlink:href="../../d4/dde/classdoris_1_1_date_time_value.html#ae91256ab81b246d3f40eddbd4c016f5f" target="_top" xlink:title=" ">
<polygon fill="white" stroke="#666666" points="540,-321 494,-321 494,-302 540,-302 540,-321"/>
<text text-anchor="middle" x="517" y="-309" font-family="Helvetica,sans-Serif" font-size="10.00">minute</text>
</a>
</g>
</g>
<!-- Node9&#45;&gt;Node14 -->
<g id="edge19" class="edge">
<title>Node9&#45;&gt;Node14</title>
<path fill="none" stroke="#63b8ff" d="M438.41,-284.42C452.05,-289.18 468.49,-294.92 482.72,-299.88"/>
<polygon fill="#63b8ff" stroke="#63b8ff" points="481.54,-303.18 492.13,-303.17 483.85,-296.57 481.54,-303.18"/>
</g>
<!-- Node15 -->
<g id="node15" class="node">
<title>Node15</title>
<g id="a_node15"><a xlink:href="../../d4/dde/classdoris_1_1_date_time_value.html#aa0cba22e21d8081f564e6a68edab1ae0" target="_top" xlink:title=" ">
<polygon fill="white" stroke="#666666" points="541,-284 493,-284 493,-265 541,-265 541,-284"/>
<text text-anchor="middle" x="517" y="-272" font-family="Helvetica,sans-Serif" font-size="10.00">second</text>
</a>
</g>
</g>
<!-- Node9&#45;&gt;Node15 -->
<g id="edge21" class="edge">
<title>Node9&#45;&gt;Node15</title>
<path fill="none" stroke="#63b8ff" d="M445.3,-274.5C456.83,-274.5 469.62,-274.5 481.13,-274.5"/>
<polygon fill="#63b8ff" stroke="#63b8ff" points="481.02,-278 491.02,-274.5 481.02,-271 481.02,-278"/>
</g>
<!-- Node16 -->
<g id="node16" class="node">
<title>Node16</title>
<g id="a_node16"><a xlink:href="../../d4/dde/classdoris_1_1_date_time_value.html#ac7669d23a52243a270e53e53051bcd86" target="_top" xlink:title=" ">
<polygon fill="white" stroke="#666666" points="534.5,-133 499.5,-133 499.5,-114 534.5,-114 534.5,-133"/>
<text text-anchor="middle" x="517" y="-121" font-family="Helvetica,sans-Serif" font-size="10.00">type</text>
</a>
</g>
</g>
<!-- Node9&#45;&gt;Node16 -->
<g id="edge22" class="edge">
<title>Node9&#45;&gt;Node16</title>
<path fill="none" stroke="#63b8ff" d="M413,-264.55C420.68,-240.57 443.14,-178.78 481,-141.5 483.5,-139.04 486.4,-136.84 489.45,-134.9"/>
<polygon fill="#63b8ff" stroke="#63b8ff" points="490.87,-138.11 498.02,-130.28 487.55,-131.95 490.87,-138.11"/>
</g>
<!-- Node10&#45;&gt;Node4 -->
<g id="edge12" class="edge">
<title>Node10&#45;&gt;Node4</title>
<path fill="none" stroke="#63b8ff" d="M550.98,-160.5C566.23,-160.5 584.11,-160.5 598.48,-160.5"/>
<polygon fill="#63b8ff" stroke="#63b8ff" points="598.07,-164 608.07,-160.5 598.07,-157 598.07,-164"/>
</g>
<!-- Node10&#45;&gt;Node5 -->
<g id="edge14" class="edge">
<title>Node10&#45;&gt;Node5</title>
<path fill="none" stroke="#63b8ff" d="M525.2,-170.47C533.35,-182.28 546.34,-202.83 553,-222.5 590,-331.74 549.74,-371.05 589,-479.5 594.07,-493.52 602.85,-507.76 610.47,-518.63"/>
<polygon fill="#63b8ff" stroke="#63b8ff" points="607.63,-520.68 616.37,-526.67 613.28,-516.54 607.63,-520.68"/>
</g>
<!-- Node10&#45;&gt;Node6 -->
<g id="edge15" class="edge">
<title>Node10&#45;&gt;Node6</title>
<path fill="none" stroke="#63b8ff" d="M537.53,-170.36C543.25,-174.09 549.02,-178.83 553,-184.5 610.52,-266.45 622.1,-391 624.42,-440.32"/>
<polygon fill="#63b8ff" stroke="#63b8ff" points="620.92,-440.28 624.79,-450.14 627.91,-440.02 620.92,-440.28"/>
</g>
<!-- Node10&#45;&gt;Node11 -->
<g id="edge13" class="edge">
<title>Node10&#45;&gt;Node11</title>
<path fill="none" stroke="#63b8ff" d="M540.79,-150.61C545.17,-148.06 549.48,-145.02 553,-141.5 585.82,-108.75 607.76,-57.9 618.12,-29.83"/>
<polygon fill="#63b8ff" stroke="#63b8ff" points="621.29,-31.34 621.34,-20.74 614.7,-29 621.29,-31.34"/>
</g>
<!-- Node17&#45;&gt;Node4 -->
<g id="edge29" class="edge">
<title>Node17&#45;&gt;Node4</title>
<path fill="none" stroke="#63b8ff" d="M436.43,-412.9C467.58,-421.03 519.37,-428.8 553,-403.5 589.22,-376.26 613.77,-235.53 621.98,-181.58"/>
<polygon fill="#63b8ff" stroke="#63b8ff" points="625.41,-182.28 623.41,-171.88 618.49,-181.26 625.41,-182.28"/>
</g>
<!-- Node17&#45;&gt;Node5 -->
<g id="edge33" class="edge">
<title>Node17&#45;&gt;Node5</title>
<path fill="none" stroke="#63b8ff" d="M421.62,-414.46C435.34,-425.98 459.06,-445.19 481,-459.5 518.55,-483.98 564.45,-507.89 594.19,-522.65"/>
<polygon fill="#63b8ff" stroke="#63b8ff" points="592.49,-525.71 603.01,-526.98 595.58,-519.43 592.49,-525.71"/>
</g>
<!-- Node17&#45;&gt;Node6 -->
<g id="edge35" class="edge">
<title>Node17&#45;&gt;Node6</title>
<path fill="none" stroke="#63b8ff" d="M427.85,-414.45C441.89,-421.86 462.17,-431.67 481,-437.5 520.19,-449.63 567.4,-456.01 596.81,-459.07"/>
<polygon fill="#63b8ff" stroke="#63b8ff" points="596.45,-462.55 606.74,-460.04 597.13,-455.59 596.45,-462.55"/>
</g>
<!-- Node17&#45;&gt;Node12 -->
<g id="edge30" class="edge">
<title>Node17&#45;&gt;Node12</title>
<path fill="none" stroke="#63b8ff" d="M436.47,-399.75C452.11,-396.95 471.9,-393.4 487.82,-390.55"/>
<polygon fill="#63b8ff" stroke="#63b8ff" points="488.4,-394 497.63,-388.79 487.17,-387.11 488.4,-394"/>
</g>
<!-- Node17&#45;&gt;Node13 -->
<g id="edge31" class="edge">
<title>Node17&#45;&gt;Node13</title>
<path fill="none" stroke="#63b8ff" d="M428.34,-394.58C442.66,-386.86 463.05,-375.92 481,-366.5 482.91,-365.5 484.87,-364.47 486.86,-363.44"/>
<polygon fill="#63b8ff" stroke="#63b8ff" points="488.09,-366.74 495.37,-359.04 484.88,-360.52 488.09,-366.74"/>
</g>
<!-- Node17&#45;&gt;Node14 -->
<g id="edge32" class="edge">
<title>Node17&#45;&gt;Node14</title>
<path fill="none" stroke="#63b8ff" d="M417.43,-394.74C429.48,-379.39 454.62,-349.31 481,-329.5 481.98,-328.76 483,-328.04 484.05,-327.33"/>
<polygon fill="#63b8ff" stroke="#63b8ff" points="485.77,-330.38 492.55,-322.23 482.17,-324.37 485.77,-330.38"/>
</g>
<!-- Node17&#45;&gt;Node15 -->
<g id="edge34" class="edge">
<title>Node17&#45;&gt;Node15</title>
<path fill="none" stroke="#63b8ff" d="M414.1,-394.59C423.28,-373.43 447.35,-323.25 481,-292.5 481.75,-291.81 482.53,-291.15 483.34,-290.5"/>
<polygon fill="#63b8ff" stroke="#63b8ff" points="485.01,-293.59 491.39,-285.13 481.12,-287.77 485.01,-293.59"/>
</g>
<!-- Node18&#45;&gt;Node9 -->
<g id="edge39" class="edge">
<title>Node18&#45;&gt;Node9</title>
<path fill="none" stroke="#63b8ff" d="M305.88,-320.62C325.24,-311.87 353.75,-299 375.72,-289.08"/>
<polygon fill="#63b8ff" stroke="#63b8ff" points="376.87,-292.4 384.54,-285.1 373.98,-286.02 376.87,-292.4"/>
</g>
</g>
</svg>
        <g id="navigator" transform="translate(0 0)" fill="#404254">
                <rect fill="#f2f5e9" fill-opacity="0.5" stroke="#606060" stroke-width=".5" x="0" y="0" width="60" height="60"/>
                <use id="zoomplus" xlink:href="#zoomPlus" x="17" y="9" onmousedown="handleZoom(evt,'in')"/>
                <use id="zoomminus" xlink:href="#zoomMin" x="42" y="9" onmousedown="handleZoom(evt,'out')"/>
                <use id="reset" xlink:href="#resetDef" x="30" y="36" onmousedown="handleReset()"/>
                <g id="arrowUp" xlink:href="#dirArrow" transform="translate(30 24)" onmousedown="handlePan(0,-1)">
                  <use xlink:href="#rim" fill="#404040">
                        <set attributeName="fill" to="#808080" begin="arrowUp.mouseover" end="arrowUp.mouseout"/>
                  </use>
                  <path fill="none" stroke="white" stroke-width="1.5" d="M0,-3.0v7 M-2.5,-0.5L0,-3.0L2.5,-0.5"/>
                </g>
                <g id="arrowRight" xlink:href="#dirArrow" transform="rotate(90) translate(36 -43)" onmousedown="handlePan(1,0)">
                  <use xlink:href="#rim" fill="#404040">
                        <set attributeName="fill" to="#808080" begin="arrowRight.mouseover" end="arrowRight.mouseout"/>
                  </use>
                  <path fill="none" stroke="white" stroke-width="1.5" d="M0,-3.0v7 M-2.5,-0.5L0,-3.0L2.5,-0.5"/>
                </g>
                <g id="arrowDown" xlink:href="#dirArrow" transform="rotate(180) translate(-30 -48)" onmousedown="handlePan(0,1)">
                  <use xlink:href="#rim" fill="#404040">
                        <set attributeName="fill" to="#808080" begin="arrowDown.mouseover" end="arrowDown.mouseout"/>
                  </use>
                  <path fill="none" stroke="white" stroke-width="1.5" d="M0,-3.0v7 M-2.5,-0.5L0,-3.0L2.5,-0.5"/>
                </g>
                <g id="arrowLeft" xlink:href="#dirArrow" transform="rotate(270) translate(-36 17)" onmousedown="handlePan(-1,0)">
                  <use xlink:href="#rim" fill="#404040">
                        <set attributeName="fill" to="#808080" begin="arrowLeft.mouseover" end="arrowLeft.mouseout"/>
                  </use>
                  <path fill="none" stroke="white" stroke-width="1.5" d="M0,-3.0v7 M-2.5,-0.5L0,-3.0L2.5,-0.5"/>
                </g>
        </g>
        <svg viewBox="0 0 15 15" width="100%" height="30px" preserveAspectRatio="xMaxYMin meet">
         <g id="arrow_out" transform="scale(0.3 0.3)">
          <a xlink:href="classdoris_1_1_date_time_value_a2416ba55b706a89485c78506600b5932_cgraph_org.svg" target="_base">
           <rect id="button" ry="5" rx="5" y="6" x="6" height="38" width="38"
                fill="#f2f5e9" fill-opacity="0.5" stroke="#606060" stroke-width="1.0"/>
           <path id="arrow"
             d="M 11.500037,31.436501 C 11.940474,20.09759 22.043105,11.32322 32.158766,21.979434 L 37.068811,17.246167 C 37.068811,17.246167 37.088388,32 37.088388,32 L 22.160133,31.978069 C 22.160133,31.978069 26.997745,27.140456 26.997745,27.140456 C 18.528582,18.264221 13.291696,25.230495 11.500037,31.436501 z"
             style="fill:#404040;"/>
          </a>
         </g>
        </svg>
</svg>
