<?xml version="1.0" encoding="UTF-8" standalone="no"?>
<!DOCTYPE svg PUBLIC "-//W3C//DTD SVG 1.1//EN"
 "http://www.w3.org/Graphics/SVG/1.1/DTD/svg11.dtd">
<!-- Generated by graphviz version 7.1.0 (20230121.1956)
 -->
<!-- Title: start_plan_fragment_execution Pages: 1 -->
<svg width="883pt" height="330pt"
 viewBox="0.00 0.00 883.00 329.50" xmlns="http://www.w3.org/2000/svg" xmlns:xlink="http://www.w3.org/1999/xlink">
<g id="graph0" class="graph" transform="scale(1 1) rotate(0) translate(4 325.5)">
<title>start_plan_fragment_execution</title>
<!-- Node1 -->
<g id="node1" class="node">
<title>Node1</title>
<g id="a_node1"><a xlink:title=" ">
<polygon fill="#999999" stroke="#666666" points="103,-266 0,-266 0,-236 103,-236 103,-266"/>
<text text-anchor="start" x="8" y="-254" font-family="Helvetica,sans-Serif" font-size="10.00">start_plan_fragment</text>
<text text-anchor="middle" x="51.5" y="-243" font-family="Helvetica,sans-Serif" font-size="10.00">_execution</text>
</a>
</g>
</g>
<!-- Node2 -->
<g id="node2" class="node">
<title>Node2</title>
<g id="a_node2"><a xlink:href="../../d2/d1a/classdoris_1_1_fragment_mgr.html#a093494c19fb16af6f64f07f08625a9cd" target="_top" xlink:title=" ">
<polygon fill="white" stroke="#666666" points="249,-202 139,-202 139,-172 249,-172 249,-202"/>
<text text-anchor="start" x="147" y="-190" font-family="Helvetica,sans-Serif" font-size="10.00">doris::FragmentMgr</text>
<text text-anchor="middle" x="194" y="-179" font-family="Helvetica,sans-Serif" font-size="10.00">::exec_plan_fragment</text>
</a>
</g>
</g>
<!-- Node1&#45;&gt;Node2 -->
<g id="edge1" class="edge">
<title>Node1&#45;&gt;Node2</title>
<path fill="none" stroke="#63b8ff" d="M86.51,-235.51C105.32,-226.94 128.91,-216.2 149.1,-207"/>
<polygon fill="#63b8ff" stroke="#63b8ff" points="150.28,-210.31 157.92,-202.98 147.37,-203.94 150.28,-210.31"/>
</g>
<!-- Node5 -->
<g id="node5" class="node">
<title>Node5</title>
<g id="a_node5"><a xlink:href="../../d9/dbd/classdoris_1_1_exec_env.html#ab242c18e94933c747f08b07052d9a0fd" target="_top" xlink:title=" ">
<polygon fill="white" stroke="#666666" points="622,-321.5 473,-321.5 473,-302.5 622,-302.5 622,-321.5"/>
<text text-anchor="middle" x="547.5" y="-309.5" font-family="Helvetica,sans-Serif" font-size="10.00">doris::ExecEnv::fragment_mgr</text>
</a>
</g>
</g>
<!-- Node1&#45;&gt;Node5 -->
<g id="edge19" class="edge">
<title>Node1&#45;&gt;Node5</title>
<path fill="none" stroke="#63b8ff" d="M103.42,-263.18C150.31,-273.89 221.93,-288.99 285,-297 343.61,-304.44 410.08,-308.19 461.34,-310.08"/>
<polygon fill="#63b8ff" stroke="#63b8ff" points="461.07,-313.58 471.19,-310.43 461.32,-306.58 461.07,-313.58"/>
</g>
<!-- Node2&#45;&gt;Node2 -->
<g id="edge3" class="edge">
<title>Node2&#45;&gt;Node2</title>
<path fill="none" stroke="#63b8ff" d="M168.95,-202.28C163.38,-211.41 171.73,-220 194,-220 206.18,-220 214.19,-217.43 218.04,-213.61"/>
<polygon fill="#63b8ff" stroke="#63b8ff" points="221.52,-214.05 218.92,-203.78 214.55,-213.43 221.52,-214.05"/>
</g>
<!-- Node3 -->
<g id="node3" class="node">
<title>Node3</title>
<g id="a_node3"><a xlink:href="../../d6/d94/namespacedoris.html#aa4cb2ac110b7737a86f7c72b7d197d56" target="_top" xlink:title=" ">
<polygon fill="white" stroke="#666666" points="416,-287.5 306,-287.5 306,-268.5 416,-268.5 416,-287.5"/>
<text text-anchor="middle" x="361" y="-275.5" font-family="Helvetica,sans-Serif" font-size="10.00">doris::empty_function</text>
</a>
</g>
</g>
<!-- Node2&#45;&gt;Node3 -->
<g id="edge2" class="edge">
<title>Node2&#45;&gt;Node3</title>
<path fill="none" stroke="#63b8ff" d="M209.83,-202.25C226.59,-218.64 255.44,-244.3 285,-259 289.13,-261.05 293.49,-262.9 297.97,-264.55"/>
<polygon fill="#63b8ff" stroke="#63b8ff" points="296.49,-267.75 307.08,-267.59 298.7,-261.11 296.49,-267.75"/>
</g>
<!-- Node4 -->
<g id="node4" class="node">
<title>Node4</title>
<g id="a_node4"><a xlink:href="../../d6/d43/classdoris_1_1_stream_load_executor.html#a6bcfada771b9880ab1bc2394d9456d33" target="_top" xlink:title=" ">
<polygon fill="white" stroke="#666666" points="428.5,-250 293.5,-250 293.5,-220 428.5,-220 428.5,-250"/>
<text text-anchor="start" x="301.5" y="-238" font-family="Helvetica,sans-Serif" font-size="10.00">doris::StreamLoadExecutor</text>
<text text-anchor="middle" x="361" y="-227" font-family="Helvetica,sans-Serif" font-size="10.00">::execute_plan_fragment</text>
</a>
</g>
</g>
<!-- Node2&#45;&gt;Node4 -->
<g id="edge4" class="edge">
<title>Node2&#45;&gt;Node4</title>
<path fill="none" stroke="#63b8ff" d="M249.48,-196.46C270.87,-202.11 295.1,-209.27 315.42,-215.96"/>
<polygon fill="#63b8ff" stroke="#63b8ff" points="314.23,-219.25 324.82,-219.13 316.47,-212.62 314.23,-219.25"/>
</g>
<!-- Node11 -->
<g id="node11" class="node">
<title>Node11</title>
<g id="a_node11"><a xlink:href="../../d9/dbd/classdoris_1_1_exec_env.html#a57b18cbc060b1ef413db5893496f2ef0" target="_top" xlink:title=" ">
<polygon fill="white" stroke="#666666" points="414.5,-202 307.5,-202 307.5,-172 414.5,-172 414.5,-202"/>
<text text-anchor="start" x="315.5" y="-190" font-family="Helvetica,sans-Serif" font-size="10.00">doris::ExecEnv::new</text>
<text text-anchor="middle" x="361" y="-179" font-family="Helvetica,sans-Serif" font-size="10.00">_load_stream_mgr</text>
</a>
</g>
</g>
<!-- Node2&#45;&gt;Node11 -->
<g id="edge12" class="edge">
<title>Node2&#45;&gt;Node11</title>
<path fill="none" stroke="#63b8ff" d="M249.48,-187C264.3,-187 280.47,-187 295.77,-187"/>
<polygon fill="#63b8ff" stroke="#63b8ff" points="295.74,-190.5 305.74,-187 295.74,-183.5 295.74,-190.5"/>
</g>
<!-- Node12 -->
<g id="node12" class="node">
<title>Node12</title>
<g id="a_node12"><a xlink:href="../../d9/d8d/classdoris_1_1_status.html#a6ec1a217f203269ab53d2290d602db24" target="_top" xlink:title=" ">
<polygon fill="white" stroke="#666666" points="593.5,-134.5 501.5,-134.5 501.5,-115.5 593.5,-115.5 593.5,-134.5"/>
<text text-anchor="middle" x="547.5" y="-122.5" font-family="Helvetica,sans-Serif" font-size="10.00">doris::Status::OK</text>
</a>
</g>
</g>
<!-- Node2&#45;&gt;Node12 -->
<g id="edge13" class="edge">
<title>Node2&#45;&gt;Node12</title>
<path fill="none" stroke="#63b8ff" d="M249.01,-171.51C260.81,-168.43 273.28,-165.41 285,-163 355.13,-148.61 436.93,-137.64 490.11,-131.27"/>
<polygon fill="#63b8ff" stroke="#63b8ff" points="490.32,-134.77 499.84,-130.12 489.49,-127.82 490.32,-134.77"/>
</g>
<!-- Node14 -->
<g id="node14" class="node">
<title>Node14</title>
<g id="a_node14"><a xlink:href="../../d7/d86/classdoris_1_1_new_load_stream_mgr.html#a34236cc8670225b60be98a6e8321c80b" target="_top" xlink:title=" ">
<polygon fill="white" stroke="#666666" points="437,-115.5 285,-115.5 285,-96.5 437,-96.5 437,-115.5"/>
<text text-anchor="middle" x="361" y="-103.5" font-family="Helvetica,sans-Serif" font-size="10.00">doris::NewLoadStreamMgr::put</text>
</a>
</g>
</g>
<!-- Node2&#45;&gt;Node14 -->
<g id="edge15" class="edge">
<title>Node2&#45;&gt;Node14</title>
<path fill="none" stroke="#63b8ff" d="M215.94,-171.57C233.64,-159.06 260.03,-141.67 285,-130 293.45,-126.05 302.73,-122.5 311.79,-119.42"/>
<polygon fill="#63b8ff" stroke="#63b8ff" points="312.79,-122.77 321.22,-116.36 310.63,-116.11 312.79,-122.77"/>
</g>
<!-- Node15 -->
<g id="node15" class="node">
<title>Node15</title>
<g id="a_node15"><a xlink:href="../../d2/d1a/classdoris_1_1_fragment_mgr.html#aab9d65bb744880b79c9be973061fc087" target="_top" xlink:title=" ">
<polygon fill="white" stroke="#666666" points="411.5,-78 310.5,-78 310.5,-48 411.5,-48 411.5,-78"/>
<text text-anchor="start" x="318.5" y="-66" font-family="Helvetica,sans-Serif" font-size="10.00">doris::FragmentMgr</text>
<text text-anchor="middle" x="361" y="-55" font-family="Helvetica,sans-Serif" font-size="10.00">::set_pipe</text>
</a>
</g>
</g>
<!-- Node2&#45;&gt;Node15 -->
<g id="edge17" class="edge">
<title>Node2&#45;&gt;Node15</title>
<path fill="none" stroke="#63b8ff" d="M204.75,-171.83C219.54,-149.99 249.69,-109.82 285,-87 289.57,-84.05 294.53,-81.43 299.65,-79.12"/>
<polygon fill="#63b8ff" stroke="#63b8ff" points="300.95,-82.37 308.9,-75.37 298.32,-75.88 300.95,-82.37"/>
</g>
<!-- Node16 -->
<g id="node16" class="node">
<title>Node16</title>
<g id="a_node16"><a xlink:href="../../d9/dbd/classdoris_1_1_exec_env.html#ab7dc71e7b9f839a98669730486c69a1f" target="_top" xlink:title=" ">
<polygon fill="white" stroke="#666666" points="420.5,-30 301.5,-30 301.5,0 420.5,0 420.5,-30"/>
<text text-anchor="start" x="309.5" y="-18" font-family="Helvetica,sans-Serif" font-size="10.00">doris::ExecEnv::stream</text>
<text text-anchor="middle" x="361" y="-7" font-family="Helvetica,sans-Serif" font-size="10.00">_load_executor</text>
</a>
</g>
</g>
<!-- Node2&#45;&gt;Node16 -->
<g id="edge18" class="edge">
<title>Node2&#45;&gt;Node16</title>
<path fill="none" stroke="#63b8ff" d="M200.21,-171.51C211.11,-141.48 239.17,-75.09 285,-39 287.01,-37.42 289.12,-35.94 291.32,-34.56"/>
<polygon fill="#63b8ff" stroke="#63b8ff" points="292.92,-37.67 300.04,-29.82 289.58,-31.52 292.92,-37.67"/>
</g>
<!-- Node4&#45;&gt;Node2 -->
<g id="edge5" class="edge">
<title>Node4&#45;&gt;Node2</title>
<path fill="none" stroke="#63b8ff" d="M293.21,-222.21C275.05,-217.18 255.83,-211.4 239.26,-205.93"/>
<polygon fill="#63b8ff" stroke="#63b8ff" points="240.82,-202.77 230.22,-202.88 238.58,-209.4 240.82,-202.77"/>
</g>
<!-- Node4&#45;&gt;Node5 -->
<g id="edge6" class="edge">
<title>Node4&#45;&gt;Node5</title>
<path fill="none" stroke="#63b8ff" d="M416.75,-250.45C423.75,-253.23 430.67,-256.41 437,-260 455.36,-270.42 454.42,-280.98 473,-291 478.26,-293.83 483.94,-296.32 489.73,-298.5"/>
<polygon fill="#63b8ff" stroke="#63b8ff" points="488.18,-301.67 498.77,-301.59 490.44,-295.04 488.18,-301.67"/>
</g>
<!-- Node6 -->
<g id="node6" class="node">
<title>Node6</title>
<g id="a_node6"><a xlink:href="../../d6/d94/namespacedoris.html#a540ead1508c04b2183033d49b3aedeb8" target="_top" xlink:title=" ">
<polygon fill="white" stroke="#666666" points="606,-281.5 489,-281.5 489,-262.5 606,-262.5 606,-281.5"/>
<text text-anchor="middle" x="547.5" y="-269.5" font-family="Helvetica,sans-Serif" font-size="10.00">doris::MonotonicNanos</text>
</a>
</g>
</g>
<!-- Node4&#45;&gt;Node6 -->
<g id="edge7" class="edge">
<title>Node4&#45;&gt;Node6</title>
<path fill="none" stroke="#63b8ff" d="M428.87,-248.41C447.4,-252.13 467.42,-256.14 485.59,-259.78"/>
<polygon fill="#63b8ff" stroke="#63b8ff" points="484.66,-263.17 495.15,-261.7 486.04,-256.3 484.66,-263.17"/>
</g>
<!-- Node9 -->
<g id="node9" class="node">
<title>Node9</title>
<g id="a_node9"><a xlink:href="../../d6/d94/namespacedoris.html#ab0606cb3935fd04241aef36f19b050fa" target="_top" xlink:title=" ">
<polygon fill="white" stroke="#666666" points="585,-244.5 510,-244.5 510,-225.5 585,-225.5 585,-244.5"/>
<text text-anchor="middle" x="547.5" y="-232.5" font-family="Helvetica,sans-Serif" font-size="10.00">doris::print_id</text>
</a>
</g>
</g>
<!-- Node4&#45;&gt;Node9 -->
<g id="edge10" class="edge">
<title>Node4&#45;&gt;Node9</title>
<path fill="none" stroke="#63b8ff" d="M428.87,-235C451.84,-235 477.09,-235 498.29,-235"/>
<polygon fill="#63b8ff" stroke="#63b8ff" points="498.09,-238.5 508.09,-235 498.09,-231.5 498.09,-238.5"/>
</g>
<!-- Node10 -->
<g id="node10" class="node">
<title>Node10</title>
<g id="a_node10"><a xlink:href="../../d5/d6e/classdoris_1_1_stream_load_context.html#ae84429cc5d55e687f3abbd5c0bfe7430" target="_top" xlink:title=" ">
<polygon fill="white" stroke="#666666" points="621.5,-207.5 473.5,-207.5 473.5,-188.5 621.5,-188.5 621.5,-207.5"/>
<text text-anchor="middle" x="547.5" y="-195.5" font-family="Helvetica,sans-Serif" font-size="10.00">doris::StreamLoadContext::ref</text>
</a>
</g>
</g>
<!-- Node4&#45;&gt;Node10 -->
<g id="edge11" class="edge">
<title>Node4&#45;&gt;Node10</title>
<path fill="none" stroke="#63b8ff" d="M428.87,-221.59C447.4,-217.87 467.42,-213.86 485.59,-210.22"/>
<polygon fill="#63b8ff" stroke="#63b8ff" points="486.04,-213.7 495.15,-208.3 484.66,-206.83 486.04,-213.7"/>
</g>
<!-- Node7 -->
<g id="node7" class="node">
<title>Node7</title>
<g id="a_node7"><a xlink:href="../../dc/dd3/clock__gettime_8c.html#a1033612ad5e07b4883265544a5361377" target="_top" xlink:title=" ">
<polygon fill="white" stroke="#666666" points="750,-281.5 673,-281.5 673,-262.5 750,-262.5 750,-281.5"/>
<text text-anchor="middle" x="711.5" y="-269.5" font-family="Helvetica,sans-Serif" font-size="10.00">clock_gettime</text>
</a>
</g>
</g>
<!-- Node6&#45;&gt;Node7 -->
<g id="edge8" class="edge">
<title>Node6&#45;&gt;Node7</title>
<path fill="none" stroke="#63b8ff" d="M606.07,-272C624.19,-272 644.01,-272 661.48,-272"/>
<polygon fill="#63b8ff" stroke="#63b8ff" points="661.34,-275.5 671.34,-272 661.34,-268.5 661.34,-275.5"/>
</g>
<!-- Node8 -->
<g id="node8" class="node">
<title>Node8</title>
<g id="a_node8"><a xlink:href="../../dc/df5/syscall__ret_8c.html#ac5a9fe7bbf4e56db4c22dbb286f18f45" target="_top" xlink:title=" ">
<polygon fill="white" stroke="#666666" points="875,-281.5 801,-281.5 801,-262.5 875,-262.5 875,-281.5"/>
<text text-anchor="middle" x="838" y="-269.5" font-family="Helvetica,sans-Serif" font-size="10.00">__syscall_ret</text>
</a>
</g>
</g>
<!-- Node7&#45;&gt;Node8 -->
<g id="edge9" class="edge">
<title>Node7&#45;&gt;Node8</title>
<path fill="none" stroke="#63b8ff" d="M750.19,-272C762.59,-272 776.54,-272 789.57,-272"/>
<polygon fill="#63b8ff" stroke="#63b8ff" points="789.2,-275.5 799.2,-272 789.2,-268.5 789.2,-275.5"/>
</g>
<!-- Node13 -->
<g id="node13" class="node">
<title>Node13</title>
<g id="a_node13"><a xlink:href="../../d9/d8d/classdoris_1_1_status.html#aafde58df1b2a6a91d5b674373be3ffc5" target="_top" xlink:title=" ">
<polygon fill="white" stroke="#666666" points="765,-134.5 658,-134.5 658,-115.5 765,-115.5 765,-134.5"/>
<text text-anchor="middle" x="711.5" y="-122.5" font-family="Helvetica,sans-Serif" font-size="10.00">doris::Status::Status</text>
</a>
</g>
</g>
<!-- Node12&#45;&gt;Node13 -->
<g id="edge14" class="edge">
<title>Node12&#45;&gt;Node13</title>
<path fill="none" stroke="#63b8ff" d="M593.63,-125C609.91,-125 628.61,-125 646.22,-125"/>
<polygon fill="#63b8ff" stroke="#63b8ff" points="646.07,-128.5 656.07,-125 646.07,-121.5 646.07,-128.5"/>
</g>
<!-- Node14&#45;&gt;Node12 -->
<g id="edge16" class="edge">
<title>Node14&#45;&gt;Node12</title>
<path fill="none" stroke="#63b8ff" d="M437.31,-113.76C454.88,-115.56 473.29,-117.46 489.89,-119.17"/>
<polygon fill="#63b8ff" stroke="#63b8ff" points="489.25,-122.62 499.55,-120.17 489.96,-115.66 489.25,-122.62"/>
</g>
</g>
</svg>
