<?xml version="1.0" encoding="UTF-8" standalone="no"?>
<!DOCTYPE svg PUBLIC "-//W3C//DTD SVG 1.1//EN"
 "http://www.w3.org/Graphics/SVG/1.1/DTD/svg11.dtd">
<!-- Generated by graphviz version 7.1.0 (20230121.1956)
 -->
<!-- Title: check_storage_format Pages: 1 -->
<svg width="280pt" height="146pt"
 viewBox="0.00 0.00 280.00 145.50" xmlns="http://www.w3.org/2000/svg" xmlns:xlink="http://www.w3.org/1999/xlink">
<g id="graph0" class="graph" transform="scale(1 1) rotate(0) translate(4 141.5)">
<title>check_storage_format</title>
<!-- Node1 -->
<g id="node1" class="node">
<title>Node1</title>
<g id="a_node1"><a xlink:title=" ">
<polygon fill="#999999" stroke="#666666" points="113,-72.5 0,-72.5 0,-53.5 113,-53.5 113,-72.5"/>
<text text-anchor="middle" x="56.5" y="-60.5" font-family="Helvetica,sans-Serif" font-size="10.00">check_storage_format</text>
</a>
</g>
</g>
<!-- Node2 -->
<g id="node2" class="node">
<title>Node2</title>
<g id="a_node2"><a xlink:href="../../d5/d7e/classdoris_1_1_tablet_manager.html#aac7da552282c41da92adbe041926b1d6" target="_top" xlink:title=" ">
<polygon fill="white" stroke="#666666" points="272,-137.5 149,-137.5 149,-96.5 272,-96.5 272,-137.5"/>
<text text-anchor="start" x="157" y="-125.5" font-family="Helvetica,sans-Serif" font-size="10.00">doris::TabletManager</text>
<text text-anchor="start" x="157" y="-114.5" font-family="Helvetica,sans-Serif" font-size="10.00">::get_all_tablets_storage</text>
<text text-anchor="middle" x="210.5" y="-103.5" font-family="Helvetica,sans-Serif" font-size="10.00">_format</text>
</a>
</g>
</g>
<!-- Node1&#45;&gt;Node2 -->
<g id="edge1" class="edge">
<title>Node1&#45;&gt;Node2</title>
<path fill="none" stroke="#63b8ff" d="M85.38,-72.9C100.78,-78.38 120.66,-85.44 139.98,-92.3"/>
<polygon fill="#63b8ff" stroke="#63b8ff" points="138.61,-95.53 149.2,-95.58 140.95,-88.93 138.61,-95.53"/>
</g>
<!-- Node3 -->
<g id="node3" class="node">
<title>Node3</title>
<g id="a_node3"><a xlink:href="../../d7/d82/classdoris_1_1_storage_engine.html#a2a74d46f061869fa5465ac1269ef208f" target="_top" xlink:title=" ">
<polygon fill="white" stroke="#666666" points="264,-78 157,-78 157,-48 264,-48 264,-78"/>
<text text-anchor="start" x="165" y="-66" font-family="Helvetica,sans-Serif" font-size="10.00">doris::StorageEngine</text>
<text text-anchor="middle" x="210.5" y="-55" font-family="Helvetica,sans-Serif" font-size="10.00">::instance</text>
</a>
</g>
</g>
<!-- Node1&#45;&gt;Node3 -->
<g id="edge2" class="edge">
<title>Node1&#45;&gt;Node3</title>
<path fill="none" stroke="#63b8ff" d="M113.24,-63C123.63,-63 134.56,-63 145.19,-63"/>
<polygon fill="#63b8ff" stroke="#63b8ff" points="145.04,-66.5 155.04,-63 145.04,-59.5 145.04,-66.5"/>
</g>
<!-- Node4 -->
<g id="node4" class="node">
<title>Node4</title>
<g id="a_node4"><a xlink:href="../../d7/d82/classdoris_1_1_storage_engine.html#adc0eb54af3511550e59e94eaa8bfc00a" target="_top" xlink:title=" ">
<polygon fill="white" stroke="#666666" points="264,-30 157,-30 157,0 264,0 264,-30"/>
<text text-anchor="start" x="165" y="-18" font-family="Helvetica,sans-Serif" font-size="10.00">doris::StorageEngine</text>
<text text-anchor="middle" x="210.5" y="-7" font-family="Helvetica,sans-Serif" font-size="10.00">::tablet_manager</text>
</a>
</g>
</g>
<!-- Node1&#45;&gt;Node4 -->
<g id="edge3" class="edge">
<title>Node1&#45;&gt;Node4</title>
<path fill="none" stroke="#63b8ff" d="M88.99,-53.05C106.62,-47.49 129.17,-40.37 149.99,-33.79"/>
<polygon fill="#63b8ff" stroke="#63b8ff" points="150.76,-37.22 159.24,-30.87 148.65,-30.55 150.76,-37.22"/>
</g>
</g>
</svg>
