<?xml version="1.0" encoding="UTF-8" standalone="no"?>
<!DOCTYPE svg PUBLIC "-//W3C//DTD SVG 1.1//EN"
 "http://www.w3.org/Graphics/SVG/1.1/DTD/svg11.dtd">
<!-- Generated by graphviz version 7.1.0 (20230121.1956)
 -->
<!-- Title: /Users/dabowang/be_all/gutil/strings/ascii_ctype.h Pages: 1 -->
<svg width="2822pt" height="280pt"
 viewBox="0.00 0.00 2821.50 280.00" xmlns="http://www.w3.org/2000/svg" xmlns:xlink="http://www.w3.org/1999/xlink">
<g id="graph0" class="graph" transform="scale(1 1) rotate(0) translate(4 276)">
<title>/Users/dabowang/be_all/gutil/strings/ascii_ctype.h</title>
<!-- Node1 -->
<g id="node1" class="node">
<title>Node1</title>
<g id="a_node1"><a xlink:title=" ">
<polygon fill="#999999" stroke="#666666" points="1323,-272 1215,-272 1215,-231 1323,-231 1323,-272"/>
<text text-anchor="start" x="1223" y="-260" font-family="Helvetica,sans-Serif" font-size="10.00">/Users/dabowang/be</text>
<text text-anchor="start" x="1223" y="-249" font-family="Helvetica,sans-Serif" font-size="10.00">_all/gutil/strings/ascii</text>
<text text-anchor="middle" x="1269" y="-238" font-family="Helvetica,sans-Serif" font-size="10.00">_ctype.h</text>
</a>
</g>
</g>
<!-- Node2 -->
<g id="node2" class="node">
<title>Node2</title>
<g id="a_node2"><a xlink:href="../../d1/d6a/ascii__ctype_8cc.html" target="_top" xlink:title=" ">
<polygon fill="white" stroke="#666666" points="892,-195 784,-195 784,-154 892,-154 892,-195"/>
<text text-anchor="start" x="792" y="-183" font-family="Helvetica,sans-Serif" font-size="10.00">/Users/dabowang/be</text>
<text text-anchor="start" x="792" y="-172" font-family="Helvetica,sans-Serif" font-size="10.00">_all/gutil/strings/ascii</text>
<text text-anchor="middle" x="838" y="-161" font-family="Helvetica,sans-Serif" font-size="10.00">_ctype.cc</text>
</a>
</g>
</g>
<!-- Node1&#45;&gt;Node2 -->
<g id="edge1" class="edge">
<title>Node1&#45;&gt;Node2</title>
<path fill="none" stroke="#63b8ff" d="M1203.49,-243.04C1130.44,-234.13 1009.01,-217.55 906,-195 901.56,-194.03 896.98,-192.93 892.4,-191.76"/>
<polygon fill="#63b8ff" stroke="#63b8ff" points="1202.94,-246.5 1213.29,-244.22 1203.78,-239.55 1202.94,-246.5"/>
</g>
<!-- Node3 -->
<g id="node3" class="node">
<title>Node3</title>
<g id="a_node3"><a xlink:href="../../dc/dde/escaping_8h.html" target="_top" xlink:title=" ">
<polygon fill="white" stroke="#666666" points="1083.5,-189.5 948.5,-189.5 948.5,-159.5 1083.5,-159.5 1083.5,-189.5"/>
<text text-anchor="start" x="956.5" y="-177.5" font-family="Helvetica,sans-Serif" font-size="10.00">/Users/dabowang/be</text>
<text text-anchor="middle" x="1016" y="-166.5" font-family="Helvetica,sans-Serif" font-size="10.00">_all/gutil/strings/escaping.h</text>
</a>
</g>
</g>
<!-- Node1&#45;&gt;Node3 -->
<g id="edge2" class="edge">
<title>Node1&#45;&gt;Node3</title>
<path fill="none" stroke="#63b8ff" d="M1203.69,-231.14C1160.26,-218.26 1104.14,-201.63 1064.63,-189.91"/>
<polygon fill="#63b8ff" stroke="#63b8ff" points="1202.69,-234.49 1213.27,-233.98 1204.68,-227.78 1202.69,-234.49"/>
</g>
<!-- Node5 -->
<g id="node5" class="node">
<title>Node5</title>
<g id="a_node5"><a xlink:href="../../dc/d09/join_8cc.html" target="_top" xlink:title=" ">
<polygon fill="white" stroke="#666666" points="739,-112.5 623,-112.5 623,-82.5 739,-82.5 739,-112.5"/>
<text text-anchor="start" x="631" y="-100.5" font-family="Helvetica,sans-Serif" font-size="10.00">/Users/dabowang/be</text>
<text text-anchor="middle" x="681" y="-89.5" font-family="Helvetica,sans-Serif" font-size="10.00">_all/gutil/strings/join.cc</text>
</a>
</g>
</g>
<!-- Node1&#45;&gt;Node5 -->
<g id="edge8" class="edge">
<title>Node1&#45;&gt;Node5</title>
<path fill="none" stroke="#63b8ff" d="M1203.24,-244.5C1120.42,-236.08 983.55,-219.05 939,-195 917.14,-183.2 922.47,-166.5 901,-154 840.63,-118.85 815.56,-135.77 748,-118 742.02,-116.43 735.77,-114.71 729.59,-112.96"/>
<polygon fill="#63b8ff" stroke="#63b8ff" points="1202.74,-247.97 1213.04,-245.48 1203.44,-241 1202.74,-247.97"/>
</g>
<!-- Node6 -->
<g id="node6" class="node">
<title>Node6</title>
<g id="a_node6"><a xlink:href="../../d6/dc8/strcat_8cc.html" target="_top" xlink:title=" ">
<polygon fill="white" stroke="#666666" points="1079,-112.5 953,-112.5 953,-82.5 1079,-82.5 1079,-112.5"/>
<text text-anchor="start" x="961" y="-100.5" font-family="Helvetica,sans-Serif" font-size="10.00">/Users/dabowang/be</text>
<text text-anchor="middle" x="1016" y="-89.5" font-family="Helvetica,sans-Serif" font-size="10.00">_all/gutil/strings/strcat.cc</text>
</a>
</g>
</g>
<!-- Node1&#45;&gt;Node6 -->
<g id="edge12" class="edge">
<title>Node1&#45;&gt;Node6</title>
<path fill="none" stroke="#63b8ff" d="M1226.37,-224.89C1172.83,-192.72 1082.81,-138.64 1040.01,-112.92"/>
<polygon fill="#63b8ff" stroke="#63b8ff" points="1224.25,-227.7 1234.63,-229.85 1227.86,-221.7 1224.25,-227.7"/>
</g>
<!-- Node7 -->
<g id="node7" class="node">
<title>Node7</title>
<g id="a_node7"><a xlink:href="../../d7/de1/substitute_8cc.html" target="_top" xlink:title=" ">
<polygon fill="white" stroke="#666666" points="1241,-112.5 1097,-112.5 1097,-82.5 1241,-82.5 1241,-112.5"/>
<text text-anchor="start" x="1105" y="-100.5" font-family="Helvetica,sans-Serif" font-size="10.00">/Users/dabowang/be</text>
<text text-anchor="middle" x="1169" y="-89.5" font-family="Helvetica,sans-Serif" font-size="10.00">_all/gutil/strings/substitute.cc</text>
</a>
</g>
</g>
<!-- Node1&#45;&gt;Node7 -->
<g id="edge44" class="edge">
<title>Node1&#45;&gt;Node7</title>
<path fill="none" stroke="#63b8ff" d="M1249.72,-221.2C1228.36,-188.72 1194.78,-137.68 1178.49,-112.92"/>
<polygon fill="#63b8ff" stroke="#63b8ff" points="1246.67,-222.93 1255.09,-229.36 1252.52,-219.09 1246.67,-222.93"/>
</g>
<!-- Node9 -->
<g id="node9" class="node">
<title>Node9</title>
<g id="a_node9"><a xlink:href="../../dc/d3b/memutil_8cc.html" target="_top" xlink:title=" ">
<polygon fill="white" stroke="#666666" points="1746,-189.5 1610,-189.5 1610,-159.5 1746,-159.5 1746,-189.5"/>
<text text-anchor="start" x="1618" y="-177.5" font-family="Helvetica,sans-Serif" font-size="10.00">/Users/dabowang/be</text>
<text text-anchor="middle" x="1678" y="-166.5" font-family="Helvetica,sans-Serif" font-size="10.00">_all/gutil/strings/memutil.cc</text>
</a>
</g>
</g>
<!-- Node1&#45;&gt;Node9 -->
<g id="edge9" class="edge">
<title>Node1&#45;&gt;Node9</title>
<path fill="none" stroke="#63b8ff" d="M1334.64,-241.05C1401.63,-231.05 1508.47,-214.08 1600,-195 1607.24,-193.49 1614.83,-191.77 1622.31,-189.99"/>
<polygon fill="#63b8ff" stroke="#63b8ff" points="1334.3,-237.57 1324.92,-242.5 1335.33,-244.49 1334.3,-237.57"/>
</g>
<!-- Node10 -->
<g id="node10" class="node">
<title>Node10</title>
<g id="a_node10"><a xlink:href="../../de/d18/numbers_8cc.html" target="_top" xlink:title=" ">
<polygon fill="white" stroke="#666666" points="1903.5,-189.5 1764.5,-189.5 1764.5,-159.5 1903.5,-159.5 1903.5,-189.5"/>
<text text-anchor="start" x="1772.5" y="-177.5" font-family="Helvetica,sans-Serif" font-size="10.00">/Users/dabowang/be</text>
<text text-anchor="middle" x="1834" y="-166.5" font-family="Helvetica,sans-Serif" font-size="10.00">_all/gutil/strings/numbers.cc</text>
</a>
</g>
</g>
<!-- Node1&#45;&gt;Node10 -->
<g id="edge10" class="edge">
<title>Node1&#45;&gt;Node10</title>
<path fill="none" stroke="#63b8ff" d="M1334.55,-245.7C1428.28,-238.23 1605.76,-221.83 1755,-195 1762.93,-193.58 1771.24,-191.82 1779.37,-189.95"/>
<polygon fill="#63b8ff" stroke="#63b8ff" points="1334.47,-242.2 1324.78,-246.47 1335.02,-249.17 1334.47,-242.2"/>
</g>
<!-- Node11 -->
<g id="node11" class="node">
<title>Node11</title>
<g id="a_node11"><a xlink:href="../../d6/d02/split_8cc.html" target="_top" xlink:title=" ">
<polygon fill="white" stroke="#666666" points="253.5,-35.5 134.5,-35.5 134.5,-5.5 253.5,-5.5 253.5,-35.5"/>
<text text-anchor="start" x="142.5" y="-23.5" font-family="Helvetica,sans-Serif" font-size="10.00">/Users/dabowang/be</text>
<text text-anchor="middle" x="194" y="-12.5" font-family="Helvetica,sans-Serif" font-size="10.00">_all/gutil/strings/split.cc</text>
</a>
</g>
</g>
<!-- Node1&#45;&gt;Node11 -->
<g id="edge11" class="edge">
<title>Node1&#45;&gt;Node11</title>
<path fill="none" stroke="#63b8ff" d="M1276.3,-219.5C1283.52,-180.09 1288.59,-112.89 1250,-77 1209.78,-39.6 316.24,-49.63 262,-41 254.36,-39.78 246.36,-37.99 238.64,-35.96"/>
<polygon fill="#63b8ff" stroke="#63b8ff" points="1272.91,-218.56 1274.38,-229.05 1279.78,-219.93 1272.91,-218.56"/>
</g>
<!-- Node12 -->
<g id="node12" class="node">
<title>Node12</title>
<g id="a_node12"><a xlink:href="../../db/d07/strip_8cc.html" target="_top" xlink:title=" ">
<polygon fill="white" stroke="#666666" points="1417,-112.5 1297,-112.5 1297,-82.5 1417,-82.5 1417,-112.5"/>
<text text-anchor="start" x="1305" y="-100.5" font-family="Helvetica,sans-Serif" font-size="10.00">/Users/dabowang/be</text>
<text text-anchor="middle" x="1357" y="-89.5" font-family="Helvetica,sans-Serif" font-size="10.00">_all/gutil/strings/strip.cc</text>
</a>
</g>
</g>
<!-- Node1&#45;&gt;Node12 -->
<g id="edge13" class="edge">
<title>Node1&#45;&gt;Node12</title>
<path fill="none" stroke="#63b8ff" d="M1286.21,-220.78C1305.02,-188.29 1334.38,-137.57 1348.65,-112.92"/>
<polygon fill="#63b8ff" stroke="#63b8ff" points="1283.24,-218.91 1281.26,-229.32 1289.3,-222.42 1283.24,-218.91"/>
</g>
<!-- Node13 -->
<g id="node13" class="node">
<title>Node13</title>
<g id="a_node13"><a xlink:href="../../d5/dce/strip_8h.html" target="_top" xlink:title=" ">
<polygon fill="white" stroke="#666666" points="1591.5,-189.5 1476.5,-189.5 1476.5,-159.5 1591.5,-159.5 1591.5,-189.5"/>
<text text-anchor="start" x="1484.5" y="-177.5" font-family="Helvetica,sans-Serif" font-size="10.00">/Users/dabowang/be</text>
<text text-anchor="middle" x="1534" y="-166.5" font-family="Helvetica,sans-Serif" font-size="10.00">_all/gutil/strings/strip.h</text>
</a>
</g>
</g>
<!-- Node1&#45;&gt;Node13 -->
<g id="edge14" class="edge">
<title>Node1&#45;&gt;Node13</title>
<path fill="none" stroke="#63b8ff" d="M1334.29,-232.02C1380.15,-219.04 1440.62,-201.93 1482.95,-189.95"/>
<polygon fill="#63b8ff" stroke="#63b8ff" points="1333.39,-228.64 1324.72,-234.73 1335.3,-235.37 1333.39,-228.64"/>
</g>
<!-- Node37 -->
<g id="node37" class="node">
<title>Node37</title>
<g id="a_node37"><a xlink:href="../../d9/d6f/util_8cc.html" target="_top" xlink:title=" ">
<polygon fill="white" stroke="#666666" points="2036,-189.5 1922,-189.5 1922,-159.5 2036,-159.5 2036,-189.5"/>
<text text-anchor="start" x="1930" y="-177.5" font-family="Helvetica,sans-Serif" font-size="10.00">/Users/dabowang/be</text>
<text text-anchor="middle" x="1979" y="-166.5" font-family="Helvetica,sans-Serif" font-size="10.00">_all/gutil/strings/util.cc</text>
</a>
</g>
</g>
<!-- Node1&#45;&gt;Node37 -->
<g id="edge45" class="edge">
<title>Node1&#45;&gt;Node37</title>
<path fill="none" stroke="#63b8ff" d="M1334.6,-249.19C1451.71,-245.9 1704.1,-234.44 1913,-195 1920.04,-193.67 1927.41,-191.89 1934.56,-189.95"/>
<polygon fill="#63b8ff" stroke="#63b8ff" points="1334.77,-245.69 1324.87,-249.46 1334.96,-252.69 1334.77,-245.69"/>
</g>
<!-- Node4 -->
<g id="node4" class="node">
<title>Node4</title>
<g id="a_node4"><a xlink:href="../../d1/da0/escaping_8cc.html" target="_top" xlink:title=" ">
<polygon fill="white" stroke="#666666" points="897,-112.5 757,-112.5 757,-82.5 897,-82.5 897,-112.5"/>
<text text-anchor="start" x="765" y="-100.5" font-family="Helvetica,sans-Serif" font-size="10.00">/Users/dabowang/be</text>
<text text-anchor="middle" x="827" y="-89.5" font-family="Helvetica,sans-Serif" font-size="10.00">_all/gutil/strings/escaping.cc</text>
</a>
</g>
</g>
<!-- Node3&#45;&gt;Node4 -->
<g id="edge3" class="edge">
<title>Node3&#45;&gt;Node4</title>
<path fill="none" stroke="#63b8ff" d="M968.9,-154.81C936.24,-141.85 893.37,-124.84 863.33,-112.92"/>
<polygon fill="#63b8ff" stroke="#63b8ff" points="967.57,-158.05 978.15,-158.48 970.15,-151.54 967.57,-158.05"/>
</g>
<!-- Node3&#45;&gt;Node5 -->
<g id="edge4" class="edge">
<title>Node3&#45;&gt;Node5</title>
<path fill="none" stroke="#63b8ff" d="M945.5,-156.53C941.62,-155.66 937.76,-154.81 934,-154 851.69,-136.26 829.84,-137.79 748,-118 741.76,-116.49 735.23,-114.77 728.8,-112.99"/>
<polygon fill="#63b8ff" stroke="#63b8ff" points="944.5,-159.89 955.03,-158.7 946.05,-153.07 944.5,-159.89"/>
</g>
<!-- Node3&#45;&gt;Node6 -->
<g id="edge5" class="edge">
<title>Node3&#45;&gt;Node6</title>
<path fill="none" stroke="#63b8ff" d="M1016,-147.73C1016,-136.08 1016,-122.76 1016,-112.92"/>
<polygon fill="#63b8ff" stroke="#63b8ff" points="1012.5,-147.53 1016,-157.53 1019.5,-147.53 1012.5,-147.53"/>
</g>
<!-- Node3&#45;&gt;Node7 -->
<g id="edge6" class="edge">
<title>Node3&#45;&gt;Node7</title>
<path fill="none" stroke="#63b8ff" d="M1055.51,-154.13C1081.78,-141.26 1115.7,-124.63 1139.59,-112.92"/>
<polygon fill="#63b8ff" stroke="#63b8ff" points="1054.3,-150.83 1046.86,-158.37 1057.38,-157.11 1054.3,-150.83"/>
</g>
<!-- Node8 -->
<g id="node8" class="node">
<title>Node8</title>
<g id="a_node8"><a xlink:href="../../df/d94/cgroup__util_8cpp.html" target="_top" xlink:title=" ">
<polygon fill="white" stroke="#666666" points="116,-35.5 0,-35.5 0,-5.5 116,-5.5 116,-35.5"/>
<text text-anchor="start" x="8" y="-23.5" font-family="Helvetica,sans-Serif" font-size="10.00">/Users/dabowang/be</text>
<text text-anchor="middle" x="58" y="-12.5" font-family="Helvetica,sans-Serif" font-size="10.00">_all/util/cgroup_util.cpp</text>
</a>
</g>
</g>
<!-- Node3&#45;&gt;Node8 -->
<g id="edge7" class="edge">
<title>Node3&#45;&gt;Node8</title>
<path fill="none" stroke="#63b8ff" d="M986.19,-152.27C972.87,-142.35 957.22,-130.07 944,-118 925.65,-101.25 928.53,-87.46 906,-77 827.21,-40.42 210.7,-55.24 125,-41 117.47,-39.75 109.59,-37.93 101.99,-35.91"/>
<polygon fill="#63b8ff" stroke="#63b8ff" points="984.06,-155.05 994.19,-158.15 988.21,-149.41 984.06,-155.05"/>
</g>
<!-- Node13&#45;&gt;Node12 -->
<g id="edge37" class="edge">
<title>Node13&#45;&gt;Node12</title>
<path fill="none" stroke="#63b8ff" d="M1489.49,-154.64C1458.95,-141.7 1419.03,-124.78 1391.02,-112.92"/>
<polygon fill="#63b8ff" stroke="#63b8ff" points="1487.91,-157.77 1498.48,-158.45 1490.64,-151.32 1487.91,-157.77"/>
</g>
<!-- Node14 -->
<g id="node14" class="node">
<title>Node14</title>
<g id="a_node14"><a xlink:href="../../d4/df2/split_8h.html" target="_top" xlink:title=" ">
<polygon fill="white" stroke="#666666" points="1549,-112.5 1435,-112.5 1435,-82.5 1549,-82.5 1549,-112.5"/>
<text text-anchor="start" x="1443" y="-100.5" font-family="Helvetica,sans-Serif" font-size="10.00">/Users/dabowang/be</text>
<text text-anchor="middle" x="1492" y="-89.5" font-family="Helvetica,sans-Serif" font-size="10.00">_all/gutil/strings/split.h</text>
</a>
</g>
</g>
<!-- Node13&#45;&gt;Node14 -->
<g id="edge15" class="edge">
<title>Node13&#45;&gt;Node14</title>
<path fill="none" stroke="#63b8ff" d="M1520.39,-149.19C1513.68,-137.21 1505.82,-123.18 1500.07,-112.92"/>
<polygon fill="#63b8ff" stroke="#63b8ff" points="1517.22,-150.7 1525.16,-157.72 1523.33,-147.28 1517.22,-150.7"/>
</g>
<!-- Node25 -->
<g id="node25" class="node">
<title>Node25</title>
<g id="a_node25"><a xlink:href="../../db/dcd/file__utils_8cpp.html" target="_top" xlink:title=" ">
<polygon fill="white" stroke="#666666" points="2563.5,-35.5 2456.5,-35.5 2456.5,-5.5 2563.5,-5.5 2563.5,-35.5"/>
<text text-anchor="start" x="2464.5" y="-23.5" font-family="Helvetica,sans-Serif" font-size="10.00">/Users/dabowang/be</text>
<text text-anchor="middle" x="2510" y="-12.5" font-family="Helvetica,sans-Serif" font-size="10.00">_all/util/file_utils.cpp</text>
</a>
</g>
</g>
<!-- Node13&#45;&gt;Node25 -->
<g id="edge40" class="edge">
<title>Node13&#45;&gt;Node25</title>
<path fill="none" stroke="#63b8ff" d="M1543.5,-148.79C1553.83,-125.71 1572.75,-92.55 1601,-77 1683.42,-31.63 2354.29,-57.04 2447,-41 2454.11,-39.77 2461.53,-37.96 2468.69,-35.94"/>
<polygon fill="#63b8ff" stroke="#63b8ff" points="1540.37,-147.22 1539.7,-157.79 1546.82,-149.94 1540.37,-147.22"/>
</g>
<!-- Node28 -->
<g id="node28" class="node">
<title>Node28</title>
<g id="a_node28"><a xlink:href="../../da/dfb/path__util_8cpp.html" target="_top" xlink:title=" ">
<polygon fill="white" stroke="#666666" points="2688.5,-35.5 2581.5,-35.5 2581.5,-5.5 2688.5,-5.5 2688.5,-35.5"/>
<text text-anchor="start" x="2589.5" y="-23.5" font-family="Helvetica,sans-Serif" font-size="10.00">/Users/dabowang/be</text>
<text text-anchor="middle" x="2635" y="-12.5" font-family="Helvetica,sans-Serif" font-size="10.00">_all/util/path_util.cpp</text>
</a>
</g>
</g>
<!-- Node13&#45;&gt;Node28 -->
<g id="edge41" class="edge">
<title>Node13&#45;&gt;Node28</title>
<path fill="none" stroke="#63b8ff" d="M1558.28,-151.53C1569.49,-141.36 1582.95,-129.1 1595,-118 1614.66,-99.89 1614.32,-87.27 1639,-77 1734.88,-37.1 2470.67,-58.74 2573,-41 2580,-39.79 2587.32,-37.99 2594.36,-35.97"/>
<polygon fill="#63b8ff" stroke="#63b8ff" points="1556.02,-148.85 1550.97,-158.16 1560.73,-154.04 1556.02,-148.85"/>
</g>
<!-- Node29 -->
<g id="node29" class="node">
<title>Node29</title>
<g id="a_node29"><a xlink:href="../../dd/d16/s3__uri_8cpp.html" target="_top" xlink:title=" ">
<polygon fill="white" stroke="#666666" points="2813.5,-35.5 2706.5,-35.5 2706.5,-5.5 2813.5,-5.5 2813.5,-35.5"/>
<text text-anchor="start" x="2714.5" y="-23.5" font-family="Helvetica,sans-Serif" font-size="10.00">/Users/dabowang/be</text>
<text text-anchor="middle" x="2760" y="-12.5" font-family="Helvetica,sans-Serif" font-size="10.00">_all/util/s3_uri.cpp</text>
</a>
</g>
</g>
<!-- Node13&#45;&gt;Node29 -->
<g id="edge43" class="edge">
<title>Node13&#45;&gt;Node29</title>
<path fill="none" stroke="#63b8ff" d="M1573.63,-153.78C1591.79,-144.02 1613.18,-131.45 1631,-118 1651.82,-102.29 1649.02,-87.26 1673,-77 1777.77,-32.18 2585.68,-60.27 2698,-41 2705.01,-39.8 2712.32,-38.01 2719.36,-35.99"/>
<polygon fill="#63b8ff" stroke="#63b8ff" points="1572.19,-150.59 1564.98,-158.35 1575.46,-156.78 1572.19,-150.59"/>
</g>
<!-- Node34 -->
<g id="node34" class="node">
<title>Node34</title>
<g id="a_node34"><a xlink:href="../../d0/d43/inverted__index__desc_8cpp.html" target="_top" xlink:title=" ">
<polygon fill="white" stroke="#666666" points="1824.5,-118 1681.5,-118 1681.5,-77 1824.5,-77 1824.5,-118"/>
<text text-anchor="start" x="1689.5" y="-106" font-family="Helvetica,sans-Serif" font-size="10.00">/Users/dabowang/be</text>
<text text-anchor="start" x="1689.5" y="-95" font-family="Helvetica,sans-Serif" font-size="10.00">_all/olap/rowset/segment</text>
<text text-anchor="middle" x="1753" y="-84" font-family="Helvetica,sans-Serif" font-size="10.00">_v2/inverted_index_desc.cpp</text>
</a>
</g>
</g>
<!-- Node13&#45;&gt;Node34 -->
<g id="edge38" class="edge">
<title>Node13&#45;&gt;Node34</title>
<path fill="none" stroke="#63b8ff" d="M1586.89,-155.39C1619.46,-144.23 1661.25,-129.92 1694.76,-118.44"/>
<polygon fill="#63b8ff" stroke="#63b8ff" points="1585.98,-152 1577.66,-158.55 1588.25,-158.62 1585.98,-152"/>
</g>
<!-- Node35 -->
<g id="node35" class="node">
<title>Node35</title>
<g id="a_node35"><a xlink:href="../../d7/d42/inverted__index__reader_8cpp.html" target="_top" xlink:title=" ">
<polygon fill="white" stroke="#666666" points="1991.5,-118 1842.5,-118 1842.5,-77 1991.5,-77 1991.5,-118"/>
<text text-anchor="start" x="1850.5" y="-106" font-family="Helvetica,sans-Serif" font-size="10.00">/Users/dabowang/be</text>
<text text-anchor="start" x="1850.5" y="-95" font-family="Helvetica,sans-Serif" font-size="10.00">_all/olap/rowset/segment</text>
<text text-anchor="middle" x="1917" y="-84" font-family="Helvetica,sans-Serif" font-size="10.00">_v2/inverted_index_reader.cpp</text>
</a>
</g>
</g>
<!-- Node13&#45;&gt;Node35 -->
<g id="edge39" class="edge">
<title>Node13&#45;&gt;Node35</title>
<path fill="none" stroke="#63b8ff" d="M1591.53,-156.24C1594.72,-155.44 1597.9,-154.69 1601,-154 1703.3,-131.31 1731.14,-138 1834,-118 1836.76,-117.46 1839.57,-116.9 1842.4,-116.31"/>
<polygon fill="#63b8ff" stroke="#63b8ff" points="1590.91,-152.78 1582.12,-158.7 1592.68,-159.55 1590.91,-152.78"/>
</g>
<!-- Node36 -->
<g id="node36" class="node">
<title>Node36</title>
<g id="a_node36"><a xlink:href="../../d5/d10/s3__storage__backend_8cpp.html" target="_top" xlink:title=" ">
<polygon fill="white" stroke="#666666" points="2116.5,-118 2009.5,-118 2009.5,-77 2116.5,-77 2116.5,-118"/>
<text text-anchor="start" x="2017.5" y="-106" font-family="Helvetica,sans-Serif" font-size="10.00">/Users/dabowang/be</text>
<text text-anchor="start" x="2017.5" y="-95" font-family="Helvetica,sans-Serif" font-size="10.00">_all/util/s3_storage</text>
<text text-anchor="middle" x="2063" y="-84" font-family="Helvetica,sans-Serif" font-size="10.00">_backend.cpp</text>
</a>
</g>
</g>
<!-- Node13&#45;&gt;Node36 -->
<g id="edge42" class="edge">
<title>Node13&#45;&gt;Node36</title>
<path fill="none" stroke="#63b8ff" d="M1590.11,-156.32C1593.77,-155.46 1597.43,-154.67 1601,-154 1776.4,-120.9 1825.96,-152.98 2001,-118 2003.66,-117.47 2006.36,-116.87 2009.08,-116.21"/>
<polygon fill="#63b8ff" stroke="#63b8ff" points="1589.43,-152.88 1580.59,-158.71 1591.14,-159.66 1589.43,-152.88"/>
</g>
<!-- Node14&#45;&gt;Node8 -->
<g id="edge25" class="edge">
<title>Node14&#45;&gt;Node8</title>
<path fill="none" stroke="#63b8ff" d="M1438.23,-79.38C1434.12,-78.45 1430.01,-77.64 1426,-77 854.71,13.71 696.47,-130.55 125,-41 117.34,-39.8 109.32,-37.98 101.61,-35.93"/>
<polygon fill="#63b8ff" stroke="#63b8ff" points="1437.04,-82.69 1447.59,-81.71 1438.73,-75.89 1437.04,-82.69"/>
</g>
<!-- Node14&#45;&gt;Node11 -->
<g id="edge16" class="edge">
<title>Node14&#45;&gt;Node11</title>
<path fill="none" stroke="#63b8ff" d="M1438.23,-79.39C1434.12,-78.46 1430.01,-77.64 1426,-77 914.96,5 773.37,-120.95 262,-41 254.23,-39.79 246.1,-37.96 238.27,-35.9"/>
<polygon fill="#63b8ff" stroke="#63b8ff" points="1437.04,-82.7 1447.58,-81.72 1438.73,-75.91 1437.04,-82.7"/>
</g>
<!-- Node15 -->
<g id="node15" class="node">
<title>Node15</title>
<g id="a_node15"><a xlink:href="../../db/db1/http__channel_8cpp.html" target="_top" xlink:title=" ">
<polygon fill="white" stroke="#666666" points="549,-35.5 421,-35.5 421,-5.5 549,-5.5 549,-35.5"/>
<text text-anchor="start" x="429" y="-23.5" font-family="Helvetica,sans-Serif" font-size="10.00">/Users/dabowang/be</text>
<text text-anchor="middle" x="485" y="-12.5" font-family="Helvetica,sans-Serif" font-size="10.00">_all/http/http_channel.cpp</text>
</a>
</g>
</g>
<!-- Node14&#45;&gt;Node15 -->
<g id="edge17" class="edge">
<title>Node14&#45;&gt;Node15</title>
<path fill="none" stroke="#63b8ff" d="M1437.67,-79.31C1433.75,-78.42 1429.83,-77.64 1426,-77 1045.09,-13.82 939.7,-99.17 558,-41 549.83,-39.75 541.26,-37.94 532.98,-35.92"/>
<polygon fill="#63b8ff" stroke="#63b8ff" points="1436.67,-82.67 1447.22,-81.7 1438.36,-75.88 1436.67,-82.67"/>
</g>
<!-- Node16 -->
<g id="node16" class="node">
<title>Node16</title>
<g id="a_node16"><a xlink:href="../../d5/d1e/options_8cpp.html" target="_top" xlink:title=" ">
<polygon fill="white" stroke="#666666" points="674.5,-35.5 567.5,-35.5 567.5,-5.5 674.5,-5.5 674.5,-35.5"/>
<text text-anchor="start" x="575.5" y="-23.5" font-family="Helvetica,sans-Serif" font-size="10.00">/Users/dabowang/be</text>
<text text-anchor="middle" x="621" y="-12.5" font-family="Helvetica,sans-Serif" font-size="10.00">_all/olap/options.cpp</text>
</a>
</g>
</g>
<!-- Node14&#45;&gt;Node16 -->
<g id="edge18" class="edge">
<title>Node14&#45;&gt;Node16</title>
<path fill="none" stroke="#63b8ff" d="M1437.48,-79.3C1433.62,-78.42 1429.77,-77.64 1426,-77 1100.04,-21.77 1008.47,-99.07 683,-41 676,-39.75 668.69,-37.94 661.65,-35.91"/>
<polygon fill="#63b8ff" stroke="#63b8ff" points="1436.3,-82.62 1446.85,-81.64 1438,-75.82 1436.3,-82.62"/>
</g>
<!-- Node17 -->
<g id="node17" class="node">
<title>Node17</title>
<g id="a_node17"><a xlink:href="../../dd/d55/engine__clone__task_8cpp.html" target="_top" xlink:title=" ">
<polygon fill="white" stroke="#666666" points="799.5,-41 692.5,-41 692.5,0 799.5,0 799.5,-41"/>
<text text-anchor="start" x="700.5" y="-29" font-family="Helvetica,sans-Serif" font-size="10.00">/Users/dabowang/be</text>
<text text-anchor="start" x="700.5" y="-18" font-family="Helvetica,sans-Serif" font-size="10.00">_all/olap/task/engine</text>
<text text-anchor="middle" x="746" y="-7" font-family="Helvetica,sans-Serif" font-size="10.00">_clone_task.cpp</text>
</a>
</g>
</g>
<!-- Node14&#45;&gt;Node17 -->
<g id="edge19" class="edge">
<title>Node14&#45;&gt;Node17</title>
<path fill="none" stroke="#63b8ff" d="M1437.48,-79.35C1433.61,-78.45 1429.76,-77.66 1426,-77 1155.4,-29.77 1079.29,-89.97 809,-41 805.96,-40.45 802.86,-39.8 799.74,-39.07"/>
<polygon fill="#63b8ff" stroke="#63b8ff" points="1436.29,-82.66 1446.84,-81.7 1438,-75.87 1436.29,-82.66"/>
</g>
<!-- Node18 -->
<g id="node18" class="node">
<title>Node18</title>
<g id="a_node18"><a xlink:href="../../df/d5b/data__consumer_8cpp.html" target="_top" xlink:title=" ">
<polygon fill="white" stroke="#666666" points="946,-41 818,-41 818,0 946,0 946,-41"/>
<text text-anchor="start" x="826" y="-29" font-family="Helvetica,sans-Serif" font-size="10.00">/Users/dabowang/be</text>
<text text-anchor="start" x="826" y="-18" font-family="Helvetica,sans-Serif" font-size="10.00">_all/runtime/routine</text>
<text text-anchor="middle" x="882" y="-7" font-family="Helvetica,sans-Serif" font-size="10.00">_load/data_consumer.cpp</text>
</a>
</g>
</g>
<!-- Node14&#45;&gt;Node18 -->
<g id="edge20" class="edge">
<title>Node14&#45;&gt;Node18</title>
<path fill="none" stroke="#63b8ff" d="M1436.93,-79.3C1433.25,-78.44 1429.58,-77.66 1426,-77 1219.52,-39.05 1161.97,-76.24 955,-41 952.15,-40.52 949.26,-39.97 946.34,-39.38"/>
<polygon fill="#63b8ff" stroke="#63b8ff" points="1435.91,-82.65 1446.47,-81.72 1437.63,-75.87 1435.91,-82.65"/>
</g>
<!-- Node19 -->
<g id="node19" class="node">
<title>Node19</title>
<g id="a_node19"><a xlink:href="../../d8/d3a/small__file__mgr_8cpp.html" target="_top" xlink:title=" ">
<polygon fill="white" stroke="#666666" points="1075.5,-41 964.5,-41 964.5,0 1075.5,0 1075.5,-41"/>
<text text-anchor="start" x="972.5" y="-29" font-family="Helvetica,sans-Serif" font-size="10.00">/Users/dabowang/be</text>
<text text-anchor="start" x="972.5" y="-18" font-family="Helvetica,sans-Serif" font-size="10.00">_all/runtime/small_file</text>
<text text-anchor="middle" x="1020" y="-7" font-family="Helvetica,sans-Serif" font-size="10.00">_mgr.cpp</text>
</a>
</g>
</g>
<!-- Node14&#45;&gt;Node19 -->
<g id="edge21" class="edge">
<title>Node14&#45;&gt;Node19</title>
<path fill="none" stroke="#63b8ff" d="M1436.21,-79.25C1432.77,-78.43 1429.35,-77.67 1426,-77 1276.53,-47.29 1234.41,-71.03 1085,-41 1082,-40.4 1078.93,-39.71 1075.85,-38.98"/>
<polygon fill="#63b8ff" stroke="#63b8ff" points="1435.16,-82.59 1445.72,-81.69 1436.9,-75.81 1435.16,-82.59"/>
</g>
<!-- Node20 -->
<g id="node20" class="node">
<title>Node20</title>
<g id="a_node20"><a xlink:href="../../d3/dbd/user__function__cache_8cpp.html" target="_top" xlink:title=" ">
<polygon fill="white" stroke="#666666" points="1222,-41 1094,-41 1094,0 1222,0 1222,-41"/>
<text text-anchor="start" x="1102" y="-29" font-family="Helvetica,sans-Serif" font-size="10.00">/Users/dabowang/be</text>
<text text-anchor="start" x="1102" y="-18" font-family="Helvetica,sans-Serif" font-size="10.00">_all/runtime/user_function</text>
<text text-anchor="middle" x="1158" y="-7" font-family="Helvetica,sans-Serif" font-size="10.00">_cache.cpp</text>
</a>
</g>
</g>
<!-- Node14&#45;&gt;Node20 -->
<g id="edge22" class="edge">
<title>Node14&#45;&gt;Node20</title>
<path fill="none" stroke="#63b8ff" d="M1434.37,-79.09C1431.55,-78.36 1428.75,-77.66 1426,-77 1340.29,-56.49 1316.97,-60.39 1231,-41 1228.18,-40.37 1225.31,-39.7 1222.42,-39"/>
<polygon fill="#63b8ff" stroke="#63b8ff" points="1433.26,-82.42 1443.83,-81.65 1435.09,-75.66 1433.26,-82.42"/>
</g>
<!-- Node21 -->
<g id="node21" class="node">
<title>Node21</title>
<g id="a_node21"><a xlink:href="../../d6/d50/backend__options_8cpp.html" target="_top" xlink:title=" ">
<polygon fill="white" stroke="#666666" points="1347.5,-41 1240.5,-41 1240.5,0 1347.5,0 1347.5,-41"/>
<text text-anchor="start" x="1248.5" y="-29" font-family="Helvetica,sans-Serif" font-size="10.00">/Users/dabowang/be</text>
<text text-anchor="start" x="1248.5" y="-18" font-family="Helvetica,sans-Serif" font-size="10.00">_all/service/backend</text>
<text text-anchor="middle" x="1294" y="-7" font-family="Helvetica,sans-Serif" font-size="10.00">_options.cpp</text>
</a>
</g>
</g>
<!-- Node14&#45;&gt;Node21 -->
<g id="edge23" class="edge">
<title>Node14&#45;&gt;Node21</title>
<path fill="none" stroke="#63b8ff" d="M1443.41,-78.09C1414.08,-66.98 1376.69,-52.82 1346.65,-41.44"/>
<polygon fill="#63b8ff" stroke="#63b8ff" points="1441.82,-81.23 1452.41,-81.5 1444.3,-74.69 1441.82,-81.23"/>
</g>
<!-- Node22 -->
<g id="node22" class="node">
<title>Node22</title>
<g id="a_node22"><a xlink:href="../../d7/d8f/meta__tool_8cpp.html" target="_top" xlink:title=" ">
<polygon fill="white" stroke="#666666" points="1486,-35.5 1366,-35.5 1366,-5.5 1486,-5.5 1486,-35.5"/>
<text text-anchor="start" x="1374" y="-23.5" font-family="Helvetica,sans-Serif" font-size="10.00">/Users/dabowang/be</text>
<text text-anchor="middle" x="1426" y="-12.5" font-family="Helvetica,sans-Serif" font-size="10.00">_all/tools/meta_tool.cpp</text>
</a>
</g>
</g>
<!-- Node14&#45;&gt;Node22 -->
<g id="edge24" class="edge">
<title>Node14&#45;&gt;Node22</title>
<path fill="none" stroke="#63b8ff" d="M1471.88,-73.63C1461.07,-61.35 1448.08,-46.59 1438.69,-35.92"/>
<polygon fill="#63b8ff" stroke="#63b8ff" points="1469.04,-75.71 1478.27,-80.9 1474.3,-71.08 1469.04,-75.71"/>
</g>
<!-- Node23 -->
<g id="node23" class="node">
<title>Node23</title>
<g id="a_node23"><a xlink:href="../../de/d8a/cidr_8cpp.html" target="_top" xlink:title=" ">
<polygon fill="white" stroke="#666666" points="1611.5,-35.5 1504.5,-35.5 1504.5,-5.5 1611.5,-5.5 1611.5,-35.5"/>
<text text-anchor="start" x="1512.5" y="-23.5" font-family="Helvetica,sans-Serif" font-size="10.00">/Users/dabowang/be</text>
<text text-anchor="middle" x="1558" y="-12.5" font-family="Helvetica,sans-Serif" font-size="10.00">_all/util/cidr.cpp</text>
</a>
</g>
</g>
<!-- Node14&#45;&gt;Node23 -->
<g id="edge26" class="edge">
<title>Node14&#45;&gt;Node23</title>
<path fill="none" stroke="#63b8ff" d="M1512.12,-73.63C1522.93,-61.35 1535.92,-46.59 1545.31,-35.92"/>
<polygon fill="#63b8ff" stroke="#63b8ff" points="1509.7,-71.08 1505.73,-80.9 1514.96,-75.71 1509.7,-71.08"/>
</g>
<!-- Node24 -->
<g id="node24" class="node">
<title>Node24</title>
<g id="a_node24"><a xlink:href="../../d2/dd9/disk__info_8cpp.html" target="_top" xlink:title=" ">
<polygon fill="white" stroke="#666666" points="1738,-35.5 1630,-35.5 1630,-5.5 1738,-5.5 1738,-35.5"/>
<text text-anchor="start" x="1638" y="-23.5" font-family="Helvetica,sans-Serif" font-size="10.00">/Users/dabowang/be</text>
<text text-anchor="middle" x="1684" y="-12.5" font-family="Helvetica,sans-Serif" font-size="10.00">_all/util/disk_info.cpp</text>
</a>
</g>
</g>
<!-- Node14&#45;&gt;Node24 -->
<g id="edge27" class="edge">
<title>Node14&#45;&gt;Node24</title>
<path fill="none" stroke="#63b8ff" d="M1539.41,-77.98C1572.65,-65 1616.45,-47.89 1647.09,-35.92"/>
<polygon fill="#63b8ff" stroke="#63b8ff" points="1538.47,-74.59 1530.43,-81.49 1541.02,-81.11 1538.47,-74.59"/>
</g>
<!-- Node14&#45;&gt;Node25 -->
<g id="edge28" class="edge">
<title>Node14&#45;&gt;Node25</title>
<path fill="none" stroke="#63b8ff" d="M1549.71,-79.49C1554.18,-78.53 1558.65,-77.68 1563,-77 1951.54,-16.54 2059.48,-107.69 2447,-41 2454.11,-39.78 2461.53,-37.97 2468.69,-35.95"/>
<polygon fill="#63b8ff" stroke="#63b8ff" points="1549.06,-76.04 1540.12,-81.73 1550.66,-82.86 1549.06,-76.04"/>
</g>
<!-- Node26 -->
<g id="node26" class="node">
<title>Node26</title>
<g id="a_node26"><a xlink:href="../../dc/d51/mem__info_8cpp.html" target="_top" xlink:title=" ">
<polygon fill="white" stroke="#666666" points="1868,-35.5 1756,-35.5 1756,-5.5 1868,-5.5 1868,-35.5"/>
<text text-anchor="start" x="1764" y="-23.5" font-family="Helvetica,sans-Serif" font-size="10.00">/Users/dabowang/be</text>
<text text-anchor="middle" x="1812" y="-12.5" font-family="Helvetica,sans-Serif" font-size="10.00">_all/util/mem_info.cpp</text>
</a>
</g>
</g>
<!-- Node14&#45;&gt;Node26 -->
<g id="edge29" class="edge">
<title>Node14&#45;&gt;Node26</title>
<path fill="none" stroke="#63b8ff" d="M1553.56,-79.29C1556.75,-78.49 1559.91,-77.73 1563,-77 1644.12,-57.95 1666.11,-61 1747,-41 1753.18,-39.47 1759.64,-37.72 1765.99,-35.91"/>
<polygon fill="#63b8ff" stroke="#63b8ff" points="1552.97,-75.83 1544.15,-81.71 1554.71,-82.61 1552.97,-75.83"/>
</g>
<!-- Node27 -->
<g id="node27" class="node">
<title>Node27</title>
<g id="a_node27"><a xlink:href="../../de/de5/os__util_8cpp.html" target="_top" xlink:title=" ">
<polygon fill="white" stroke="#666666" points="1993.5,-35.5 1886.5,-35.5 1886.5,-5.5 1993.5,-5.5 1993.5,-35.5"/>
<text text-anchor="start" x="1894.5" y="-23.5" font-family="Helvetica,sans-Serif" font-size="10.00">/Users/dabowang/be</text>
<text text-anchor="middle" x="1940" y="-12.5" font-family="Helvetica,sans-Serif" font-size="10.00">_all/util/os_util.cpp</text>
</a>
</g>
</g>
<!-- Node14&#45;&gt;Node27 -->
<g id="edge30" class="edge">
<title>Node14&#45;&gt;Node27</title>
<path fill="none" stroke="#63b8ff" d="M1551.54,-79.44C1555.4,-78.55 1559.25,-77.73 1563,-77 1700.91,-50.32 1739.53,-69.89 1877,-41 1883.5,-39.63 1890.29,-37.89 1896.9,-36"/>
<polygon fill="#63b8ff" stroke="#63b8ff" points="1551.02,-75.96 1542.13,-81.72 1552.67,-82.76 1551.02,-75.96"/>
</g>
<!-- Node14&#45;&gt;Node28 -->
<g id="edge31" class="edge">
<title>Node14&#45;&gt;Node28</title>
<path fill="none" stroke="#63b8ff" d="M1560.55,-82.73C1573.92,-80.47 1587.86,-78.41 1601,-77 2030.82,-30.82 2147,-114.51 2573,-41 2580.01,-39.79 2587.32,-38 2594.36,-35.98"/>
<polygon fill="#63b8ff" stroke="#63b8ff" points="1560.22,-79.23 1550.97,-84.4 1561.43,-86.13 1560.22,-79.23"/>
</g>
<!-- Node14&#45;&gt;Node29 -->
<g id="edge32" class="edge">
<title>Node14&#45;&gt;Node29</title>
<path fill="none" stroke="#63b8ff" d="M1560.53,-85.99C1585.21,-82.59 1613.3,-79.14 1639,-77 1873.66,-57.49 2465.9,-80.69 2698,-41 2705.01,-39.8 2712.32,-38.01 2719.36,-36"/>
<polygon fill="#63b8ff" stroke="#63b8ff" points="1560.37,-82.48 1550.95,-87.34 1561.34,-89.41 1560.37,-82.48"/>
</g>
<!-- Node30 -->
<g id="node30" class="node">
<title>Node30</title>
<g id="a_node30"><a xlink:href="../../dd/de3/string__util_8cpp.html" target="_top" xlink:title=" ">
<polygon fill="white" stroke="#666666" points="2122.5,-35.5 2011.5,-35.5 2011.5,-5.5 2122.5,-5.5 2122.5,-35.5"/>
<text text-anchor="start" x="2019.5" y="-23.5" font-family="Helvetica,sans-Serif" font-size="10.00">/Users/dabowang/be</text>
<text text-anchor="middle" x="2067" y="-12.5" font-family="Helvetica,sans-Serif" font-size="10.00">_all/util/string_util.cpp</text>
</a>
</g>
</g>
<!-- Node14&#45;&gt;Node30 -->
<g id="edge33" class="edge">
<title>Node14&#45;&gt;Node30</title>
<path fill="none" stroke="#63b8ff" d="M1550.75,-79.46C1554.87,-78.54 1558.99,-77.71 1563,-77 1756.22,-42.87 1810.27,-77.8 2003,-41 2009.85,-39.69 2017,-37.93 2023.94,-35.99"/>
<polygon fill="#63b8ff" stroke="#63b8ff" points="1550.24,-75.98 1541.32,-81.71 1551.86,-82.79 1550.24,-75.98"/>
</g>
<!-- Node31 -->
<g id="node31" class="node">
<title>Node31</title>
<g id="a_node31"><a xlink:href="../../d7/da8/system__metrics_8cpp.html" target="_top" xlink:title=" ">
<polygon fill="white" stroke="#666666" points="2279.5,-35.5 2140.5,-35.5 2140.5,-5.5 2279.5,-5.5 2279.5,-35.5"/>
<text text-anchor="start" x="2148.5" y="-23.5" font-family="Helvetica,sans-Serif" font-size="10.00">/Users/dabowang/be</text>
<text text-anchor="middle" x="2210" y="-12.5" font-family="Helvetica,sans-Serif" font-size="10.00">_all/util/system_metrics.cpp</text>
</a>
</g>
</g>
<!-- Node14&#45;&gt;Node31 -->
<g id="edge34" class="edge">
<title>Node14&#45;&gt;Node31</title>
<path fill="none" stroke="#63b8ff" d="M1550.52,-79.42C1554.73,-78.51 1558.91,-77.68 1563,-77 1812.93,-35.23 1881.61,-79.89 2132,-41 2140.41,-39.69 2149.25,-37.9 2157.82,-35.93"/>
<polygon fill="#63b8ff" stroke="#63b8ff" points="1549.85,-75.99 1540.91,-81.68 1551.45,-82.8 1549.85,-75.99"/>
</g>
<!-- Node32 -->
<g id="node32" class="node">
<title>Node32</title>
<g id="a_node32"><a xlink:href="../../df/dd5/vexplode__split_8cpp.html" target="_top" xlink:title=" ">
<polygon fill="white" stroke="#666666" points="2438,-41 2298,-41 2298,0 2438,0 2438,-41"/>
<text text-anchor="start" x="2306" y="-29" font-family="Helvetica,sans-Serif" font-size="10.00">/Users/dabowang/be</text>
<text text-anchor="start" x="2306" y="-18" font-family="Helvetica,sans-Serif" font-size="10.00">_all/vec/exprs/table</text>
<text text-anchor="middle" x="2368" y="-7" font-family="Helvetica,sans-Serif" font-size="10.00">_function/vexplode_split.cpp</text>
</a>
</g>
</g>
<!-- Node14&#45;&gt;Node32 -->
<g id="edge35" class="edge">
<title>Node14&#45;&gt;Node32</title>
<path fill="none" stroke="#63b8ff" d="M1549.93,-79.48C1554.33,-78.53 1558.72,-77.69 1563,-77 1882,-25.92 1969.36,-87.93 2289,-41 2291.94,-40.57 2294.92,-40.08 2297.93,-39.54"/>
<polygon fill="#63b8ff" stroke="#63b8ff" points="1549.45,-76 1540.51,-81.69 1551.05,-82.82 1549.45,-76"/>
</g>
<!-- Node33 -->
<g id="node33" class="node">
<title>Node33</title>
<g id="a_node33"><a xlink:href="../../de/d30/function__bitmap_8cpp.html" target="_top" xlink:title=" ">
<polygon fill="white" stroke="#666666" points="402.5,-41 271.5,-41 271.5,0 402.5,0 402.5,-41"/>
<text text-anchor="start" x="279.5" y="-29" font-family="Helvetica,sans-Serif" font-size="10.00">/Users/dabowang/be</text>
<text text-anchor="start" x="279.5" y="-18" font-family="Helvetica,sans-Serif" font-size="10.00">_all/vec/functions/function</text>
<text text-anchor="middle" x="337" y="-7" font-family="Helvetica,sans-Serif" font-size="10.00">_bitmap.cpp</text>
</a>
</g>
</g>
<!-- Node14&#45;&gt;Node33 -->
<g id="edge36" class="edge">
<title>Node14&#45;&gt;Node33</title>
<path fill="none" stroke="#63b8ff" d="M1437.68,-79.29C1433.75,-78.4 1429.83,-77.62 1426,-77 980.91,-4.54 858.22,-106.13 412,-41 408.94,-40.55 405.82,-40.03 402.68,-39.45"/>
<polygon fill="#63b8ff" stroke="#63b8ff" points="1436.67,-82.65 1447.22,-81.66 1438.36,-75.85 1436.67,-82.65"/>
</g>
</g>
</svg>
